<?xml version="1.0" encoding="UTF-8" standalone="no"?><svg xmlns="http://www.w3.org/2000/svg" xmlns:xlink="http://www.w3.org/1999/xlink" contentStyleType="text/css" height="319px" preserveAspectRatio="none" style="width:4517px;height:319px;background:#FFFFFF;" version="1.1" viewBox="0 0 4517 319" width="4517px" zoomAndPan="magnify"><defs/><g><!--MD5=[7fa0bd396e4666e7f70460bc17d4beed]
cluster com.hack23.cia.web.impl.ui.application.views.user.parliament.pagemode--><g id="cluster_com.hack23.cia.web.impl.ui.application.views.user.parliament.pagemode"><path d="M8.5,132.602 L516.5,132.602 A3.75,3.75 0 0 1 519,135.102 L526,157.6699 L4507.5,157.6699 A2.5,2.5 0 0 1 4510,160.1699 L4510,289.102 A2.5,2.5 0 0 1 4507.5,291.602 L8.5,291.602 A2.5,2.5 0 0 1 6,289.102 L6,135.102 A2.5,2.5 0 0 1 8.5,132.602 " fill="none" style="stroke:#000000;stroke-width:1.5;"/><line style="stroke:#000000;stroke-width:1.5;" x1="6" x2="526" y1="157.6699" y2="157.6699"/><text fill="#000000" font-family="sans-serif" font-size="14" font-weight="bold" lengthAdjust="spacing" textLength="507" x="10" y="149.5679">com.hack23.cia.web.impl.ui.application.views.user.parliament.pagemode</text></g><!--MD5=[5aa94c924e9848adf3a3e7e8e30b1801]
cluster com.hack23.cia.web.impl.ui.application.views.common.pagemode--><g id="cluster_com.hack23.cia.web.impl.ui.application.views.common.pagemode"><path d="M2095.5,6.602 L2555.5,6.602 A3.75,3.75 0 0 1 2558,9.102 L2565,31.6699 L2565.5,31.6699 A2.5,2.5 0 0 1 2568,34.1699 L2568,106.102 A2.5,2.5 0 0 1 2565.5,108.602 L2095.5,108.602 A2.5,2.5 0 0 1 2093,106.102 L2093,9.102 A2.5,2.5 0 0 1 2095.5,6.602 " fill="none" style="stroke:#000000;stroke-width:1.5;"/><line style="stroke:#000000;stroke-width:1.5;" x1="2093" x2="2565" y1="31.6699" y2="31.6699"/><text fill="#000000" font-family="sans-serif" font-size="14" font-weight="bold" lengthAdjust="spacing" textLength="459" x="2097" y="23.5679">com.hack23.cia.web.impl.ui.application.views.common.pagemode</text></g><!--MD5=[a6f2a06b20480acd8dedb13964148a7e]
class com.hack23.cia.web.impl.ui.application.views.user.parliament.pagemode.ParliamentPageVisitHistoryPageModContentFactoryImpl--><a href="ParliamentPageVisitHistoryPageModContentFactoryImpl.html" target="_top" title="ParliamentPageVisitHistoryPageModContentFactoryImpl.html" xlink:actuate="onRequest" xlink:href="ParliamentPageVisitHistoryPageModContentFactoryImpl.html" xlink:show="new" xlink:title="ParliamentPageVisitHistoryPageModContentFactoryImpl.html" xlink:type="simple"><g id="elem_com.hack23.cia.web.impl.ui.application.views.user.parliament.pagemode.ParliamentPageVisitHistoryPageModContentFactoryImpl"><rect codeLine="3" fill="#F1F1F1" height="105.2038" id="com.hack23.cia.web.impl.ui.application.views.user.parliament.pagemode.ParliamentPageVisitHistoryPageModContentFactoryImpl" rx="2.5" ry="2.5" style="stroke:#181818;stroke-width:0.5;" width="408" x="4086" y="170.602"/><ellipse cx="4101" cy="186.602" fill="#ADD1B2" rx="11" ry="11" style="stroke:#181818;stroke-width:1.0;"/><path d="M4103.9688,192.2426 Q4103.3906,192.5395 4102.75,192.6801 Q4102.1094,192.8364 4101.4063,192.8364 Q4098.9063,192.8364 4097.5781,191.1957 Q4096.2656,189.5395 4096.2656,186.4145 Q4096.2656,183.2895 4097.5781,181.6332 Q4098.9063,179.977 4101.4063,179.977 Q4102.1094,179.977 4102.75,180.1332 Q4103.4063,180.2895 4103.9688,180.5864 L4103.9688,183.3051 Q4103.3438,182.727 4102.75,182.4614 Q4102.1563,182.1801 4101.5313,182.1801 Q4100.1875,182.1801 4099.5,183.2582 Q4098.8125,184.3207 4098.8125,186.4145 Q4098.8125,188.5082 4099.5,189.5864 Q4100.1875,190.6489 4101.5313,190.6489 Q4102.1563,190.6489 4102.75,190.3832 Q4103.3438,190.102 4103.9688,189.5239 L4103.9688,192.2426 Z " fill="#000000"/><text fill="#000000" font-family="sans-serif" font-size="14" lengthAdjust="spacing" textLength="376" x="4115" y="192.034">ParliamentPageVisitHistoryPageModContentFactoryImpl</text><line style="stroke:#181818;stroke-width:0.5;" x1="4087" x2="4493" y1="202.602" y2="202.602"/><ellipse cx="4097" cy="217.6359" fill="none" rx="3" ry="3" style="stroke:#038048;stroke-width:1.0;"/><text fill="#000000" font-family="sans-serif" font-size="14" lengthAdjust="spacing" text-decoration="underline" textLength="90" x="4106" y="221.5679">NAME: String</text><line style="stroke:#181818;stroke-width:0.5;" x1="4087" x2="4493" y1="229.6699" y2="229.6699"/><ellipse cx="4097" cy="244.7039" fill="#84BE84" rx="3" ry="3" style="stroke:#038048;stroke-width:1.0;"/><text fill="#000000" font-family="sans-serif" font-size="14" lengthAdjust="spacing" textLength="311" x="4106" y="248.6358">createContent(String, MenuBar, Panel): Layout</text><ellipse cx="4097" cy="263.7718" fill="#84BE84" rx="3" ry="3" style="stroke:#038048;stroke-width:1.0;"/><text fill="#000000" font-family="sans-serif" font-size="14" lengthAdjust="spacing" textLength="217" x="4106" y="267.7038">matches(String, String): boolean</text></g></a><!--MD5=[73e8e5cf3a8403cc315e231de93d79cf]
class com.hack23.cia.web.impl.ui.application.views.user.parliament.pagemode.ParliamentDecisionFlowPageModContentFactoryImpl--><a href="ParliamentDecisionFlowPageModContentFactoryImpl.html" target="_top" title="ParliamentDecisionFlowPageModContentFactoryImpl.html" xlink:actuate="onRequest" xlink:href="ParliamentDecisionFlowPageModContentFactoryImpl.html" xlink:show="new" xlink:title="ParliamentDecisionFlowPageModContentFactoryImpl.html" xlink:type="simple"><g id="elem_com.hack23.cia.web.impl.ui.application.views.user.parliament.pagemode.ParliamentDecisionFlowPageModContentFactoryImpl"><rect codeLine="9" fill="#F1F1F1" height="86.1358" id="com.hack23.cia.web.impl.ui.application.views.user.parliament.pagemode.ParliamentDecisionFlowPageModContentFactoryImpl" rx="2.5" ry="2.5" style="stroke:#181818;stroke-width:0.5;" width="387" x="3663.5" y="180.102"/><ellipse cx="3678.5" cy="196.102" fill="#ADD1B2" rx="11" ry="11" style="stroke:#181818;stroke-width:1.0;"/><path d="M3681.4688,201.7426 Q3680.8906,202.0395 3680.25,202.1801 Q3679.6094,202.3364 3678.9063,202.3364 Q3676.4063,202.3364 3675.0781,200.6957 Q3673.7656,199.0395 3673.7656,195.9145 Q3673.7656,192.7895 3675.0781,191.1332 Q3676.4063,189.477 3678.9063,189.477 Q3679.6094,189.477 3680.25,189.6332 Q3680.9063,189.7895 3681.4688,190.0864 L3681.4688,192.8051 Q3680.8438,192.227 3680.25,191.9614 Q3679.6563,191.6801 3679.0313,191.6801 Q3677.6875,191.6801 3677,192.7582 Q3676.3125,193.8207 3676.3125,195.9145 Q3676.3125,198.0082 3677,199.0864 Q3677.6875,200.1489 3679.0313,200.1489 Q3679.6563,200.1489 3680.25,199.8832 Q3680.8438,199.602 3681.4688,199.0239 L3681.4688,201.7426 Z " fill="#000000"/><text fill="#000000" font-family="sans-serif" font-size="14" lengthAdjust="spacing" textLength="355" x="3692.5" y="201.534">ParliamentDecisionFlowPageModContentFactoryImpl</text><line style="stroke:#181818;stroke-width:0.5;" x1="3664.5" x2="4049.5" y1="212.102" y2="212.102"/><line style="stroke:#181818;stroke-width:0.5;" x1="3664.5" x2="4049.5" y1="220.102" y2="220.102"/><ellipse cx="3674.5" cy="235.1359" fill="#84BE84" rx="3" ry="3" style="stroke:#038048;stroke-width:1.0;"/><text fill="#000000" font-family="sans-serif" font-size="14" lengthAdjust="spacing" textLength="311" x="3683.5" y="239.0679">createContent(String, MenuBar, Panel): Layout</text><ellipse cx="3674.5" cy="254.2039" fill="#84BE84" rx="3" ry="3" style="stroke:#038048;stroke-width:1.0;"/><text fill="#000000" font-family="sans-serif" font-size="14" lengthAdjust="spacing" textLength="217" x="3683.5" y="258.1358">matches(String, String): boolean</text></g></a><!--MD5=[7e9b7b0152a2ed6fe2829f0ae7062e10]
class com.hack23.cia.web.impl.ui.application.views.user.parliament.pagemode.ParliamentChartsPartyWinnerPageModContentFactoryImpl--><a href="ParliamentChartsPartyWinnerPageModContentFactoryImpl.html" target="_top" title="ParliamentChartsPartyWinnerPageModContentFactoryImpl.html" xlink:actuate="onRequest" xlink:href="ParliamentChartsPartyWinnerPageModContentFactoryImpl.html" xlink:show="new" xlink:title="ParliamentChartsPartyWinnerPageModContentFactoryImpl.html" xlink:type="simple"><g id="elem_com.hack23.cia.web.impl.ui.application.views.user.parliament.pagemode.ParliamentChartsPartyWinnerPageModContentFactoryImpl"><rect codeLine="14" fill="#F1F1F1" height="86.1358" id="com.hack23.cia.web.impl.ui.application.views.user.parliament.pagemode.ParliamentChartsPartyWinnerPageModContentFactoryImpl" rx="2.5" ry="2.5" style="stroke:#181818;stroke-width:0.5;" width="427" x="3201.5" y="180.102"/><ellipse cx="3216.5" cy="196.102" fill="#ADD1B2" rx="11" ry="11" style="stroke:#181818;stroke-width:1.0;"/><path d="M3219.4688,201.7426 Q3218.8906,202.0395 3218.25,202.1801 Q3217.6094,202.3364 3216.9063,202.3364 Q3214.4063,202.3364 3213.0781,200.6957 Q3211.7656,199.0395 3211.7656,195.9145 Q3211.7656,192.7895 3213.0781,191.1332 Q3214.4063,189.477 3216.9063,189.477 Q3217.6094,189.477 3218.25,189.6332 Q3218.9063,189.7895 3219.4688,190.0864 L3219.4688,192.8051 Q3218.8438,192.227 3218.25,191.9614 Q3217.6563,191.6801 3217.0313,191.6801 Q3215.6875,191.6801 3215,192.7582 Q3214.3125,193.8207 3214.3125,195.9145 Q3214.3125,198.0082 3215,199.0864 Q3215.6875,200.1489 3217.0313,200.1489 Q3217.6563,200.1489 3218.25,199.8832 Q3218.8438,199.602 3219.4688,199.0239 L3219.4688,201.7426 Z " fill="#000000"/><text fill="#000000" font-family="sans-serif" font-size="14" lengthAdjust="spacing" textLength="395" x="3230.5" y="201.534">ParliamentChartsPartyWinnerPageModContentFactoryImpl</text><line style="stroke:#181818;stroke-width:0.5;" x1="3202.5" x2="3627.5" y1="212.102" y2="212.102"/><line style="stroke:#181818;stroke-width:0.5;" x1="3202.5" x2="3627.5" y1="220.102" y2="220.102"/><ellipse cx="3212.5" cy="235.1359" fill="#84BE84" rx="3" ry="3" style="stroke:#038048;stroke-width:1.0;"/><text fill="#000000" font-family="sans-serif" font-size="14" lengthAdjust="spacing" textLength="311" x="3221.5" y="239.0679">createContent(String, MenuBar, Panel): Layout</text><ellipse cx="3212.5" cy="254.2039" fill="#84BE84" rx="3" ry="3" style="stroke:#038048;stroke-width:1.0;"/><text fill="#000000" font-family="sans-serif" font-size="14" lengthAdjust="spacing" textLength="217" x="3221.5" y="258.1358">matches(String, String): boolean</text></g></a><!--MD5=[5eb09c1b6207691ed94afce886654b6a]
class com.hack23.cia.web.impl.ui.application.views.user.parliament.pagemode.ParliamentOverviewPageModContentFactoryImpl--><a href="ParliamentOverviewPageModContentFactoryImpl.html" target="_top" title="ParliamentOverviewPageModContentFactoryImpl.html" xlink:actuate="onRequest" xlink:href="ParliamentOverviewPageModContentFactoryImpl.html" xlink:show="new" xlink:title="ParliamentOverviewPageModContentFactoryImpl.html" xlink:type="simple"><g id="elem_com.hack23.cia.web.impl.ui.application.views.user.parliament.pagemode.ParliamentOverviewPageModContentFactoryImpl"><rect codeLine="19" fill="#F1F1F1" height="86.1358" id="com.hack23.cia.web.impl.ui.application.views.user.parliament.pagemode.ParliamentOverviewPageModContentFactoryImpl" rx="2.5" ry="2.5" style="stroke:#181818;stroke-width:0.5;" width="362" x="2804" y="180.102"/><ellipse cx="2819" cy="196.102" fill="#ADD1B2" rx="11" ry="11" style="stroke:#181818;stroke-width:1.0;"/><path d="M2821.9688,201.7426 Q2821.3906,202.0395 2820.75,202.1801 Q2820.1094,202.3364 2819.4063,202.3364 Q2816.9063,202.3364 2815.5781,200.6957 Q2814.2656,199.0395 2814.2656,195.9145 Q2814.2656,192.7895 2815.5781,191.1332 Q2816.9063,189.477 2819.4063,189.477 Q2820.1094,189.477 2820.75,189.6332 Q2821.4063,189.7895 2821.9688,190.0864 L2821.9688,192.8051 Q2821.3438,192.227 2820.75,191.9614 Q2820.1563,191.6801 2819.5313,191.6801 Q2818.1875,191.6801 2817.5,192.7582 Q2816.8125,193.8207 2816.8125,195.9145 Q2816.8125,198.0082 2817.5,199.0864 Q2818.1875,200.1489 2819.5313,200.1489 Q2820.1563,200.1489 2820.75,199.8832 Q2821.3438,199.602 2821.9688,199.0239 L2821.9688,201.7426 Z " fill="#000000"/><text fill="#000000" font-family="sans-serif" font-size="14" lengthAdjust="spacing" textLength="330" x="2833" y="201.534">ParliamentOverviewPageModContentFactoryImpl</text><line style="stroke:#181818;stroke-width:0.5;" x1="2805" x2="3165" y1="212.102" y2="212.102"/><line style="stroke:#181818;stroke-width:0.5;" x1="2805" x2="3165" y1="220.102" y2="220.102"/><ellipse cx="2815" cy="235.1359" fill="#84BE84" rx="3" ry="3" style="stroke:#038048;stroke-width:1.0;"/><text fill="#000000" font-family="sans-serif" font-size="14" lengthAdjust="spacing" textLength="311" x="2824" y="239.0679">createContent(String, MenuBar, Panel): Layout</text><ellipse cx="2815" cy="254.2039" fill="#84BE84" rx="3" ry="3" style="stroke:#038048;stroke-width:1.0;"/><text fill="#000000" font-family="sans-serif" font-size="14" lengthAdjust="spacing" textLength="217" x="2824" y="258.1358">matches(String, String): boolean</text></g></a><!--MD5=[f925e1b92de061e24903e407a7df053c]
class com.hack23.cia.web.impl.ui.application.views.user.parliament.pagemode.ParliamentRuleViolationsPageModContentFactoryImpl--><a href="ParliamentRuleViolationsPageModContentFactoryImpl.html" target="_top" title="ParliamentRuleViolationsPageModContentFactoryImpl.html" xlink:actuate="onRequest" xlink:href="ParliamentRuleViolationsPageModContentFactoryImpl.html" xlink:show="new" xlink:title="ParliamentRuleViolationsPageModContentFactoryImpl.html" xlink:type="simple"><g id="elem_com.hack23.cia.web.impl.ui.application.views.user.parliament.pagemode.ParliamentRuleViolationsPageModContentFactoryImpl"><rect codeLine="24" fill="#F1F1F1" height="86.1358" id="com.hack23.cia.web.impl.ui.application.views.user.parliament.pagemode.ParliamentRuleViolationsPageModContentFactoryImpl" rx="2.5" ry="2.5" style="stroke:#181818;stroke-width:0.5;" width="395" x="2373.5" y="180.102"/><ellipse cx="2388.5" cy="196.102" fill="#ADD1B2" rx="11" ry="11" style="stroke:#181818;stroke-width:1.0;"/><path d="M2391.4688,201.7426 Q2390.8906,202.0395 2390.25,202.1801 Q2389.6094,202.3364 2388.9063,202.3364 Q2386.4063,202.3364 2385.0781,200.6957 Q2383.7656,199.0395 2383.7656,195.9145 Q2383.7656,192.7895 2385.0781,191.1332 Q2386.4063,189.477 2388.9063,189.477 Q2389.6094,189.477 2390.25,189.6332 Q2390.9063,189.7895 2391.4688,190.0864 L2391.4688,192.8051 Q2390.8438,192.227 2390.25,191.9614 Q2389.6563,191.6801 2389.0313,191.6801 Q2387.6875,191.6801 2387,192.7582 Q2386.3125,193.8207 2386.3125,195.9145 Q2386.3125,198.0082 2387,199.0864 Q2387.6875,200.1489 2389.0313,200.1489 Q2389.6563,200.1489 2390.25,199.8832 Q2390.8438,199.602 2391.4688,199.0239 L2391.4688,201.7426 Z " fill="#000000"/><text fill="#000000" font-family="sans-serif" font-size="14" lengthAdjust="spacing" textLength="363" x="2402.5" y="201.534">ParliamentRuleViolationsPageModContentFactoryImpl</text><line style="stroke:#181818;stroke-width:0.5;" x1="2374.5" x2="2767.5" y1="212.102" y2="212.102"/><line style="stroke:#181818;stroke-width:0.5;" x1="2374.5" x2="2767.5" y1="220.102" y2="220.102"/><ellipse cx="2384.5" cy="235.1359" fill="#84BE84" rx="3" ry="3" style="stroke:#038048;stroke-width:1.0;"/><text fill="#000000" font-family="sans-serif" font-size="14" lengthAdjust="spacing" textLength="311" x="2393.5" y="239.0679">createContent(String, MenuBar, Panel): Layout</text><ellipse cx="2384.5" cy="254.2039" fill="#84BE84" rx="3" ry="3" style="stroke:#038048;stroke-width:1.0;"/><text fill="#000000" font-family="sans-serif" font-size="14" lengthAdjust="spacing" textLength="217" x="2393.5" y="258.1358">matches(String, String): boolean</text></g></a><!--MD5=[3423b77fba7600506eb76e07d5122f92]
class com.hack23.cia.web.impl.ui.application.views.user.parliament.pagemode.ParliamentChartsDecisionActivityByTypePageModContentFactoryImpl--><a href="ParliamentChartsDecisionActivityByTypePageModContentFactoryImpl.html" target="_top" title="ParliamentChartsDecisionActivityByTypePageModContentFactoryImpl.html" xlink:actuate="onRequest" xlink:href="ParliamentChartsDecisionActivityByTypePageModContentFactoryImpl.html" xlink:show="new" xlink:title="ParliamentChartsDecisionActivityByTypePageModContentFactoryImpl.html" xlink:type="simple"><g id="elem_com.hack23.cia.web.impl.ui.application.views.user.parliament.pagemode.ParliamentChartsDecisionActivityByTypePageModContentFactoryImpl"><rect codeLine="29" fill="#F1F1F1" height="86.1358" id="com.hack23.cia.web.impl.ui.application.views.user.parliament.pagemode.ParliamentChartsDecisionActivityByTypePageModContentFactoryImpl" rx="2.5" ry="2.5" style="stroke:#181818;stroke-width:0.5;" width="497" x="1841.5" y="180.102"/><ellipse cx="1856.5" cy="196.102" fill="#ADD1B2" rx="11" ry="11" style="stroke:#181818;stroke-width:1.0;"/><path d="M1859.4688,201.7426 Q1858.8906,202.0395 1858.25,202.1801 Q1857.6094,202.3364 1856.9063,202.3364 Q1854.4063,202.3364 1853.0781,200.6957 Q1851.7656,199.0395 1851.7656,195.9145 Q1851.7656,192.7895 1853.0781,191.1332 Q1854.4063,189.477 1856.9063,189.477 Q1857.6094,189.477 1858.25,189.6332 Q1858.9063,189.7895 1859.4688,190.0864 L1859.4688,192.8051 Q1858.8438,192.227 1858.25,191.9614 Q1857.6563,191.6801 1857.0313,191.6801 Q1855.6875,191.6801 1855,192.7582 Q1854.3125,193.8207 1854.3125,195.9145 Q1854.3125,198.0082 1855,199.0864 Q1855.6875,200.1489 1857.0313,200.1489 Q1857.6563,200.1489 1858.25,199.8832 Q1858.8438,199.602 1859.4688,199.0239 L1859.4688,201.7426 Z " fill="#000000"/><text fill="#000000" font-family="sans-serif" font-size="14" lengthAdjust="spacing" textLength="465" x="1870.5" y="201.534">ParliamentChartsDecisionActivityByTypePageModContentFactoryImpl</text><line style="stroke:#181818;stroke-width:0.5;" x1="1842.5" x2="2337.5" y1="212.102" y2="212.102"/><line style="stroke:#181818;stroke-width:0.5;" x1="1842.5" x2="2337.5" y1="220.102" y2="220.102"/><ellipse cx="1852.5" cy="235.1359" fill="#84BE84" rx="3" ry="3" style="stroke:#038048;stroke-width:1.0;"/><text fill="#000000" font-family="sans-serif" font-size="14" lengthAdjust="spacing" textLength="311" x="1861.5" y="239.0679">createContent(String, MenuBar, Panel): Layout</text><ellipse cx="1852.5" cy="254.2039" fill="#84BE84" rx="3" ry="3" style="stroke:#038048;stroke-width:1.0;"/><text fill="#000000" font-family="sans-serif" font-size="14" lengthAdjust="spacing" textLength="217" x="1861.5" y="258.1358">matches(String, String): boolean</text></g></a><!--MD5=[b4643d4d7b49f978e87ce33411751678]
class com.hack23.cia.web.impl.ui.application.views.user.parliament.pagemode.ParliamentChartsPartyGenderPageModContentFactoryImpl--><a href="ParliamentChartsPartyGenderPageModContentFactoryImpl.html" target="_top" title="ParliamentChartsPartyGenderPageModContentFactoryImpl.html" xlink:actuate="onRequest" xlink:href="ParliamentChartsPartyGenderPageModContentFactoryImpl.html" xlink:show="new" xlink:title="ParliamentChartsPartyGenderPageModContentFactoryImpl.html" xlink:type="simple"><g id="elem_com.hack23.cia.web.impl.ui.application.views.user.parliament.pagemode.ParliamentChartsPartyGenderPageModContentFactoryImpl"><rect codeLine="34" fill="#F1F1F1" height="86.1358" id="com.hack23.cia.web.impl.ui.application.views.user.parliament.pagemode.ParliamentChartsPartyGenderPageModContentFactoryImpl" rx="2.5" ry="2.5" style="stroke:#181818;stroke-width:0.5;" width="428" x="1378" y="180.102"/><ellipse cx="1393" cy="196.102" fill="#ADD1B2" rx="11" ry="11" style="stroke:#181818;stroke-width:1.0;"/><path d="M1395.9688,201.7426 Q1395.3906,202.0395 1394.75,202.1801 Q1394.1094,202.3364 1393.4063,202.3364 Q1390.9063,202.3364 1389.5781,200.6957 Q1388.2656,199.0395 1388.2656,195.9145 Q1388.2656,192.7895 1389.5781,191.1332 Q1390.9063,189.477 1393.4063,189.477 Q1394.1094,189.477 1394.75,189.6332 Q1395.4063,189.7895 1395.9688,190.0864 L1395.9688,192.8051 Q1395.3438,192.227 1394.75,191.9614 Q1394.1563,191.6801 1393.5313,191.6801 Q1392.1875,191.6801 1391.5,192.7582 Q1390.8125,193.8207 1390.8125,195.9145 Q1390.8125,198.0082 1391.5,199.0864 Q1392.1875,200.1489 1393.5313,200.1489 Q1394.1563,200.1489 1394.75,199.8832 Q1395.3438,199.602 1395.9688,199.0239 L1395.9688,201.7426 Z " fill="#000000"/><text fill="#000000" font-family="sans-serif" font-size="14" lengthAdjust="spacing" textLength="396" x="1407" y="201.534">ParliamentChartsPartyGenderPageModContentFactoryImpl</text><line style="stroke:#181818;stroke-width:0.5;" x1="1379" x2="1805" y1="212.102" y2="212.102"/><line style="stroke:#181818;stroke-width:0.5;" x1="1379" x2="1805" y1="220.102" y2="220.102"/><ellipse cx="1389" cy="235.1359" fill="#84BE84" rx="3" ry="3" style="stroke:#038048;stroke-width:1.0;"/><text fill="#000000" font-family="sans-serif" font-size="14" lengthAdjust="spacing" textLength="311" x="1398" y="239.0679">createContent(String, MenuBar, Panel): Layout</text><ellipse cx="1389" cy="254.2039" fill="#84BE84" rx="3" ry="3" style="stroke:#038048;stroke-width:1.0;"/><text fill="#000000" font-family="sans-serif" font-size="14" lengthAdjust="spacing" textLength="217" x="1398" y="258.1358">matches(String, String): boolean</text></g></a><!--MD5=[e772349d84eb5dcf9ebbed25d104d93a]
class com.hack23.cia.web.impl.ui.application.views.user.parliament.pagemode.ParliamentRiskPageModContentFactoryImpl--><a href="ParliamentRiskPageModContentFactoryImpl.html" target="_top" title="ParliamentRiskPageModContentFactoryImpl.html" xlink:actuate="onRequest" xlink:href="ParliamentRiskPageModContentFactoryImpl.html" xlink:show="new" xlink:title="ParliamentRiskPageModContentFactoryImpl.html" xlink:type="simple"><g id="elem_com.hack23.cia.web.impl.ui.application.views.user.parliament.pagemode.ParliamentRiskPageModContentFactoryImpl"><rect codeLine="39" fill="#F1F1F1" height="86.1358" id="com.hack23.cia.web.impl.ui.application.views.user.parliament.pagemode.ParliamentRiskPageModContentFactoryImpl" rx="2.5" ry="2.5" style="stroke:#181818;stroke-width:0.5;" width="337" x="1005.5" y="180.102"/><ellipse cx="1025" cy="196.102" fill="#ADD1B2" rx="11" ry="11" style="stroke:#181818;stroke-width:1.0;"/><path d="M1027.9688,201.7426 Q1027.3906,202.0395 1026.75,202.1801 Q1026.1094,202.3364 1025.4063,202.3364 Q1022.9063,202.3364 1021.5781,200.6957 Q1020.2656,199.0395 1020.2656,195.9145 Q1020.2656,192.7895 1021.5781,191.1332 Q1022.9063,189.477 1025.4063,189.477 Q1026.1094,189.477 1026.75,189.6332 Q1027.4063,189.7895 1027.9688,190.0864 L1027.9688,192.8051 Q1027.3438,192.227 1026.75,191.9614 Q1026.1563,191.6801 1025.5313,191.6801 Q1024.1875,191.6801 1023.5,192.7582 Q1022.8125,193.8207 1022.8125,195.9145 Q1022.8125,198.0082 1023.5,199.0864 Q1024.1875,200.1489 1025.5313,200.1489 Q1026.1563,200.1489 1026.75,199.8832 Q1027.3438,199.602 1027.9688,199.0239 L1027.9688,201.7426 Z " fill="#000000"/><text fill="#000000" font-family="sans-serif" font-size="14" lengthAdjust="spacing" textLength="295" x="1040" y="201.534">ParliamentRiskPageModContentFactoryImpl</text><line style="stroke:#181818;stroke-width:0.5;" x1="1006.5" x2="1341.5" y1="212.102" y2="212.102"/><line style="stroke:#181818;stroke-width:0.5;" x1="1006.5" x2="1341.5" y1="220.102" y2="220.102"/><ellipse cx="1016.5" cy="235.1359" fill="#84BE84" rx="3" ry="3" style="stroke:#038048;stroke-width:1.0;"/><text fill="#000000" font-family="sans-serif" font-size="14" lengthAdjust="spacing" textLength="311" x="1025.5" y="239.0679">createContent(String, MenuBar, Panel): Layout</text><ellipse cx="1016.5" cy="254.2039" fill="#84BE84" rx="3" ry="3" style="stroke:#038048;stroke-width:1.0;"/><text fill="#000000" font-family="sans-serif" font-size="14" lengthAdjust="spacing" textLength="217" x="1025.5" y="258.1358">matches(String, String): boolean</text></g></a><!--MD5=[e39619be4208f9b7c7be52100633553a]
class com.hack23.cia.web.impl.ui.application.views.user.parliament.pagemode.ParliamentChartsDocumentActivityByTypePageModContentFactoryImpl--><a href="ParliamentChartsDocumentActivityByTypePageModContentFactoryImpl.html" target="_top" title="ParliamentChartsDocumentActivityByTypePageModContentFactoryImpl.html" xlink:actuate="onRequest" xlink:href="ParliamentChartsDocumentActivityByTypePageModContentFactoryImpl.html" xlink:show="new" xlink:title="ParliamentChartsDocumentActivityByTypePageModContentFactoryImpl.html" xlink:type="simple"><g id="elem_com.hack23.cia.web.impl.ui.application.views.user.parliament.pagemode.ParliamentChartsDocumentActivityByTypePageModContentFactoryImpl"><rect codeLine="44" fill="#F1F1F1" height="86.1358" id="com.hack23.cia.web.impl.ui.application.views.user.parliament.pagemode.ParliamentChartsDocumentActivityByTypePageModContentFactoryImpl" rx="2.5" ry="2.5" style="stroke:#181818;stroke-width:0.5;" width="509" x="461.5" y="180.102"/><ellipse cx="476.5" cy="196.102" fill="#ADD1B2" rx="11" ry="11" style="stroke:#181818;stroke-width:1.0;"/><path d="M479.4688,201.7426 Q478.8906,202.0395 478.25,202.1801 Q477.6094,202.3364 476.9063,202.3364 Q474.4063,202.3364 473.0781,200.6957 Q471.7656,199.0395 471.7656,195.9145 Q471.7656,192.7895 473.0781,191.1332 Q474.4063,189.477 476.9063,189.477 Q477.6094,189.477 478.25,189.6332 Q478.9063,189.7895 479.4688,190.0864 L479.4688,192.8051 Q478.8438,192.227 478.25,191.9614 Q477.6563,191.6801 477.0313,191.6801 Q475.6875,191.6801 475,192.7582 Q474.3125,193.8207 474.3125,195.9145 Q474.3125,198.0082 475,199.0864 Q475.6875,200.1489 477.0313,200.1489 Q477.6563,200.1489 478.25,199.8832 Q478.8438,199.602 479.4688,199.0239 L479.4688,201.7426 Z " fill="#000000"/><text fill="#000000" font-family="sans-serif" font-size="14" lengthAdjust="spacing" textLength="477" x="490.5" y="201.534">ParliamentChartsDocumentActivityByTypePageModContentFactoryImpl</text><line style="stroke:#181818;stroke-width:0.5;" x1="462.5" x2="969.5" y1="212.102" y2="212.102"/><line style="stroke:#181818;stroke-width:0.5;" x1="462.5" x2="969.5" y1="220.102" y2="220.102"/><ellipse cx="472.5" cy="235.1359" fill="#84BE84" rx="3" ry="3" style="stroke:#038048;stroke-width:1.0;"/><text fill="#000000" font-family="sans-serif" font-size="14" lengthAdjust="spacing" textLength="311" x="481.5" y="239.0679">createContent(String, MenuBar, Panel): Layout</text><ellipse cx="472.5" cy="254.2039" fill="#84BE84" rx="3" ry="3" style="stroke:#038048;stroke-width:1.0;"/><text fill="#000000" font-family="sans-serif" font-size="14" lengthAdjust="spacing" textLength="217" x="481.5" y="258.1358">matches(String, String): boolean</text></g></a><!--MD5=[72b15c04023d3dae9d71ec06bf47e3c3]
class com.hack23.cia.web.impl.ui.application.views.user.parliament.pagemode.ParliamentChartsPartyAgePageModContentFactoryImpl--><a href="ParliamentChartsPartyAgePageModContentFactoryImpl.html" target="_top" title="ParliamentChartsPartyAgePageModContentFactoryImpl.html" xlink:actuate="onRequest" xlink:href="ParliamentChartsPartyAgePageModContentFactoryImpl.html" xlink:show="new" xlink:title="ParliamentChartsPartyAgePageModContentFactoryImpl.html" xlink:type="simple"><g id="elem_com.hack23.cia.web.impl.ui.application.views.user.parliament.pagemode.ParliamentChartsPartyAgePageModContentFactoryImpl"><rect codeLine="49" fill="#F1F1F1" height="86.1358" id="com.hack23.cia.web.impl.ui.application.views.user.parliament.pagemode.ParliamentChartsPartyAgePageModContentFactoryImpl" rx="2.5" ry="2.5" style="stroke:#181818;stroke-width:0.5;" width="404" x="22" y="180.102"/><ellipse cx="37" cy="196.102" fill="#ADD1B2" rx="11" ry="11" style="stroke:#181818;stroke-width:1.0;"/><path d="M39.9688,201.7426 Q39.3906,202.0395 38.75,202.1801 Q38.1094,202.3364 37.4063,202.3364 Q34.9063,202.3364 33.5781,200.6957 Q32.2656,199.0395 32.2656,195.9145 Q32.2656,192.7895 33.5781,191.1332 Q34.9063,189.477 37.4063,189.477 Q38.1094,189.477 38.75,189.6332 Q39.4063,189.7895 39.9688,190.0864 L39.9688,192.8051 Q39.3438,192.227 38.75,191.9614 Q38.1563,191.6801 37.5313,191.6801 Q36.1875,191.6801 35.5,192.7582 Q34.8125,193.8207 34.8125,195.9145 Q34.8125,198.0082 35.5,199.0864 Q36.1875,200.1489 37.5313,200.1489 Q38.1563,200.1489 38.75,199.8832 Q39.3438,199.602 39.9688,199.0239 L39.9688,201.7426 Z " fill="#000000"/><text fill="#000000" font-family="sans-serif" font-size="14" lengthAdjust="spacing" textLength="372" x="51" y="201.534">ParliamentChartsPartyAgePageModContentFactoryImpl</text><line style="stroke:#181818;stroke-width:0.5;" x1="23" x2="425" y1="212.102" y2="212.102"/><line style="stroke:#181818;stroke-width:0.5;" x1="23" x2="425" y1="220.102" y2="220.102"/><ellipse cx="33" cy="235.1359" fill="#84BE84" rx="3" ry="3" style="stroke:#038048;stroke-width:1.0;"/><text fill="#000000" font-family="sans-serif" font-size="14" lengthAdjust="spacing" textLength="311" x="42" y="239.0679">createContent(String, MenuBar, Panel): Layout</text><ellipse cx="33" cy="254.2039" fill="#84BE84" rx="3" ry="3" style="stroke:#038048;stroke-width:1.0;"/><text fill="#000000" font-family="sans-serif" font-size="14" lengthAdjust="spacing" textLength="217" x="42" y="258.1358">matches(String, String): boolean</text></g></a><!--MD5=[db981ccff2a6c8db469b3bc4ac975bd4]
class com.hack23.cia.web.impl.ui.application.views.common.pagemode.AbstractBasicPageModContentFactoryImpl--><a href="../../../common/pagemode/AbstractBasicPageModContentFactoryImpl.html" target="_top" title="../../../common/pagemode/AbstractBasicPageModContentFactoryImpl.html" xlink:actuate="onRequest" xlink:href="../../../common/pagemode/AbstractBasicPageModContentFactoryImpl.html" xlink:show="new" xlink:title="../../../common/pagemode/AbstractBasicPageModContentFactoryImpl.html" xlink:type="simple"><g id="elem_com.hack23.cia.web.impl.ui.application.views.common.pagemode.AbstractBasicPageModContentFactoryImpl"><rect codeLine="67" fill="#F1F1F1" height="48" id="com.hack23.cia.web.impl.ui.application.views.common.pagemode.AbstractBasicPageModContentFactoryImpl" rx="2.5" ry="2.5" style="stroke:#181818;stroke-width:0.5;" width="300" x="2180" y="44.602"/><ellipse cx="2195" cy="60.602" fill="#A9DCDF" rx="11" ry="11" style="stroke:#181818;stroke-width:1.0;"/><path d="M2195.1094,55.9457 L2193.9531,61.0239 L2196.2813,61.0239 L2195.1094,55.9457 Z M2193.625,53.7114 L2196.6094,53.7114 L2199.9688,66.102 L2197.5156,66.102 L2196.75,63.0395 L2193.4688,63.0395 L2192.7188,66.102 L2190.2813,66.102 L2193.625,53.7114 Z " fill="#000000"/><text fill="#000000" font-family="sans-serif" font-size="14" font-style="italic" lengthAdjust="spacing" textLength="268" x="2209" y="66.034">AbstractBasicPageModContentFactoryImpl</text><line style="stroke:#181818;stroke-width:0.5;" x1="2181" x2="2479" y1="76.602" y2="76.602"/><line style="stroke:#181818;stroke-width:0.5;" x1="2181" x2="2479" y1="84.602" y2="84.602"/></g></a><!--MD5=[55fa2f75a0d7435b00e27a09cfcb12d2]
reverse link com.hack23.cia.web.impl.ui.application.views.common.pagemode.AbstractBasicPageModContentFactoryImpl to com.hack23.cia.web.impl.ui.application.views.user.parliament.pagemode.ParliamentPageVisitHistoryPageModContentFactoryImpl--><g id="link_com.hack23.cia.web.impl.ui.application.views.common.pagemode.AbstractBasicPageModContentFactoryImpl_com.hack23.cia.web.impl.ui.application.views.user.parliament.pagemode.ParliamentPageVisitHistoryPageModContentFactoryImpl"><path codeLine="54" d="M2500.39,71.312 C2908.3,75.932 3918.21,90.672 4068,124.602 C4111.11,134.362 4156.2,152.522 4194.4,170.542 " fill="none" id="com.hack23.cia.web.impl.ui.application.views.common.pagemode.AbstractBasicPageModContentFactoryImpl-backto-com.hack23.cia.web.impl.ui.application.views.user.parliament.pagemode.ParliamentPageVisitHistoryPageModContentFactoryImpl" style="stroke:#181818;stroke-width:1.0;"/><polygon fill="none" points="2500.18,78.312,2480.26,71.082,2500.33,64.312,2500.18,78.312" style="stroke:#181818;stroke-width:1.0;"/></g><!--MD5=[2809e626345876aa82f963dfafa98d8f]
reverse link com.hack23.cia.web.impl.ui.application.views.common.pagemode.AbstractBasicPageModContentFactoryImpl to com.hack23.cia.web.impl.ui.application.views.user.parliament.pagemode.ParliamentDecisionFlowPageModContentFactoryImpl--><g id="link_com.hack23.cia.web.impl.ui.application.views.common.pagemode.AbstractBasicPageModContentFactoryImpl_com.hack23.cia.web.impl.ui.application.views.user.parliament.pagemode.ParliamentDecisionFlowPageModContentFactoryImpl"><path codeLine="55" d="M2500.51,73.032 C2831.39,80.212 3537.69,98.402 3646,124.602 C3694.24,136.272 3744.84,159.232 3784.39,179.942 " fill="none" id="com.hack23.cia.web.impl.ui.application.views.common.pagemode.AbstractBasicPageModContentFactoryImpl-backto-com.hack23.cia.web.impl.ui.application.views.user.parliament.pagemode.ParliamentDecisionFlowPageModContentFactoryImpl" style="stroke:#181818;stroke-width:1.0;"/><polygon fill="none" points="2500.07,80.022,2480.23,72.592,2500.37,66.022,2500.07,80.022" style="stroke:#181818;stroke-width:1.0;"/></g><!--MD5=[d6e3e234ef1083179e687cfc8f9ad9d4]
reverse link com.hack23.cia.web.impl.ui.application.views.common.pagemode.AbstractBasicPageModContentFactoryImpl to com.hack23.cia.web.impl.ui.application.views.user.parliament.pagemode.ParliamentChartsPartyWinnerPageModContentFactoryImpl--><g id="link_com.hack23.cia.web.impl.ui.application.views.common.pagemode.AbstractBasicPageModContentFactoryImpl_com.hack23.cia.web.impl.ui.application.views.user.parliament.pagemode.ParliamentChartsPartyWinnerPageModContentFactoryImpl"><path codeLine="56" d="M2500.49,73.852 C2711.62,80.282 3058.69,95.022 3184,124.602 C3235.79,136.832 3290.8,159.612 3334.13,180.082 " fill="none" id="com.hack23.cia.web.impl.ui.application.views.common.pagemode.AbstractBasicPageModContentFactoryImpl-backto-com.hack23.cia.web.impl.ui.application.views.user.parliament.pagemode.ParliamentChartsPartyWinnerPageModContentFactoryImpl" style="stroke:#181818;stroke-width:1.0;"/><polygon fill="none" points="2499.96,80.832,2480.18,73.242,2500.38,66.842,2499.96,80.832" style="stroke:#181818;stroke-width:1.0;"/></g><!--MD5=[9e14d4ced772adafb2c66af4e251a24f]
reverse link com.hack23.cia.web.impl.ui.application.views.common.pagemode.AbstractBasicPageModContentFactoryImpl to com.hack23.cia.web.impl.ui.application.views.user.parliament.pagemode.ParliamentOverviewPageModContentFactoryImpl--><g id="link_com.hack23.cia.web.impl.ui.application.views.common.pagemode.AbstractBasicPageModContentFactoryImpl_com.hack23.cia.web.impl.ui.application.views.user.parliament.pagemode.ParliamentOverviewPageModContentFactoryImpl"><path codeLine="57" d="M2500.38,76.572 C2587.27,83.522 2693.79,97.302 2786,124.602 C2830.27,137.702 2876.76,159.952 2913.66,179.882 " fill="none" id="com.hack23.cia.web.impl.ui.application.views.common.pagemode.AbstractBasicPageModContentFactoryImpl-backto-com.hack23.cia.web.impl.ui.application.views.user.parliament.pagemode.ParliamentOverviewPageModContentFactoryImpl" style="stroke:#181818;stroke-width:1.0;"/><polygon fill="none" points="2499.58,83.532,2480.16,75.052,2500.63,69.572,2499.58,83.532" style="stroke:#181818;stroke-width:1.0;"/></g><!--MD5=[00f76197ec1fd4129493bf429e79a77c]
reverse link com.hack23.cia.web.impl.ui.application.views.common.pagemode.AbstractBasicPageModContentFactoryImpl to com.hack23.cia.web.impl.ui.application.views.user.parliament.pagemode.ParliamentRuleViolationsPageModContentFactoryImpl--><g id="link_com.hack23.cia.web.impl.ui.application.views.common.pagemode.AbstractBasicPageModContentFactoryImpl_com.hack23.cia.web.impl.ui.application.views.user.parliament.pagemode.ParliamentRuleViolationsPageModContentFactoryImpl"><path codeLine="58" d="M2383.6,103.512 C2419.25,126.072 2466.34,155.872 2504.4,179.962 " fill="none" id="com.hack23.cia.web.impl.ui.application.views.common.pagemode.AbstractBasicPageModContentFactoryImpl-backto-com.hack23.cia.web.impl.ui.application.views.user.parliament.pagemode.ParliamentRuleViolationsPageModContentFactoryImpl" style="stroke:#181818;stroke-width:1.0;"/><polygon fill="none" points="2379.76,109.372,2366.6,92.762,2387.25,97.542,2379.76,109.372" style="stroke:#181818;stroke-width:1.0;"/></g><!--MD5=[1af978ea3739cdb7c933bcd551b95fc1]
reverse link com.hack23.cia.web.impl.ui.application.views.common.pagemode.AbstractBasicPageModContentFactoryImpl to com.hack23.cia.web.impl.ui.application.views.user.parliament.pagemode.ParliamentChartsDecisionActivityByTypePageModContentFactoryImpl--><g id="link_com.hack23.cia.web.impl.ui.application.views.common.pagemode.AbstractBasicPageModContentFactoryImpl_com.hack23.cia.web.impl.ui.application.views.user.parliament.pagemode.ParliamentChartsDecisionActivityByTypePageModContentFactoryImpl"><path codeLine="59" d="M2276.63,103.512 C2241.12,126.072 2194.22,155.872 2156.32,179.962 " fill="none" id="com.hack23.cia.web.impl.ui.application.views.common.pagemode.AbstractBasicPageModContentFactoryImpl-backto-com.hack23.cia.web.impl.ui.application.views.user.parliament.pagemode.ParliamentChartsDecisionActivityByTypePageModContentFactoryImpl" style="stroke:#181818;stroke-width:1.0;"/><polygon fill="none" points="2272.91,97.582,2293.55,92.762,2280.42,109.402,2272.91,97.582" style="stroke:#181818;stroke-width:1.0;"/></g><!--MD5=[899ec549565c880d6d43f061244106ae]
reverse link com.hack23.cia.web.impl.ui.application.views.common.pagemode.AbstractBasicPageModContentFactoryImpl to com.hack23.cia.web.impl.ui.application.views.user.parliament.pagemode.ParliamentChartsPartyGenderPageModContentFactoryImpl--><g id="link_com.hack23.cia.web.impl.ui.application.views.common.pagemode.AbstractBasicPageModContentFactoryImpl_com.hack23.cia.web.impl.ui.application.views.user.parliament.pagemode.ParliamentChartsPartyGenderPageModContentFactoryImpl"><path codeLine="60" d="M2159.79,75.822 C2060.57,82.472 1933.75,96.222 1824,124.602 C1773.14,137.752 1718.87,160.062 1675.61,180.022 " fill="none" id="com.hack23.cia.web.impl.ui.application.views.common.pagemode.AbstractBasicPageModContentFactoryImpl-backto-com.hack23.cia.web.impl.ui.application.views.user.parliament.pagemode.ParliamentChartsPartyGenderPageModContentFactoryImpl" style="stroke:#181818;stroke-width:1.0;"/><polygon fill="none" points="2159.49,68.822,2179.89,74.542,2160.38,82.792,2159.49,68.822" style="stroke:#181818;stroke-width:1.0;"/></g><!--MD5=[4f6c94940b895864354181d855ef90a4]
reverse link com.hack23.cia.web.impl.ui.application.views.common.pagemode.AbstractBasicPageModContentFactoryImpl to com.hack23.cia.web.impl.ui.application.views.user.parliament.pagemode.ParliamentRiskPageModContentFactoryImpl--><g id="link_com.hack23.cia.web.impl.ui.application.views.common.pagemode.AbstractBasicPageModContentFactoryImpl_com.hack23.cia.web.impl.ui.application.views.user.parliament.pagemode.ParliamentRiskPageModContentFactoryImpl"><path codeLine="61" d="M2159.33,70.672 C1922.37,73.632 1506.42,84.562 1361,124.602 C1317.76,136.512 1273.08,159.342 1238.24,179.922 " fill="none" id="com.hack23.cia.web.impl.ui.application.views.common.pagemode.AbstractBasicPageModContentFactoryImpl-backto-com.hack23.cia.web.impl.ui.application.views.user.parliament.pagemode.ParliamentRiskPageModContentFactoryImpl" style="stroke:#181818;stroke-width:1.0;"/><polygon fill="none" points="2159.5,63.672,2179.58,70.432,2159.67,77.662,2159.5,63.672" style="stroke:#181818;stroke-width:1.0;"/></g><!--MD5=[151ba2600c2cd20c7189b3f0b9bce9db]
reverse link com.hack23.cia.web.impl.ui.application.views.common.pagemode.AbstractBasicPageModContentFactoryImpl to com.hack23.cia.web.impl.ui.application.views.user.parliament.pagemode.ParliamentChartsDocumentActivityByTypePageModContentFactoryImpl--><g id="link_com.hack23.cia.web.impl.ui.application.views.common.pagemode.AbstractBasicPageModContentFactoryImpl_com.hack23.cia.web.impl.ui.application.views.user.parliament.pagemode.ParliamentChartsDocumentActivityByTypePageModContentFactoryImpl"><path codeLine="62" d="M2159.44,70.172 C1849.85,72.282 1207.23,81.852 988,124.602 C927.44,136.412 862.28,159.382 810.93,180.062 " fill="none" id="com.hack23.cia.web.impl.ui.application.views.common.pagemode.AbstractBasicPageModContentFactoryImpl-backto-com.hack23.cia.web.impl.ui.application.views.user.parliament.pagemode.ParliamentChartsDocumentActivityByTypePageModContentFactoryImpl" style="stroke:#181818;stroke-width:1.0;"/><polygon fill="none" points="2159.74,63.172,2179.79,70.042,2159.83,77.172,2159.74,63.172" style="stroke:#181818;stroke-width:1.0;"/></g><!--MD5=[797eb06b56c71bc12eff4b7bc060f65c]
reverse link com.hack23.cia.web.impl.ui.application.views.common.pagemode.AbstractBasicPageModContentFactoryImpl to com.hack23.cia.web.impl.ui.application.views.user.parliament.pagemode.ParliamentChartsPartyAgePageModContentFactoryImpl--><g id="link_com.hack23.cia.web.impl.ui.application.views.common.pagemode.AbstractBasicPageModContentFactoryImpl_com.hack23.cia.web.impl.ui.application.views.user.parliament.pagemode.ParliamentChartsPartyAgePageModContentFactoryImpl"><path codeLine="63" d="M2159.81,70.812 C1727.27,74.432 608.35,87.302 444,124.602 C393.58,136.042 340.5,159.202 299.11,180.082 " fill="none" id="com.hack23.cia.web.impl.ui.application.views.common.pagemode.AbstractBasicPageModContentFactoryImpl-backto-com.hack23.cia.web.impl.ui.application.views.user.parliament.pagemode.ParliamentChartsPartyAgePageModContentFactoryImpl" style="stroke:#181818;stroke-width:1.0;"/><polygon fill="none" points="2159.83,63.812,2179.88,70.652,2159.94,77.812,2159.83,63.812" style="stroke:#181818;stroke-width:1.0;"/></g><rect fill="none" height="13.62" style="stroke:none;stroke-width:1.0;" width="188" x="2157.5" y="297.602"/><text fill="#888888" font-family="sans-serif" font-size="10" lengthAdjust="spacing" textLength="188" x="2157.5" y="308.292">UMLDoclet 2.0.20, PlantUML 1.2022.12</text><!--MD5=[6eb54b528fdab7e89d80a1576dd42f2f]
@startuml
    namespace com.hack23.cia.web.impl.ui.application.views.user.parliament.pagemode {

        class ParliamentPageVisitHistoryPageModContentFactoryImpl [[ParliamentPageVisitHistoryPageModContentFactoryImpl.html]] {
            {static} +NAME: String
            +createContent(String, MenuBar, Panel): Layout
            +matches(String, String): boolean
        }

        class ParliamentDecisionFlowPageModContentFactoryImpl [[ParliamentDecisionFlowPageModContentFactoryImpl.html]] {
            +createContent(String, MenuBar, Panel): Layout
            +matches(String, String): boolean
        }

        class ParliamentChartsPartyWinnerPageModContentFactoryImpl [[ParliamentChartsPartyWinnerPageModContentFactoryImpl.html]] {
            +createContent(String, MenuBar, Panel): Layout
            +matches(String, String): boolean
        }

        class ParliamentOverviewPageModContentFactoryImpl [[ParliamentOverviewPageModContentFactoryImpl.html]] {
            +createContent(String, MenuBar, Panel): Layout
            +matches(String, String): boolean
        }

        class ParliamentRuleViolationsPageModContentFactoryImpl [[ParliamentRuleViolationsPageModContentFactoryImpl.html]] {
            +createContent(String, MenuBar, Panel): Layout
            +matches(String, String): boolean
        }

        class ParliamentChartsDecisionActivityByTypePageModContentFactoryImpl [[ParliamentChartsDecisionActivityByTypePageModContentFactoryImpl.html]] {
            +createContent(String, MenuBar, Panel): Layout
            +matches(String, String): boolean
        }

        class ParliamentChartsPartyGenderPageModContentFactoryImpl [[ParliamentChartsPartyGenderPageModContentFactoryImpl.html]] {
            +createContent(String, MenuBar, Panel): Layout
            +matches(String, String): boolean
        }

        class ParliamentRiskPageModContentFactoryImpl [[ParliamentRiskPageModContentFactoryImpl.html]] {
            +createContent(String, MenuBar, Panel): Layout
            +matches(String, String): boolean
        }

        class ParliamentChartsDocumentActivityByTypePageModContentFactoryImpl [[ParliamentChartsDocumentActivityByTypePageModContentFactoryImpl.html]] {
            +createContent(String, MenuBar, Panel): Layout
            +matches(String, String): boolean
        }

        class ParliamentChartsPartyAgePageModContentFactoryImpl [[ParliamentChartsPartyAgePageModContentFactoryImpl.html]] {
            +createContent(String, MenuBar, Panel): Layout
            +matches(String, String): boolean
        }

        com.hack23.cia.web.impl.ui.application.views.common.pagemode.AbstractBasicPageModContentFactoryImpl <|- - ParliamentPageVisitHistoryPageModContentFactoryImpl
        com.hack23.cia.web.impl.ui.application.views.common.pagemode.AbstractBasicPageModContentFactoryImpl <|- - ParliamentDecisionFlowPageModContentFactoryImpl
        com.hack23.cia.web.impl.ui.application.views.common.pagemode.AbstractBasicPageModContentFactoryImpl <|- - ParliamentChartsPartyWinnerPageModContentFactoryImpl
        com.hack23.cia.web.impl.ui.application.views.common.pagemode.AbstractBasicPageModContentFactoryImpl <|- - ParliamentOverviewPageModContentFactoryImpl
        com.hack23.cia.web.impl.ui.application.views.common.pagemode.AbstractBasicPageModContentFactoryImpl <|- - ParliamentRuleViolationsPageModContentFactoryImpl
        com.hack23.cia.web.impl.ui.application.views.common.pagemode.AbstractBasicPageModContentFactoryImpl <|- - ParliamentChartsDecisionActivityByTypePageModContentFactoryImpl
        com.hack23.cia.web.impl.ui.application.views.common.pagemode.AbstractBasicPageModContentFactoryImpl <|- - ParliamentChartsPartyGenderPageModContentFactoryImpl
        com.hack23.cia.web.impl.ui.application.views.common.pagemode.AbstractBasicPageModContentFactoryImpl <|- - ParliamentRiskPageModContentFactoryImpl
        com.hack23.cia.web.impl.ui.application.views.common.pagemode.AbstractBasicPageModContentFactoryImpl <|- - ParliamentChartsDocumentActivityByTypePageModContentFactoryImpl
        com.hack23.cia.web.impl.ui.application.views.common.pagemode.AbstractBasicPageModContentFactoryImpl <|- - ParliamentChartsPartyAgePageModContentFactoryImpl
    }

    namespace com.hack23.cia.web.impl.ui.application.views.common.pagemode {
        abstract class AbstractBasicPageModContentFactoryImpl [[../../../common/pagemode/AbstractBasicPageModContentFactoryImpl.html]]
    }

    center footer UMLDoclet 2.0.20, PlantUML 1.2022.12
@enduml

PlantUML version 1.2022.12(Sun Oct 23 20:12:26 CEST 2022)
(APACHE source distribution)
Java Runtime: OpenJDK Runtime Environment
JVM: OpenJDK 64-Bit Server VM
Default Encoding: UTF-8
Language: 
Country: 
--></g></svg>