<?xml version="1.0" encoding="UTF-8" standalone="no"?><svg xmlns="http://www.w3.org/2000/svg" xmlns:xlink="http://www.w3.org/1999/xlink" contentScriptType="application/ecmascript" contentStyleType="text/css" height="298px" preserveAspectRatio="none" style="width:4133px;height:298px;" version="1.1" viewBox="0 0 4133 298" width="4133px" zoomAndPan="magnify"><defs><filter height="300%" id="f1es8ob1qsml3w" width="300%" x="-1" y="-1"><feGaussianBlur result="blurOut" stdDeviation="2.0"/><feColorMatrix in="blurOut" result="blurOut2" type="matrix" values="0 0 0 0 0 0 0 0 0 0 0 0 0 0 0 0 0 0 .4 0"/><feOffset dx="4.0" dy="4.0" in="blurOut2" result="blurOut3"/><feBlend in="SourceGraphic" in2="blurOut3" mode="normal"/></filter></defs><g><!--cluster com.hack23.cia.web.impl.ui.application.views.user.document.pagemode--><polygon fill="#FFFFFF" filter="url(#f1es8ob1qsml3w)" points="14,137,591,137,598,159.2969,4111,159.2969,4111,258,14,258,14,137" style="stroke: #000000; stroke-width: 1.5;"/><line style="stroke: #000000; stroke-width: 1.5;" x1="14" x2="598" y1="159.2969" y2="159.2969"/><text fill="#000000" font-family="sans-serif" font-size="14" font-weight="bold" lengthAdjust="spacingAndGlyphs" textLength="571" x="18" y="151.9951">com.hack23.cia.web.impl.ui.application.views.user.document.pagemode</text><!--cluster com.hack23.cia.web.impl.ui.application.views.common.pagemode--><polygon fill="#FFFFFF" filter="url(#f1es8ob1qsml3w)" points="1983,16,2507,16,2514,38.2969,2634,38.2969,2634,112,1983,112,1983,16" style="stroke: #000000; stroke-width: 1.5;"/><line style="stroke: #000000; stroke-width: 1.5;" x1="1983" x2="2514" y1="38.2969" y2="38.2969"/><text fill="#000000" font-family="sans-serif" font-size="14" font-weight="bold" lengthAdjust="spacingAndGlyphs" textLength="518" x="1987" y="30.9951">com.hack23.cia.web.impl.ui.application.views.common.pagemode</text><!--class com.hack23.cia.web.impl.ui.application.views.user.document.pagemode.DocumentActivityPageModContentFactoryImpl--><a href="DocumentActivityPageModContentFactoryImpl.html" target="_top" xlink:actuate="onRequest" xlink:show="new" xlink:title="DocumentActivityPageModContentFactoryImpl.html" xlink:type="simple"><rect fill="#FEFECE" filter="url(#f1es8ob1qsml3w)" height="73.6094" id="com.hack23.cia.web.impl.ui.application.views.user.document.pagemode.DocumentActivityPageModContentFactoryImpl" style="stroke: #A80036; stroke-width: 1.5;" width="318" x="3059" y="170"/><ellipse cx="3074" cy="186" fill="#ADD1B2" rx="11" ry="11" style="stroke: #A80036; stroke-width: 1.0;"/><path d="M3076.9688,191.6406 Q3076.3906,191.9375 3075.75,192.0781 Q3075.1094,192.2344 3074.4063,192.2344 Q3071.9063,192.2344 3070.5781,190.5938 Q3069.2656,188.9375 3069.2656,185.8125 Q3069.2656,182.6875 3070.5781,181.0313 Q3071.9063,179.375 3074.4063,179.375 Q3075.1094,179.375 3075.75,179.5313 Q3076.4063,179.6875 3076.9688,179.9844 L3076.9688,182.7031 Q3076.3438,182.125 3075.75,181.8594 Q3075.1563,181.5781 3074.5313,181.5781 Q3073.1875,181.5781 3072.5,182.6563 Q3071.8125,183.7188 3071.8125,185.8125 Q3071.8125,187.9063 3072.5,188.9844 Q3073.1875,190.0469 3074.5313,190.0469 Q3075.1563,190.0469 3075.75,189.7813 Q3076.3438,189.5 3076.9688,188.9219 L3076.9688,191.6406 Z "/><text fill="#000000" font-family="sans-serif" font-size="12" lengthAdjust="spacingAndGlyphs" textLength="286" x="3088" y="190.1543">DocumentActivityPageModContentFactoryImpl</text><line style="stroke: #A80036; stroke-width: 1.5;" x1="3060" x2="3376" y1="202" y2="202"/><line style="stroke: #A80036; stroke-width: 1.5;" x1="3060" x2="3376" y1="210" y2="210"/><ellipse cx="3070" cy="221.9023" fill="#84BE84" rx="3" ry="3" style="stroke: #038048; stroke-width: 1.0;"/><text fill="#000000" font-family="sans-serif" font-size="11" lengthAdjust="spacingAndGlyphs" textLength="264" x="3079" y="224.2104">createContent(String, MenuBar, Panel): Layout</text><ellipse cx="3070" cy="234.707" fill="#84BE84" rx="3" ry="3" style="stroke: #038048; stroke-width: 1.0;"/><text fill="#000000" font-family="sans-serif" font-size="11" lengthAdjust="spacingAndGlyphs" textLength="186" x="3079" y="237.0151">matches(String, String): boolean</text></a><!--class com.hack23.cia.web.impl.ui.application.views.user.document.pagemode.DocumentDetailsPageModContentFactoryImpl--><a href="DocumentDetailsPageModContentFactoryImpl.html" target="_top" xlink:actuate="onRequest" xlink:show="new" xlink:title="DocumentDetailsPageModContentFactoryImpl.html" xlink:type="simple"><rect fill="#FEFECE" filter="url(#f1es8ob1qsml3w)" height="73.6094" id="com.hack23.cia.web.impl.ui.application.views.user.document.pagemode.DocumentDetailsPageModContentFactoryImpl" style="stroke: #A80036; stroke-width: 1.5;" width="318" x="2706" y="170"/><ellipse cx="2721" cy="186" fill="#ADD1B2" rx="11" ry="11" style="stroke: #A80036; stroke-width: 1.0;"/><path d="M2723.9688,191.6406 Q2723.3906,191.9375 2722.75,192.0781 Q2722.1094,192.2344 2721.4063,192.2344 Q2718.9063,192.2344 2717.5781,190.5938 Q2716.2656,188.9375 2716.2656,185.8125 Q2716.2656,182.6875 2717.5781,181.0313 Q2718.9063,179.375 2721.4063,179.375 Q2722.1094,179.375 2722.75,179.5313 Q2723.4063,179.6875 2723.9688,179.9844 L2723.9688,182.7031 Q2723.3438,182.125 2722.75,181.8594 Q2722.1563,181.5781 2721.5313,181.5781 Q2720.1875,181.5781 2719.5,182.6563 Q2718.8125,183.7188 2718.8125,185.8125 Q2718.8125,187.9063 2719.5,188.9844 Q2720.1875,190.0469 2721.5313,190.0469 Q2722.1563,190.0469 2722.75,189.7813 Q2723.3438,189.5 2723.9688,188.9219 L2723.9688,191.6406 Z "/><text fill="#000000" font-family="sans-serif" font-size="12" lengthAdjust="spacingAndGlyphs" textLength="286" x="2735" y="190.1543">DocumentDetailsPageModContentFactoryImpl</text><line style="stroke: #A80036; stroke-width: 1.5;" x1="2707" x2="3023" y1="202" y2="202"/><line style="stroke: #A80036; stroke-width: 1.5;" x1="2707" x2="3023" y1="210" y2="210"/><ellipse cx="2717" cy="221.9023" fill="#84BE84" rx="3" ry="3" style="stroke: #038048; stroke-width: 1.0;"/><text fill="#000000" font-family="sans-serif" font-size="11" lengthAdjust="spacingAndGlyphs" textLength="264" x="2726" y="224.2104">createContent(String, MenuBar, Panel): Layout</text><ellipse cx="2717" cy="234.707" fill="#84BE84" rx="3" ry="3" style="stroke: #038048; stroke-width: 1.0;"/><text fill="#000000" font-family="sans-serif" font-size="11" lengthAdjust="spacingAndGlyphs" textLength="186" x="2726" y="237.0151">matches(String, String): boolean</text></a><!--class com.hack23.cia.web.impl.ui.application.views.user.document.pagemode.DocumentOverviewPageModContentFactoryImpl--><a href="DocumentOverviewPageModContentFactoryImpl.html" target="_top" xlink:actuate="onRequest" xlink:show="new" xlink:title="DocumentOverviewPageModContentFactoryImpl.html" xlink:type="simple"><rect fill="#FEFECE" filter="url(#f1es8ob1qsml3w)" height="73.6094" id="com.hack23.cia.web.impl.ui.application.views.user.document.pagemode.DocumentOverviewPageModContentFactoryImpl" style="stroke: #A80036; stroke-width: 1.5;" width="329" x="2342.5" y="170"/><ellipse cx="2357.5" cy="186" fill="#ADD1B2" rx="11" ry="11" style="stroke: #A80036; stroke-width: 1.0;"/><path d="M2360.4688,191.6406 Q2359.8906,191.9375 2359.25,192.0781 Q2358.6094,192.2344 2357.9063,192.2344 Q2355.4063,192.2344 2354.0781,190.5938 Q2352.7656,188.9375 2352.7656,185.8125 Q2352.7656,182.6875 2354.0781,181.0313 Q2355.4063,179.375 2357.9063,179.375 Q2358.6094,179.375 2359.25,179.5313 Q2359.9063,179.6875 2360.4688,179.9844 L2360.4688,182.7031 Q2359.8438,182.125 2359.25,181.8594 Q2358.6563,181.5781 2358.0313,181.5781 Q2356.6875,181.5781 2356,182.6563 Q2355.3125,183.7188 2355.3125,185.8125 Q2355.3125,187.9063 2356,188.9844 Q2356.6875,190.0469 2358.0313,190.0469 Q2358.6563,190.0469 2359.25,189.7813 Q2359.8438,189.5 2360.4688,188.9219 L2360.4688,191.6406 Z "/><text fill="#000000" font-family="sans-serif" font-size="12" lengthAdjust="spacingAndGlyphs" textLength="297" x="2371.5" y="190.1543">DocumentOverviewPageModContentFactoryImpl</text><line style="stroke: #A80036; stroke-width: 1.5;" x1="2343.5" x2="2670.5" y1="202" y2="202"/><line style="stroke: #A80036; stroke-width: 1.5;" x1="2343.5" x2="2670.5" y1="210" y2="210"/><ellipse cx="2353.5" cy="221.9023" fill="#84BE84" rx="3" ry="3" style="stroke: #038048; stroke-width: 1.0;"/><text fill="#000000" font-family="sans-serif" font-size="11" lengthAdjust="spacingAndGlyphs" textLength="264" x="2362.5" y="224.2104">createContent(String, MenuBar, Panel): Layout</text><ellipse cx="2353.5" cy="234.707" fill="#84BE84" rx="3" ry="3" style="stroke: #038048; stroke-width: 1.0;"/><text fill="#000000" font-family="sans-serif" font-size="11" lengthAdjust="spacingAndGlyphs" textLength="186" x="2362.5" y="237.0151">matches(String, String): boolean</text></a><!--class com.hack23.cia.web.impl.ui.application.views.user.document.pagemode.DocumentsOverviewPageModContentFactoryImpl--><a href="DocumentsOverviewPageModContentFactoryImpl.html" target="_top" xlink:actuate="onRequest" xlink:show="new" xlink:title="DocumentsOverviewPageModContentFactoryImpl.html" xlink:type="simple"><rect fill="#FEFECE" filter="url(#f1es8ob1qsml3w)" height="73.6094" id="com.hack23.cia.web.impl.ui.application.views.user.document.pagemode.DocumentsOverviewPageModContentFactoryImpl" style="stroke: #A80036; stroke-width: 1.5;" width="336" x="3412" y="170"/><ellipse cx="3427" cy="186" fill="#ADD1B2" rx="11" ry="11" style="stroke: #A80036; stroke-width: 1.0;"/><path d="M3429.9688,191.6406 Q3429.3906,191.9375 3428.75,192.0781 Q3428.1094,192.2344 3427.4063,192.2344 Q3424.9063,192.2344 3423.5781,190.5938 Q3422.2656,188.9375 3422.2656,185.8125 Q3422.2656,182.6875 3423.5781,181.0313 Q3424.9063,179.375 3427.4063,179.375 Q3428.1094,179.375 3428.75,179.5313 Q3429.4063,179.6875 3429.9688,179.9844 L3429.9688,182.7031 Q3429.3438,182.125 3428.75,181.8594 Q3428.1563,181.5781 3427.5313,181.5781 Q3426.1875,181.5781 3425.5,182.6563 Q3424.8125,183.7188 3424.8125,185.8125 Q3424.8125,187.9063 3425.5,188.9844 Q3426.1875,190.0469 3427.5313,190.0469 Q3428.1563,190.0469 3428.75,189.7813 Q3429.3438,189.5 3429.9688,188.9219 L3429.9688,191.6406 Z "/><text fill="#000000" font-family="sans-serif" font-size="12" lengthAdjust="spacingAndGlyphs" textLength="304" x="3441" y="190.1543">DocumentsOverviewPageModContentFactoryImpl</text><line style="stroke: #A80036; stroke-width: 1.5;" x1="3413" x2="3747" y1="202" y2="202"/><line style="stroke: #A80036; stroke-width: 1.5;" x1="3413" x2="3747" y1="210" y2="210"/><ellipse cx="3423" cy="221.9023" fill="#84BE84" rx="3" ry="3" style="stroke: #038048; stroke-width: 1.0;"/><text fill="#000000" font-family="sans-serif" font-size="11" lengthAdjust="spacingAndGlyphs" textLength="264" x="3432" y="224.2104">createContent(String, MenuBar, Panel): Layout</text><ellipse cx="3423" cy="234.707" fill="#84BE84" rx="3" ry="3" style="stroke: #038048; stroke-width: 1.0;"/><text fill="#000000" font-family="sans-serif" font-size="11" lengthAdjust="spacingAndGlyphs" textLength="186" x="3432" y="237.0151">matches(String, String): boolean</text></a><!--class com.hack23.cia.web.impl.ui.application.views.user.document.pagemode.DocumentReferencesPageModContentFactoryImpl--><a href="DocumentReferencesPageModContentFactoryImpl.html" target="_top" xlink:actuate="onRequest" xlink:show="new" xlink:title="DocumentReferencesPageModContentFactoryImpl.html" xlink:type="simple"><rect fill="#FEFECE" filter="url(#f1es8ob1qsml3w)" height="73.6094" id="com.hack23.cia.web.impl.ui.application.views.user.document.pagemode.DocumentReferencesPageModContentFactoryImpl" style="stroke: #A80036; stroke-width: 1.5;" width="346" x="1598" y="170"/><ellipse cx="1613" cy="186" fill="#ADD1B2" rx="11" ry="11" style="stroke: #A80036; stroke-width: 1.0;"/><path d="M1615.9688,191.6406 Q1615.3906,191.9375 1614.75,192.0781 Q1614.1094,192.2344 1613.4063,192.2344 Q1610.9063,192.2344 1609.5781,190.5938 Q1608.2656,188.9375 1608.2656,185.8125 Q1608.2656,182.6875 1609.5781,181.0313 Q1610.9063,179.375 1613.4063,179.375 Q1614.1094,179.375 1614.75,179.5313 Q1615.4063,179.6875 1615.9688,179.9844 L1615.9688,182.7031 Q1615.3438,182.125 1614.75,181.8594 Q1614.1563,181.5781 1613.5313,181.5781 Q1612.1875,181.5781 1611.5,182.6563 Q1610.8125,183.7188 1610.8125,185.8125 Q1610.8125,187.9063 1611.5,188.9844 Q1612.1875,190.0469 1613.5313,190.0469 Q1614.1563,190.0469 1614.75,189.7813 Q1615.3438,189.5 1615.9688,188.9219 L1615.9688,191.6406 Z "/><text fill="#000000" font-family="sans-serif" font-size="12" lengthAdjust="spacingAndGlyphs" textLength="314" x="1627" y="190.1543">DocumentReferencesPageModContentFactoryImpl</text><line style="stroke: #A80036; stroke-width: 1.5;" x1="1599" x2="1943" y1="202" y2="202"/><line style="stroke: #A80036; stroke-width: 1.5;" x1="1599" x2="1943" y1="210" y2="210"/><ellipse cx="1609" cy="221.9023" fill="#84BE84" rx="3" ry="3" style="stroke: #038048; stroke-width: 1.0;"/><text fill="#000000" font-family="sans-serif" font-size="11" lengthAdjust="spacingAndGlyphs" textLength="264" x="1618" y="224.2104">createContent(String, MenuBar, Panel): Layout</text><ellipse cx="1609" cy="234.707" fill="#84BE84" rx="3" ry="3" style="stroke: #038048; stroke-width: 1.0;"/><text fill="#000000" font-family="sans-serif" font-size="11" lengthAdjust="spacingAndGlyphs" textLength="186" x="1618" y="237.0151">matches(String, String): boolean</text></a><!--class com.hack23.cia.web.impl.ui.application.views.user.document.pagemode.SearchDocumentPageModContentFactoryImpl--><a href="SearchDocumentPageModContentFactoryImpl.html" target="_top" xlink:actuate="onRequest" xlink:show="new" xlink:title="SearchDocumentPageModContentFactoryImpl.html" xlink:type="simple"><rect fill="#FEFECE" filter="url(#f1es8ob1qsml3w)" height="86.4141" id="com.hack23.cia.web.impl.ui.application.views.user.document.pagemode.SearchDocumentPageModContentFactoryImpl" style="stroke: #A80036; stroke-width: 1.5;" width="319" x="3783.5" y="164"/><ellipse cx="3798.5" cy="180" fill="#ADD1B2" rx="11" ry="11" style="stroke: #A80036; stroke-width: 1.0;"/><path d="M3801.4688,185.6406 Q3800.8906,185.9375 3800.25,186.0781 Q3799.6094,186.2344 3798.9063,186.2344 Q3796.4063,186.2344 3795.0781,184.5938 Q3793.7656,182.9375 3793.7656,179.8125 Q3793.7656,176.6875 3795.0781,175.0313 Q3796.4063,173.375 3798.9063,173.375 Q3799.6094,173.375 3800.25,173.5313 Q3800.9063,173.6875 3801.4688,173.9844 L3801.4688,176.7031 Q3800.8438,176.125 3800.25,175.8594 Q3799.6563,175.5781 3799.0313,175.5781 Q3797.6875,175.5781 3797,176.6563 Q3796.3125,177.7188 3796.3125,179.8125 Q3796.3125,181.9063 3797,182.9844 Q3797.6875,184.0469 3799.0313,184.0469 Q3799.6563,184.0469 3800.25,183.7813 Q3800.8438,183.5 3801.4688,182.9219 L3801.4688,185.6406 Z "/><text fill="#000000" font-family="sans-serif" font-size="12" lengthAdjust="spacingAndGlyphs" textLength="287" x="3812.5" y="184.1543">SearchDocumentPageModContentFactoryImpl</text><line style="stroke: #A80036; stroke-width: 1.5;" x1="3784.5" x2="4101.5" y1="196" y2="196"/><ellipse cx="3794.5" cy="207.9023" fill="none" rx="3" ry="3" style="stroke: #038048; stroke-width: 1.0;"/><text fill="#000000" font-family="sans-serif" font-size="11" lengthAdjust="spacingAndGlyphs" text-decoration="underline" textLength="73" x="3803.5" y="210.2104">NAME: String</text><line style="stroke: #A80036; stroke-width: 1.5;" x1="3784.5" x2="4101.5" y1="216.8047" y2="216.8047"/><ellipse cx="3794.5" cy="228.707" fill="#84BE84" rx="3" ry="3" style="stroke: #038048; stroke-width: 1.0;"/><text fill="#000000" font-family="sans-serif" font-size="11" lengthAdjust="spacingAndGlyphs" textLength="264" x="3803.5" y="231.0151">createContent(String, MenuBar, Panel): Layout</text><ellipse cx="3794.5" cy="241.5117" fill="#84BE84" rx="3" ry="3" style="stroke: #038048; stroke-width: 1.0;"/><text fill="#000000" font-family="sans-serif" font-size="11" lengthAdjust="spacingAndGlyphs" textLength="186" x="3803.5" y="243.8198">matches(String, String): boolean</text></a><!--class com.hack23.cia.web.impl.ui.application.views.user.document.pagemode.DocumentPageVisitHistoryPageModContentFactoryImpl--><a href="DocumentPageVisitHistoryPageModContentFactoryImpl.html" target="_top" xlink:actuate="onRequest" xlink:show="new" xlink:title="DocumentPageVisitHistoryPageModContentFactoryImpl.html" xlink:type="simple"><rect fill="#FEFECE" filter="url(#f1es8ob1qsml3w)" height="73.6094" id="com.hack23.cia.web.impl.ui.application.views.user.document.pagemode.DocumentPageVisitHistoryPageModContentFactoryImpl" style="stroke: #A80036; stroke-width: 1.5;" width="376" x="788" y="170"/><ellipse cx="803" cy="186" fill="#ADD1B2" rx="11" ry="11" style="stroke: #A80036; stroke-width: 1.0;"/><path d="M805.9688,191.6406 Q805.3906,191.9375 804.75,192.0781 Q804.1094,192.2344 803.4063,192.2344 Q800.9063,192.2344 799.5781,190.5938 Q798.2656,188.9375 798.2656,185.8125 Q798.2656,182.6875 799.5781,181.0313 Q800.9063,179.375 803.4063,179.375 Q804.1094,179.375 804.75,179.5313 Q805.4063,179.6875 805.9688,179.9844 L805.9688,182.7031 Q805.3438,182.125 804.75,181.8594 Q804.1563,181.5781 803.5313,181.5781 Q802.1875,181.5781 801.5,182.6563 Q800.8125,183.7188 800.8125,185.8125 Q800.8125,187.9063 801.5,188.9844 Q802.1875,190.0469 803.5313,190.0469 Q804.1563,190.0469 804.75,189.7813 Q805.3438,189.5 805.9688,188.9219 L805.9688,191.6406 Z "/><text fill="#000000" font-family="sans-serif" font-size="12" lengthAdjust="spacingAndGlyphs" textLength="344" x="817" y="190.1543">DocumentPageVisitHistoryPageModContentFactoryImpl</text><line style="stroke: #A80036; stroke-width: 1.5;" x1="789" x2="1163" y1="202" y2="202"/><line style="stroke: #A80036; stroke-width: 1.5;" x1="789" x2="1163" y1="210" y2="210"/><ellipse cx="799" cy="221.9023" fill="#84BE84" rx="3" ry="3" style="stroke: #038048; stroke-width: 1.0;"/><text fill="#000000" font-family="sans-serif" font-size="11" lengthAdjust="spacingAndGlyphs" textLength="264" x="808" y="224.2104">createContent(String, MenuBar, Panel): Layout</text><ellipse cx="799" cy="234.707" fill="#84BE84" rx="3" ry="3" style="stroke: #038048; stroke-width: 1.0;"/><text fill="#000000" font-family="sans-serif" font-size="11" lengthAdjust="spacingAndGlyphs" textLength="186" x="808" y="237.0151">matches(String, String): boolean</text></a><!--class com.hack23.cia.web.impl.ui.application.views.user.document.pagemode.DocumentDataPageModContentFactoryImpl--><a href="DocumentDataPageModContentFactoryImpl.html" target="_top" xlink:actuate="onRequest" xlink:show="new" xlink:title="DocumentDataPageModContentFactoryImpl.html" xlink:type="simple"><rect fill="#FEFECE" filter="url(#f1es8ob1qsml3w)" height="73.6094" id="com.hack23.cia.web.impl.ui.application.views.user.document.pagemode.DocumentDataPageModContentFactoryImpl" style="stroke: #A80036; stroke-width: 1.5;" width="305" x="447.5" y="170"/><ellipse cx="462.5" cy="186" fill="#ADD1B2" rx="11" ry="11" style="stroke: #A80036; stroke-width: 1.0;"/><path d="M465.4688,191.6406 Q464.8906,191.9375 464.25,192.0781 Q463.6094,192.2344 462.9063,192.2344 Q460.4063,192.2344 459.0781,190.5938 Q457.7656,188.9375 457.7656,185.8125 Q457.7656,182.6875 459.0781,181.0313 Q460.4063,179.375 462.9063,179.375 Q463.6094,179.375 464.25,179.5313 Q464.9063,179.6875 465.4688,179.9844 L465.4688,182.7031 Q464.8438,182.125 464.25,181.8594 Q463.6563,181.5781 463.0313,181.5781 Q461.6875,181.5781 461,182.6563 Q460.3125,183.7188 460.3125,185.8125 Q460.3125,187.9063 461,188.9844 Q461.6875,190.0469 463.0313,190.0469 Q463.6563,190.0469 464.25,189.7813 Q464.8438,189.5 465.4688,188.9219 L465.4688,191.6406 Z "/><text fill="#000000" font-family="sans-serif" font-size="12" lengthAdjust="spacingAndGlyphs" textLength="273" x="476.5" y="190.1543">DocumentDataPageModContentFactoryImpl</text><line style="stroke: #A80036; stroke-width: 1.5;" x1="448.5" x2="751.5" y1="202" y2="202"/><line style="stroke: #A80036; stroke-width: 1.5;" x1="448.5" x2="751.5" y1="210" y2="210"/><ellipse cx="458.5" cy="221.9023" fill="#84BE84" rx="3" ry="3" style="stroke: #038048; stroke-width: 1.0;"/><text fill="#000000" font-family="sans-serif" font-size="11" lengthAdjust="spacingAndGlyphs" textLength="264" x="467.5" y="224.2104">createContent(String, MenuBar, Panel): Layout</text><ellipse cx="458.5" cy="234.707" fill="#84BE84" rx="3" ry="3" style="stroke: #038048; stroke-width: 1.0;"/><text fill="#000000" font-family="sans-serif" font-size="11" lengthAdjust="spacingAndGlyphs" textLength="186" x="467.5" y="237.0151">matches(String, String): boolean</text></a><!--class com.hack23.cia.web.impl.ui.application.views.user.document.pagemode.DocumentPersonReferencesPageModContentFactoryImpl--><a href="DocumentPersonReferencesPageModContentFactoryImpl.html" target="_top" xlink:actuate="onRequest" xlink:show="new" xlink:title="DocumentPersonReferencesPageModContentFactoryImpl.html" xlink:type="simple"><rect fill="#FEFECE" filter="url(#f1es8ob1qsml3w)" height="73.6094" id="com.hack23.cia.web.impl.ui.application.views.user.document.pagemode.DocumentPersonReferencesPageModContentFactoryImpl" style="stroke: #A80036; stroke-width: 1.5;" width="390" x="22" y="170"/><ellipse cx="37" cy="186" fill="#ADD1B2" rx="11" ry="11" style="stroke: #A80036; stroke-width: 1.0;"/><path d="M39.9688,191.6406 Q39.3906,191.9375 38.75,192.0781 Q38.1094,192.2344 37.4063,192.2344 Q34.9063,192.2344 33.5781,190.5938 Q32.2656,188.9375 32.2656,185.8125 Q32.2656,182.6875 33.5781,181.0313 Q34.9063,179.375 37.4063,179.375 Q38.1094,179.375 38.75,179.5313 Q39.4063,179.6875 39.9688,179.9844 L39.9688,182.7031 Q39.3438,182.125 38.75,181.8594 Q38.1563,181.5781 37.5313,181.5781 Q36.1875,181.5781 35.5,182.6563 Q34.8125,183.7188 34.8125,185.8125 Q34.8125,187.9063 35.5,188.9844 Q36.1875,190.0469 37.5313,190.0469 Q38.1563,190.0469 38.75,189.7813 Q39.3438,189.5 39.9688,188.9219 L39.9688,191.6406 Z "/><text fill="#000000" font-family="sans-serif" font-size="12" lengthAdjust="spacingAndGlyphs" textLength="358" x="51" y="190.1543">DocumentPersonReferencesPageModContentFactoryImpl</text><line style="stroke: #A80036; stroke-width: 1.5;" x1="23" x2="411" y1="202" y2="202"/><line style="stroke: #A80036; stroke-width: 1.5;" x1="23" x2="411" y1="210" y2="210"/><ellipse cx="33" cy="221.9023" fill="#84BE84" rx="3" ry="3" style="stroke: #038048; stroke-width: 1.0;"/><text fill="#000000" font-family="sans-serif" font-size="11" lengthAdjust="spacingAndGlyphs" textLength="264" x="42" y="224.2104">createContent(String, MenuBar, Panel): Layout</text><ellipse cx="33" cy="234.707" fill="#84BE84" rx="3" ry="3" style="stroke: #038048; stroke-width: 1.0;"/><text fill="#000000" font-family="sans-serif" font-size="11" lengthAdjust="spacingAndGlyphs" textLength="186" x="42" y="237.0151">matches(String, String): boolean</text></a><!--class com.hack23.cia.web.impl.ui.application.views.user.document.pagemode.DocumentDecisionPageModContentFactoryImpl--><a href="DocumentDecisionPageModContentFactoryImpl.html" target="_top" xlink:actuate="onRequest" xlink:show="new" xlink:title="DocumentDecisionPageModContentFactoryImpl.html" xlink:type="simple"><rect fill="#FEFECE" filter="url(#f1es8ob1qsml3w)" height="73.6094" id="com.hack23.cia.web.impl.ui.application.views.user.document.pagemode.DocumentDecisionPageModContentFactoryImpl" style="stroke: #A80036; stroke-width: 1.5;" width="328" x="1979" y="170"/><ellipse cx="1994" cy="186" fill="#ADD1B2" rx="11" ry="11" style="stroke: #A80036; stroke-width: 1.0;"/><path d="M1996.9688,191.6406 Q1996.3906,191.9375 1995.75,192.0781 Q1995.1094,192.2344 1994.4063,192.2344 Q1991.9063,192.2344 1990.5781,190.5938 Q1989.2656,188.9375 1989.2656,185.8125 Q1989.2656,182.6875 1990.5781,181.0313 Q1991.9063,179.375 1994.4063,179.375 Q1995.1094,179.375 1995.75,179.5313 Q1996.4063,179.6875 1996.9688,179.9844 L1996.9688,182.7031 Q1996.3438,182.125 1995.75,181.8594 Q1995.1563,181.5781 1994.5313,181.5781 Q1993.1875,181.5781 1992.5,182.6563 Q1991.8125,183.7188 1991.8125,185.8125 Q1991.8125,187.9063 1992.5,188.9844 Q1993.1875,190.0469 1994.5313,190.0469 Q1995.1563,190.0469 1995.75,189.7813 Q1996.3438,189.5 1996.9688,188.9219 L1996.9688,191.6406 Z "/><text fill="#000000" font-family="sans-serif" font-size="12" lengthAdjust="spacingAndGlyphs" textLength="296" x="2008" y="190.1543">DocumentDecisionPageModContentFactoryImpl</text><line style="stroke: #A80036; stroke-width: 1.5;" x1="1980" x2="2306" y1="202" y2="202"/><line style="stroke: #A80036; stroke-width: 1.5;" x1="1980" x2="2306" y1="210" y2="210"/><ellipse cx="1990" cy="221.9023" fill="#84BE84" rx="3" ry="3" style="stroke: #038048; stroke-width: 1.0;"/><text fill="#000000" font-family="sans-serif" font-size="11" lengthAdjust="spacingAndGlyphs" textLength="264" x="1999" y="224.2104">createContent(String, MenuBar, Panel): Layout</text><ellipse cx="1990" cy="234.707" fill="#84BE84" rx="3" ry="3" style="stroke: #038048; stroke-width: 1.0;"/><text fill="#000000" font-family="sans-serif" font-size="11" lengthAdjust="spacingAndGlyphs" textLength="186" x="1999" y="237.0151">matches(String, String): boolean</text></a><!--class com.hack23.cia.web.impl.ui.application.views.user.document.pagemode.DocumentAttachementsPageModContentFactoryImpl--><a href="DocumentAttachementsPageModContentFactoryImpl.html" target="_top" xlink:actuate="onRequest" xlink:show="new" xlink:title="DocumentAttachementsPageModContentFactoryImpl.html" xlink:type="simple"><rect fill="#FEFECE" filter="url(#f1es8ob1qsml3w)" height="73.6094" id="com.hack23.cia.web.impl.ui.application.views.user.document.pagemode.DocumentAttachementsPageModContentFactoryImpl" style="stroke: #A80036; stroke-width: 1.5;" width="363" x="1199.5" y="170"/><ellipse cx="1214.5" cy="186" fill="#ADD1B2" rx="11" ry="11" style="stroke: #A80036; stroke-width: 1.0;"/><path d="M1217.4688,191.6406 Q1216.8906,191.9375 1216.25,192.0781 Q1215.6094,192.2344 1214.9063,192.2344 Q1212.4063,192.2344 1211.0781,190.5938 Q1209.7656,188.9375 1209.7656,185.8125 Q1209.7656,182.6875 1211.0781,181.0313 Q1212.4063,179.375 1214.9063,179.375 Q1215.6094,179.375 1216.25,179.5313 Q1216.9063,179.6875 1217.4688,179.9844 L1217.4688,182.7031 Q1216.8438,182.125 1216.25,181.8594 Q1215.6563,181.5781 1215.0313,181.5781 Q1213.6875,181.5781 1213,182.6563 Q1212.3125,183.7188 1212.3125,185.8125 Q1212.3125,187.9063 1213,188.9844 Q1213.6875,190.0469 1215.0313,190.0469 Q1215.6563,190.0469 1216.25,189.7813 Q1216.8438,189.5 1217.4688,188.9219 L1217.4688,191.6406 Z "/><text fill="#000000" font-family="sans-serif" font-size="12" lengthAdjust="spacingAndGlyphs" textLength="331" x="1228.5" y="190.1543">DocumentAttachementsPageModContentFactoryImpl</text><line style="stroke: #A80036; stroke-width: 1.5;" x1="1200.5" x2="1561.5" y1="202" y2="202"/><line style="stroke: #A80036; stroke-width: 1.5;" x1="1200.5" x2="1561.5" y1="210" y2="210"/><ellipse cx="1210.5" cy="221.9023" fill="#84BE84" rx="3" ry="3" style="stroke: #038048; stroke-width: 1.0;"/><text fill="#000000" font-family="sans-serif" font-size="11" lengthAdjust="spacingAndGlyphs" textLength="264" x="1219.5" y="224.2104">createContent(String, MenuBar, Panel): Layout</text><ellipse cx="1210.5" cy="234.707" fill="#84BE84" rx="3" ry="3" style="stroke: #038048; stroke-width: 1.0;"/><text fill="#000000" font-family="sans-serif" font-size="11" lengthAdjust="spacingAndGlyphs" textLength="186" x="1219.5" y="237.0151">matches(String, String): boolean</text></a><!--class com.hack23.cia.web.impl.ui.application.views.common.pagemode.AbstractItemPageModContentFactoryImpl--><a href="../../../common/pagemode/AbstractItemPageModContentFactoryImpl.html" target="_top" xlink:actuate="onRequest" xlink:show="new" xlink:title="../../../common/pagemode/AbstractItemPageModContentFactoryImpl.html" xlink:type="simple"><rect fill="#FEFECE" filter="url(#f1es8ob1qsml3w)" height="60.8047" id="com.hack23.cia.web.impl.ui.application.views.common.pagemode.AbstractItemPageModContentFactoryImpl" style="stroke: #A80036; stroke-width: 1.5;" width="303" x="1991.5" y="43"/><ellipse cx="2006.5" cy="59" fill="#A9DCDF" rx="11" ry="11" style="stroke: #A80036; stroke-width: 1.0;"/><path d="M2006.6094,54.3438 L2005.4531,59.4219 L2007.7813,59.4219 L2006.6094,54.3438 Z M2005.125,52.1094 L2008.1094,52.1094 L2011.4688,64.5 L2009.0156,64.5 L2008.25,61.4375 L2004.9688,61.4375 L2004.2188,64.5 L2001.7813,64.5 L2005.125,52.1094 Z "/><text fill="#000000" font-family="sans-serif" font-size="12" font-style="italic" lengthAdjust="spacingAndGlyphs" textLength="260" x="2020.5" y="63.1543">AbstractItemPageModContentFactoryImpl</text><rect fill="#FFFFFF" height="15.9688" style="stroke: #000000; stroke-width: 1.0; stroke-dasharray: 2.0,2.0;" width="9" x="2288.5" y="40"/><text fill="#000000" font-family="sans-serif" font-size="12" font-style="italic" lengthAdjust="spacingAndGlyphs" textLength="7" x="2289.5" y="52.1387">T</text><line style="stroke: #A80036; stroke-width: 1.5;" x1="1992.5" x2="2293.5" y1="75" y2="75"/><line style="stroke: #A80036; stroke-width: 1.5;" x1="1992.5" x2="2293.5" y1="83" y2="83"/><polygon fill="#FFFF44" points="2002.5,89.9023,2006.5,93.9023,2002.5,97.9023,1998.5,93.9023" style="stroke: #B38D22; stroke-width: 1.0;"/><text fill="#000000" font-family="sans-serif" font-size="11" font-style="italic" lengthAdjust="spacingAndGlyphs" textLength="99" x="2011.5" y="97.2104">getItem(String): T</text></a><!--class com.hack23.cia.web.impl.ui.application.views.common.pagemode.AbstractBasicPageModContentFactoryImpl--><a href="../../../common/pagemode/AbstractBasicPageModContentFactoryImpl.html" target="_top" xlink:actuate="onRequest" xlink:show="new" xlink:title="../../../common/pagemode/AbstractBasicPageModContentFactoryImpl.html" xlink:type="simple"><rect fill="#FEFECE" filter="url(#f1es8ob1qsml3w)" height="48" id="com.hack23.cia.web.impl.ui.application.views.common.pagemode.AbstractBasicPageModContentFactoryImpl" style="stroke: #A80036; stroke-width: 1.5;" width="296" x="2330" y="49.5"/><ellipse cx="2345" cy="65.5" fill="#A9DCDF" rx="11" ry="11" style="stroke: #A80036; stroke-width: 1.0;"/><path d="M2345.1094,60.8438 L2343.9531,65.9219 L2346.2813,65.9219 L2345.1094,60.8438 Z M2343.625,58.6094 L2346.6094,58.6094 L2349.9688,71 L2347.5156,71 L2346.75,67.9375 L2343.4688,67.9375 L2342.7188,71 L2340.2813,71 L2343.625,58.6094 Z "/><text fill="#000000" font-family="sans-serif" font-size="12" font-style="italic" lengthAdjust="spacingAndGlyphs" textLength="264" x="2359" y="69.6543">AbstractBasicPageModContentFactoryImpl</text><line style="stroke: #A80036; stroke-width: 1.5;" x1="2331" x2="2625" y1="81.5" y2="81.5"/><line style="stroke: #A80036; stroke-width: 1.5;" x1="2331" x2="2625" y1="89.5" y2="89.5"/></a><!--link com.hack23.cia.web.impl.ui.application.views.common.pagemode.AbstractItemPageModContentFactoryImpl to com.hack23.cia.web.impl.ui.application.views.user.document.pagemode.DocumentActivityPageModContentFactoryImpl--><path d="M2285.0576,107.7427 C2294.4801,109.3728 2303.8558,110.8185 2313,112 C2473.7589,132.7715 2883.3457,103.7785 3042,137 C3075.6339,144.0428 3111.1357,156.9999 3141.3761,169.8693 " fill="none" id="com.hack23.cia.web.impl.ui.application.views.common.pagemode.AbstractItemPageModContentFactoryImpl-com.hack23.cia.web.impl.ui.application.views.user.document.pagemode.DocumentActivityPageModContentFactoryImpl" style="stroke: #A80036; stroke-width: 1.0;"/><polygon fill="none" points="2283.4658,114.5669,2265.0769,104.0384,2286.0178,100.8015,2283.4658,114.5669" style="stroke: #A80036; stroke-width: 1.0;"/><!--link com.hack23.cia.web.impl.ui.application.views.common.pagemode.AbstractItemPageModContentFactoryImpl to com.hack23.cia.web.impl.ui.application.views.user.document.pagemode.DocumentDetailsPageModContentFactoryImpl--><path d="M2287.1777,107.7762 C2295.8896,109.342 2304.5462,110.7694 2313,112 C2478.7333,136.1255 2525.6473,100.0475 2689,137 C2722.0354,144.473 2756.9786,157.2643 2786.9466,169.8844 " fill="none" id="com.hack23.cia.web.impl.ui.application.views.common.pagemode.AbstractItemPageModContentFactoryImpl-com.hack23.cia.web.impl.ui.application.views.user.document.pagemode.DocumentDetailsPageModContentFactoryImpl" style="stroke: #A80036; stroke-width: 1.0;"/><polygon fill="none" points="2285.7958,114.639,2267.4553,104.0264,2288.4109,100.8854,2285.7958,114.639" style="stroke: #A80036; stroke-width: 1.0;"/><!--link com.hack23.cia.web.impl.ui.application.views.common.pagemode.AbstractItemPageModContentFactoryImpl to com.hack23.cia.web.impl.ui.application.views.user.document.pagemode.DocumentOverviewPageModContentFactoryImpl--><path d="M2251.6071,110.7652 C2275.816,119.2464 2301.3235,128.3189 2325,137 C2353.4472,147.4303 2384.2488,159.1234 2412.2817,169.9215 " fill="none" id="com.hack23.cia.web.impl.ui.application.views.common.pagemode.AbstractItemPageModContentFactoryImpl-com.hack23.cia.web.impl.ui.application.views.user.document.pagemode.DocumentOverviewPageModContentFactoryImpl" style="stroke: #A80036; stroke-width: 1.0;"/><polygon fill="none" points="2249.1076,117.307,2232.5301,104.109,2253.7198,104.0885,2249.1076,117.307" style="stroke: #A80036; stroke-width: 1.0;"/><!--link com.hack23.cia.web.impl.ui.application.views.common.pagemode.AbstractBasicPageModContentFactoryImpl to com.hack23.cia.web.impl.ui.application.views.user.document.pagemode.DocumentsOverviewPageModContentFactoryImpl--><path d="M2646.4214,79.2744 C2871.2043,87.9972 3256.984,106.7981 3395,137 C3429.5529,144.5612 3466.2494,157.3696 3497.7712,169.9789 " fill="none" id="com.hack23.cia.web.impl.ui.application.views.common.pagemode.AbstractBasicPageModContentFactoryImpl-com.hack23.cia.web.impl.ui.application.views.user.document.pagemode.DocumentsOverviewPageModContentFactoryImpl" style="stroke: #A80036; stroke-width: 1.0;"/><polygon fill="none" points="2645.9036,86.2598,2626.1862,78.4995,2646.4394,72.27,2645.9036,86.2598" style="stroke: #A80036; stroke-width: 1.0;"/><!--link com.hack23.cia.web.impl.ui.application.views.common.pagemode.AbstractItemPageModContentFactoryImpl to com.hack23.cia.web.impl.ui.application.views.user.document.pagemode.DocumentReferencesPageModContentFactoryImpl--><path d="M2035.8574,110.8126 C2011.5513,119.354 1985.8685,128.4398 1962,137 C1932.5797,147.5513 1900.6743,159.1731 1871.518,169.8643 " fill="none" id="com.hack23.cia.web.impl.ui.application.views.common.pagemode.AbstractItemPageModContentFactoryImpl-com.hack23.cia.web.impl.ui.application.views.user.document.pagemode.DocumentReferencesPageModContentFactoryImpl" style="stroke: #A80036; stroke-width: 1.0;"/><polygon fill="none" points="2033.8047,104.1145,2054.9943,104.0997,2038.4388,117.3253,2033.8047,104.1145" style="stroke: #A80036; stroke-width: 1.0;"/><!--link com.hack23.cia.web.impl.ui.application.views.common.pagemode.AbstractBasicPageModContentFactoryImpl to com.hack23.cia.web.impl.ui.application.views.user.document.pagemode.SearchDocumentPageModContentFactoryImpl--><path d="M2646.3059,74.9861 C2945.3462,78.7599 3557.4364,91.9064 3766,137 C3794.2614,143.1104 3823.8815,153.2215 3850.6299,163.8847 " fill="none" id="com.hack23.cia.web.impl.ui.application.views.common.pagemode.AbstractBasicPageModContentFactoryImpl-com.hack23.cia.web.impl.ui.application.views.user.document.pagemode.SearchDocumentPageModContentFactoryImpl" style="stroke: #A80036; stroke-width: 1.0;"/><polygon fill="none" points="2646.1103,81.9843,2626.1973,74.7406,2646.2813,67.9854,2646.1103,81.9843" style="stroke: #A80036; stroke-width: 1.0;"/><!--link com.hack23.cia.web.impl.ui.application.views.common.pagemode.AbstractItemPageModContentFactoryImpl to com.hack23.cia.web.impl.ui.application.views.user.document.pagemode.DocumentPageVisitHistoryPageModContentFactoryImpl--><path d="M1971.0866,79.4623 C1736.3694,88.532 1328.089,107.8768 1182,137 C1143.9379,144.5878 1103.2439,157.3613 1068.1623,169.9354 " fill="none" id="com.hack23.cia.web.impl.ui.application.views.common.pagemode.AbstractItemPageModContentFactoryImpl-com.hack23.cia.web.impl.ui.application.views.user.document.pagemode.DocumentPageVisitHistoryPageModContentFactoryImpl" style="stroke: #A80036; stroke-width: 1.0;"/><polygon fill="none" points="1970.9038,72.4643,1991.1565,78.6955,1971.4384,86.454,1970.9038,72.4643" style="stroke: #A80036; stroke-width: 1.0;"/><!--link com.hack23.cia.web.impl.ui.application.views.common.pagemode.AbstractItemPageModContentFactoryImpl to com.hack23.cia.web.impl.ui.application.views.user.document.pagemode.DocumentDataPageModContentFactoryImpl--><path d="M1971.266,78.1696 C1629.0618,87.9535 885.1162,111.793 771,137 C738.4235,144.1958 704.0937,157.0977 674.8116,169.882 " fill="none" id="com.hack23.cia.web.impl.ui.application.views.common.pagemode.AbstractItemPageModContentFactoryImpl-com.hack23.cia.web.impl.ui.application.views.user.document.pagemode.DocumentDataPageModContentFactoryImpl" style="stroke: #A80036; stroke-width: 1.0;"/><polygon fill="none" points="1971.2873,71.1663,1991.4783,77.5948,1971.6854,85.1606,1971.2873,71.1663" style="stroke: #A80036; stroke-width: 1.0;"/><!--link com.hack23.cia.web.impl.ui.application.views.common.pagemode.AbstractItemPageModContentFactoryImpl to com.hack23.cia.web.impl.ui.application.views.user.document.pagemode.DocumentPersonReferencesPageModContentFactoryImpl--><path d="M1970.9096,77.1429 C1566.5019,86.0961 578.5004,110.3936 430,137 C390.0568,144.1565 347.323,157.0927 310.6952,169.9145 " fill="none" id="com.hack23.cia.web.impl.ui.application.views.common.pagemode.AbstractItemPageModContentFactoryImpl-com.hack23.cia.web.impl.ui.application.views.user.document.pagemode.DocumentPersonReferencesPageModContentFactoryImpl" style="stroke: #A80036; stroke-width: 1.0;"/><polygon fill="none" points="1971.0268,70.1387,1991.1762,76.6963,1971.3353,84.1353,1971.0268,70.1387" style="stroke: #A80036; stroke-width: 1.0;"/><!--link com.hack23.cia.web.impl.ui.application.views.common.pagemode.AbstractItemPageModContentFactoryImpl to com.hack23.cia.web.impl.ui.application.views.user.document.pagemode.DocumentDecisionPageModContentFactoryImpl--><path d="M2143,124.3871 C2143,139.5086 2143,155.7831 2143,169.8558 " fill="none" id="com.hack23.cia.web.impl.ui.application.views.common.pagemode.AbstractItemPageModContentFactoryImpl-com.hack23.cia.web.impl.ui.application.views.user.document.pagemode.DocumentDecisionPageModContentFactoryImpl" style="stroke: #A80036; stroke-width: 1.0;"/><polygon fill="none" points="2136.0001,124.1276,2143,104.1276,2150.0001,124.1276,2136.0001,124.1276" style="stroke: #A80036; stroke-width: 1.0;"/><!--link com.hack23.cia.web.impl.ui.application.views.common.pagemode.AbstractItemPageModContentFactoryImpl to com.hack23.cia.web.impl.ui.application.views.user.document.pagemode.DocumentAttachementsPageModContentFactoryImpl--><path d="M1971.3348,82.8854 C1859.1794,91.4628 1710.1114,107.5048 1581,137 C1545.0467,145.2134 1506.5818,157.7287 1473.0859,169.9171 " fill="none" id="com.hack23.cia.web.impl.ui.application.views.common.pagemode.AbstractItemPageModContentFactoryImpl-com.hack23.cia.web.impl.ui.application.views.user.document.pagemode.DocumentAttachementsPageModContentFactoryImpl" style="stroke: #A80036; stroke-width: 1.0;"/><polygon fill="none" points="1971.0172,75.8899,1991.4794,81.3945,1972.0506,89.8517,1971.0172,75.8899" style="stroke: #A80036; stroke-width: 1.0;"/><text fill="#888888" font-family="sans-serif" font-size="10" lengthAdjust="spacingAndGlyphs" textLength="186" x="1975.5" y="285.2822">UMLDoclet 2.0.5, PlantUML 1.2019.08</text><!--
@startuml
    namespace com.hack23.cia.web.impl.ui.application.views.user.document.pagemode {

        class DocumentActivityPageModContentFactoryImpl [[DocumentActivityPageModContentFactoryImpl.html]] {
            +createContent(String, MenuBar, Panel): Layout
            +matches(String, String): boolean
        }

        class DocumentDetailsPageModContentFactoryImpl [[DocumentDetailsPageModContentFactoryImpl.html]] {
            +createContent(String, MenuBar, Panel): Layout
            +matches(String, String): boolean
        }

        class DocumentOverviewPageModContentFactoryImpl [[DocumentOverviewPageModContentFactoryImpl.html]] {
            +createContent(String, MenuBar, Panel): Layout
            +matches(String, String): boolean
        }

        class DocumentsOverviewPageModContentFactoryImpl [[DocumentsOverviewPageModContentFactoryImpl.html]] {
            +createContent(String, MenuBar, Panel): Layout
            +matches(String, String): boolean
        }

        class DocumentReferencesPageModContentFactoryImpl [[DocumentReferencesPageModContentFactoryImpl.html]] {
            +createContent(String, MenuBar, Panel): Layout
            +matches(String, String): boolean
        }

        class SearchDocumentPageModContentFactoryImpl [[SearchDocumentPageModContentFactoryImpl.html]] {
            {static} +NAME: String
            +createContent(String, MenuBar, Panel): Layout
            +matches(String, String): boolean
        }

        class DocumentPageVisitHistoryPageModContentFactoryImpl [[DocumentPageVisitHistoryPageModContentFactoryImpl.html]] {
            +createContent(String, MenuBar, Panel): Layout
            +matches(String, String): boolean
        }

        class DocumentDataPageModContentFactoryImpl [[DocumentDataPageModContentFactoryImpl.html]] {
            +createContent(String, MenuBar, Panel): Layout
            +matches(String, String): boolean
        }

        class DocumentPersonReferencesPageModContentFactoryImpl [[DocumentPersonReferencesPageModContentFactoryImpl.html]] {
            +createContent(String, MenuBar, Panel): Layout
            +matches(String, String): boolean
        }

        class DocumentDecisionPageModContentFactoryImpl [[DocumentDecisionPageModContentFactoryImpl.html]] {
            +createContent(String, MenuBar, Panel): Layout
            +matches(String, String): boolean
        }

        class DocumentAttachementsPageModContentFactoryImpl [[DocumentAttachementsPageModContentFactoryImpl.html]] {
            +createContent(String, MenuBar, Panel): Layout
            +matches(String, String): boolean
        }

        com.hack23.cia.web.impl.ui.application.views.common.pagemode.AbstractItemPageModContentFactoryImpl <|- - DocumentActivityPageModContentFactoryImpl
        com.hack23.cia.web.impl.ui.application.views.common.pagemode.AbstractItemPageModContentFactoryImpl <|- - DocumentDetailsPageModContentFactoryImpl
        com.hack23.cia.web.impl.ui.application.views.common.pagemode.AbstractItemPageModContentFactoryImpl <|- - DocumentOverviewPageModContentFactoryImpl
        com.hack23.cia.web.impl.ui.application.views.common.pagemode.AbstractBasicPageModContentFactoryImpl <|- - DocumentsOverviewPageModContentFactoryImpl
        com.hack23.cia.web.impl.ui.application.views.common.pagemode.AbstractItemPageModContentFactoryImpl <|- - DocumentReferencesPageModContentFactoryImpl
        com.hack23.cia.web.impl.ui.application.views.common.pagemode.AbstractBasicPageModContentFactoryImpl <|- - SearchDocumentPageModContentFactoryImpl
        com.hack23.cia.web.impl.ui.application.views.common.pagemode.AbstractItemPageModContentFactoryImpl <|- - DocumentPageVisitHistoryPageModContentFactoryImpl
        com.hack23.cia.web.impl.ui.application.views.common.pagemode.AbstractItemPageModContentFactoryImpl <|- - DocumentDataPageModContentFactoryImpl
        com.hack23.cia.web.impl.ui.application.views.common.pagemode.AbstractItemPageModContentFactoryImpl <|- - DocumentPersonReferencesPageModContentFactoryImpl
        com.hack23.cia.web.impl.ui.application.views.common.pagemode.AbstractItemPageModContentFactoryImpl <|- - DocumentDecisionPageModContentFactoryImpl
        com.hack23.cia.web.impl.ui.application.views.common.pagemode.AbstractItemPageModContentFactoryImpl <|- - DocumentAttachementsPageModContentFactoryImpl
    }

    namespace com.hack23.cia.web.impl.ui.application.views.common.pagemode {
        abstract class AbstractItemPageModContentFactoryImpl<T> [[../../../common/pagemode/AbstractItemPageModContentFactoryImpl.html]] {
            {abstract} #getItem(String): T
        }
        abstract class AbstractBasicPageModContentFactoryImpl [[../../../common/pagemode/AbstractBasicPageModContentFactoryImpl.html]]
    }

    center footer UMLDoclet 2.0.5, PlantUML 1.2019.08
@enduml

PlantUML version 1.2019.08(Sat Jul 13 21:25:14 CEST 2019)
(APACHE source distribution)
Java Runtime: OpenJDK Runtime Environment
JVM: OpenJDK 64-Bit Server VM
Java Version: 11.0.4+11-post-Ubuntu-1ubuntu219.04
Operating System: Linux
OS Version: 5.0.0-25-generic
Default Encoding: UTF-8
Language: en
Country: US
--></g></svg>