<?xml version="1.0" encoding="UTF-8" standalone="no"?><svg xmlns="http://www.w3.org/2000/svg" xmlns:xlink="http://www.w3.org/1999/xlink" contentScriptType="application/ecmascript" contentStyleType="text/css" height="231px" preserveAspectRatio="none" style="width:259px;height:231px;" version="1.1" viewBox="0 0 259 231" width="259px" zoomAndPan="magnify"><defs><filter height="300%" id="fdd1pv0v1ibtp" width="300%" x="-1" y="-1"><feGaussianBlur result="blurOut" stdDeviation="2.0"/><feColorMatrix in="blurOut" result="blurOut2" type="matrix" values="0 0 0 0 0 0 0 0 0 0 0 0 0 0 0 0 0 0 .4 0"/><feOffset dx="4.0" dy="4.0" in="blurOut2" result="blurOut3"/><feBlend in="SourceGraphic" in2="blurOut3" mode="normal"/></filter></defs><g><!--class com.hack23.cia.service.impl.email.EmailServiceImpl--><a href="EmailServiceImpl.html" target="_top" xlink:actuate="onRequest" xlink:show="new" xlink:title="EmailServiceImpl.html" xlink:type="simple"><rect fill="#FEFECE" filter="url(#fdd1pv0v1ibtp)" height="71.5469" id="com.hack23.cia.service.impl.email.EmailServiceImpl" style="stroke: #A80036; stroke-width: 1.5;" width="242" x="6" y="127"/><ellipse cx="42.15" cy="145.9688" fill="#ADD1B2" rx="11" ry="11" style="stroke: #A80036; stroke-width: 1.0;"/><path d="M45.1188,151.6094 Q44.5406,151.9063 43.9,152.0469 Q43.2594,152.2031 42.5563,152.2031 Q40.0563,152.2031 38.7281,150.5625 Q37.4156,148.9063 37.4156,145.7813 Q37.4156,142.6563 38.7281,141 Q40.0563,139.3438 42.5563,139.3438 Q43.2594,139.3438 43.9,139.5 Q44.5563,139.6563 45.1188,139.9531 L45.1188,142.6719 Q44.4938,142.0938 43.9,141.8281 Q43.3063,141.5469 42.6813,141.5469 Q41.3375,141.5469 40.65,142.625 Q39.9625,143.6875 39.9625,145.7813 Q39.9625,147.875 40.65,148.9531 Q41.3375,150.0156 42.6813,150.0156 Q43.3063,150.0156 43.9,149.75 Q44.4938,149.4688 45.1188,148.8906 L45.1188,151.6094 Z "/><text fill="#000000" font-family="sans-serif" font-size="14" lengthAdjust="spacingAndGlyphs" textLength="114" x="85.35" y="144.9951">EmailServiceImpl</text><text fill="#000000" font-family="sans-serif" font-size="10" lengthAdjust="spacingAndGlyphs" textLength="163" x="60.85" y="157.5791">com.hack23.cia.service.impl.email</text><line style="stroke: #A80036; stroke-width: 1.5;" x1="7" x2="247" y1="164.9375" y2="164.9375"/><ellipse cx="17" cy="176.8398" fill="#84BE84" rx="3" ry="3" style="stroke: #038048; stroke-width: 1.0;"/><text fill="#000000" font-family="sans-serif" font-size="11" lengthAdjust="spacingAndGlyphs" textLength="103" x="26" y="179.1479">initSettings(): void</text><ellipse cx="17" cy="189.6445" fill="#84BE84" rx="3" ry="3" style="stroke: #038048; stroke-width: 1.0;"/><text fill="#000000" font-family="sans-serif" font-size="11" lengthAdjust="spacingAndGlyphs" textLength="216" x="26" y="191.9526">sendEmail(String, String, String): void</text></a><!--class com.hack23.cia.service.impl.email.EmailService--><a href="EmailService.html" target="_top" xlink:actuate="onRequest" xlink:show="new" xlink:title="EmailService.html" xlink:type="simple"><rect fill="#FEFECE" filter="url(#fdd1pv0v1ibtp)" height="58.7422" id="com.hack23.cia.service.impl.email.EmailService" style="stroke: #A80036; stroke-width: 1.5;" width="239" x="7.5" y="8"/><ellipse cx="37.35" cy="26.9688" fill="#B4A7E5" rx="11" ry="11" style="stroke: #A80036; stroke-width: 1.0;"/><path d="M33.2719,22.7344 L33.2719,20.5781 L40.6625,20.5781 L40.6625,22.7344 L38.1938,22.7344 L38.1938,30.8125 L40.6625,30.8125 L40.6625,32.9688 L33.2719,32.9688 L33.2719,30.8125 L35.7406,30.8125 L35.7406,22.7344 L33.2719,22.7344 Z "/><text fill="#000000" font-family="sans-serif" font-size="14" font-style="italic" lengthAdjust="spacingAndGlyphs" textLength="87" x="98.15" y="25.9951">EmailService</text><text fill="#000000" font-family="sans-serif" font-size="10" font-style="italic" lengthAdjust="spacingAndGlyphs" textLength="174" x="54.65" y="38.5791">com.hack23.cia.service.impl.email</text><line style="stroke: #A80036; stroke-width: 1.5;" x1="8.5" x2="245.5" y1="45.9375" y2="45.9375"/><ellipse cx="18.5" cy="57.8398" fill="#84BE84" rx="3" ry="3" style="stroke: #038048; stroke-width: 1.0;"/><text fill="#000000" font-family="sans-serif" font-size="11" font-style="italic" lengthAdjust="spacingAndGlyphs" textLength="213" x="27.5" y="60.1479">sendEmail(String, String, String): void</text></a><!--link com.hack23.cia.service.impl.email.EmailService to com.hack23.cia.service.impl.email.EmailServiceImpl--><path d="M127,87.5049 C127,100.6211 127,114.5128 127,126.7555 " fill="none" id="com.hack23.cia.service.impl.email.EmailService-com.hack23.cia.service.impl.email.EmailServiceImpl" style="stroke: #A80036; stroke-width: 1.0; stroke-dasharray: 7.0,7.0;"/><polygon fill="none" points="120.0001,87.2418,127,67.2417,134.0001,87.2417,120.0001,87.2418" style="stroke: #A80036; stroke-width: 1.0;"/><text fill="#888888" font-family="sans-serif" font-size="10" lengthAdjust="spacingAndGlyphs" textLength="186" x="40" y="218.2822">UMLDoclet 2.0.5, PlantUML 1.2019.08</text><!--
@startuml
    set namespaceSeparator none
    hide empty fields
    hide empty methods

    class "<size:14>EmailServiceImpl\n<size:10>com.hack23.cia.service.impl.email" as com.hack23.cia.service.impl.email.EmailServiceImpl [[EmailServiceImpl.html]] {
        +initSettings(): void
        +sendEmail(String, String, String): void
    }

    interface "<size:14>EmailService\n<size:10>com.hack23.cia.service.impl.email" as com.hack23.cia.service.impl.email.EmailService [[EmailService.html]] {
        {abstract} +sendEmail(String, String, String): void
    }

    com.hack23.cia.service.impl.email.EmailService <|.. com.hack23.cia.service.impl.email.EmailServiceImpl

    center footer UMLDoclet 2.0.5, PlantUML 1.2019.08
@enduml

PlantUML version 1.2019.08(Sat Jul 13 21:25:14 CEST 2019)
(APACHE source distribution)
Java Runtime: OpenJDK Runtime Environment
JVM: OpenJDK 64-Bit Server VM
Java Version: 11.0.4+11-post-Ubuntu-1ubuntu219.04
Operating System: Linux
OS Version: 5.0.0-27-generic
Default Encoding: UTF-8
Language: en
Country: US
--></g></svg>