<?xml version="1.0" encoding="UTF-8" standalone="no"?><svg xmlns="http://www.w3.org/2000/svg" xmlns:xlink="http://www.w3.org/1999/xlink" contentScriptType="application/ecmascript" contentStyleType="text/css" height="286px" preserveAspectRatio="none" style="width:320px;height:286px;" version="1.1" viewBox="0 0 320 286" width="320px" zoomAndPan="magnify"><defs><filter height="300%" id="f1cil9ycwswsfx" width="300%" x="-1" y="-1"><feGaussianBlur result="blurOut" stdDeviation="2.0"/><feColorMatrix in="blurOut" result="blurOut2" type="matrix" values="0 0 0 0 0 0 0 0 0 0 0 0 0 0 0 0 0 0 .4 0"/><feOffset dx="4.0" dy="4.0" in="blurOut2" result="blurOut3"/><feBlend in="SourceGraphic" in2="blurOut3" mode="normal"/></filter></defs><g><!--cluster com.hack23.cia.service.impl.email--><polygon fill="#FFFFFF" filter="url(#f1cil9ycwswsfx)" points="14,16,288,16,295,38.2969,298,38.2969,298,246,14,246,14,16" style="stroke: #000000; stroke-width: 1.5;"/><line style="stroke: #000000; stroke-width: 1.5;" x1="14" x2="295" y1="38.2969" y2="38.2969"/><text fill="#000000" font-family="sans-serif" font-size="14" font-weight="bold" lengthAdjust="spacingAndGlyphs" textLength="268" x="18" y="30.9951">com.hack23.cia.service.impl.email</text><!--class com.hack23.cia.service.impl.email.EmailServiceImpl--><a href="EmailServiceImpl.html" target="_top" xlink:actuate="onRequest" xlink:show="new" xlink:title="EmailServiceImpl.html" xlink:type="simple"><rect fill="#FEFECE" filter="url(#f1cil9ycwswsfx)" height="73.6094" id="com.hack23.cia.service.impl.email.EmailServiceImpl" style="stroke: #A80036; stroke-width: 1.5;" width="242" x="35" y="164"/><ellipse cx="100.25" cy="180" fill="#ADD1B2" rx="11" ry="11" style="stroke: #A80036; stroke-width: 1.0;"/><path d="M103.2188,185.6406 Q102.6406,185.9375 102,186.0781 Q101.3594,186.2344 100.6563,186.2344 Q98.1563,186.2344 96.8281,184.5938 Q95.5156,182.9375 95.5156,179.8125 Q95.5156,176.6875 96.8281,175.0313 Q98.1563,173.375 100.6563,173.375 Q101.3594,173.375 102,173.5313 Q102.6563,173.6875 103.2188,173.9844 L103.2188,176.7031 Q102.5938,176.125 102,175.8594 Q101.4063,175.5781 100.7813,175.5781 Q99.4375,175.5781 98.75,176.6563 Q98.0625,177.7188 98.0625,179.8125 Q98.0625,181.9063 98.75,182.9844 Q99.4375,184.0469 100.7813,184.0469 Q101.4063,184.0469 102,183.7813 Q102.5938,183.5 103.2188,182.9219 L103.2188,185.6406 Z "/><text fill="#000000" font-family="sans-serif" font-size="12" lengthAdjust="spacingAndGlyphs" textLength="103" x="120.75" y="184.1543">EmailServiceImpl</text><line style="stroke: #A80036; stroke-width: 1.5;" x1="36" x2="276" y1="196" y2="196"/><line style="stroke: #A80036; stroke-width: 1.5;" x1="36" x2="276" y1="204" y2="204"/><ellipse cx="46" cy="215.9023" fill="#84BE84" rx="3" ry="3" style="stroke: #038048; stroke-width: 1.0;"/><text fill="#000000" font-family="sans-serif" font-size="11" lengthAdjust="spacingAndGlyphs" textLength="103" x="55" y="218.2104">initSettings(): void</text><ellipse cx="46" cy="228.707" fill="#84BE84" rx="3" ry="3" style="stroke: #038048; stroke-width: 1.0;"/><text fill="#000000" font-family="sans-serif" font-size="11" lengthAdjust="spacingAndGlyphs" textLength="216" x="55" y="231.0151">sendEmail(String, String, String): void</text></a><!--class com.hack23.cia.service.impl.email.EmailService--><a href="EmailService.html" target="_top" xlink:actuate="onRequest" xlink:show="new" xlink:title="EmailService.html" xlink:type="simple"><rect fill="#FEFECE" filter="url(#f1cil9ycwswsfx)" height="60.8047" id="com.hack23.cia.service.impl.email.EmailService" style="stroke: #A80036; stroke-width: 1.5;" width="239" x="36.5" y="43"/><ellipse cx="112.75" cy="59" fill="#B4A7E5" rx="11" ry="11" style="stroke: #A80036; stroke-width: 1.0;"/><path d="M108.6719,54.7656 L108.6719,52.6094 L116.0625,52.6094 L116.0625,54.7656 L113.5938,54.7656 L113.5938,62.8438 L116.0625,62.8438 L116.0625,65 L108.6719,65 L108.6719,62.8438 L111.1406,62.8438 L111.1406,54.7656 L108.6719,54.7656 Z "/><text fill="#000000" font-family="sans-serif" font-size="12" font-style="italic" lengthAdjust="spacingAndGlyphs" textLength="78" x="133.25" y="63.1543">EmailService</text><line style="stroke: #A80036; stroke-width: 1.5;" x1="37.5" x2="274.5" y1="75" y2="75"/><line style="stroke: #A80036; stroke-width: 1.5;" x1="37.5" x2="274.5" y1="83" y2="83"/><ellipse cx="47.5" cy="94.9023" fill="#84BE84" rx="3" ry="3" style="stroke: #038048; stroke-width: 1.0;"/><text fill="#000000" font-family="sans-serif" font-size="11" font-style="italic" lengthAdjust="spacingAndGlyphs" textLength="213" x="56.5" y="97.2104">sendEmail(String, String, String): void</text></a><!--link com.hack23.cia.service.impl.email.EmailService to com.hack23.cia.service.impl.email.EmailServiceImpl--><path d="M156,124.4308 C156,137.6149 156,151.562 156,163.8888 " fill="none" id="com.hack23.cia.service.impl.email.EmailService-com.hack23.cia.service.impl.email.EmailServiceImpl" style="stroke: #A80036; stroke-width: 1.0; stroke-dasharray: 7.0,7.0;"/><polygon fill="none" points="149.0001,124.0395,156,104.0394,163.0001,124.0394,149.0001,124.0395" style="stroke: #A80036; stroke-width: 1.0;"/><text fill="#888888" font-family="sans-serif" font-size="10" lengthAdjust="spacingAndGlyphs" textLength="186" x="69" y="273.2822">UMLDoclet 2.0.5, PlantUML 1.2019.08</text><!--
@startuml
    namespace com.hack23.cia.service.impl.email {

        class EmailServiceImpl [[EmailServiceImpl.html]] {
            +initSettings(): void
            +sendEmail(String, String, String): void
        }

        interface EmailService [[EmailService.html]] {
            {abstract} +sendEmail(String, String, String): void
        }

        EmailService <|.. EmailServiceImpl
    }

    center footer UMLDoclet 2.0.5, PlantUML 1.2019.08
@enduml

PlantUML version 1.2019.08(Sat Jul 13 21:25:14 CEST 2019)
(APACHE source distribution)
Java Runtime: OpenJDK Runtime Environment
JVM: OpenJDK 64-Bit Server VM
Java Version: 11.0.4+11-post-Ubuntu-1ubuntu219.04
Operating System: Linux
OS Version: 5.0.0-27-generic
Default Encoding: UTF-8
Language: en
Country: US
--></g></svg>