<svg xmlns="http://www.w3.org/2000/svg" xmlns:xlink="http://www.w3.org/1999/xlink" contentStyleType="text/css" height="184px" preserveAspectRatio="none" style="width:673px;height:184px;background:#FFFFFF;" version="1.1" viewBox="0 0 673 184" width="673px" zoomAndPan="magnify"><defs/><g><!--cluster com.hack23.cia.web.impl.ui.application.util--><g id="cluster_com.hack23.cia.web.impl.ui.application.util"><path d="M16.5,4 L320.6409,4 A3.75,3.75 0 0 1 323.1409,6.5 L330.1409,29.0679 L663.5,29.0679 A2.5,2.5 0 0 1 666,31.5679 L666,144.5 A2.5,2.5 0 0 1 663.5,147 L16.5,147 A2.5,2.5 0 0 1 14,144.5 L14,6.5 A2.5,2.5 0 0 1 16.5,4 " fill="none" style="stroke:#000000;stroke-width:1.5;"/><line style="stroke:#000000;stroke-width:1.5;" x1="14" x2="330.1409" y1="29.0679" y2="29.0679"/><text fill="#000000" font-family="sans-serif" font-size="14" font-weight="bold" lengthAdjust="spacing" textLength="303.1409" x="18" y="20.9659">com.hack23.cia.web.impl.ui.application.util</text></g><!--class UserContextUtil--><a href="UserContextUtil.html" target="_top" title="UserContextUtil.html" xlink:actuate="onRequest" xlink:href="UserContextUtil.html" xlink:show="new" xlink:title="UserContextUtil.html" xlink:type="simple"><g id="elem_UserContextUtil"><rect codeLine="12" fill="#F1F1F1" height="105.2038" id="UserContextUtil" rx="2.5" ry="2.5" style="stroke:#181818;stroke-width:0.5;" width="315.3089" x="342.5" y="34"/><ellipse cx="443.6496" cy="50" fill="#ADD1B2" rx="11" ry="11" style="stroke:#181818;stroke-width:1.0;"/><path d="M446.6184,55.6406 Q446.0403,55.9375 445.3996,56.0781 Q444.759,56.2344 444.0559,56.2344 Q441.5559,56.2344 440.2278,54.5938 Q438.9153,52.9375 438.9153,49.8125 Q438.9153,46.6875 440.2278,45.0313 Q441.5559,43.375 444.0559,43.375 Q444.759,43.375 445.3996,43.5313 Q446.0559,43.6875 446.6184,43.9844 L446.6184,46.7031 Q445.9934,46.125 445.3996,45.8594 Q444.8059,45.5781 444.1809,45.5781 Q442.8371,45.5781 442.1496,46.6563 Q441.4621,47.7188 441.4621,49.8125 Q441.4621,51.9063 442.1496,52.9844 Q442.8371,54.0469 444.1809,54.0469 Q444.8059,54.0469 445.3996,53.7813 Q445.9934,53.5 446.6184,52.9219 L446.6184,55.6406 Z " fill="#000000"/><text fill="#000000" font-family="sans-serif" font-size="14" lengthAdjust="spacing" textLength="104.5096" x="464.1496" y="55.432">UserContextUtil</text><line style="stroke:#181818;stroke-width:0.5;" x1="343.5" x2="656.8089" y1="66" y2="66"/><line style="stroke:#181818;stroke-width:0.5;" x1="343.5" x2="656.8089" y1="74" y2="74"/><ellipse cx="353.5" cy="89.034" fill="#84BE84" rx="3" ry="3" style="stroke:#038048;stroke-width:1.0;"/><text fill="#000000" font-family="sans-serif" font-size="14" lengthAdjust="spacing" text-decoration="underline" textLength="289.3089" x="362.5" y="92.9659">allowRoleInSecurityContext(String): boolean</text><ellipse cx="353.5" cy="108.1019" fill="#84BE84" rx="3" ry="3" style="stroke:#038048;stroke-width:1.0;"/><text fill="#000000" font-family="sans-serif" font-size="14" lengthAdjust="spacing" text-decoration="underline" textLength="182.7273" x="362.5" y="112.0339">getRequestUrl(Page): String</text><ellipse cx="353.5" cy="127.1698" fill="#84BE84" rx="3" ry="3" style="stroke:#038048;stroke-width:1.0;"/><text fill="#000000" font-family="sans-serif" font-size="14" lengthAdjust="spacing" text-decoration="underline" textLength="259.251" x="362.5" y="131.1018">getUserIdFromSecurityContext(): String</text></g></a><!--class WebBrowserUtil--><a href="WebBrowserUtil.html" target="_top" title="WebBrowserUtil.html" xlink:actuate="onRequest" xlink:href="WebBrowserUtil.html" xlink:show="new" xlink:title="WebBrowserUtil.html" xlink:type="simple"><g id="elem_WebBrowserUtil"><rect codeLine="18" fill="#F1F1F1" height="105.2038" id="WebBrowserUtil" rx="2.5" ry="2.5" style="stroke:#181818;stroke-width:0.5;" width="301.589" x="22" y="34"/><ellipse cx="115.1557" cy="50" fill="#ADD1B2" rx="11" ry="11" style="stroke:#181818;stroke-width:1.0;"/><path d="M118.1245,55.6406 Q117.5463,55.9375 116.9057,56.0781 Q116.2651,56.2344 115.562,56.2344 Q113.062,56.2344 111.7338,54.5938 Q110.4213,52.9375 110.4213,49.8125 Q110.4213,46.6875 111.7338,45.0313 Q113.062,43.375 115.562,43.375 Q116.2651,43.375 116.9057,43.5313 Q117.562,43.6875 118.1245,43.9844 L118.1245,46.7031 Q117.4995,46.125 116.9057,45.8594 Q116.312,45.5781 115.687,45.5781 Q114.3432,45.5781 113.6557,46.6563 Q112.9682,47.7188 112.9682,49.8125 Q112.9682,51.9063 113.6557,52.9844 Q114.3432,54.0469 115.687,54.0469 Q116.312,54.0469 116.9057,53.7813 Q117.4995,53.5 118.1245,52.9219 L118.1245,55.6406 Z " fill="#000000"/><text fill="#000000" font-family="sans-serif" font-size="14" lengthAdjust="spacing" textLength="106.7776" x="135.6557" y="55.432">WebBrowserUtil</text><line style="stroke:#181818;stroke-width:0.5;" x1="23" x2="322.589" y1="66" y2="66"/><ellipse cx="33" cy="81.034" fill="none" rx="3" ry="3" style="stroke:#038048;stroke-width:1.0;"/><text fill="#000000" font-family="sans-serif" font-size="14" lengthAdjust="spacing" text-decoration="underline" textLength="180.1373" x="42" y="84.9659">X_FORWARDED_FOR: String</text><line style="stroke:#181818;stroke-width:0.5;" x1="23" x2="322.589" y1="93.0679" y2="93.0679"/><ellipse cx="33" cy="108.1019" fill="#84BE84" rx="3" ry="3" style="stroke:#038048;stroke-width:1.0;"/><text fill="#000000" font-family="sans-serif" font-size="14" lengthAdjust="spacing" text-decoration="underline" textLength="253.567" x="42" y="112.0339">getIpInformation(WebBrowser): String</text><ellipse cx="33" cy="127.1698" fill="#84BE84" rx="3" ry="3" style="stroke:#038048;stroke-width:1.0;"/><text fill="#000000" font-family="sans-serif" font-size="14" lengthAdjust="spacing" text-decoration="underline" textLength="275.589" x="42" y="131.1018">getOperatingSystem(WebBrowser): String</text></g></a><text fill="#888888" font-family="sans-serif" font-size="10" lengthAdjust="spacing" textLength="2.6" x="327.2" y="159.69">&#160;</text><a href="https://github.com/talsma-ict/umldoclet" target="_top" title="https://github.com/talsma-ict/umldoclet" xlink:actuate="onRequest" xlink:href="https://github.com/talsma-ict/umldoclet" xlink:show="new" xlink:title="https://github.com/talsma-ict/umldoclet" xlink:type="simple"><text fill="#888888" font-family="sans-serif" font-size="10" lengthAdjust="spacing" textLength="76.7199" x="290.14" y="173.31">UMLDoclet 2.2.1</text></a><!--SRC=[ZLDjRzCm4Fw-Nt683tJQwgRPM6c4a4gtGL7HfhveIAL2Rk8cLXqxioyhqRJ_pYKDMriO8r-S-FoyNNm006-WRxB2oZX1G0EOI0VJhqFWEe9OQ64vYWXaocFXO26KqR7R71J0SqoC1REila9ZhN2PqP7KCNpXTnoSoMqe73iuW4fgyfjzpTqM-w8eDyzDg0H2et-uPSdtscTDt_FVmeGhbt8Oz2UiPdl2-CndRI1k9KEX7L7cEXAsijNBU4ZBS5CvXZjXdJIQC5xDKqODZKOkjOECMtHbf6l5DPPUsupqJra76htnSDURrwsy7KFFQfv7C3At-MFSLvdbCJbMl30vWai5SishaYFFJf0KH-fV46m0P7H5RIOlAKletJzXeUHiBHPCffbYkMGyooWYHmh0SfGAxZVGyWaLTzHT9soVmeYVE2qFp6PxEop1LCtdX8IjvzuXiOOFSCILCkkHKMAWnoBChSIYHZV6QEdN7WQmC5Jd-Xc6ME18b8t0gLMDQuf4a0tsUKJfSX1TMfFkg_u9VjWFVICM7wrP4qMTUNVZfSZVVbnUZMvwe_EBy_BjPRE3RA2NngRLZsWyYVr7pgkilFHqP5mu5Ea_mNNEUddli53YmsDrQGpI7TyDzRaW_g7KgxvHTBLUl_jxTLgEXv9Qq4I6AoseXzwMR2NNsjAhjRxhsIn1p5pGQiKIatp1wBAsi1hDfWonbQSgsipatdJEv_MqVNeS-t9qcbwdsJwPjBt0wmQdPwpRxdQypgdNEVBymFDc5xarcMYDqOIhnAXq_Wi0]--></g></svg>