<svg xmlns="http://www.w3.org/2000/svg" xmlns:xlink="http://www.w3.org/1999/xlink" contentStyleType="text/css" data-diagram-type="CLASS" height="184px" preserveAspectRatio="none" style="width:340px;height:184px;background:#FFFFFF;" version="1.1" viewBox="0 0 340 184" width="340px" zoomAndPan="magnify"><defs/><g><!--cluster com.hack23.cia.web.impl.ui.application.util--><g class="cluster" data-entity="com.hack23.cia.web.impl.ui.application.util" data-source-line="10" data-uid="ent0002" id="cluster_com.hack23.cia.web.impl.ui.application.util"><path d="M16.5,4 L320.6409,4 A3.75,3.75 0 0 1 323.1409,6.5 L330.1409,29.0679 L330.5,29.0679 A2.5,2.5 0 0 1 333,31.5679 L333,144.5 A2.5,2.5 0 0 1 330.5,147 L16.5,147 A2.5,2.5 0 0 1 14,144.5 L14,6.5 A2.5,2.5 0 0 1 16.5,4" fill="none" style="stroke:#000000;stroke-width:1.5;"/><line style="stroke:#000000;stroke-width:1.5;" x1="14" x2="330.1409" y1="29.0679" y2="29.0679"/><text fill="#000000" font-family="sans-serif" font-size="14" font-weight="bold" lengthAdjust="spacing" textLength="303.1409" x="18" y="20.9659">com.hack23.cia.web.impl.ui.application.util</text></g><!--class WebBrowserUtil--><g class="entity" data-entity="WebBrowserUtil" data-source-line="12" data-uid="ent0003" id="entity_WebBrowserUtil"><a href="WebBrowserUtil.html" target="_top" title="WebBrowserUtil.html" xlink:actuate="onRequest" xlink:href="WebBrowserUtil.html" xlink:show="new" xlink:title="WebBrowserUtil.html" xlink:type="simple"><rect fill="#F1F1F1" height="105.2038" rx="2.5" ry="2.5" style="stroke:#181818;stroke-width:0.5;" width="301.589" x="22" y="34"/><ellipse cx="115.1557" cy="50" fill="#ADD1B2" rx="11" ry="11" style="stroke:#181818;stroke-width:1;"/><path d="M118.1245,55.6406 Q117.5463,55.9375 116.9057,56.0781 Q116.2651,56.2344 115.562,56.2344 Q113.062,56.2344 111.7338,54.5938 Q110.4213,52.9375 110.4213,49.8125 Q110.4213,46.6875 111.7338,45.0313 Q113.062,43.375 115.562,43.375 Q116.2651,43.375 116.9057,43.5313 Q117.562,43.6875 118.1245,43.9844 L118.1245,46.7031 Q117.4995,46.125 116.9057,45.8594 Q116.312,45.5781 115.687,45.5781 Q114.3432,45.5781 113.6557,46.6563 Q112.9682,47.7188 112.9682,49.8125 Q112.9682,51.9063 113.6557,52.9844 Q114.3432,54.0469 115.687,54.0469 Q116.312,54.0469 116.9057,53.7813 Q117.4995,53.5 118.1245,52.9219 L118.1245,55.6406 Z " fill="#000000"/><text fill="#000000" font-family="sans-serif" font-size="14" lengthAdjust="spacing" textLength="106.7776" x="135.6557" y="55.432">WebBrowserUtil</text><line style="stroke:#181818;stroke-width:0.5;" x1="23" x2="322.589" y1="66" y2="66"/><ellipse cx="33" cy="81.034" fill="none" rx="3" ry="3" style="stroke:#038048;stroke-width:1;"/><text fill="#000000" font-family="sans-serif" font-size="14" lengthAdjust="spacing" text-decoration="underline" textLength="180.1373" x="42" y="84.9659">X_FORWARDED_FOR: String</text><line style="stroke:#181818;stroke-width:0.5;" x1="23" x2="322.589" y1="93.0679" y2="93.0679"/><ellipse cx="33" cy="108.1019" fill="#84BE84" rx="3" ry="3" style="stroke:#038048;stroke-width:1;"/><text fill="#000000" font-family="sans-serif" font-size="14" lengthAdjust="spacing" text-decoration="underline" textLength="253.567" x="42" y="112.0339">getIpInformation(WebBrowser): String</text><ellipse cx="33" cy="127.1698" fill="#84BE84" rx="3" ry="3" style="stroke:#038048;stroke-width:1;"/><text fill="#000000" font-family="sans-serif" font-size="14" lengthAdjust="spacing" text-decoration="underline" textLength="275.589" x="42" y="131.1018">getOperatingSystem(WebBrowser): String</text></a></g><g class="footer" data-source-line="26"><text fill="#888888" font-family="sans-serif" font-size="10" lengthAdjust="spacing" textLength="2.6" x="160.7" y="159.69">&#160;</text><a href="https://github.com/talsma-ict/umldoclet" target="_top" title="https://github.com/talsma-ict/umldoclet" xlink:actuate="onRequest" xlink:href="https://github.com/talsma-ict/umldoclet" xlink:show="new" xlink:title="https://github.com/talsma-ict/umldoclet" xlink:type="simple"><text fill="#888888" font-family="sans-serif" font-size="10" lengthAdjust="spacing" textLength="76.7199" x="123.64" y="173.31">UMLDoclet 2.2.4</text></a></g><!--SRC=[XLDjRzCm4Fw-Nt683tJQwhnGEXOXfD8EA2eQwek6L2ha9cvYrR63VLaLJVllN9BIjOWNVx7ZyptFStTF001UmD0KbPLfXe06C9CE5fydm7K2gT32SXG9o9odmi5QAADJrpuKm4lCZ0MpQRvYOwrmXT69r2byulSSd2bjB1mxEuE6QluBVSVT4VgwgYz79bO2eJCyFv8K-a6_6_fX7-PSkPp3U3XdUxIdd925h0U4hMGij2F8KYV2Dh861OzfcxIHIxWNracZASVVuzIbnaOZbzf1mIswkgGlYckijGQC-5-nm8VEO3Ov5UTVD-8kOM0rBnEOcX_beTvdXUKfILQyCYM2omLopPkG8z5E41T7Qc0KjGcaT4jz9Z4vo-WSlcInv6mdrapcXMAbPBmeg4QEL04hKIfuQ5Fh5Ilk7Do9zJjhTaxOHHrVBaylM8QvMgqe3uxMWqF2Z1_XukltzxVJky5qT3EgJn7CqD8y__8w5JWkndfZRDvewZoHdVy_zRQe3K1FPfL3aVyp-R6jSx-zSLWfyVOGtHY3DE_JeZvMX3-HUZiqYhhy_FMVeulQAafgGUwCjrfG3_qZseREE-BRSttJosM6MBZ8yrA9MRbcD3SF6vjsPOnUcQkazUTlJbsjzixxSFW5QXTr_Lut2EP1Bmgkel2QNGL1s0yk_33o_ULDQKqXl1cQU9iPbQz-0W00]--></g></svg>