<?xml version="1.0" encoding="UTF-8" standalone="no"?><svg xmlns="http://www.w3.org/2000/svg" xmlns:xlink="http://www.w3.org/1999/xlink" contentStyleType="text/css" height="143px" preserveAspectRatio="none" style="width:341px;height:143px;background:#FFFFFF;" version="1.1" viewBox="0 0 341 143" width="341px" zoomAndPan="magnify"><defs/><g><!--MD5=[cf7d22e119e984b4f5452e2d7affd382]
class com.hack23.cia.web.impl.ui.application.util.UserContextUtil--><a href="UserContextUtil.html" target="_top" title="UserContextUtil.html" xlink:actuate="onRequest" xlink:href="UserContextUtil.html" xlink:show="new" xlink:title="UserContextUtil.html" xlink:type="simple"><g id="elem_com.hack23.cia.web.impl.ui.application.util.UserContextUtil"><rect codeLine="5" fill="#F1F1F1" height="107.8917" id="com.hack23.cia.web.impl.ui.application.util.UserContextUtil" rx="2.5" ry="2.5" style="stroke:#181818;stroke-width:0.5;" width="320" x="7" y="7"/><ellipse cx="58.25" cy="28.344" fill="#ADD1B2" rx="11" ry="11" style="stroke:#181818;stroke-width:1.0;"/><path d="M61.2188,33.9846 Q60.6406,34.2815 60,34.4221 Q59.3594,34.5783 58.6563,34.5783 Q56.1563,34.5783 54.8281,32.9377 Q53.5156,31.2815 53.5156,28.1565 Q53.5156,25.0315 54.8281,23.3752 Q56.1563,21.719 58.6563,21.719 Q59.3594,21.719 60,21.8752 Q60.6563,22.0315 61.2188,22.3283 L61.2188,25.0471 Q60.5938,24.469 60,24.2033 Q59.4063,23.9221 58.7813,23.9221 Q57.4375,23.9221 56.75,25.0002 Q56.0625,26.0627 56.0625,28.1565 Q56.0625,30.2502 56.75,31.3283 Q57.4375,32.3908 58.7813,32.3908 Q59.4063,32.3908 60,32.1252 Q60.5938,31.844 61.2188,31.2658 L61.2188,33.9846 Z " fill="#000000"/><text fill="#000000" font-family="sans-serif" font-size="14" lengthAdjust="spacing" textLength="105" x="130.75" y="26.9659">UserContextUtil</text><text fill="#000000" font-family="sans-serif" font-size="10" lengthAdjust="spacing" textLength="209" x="78.75" y="41.7579">com.hack23.cia.web.impl.ui.application.util</text><line style="stroke:#181818;stroke-width:0.5;" x1="8" x2="326" y1="49.6879" y2="49.6879"/><ellipse cx="18" cy="64.7219" fill="#84BE84" rx="3" ry="3" style="stroke:#038048;stroke-width:1.0;"/><text fill="#000000" font-family="sans-serif" font-size="14" lengthAdjust="spacing" text-decoration="underline" textLength="294" x="27" y="68.6538">allowRoleInSecurityContext(String): boolean</text><ellipse cx="18" cy="83.7898" fill="#84BE84" rx="3" ry="3" style="stroke:#038048;stroke-width:1.0;"/><text fill="#000000" font-family="sans-serif" font-size="14" lengthAdjust="spacing" text-decoration="underline" textLength="187" x="27" y="87.7218">getRequestUrl(Page): String</text><ellipse cx="18" cy="102.8577" fill="#84BE84" rx="3" ry="3" style="stroke:#038048;stroke-width:1.0;"/><text fill="#000000" font-family="sans-serif" font-size="14" lengthAdjust="spacing" text-decoration="underline" textLength="263" x="27" y="106.7897">getUserIdFromSecurityContext(): String</text></g></a><rect fill="none" height="13.62" style="stroke:none;stroke-width:1.0;" width="188" x="72.5" y="121.8917"/><text fill="#888888" font-family="sans-serif" font-size="10" lengthAdjust="spacing" textLength="188" x="72.5" y="132.5816">UMLDoclet 2.0.20, PlantUML 1.2022.12</text><!--MD5=[832105b726fb1ec0a6b822691dcb6762]
@startuml
    set namespaceSeparator none
    hide empty fields
    hide empty methods

    class "<size:14>UserContextUtil\n<size:10>com.hack23.cia.web.impl.ui.application.util" as com.hack23.cia.web.impl.ui.application.util.UserContextUtil [[UserContextUtil.html]] {
        {static} +allowRoleInSecurityContext(String): boolean
        {static} +getRequestUrl(Page): String
        {static} +getUserIdFromSecurityContext(): String
    }

    center footer UMLDoclet 2.0.20, PlantUML 1.2022.12
@enduml

PlantUML version 1.2022.12(Sun Oct 23 20:12:26 CEST 2022)
(APACHE source distribution)
Java Runtime: OpenJDK Runtime Environment
JVM: OpenJDK 64-Bit Server VM
Default Encoding: UTF-8
Language: 
Country: 
--></g></svg>