<svg xmlns="http://www.w3.org/2000/svg" xmlns:xlink="http://www.w3.org/1999/xlink" contentStyleType="text/css" data-diagram-type="CLASS" height="408px" preserveAspectRatio="none" style="width:609px;height:408px;background:#FFFFFF;" version="1.1" viewBox="0 0 609 408" width="609px" zoomAndPan="magnify"><defs/><g><!--class com.hack23.cia.model.internal.application.data.impl.ApplicationActionEventPageModePeriodSummaryEmbeddedId--><g class="entity" data-entity="com.hack23.cia.model.internal.application.data.impl.ApplicationActionEventPageModePeriodSummaryEmbeddedId" data-source-line="13" data-uid="ent0002" id="entity_com.hack23.cia.model.internal.application.data.impl.ApplicationActionEventPageModePeriodSummaryEmbeddedId"><a href="ApplicationActionEventPageModePeriodSummaryEmbeddedId.html" target="_top" title="ApplicationActionEventPageModePeriodSummaryEmbeddedId.html" xlink:actuate="onRequest" xlink:href="ApplicationActionEventPageModePeriodSummaryEmbeddedId.html" xlink:show="new" xlink:title="ApplicationActionEventPageModePeriodSummaryEmbeddedId.html" xlink:type="simple"><rect fill="#F1F1F1" height="287.5029" rx="2.5" ry="2.5" style="stroke:#181818;stroke-width:0.5;" width="596.9041" x="6" y="91"/><ellipse cx="93.8008" cy="112.344" fill="#ADD1B2" rx="11" ry="11" style="stroke:#181818;stroke-width:1;"/><path d="M96.7695,117.9846 Q96.1914,118.2815 95.5508,118.4221 Q94.9102,118.5783 94.207,118.5783 Q91.707,118.5783 90.3789,116.9377 Q89.0664,115.2815 89.0664,112.1565 Q89.0664,109.0315 90.3789,107.3752 Q91.707,105.719 94.207,105.719 Q94.9102,105.719 95.5508,105.8752 Q96.207,106.0315 96.7695,106.3283 L96.7695,109.0471 Q96.1445,108.469 95.5508,108.2033 Q94.957,107.9221 94.332,107.9221 Q92.9883,107.9221 92.3008,109.0002 Q91.6133,110.0627 91.6133,112.1565 Q91.6133,114.2502 92.3008,115.3283 Q92.9883,116.3908 94.332,116.3908 Q94.957,116.3908 95.5508,116.1252 Q96.1445,115.844 96.7695,115.2658 L96.7695,117.9846 Z " fill="#000000"/><text fill="#000000" font-family="sans-serif" font-size="14" lengthAdjust="spacing" textLength="412.8025" x="114.3008" y="110.9659">ApplicationActionEventPageModePeriodSummaryEmbeddedId</text><text fill="#000000" font-family="sans-serif" font-size="10" lengthAdjust="spacing" textLength="245.1398" x="198.1321" y="125.7579">com.hack23.cia.model.internal.application.data.impl</text><line style="stroke:#181818;stroke-width:0.5;" x1="7" x2="601.9041" y1="133.6879" y2="133.6879"/><polygon fill="none" points="17,143.7219,21,147.7219,17,151.7219,13,147.7219" style="stroke:#B38D22;stroke-width:1;"/><text fill="#000000" font-family="sans-serif" font-size="14" lengthAdjust="spacing" textLength="119.2515" x="26" y="152.6538">createdDate: Date</text><polygon fill="none" points="17,162.7898,21,166.7898,17,170.7898,13,166.7898" style="stroke:#B38D22;stroke-width:1;"/><text fill="#000000" font-family="sans-serif" font-size="14" lengthAdjust="spacing" textLength="79.7577" x="26" y="171.7218">page: String</text><polygon fill="none" points="17,181.8577,21,185.8577,17,189.8577,13,185.8577" style="stroke:#B38D22;stroke-width:1;"/><text fill="#000000" font-family="sans-serif" font-size="14" lengthAdjust="spacing" textLength="117.4316" x="26" y="190.7897">pageMode: String</text><line style="stroke:#181818;stroke-width:0.5;" x1="7" x2="601.9041" y1="198.8917" y2="198.8917"/><ellipse cx="17" cy="213.9256" fill="#84BE84" rx="3" ry="3" style="stroke:#038048;stroke-width:1;"/><text fill="#000000" font-family="sans-serif" font-size="14" lengthAdjust="spacing" textLength="151.3394" x="26" y="217.8576">getCreatedDate(): Date</text><ellipse cx="17" cy="232.9935" fill="#84BE84" rx="3" ry="3" style="stroke:#038048;stroke-width:1;"/><text fill="#000000" font-family="sans-serif" font-size="14" lengthAdjust="spacing" textLength="177.2393" x="26" y="236.9255">setCreatedDate(Date): void</text><ellipse cx="17" cy="252.0614" fill="#84BE84" rx="3" ry="3" style="stroke:#038048;stroke-width:1;"/><text fill="#000000" font-family="sans-serif" font-size="14" lengthAdjust="spacing" textLength="109.5776" x="26" y="255.9934">getPage(): String</text><ellipse cx="17" cy="271.1294" fill="#84BE84" rx="3" ry="3" style="stroke:#038048;stroke-width:1;"/><text fill="#000000" font-family="sans-serif" font-size="14" lengthAdjust="spacing" textLength="135.4775" x="26" y="275.0613">setPage(String): void</text><ellipse cx="17" cy="290.1973" fill="#84BE84" rx="3" ry="3" style="stroke:#038048;stroke-width:1;"/><text fill="#000000" font-family="sans-serif" font-size="14" lengthAdjust="spacing" textLength="147.2514" x="26" y="294.1293">getPageMode(): String</text><ellipse cx="17" cy="309.2652" fill="#84BE84" rx="3" ry="3" style="stroke:#038048;stroke-width:1;"/><text fill="#000000" font-family="sans-serif" font-size="14" lengthAdjust="spacing" textLength="173.1514" x="26" y="313.1972">setPageMode(String): void</text><ellipse cx="17" cy="328.3331" fill="#84BE84" rx="3" ry="3" style="stroke:#038048;stroke-width:1;"/><text fill="#000000" font-family="sans-serif" font-size="14" lengthAdjust="spacing" textLength="570.9041" x="26" y="332.2651">withCreatedDate(Date): ApplicationActionEventPageModePeriodSummaryEmbeddedId</text><ellipse cx="17" cy="347.401" fill="#84BE84" rx="3" ry="3" style="stroke:#038048;stroke-width:1;"/><text fill="#000000" font-family="sans-serif" font-size="14" lengthAdjust="spacing" textLength="529.1421" x="26" y="351.333">withPage(String): ApplicationActionEventPageModePeriodSummaryEmbeddedId</text><ellipse cx="17" cy="366.4689" fill="#84BE84" rx="3" ry="3" style="stroke:#038048;stroke-width:1;"/><text fill="#000000" font-family="sans-serif" font-size="14" lengthAdjust="spacing" textLength="566.816" x="26" y="370.4009">withPageMode(String): ApplicationActionEventPageModePeriodSummaryEmbeddedId</text></a></g><!--class com.hack23.cia.model.common.api.ModelObject--><g class="entity" data-entity="com.hack23.cia.model.common.api.ModelObject" data-source-line="28" data-uid="ent0003" id="entity_com.hack23.cia.model.common.api.ModelObject"><rect fill="#F1F1F1" height="42.6879" rx="2.5" ry="2.5" style="stroke:#181818;stroke-width:0.5;" width="189.3398" x="210" y="12"/><ellipse cx="225" cy="33.344" fill="#B4A7E5" rx="11" ry="11" style="stroke:#181818;stroke-width:1;"/><path d="M220.9219,29.1096 L220.9219,26.9533 L228.3125,26.9533 L228.3125,29.1096 L225.8438,29.1096 L225.8438,37.1877 L228.3125,37.1877 L228.3125,39.344 L220.9219,39.344 L220.9219,37.1877 L223.3906,37.1877 L223.3906,29.1096 L220.9219,29.1096 Z " fill="#000000"/><text fill="#000000" font-family="sans-serif" font-size="14" font-style="italic" lengthAdjust="spacing" textLength="78.1477" x="278.596" y="31.9659">ModelObject</text><text fill="#000000" font-family="sans-serif" font-size="10" font-style="italic" lengthAdjust="spacing" textLength="157.3398" x="239" y="46.7579">com.hack23.cia.model.common.api</text></g><g class="link" data-entity-1="com.hack23.cia.model.common.api.ModelObject" data-entity-2="com.hack23.cia.model.internal.application.data.impl.ApplicationActionEventPageModePeriodSummaryEmbeddedId" data-uid="lnk4" id="link_com.hack23.cia.model.common.api.ModelObject_com.hack23.cia.model.internal.application.data.impl.ApplicationActionEventPageModePeriodSummaryEmbeddedId"><polygon fill="none" points="304.5,55.0986,298.5,73.0986,310.5,73.0986,304.5,55.0986" style="stroke:#181818;stroke-width:1;"/><path d="M304.5,73.0986 C304.5,82.7554 304.5,77.1744 304.5,90.9623" fill="none" style="stroke:#181818;stroke-width:1;stroke-dasharray:7,7;"/></g><g class="footer" data-source-line="38"><text fill="#888888" font-family="sans-serif" font-size="10" lengthAdjust="spacing" textLength="2.6" x="299.7" y="383.69">&#160;</text><a href="https://github.com/talsma-ict/umldoclet" target="_top" title="https://github.com/talsma-ict/umldoclet" xlink:actuate="onRequest" xlink:href="https://github.com/talsma-ict/umldoclet" xlink:show="new" xlink:title="https://github.com/talsma-ict/umldoclet" xlink:type="simple"><text fill="#888888" font-family="sans-serif" font-size="10" lengthAdjust="spacing" textLength="76.7199" x="262.64" y="397.31">UMLDoclet 2.2.4</text></a></g><!--SRC=[lLNVJzim47xdhxZ1mq1GDoaT6XL2gWhQc8g6rl9K-k3QryIhOsUsKzHj_E-pawo_1jjKJOiKHxdpzzrtPvyD0F0QUZfV696a3fm6bmeBzxTze8f3WWeDTSX1P3H12nEKMYMsceX02vTg0tfQ_Z5j3DfSAovK0X_ed8BLXM5eoTuUbA66FzaVgLrZdoo2yKepYGuEUqThabfHVDPeHQqp659fCmetlI6fsLQO5ccHDdXkAHWgwoaBnT6KihevPVxJhpmdC4TZXLOU4zKy8LMcbQD2MSYfSJQaT2UfSa5hJ7pyDoIEuB0xw6-AYyvBSIVGDOeM73xfByKotrUveOcNBEb25mviXeugMlciLwrevkj56GxGHwNEbr9fXQK_5Hm1izmjO2fGShjjzMIfzkRIpYIr5lOlhFYAdRXzsSrpNmdgV9vT5iRhEIftvzVmLdEyGoCq7nHPHitYEfiWvyXl-8EgyT4bqnb9APkrJWaJb6GU98bG3dsMaj0LE-7KKIAoNEw3Nz8TS6GdhJ0QxOGZgSlaU0pVohA5vu0P39lmoWyT2EFAbNko3WoSyHjwqnf2_E8vJj3rLco7HrjyntRJ7mO_Pwu5t-08EGJmDhsjNPNz9MIGzXjqwNw1uL6uz1c1ErLwatLJzpyYt4nbTzAdgedAVJhrxRZMI04gFqu-8tD_QWzlpFp6fhbukHLMSyWQSzt3Vm-0Y- -4_Bzcg_HTMBUGUBbSXgdMFjHQ9uNd_I97qnTgrjFI7sS7Rv_tteVJMGg5_a9WCuN-y8gMCv-gSCsrU7Mi1pKQfSxbjjDi9duJ59DGeAOhRuQ6OAvPP99NLyBMvJ0UruVzk-Mj4mxkHjHknF4mRdTEsvseJUBpk1tvDpwEMfqe6bqNHkVO73ZDPgcMsVW7]--></g></svg>