<svg xmlns="http://www.w3.org/2000/svg" xmlns:xlink="http://www.w3.org/1999/xlink" contentStyleType="text/css" data-diagram-type="CLASS" height="331px" preserveAspectRatio="none" style="width:572px;height:331px;background:#FFFFFF;" version="1.1" viewBox="0 0 572 331" width="572px" zoomAndPan="magnify"><defs/><g><!--class com.hack23.cia.model.internal.application.data.impl.ApplicationActionEventPagePeriodSummaryEmbeddedId--><g class="entity" data-entity="com.hack23.cia.model.internal.application.data.impl.ApplicationActionEventPagePeriodSummaryEmbeddedId" data-source-line="13" data-uid="ent0002" id="entity_com.hack23.cia.model.internal.application.data.impl.ApplicationActionEventPagePeriodSummaryEmbeddedId"><a href="ApplicationActionEventPagePeriodSummaryEmbeddedId.html" target="_top" title="ApplicationActionEventPagePeriodSummaryEmbeddedId.html" xlink:actuate="onRequest" xlink:href="ApplicationActionEventPagePeriodSummaryEmbeddedId.html" xlink:show="new" xlink:title="ApplicationActionEventPagePeriodSummaryEmbeddedId.html" xlink:type="simple"><rect fill="#F1F1F1" height="211.2312" rx="2.5" ry="2.5" style="stroke:#181818;stroke-width:0.5;" width="559.23" x="6" y="91"/><ellipse cx="93.8007" cy="112.344" fill="#ADD1B2" rx="11" ry="11" style="stroke:#181818;stroke-width:1;"/><path d="M96.7695,117.9846 Q96.1913,118.2815 95.5507,118.4221 Q94.9101,118.5783 94.207,118.5783 Q91.707,118.5783 90.3788,116.9377 Q89.0663,115.2815 89.0663,112.1565 Q89.0663,109.0315 90.3788,107.3752 Q91.707,105.719 94.207,105.719 Q94.9101,105.719 95.5507,105.8752 Q96.207,106.0315 96.7695,106.3283 L96.7695,109.0471 Q96.1445,108.469 95.5507,108.2033 Q94.957,107.9221 94.332,107.9221 Q92.9882,107.9221 92.3007,109.0002 Q91.6132,110.0627 91.6132,112.1565 Q91.6132,114.2502 92.3007,115.3283 Q92.9882,116.3908 94.332,116.3908 Q94.957,116.3908 95.5507,116.1252 Q96.1445,115.844 96.7695,115.2658 L96.7695,117.9846 Z " fill="#000000"/><text fill="#000000" font-family="sans-serif" font-size="14" lengthAdjust="spacing" textLength="375.1286" x="114.3007" y="110.9659">ApplicationActionEventPagePeriodSummaryEmbeddedId</text><text fill="#000000" font-family="sans-serif" font-size="10" lengthAdjust="spacing" textLength="245.1398" x="179.2951" y="125.7579">com.hack23.cia.model.internal.application.data.impl</text><line style="stroke:#181818;stroke-width:0.5;" x1="7" x2="564.23" y1="133.6879" y2="133.6879"/><polygon fill="none" points="17,143.7219,21,147.7219,17,151.7219,13,147.7219" style="stroke:#B38D22;stroke-width:1;"/><text fill="#000000" font-family="sans-serif" font-size="14" lengthAdjust="spacing" textLength="119.2515" x="26" y="152.6538">createdDate: Date</text><polygon fill="none" points="17,162.7898,21,166.7898,17,170.7898,13,166.7898" style="stroke:#B38D22;stroke-width:1;"/><text fill="#000000" font-family="sans-serif" font-size="14" lengthAdjust="spacing" textLength="79.7577" x="26" y="171.7218">page: String</text><line style="stroke:#181818;stroke-width:0.5;" x1="7" x2="564.23" y1="179.8237" y2="179.8237"/><ellipse cx="17" cy="194.8577" fill="#84BE84" rx="3" ry="3" style="stroke:#038048;stroke-width:1;"/><text fill="#000000" font-family="sans-serif" font-size="14" lengthAdjust="spacing" textLength="151.3394" x="26" y="198.7897">getCreatedDate(): Date</text><ellipse cx="17" cy="213.9256" fill="#84BE84" rx="3" ry="3" style="stroke:#038048;stroke-width:1;"/><text fill="#000000" font-family="sans-serif" font-size="14" lengthAdjust="spacing" textLength="177.2393" x="26" y="217.8576">setCreatedDate(Date): void</text><ellipse cx="17" cy="232.9935" fill="#84BE84" rx="3" ry="3" style="stroke:#038048;stroke-width:1;"/><text fill="#000000" font-family="sans-serif" font-size="14" lengthAdjust="spacing" textLength="109.5776" x="26" y="236.9255">getPage(): String</text><ellipse cx="17" cy="252.0614" fill="#84BE84" rx="3" ry="3" style="stroke:#038048;stroke-width:1;"/><text fill="#000000" font-family="sans-serif" font-size="14" lengthAdjust="spacing" textLength="135.4775" x="26" y="255.9934">setPage(String): void</text><ellipse cx="17" cy="271.1294" fill="#84BE84" rx="3" ry="3" style="stroke:#038048;stroke-width:1;"/><text fill="#000000" font-family="sans-serif" font-size="14" lengthAdjust="spacing" textLength="533.23" x="26" y="275.0613">withCreatedDate(Date): ApplicationActionEventPagePeriodSummaryEmbeddedId</text><ellipse cx="17" cy="290.1973" fill="#84BE84" rx="3" ry="3" style="stroke:#038048;stroke-width:1;"/><text fill="#000000" font-family="sans-serif" font-size="14" lengthAdjust="spacing" textLength="491.4682" x="26" y="294.1293">withPage(String): ApplicationActionEventPagePeriodSummaryEmbeddedId</text></a></g><!--class com.hack23.cia.model.common.api.ModelObject--><g class="entity" data-entity="com.hack23.cia.model.common.api.ModelObject" data-source-line="24" data-uid="ent0003" id="entity_com.hack23.cia.model.common.api.ModelObject"><rect fill="#F1F1F1" height="42.6879" rx="2.5" ry="2.5" style="stroke:#181818;stroke-width:0.5;" width="189.3398" x="191" y="12"/><ellipse cx="206" cy="33.344" fill="#B4A7E5" rx="11" ry="11" style="stroke:#181818;stroke-width:1;"/><path d="M201.9219,29.1096 L201.9219,26.9533 L209.3125,26.9533 L209.3125,29.1096 L206.8438,29.1096 L206.8438,37.1877 L209.3125,37.1877 L209.3125,39.344 L201.9219,39.344 L201.9219,37.1877 L204.3906,37.1877 L204.3906,29.1096 L201.9219,29.1096 Z " fill="#000000"/><text fill="#000000" font-family="sans-serif" font-size="14" font-style="italic" lengthAdjust="spacing" textLength="78.1477" x="259.596" y="31.9659">ModelObject</text><text fill="#000000" font-family="sans-serif" font-size="10" font-style="italic" lengthAdjust="spacing" textLength="157.3398" x="220" y="46.7579">com.hack23.cia.model.common.api</text></g><g class="link" data-entity-1="com.hack23.cia.model.common.api.ModelObject" data-entity-2="com.hack23.cia.model.internal.application.data.impl.ApplicationActionEventPagePeriodSummaryEmbeddedId" data-uid="lnk4" id="link_com.hack23.cia.model.common.api.ModelObject_com.hack23.cia.model.internal.application.data.impl.ApplicationActionEventPagePeriodSummaryEmbeddedId"><polygon fill="none" points="285.5,55.2183,279.5,73.2183,291.5,73.2183,285.5,55.2183" style="stroke:#181818;stroke-width:1;"/><path d="M285.5,73.2183 C285.5,82.9851 285.5,77.4416 285.5,90.8868" fill="none" style="stroke:#181818;stroke-width:1;stroke-dasharray:7,7;"/></g><g class="footer" data-source-line="34"><text fill="#888888" font-family="sans-serif" font-size="10" lengthAdjust="spacing" textLength="2.6" x="280.7" y="306.69">&#160;</text><a href="https://github.com/talsma-ict/umldoclet" target="_top" title="https://github.com/talsma-ict/umldoclet" xlink:actuate="onRequest" xlink:href="https://github.com/talsma-ict/umldoclet" xlink:show="new" xlink:title="https://github.com/talsma-ict/umldoclet" xlink:type="simple"><text fill="#888888" font-family="sans-serif" font-size="10" lengthAdjust="spacing" textLength="76.7199" x="243.64" y="320.31">UMLDoclet 2.2.4</text></a></g><!--SRC=[lLHDJnin4BttLqpXK134sMm3XGWXHG6rL455JJY571nxiklYZwtj3KfR_dljtJHVfMhXq3rujJEUDy_Zjmy0u0tqJ36t8iizU0C-5mvkh_j0DOSCDLhgaODGD4C74vH6PwxUY41BdniBPbfzCMCjki9eBdG67-cCWZEbPUZ8grTGjHh-Gd-WRWrzCe_12yCaUjZhxQzHIfFMSIDDqcCOKkaKXQlUa2pGLZKfIKaR0hOK3BKBaANcQ2jQtOAoyEhNcKEOeNN2w52JB73YKPdHdWhjeA3MktYa6qcrZrnR9FG_8gq4zhg3_YQvvBGYTmXTgsd9uRFvMYxF-xgmD0kK9PsRqeDJwAccTSu5rfggC2_AS82XA_LXbDfehFAvu0Ye2Z-7gK39tNOqWEKcXAiuazGvs3bpuXjsMktpRb64IL0VpjbbSRsSeVOtuGvlq0h31wLIrCulrGGvHtx5x_IYDZbdHf6SillqBM624cKuIYAqnt12IUWAcN3gAH6ga3iGhlC5TUJPF64qUdODoRsIup5yhqOLdrrcCGhl8YmTYEigLGIW3Woy3I9UHWyozBrLpTx-LjM1syp79UoP6S4tC2BBMBmDxnQfElvRvOFm-HFmpvx49k9cnvU1FTRwgwvv6fIyfi7hA81Fao_8_D_K5O8gw88MuizAMkqXQyWB-Vzx0Ppz8EJ_QBNcTkRyNEBvSlHJOqARDJ76vyEyGDiN-hvdP721tPEdixVHrAJG67oKtMiC_tootFbOjskkzLlqkjEZKUvzuJhDPXOklfp4uJHzPQWDmNopL9BNJhhbgUFnmYFVByqw-bqZIHl9wJ0vwYHffnsSz5sQdBHEqlP1qkeaoUYojAR0vi0RTfyRgSO_0G00]--></g></svg>