<svg xmlns="http://www.w3.org/2000/svg" xmlns:xlink="http://www.w3.org/1999/xlink" contentStyleType="text/css" data-diagram-type="CLASS" height="865px" preserveAspectRatio="none" style="width:388px;height:865px;background:#FFFFFF;" version="1.1" viewBox="0 0 388 865" width="388px" zoomAndPan="magnify"><defs/><g><!--class com.hack23.cia.model.internal.application.data.impl.ViewElectionCycleAnomalyPattern--><g class="entity" data-entity="com.hack23.cia.model.internal.application.data.impl.ViewElectionCycleAnomalyPattern" data-source-line="13" data-uid="ent0002" id="entity_com.hack23.cia.model.internal.application.data.impl.ViewElectionCycleAnomalyPattern"><a href="ViewElectionCycleAnomalyPattern.html" target="_top" title="ViewElectionCycleAnomalyPattern.html" xlink:actuate="onRequest" xlink:href="ViewElectionCycleAnomalyPattern.html" xlink:show="new" xlink:title="ViewElectionCycleAnomalyPattern.html" xlink:type="simple"><rect fill="#F1F1F1" height="745.1329" rx="2.5" ry="2.5" style="stroke:#181818;stroke-width:0.5;" width="375.1027" x="6" y="91"/><ellipse cx="66.7314" cy="112.344" fill="#ADD1B2" rx="11" ry="11" style="stroke:#181818;stroke-width:1;"/><path d="M69.7002,117.9846 Q69.122,118.2815 68.4814,118.4221 Q67.8408,118.5783 67.1377,118.5783 Q64.6377,118.5783 63.3095,116.9377 Q61.997,115.2815 61.997,112.1565 Q61.997,109.0315 63.3095,107.3752 Q64.6377,105.719 67.1377,105.719 Q67.8408,105.719 68.4814,105.8752 Q69.1377,106.0315 69.7002,106.3283 L69.7002,109.0471 Q69.0752,108.469 68.4814,108.2033 Q67.8877,107.9221 67.2627,107.9221 Q65.9189,107.9221 65.2314,109.0002 Q64.5439,110.0627 64.5439,112.1565 Q64.5439,114.2502 65.2314,115.3283 Q65.9189,116.3908 67.2627,116.3908 Q67.8877,116.3908 68.4814,116.1252 Q69.0752,115.844 69.7002,115.2658 L69.7002,117.9846 Z " fill="#000000"/><text fill="#000000" font-family="sans-serif" font-size="14" lengthAdjust="spacing" textLength="223.4531" x="98.0748" y="110.9659">ViewElectionCycleAnomalyPattern</text><text fill="#000000" font-family="sans-serif" font-size="10" lengthAdjust="spacing" textLength="245.1398" x="87.2314" y="125.7579">com.hack23.cia.model.internal.application.data.impl</text><line style="stroke:#181818;stroke-width:0.5;" x1="7" x2="380.1027" y1="133.6879" y2="133.6879"/><polygon fill="none" points="17,143.7219,21,147.7219,17,151.7219,13,147.7219" style="stroke:#B38D22;stroke-width:1;"/><text fill="#000000" font-family="sans-serif" font-size="14" lengthAdjust="spacing" textLength="293.3549" x="26" y="152.6538">embeddedId: ViewElectionCycleEmbeddedId</text><polygon fill="none" points="17,162.7898,21,166.7898,17,170.7898,13,166.7898" style="stroke:#B38D22;stroke-width:1;"/><text fill="#000000" font-family="sans-serif" font-size="14" lengthAdjust="spacing" textLength="117.5715" x="26" y="171.7218">cycleYear: Integer</text><polygon fill="none" points="17,181.8577,21,185.8577,17,189.8577,13,185.8577" style="stroke:#B38D22;stroke-width:1;"/><text fill="#000000" font-family="sans-serif" font-size="14" lengthAdjust="spacing" textLength="142.4635" x="26" y="190.7897">calendarYear: Integer</text><polygon fill="none" points="17,200.9256,21,204.9256,17,208.9256,13,204.9256" style="stroke:#B38D22;stroke-width:1;"/><text fill="#000000" font-family="sans-serif" font-size="14" lengthAdjust="spacing" textLength="134.8895" x="26" y="209.8576">anomalyType: String</text><polygon fill="none" points="17,219.9935,21,223.9935,17,227.9935,13,223.9935" style="stroke:#B38D22;stroke-width:1;"/><text fill="#000000" font-family="sans-serif" font-size="14" lengthAdjust="spacing" textLength="196.7832" x="26" y="228.9255">politicianCountWithRisk: Long</text><polygon fill="none" points="17,239.0614,21,243.0614,17,247.0614,13,243.0614" style="stroke:#B38D22;stroke-width:1;"/><text fill="#000000" font-family="sans-serif" font-size="14" lengthAdjust="spacing" textLength="168.3493" x="26" y="247.9934">avgRiskScore: BigDecimal</text><polygon fill="none" points="17,258.1294,21,262.1294,17,266.1294,13,262.1294" style="stroke:#B38D22;stroke-width:1;"/><text fill="#000000" font-family="sans-serif" font-size="14" lengthAdjust="spacing" textLength="137.0595" x="26" y="267.0613">riskEscalations: Long</text><polygon fill="none" points="17,277.1973,21,281.1973,17,285.1973,13,281.1973" style="stroke:#B38D22;stroke-width:1;"/><text fill="#000000" font-family="sans-serif" font-size="14" lengthAdjust="spacing" textLength="167.4253" x="26" y="286.1293">highAnomalyCount: Long</text><polygon fill="none" points="17,296.2652,21,300.2652,17,304.2652,13,300.2652" style="stroke:#B38D22;stroke-width:1;"/><text fill="#000000" font-family="sans-serif" font-size="14" lengthAdjust="spacing" textLength="205.8412" x="26" y="305.1972">avgTotalRebellions: BigDecimal</text><polygon fill="none" points="17,315.3331,21,319.3331,17,323.3331,13,319.3331" style="stroke:#B38D22;stroke-width:1;"/><text fill="#000000" font-family="sans-serif" font-size="14" lengthAdjust="spacing" textLength="198.4492" x="26" y="324.2651">strongConsensusRebels: Long</text><polygon fill="none" points="17,334.401,21,338.401,17,342.401,13,338.401" style="stroke:#B38D22;stroke-width:1;"/><text fill="#000000" font-family="sans-serif" font-size="14" lengthAdjust="spacing" textLength="189.3073" x="26" y="343.333">avgRiskScorePrs: BigDecimal</text><polygon fill="none" points="17,353.4689,21,357.4689,17,361.4689,13,357.4689" style="stroke:#B38D22;stroke-width:1;"/><text fill="#000000" font-family="sans-serif" font-size="14" lengthAdjust="spacing" textLength="162.8614" x="26" y="362.4009">highRiskPoliticians: Long</text><line style="stroke:#181818;stroke-width:0.5;" x1="7" x2="380.1027" y1="370.5029" y2="370.5029"/><ellipse cx="17" cy="385.5369" fill="#84BE84" rx="3" ry="3" style="stroke:#038048;stroke-width:1;"/><text fill="#000000" font-family="sans-serif" font-size="14" lengthAdjust="spacing" textLength="323.2027" x="26" y="389.4688">getEmbeddedId(): ViewElectionCycleEmbeddedId</text><ellipse cx="17" cy="404.6048" fill="#84BE84" rx="3" ry="3" style="stroke:#038048;stroke-width:1;"/><text fill="#000000" font-family="sans-serif" font-size="14" lengthAdjust="spacing" textLength="349.1027" x="26" y="408.5368">setEmbeddedId(ViewElectionCycleEmbeddedId): void</text><ellipse cx="17" cy="423.6727" fill="#84BE84" rx="3" ry="3" style="stroke:#038048;stroke-width:1;"/><text fill="#000000" font-family="sans-serif" font-size="14" lengthAdjust="spacing" textLength="149.6594" x="26" y="427.6047">getCycleYear(): Integer</text><ellipse cx="17" cy="442.7406" fill="#84BE84" rx="3" ry="3" style="stroke:#038048;stroke-width:1;"/><text fill="#000000" font-family="sans-serif" font-size="14" lengthAdjust="spacing" textLength="175.5593" x="26" y="446.6726">setCycleYear(Integer): void</text><ellipse cx="17" cy="461.8085" fill="#84BE84" rx="3" ry="3" style="stroke:#038048;stroke-width:1;"/><text fill="#000000" font-family="sans-serif" font-size="14" lengthAdjust="spacing" textLength="174.5513" x="26" y="465.7405">getCalendarYear(): Integer</text><ellipse cx="17" cy="480.8764" fill="#84BE84" rx="3" ry="3" style="stroke:#038048;stroke-width:1;"/><text fill="#000000" font-family="sans-serif" font-size="14" lengthAdjust="spacing" textLength="200.4512" x="26" y="484.8084">setCalendarYear(Integer): void</text><ellipse cx="17" cy="499.9444" fill="#84BE84" rx="3" ry="3" style="stroke:#038048;stroke-width:1;"/><text fill="#000000" font-family="sans-serif" font-size="14" lengthAdjust="spacing" textLength="165.9414" x="26" y="503.8763">getAnomalyType(): String</text><ellipse cx="17" cy="519.0123" fill="#84BE84" rx="3" ry="3" style="stroke:#038048;stroke-width:1;"/><text fill="#000000" font-family="sans-serif" font-size="14" lengthAdjust="spacing" textLength="191.8413" x="26" y="522.9443">setAnomalyType(String): void</text><ellipse cx="17" cy="538.0802" fill="#84BE84" rx="3" ry="3" style="stroke:#038048;stroke-width:1;"/><text fill="#000000" font-family="sans-serif" font-size="14" lengthAdjust="spacing" textLength="226.6031" x="26" y="542.0122">getPoliticianCountWithRisk(): Long</text><ellipse cx="17" cy="557.1481" fill="#84BE84" rx="3" ry="3" style="stroke:#038048;stroke-width:1;"/><text fill="#000000" font-family="sans-serif" font-size="14" lengthAdjust="spacing" textLength="252.503" x="26" y="561.0801">setPoliticianCountWithRisk(Long): void</text><ellipse cx="17" cy="576.216" fill="#84BE84" rx="3" ry="3" style="stroke:#038048;stroke-width:1;"/><text fill="#000000" font-family="sans-serif" font-size="14" lengthAdjust="spacing" textLength="199.4012" x="26" y="580.148">getAvgRiskScore(): BigDecimal</text><ellipse cx="17" cy="595.284" fill="#84BE84" rx="3" ry="3" style="stroke:#038048;stroke-width:1;"/><text fill="#000000" font-family="sans-serif" font-size="14" lengthAdjust="spacing" textLength="225.3011" x="26" y="599.2159">setAvgRiskScore(BigDecimal): void</text><ellipse cx="17" cy="614.3519" fill="#84BE84" rx="3" ry="3" style="stroke:#038048;stroke-width:1;"/><text fill="#000000" font-family="sans-serif" font-size="14" lengthAdjust="spacing" textLength="169.9453" x="26" y="618.2838">getRiskEscalations(): Long</text><ellipse cx="17" cy="633.4198" fill="#84BE84" rx="3" ry="3" style="stroke:#038048;stroke-width:1;"/><text fill="#000000" font-family="sans-serif" font-size="14" lengthAdjust="spacing" textLength="195.8452" x="26" y="637.3518">setRiskEscalations(Long): void</text><ellipse cx="17" cy="652.4877" fill="#84BE84" rx="3" ry="3" style="stroke:#038048;stroke-width:1;"/><text fill="#000000" font-family="sans-serif" font-size="14" lengthAdjust="spacing" textLength="199.1072" x="26" y="656.4197">getHighAnomalyCount(): Long</text><ellipse cx="17" cy="671.5556" fill="#84BE84" rx="3" ry="3" style="stroke:#038048;stroke-width:1;"/><text fill="#000000" font-family="sans-serif" font-size="14" lengthAdjust="spacing" textLength="225.0071" x="26" y="675.4876">setHighAnomalyCount(Long): void</text><ellipse cx="17" cy="690.6235" fill="#84BE84" rx="3" ry="3" style="stroke:#038048;stroke-width:1;"/><text fill="#000000" font-family="sans-serif" font-size="14" lengthAdjust="spacing" textLength="236.8931" x="26" y="694.5555">getAvgTotalRebellions(): BigDecimal</text><ellipse cx="17" cy="709.6915" fill="#84BE84" rx="3" ry="3" style="stroke:#038048;stroke-width:1;"/><text fill="#000000" font-family="sans-serif" font-size="14" lengthAdjust="spacing" textLength="262.793" x="26" y="713.6234">setAvgTotalRebellions(BigDecimal): void</text><ellipse cx="17" cy="728.7594" fill="#84BE84" rx="3" ry="3" style="stroke:#038048;stroke-width:1;"/><text fill="#000000" font-family="sans-serif" font-size="14" lengthAdjust="spacing" textLength="229.3891" x="26" y="732.6913">getStrongConsensusRebels(): Long</text><ellipse cx="17" cy="747.8273" fill="#84BE84" rx="3" ry="3" style="stroke:#038048;stroke-width:1;"/><text fill="#000000" font-family="sans-serif" font-size="14" lengthAdjust="spacing" textLength="255.289" x="26" y="751.7593">setStrongConsensusRebels(Long): void</text><ellipse cx="17" cy="766.8952" fill="#84BE84" rx="3" ry="3" style="stroke:#038048;stroke-width:1;"/><text fill="#000000" font-family="sans-serif" font-size="14" lengthAdjust="spacing" textLength="220.3591" x="26" y="770.8272">getAvgRiskScorePrs(): BigDecimal</text><ellipse cx="17" cy="785.9631" fill="#84BE84" rx="3" ry="3" style="stroke:#038048;stroke-width:1;"/><text fill="#000000" font-family="sans-serif" font-size="14" lengthAdjust="spacing" textLength="246.259" x="26" y="789.8951">setAvgRiskScorePrs(BigDecimal): void</text><ellipse cx="17" cy="805.031" fill="#84BE84" rx="3" ry="3" style="stroke:#038048;stroke-width:1;"/><text fill="#000000" font-family="sans-serif" font-size="14" lengthAdjust="spacing" textLength="194.5432" x="26" y="808.963">getHighRiskPoliticians(): Long</text><ellipse cx="17" cy="824.099" fill="#84BE84" rx="3" ry="3" style="stroke:#038048;stroke-width:1;"/><text fill="#000000" font-family="sans-serif" font-size="14" lengthAdjust="spacing" textLength="220.4431" x="26" y="828.0309">setHighRiskPoliticians(Long): void</text></a></g><!--class com.hack23.cia.model.common.api.ModelObject--><g class="entity" data-entity="com.hack23.cia.model.common.api.ModelObject" data-source-line="52" data-uid="ent0003" id="entity_com.hack23.cia.model.common.api.ModelObject"><rect fill="#F1F1F1" height="42.6879" rx="2.5" ry="2.5" style="stroke:#181818;stroke-width:0.5;" width="189.3398" x="99" y="12"/><ellipse cx="114" cy="33.344" fill="#B4A7E5" rx="11" ry="11" style="stroke:#181818;stroke-width:1;"/><path d="M109.9219,29.1096 L109.9219,26.9533 L117.3125,26.9533 L117.3125,29.1096 L114.8438,29.1096 L114.8438,37.1877 L117.3125,37.1877 L117.3125,39.344 L109.9219,39.344 L109.9219,37.1877 L112.3906,37.1877 L112.3906,29.1096 L109.9219,29.1096 Z " fill="#000000"/><text fill="#000000" font-family="sans-serif" font-size="14" font-style="italic" lengthAdjust="spacing" textLength="78.1477" x="167.596" y="31.9659">ModelObject</text><text fill="#000000" font-family="sans-serif" font-size="10" font-style="italic" lengthAdjust="spacing" textLength="157.3398" x="128" y="46.7579">com.hack23.cia.model.common.api</text></g><g class="link" data-entity-1="com.hack23.cia.model.common.api.ModelObject" data-entity-2="com.hack23.cia.model.internal.application.data.impl.ViewElectionCycleAnomalyPattern" data-uid="lnk4" id="link_com.hack23.cia.model.common.api.ModelObject_com.hack23.cia.model.internal.application.data.impl.ViewElectionCycleAnomalyPattern"><polygon fill="none" points="193.5,55.1433,187.5,73.1433,199.5,73.1433,193.5,55.1433" style="stroke:#181818;stroke-width:1;"/><path d="M193.5,73.1433 C193.5,82.4943 193.5,76.6729 193.5,90.9488" fill="none" style="stroke:#181818;stroke-width:1;stroke-dasharray:7,7;"/></g><g class="footer" data-source-line="62"><text fill="#888888" font-family="sans-serif" font-size="10" lengthAdjust="spacing" textLength="2.6" x="188.7" y="840.69">&#160;</text><a href="https://github.com/talsma-ict/umldoclet" target="_top" title="https://github.com/talsma-ict/umldoclet" xlink:actuate="onRequest" xlink:href="https://github.com/talsma-ict/umldoclet" xlink:show="new" xlink:title="https://github.com/talsma-ict/umldoclet" xlink:type="simple"><text fill="#888888" font-family="sans-serif" font-size="10" lengthAdjust="spacing" textLength="76.7199" x="151.64" y="854.31">UMLDoclet 2.2.4</text></a></g><!--SRC=[jLPHRzj637xlh-3QXwL88ykkbxL64C1pWoM5Yncnkw5m_K1BZ7JpwKwxEwLmj_xtyIJNbXNP2GRCBuQF7pz-HnvD0W3y22EThur8KWTEWqk5XOyVne0gXeGK6NGKWyWm8GjBabebjW8IOE5IRK3VbRyYRGpPNAjOg0JUups2rOM9o0RFda4PQlQT_GlQ6ljoxG_VwKYIWvFHovgaNjWzF-k5lNEOeRGPmire5cpOTZwze1VqWRcbY4XPfYnKJAQKDSmnugznPNa5zsIiq8fzmWsFlsgabKEXBEHedFLNcaXKpclj1Xp_fw0RmibmEjuN5xujnRs2eL5On72h_ogsz_qXDvYmP8bhNJYm6JbKMDaigrQOSRumeYbnL7ISIgKLbVPKn0IKvMuDTu9aR9kdJ9PgFYxF8udMmlCBAxxIeDk__5tGboj9aUEBZjQSeg7I6Shr19qZepwh3JAyZ7GMf1YjUg-3I62GwPXa89H7eGmmppcZw6c261q68ilbS-3Y_GU_u15LC9y_WWXIbyd50lukB-q_BoXRKXnJV1CFu87trTQuSuYyuHEX6S0Doqt8r6meISLe3fYn4ZDRvpI0gJFyp7V6N4lX1ET2ZNIXt1_2fRV2hWOmrdKOtYV-UChDmYI_YEGTHTnSSeSmRBwoBALCdsqIfFpoDbaf0xK4c6c7yfQuMMN5q1R6EiD-8xPpMnIsXDjZQYVc09DNv56JRGQQFAS9kLqjJbu-hLIdTi_hY0iJtciHxyKRVQ-p3zSifQVU0JRMLfRQYpX8LCSSuHhkde-dQZmWprH7LEOsdadxI_ES-rctXx4UsAgnLd1Fs5BlKcWTjiEqCTxkF-TMbKtC8NNNZRVVIlO0TEIkZKuvVkCc-FYzfstzrIgu7VcK2d5BFh587dbSx_N3BZwOtYQkgVLRDPNASN37ywqscJxuGV7Rya_kuyUc41zcF3ym5uSdpWuJr9WtG_7f3d3nJn3y7pEjKd9XtLhIvJQFTrgpiJR6_EUQkzwCXLgDjEHDuCMRTkj7lzX8eOXtgMYbYET-k4L-gy9rQl4siJwh-JnrBhU3JYVXVu5YwLFHSULITIOYroao6LVRL6ElMYmsUzAlsuNDxpndOV-isvrr-uFN_K7O3te_l-c7tVvvxpJi3S9mVbKOdLDdwdIqIhNC5ly2]--></g></svg>