<svg xmlns="http://www.w3.org/2000/svg" xmlns:xlink="http://www.w3.org/1999/xlink" contentStyleType="text/css" data-diagram-type="CLASS" height="865px" preserveAspectRatio="none" style="width:839px;height:865px;background:#FFFFFF;" version="1.1" viewBox="0 0 839 865" width="839px" zoomAndPan="magnify"><defs/><g><!--class com.hack23.cia.model.internal.application.data.impl.ViewWorldbankIndicatorDataCountrySummary--><g class="entity" data-entity="com.hack23.cia.model.internal.application.data.impl.ViewWorldbankIndicatorDataCountrySummary" data-source-line="13" data-uid="ent0002" id="entity_com.hack23.cia.model.internal.application.data.impl.ViewWorldbankIndicatorDataCountrySummary"><a href="ViewWorldbankIndicatorDataCountrySummary.html" target="_top" title="ViewWorldbankIndicatorDataCountrySummary.html" xlink:actuate="onRequest" xlink:href="ViewWorldbankIndicatorDataCountrySummary.html" xlink:show="new" xlink:title="ViewWorldbankIndicatorDataCountrySummary.html" xlink:type="simple"><rect fill="#F1F1F1" height="745.1329" rx="2.5" ry="2.5" style="stroke:#181818;stroke-width:0.5;" width="826.8671" x="6" y="91"/><ellipse cx="260.4981" cy="112.344" fill="#ADD1B2" rx="11" ry="11" style="stroke:#181818;stroke-width:1;"/><path d="M263.4669,117.9846 Q262.8888,118.2815 262.2481,118.4221 Q261.6075,118.5783 260.9044,118.5783 Q258.4044,118.5783 257.0763,116.9377 Q255.7638,115.2815 255.7638,112.1565 Q255.7638,109.0315 257.0763,107.3752 Q258.4044,105.719 260.9044,105.719 Q261.6075,105.719 262.2481,105.8752 Q262.9044,106.0315 263.4669,106.3283 L263.4669,109.0471 Q262.8419,108.469 262.2481,108.2033 Q261.6544,107.9221 261.0294,107.9221 Q259.6856,107.9221 258.9981,109.0002 Q258.3106,110.0627 258.3106,112.1565 Q258.3106,114.2502 258.9981,115.3283 Q259.6856,116.3908 261.0294,116.3908 Q261.6544,116.3908 262.2481,116.1252 Q262.8419,115.844 263.4669,115.2658 L263.4669,117.9846 Z " fill="#000000"/><text fill="#000000" font-family="sans-serif" font-size="14" lengthAdjust="spacing" textLength="309.3708" x="280.9981" y="110.9659">ViewWorldbankIndicatorDataCountrySummary</text><text fill="#000000" font-family="sans-serif" font-size="10" lengthAdjust="spacing" textLength="245.1398" x="313.1136" y="125.7579">com.hack23.cia.model.internal.application.data.impl</text><line style="stroke:#181818;stroke-width:0.5;" x1="7" x2="831.8671" y1="133.6879" y2="133.6879"/><polygon fill="none" points="17,143.7219,21,147.7219,17,151.7219,13,147.7219" style="stroke:#B38D22;stroke-width:1;"/><text fill="#000000" font-family="sans-serif" font-size="14" lengthAdjust="spacing" textLength="454.8864" x="26" y="152.6538">embeddedId: WorldbankIndicatorDataCountrySummaryEmbeddedId</text><polygon fill="none" points="17,162.7898,21,166.7898,17,170.7898,13,166.7898" style="stroke:#B38D22;stroke-width:1;"/><text fill="#000000" font-family="sans-serif" font-size="14" lengthAdjust="spacing" textLength="144.6335" x="26" y="171.7218">indicatorName: String</text><polygon fill="none" points="17,181.8577,21,185.8577,17,189.8577,13,185.8577" style="stroke:#B38D22;stroke-width:1;"/><text fill="#000000" font-family="sans-serif" font-size="14" lengthAdjust="spacing" textLength="123.0735" x="26" y="190.7897">sourceNote: String</text><polygon fill="none" points="17,200.9256,21,204.9256,17,208.9256,13,204.9256" style="stroke:#B38D22;stroke-width:1;"/><text fill="#000000" font-family="sans-serif" font-size="14" lengthAdjust="spacing" textLength="127.4275" x="26" y="209.8576">sourceValue: String</text><polygon fill="none" points="17,219.9935,21,223.9935,17,227.9935,13,223.9935" style="stroke:#B38D22;stroke-width:1;"/><text fill="#000000" font-family="sans-serif" font-size="14" lengthAdjust="spacing" textLength="176.6793" x="26" y="228.9255">sourceOrganization: String</text><polygon fill="none" points="17,239.0614,21,243.0614,17,247.0614,13,243.0614" style="stroke:#B38D22;stroke-width:1;"/><text fill="#000000" font-family="sans-serif" font-size="14" lengthAdjust="spacing" textLength="115.9336" x="26" y="247.9934">startYear: Integer</text><polygon fill="none" points="17,258.1294,21,262.1294,17,266.1294,13,262.1294" style="stroke:#B38D22;stroke-width:1;"/><text fill="#000000" font-family="sans-serif" font-size="14" lengthAdjust="spacing" textLength="110.6416" x="26" y="267.0613">endYear: Integer</text><polygon fill="none" points="17,277.1973,21,281.1973,17,285.1973,13,281.1973" style="stroke:#B38D22;stroke-width:1;"/><text fill="#000000" font-family="sans-serif" font-size="14" lengthAdjust="spacing" textLength="100.3656" x="26" y="286.1293">dataPoint: long</text><polygon fill="none" points="17,296.2652,21,300.2652,17,304.2652,13,300.2652" style="stroke:#B38D22;stroke-width:1;"/><text fill="#000000" font-family="sans-serif" font-size="14" lengthAdjust="spacing" textLength="85.9597" x="26" y="305.1972">topics: String</text><line style="stroke:#181818;stroke-width:0.5;" x1="7" x2="831.8671" y1="313.2992" y2="313.2992"/><ellipse cx="17" cy="328.3331" fill="#84BE84" rx="3" ry="3" style="stroke:#038048;stroke-width:1;"/><text fill="#000000" font-family="sans-serif" font-size="14" lengthAdjust="spacing" textLength="484.7343" x="26" y="332.2651">getEmbeddedId(): WorldbankIndicatorDataCountrySummaryEmbeddedId</text><ellipse cx="17" cy="347.401" fill="#84BE84" rx="3" ry="3" style="stroke:#038048;stroke-width:1;"/><text fill="#000000" font-family="sans-serif" font-size="14" lengthAdjust="spacing" textLength="510.6342" x="26" y="351.333">setEmbeddedId(WorldbankIndicatorDataCountrySummaryEmbeddedId): void</text><ellipse cx="17" cy="366.4689" fill="#84BE84" rx="3" ry="3" style="stroke:#038048;stroke-width:1;"/><text fill="#000000" font-family="sans-serif" font-size="14" lengthAdjust="spacing" textLength="175.7273" x="26" y="370.4009">getIndicatorName(): String</text><ellipse cx="17" cy="385.5369" fill="#84BE84" rx="3" ry="3" style="stroke:#038048;stroke-width:1;"/><text fill="#000000" font-family="sans-serif" font-size="14" lengthAdjust="spacing" textLength="201.6272" x="26" y="389.4688">setIndicatorName(String): void</text><ellipse cx="17" cy="404.6048" fill="#84BE84" rx="3" ry="3" style="stroke:#038048;stroke-width:1;"/><text fill="#000000" font-family="sans-serif" font-size="14" lengthAdjust="spacing" textLength="154.0134" x="26" y="408.5368">getSourceNote(): String</text><ellipse cx="17" cy="423.6727" fill="#84BE84" rx="3" ry="3" style="stroke:#038048;stroke-width:1;"/><text fill="#000000" font-family="sans-serif" font-size="14" lengthAdjust="spacing" textLength="179.9133" x="26" y="427.6047">setSourceNote(String): void</text><ellipse cx="17" cy="442.7406" fill="#84BE84" rx="3" ry="3" style="stroke:#038048;stroke-width:1;"/><text fill="#000000" font-family="sans-serif" font-size="14" lengthAdjust="spacing" textLength="158.3674" x="26" y="446.6726">getSourceValue(): String</text><ellipse cx="17" cy="461.8085" fill="#84BE84" rx="3" ry="3" style="stroke:#038048;stroke-width:1;"/><text fill="#000000" font-family="sans-serif" font-size="14" lengthAdjust="spacing" textLength="184.2673" x="26" y="465.7405">setSourceValue(String): void</text><ellipse cx="17" cy="480.8764" fill="#84BE84" rx="3" ry="3" style="stroke:#038048;stroke-width:1;"/><text fill="#000000" font-family="sans-serif" font-size="14" lengthAdjust="spacing" textLength="207.6192" x="26" y="484.8084">getSourceOrganization(): String</text><ellipse cx="17" cy="499.9444" fill="#84BE84" rx="3" ry="3" style="stroke:#038048;stroke-width:1;"/><text fill="#000000" font-family="sans-serif" font-size="14" lengthAdjust="spacing" textLength="233.5191" x="26" y="503.8763">setSourceOrganization(String): void</text><ellipse cx="17" cy="519.0123" fill="#84BE84" rx="3" ry="3" style="stroke:#038048;stroke-width:1;"/><text fill="#000000" font-family="sans-serif" font-size="14" lengthAdjust="spacing" textLength="146.8735" x="26" y="522.9443">getStartYear(): Integer</text><ellipse cx="17" cy="538.0802" fill="#84BE84" rx="3" ry="3" style="stroke:#038048;stroke-width:1;"/><text fill="#000000" font-family="sans-serif" font-size="14" lengthAdjust="spacing" textLength="172.7734" x="26" y="542.0122">setStartYear(Integer): void</text><ellipse cx="17" cy="557.1481" fill="#84BE84" rx="3" ry="3" style="stroke:#038048;stroke-width:1;"/><text fill="#000000" font-family="sans-serif" font-size="14" lengthAdjust="spacing" textLength="140.4895" x="26" y="561.0801">getEndYear(): Integer</text><ellipse cx="17" cy="576.216" fill="#84BE84" rx="3" ry="3" style="stroke:#038048;stroke-width:1;"/><text fill="#000000" font-family="sans-serif" font-size="14" lengthAdjust="spacing" textLength="166.3894" x="26" y="580.148">setEndYear(Integer): void</text><ellipse cx="17" cy="595.284" fill="#84BE84" rx="3" ry="3" style="stroke:#038048;stroke-width:1;"/><text fill="#000000" font-family="sans-serif" font-size="14" lengthAdjust="spacing" textLength="131.9355" x="26" y="599.2159">getDataPoint(): long</text><ellipse cx="17" cy="614.3519" fill="#84BE84" rx="3" ry="3" style="stroke:#038048;stroke-width:1;"/><text fill="#000000" font-family="sans-serif" font-size="14" lengthAdjust="spacing" textLength="157.8354" x="26" y="618.2838">setDataPoint(long): void</text><ellipse cx="17" cy="633.4198" fill="#84BE84" rx="3" ry="3" style="stroke:#038048;stroke-width:1;"/><text fill="#000000" font-family="sans-serif" font-size="14" lengthAdjust="spacing" textLength="118.6496" x="26" y="637.3518">getTopics(): String</text><ellipse cx="17" cy="652.4877" fill="#84BE84" rx="3" ry="3" style="stroke:#038048;stroke-width:1;"/><text fill="#000000" font-family="sans-serif" font-size="14" lengthAdjust="spacing" textLength="144.5495" x="26" y="656.4197">setTopics(String): void</text><ellipse cx="17" cy="671.5556" fill="#84BE84" rx="3" ry="3" style="stroke:#038048;stroke-width:1;"/><text fill="#000000" font-family="sans-serif" font-size="14" lengthAdjust="spacing" textLength="800.8671" x="26" y="675.4876">withEmbeddedId(WorldbankIndicatorDataCountrySummaryEmbeddedId): ViewWorldbankIndicatorDataCountrySummary</text><ellipse cx="17" cy="690.6235" fill="#84BE84" rx="3" ry="3" style="stroke:#038048;stroke-width:1;"/><text fill="#000000" font-family="sans-serif" font-size="14" lengthAdjust="spacing" textLength="491.8602" x="26" y="694.5555">withIndicatorName(String): ViewWorldbankIndicatorDataCountrySummary</text><ellipse cx="17" cy="709.6915" fill="#84BE84" rx="3" ry="3" style="stroke:#038048;stroke-width:1;"/><text fill="#000000" font-family="sans-serif" font-size="14" lengthAdjust="spacing" textLength="470.1463" x="26" y="713.6234">withSourceNote(String): ViewWorldbankIndicatorDataCountrySummary</text><ellipse cx="17" cy="728.7594" fill="#84BE84" rx="3" ry="3" style="stroke:#038048;stroke-width:1;"/><text fill="#000000" font-family="sans-serif" font-size="14" lengthAdjust="spacing" textLength="474.5003" x="26" y="732.6913">withSourceValue(String): ViewWorldbankIndicatorDataCountrySummary</text><ellipse cx="17" cy="747.8273" fill="#84BE84" rx="3" ry="3" style="stroke:#038048;stroke-width:1;"/><text fill="#000000" font-family="sans-serif" font-size="14" lengthAdjust="spacing" textLength="523.7521" x="26" y="751.7593">withSourceOrganization(String): ViewWorldbankIndicatorDataCountrySummary</text><ellipse cx="17" cy="766.8952" fill="#84BE84" rx="3" ry="3" style="stroke:#038048;stroke-width:1;"/><text fill="#000000" font-family="sans-serif" font-size="14" lengthAdjust="spacing" textLength="463.0063" x="26" y="770.8272">withStartYear(Integer): ViewWorldbankIndicatorDataCountrySummary</text><ellipse cx="17" cy="785.9631" fill="#84BE84" rx="3" ry="3" style="stroke:#038048;stroke-width:1;"/><text fill="#000000" font-family="sans-serif" font-size="14" lengthAdjust="spacing" textLength="456.6224" x="26" y="789.8951">withEndYear(Integer): ViewWorldbankIndicatorDataCountrySummary</text><ellipse cx="17" cy="805.031" fill="#84BE84" rx="3" ry="3" style="stroke:#038048;stroke-width:1;"/><text fill="#000000" font-family="sans-serif" font-size="14" lengthAdjust="spacing" textLength="448.0684" x="26" y="808.963">withDataPoint(long): ViewWorldbankIndicatorDataCountrySummary</text><ellipse cx="17" cy="824.099" fill="#84BE84" rx="3" ry="3" style="stroke:#038048;stroke-width:1;"/><text fill="#000000" font-family="sans-serif" font-size="14" lengthAdjust="spacing" textLength="434.7824" x="26" y="828.0309">withTopics(String): ViewWorldbankIndicatorDataCountrySummary</text></a></g><!--class com.hack23.cia.model.common.api.ModelObject--><g class="entity" data-entity="com.hack23.cia.model.common.api.ModelObject" data-source-line="52" data-uid="ent0003" id="entity_com.hack23.cia.model.common.api.ModelObject"><rect fill="#F1F1F1" height="42.6879" rx="2.5" ry="2.5" style="stroke:#181818;stroke-width:0.5;" width="189.3398" x="325" y="12"/><ellipse cx="340" cy="33.344" fill="#B4A7E5" rx="11" ry="11" style="stroke:#181818;stroke-width:1;"/><path d="M335.9219,29.1096 L335.9219,26.9533 L343.3125,26.9533 L343.3125,29.1096 L340.8438,29.1096 L340.8438,37.1877 L343.3125,37.1877 L343.3125,39.344 L335.9219,39.344 L335.9219,37.1877 L338.3906,37.1877 L338.3906,29.1096 L335.9219,29.1096 Z " fill="#000000"/><text fill="#000000" font-family="sans-serif" font-size="14" font-style="italic" lengthAdjust="spacing" textLength="78.1477" x="393.596" y="31.9659">ModelObject</text><text fill="#000000" font-family="sans-serif" font-size="10" font-style="italic" lengthAdjust="spacing" textLength="157.3398" x="354" y="46.7579">com.hack23.cia.model.common.api</text></g><g class="link" data-entity-1="com.hack23.cia.model.common.api.ModelObject" data-entity-2="com.hack23.cia.model.internal.application.data.impl.ViewWorldbankIndicatorDataCountrySummary" data-uid="lnk4" id="link_com.hack23.cia.model.common.api.ModelObject_com.hack23.cia.model.internal.application.data.impl.ViewWorldbankIndicatorDataCountrySummary"><polygon fill="none" points="419.5,55.1433,413.5,73.1433,425.5,73.1433,419.5,55.1433" style="stroke:#181818;stroke-width:1;"/><path d="M419.5,73.1433 C419.5,82.4943 419.5,76.6729 419.5,90.9488" fill="none" style="stroke:#181818;stroke-width:1;stroke-dasharray:7,7;"/></g><g class="footer" data-source-line="62"><text fill="#888888" font-family="sans-serif" font-size="10" lengthAdjust="spacing" textLength="2.6" x="414.7" y="840.69">&#160;</text><a href="https://github.com/talsma-ict/umldoclet" target="_top" title="https://github.com/talsma-ict/umldoclet" xlink:actuate="onRequest" xlink:href="https://github.com/talsma-ict/umldoclet" xlink:show="new" xlink:title="https://github.com/talsma-ict/umldoclet" xlink:type="simple"><text fill="#888888" font-family="sans-serif" font-size="10" lengthAdjust="spacing" textLength="76.7199" x="377.64" y="854.31">UMLDoclet 2.2.4</text></a></g><!--SRC=[jPRRRjiu48Rl-nIpxSMcI4FBRWwD40G8d63NY_I0scrHkBwWoOd4DKLgIIg1kzjtNrBoGNQin7LGtmJX3ByPplps3030xz3L-TI897NWDBXKMFZqzXgeuf2WGaCTSX0PJT326ALMYQqS4MZXKcr0tvJ_CMqCsbmhBbG2Vz5R2bONXg4bpvv16MemfzzHMwEFf-7mKZE93lQwBsifTQBsyK4dwXp3W4gRKUXr1sH6Mzxfa0uv1C-MWg6o7baeZgPCwoAdpF-vhYolu1QD5LhvEz6C4vxAj79KA0ivDSw69tsGLBcGQvlu-4Ua7S7UHVzwDRdej4pk5LmOHGiE7_K_nUAzl-M69ZvbIQUwS60pT5JHocPzrefclbwKOHzzLEfyAPLMMDfJmH4mozqKRWHARjTFFIpL_hWyPv9Q2y_FhFYESVlm_BF0ko_QI3wcQjBp3M61VaaTxUf2EJFj5rb6pVIRcbs9pfdEI4hPfFEQC459fZbA8fH3_p19Q9xB0F658znZYCXo-Hny5tUuHxPD3uR3RLr9wZ8v6i6_PJt2vmLcO-GSUO_7i0tYQk6_P8Yv-plVgnZwpdXjBysLljzfrsZxJ6NHQ7nl4gh4zx8y6toSb-9Nf2Q6dgzdWgRsDiKRBA7A7xHlG0pXkxeqE9qBPk-5sK_GBL- -ztBdMktR5T3FKNpOMotuIbQzUkr3OkkPstMVoc4JgxzeL0Eevl0OfMpfWvZAup5ElViFubOS7w3EzH9WwxeeQGk7cNKJvQfILXDZRdw0S3bNO62iQ300bjPWsdH_K0greI8pOqCLxeHBdwB1RNzjLYCsY70ts2OXFeMqfiMde3RhS4VY1YtkHhgloDquzuIv6sPTe3z5-L6Dyt9ytlZ5e3RItuR1-dxyDpBtsDJsXvcVjpGNpHDwwKDgvDasiVq5EFkFa5-w0rGfdLatbNY-AFMDzbyGKvlsuVFdD4TpBTIagwNVfLwysMpz55P3AHJwRPHD5FhDALfu_gZ2jMhnPh6-gU4mTIwtSQkL-4ONur2JbYlNqWF1NAl89A_sqRNDT3IQRPf_B5RUi3KUH9s3w7GG7SLH9pxq- -YRqvFZrqSd9_jHEuwYuLLXT8wjljDiacgPZVu7]--></g></svg>