<svg xmlns="http://www.w3.org/2000/svg" xmlns:xlink="http://www.w3.org/1999/xlink" contentStyleType="text/css" data-diagram-type="CLASS" height="484px" preserveAspectRatio="none" style="width:940px;height:484px;background:#FFFFFF;" version="1.1" viewBox="0 0 940 484" width="940px" zoomAndPan="magnify"><defs/><g><!--class com.hack23.cia.model.internal.application.data.impl.ViewApplicationActionEventPageModeHourlySummary--><g class="entity" data-entity="com.hack23.cia.model.internal.application.data.impl.ViewApplicationActionEventPageModeHourlySummary" data-source-line="13" data-uid="ent0002" id="entity_com.hack23.cia.model.internal.application.data.impl.ViewApplicationActionEventPageModeHourlySummary"><a href="ViewApplicationActionEventPageModeHourlySummary.html" target="_top" title="ViewApplicationActionEventPageModeHourlySummary.html" xlink:actuate="onRequest" xlink:href="ViewApplicationActionEventPageModeHourlySummary.html" xlink:show="new" xlink:title="ViewApplicationActionEventPageModeHourlySummary.html" xlink:type="simple"><rect fill="#F1F1F1" height="363.7746" rx="2.5" ry="2.5" style="stroke:#181818;stroke-width:0.5;" width="927.821" x="6" y="91"/><ellipse cx="285.4391" cy="112.344" fill="#ADD1B2" rx="11" ry="11" style="stroke:#181818;stroke-width:1;"/><path d="M288.4079,117.9846 Q287.8298,118.2815 287.1891,118.4221 Q286.5485,118.5783 285.8454,118.5783 Q283.3454,118.5783 282.0173,116.9377 Q280.7048,115.2815 280.7048,112.1565 Q280.7048,109.0315 282.0173,107.3752 Q283.3454,105.719 285.8454,105.719 Q286.5485,105.719 287.1891,105.8752 Q287.8454,106.0315 288.4079,106.3283 L288.4079,109.0471 Q287.7829,108.469 287.1891,108.2033 Q286.5954,107.9221 285.9704,107.9221 Q284.6266,107.9221 283.9391,109.0002 Q283.2516,110.0627 283.2516,112.1565 Q283.2516,114.2502 283.9391,115.3283 Q284.6266,116.3908 285.9704,116.3908 Q286.5954,116.3908 287.1891,116.1252 Q287.7829,115.844 288.4079,115.2658 L288.4079,117.9846 Z " fill="#000000"/><text fill="#000000" font-family="sans-serif" font-size="14" lengthAdjust="spacing" textLength="360.4427" x="305.9391" y="110.9659">ViewApplicationActionEventPageModeHourlySummary</text><text fill="#000000" font-family="sans-serif" font-size="10" lengthAdjust="spacing" textLength="245.1398" x="363.5906" y="125.7579">com.hack23.cia.model.internal.application.data.impl</text><line style="stroke:#181818;stroke-width:0.5;" x1="7" x2="932.821" y1="133.6879" y2="133.6879"/><polygon fill="none" points="17,143.7219,21,147.7219,17,151.7219,13,147.7219" style="stroke:#B38D22;stroke-width:1;"/><text fill="#000000" font-family="sans-serif" font-size="14" lengthAdjust="spacing" textLength="504.7682" x="26" y="152.6538">embeddedId: ApplicationActionEventPageModePeriodSummaryEmbeddedId</text><polygon fill="none" points="17,162.7898,21,166.7898,17,170.7898,13,166.7898" style="stroke:#B38D22;stroke-width:1;"/><text fill="#000000" font-family="sans-serif" font-size="14" lengthAdjust="spacing" textLength="60.7598" x="26" y="171.7218">hits: long</text><polygon fill="none" points="17,181.8577,21,185.8577,17,189.8577,13,185.8577" style="stroke:#B38D22;stroke-width:1;"/><text fill="#000000" font-family="sans-serif" font-size="14" lengthAdjust="spacing" textLength="66.4997" x="26" y="190.7897">rank: long</text><polygon fill="none" points="17,200.9256,21,204.9256,17,208.9256,13,204.9256" style="stroke:#B38D22;stroke-width:1;"/><text fill="#000000" font-family="sans-serif" font-size="14" lengthAdjust="spacing" textLength="186.3113" x="26" y="209.8576">rankPercentage: BigDecimal</text><line style="stroke:#181818;stroke-width:0.5;" x1="7" x2="932.821" y1="217.9596" y2="217.9596"/><ellipse cx="17" cy="232.9935" fill="#84BE84" rx="3" ry="3" style="stroke:#038048;stroke-width:1;"/><text fill="#000000" font-family="sans-serif" font-size="14" lengthAdjust="spacing" textLength="534.6161" x="26" y="236.9255">getEmbeddedId(): ApplicationActionEventPageModePeriodSummaryEmbeddedId</text><ellipse cx="17" cy="252.0614" fill="#84BE84" rx="3" ry="3" style="stroke:#038048;stroke-width:1;"/><text fill="#000000" font-family="sans-serif" font-size="14" lengthAdjust="spacing" textLength="560.5159" x="26" y="255.9934">setEmbeddedId(ApplicationActionEventPageModePeriodSummaryEmbeddedId): void</text><ellipse cx="17" cy="271.1294" fill="#84BE84" rx="3" ry="3" style="stroke:#038048;stroke-width:1;"/><text fill="#000000" font-family="sans-serif" font-size="14" lengthAdjust="spacing" textLength="92.4417" x="26" y="275.0613">getHits(): long</text><ellipse cx="17" cy="290.1973" fill="#84BE84" rx="3" ry="3" style="stroke:#038048;stroke-width:1;"/><text fill="#000000" font-family="sans-serif" font-size="14" lengthAdjust="spacing" textLength="118.3416" x="26" y="294.1293">setHits(long): void</text><ellipse cx="17" cy="309.2652" fill="#84BE84" rx="3" ry="3" style="stroke:#038048;stroke-width:1;"/><text fill="#000000" font-family="sans-serif" font-size="14" lengthAdjust="spacing" textLength="99.3856" x="26" y="313.1972">getRank(): long</text><ellipse cx="17" cy="328.3331" fill="#84BE84" rx="3" ry="3" style="stroke:#038048;stroke-width:1;"/><text fill="#000000" font-family="sans-serif" font-size="14" lengthAdjust="spacing" textLength="125.2855" x="26" y="332.2651">setRank(long): void</text><ellipse cx="17" cy="347.401" fill="#84BE84" rx="3" ry="3" style="stroke:#038048;stroke-width:1;"/><text fill="#000000" font-family="sans-serif" font-size="14" lengthAdjust="spacing" textLength="219.1971" x="26" y="351.333">getRankPercentage(): BigDecimal</text><ellipse cx="17" cy="366.4689" fill="#84BE84" rx="3" ry="3" style="stroke:#038048;stroke-width:1;"/><text fill="#000000" font-family="sans-serif" font-size="14" lengthAdjust="spacing" textLength="245.097" x="26" y="370.4009">setRankPercentage(BigDecimal): void</text><ellipse cx="17" cy="385.5369" fill="#84BE84" rx="3" ry="3" style="stroke:#038048;stroke-width:1;"/><text fill="#000000" font-family="sans-serif" font-size="14" lengthAdjust="spacing" textLength="901.821" x="26" y="389.4688">withEmbeddedId(ApplicationActionEventPageModePeriodSummaryEmbeddedId): ViewApplicationActionEventPageModeHourlySummary</text><ellipse cx="17" cy="404.6048" fill="#84BE84" rx="3" ry="3" style="stroke:#038048;stroke-width:1;"/><text fill="#000000" font-family="sans-serif" font-size="14" lengthAdjust="spacing" textLength="459.6463" x="26" y="408.5368">withHits(long): ViewApplicationActionEventPageModeHourlySummary</text><ellipse cx="17" cy="423.6727" fill="#84BE84" rx="3" ry="3" style="stroke:#038048;stroke-width:1;"/><text fill="#000000" font-family="sans-serif" font-size="14" lengthAdjust="spacing" textLength="466.5903" x="26" y="427.6047">withRank(long): ViewApplicationActionEventPageModeHourlySummary</text><ellipse cx="17" cy="442.7406" fill="#84BE84" rx="3" ry="3" style="stroke:#038048;stroke-width:1;"/><text fill="#000000" font-family="sans-serif" font-size="14" lengthAdjust="spacing" textLength="586.4019" x="26" y="446.6726">withRankPercentage(BigDecimal): ViewApplicationActionEventPageModeHourlySummary</text></a></g><!--class com.hack23.cia.model.common.api.ModelObject--><g class="entity" data-entity="com.hack23.cia.model.common.api.ModelObject" data-source-line="32" data-uid="ent0003" id="entity_com.hack23.cia.model.common.api.ModelObject"><rect fill="#F1F1F1" height="42.6879" rx="2.5" ry="2.5" style="stroke:#181818;stroke-width:0.5;" width="189.3398" x="375.5" y="12"/><ellipse cx="390.5" cy="33.344" fill="#B4A7E5" rx="11" ry="11" style="stroke:#181818;stroke-width:1;"/><path d="M386.4219,29.1096 L386.4219,26.9533 L393.8125,26.9533 L393.8125,29.1096 L391.3438,29.1096 L391.3438,37.1877 L393.8125,37.1877 L393.8125,39.344 L386.4219,39.344 L386.4219,37.1877 L388.8906,37.1877 L388.8906,29.1096 L386.4219,29.1096 Z " fill="#000000"/><text fill="#000000" font-family="sans-serif" font-size="14" font-style="italic" lengthAdjust="spacing" textLength="78.1477" x="444.096" y="31.9659">ModelObject</text><text fill="#000000" font-family="sans-serif" font-size="10" font-style="italic" lengthAdjust="spacing" textLength="157.3398" x="404.5" y="46.7579">com.hack23.cia.model.common.api</text></g><g class="link" data-entity-1="com.hack23.cia.model.common.api.ModelObject" data-entity-2="com.hack23.cia.model.internal.application.data.impl.ViewApplicationActionEventPageModeHourlySummary" data-uid="lnk4" id="link_com.hack23.cia.model.common.api.ModelObject_com.hack23.cia.model.internal.application.data.impl.ViewApplicationActionEventPageModeHourlySummary"><polygon fill="none" points="470,55.1611,464,73.1611,476,73.1611,470,55.1611" style="stroke:#181818;stroke-width:1;"/><path d="M470,73.1611 C470,82.641 470,76.8469 470,90.6291" fill="none" style="stroke:#181818;stroke-width:1;stroke-dasharray:7,7;"/></g><g class="footer" data-source-line="42"><text fill="#888888" font-family="sans-serif" font-size="10" lengthAdjust="spacing" textLength="2.6" x="465.2" y="459.69">&#160;</text><a href="https://github.com/talsma-ict/umldoclet" target="_top" title="https://github.com/talsma-ict/umldoclet" xlink:actuate="onRequest" xlink:href="https://github.com/talsma-ict/umldoclet" xlink:show="new" xlink:title="https://github.com/talsma-ict/umldoclet" xlink:type="simple"><text fill="#888888" font-family="sans-serif" font-size="10" lengthAdjust="spacing" textLength="76.7199" x="428.14" y="473.31">UMLDoclet 2.2.4</text></a></g><!--SRC=[lLLDJzj04BtpAwPmA0YoSJvAIuIGKeeALL0H2Rs473RhYRtDUjVrheFSbl_UiPF63WHQeAeFYJmpxysRMUyC0C1hE3PnbiWWTE0Ck51Qk3hl0TS-1AWnuGvza14FqC8ObT61dGSYyDI59W4pATw4IHAqiT6-r05yuZCErgI9GCisDg18DVZDViDjXNsSvSOFHYXqi7syKv7Kz1hxjQRNt8S1LpRYS7OyO0ks4jDaJTO6ubPIeBP4cMeVaq9MD-Q2_dfppnxCCB7IQC9u2vwyL66qur9RY7dYR5xIXUBQvLeRZFA_OGqFjhlztgeuxw0GjmVTHFFKXqlpBLtM-ofEU42I5SzCwi16wBZcSvybrPf7r2yki8-KbJjgfJOQ2tyeVGICOfV1HABoxLqhaOM6p8LTA6ujR1vQ-HqxZVRH5uattJYcRd17jNP5_dioG-qkw1pFZO-dT38gwwTHn9FiMY-Gtf4m4Gkvc3PRJ4ZE8WfLJ6g7L9zYlEHaFdUSoIXMcq27-GmSUw9A60wVY62XYzHe13-A9kNF5aPZz7tqp_mEFCvqWOaq_eBfP0ahgKBfR0Vo2r7Q4gwdwsn4Hf-V8-eEl9V11nHqezGoPZT0LwROtdcfjbsxmlSiCX8nCz9VqNXA9UVgLWhCanMEtBeETKaDM8ig78-XohRb-7MDi_S2owXxh3VIXV-WBK_y2bVpLplr8g9gyrvCz53_daDyEvz9nUMVq7IhpAKSe3wFlw9mVvevP8neMl1OFZnVoXXMOLwCnBy7mE5Fnlx719ihExGkKtYqF8I9CPIaCgJovpIBCUb9FJqsYlR2rhlrtgjypIcfaJQhc6gaBU0j8s_dwUgLV8jSrteu39sBRQTU3-WJICTvQ-gkMB4rALmzZPG_twrtjknejDYQ7vVhEz-0DQzTQpG6ZNQdrUvuRTgMxOE3bjTwk-irEvutF4aJ4sEzxuoOXaP5ery0]--></g></svg>