<svg xmlns="http://www.w3.org/2000/svg" xmlns:xlink="http://www.w3.org/1999/xlink" contentStyleType="text/css" data-diagram-type="CLASS" height="1037px" preserveAspectRatio="none" style="width:496px;height:1037px;background:#FFFFFF;" version="1.1" viewBox="0 0 496 1037" width="496px" zoomAndPan="magnify"><defs/><g><!--class com.hack23.cia.model.internal.application.data.impl.ViewElectionCycleTemporalTrends--><g class="entity" data-entity="com.hack23.cia.model.internal.application.data.impl.ViewElectionCycleTemporalTrends" data-source-line="13" data-uid="ent0002" id="entity_com.hack23.cia.model.internal.application.data.impl.ViewElectionCycleTemporalTrends"><a href="ViewElectionCycleTemporalTrends.html" target="_top" title="ViewElectionCycleTemporalTrends.html" xlink:actuate="onRequest" xlink:href="ViewElectionCycleTemporalTrends.html" xlink:show="new" xlink:title="ViewElectionCycleTemporalTrends.html" xlink:type="simple"><rect fill="#F1F1F1" height="916.7442" rx="2.5" ry="2.5" style="stroke:#181818;stroke-width:0.5;" width="483.6302" x="6" y="91"/><ellipse cx="120.9952" cy="112.344" fill="#ADD1B2" rx="11" ry="11" style="stroke:#181818;stroke-width:1;"/><path d="M123.964,117.9846 Q123.3858,118.2815 122.7452,118.4221 Q122.1046,118.5783 121.4015,118.5783 Q118.9015,118.5783 117.5733,116.9377 Q116.2608,115.2815 116.2608,112.1565 Q116.2608,109.0315 117.5733,107.3752 Q118.9015,105.719 121.4015,105.719 Q122.1046,105.719 122.7452,105.8752 Q123.4015,106.0315 123.964,106.3283 L123.964,109.0471 Q123.339,108.469 122.7452,108.2033 Q122.1515,107.9221 121.5265,107.9221 Q120.1827,107.9221 119.4952,109.0002 Q118.8077,110.0627 118.8077,112.1565 Q118.8077,114.2502 119.4952,115.3283 Q120.1827,116.3908 121.5265,116.3908 Q122.1515,116.3908 122.7452,116.1252 Q123.339,115.844 123.964,115.2658 L123.964,117.9846 Z " fill="#000000"/><text fill="#000000" font-family="sans-serif" font-size="14" lengthAdjust="spacing" textLength="225.4551" x="151.3376" y="110.9659">ViewElectionCycleTemporalTrends</text><text fill="#000000" font-family="sans-serif" font-size="10" lengthAdjust="spacing" textLength="245.1398" x="141.4952" y="125.7579">com.hack23.cia.model.internal.application.data.impl</text><line style="stroke:#181818;stroke-width:0.5;" x1="7" x2="488.6302" y1="133.6879" y2="133.6879"/><polygon fill="none" points="17,143.7219,21,147.7219,17,151.7219,13,147.7219" style="stroke:#B38D22;stroke-width:1;"/><text fill="#000000" font-family="sans-serif" font-size="14" lengthAdjust="spacing" textLength="401.8824" x="26" y="152.6538">embeddedId: ViewElectionCycleTemporalTrendsEmbeddedId</text><polygon fill="none" points="17,162.7898,21,166.7898,17,170.7898,13,166.7898" style="stroke:#B38D22;stroke-width:1;"/><text fill="#000000" font-family="sans-serif" font-size="14" lengthAdjust="spacing" textLength="142.4635" x="26" y="171.7218">calendarYear: Integer</text><polygon fill="none" points="17,181.8577,21,185.8577,17,189.8577,13,185.8577" style="stroke:#B38D22;stroke-width:1;"/><text fill="#000000" font-family="sans-serif" font-size="14" lengthAdjust="spacing" textLength="207.7172" x="26" y="190.7897">isPreElectionSemester: Boolean</text><polygon fill="none" points="17,200.9256,21,204.9256,17,208.9256,13,204.9256" style="stroke:#B38D22;stroke-width:1;"/><text fill="#000000" font-family="sans-serif" font-size="14" lengthAdjust="spacing" textLength="189.6153" x="26" y="209.8576">monthsUntilElection: Integer</text><polygon fill="none" points="17,219.9935,21,223.9935,17,227.9935,13,223.9935" style="stroke:#B38D22;stroke-width:1;"/><text fill="#000000" font-family="sans-serif" font-size="14" lengthAdjust="spacing" textLength="145.0814" x="26" y="228.9255">activePoliticians: Long</text><polygon fill="none" points="17,239.0614,21,243.0614,17,247.0614,13,243.0614" style="stroke:#B38D22;stroke-width:1;"/><text fill="#000000" font-family="sans-serif" font-size="14" lengthAdjust="spacing" textLength="210.1392" x="26" y="247.9934">avgAttendanceRate: BigDecimal</text><polygon fill="none" points="17,258.1294,21,262.1294,17,266.1294,13,262.1294" style="stroke:#B38D22;stroke-width:1;"/><text fill="#000000" font-family="sans-serif" font-size="14" lengthAdjust="spacing" textLength="114.9116" x="26" y="267.0613">totalBallots: Long</text><polygon fill="none" points="17,277.1973,21,281.1973,17,285.1973,13,281.1973" style="stroke:#B38D22;stroke-width:1;"/><text fill="#000000" font-family="sans-serif" font-size="14" lengthAdjust="spacing" textLength="107.0296" x="26" y="286.1293">totalVotes: Long</text><polygon fill="none" points="17,296.2652,21,300.2652,17,304.2652,13,300.2652" style="stroke:#B38D22;stroke-width:1;"/><text fill="#000000" font-family="sans-serif" font-size="14" lengthAdjust="spacing" textLength="160.0894" x="26" y="305.1972">avgWinRate: BigDecimal</text><polygon fill="none" points="17,315.3331,21,319.3331,17,323.3331,13,319.3331" style="stroke:#B38D22;stroke-width:1;"/><text fill="#000000" font-family="sans-serif" font-size="14" lengthAdjust="spacing" textLength="171.5273" x="26" y="324.2651">avgRebelRate: BigDecimal</text><polygon fill="none" points="17,334.401,21,338.401,17,342.401,13,338.401" style="stroke:#B38D22;stroke-width:1;"/><text fill="#000000" font-family="sans-serif" font-size="14" lengthAdjust="spacing" textLength="136.5835" x="26" y="343.333">violationCount: Long</text><polygon fill="none" points="17,353.4689,21,357.4689,17,361.4689,13,357.4689" style="stroke:#B38D22;stroke-width:1;"/><text fill="#000000" font-family="sans-serif" font-size="14" lengthAdjust="spacing" textLength="181.2713" x="26" y="362.4009">avgMaAbsence: BigDecimal</text><polygon fill="none" points="17,372.5369,21,376.5369,17,380.5369,13,376.5369" style="stroke:#B38D22;stroke-width:1;"/><text fill="#000000" font-family="sans-serif" font-size="14" lengthAdjust="spacing" textLength="193.8013" x="26" y="381.4688">avgApprovalRate: BigDecimal</text><polygon fill="none" points="17,391.6048,21,395.6048,17,399.6048,13,395.6048" style="stroke:#B38D22;stroke-width:1;"/><text fill="#000000" font-family="sans-serif" font-size="14" lengthAdjust="spacing" textLength="133.0975" x="26" y="400.5368">totalDecisions: Long</text><polygon fill="none" points="17,410.6727,21,414.6727,17,418.6727,13,414.6727" style="stroke:#B38D22;stroke-width:1;"/><text fill="#000000" font-family="sans-serif" font-size="14" lengthAdjust="spacing" textLength="256.591" x="26" y="419.6047">avgCommitteeProductivity: BigDecimal</text><line style="stroke:#181818;stroke-width:0.5;" x1="7" x2="488.6302" y1="427.7067" y2="427.7067"/><ellipse cx="17" cy="442.7406" fill="#84BE84" rx="3" ry="3" style="stroke:#038048;stroke-width:1;"/><text fill="#000000" font-family="sans-serif" font-size="14" lengthAdjust="spacing" textLength="431.7303" x="26" y="446.6726">getEmbeddedId(): ViewElectionCycleTemporalTrendsEmbeddedId</text><ellipse cx="17" cy="461.8085" fill="#84BE84" rx="3" ry="3" style="stroke:#038048;stroke-width:1;"/><text fill="#000000" font-family="sans-serif" font-size="14" lengthAdjust="spacing" textLength="457.6302" x="26" y="465.7405">setEmbeddedId(ViewElectionCycleTemporalTrendsEmbeddedId): void</text><ellipse cx="17" cy="480.8764" fill="#84BE84" rx="3" ry="3" style="stroke:#038048;stroke-width:1;"/><text fill="#000000" font-family="sans-serif" font-size="14" lengthAdjust="spacing" textLength="174.5513" x="26" y="484.8084">getCalendarYear(): Integer</text><ellipse cx="17" cy="499.9444" fill="#84BE84" rx="3" ry="3" style="stroke:#038048;stroke-width:1;"/><text fill="#000000" font-family="sans-serif" font-size="14" lengthAdjust="spacing" textLength="200.4512" x="26" y="503.8763">setCalendarYear(Integer): void</text><ellipse cx="17" cy="519.0123" fill="#84BE84" rx="3" ry="3" style="stroke:#038048;stroke-width:1;"/><text fill="#000000" font-family="sans-serif" font-size="14" lengthAdjust="spacing" textLength="238.8111" x="26" y="522.9443">getIsPreElectionSemester(): Boolean</text><ellipse cx="17" cy="538.0802" fill="#84BE84" rx="3" ry="3" style="stroke:#038048;stroke-width:1;"/><text fill="#000000" font-family="sans-serif" font-size="14" lengthAdjust="spacing" textLength="264.711" x="26" y="542.0122">setIsPreElectionSemester(Boolean): void</text><ellipse cx="17" cy="557.1481" fill="#84BE84" rx="3" ry="3" style="stroke:#038048;stroke-width:1;"/><text fill="#000000" font-family="sans-serif" font-size="14" lengthAdjust="spacing" textLength="219.1832" x="26" y="561.0801">getMonthsUntilElection(): Integer</text><ellipse cx="17" cy="576.216" fill="#84BE84" rx="3" ry="3" style="stroke:#038048;stroke-width:1;"/><text fill="#000000" font-family="sans-serif" font-size="14" lengthAdjust="spacing" textLength="245.0831" x="26" y="580.148">setMonthsUntilElection(Integer): void</text><ellipse cx="17" cy="595.284" fill="#84BE84" rx="3" ry="3" style="stroke:#038048;stroke-width:1;"/><text fill="#000000" font-family="sans-serif" font-size="14" lengthAdjust="spacing" textLength="176.1333" x="26" y="599.2159">getActivePoliticians(): Long</text><ellipse cx="17" cy="614.3519" fill="#84BE84" rx="3" ry="3" style="stroke:#038048;stroke-width:1;"/><text fill="#000000" font-family="sans-serif" font-size="14" lengthAdjust="spacing" textLength="202.0332" x="26" y="618.2838">setActivePoliticians(Long): void</text><ellipse cx="17" cy="633.4198" fill="#84BE84" rx="3" ry="3" style="stroke:#038048;stroke-width:1;"/><text fill="#000000" font-family="sans-serif" font-size="14" lengthAdjust="spacing" textLength="241.1911" x="26" y="637.3518">getAvgAttendanceRate(): BigDecimal</text><ellipse cx="17" cy="652.4877" fill="#84BE84" rx="3" ry="3" style="stroke:#038048;stroke-width:1;"/><text fill="#000000" font-family="sans-serif" font-size="14" lengthAdjust="spacing" textLength="267.0909" x="26" y="656.4197">setAvgAttendanceRate(BigDecimal): void</text><ellipse cx="17" cy="671.5556" fill="#84BE84" rx="3" ry="3" style="stroke:#038048;stroke-width:1;"/><text fill="#000000" font-family="sans-serif" font-size="14" lengthAdjust="spacing" textLength="147.6014" x="26" y="675.4876">getTotalBallots(): Long</text><ellipse cx="17" cy="690.6235" fill="#84BE84" rx="3" ry="3" style="stroke:#038048;stroke-width:1;"/><text fill="#000000" font-family="sans-serif" font-size="14" lengthAdjust="spacing" textLength="173.5013" x="26" y="694.5555">setTotalBallots(Long): void</text><ellipse cx="17" cy="709.6915" fill="#84BE84" rx="3" ry="3" style="stroke:#038048;stroke-width:1;"/><text fill="#000000" font-family="sans-serif" font-size="14" lengthAdjust="spacing" textLength="139.7195" x="26" y="713.6234">getTotalVotes(): Long</text><ellipse cx="17" cy="728.7594" fill="#84BE84" rx="3" ry="3" style="stroke:#038048;stroke-width:1;"/><text fill="#000000" font-family="sans-serif" font-size="14" lengthAdjust="spacing" textLength="165.6194" x="26" y="732.6913">setTotalVotes(Long): void</text><ellipse cx="17" cy="747.8273" fill="#84BE84" rx="3" ry="3" style="stroke:#038048;stroke-width:1;"/><text fill="#000000" font-family="sans-serif" font-size="14" lengthAdjust="spacing" textLength="191.1412" x="26" y="751.7593">getAvgWinRate(): BigDecimal</text><ellipse cx="17" cy="766.8952" fill="#84BE84" rx="3" ry="3" style="stroke:#038048;stroke-width:1;"/><text fill="#000000" font-family="sans-serif" font-size="14" lengthAdjust="spacing" textLength="217.0411" x="26" y="770.8272">setAvgWinRate(BigDecimal): void</text><ellipse cx="17" cy="785.9631" fill="#84BE84" rx="3" ry="3" style="stroke:#038048;stroke-width:1;"/><text fill="#000000" font-family="sans-serif" font-size="14" lengthAdjust="spacing" textLength="202.5792" x="26" y="789.8951">getAvgRebelRate(): BigDecimal</text><ellipse cx="17" cy="805.031" fill="#84BE84" rx="3" ry="3" style="stroke:#038048;stroke-width:1;"/><text fill="#000000" font-family="sans-serif" font-size="14" lengthAdjust="spacing" textLength="228.4791" x="26" y="808.963">setAvgRebelRate(BigDecimal): void</text><ellipse cx="17" cy="824.099" fill="#84BE84" rx="3" ry="3" style="stroke:#038048;stroke-width:1;"/><text fill="#000000" font-family="sans-serif" font-size="14" lengthAdjust="spacing" textLength="167.8313" x="26" y="828.0309">getViolationCount(): Long</text><ellipse cx="17" cy="843.1669" fill="#84BE84" rx="3" ry="3" style="stroke:#038048;stroke-width:1;"/><text fill="#000000" font-family="sans-serif" font-size="14" lengthAdjust="spacing" textLength="193.7312" x="26" y="847.0988">setViolationCount(Long): void</text><ellipse cx="17" cy="862.2348" fill="#84BE84" rx="3" ry="3" style="stroke:#038048;stroke-width:1;"/><text fill="#000000" font-family="sans-serif" font-size="14" lengthAdjust="spacing" textLength="212.3232" x="26" y="866.1668">getAvgMaAbsence(): BigDecimal</text><ellipse cx="17" cy="881.3027" fill="#84BE84" rx="3" ry="3" style="stroke:#038048;stroke-width:1;"/><text fill="#000000" font-family="sans-serif" font-size="14" lengthAdjust="spacing" textLength="238.2231" x="26" y="885.2347">setAvgMaAbsence(BigDecimal): void</text><ellipse cx="17" cy="900.3706" fill="#84BE84" rx="3" ry="3" style="stroke:#038048;stroke-width:1;"/><text fill="#000000" font-family="sans-serif" font-size="14" lengthAdjust="spacing" textLength="224.8531" x="26" y="904.3026">getAvgApprovalRate(): BigDecimal</text><ellipse cx="17" cy="919.4385" fill="#84BE84" rx="3" ry="3" style="stroke:#038048;stroke-width:1;"/><text fill="#000000" font-family="sans-serif" font-size="14" lengthAdjust="spacing" textLength="250.753" x="26" y="923.3705">setAvgApprovalRate(BigDecimal): void</text><ellipse cx="17" cy="938.5065" fill="#84BE84" rx="3" ry="3" style="stroke:#038048;stroke-width:1;"/><text fill="#000000" font-family="sans-serif" font-size="14" lengthAdjust="spacing" textLength="165.7874" x="26" y="942.4384">getTotalDecisions(): Long</text><ellipse cx="17" cy="957.5744" fill="#84BE84" rx="3" ry="3" style="stroke:#038048;stroke-width:1;"/><text fill="#000000" font-family="sans-serif" font-size="14" lengthAdjust="spacing" textLength="191.6873" x="26" y="961.5063">setTotalDecisions(Long): void</text><ellipse cx="17" cy="976.6423" fill="#84BE84" rx="3" ry="3" style="stroke:#038048;stroke-width:1;"/><text fill="#000000" font-family="sans-serif" font-size="14" lengthAdjust="spacing" textLength="287.6429" x="26" y="980.5743">getAvgCommitteeProductivity(): BigDecimal</text><ellipse cx="17" cy="995.7102" fill="#84BE84" rx="3" ry="3" style="stroke:#038048;stroke-width:1;"/><text fill="#000000" font-family="sans-serif" font-size="14" lengthAdjust="spacing" textLength="313.5428" x="26" y="999.6422">setAvgCommitteeProductivity(BigDecimal): void</text></a></g><!--class com.hack23.cia.model.common.api.ModelObject--><g class="entity" data-entity="com.hack23.cia.model.common.api.ModelObject" data-source-line="61" data-uid="ent0003" id="entity_com.hack23.cia.model.common.api.ModelObject"><rect fill="#F1F1F1" height="42.6879" rx="2.5" ry="2.5" style="stroke:#181818;stroke-width:0.5;" width="189.3398" x="153.5" y="12"/><ellipse cx="168.5" cy="33.344" fill="#B4A7E5" rx="11" ry="11" style="stroke:#181818;stroke-width:1;"/><path d="M164.4219,29.1096 L164.4219,26.9533 L171.8125,26.9533 L171.8125,29.1096 L169.3438,29.1096 L169.3438,37.1877 L171.8125,37.1877 L171.8125,39.344 L164.4219,39.344 L164.4219,37.1877 L166.8906,37.1877 L166.8906,29.1096 L164.4219,29.1096 Z " fill="#000000"/><text fill="#000000" font-family="sans-serif" font-size="14" font-style="italic" lengthAdjust="spacing" textLength="78.1477" x="222.096" y="31.9659">ModelObject</text><text fill="#000000" font-family="sans-serif" font-size="10" font-style="italic" lengthAdjust="spacing" textLength="157.3398" x="182.5" y="46.7579">com.hack23.cia.model.common.api</text></g><g class="link" data-entity-1="com.hack23.cia.model.common.api.ModelObject" data-entity-2="com.hack23.cia.model.internal.application.data.impl.ViewElectionCycleTemporalTrends" data-uid="lnk4" id="link_com.hack23.cia.model.common.api.ModelObject_com.hack23.cia.model.internal.application.data.impl.ViewElectionCycleTemporalTrends"><polygon fill="none" points="248,55.286,242,73.286,254,73.286,248,55.286" style="stroke:#181818;stroke-width:1;"/><path d="M248,73.286 C248,82.5829 248,76.6921 248,90.9831" fill="none" style="stroke:#181818;stroke-width:1;stroke-dasharray:7,7;"/></g><g class="footer" data-source-line="71"><text fill="#888888" font-family="sans-serif" font-size="10" lengthAdjust="spacing" textLength="2.6" x="243.2" y="1012.69">&#160;</text><a href="https://github.com/talsma-ict/umldoclet" target="_top" title="https://github.com/talsma-ict/umldoclet" xlink:actuate="onRequest" xlink:href="https://github.com/talsma-ict/umldoclet" xlink:show="new" xlink:title="https://github.com/talsma-ict/umldoclet" xlink:type="simple"><text fill="#888888" font-family="sans-serif" font-size="10" lengthAdjust="spacing" textLength="76.7199" x="206.14" y="1026.31">UMLDoclet 2.2.4</text></a></g><!--SRC=[jLR1Rjiu4BttAsRRmwP88ykkcssD883h1jiK3XeaJeh2zO6M9X8t5AabAHVURVzzXx9YoGuj1mNMbo2SnpTlXXpg0G3y3YELBpLFKWjMWKsvWPkBCJ0PGu8IDRCO0yzOWWRcA9HCp0g8m0gRAWtghlmlKbgZoPMCkKpW4rimCAhG4PhWsJCeKqqUsBypqs2VBztY1nK9j70mUjcGr0kxnqUzi7SC4oPCnk1yD0agjdfFB-W5VI1kmIEKXYWB6QCkPGrp5j6VyIho2XQe3LUIzeGLZoirKj8oBWtaJ5lZIheKJ5gdjHjG_ZT1DuI3uVLuKrpuhXJt2ePQiYA6A_LtiQxtjropX2GBjbI51PEXPPAjOePKIvPHlrY4rqXPcQLMIYMnZASyHi0ijqkuuoXYixrAPAcYvN8z4imOU7vY-3yuwFPFRpb-FnCOMIfqjAGMJMYJqanCDChOV9CLCZoDL1QaBBhllGuYpe9CnIW2BYrIFI9WUKuTPOucY9bb0SzoyHpey7vXNx175KodUn11QZCncy6_PT7kzmApESOnnkVn0FRiFbj3w-qH4nHY-YioFO1pqf-WhiFSN6fyeBn6EYugS03lbHB8P8tBwFQavaPQBXxG7ZP6WGLUAi4jfwP9Cu0nZLC3i4Y6rZf1Ci8h6WrAnPCF6D7uYHfcbMNYFHD2sKSKPUnMMVIHV-5oDol5hv06V3TYmPKeptIa2caz_1TiE3T8sdTc6EQvLWiczXJdLjsG-eeOgIpZr2Myr2ekN4kvNNgv3XEqzQ4VlFoL6t9eDZYUJ4395eh76rf6ZSlcr6nV49Th0rC1V5pdlflfIBVlfYFrWokaZ_tYyNtU9TW7RT4zt9u1nxjnnexqCSf1l7pR8rFsm7CNZ0zR0ttSayQSUMLk07OfdAmdSZV7AjnIOpMvxSKzWDgh6ZRcl9slXhKptcwy2zugjo0jbQxVa7PjDMnljSqtPy_jQ2AVS3VMpzJkawqXBJLxdxHsgVujViq_LoQX_3hVaTre68KBzzt-FF-B1dUVAQ15-ipHfvtlDW0r9cWmLnxbwHlWv4SG_1yMOwNanDYbmDDrI-yKZPzkk0ht-xZCKO-vl1yfGSRinLj_zCRvJC4bahMDxYMI3GlNo9-hT9r6lYhNDpcTfjRcPj3f9DocnTorecDBZtl48zifCX6lpEsMpPtDAjlwvze_Emjw5FQFkjr9jpzutH-4VVAiuTi_tXpttns6lK4OJiyAhNBiN5iLtQTAPBF_0000]--></g></svg>