<svg xmlns="http://www.w3.org/2000/svg" xmlns:xlink="http://www.w3.org/1999/xlink" contentStyleType="text/css" data-diagram-type="CLASS" height="1552px" preserveAspectRatio="none" style="width:509px;height:1552px;background:#FFFFFF;" version="1.1" viewBox="0 0 509 1552" width="509px" zoomAndPan="magnify"><defs/><g><!--class com.hack23.cia.model.internal.application.data.impl.ViewDecisionTemporalTrends--><g class="entity" data-entity="com.hack23.cia.model.internal.application.data.impl.ViewDecisionTemporalTrends" data-source-line="13" data-uid="ent0002" id="entity_com.hack23.cia.model.internal.application.data.impl.ViewDecisionTemporalTrends"><a href="ViewDecisionTemporalTrends.html" target="_top" title="ViewDecisionTemporalTrends.html" xlink:actuate="onRequest" xlink:href="ViewDecisionTemporalTrends.html" xlink:show="new" xlink:title="ViewDecisionTemporalTrends.html" xlink:type="simple"><rect fill="#F1F1F1" height="1431.5779" rx="2.5" ry="2.5" style="stroke:#181818;stroke-width:0.5;" width="496.6502" x="6" y="91"/><ellipse cx="127.5052" cy="112.344" fill="#ADD1B2" rx="11" ry="11" style="stroke:#181818;stroke-width:1;"/><path d="M130.4739,117.9846 Q129.8958,118.2815 129.2552,118.4221 Q128.6146,118.5783 127.9114,118.5783 Q125.4114,118.5783 124.0833,116.9377 Q122.7708,115.2815 122.7708,112.1565 Q122.7708,109.0315 124.0833,107.3752 Q125.4114,105.719 127.9114,105.719 Q128.6146,105.719 129.2552,105.8752 Q129.9114,106.0315 130.4739,106.3283 L130.4739,109.0471 Q129.8489,108.469 129.2552,108.2033 Q128.6614,107.9221 128.0364,107.9221 Q126.6927,107.9221 126.0052,109.0002 Q125.3177,110.0627 125.3177,112.1565 Q125.3177,114.2502 126.0052,115.3283 Q126.6927,116.3908 128.0364,116.3908 Q128.6614,116.3908 129.2552,116.1252 Q129.8489,115.844 130.4739,115.2658 L130.4739,117.9846 Z " fill="#000000"/><text fill="#000000" font-family="sans-serif" font-size="14" lengthAdjust="spacing" textLength="195.3272" x="172.9115" y="110.9659">ViewDecisionTemporalTrends</text><text fill="#000000" font-family="sans-serif" font-size="10" lengthAdjust="spacing" textLength="245.1398" x="148.0052" y="125.7579">com.hack23.cia.model.internal.application.data.impl</text><line style="stroke:#181818;stroke-width:0.5;" x1="7" x2="501.6502" y1="133.6879" y2="133.6879"/><polygon fill="none" points="17,143.7219,21,147.7219,17,151.7219,13,147.7219" style="stroke:#B38D22;stroke-width:1;"/><text fill="#000000" font-family="sans-serif" font-size="14" lengthAdjust="spacing" textLength="117.9075" x="26" y="152.6538">decisionDay: Date</text><polygon fill="none" points="17,162.7898,21,166.7898,17,170.7898,13,166.7898" style="stroke:#B38D22;stroke-width:1;"/><text fill="#000000" font-family="sans-serif" font-size="14" lengthAdjust="spacing" textLength="130.1575" x="26" y="171.7218">dailyDecisions: long</text><polygon fill="none" points="17,181.8577,21,185.8577,17,189.8577,13,185.8577" style="stroke:#B38D22;stroke-width:1;"/><text fill="#000000" font-family="sans-serif" font-size="14" lengthAdjust="spacing" textLength="201.0532" x="26" y="190.7897">dailyApprovalRate: BigDecimal</text><polygon fill="none" points="17,200.9256,21,204.9256,17,208.9256,13,204.9256" style="stroke:#B38D22;stroke-width:1;"/><text fill="#000000" font-family="sans-serif" font-size="14" lengthAdjust="spacing" textLength="162.2734" x="26" y="209.8576">approvedDecisions: long</text><polygon fill="none" points="17,219.9935,21,223.9935,17,227.9935,13,223.9935" style="stroke:#B38D22;stroke-width:1;"/><text fill="#000000" font-family="sans-serif" font-size="14" lengthAdjust="spacing" textLength="152.7954" x="26" y="228.9255">rejectedDecisions: long</text><polygon fill="none" points="17,239.0614,21,243.0614,17,247.0614,13,243.0614" style="stroke:#B38D22;stroke-width:1;"/><text fill="#000000" font-family="sans-serif" font-size="14" lengthAdjust="spacing" textLength="184.9393" x="26" y="247.9934">referredBackDecisions: long</text><polygon fill="none" points="17,258.1294,21,262.1294,17,266.1294,13,262.1294" style="stroke:#B38D22;stroke-width:1;"/><text fill="#000000" font-family="sans-serif" font-size="14" lengthAdjust="spacing" textLength="222.5571" x="26" y="267.0613">committeeReferralDecisions: long</text><polygon fill="none" points="17,277.1973,21,281.1973,17,285.1973,13,281.1973" style="stroke:#B38D22;stroke-width:1;"/><text fill="#000000" font-family="sans-serif" font-size="14" lengthAdjust="spacing" textLength="196.8672" x="26" y="286.1293">ma7dayDecisions: BigDecimal</text><polygon fill="none" points="17,296.2652,21,300.2652,17,304.2652,13,300.2652" style="stroke:#B38D22;stroke-width:1;"/><text fill="#000000" font-family="sans-serif" font-size="14" lengthAdjust="spacing" textLength="204.8752" x="26" y="305.1972">ma30dayDecisions: BigDecimal</text><polygon fill="none" points="17,315.3331,21,319.3331,17,323.3331,13,319.3331" style="stroke:#B38D22;stroke-width:1;"/><text fill="#000000" font-family="sans-serif" font-size="14" lengthAdjust="spacing" textLength="204.8752" x="26" y="324.2651">ma90dayDecisions: BigDecimal</text><polygon fill="none" points="17,334.401,21,338.401,17,342.401,13,338.401" style="stroke:#B38D22;stroke-width:1;"/><text fill="#000000" font-family="sans-serif" font-size="14" lengthAdjust="spacing" textLength="230.7891" x="26" y="343.333">ma30dayApprovalRate: BigDecimal</text><polygon fill="none" points="17,353.4689,21,357.4689,17,361.4689,13,357.4689" style="stroke:#B38D22;stroke-width:1;"/><text fill="#000000" font-family="sans-serif" font-size="14" lengthAdjust="spacing" textLength="157.8494" x="26" y="362.4009">decisionsLastYear: Long</text><polygon fill="none" points="17,372.5369,21,376.5369,17,380.5369,13,376.5369" style="stroke:#B38D22;stroke-width:1;"/><text fill="#000000" font-family="sans-serif" font-size="14" lengthAdjust="spacing" textLength="176.3153" x="26" y="381.4688">yoyDecisionsChange: Long</text><polygon fill="none" points="17,391.6048,21,395.6048,17,399.6048,13,395.6048" style="stroke:#B38D22;stroke-width:1;"/><text fill="#000000" font-family="sans-serif" font-size="14" lengthAdjust="spacing" textLength="237.817" x="26" y="400.5368">yoyDecisionsChangePct: BigDecimal</text><polygon fill="none" points="17,410.6727,21,414.6727,17,418.6727,13,414.6727" style="stroke:#B38D22;stroke-width:1;"/><text fill="#000000" font-family="sans-serif" font-size="14" lengthAdjust="spacing" textLength="139.7615" x="26" y="419.6047">decisionYear: Integer</text><polygon fill="none" points="17,429.7406,21,433.7406,17,437.7406,13,433.7406" style="stroke:#B38D22;stroke-width:1;"/><text fill="#000000" font-family="sans-serif" font-size="14" lengthAdjust="spacing" textLength="153.8314" x="26" y="438.6726">decisionMonth: Integer</text><polygon fill="none" points="17,448.8085,21,452.8085,17,456.8085,13,452.8085" style="stroke:#B38D22;stroke-width:1;"/><text fill="#000000" font-family="sans-serif" font-size="14" lengthAdjust="spacing" textLength="146.5934" x="26" y="457.7405">decisionWeek: Integer</text><polygon fill="none" points="17,467.8764,21,471.8764,17,475.8764,13,471.8764" style="stroke:#B38D22;stroke-width:1;"/><text fill="#000000" font-family="sans-serif" font-size="14" lengthAdjust="spacing" textLength="131.6695" x="26" y="476.8084">dayOfWeek: Integer</text><line style="stroke:#181818;stroke-width:0.5;" x1="7" x2="501.6502" y1="484.9104" y2="484.9104"/><ellipse cx="17" cy="499.9444" fill="#84BE84" rx="3" ry="3" style="stroke:#038048;stroke-width:1;"/><text fill="#000000" font-family="sans-serif" font-size="14" lengthAdjust="spacing" textLength="149.4774" x="26" y="503.8763">getDecisionDay(): Date</text><ellipse cx="17" cy="519.0123" fill="#84BE84" rx="3" ry="3" style="stroke:#038048;stroke-width:1;"/><text fill="#000000" font-family="sans-serif" font-size="14" lengthAdjust="spacing" textLength="175.3773" x="26" y="522.9443">setDecisionDay(Date): void</text><ellipse cx="17" cy="538.0802" fill="#84BE84" rx="3" ry="3" style="stroke:#038048;stroke-width:1;"/><text fill="#000000" font-family="sans-serif" font-size="14" lengthAdjust="spacing" textLength="161.7274" x="26" y="542.0122">getDailyDecisions(): long</text><ellipse cx="17" cy="557.1481" fill="#84BE84" rx="3" ry="3" style="stroke:#038048;stroke-width:1;"/><text fill="#000000" font-family="sans-serif" font-size="14" lengthAdjust="spacing" textLength="187.6273" x="26" y="561.0801">setDailyDecisions(long): void</text><ellipse cx="17" cy="576.216" fill="#84BE84" rx="3" ry="3" style="stroke:#038048;stroke-width:1;"/><text fill="#000000" font-family="sans-serif" font-size="14" lengthAdjust="spacing" textLength="232.6231" x="26" y="580.148">getDailyApprovalRate(): BigDecimal</text><ellipse cx="17" cy="595.284" fill="#84BE84" rx="3" ry="3" style="stroke:#038048;stroke-width:1;"/><text fill="#000000" font-family="sans-serif" font-size="14" lengthAdjust="spacing" textLength="258.523" x="26" y="599.2159">setDailyApprovalRate(BigDecimal): void</text><ellipse cx="17" cy="614.3519" fill="#84BE84" rx="3" ry="3" style="stroke:#038048;stroke-width:1;"/><text fill="#000000" font-family="sans-serif" font-size="14" lengthAdjust="spacing" textLength="193.3253" x="26" y="618.2838">getApprovedDecisions(): long</text><ellipse cx="17" cy="633.4198" fill="#84BE84" rx="3" ry="3" style="stroke:#038048;stroke-width:1;"/><text fill="#000000" font-family="sans-serif" font-size="14" lengthAdjust="spacing" textLength="219.2252" x="26" y="637.3518">setApprovedDecisions(long): void</text><ellipse cx="17" cy="652.4877" fill="#84BE84" rx="3" ry="3" style="stroke:#038048;stroke-width:1;"/><text fill="#000000" font-family="sans-serif" font-size="14" lengthAdjust="spacing" textLength="185.6813" x="26" y="656.4197">getRejectedDecisions(): long</text><ellipse cx="17" cy="671.5556" fill="#84BE84" rx="3" ry="3" style="stroke:#038048;stroke-width:1;"/><text fill="#000000" font-family="sans-serif" font-size="14" lengthAdjust="spacing" textLength="211.5812" x="26" y="675.4876">setRejectedDecisions(long): void</text><ellipse cx="17" cy="690.6235" fill="#84BE84" rx="3" ry="3" style="stroke:#038048;stroke-width:1;"/><text fill="#000000" font-family="sans-serif" font-size="14" lengthAdjust="spacing" textLength="217.8251" x="26" y="694.5555">getReferredBackDecisions(): long</text><ellipse cx="17" cy="709.6915" fill="#84BE84" rx="3" ry="3" style="stroke:#038048;stroke-width:1;"/><text fill="#000000" font-family="sans-serif" font-size="14" lengthAdjust="spacing" textLength="243.725" x="26" y="713.6234">setReferredBackDecisions(long): void</text><ellipse cx="17" cy="728.7594" fill="#84BE84" rx="3" ry="3" style="stroke:#038048;stroke-width:1;"/><text fill="#000000" font-family="sans-serif" font-size="14" lengthAdjust="spacing" textLength="254.645" x="26" y="732.6913">getCommitteeReferralDecisions(): long</text><ellipse cx="17" cy="747.8273" fill="#84BE84" rx="3" ry="3" style="stroke:#038048;stroke-width:1;"/><text fill="#000000" font-family="sans-serif" font-size="14" lengthAdjust="spacing" textLength="280.5449" x="26" y="751.7593">setCommitteeReferralDecisions(long): void</text><ellipse cx="17" cy="766.8952" fill="#84BE84" rx="3" ry="3" style="stroke:#038048;stroke-width:1;"/><text fill="#000000" font-family="sans-serif" font-size="14" lengthAdjust="spacing" textLength="226.4351" x="26" y="770.8272">getMa7dayDecisions(): BigDecimal</text><ellipse cx="17" cy="785.9631" fill="#84BE84" rx="3" ry="3" style="stroke:#038048;stroke-width:1;"/><text fill="#000000" font-family="sans-serif" font-size="14" lengthAdjust="spacing" textLength="252.335" x="26" y="789.8951">setMa7dayDecisions(BigDecimal): void</text><ellipse cx="17" cy="805.031" fill="#84BE84" rx="3" ry="3" style="stroke:#038048;stroke-width:1;"/><text fill="#000000" font-family="sans-serif" font-size="14" lengthAdjust="spacing" textLength="234.4431" x="26" y="808.963">getMa30dayDecisions(): BigDecimal</text><ellipse cx="17" cy="824.099" fill="#84BE84" rx="3" ry="3" style="stroke:#038048;stroke-width:1;"/><text fill="#000000" font-family="sans-serif" font-size="14" lengthAdjust="spacing" textLength="260.343" x="26" y="828.0309">setMa30dayDecisions(BigDecimal): void</text><ellipse cx="17" cy="843.1669" fill="#84BE84" rx="3" ry="3" style="stroke:#038048;stroke-width:1;"/><text fill="#000000" font-family="sans-serif" font-size="14" lengthAdjust="spacing" textLength="234.4431" x="26" y="847.0988">getMa90dayDecisions(): BigDecimal</text><ellipse cx="17" cy="862.2348" fill="#84BE84" rx="3" ry="3" style="stroke:#038048;stroke-width:1;"/><text fill="#000000" font-family="sans-serif" font-size="14" lengthAdjust="spacing" textLength="260.343" x="26" y="866.1668">setMa90dayDecisions(BigDecimal): void</text><ellipse cx="17" cy="881.3027" fill="#84BE84" rx="3" ry="3" style="stroke:#038048;stroke-width:1;"/><text fill="#000000" font-family="sans-serif" font-size="14" lengthAdjust="spacing" textLength="260.357" x="26" y="885.2347">getMa30dayApprovalRate(): BigDecimal</text><ellipse cx="17" cy="900.3706" fill="#84BE84" rx="3" ry="3" style="stroke:#038048;stroke-width:1;"/><text fill="#000000" font-family="sans-serif" font-size="14" lengthAdjust="spacing" textLength="286.2569" x="26" y="904.3026">setMa30dayApprovalRate(BigDecimal): void</text><ellipse cx="17" cy="919.4385" fill="#84BE84" rx="3" ry="3" style="stroke:#038048;stroke-width:1;"/><text fill="#000000" font-family="sans-serif" font-size="14" lengthAdjust="spacing" textLength="189.4193" x="26" y="923.3705">getDecisionsLastYear(): Long</text><ellipse cx="17" cy="938.5065" fill="#84BE84" rx="3" ry="3" style="stroke:#038048;stroke-width:1;"/><text fill="#000000" font-family="sans-serif" font-size="14" lengthAdjust="spacing" textLength="215.3192" x="26" y="942.4384">setDecisionsLastYear(Long): void</text><ellipse cx="17" cy="957.5744" fill="#84BE84" rx="3" ry="3" style="stroke:#038048;stroke-width:1;"/><text fill="#000000" font-family="sans-serif" font-size="14" lengthAdjust="spacing" textLength="207.0592" x="26" y="961.5063">getYoyDecisionsChange(): Long</text><ellipse cx="17" cy="976.6423" fill="#84BE84" rx="3" ry="3" style="stroke:#038048;stroke-width:1;"/><text fill="#000000" font-family="sans-serif" font-size="14" lengthAdjust="spacing" textLength="232.9591" x="26" y="980.5743">setYoyDecisionsChange(Long): void</text><ellipse cx="17" cy="995.7102" fill="#84BE84" rx="3" ry="3" style="stroke:#038048;stroke-width:1;"/><text fill="#000000" font-family="sans-serif" font-size="14" lengthAdjust="spacing" textLength="268.5609" x="26" y="999.6422">getYoyDecisionsChangePct(): BigDecimal</text><ellipse cx="17" cy="1014.7781" fill="#84BE84" rx="3" ry="3" style="stroke:#038048;stroke-width:1;"/><text fill="#000000" font-family="sans-serif" font-size="14" lengthAdjust="spacing" textLength="294.4608" x="26" y="1018.7101">setYoyDecisionsChangePct(BigDecimal): void</text><ellipse cx="17" cy="1033.846" fill="#84BE84" rx="3" ry="3" style="stroke:#038048;stroke-width:1;"/><text fill="#000000" font-family="sans-serif" font-size="14" lengthAdjust="spacing" textLength="171.3313" x="26" y="1037.778">getDecisionYear(): Integer</text><ellipse cx="17" cy="1052.914" fill="#84BE84" rx="3" ry="3" style="stroke:#038048;stroke-width:1;"/><text fill="#000000" font-family="sans-serif" font-size="14" lengthAdjust="spacing" textLength="197.2312" x="26" y="1056.8459">setDecisionYear(Integer): void</text><ellipse cx="17" cy="1071.9819" fill="#84BE84" rx="3" ry="3" style="stroke:#038048;stroke-width:1;"/><text fill="#000000" font-family="sans-serif" font-size="14" lengthAdjust="spacing" textLength="185.4013" x="26" y="1075.9138">getDecisionMonth(): Integer</text><ellipse cx="17" cy="1091.0498" fill="#84BE84" rx="3" ry="3" style="stroke:#038048;stroke-width:1;"/><text fill="#000000" font-family="sans-serif" font-size="14" lengthAdjust="spacing" textLength="211.3012" x="26" y="1094.9818">setDecisionMonth(Integer): void</text><ellipse cx="17" cy="1110.1177" fill="#84BE84" rx="3" ry="3" style="stroke:#038048;stroke-width:1;"/><text fill="#000000" font-family="sans-serif" font-size="14" lengthAdjust="spacing" textLength="178.1633" x="26" y="1114.0497">getDecisionWeek(): Integer</text><ellipse cx="17" cy="1129.1856" fill="#84BE84" rx="3" ry="3" style="stroke:#038048;stroke-width:1;"/><text fill="#000000" font-family="sans-serif" font-size="14" lengthAdjust="spacing" textLength="204.0632" x="26" y="1133.1176">setDecisionWeek(Integer): void</text><ellipse cx="17" cy="1148.2535" fill="#84BE84" rx="3" ry="3" style="stroke:#038048;stroke-width:1;"/><text fill="#000000" font-family="sans-serif" font-size="14" lengthAdjust="spacing" textLength="163.2393" x="26" y="1152.1855">getDayOfWeek(): Integer</text><ellipse cx="17" cy="1167.3215" fill="#84BE84" rx="3" ry="3" style="stroke:#038048;stroke-width:1;"/><text fill="#000000" font-family="sans-serif" font-size="14" lengthAdjust="spacing" textLength="189.1393" x="26" y="1171.2534">setDayOfWeek(Integer): void</text><ellipse cx="17" cy="1186.3894" fill="#84BE84" rx="3" ry="3" style="stroke:#038048;stroke-width:1;"/><text fill="#000000" font-family="sans-serif" font-size="14" lengthAdjust="spacing" textLength="351.5667" x="26" y="1190.3214">withDecisionDay(Date): ViewDecisionTemporalTrends</text><ellipse cx="17" cy="1205.4573" fill="#84BE84" rx="3" ry="3" style="stroke:#038048;stroke-width:1;"/><text fill="#000000" font-family="sans-serif" font-size="14" lengthAdjust="spacing" textLength="363.8166" x="26" y="1209.3893">withDailyDecisions(long): ViewDecisionTemporalTrends</text><ellipse cx="17" cy="1224.5252" fill="#84BE84" rx="3" ry="3" style="stroke:#038048;stroke-width:1;"/><text fill="#000000" font-family="sans-serif" font-size="14" lengthAdjust="spacing" textLength="434.7124" x="26" y="1228.4572">withDailyApprovalRate(BigDecimal): ViewDecisionTemporalTrends</text><ellipse cx="17" cy="1243.5931" fill="#84BE84" rx="3" ry="3" style="stroke:#038048;stroke-width:1;"/><text fill="#000000" font-family="sans-serif" font-size="14" lengthAdjust="spacing" textLength="395.4146" x="26" y="1247.5251">withApprovedDecisions(long): ViewDecisionTemporalTrends</text><ellipse cx="17" cy="1262.661" fill="#84BE84" rx="3" ry="3" style="stroke:#038048;stroke-width:1;"/><text fill="#000000" font-family="sans-serif" font-size="14" lengthAdjust="spacing" textLength="387.7705" x="26" y="1266.593">withRejectedDecisions(long): ViewDecisionTemporalTrends</text><ellipse cx="17" cy="1281.729" fill="#84BE84" rx="3" ry="3" style="stroke:#038048;stroke-width:1;"/><text fill="#000000" font-family="sans-serif" font-size="14" lengthAdjust="spacing" textLength="419.9144" x="26" y="1285.6609">withReferredBackDecisions(long): ViewDecisionTemporalTrends</text><ellipse cx="17" cy="1300.7969" fill="#84BE84" rx="3" ry="3" style="stroke:#038048;stroke-width:1;"/><text fill="#000000" font-family="sans-serif" font-size="14" lengthAdjust="spacing" textLength="456.7343" x="26" y="1304.7289">withCommitteeReferralDecisions(long): ViewDecisionTemporalTrends</text><ellipse cx="17" cy="1319.8648" fill="#84BE84" rx="3" ry="3" style="stroke:#038048;stroke-width:1;"/><text fill="#000000" font-family="sans-serif" font-size="14" lengthAdjust="spacing" textLength="428.5244" x="26" y="1323.7968">withMa7dayDecisions(BigDecimal): ViewDecisionTemporalTrends</text><ellipse cx="17" cy="1338.9327" fill="#84BE84" rx="3" ry="3" style="stroke:#038048;stroke-width:1;"/><text fill="#000000" font-family="sans-serif" font-size="14" lengthAdjust="spacing" textLength="436.5323" x="26" y="1342.8647">withMa30dayDecisions(BigDecimal): ViewDecisionTemporalTrends</text><ellipse cx="17" cy="1358.0006" fill="#84BE84" rx="3" ry="3" style="stroke:#038048;stroke-width:1;"/><text fill="#000000" font-family="sans-serif" font-size="14" lengthAdjust="spacing" textLength="436.5323" x="26" y="1361.9326">withMa90dayDecisions(BigDecimal): ViewDecisionTemporalTrends</text><ellipse cx="17" cy="1377.0685" fill="#84BE84" rx="3" ry="3" style="stroke:#038048;stroke-width:1;"/><text fill="#000000" font-family="sans-serif" font-size="14" lengthAdjust="spacing" textLength="462.4463" x="26" y="1381.0005">withMa30dayApprovalRate(BigDecimal): ViewDecisionTemporalTrends</text><ellipse cx="17" cy="1396.1365" fill="#84BE84" rx="3" ry="3" style="stroke:#038048;stroke-width:1;"/><text fill="#000000" font-family="sans-serif" font-size="14" lengthAdjust="spacing" textLength="391.5085" x="26" y="1400.0684">withDecisionsLastYear(Long): ViewDecisionTemporalTrends</text><ellipse cx="17" cy="1415.2044" fill="#84BE84" rx="3" ry="3" style="stroke:#038048;stroke-width:1;"/><text fill="#000000" font-family="sans-serif" font-size="14" lengthAdjust="spacing" textLength="409.1485" x="26" y="1419.1364">withYoyDecisionsChange(Long): ViewDecisionTemporalTrends</text><ellipse cx="17" cy="1434.2723" fill="#84BE84" rx="3" ry="3" style="stroke:#038048;stroke-width:1;"/><text fill="#000000" font-family="sans-serif" font-size="14" lengthAdjust="spacing" textLength="470.6502" x="26" y="1438.2043">withYoyDecisionsChangePct(BigDecimal): ViewDecisionTemporalTrends</text><ellipse cx="17" cy="1453.3402" fill="#84BE84" rx="3" ry="3" style="stroke:#038048;stroke-width:1;"/><text fill="#000000" font-family="sans-serif" font-size="14" lengthAdjust="spacing" textLength="373.4206" x="26" y="1457.2722">withDecisionYear(Integer): ViewDecisionTemporalTrends</text><ellipse cx="17" cy="1472.4081" fill="#84BE84" rx="3" ry="3" style="stroke:#038048;stroke-width:1;"/><text fill="#000000" font-family="sans-serif" font-size="14" lengthAdjust="spacing" textLength="387.4905" x="26" y="1476.3401">withDecisionMonth(Integer): ViewDecisionTemporalTrends</text><ellipse cx="17" cy="1491.476" fill="#84BE84" rx="3" ry="3" style="stroke:#038048;stroke-width:1;"/><text fill="#000000" font-family="sans-serif" font-size="14" lengthAdjust="spacing" textLength="380.2526" x="26" y="1495.408">withDecisionWeek(Integer): ViewDecisionTemporalTrends</text><ellipse cx="17" cy="1510.544" fill="#84BE84" rx="3" ry="3" style="stroke:#038048;stroke-width:1;"/><text fill="#000000" font-family="sans-serif" font-size="14" lengthAdjust="spacing" textLength="365.3286" x="26" y="1514.4759">withDayOfWeek(Integer): ViewDecisionTemporalTrends</text></a></g><!--class com.hack23.cia.model.common.api.ModelObject--><g class="entity" data-entity="com.hack23.cia.model.common.api.ModelObject" data-source-line="88" data-uid="ent0003" id="entity_com.hack23.cia.model.common.api.ModelObject"><rect fill="#F1F1F1" height="42.6879" rx="2.5" ry="2.5" style="stroke:#181818;stroke-width:0.5;" width="189.3398" x="160" y="12"/><ellipse cx="175" cy="33.344" fill="#B4A7E5" rx="11" ry="11" style="stroke:#181818;stroke-width:1;"/><path d="M170.9219,29.1096 L170.9219,26.9533 L178.3125,26.9533 L178.3125,29.1096 L175.8438,29.1096 L175.8438,37.1877 L178.3125,37.1877 L178.3125,39.344 L170.9219,39.344 L170.9219,37.1877 L173.3906,37.1877 L173.3906,29.1096 L170.9219,29.1096 Z " fill="#000000"/><text fill="#000000" font-family="sans-serif" font-size="14" font-style="italic" lengthAdjust="spacing" textLength="78.1477" x="228.596" y="31.9659">ModelObject</text><text fill="#000000" font-family="sans-serif" font-size="10" font-style="italic" lengthAdjust="spacing" textLength="157.3398" x="189" y="46.7579">com.hack23.cia.model.common.api</text></g><g class="link" data-entity-1="com.hack23.cia.model.common.api.ModelObject" data-entity-2="com.hack23.cia.model.internal.application.data.impl.ViewDecisionTemporalTrends" data-uid="lnk4" id="link_com.hack23.cia.model.common.api.ModelObject_com.hack23.cia.model.internal.application.data.impl.ViewDecisionTemporalTrends"><polygon fill="none" points="254.5,55.1358,248.5,73.1358,260.5,73.1358,254.5,55.1358" style="stroke:#181818;stroke-width:1;"/><path d="M254.5,73.1358 C254.5,82.3615 254.5,76.4454 254.5,90.9055" fill="none" style="stroke:#181818;stroke-width:1;stroke-dasharray:7,7;"/></g><g class="footer" data-source-line="98"><text fill="#888888" font-family="sans-serif" font-size="10" lengthAdjust="spacing" textLength="2.6" x="249.7" y="1527.69">&#160;</text><a href="https://github.com/talsma-ict/umldoclet" target="_top" title="https://github.com/talsma-ict/umldoclet" xlink:actuate="onRequest" xlink:href="https://github.com/talsma-ict/umldoclet" xlink:show="new" xlink:title="https://github.com/talsma-ict/umldoclet" xlink:type="simple"><text fill="#888888" font-family="sans-serif" font-size="10" lengthAdjust="spacing" textLength="76.7199" x="212.64" y="1541.31">UMLDoclet 2.2.4</text></a></g><!--SRC=[hPXTRzis58Rl-okuzc8fqj2IutQn4GHmxM7hOAD5ucueN5-SICSI5uhKH3g1jlQ_bvI_PL6Mk-OcYCxBXuU7v8iS4aB8psGWqpnZKQo9baJ7J96Fun414P881MQWCIGiWGWLkKSkHQIMGYImqB7CY9mNVmKoor2bKeHCHEGFU0IYv28BKD5dpqWnrMHDVmArGx_FxSUX33XgSZPukPDIs_FVNBIzzXio0QuI8Ey64xgYRSUqQPjsY65p5g1G1haG8MP5MlqK0lDhj8oy8e-OAIQ56UEjE7QfWHGQc50aXKmhkwGF78IskVhKpF-Q-Xuvwz-DzfFpkaLohqW_4x08oQtyPx5Pxqzf1f59cKCk5vge13K8MCQKoLf0Oke50TwXcHMqAQMG0ejup48acAGw9tE6F5JbhmOMI_Ev-1vmK8eylrRiN-pvdPi_6JuDCM1seHEZbndmIOOYL9_5IkJT13AXCGGFxKiQCA29395J9ZIQfN0AQMgA2TeGQ0WQA4jI_foOVVkESTIT49bEtK4QwuJFPkI_OfNsvqMu4WuXxv6XEJux8M0yNuDKZzYpMehsqpIJZy1lpS0UUSiYAq-0RsLGA31qSZBy6mDTAvYZkGdXMrCZfyWKCM5Q8zuMQk1EPGA_XB2xhAgi4xZqcgYwNcFMyLAjjqADGEbF25cFZFPIp-Lsha4C8iBZYW-1hfzjET4xSzuYp0x3OtEHuvhuNuWFLM78ty-hO-SHwk7sr9szB9sxSxKVjq6ZUPGit6Vi7K-BsTle0hCliN4dQNT_BAoYPXladdOhh6Bto-U_Cj53bIlNs_9rgUGTgjoyYjlbO5OfNTo1yq9MmclahXd6-nUvPi_AoleT6vVkVYsu93r6xZOdTxtJSsvuXglKzVnXsPeiVNHmtGvK8yVUVJhmgKfWXQmvqJXVJGsgzSsgi2x0WREfacObg6CL_deCjXGre5d7FGOhD7MijNKxGHk1Y_B4T5nXuUv_J4f3AstxfD7kizqKuxJafW2d1pS7r1XkKyXnOsrAgdNHvf0wnsnEwNe_B9V_VrISljSKuFQvxoSSsDcfgoavsAd3ovvrwlYImJI__OVcT6JirsNJLxHSSzC-xZH-OzkClR-t5_bOfsSx4DEZGShSNTrMGtV8gvwp-G1o_ONI7zmtBfEuLZhdUBCfwLnAmzlf5-tFxtcAsOY9Xu7afiT-SLKT_MYV33WJE8bPy23GTDJUHlbrELrhPxxLN9_5T1fhdQfUgnMP3LtSsogqTF5SSS42tLeaF5o-KvHUB6QprGl4Rvkd4FkQSE5rBdn_udTwbvsUrw5-stzzTNdLzS-zTi_pfhykCfbYwqxBu26MF9bz0m00]--></g></svg>