<?xml version="1.0" encoding="UTF-8" standalone="no"?><svg xmlns="http://www.w3.org/2000/svg" xmlns:xlink="http://www.w3.org/1999/xlink" contentStyleType="text/css" height="300px" preserveAspectRatio="none" style="width:1764px;height:300px;background:#FFFFFF;" version="1.1" viewBox="0 0 1764 300" width="1764px" zoomAndPan="magnify"><defs/><g><!--MD5=[5976552db9cbc914f7763d1d3f5e6e54]
cluster com.hack23.cia.web.impl.ui.application.views.user.home.pagemode--><g id="cluster_com.hack23.cia.web.impl.ui.application.views.user.home.pagemode"><path d="M8.5,132.602 L480.5,132.602 A3.75,3.75 0 0 1 483,135.102 L490,157.6699 L1754.5,157.6699 A2.5,2.5 0 0 1 1757,160.1699 L1757,270.102 A2.5,2.5 0 0 1 1754.5,272.602 L8.5,272.602 A2.5,2.5 0 0 1 6,270.102 L6,135.102 A2.5,2.5 0 0 1 8.5,132.602 " fill="none" style="stroke:#000000;stroke-width:1.5;"/><line style="stroke:#000000;stroke-width:1.5;" x1="6" x2="490" y1="157.6699" y2="157.6699"/><text fill="#000000" font-family="sans-serif" font-size="14" font-weight="bold" lengthAdjust="spacing" textLength="471" x="10" y="149.5679">com.hack23.cia.web.impl.ui.application.views.user.home.pagemode</text></g><!--MD5=[5aa94c924e9848adf3a3e7e8e30b1801]
cluster com.hack23.cia.web.impl.ui.application.views.common.pagemode--><g id="cluster_com.hack23.cia.web.impl.ui.application.views.common.pagemode"><path d="M673.5,6.602 L1133.5,6.602 A3.75,3.75 0 0 1 1136,9.102 L1143,31.6699 L1143.5,31.6699 A2.5,2.5 0 0 1 1146,34.1699 L1146,106.102 A2.5,2.5 0 0 1 1143.5,108.602 L673.5,108.602 A2.5,2.5 0 0 1 671,106.102 L671,9.102 A2.5,2.5 0 0 1 673.5,6.602 " fill="none" style="stroke:#000000;stroke-width:1.5;"/><line style="stroke:#000000;stroke-width:1.5;" x1="671" x2="1143" y1="31.6699" y2="31.6699"/><text fill="#000000" font-family="sans-serif" font-size="14" font-weight="bold" lengthAdjust="spacing" textLength="459" x="675" y="23.5679">com.hack23.cia.web.impl.ui.application.views.common.pagemode</text></g><!--MD5=[f6c5da8d66624027c24f66c1cff66c3e]
class com.hack23.cia.web.impl.ui.application.views.user.home.pagemode.UserHomeOverviewPageModContentFactoryImpl--><a href="UserHomeOverviewPageModContentFactoryImpl.html" target="_top" title="UserHomeOverviewPageModContentFactoryImpl.html" xlink:actuate="onRequest" xlink:href="UserHomeOverviewPageModContentFactoryImpl.html" xlink:show="new" xlink:title="UserHomeOverviewPageModContentFactoryImpl.html" xlink:type="simple"><g id="elem_com.hack23.cia.web.impl.ui.application.views.user.home.pagemode.UserHomeOverviewPageModContentFactoryImpl"><rect codeLine="3" fill="#F1F1F1" height="86.1358" id="com.hack23.cia.web.impl.ui.application.views.user.home.pagemode.UserHomeOverviewPageModContentFactoryImpl" rx="2.5" ry="2.5" style="stroke:#181818;stroke-width:0.5;" width="359" x="1381.5" y="170.602"/><ellipse cx="1396.5" cy="186.602" fill="#ADD1B2" rx="11" ry="11" style="stroke:#181818;stroke-width:1.0;"/><path d="M1399.4688,192.2426 Q1398.8906,192.5395 1398.25,192.6801 Q1397.6094,192.8364 1396.9063,192.8364 Q1394.4063,192.8364 1393.0781,191.1957 Q1391.7656,189.5395 1391.7656,186.4145 Q1391.7656,183.2895 1393.0781,181.6332 Q1394.4063,179.977 1396.9063,179.977 Q1397.6094,179.977 1398.25,180.1332 Q1398.9063,180.2895 1399.4688,180.5864 L1399.4688,183.3051 Q1398.8438,182.727 1398.25,182.4614 Q1397.6563,182.1801 1397.0313,182.1801 Q1395.6875,182.1801 1395,183.2582 Q1394.3125,184.3207 1394.3125,186.4145 Q1394.3125,188.5082 1395,189.5864 Q1395.6875,190.6489 1397.0313,190.6489 Q1397.6563,190.6489 1398.25,190.3832 Q1398.8438,190.102 1399.4688,189.5239 L1399.4688,192.2426 Z " fill="#000000"/><text fill="#000000" font-family="sans-serif" font-size="14" lengthAdjust="spacing" textLength="327" x="1410.5" y="192.034">UserHomeOverviewPageModContentFactoryImpl</text><line style="stroke:#181818;stroke-width:0.5;" x1="1382.5" x2="1739.5" y1="202.602" y2="202.602"/><line style="stroke:#181818;stroke-width:0.5;" x1="1382.5" x2="1739.5" y1="210.602" y2="210.602"/><ellipse cx="1392.5" cy="225.6359" fill="#84BE84" rx="3" ry="3" style="stroke:#038048;stroke-width:1.0;"/><text fill="#000000" font-family="sans-serif" font-size="14" lengthAdjust="spacing" textLength="311" x="1401.5" y="229.5679">createContent(String, MenuBar, Panel): Layout</text><ellipse cx="1392.5" cy="244.7039" fill="#84BE84" rx="3" ry="3" style="stroke:#038048;stroke-width:1.0;"/><text fill="#000000" font-family="sans-serif" font-size="14" lengthAdjust="spacing" textLength="217" x="1401.5" y="248.6358">matches(String, String): boolean</text></g></a><!--MD5=[5626d04244ca5fb9c5e4efbd6029f5d7]
class com.hack23.cia.web.impl.ui.application.views.user.home.pagemode.UserHomeApplicationEventsPageModContentFactoryImpl--><a href="UserHomeApplicationEventsPageModContentFactoryImpl.html" target="_top" title="UserHomeApplicationEventsPageModContentFactoryImpl.html" xlink:actuate="onRequest" xlink:href="UserHomeApplicationEventsPageModContentFactoryImpl.html" xlink:show="new" xlink:title="UserHomeApplicationEventsPageModContentFactoryImpl.html" xlink:type="simple"><g id="elem_com.hack23.cia.web.impl.ui.application.views.user.home.pagemode.UserHomeApplicationEventsPageModContentFactoryImpl"><rect codeLine="8" fill="#F1F1F1" height="86.1358" id="com.hack23.cia.web.impl.ui.application.views.user.home.pagemode.UserHomeApplicationEventsPageModContentFactoryImpl" rx="2.5" ry="2.5" style="stroke:#181818;stroke-width:0.5;" width="417" x="929.5" y="170.602"/><ellipse cx="944.5" cy="186.602" fill="#ADD1B2" rx="11" ry="11" style="stroke:#181818;stroke-width:1.0;"/><path d="M947.4688,192.2426 Q946.8906,192.5395 946.25,192.6801 Q945.6094,192.8364 944.9063,192.8364 Q942.4063,192.8364 941.0781,191.1957 Q939.7656,189.5395 939.7656,186.4145 Q939.7656,183.2895 941.0781,181.6332 Q942.4063,179.977 944.9063,179.977 Q945.6094,179.977 946.25,180.1332 Q946.9063,180.2895 947.4688,180.5864 L947.4688,183.3051 Q946.8438,182.727 946.25,182.4614 Q945.6563,182.1801 945.0313,182.1801 Q943.6875,182.1801 943,183.2582 Q942.3125,184.3207 942.3125,186.4145 Q942.3125,188.5082 943,189.5864 Q943.6875,190.6489 945.0313,190.6489 Q945.6563,190.6489 946.25,190.3832 Q946.8438,190.102 947.4688,189.5239 L947.4688,192.2426 Z " fill="#000000"/><text fill="#000000" font-family="sans-serif" font-size="14" lengthAdjust="spacing" textLength="385" x="958.5" y="192.034">UserHomeApplicationEventsPageModContentFactoryImpl</text><line style="stroke:#181818;stroke-width:0.5;" x1="930.5" x2="1345.5" y1="202.602" y2="202.602"/><line style="stroke:#181818;stroke-width:0.5;" x1="930.5" x2="1345.5" y1="210.602" y2="210.602"/><ellipse cx="940.5" cy="225.6359" fill="#84BE84" rx="3" ry="3" style="stroke:#038048;stroke-width:1.0;"/><text fill="#000000" font-family="sans-serif" font-size="14" lengthAdjust="spacing" textLength="311" x="949.5" y="229.5679">createContent(String, MenuBar, Panel): Layout</text><ellipse cx="940.5" cy="244.7039" fill="#84BE84" rx="3" ry="3" style="stroke:#038048;stroke-width:1.0;"/><text fill="#000000" font-family="sans-serif" font-size="14" lengthAdjust="spacing" textLength="217" x="949.5" y="248.6358">matches(String, String): boolean</text></g></a><!--MD5=[0a55e5d4d7e1b0a50cedde7cad6148de]
class com.hack23.cia.web.impl.ui.application.views.user.home.pagemode.UserHomeApplicationSessionsPageModContentFactoryImpl--><a href="UserHomeApplicationSessionsPageModContentFactoryImpl.html" target="_top" title="UserHomeApplicationSessionsPageModContentFactoryImpl.html" xlink:actuate="onRequest" xlink:href="UserHomeApplicationSessionsPageModContentFactoryImpl.html" xlink:show="new" xlink:title="UserHomeApplicationSessionsPageModContentFactoryImpl.html" xlink:type="simple"><g id="elem_com.hack23.cia.web.impl.ui.application.views.user.home.pagemode.UserHomeApplicationSessionsPageModContentFactoryImpl"><rect codeLine="13" fill="#F1F1F1" height="86.1358" id="com.hack23.cia.web.impl.ui.application.views.user.home.pagemode.UserHomeApplicationSessionsPageModContentFactoryImpl" rx="2.5" ry="2.5" style="stroke:#181818;stroke-width:0.5;" width="431" x="463.5" y="170.602"/><ellipse cx="478.5" cy="186.602" fill="#ADD1B2" rx="11" ry="11" style="stroke:#181818;stroke-width:1.0;"/><path d="M481.4688,192.2426 Q480.8906,192.5395 480.25,192.6801 Q479.6094,192.8364 478.9063,192.8364 Q476.4063,192.8364 475.0781,191.1957 Q473.7656,189.5395 473.7656,186.4145 Q473.7656,183.2895 475.0781,181.6332 Q476.4063,179.977 478.9063,179.977 Q479.6094,179.977 480.25,180.1332 Q480.9063,180.2895 481.4688,180.5864 L481.4688,183.3051 Q480.8438,182.727 480.25,182.4614 Q479.6563,182.1801 479.0313,182.1801 Q477.6875,182.1801 477,183.2582 Q476.3125,184.3207 476.3125,186.4145 Q476.3125,188.5082 477,189.5864 Q477.6875,190.6489 479.0313,190.6489 Q479.6563,190.6489 480.25,190.3832 Q480.8438,190.102 481.4688,189.5239 L481.4688,192.2426 Z " fill="#000000"/><text fill="#000000" font-family="sans-serif" font-size="14" lengthAdjust="spacing" textLength="399" x="492.5" y="192.034">UserHomeApplicationSessionsPageModContentFactoryImpl</text><line style="stroke:#181818;stroke-width:0.5;" x1="464.5" x2="893.5" y1="202.602" y2="202.602"/><line style="stroke:#181818;stroke-width:0.5;" x1="464.5" x2="893.5" y1="210.602" y2="210.602"/><ellipse cx="474.5" cy="225.6359" fill="#84BE84" rx="3" ry="3" style="stroke:#038048;stroke-width:1.0;"/><text fill="#000000" font-family="sans-serif" font-size="14" lengthAdjust="spacing" textLength="311" x="483.5" y="229.5679">createContent(String, MenuBar, Panel): Layout</text><ellipse cx="474.5" cy="244.7039" fill="#84BE84" rx="3" ry="3" style="stroke:#038048;stroke-width:1.0;"/><text fill="#000000" font-family="sans-serif" font-size="14" lengthAdjust="spacing" textLength="217" x="483.5" y="248.6358">matches(String, String): boolean</text></g></a><!--MD5=[ea21e10f51085d6a8cac8f775875380a]
class com.hack23.cia.web.impl.ui.application.views.user.home.pagemode.UserHomeSecuritySettingsPageModContentFactoryImpl--><a href="UserHomeSecuritySettingsPageModContentFactoryImpl.html" target="_top" title="UserHomeSecuritySettingsPageModContentFactoryImpl.html" xlink:actuate="onRequest" xlink:href="UserHomeSecuritySettingsPageModContentFactoryImpl.html" xlink:show="new" xlink:title="UserHomeSecuritySettingsPageModContentFactoryImpl.html" xlink:type="simple"><g id="elem_com.hack23.cia.web.impl.ui.application.views.user.home.pagemode.UserHomeSecuritySettingsPageModContentFactoryImpl"><rect codeLine="18" fill="#F1F1F1" height="86.1358" id="com.hack23.cia.web.impl.ui.application.views.user.home.pagemode.UserHomeSecuritySettingsPageModContentFactoryImpl" rx="2.5" ry="2.5" style="stroke:#181818;stroke-width:0.5;" width="406" x="22" y="170.602"/><ellipse cx="37" cy="186.602" fill="#ADD1B2" rx="11" ry="11" style="stroke:#181818;stroke-width:1.0;"/><path d="M39.9688,192.2426 Q39.3906,192.5395 38.75,192.6801 Q38.1094,192.8364 37.4063,192.8364 Q34.9063,192.8364 33.5781,191.1957 Q32.2656,189.5395 32.2656,186.4145 Q32.2656,183.2895 33.5781,181.6332 Q34.9063,179.977 37.4063,179.977 Q38.1094,179.977 38.75,180.1332 Q39.4063,180.2895 39.9688,180.5864 L39.9688,183.3051 Q39.3438,182.727 38.75,182.4614 Q38.1563,182.1801 37.5313,182.1801 Q36.1875,182.1801 35.5,183.2582 Q34.8125,184.3207 34.8125,186.4145 Q34.8125,188.5082 35.5,189.5864 Q36.1875,190.6489 37.5313,190.6489 Q38.1563,190.6489 38.75,190.3832 Q39.3438,190.102 39.9688,189.5239 L39.9688,192.2426 Z " fill="#000000"/><text fill="#000000" font-family="sans-serif" font-size="14" lengthAdjust="spacing" textLength="374" x="51" y="192.034">UserHomeSecuritySettingsPageModContentFactoryImpl</text><line style="stroke:#181818;stroke-width:0.5;" x1="23" x2="427" y1="202.602" y2="202.602"/><line style="stroke:#181818;stroke-width:0.5;" x1="23" x2="427" y1="210.602" y2="210.602"/><ellipse cx="33" cy="225.6359" fill="#84BE84" rx="3" ry="3" style="stroke:#038048;stroke-width:1.0;"/><text fill="#000000" font-family="sans-serif" font-size="14" lengthAdjust="spacing" textLength="311" x="42" y="229.5679">createContent(String, MenuBar, Panel): Layout</text><ellipse cx="33" cy="244.7039" fill="#84BE84" rx="3" ry="3" style="stroke:#038048;stroke-width:1.0;"/><text fill="#000000" font-family="sans-serif" font-size="14" lengthAdjust="spacing" textLength="217" x="42" y="248.6358">matches(String, String): boolean</text></g></a><!--MD5=[db981ccff2a6c8db469b3bc4ac975bd4]
class com.hack23.cia.web.impl.ui.application.views.common.pagemode.AbstractBasicPageModContentFactoryImpl--><a href="../../../common/pagemode/AbstractBasicPageModContentFactoryImpl.html" target="_top" title="../../../common/pagemode/AbstractBasicPageModContentFactoryImpl.html" xlink:actuate="onRequest" xlink:href="../../../common/pagemode/AbstractBasicPageModContentFactoryImpl.html" xlink:show="new" xlink:title="../../../common/pagemode/AbstractBasicPageModContentFactoryImpl.html" xlink:type="simple"><g id="elem_com.hack23.cia.web.impl.ui.application.views.common.pagemode.AbstractBasicPageModContentFactoryImpl"><rect codeLine="30" fill="#F1F1F1" height="48" id="com.hack23.cia.web.impl.ui.application.views.common.pagemode.AbstractBasicPageModContentFactoryImpl" rx="2.5" ry="2.5" style="stroke:#181818;stroke-width:0.5;" width="300" x="758" y="44.602"/><ellipse cx="773" cy="60.602" fill="#A9DCDF" rx="11" ry="11" style="stroke:#181818;stroke-width:1.0;"/><path d="M773.1094,55.9457 L771.9531,61.0239 L774.2813,61.0239 L773.1094,55.9457 Z M771.625,53.7114 L774.6094,53.7114 L777.9688,66.102 L775.5156,66.102 L774.75,63.0395 L771.4688,63.0395 L770.7188,66.102 L768.2813,66.102 L771.625,53.7114 Z " fill="#000000"/><text fill="#000000" font-family="sans-serif" font-size="14" font-style="italic" lengthAdjust="spacing" textLength="268" x="787" y="66.034">AbstractBasicPageModContentFactoryImpl</text><line style="stroke:#181818;stroke-width:0.5;" x1="759" x2="1057" y1="76.602" y2="76.602"/><line style="stroke:#181818;stroke-width:0.5;" x1="759" x2="1057" y1="84.602" y2="84.602"/></g></a><!--MD5=[8e3fdf1caee1d6b5e75f87de8a54e8dd]
reverse link com.hack23.cia.web.impl.ui.application.views.common.pagemode.AbstractBasicPageModContentFactoryImpl to com.hack23.cia.web.impl.ui.application.views.user.home.pagemode.UserHomeOverviewPageModContentFactoryImpl--><g id="link_com.hack23.cia.web.impl.ui.application.views.common.pagemode.AbstractBasicPageModContentFactoryImpl_com.hack23.cia.web.impl.ui.application.views.user.home.pagemode.UserHomeOverviewPageModContentFactoryImpl"><path codeLine="23" d="M1078.23,77.972 C1164.98,85.282 1271.41,98.972 1364,124.602 C1404.07,135.692 1446.43,153.712 1481.56,170.562 " fill="none" id="com.hack23.cia.web.impl.ui.application.views.common.pagemode.AbstractBasicPageModContentFactoryImpl-backto-com.hack23.cia.web.impl.ui.application.views.user.home.pagemode.UserHomeOverviewPageModContentFactoryImpl" style="stroke:#181818;stroke-width:1.0;"/><polygon fill="none" points="1077.43,84.932,1058.05,76.362,1078.55,70.972,1077.43,84.932" style="stroke:#181818;stroke-width:1.0;"/></g><!--MD5=[956741ffe2c89dafe21525a99be44ddb]
reverse link com.hack23.cia.web.impl.ui.application.views.common.pagemode.AbstractBasicPageModContentFactoryImpl to com.hack23.cia.web.impl.ui.application.views.user.home.pagemode.UserHomeApplicationEventsPageModContentFactoryImpl--><g id="link_com.hack23.cia.web.impl.ui.application.views.common.pagemode.AbstractBasicPageModContentFactoryImpl_com.hack23.cia.web.impl.ui.application.views.user.home.pagemode.UserHomeApplicationEventsPageModContentFactoryImpl"><path codeLine="24" d="M962.58,103.532 C994.82,123.582 1035.9,149.122 1070.21,170.452 " fill="none" id="com.hack23.cia.web.impl.ui.application.views.common.pagemode.AbstractBasicPageModContentFactoryImpl-backto-com.hack23.cia.web.impl.ui.application.views.user.home.pagemode.UserHomeApplicationEventsPageModContentFactoryImpl" style="stroke:#181818;stroke-width:1.0;"/><polygon fill="none" points="958.5,109.242,945.21,92.732,965.89,97.352,958.5,109.242" style="stroke:#181818;stroke-width:1.0;"/></g><!--MD5=[ba6863e7508e8700f5bbfaa8152d77b7]
reverse link com.hack23.cia.web.impl.ui.application.views.common.pagemode.AbstractBasicPageModContentFactoryImpl to com.hack23.cia.web.impl.ui.application.views.user.home.pagemode.UserHomeApplicationSessionsPageModContentFactoryImpl--><g id="link_com.hack23.cia.web.impl.ui.application.views.common.pagemode.AbstractBasicPageModContentFactoryImpl_com.hack23.cia.web.impl.ui.application.views.user.home.pagemode.UserHomeApplicationSessionsPageModContentFactoryImpl"><path codeLine="25" d="M853.66,103.532 C821.56,123.582 780.65,149.122 746.5,170.452 " fill="none" id="com.hack23.cia.web.impl.ui.application.views.common.pagemode.AbstractBasicPageModContentFactoryImpl-backto-com.hack23.cia.web.impl.ui.application.views.user.home.pagemode.UserHomeApplicationSessionsPageModContentFactoryImpl" style="stroke:#181818;stroke-width:1.0;"/><polygon fill="none" points="850.28,97.392,870.95,92.732,857.7,109.272,850.28,97.392" style="stroke:#181818;stroke-width:1.0;"/></g><!--MD5=[25d33aebfbc0b3271e34392497252790]
reverse link com.hack23.cia.web.impl.ui.application.views.common.pagemode.AbstractBasicPageModContentFactoryImpl to com.hack23.cia.web.impl.ui.application.views.user.home.pagemode.UserHomeSecuritySettingsPageModContentFactoryImpl--><g id="link_com.hack23.cia.web.impl.ui.application.views.common.pagemode.AbstractBasicPageModContentFactoryImpl_com.hack23.cia.web.impl.ui.application.views.user.home.pagemode.UserHomeSecuritySettingsPageModContentFactoryImpl"><path codeLine="26" d="M737.76,79.222 C649.66,86.872 540.97,100.482 446,124.602 C401.77,135.832 354.55,153.762 315.16,170.522 " fill="none" id="com.hack23.cia.web.impl.ui.application.views.common.pagemode.AbstractBasicPageModContentFactoryImpl-backto-com.hack23.cia.web.impl.ui.application.views.user.home.pagemode.UserHomeSecuritySettingsPageModContentFactoryImpl" style="stroke:#181818;stroke-width:1.0;"/><polygon fill="none" points="737.44,72.232,757.95,77.542,738.6,86.182,737.44,72.232" style="stroke:#181818;stroke-width:1.0;"/></g><rect fill="none" height="13.62" style="stroke:none;stroke-width:1.0;" width="188" x="781" y="278.602"/><text fill="#888888" font-family="sans-serif" font-size="10" lengthAdjust="spacing" textLength="188" x="781" y="289.292">UMLDoclet 2.0.20, PlantUML 1.2022.12</text><!--MD5=[8761dbfebad9c623b050ea6afa4ca2dd]
@startuml
    namespace com.hack23.cia.web.impl.ui.application.views.user.home.pagemode {

        class UserHomeOverviewPageModContentFactoryImpl [[UserHomeOverviewPageModContentFactoryImpl.html]] {
            +createContent(String, MenuBar, Panel): Layout
            +matches(String, String): boolean
        }

        class UserHomeApplicationEventsPageModContentFactoryImpl [[UserHomeApplicationEventsPageModContentFactoryImpl.html]] {
            +createContent(String, MenuBar, Panel): Layout
            +matches(String, String): boolean
        }

        class UserHomeApplicationSessionsPageModContentFactoryImpl [[UserHomeApplicationSessionsPageModContentFactoryImpl.html]] {
            +createContent(String, MenuBar, Panel): Layout
            +matches(String, String): boolean
        }

        class UserHomeSecuritySettingsPageModContentFactoryImpl [[UserHomeSecuritySettingsPageModContentFactoryImpl.html]] {
            +createContent(String, MenuBar, Panel): Layout
            +matches(String, String): boolean
        }

        com.hack23.cia.web.impl.ui.application.views.common.pagemode.AbstractBasicPageModContentFactoryImpl <|- - UserHomeOverviewPageModContentFactoryImpl
        com.hack23.cia.web.impl.ui.application.views.common.pagemode.AbstractBasicPageModContentFactoryImpl <|- - UserHomeApplicationEventsPageModContentFactoryImpl
        com.hack23.cia.web.impl.ui.application.views.common.pagemode.AbstractBasicPageModContentFactoryImpl <|- - UserHomeApplicationSessionsPageModContentFactoryImpl
        com.hack23.cia.web.impl.ui.application.views.common.pagemode.AbstractBasicPageModContentFactoryImpl <|- - UserHomeSecuritySettingsPageModContentFactoryImpl
    }

    namespace com.hack23.cia.web.impl.ui.application.views.common.pagemode {
        abstract class AbstractBasicPageModContentFactoryImpl [[../../../common/pagemode/AbstractBasicPageModContentFactoryImpl.html]]
    }

    center footer UMLDoclet 2.0.20, PlantUML 1.2022.12
@enduml

PlantUML version 1.2022.12(Sun Oct 23 20:12:26 CEST 2022)
(APACHE source distribution)
Java Runtime: OpenJDK Runtime Environment
JVM: OpenJDK 64-Bit Server VM
Default Encoding: UTF-8
Language: 
Country: 
--></g></svg>