<?xml version="1.0" encoding="UTF-8" standalone="no"?><svg xmlns="http://www.w3.org/2000/svg" xmlns:xlink="http://www.w3.org/1999/xlink" contentStyleType="text/css" height="256px" preserveAspectRatio="none" style="width:368px;height:256px;background:#FFFFFF;" version="1.1" viewBox="0 0 368 256" width="368px" zoomAndPan="magnify"><defs/><g><!--MD5=[b514bd1384b582837b6a81519e727e93]
class com.hack23.cia.web.impl.ui.application.views.pageclicklistener.DecisionFlowValueChangeListener--><a href="DecisionFlowValueChangeListener.html" target="_top" title="DecisionFlowValueChangeListener.html" xlink:actuate="onRequest" xlink:href="DecisionFlowValueChangeListener.html" xlink:show="new" xlink:title="DecisionFlowValueChangeListener.html" xlink:type="simple"><g id="elem_com.hack23.cia.web.impl.ui.application.views.pageclicklistener.DecisionFlowValueChangeListener"><rect codeLine="5" fill="#F1F1F1" height="88.8237" id="com.hack23.cia.web.impl.ui.application.views.pageclicklistener.DecisionFlowValueChangeListener" rx="2.5" ry="2.5" style="stroke:#181818;stroke-width:0.5;" width="354" x="7" y="140.016"/><ellipse cx="29.65" cy="161.36" fill="#ADD1B2" rx="11" ry="11" style="stroke:#181818;stroke-width:1.0;"/><path d="M32.6188,167.0006 Q32.0406,167.2975 31.4,167.4381 Q30.7594,167.5944 30.0563,167.5944 Q27.5563,167.5944 26.2281,165.9537 Q24.9156,164.2975 24.9156,161.1725 Q24.9156,158.0475 26.2281,156.3912 Q27.5563,154.735 30.0563,154.735 Q30.7594,154.735 31.4,154.8912 Q32.0563,155.0475 32.6188,155.3444 L32.6188,158.0631 Q31.9938,157.485 31.4,157.2194 Q30.8063,156.9381 30.1813,156.9381 Q28.8375,156.9381 28.15,158.0162 Q27.4625,159.0787 27.4625,161.1725 Q27.4625,163.2662 28.15,164.3444 Q28.8375,165.4069 30.1813,165.4069 Q30.8063,165.4069 31.4,165.1412 Q31.9938,164.86 32.6188,164.2819 L32.6188,167.0006 Z " fill="#000000"/><text fill="#000000" font-family="sans-serif" font-size="14" lengthAdjust="spacing" textLength="230" x="82.85" y="159.982">DecisionFlowValueChangeListener</text><text fill="#000000" font-family="sans-serif" font-size="10" lengthAdjust="spacing" textLength="305" x="45.35" y="174.7739">com.hack23.cia.web.impl.ui.application.views.pageclicklistener</text><line style="stroke:#181818;stroke-width:0.5;" x1="8" x2="360" y1="182.7039" y2="182.7039"/><ellipse cx="18" cy="197.7379" fill="#84BE84" rx="3" ry="3" style="stroke:#038048;stroke-width:1.0;"/><text fill="#000000" font-family="sans-serif" font-size="14" lengthAdjust="spacing" textLength="328" x="27" y="201.6699">DecisionFlowValueChangeListener(String, String)</text><ellipse cx="18" cy="216.8058" fill="#84BE84" rx="3" ry="3" style="stroke:#038048;stroke-width:1.0;"/><text fill="#000000" font-family="sans-serif" font-size="14" lengthAdjust="spacing" textLength="315" x="27" y="220.7378">valueChange(ValueChangeEvent&lt;String&gt;): void</text></g></a><!--MD5=[f2af7cc9d3f2fd589a51e906cadb6c91]
class com.vaadin.data.HasValue.ValueChangeListener--><g id="elem_com.vaadin.data.HasValue.ValueChangeListener"><rect codeLine="10" fill="#F1F1F1" height="69.7558" id="com.vaadin.data.HasValue.ValueChangeListener" rx="2.5" ry="2.5" style="stroke:#181818;stroke-width:0.5;" width="290" x="39" y="10.016"/><ellipse cx="66.15" cy="31.36" fill="#B4A7E5" rx="11" ry="11" style="stroke:#181818;stroke-width:1.0;"/><path d="M62.0719,27.1256 L62.0719,24.9694 L69.4625,24.9694 L69.4625,27.1256 L66.9938,27.1256 L66.9938,35.2037 L69.4625,35.2037 L69.4625,37.36 L62.0719,37.36 L62.0719,35.2037 L64.5406,35.2037 L64.5406,27.1256 L62.0719,27.1256 Z " fill="#000000"/><text fill="#000000" font-family="sans-serif" font-size="14" font-style="italic" lengthAdjust="spacing" textLength="195" x="82.85" y="29.982">HasValue.ValueChangeListener</text><text fill="#000000" font-family="sans-serif" font-size="10" font-style="italic" lengthAdjust="spacing" textLength="79" x="140.85" y="44.7739">com.vaadin.data</text><rect fill="#FFFFFF" height="18.3441" style="stroke:#181818;stroke-width:1.0;stroke-dasharray:2.0,2.0;" width="34" x="298" y="7.016"/><text fill="#000000" font-family="sans-serif" font-size="12" font-style="italic" lengthAdjust="spacing" textLength="32" x="299" y="20.8441">String</text><line style="stroke:#181818;stroke-width:0.5;" x1="40" x2="328" y1="52.7039" y2="52.7039"/><ellipse cx="50" cy="67.7379" fill="#84BE84" rx="3" ry="3" style="stroke:#038048;stroke-width:1.0;"/><text fill="#000000" font-family="sans-serif" font-size="14" font-style="italic" lengthAdjust="spacing" textLength="264" x="59" y="71.6699">valueChange(ValueChangeEvent&lt;V&gt;): void</text></g><!--MD5=[de2012103beac14e1c0aef30caa6a7c6]
reverse link com.vaadin.data.HasValue.ValueChangeListener to com.hack23.cia.web.impl.ui.application.views.pageclicklistener.DecisionFlowValueChangeListener--><g id="link_com.vaadin.data.HasValue.ValueChangeListener_com.hack23.cia.web.impl.ui.application.views.pageclicklistener.DecisionFlowValueChangeListener"><path codeLine="14" d="M184,100.666 C184,113.736 184,127.506 184,139.996 " fill="none" id="com.vaadin.data.HasValue.ValueChangeListener-backto-com.hack23.cia.web.impl.ui.application.views.pageclicklistener.DecisionFlowValueChangeListener" style="stroke:#181818;stroke-width:1.0;stroke-dasharray:7.0,7.0;"/><polygon fill="none" points="177,100.356,184,80.356,191,100.356,177,100.356" style="stroke:#181818;stroke-width:1.0;"/></g><rect fill="none" height="13.62" style="stroke:none;stroke-width:1.0;" width="188" x="83" y="234.8398"/><text fill="#888888" font-family="sans-serif" font-size="10" lengthAdjust="spacing" textLength="188" x="83" y="245.5298">UMLDoclet 2.0.20, PlantUML 1.2022.12</text><!--MD5=[0513bbe9231654cab0de5adb036b7f8d]
@startuml
    set namespaceSeparator none
    hide empty fields
    hide empty methods

    class "<size:14>DecisionFlowValueChangeListener\n<size:10>com.hack23.cia.web.impl.ui.application.views.pageclicklistener" as com.hack23.cia.web.impl.ui.application.views.pageclicklistener.DecisionFlowValueChangeListener [[DecisionFlowValueChangeListener.html]] {
        +DecisionFlowValueChangeListener(String, String)
        +valueChange(ValueChangeEvent<String>): void
    }

    interface "<size:14>HasValue.ValueChangeListener\n<size:10>com.vaadin.data" as com.vaadin.data.HasValue.ValueChangeListener<String> {
        {abstract} +valueChange(ValueChangeEvent<V>): void
    }

    com.vaadin.data.HasValue.ValueChangeListener <|.. com.hack23.cia.web.impl.ui.application.views.pageclicklistener.DecisionFlowValueChangeListener

    center footer UMLDoclet 2.0.20, PlantUML 1.2022.12
@enduml

PlantUML version 1.2022.12(Sun Oct 23 20:12:26 CEST 2022)
(APACHE source distribution)
Java Runtime: OpenJDK Runtime Environment
JVM: OpenJDK 64-Bit Server VM
Default Encoding: UTF-8
Language: 
Country: 
--></g></svg>