<svg xmlns="http://www.w3.org/2000/svg" xmlns:xlink="http://www.w3.org/1999/xlink" contentStyleType="text/css" height="255px" preserveAspectRatio="none" style="width:398px;height:255px;background:#FFFFFF;" version="1.1" viewBox="0 0 398 255" width="398px" zoomAndPan="magnify"><defs/><g><!--class com.hack23.cia.web.impl.ui.application.views.pageclicklistener.PageItemPropertyClickListener--><a href="PageItemPropertyClickListener.html" target="_top" title="PageItemPropertyClickListener.html" xlink:actuate="onRequest" xlink:href="PageItemPropertyClickListener.html" xlink:show="new" xlink:title="PageItemPropertyClickListener.html" xlink:type="simple"><g id="elem_com.hack23.cia.web.impl.ui.application.views.pageclicklistener.PageItemPropertyClickListener"><rect codeLine="13" fill="#F1F1F1" height="107.8917" id="com.hack23.cia.web.impl.ui.application.views.pageclicklistener.PageItemPropertyClickListener" rx="2.5" ry="2.5" style="stroke:#181818;stroke-width:0.5;" width="385.5607" x="6" y="118"/><ellipse cx="47.9284" cy="139.344" fill="#ADD1B2" rx="11" ry="11" style="stroke:#181818;stroke-width:1.0;"/><path d="M50.8971,144.9846 Q50.319,145.2815 49.6784,145.4221 Q49.0378,145.5783 48.3346,145.5783 Q45.8346,145.5783 44.5065,143.9377 Q43.194,142.2815 43.194,139.1565 Q43.194,136.0315 44.5065,134.3752 Q45.8346,132.719 48.3346,132.719 Q49.0378,132.719 49.6784,132.8752 Q50.3346,133.0315 50.8971,133.3283 L50.8971,136.0471 Q50.2721,135.469 49.6784,135.2033 Q49.0846,134.9221 48.4596,134.9221 Q47.1159,134.9221 46.4284,136.0002 Q45.7409,137.0627 45.7409,139.1565 Q45.7409,141.2502 46.4284,142.3283 Q47.1159,143.3908 48.4596,143.3908 Q49.0846,143.3908 49.6784,143.1252 Q50.2721,142.844 50.8971,142.2658 L50.8971,144.9846 Z " fill="#000000"/><text fill="#000000" font-family="sans-serif" font-size="14" lengthAdjust="spacing" textLength="204.0212" x="112.7618" y="137.9659">PageItemPropertyClickListener</text><text fill="#000000" font-family="sans-serif" font-size="10" lengthAdjust="spacing" textLength="293.7198" x="67.9125" y="152.7579">com.hack23.cia.web.impl.ui.application.views.pageclicklistener</text><line style="stroke:#181818;stroke-width:0.5;" x1="7" x2="390.5607" y1="160.6879" y2="160.6879"/><ellipse cx="17" cy="175.7219" fill="#84BE84" rx="3" ry="3" style="stroke:#038048;stroke-width:1.0;"/><text fill="#000000" font-family="sans-serif" font-size="14" lengthAdjust="spacing" textLength="298.6049" x="26" y="179.6538">PageItemPropertyClickListener(String, String)</text><ellipse cx="17" cy="194.7898" fill="#84BE84" rx="3" ry="3" style="stroke:#038048;stroke-width:1.0;"/><text fill="#000000" font-family="sans-serif" font-size="14" lengthAdjust="spacing" textLength="359.5607" x="26" y="198.7218">PageItemPropertyClickListener(String, String, boolean)</text><polygon fill="#FFFF44" points="17,208.8577,21,212.8577,17,216.8577,13,212.8577" style="stroke:#B38D22;stroke-width:1.0;"/><text fill="#000000" font-family="sans-serif" font-size="14" lengthAdjust="spacing" textLength="197.5393" x="26" y="217.7897">getPageId(Serializable): String</text></g></a><!--class com.hack23.cia.web.impl.ui.application.views.pageclicklistener.AbstractPageItemRendererClickListener--><a href="AbstractPageItemRendererClickListener.html" target="_top" title="AbstractPageItemRendererClickListener.html" xlink:actuate="onRequest" xlink:href="AbstractPageItemRendererClickListener.html" xlink:show="new" xlink:title="AbstractPageItemRendererClickListener.html" xlink:type="simple"><g id="elem_com.hack23.cia.web.impl.ui.application.views.pageclicklistener.AbstractPageItemRendererClickListener"><rect codeLine="19" fill="#F1F1F1" height="69.7558" id="com.hack23.cia.web.impl.ui.application.views.pageclicklistener.AbstractPageItemRendererClickListener" rx="2.5" ry="2.5" style="stroke:#181818;stroke-width:0.5;" width="375.0561" x="11.5" y="12"/><ellipse cx="26.5" cy="33.344" fill="#A9DCDF" rx="11" ry="11" style="stroke:#181818;stroke-width:1.0;"/><path d="M26.6094,28.6877 L25.4531,33.7658 L27.7813,33.7658 L26.6094,28.6877 Z M25.125,26.4533 L28.1094,26.4533 L31.4688,38.844 L29.0156,38.844 L28.25,35.7815 L24.9688,35.7815 L24.2188,38.844 L21.7813,38.844 L25.125,26.4533 Z " fill="#000000"/><text fill="#000000" font-family="sans-serif" font-size="14" font-style="italic" lengthAdjust="spacing" textLength="244.2851" x="57.3273" y="31.9659">AbstractPageItemRendererClickListener</text><text fill="#000000" font-family="sans-serif" font-size="10" font-style="italic" lengthAdjust="spacing" textLength="277.9397" x="40.5" y="46.7579">com.hack23.cia.web.impl.ui.application.views.pageclicklistener</text><rect fill="#FFFFFF" height="18.3441" style="stroke:#181818;stroke-width:1.0;stroke-dasharray:2.0,2.0;" width="63.1164" x="326.4397" y="9"/><text fill="#000000" font-family="sans-serif" font-size="12" font-style="italic" lengthAdjust="spacing" textLength="61.1164" x="327.4397" y="22.8281">Serializable</text><line style="stroke:#181818;stroke-width:0.5;" x1="12.5" x2="385.5561" y1="54.6879" y2="54.6879"/><polygon fill="#FFFF44" points="22.5,64.7219,26.5,68.7219,22.5,72.7219,18.5,68.7219" style="stroke:#B38D22;stroke-width:1.0;"/><text fill="#000000" font-family="sans-serif" font-size="14" font-style="italic" lengthAdjust="spacing" textLength="187.1233" x="31.5" y="73.6538">getPageId(Serializable): String</text></g></a><polygon fill="none" points="199,82.2624,193,100.2624,205,100.2624,199,82.2624" style="stroke:#181818;stroke-width:1.0;"/><path d="M199,100.2624 C199,111.2092 199,105.5989 199,117.5731 " fill="none" style="stroke:#181818;stroke-width:1.0;"/><text fill="#888888" font-family="sans-serif" font-size="10" lengthAdjust="spacing" textLength="2.6" x="194.2" y="230.69">&#160;</text><a href="https://github.com/talsma-ict/umldoclet" target="_top" title="https://github.com/talsma-ict/umldoclet" xlink:actuate="onRequest" xlink:href="https://github.com/talsma-ict/umldoclet" xlink:show="new" xlink:title="https://github.com/talsma-ict/umldoclet" xlink:type="simple"><text fill="#888888" font-family="sans-serif" font-size="10" lengthAdjust="spacing" textLength="76.7199" x="157.14" y="244.31">UMLDoclet 2.2.1</text></a><!--SRC=[pLHDJnin4BttLqpXq20IPtUJKeWYf2YjMgfKGYISGWuJxx1hnMjlRIyeKFvxlH-452f4MxMgBzREnvitRxm30F06nZfV6v6a3fm6bmeBvrycW2g6X1GPT1I3o30X2qkIMYMs3YJ0mgNQWBwilhWsXcokLInK0f_n2i7gmd2oxDKhg4hDxj6lqMwXBzUbyRtcaXoqndjRbA8WFEX4GNG0CvGsGpWPprY3zf0JiOY5uB6buAIiXonKJAQYDSgH-sjIUzfmHSOAhNnEqE2KhNAj70fb8KVZRDdIgKJbIguXy_Nxx1sqHjF9Zzo2eufR6qP6OH73cVvQRDfzdHjCF6E9Qrqui1avL5Zxh2UjCFDo8QSf-QBel99AAwhygOW9AClT6Yu5oTW-jdgmL7jpPUSIhOMTeHKtD0ZxnwT-M2UEibEZSp9kFVQoh2R2kbBn2zN41STSPon5lefwZ0jarxHa8iibAmJ3FFT9wBnIx4hGjMMv1-Kba6o0Ti0FySyWsBDCOJv_rizIbyd50cuh4Sgp_snyQ-gCVvfjgE-ztqjhmr9hIQWUydSJSXL4t9gI4IZ53IubxGsQb2hmhfuLBgqpoDsJeOqQnpsNCogVC9d_TtWlOZpSLkJOZ_H5MKz7UtiltDqloVqlMeJXjqxdh_u9TIz3wzPUmuqabrexN_r1e_9yMllqYL2hiPP-e-mU_jnxNlOXXIA_albAaN-AmIRohYxNtQhNrBfGytdgN6u7tMuYN5eicU-xwwhTt17STOjCnlLIVhIU5ujctNxSxFroTtQ2g1FqPc5lq0y7_HxhlpqCZyB3ADmFma4Gp3yKfI3TgTDybMgPBRu3]--></g></svg>