<?xml version="1.0" encoding="UTF-8" standalone="no"?><svg xmlns="http://www.w3.org/2000/svg" xmlns:xlink="http://www.w3.org/1999/xlink" contentStyleType="text/css" height="253px" preserveAspectRatio="none" style="width:648px;height:253px;background:#FFFFFF;" version="1.1" viewBox="0 0 648 253" width="648px" zoomAndPan="magnify"><defs/><g><!--MD5=[dd454efb661e8082eb9988f93b3f3449]
class com.hack23.cia.web.impl.ui.application.views.pageclicklistener.SetGoogleAuthenticatorCredentialClickListener--><a href="SetGoogleAuthenticatorCredentialClickListener.html" target="_top" title="SetGoogleAuthenticatorCredentialClickListener.html" xlink:actuate="onRequest" xlink:href="SetGoogleAuthenticatorCredentialClickListener.html" xlink:show="new" xlink:title="SetGoogleAuthenticatorCredentialClickListener.html" xlink:type="simple"><g id="elem_com.hack23.cia.web.impl.ui.application.views.pageclicklistener.SetGoogleAuthenticatorCredentialClickListener"><rect codeLine="5" fill="#F1F1F1" height="88.8237" id="com.hack23.cia.web.impl.ui.application.views.pageclicklistener.SetGoogleAuthenticatorCredentialClickListener" rx="2.5" ry="2.5" style="stroke:#181818;stroke-width:0.5;" width="634" x="7" y="137"/><ellipse cx="162.25" cy="158.344" fill="#ADD1B2" rx="11" ry="11" style="stroke:#181818;stroke-width:1.0;"/><path d="M165.2188,163.9846 Q164.6406,164.2815 164,164.4221 Q163.3594,164.5783 162.6563,164.5783 Q160.1563,164.5783 158.8281,162.9377 Q157.5156,161.2815 157.5156,158.1565 Q157.5156,155.0315 158.8281,153.3752 Q160.1563,151.719 162.6563,151.719 Q163.3594,151.719 164,151.8752 Q164.6563,152.0315 165.2188,152.3283 L165.2188,155.0471 Q164.5938,154.469 164,154.2033 Q163.4063,153.9221 162.7813,153.9221 Q161.4375,153.9221 160.75,155.0002 Q160.0625,156.0627 160.0625,158.1565 Q160.0625,160.2502 160.75,161.3283 Q161.4375,162.3908 162.7813,162.3908 Q163.4063,162.3908 164,162.1252 Q164.5938,161.844 165.2188,161.2658 L165.2188,163.9846 Z " fill="#000000"/><text fill="#000000" font-family="sans-serif" font-size="14" lengthAdjust="spacing" textLength="315" x="182.75" y="156.9659">SetGoogleAuthenticatorCredentialClickListener</text><text fill="#000000" font-family="sans-serif" font-size="10" lengthAdjust="spacing" textLength="305" x="187.75" y="171.7579">com.hack23.cia.web.impl.ui.application.views.pageclicklistener</text><line style="stroke:#181818;stroke-width:0.5;" x1="8" x2="640" y1="179.6879" y2="179.6879"/><ellipse cx="18" cy="194.7219" fill="#84BE84" rx="3" ry="3" style="stroke:#038048;stroke-width:1.0;"/><text fill="#000000" font-family="sans-serif" font-size="14" lengthAdjust="spacing" textLength="608" x="27" y="198.6538">SetGoogleAuthenticatorCredentialClickListener(SetGoogleAuthenticatorCredentialRequest)</text><ellipse cx="18" cy="213.7898" fill="#84BE84" rx="3" ry="3" style="stroke:#038048;stroke-width:1.0;"/><text fill="#000000" font-family="sans-serif" font-size="14" lengthAdjust="spacing" textLength="188" x="27" y="217.7218">buttonClick(ClickEvent): void</text></g></a><!--MD5=[c8b74d6c3e7b4a4086db53b8a4347040]
class com.vaadin.ui.Button.ClickListener--><g id="elem_com.vaadin.ui.Button.ClickListener"><rect codeLine="10" fill="#F1F1F1" height="69.7558" id="com.vaadin.ui.Button.ClickListener" rx="2.5" ry="2.5" style="stroke:#181818;stroke-width:0.5;" width="203" x="222.5" y="7"/><ellipse cx="258.2" cy="28.344" fill="#B4A7E5" rx="11" ry="11" style="stroke:#181818;stroke-width:1.0;"/><path d="M254.1219,24.1096 L254.1219,21.9533 L261.5125,21.9533 L261.5125,24.1096 L259.0438,24.1096 L259.0438,32.1877 L261.5125,32.1877 L261.5125,34.344 L254.1219,34.344 L254.1219,32.1877 L256.5906,32.1877 L256.5906,24.1096 L254.1219,24.1096 Z " fill="#000000"/><text fill="#000000" font-family="sans-serif" font-size="14" font-style="italic" lengthAdjust="spacing" textLength="125" x="276.8" y="26.9659">Button.ClickListener</text><text fill="#000000" font-family="sans-serif" font-size="10" font-style="italic" lengthAdjust="spacing" textLength="67" x="305.8" y="41.7579">com.vaadin.ui</text><line style="stroke:#181818;stroke-width:0.5;" x1="223.5" x2="424.5" y1="49.6879" y2="49.6879"/><ellipse cx="233.5" cy="64.7219" fill="#84BE84" rx="3" ry="3" style="stroke:#038048;stroke-width:1.0;"/><text fill="#000000" font-family="sans-serif" font-size="14" font-style="italic" lengthAdjust="spacing" textLength="177" x="242.5" y="68.6538">buttonClick(ClickEvent): void</text></g><!--MD5=[721d661abfe85a044e0bf3c1ec3c0e2e]
reverse link com.vaadin.ui.Button.ClickListener to com.hack23.cia.web.impl.ui.application.views.pageclicklistener.SetGoogleAuthenticatorCredentialClickListener--><g id="link_com.vaadin.ui.Button.ClickListener_com.hack23.cia.web.impl.ui.application.views.pageclicklistener.SetGoogleAuthenticatorCredentialClickListener"><path codeLine="14" d="M324,97.65 C324,110.72 324,124.49 324,136.98 " fill="none" id="com.vaadin.ui.Button.ClickListener-backto-com.hack23.cia.web.impl.ui.application.views.pageclicklistener.SetGoogleAuthenticatorCredentialClickListener" style="stroke:#181818;stroke-width:1.0;stroke-dasharray:7.0,7.0;"/><polygon fill="none" points="317,97.34,324,77.34,331,97.34,317,97.34" style="stroke:#181818;stroke-width:1.0;"/></g><rect fill="none" height="13.62" style="stroke:none;stroke-width:1.0;" width="188" x="223" y="231.8237"/><text fill="#888888" font-family="sans-serif" font-size="10" lengthAdjust="spacing" textLength="188" x="223" y="242.5137">UMLDoclet 2.0.20, PlantUML 1.2022.12</text><!--MD5=[e5a0f0de16438d007435828bb879ad94]
@startuml
    set namespaceSeparator none
    hide empty fields
    hide empty methods

    class "<size:14>SetGoogleAuthenticatorCredentialClickListener\n<size:10>com.hack23.cia.web.impl.ui.application.views.pageclicklistener" as com.hack23.cia.web.impl.ui.application.views.pageclicklistener.SetGoogleAuthenticatorCredentialClickListener [[SetGoogleAuthenticatorCredentialClickListener.html]] {
        +SetGoogleAuthenticatorCredentialClickListener(SetGoogleAuthenticatorCredentialRequest)
        +buttonClick(ClickEvent): void
    }

    interface "<size:14>Button.ClickListener\n<size:10>com.vaadin.ui" as com.vaadin.ui.Button.ClickListener {
        {abstract} +buttonClick(ClickEvent): void
    }

    com.vaadin.ui.Button.ClickListener <|.. com.hack23.cia.web.impl.ui.application.views.pageclicklistener.SetGoogleAuthenticatorCredentialClickListener

    center footer UMLDoclet 2.0.20, PlantUML 1.2022.12
@enduml

PlantUML version 1.2022.12(Sun Oct 23 20:12:26 CEST 2022)
(APACHE source distribution)
Java Runtime: OpenJDK Runtime Environment
JVM: OpenJDK 64-Bit Server VM
Default Encoding: UTF-8
Language: 
Country: 
--></g></svg>