<?xml version="1.0" encoding="UTF-8" standalone="no"?><svg xmlns="http://www.w3.org/2000/svg" xmlns:xlink="http://www.w3.org/1999/xlink" contentStyleType="text/css" height="253px" preserveAspectRatio="none" style="width:624px;height:253px;background:#FFFFFF;" version="1.1" viewBox="0 0 624 253" width="624px" zoomAndPan="magnify"><defs/><g><!--MD5=[1179e0f82e61d1bc6fc6fd7cdee5fda6]
class com.hack23.cia.web.impl.ui.application.views.pageclicklistener.UpdateApplicationConfigurationClickListener--><a href="UpdateApplicationConfigurationClickListener.html" target="_top" title="UpdateApplicationConfigurationClickListener.html" xlink:actuate="onRequest" xlink:href="UpdateApplicationConfigurationClickListener.html" xlink:show="new" xlink:title="UpdateApplicationConfigurationClickListener.html" xlink:type="simple"><g id="elem_com.hack23.cia.web.impl.ui.application.views.pageclicklistener.UpdateApplicationConfigurationClickListener"><rect codeLine="5" fill="#F1F1F1" height="88.8237" id="com.hack23.cia.web.impl.ui.application.views.pageclicklistener.UpdateApplicationConfigurationClickListener" rx="2.5" ry="2.5" style="stroke:#181818;stroke-width:0.5;" width="610" x="7" y="137"/><ellipse cx="155.25" cy="158.344" fill="#ADD1B2" rx="11" ry="11" style="stroke:#181818;stroke-width:1.0;"/><path d="M158.2188,163.9846 Q157.6406,164.2815 157,164.4221 Q156.3594,164.5783 155.6563,164.5783 Q153.1563,164.5783 151.8281,162.9377 Q150.5156,161.2815 150.5156,158.1565 Q150.5156,155.0315 151.8281,153.3752 Q153.1563,151.719 155.6563,151.719 Q156.3594,151.719 157,151.8752 Q157.6563,152.0315 158.2188,152.3283 L158.2188,155.0471 Q157.5938,154.469 157,154.2033 Q156.4063,153.9221 155.7813,153.9221 Q154.4375,153.9221 153.75,155.0002 Q153.0625,156.0627 153.0625,158.1565 Q153.0625,160.2502 153.75,161.3283 Q154.4375,162.3908 155.7813,162.3908 Q156.4063,162.3908 157,162.1252 Q157.5938,161.844 158.2188,161.2658 L158.2188,163.9846 Z " fill="#000000"/><text fill="#000000" font-family="sans-serif" font-size="14" lengthAdjust="spacing" textLength="303" x="176.75" y="156.9659">UpdateApplicationConfigurationClickListener</text><text fill="#000000" font-family="sans-serif" font-size="10" lengthAdjust="spacing" textLength="305" x="175.75" y="171.7579">com.hack23.cia.web.impl.ui.application.views.pageclicklistener</text><line style="stroke:#181818;stroke-width:0.5;" x1="8" x2="616" y1="179.6879" y2="179.6879"/><ellipse cx="18" cy="194.7219" fill="#84BE84" rx="3" ry="3" style="stroke:#038048;stroke-width:1.0;"/><text fill="#000000" font-family="sans-serif" font-size="14" lengthAdjust="spacing" textLength="584" x="27" y="198.6538">UpdateApplicationConfigurationClickListener(UpdateApplicationConfigurationRequest)</text><ellipse cx="18" cy="213.7898" fill="#84BE84" rx="3" ry="3" style="stroke:#038048;stroke-width:1.0;"/><text fill="#000000" font-family="sans-serif" font-size="14" lengthAdjust="spacing" textLength="188" x="27" y="217.7218">buttonClick(ClickEvent): void</text></g></a><!--MD5=[c8b74d6c3e7b4a4086db53b8a4347040]
class com.vaadin.ui.Button.ClickListener--><g id="elem_com.vaadin.ui.Button.ClickListener"><rect codeLine="10" fill="#F1F1F1" height="69.7558" id="com.vaadin.ui.Button.ClickListener" rx="2.5" ry="2.5" style="stroke:#181818;stroke-width:0.5;" width="203" x="210.5" y="7"/><ellipse cx="246.2" cy="28.344" fill="#B4A7E5" rx="11" ry="11" style="stroke:#181818;stroke-width:1.0;"/><path d="M242.1219,24.1096 L242.1219,21.9533 L249.5125,21.9533 L249.5125,24.1096 L247.0438,24.1096 L247.0438,32.1877 L249.5125,32.1877 L249.5125,34.344 L242.1219,34.344 L242.1219,32.1877 L244.5906,32.1877 L244.5906,24.1096 L242.1219,24.1096 Z " fill="#000000"/><text fill="#000000" font-family="sans-serif" font-size="14" font-style="italic" lengthAdjust="spacing" textLength="125" x="264.8" y="26.9659">Button.ClickListener</text><text fill="#000000" font-family="sans-serif" font-size="10" font-style="italic" lengthAdjust="spacing" textLength="67" x="293.8" y="41.7579">com.vaadin.ui</text><line style="stroke:#181818;stroke-width:0.5;" x1="211.5" x2="412.5" y1="49.6879" y2="49.6879"/><ellipse cx="221.5" cy="64.7219" fill="#84BE84" rx="3" ry="3" style="stroke:#038048;stroke-width:1.0;"/><text fill="#000000" font-family="sans-serif" font-size="14" font-style="italic" lengthAdjust="spacing" textLength="177" x="230.5" y="68.6538">buttonClick(ClickEvent): void</text></g><!--MD5=[3e3cc21b74f7aa0ca8d9cbb22911b899]
reverse link com.vaadin.ui.Button.ClickListener to com.hack23.cia.web.impl.ui.application.views.pageclicklistener.UpdateApplicationConfigurationClickListener--><g id="link_com.vaadin.ui.Button.ClickListener_com.hack23.cia.web.impl.ui.application.views.pageclicklistener.UpdateApplicationConfigurationClickListener"><path codeLine="14" d="M312,97.65 C312,110.72 312,124.49 312,136.98 " fill="none" id="com.vaadin.ui.Button.ClickListener-backto-com.hack23.cia.web.impl.ui.application.views.pageclicklistener.UpdateApplicationConfigurationClickListener" style="stroke:#181818;stroke-width:1.0;stroke-dasharray:7.0,7.0;"/><polygon fill="none" points="305,97.34,312,77.34,319,97.34,305,97.34" style="stroke:#181818;stroke-width:1.0;"/></g><rect fill="none" height="13.62" style="stroke:none;stroke-width:1.0;" width="188" x="211" y="231.8237"/><text fill="#888888" font-family="sans-serif" font-size="10" lengthAdjust="spacing" textLength="188" x="211" y="242.5137">UMLDoclet 2.0.20, PlantUML 1.2022.12</text><!--MD5=[61f2a366653337c5cd8f6bc54434e70d]
@startuml
    set namespaceSeparator none
    hide empty fields
    hide empty methods

    class "<size:14>UpdateApplicationConfigurationClickListener\n<size:10>com.hack23.cia.web.impl.ui.application.views.pageclicklistener" as com.hack23.cia.web.impl.ui.application.views.pageclicklistener.UpdateApplicationConfigurationClickListener [[UpdateApplicationConfigurationClickListener.html]] {
        +UpdateApplicationConfigurationClickListener(UpdateApplicationConfigurationRequest)
        +buttonClick(ClickEvent): void
    }

    interface "<size:14>Button.ClickListener\n<size:10>com.vaadin.ui" as com.vaadin.ui.Button.ClickListener {
        {abstract} +buttonClick(ClickEvent): void
    }

    com.vaadin.ui.Button.ClickListener <|.. com.hack23.cia.web.impl.ui.application.views.pageclicklistener.UpdateApplicationConfigurationClickListener

    center footer UMLDoclet 2.0.20, PlantUML 1.2022.12
@enduml

PlantUML version 1.2022.12(Sun Oct 23 20:12:26 CEST 2022)
(APACHE source distribution)
Java Runtime: OpenJDK Runtime Environment
JVM: OpenJDK 64-Bit Server VM
Default Encoding: UTF-8
Language: 
Country: 
--></g></svg>