<svg xmlns="http://www.w3.org/2000/svg" xmlns:xlink="http://www.w3.org/1999/xlink" contentStyleType="text/css" height="350px" preserveAspectRatio="none" style="width:1400px;height:350px;background:#FFFFFF;" version="1.1" viewBox="0 0 1400 350" width="1400px" zoomAndPan="magnify"><defs/><g><!--class com.hack23.cia.web.impl.ui.application.views.common.pagemode.PoliticianLeaderboardUtil--><a href="PoliticianLeaderboardUtil.html" target="_top" title="PoliticianLeaderboardUtil.html" xlink:actuate="onRequest" xlink:href="PoliticianLeaderboardUtil.html" xlink:show="new" xlink:title="PoliticianLeaderboardUtil.html" xlink:type="simple"><g id="elem_com.hack23.cia.web.impl.ui.application.views.common.pagemode.PoliticianLeaderboardUtil"><rect codeLine="13" fill="#F1F1F1" height="230.2992" id="com.hack23.cia.web.impl.ui.application.views.common.pagemode.PoliticianLeaderboardUtil" rx="2.5" ry="2.5" style="stroke:#181818;stroke-width:0.5;" width="1387.103" x="6" y="91"/><ellipse cx="540.2417" cy="112.344" fill="#ADD1B2" rx="11" ry="11" style="stroke:#181818;stroke-width:1.0;"/><path d="M543.2104,117.9846 Q542.6323,118.2815 541.9917,118.4221 Q541.351,118.5783 540.6479,118.5783 Q538.1479,118.5783 536.8198,116.9377 Q535.5073,115.2815 535.5073,112.1565 Q535.5073,109.0315 536.8198,107.3752 Q538.1479,105.719 540.6479,105.719 Q541.351,105.719 541.9917,105.8752 Q542.6479,106.0315 543.2104,106.3283 L543.2104,109.0471 Q542.5854,108.469 541.9917,108.2033 Q541.3979,107.9221 540.7729,107.9221 Q539.4292,107.9221 538.7417,109.0002 Q538.0542,110.0627 538.0542,112.1565 Q538.0542,114.2502 538.7417,115.3283 Q539.4292,116.3908 540.7729,116.3908 Q541.3979,116.3908 541.9917,116.1252 Q542.5854,115.844 543.2104,115.2658 L543.2104,117.9846 Z " fill="#000000"/><text fill="#000000" font-family="sans-serif" font-size="14" lengthAdjust="spacing" textLength="166.8794" x="632.3618" y="110.9659">PoliticianLeaderboardUtil</text><text fill="#000000" font-family="sans-serif" font-size="10" lengthAdjust="spacing" textLength="310.1197" x="560.7417" y="125.7579">com.hack23.cia.web.impl.ui.application.views.common.pagemode</text><line style="stroke:#181818;stroke-width:0.5;" x1="7" x2="1392.103" y1="133.6879" y2="133.6879"/><ellipse cx="17" cy="148.7219" fill="none" rx="3" ry="3" style="stroke:#038048;stroke-width:1.0;"/><text fill="#000000" font-family="sans-serif" font-size="14" lengthAdjust="spacing" textLength="223.9151" x="26" y="152.6538">pageLinkFactory: PageLinkFactory</text><line style="stroke:#181818;stroke-width:0.5;" x1="7" x2="1392.103" y1="160.7558" y2="160.7558"/><ellipse cx="17" cy="175.7898" fill="#84BE84" rx="3" ry="3" style="stroke:#038048;stroke-width:1.0;"/><text fill="#000000" font-family="sans-serif" font-size="14" lengthAdjust="spacing" textLength="633.0915" x="26" y="179.7218">addPoliticalAnalysisComment(VerticalLayout, ViewRiksdagenPoliticianExperienceSummary): void</text><ellipse cx="17" cy="194.8577" fill="#84BE84" rx="3" ry="3" style="stroke:#038048;stroke-width:1.0;"/><text fill="#000000" font-family="sans-serif" font-size="14" lengthAdjust="spacing" textLength="574.3478" x="26" y="198.7897">addKnowledgeAreas(VerticalLayout, ViewRiksdagenPoliticianExperienceSummary): void</text><ellipse cx="17" cy="213.9256" fill="#84BE84" rx="3" ry="3" style="stroke:#038048;stroke-width:1.0;"/><text fill="#000000" font-family="sans-serif" font-size="14" lengthAdjust="spacing" textLength="524.004" x="26" y="217.8576">addTopRoles(VerticalLayout, ViewRiksdagenPoliticianExperienceSummary): void</text><ellipse cx="17" cy="232.9935" fill="#84BE84" rx="3" ry="3" style="stroke:#038048;stroke-width:1.0;"/><text fill="#000000" font-family="sans-serif" font-size="14" lengthAdjust="spacing" textLength="584.4697" x="26" y="236.9255">addExperienceMetrics(VerticalLayout, ViewRiksdagenPoliticianExperienceSummary): void</text><ellipse cx="17" cy="252.0614" fill="#84BE84" rx="3" ry="3" style="stroke:#038048;stroke-width:1.0;"/><text fill="#000000" font-family="sans-serif" font-size="14" lengthAdjust="spacing" textLength="445.9683" x="26" y="255.9934">addLegislativeMetrics(VerticalLayout, ViewRiksdagenPolitician): void</text><ellipse cx="17" cy="271.1294" fill="#84BE84" rx="3" ry="3" style="stroke:#038048;stroke-width:1.0;"/><text fill="#000000" font-family="sans-serif" font-size="14" lengthAdjust="spacing" textLength="746.1833" x="26" y="275.0613">addPartyAlignmentMetrics(VerticalLayout, ViewRiksdagenPolitician, ViewRiksdagenPoliticianBallotSummary): void</text><ellipse cx="17" cy="290.1973" fill="#84BE84" rx="3" ry="3" style="stroke:#038048;stroke-width:1.0;"/><text fill="#000000" font-family="sans-serif" font-size="14" lengthAdjust="spacing" textLength="821.8392" x="26" y="294.1293">addParliamentaryPerformanceMetrics(VerticalLayout, ViewRiksdagenPolitician, ViewRiksdagenPoliticianBallotSummary): void</text><ellipse cx="17" cy="309.2652" fill="#84BE84" rx="3" ry="3" style="stroke:#038048;stroke-width:1.0;"/><text fill="#000000" font-family="sans-serif" font-size="14" lengthAdjust="spacing" textLength="1361.103" x="26" y="313.1972">addMinistryRoleSummary(VerticalLayout, ViewRiksdagenGovermentRoleMember, Map&lt;String, List&lt;GovernmentBodyAnnualSummary&gt;&gt;, Map&lt;String, List&lt;GovernmentBodyAnnualOutcomeSummary&gt;&gt;): void</text></g></a><!--class com.hack23.cia.web.impl.ui.application.views.common.pagemode.CardInfoRowUtil--><a href="CardInfoRowUtil.html" target="_top" title="CardInfoRowUtil.html" xlink:actuate="onRequest" xlink:href="CardInfoRowUtil.html" xlink:show="new" xlink:title="CardInfoRowUtil.html" xlink:type="simple"><g id="elem_com.hack23.cia.web.impl.ui.application.views.common.pagemode.CardInfoRowUtil"><rect codeLine="25" fill="#F1F1F1" height="42.6879" id="com.hack23.cia.web.impl.ui.application.views.common.pagemode.CardInfoRowUtil" rx="2.5" ry="2.5" style="stroke:#181818;stroke-width:0.5;" width="342.1197" x="528.5" y="12"/><ellipse cx="543.5" cy="33.344" fill="#ADD1B2" rx="11" ry="11" style="stroke:#181818;stroke-width:1.0;"/><path d="M546.4688,38.9846 Q545.8906,39.2815 545.25,39.4221 Q544.6094,39.5783 543.9063,39.5783 Q541.4063,39.5783 540.0781,37.9377 Q538.7656,36.2815 538.7656,33.1565 Q538.7656,30.0315 540.0781,28.3752 Q541.4063,26.719 543.9063,26.719 Q544.6094,26.719 545.25,26.8752 Q545.9063,27.0315 546.4688,27.3283 L546.4688,30.0471 Q545.8438,29.469 545.25,29.2033 Q544.6563,28.9221 544.0313,28.9221 Q542.6875,28.9221 542,30.0002 Q541.3125,31.0627 541.3125,33.1565 Q541.3125,35.2502 542,36.3283 Q542.6875,37.3908 544.0313,37.3908 Q544.6563,37.3908 545.25,37.1252 Q545.8438,36.844 546.4688,36.2658 L546.4688,38.9846 Z " fill="#000000"/><text fill="#000000" font-family="sans-serif" font-size="14" lengthAdjust="spacing" textLength="108.4716" x="658.3241" y="31.9659">CardInfoRowUtil</text><text fill="#000000" font-family="sans-serif" font-size="10" lengthAdjust="spacing" textLength="310.1197" x="557.5" y="46.7579">com.hack23.cia.web.impl.ui.application.views.common.pagemode</text></g></a><polygon fill="none" points="699.5,55.0663,693.5,73.0663,705.5,73.0663,699.5,55.0663" style="stroke:#181818;stroke-width:1.0;"/><path d="M699.5,73.0663 C699.5,82.809 699.5,77.286 699.5,90.8727 " fill="none" style="stroke:#181818;stroke-width:1.0;"/><text fill="#888888" font-family="sans-serif" font-size="10" lengthAdjust="spacing" textLength="2.6" x="694.7" y="325.69">&#160;</text><a href="https://github.com/talsma-ict/umldoclet" target="_top" title="https://github.com/talsma-ict/umldoclet" xlink:actuate="onRequest" xlink:href="https://github.com/talsma-ict/umldoclet" xlink:show="new" xlink:title="https://github.com/talsma-ict/umldoclet" xlink:type="simple"><text fill="#888888" font-family="sans-serif" font-size="10" lengthAdjust="spacing" textLength="76.7199" x="657.64" y="339.31">UMLDoclet 2.2.1</text></a><!--SRC=[pLPHRzj637xlh-3QXwMeBSjEsgI6OS3rkgwhZHc9qnSt3xH4ImUVZkhToPwszh-FaZKx2P9YwJ9WUX54yhxl8- -E5030Zp3clBGgIJru1fyg1vVJ2Q298I535Zt5e39CoC6ID9l4xG89iF0fM-1L_HMnjUHoDh4o2VoA6mJ7XOt81K-UG4qr_njzY-uQ-hAiZ3znfCd3qVZvDKcziFkgtGjxBs6EscK8xyVpe44xhEa5lQ0BWgrLHCO9P65YihMiKOwHl2OxJmisP9rY8sl21gTADMBZKHa7ELhlgfHc6eslj7O3uJy9Jk5eT36vgIryNMjhmSWQB68uvy_5FjqVSek9ADPOSk71PUJHuCxdHBJ1JCg54LsGaAANIXesLFjJ5HDGbliILefqx6vR1InbCTVsIADpy7JWr1_KxvuCPwoLLv52Co6KEYmPRNpfbVvacfXm674Mf1YjUyU110PRMWOgotLGg03pNEg8NgeKR1HjNI31cNpaSWWoZkafoFRz6u3WNeMmMDph2rAVwQih-BDEkdfUL80JPTO_OoJrA_imksauH68SDy2eHmPrwPGRYoeo_kWZsTe-gNUg1Hz5yxbQkrZ0p47EszzpiegCx5YHPMZBvttOi8fla7mmlDKK9pIoXEvHeUUSdxEcnmKz14t9MnKzBlg44kMqd8JDG-7lGfl9tIn7MYMcshO70jxhU8DQi_z64aAh5LQK4Z0ZksARuSCBzlq2fieevsrPxNuJzctITonThX9ShPXIjYJRWYdcWmjHR9AMT4Fd1tLKNSet79SZOmhK3Vnm-0_ZVokyt6tQBxik_-lTtMair_czMV4vR_zNFUcMBkb4jonD_scoUaogmPTs-pzgg3kr0-TBJSFzgLenUvcFXqvQFR-KSgEhvZbcBSFesTdTtijgj6fbIAPvj3Oacnlk8x_kw3hN-1gkJsQnIBtFNR_JIPHFYsMLHCVNOxsj8jyfCXtlvlcjoIurtqtgT_jVXchijiFJTlTutWtbxFJ3q-3bwLdlzV79gxCNOQyVXektXUMSEXUUetNAEhlw2m00]--></g></svg>