<?xml version="1.0" encoding="UTF-8" standalone="no"?><svg xmlns="http://www.w3.org/2000/svg" xmlns:xlink="http://www.w3.org/1999/xlink" contentScriptType="application/ecmascript" contentStyleType="text/css" height="532px" preserveAspectRatio="none" style="width:924px;height:532px;background:#FFFFFF;" version="1.1" viewBox="0 0 924 532" width="924px" zoomAndPan="magnify"><defs><filter height="300%" id="f1f2ab8w4sy2en" width="300%" x="-1" y="-1"><feGaussianBlur result="blurOut" stdDeviation="2.0"/><feColorMatrix in="blurOut" result="blurOut2" type="matrix" values="0 0 0 0 0 0 0 0 0 0 0 0 0 0 0 0 0 0 .4 0"/><feOffset dx="4.0" dy="4.0" in="blurOut2" result="blurOut3"/><feBlend in="SourceGraphic" in2="blurOut3" mode="normal"/></filter></defs><g><!--MD5=[b6f7de69fe91c8bcc3328c73a6375d62]
cluster com.hack23.cia.web.impl.ui.application.views.user.common--><polygon fill="#FFFFFF" filter="url(#f1f2ab8w4sy2en)" points="16,155,493,155,500,177.2969,907,177.2969,907,509,16,509,16,155" style="stroke:#000000;stroke-width:1.5;"/><line style="stroke:#000000;stroke-width:1.5;" x1="16" x2="500" y1="177.2969" y2="177.2969"/><text fill="#000000" font-family="sans-serif" font-size="14" font-weight="bold" lengthAdjust="spacing" textLength="471" x="20" y="169.9951">com.hack23.cia.web.impl.ui.application.views.user.common</text><!--MD5=[ca7137a5cb5dd6a4f240bec724ad43a0]
cluster com.hack23.cia.web.impl.ui.application.views.common--><polygon fill="#FFFFFF" filter="url(#f1f2ab8w4sy2en)" points="252,6,688,6,695,28.2969,698,28.2969,698,131,252,131,252,6" style="stroke:#000000;stroke-width:1.5;"/><line style="stroke:#000000;stroke-width:1.5;" x1="252" x2="695" y1="28.2969" y2="28.2969"/><text fill="#000000" font-family="sans-serif" font-size="14" font-weight="bold" lengthAdjust="spacing" textLength="430" x="256" y="20.9951">com.hack23.cia.web.impl.ui.application.views.common</text><!--MD5=[968b4da468365d2329577b3d306a41ed]
class com.hack23.cia.web.impl.ui.application.views.user.common.AbstractUserView--><a href="AbstractUserView.html" target="_top" title="AbstractUserView.html" xlink:actuate="onRequest" xlink:href="AbstractUserView.html" xlink:show="new" xlink:title="AbstractUserView.html" xlink:type="simple"><rect codeLine="3" fill="#FEFECE" filter="url(#f1f2ab8w4sy2en)" height="60.8047" id="com.hack23.cia.web.impl.ui.application.views.user.common.AbstractUserView" style="stroke:#A80036;stroke-width:1.5;" width="402" x="242" y="190"/><ellipse cx="384.25" cy="206" fill="#A9DCDF" rx="11" ry="11" style="stroke:#A80036;stroke-width:1.0;"/><path d="M384.3594,201.3438 L383.2031,206.4219 L385.5313,206.4219 L384.3594,201.3438 Z M382.875,199.1094 L385.8594,199.1094 L389.2188,211.5 L386.7656,211.5 L386,208.4375 L382.7188,208.4375 L381.9688,211.5 L379.5313,211.5 L382.875,199.1094 Z " fill="#000000"/><text fill="#000000" font-family="sans-serif" font-size="12" font-style="italic" lengthAdjust="spacing" textLength="109" x="404.75" y="210.1543">AbstractUserView</text><line style="stroke:#A80036;stroke-width:1.5;" x1="243" x2="643" y1="222" y2="222"/><line style="stroke:#A80036;stroke-width:1.5;" x1="243" x2="643" y1="230" y2="230"/><polygon fill="#FFFF44" points="253,236,257,240,253,244,249,240" style="stroke:#B38D22;stroke-width:1.0;"/><text fill="#000000" font-family="sans-serif" font-size="11" lengthAdjust="spacing" textLength="376" x="262" y="244.2104">AbstractUserView(Map&lt;String, PageModeContentFactory&gt;, String)</text></a><!--MD5=[e5ab492ef72e0e56d61ba1726004a083]
class com.hack23.cia.web.impl.ui.application.views.user.common.AbstractActorView--><a href="AbstractActorView.html" target="_top" title="AbstractActorView.html" xlink:actuate="onRequest" xlink:href="AbstractActorView.html" xlink:show="new" xlink:title="AbstractActorView.html" xlink:type="simple"><rect codeLine="7" fill="#FEFECE" filter="url(#f1f2ab8w4sy2en)" height="60.8047" id="com.hack23.cia.web.impl.ui.application.views.user.common.AbstractActorView" style="stroke:#A80036;stroke-width:1.5;" width="404" x="33" y="311"/><ellipse cx="173.75" cy="327" fill="#A9DCDF" rx="11" ry="11" style="stroke:#A80036;stroke-width:1.0;"/><path d="M173.8594,322.3438 L172.7031,327.4219 L175.0313,327.4219 L173.8594,322.3438 Z M172.375,320.1094 L175.3594,320.1094 L178.7188,332.5 L176.2656,332.5 L175.5,329.4375 L172.2188,329.4375 L171.4688,332.5 L169.0313,332.5 L172.375,320.1094 Z " fill="#000000"/><text fill="#000000" font-family="sans-serif" font-size="12" font-style="italic" lengthAdjust="spacing" textLength="114" x="194.25" y="331.1543">AbstractActorView</text><line style="stroke:#A80036;stroke-width:1.5;" x1="34" x2="436" y1="343" y2="343"/><line style="stroke:#A80036;stroke-width:1.5;" x1="34" x2="436" y1="351" y2="351"/><ellipse cx="44" cy="362" fill="#84BE84" rx="3" ry="3" style="stroke:#038048;stroke-width:1.0;"/><text fill="#000000" font-family="sans-serif" font-size="11" lengthAdjust="spacing" textLength="378" x="53" y="365.2104">AbstractActorView(Map&lt;String, PageModeContentFactory&gt;, String)</text></a><!--MD5=[4d95a43774ca7342273458fa929c2e89]
class com.hack23.cia.web.impl.ui.application.views.user.common.AbstractGroupView--><a href="AbstractGroupView.html" target="_top" title="AbstractGroupView.html" xlink:actuate="onRequest" xlink:href="AbstractGroupView.html" xlink:show="new" xlink:title="AbstractGroupView.html" xlink:type="simple"><rect codeLine="11" fill="#FEFECE" filter="url(#f1f2ab8w4sy2en)" height="60.8047" id="com.hack23.cia.web.impl.ui.application.views.user.common.AbstractGroupView" style="stroke:#A80036;stroke-width:1.5;" width="410" x="32" y="432"/><ellipse cx="173.25" cy="448" fill="#A9DCDF" rx="11" ry="11" style="stroke:#A80036;stroke-width:1.0;"/><path d="M173.3594,443.3438 L172.2031,448.4219 L174.5313,448.4219 L173.3594,443.3438 Z M171.875,441.1094 L174.8594,441.1094 L178.2188,453.5 L175.7656,453.5 L175,450.4375 L171.7188,450.4375 L170.9688,453.5 L168.5313,453.5 L171.875,441.1094 Z " fill="#000000"/><text fill="#000000" font-family="sans-serif" font-size="12" font-style="italic" lengthAdjust="spacing" textLength="119" x="193.75" y="452.1543">AbstractGroupView</text><line style="stroke:#A80036;stroke-width:1.5;" x1="33" x2="441" y1="464" y2="464"/><line style="stroke:#A80036;stroke-width:1.5;" x1="33" x2="441" y1="472" y2="472"/><ellipse cx="43" cy="483" fill="#84BE84" rx="3" ry="3" style="stroke:#038048;stroke-width:1.0;"/><text fill="#000000" font-family="sans-serif" font-size="11" lengthAdjust="spacing" textLength="384" x="52" y="486.2104">AbstractGroupView(Map&lt;String, PageModeContentFactory&gt;, String)</text></a><!--MD5=[00a1846810b414438ee6460487108842]
class com.hack23.cia.web.impl.ui.application.views.user.common.AbstractPersonView--><a href="AbstractPersonView.html" target="_top" title="AbstractPersonView.html" xlink:actuate="onRequest" xlink:href="AbstractPersonView.html" xlink:show="new" xlink:title="AbstractPersonView.html" xlink:type="simple"><rect codeLine="15" fill="#FEFECE" filter="url(#f1f2ab8w4sy2en)" height="60.8047" id="com.hack23.cia.web.impl.ui.application.views.user.common.AbstractPersonView" style="stroke:#A80036;stroke-width:1.5;" width="415" x="476.5" y="432"/><ellipse cx="618.25" cy="448" fill="#A9DCDF" rx="11" ry="11" style="stroke:#A80036;stroke-width:1.0;"/><path d="M618.3594,443.3438 L617.2031,448.4219 L619.5313,448.4219 L618.3594,443.3438 Z M616.875,441.1094 L619.8594,441.1094 L623.2188,453.5 L620.7656,453.5 L620,450.4375 L616.7188,450.4375 L615.9688,453.5 L613.5313,453.5 L616.875,441.1094 Z " fill="#000000"/><text fill="#000000" font-family="sans-serif" font-size="12" font-style="italic" lengthAdjust="spacing" textLength="123" x="638.75" y="452.1543">AbstractPersonView</text><line style="stroke:#A80036;stroke-width:1.5;" x1="477.5" x2="890.5" y1="464" y2="464"/><line style="stroke:#A80036;stroke-width:1.5;" x1="477.5" x2="890.5" y1="472" y2="472"/><ellipse cx="487.5" cy="483" fill="#84BE84" rx="3" ry="3" style="stroke:#038048;stroke-width:1.0;"/><text fill="#000000" font-family="sans-serif" font-size="11" lengthAdjust="spacing" textLength="389" x="496.5" y="486.2104">AbstractPersonView(Map&lt;String, PageModeContentFactory&gt;, String)</text></a><!--MD5=[391696cd44669b86b1fc88d08221bc08]
class com.hack23.cia.web.impl.ui.application.views.user.common.AbstractRankingView--><a href="AbstractRankingView.html" target="_top" title="AbstractRankingView.html" xlink:actuate="onRequest" xlink:href="AbstractRankingView.html" xlink:show="new" xlink:title="AbstractRankingView.html" xlink:type="simple"><rect codeLine="19" fill="#FEFECE" filter="url(#f1f2ab8w4sy2en)" height="60.8047" id="com.hack23.cia.web.impl.ui.application.views.user.common.AbstractRankingView" style="stroke:#A80036;stroke-width:1.5;" width="419" x="472.5" y="311"/><ellipse cx="612.25" cy="327" fill="#A9DCDF" rx="11" ry="11" style="stroke:#A80036;stroke-width:1.0;"/><path d="M612.3594,322.3438 L611.2031,327.4219 L613.5313,327.4219 L612.3594,322.3438 Z M610.875,320.1094 L613.8594,320.1094 L617.2188,332.5 L614.7656,332.5 L614,329.4375 L610.7188,329.4375 L609.9688,332.5 L607.5313,332.5 L610.875,320.1094 Z " fill="#000000"/><text fill="#000000" font-family="sans-serif" font-size="12" font-style="italic" lengthAdjust="spacing" textLength="131" x="632.75" y="331.1543">AbstractRankingView</text><line style="stroke:#A80036;stroke-width:1.5;" x1="473.5" x2="890.5" y1="343" y2="343"/><line style="stroke:#A80036;stroke-width:1.5;" x1="473.5" x2="890.5" y1="351" y2="351"/><polygon fill="#FFFF44" points="483.5,357,487.5,361,483.5,365,479.5,361" style="stroke:#B38D22;stroke-width:1.0;"/><text fill="#000000" font-family="sans-serif" font-size="11" lengthAdjust="spacing" textLength="393" x="492.5" y="365.2104">AbstractRankingView(Map&lt;String, PageModeContentFactory&gt;, String)</text></a><!--MD5=[39d9067b85bbf212528c68bdcb9daa3e]
class com.hack23.cia.web.impl.ui.application.views.common.AbstractView--><a href="../../common/AbstractView.html" target="_top" title="../../common/AbstractView.html" xlink:actuate="onRequest" xlink:href="../../common/AbstractView.html" xlink:show="new" xlink:title="../../common/AbstractView.html" xlink:type="simple"><rect codeLine="31" fill="#FEFECE" filter="url(#f1f2ab8w4sy2en)" height="73.6094" id="com.hack23.cia.web.impl.ui.application.views.common.AbstractView" style="stroke:#A80036;stroke-width:1.5;" width="294" x="296" y="41"/><ellipse cx="398.25" cy="57" fill="#A9DCDF" rx="11" ry="11" style="stroke:#A80036;stroke-width:1.0;"/><path d="M398.3594,52.3438 L397.2031,57.4219 L399.5313,57.4219 L398.3594,52.3438 Z M396.875,50.1094 L399.8594,50.1094 L403.2188,62.5 L400.7656,62.5 L400,59.4375 L396.7188,59.4375 L395.9688,62.5 L393.5313,62.5 L396.875,50.1094 Z " fill="#000000"/><text fill="#000000" font-family="sans-serif" font-size="12" font-style="italic" lengthAdjust="spacing" textLength="81" x="418.75" y="61.1543">AbstractView</text><line style="stroke:#A80036;stroke-width:1.5;" x1="297" x2="589" y1="73" y2="73"/><polygon fill="none" points="307,79,311,83,307,87,303,83" style="stroke:#B38D22;stroke-width:1.0;"/><text fill="#000000" font-family="sans-serif" font-size="11" lengthAdjust="spacing" textLength="268" x="316" y="87.2104">pageActionEventHelper: PageActionEventHelper</text><polygon fill="none" points="307,91.8047,311,95.8047,307,99.8047,303,95.8047" style="stroke:#B38D22;stroke-width:1.0;"/><text fill="#000000" font-family="sans-serif" font-size="11" lengthAdjust="spacing" textLength="190" x="316" y="100.0151">pageLinkFactory: PageLinkFactory</text><line style="stroke:#A80036;stroke-width:1.5;" x1="297" x2="589" y1="106.6094" y2="106.6094"/></a><!--MD5=[3ccb537372d78a4f96cc0c9693ed3f33]
reverse link com.hack23.cia.web.impl.ui.application.views.common.AbstractView to com.hack23.cia.web.impl.ui.application.views.user.common.AbstractUserView--><path codeLine="23" d="M443,135.29 C443,153.86 443,173.79 443,189.6 " fill="none" id="com.hack23.cia.web.impl.ui.application.views.common.AbstractView-backto-com.hack23.cia.web.impl.ui.application.views.user.common.AbstractUserView" style="stroke:#A80036;stroke-width:1.0;"/><polygon fill="none" points="436,135.18,443,115.18,450,135.18,436,135.18" style="stroke:#A80036;stroke-width:1.0;"/><!--MD5=[817ad3c11f6e5601ba3e22c8175d61f0]
reverse link com.hack23.cia.web.impl.ui.application.views.user.common.AbstractUserView to com.hack23.cia.web.impl.ui.application.views.user.common.AbstractActorView--><path codeLine="24" d="M373.78,261.1 C345.38,277.35 313.07,295.83 286.78,310.88 " fill="none" id="com.hack23.cia.web.impl.ui.application.views.user.common.AbstractUserView-backto-com.hack23.cia.web.impl.ui.application.views.user.common.AbstractActorView" style="stroke:#A80036;stroke-width:1.0;"/><polygon fill="none" points="370.48,254.92,391.32,251.07,377.43,267.08,370.48,254.92" style="stroke:#A80036;stroke-width:1.0;"/><!--MD5=[a768d619f8d1a96aa24ac1edd2d375cc]
reverse link com.hack23.cia.web.impl.ui.application.views.user.common.AbstractActorView to com.hack23.cia.web.impl.ui.application.views.user.common.AbstractGroupView--><path codeLine="25" d="M235.84,392.33 C236.06,405.73 236.3,419.81 236.5,431.74 " fill="none" id="com.hack23.cia.web.impl.ui.application.views.user.common.AbstractActorView-backto-com.hack23.cia.web.impl.ui.application.views.user.common.AbstractGroupView" style="stroke:#A80036;stroke-width:1.0;"/><polygon fill="none" points="228.84,392.34,235.5,372.22,242.83,392.1,228.84,392.34" style="stroke:#A80036;stroke-width:1.0;"/><!--MD5=[d64ee00d42681fa5cc4935af0a50a9be]
reverse link com.hack23.cia.web.impl.ui.application.views.user.common.AbstractActorView to com.hack23.cia.web.impl.ui.application.views.user.common.AbstractPersonView--><path codeLine="26" d="M366.01,377.22 C431.55,394.59 510.03,415.39 572.62,431.98 " fill="none" id="com.hack23.cia.web.impl.ui.application.views.user.common.AbstractActorView-backto-com.hack23.cia.web.impl.ui.application.views.user.common.AbstractPersonView" style="stroke:#A80036;stroke-width:1.0;"/><polygon fill="none" points="364.1,383.96,346.57,372.07,367.69,370.43,364.1,383.96" style="stroke:#A80036;stroke-width:1.0;"/><!--MD5=[dee6fda7569d1066d197e8257fb4dc0f]
reverse link com.hack23.cia.web.impl.ui.application.views.user.common.AbstractUserView to com.hack23.cia.web.impl.ui.application.views.user.common.AbstractRankingView--><path codeLine="27" d="M520.69,260.18 C553.76,276.65 591.72,295.55 622.51,310.88 " fill="none" id="com.hack23.cia.web.impl.ui.application.views.user.common.AbstractUserView-backto-com.hack23.cia.web.impl.ui.application.views.user.common.AbstractRankingView" style="stroke:#A80036;stroke-width:1.0;"/><polygon fill="none" points="517.17,266.25,502.39,251.07,523.41,253.72,517.17,266.25" style="stroke:#A80036;stroke-width:1.0;"/><text fill="#888888" font-family="sans-serif" font-size="10" lengthAdjust="spacing" textLength="192" x="359.5" y="524.2822">UMLDoclet 2.0.15, PlantUML 1.2021.13</text><!--MD5=[fe2ba19e3779511531d5ae9c10725081]
@startuml
    namespace com.hack23.cia.web.impl.ui.application.views.user.common {

        abstract class AbstractUserView [[AbstractUserView.html]] {
            #AbstractUserView(Map<String, PageModeContentFactory>, String)
        }

        abstract class AbstractActorView [[AbstractActorView.html]] {
            +AbstractActorView(Map<String, PageModeContentFactory>, String)
        }

        abstract class AbstractGroupView [[AbstractGroupView.html]] {
            +AbstractGroupView(Map<String, PageModeContentFactory>, String)
        }

        abstract class AbstractPersonView [[AbstractPersonView.html]] {
            +AbstractPersonView(Map<String, PageModeContentFactory>, String)
        }

        abstract class AbstractRankingView [[AbstractRankingView.html]] {
            #AbstractRankingView(Map<String, PageModeContentFactory>, String)
        }

        com.hack23.cia.web.impl.ui.application.views.common.AbstractView <|- - AbstractUserView
        AbstractUserView <|- - AbstractActorView
        AbstractActorView <|- - AbstractGroupView
        AbstractActorView <|- - AbstractPersonView
        AbstractUserView <|- - AbstractRankingView
    }

    namespace com.hack23.cia.web.impl.ui.application.views.common {
        abstract class AbstractView [[../../common/AbstractView.html]] {
            #pageActionEventHelper: PageActionEventHelper
            #pageLinkFactory: PageLinkFactory
        }
    }

    center footer UMLDoclet 2.0.15, PlantUML 1.2021.13
@enduml

PlantUML version 1.2021.13(Mon Nov 01 12:38:45 CET 2021)
(APACHE source distribution)
Java Runtime: OpenJDK Runtime Environment
JVM: OpenJDK 64-Bit Server VM
Default Encoding: UTF-8
Language: en
Country: US
--></g></svg>