<svg xmlns="http://www.w3.org/2000/svg" xmlns:xlink="http://www.w3.org/1999/xlink" contentStyleType="text/css" height="297px" preserveAspectRatio="none" style="width:945px;height:297px;background:#FFFFFF;" version="1.1" viewBox="0 0 945 297" width="945px" zoomAndPan="magnify"><defs/><g><!--cluster com.hack23.cia.web.impl.ui.application.views.common.formfactory.impl--><g id="cluster_com.hack23.cia.web.impl.ui.application.views.common.formfactory.impl"><path d="M16.5,136 L524.9419,136 A3.75,3.75 0 0 1 527.4419,138.5 L534.4419,161.0679 L935.5,161.0679 A2.5,2.5 0 0 1 938,163.5679 L938,257.5 A2.5,2.5 0 0 1 935.5,260 L16.5,260 A2.5,2.5 0 0 1 14,257.5 L14,138.5 A2.5,2.5 0 0 1 16.5,136 " fill="none" style="stroke:#000000;stroke-width:1.5;"/><line style="stroke:#000000;stroke-width:1.5;" x1="14" x2="534.4419" y1="161.0679" y2="161.0679"/><text fill="#000000" font-family="sans-serif" font-size="14" font-weight="bold" lengthAdjust="spacing" textLength="507.4419" x="18" y="152.9659">com.hack23.cia.web.impl.ui.application.views.common.formfactory.impl</text></g><!--cluster com.hack23.cia.web.impl.ui.application.views.common.formfactory.api--><g id="cluster_com.hack23.cia.web.impl.ui.application.views.common.formfactory.api"><path d="M42.5,4 L541.3799,4 A3.75,3.75 0 0 1 543.8799,6.5 L550.8799,29.0679 L909.5,29.0679 A2.5,2.5 0 0 1 912,31.5679 L912,125.5 A2.5,2.5 0 0 1 909.5,128 L42.5,128 A2.5,2.5 0 0 1 40,125.5 L40,6.5 A2.5,2.5 0 0 1 42.5,4 " fill="none" style="stroke:#000000;stroke-width:1.5;"/><line style="stroke:#000000;stroke-width:1.5;" x1="40" x2="550.8799" y1="29.0679" y2="29.0679"/><text fill="#000000" font-family="sans-serif" font-size="14" font-weight="bold" lengthAdjust="spacing" textLength="497.8799" x="44" y="20.9659">com.hack23.cia.web.impl.ui.application.views.common.formfactory.api</text></g><!--class FormFactoryImpl--><a href="FormFactoryImpl.html" target="_top" title="FormFactoryImpl.html" xlink:actuate="onRequest" xlink:href="FormFactoryImpl.html" xlink:show="new" xlink:title="FormFactoryImpl.html" xlink:type="simple"><g id="elem_FormFactoryImpl"><rect codeLine="12" fill="#F1F1F1" height="86.1358" id="FormFactoryImpl" rx="2.5" ry="2.5" style="stroke:#181818;stroke-width:0.5;" width="906.5269" x="22.5" y="166"/><ellipse cx="415.0377" cy="182" fill="#ADD1B2" rx="11" ry="11" style="stroke:#181818;stroke-width:1.0;"/><path d="M418.0064,187.6406 Q417.4283,187.9375 416.7877,188.0781 Q416.147,188.2344 415.4439,188.2344 Q412.9439,188.2344 411.6158,186.5938 Q410.3033,184.9375 410.3033,181.8125 Q410.3033,178.6875 411.6158,177.0313 Q412.9439,175.375 415.4439,175.375 Q416.147,175.375 416.7877,175.5313 Q417.4439,175.6875 418.0064,175.9844 L418.0064,178.7031 Q417.3814,178.125 416.7877,177.8594 Q416.1939,177.5781 415.5689,177.5781 Q414.2252,177.5781 413.5377,178.6563 Q412.8502,179.7188 412.8502,181.8125 Q412.8502,183.9063 413.5377,184.9844 Q414.2252,186.0469 415.5689,186.0469 Q416.1939,186.0469 416.7877,185.7813 Q417.3814,185.5 418.0064,184.9219 L418.0064,187.6406 Z " fill="#000000"/><text fill="#000000" font-family="sans-serif" font-size="14" lengthAdjust="spacing" textLength="112.9516" x="435.5377" y="187.432">FormFactoryImpl</text><line style="stroke:#181818;stroke-width:0.5;" x1="23.5" x2="928.0269" y1="198" y2="198"/><line style="stroke:#181818;stroke-width:0.5;" x1="23.5" x2="928.0269" y1="206" y2="206"/><ellipse cx="33.5" cy="221.034" fill="#84BE84" rx="3" ry="3" style="stroke:#038048;stroke-width:1.0;"/><text fill="#000000" font-family="sans-serif" font-size="14" lengthAdjust="spacing" textLength="794.1611" x="42.5" y="224.9659">addFormPanelTextFields(AbstractOrderedLayout, T extends Serializable, Class&lt;T extends Serializable&gt;, List&lt;String&gt;): void</text><ellipse cx="33.5" cy="240.1019" fill="#84BE84" rx="3" ry="3" style="stroke:#038048;stroke-width:1.0;"/><text fill="#000000" font-family="sans-serif" font-size="14" lengthAdjust="spacing" textLength="880.5269" x="42.5" y="244.0339">addRequestInputFormFields(FormLayout, T extends Serializable, Class&lt;T extends Serializable&gt;, List&lt;String&gt;, String, ClickListener): void</text></g></a><!--class FormFactory--><a href="../api/FormFactory.html" target="_top" title="../api/FormFactory.html" xlink:actuate="onRequest" xlink:href="../api/FormFactory.html" xlink:show="new" xlink:title="../api/FormFactory.html" xlink:type="simple"><g id="elem_FormFactory"><rect codeLine="20" fill="#F1F1F1" height="86.1358" id="FormFactory" rx="2.5" ry="2.5" style="stroke:#181818;stroke-width:0.5;" width="854.7686" x="48.5" y="34"/><ellipse cx="432.6375" cy="50" fill="#B4A7E5" rx="11" ry="11" style="stroke:#181818;stroke-width:1.0;"/><path d="M428.5593,45.7656 L428.5593,43.6094 L435.95,43.6094 L435.95,45.7656 L433.4812,45.7656 L433.4812,53.8438 L435.95,53.8438 L435.95,56 L428.5593,56 L428.5593,53.8438 L431.0281,53.8438 L431.0281,45.7656 L428.5593,45.7656 Z " fill="#000000"/><text fill="#000000" font-family="sans-serif" font-size="14" font-style="italic" lengthAdjust="spacing" textLength="77.9937" x="453.1375" y="55.432">FormFactory</text><line style="stroke:#181818;stroke-width:0.5;" x1="49.5" x2="902.2686" y1="66" y2="66"/><line style="stroke:#181818;stroke-width:0.5;" x1="49.5" x2="902.2686" y1="74" y2="74"/><ellipse cx="59.5" cy="89.034" fill="#84BE84" rx="3" ry="3" style="stroke:#038048;stroke-width:1.0;"/><text fill="#000000" font-family="sans-serif" font-size="14" font-style="italic" lengthAdjust="spacing" textLength="747.6668" x="68.5" y="92.9659">addFormPanelTextFields(AbstractOrderedLayout, T extends Serializable, Class&lt;T extends Serializable&gt;, List&lt;String&gt;): void</text><ellipse cx="59.5" cy="108.1019" fill="#84BE84" rx="3" ry="3" style="stroke:#038048;stroke-width:1.0;"/><text fill="#000000" font-family="sans-serif" font-size="14" font-style="italic" lengthAdjust="spacing" textLength="828.7686" x="68.5" y="112.0339">addRequestInputFormFields(FormLayout, T extends Serializable, Class&lt;T extends Serializable&gt;, List&lt;String&gt;, String, ClickListener): void</text></g></a><polygon fill="none" points="476,120.2073,470,138.2073,482,138.2073,476,120.2073" style="stroke:#181818;stroke-width:1.0;"/><path d="M476,138.2073 C476,152.7385 476,151.0099 476,165.5596 " fill="none" style="stroke:#181818;stroke-width:1.0;stroke-dasharray:7.0,7.0;"/><text fill="#888888" font-family="sans-serif" font-size="10" lengthAdjust="spacing" textLength="2.6" x="463.2" y="272.69">&#160;</text><a href="https://github.com/talsma-ict/umldoclet" target="_top" title="https://github.com/talsma-ict/umldoclet" xlink:actuate="onRequest" xlink:href="https://github.com/talsma-ict/umldoclet" xlink:show="new" xlink:title="https://github.com/talsma-ict/umldoclet" xlink:type="simple"><text fill="#888888" font-family="sans-serif" font-size="10" lengthAdjust="spacing" textLength="76.7199" x="426.14" y="286.31">UMLDoclet 2.2.1</text></a><!--SRC=[pLLDRzim3BttLt3OOIsQo8xJZzK82WJPkdN8iA99JraEZAtOGcJ9a-HqMTV_FihEEZVhCOVwObby91_v91e0u1sCTBan8iiTE0qk5nRkleu1LGePLzoWuoc80ZDkOS6bLfbjW1omShase9VrLwADuRRKAXKgWo-uHh2wCWctxE00wbJJlz7lqRQYBpP-yuDE97TmE3fgKOh2tbat2gDJcAAq1SBrQCgsqVxvH2nYFQ3OKYHSMGfPgPIRcjQmn8HUuyRIWJKtLcX5Fk4sZYyrqSgXK1PADCxwacuaAkUvzXZbFs7dS3YSZ9zp2ozgRXqO6eLL2hVwH_LKxflIO4QC9MvqvS0MtA72scI9i-MK2XtrBuuR1oAweZOJbuBbj8xwB178xlc2YQAKh18Cov9AH4S5iBNWzvOHkA2FfJR54XCAjwd1yD34z4yYqLgu8iHLWxZsWDbiPuVbhf3pENb2wpd6DFN06rHSJlbFToMuJEtXS66T8UTlXXhDqt5TP0UcG12kKWiJRWHAyGiNahe-yXm6BrilEwIETOE9CtHoBezYM6kH_iVYbllckcjLLgwctX3noprcxq2py4uYMNcJFwUxf1wRzZxkLpaiHQlzGZbkoCJRsf5kZ0K435gRBqltW5kD7b-9YZk4NfcWBJtte6CSjqKR_6PiB_VwMLX_Qnl20-isLFbJDKkjwUpid8VFcvARiL2haPOqTjw-VzbwvqUd58hJj4vMYjFi27VQD0XQ-RQvlglPB7Ukj74GPCBbrSBN4BXwR7T5ueAga6aphtSczto-dSIVddu9Vgnsm_Dkhp_jXN5u4P-Sih1tte_EBgBUSHZ5OJZxM1bTyc3YTBBAjIpcVm00]--></g></svg>