<?xml version="1.0" encoding="UTF-8" standalone="no"?><svg xmlns="http://www.w3.org/2000/svg" xmlns:xlink="http://www.w3.org/1999/xlink" contentStyleType="text/css" height="286px" preserveAspectRatio="none" style="width:618px;height:286px;background:#FFFFFF;" version="1.1" viewBox="0 0 618 286" width="618px" zoomAndPan="magnify"><defs/><g><!--MD5=[8c3484027c10f162e339c027856a7c85]
cluster com.hack23.cia.web.impl.ui.application.views.user.parliament--><g id="cluster_com.hack23.cia.web.impl.ui.application.views.user.parliament"><path d="M8.5,129 L496.5,129 A3.75,3.75 0 0 1 499,131.5 L506,151.2969 L506.5,151.2969 A2.5,2.5 0 0 1 509,153.7969 L509,258.5 A2.5,2.5 0 0 1 506.5,261 L8.5,261 A2.5,2.5 0 0 1 6,258.5 L6,131.5 A2.5,2.5 0 0 1 8.5,129 " style="stroke:#000000;stroke-width:1.5;fill:none;"/><line style="stroke:#000000;stroke-width:1.5;fill:none;" x1="6" x2="506" y1="151.2969" y2="151.2969"/><text fill="#000000" font-family="sans-serif" font-size="14" font-weight="bold" lengthAdjust="spacing" textLength="487" x="10" y="143.9951">com.hack23.cia.web.impl.ui.application.views.user.parliament</text></g><!--MD5=[b6f7de69fe91c8bcc3328c73a6375d62]
cluster com.hack23.cia.web.impl.ui.application.views.user.common--><g id="cluster_com.hack23.cia.web.impl.ui.application.views.user.common"><path d="M126.5,6 L598.5,6 A3.75,3.75 0 0 1 601,8.5 L608,28.2969 L608.5,28.2969 A2.5,2.5 0 0 1 611,30.7969 L611,102.5 A2.5,2.5 0 0 1 608.5,105 L126.5,105 A2.5,2.5 0 0 1 124,102.5 L124,8.5 A2.5,2.5 0 0 1 126.5,6 " style="stroke:#000000;stroke-width:1.5;fill:none;"/><line style="stroke:#000000;stroke-width:1.5;fill:none;" x1="124" x2="608" y1="28.2969" y2="28.2969"/><text fill="#000000" font-family="sans-serif" font-size="14" font-weight="bold" lengthAdjust="spacing" textLength="471" x="128" y="20.9951">com.hack23.cia.web.impl.ui.application.views.user.common</text></g><!--MD5=[a53eecbe72c9b7e35e0d1ee1079c9900]
class com.hack23.cia.web.impl.ui.application.views.user.parliament.ParliamentRankingView--><a href="ParliamentRankingView.html" target="_top" title="ParliamentRankingView.html" xlink:actuate="onRequest" xlink:href="ParliamentRankingView.html" xlink:show="new" xlink:title="ParliamentRankingView.html" xlink:type="simple"><g id="elem_com.hack23.cia.web.impl.ui.application.views.user.parliament.ParliamentRankingView"><rect codeLine="3" fill="#F1F1F1" height="80.5938" id="com.hack23.cia.web.impl.ui.application.views.user.parliament.ParliamentRankingView" rx="2.5" ry="2.5" style="stroke:#181818;stroke-width:0.5;" width="325" x="94.5" y="164"/><ellipse cx="172.75" cy="180" fill="#ADD1B2" rx="11" ry="11" style="stroke:#181818;stroke-width:1.0;"/><path d="M175.7188,185.6406 Q175.1406,185.9375 174.5,186.0781 Q173.8594,186.2344 173.1563,186.2344 Q170.6563,186.2344 169.3281,184.5938 Q168.0156,182.9375 168.0156,179.8125 Q168.0156,176.6875 169.3281,175.0313 Q170.6563,173.375 173.1563,173.375 Q173.8594,173.375 174.5,173.5313 Q175.1563,173.6875 175.7188,173.9844 L175.7188,176.7031 Q175.0938,176.125 174.5,175.8594 Q173.9063,175.5781 173.2813,175.5781 Q171.9375,175.5781 171.25,176.6563 Q170.5625,177.7188 170.5625,179.8125 Q170.5625,181.9063 171.25,182.9844 Q171.9375,184.0469 173.2813,184.0469 Q173.9063,184.0469 174.5,183.7813 Q175.0938,183.5 175.7188,182.9219 L175.7188,185.6406 Z " fill="#000000"/><text fill="#000000" font-family="sans-serif" font-size="14" lengthAdjust="spacing" textLength="160" x="193.25" y="184.8467">ParliamentRankingView</text><line style="stroke:#181818;stroke-width:0.5;" x1="95.5" x2="418.5" y1="196" y2="196"/><ellipse cx="105.5" cy="207" fill="none" rx="3" ry="3" style="stroke:#038048;stroke-width:1.0;"/><text fill="#000000" font-family="sans-serif" font-size="14" lengthAdjust="spacing" text-decoration="underline" textLength="89" x="114.5" y="212.9951">NAME: String</text><line style="stroke:#181818;stroke-width:0.5;" x1="95.5" x2="418.5" y1="220.2969" y2="220.2969"/><ellipse cx="105.5" cy="231.2969" fill="#84BE84" rx="3" ry="3" style="stroke:#038048;stroke-width:1.0;"/><text fill="#000000" font-family="sans-serif" font-size="14" lengthAdjust="spacing" textLength="299" x="114.5" y="237.292">ParliamentRankingView(ApplicationContext)</text></g></a><!--MD5=[391696cd44669b86b1fc88d08221bc08]
class com.hack23.cia.web.impl.ui.application.views.user.common.AbstractRankingView--><a href="../common/AbstractRankingView.html" target="_top" title="../common/AbstractRankingView.html" xlink:actuate="onRequest" xlink:href="../common/AbstractRankingView.html" xlink:show="new" xlink:title="../common/AbstractRankingView.html" xlink:type="simple"><g id="elem_com.hack23.cia.web.impl.ui.application.views.user.common.AbstractRankingView"><rect codeLine="12" fill="#F1F1F1" height="48" id="com.hack23.cia.web.impl.ui.application.views.user.common.AbstractRankingView" rx="2.5" ry="2.5" style="stroke:#181818;stroke-width:0.5;" width="178" x="168" y="41"/><ellipse cx="183" cy="57" fill="#A9DCDF" rx="11" ry="11" style="stroke:#181818;stroke-width:1.0;"/><path d="M183.1094,52.3438 L181.9531,57.4219 L184.2813,57.4219 L183.1094,52.3438 Z M181.625,50.1094 L184.6094,50.1094 L187.9688,62.5 L185.5156,62.5 L184.75,59.4375 L181.4688,59.4375 L180.7188,62.5 L178.2813,62.5 L181.625,50.1094 Z " fill="#000000"/><text fill="#000000" font-family="sans-serif" font-size="14" font-style="italic" lengthAdjust="spacing" textLength="146" x="197" y="61.8467">AbstractRankingView</text><line style="stroke:#181818;stroke-width:0.5;" x1="169" x2="345" y1="73" y2="73"/><line style="stroke:#181818;stroke-width:0.5;" x1="169" x2="345" y1="81" y2="81"/></g></a><!--MD5=[fabe311b629768b027943b934b3a3b8d]
reverse link com.hack23.cia.web.impl.ui.application.views.user.common.AbstractRankingView to com.hack23.cia.web.impl.ui.application.views.user.parliament.ParliamentRankingView--><g id="link_com.hack23.cia.web.impl.ui.application.views.user.common.AbstractRankingView_com.hack23.cia.web.impl.ui.application.views.user.parliament.ParliamentRankingView"><path codeLine="8" d="M257,109.09 C257,126.64 257,146.8 257,163.97 " fill="none" id="com.hack23.cia.web.impl.ui.application.views.user.common.AbstractRankingView-backto-com.hack23.cia.web.impl.ui.application.views.user.parliament.ParliamentRankingView" style="stroke:#181818;stroke-width:1.0;"/><polygon fill="none" points="250,109.01,257,89.01,264,109.01,250,109.01" style="stroke:#181818;stroke-width:1.0;"/></g><rect height="11.6406" style="stroke:#00000000;stroke-width:1.0;fill:none;" width="186" x="209" y="267"/><text fill="#888888" font-family="sans-serif" font-size="10" lengthAdjust="spacing" textLength="186" x="209" y="276.2822">UMLDoclet 2.0.18, PlantUML 1.2022.6</text><!--MD5=[a6cef4785a934e09a0d36afc1f57bc1b]
@startuml
    namespace com.hack23.cia.web.impl.ui.application.views.user.parliament {

        class ParliamentRankingView [[ParliamentRankingView.html]] {
            {static} +NAME: String
            +ParliamentRankingView(ApplicationContext)
        }

        com.hack23.cia.web.impl.ui.application.views.user.common.AbstractRankingView <|- - ParliamentRankingView
    }

    namespace com.hack23.cia.web.impl.ui.application.views.user.common {
        abstract class AbstractRankingView [[../common/AbstractRankingView.html]] {
        }
    }

    center footer UMLDoclet 2.0.18, PlantUML 1.2022.6
@enduml

PlantUML version 1.2022.6(Tue Jun 21 19:34:49 CEST 2022)
(APACHE source distribution)
Java Runtime: OpenJDK Runtime Environment
JVM: OpenJDK 64-Bit Server VM
Default Encoding: ANSI_X3.4-1968
Language: en
Country: US
--></g></svg>