<?xml version="1.0" encoding="UTF-8" standalone="no"?><svg xmlns="http://www.w3.org/2000/svg" xmlns:xlink="http://www.w3.org/1999/xlink" contentScriptType="application/ecmascript" contentStyleType="text/css" height="215px" preserveAspectRatio="none" style="width:352px;height:215px;background:#FFFFFF;" version="1.1" viewBox="0 0 352 215" width="352px" zoomAndPan="magnify"><defs><filter height="300%" id="fk7pboaw9yin2" width="300%" x="-1" y="-1"><feGaussianBlur result="blurOut" stdDeviation="2.0"/><feColorMatrix in="blurOut" result="blurOut2" type="matrix" values="0 0 0 0 0 0 0 0 0 0 0 0 0 0 0 0 0 0 .4 0"/><feOffset dx="4.0" dy="4.0" in="blurOut2" result="blurOut3"/><feBlend in="SourceGraphic" in2="blurOut3" mode="normal"/></filter></defs><g><!--MD5=[a53eecbe72c9b7e35e0d1ee1079c9900]
class com.hack23.cia.web.impl.ui.application.views.user.parliament.ParliamentRankingView--><a href="ParliamentRankingView.html" target="_top" title="ParliamentRankingView.html" xlink:actuate="onRequest" xlink:href="ParliamentRankingView.html" xlink:show="new" xlink:title="ParliamentRankingView.html" xlink:type="simple"><rect codeLine="5" fill="#FEFECE" filter="url(#fk7pboaw9yin2)" height="79.5469" id="com.hack23.cia.web.impl.ui.application.views.user.parliament.ParliamentRankingView" style="stroke:#A80036;stroke-width:1.5;" width="326" x="9.5" y="105"/><ellipse cx="24.5" cy="123.9688" fill="#ADD1B2" rx="11" ry="11" style="stroke:#A80036;stroke-width:1.0;"/><path d="M27.4688,129.6094 Q26.8906,129.9063 26.25,130.0469 Q25.6094,130.2031 24.9063,130.2031 Q22.4063,130.2031 21.0781,128.5625 Q19.7656,126.9063 19.7656,123.7813 Q19.7656,120.6563 21.0781,119 Q22.4063,117.3438 24.9063,117.3438 Q25.6094,117.3438 26.25,117.5 Q26.9063,117.6563 27.4688,117.9531 L27.4688,120.6719 Q26.8438,120.0938 26.25,119.8281 Q25.6563,119.5469 25.0313,119.5469 Q23.6875,119.5469 23,120.625 Q22.3125,121.6875 22.3125,123.7813 Q22.3125,125.875 23,126.9531 Q23.6875,128.0156 25.0313,128.0156 Q25.6563,128.0156 26.25,127.75 Q26.8438,127.4688 27.4688,126.8906 L27.4688,129.6094 Z " fill="#000000"/><text fill="#000000" font-family="sans-serif" font-size="14" lengthAdjust="spacing" textLength="160" x="105.5" y="122.9951">ParliamentRankingView</text><text fill="#000000" font-family="sans-serif" font-size="10" lengthAdjust="spacing" textLength="294" x="38.5" y="135.5791">com.hack23.cia.web.impl.ui.application.views.user.parliament</text><line style="stroke:#A80036;stroke-width:1.5;" x1="10.5" x2="334.5" y1="142.9375" y2="142.9375"/><ellipse cx="20.5" cy="153.9375" rx="3" ry="3" style="stroke:#038048;stroke-width:1.0;fill:none;"/><text fill="#000000" font-family="sans-serif" font-size="11" lengthAdjust="spacing" text-decoration="underline" textLength="73" x="29.5" y="157.1479">NAME: String</text><line style="stroke:#A80036;stroke-width:1.5;" x1="10.5" x2="334.5" y1="163.7422" y2="163.7422"/><ellipse cx="20.5" cy="174.7422" fill="#84BE84" rx="3" ry="3" style="stroke:#038048;stroke-width:1.0;"/><text fill="#000000" font-family="sans-serif" font-size="11" lengthAdjust="spacing" textLength="243" x="29.5" y="177.9526">ParliamentRankingView(ApplicationContext)</text></a><!--MD5=[391696cd44669b86b1fc88d08221bc08]
class com.hack23.cia.web.impl.ui.application.views.user.common.AbstractRankingView--><a href="../common/AbstractRankingView.html" target="_top" title="../common/AbstractRankingView.html" xlink:actuate="onRequest" xlink:href="../common/AbstractRankingView.html" xlink:show="new" xlink:title="../common/AbstractRankingView.html" xlink:type="simple"><rect codeLine="10" fill="#FEFECE" filter="url(#fk7pboaw9yin2)" height="37.9375" id="com.hack23.cia.web.impl.ui.application.views.user.common.AbstractRankingView" style="stroke:#A80036;stroke-width:1.5;" width="331" x="7" y="7"/><ellipse cx="22" cy="25.9688" fill="#A9DCDF" rx="11" ry="11" style="stroke:#A80036;stroke-width:1.0;"/><path d="M22.1094,21.3125 L20.9531,26.3906 L23.2813,26.3906 L22.1094,21.3125 Z M20.625,19.0781 L23.6094,19.0781 L26.9688,31.4688 L24.5156,31.4688 L23.75,28.4063 L20.4688,28.4063 L19.7188,31.4688 L17.2813,31.4688 L20.625,19.0781 Z " fill="#000000"/><text fill="#000000" font-family="sans-serif" font-size="14" font-style="italic" lengthAdjust="spacing" textLength="146" x="112.5" y="24.9951">AbstractRankingView</text><text fill="#000000" font-family="sans-serif" font-size="10" font-style="italic" lengthAdjust="spacing" textLength="299" x="36" y="37.5791">com.hack23.cia.web.impl.ui.application.views.user.common</text></a><!--MD5=[fabe311b629768b027943b934b3a3b8d]
reverse link com.hack23.cia.web.impl.ui.application.views.user.common.AbstractRankingView to com.hack23.cia.web.impl.ui.application.views.user.parliament.ParliamentRankingView--><path codeLine="12" d="M172.5,65.14 C172.5,77.87 172.5,92.07 172.5,104.87 " fill="none" id="com.hack23.cia.web.impl.ui.application.views.user.common.AbstractRankingView-backto-com.hack23.cia.web.impl.ui.application.views.user.parliament.ParliamentRankingView" style="stroke:#A80036;stroke-width:1.0;"/><polygon fill="none" points="165.5,65.02,172.5,45.02,179.5,65.02,165.5,65.02" style="stroke:#A80036;stroke-width:1.0;"/><text fill="#888888" font-family="sans-serif" font-size="10" lengthAdjust="spacing" textLength="186" x="76.5" y="206.8291">UMLDoclet 2.0.14, PlantUML 1.2021.9</text><!--MD5=[0b6ae0d153dc51a188c89b429878de96]
@startuml
    set namespaceSeparator none
    hide empty fields
    hide empty methods

    class "<size:14>ParliamentRankingView\n<size:10>com.hack23.cia.web.impl.ui.application.views.user.parliament" as com.hack23.cia.web.impl.ui.application.views.user.parliament.ParliamentRankingView [[ParliamentRankingView.html]] {
        {static} +NAME: String
        +ParliamentRankingView(ApplicationContext)
    }

    abstract class "<size:14>AbstractRankingView\n<size:10>com.hack23.cia.web.impl.ui.application.views.user.common" as com.hack23.cia.web.impl.ui.application.views.user.common.AbstractRankingView [[../common/AbstractRankingView.html]]

    com.hack23.cia.web.impl.ui.application.views.user.common.AbstractRankingView <|- - com.hack23.cia.web.impl.ui.application.views.user.parliament.ParliamentRankingView

    center footer UMLDoclet 2.0.14, PlantUML 1.2021.9
@enduml

PlantUML version 1.2021.9(Sun Jul 25 12:13:56 CEST 2021)
(APACHE source distribution)
Java Runtime: OpenJDK Runtime Environment
JVM: OpenJDK 64-Bit Server VM
Default Encoding: UTF-8
Language: en
Country: US
--></g></svg>