<svg xmlns="http://www.w3.org/2000/svg" xmlns:xlink="http://www.w3.org/1999/xlink" contentStyleType="text/css" height="259px" preserveAspectRatio="none" style="width:525px;height:259px;background:#FFFFFF;" version="1.1" viewBox="0 0 525 259" width="525px" zoomAndPan="magnify"><defs/><g><!--cluster com.hack23.cia.web.impl.ui.application.views.user.politician--><g id="cluster_com.hack23.cia.web.impl.ui.application.views.user.politician"><path d="M16.5,98 L440.5784,98 A3.75,3.75 0 0 1 443.0784,100.5 L450.0784,123.0679 L450.5,123.0679 A2.5,2.5 0 0 1 453,125.5679 L453,219.5 A2.5,2.5 0 0 1 450.5,222 L16.5,222 A2.5,2.5 0 0 1 14,219.5 L14,100.5 A2.5,2.5 0 0 1 16.5,98 " fill="none" style="stroke:#000000;stroke-width:1.5;"/><line style="stroke:#000000;stroke-width:1.5;" x1="14" x2="450.0784" y1="123.0679" y2="123.0679"/><text fill="#000000" font-family="sans-serif" font-size="14" font-weight="bold" lengthAdjust="spacing" textLength="423.0784" x="18" y="114.9659">com.hack23.cia.web.impl.ui.application.views.user.politician</text></g><!--cluster com.hack23.cia.web.impl.ui.application.views.user.common--><g id="cluster_com.hack23.cia.web.impl.ui.application.views.user.common"><path d="M86.5,4 L506.2663,4 A3.75,3.75 0 0 1 508.7663,6.5 L515.7663,29.0679 L515.5,29.0679 A2.5,2.5 0 0 1 518,31.5679 L518,87.5 A2.5,2.5 0 0 1 515.5,90 L86.5,90 A2.5,2.5 0 0 1 84,87.5 L84,6.5 A2.5,2.5 0 0 1 86.5,4 " fill="none" style="stroke:#000000;stroke-width:1.5;"/><line style="stroke:#000000;stroke-width:1.5;" x1="84" x2="515.7663" y1="29.0679" y2="29.0679"/><text fill="#000000" font-family="sans-serif" font-size="14" font-weight="bold" lengthAdjust="spacing" textLength="418.7663" x="88" y="20.9659">com.hack23.cia.web.impl.ui.application.views.user.common</text></g><!--class PoliticianView--><a href="PoliticianView.html" target="_top" title="PoliticianView.html" xlink:actuate="onRequest" xlink:href="PoliticianView.html" xlink:show="new" xlink:title="PoliticianView.html" xlink:type="simple"><g id="elem_PoliticianView"><rect codeLine="12" fill="#F1F1F1" height="86.1358" id="PoliticianView" rx="2.5" ry="2.5" style="stroke:#181818;stroke-width:0.5;" width="250.1111" x="108" y="128"/><ellipse cx="183.5157" cy="144" fill="#ADD1B2" rx="11" ry="11" style="stroke:#181818;stroke-width:1.0;"/><path d="M186.4845,149.6406 Q185.9064,149.9375 185.2657,150.0781 Q184.6251,150.2344 183.922,150.2344 Q181.422,150.2344 180.0939,148.5938 Q178.7814,146.9375 178.7814,143.8125 Q178.7814,140.6875 180.0939,139.0313 Q181.422,137.375 183.922,137.375 Q184.6251,137.375 185.2657,137.5313 Q185.922,137.6875 186.4845,137.9844 L186.4845,140.7031 Q185.8595,140.125 185.2657,139.8594 Q184.672,139.5781 184.047,139.5781 Q182.7032,139.5781 182.0157,140.6563 Q181.3282,141.7188 181.3282,143.8125 Q181.3282,145.9063 182.0157,146.9844 Q182.7032,148.0469 184.047,148.0469 Q184.672,148.0469 185.2657,147.7813 Q185.8595,147.5 186.4845,146.9219 L186.4845,149.6406 Z " fill="#000000"/><text fill="#000000" font-family="sans-serif" font-size="14" lengthAdjust="spacing" textLength="90.5796" x="204.0157" y="149.432">PoliticianView</text><line style="stroke:#181818;stroke-width:0.5;" x1="109" x2="357.1111" y1="160" y2="160"/><ellipse cx="119" cy="175.034" fill="none" rx="3" ry="3" style="stroke:#038048;stroke-width:1.0;"/><text fill="#000000" font-family="sans-serif" font-size="14" lengthAdjust="spacing" text-decoration="underline" textLength="86.8557" x="128" y="178.9659">NAME: String</text><line style="stroke:#181818;stroke-width:0.5;" x1="109" x2="357.1111" y1="187.0679" y2="187.0679"/><ellipse cx="119" cy="202.1019" fill="#84BE84" rx="3" ry="3" style="stroke:#038048;stroke-width:1.0;"/><text fill="#000000" font-family="sans-serif" font-size="14" lengthAdjust="spacing" textLength="224.1111" x="128" y="206.0339">PoliticianView(ApplicationContext)</text></g></a><!--class AbstractPersonView--><a href="../common/AbstractPersonView.html" target="_top" title="../common/AbstractPersonView.html" xlink:actuate="onRequest" xlink:href="../common/AbstractPersonView.html" xlink:show="new" xlink:title="../common/AbstractPersonView.html" xlink:type="simple"><g id="elem_AbstractPersonView"><rect codeLine="20" fill="#F1F1F1" height="48" id="AbstractPersonView" rx="2.5" ry="2.5" style="stroke:#181818;stroke-width:0.5;" width="154.1635" x="156" y="34"/><ellipse cx="171" cy="50" fill="#A9DCDF" rx="11" ry="11" style="stroke:#181818;stroke-width:1.0;"/><path d="M171.1094,45.3438 L169.9531,50.4219 L172.2813,50.4219 L171.1094,45.3438 Z M169.625,43.1094 L172.6094,43.1094 L175.9688,55.5 L173.5156,55.5 L172.75,52.4375 L169.4688,52.4375 L168.7188,55.5 L166.2813,55.5 L169.625,43.1094 Z " fill="#000000"/><text fill="#000000" font-family="sans-serif" font-size="14" font-style="italic" lengthAdjust="spacing" textLength="122.1635" x="185" y="55.432">AbstractPersonView</text><line style="stroke:#181818;stroke-width:0.5;" x1="157" x2="309.1635" y1="66" y2="66"/><line style="stroke:#181818;stroke-width:0.5;" x1="157" x2="309.1635" y1="74" y2="74"/></g></a><polygon fill="none" points="233,82.2692,227,100.2692,239,100.2692,233,82.2692" style="stroke:#181818;stroke-width:1.0;"/><path d="M233,100.2692 C233,113.4922 233,112.4505 233,127.9269 " fill="none" style="stroke:#181818;stroke-width:1.0;"/><text fill="#888888" font-family="sans-serif" font-size="10" lengthAdjust="spacing" textLength="2.6" x="253.2" y="234.69">&#160;</text><a href="https://github.com/talsma-ict/umldoclet" target="_top" title="https://github.com/talsma-ict/umldoclet" xlink:actuate="onRequest" xlink:href="https://github.com/talsma-ict/umldoclet" xlink:show="new" xlink:title="https://github.com/talsma-ict/umldoclet" xlink:type="simple"><text fill="#888888" font-family="sans-serif" font-size="10" lengthAdjust="spacing" textLength="76.7199" x="216.14" y="248.31">UMLDoclet 2.2.1</text></a><!--SRC=[fPHHJzim4CVV-HGtxM4Wg9EcXK649bKTsfZAX4RPIzU7gsiIguwTsPUoYlMxxzAKqW9F8o-9VRwxt__E5m203z1tvSBhB2SW1vJh0BTN0q0xXKnPvP7K57I1cGemKSRPB3G75M15kVFWxbOhwRnNeNHsgcq6tt2E45pbfGfYRmzMgOQFqUynR4MVBEhDpquQHR3VFzX2IkBsIIk9anCOeWa5mcL_ADRHddmIaOWsS6oZfRA1GrPsglmAgrUYvDUWiHp1NFcWdMMVU1sdbYgT9TGsG8cUGYtfsg2bchKjE7zNV8JztirWboq-Mx4TGSzRhARmm_skDdBVbHup9ZQuS1L1A1IXnPKfC7DGd0g9wvUcZGE3phZCp5A8dB-JZf0QnRsQ25sKHbHQO5coH2GM8EPQtGTH1UL5wOmcpOSjF3InwaSQ306kDxQVx02ZqUw6oAamup7xmTRp48YJo2KSVkzTNQHmGvwRkdFaS3VEVky9hS_5L7_eO7D-sK0jtwgJFGfdjrXn4iYZfBNMtdfvpJrsZtg5Y1g_wANvfVhbDkd_4gRfAoJdVrkjD_KsJNTBtZ2U1reOzMaZuCuvugk_sy-lYrBvWRQplZDyuzwVlcwzhQV6QAjuKENCAYvf_Amovz5MldMkNtOqoedAa4PHfYcl9dKT8bfDR4jBYgh2J9jHVJQqu_5w2Bzi_WRrHBNYf1LtXkrEscsdnsVYz3ZkTavEkybXt4xZU7HHULUgw8QSdENE5ED_]--></g></svg>