<svg xmlns="http://www.w3.org/2000/svg" xmlns:xlink="http://www.w3.org/1999/xlink" contentStyleType="text/css" data-diagram-type="CLASS" height="255px" preserveAspectRatio="none" style="width:305px;height:255px;background:#FFFFFF;" version="1.1" viewBox="0 0 305 255" width="305px" zoomAndPan="magnify"><defs/><g><!--class com.hack23.cia.model.internal.application.system.impl.DomainPortal--><g class="entity" data-entity="com.hack23.cia.model.internal.application.system.impl.DomainPortal" data-source-line="13" data-uid="ent0002" id="entity_com.hack23.cia.model.internal.application.system.impl.DomainPortal"><a href="DomainPortal.html" target="_top" title="DomainPortal.html" xlink:actuate="onRequest" xlink:href="DomainPortal.html" xlink:show="new" xlink:title="DomainPortal.html" xlink:type="simple"><rect fill="#F1F1F1" height="134.9596" rx="2.5" ry="2.5" style="stroke:#181818;stroke-width:0.5;" width="292.027" x="6" y="91"/><ellipse cx="22.1642" cy="112.344" fill="#ADD1B2" rx="11" ry="11" style="stroke:#181818;stroke-width:1;"/><path d="M25.133,117.9846 Q24.5548,118.2815 23.9142,118.4221 Q23.2736,118.5783 22.5705,118.5783 Q20.0705,118.5783 18.7423,116.9377 Q17.4298,115.2815 17.4298,112.1565 Q17.4298,109.0315 18.7423,107.3752 Q20.0705,105.719 22.5705,105.719 Q23.2736,105.719 23.9142,105.8752 Q24.5705,106.0315 25.133,106.3283 L25.133,109.0471 Q24.508,108.469 23.9142,108.2033 Q23.3205,107.9221 22.6955,107.9221 Q21.3517,107.9221 20.6642,109.0002 Q19.9767,110.0627 19.9767,112.1565 Q19.9767,114.2502 20.6642,115.3283 Q21.3517,116.3908 22.6955,116.3908 Q23.3205,116.3908 23.9142,116.1252 Q24.508,115.844 25.133,115.2658 L25.133,117.9846 Z " fill="#000000"/><text fill="#000000" font-family="sans-serif" font-size="14" lengthAdjust="spacing" textLength="91.1397" x="119.573" y="110.9659">DomainPortal</text><text fill="#000000" font-family="sans-serif" font-size="10" lengthAdjust="spacing" textLength="257.4398" x="36.4229" y="125.7579">com.hack23.cia.model.internal.application.system.impl</text><line style="stroke:#181818;stroke-width:0.5;" x1="7" x2="297.027" y1="133.6879" y2="133.6879"/><polygon fill="none" points="17,143.7219,21,147.7219,17,151.7219,13,147.7219" style="stroke:#B38D22;stroke-width:1;"/><text fill="#000000" font-family="sans-serif" font-size="14" lengthAdjust="spacing" textLength="136.5555" x="26" y="152.6538">domainName: String</text><line style="stroke:#181818;stroke-width:0.5;" x1="7" x2="297.027" y1="160.7558" y2="160.7558"/><ellipse cx="17" cy="175.7898" fill="#84BE84" rx="3" ry="3" style="stroke:#038048;stroke-width:1;"/><text fill="#000000" font-family="sans-serif" font-size="14" lengthAdjust="spacing" textLength="168.1254" x="26" y="179.7218">getDomainName(): String</text><ellipse cx="17" cy="194.8577" fill="#84BE84" rx="3" ry="3" style="stroke:#038048;stroke-width:1;"/><text fill="#000000" font-family="sans-serif" font-size="14" lengthAdjust="spacing" textLength="194.0253" x="26" y="198.7897">setDomainName(String): void</text><ellipse cx="17" cy="213.9256" fill="#84BE84" rx="3" ry="3" style="stroke:#038048;stroke-width:1;"/><text fill="#000000" font-family="sans-serif" font-size="14" lengthAdjust="spacing" textLength="266.027" x="26" y="217.8576">withDomainName(String): DomainPortal</text></a></g><!--class com.hack23.cia.model.internal.application.system.impl.Portal--><g class="entity" data-entity="com.hack23.cia.model.internal.application.system.impl.Portal" data-source-line="20" data-uid="ent0003" id="entity_com.hack23.cia.model.internal.application.system.impl.Portal"><a href="Portal.html" target="_top" title="Portal.html" xlink:actuate="onRequest" xlink:href="Portal.html" xlink:show="new" xlink:title="Portal.html" xlink:type="simple"><rect fill="#F1F1F1" height="42.6879" rx="2.5" ry="2.5" style="stroke:#181818;stroke-width:0.5;" width="289.4398" x="7.5" y="12"/><ellipse cx="22.5" cy="33.344" fill="#ADD1B2" rx="11" ry="11" style="stroke:#181818;stroke-width:1;"/><path d="M25.4688,38.9846 Q24.8906,39.2815 24.25,39.4221 Q23.6094,39.5783 22.9063,39.5783 Q20.4063,39.5783 19.0781,37.9377 Q17.7656,36.2815 17.7656,33.1565 Q17.7656,30.0315 19.0781,28.3752 Q20.4063,26.719 22.9063,26.719 Q23.6094,26.719 24.25,26.8752 Q24.9063,27.0315 25.4688,27.3283 L25.4688,30.0471 Q24.8438,29.469 24.25,29.2033 Q23.6563,28.9221 23.0313,28.9221 Q21.6875,28.9221 21,30.0002 Q20.3125,31.0627 20.3125,33.1565 Q20.3125,35.2502 21,36.3283 Q21.6875,37.3908 23.0313,37.3908 Q23.6563,37.3908 24.25,37.1252 Q24.8438,36.844 25.4688,36.2658 L25.4688,38.9846 Z " fill="#000000"/><text fill="#000000" font-family="sans-serif" font-size="14" lengthAdjust="spacing" textLength="39.2419" x="145.599" y="31.9659">Portal</text><text fill="#000000" font-family="sans-serif" font-size="10" lengthAdjust="spacing" textLength="257.4398" x="36.5" y="46.7579">com.hack23.cia.model.internal.application.system.impl</text></a></g><g class="link" data-entity-1="com.hack23.cia.model.internal.application.system.impl.Portal" data-entity-2="com.hack23.cia.model.internal.application.system.impl.DomainPortal" data-uid="lnk4" id="link_com.hack23.cia.model.internal.application.system.impl.Portal_com.hack23.cia.model.internal.application.system.impl.DomainPortal"><polygon fill="none" points="152,55.0874,146,73.0874,158,73.0874,152,55.0874" style="stroke:#181818;stroke-width:1;"/><path d="M152,73.0874 C152,83.1406 152,77.8631 152,90.8934" fill="none" style="stroke:#181818;stroke-width:1;"/></g><g class="footer" data-source-line="30"><text fill="#888888" font-family="sans-serif" font-size="10" lengthAdjust="spacing" textLength="2.6" x="147.2" y="230.69">&#160;</text><a href="https://github.com/talsma-ict/umldoclet" target="_top" title="https://github.com/talsma-ict/umldoclet" xlink:actuate="onRequest" xlink:href="https://github.com/talsma-ict/umldoclet" xlink:show="new" xlink:title="https://github.com/talsma-ict/umldoclet" xlink:type="simple"><text fill="#888888" font-family="sans-serif" font-size="10" lengthAdjust="spacing" textLength="76.7199" x="110.14" y="244.31">UMLDoclet 2.2.4</text></a></g><!--SRC=[nLHDJzmm4BtpAwPmA0ZMcuG5jIk4X9Qg7zfMgBkSjXm6PqYiTUpKTa1fot_l9Dc6G3crbUfBb9ddDs_U90C0y19cjgoTol80mKB8bOVBZtD0aq96XXm6Ia4Lc967QzBMPBu34c0LSkl0thHlqZf7lhGcLIQ33tYBu6tb97cnjGLjgUKlzZlq0_RhkWcUMwafmEviRo0fYUBZKH8bnx14xGk4zxEbsB0zt4b48YR0t5f9CfufAvEIQsMTbIZvCUyo1t1BpYjh-4wquMbQbTO4LCP3YIxufgKBZIOqMcF1zOz47C7ksMB-M5pqkXLt06VEO9N2P_krwljzKJhCMBB6sbO1V4413NOvpweD5kmNIbeGLyN0LXfhgCtdAYMWeWmrt2ZIgNyQPRBSShYDIutUm_Q9Lzze6azEpst1pLnO5r1_CPjmT2fj8NAKw-HGI8MYi2bfeKmW5gy5bYNRXu7D4RxsWGgXYb9l0y_gZswAeGnOhOQl8W-5lhg2xwt-vkoaRVeJcpA5HN3y4VMv_Op2UP_UtViTu1y1kYp3RgrA7q1tAkJFeOR2MlJzyxR-TqDxAn-Pk17xDumdFqQZVp3aJic93xMcqzxt6skPOp3gvhohIt9pPTOpg_d3ttdrVFQo-O-rCiIhGwuDyJoY7ddVbHiFwcrgVJ6hLHv2wQVZSSPJhwu5TpSExGuPAHd6LQ7JRdayMIFiPxSMtlRxgVd5Hz5a5CVBU38zd4pZHCIJ98cFegF3_IYPHj7gJULiIUD5i7ATMrrS_GG0]--></g></svg>