<svg xmlns="http://www.w3.org/2000/svg" xmlns:xlink="http://www.w3.org/1999/xlink" contentStyleType="text/css" data-diagram-type="CLASS" height="1075px" preserveAspectRatio="none" style="width:531px;height:1075px;background:#FFFFFF;" version="1.1" viewBox="0 0 531 1075" width="531px" zoomAndPan="magnify"><defs/><g><!--class com.hack23.cia.model.internal.application.system.impl.LanguageContentData--><g class="entity" data-entity="com.hack23.cia.model.internal.application.system.impl.LanguageContentData" data-source-line="13" data-uid="ent0002" id="entity_com.hack23.cia.model.internal.application.system.impl.LanguageContentData"><a href="LanguageContentData.html" target="_top" title="LanguageContentData.html" xlink:actuate="onRequest" xlink:href="LanguageContentData.html" xlink:show="new" xlink:title="LanguageContentData.html" xlink:type="simple"><rect fill="#F1F1F1" height="954.88" rx="2.5" ry="2.5" style="stroke:#181818;stroke-width:0.5;" width="518.2241" x="6" y="91"/><ellipse cx="132.1421" cy="112.344" fill="#ADD1B2" rx="11" ry="11" style="stroke:#181818;stroke-width:1;"/><path d="M135.1109,117.9846 Q134.5328,118.2815 133.8921,118.4221 Q133.2515,118.5783 132.5484,118.5783 Q130.0484,118.5783 128.7203,116.9377 Q127.4078,115.2815 127.4078,112.1565 Q127.4078,109.0315 128.7203,107.3752 Q130.0484,105.719 132.5484,105.719 Q133.2515,105.719 133.8921,105.8752 Q134.5484,106.0315 135.1109,106.3283 L135.1109,109.0471 Q134.4859,108.469 133.8921,108.2033 Q133.2984,107.9221 132.6734,107.9221 Q131.3296,107.9221 130.6421,109.0002 Q129.9546,110.0627 129.9546,112.1565 Q129.9546,114.2502 130.6421,115.3283 Q131.3296,116.3908 132.6734,116.3908 Q133.2984,116.3908 133.8921,116.1252 Q134.4859,115.844 135.1109,115.2658 L135.1109,117.9846 Z " fill="#000000"/><text fill="#000000" font-family="sans-serif" font-size="14" lengthAdjust="spacing" textLength="149.0714" x="206.8263" y="110.9659">LanguageContentData</text><text fill="#000000" font-family="sans-serif" font-size="10" lengthAdjust="spacing" textLength="257.4398" x="152.6421" y="125.7579">com.hack23.cia.model.internal.application.system.impl</text><line style="stroke:#181818;stroke-width:0.5;" x1="7" x2="523.2241" y1="133.6879" y2="133.6879"/><polygon fill="none" points="17,143.7219,21,147.7219,17,151.7219,13,147.7219" style="stroke:#B38D22;stroke-width:1;"/><text fill="#000000" font-family="sans-serif" font-size="14" lengthAdjust="spacing" textLength="153.8874" x="26" y="152.6538">modelObjectId: Integer</text><polygon fill="none" points="17,162.7898,21,166.7898,17,170.7898,13,166.7898" style="stroke:#B38D22;stroke-width:1;"/><text fill="#000000" font-family="sans-serif" font-size="14" lengthAdjust="spacing" textLength="158.7314" x="26" y="171.7218">modelObjectVersion: int</text><polygon fill="none" points="17,181.8577,21,185.8577,17,189.8577,13,185.8577" style="stroke:#B38D22;stroke-width:1;"/><text fill="#000000" font-family="sans-serif" font-size="14" lengthAdjust="spacing" textLength="144.4095" x="26" y="190.7897">fromLanguage: String</text><polygon fill="none" points="17,200.9256,21,204.9256,17,208.9256,13,204.9256" style="stroke:#B38D22;stroke-width:1;"/><text fill="#000000" font-family="sans-serif" font-size="14" lengthAdjust="spacing" textLength="125.7755" x="26" y="209.8576">toLanguage: String</text><polygon fill="none" points="17,219.9935,21,223.9935,17,227.9935,13,223.9935" style="stroke:#B38D22;stroke-width:1;"/><text fill="#000000" font-family="sans-serif" font-size="14" lengthAdjust="spacing" textLength="119.2515" x="26" y="228.9255">createdDate: Date</text><polygon fill="none" points="17,239.0614,21,243.0614,17,247.0614,13,243.0614" style="stroke:#B38D22;stroke-width:1;"/><text fill="#000000" font-family="sans-serif" font-size="14" lengthAdjust="spacing" textLength="111.0056" x="26" y="247.9934">keyGroup: String</text><polygon fill="none" points="17,258.1294,21,262.1294,17,266.1294,13,262.1294" style="stroke:#B38D22;stroke-width:1;"/><text fill="#000000" font-family="sans-serif" font-size="14" lengthAdjust="spacing" textLength="150.6114" x="26" y="267.0613">locationContext: String</text><polygon fill="none" points="17,277.1973,21,281.1973,17,285.1973,13,281.1973" style="stroke:#B38D22;stroke-width:1;"/><text fill="#000000" font-family="sans-serif" font-size="14" lengthAdjust="spacing" textLength="150.9894" x="26" y="286.1293">lastModifiedDate: Date</text><polygon fill="none" points="17,296.2652,21,300.2652,17,304.2652,13,300.2652" style="stroke:#B38D22;stroke-width:1;"/><text fill="#000000" font-family="sans-serif" font-size="14" lengthAdjust="spacing" textLength="88.9837" x="26" y="305.1972">refKey: String</text><polygon fill="none" points="17,315.3331,21,319.3331,17,323.3331,13,319.3331" style="stroke:#B38D22;stroke-width:1;"/><text fill="#000000" font-family="sans-serif" font-size="14" lengthAdjust="spacing" textLength="144.9414" x="26" y="324.2651">languageValue: String</text><polygon fill="none" points="17,334.401,21,338.401,17,342.401,13,338.401" style="stroke:#B38D22;stroke-width:1;"/><text fill="#000000" font-family="sans-serif" font-size="14" lengthAdjust="spacing" textLength="302.7068" x="26" y="343.333">languageContentType: LanguageContentType</text><polygon fill="none" points="17,353.4689,21,357.4689,17,361.4689,13,357.4689" style="stroke:#B38D22;stroke-width:1;"/><text fill="#000000" font-family="sans-serif" font-size="14" lengthAdjust="spacing" textLength="64.9457" x="26" y="362.4009">hjid: Long</text><line style="stroke:#181818;stroke-width:0.5;" x1="7" x2="523.2241" y1="370.5029" y2="370.5029"/><ellipse cx="17" cy="385.5369" fill="#84BE84" rx="3" ry="3" style="stroke:#038048;stroke-width:1;"/><text fill="#000000" font-family="sans-serif" font-size="14" lengthAdjust="spacing" textLength="183.4553" x="26" y="389.4688">getModelObjectId(): Integer</text><ellipse cx="17" cy="404.6048" fill="#84BE84" rx="3" ry="3" style="stroke:#038048;stroke-width:1;"/><text fill="#000000" font-family="sans-serif" font-size="14" lengthAdjust="spacing" textLength="209.3552" x="26" y="408.5368">setModelObjectId(Integer): void</text><ellipse cx="17" cy="423.6727" fill="#84BE84" rx="3" ry="3" style="stroke:#038048;stroke-width:1;"/><text fill="#000000" font-family="sans-serif" font-size="14" lengthAdjust="spacing" textLength="188.2993" x="26" y="427.6047">getModelObjectVersion(): int</text><ellipse cx="17" cy="442.7406" fill="#84BE84" rx="3" ry="3" style="stroke:#038048;stroke-width:1;"/><text fill="#000000" font-family="sans-serif" font-size="14" lengthAdjust="spacing" textLength="214.1992" x="26" y="446.6726">setModelObjectVersion(int): void</text><ellipse cx="17" cy="461.8085" fill="#84BE84" rx="3" ry="3" style="stroke:#038048;stroke-width:1;"/><text fill="#000000" font-family="sans-serif" font-size="14" lengthAdjust="spacing" textLength="176.8193" x="26" y="465.7405">getFromLanguage(): String</text><ellipse cx="17" cy="480.8764" fill="#84BE84" rx="3" ry="3" style="stroke:#038048;stroke-width:1;"/><text fill="#000000" font-family="sans-serif" font-size="14" lengthAdjust="spacing" textLength="202.7192" x="26" y="484.8084">setFromLanguage(String): void</text><ellipse cx="17" cy="499.9444" fill="#84BE84" rx="3" ry="3" style="stroke:#038048;stroke-width:1;"/><text fill="#000000" font-family="sans-serif" font-size="14" lengthAdjust="spacing" textLength="158.4654" x="26" y="503.8763">getToLanguage(): String</text><ellipse cx="17" cy="519.0123" fill="#84BE84" rx="3" ry="3" style="stroke:#038048;stroke-width:1;"/><text fill="#000000" font-family="sans-serif" font-size="14" lengthAdjust="spacing" textLength="184.3653" x="26" y="522.9443">setToLanguage(String): void</text><ellipse cx="17" cy="538.0802" fill="#84BE84" rx="3" ry="3" style="stroke:#038048;stroke-width:1;"/><text fill="#000000" font-family="sans-serif" font-size="14" lengthAdjust="spacing" textLength="151.3394" x="26" y="542.0122">getCreatedDate(): Date</text><ellipse cx="17" cy="557.1481" fill="#84BE84" rx="3" ry="3" style="stroke:#038048;stroke-width:1;"/><text fill="#000000" font-family="sans-serif" font-size="14" lengthAdjust="spacing" textLength="177.2393" x="26" y="561.0801">setCreatedDate(Date): void</text><ellipse cx="17" cy="576.216" fill="#84BE84" rx="3" ry="3" style="stroke:#038048;stroke-width:1;"/><text fill="#000000" font-family="sans-serif" font-size="14" lengthAdjust="spacing" textLength="142.1555" x="26" y="580.148">getKeyGroup(): String</text><ellipse cx="17" cy="595.284" fill="#84BE84" rx="3" ry="3" style="stroke:#038048;stroke-width:1;"/><text fill="#000000" font-family="sans-serif" font-size="14" lengthAdjust="spacing" textLength="168.0554" x="26" y="599.2159">setKeyGroup(String): void</text><ellipse cx="17" cy="614.3519" fill="#84BE84" rx="3" ry="3" style="stroke:#038048;stroke-width:1;"/><text fill="#000000" font-family="sans-serif" font-size="14" lengthAdjust="spacing" textLength="184.2953" x="26" y="618.2838">getLocationContext(): String</text><ellipse cx="17" cy="633.4198" fill="#84BE84" rx="3" ry="3" style="stroke:#038048;stroke-width:1;"/><text fill="#000000" font-family="sans-serif" font-size="14" lengthAdjust="spacing" textLength="210.1952" x="26" y="637.3518">setLocationContext(String): void</text><ellipse cx="17" cy="652.4877" fill="#84BE84" rx="3" ry="3" style="stroke:#038048;stroke-width:1;"/><text fill="#000000" font-family="sans-serif" font-size="14" lengthAdjust="spacing" textLength="184.6733" x="26" y="656.4197">getLastModifiedDate(): Date</text><ellipse cx="17" cy="671.5556" fill="#84BE84" rx="3" ry="3" style="stroke:#038048;stroke-width:1;"/><text fill="#000000" font-family="sans-serif" font-size="14" lengthAdjust="spacing" textLength="210.5732" x="26" y="675.4876">setLastModifiedDate(Date): void</text><ellipse cx="17" cy="690.6235" fill="#84BE84" rx="3" ry="3" style="stroke:#038048;stroke-width:1;"/><text fill="#000000" font-family="sans-serif" font-size="14" lengthAdjust="spacing" textLength="121.8695" x="26" y="694.5555">getRefKey(): String</text><ellipse cx="17" cy="709.6915" fill="#84BE84" rx="3" ry="3" style="stroke:#038048;stroke-width:1;"/><text fill="#000000" font-family="sans-serif" font-size="14" lengthAdjust="spacing" textLength="147.7694" x="26" y="713.6234">setRefKey(String): void</text><ellipse cx="17" cy="728.7594" fill="#84BE84" rx="3" ry="3" style="stroke:#038048;stroke-width:1;"/><text fill="#000000" font-family="sans-serif" font-size="14" lengthAdjust="spacing" textLength="178.6253" x="26" y="732.6913">getLanguageValue(): String</text><ellipse cx="17" cy="747.8273" fill="#84BE84" rx="3" ry="3" style="stroke:#038048;stroke-width:1;"/><text fill="#000000" font-family="sans-serif" font-size="14" lengthAdjust="spacing" textLength="204.5252" x="26" y="751.7593">setLanguageValue(String): void</text><ellipse cx="17" cy="766.8952" fill="#84BE84" rx="3" ry="3" style="stroke:#038048;stroke-width:1;"/><text fill="#000000" font-family="sans-serif" font-size="14" lengthAdjust="spacing" textLength="336.3907" x="26" y="770.8272">getLanguageContentType(): LanguageContentType</text><ellipse cx="17" cy="785.9631" fill="#84BE84" rx="3" ry="3" style="stroke:#038048;stroke-width:1;"/><text fill="#000000" font-family="sans-serif" font-size="14" lengthAdjust="spacing" textLength="362.2906" x="26" y="789.8951">setLanguageContentType(LanguageContentType): void</text><ellipse cx="17" cy="805.031" fill="#84BE84" rx="3" ry="3" style="stroke:#038048;stroke-width:1;"/><text fill="#000000" font-family="sans-serif" font-size="14" lengthAdjust="spacing" textLength="339.2887" x="26" y="808.963">withModelObjectId(Integer): LanguageContentData</text><ellipse cx="17" cy="824.099" fill="#84BE84" rx="3" ry="3" style="stroke:#038048;stroke-width:1;"/><text fill="#000000" font-family="sans-serif" font-size="14" lengthAdjust="spacing" textLength="344.1327" x="26" y="828.0309">withModelObjectVersion(int): LanguageContentData</text><ellipse cx="17" cy="843.1669" fill="#84BE84" rx="3" ry="3" style="stroke:#038048;stroke-width:1;"/><text fill="#000000" font-family="sans-serif" font-size="14" lengthAdjust="spacing" textLength="332.6527" x="26" y="847.0988">withFromLanguage(String): LanguageContentData</text><ellipse cx="17" cy="862.2348" fill="#84BE84" rx="3" ry="3" style="stroke:#038048;stroke-width:1;"/><text fill="#000000" font-family="sans-serif" font-size="14" lengthAdjust="spacing" textLength="314.2988" x="26" y="866.1668">withToLanguage(String): LanguageContentData</text><ellipse cx="17" cy="881.3027" fill="#84BE84" rx="3" ry="3" style="stroke:#038048;stroke-width:1;"/><text fill="#000000" font-family="sans-serif" font-size="14" lengthAdjust="spacing" textLength="307.1728" x="26" y="885.2347">withCreatedDate(Date): LanguageContentData</text><ellipse cx="17" cy="900.3706" fill="#84BE84" rx="3" ry="3" style="stroke:#038048;stroke-width:1;"/><text fill="#000000" font-family="sans-serif" font-size="14" lengthAdjust="spacing" textLength="297.9889" x="26" y="904.3026">withKeyGroup(String): LanguageContentData</text><ellipse cx="17" cy="919.4385" fill="#84BE84" rx="3" ry="3" style="stroke:#038048;stroke-width:1;"/><text fill="#000000" font-family="sans-serif" font-size="14" lengthAdjust="spacing" textLength="340.1287" x="26" y="923.3705">withLocationContext(String): LanguageContentData</text><ellipse cx="17" cy="938.5065" fill="#84BE84" rx="3" ry="3" style="stroke:#038048;stroke-width:1;"/><text fill="#000000" font-family="sans-serif" font-size="14" lengthAdjust="spacing" textLength="340.5067" x="26" y="942.4384">withLastModifiedDate(Date): LanguageContentData</text><ellipse cx="17" cy="957.5744" fill="#84BE84" rx="3" ry="3" style="stroke:#038048;stroke-width:1;"/><text fill="#000000" font-family="sans-serif" font-size="14" lengthAdjust="spacing" textLength="277.7029" x="26" y="961.5063">withRefKey(String): LanguageContentData</text><ellipse cx="17" cy="976.6423" fill="#84BE84" rx="3" ry="3" style="stroke:#038048;stroke-width:1;"/><text fill="#000000" font-family="sans-serif" font-size="14" lengthAdjust="spacing" textLength="334.4587" x="26" y="980.5743">withLanguageValue(String): LanguageContentData</text><ellipse cx="17" cy="995.7102" fill="#84BE84" rx="3" ry="3" style="stroke:#038048;stroke-width:1;"/><text fill="#000000" font-family="sans-serif" font-size="14" lengthAdjust="spacing" textLength="492.2241" x="26" y="999.6422">withLanguageContentType(LanguageContentType): LanguageContentData</text><ellipse cx="17" cy="1014.7781" fill="#84BE84" rx="3" ry="3" style="stroke:#038048;stroke-width:1;"/><text fill="#000000" font-family="sans-serif" font-size="14" lengthAdjust="spacing" textLength="96.6276" x="26" y="1018.7101">getHjid(): Long</text><ellipse cx="17" cy="1033.846" fill="#84BE84" rx="3" ry="3" style="stroke:#038048;stroke-width:1;"/><text fill="#000000" font-family="sans-serif" font-size="14" lengthAdjust="spacing" textLength="122.5275" x="26" y="1037.778">setHjid(Long): void</text></a></g><!--class com.hack23.cia.model.common.api.ModelObject--><g class="entity" data-entity="com.hack23.cia.model.common.api.ModelObject" data-source-line="63" data-uid="ent0003" id="entity_com.hack23.cia.model.common.api.ModelObject"><rect fill="#F1F1F1" height="42.6879" rx="2.5" ry="2.5" style="stroke:#181818;stroke-width:0.5;" width="189.3398" x="170.5" y="12"/><ellipse cx="185.5" cy="33.344" fill="#B4A7E5" rx="11" ry="11" style="stroke:#181818;stroke-width:1;"/><path d="M181.4219,29.1096 L181.4219,26.9533 L188.8125,26.9533 L188.8125,29.1096 L186.3438,29.1096 L186.3438,37.1877 L188.8125,37.1877 L188.8125,39.344 L181.4219,39.344 L181.4219,37.1877 L183.8906,37.1877 L183.8906,29.1096 L181.4219,29.1096 Z " fill="#000000"/><text fill="#000000" font-family="sans-serif" font-size="14" font-style="italic" lengthAdjust="spacing" textLength="78.1477" x="239.096" y="31.9659">ModelObject</text><text fill="#000000" font-family="sans-serif" font-size="10" font-style="italic" lengthAdjust="spacing" textLength="157.3398" x="199.5" y="46.7579">com.hack23.cia.model.common.api</text></g><g class="link" data-entity-1="com.hack23.cia.model.common.api.ModelObject" data-entity-2="com.hack23.cia.model.internal.application.system.impl.LanguageContentData" data-uid="lnk4" id="link_com.hack23.cia.model.common.api.ModelObject_com.hack23.cia.model.internal.application.system.impl.LanguageContentData"><polygon fill="none" points="265,55.0676,259,73.0676,271,73.0676,265,55.0676" style="stroke:#181818;stroke-width:1;"/><path d="M265,73.0676 C265,82.3464 265,76.4654 265,90.8033" fill="none" style="stroke:#181818;stroke-width:1;stroke-dasharray:7,7;"/></g><g class="footer" data-source-line="73"><text fill="#888888" font-family="sans-serif" font-size="10" lengthAdjust="spacing" textLength="2.6" x="260.2" y="1050.69">&#160;</text><a href="https://github.com/talsma-ict/umldoclet" target="_top" title="https://github.com/talsma-ict/umldoclet" xlink:actuate="onRequest" xlink:href="https://github.com/talsma-ict/umldoclet" xlink:show="new" xlink:title="https://github.com/talsma-ict/umldoclet" xlink:type="simple"><text fill="#888888" font-family="sans-serif" font-size="10" lengthAdjust="spacing" textLength="76.7199" x="223.14" y="1064.31">UMLDoclet 2.2.4</text></a></g><!--SRC=[hLPRSzCu57xdLvo5XorJgjXkA93fTAOJTg7RT61eu2NaGRKLMqIMZ2INDPV_pf7j9evZrvsTzOCpEPVlNFGf-G00_eIfoWhDuyI2LM0JRk3ZrGoeZ21cacbgMGGyfJ4pSCE4ah6f0XdGt2PAWrgLtqAbDJEPaX6NCVn3RoaObUkG6VBe4PIbvdVetwXfeDyKplXQXO9PE9W-RRGKUFx9KU059p2dmgGKBgPpKgDjSm8Ia34Wjk0XamOXSnanNRPrdj4GFsQLvndSCcsuafZZrJXkr519Ixaqa55jZHlflQ3IkbvzWlMV4z-3W_FhsMvptgkokMTmhYND8_YWlkQRUV_8D8snPK4BbLimARDKqifdi6j9KzmN3TarmwhKuYgbagpq9pnYmDBC5h3YJ4IcRKMmHA6vj8U26WEFJmt_pYR- -6n6PPpZYKrnAYRjQshfPrbxlRDGfIIXuJeu9Y6d95KH4uHZ9CuW2Cqot2Ark2DY2cDPIdYQYSU0H_QVCab7Dx1OT5X9ObEnNCAFSYZtF2bBlBlvma9x4KtW0cDZfZlzdwg3dG0sj0rOQPNUbPh0jTL8pgtNgdvVg9bZ9pQ6JlVUkjQiUADLdkqd2LKje9pgNziHG8szKX77K-s4rcnroOgklAhFJrJahDzTRtDUP1WqspTkCv8l71SwKmsKmvYvthOBFtYwl_93qmwg8p3sLl6e3wq-7WVPFA0Mt5qKXdJX_TquJOVKMeC3smcf_5r8SpM0qmZeHvbkEU9WTexIWJJzxjM5SLcJgQUFZRk_YzakwNg0sb7tuBKusZdQNb3VV1zAHlSqLJllwwN1-xx9TcA6iHhtmI7UTqsQyCsq3jjUnM_S9dqtfUFNhpTnzquCPdPVWC6qBhuF9dNmUp1ddz23ARtK7SxiOUbWOfkO3wZKIS87vmspwruefFTR_4Kl-QnQzwDqE6kJehygwL3-UwzGX3JaGuDxGx81ZId-tTECzmk4RGnf8DVAvU49SFgJaFzFWbJrJuqj13lRh6kb548r58XxtkB-zOpBzLG956bFNdPxFphDARXaA7F3jMGeoRnDvA-gtAXHhwxrMIuMYRMPcOn6CH8Ylt4B6DbIxnxnq8xoL4ILq6r9tkMobh1lDbhQoT4ZRtpa-tD_F3aUJ_o0-CzV71-V12zE3hrWudcBltAjCZQwjYfS9qgaozy0]--></g></svg>