<?xml version="1.0" encoding="UTF-8" standalone="no"?>
<!DOCTYPE svg PUBLIC "-//W3C//DTD SVG 1.1//EN"
 "http://www.w3.org/Graphics/SVG/1.1/DTD/svg11.dtd">
<!-- Generated by graphviz version 14.1.2 (0)
 -->
<!-- Title: TableGraph Pages: 1 -->
<svg width="396pt" height="366pt"
 viewBox="0.00 0.00 396.00 366.00" xmlns="http://www.w3.org/2000/svg" xmlns:xlink="http://www.w3.org/1999/xlink">
<g id="graph0" class="graph" transform="scale(1 1) rotate(0) translate(4 361.75)">
<title>TableGraph</title>
<g id="a_graph0"><a xlink:href="http://tools.hibernate.org" xlink:title="Table Graph">
<polygon fill="white" stroke="none" points="-4,4 -4,-361.75 392.12,-361.75 392.12,4 -4,4"/>
<text xml:space="preserve" text-anchor="middle" x="194.06" y="-6.5" font-family="Helvetica,sans-Serif" font-size="10.00">Table Graph</text>
</a>
</g>
<!-- BALLOT_DOCUMENT_ELEMENT -->
<g id="node1" class="node">
<title>BALLOT_DOCUMENT_ELEMENT</title>
<polygon fill="yellow" stroke="black" points="0,-197.25 0,-357.25 202,-357.25 202,-197.25 0,-197.25"/>
<text xml:space="preserve" text-anchor="middle" x="101" y="-343.75" font-family="Helvetica,sans-Serif" font-size="10.00">BALLOT_DOCUMENT_ELEMENT</text>
<polyline fill="none" stroke="black" points="0,-337.25 202,-337.25"/>
<text xml:space="preserve" text-anchor="start" x="8" y="-323.75" font-family="Helvetica,sans-Serif" font-size="10.00">HJID</text>
<polyline fill="none" stroke="black" points="0,-317.25 202,-317.25"/>
<text xml:space="preserve" text-anchor="start" x="8" y="-303.75" font-family="Helvetica,sans-Serif" font-size="10.00">ABSENT_VOTES</text>
<polyline fill="none" stroke="black" points="0,-297.25 202,-297.25"/>
<text xml:space="preserve" text-anchor="start" x="8" y="-283.75" font-family="Helvetica,sans-Serif" font-size="10.00">ABSTAINED_VOTES</text>
<polyline fill="none" stroke="black" points="0,-277.25 202,-277.25"/>
<text xml:space="preserve" text-anchor="start" x="8" y="-263.75" font-family="Helvetica,sans-Serif" font-size="10.00">BALLOT_ID</text>
<polyline fill="none" stroke="black" points="0,-257.25 202,-257.25"/>
<text xml:space="preserve" text-anchor="start" x="8" y="-243.75" font-family="Helvetica,sans-Serif" font-size="10.00">NO_VOTES</text>
<polyline fill="none" stroke="black" points="0,-237.25 202,-237.25"/>
<text xml:space="preserve" text-anchor="start" x="8" y="-223.75" font-family="Helvetica,sans-Serif" font-size="10.00">YES_VOTES</text>
<polyline fill="none" stroke="black" points="0,-217.25 202,-217.25"/>
<text xml:space="preserve" text-anchor="start" x="8" y="-203.75" font-family="Helvetica,sans-Serif" font-size="10.00">VOTERING_VOTE_LIST_CONTAINER_0</text>
</g>
<!-- VOTE_LIST_CONTAINER_ELEMENT -->
<g id="node2" class="node">
<title>VOTE_LIST_CONTAINER_ELEMENT</title>
<polygon fill="yellow" stroke="black" points="201.88,-20.5 201.88,-120.5 388.12,-120.5 388.12,-20.5 201.88,-20.5"/>
<text xml:space="preserve" text-anchor="middle" x="295" y="-107" font-family="Helvetica,sans-Serif" font-size="10.00">VOTE_LIST_CONTAINER_ELEMENT</text>
<polyline fill="none" stroke="black" points="201.88,-100.5 388.12,-100.5"/>
<text xml:space="preserve" text-anchor="start" x="209.88" y="-87" font-family="Helvetica,sans-Serif" font-size="10.00">HJID</text>
<polyline fill="none" stroke="black" points="201.88,-80.5 388.12,-80.5"/>
<text xml:space="preserve" text-anchor="start" x="209.88" y="-67" font-family="Helvetica,sans-Serif" font-size="10.00">CONDITION</text>
<polyline fill="none" stroke="black" points="201.88,-60.5 388.12,-60.5"/>
<text xml:space="preserve" text-anchor="start" x="209.88" y="-47" font-family="Helvetica,sans-Serif" font-size="10.00">GROUPING_</text>
<polyline fill="none" stroke="black" points="201.88,-40.5 388.12,-40.5"/>
<text xml:space="preserve" text-anchor="start" x="209.88" y="-27" font-family="Helvetica,sans-Serif" font-size="10.00">NUMBER_VALUE</text>
</g>
<!-- BALLOT_DOCUMENT_ELEMENT&#45;&gt;VOTE_LIST_CONTAINER_ELEMENT -->
<g id="edge1" class="edge">
<title>BALLOT_DOCUMENT_ELEMENT:se&#45;&gt;VOTE_LIST_CONTAINER_ELEMENT:nw</title>
<path fill="none" stroke="lightgrey" d="M202,-196.75C222.64,-176.11 189.49,-152.2 195.84,-130.69"/>
<polygon fill="lightgrey" stroke="lightgrey" points="198.76,-132.62 201.08,-122.28 192.82,-128.92 198.76,-132.62"/>
<text xml:space="preserve" text-anchor="middle" x="264.82" y="-171.15" font-family="Helvetica,sans-Serif" font-size="8.00">FK1x1owmainpondq508lm7dllrf</text>
</g>
</g>
</svg>
