<?xml version="1.0" encoding="UTF-8" standalone="no"?><svg xmlns="http://www.w3.org/2000/svg" xmlns:xlink="http://www.w3.org/1999/xlink" contentScriptType="application/ecmascript" contentStyleType="text/css" height="215px" preserveAspectRatio="none" style="width:362px;height:215px;background:#FFFFFF;" version="1.1" viewBox="0 0 362 215" width="362px" zoomAndPan="magnify"><defs><filter height="300%" id="f12chnsk1ve5e4" width="300%" x="-1" y="-1"><feGaussianBlur result="blurOut" stdDeviation="2.0"/><feColorMatrix in="blurOut" result="blurOut2" type="matrix" values="0 0 0 0 0 0 0 0 0 0 0 0 0 0 0 0 0 0 .4 0"/><feOffset dx="4.0" dy="4.0" in="blurOut2" result="blurOut3"/><feBlend in="SourceGraphic" in2="blurOut3" mode="normal"/></filter></defs><g><!--MD5=[b2fa11f834b255763df0320517bd92aa]
class com.hack23.cia.web.impl.ui.application.views.admin.system.AdminCountryView--><a href="AdminCountryView.html" target="_top" title="AdminCountryView.html" xlink:actuate="onRequest" xlink:href="AdminCountryView.html" xlink:show="new" xlink:title="AdminCountryView.html" xlink:type="simple"><rect codeLine="5" fill="#FEFECE" filter="url(#f12chnsk1ve5e4)" height="79.5469" id="com.hack23.cia.web.impl.ui.application.views.admin.system.AdminCountryView" style="stroke:#A80036;stroke-width:1.5;" width="319" x="18" y="105"/><ellipse cx="33" cy="123.9688" fill="#ADD1B2" rx="11" ry="11" style="stroke:#A80036;stroke-width:1.0;"/><path d="M35.9688,129.6094 Q35.3906,129.9063 34.75,130.0469 Q34.1094,130.2031 33.4063,130.2031 Q30.9063,130.2031 29.5781,128.5625 Q28.2656,126.9063 28.2656,123.7813 Q28.2656,120.6563 29.5781,119 Q30.9063,117.3438 33.4063,117.3438 Q34.1094,117.3438 34.75,117.5 Q35.4063,117.6563 35.9688,117.9531 L35.9688,120.6719 Q35.3438,120.0938 34.75,119.8281 Q34.1563,119.5469 33.5313,119.5469 Q32.1875,119.5469 31.5,120.625 Q30.8125,121.6875 30.8125,123.7813 Q30.8125,125.875 31.5,126.9531 Q32.1875,128.0156 33.5313,128.0156 Q34.1563,128.0156 34.75,127.75 Q35.3438,127.4688 35.9688,126.8906 L35.9688,129.6094 Z " fill="#000000"/><text fill="#000000" font-family="sans-serif" font-size="14" lengthAdjust="spacing" textLength="129" x="126" y="122.9951">AdminCountryView</text><text fill="#000000" font-family="sans-serif" font-size="10" lengthAdjust="spacing" textLength="287" x="47" y="135.5791">com.hack23.cia.web.impl.ui.application.views.admin.system</text><line style="stroke:#A80036;stroke-width:1.5;" x1="19" x2="336" y1="142.9375" y2="142.9375"/><ellipse cx="29" cy="153.9375" rx="3" ry="3" style="stroke:#038048;stroke-width:1.0;fill:none;"/><text fill="#000000" font-family="sans-serif" font-size="11" lengthAdjust="spacing" text-decoration="underline" textLength="73" x="38" y="157.1479">NAME: String</text><line style="stroke:#A80036;stroke-width:1.5;" x1="19" x2="336" y1="163.7422" y2="163.7422"/><ellipse cx="29" cy="174.7422" fill="#84BE84" rx="3" ry="3" style="stroke:#038048;stroke-width:1.0;"/><text fill="#000000" font-family="sans-serif" font-size="11" lengthAdjust="spacing" textLength="217" x="38" y="177.9526">AdminCountryView(ApplicationContext)</text></a><!--MD5=[b628d671c4eff2c1215f9ca2bed664d9]
class com.hack23.cia.web.impl.ui.application.views.admin.common.AbstractAdminView--><a href="../common/AbstractAdminView.html" target="_top" title="../common/AbstractAdminView.html" xlink:actuate="onRequest" xlink:href="../common/AbstractAdminView.html" xlink:show="new" xlink:title="../common/AbstractAdminView.html" xlink:type="simple"><rect codeLine="10" fill="#FEFECE" filter="url(#f12chnsk1ve5e4)" height="37.9375" id="com.hack23.cia.web.impl.ui.application.views.admin.common.AbstractAdminView" style="stroke:#A80036;stroke-width:1.5;" width="341" x="7" y="7"/><ellipse cx="22" cy="25.9688" fill="#A9DCDF" rx="11" ry="11" style="stroke:#A80036;stroke-width:1.0;"/><path d="M22.1094,21.3125 L20.9531,26.3906 L23.2813,26.3906 L22.1094,21.3125 Z M20.625,19.0781 L23.6094,19.0781 L26.9688,31.4688 L24.5156,31.4688 L23.75,28.4063 L20.4688,28.4063 L19.7188,31.4688 L17.2813,31.4688 L20.625,19.0781 Z " fill="#000000"/><text fill="#000000" font-family="sans-serif" font-size="14" font-style="italic" lengthAdjust="spacing" textLength="134" x="123.5" y="24.9951">AbstractAdminView</text><text fill="#000000" font-family="sans-serif" font-size="10" font-style="italic" lengthAdjust="spacing" textLength="309" x="36" y="37.5791">com.hack23.cia.web.impl.ui.application.views.admin.common</text></a><!--MD5=[6b9ee3841a1b70de6d925282ca6b8a5a]
reverse link com.hack23.cia.web.impl.ui.application.views.admin.common.AbstractAdminView to com.hack23.cia.web.impl.ui.application.views.admin.system.AdminCountryView--><path codeLine="12" d="M177.5,65.14 C177.5,77.87 177.5,92.07 177.5,104.87 " fill="none" id="com.hack23.cia.web.impl.ui.application.views.admin.common.AbstractAdminView-backto-com.hack23.cia.web.impl.ui.application.views.admin.system.AdminCountryView" style="stroke:#A80036;stroke-width:1.0;"/><polygon fill="none" points="170.5,65.02,177.5,45.02,184.5,65.02,170.5,65.02" style="stroke:#A80036;stroke-width:1.0;"/><text fill="#888888" font-family="sans-serif" font-size="10" lengthAdjust="spacing" textLength="192" x="78.5" y="206.8291">UMLDoclet 2.0.15, PlantUML 1.2021.13</text><!--MD5=[a8cf8a111c7c581e8f596fa16855807b]
@startuml
    set namespaceSeparator none
    hide empty fields
    hide empty methods

    class "<size:14>AdminCountryView\n<size:10>com.hack23.cia.web.impl.ui.application.views.admin.system" as com.hack23.cia.web.impl.ui.application.views.admin.system.AdminCountryView [[AdminCountryView.html]] {
        {static} +NAME: String
        +AdminCountryView(ApplicationContext)
    }

    abstract class "<size:14>AbstractAdminView\n<size:10>com.hack23.cia.web.impl.ui.application.views.admin.common" as com.hack23.cia.web.impl.ui.application.views.admin.common.AbstractAdminView [[../common/AbstractAdminView.html]]

    com.hack23.cia.web.impl.ui.application.views.admin.common.AbstractAdminView <|- - com.hack23.cia.web.impl.ui.application.views.admin.system.AdminCountryView

    center footer UMLDoclet 2.0.15, PlantUML 1.2021.13
@enduml

PlantUML version 1.2021.13(Mon Nov 01 12:38:45 CET 2021)
(APACHE source distribution)
Java Runtime: OpenJDK Runtime Environment
JVM: OpenJDK 64-Bit Server VM
Default Encoding: UTF-8
Language: en
Country: US
--></g></svg>