<?xml version="1.0" encoding="UTF-8" standalone="no"?><svg xmlns="http://www.w3.org/2000/svg" xmlns:xlink="http://www.w3.org/1999/xlink" contentScriptType="application/ecmascript" contentStyleType="text/css" height="218px" preserveAspectRatio="none" style="width:358px;height:218px;" version="1.1" viewBox="0 0 358 218" width="358px" zoomAndPan="magnify"><defs><filter height="300%" id="f1wcbtxcpayk1m" width="300%" x="-1" y="-1"><feGaussianBlur result="blurOut" stdDeviation="2.0"/><feColorMatrix in="blurOut" result="blurOut2" type="matrix" values="0 0 0 0 0 0 0 0 0 0 0 0 0 0 0 0 0 0 .4 0"/><feOffset dx="4.0" dy="4.0" in="blurOut2" result="blurOut3"/><feBlend in="SourceGraphic" in2="blurOut3" mode="normal"/></filter></defs><g><!--class com.hack23.cia.web.impl.ui.application.views.admin.system.AdminApplicationConfigurationView--><a href="AdminApplicationConfigurationView.html" target="_top" xlink:actuate="onRequest" xlink:show="new" xlink:title="AdminApplicationConfigurationView.html" xlink:type="simple"><rect fill="#FEFECE" filter="url(#f1wcbtxcpayk1m)" height="79.5469" id="com.hack23.cia.web.impl.ui.application.views.admin.system.AdminApplicationConfigurationView" style="stroke: #A80036; stroke-width: 1.5;" width="336" x="8.5" y="106"/><ellipse cx="31.15" cy="124.9688" fill="#ADD1B2" rx="11" ry="11" style="stroke: #A80036; stroke-width: 1.0;"/><path d="M34.1188,130.6094 Q33.5406,130.9063 32.9,131.0469 Q32.2594,131.2031 31.5563,131.2031 Q29.0563,131.2031 27.7281,129.5625 Q26.4156,127.9063 26.4156,124.7813 Q26.4156,121.6563 27.7281,120 Q29.0563,118.3438 31.5563,118.3438 Q32.2594,118.3438 32.9,118.5 Q33.5563,118.6563 34.1188,118.9531 L34.1188,121.6719 Q33.4938,121.0938 32.9,120.8281 Q32.3063,120.5469 31.6813,120.5469 Q30.3375,120.5469 29.65,121.625 Q28.9625,122.6875 28.9625,124.7813 Q28.9625,126.875 29.65,127.9531 Q30.3375,129.0156 31.6813,129.0156 Q32.3063,129.0156 32.9,128.75 Q33.4938,128.4688 34.1188,127.8906 L34.1188,130.6094 Z "/><text fill="#000000" font-family="sans-serif" font-size="14" lengthAdjust="spacingAndGlyphs" textLength="242" x="69.35" y="123.9951">AdminApplicationConfigurationView</text><text fill="#000000" font-family="sans-serif" font-size="10" lengthAdjust="spacingAndGlyphs" textLength="287" x="46.85" y="136.5791">com.hack23.cia.web.impl.ui.application.views.admin.system</text><line style="stroke: #A80036; stroke-width: 1.5;" x1="9.5" x2="343.5" y1="143.9375" y2="143.9375"/><ellipse cx="19.5" cy="155.8398" fill="none" rx="3" ry="3" style="stroke: #038048; stroke-width: 1.0;"/><text fill="#000000" font-family="sans-serif" font-size="11" lengthAdjust="spacingAndGlyphs" text-decoration="underline" textLength="73" x="28.5" y="158.1479">NAME: String</text><line style="stroke: #A80036; stroke-width: 1.5;" x1="9.5" x2="343.5" y1="164.7422" y2="164.7422"/><ellipse cx="19.5" cy="176.6445" fill="#84BE84" rx="3" ry="3" style="stroke: #038048; stroke-width: 1.0;"/><text fill="#000000" font-family="sans-serif" font-size="11" lengthAdjust="spacingAndGlyphs" textLength="310" x="28.5" y="178.9526">AdminApplicationConfigurationView(ApplicationContext)</text></a><!--class com.hack23.cia.web.impl.ui.application.views.admin.common.AbstractAdminView--><a href="../common/AbstractAdminView.html" target="_top" xlink:actuate="onRequest" xlink:show="new" xlink:title="../common/AbstractAdminView.html" xlink:type="simple"><rect fill="#FEFECE" filter="url(#f1wcbtxcpayk1m)" height="37.9375" id="com.hack23.cia.web.impl.ui.application.views.admin.common.AbstractAdminView" style="stroke: #A80036; stroke-width: 1.5;" width="341" x="6" y="8"/><ellipse cx="21" cy="26.9688" fill="#A9DCDF" rx="11" ry="11" style="stroke: #A80036; stroke-width: 1.0;"/><path d="M21.1094,22.3125 L19.9531,27.3906 L22.2813,27.3906 L21.1094,22.3125 Z M19.625,20.0781 L22.6094,20.0781 L25.9688,32.4688 L23.5156,32.4688 L22.75,29.4063 L19.4688,29.4063 L18.7188,32.4688 L16.2813,32.4688 L19.625,20.0781 Z "/><text fill="#000000" font-family="sans-serif" font-size="14" font-style="italic" lengthAdjust="spacingAndGlyphs" textLength="134" x="122.5" y="25.9951">AbstractAdminView</text><text fill="#000000" font-family="sans-serif" font-size="10" font-style="italic" lengthAdjust="spacingAndGlyphs" textLength="309" x="35" y="38.5791">com.hack23.cia.web.impl.ui.application.views.admin.common</text></a><!--link com.hack23.cia.web.impl.ui.application.views.admin.common.AbstractAdminView to com.hack23.cia.web.impl.ui.application.views.admin.system.AdminApplicationConfigurationView--><path d="M176.5,66.2438 C176.5,78.9166 176.5,92.9816 176.5,105.7276 " fill="none" id="com.hack23.cia.web.impl.ui.application.views.admin.common.AbstractAdminView-com.hack23.cia.web.impl.ui.application.views.admin.system.AdminApplicationConfigurationView" style="stroke: #A80036; stroke-width: 1.0;"/><polygon fill="none" points="169.5001,66.1194,176.5,46.1194,183.5001,66.1194,169.5001,66.1194" style="stroke: #A80036; stroke-width: 1.0;"/><text fill="#888888" font-family="sans-serif" font-size="10" lengthAdjust="spacingAndGlyphs" textLength="186" x="89.5" y="205.2822">UMLDoclet 2.0.5, PlantUML 1.2019.08</text><!--
@startuml
    set namespaceSeparator none
    hide empty fields
    hide empty methods

    class "<size:14>AdminApplicationConfigurationView\n<size:10>com.hack23.cia.web.impl.ui.application.views.admin.system" as com.hack23.cia.web.impl.ui.application.views.admin.system.AdminApplicationConfigurationView [[AdminApplicationConfigurationView.html]] {
        {static} +NAME: String
        +AdminApplicationConfigurationView(ApplicationContext)
    }

    abstract class "<size:14>AbstractAdminView\n<size:10>com.hack23.cia.web.impl.ui.application.views.admin.common" as com.hack23.cia.web.impl.ui.application.views.admin.common.AbstractAdminView [[../common/AbstractAdminView.html]]

    com.hack23.cia.web.impl.ui.application.views.admin.common.AbstractAdminView <|- - com.hack23.cia.web.impl.ui.application.views.admin.system.AdminApplicationConfigurationView

    center footer UMLDoclet 2.0.5, PlantUML 1.2019.08
@enduml

PlantUML version 1.2019.08(Sat Jul 13 21:25:14 CEST 2019)
(APACHE source distribution)
Java Runtime: OpenJDK Runtime Environment
JVM: OpenJDK 64-Bit Server VM
Java Version: 11.0.5-ea+10-post-Ubuntu-0ubuntu1
Operating System: Linux
OS Version: 5.3.0-13-generic
Default Encoding: UTF-8
Language: en
Country: US
--></g></svg>