<?xml version="1.0" encoding="UTF-8" standalone="no"?><svg xmlns="http://www.w3.org/2000/svg" xmlns:xlink="http://www.w3.org/1999/xlink" contentScriptType="application/ecmascript" contentStyleType="text/css" height="277px" preserveAspectRatio="none" style="width:3381px;height:277px;background:#FFFFFF;" version="1.1" viewBox="0 0 3381 277" width="3381px" zoomAndPan="magnify"><defs><filter height="300%" id="f190xs3r0wxlzb" width="300%" x="-1" y="-1"><feGaussianBlur result="blurOut" stdDeviation="2.0"/><feColorMatrix in="blurOut" result="blurOut2" type="matrix" values="0 0 0 0 0 0 0 0 0 0 0 0 0 0 0 0 0 0 .4 0"/><feOffset dx="4.0" dy="4.0" in="blurOut2" result="blurOut3"/><feBlend in="SourceGraphic" in2="blurOut3" mode="normal"/></filter></defs><g><!--MD5=[1ba1a911a645dc752bdfac8c673d39e4]
cluster com.hack23.cia.web.impl.ui.application.views.admin.system--><polygon fill="#FFFFFF" filter="url(#f190xs3r0wxlzb)" points="16,129,494,129,501,151.2969,3364,151.2969,3364,254,16,254,16,129" style="stroke:#000000;stroke-width:1.5;"/><line style="stroke:#000000;stroke-width:1.5;" x1="16" x2="501" y1="151.2969" y2="151.2969"/><text fill="#000000" font-family="sans-serif" font-size="14" font-weight="bold" lengthAdjust="spacing" textLength="472" x="20" y="143.9951">com.hack23.cia.web.impl.ui.application.views.admin.system</text><!--MD5=[2fc79fc02b824a2bdf1da9a2a440a5c2]
cluster com.hack23.cia.web.impl.ui.application.views.admin.common--><polygon fill="#FFFFFF" filter="url(#f190xs3r0wxlzb)" points="1517,6,2005,6,2012,28.2969,2015,28.2969,2015,105,1517,105,1517,6" style="stroke:#000000;stroke-width:1.5;"/><line style="stroke:#000000;stroke-width:1.5;" x1="1517" x2="2012" y1="28.2969" y2="28.2969"/><text fill="#000000" font-family="sans-serif" font-size="14" font-weight="bold" lengthAdjust="spacing" textLength="482" x="1521" y="20.9951">com.hack23.cia.web.impl.ui.application.views.admin.common</text><!--MD5=[a23256d83e25c6b8c3271c5a532ef8d8]
class com.hack23.cia.web.impl.ui.application.views.admin.system.AdminEmailView--><a href="AdminEmailView.html" target="_top" title="AdminEmailView.html" xlink:actuate="onRequest" xlink:href="AdminEmailView.html" xlink:show="new" xlink:title="AdminEmailView.html" xlink:type="simple"><rect codeLine="3" fill="#FEFECE" filter="url(#f190xs3r0wxlzb)" height="73.6094" id="com.hack23.cia.web.impl.ui.application.views.admin.system.AdminEmailView" style="stroke:#A80036;stroke-width:1.5;" width="230" x="3118" y="164"/><ellipse cx="3179.25" cy="180" fill="#ADD1B2" rx="11" ry="11" style="stroke:#A80036;stroke-width:1.0;"/><path d="M3182.2188,185.6406 Q3181.6406,185.9375 3181,186.0781 Q3180.3594,186.2344 3179.6563,186.2344 Q3177.1563,186.2344 3175.8281,184.5938 Q3174.5156,182.9375 3174.5156,179.8125 Q3174.5156,176.6875 3175.8281,175.0313 Q3177.1563,173.375 3179.6563,173.375 Q3180.3594,173.375 3181,173.5313 Q3181.6563,173.6875 3182.2188,173.9844 L3182.2188,176.7031 Q3181.5938,176.125 3181,175.8594 Q3180.4063,175.5781 3179.7813,175.5781 Q3178.4375,175.5781 3177.75,176.6563 Q3177.0625,177.7188 3177.0625,179.8125 Q3177.0625,181.9063 3177.75,182.9844 Q3178.4375,184.0469 3179.7813,184.0469 Q3180.4063,184.0469 3181,183.7813 Q3181.5938,183.5 3182.2188,182.9219 L3182.2188,185.6406 Z " fill="#000000"/><text fill="#000000" font-family="sans-serif" font-size="12" lengthAdjust="spacing" textLength="99" x="3199.75" y="184.1543">AdminEmailView</text><line style="stroke:#A80036;stroke-width:1.5;" x1="3119" x2="3347" y1="196" y2="196"/><ellipse cx="3129" cy="207" rx="3" ry="3" style="stroke:#038048;stroke-width:1.0;fill:none;"/><text fill="#000000" font-family="sans-serif" font-size="11" lengthAdjust="spacing" text-decoration="underline" textLength="73" x="3138" y="210.2104">NAME: String</text><line style="stroke:#A80036;stroke-width:1.5;" x1="3119" x2="3347" y1="216.8047" y2="216.8047"/><ellipse cx="3129" cy="227.8047" fill="#84BE84" rx="3" ry="3" style="stroke:#038048;stroke-width:1.0;"/><text fill="#000000" font-family="sans-serif" font-size="11" lengthAdjust="spacing" textLength="204" x="3138" y="231.0151">AdminEmailView(ApplicationContext)</text></a><!--MD5=[3e93d8dc80eda3d6815e5b49665ecd91]
class com.hack23.cia.web.impl.ui.application.views.admin.system.AdminLanguageView--><a href="AdminLanguageView.html" target="_top" title="AdminLanguageView.html" xlink:actuate="onRequest" xlink:href="AdminLanguageView.html" xlink:show="new" xlink:title="AdminLanguageView.html" xlink:type="simple"><rect codeLine="8" fill="#FEFECE" filter="url(#f190xs3r0wxlzb)" height="73.6094" id="com.hack23.cia.web.impl.ui.application.views.admin.system.AdminLanguageView" style="stroke:#A80036;stroke-width:1.5;" width="254" x="2829" y="164"/><ellipse cx="2887.75" cy="180" fill="#ADD1B2" rx="11" ry="11" style="stroke:#A80036;stroke-width:1.0;"/><path d="M2890.7188,185.6406 Q2890.1406,185.9375 2889.5,186.0781 Q2888.8594,186.2344 2888.1563,186.2344 Q2885.6563,186.2344 2884.3281,184.5938 Q2883.0156,182.9375 2883.0156,179.8125 Q2883.0156,176.6875 2884.3281,175.0313 Q2885.6563,173.375 2888.1563,173.375 Q2888.8594,173.375 2889.5,173.5313 Q2890.1563,173.6875 2890.7188,173.9844 L2890.7188,176.7031 Q2890.0938,176.125 2889.5,175.8594 Q2888.9063,175.5781 2888.2813,175.5781 Q2886.9375,175.5781 2886.25,176.6563 Q2885.5625,177.7188 2885.5625,179.8125 Q2885.5625,181.9063 2886.25,182.9844 Q2886.9375,184.0469 2888.2813,184.0469 Q2888.9063,184.0469 2889.5,183.7813 Q2890.0938,183.5 2890.7188,182.9219 L2890.7188,185.6406 Z " fill="#000000"/><text fill="#000000" font-family="sans-serif" font-size="12" lengthAdjust="spacing" textLength="128" x="2908.25" y="184.1543">AdminLanguageView</text><line style="stroke:#A80036;stroke-width:1.5;" x1="2830" x2="3082" y1="196" y2="196"/><ellipse cx="2840" cy="207" rx="3" ry="3" style="stroke:#038048;stroke-width:1.0;fill:none;"/><text fill="#000000" font-family="sans-serif" font-size="11" lengthAdjust="spacing" text-decoration="underline" textLength="73" x="2849" y="210.2104">NAME: String</text><line style="stroke:#A80036;stroke-width:1.5;" x1="2830" x2="3082" y1="216.8047" y2="216.8047"/><ellipse cx="2840" cy="227.8047" fill="#84BE84" rx="3" ry="3" style="stroke:#038048;stroke-width:1.0;"/><text fill="#000000" font-family="sans-serif" font-size="11" lengthAdjust="spacing" textLength="228" x="2849" y="231.0151">AdminLanguageView(ApplicationContext)</text></a><!--MD5=[0e7857c1e1fc99a0625babb8888147f5]
class com.hack23.cia.web.impl.ui.application.views.admin.system.AdminLanguageContentView--><a href="AdminLanguageContentView.html" target="_top" title="AdminLanguageContentView.html" xlink:actuate="onRequest" xlink:href="AdminLanguageContentView.html" xlink:show="new" xlink:title="AdminLanguageContentView.html" xlink:type="simple"><rect codeLine="13" fill="#FEFECE" filter="url(#f190xs3r0wxlzb)" height="73.6094" id="com.hack23.cia.web.impl.ui.application.views.admin.system.AdminLanguageContentView" style="stroke:#A80036;stroke-width:1.5;" width="298" x="2496" y="164"/><ellipse cx="2551.75" cy="180" fill="#ADD1B2" rx="11" ry="11" style="stroke:#A80036;stroke-width:1.0;"/><path d="M2554.7188,185.6406 Q2554.1406,185.9375 2553.5,186.0781 Q2552.8594,186.2344 2552.1563,186.2344 Q2549.6563,186.2344 2548.3281,184.5938 Q2547.0156,182.9375 2547.0156,179.8125 Q2547.0156,176.6875 2548.3281,175.0313 Q2549.6563,173.375 2552.1563,173.375 Q2552.8594,173.375 2553.5,173.5313 Q2554.1563,173.6875 2554.7188,173.9844 L2554.7188,176.7031 Q2554.0938,176.125 2553.5,175.8594 Q2552.9063,175.5781 2552.2813,175.5781 Q2550.9375,175.5781 2550.25,176.6563 Q2549.5625,177.7188 2549.5625,179.8125 Q2549.5625,181.9063 2550.25,182.9844 Q2550.9375,184.0469 2552.2813,184.0469 Q2552.9063,184.0469 2553.5,183.7813 Q2554.0938,183.5 2554.7188,182.9219 L2554.7188,185.6406 Z " fill="#000000"/><text fill="#000000" font-family="sans-serif" font-size="12" lengthAdjust="spacing" textLength="178" x="2572.25" y="184.1543">AdminLanguageContentView</text><line style="stroke:#A80036;stroke-width:1.5;" x1="2497" x2="2793" y1="196" y2="196"/><ellipse cx="2507" cy="207" rx="3" ry="3" style="stroke:#038048;stroke-width:1.0;fill:none;"/><text fill="#000000" font-family="sans-serif" font-size="11" lengthAdjust="spacing" text-decoration="underline" textLength="73" x="2516" y="210.2104">NAME: String</text><line style="stroke:#A80036;stroke-width:1.5;" x1="2497" x2="2793" y1="216.8047" y2="216.8047"/><ellipse cx="2507" cy="227.8047" fill="#84BE84" rx="3" ry="3" style="stroke:#038048;stroke-width:1.0;"/><text fill="#000000" font-family="sans-serif" font-size="11" lengthAdjust="spacing" textLength="272" x="2516" y="231.0151">AdminLanguageContentView(ApplicationContext)</text></a><!--MD5=[90fc5169ae3ba88f2e29d47255ebb4e2]
class com.hack23.cia.web.impl.ui.application.views.admin.system.AdminPortalView--><a href="AdminPortalView.html" target="_top" title="AdminPortalView.html" xlink:actuate="onRequest" xlink:href="AdminPortalView.html" xlink:show="new" xlink:title="AdminPortalView.html" xlink:type="simple"><rect codeLine="18" fill="#FEFECE" filter="url(#f190xs3r0wxlzb)" height="73.6094" id="com.hack23.cia.web.impl.ui.application.views.admin.system.AdminPortalView" style="stroke:#A80036;stroke-width:1.5;" width="232" x="2229" y="164"/><ellipse cx="2289.25" cy="180" fill="#ADD1B2" rx="11" ry="11" style="stroke:#A80036;stroke-width:1.0;"/><path d="M2292.2188,185.6406 Q2291.6406,185.9375 2291,186.0781 Q2290.3594,186.2344 2289.6563,186.2344 Q2287.1563,186.2344 2285.8281,184.5938 Q2284.5156,182.9375 2284.5156,179.8125 Q2284.5156,176.6875 2285.8281,175.0313 Q2287.1563,173.375 2289.6563,173.375 Q2290.3594,173.375 2291,173.5313 Q2291.6563,173.6875 2292.2188,173.9844 L2292.2188,176.7031 Q2291.5938,176.125 2291,175.8594 Q2290.4063,175.5781 2289.7813,175.5781 Q2288.4375,175.5781 2287.75,176.6563 Q2287.0625,177.7188 2287.0625,179.8125 Q2287.0625,181.9063 2287.75,182.9844 Q2288.4375,184.0469 2289.7813,184.0469 Q2290.4063,184.0469 2291,183.7813 Q2291.5938,183.5 2292.2188,182.9219 L2292.2188,185.6406 Z " fill="#000000"/><text fill="#000000" font-family="sans-serif" font-size="12" lengthAdjust="spacing" textLength="103" x="2309.75" y="184.1543">AdminPortalView</text><line style="stroke:#A80036;stroke-width:1.5;" x1="2230" x2="2460" y1="196" y2="196"/><ellipse cx="2240" cy="207" rx="3" ry="3" style="stroke:#038048;stroke-width:1.0;fill:none;"/><text fill="#000000" font-family="sans-serif" font-size="11" lengthAdjust="spacing" text-decoration="underline" textLength="73" x="2249" y="210.2104">NAME: String</text><line style="stroke:#A80036;stroke-width:1.5;" x1="2230" x2="2460" y1="216.8047" y2="216.8047"/><ellipse cx="2240" cy="227.8047" fill="#84BE84" rx="3" ry="3" style="stroke:#038048;stroke-width:1.0;"/><text fill="#000000" font-family="sans-serif" font-size="11" lengthAdjust="spacing" textLength="206" x="2249" y="231.0151">AdminPortalView(ApplicationContext)</text></a><!--MD5=[b2fa11f834b255763df0320517bd92aa]
class com.hack23.cia.web.impl.ui.application.views.admin.system.AdminCountryView--><a href="AdminCountryView.html" target="_top" title="AdminCountryView.html" xlink:actuate="onRequest" xlink:href="AdminCountryView.html" xlink:show="new" xlink:title="AdminCountryView.html" xlink:type="simple"><rect codeLine="23" fill="#FEFECE" filter="url(#f190xs3r0wxlzb)" height="73.6094" id="com.hack23.cia.web.impl.ui.application.views.admin.system.AdminCountryView" style="stroke:#A80036;stroke-width:1.5;" width="243" x="1950.5" y="164"/><ellipse cx="2010.75" cy="180" fill="#ADD1B2" rx="11" ry="11" style="stroke:#A80036;stroke-width:1.0;"/><path d="M2013.7188,185.6406 Q2013.1406,185.9375 2012.5,186.0781 Q2011.8594,186.2344 2011.1563,186.2344 Q2008.6563,186.2344 2007.3281,184.5938 Q2006.0156,182.9375 2006.0156,179.8125 Q2006.0156,176.6875 2007.3281,175.0313 Q2008.6563,173.375 2011.1563,173.375 Q2011.8594,173.375 2012.5,173.5313 Q2013.1563,173.6875 2013.7188,173.9844 L2013.7188,176.7031 Q2013.0938,176.125 2012.5,175.8594 Q2011.9063,175.5781 2011.2813,175.5781 Q2009.9375,175.5781 2009.25,176.6563 Q2008.5625,177.7188 2008.5625,179.8125 Q2008.5625,181.9063 2009.25,182.9844 Q2009.9375,184.0469 2011.2813,184.0469 Q2011.9063,184.0469 2012.5,183.7813 Q2013.0938,183.5 2013.7188,182.9219 L2013.7188,185.6406 Z " fill="#000000"/><text fill="#000000" font-family="sans-serif" font-size="12" lengthAdjust="spacing" textLength="114" x="2031.25" y="184.1543">AdminCountryView</text><line style="stroke:#A80036;stroke-width:1.5;" x1="1951.5" x2="2192.5" y1="196" y2="196"/><ellipse cx="1961.5" cy="207" rx="3" ry="3" style="stroke:#038048;stroke-width:1.0;fill:none;"/><text fill="#000000" font-family="sans-serif" font-size="11" lengthAdjust="spacing" text-decoration="underline" textLength="73" x="1970.5" y="210.2104">NAME: String</text><line style="stroke:#A80036;stroke-width:1.5;" x1="1951.5" x2="2192.5" y1="216.8047" y2="216.8047"/><ellipse cx="1961.5" cy="227.8047" fill="#84BE84" rx="3" ry="3" style="stroke:#038048;stroke-width:1.0;"/><text fill="#000000" font-family="sans-serif" font-size="11" lengthAdjust="spacing" textLength="217" x="1970.5" y="231.0151">AdminCountryView(ApplicationContext)</text></a><!--MD5=[e9f8047aaa228c8421be2ade4885b593]
class com.hack23.cia.web.impl.ui.application.views.admin.system.AdminApplicationEventsView--><a href="AdminApplicationEventsView.html" target="_top" title="AdminApplicationEventsView.html" xlink:actuate="onRequest" xlink:href="AdminApplicationEventsView.html" xlink:show="new" xlink:title="AdminApplicationEventsView.html" xlink:type="simple"><rect codeLine="28" fill="#FEFECE" filter="url(#f190xs3r0wxlzb)" height="73.6094" id="com.hack23.cia.web.impl.ui.application.views.admin.system.AdminApplicationEventsView" style="stroke:#A80036;stroke-width:1.5;" width="298" x="1617" y="164"/><ellipse cx="1673.25" cy="180" fill="#ADD1B2" rx="11" ry="11" style="stroke:#A80036;stroke-width:1.0;"/><path d="M1676.2188,185.6406 Q1675.6406,185.9375 1675,186.0781 Q1674.3594,186.2344 1673.6563,186.2344 Q1671.1563,186.2344 1669.8281,184.5938 Q1668.5156,182.9375 1668.5156,179.8125 Q1668.5156,176.6875 1669.8281,175.0313 Q1671.1563,173.375 1673.6563,173.375 Q1674.3594,173.375 1675,173.5313 Q1675.6563,173.6875 1676.2188,173.9844 L1676.2188,176.7031 Q1675.5938,176.125 1675,175.8594 Q1674.4063,175.5781 1673.7813,175.5781 Q1672.4375,175.5781 1671.75,176.6563 Q1671.0625,177.7188 1671.0625,179.8125 Q1671.0625,181.9063 1671.75,182.9844 Q1672.4375,184.0469 1673.7813,184.0469 Q1674.4063,184.0469 1675,183.7813 Q1675.5938,183.5 1676.2188,182.9219 L1676.2188,185.6406 Z " fill="#000000"/><text fill="#000000" font-family="sans-serif" font-size="12" lengthAdjust="spacing" textLength="177" x="1693.75" y="184.1543">AdminApplicationEventsView</text><line style="stroke:#A80036;stroke-width:1.5;" x1="1618" x2="1914" y1="196" y2="196"/><ellipse cx="1628" cy="207" rx="3" ry="3" style="stroke:#038048;stroke-width:1.0;fill:none;"/><text fill="#000000" font-family="sans-serif" font-size="11" lengthAdjust="spacing" text-decoration="underline" textLength="73" x="1637" y="210.2104">NAME: String</text><line style="stroke:#A80036;stroke-width:1.5;" x1="1618" x2="1914" y1="216.8047" y2="216.8047"/><ellipse cx="1628" cy="227.8047" fill="#84BE84" rx="3" ry="3" style="stroke:#038048;stroke-width:1.0;"/><text fill="#000000" font-family="sans-serif" font-size="11" lengthAdjust="spacing" textLength="272" x="1637" y="231.0151">AdminApplicationEventsView(ApplicationContext)</text></a><!--MD5=[fd77f70caf167f9bf7b457ab3f3f4794]
class com.hack23.cia.web.impl.ui.application.views.admin.system.AdminApplicationSessionView--><a href="AdminApplicationSessionView.html" target="_top" title="AdminApplicationSessionView.html" xlink:actuate="onRequest" xlink:href="AdminApplicationSessionView.html" xlink:show="new" xlink:title="AdminApplicationSessionView.html" xlink:type="simple"><rect codeLine="33" fill="#FEFECE" filter="url(#f190xs3r0wxlzb)" height="73.6094" id="com.hack23.cia.web.impl.ui.application.views.admin.system.AdminApplicationSessionView" style="stroke:#A80036;stroke-width:1.5;" width="306" x="1276" y="164"/><ellipse cx="1332.75" cy="180" fill="#ADD1B2" rx="11" ry="11" style="stroke:#A80036;stroke-width:1.0;"/><path d="M1335.7188,185.6406 Q1335.1406,185.9375 1334.5,186.0781 Q1333.8594,186.2344 1333.1563,186.2344 Q1330.6563,186.2344 1329.3281,184.5938 Q1328.0156,182.9375 1328.0156,179.8125 Q1328.0156,176.6875 1329.3281,175.0313 Q1330.6563,173.375 1333.1563,173.375 Q1333.8594,173.375 1334.5,173.5313 Q1335.1563,173.6875 1335.7188,173.9844 L1335.7188,176.7031 Q1335.0938,176.125 1334.5,175.8594 Q1333.9063,175.5781 1333.2813,175.5781 Q1331.9375,175.5781 1331.25,176.6563 Q1330.5625,177.7188 1330.5625,179.8125 Q1330.5625,181.9063 1331.25,182.9844 Q1331.9375,184.0469 1333.2813,184.0469 Q1333.9063,184.0469 1334.5,183.7813 Q1335.0938,183.5 1335.7188,182.9219 L1335.7188,185.6406 Z " fill="#000000"/><text fill="#000000" font-family="sans-serif" font-size="12" lengthAdjust="spacing" textLength="184" x="1353.25" y="184.1543">AdminApplicationSessionView</text><line style="stroke:#A80036;stroke-width:1.5;" x1="1277" x2="1581" y1="196" y2="196"/><ellipse cx="1287" cy="207" rx="3" ry="3" style="stroke:#038048;stroke-width:1.0;fill:none;"/><text fill="#000000" font-family="sans-serif" font-size="11" lengthAdjust="spacing" text-decoration="underline" textLength="73" x="1296" y="210.2104">NAME: String</text><line style="stroke:#A80036;stroke-width:1.5;" x1="1277" x2="1581" y1="216.8047" y2="216.8047"/><ellipse cx="1287" cy="227.8047" fill="#84BE84" rx="3" ry="3" style="stroke:#038048;stroke-width:1.0;"/><text fill="#000000" font-family="sans-serif" font-size="11" lengthAdjust="spacing" textLength="280" x="1296" y="231.0151">AdminApplicationSessionView(ApplicationContext)</text></a><!--MD5=[3f7b4a6197ea3741a5bc6c8111c52dc1]
class com.hack23.cia.web.impl.ui.application.views.admin.system.AdminMonitoringView--><a href="AdminMonitoringView.html" target="_top" title="AdminMonitoringView.html" xlink:actuate="onRequest" xlink:href="AdminMonitoringView.html" xlink:show="new" xlink:title="AdminMonitoringView.html" xlink:type="simple"><rect codeLine="38" fill="#FEFECE" filter="url(#f190xs3r0wxlzb)" height="73.6094" id="com.hack23.cia.web.impl.ui.application.views.admin.system.AdminMonitoringView" style="stroke:#A80036;stroke-width:1.5;" width="258" x="983" y="164"/><ellipse cx="1041.75" cy="180" fill="#ADD1B2" rx="11" ry="11" style="stroke:#A80036;stroke-width:1.0;"/><path d="M1044.7188,185.6406 Q1044.1406,185.9375 1043.5,186.0781 Q1042.8594,186.2344 1042.1563,186.2344 Q1039.6563,186.2344 1038.3281,184.5938 Q1037.0156,182.9375 1037.0156,179.8125 Q1037.0156,176.6875 1038.3281,175.0313 Q1039.6563,173.375 1042.1563,173.375 Q1042.8594,173.375 1043.5,173.5313 Q1044.1563,173.6875 1044.7188,173.9844 L1044.7188,176.7031 Q1044.0938,176.125 1043.5,175.8594 Q1042.9063,175.5781 1042.2813,175.5781 Q1040.9375,175.5781 1040.25,176.6563 Q1039.5625,177.7188 1039.5625,179.8125 Q1039.5625,181.9063 1040.25,182.9844 Q1040.9375,184.0469 1042.2813,184.0469 Q1042.9063,184.0469 1043.5,183.7813 Q1044.0938,183.5 1044.7188,182.9219 L1044.7188,185.6406 Z " fill="#000000"/><text fill="#000000" font-family="sans-serif" font-size="12" lengthAdjust="spacing" textLength="132" x="1062.25" y="184.1543">AdminMonitoringView</text><line style="stroke:#A80036;stroke-width:1.5;" x1="984" x2="1240" y1="196" y2="196"/><ellipse cx="994" cy="207" rx="3" ry="3" style="stroke:#038048;stroke-width:1.0;fill:none;"/><text fill="#000000" font-family="sans-serif" font-size="11" lengthAdjust="spacing" text-decoration="underline" textLength="73" x="1003" y="210.2104">NAME: String</text><line style="stroke:#A80036;stroke-width:1.5;" x1="984" x2="1240" y1="216.8047" y2="216.8047"/><ellipse cx="994" cy="227.8047" fill="#84BE84" rx="3" ry="3" style="stroke:#038048;stroke-width:1.0;"/><text fill="#000000" font-family="sans-serif" font-size="11" lengthAdjust="spacing" textLength="232" x="1003" y="231.0151">AdminMonitoringView(ApplicationContext)</text></a><!--MD5=[517795b787bc681269a4b573bacb0301]
class com.hack23.cia.web.impl.ui.application.views.admin.system.AdminApplicationConfigurationView--><a href="AdminApplicationConfigurationView.html" target="_top" title="AdminApplicationConfigurationView.html" xlink:actuate="onRequest" xlink:href="AdminApplicationConfigurationView.html" xlink:show="new" xlink:title="AdminApplicationConfigurationView.html" xlink:type="simple"><rect codeLine="43" fill="#FEFECE" filter="url(#f190xs3r0wxlzb)" height="73.6094" id="com.hack23.cia.web.impl.ui.application.views.admin.system.AdminApplicationConfigurationView" style="stroke:#A80036;stroke-width:1.5;" width="336" x="612" y="164"/><ellipse cx="666.25" cy="180" fill="#ADD1B2" rx="11" ry="11" style="stroke:#A80036;stroke-width:1.0;"/><path d="M669.2188,185.6406 Q668.6406,185.9375 668,186.0781 Q667.3594,186.2344 666.6563,186.2344 Q664.1563,186.2344 662.8281,184.5938 Q661.5156,182.9375 661.5156,179.8125 Q661.5156,176.6875 662.8281,175.0313 Q664.1563,173.375 666.6563,173.375 Q667.3594,173.375 668,173.5313 Q668.6563,173.6875 669.2188,173.9844 L669.2188,176.7031 Q668.5938,176.125 668,175.8594 Q667.4063,175.5781 666.7813,175.5781 Q665.4375,175.5781 664.75,176.6563 Q664.0625,177.7188 664.0625,179.8125 Q664.0625,181.9063 664.75,182.9844 Q665.4375,184.0469 666.7813,184.0469 Q667.4063,184.0469 668,183.7813 Q668.5938,183.5 669.2188,182.9219 L669.2188,185.6406 Z " fill="#000000"/><text fill="#000000" font-family="sans-serif" font-size="12" lengthAdjust="spacing" textLength="219" x="686.75" y="184.1543">AdminApplicationConfigurationView</text><line style="stroke:#A80036;stroke-width:1.5;" x1="613" x2="947" y1="196" y2="196"/><ellipse cx="623" cy="207" rx="3" ry="3" style="stroke:#038048;stroke-width:1.0;fill:none;"/><text fill="#000000" font-family="sans-serif" font-size="11" lengthAdjust="spacing" text-decoration="underline" textLength="73" x="632" y="210.2104">NAME: String</text><line style="stroke:#A80036;stroke-width:1.5;" x1="613" x2="947" y1="216.8047" y2="216.8047"/><ellipse cx="623" cy="227.8047" fill="#84BE84" rx="3" ry="3" style="stroke:#038048;stroke-width:1.0;"/><text fill="#000000" font-family="sans-serif" font-size="11" lengthAdjust="spacing" textLength="310" x="632" y="231.0151">AdminApplicationConfigurationView(ApplicationContext)</text></a><!--MD5=[d324bb9f30013648d108d75d3e2b42e5]
class com.hack23.cia.web.impl.ui.application.views.admin.system.AdminAgencyView--><a href="AdminAgencyView.html" target="_top" title="AdminAgencyView.html" xlink:actuate="onRequest" xlink:href="AdminAgencyView.html" xlink:show="new" xlink:title="AdminAgencyView.html" xlink:type="simple"><rect codeLine="48" fill="#FEFECE" filter="url(#f190xs3r0wxlzb)" height="73.6094" id="com.hack23.cia.web.impl.ui.application.views.admin.system.AdminAgencyView" style="stroke:#A80036;stroke-width:1.5;" width="239" x="337.5" y="164"/><ellipse cx="397.25" cy="180" fill="#ADD1B2" rx="11" ry="11" style="stroke:#A80036;stroke-width:1.0;"/><path d="M400.2188,185.6406 Q399.6406,185.9375 399,186.0781 Q398.3594,186.2344 397.6563,186.2344 Q395.1563,186.2344 393.8281,184.5938 Q392.5156,182.9375 392.5156,179.8125 Q392.5156,176.6875 393.8281,175.0313 Q395.1563,173.375 397.6563,173.375 Q398.3594,173.375 399,173.5313 Q399.6563,173.6875 400.2188,173.9844 L400.2188,176.7031 Q399.5938,176.125 399,175.8594 Q398.4063,175.5781 397.7813,175.5781 Q396.4375,175.5781 395.75,176.6563 Q395.0625,177.7188 395.0625,179.8125 Q395.0625,181.9063 395.75,182.9844 Q396.4375,184.0469 397.7813,184.0469 Q398.4063,184.0469 399,183.7813 Q399.5938,183.5 400.2188,182.9219 L400.2188,185.6406 Z " fill="#000000"/><text fill="#000000" font-family="sans-serif" font-size="12" lengthAdjust="spacing" textLength="111" x="417.75" y="184.1543">AdminAgencyView</text><line style="stroke:#A80036;stroke-width:1.5;" x1="338.5" x2="575.5" y1="196" y2="196"/><ellipse cx="348.5" cy="207" rx="3" ry="3" style="stroke:#038048;stroke-width:1.0;fill:none;"/><text fill="#000000" font-family="sans-serif" font-size="11" lengthAdjust="spacing" text-decoration="underline" textLength="73" x="357.5" y="210.2104">NAME: String</text><line style="stroke:#A80036;stroke-width:1.5;" x1="338.5" x2="575.5" y1="216.8047" y2="216.8047"/><ellipse cx="348.5" cy="227.8047" fill="#84BE84" rx="3" ry="3" style="stroke:#038048;stroke-width:1.0;"/><text fill="#000000" font-family="sans-serif" font-size="11" lengthAdjust="spacing" textLength="213" x="357.5" y="231.0151">AdminAgencyView(ApplicationContext)</text></a><!--MD5=[d116ca9e260c49700e07f7a6d8007a5a]
class com.hack23.cia.web.impl.ui.application.views.admin.system.AdminUseraccountView--><a href="AdminUseraccountView.html" target="_top" title="AdminUseraccountView.html" xlink:actuate="onRequest" xlink:href="AdminUseraccountView.html" xlink:show="new" xlink:title="AdminUseraccountView.html" xlink:type="simple"><rect codeLine="53" fill="#FEFECE" filter="url(#f190xs3r0wxlzb)" height="73.6094" id="com.hack23.cia.web.impl.ui.application.views.admin.system.AdminUseraccountView" style="stroke:#A80036;stroke-width:1.5;" width="270" x="32" y="164"/><ellipse cx="89.75" cy="180" fill="#ADD1B2" rx="11" ry="11" style="stroke:#A80036;stroke-width:1.0;"/><path d="M92.7188,185.6406 Q92.1406,185.9375 91.5,186.0781 Q90.8594,186.2344 90.1563,186.2344 Q87.6563,186.2344 86.3281,184.5938 Q85.0156,182.9375 85.0156,179.8125 Q85.0156,176.6875 86.3281,175.0313 Q87.6563,173.375 90.1563,173.375 Q90.8594,173.375 91.5,173.5313 Q92.1563,173.6875 92.7188,173.9844 L92.7188,176.7031 Q92.0938,176.125 91.5,175.8594 Q90.9063,175.5781 90.2813,175.5781 Q88.9375,175.5781 88.25,176.6563 Q87.5625,177.7188 87.5625,179.8125 Q87.5625,181.9063 88.25,182.9844 Q88.9375,184.0469 90.2813,184.0469 Q90.9063,184.0469 91.5,183.7813 Q92.0938,183.5 92.7188,182.9219 L92.7188,185.6406 Z " fill="#000000"/><text fill="#000000" font-family="sans-serif" font-size="12" lengthAdjust="spacing" textLength="146" x="110.25" y="184.1543">AdminUseraccountView</text><line style="stroke:#A80036;stroke-width:1.5;" x1="33" x2="301" y1="196" y2="196"/><ellipse cx="43" cy="207" rx="3" ry="3" style="stroke:#038048;stroke-width:1.0;fill:none;"/><text fill="#000000" font-family="sans-serif" font-size="11" lengthAdjust="spacing" text-decoration="underline" textLength="73" x="52" y="210.2104">NAME: String</text><line style="stroke:#A80036;stroke-width:1.5;" x1="33" x2="301" y1="216.8047" y2="216.8047"/><ellipse cx="43" cy="227.8047" fill="#84BE84" rx="3" ry="3" style="stroke:#038048;stroke-width:1.0;"/><text fill="#000000" font-family="sans-serif" font-size="11" lengthAdjust="spacing" textLength="244" x="52" y="231.0151">AdminUseraccountView(ApplicationContext)</text></a><!--MD5=[b628d671c4eff2c1215f9ca2bed664d9]
class com.hack23.cia.web.impl.ui.application.views.admin.common.AbstractAdminView--><a href="../common/AbstractAdminView.html" target="_top" title="../common/AbstractAdminView.html" xlink:actuate="onRequest" xlink:href="../common/AbstractAdminView.html" xlink:show="new" xlink:title="../common/AbstractAdminView.html" xlink:type="simple"><rect codeLine="72" fill="#FEFECE" filter="url(#f190xs3r0wxlzb)" height="48" id="com.hack23.cia.web.impl.ui.application.views.admin.common.AbstractAdminView" style="stroke:#A80036;stroke-width:1.5;" width="151" x="1690.5" y="41"/><ellipse cx="1705.5" cy="57" fill="#A9DCDF" rx="11" ry="11" style="stroke:#A80036;stroke-width:1.0;"/><path d="M1705.6094,52.3438 L1704.4531,57.4219 L1706.7813,57.4219 L1705.6094,52.3438 Z M1704.125,50.1094 L1707.1094,50.1094 L1710.4688,62.5 L1708.0156,62.5 L1707.25,59.4375 L1703.9688,59.4375 L1703.2188,62.5 L1700.7813,62.5 L1704.125,50.1094 Z " fill="#000000"/><text fill="#000000" font-family="sans-serif" font-size="12" font-style="italic" lengthAdjust="spacing" textLength="119" x="1719.5" y="61.1543">AbstractAdminView</text><line style="stroke:#A80036;stroke-width:1.5;" x1="1691.5" x2="1840.5" y1="73" y2="73"/><line style="stroke:#A80036;stroke-width:1.5;" x1="1691.5" x2="1840.5" y1="81" y2="81"/></a><!--MD5=[d1d7062e2308310794508cf034ce9e59]
reverse link com.hack23.cia.web.impl.ui.application.views.admin.common.AbstractAdminView to com.hack23.cia.web.impl.ui.application.views.admin.system.AdminEmailView--><path codeLine="58" d="M1861.58,67.22 C2147.46,71.23 2983.37,85.87 3101,121 C3131.32,130.06 3161.86,147.66 3185.91,163.95 " fill="none" id="com.hack23.cia.web.impl.ui.application.views.admin.common.AbstractAdminView-backto-com.hack23.cia.web.impl.ui.application.views.admin.system.AdminEmailView" style="stroke:#A80036;stroke-width:1.0;"/><polygon fill="none" points="1861.47,74.21,1841.57,66.94,1861.67,60.22,1861.47,74.21" style="stroke:#A80036;stroke-width:1.0;"/><!--MD5=[ec6a91eb805632ef67ab0e5a14a2c1d0]
reverse link com.hack23.cia.web.impl.ui.application.views.admin.common.AbstractAdminView to com.hack23.cia.web.impl.ui.application.views.admin.system.AdminLanguageView--><path codeLine="59" d="M1862.12,65.6 C2085.74,65.55 2635.27,70.72 2812,121 C2844.36,130.21 2877.49,147.71 2903.79,163.91 " fill="none" id="com.hack23.cia.web.impl.ui.application.views.admin.common.AbstractAdminView-backto-com.hack23.cia.web.impl.ui.application.views.admin.system.AdminLanguageView" style="stroke:#A80036;stroke-width:1.0;"/><polygon fill="none" points="1861.84,72.6,1841.84,65.62,1861.83,58.6,1861.84,72.6" style="stroke:#A80036;stroke-width:1.0;"/><!--MD5=[43fcd29b1dcc3b6cc8867cc8a2fdc9cd]
reverse link com.hack23.cia.web.impl.ui.application.views.admin.common.AbstractAdminView to com.hack23.cia.web.impl.ui.application.views.admin.system.AdminLanguageContentView--><path codeLine="60" d="M1861.71,69.05 C2028.43,75.08 2365.2,90.65 2479,121 C2515.08,130.62 2552.86,147.95 2583.24,163.93 " fill="none" id="com.hack23.cia.web.impl.ui.application.views.admin.common.AbstractAdminView-backto-com.hack23.cia.web.impl.ui.application.views.admin.system.AdminLanguageContentView" style="stroke:#A80036;stroke-width:1.0;"/><polygon fill="none" points="1861.26,76.04,1841.52,68.33,1861.76,62.05,1861.26,76.04" style="stroke:#A80036;stroke-width:1.0;"/><!--MD5=[933eb520b1f3d8ca80ec2f142c423984]
reverse link com.hack23.cia.web.impl.ui.application.views.admin.common.AbstractAdminView to com.hack23.cia.web.impl.ui.application.views.admin.system.AdminPortalView--><path codeLine="61" d="M1861.94,66.65 C1953.81,69.85 2095.16,81.6 2211,121 C2240.53,131.04 2270.69,148.11 2294.9,163.81 " fill="none" id="com.hack23.cia.web.impl.ui.application.views.admin.common.AbstractAdminView-backto-com.hack23.cia.web.impl.ui.application.views.admin.system.AdminPortalView" style="stroke:#A80036;stroke-width:1.0;"/><polygon fill="none" points="1861.48,73.64,1841.7,66.05,1861.89,59.64,1861.48,73.64" style="stroke:#A80036;stroke-width:1.0;"/><!--MD5=[6b9ee3841a1b70de6d925282ca6b8a5a]
reverse link com.hack23.cia.web.impl.ui.application.views.admin.common.AbstractAdminView to com.hack23.cia.web.impl.ui.application.views.admin.system.AdminCountryView--><path codeLine="62" d="M1860.82,93.61 C1884.73,101.55 1910.11,110.85 1933,121 C1960.66,133.27 1989.96,149.41 2014.5,163.9 " fill="none" id="com.hack23.cia.web.impl.ui.application.views.admin.common.AbstractAdminView-backto-com.hack23.cia.web.impl.ui.application.views.admin.system.AdminCountryView" style="stroke:#A80036;stroke-width:1.0;"/><polygon fill="none" points="1858.48,100.21,1841.6,87.4,1862.78,86.88,1858.48,100.21" style="stroke:#A80036;stroke-width:1.0;"/><!--MD5=[6fe3e2304fd7b811ba49a3322adb0d9b]
reverse link com.hack23.cia.web.impl.ui.application.views.admin.common.AbstractAdminView to com.hack23.cia.web.impl.ui.application.views.admin.system.AdminApplicationEventsView--><path codeLine="63" d="M1766,109.26 C1766,126.9 1766,147.07 1766,163.91 " fill="none" id="com.hack23.cia.web.impl.ui.application.views.admin.common.AbstractAdminView-backto-com.hack23.cia.web.impl.ui.application.views.admin.system.AdminApplicationEventsView" style="stroke:#A80036;stroke-width:1.0;"/><polygon fill="none" points="1759,109.04,1766,89.04,1773,109.04,1759,109.04" style="stroke:#A80036;stroke-width:1.0;"/><!--MD5=[3a7ecbf88c4cf639d33d82e033128fba]
reverse link com.hack23.cia.web.impl.ui.application.views.admin.common.AbstractAdminView to com.hack23.cia.web.impl.ui.application.views.admin.system.AdminApplicationSessionView--><path codeLine="64" d="M1671.28,95.34 C1647.8,103.17 1622.83,111.98 1600,121 C1567.46,133.86 1532.25,149.77 1502.28,163.94 " fill="none" id="com.hack23.cia.web.impl.ui.application.views.admin.common.AbstractAdminView-backto-com.hack23.cia.web.impl.ui.application.views.admin.system.AdminApplicationSessionView" style="stroke:#A80036;stroke-width:1.0;"/><polygon fill="none" points="1669.39,88.59,1690.57,89,1673.75,101.89,1669.39,88.59" style="stroke:#A80036;stroke-width:1.0;"/><!--MD5=[6992a827a0090ead51dd948920b0c5e5]
reverse link com.hack23.cia.web.impl.ui.application.views.admin.common.AbstractAdminView to com.hack23.cia.web.impl.ui.application.views.admin.system.AdminMonitoringView--><path codeLine="65" d="M1670.16,65.55 C1566.53,67.54 1397.6,78.04 1259,121 C1226.9,130.95 1193.71,148.1 1167,163.89 " fill="none" id="com.hack23.cia.web.impl.ui.application.views.admin.common.AbstractAdminView-backto-com.hack23.cia.web.impl.ui.application.views.admin.system.AdminMonitoringView" style="stroke:#A80036;stroke-width:1.0;"/><polygon fill="none" points="1670.2,58.55,1690.3,65.26,1670.4,72.55,1670.2,58.55" style="stroke:#A80036;stroke-width:1.0;"/><!--MD5=[209ae4856edbec51fc35c23c02881564]
reverse link com.hack23.cia.web.impl.ui.application.views.admin.common.AbstractAdminView to com.hack23.cia.web.impl.ui.application.views.admin.system.AdminApplicationConfigurationView--><path codeLine="66" d="M1670.11,68.61 C1487.67,74.23 1097.09,89.59 966,121 C926.08,130.56 883.8,147.89 849.65,163.88 " fill="none" id="com.hack23.cia.web.impl.ui.application.views.admin.common.AbstractAdminView-backto-com.hack23.cia.web.impl.ui.application.views.admin.system.AdminApplicationConfigurationView" style="stroke:#A80036;stroke-width:1.0;"/><polygon fill="none" points="1670.05,61.61,1690.25,68,1670.47,75.6,1670.05,61.61" style="stroke:#A80036;stroke-width:1.0;"/><!--MD5=[3e032dd478f0103d967c84deee4d7c5a]
reverse link com.hack23.cia.web.impl.ui.application.views.admin.common.AbstractAdminView to com.hack23.cia.web.impl.ui.application.views.admin.system.AdminAgencyView--><path codeLine="67" d="M1670,67.93 C1408.59,73.53 696.78,91.35 595,121 C563.72,130.11 531.96,147.61 506.8,163.82 " fill="none" id="com.hack23.cia.web.impl.ui.application.views.admin.common.AbstractAdminView-backto-com.hack23.cia.web.impl.ui.application.views.admin.system.AdminAgencyView" style="stroke:#A80036;stroke-width:1.0;"/><polygon fill="none" points="1670.08,60.92,1690.23,67.5,1670.38,74.92,1670.08,60.92" style="stroke:#A80036;stroke-width:1.0;"/><!--MD5=[38f004a64f017d2760e69b34bfd9fff4]
reverse link com.hack23.cia.web.impl.ui.application.views.admin.common.AbstractAdminView to com.hack23.cia.web.impl.ui.application.views.admin.system.AdminUseraccountView--><path codeLine="68" d="M1669.81,67.23 C1367.62,71.43 449.59,86.9 320,121 C285.74,130.02 250.42,147.61 222.35,163.91 " fill="none" id="com.hack23.cia.web.impl.ui.application.views.admin.common.AbstractAdminView-backto-com.hack23.cia.web.impl.ui.application.views.admin.system.AdminUseraccountView" style="stroke:#A80036;stroke-width:1.0;"/><polygon fill="none" points="1669.98,60.23,1690.07,66.95,1670.17,74.23,1669.98,60.23" style="stroke:#A80036;stroke-width:1.0;"/><text fill="#888888" font-family="sans-serif" font-size="10" lengthAdjust="spacing" textLength="186" x="1591" y="269.2822">UMLDoclet 2.0.14, PlantUML 1.2021.9</text><!--MD5=[5b5afe09a2fac0045c2e1c7f83b46fdf]
@startuml
    namespace com.hack23.cia.web.impl.ui.application.views.admin.system {

        class AdminEmailView [[AdminEmailView.html]] {
            {static} +NAME: String
            +AdminEmailView(ApplicationContext)
        }

        class AdminLanguageView [[AdminLanguageView.html]] {
            {static} +NAME: String
            +AdminLanguageView(ApplicationContext)
        }

        class AdminLanguageContentView [[AdminLanguageContentView.html]] {
            {static} +NAME: String
            +AdminLanguageContentView(ApplicationContext)
        }

        class AdminPortalView [[AdminPortalView.html]] {
            {static} +NAME: String
            +AdminPortalView(ApplicationContext)
        }

        class AdminCountryView [[AdminCountryView.html]] {
            {static} +NAME: String
            +AdminCountryView(ApplicationContext)
        }

        class AdminApplicationEventsView [[AdminApplicationEventsView.html]] {
            {static} +NAME: String
            +AdminApplicationEventsView(ApplicationContext)
        }

        class AdminApplicationSessionView [[AdminApplicationSessionView.html]] {
            {static} +NAME: String
            +AdminApplicationSessionView(ApplicationContext)
        }

        class AdminMonitoringView [[AdminMonitoringView.html]] {
            {static} +NAME: String
            +AdminMonitoringView(ApplicationContext)
        }

        class AdminApplicationConfigurationView [[AdminApplicationConfigurationView.html]] {
            {static} +NAME: String
            +AdminApplicationConfigurationView(ApplicationContext)
        }

        class AdminAgencyView [[AdminAgencyView.html]] {
            {static} +NAME: String
            +AdminAgencyView(ApplicationContext)
        }

        class AdminUseraccountView [[AdminUseraccountView.html]] {
            {static} +NAME: String
            +AdminUseraccountView(ApplicationContext)
        }

        com.hack23.cia.web.impl.ui.application.views.admin.common.AbstractAdminView <|- - AdminEmailView
        com.hack23.cia.web.impl.ui.application.views.admin.common.AbstractAdminView <|- - AdminLanguageView
        com.hack23.cia.web.impl.ui.application.views.admin.common.AbstractAdminView <|- - AdminLanguageContentView
        com.hack23.cia.web.impl.ui.application.views.admin.common.AbstractAdminView <|- - AdminPortalView
        com.hack23.cia.web.impl.ui.application.views.admin.common.AbstractAdminView <|- - AdminCountryView
        com.hack23.cia.web.impl.ui.application.views.admin.common.AbstractAdminView <|- - AdminApplicationEventsView
        com.hack23.cia.web.impl.ui.application.views.admin.common.AbstractAdminView <|- - AdminApplicationSessionView
        com.hack23.cia.web.impl.ui.application.views.admin.common.AbstractAdminView <|- - AdminMonitoringView
        com.hack23.cia.web.impl.ui.application.views.admin.common.AbstractAdminView <|- - AdminApplicationConfigurationView
        com.hack23.cia.web.impl.ui.application.views.admin.common.AbstractAdminView <|- - AdminAgencyView
        com.hack23.cia.web.impl.ui.application.views.admin.common.AbstractAdminView <|- - AdminUseraccountView
    }

    namespace com.hack23.cia.web.impl.ui.application.views.admin.common {
        abstract class AbstractAdminView [[../common/AbstractAdminView.html]] {
        }
    }

    center footer UMLDoclet 2.0.14, PlantUML 1.2021.9
@enduml

PlantUML version 1.2021.9(Sun Jul 25 12:13:56 CEST 2021)
(APACHE source distribution)
Java Runtime: OpenJDK Runtime Environment
JVM: OpenJDK 64-Bit Server VM
Default Encoding: UTF-8
Language: en
Country: US
--></g></svg>