<svg xmlns="http://www.w3.org/2000/svg" xmlns:xlink="http://www.w3.org/1999/xlink" contentStyleType="text/css" height="236px" preserveAspectRatio="none" style="width:474px;height:236px;background:#FFFFFF;" version="1.1" viewBox="0 0 474 236" width="474px" zoomAndPan="magnify"><defs/><g><!--class com.hack23.cia.web.impl.ui.application.views.user.politician.pagemode.PoliticianDocumentHistoryPageModContentFactoryImpl--><a href="PoliticianDocumentHistoryPageModContentFactoryImpl.html" target="_top" title="PoliticianDocumentHistoryPageModContentFactoryImpl.html" xlink:actuate="onRequest" xlink:href="PoliticianDocumentHistoryPageModContentFactoryImpl.html" xlink:show="new" xlink:title="PoliticianDocumentHistoryPageModContentFactoryImpl.html" xlink:type="simple"><g id="elem_com.hack23.cia.web.impl.ui.application.views.user.politician.pagemode.PoliticianDocumentHistoryPageModContentFactoryImpl"><rect codeLine="13" fill="#F1F1F1" height="88.8237" id="com.hack23.cia.web.impl.ui.application.views.user.politician.pagemode.PoliticianDocumentHistoryPageModContentFactoryImpl" rx="2.5" ry="2.5" style="stroke:#181818;stroke-width:0.5;" width="401.1366" x="34" y="118"/><ellipse cx="49" cy="139.344" fill="#ADD1B2" rx="11" ry="11" style="stroke:#181818;stroke-width:1.0;"/><path d="M51.9688,144.9846 Q51.3906,145.2815 50.75,145.4221 Q50.1094,145.5783 49.4063,145.5783 Q46.9063,145.5783 45.5781,143.9377 Q44.2656,142.2815 44.2656,139.1565 Q44.2656,136.0315 45.5781,134.3752 Q46.9063,132.719 49.4063,132.719 Q50.1094,132.719 50.75,132.8752 Q51.4063,133.0315 51.9688,133.3283 L51.9688,136.0471 Q51.3438,135.469 50.75,135.2033 Q50.1563,134.9221 49.5313,134.9221 Q48.1875,134.9221 47.5,136.0002 Q46.8125,137.0627 46.8125,139.1565 Q46.8125,141.2502 47.5,142.3283 Q48.1875,143.3908 49.5313,143.3908 Q50.1563,143.3908 50.75,143.1252 Q51.3438,142.844 51.9688,142.2658 L51.9688,144.9846 Z " fill="#000000"/><text fill="#000000" font-family="sans-serif" font-size="14" lengthAdjust="spacing" textLength="369.1366" x="63" y="137.9659">PoliticianDocumentHistoryPageModContentFactoryImpl</text><text fill="#000000" font-family="sans-serif" font-size="10" lengthAdjust="spacing" textLength="334.4797" x="80.3284" y="152.7579">com.hack23.cia.web.impl.ui.application.views.user.politician.pagemode</text><line style="stroke:#181818;stroke-width:0.5;" x1="35" x2="434.1366" y1="160.6879" y2="160.6879"/><ellipse cx="45" cy="175.7219" fill="#84BE84" rx="3" ry="3" style="stroke:#038048;stroke-width:1.0;"/><text fill="#000000" font-family="sans-serif" font-size="14" lengthAdjust="spacing" textLength="305.4228" x="54" y="179.6538">createContent(String, MenuBar, Panel): Layout</text><ellipse cx="45" cy="194.7898" fill="#84BE84" rx="3" ry="3" style="stroke:#038048;stroke-width:1.0;"/><text fill="#000000" font-family="sans-serif" font-size="14" lengthAdjust="spacing" textLength="211.5112" x="54" y="198.7218">matches(String, String): boolean</text></g></a><!--class com.hack23.cia.web.impl.ui.application.views.common.pagemode.AbstractItemPageModContentFactoryImpl--><a href="../../../common/pagemode/AbstractItemPageModContentFactoryImpl.html" target="_top" title="../../../common/pagemode/AbstractItemPageModContentFactoryImpl.html" xlink:actuate="onRequest" xlink:href="../../../common/pagemode/AbstractItemPageModContentFactoryImpl.html" xlink:show="new" xlink:title="../../../common/pagemode/AbstractItemPageModContentFactoryImpl.html" xlink:type="simple"><g id="elem_com.hack23.cia.web.impl.ui.application.views.common.pagemode.AbstractItemPageModContentFactoryImpl"><rect codeLine="18" fill="#F1F1F1" height="69.7558" id="com.hack23.cia.web.impl.ui.application.views.common.pagemode.AbstractItemPageModContentFactoryImpl" rx="2.5" ry="2.5" style="stroke:#181818;stroke-width:0.5;" width="457.2766" x="6" y="12"/><ellipse cx="21" cy="33.344" fill="#A9DCDF" rx="11" ry="11" style="stroke:#181818;stroke-width:1.0;"/><path d="M21.1094,28.6877 L19.9531,33.7658 L22.2813,33.7658 L21.1094,28.6877 Z M19.625,26.4533 L22.6094,26.4533 L25.9688,38.844 L23.5156,38.844 L22.75,35.7815 L19.4688,35.7815 L18.7188,38.844 L16.2813,38.844 L19.625,26.4533 Z " fill="#000000"/><text fill="#000000" font-family="sans-serif" font-size="14" font-style="italic" lengthAdjust="spacing" textLength="261.057" x="50.9813" y="31.9659">AbstractItemPageModContentFactoryImpl</text><text fill="#000000" font-family="sans-serif" font-size="10" font-style="italic" lengthAdjust="spacing" textLength="293.0197" x="35" y="46.7579">com.hack23.cia.web.impl.ui.application.views.common.pagemode</text><rect fill="#FFFFFF" height="18.3441" style="stroke:#181818;stroke-width:1.0;stroke-dasharray:2.0,2.0;" width="130.2569" x="336.0197" y="9"/><text fill="#000000" font-family="sans-serif" font-size="12" font-style="italic" lengthAdjust="spacing" textLength="128.2569" x="337.0197" y="22.8281">ViewRiksdagenPolitician</text><line style="stroke:#181818;stroke-width:0.5;" x1="7" x2="462.2766" y1="54.6879" y2="54.6879"/><polygon fill="#FFFF44" points="17,64.7219,21,68.7219,17,72.7219,13,68.7219" style="stroke:#B38D22;stroke-width:1.0;"/><text fill="#000000" font-family="sans-serif" font-size="14" font-style="italic" lengthAdjust="spacing" textLength="250.2491" x="26" y="73.6538">getItem(String): ViewRiksdagenPolitician</text></g></a><polygon fill="none" points="234.5,82.0537,228.5,100.0537,240.5,100.0537,234.5,82.0537" style="stroke:#181818;stroke-width:1.0;"/><path d="M234.5,100.0537 C234.5,111.2849 234.5,105.9359 234.5,117.7854 " fill="none" style="stroke:#181818;stroke-width:1.0;"/><text fill="#888888" font-family="sans-serif" font-size="10" lengthAdjust="spacing" textLength="2.6" x="229.7" y="211.69">&#160;</text><a href="https://github.com/talsma-ict/umldoclet" target="_top" title="https://github.com/talsma-ict/umldoclet" xlink:actuate="onRequest" xlink:href="https://github.com/talsma-ict/umldoclet" xlink:show="new" xlink:title="https://github.com/talsma-ict/umldoclet" xlink:type="simple"><text fill="#888888" font-family="sans-serif" font-size="10" lengthAdjust="spacing" textLength="76.7199" x="192.64" y="225.31">UMLDoclet 2.2.1</text></a><!--SRC=[nLLTRzf047pFhzWc3oKAd8qJQ88G4gKVIKKa54XV20-7lR5FdE_SktCYckQ_TsqJe4ah9MggMaWMUxkpipF70W3m5WOwMneH9mwS1fS82vVdG-0gWXWL6kum0f7o62tCKMeLsoeHWUSkqGRqTVajrCQWpRIAX8hX2x_XO7LkGhHiPmVALfC7z5jkjz3dooBuGOSI7TG6-rkK0h_PRWH-S0GJBctAuMmmOIkqJKt00jO4mfOYH6K9CbSHcf9MF-CXlORLIHrkq5YX5TNuAvnYr50hnuMoa77ZR37II7Bb2gvDLlHdxw3M7mz_vUQVbDpgq3UAvn5Sw6_vUjmtcU4nCPPygNC7DaN75Q_EB95MF2MvU8XZfARSaP9AAopF4n4XO9gv9LmBb95z72MmH5EuZ8UIMmkxNIk-OwTvr1jfAPm81LUaJvwYSgV24lvoH2wUwsX0mrBm4m-Bu5cQoIkrAlPxeKvPmiD5SCW8WTtYd0dAOBbWFCj8OEv8FdOZyDQotA9XsReTowX1gYFS1JBuLP3OouU1wVJbHInngPpDuAvKj7WEGeDqFLUfjR4pTA_hS8ugVyzD7KPSeTplmB3qTrEMSaSNpguBgZSbphMMo5MPULyvn-VM6IBnnCB-wk3COVhghb5ogl_6h4S0x5bikr-fza8iR4GPQkDGZ_nYpAi-5RBtWEmz2_cfTtSFmjx3NenbTMtjmnzuRFloxzM0xez6ux_zHAefkzOj9VRMgbrhxMXhRcGidjDbXcOer6AW9QselUFVdruM2rSAXRJZmuL2kit-ElE-QkTjzLlrkbBJQU9SPZkU5mkNvFD2Ji-LoxuXGkVbgOogBVzetyzcg_tzUVr7KYpZHZDe1CUJPglJQdSEswpbd_ZjmvRVFF2R7T-VVioDpj0REnqk4YtJsKy0]--></g></svg>