<svg xmlns="http://www.w3.org/2000/svg" xmlns:xlink="http://www.w3.org/1999/xlink" contentStyleType="text/css" data-diagram-type="CLASS" height="331px" preserveAspectRatio="none" style="width:566px;height:331px;background:#FFFFFF;" version="1.1" viewBox="0 0 566 331" width="566px" zoomAndPan="magnify"><defs/><g><!--class com.hack23.cia.model.internal.application.data.committee.impl.RiksdagenVoteDataBallotPartyPeriodSummaryEmbeddedId--><g class="entity" data-entity="com.hack23.cia.model.internal.application.data.committee.impl.RiksdagenVoteDataBallotPartyPeriodSummaryEmbeddedId" data-source-line="13" data-uid="ent0002" id="entity_com.hack23.cia.model.internal.application.data.committee.impl.RiksdagenVoteDataBallotPartyPeriodSummaryEmbeddedId"><a href="RiksdagenVoteDataBallotPartyPeriodSummaryEmbeddedId.html" target="_top" title="RiksdagenVoteDataBallotPartyPeriodSummaryEmbeddedId.html" xlink:actuate="onRequest" xlink:href="RiksdagenVoteDataBallotPartyPeriodSummaryEmbeddedId.html" xlink:show="new" xlink:title="RiksdagenVoteDataBallotPartyPeriodSummaryEmbeddedId.html" xlink:type="simple"><rect fill="#F1F1F1" height="211.2312" rx="2.5" ry="2.5" style="stroke:#181818;stroke-width:0.5;" width="553.504" x="6" y="91"/><ellipse cx="82.7407" cy="112.344" fill="#ADD1B2" rx="11" ry="11" style="stroke:#181818;stroke-width:1;"/><path d="M85.7095,117.9846 Q85.1313,118.2815 84.4907,118.4221 Q83.8501,118.5783 83.147,118.5783 Q80.647,118.5783 79.3188,116.9377 Q78.0063,115.2815 78.0063,112.1565 Q78.0063,109.0315 79.3188,107.3752 Q80.647,105.719 83.147,105.719 Q83.8501,105.719 84.4907,105.8752 Q85.147,106.0315 85.7095,106.3283 L85.7095,109.0471 Q85.0845,108.469 84.4907,108.2033 Q83.897,107.9221 83.272,107.9221 Q81.9282,107.9221 81.2407,109.0002 Q80.5532,110.0627 80.5532,112.1565 Q80.5532,114.2502 81.2407,115.3283 Q81.9282,116.3908 83.272,116.3908 Q83.897,116.3908 84.4907,116.1252 Q85.0845,115.844 85.7095,115.2658 L85.7095,117.9846 Z " fill="#000000"/><text fill="#000000" font-family="sans-serif" font-size="14" lengthAdjust="spacing" textLength="391.5226" x="103.2407" y="110.9659">RiksdagenVoteDataBallotPartyPeriodSummaryEmbeddedId</text><text fill="#000000" font-family="sans-serif" font-size="10" lengthAdjust="spacing" textLength="298.4498" x="149.7771" y="125.7579">com.hack23.cia.model.internal.application.data.committee.impl</text><line style="stroke:#181818;stroke-width:0.5;" x1="7" x2="558.504" y1="133.6879" y2="133.6879"/><polygon fill="none" points="17,143.7219,21,147.7219,17,151.7219,13,147.7219" style="stroke:#B38D22;stroke-width:1;"/><text fill="#000000" font-family="sans-serif" font-size="14" lengthAdjust="spacing" textLength="97.9716" x="26" y="152.6538">voteDate: Date</text><polygon fill="none" points="17,162.7898,21,166.7898,17,170.7898,13,166.7898" style="stroke:#B38D22;stroke-width:1;"/><text fill="#000000" font-family="sans-serif" font-size="14" lengthAdjust="spacing" textLength="81.2277" x="26" y="171.7218">party: String</text><line style="stroke:#181818;stroke-width:0.5;" x1="7" x2="558.504" y1="179.8237" y2="179.8237"/><ellipse cx="17" cy="194.8577" fill="#84BE84" rx="3" ry="3" style="stroke:#038048;stroke-width:1;"/><text fill="#000000" font-family="sans-serif" font-size="14" lengthAdjust="spacing" textLength="129.2195" x="26" y="198.7897">getVoteDate(): Date</text><ellipse cx="17" cy="213.9256" fill="#84BE84" rx="3" ry="3" style="stroke:#038048;stroke-width:1;"/><text fill="#000000" font-family="sans-serif" font-size="14" lengthAdjust="spacing" textLength="155.1194" x="26" y="217.8576">setVoteDate(Date): void</text><ellipse cx="17" cy="232.9935" fill="#84BE84" rx="3" ry="3" style="stroke:#038048;stroke-width:1;"/><text fill="#000000" font-family="sans-serif" font-size="14" lengthAdjust="spacing" textLength="111.0476" x="26" y="236.9255">getParty(): String</text><ellipse cx="17" cy="252.0614" fill="#84BE84" rx="3" ry="3" style="stroke:#038048;stroke-width:1;"/><text fill="#000000" font-family="sans-serif" font-size="14" lengthAdjust="spacing" textLength="136.9475" x="26" y="255.9934">setParty(String): void</text><ellipse cx="17" cy="271.1294" fill="#84BE84" rx="3" ry="3" style="stroke:#038048;stroke-width:1;"/><text fill="#000000" font-family="sans-serif" font-size="14" lengthAdjust="spacing" textLength="527.504" x="26" y="275.0613">withVoteDate(Date): RiksdagenVoteDataBallotPartyPeriodSummaryEmbeddedId</text><ellipse cx="17" cy="290.1973" fill="#84BE84" rx="3" ry="3" style="stroke:#038048;stroke-width:1;"/><text fill="#000000" font-family="sans-serif" font-size="14" lengthAdjust="spacing" textLength="509.3322" x="26" y="294.1293">withParty(String): RiksdagenVoteDataBallotPartyPeriodSummaryEmbeddedId</text></a></g><!--class com.hack23.cia.model.common.api.ModelObject--><g class="entity" data-entity="com.hack23.cia.model.common.api.ModelObject" data-source-line="24" data-uid="ent0003" id="entity_com.hack23.cia.model.common.api.ModelObject"><rect fill="#F1F1F1" height="42.6879" rx="2.5" ry="2.5" style="stroke:#181818;stroke-width:0.5;" width="189.3398" x="188.5" y="12"/><ellipse cx="203.5" cy="33.344" fill="#B4A7E5" rx="11" ry="11" style="stroke:#181818;stroke-width:1;"/><path d="M199.4219,29.1096 L199.4219,26.9533 L206.8125,26.9533 L206.8125,29.1096 L204.3438,29.1096 L204.3438,37.1877 L206.8125,37.1877 L206.8125,39.344 L199.4219,39.344 L199.4219,37.1877 L201.8906,37.1877 L201.8906,29.1096 L199.4219,29.1096 Z " fill="#000000"/><text fill="#000000" font-family="sans-serif" font-size="14" font-style="italic" lengthAdjust="spacing" textLength="78.1477" x="257.096" y="31.9659">ModelObject</text><text fill="#000000" font-family="sans-serif" font-size="10" font-style="italic" lengthAdjust="spacing" textLength="157.3398" x="217.5" y="46.7579">com.hack23.cia.model.common.api</text></g><g class="link" data-entity-1="com.hack23.cia.model.common.api.ModelObject" data-entity-2="com.hack23.cia.model.internal.application.data.committee.impl.RiksdagenVoteDataBallotPartyPeriodSummaryEmbeddedId" data-uid="lnk4" id="link_com.hack23.cia.model.common.api.ModelObject_com.hack23.cia.model.internal.application.data.committee.impl.RiksdagenVoteDataBallotPartyPeriodSummaryEmbeddedId"><polygon fill="none" points="283,55.2183,277,73.2183,289,73.2183,283,55.2183" style="stroke:#181818;stroke-width:1;"/><path d="M283,73.2183 C283,82.9851 283,77.4416 283,90.8868" fill="none" style="stroke:#181818;stroke-width:1;stroke-dasharray:7,7;"/></g><g class="footer" data-source-line="34"><text fill="#888888" font-family="sans-serif" font-size="10" lengthAdjust="spacing" textLength="2.6" x="278.2" y="306.69">&#160;</text><a href="https://github.com/talsma-ict/umldoclet" target="_top" title="https://github.com/talsma-ict/umldoclet" xlink:actuate="onRequest" xlink:href="https://github.com/talsma-ict/umldoclet" xlink:show="new" xlink:title="https://github.com/talsma-ict/umldoclet" xlink:type="simple"><text fill="#888888" font-family="sans-serif" font-size="10" lengthAdjust="spacing" textLength="76.7199" x="241.14" y="320.31">UMLDoclet 2.2.4</text></a></g><!--SRC=[lLHHJzim47xdLzpWOI2ecuG2eq983D36L3H4orvA7zpucdXrxCo-56KR_trEKahfDctgfEKXLUzyttrt_l810Bo6SvENLYOf0HcWL3guk-u1rm8Ir6WveG2PyGGTZ54PdRZc808lA3KMpAJ-5njhqUL62waJ-C1d79mfR8oERMn0tMhmXFx0tHBwkAo25oPMIB1zlhD4AGh2mrOKH8SmuCfb7AxE1soEzbmJiOXrm6Ch6QDs7hBG0crDwopdiV_fDPazcA5rqcXV4ynngb5ZeubBxI3dbbmrqetYcYgk8VFz3rWOmFPPl_UIN71Sazk3Cwjv8U3MV2aMyxxABKyyPSLBKn2u38bhtkISPwrvvlV5O-oZxyh9hr8RZNK-bG81ivnAc4XKmgr6FLXgVBYEnuex1vidJdx5RjWvlPLJ9_oDwK-6y88JVykLCdJZPojlq4eZ-aMMSLjUPcCK0iMLkDVpwk0qDXbBUJoDzbaiESkCGCMa9lGpAiRpt6-PazyX4nwQ-UEP949aCilL9lYh_IS4jWPx60xNg68fPMeqWc_r4gjdQzOKOnUgztEyaaNPXJvPB-v5U3T1chV3xPsLcbstbAnU_i3CIF6YkgPNbQuYkwTSa_Yfza5Ikeg-nWfU0gvqN1VliL5bVU4Jh-ybPLvNKlWu_emn_KbnbIgyGdWkVw-fvpDi2Nd-KVnz0PnyP-p_gxRXUUAeL7Ywk8c9yG1sIPJLyxxCqVQadfuRvNrYwyslitULxIcfqJjjFDNeNI5Od7nishMN-irxtUlXC2NANRVTJhmEYd4rNPjgost9cDf5faJZjIkkEnhDNVJTmiuhHsm5KIiu7WG7tI3gTYAs7nu5KISy2dU3i1i4myl2cXpRVJBnD3Kg6_q0]--></g></svg>