<svg xmlns="http://www.w3.org/2000/svg" xmlns:xlink="http://www.w3.org/1999/xlink" contentStyleType="text/css" data-diagram-type="CLASS" height="331px" preserveAspectRatio="none" style="width:619px;height:331px;background:#FFFFFF;" version="1.1" viewBox="0 0 619 331" width="619px" zoomAndPan="magnify"><defs/><g><!--class com.hack23.cia.model.internal.application.data.committee.impl.RiksdagenVoteDataBallotPoliticianPeriodSummaryEmbeddedId--><g class="entity" data-entity="com.hack23.cia.model.internal.application.data.committee.impl.RiksdagenVoteDataBallotPoliticianPeriodSummaryEmbeddedId" data-source-line="13" data-uid="ent0002" id="entity_com.hack23.cia.model.internal.application.data.committee.impl.RiksdagenVoteDataBallotPoliticianPeriodSummaryEmbeddedId"><a href="RiksdagenVoteDataBallotPoliticianPeriodSummaryEmbeddedId.html" target="_top" title="RiksdagenVoteDataBallotPoliticianPeriodSummaryEmbeddedId.html" xlink:actuate="onRequest" xlink:href="RiksdagenVoteDataBallotPoliticianPeriodSummaryEmbeddedId.html" xlink:show="new" xlink:title="RiksdagenVoteDataBallotPoliticianPeriodSummaryEmbeddedId.html" xlink:type="simple"><rect fill="#F1F1F1" height="211.2312" rx="2.5" ry="2.5" style="stroke:#181818;stroke-width:0.5;" width="606.8999" x="6" y="91"/><ellipse cx="96.7547" cy="112.344" fill="#ADD1B2" rx="11" ry="11" style="stroke:#181818;stroke-width:1;"/><path d="M99.7234,117.9846 Q99.1453,118.2815 98.5047,118.4221 Q97.8641,118.5783 97.1609,118.5783 Q94.6609,118.5783 93.3328,116.9377 Q92.0203,115.2815 92.0203,112.1565 Q92.0203,109.0315 93.3328,107.3752 Q94.6609,105.719 97.1609,105.719 Q97.8641,105.719 98.5047,105.8752 Q99.1609,106.0315 99.7234,106.3283 L99.7234,109.0471 Q99.0984,108.469 98.5047,108.2033 Q97.9109,107.9221 97.2859,107.9221 Q95.9422,107.9221 95.2547,109.0002 Q94.5672,110.0627 94.5672,112.1565 Q94.5672,114.2502 95.2547,115.3283 Q95.9422,116.3908 97.2859,116.3908 Q97.9109,116.3908 98.5047,116.1252 Q99.0984,115.844 99.7234,115.2658 L99.7234,117.9846 Z " fill="#000000"/><text fill="#000000" font-family="sans-serif" font-size="14" lengthAdjust="spacing" textLength="416.8905" x="117.2547" y="110.9659">RiksdagenVoteDataBallotPoliticianPeriodSummaryEmbeddedId</text><text fill="#000000" font-family="sans-serif" font-size="10" lengthAdjust="spacing" textLength="298.4498" x="176.475" y="125.7579">com.hack23.cia.model.internal.application.data.committee.impl</text><line style="stroke:#181818;stroke-width:0.5;" x1="7" x2="611.8999" y1="133.6879" y2="133.6879"/><polygon fill="none" points="17,143.7219,21,147.7219,17,151.7219,13,147.7219" style="stroke:#B38D22;stroke-width:1;"/><text fill="#000000" font-family="sans-serif" font-size="14" lengthAdjust="spacing" textLength="97.9716" x="26" y="152.6538">voteDate: Date</text><polygon fill="none" points="17,162.7898,21,166.7898,17,170.7898,13,166.7898" style="stroke:#B38D22;stroke-width:1;"/><text fill="#000000" font-family="sans-serif" font-size="14" lengthAdjust="spacing" textLength="126.1535" x="26" y="171.7218">intressentId: String</text><line style="stroke:#181818;stroke-width:0.5;" x1="7" x2="611.8999" y1="179.8237" y2="179.8237"/><ellipse cx="17" cy="194.8577" fill="#84BE84" rx="3" ry="3" style="stroke:#038048;stroke-width:1;"/><text fill="#000000" font-family="sans-serif" font-size="14" lengthAdjust="spacing" textLength="129.2195" x="26" y="198.7897">getVoteDate(): Date</text><ellipse cx="17" cy="213.9256" fill="#84BE84" rx="3" ry="3" style="stroke:#038048;stroke-width:1;"/><text fill="#000000" font-family="sans-serif" font-size="14" lengthAdjust="spacing" textLength="155.1194" x="26" y="217.8576">setVoteDate(Date): void</text><ellipse cx="17" cy="232.9935" fill="#84BE84" rx="3" ry="3" style="stroke:#038048;stroke-width:1;"/><text fill="#000000" font-family="sans-serif" font-size="14" lengthAdjust="spacing" textLength="157.2474" x="26" y="236.9255">getIntressentId(): String</text><ellipse cx="17" cy="252.0614" fill="#84BE84" rx="3" ry="3" style="stroke:#038048;stroke-width:1;"/><text fill="#000000" font-family="sans-serif" font-size="14" lengthAdjust="spacing" textLength="183.1473" x="26" y="255.9934">setIntressentId(String): void</text><ellipse cx="17" cy="271.1294" fill="#84BE84" rx="3" ry="3" style="stroke:#038048;stroke-width:1;"/><text fill="#000000" font-family="sans-serif" font-size="14" lengthAdjust="spacing" textLength="552.8719" x="26" y="275.0613">withVoteDate(Date): RiksdagenVoteDataBallotPoliticianPeriodSummaryEmbeddedId</text><ellipse cx="17" cy="290.1973" fill="#84BE84" rx="3" ry="3" style="stroke:#038048;stroke-width:1;"/><text fill="#000000" font-family="sans-serif" font-size="14" lengthAdjust="spacing" textLength="580.8999" x="26" y="294.1293">withIntressentId(String): RiksdagenVoteDataBallotPoliticianPeriodSummaryEmbeddedId</text></a></g><!--class com.hack23.cia.model.common.api.ModelObject--><g class="entity" data-entity="com.hack23.cia.model.common.api.ModelObject" data-source-line="24" data-uid="ent0003" id="entity_com.hack23.cia.model.common.api.ModelObject"><rect fill="#F1F1F1" height="42.6879" rx="2.5" ry="2.5" style="stroke:#181818;stroke-width:0.5;" width="189.3398" x="215" y="12"/><ellipse cx="230" cy="33.344" fill="#B4A7E5" rx="11" ry="11" style="stroke:#181818;stroke-width:1;"/><path d="M225.9219,29.1096 L225.9219,26.9533 L233.3125,26.9533 L233.3125,29.1096 L230.8438,29.1096 L230.8438,37.1877 L233.3125,37.1877 L233.3125,39.344 L225.9219,39.344 L225.9219,37.1877 L228.3906,37.1877 L228.3906,29.1096 L225.9219,29.1096 Z " fill="#000000"/><text fill="#000000" font-family="sans-serif" font-size="14" font-style="italic" lengthAdjust="spacing" textLength="78.1477" x="283.596" y="31.9659">ModelObject</text><text fill="#000000" font-family="sans-serif" font-size="10" font-style="italic" lengthAdjust="spacing" textLength="157.3398" x="244" y="46.7579">com.hack23.cia.model.common.api</text></g><g class="link" data-entity-1="com.hack23.cia.model.common.api.ModelObject" data-entity-2="com.hack23.cia.model.internal.application.data.committee.impl.RiksdagenVoteDataBallotPoliticianPeriodSummaryEmbeddedId" data-uid="lnk4" id="link_com.hack23.cia.model.common.api.ModelObject_com.hack23.cia.model.internal.application.data.committee.impl.RiksdagenVoteDataBallotPoliticianPeriodSummaryEmbeddedId"><polygon fill="none" points="309.5,55.2183,303.5,73.2183,315.5,73.2183,309.5,55.2183" style="stroke:#181818;stroke-width:1;"/><path d="M309.5,73.2183 C309.5,82.9851 309.5,77.4416 309.5,90.8868" fill="none" style="stroke:#181818;stroke-width:1;stroke-dasharray:7,7;"/></g><g class="footer" data-source-line="34"><text fill="#888888" font-family="sans-serif" font-size="10" lengthAdjust="spacing" textLength="2.6" x="304.7" y="306.69">&#160;</text><a href="https://github.com/talsma-ict/umldoclet" target="_top" title="https://github.com/talsma-ict/umldoclet" xlink:actuate="onRequest" xlink:href="https://github.com/talsma-ict/umldoclet" xlink:show="new" xlink:title="https://github.com/talsma-ict/umldoclet" xlink:type="simple"><text fill="#888888" font-family="sans-serif" font-size="10" lengthAdjust="spacing" textLength="76.7199" x="267.64" y="320.31">UMLDoclet 2.2.4</text></a></g><!--SRC=[nLLDJzj04BttLqpXK11aOpifWWWXqO3QL45517e9EMoy4tkRzQwxEmvAM_vxrtOQJ4hL2WxrmPRduxsPsUSn0C0Rw9jyQMMI4f01IgM3cuiXS2qWGOsM4mgG6K_GmHILqOch0n5uGQcnO6RLMsoiHPSRBQHEu2DVS72ci34wzkeLL5JNlz3lk6kWJvUbySp42Wbs-hkDag8WF6X5GNG0rrovZCEWVyrMQ0yv4OjO5posaZ5gvo4BBT1MPPtcFFQFOUtPXmLQ9utsES4AfsmrDfgur0voRicLBLqghgciDMIU_oqB0zWv7GqV5nSSLSNjmwdLl11mPRuMwtvVvvOdlcJ5bwOWS1aIrxpsEL-rvfcV5uznX9wLan-bDXehVoe50cOvBM4cKGctQVLWgV7coXuhxXni7Jlv3NjXz-HApftm9wO_6y8pJlmTLyhGfL6IP2ovlaGhZHWLMSRjyZoReX0e1k9Mho22azXaBENnFEemdy0o8r0ngGbzeuhnFFUZvkG7oOJ7PpuyaqI8J6QvsW9_lYz2OCzj0SRZvwQob38rcS3tQgRbjRse4R07vVt1xjlmMdUeQI1wC2Bh9R_sxYL8AshSsTr8tNCDPtdp0GiZnQFiGGE-HDWaS1iXjVytf3j9wIRNSuVp6FLfzXTXtzTIhWGoynz5GyuNfNG-JRzWJ7zJQAaYhoYUopzhy266DP1NNzA_9y3n3yR-ayhhOeyTBHMUh8zcPZoARUYtl3uiSxH3gUTze_o6sJvysdjJBambDVeT7S-rFrm8rf7tDLsxmRVYkjNZSKgKkrwxdNXX5DEonJPLoxebOseNcHBrbjxOrvF9Ql- -N_y8obtQ2hgjCBmEkxrEjnTqsM7dg1iTTGx3lI3g1S7ulB0cn_Q8J3nFZSecFm40]--></g></svg>