<svg xmlns="http://www.w3.org/2000/svg" xmlns:xlink="http://www.w3.org/1999/xlink" contentStyleType="text/css" data-diagram-type="CLASS" height="484px" preserveAspectRatio="none" style="width:513px;height:484px;background:#FFFFFF;" version="1.1" viewBox="0 0 513 484" width="513px" zoomAndPan="magnify"><defs/><g><!--class com.hack23.cia.model.internal.application.data.committee.impl.RiksdagenVoteDataBallotPoliticianEmbeddedId--><g class="entity" data-entity="com.hack23.cia.model.internal.application.data.committee.impl.RiksdagenVoteDataBallotPoliticianEmbeddedId" data-source-line="13" data-uid="ent0002" id="entity_com.hack23.cia.model.internal.application.data.committee.impl.RiksdagenVoteDataBallotPoliticianEmbeddedId"><a href="RiksdagenVoteDataBallotPoliticianEmbeddedId.html" target="_top" title="RiksdagenVoteDataBallotPoliticianEmbeddedId.html" xlink:actuate="onRequest" xlink:href="RiksdagenVoteDataBallotPoliticianEmbeddedId.html" xlink:show="new" xlink:title="RiksdagenVoteDataBallotPoliticianEmbeddedId.html" xlink:type="simple"><rect fill="#F1F1F1" height="363.7746" rx="2.5" ry="2.5" style="stroke:#181818;stroke-width:0.5;" width="500.7662" x="6" y="91"/><ellipse cx="96.7547" cy="112.344" fill="#ADD1B2" rx="11" ry="11" style="stroke:#181818;stroke-width:1;"/><path d="M99.7234,117.9846 Q99.1453,118.2815 98.5047,118.4221 Q97.864,118.5783 97.1609,118.5783 Q94.6609,118.5783 93.3328,116.9377 Q92.0203,115.2815 92.0203,112.1565 Q92.0203,109.0315 93.3328,107.3752 Q94.6609,105.719 97.1609,105.719 Q97.864,105.719 98.5047,105.8752 Q99.1609,106.0315 99.7234,106.3283 L99.7234,109.0471 Q99.0984,108.469 98.5047,108.2033 Q97.9109,107.9221 97.2859,107.9221 Q95.9422,107.9221 95.2547,109.0002 Q94.5672,110.0627 94.5672,112.1565 Q94.5672,114.2502 95.2547,115.3283 Q95.9422,116.3908 97.2859,116.3908 Q97.9109,116.3908 98.5047,116.1252 Q99.0984,115.844 99.7234,115.2658 L99.7234,117.9846 Z " fill="#000000"/><text fill="#000000" font-family="sans-serif" font-size="14" lengthAdjust="spacing" textLength="310.7568" x="117.2547" y="110.9659">RiksdagenVoteDataBallotPoliticianEmbeddedId</text><text fill="#000000" font-family="sans-serif" font-size="10" lengthAdjust="spacing" textLength="298.4498" x="123.4082" y="125.7579">com.hack23.cia.model.internal.application.data.committee.impl</text><line style="stroke:#181818;stroke-width:0.5;" x1="7" x2="505.7662" y1="133.6879" y2="133.6879"/><polygon fill="none" points="17,143.7219,21,147.7219,17,151.7219,13,147.7219" style="stroke:#B38D22;stroke-width:1;"/><text fill="#000000" font-family="sans-serif" font-size="14" lengthAdjust="spacing" textLength="97.3557" x="26" y="152.6538">ballotId: String</text><polygon fill="none" points="17,162.7898,21,166.7898,17,170.7898,13,166.7898" style="stroke:#B38D22;stroke-width:1;"/><text fill="#000000" font-family="sans-serif" font-size="14" lengthAdjust="spacing" textLength="99.6796" x="26" y="171.7218">concern: String</text><polygon fill="none" points="17,181.8577,21,185.8577,17,189.8577,13,185.8577" style="stroke:#B38D22;stroke-width:1;"/><text fill="#000000" font-family="sans-serif" font-size="14" lengthAdjust="spacing" textLength="80.3597" x="26" y="190.7897">issue: String</text><polygon fill="none" points="17,200.9256,21,204.9256,17,208.9256,13,204.9256" style="stroke:#B38D22;stroke-width:1;"/><text fill="#000000" font-family="sans-serif" font-size="14" lengthAdjust="spacing" textLength="126.1535" x="26" y="209.8576">intressentId: String</text><line style="stroke:#181818;stroke-width:0.5;" x1="7" x2="505.7662" y1="217.9596" y2="217.9596"/><ellipse cx="17" cy="232.9935" fill="#84BE84" rx="3" ry="3" style="stroke:#038048;stroke-width:1;"/><text fill="#000000" font-family="sans-serif" font-size="14" lengthAdjust="spacing" textLength="127.8055" x="26" y="236.9255">getBallotId(): String</text><ellipse cx="17" cy="252.0614" fill="#84BE84" rx="3" ry="3" style="stroke:#038048;stroke-width:1;"/><text fill="#000000" font-family="sans-serif" font-size="14" lengthAdjust="spacing" textLength="153.7054" x="26" y="255.9934">setBallotId(String): void</text><ellipse cx="17" cy="271.1294" fill="#84BE84" rx="3" ry="3" style="stroke:#038048;stroke-width:1;"/><text fill="#000000" font-family="sans-serif" font-size="14" lengthAdjust="spacing" textLength="131.7675" x="26" y="275.0613">getConcern(): String</text><ellipse cx="17" cy="290.1973" fill="#84BE84" rx="3" ry="3" style="stroke:#038048;stroke-width:1;"/><text fill="#000000" font-family="sans-serif" font-size="14" lengthAdjust="spacing" textLength="157.6674" x="26" y="294.1293">setConcern(String): void</text><ellipse cx="17" cy="309.2652" fill="#84BE84" rx="3" ry="3" style="stroke:#038048;stroke-width:1;"/><text fill="#000000" font-family="sans-serif" font-size="14" lengthAdjust="spacing" textLength="111.4536" x="26" y="313.1972">getIssue(): String</text><ellipse cx="17" cy="328.3331" fill="#84BE84" rx="3" ry="3" style="stroke:#038048;stroke-width:1;"/><text fill="#000000" font-family="sans-serif" font-size="14" lengthAdjust="spacing" textLength="137.3535" x="26" y="332.2651">setIssue(String): void</text><ellipse cx="17" cy="347.401" fill="#84BE84" rx="3" ry="3" style="stroke:#038048;stroke-width:1;"/><text fill="#000000" font-family="sans-serif" font-size="14" lengthAdjust="spacing" textLength="157.2474" x="26" y="351.333">getIntressentId(): String</text><ellipse cx="17" cy="366.4689" fill="#84BE84" rx="3" ry="3" style="stroke:#038048;stroke-width:1;"/><text fill="#000000" font-family="sans-serif" font-size="14" lengthAdjust="spacing" textLength="183.1473" x="26" y="370.4009">setIntressentId(String): void</text><ellipse cx="17" cy="385.5369" fill="#84BE84" rx="3" ry="3" style="stroke:#038048;stroke-width:1;"/><text fill="#000000" font-family="sans-serif" font-size="14" lengthAdjust="spacing" textLength="445.3243" x="26" y="389.4688">withBallotId(String): RiksdagenVoteDataBallotPoliticianEmbeddedId</text><ellipse cx="17" cy="404.6048" fill="#84BE84" rx="3" ry="3" style="stroke:#038048;stroke-width:1;"/><text fill="#000000" font-family="sans-serif" font-size="14" lengthAdjust="spacing" textLength="449.2863" x="26" y="408.5368">withConcern(String): RiksdagenVoteDataBallotPoliticianEmbeddedId</text><ellipse cx="17" cy="423.6727" fill="#84BE84" rx="3" ry="3" style="stroke:#038048;stroke-width:1;"/><text fill="#000000" font-family="sans-serif" font-size="14" lengthAdjust="spacing" textLength="428.9724" x="26" y="427.6047">withIssue(String): RiksdagenVoteDataBallotPoliticianEmbeddedId</text><ellipse cx="17" cy="442.7406" fill="#84BE84" rx="3" ry="3" style="stroke:#038048;stroke-width:1;"/><text fill="#000000" font-family="sans-serif" font-size="14" lengthAdjust="spacing" textLength="474.7662" x="26" y="446.6726">withIntressentId(String): RiksdagenVoteDataBallotPoliticianEmbeddedId</text></a></g><!--class com.hack23.cia.model.common.api.ModelObject--><g class="entity" data-entity="com.hack23.cia.model.common.api.ModelObject" data-source-line="32" data-uid="ent0003" id="entity_com.hack23.cia.model.common.api.ModelObject"><rect fill="#F1F1F1" height="42.6879" rx="2.5" ry="2.5" style="stroke:#181818;stroke-width:0.5;" width="189.3398" x="162" y="12"/><ellipse cx="177" cy="33.344" fill="#B4A7E5" rx="11" ry="11" style="stroke:#181818;stroke-width:1;"/><path d="M172.9219,29.1096 L172.9219,26.9533 L180.3125,26.9533 L180.3125,29.1096 L177.8438,29.1096 L177.8438,37.1877 L180.3125,37.1877 L180.3125,39.344 L172.9219,39.344 L172.9219,37.1877 L175.3906,37.1877 L175.3906,29.1096 L172.9219,29.1096 Z " fill="#000000"/><text fill="#000000" font-family="sans-serif" font-size="14" font-style="italic" lengthAdjust="spacing" textLength="78.1477" x="230.596" y="31.9659">ModelObject</text><text fill="#000000" font-family="sans-serif" font-size="10" font-style="italic" lengthAdjust="spacing" textLength="157.3398" x="191" y="46.7579">com.hack23.cia.model.common.api</text></g><g class="link" data-entity-1="com.hack23.cia.model.common.api.ModelObject" data-entity-2="com.hack23.cia.model.internal.application.data.committee.impl.RiksdagenVoteDataBallotPoliticianEmbeddedId" data-uid="lnk4" id="link_com.hack23.cia.model.common.api.ModelObject_com.hack23.cia.model.internal.application.data.committee.impl.RiksdagenVoteDataBallotPoliticianEmbeddedId"><polygon fill="none" points="256.5,55.1611,250.5,73.1611,262.5,73.1611,256.5,55.1611" style="stroke:#181818;stroke-width:1;"/><path d="M256.5,73.1611 C256.5,82.641 256.5,76.8469 256.5,90.6291" fill="none" style="stroke:#181818;stroke-width:1;stroke-dasharray:7,7;"/></g><g class="footer" data-source-line="42"><text fill="#888888" font-family="sans-serif" font-size="10" lengthAdjust="spacing" textLength="2.6" x="251.7" y="459.69">&#160;</text><a href="https://github.com/talsma-ict/umldoclet" target="_top" title="https://github.com/talsma-ict/umldoclet" xlink:actuate="onRequest" xlink:href="https://github.com/talsma-ict/umldoclet" xlink:show="new" xlink:title="https://github.com/talsma-ict/umldoclet" xlink:type="simple"><text fill="#888888" font-family="sans-serif" font-size="10" lengthAdjust="spacing" textLength="76.7199" x="214.64" y="473.31">UMLDoclet 2.2.4</text></a></g><!--SRC=[lLNVJzim47xdhxZ1mq1GDmtbLuMGeA2jKz4GBNifVN3ZQ-BLiRFu0kes_lSvIIa1scrbql9IrT_TTz_T-Nm00E-XRP9fAiE8W0nG92tSN7Q1Qm4XQamveG0Pyn0jZ50P7ThI485d59aKpBZu5vWqHPiOBQGEuHE_us1DbWPesTeQ5A7wZ-ptt5ROHzFyyDm42WassriLIRxNsA_vdhyFVQvipA7JxhCPsvEFptpM1CUjP83QEifC2qmBMQS93znFjqHsu0vJAursFjwC9qyrC9gur1OIdfBDKxfIN5EkjS5S_3tMy63pjDTzBiuxAiJjm6cgUIRWsdpBvlc-Ir8UEicAJqr6O6Cahdc9MQTQyzZLYmVOGnULaokbDXeBF9820UE4fZ2Mg8HzUUh88kEEY_D0SMjX_TZAxzXgD4-kvSGArp7znH2US-9dN2b3LqP9ae7a-Y8UeH0eEk9Mpxoyay34BEB1nDzbpeR5Hg1YKXEwt1JZIUAgoydLZWb7oPnvB8aGcOmJjGwkfV_4m5PG3OF12jOiebWDX_2ZA5R-ROmAuuveGOzITr-V47SJ0gVtDI2jpN31iIPtxItgHMpR8TBPBDJcrclOLk0ISqPtHefd3ErIqXA2HtIvVoTNliIxn7xZMqbl6KNLP0dJlQJeTQOhzF0vrQkStypq8l-tyomimgfq3-Ky5oCpTYz3PQOlys7wFFgA0VrfPlEvSZF64xbyAfziM8LvzfpylGCS_sJi_yrzgU_OqbJXoRm1O-CSqyfuvz_7QO9fL-f9soZticuSBaPlyaMXf4QtcuA9TYq4RsxvK8QhL-BDOjtgmI0YIcohNWzT-xDHdbMTYYLLam7LirY9SZkzs5F3uMplV9Wlm7o7rBnchT7eDvgjtMRBQxA3lVsZG__0Ezps_9Rd3Iwor2HOxv499f5HyV0N]--></g></svg>