<svg xmlns="http://www.w3.org/2000/svg" xmlns:xlink="http://www.w3.org/1999/xlink" contentStyleType="text/css" data-diagram-type="CLASS" height="408px" preserveAspectRatio="none" style="width:428px;height:408px;background:#FFFFFF;" version="1.1" viewBox="0 0 428 408" width="428px" zoomAndPan="magnify"><defs/><g><!--class com.hack23.cia.model.internal.application.data.committee.impl.RiksdagenVoteDataBallotEmbeddedId--><g class="entity" data-entity="com.hack23.cia.model.internal.application.data.committee.impl.RiksdagenVoteDataBallotEmbeddedId" data-source-line="13" data-uid="ent0002" id="entity_com.hack23.cia.model.internal.application.data.committee.impl.RiksdagenVoteDataBallotEmbeddedId"><a href="RiksdagenVoteDataBallotEmbeddedId.html" target="_top" title="RiksdagenVoteDataBallotEmbeddedId.html" xlink:actuate="onRequest" xlink:href="RiksdagenVoteDataBallotEmbeddedId.html" xlink:show="new" xlink:title="RiksdagenVoteDataBallotEmbeddedId.html" xlink:type="simple"><rect fill="#F1F1F1" height="287.5029" rx="2.5" ry="2.5" style="stroke:#181818;stroke-width:0.5;" width="415.6185" x="6" y="91"/><ellipse cx="60.3344" cy="112.344" fill="#ADD1B2" rx="11" ry="11" style="stroke:#181818;stroke-width:1;"/><path d="M63.3031,117.9846 Q62.725,118.2815 62.0844,118.4221 Q61.4437,118.5783 60.7406,118.5783 Q58.2406,118.5783 56.9125,116.9377 Q55.6,115.2815 55.6,112.1565 Q55.6,109.0315 56.9125,107.3752 Q58.2406,105.719 60.7406,105.719 Q61.4437,105.719 62.0844,105.8752 Q62.7406,106.0315 63.3031,106.3283 L63.3031,109.0471 Q62.6781,108.469 62.0844,108.2033 Q61.4906,107.9221 60.8656,107.9221 Q59.5219,107.9221 58.8344,109.0002 Q58.1469,110.0627 58.1469,112.1565 Q58.1469,114.2502 58.8344,115.3283 Q59.5219,116.3908 60.8656,116.3908 Q61.4906,116.3908 62.0844,116.1252 Q62.6781,115.844 63.3031,115.2658 L63.3031,117.9846 Z " fill="#000000"/><text fill="#000000" font-family="sans-serif" font-size="14" lengthAdjust="spacing" textLength="251.0891" x="104.5147" y="110.9659">RiksdagenVoteDataBallotEmbeddedId</text><text fill="#000000" font-family="sans-serif" font-size="10" lengthAdjust="spacing" textLength="298.4498" x="80.8344" y="125.7579">com.hack23.cia.model.internal.application.data.committee.impl</text><line style="stroke:#181818;stroke-width:0.5;" x1="7" x2="420.6185" y1="133.6879" y2="133.6879"/><polygon fill="none" points="17,143.7219,21,147.7219,17,151.7219,13,147.7219" style="stroke:#B38D22;stroke-width:1;"/><text fill="#000000" font-family="sans-serif" font-size="14" lengthAdjust="spacing" textLength="97.3557" x="26" y="152.6538">ballotId: String</text><polygon fill="none" points="17,162.7898,21,166.7898,17,170.7898,13,166.7898" style="stroke:#B38D22;stroke-width:1;"/><text fill="#000000" font-family="sans-serif" font-size="14" lengthAdjust="spacing" textLength="99.6796" x="26" y="171.7218">concern: String</text><polygon fill="none" points="17,181.8577,21,185.8577,17,189.8577,13,185.8577" style="stroke:#B38D22;stroke-width:1;"/><text fill="#000000" font-family="sans-serif" font-size="14" lengthAdjust="spacing" textLength="80.3597" x="26" y="190.7897">issue: String</text><line style="stroke:#181818;stroke-width:0.5;" x1="7" x2="420.6185" y1="198.8917" y2="198.8917"/><ellipse cx="17" cy="213.9256" fill="#84BE84" rx="3" ry="3" style="stroke:#038048;stroke-width:1;"/><text fill="#000000" font-family="sans-serif" font-size="14" lengthAdjust="spacing" textLength="127.8055" x="26" y="217.8576">getBallotId(): String</text><ellipse cx="17" cy="232.9935" fill="#84BE84" rx="3" ry="3" style="stroke:#038048;stroke-width:1;"/><text fill="#000000" font-family="sans-serif" font-size="14" lengthAdjust="spacing" textLength="153.7054" x="26" y="236.9255">setBallotId(String): void</text><ellipse cx="17" cy="252.0614" fill="#84BE84" rx="3" ry="3" style="stroke:#038048;stroke-width:1;"/><text fill="#000000" font-family="sans-serif" font-size="14" lengthAdjust="spacing" textLength="131.7675" x="26" y="255.9934">getConcern(): String</text><ellipse cx="17" cy="271.1294" fill="#84BE84" rx="3" ry="3" style="stroke:#038048;stroke-width:1;"/><text fill="#000000" font-family="sans-serif" font-size="14" lengthAdjust="spacing" textLength="157.6674" x="26" y="275.0613">setConcern(String): void</text><ellipse cx="17" cy="290.1973" fill="#84BE84" rx="3" ry="3" style="stroke:#038048;stroke-width:1;"/><text fill="#000000" font-family="sans-serif" font-size="14" lengthAdjust="spacing" textLength="111.4536" x="26" y="294.1293">getIssue(): String</text><ellipse cx="17" cy="309.2652" fill="#84BE84" rx="3" ry="3" style="stroke:#038048;stroke-width:1;"/><text fill="#000000" font-family="sans-serif" font-size="14" lengthAdjust="spacing" textLength="137.3535" x="26" y="313.1972">setIssue(String): void</text><ellipse cx="17" cy="328.3331" fill="#84BE84" rx="3" ry="3" style="stroke:#038048;stroke-width:1;"/><text fill="#000000" font-family="sans-serif" font-size="14" lengthAdjust="spacing" textLength="385.6566" x="26" y="332.2651">withBallotId(String): RiksdagenVoteDataBallotEmbeddedId</text><ellipse cx="17" cy="347.401" fill="#84BE84" rx="3" ry="3" style="stroke:#038048;stroke-width:1;"/><text fill="#000000" font-family="sans-serif" font-size="14" lengthAdjust="spacing" textLength="389.6185" x="26" y="351.333">withConcern(String): RiksdagenVoteDataBallotEmbeddedId</text><ellipse cx="17" cy="366.4689" fill="#84BE84" rx="3" ry="3" style="stroke:#038048;stroke-width:1;"/><text fill="#000000" font-family="sans-serif" font-size="14" lengthAdjust="spacing" textLength="369.3046" x="26" y="370.4009">withIssue(String): RiksdagenVoteDataBallotEmbeddedId</text></a></g><!--class com.hack23.cia.model.common.api.ModelObject--><g class="entity" data-entity="com.hack23.cia.model.common.api.ModelObject" data-source-line="28" data-uid="ent0003" id="entity_com.hack23.cia.model.common.api.ModelObject"><rect fill="#F1F1F1" height="42.6879" rx="2.5" ry="2.5" style="stroke:#181818;stroke-width:0.5;" width="189.3398" x="119.5" y="12"/><ellipse cx="134.5" cy="33.344" fill="#B4A7E5" rx="11" ry="11" style="stroke:#181818;stroke-width:1;"/><path d="M130.4219,29.1096 L130.4219,26.9533 L137.8125,26.9533 L137.8125,29.1096 L135.3438,29.1096 L135.3438,37.1877 L137.8125,37.1877 L137.8125,39.344 L130.4219,39.344 L130.4219,37.1877 L132.8906,37.1877 L132.8906,29.1096 L130.4219,29.1096 Z " fill="#000000"/><text fill="#000000" font-family="sans-serif" font-size="14" font-style="italic" lengthAdjust="spacing" textLength="78.1477" x="188.096" y="31.9659">ModelObject</text><text fill="#000000" font-family="sans-serif" font-size="10" font-style="italic" lengthAdjust="spacing" textLength="157.3398" x="148.5" y="46.7579">com.hack23.cia.model.common.api</text></g><g class="link" data-entity-1="com.hack23.cia.model.common.api.ModelObject" data-entity-2="com.hack23.cia.model.internal.application.data.committee.impl.RiksdagenVoteDataBallotEmbeddedId" data-uid="lnk4" id="link_com.hack23.cia.model.common.api.ModelObject_com.hack23.cia.model.internal.application.data.committee.impl.RiksdagenVoteDataBallotEmbeddedId"><polygon fill="none" points="214,55.0986,208,73.0986,220,73.0986,214,55.0986" style="stroke:#181818;stroke-width:1;"/><path d="M214,73.0986 C214,82.7554 214,77.1744 214,90.9623" fill="none" style="stroke:#181818;stroke-width:1;stroke-dasharray:7,7;"/></g><g class="footer" data-source-line="38"><text fill="#888888" font-family="sans-serif" font-size="10" lengthAdjust="spacing" textLength="2.6" x="209.2" y="383.69">&#160;</text><a href="https://github.com/talsma-ict/umldoclet" target="_top" title="https://github.com/talsma-ict/umldoclet" xlink:actuate="onRequest" xlink:href="https://github.com/talsma-ict/umldoclet" xlink:show="new" xlink:title="https://github.com/talsma-ict/umldoclet" xlink:type="simple"><text fill="#888888" font-family="sans-serif" font-size="10" lengthAdjust="spacing" textLength="76.7199" x="172.14" y="397.31">UMLDoclet 2.2.4</text></a></g><!--SRC=[jLLHJzim47xdLzpWOI2ecvHIiGeXGK6ZKz4cMlPI-k3QryIhOsVn1THj_FSvIIc5hYhJjBn4kU_kk-_Evmi0m7les7IMgIWc80iKAmUtrptWHaA41ZDEA44bF487OzJMHAvoHE0vnJO3Eoc_XCqoTAarKfa8Fl5x3ixccK37jhQWJ3LuOd_WRebzF2kC5rPe9DZjx2r9QWHXgzO86YqOSEqI3jtEWCtPdcCQhC6QuBcr4cYSfyoDnAoKTPPouL-z2Zc0UyoSiiR717EUebHX3N5b7AGy8rUKz4LpGuNMaFdyHomCOFUittifBlXGYZk0iypmNCAD_PulwdsNPZpoaZMVsPp09KZSy0fpNhNXYUyN5zX7dvMJRwMn1aiyLX81avHcC56efNjjzMInzURIBZHt3hPFdFg1xR1vUgEcJleJCryjuGKdViwrjdIPZ55Ab5rvP-Q-mQcm2Okvc3OEcL2S9LQYPieG-eequsdgUyh9Tun9JyIyUwA849bAKhqD_Y3_YO5jr0h3uKOV5bEYHoFuMRQZU7R6fKjNjg5FcP_8PyIVjV3QLW7bN8uhvlq8wNnEjhkt2hibkCAyqxrLyWL3fqgwXk09NH_VBRIjYQwmDR4FYk9LVHix-f9WHTzVnhzI-BRensguoqcQ-6koDE3NnOnz7dz3GPj6kHWtFteyLUk7zTc7BJ7FxzRR0-3a5sF_-pfKgauSpJIUBheyiTuzMvh_uhcQfPZrb9bshFRBPUVup-XjiIkrCkZNivWQzAiaM7W-LkdgI_dckUxCS1WJfQvThqV-ZFDnKKkToZrTKuBgUQ9bjQ1VhUhHQBvwFox-0SKQhGNDMXWEmcRxiDaEcgpLEWwFWo0usWyQxI0ONkQPJR7U9okciTN9w3S0]--></g></svg>