<svg xmlns="http://www.w3.org/2000/svg" xmlns:xlink="http://www.w3.org/1999/xlink" contentStyleType="text/css" data-diagram-type="CLASS" height="560px" preserveAspectRatio="none" style="width:629px;height:560px;background:#FFFFFF;" version="1.1" viewBox="0 0 629 560" width="629px" zoomAndPan="magnify"><defs/><g><!--class com.hack23.cia.model.internal.application.data.committee.impl.ViewRiksdagenCommitteeBallotDecisionPoliticianEmbeddedId--><g class="entity" data-entity="com.hack23.cia.model.internal.application.data.committee.impl.ViewRiksdagenCommitteeBallotDecisionPoliticianEmbeddedId" data-source-line="13" data-uid="ent0002" id="entity_com.hack23.cia.model.internal.application.data.committee.impl.ViewRiksdagenCommitteeBallotDecisionPoliticianEmbeddedId"><a href="ViewRiksdagenCommitteeBallotDecisionPoliticianEmbeddedId.html" target="_top" title="ViewRiksdagenCommitteeBallotDecisionPoliticianEmbeddedId.html" xlink:actuate="onRequest" xlink:href="ViewRiksdagenCommitteeBallotDecisionPoliticianEmbeddedId.html" xlink:show="new" xlink:title="ViewRiksdagenCommitteeBallotDecisionPoliticianEmbeddedId.html" xlink:type="simple"><rect fill="#F1F1F1" height="440.0462" rx="2.5" ry="2.5" style="stroke:#181818;stroke-width:0.5;" width="616.6859" x="6" y="91"/><ellipse cx="105.2108" cy="112.344" fill="#ADD1B2" rx="11" ry="11" style="stroke:#181818;stroke-width:1;"/><path d="M108.1795,117.9846 Q107.6014,118.2815 106.9608,118.4221 Q106.3201,118.5783 105.617,118.5783 Q103.117,118.5783 101.7889,116.9377 Q100.4764,115.2815 100.4764,112.1565 Q100.4764,109.0315 101.7889,107.3752 Q103.117,105.719 105.617,105.719 Q106.3201,105.719 106.9608,105.8752 Q107.617,106.0315 108.1795,106.3283 L108.1795,109.0471 Q107.5545,108.469 106.9608,108.2033 Q106.367,107.9221 105.742,107.9221 Q104.3983,107.9221 103.7108,109.0002 Q103.0233,110.0627 103.0233,112.1565 Q103.0233,114.2502 103.7108,115.3283 Q104.3983,116.3908 105.742,116.3908 Q106.367,116.3908 106.9608,116.1252 Q107.5545,115.844 108.1795,115.2658 L108.1795,117.9846 Z " fill="#000000"/><text fill="#000000" font-family="sans-serif" font-size="14" lengthAdjust="spacing" textLength="409.7644" x="125.7108" y="110.9659">ViewRiksdagenCommitteeBallotDecisionPoliticianEmbeddedId</text><text fill="#000000" font-family="sans-serif" font-size="10" lengthAdjust="spacing" textLength="298.4498" x="181.368" y="125.7579">com.hack23.cia.model.internal.application.data.committee.impl</text><line style="stroke:#181818;stroke-width:0.5;" x1="7" x2="621.6859" y1="133.6879" y2="133.6879"/><polygon fill="none" points="17,143.7219,21,147.7219,17,151.7219,13,147.7219" style="stroke:#B38D22;stroke-width:1;"/><text fill="#000000" font-family="sans-serif" font-size="14" lengthAdjust="spacing" textLength="59.0098" x="26" y="152.6538">id: String</text><polygon fill="none" points="17,162.7898,21,166.7898,17,170.7898,13,166.7898" style="stroke:#B38D22;stroke-width:1;"/><text fill="#000000" font-family="sans-serif" font-size="14" lengthAdjust="spacing" textLength="126.1535" x="26" y="171.7218">intressentId: String</text><polygon fill="none" points="17,181.8577,21,185.8577,17,189.8577,13,185.8577" style="stroke:#B38D22;stroke-width:1;"/><text fill="#000000" font-family="sans-serif" font-size="14" lengthAdjust="spacing" textLength="142.4774" x="26" y="190.7897">hangarId: BigDecimal</text><polygon fill="none" points="17,200.9256,21,204.9256,17,208.9256,13,204.9256" style="stroke:#B38D22;stroke-width:1;"/><text fill="#000000" font-family="sans-serif" font-size="14" lengthAdjust="spacing" textLength="80.3597" x="26" y="209.8576">issue: String</text><polygon fill="none" points="17,219.9935,21,223.9935,17,227.9935,13,223.9935" style="stroke:#B38D22;stroke-width:1;"/><text fill="#000000" font-family="sans-serif" font-size="14" lengthAdjust="spacing" textLength="99.6796" x="26" y="228.9255">concern: String</text><line style="stroke:#181818;stroke-width:0.5;" x1="7" x2="621.6859" y1="237.0275" y2="237.0275"/><ellipse cx="17" cy="252.0614" fill="#84BE84" rx="3" ry="3" style="stroke:#038048;stroke-width:1;"/><text fill="#000000" font-family="sans-serif" font-size="14" lengthAdjust="spacing" textLength="90.1037" x="26" y="255.9934">getId(): String</text><ellipse cx="17" cy="271.1294" fill="#84BE84" rx="3" ry="3" style="stroke:#038048;stroke-width:1;"/><text fill="#000000" font-family="sans-serif" font-size="14" lengthAdjust="spacing" textLength="116.0036" x="26" y="275.0613">setId(String): void</text><ellipse cx="17" cy="290.1973" fill="#84BE84" rx="3" ry="3" style="stroke:#038048;stroke-width:1;"/><text fill="#000000" font-family="sans-serif" font-size="14" lengthAdjust="spacing" textLength="157.2474" x="26" y="294.1293">getIntressentId(): String</text><ellipse cx="17" cy="309.2652" fill="#84BE84" rx="3" ry="3" style="stroke:#038048;stroke-width:1;"/><text fill="#000000" font-family="sans-serif" font-size="14" lengthAdjust="spacing" textLength="183.1473" x="26" y="313.1972">setIntressentId(String): void</text><ellipse cx="17" cy="328.3331" fill="#84BE84" rx="3" ry="3" style="stroke:#038048;stroke-width:1;"/><text fill="#000000" font-family="sans-serif" font-size="14" lengthAdjust="spacing" textLength="174.1593" x="26" y="332.2651">getHangarId(): BigDecimal</text><ellipse cx="17" cy="347.401" fill="#84BE84" rx="3" ry="3" style="stroke:#038048;stroke-width:1;"/><text fill="#000000" font-family="sans-serif" font-size="14" lengthAdjust="spacing" textLength="200.0592" x="26" y="351.333">setHangarId(BigDecimal): void</text><ellipse cx="17" cy="366.4689" fill="#84BE84" rx="3" ry="3" style="stroke:#038048;stroke-width:1;"/><text fill="#000000" font-family="sans-serif" font-size="14" lengthAdjust="spacing" textLength="111.4536" x="26" y="370.4009">getIssue(): String</text><ellipse cx="17" cy="385.5369" fill="#84BE84" rx="3" ry="3" style="stroke:#038048;stroke-width:1;"/><text fill="#000000" font-family="sans-serif" font-size="14" lengthAdjust="spacing" textLength="137.3535" x="26" y="389.4688">setIssue(String): void</text><ellipse cx="17" cy="404.6048" fill="#84BE84" rx="3" ry="3" style="stroke:#038048;stroke-width:1;"/><text fill="#000000" font-family="sans-serif" font-size="14" lengthAdjust="spacing" textLength="131.7675" x="26" y="408.5368">getConcern(): String</text><ellipse cx="17" cy="423.6727" fill="#84BE84" rx="3" ry="3" style="stroke:#038048;stroke-width:1;"/><text fill="#000000" font-family="sans-serif" font-size="14" lengthAdjust="spacing" textLength="157.6674" x="26" y="427.6047">setConcern(String): void</text><ellipse cx="17" cy="442.7406" fill="#84BE84" rx="3" ry="3" style="stroke:#038048;stroke-width:1;"/><text fill="#000000" font-family="sans-serif" font-size="14" lengthAdjust="spacing" textLength="506.6301" x="26" y="446.6726">withId(String): ViewRiksdagenCommitteeBallotDecisionPoliticianEmbeddedId</text><ellipse cx="17" cy="461.8085" fill="#84BE84" rx="3" ry="3" style="stroke:#038048;stroke-width:1;"/><text fill="#000000" font-family="sans-serif" font-size="14" lengthAdjust="spacing" textLength="573.7739" x="26" y="465.7405">withIntressentId(String): ViewRiksdagenCommitteeBallotDecisionPoliticianEmbeddedId</text><ellipse cx="17" cy="480.8764" fill="#84BE84" rx="3" ry="3" style="stroke:#038048;stroke-width:1;"/><text fill="#000000" font-family="sans-serif" font-size="14" lengthAdjust="spacing" textLength="590.6859" x="26" y="484.8084">withHangarId(BigDecimal): ViewRiksdagenCommitteeBallotDecisionPoliticianEmbeddedId</text><ellipse cx="17" cy="499.9444" fill="#84BE84" rx="3" ry="3" style="stroke:#038048;stroke-width:1;"/><text fill="#000000" font-family="sans-serif" font-size="14" lengthAdjust="spacing" textLength="527.98" x="26" y="503.8763">withIssue(String): ViewRiksdagenCommitteeBallotDecisionPoliticianEmbeddedId</text><ellipse cx="17" cy="519.0123" fill="#84BE84" rx="3" ry="3" style="stroke:#038048;stroke-width:1;"/><text fill="#000000" font-family="sans-serif" font-size="14" lengthAdjust="spacing" textLength="548.2939" x="26" y="522.9443">withConcern(String): ViewRiksdagenCommitteeBallotDecisionPoliticianEmbeddedId</text></a></g><!--class com.hack23.cia.model.common.api.ModelObject--><g class="entity" data-entity="com.hack23.cia.model.common.api.ModelObject" data-source-line="36" data-uid="ent0003" id="entity_com.hack23.cia.model.common.api.ModelObject"><rect fill="#F1F1F1" height="42.6879" rx="2.5" ry="2.5" style="stroke:#181818;stroke-width:0.5;" width="189.3398" x="220" y="12"/><ellipse cx="235" cy="33.344" fill="#B4A7E5" rx="11" ry="11" style="stroke:#181818;stroke-width:1;"/><path d="M230.9219,29.1096 L230.9219,26.9533 L238.3125,26.9533 L238.3125,29.1096 L235.8438,29.1096 L235.8438,37.1877 L238.3125,37.1877 L238.3125,39.344 L230.9219,39.344 L230.9219,37.1877 L233.3906,37.1877 L233.3906,29.1096 L230.9219,29.1096 Z " fill="#000000"/><text fill="#000000" font-family="sans-serif" font-size="14" font-style="italic" lengthAdjust="spacing" textLength="78.1477" x="288.596" y="31.9659">ModelObject</text><text fill="#000000" font-family="sans-serif" font-size="10" font-style="italic" lengthAdjust="spacing" textLength="157.3398" x="249" y="46.7579">com.hack23.cia.model.common.api</text></g><g class="link" data-entity-1="com.hack23.cia.model.common.api.ModelObject" data-entity-2="com.hack23.cia.model.internal.application.data.committee.impl.ViewRiksdagenCommitteeBallotDecisionPoliticianEmbeddedId" data-uid="lnk4" id="link_com.hack23.cia.model.common.api.ModelObject_com.hack23.cia.model.internal.application.data.committee.impl.ViewRiksdagenCommitteeBallotDecisionPoliticianEmbeddedId"><polygon fill="none" points="314.5,55.2073,308.5,73.2073,320.5,73.2073,314.5,55.2073" style="stroke:#181818;stroke-width:1;"/><path d="M314.5,73.2073 C314.5,82.6552 314.5,76.8571 314.5,90.7954" fill="none" style="stroke:#181818;stroke-width:1;stroke-dasharray:7,7;"/></g><g class="footer" data-source-line="46"><text fill="#888888" font-family="sans-serif" font-size="10" lengthAdjust="spacing" textLength="2.6" x="309.7" y="535.69">&#160;</text><a href="https://github.com/talsma-ict/umldoclet" target="_top" title="https://github.com/talsma-ict/umldoclet" xlink:actuate="onRequest" xlink:href="https://github.com/talsma-ict/umldoclet" xlink:show="new" xlink:title="https://github.com/talsma-ict/umldoclet" xlink:type="simple"><text fill="#888888" font-family="sans-serif" font-size="10" lengthAdjust="spacing" textLength="76.7199" x="272.64" y="549.31">UMLDoclet 2.2.4</text></a></g><!--SRC=[nLPHJnin37xdLtZRmvY0z7fqOrG82GeQJ9qshMKlfGzkOkwovfBR9GVgDlxxahjI3cYr2P3Mbwh-xC-V7Sik0C1hw9byLiWaTU0Ck5HQEFlK1zG24j9Ke2C1CiE4B4n86PtOsf40IvUQ0in5zOkReY2R6osaJk0ZNY9OKnQSB5jRWohLy8Rz2cs3VJ8BnYF35JbOxxrfI8gZzhkjE8hVmH2LpH1EUqCsPxkDYLdCEk2vbUIahQSijQ2YadMG8_TV_HhPX4igh3JQnqHpdb0gDzgXr1PoB9mD9NrHg5tGscO-_rlMZc3zOD2_AoxQhSHjma6XiHJmrVme5_M-o0jCl6I5CrCwi1avr5XZrglMcFb-8QS1-QpeV2krqLJXgHG4bELk1XUIbB3thPuiDTvSsRb2Q-7bdfK_gTlkx7-JTFLLJgtmhwPx9ikaSqI7g9HnHyHbQC0NewIJNA8-pYOa18bJSQxd5D4-DnbBaK_ZRUPzM6O4AIQr8r-eOfZdljNeF0yJw93ncoHCPhbw2VvzdyJ07bi2Z4QF3MMfozHu3B-gdeRFAocwC7257-Y6JJi_vvQqErs2fgWJB09oA9EGBKFLYBMsf8T1VlguRyi3O2CXdsJzpKF0La1jzV2baU9kL4FaglYcosgcatb1WML9IO5fuNABBzKKYbybfi9Mg-ZL7LeHVOEkYB-IBctM-DW1kSUuj7_Fmxsyey-a-swhduVqmGiyYVQwNclLihZm2xAnsZw5DV9vyfsu-zks2Xl5RnVCvUfzTEl36ipphVhl0R3tcx7_jF5giNlMpHJjBrxbmXYVjx7BmkTabbFHbthQCyfVcrVlbwDduNWggSdVQpxLViWXMdXUr-bQZNppNETwD4gTosstrKhyJ9IJK6BBLOTxItBNAZCbwejzxtQFn_DR_67nfo3SrQseizLk3zkTxdQd6tNOpcuKx-p4xtStehWRHQFZiZ0vjGREy6bgL3R-0m00]--></g></svg>