<svg xmlns="http://www.w3.org/2000/svg" xmlns:xlink="http://www.w3.org/1999/xlink" contentStyleType="text/css" height="564px" preserveAspectRatio="none" style="width:902px;height:564px;background:#FFFFFF;" version="1.1" viewBox="0 0 902 564" width="902px" zoomAndPan="magnify"><defs/><g><!--cluster com.hack23.cia.service.impl.action.common--><g id="cluster_com.hack23.cia.service.impl.action.common"><path d="M16.5,4 L326.0448,4 A3.75,3.75 0 0 1 328.5448,6.5 L335.5448,29.0679 L863.5,29.0679 A2.5,2.5 0 0 1 866,31.5679 L866,524.5 A2.5,2.5 0 0 1 863.5,527 L16.5,527 A2.5,2.5 0 0 1 14,524.5 L14,6.5 A2.5,2.5 0 0 1 16.5,4 " fill="none" style="stroke:#000000;stroke-width:1.5;"/><line style="stroke:#000000;stroke-width:1.5;" x1="14" x2="335.5448" y1="29.0679" y2="29.0679"/><text fill="#000000" font-family="sans-serif" font-size="14" font-weight="bold" lengthAdjust="spacing" textLength="308.5448" x="18" y="20.9659">com.hack23.cia.service.impl.action.common</text></g><!--class AbstractCommonBusinessServiceImpl--><a href="AbstractCommonBusinessServiceImpl.html" target="_top" title="AbstractCommonBusinessServiceImpl.html" xlink:actuate="onRequest" xlink:href="AbstractCommonBusinessServiceImpl.html" xlink:show="new" xlink:title="AbstractCommonBusinessServiceImpl.html" xlink:type="simple"><g id="elem_AbstractCommonBusinessServiceImpl"><rect codeLine="12" fill="#F1F1F1" height="124.2717" id="AbstractCommonBusinessServiceImpl" rx="2.5" ry="2.5" style="stroke:#181818;stroke-width:0.5;" width="547.401" x="233.5" y="34"/><ellipse cx="248.5" cy="50" fill="#A9DCDF" rx="11" ry="11" style="stroke:#181818;stroke-width:1.0;"/><path d="M248.6094,45.3438 L247.4531,50.4219 L249.7813,50.4219 L248.6094,45.3438 Z M247.125,43.1094 L250.1094,43.1094 L253.4688,55.5 L251.0156,55.5 L250.25,52.4375 L246.9688,52.4375 L246.2188,55.5 L243.7813,55.5 L247.125,43.1094 Z " fill="#000000"/><text fill="#000000" font-family="sans-serif" font-size="14" font-style="italic" lengthAdjust="spacing" textLength="232.7351" x="262.5" y="55.432">AbstractCommonBusinessServiceImpl</text><rect fill="#FFFFFF" height="18.3441" style="stroke:#181818;stroke-width:1.0;stroke-dasharray:2.0,2.0;" width="280.6658" x="503.2351" y="31"/><text fill="#000000" font-family="sans-serif" font-size="12" font-style="italic" lengthAdjust="spacing" textLength="278.6658" x="504.2351" y="44.8281">T extends ServiceRequest, V extends ServiceResponse</text><line style="stroke:#181818;stroke-width:0.5;" x1="234.5" x2="779.901" y1="66" y2="66"/><line style="stroke:#181818;stroke-width:0.5;" x1="234.5" x2="779.901" y1="74" y2="74"/><ellipse cx="244.5" cy="89.034" fill="#84BE84" rx="3" ry="3" style="stroke:#038048;stroke-width:1.0;"/><text fill="#000000" font-family="sans-serif" font-size="14" lengthAdjust="spacing" textLength="475.7882" x="253.5" y="92.9659">AbstractCommonBusinessServiceImpl(Class&lt;T extends ServiceRequest&gt;)</text><ellipse cx="244.5" cy="108.1019" fill="#84BE84" rx="3" ry="3" style="stroke:#038048;stroke-width:1.0;"/><text fill="#000000" font-family="sans-serif" font-size="14" lengthAdjust="spacing" textLength="368.9686" x="253.5" y="112.0339">getSupportedService(): Class&lt;? extends ServiceRequest&gt;</text><polygon fill="#FFFF44" points="244.5,122.1698,248.5,126.1698,244.5,130.1698,240.5,126.1698" style="stroke:#B38D22;stroke-width:1.0;"/><text fill="#000000" font-family="sans-serif" font-size="14" lengthAdjust="spacing" textLength="343.5447" x="253.5" y="131.1018">getUserAccountFromSecurityContext(): UserAccount</text><polygon fill="#FFFF44" points="244.5,141.2377,248.5,145.2377,244.5,149.2377,240.5,145.2377" style="stroke:#B38D22;stroke-width:1.0;"/><text fill="#000000" font-family="sans-serif" font-size="14" lengthAdjust="spacing" textLength="158.7874" x="253.5" y="150.1697">getUserDAO(): UserDAO</text></g></a><!--class AbstractBusinessServiceImpl--><a href="AbstractBusinessServiceImpl.html" target="_top" title="AbstractBusinessServiceImpl.html" xlink:actuate="onRequest" xlink:href="AbstractBusinessServiceImpl.html" xlink:show="new" xlink:title="AbstractBusinessServiceImpl.html" xlink:type="simple"><g id="elem_AbstractBusinessServiceImpl"><rect codeLine="19" fill="#F1F1F1" height="181.4754" id="AbstractBusinessServiceImpl" rx="2.5" ry="2.5" style="stroke:#181818;stroke-width:0.5;" width="816.1012" x="22" y="195"/><ellipse cx="196.394" cy="211" fill="#A9DCDF" rx="11" ry="11" style="stroke:#181818;stroke-width:1.0;"/><path d="M196.5034,206.3438 L195.3471,211.4219 L197.6753,211.4219 L196.5034,206.3438 Z M195.019,204.1094 L198.0034,204.1094 L201.3628,216.5 L198.9096,216.5 L198.144,213.4375 L194.8628,213.4375 L194.1128,216.5 L191.6753,216.5 L195.019,204.1094 Z " fill="#000000"/><text fill="#000000" font-family="sans-serif" font-size="14" font-style="italic" lengthAdjust="spacing" textLength="176.1473" x="216.894" y="216.432">AbstractBusinessServiceImpl</text><rect fill="#FFFFFF" height="18.3441" style="stroke:#181818;stroke-width:1.0;stroke-dasharray:2.0,2.0;" width="280.6658" x="560.4354" y="192"/><text fill="#000000" font-family="sans-serif" font-size="12" font-style="italic" lengthAdjust="spacing" textLength="278.6658" x="561.4354" y="205.8281">T extends ServiceRequest, V extends ServiceResponse</text><line style="stroke:#181818;stroke-width:0.5;" x1="23" x2="837.1012" y1="227" y2="227"/><polygon fill="none" points="33,237.034,37,241.034,33,245.034,29,241.034" style="stroke:#B38D22;stroke-width:1.0;"/><text fill="#000000" font-family="sans-serif" font-size="14" lengthAdjust="spacing" textLength="124.5995" x="42" y="245.9659">validator: Validator</text><line style="stroke:#181818;stroke-width:0.5;" x1="23" x2="837.1012" y1="254.0679" y2="254.0679"/><ellipse cx="33" cy="269.1019" fill="#84BE84" rx="3" ry="3" style="stroke:#038048;stroke-width:1.0;"/><text fill="#000000" font-family="sans-serif" font-size="14" lengthAdjust="spacing" textLength="415.1684" x="42" y="273.0339">AbstractBusinessServiceImpl(Class&lt;T extends ServiceRequest&gt;)</text><polygon fill="#FFFF44" points="33,283.1698,37,287.1698,33,291.1698,29,287.1698" style="stroke:#B38D22;stroke-width:1.0;"/><text fill="#000000" font-family="sans-serif" font-size="14" lengthAdjust="spacing" textLength="790.1012" x="42" y="292.1018">getCreateApplicationEventService(): BusinessService&lt;CreateApplicationEventRequest, CreateApplicationEventResponse&gt;</text><polygon fill="#FFFF44" points="33,302.2377,37,306.2377,33,310.2377,29,306.2377" style="stroke:#B38D22;stroke-width:1.0;"/><text fill="#000000" font-family="sans-serif" font-size="14" font-style="italic" lengthAdjust="spacing" textLength="307.7468" x="42" y="311.1697">createErrorResponse(): V extends ServiceResponse</text><polygon fill="#FFFF44" points="33,321.3056,37,325.3056,33,329.3056,29,325.3056" style="stroke:#B38D22;stroke-width:1.0;"/><text fill="#000000" font-family="sans-serif" font-size="14" lengthAdjust="spacing" textLength="461.8582" x="42" y="330.2376">inputValidation(T extends ServiceRequest): V extends ServiceResponse</text><polygon fill="#FFFF44" points="33,340.3735,37,344.3735,33,348.3735,29,344.3735" style="stroke:#B38D22;stroke-width:1.0;"/><text fill="#000000" font-family="sans-serif" font-size="14" lengthAdjust="spacing" textLength="459.4223" x="42" y="349.3055">createBaseApplicationEventRequest(): CreateApplicationEventRequest</text><polygon fill="#FFFF44" points="33,359.4415,37,363.4415,33,367.4415,29,363.4415" style="stroke:#B38D22;stroke-width:1.0;"/><text fill="#000000" font-family="sans-serif" font-size="14" font-style="italic" lengthAdjust="spacing" textLength="566.9137" x="42" y="368.3734">createApplicationEventForService(T extends ServiceRequest): CreateApplicationEventRequest</text></g></a><!--class BusinessService--><a href="BusinessService.html" target="_top" title="BusinessService.html" xlink:actuate="onRequest" xlink:href="BusinessService.html" xlink:show="new" xlink:title="BusinessService.html" xlink:type="simple"><g id="elem_BusinessService"><rect codeLine="29" fill="#F1F1F1" height="86.1358" id="BusinessService" rx="2.5" ry="2.5" style="stroke:#181818;stroke-width:0.5;" width="449.3163" x="357.5" y="433"/><ellipse cx="389.6859" cy="449" fill="#B4A7E5" rx="11" ry="11" style="stroke:#181818;stroke-width:1.0;"/><path d="M385.6078,444.7656 L385.6078,442.6094 L392.9984,442.6094 L392.9984,444.7656 L390.5296,444.7656 L390.5296,452.8438 L392.9984,452.8438 L392.9984,455 L385.6078,455 L385.6078,452.8438 L388.0765,452.8438 L388.0765,444.7656 L385.6078,444.7656 Z " fill="#000000"/><text fill="#000000" font-family="sans-serif" font-size="14" font-style="italic" lengthAdjust="spacing" textLength="96.4596" x="407.505" y="454.432">BusinessService</text><rect fill="#FFFFFF" height="18.3441" style="stroke:#181818;stroke-width:1.0;stroke-dasharray:2.0,2.0;" width="280.6658" x="529.1505" y="430"/><text fill="#000000" font-family="sans-serif" font-size="12" font-style="italic" lengthAdjust="spacing" textLength="278.6658" x="530.1505" y="443.8281">T extends ServiceRequest, V extends ServiceResponse</text><line style="stroke:#181818;stroke-width:0.5;" x1="358.5" x2="805.8163" y1="465" y2="465"/><line style="stroke:#181818;stroke-width:0.5;" x1="358.5" x2="805.8163" y1="473" y2="473"/><ellipse cx="368.5" cy="488.034" fill="#84BE84" rx="3" ry="3" style="stroke:#038048;stroke-width:1.0;"/><text fill="#000000" font-family="sans-serif" font-size="14" font-style="italic" lengthAdjust="spacing" textLength="343.6146" x="377.5" y="491.9659">getSupportedService(): Class&lt;? extends ServiceRequest&gt;</text><ellipse cx="368.5" cy="507.1019" fill="#84BE84" rx="3" ry="3" style="stroke:#038048;stroke-width:1.0;"/><text fill="#000000" font-family="sans-serif" font-size="14" font-style="italic" lengthAdjust="spacing" textLength="423.3163" x="377.5" y="511.0339">processService(T extends ServiceRequest): V extends ServiceResponse</text></g></a><polygon fill="none" points="779.6297,432.856,798.358,429.8141,792.7872,419.1855,779.6297,432.856" style="stroke:#181818;stroke-width:1.0;"/><path d="M795.5726,424.4998 C822.0735,410.6098 829.9904,400.5124 847,376 C892.8618,309.9091 895.3685,259.2791 847,195 C835.9653,180.3355 811.5601,167.1778 780.6269,155.6223 " fill="none" style="stroke:#181818;stroke-width:1.0;stroke-dasharray:7.0,7.0;"/><polygon fill="none" points="481.8939,158.1351,469.5058,172.5064,480.6062,177.065,481.8939,158.1351" style="stroke:#181818;stroke-width:1.0;"/><path d="M475.056,174.7857 C470.2284,186.5411 471.9178,182.4275 466.809,194.8676 " fill="none" style="stroke:#181818;stroke-width:1.0;"/><polygon fill="#181818" points="547.8705,432.6749,545.3349,423.158,544.7319,428.7827,539.1073,428.1797,547.8705,432.6749" style="stroke:#181818;stroke-width:1.0;"/><path d="M502.2162,376.0576 C518.1487,395.816 530.5372,411.1794 544.1042,428.0042 " fill="none" style="stroke:#181818;stroke-width:1.0;"/><text fill="#000000" font-family="sans-serif" font-size="13" lengthAdjust="spacing" textLength="184.0022" x="534" y="409.897">createApplicationEventService</text><text fill="#888888" font-family="sans-serif" font-size="10" lengthAdjust="spacing" textLength="2.6" x="427.2" y="539.69">&#160;</text><a href="https://github.com/talsma-ict/umldoclet" target="_top" title="https://github.com/talsma-ict/umldoclet" xlink:actuate="onRequest" xlink:href="https://github.com/talsma-ict/umldoclet" xlink:show="new" xlink:title="https://github.com/talsma-ict/umldoclet" xlink:type="simple"><text fill="#888888" font-family="sans-serif" font-size="10" lengthAdjust="spacing" textLength="76.7199" x="390.14" y="553.31">UMLDoclet 2.2.1</text></a><!--SRC=[jLPDSzem4BtdLso7Gyaa6EDaAFKmwH2IjEdGQIUGN2W78HIZmPPSIQPbqlpthcn33850FkgBFxJxzktRbRm00E-XBUEPui7OW95Wnbp3zRSE4362W0ccY64Zu149c8OX2wK8T6R8W2HcB1N8s_IDIgMOZgKOSH70Lp8be6MYADFEtXwaeNfpzDz45z27C_lnJDAG6IYtzmkKFBTMhtYkTmmz4kg8m6Mxv-He3pwUuparGEoGKoOqGYPYn5HAgnKJYhTEjd88KwOqbm9zt1p7fagbC8GB3J5HHjkKVeH46CkrvjZupWSejxgTPMxknvJR8RIK8Ca8hkIlP97kkrYH01c7P2OJ0pfYXWYIBcdah1c68WRry_tC0ObEK6Ra4ZbZVFQE7Cg9evcQ8dc7Ht7e46gGl8Cc4UPmbpdQYmorKRWAD2HQGoj_RQU6fudcWcdTpQ0k4QdP0_R7C37Ia7-zOfQyEOIRnoksh9gTGB-_5TWPcoWS390R5Aw3hNxbjYM-aTR9_Z9Um4mtYMEfi85oo_A-3nd8fqqWInWbnBX6TLkKoaIO2oMZBgE9ucRMndP028jOi5ZhVTRwFZV3nuN9_TRI_8UYx5oEqfI4V6IxpuUR-UFwWhswL5QejcAuqrjnZ1kKs0u-dp9X2dLRYT9Sxx1GOzDoBibI_Bkv_lTGegdVkL9IpOrjz8tYBYV2HPoON2wCMTuamEw86PzJeZUbclRqKrfiINNLwqAgkUfFiDyjOg75EMuNTKieUrJ85tRq2ipwBYwa-nRdGH4kLf8-X7zTfNETyjlEfxllhuW0pR-Eynp_hMVkSmbj1KIAbSfB4D-Gt3fQbSh9AuJtWJvrVcLrRMep2mj7pwsKk2TMElRBB6QgmyMaBKFyyvSQwrUlxVGI8WKScEZ4CW6tq4vfk6eXNXxhf-ZtnyR4sgzM0sx6oT1cL3Nfv5JXr5IJA1nb8zFAy3GOvCFGvyLKPYURIishU5wlrl2zcd_aEVLwe-uU7zSR1sxDTzt-UQ9apAfT8-baBCDey0y0]--></g></svg>