<svg xmlns="http://www.w3.org/2000/svg" xmlns:xlink="http://www.w3.org/1999/xlink" contentStyleType="text/css" data-diagram-type="CLASS" height="285px" preserveAspectRatio="none" style="width:464px;height:285px;background:#FFFFFF;" version="1.1" viewBox="0 0 464 285" width="464px" zoomAndPan="magnify"><defs/><g><!--class com.hack23.cia.model.internal.application.data.ministry.impl.ViewMinistryRiskEvolution.CompositePrimaryKey--><g class="entity" data-entity="com.hack23.cia.model.internal.application.data.ministry.impl.ViewMinistryRiskEvolution.CompositePrimaryKey" data-source-line="13" data-uid="ent0002" id="entity_com.hack23.cia.model.internal.application.data.ministry.impl.ViewMinistryRiskEvolution.CompositePrimaryKey"><a href="ViewMinistryRiskEvolution.CompositePrimaryKey.html" target="_top" title="ViewMinistryRiskEvolution.CompositePrimaryKey.html" xlink:actuate="onRequest" xlink:href="ViewMinistryRiskEvolution.CompositePrimaryKey.html" xlink:show="new" xlink:title="ViewMinistryRiskEvolution.CompositePrimaryKey.html" xlink:type="simple"><rect fill="#F1F1F1" height="165.0954" rx="2.5" ry="2.5" style="stroke:#181818;stroke-width:0.5;" width="354.0268" x="6" y="91"/><ellipse cx="21" cy="112.344" fill="#ADD1B2" rx="11" ry="11" style="stroke:#181818;stroke-width:1;"/><path d="M23.9688,117.9846 Q23.3906,118.2815 22.75,118.4221 Q22.1094,118.5783 21.4063,118.5783 Q18.9063,118.5783 17.5781,116.9377 Q16.2656,115.2815 16.2656,112.1565 Q16.2656,109.0315 17.5781,107.3752 Q18.9063,105.719 21.4063,105.719 Q22.1094,105.719 22.75,105.8752 Q23.4063,106.0315 23.9688,106.3283 L23.9688,109.0471 Q23.3438,108.469 22.75,108.2033 Q22.1563,107.9221 21.5313,107.9221 Q20.1875,107.9221 19.5,109.0002 Q18.8125,110.0627 18.8125,112.1565 Q18.8125,114.2502 19.5,115.3283 Q20.1875,116.3908 21.5313,116.3908 Q22.1563,116.3908 22.75,116.1252 Q23.3438,115.844 23.9688,115.2658 L23.9688,117.9846 Z " fill="#000000"/><text fill="#000000" font-family="sans-serif" font-size="14" lengthAdjust="spacing" textLength="322.0268" x="35" y="110.9659">ViewMinistryRiskEvolution.CompositePrimaryKey</text><text fill="#000000" font-family="sans-serif" font-size="10" lengthAdjust="spacing" textLength="286.1398" x="52.9435" y="125.7579">com.hack23.cia.model.internal.application.data.ministry.impl</text><line style="stroke:#181818;stroke-width:0.5;" x1="7" x2="359.0268" y1="133.6879" y2="133.6879"/><ellipse cx="17" cy="148.7219" fill="#84BE84" rx="3" ry="3" style="stroke:#038048;stroke-width:1;"/><text fill="#000000" font-family="sans-serif" font-size="14" lengthAdjust="spacing" textLength="154.5874" x="26" y="152.6538">CompositePrimaryKey()</text><ellipse cx="17" cy="167.7898" fill="#84BE84" rx="3" ry="3" style="stroke:#038048;stroke-width:1;"/><text fill="#000000" font-family="sans-serif" font-size="14" lengthAdjust="spacing" textLength="232.3991" x="26" y="171.7218">CompositePrimaryKey(String, Date)</text><ellipse cx="17" cy="186.8577" fill="#84BE84" rx="3" ry="3" style="stroke:#038048;stroke-width:1;"/><text fill="#000000" font-family="sans-serif" font-size="14" lengthAdjust="spacing" textLength="135.8975" x="26" y="190.7897">getOrgCode(): String</text><ellipse cx="17" cy="205.9256" fill="#84BE84" rx="3" ry="3" style="stroke:#038048;stroke-width:1;"/><text fill="#000000" font-family="sans-serif" font-size="14" lengthAdjust="spacing" textLength="161.7974" x="26" y="209.8576">setOrgCode(String): void</text><ellipse cx="17" cy="224.9935" fill="#84BE84" rx="3" ry="3" style="stroke:#038048;stroke-width:1;"/><text fill="#000000" font-family="sans-serif" font-size="14" lengthAdjust="spacing" textLength="189.5733" x="26" y="228.9255">getAssessmentPeriod(): Date</text><ellipse cx="17" cy="244.0614" fill="#84BE84" rx="3" ry="3" style="stroke:#038048;stroke-width:1;"/><text fill="#000000" font-family="sans-serif" font-size="14" lengthAdjust="spacing" textLength="215.4732" x="26" y="247.9934">setAssessmentPeriod(Date): void</text></a></g><!--class java.io.Serializable--><g class="entity" data-entity="java.io.Serializable" data-source-line="22" data-uid="ent0003" id="entity_java.io.Serializable"><rect fill="#F1F1F1" height="42.6879" rx="2.5" ry="2.5" style="stroke:#181818;stroke-width:0.5;" width="103.3017" x="17.5" y="12"/><ellipse cx="32.5" cy="33.344" fill="#B4A7E5" rx="11" ry="11" style="stroke:#181818;stroke-width:1;"/><path d="M28.4219,29.1096 L28.4219,26.9533 L35.8125,26.9533 L35.8125,29.1096 L33.3438,29.1096 L33.3438,37.1877 L35.8125,37.1877 L35.8125,39.344 L28.4219,39.344 L28.4219,37.1877 L30.8906,37.1877 L30.8906,29.1096 L28.4219,29.1096 Z " fill="#000000"/><text fill="#000000" font-family="sans-serif" font-size="14" font-style="italic" lengthAdjust="spacing" textLength="71.3017" x="46.5" y="31.9659">Serializable</text><text fill="#000000" font-family="sans-serif" font-size="10" font-style="italic" lengthAdjust="spacing" textLength="29.38" x="67.4609" y="46.7579">java.io</text></g><!--class com.hack23.cia.model.internal.application.data.ministry.impl.ViewMinistryRiskEvolution--><g class="entity" data-entity="com.hack23.cia.model.internal.application.data.ministry.impl.ViewMinistryRiskEvolution" data-source-line="23" data-uid="ent0004" id="entity_com.hack23.cia.model.internal.application.data.ministry.impl.ViewMinistryRiskEvolution"><a href="ViewMinistryRiskEvolution.html" target="_top" title="ViewMinistryRiskEvolution.html" xlink:actuate="onRequest" xlink:href="ViewMinistryRiskEvolution.html" xlink:show="new" xlink:title="ViewMinistryRiskEvolution.html" xlink:type="simple"><rect fill="#F1F1F1" height="42.6879" rx="2.5" ry="2.5" style="stroke:#181818;stroke-width:0.5;" width="318.1398" x="139" y="12"/><ellipse cx="154" cy="33.344" fill="#ADD1B2" rx="11" ry="11" style="stroke:#181818;stroke-width:1;"/><path d="M156.9688,38.9846 Q156.3906,39.2815 155.75,39.4221 Q155.1094,39.5783 154.4063,39.5783 Q151.9063,39.5783 150.5781,37.9377 Q149.2656,36.2815 149.2656,33.1565 Q149.2656,30.0315 150.5781,28.3752 Q151.9063,26.719 154.4063,26.719 Q155.1094,26.719 155.75,26.8752 Q156.4063,27.0315 156.9688,27.3283 L156.9688,30.0471 Q156.3438,29.469 155.75,29.2033 Q155.1563,28.9221 154.5313,28.9221 Q153.1875,28.9221 152.5,30.0002 Q151.8125,31.0627 151.8125,33.1565 Q151.8125,35.2502 152.5,36.3283 Q153.1875,37.3908 154.5313,37.3908 Q155.1563,37.3908 155.75,37.1252 Q156.3438,36.844 156.9688,36.2658 L156.9688,38.9846 Z " fill="#000000"/><text fill="#000000" font-family="sans-serif" font-size="14" lengthAdjust="spacing" textLength="172.0873" x="225.0262" y="31.9659">ViewMinistryRiskEvolution</text><text fill="#000000" font-family="sans-serif" font-size="10" lengthAdjust="spacing" textLength="286.1398" x="168" y="46.7579">com.hack23.cia.model.internal.application.data.ministry.impl</text></a></g><g class="link" data-entity-1="java.io.Serializable" data-entity-2="com.hack23.cia.model.internal.application.data.ministry.impl.ViewMinistryRiskEvolution.CompositePrimaryKey" data-uid="lnk5" id="link_java.io.Serializable_com.hack23.cia.model.internal.application.data.ministry.impl.ViewMinistryRiskEvolution.CompositePrimaryKey"><polygon fill="none" points="86.067,55.16,92.905,72.8586,102.1566,65.216,86.067,55.16" style="stroke:#181818;stroke-width:1;"/><path d="M97.5308,69.0373 C105.7298,78.9624 104.6802,77.6918 115.6225,90.9378" fill="none" style="stroke:#181818;stroke-width:1;stroke-dasharray:7,7;"/></g><g class="link" data-entity-1="com.hack23.cia.model.internal.application.data.ministry.impl.ViewMinistryRiskEvolution" data-entity-2="com.hack23.cia.model.internal.application.data.ministry.impl.ViewMinistryRiskEvolution.CompositePrimaryKey" data-uid="lnk6" id="link_com.hack23.cia.model.internal.application.data.ministry.impl.ViewMinistryRiskEvolution_com.hack23.cia.model.internal.application.data.ministry.impl.ViewMinistryRiskEvolution.CompositePrimaryKey"><ellipse cx="275.6619" cy="61.3058" fill="#FFFFFF" rx="8" ry="8" style="stroke:#181818;stroke-width:1;"/><line style="stroke:#181818;stroke-width:1;" x1="270.5404" x2="280.7833" y1="67.4515" y2="55.16"/><line style="stroke:#181818;stroke-width:1;" x1="269.5161" x2="281.8076" y1="56.1843" y2="66.4272"/><path d="M270.5404,67.4515 C262.2695,77.3766 262.0068,77.6918 250.9685,90.9378" fill="none" style="stroke:#181818;stroke-width:1;"/></g><g class="footer" data-source-line="34"><text fill="#888888" font-family="sans-serif" font-size="10" lengthAdjust="spacing" textLength="2.6" x="226.7" y="260.69">&#160;</text><a href="https://github.com/talsma-ict/umldoclet" target="_top" title="https://github.com/talsma-ict/umldoclet" xlink:actuate="onRequest" xlink:href="https://github.com/talsma-ict/umldoclet" xlink:show="new" xlink:title="https://github.com/talsma-ict/umldoclet" xlink:type="simple"><text fill="#888888" font-family="sans-serif" font-size="10" lengthAdjust="spacing" textLength="76.7199" x="189.64" y="274.31">UMLDoclet 2.2.4</text></a></g><!--SRC=[pLNVJzim47xdhxYnXxM2kadeeAiGKbNGVXKDqRANmeERN1ElZftPJb7O-DztIReI6492qz3oaiHtzztTvyy-080tCD9POKISE70QN28iN9oEWQi8ObHekCC8HCfZj317gLLiQqS4dhj46z2BwY_Kng3Dj8g4Yk4JNt6mEZSXMhQr1LMgwM_qQsuRwFEYN3pMeKG7hL6xKLBW-VkTm0lsOSgbJJby74tP6kqk9c01wm5XIn6YiWIPgmXDLTOmuo6znhLb5rPehD2AOhmrJjbgg9NZGbd8k76sREbCSkNAMdr6-TyotuFMS3A-NvpthYfk5uP6yJo2S_qzt_JxAZCyff8bBtJkmARekEArpLBLYgV45mznWfILEw9IQOMLFH4H0gQPAs0XK4RsuIg19PgMg_LGScjX-z2A6npulQEl0gzFXHBMcU9SsEN9IilSKTTifDDCM-7mpD2Uck8p5fTg7USTXJfb2G-NmHuB1MUfZb0oeHnITvBnB2D-UOKJSKVsTGecqank0-tftm2mPrKDizcp_5dYKdbr1Jygmifdvn6lLljfyyGP4lSk79Dk6wunkYyc7b6thVO0QgSxgxsprYRoMMaHtOiVMekM9ABS6HgXenAep78FvW-dgeu6scsjXuhn1IcheOa9HN0fRlXSOcFBlz4vPK9NkxV-PatNv-dh_zVIaxgfDL9p-1WPSFYJiHSKUKt-l-5XfzDvoKwgLWwjAoGURJIzq9foDSva-NmeCZHZePOZBUbAVDr_t7fHtl1IAAIX4YuLdGlmDfwtTRfk8zywrwMQpHBdCZleTcFXadpEY8MkgwPBHuIkcwSogiVAWm53ogW7nllDv2el_uxNw_Z-rEyDzde3Ru_r-mV-GT_p3dQyOE1vivFSw0ox4wV3PQ9bUlKB]--></g></svg>