<svg xmlns="http://www.w3.org/2000/svg" xmlns:xlink="http://www.w3.org/1999/xlink" contentStyleType="text/css" data-diagram-type="CLASS" height="1246px" preserveAspectRatio="none" style="width:624px;height:1246px;background:#FFFFFF;" version="1.1" viewBox="0 0 624 1246" width="624px" zoomAndPan="magnify"><defs/><g><!--class com.hack23.cia.model.internal.application.data.ministry.impl.ViewMinistryDecisionImpact--><g class="entity" data-entity="com.hack23.cia.model.internal.application.data.ministry.impl.ViewMinistryDecisionImpact" data-source-line="13" data-uid="ent0002" id="entity_com.hack23.cia.model.internal.application.data.ministry.impl.ViewMinistryDecisionImpact"><a href="ViewMinistryDecisionImpact.html" target="_top" title="ViewMinistryDecisionImpact.html" xlink:actuate="onRequest" xlink:href="ViewMinistryDecisionImpact.html" xlink:show="new" xlink:title="ViewMinistryDecisionImpact.html" xlink:type="simple"><rect fill="#F1F1F1" height="1126.4912" rx="2.5" ry="2.5" style="stroke:#181818;stroke-width:0.5;" width="611.2958" x="6" y="91"/><ellipse cx="164.328" cy="112.344" fill="#ADD1B2" rx="11" ry="11" style="stroke:#181818;stroke-width:1;"/><path d="M167.2968,117.9846 Q166.7186,118.2815 166.078,118.4221 Q165.4374,118.5783 164.7343,118.5783 Q162.2343,118.5783 160.9061,116.9377 Q159.5936,115.2815 159.5936,112.1565 Q159.5936,109.0315 160.9061,107.3752 Q162.2343,105.719 164.7343,105.719 Q165.4374,105.719 166.078,105.8752 Q166.7343,106.0315 167.2968,106.3283 L167.2968,109.0471 Q166.6718,108.469 166.078,108.2033 Q165.4843,107.9221 164.8593,107.9221 Q163.5155,107.9221 162.828,109.0002 Q162.1405,110.0627 162.1405,112.1565 Q162.1405,114.2502 162.828,115.3283 Q163.5155,116.3908 164.8593,116.3908 Q165.4843,116.3908 166.078,116.1252 Q166.6718,115.844 167.2968,115.2658 L167.2968,117.9846 Z " fill="#000000"/><text fill="#000000" font-family="sans-serif" font-size="14" lengthAdjust="spacing" textLength="186.1293" x="234.8333" y="110.9659">ViewMinistryDecisionImpact</text><text fill="#000000" font-family="sans-serif" font-size="10" lengthAdjust="spacing" textLength="286.1398" x="184.828" y="125.7579">com.hack23.cia.model.internal.application.data.ministry.impl</text><line style="stroke:#181818;stroke-width:0.5;" x1="7" x2="616.2958" y1="133.6879" y2="133.6879"/><polygon fill="none" points="17,143.7219,21,147.7219,17,151.7219,13,147.7219" style="stroke:#B38D22;stroke-width:1;"/><text fill="#000000" font-family="sans-serif" font-size="14" lengthAdjust="spacing" textLength="362.5566" x="26" y="152.6538">embeddedId: ViewMinistryDecisionImpactEmbeddedId</text><polygon fill="none" points="17,162.7898,21,166.7898,17,170.7898,13,166.7898" style="stroke:#B38D22;stroke-width:1;"/><text fill="#000000" font-family="sans-serif" font-size="14" lengthAdjust="spacing" textLength="139.7615" x="26" y="171.7218">decisionYear: Integer</text><polygon fill="none" points="17,181.8577,21,185.8577,17,189.8577,13,185.8577" style="stroke:#B38D22;stroke-width:1;"/><text fill="#000000" font-family="sans-serif" font-size="14" lengthAdjust="spacing" textLength="138.0395" x="26" y="190.7897">quarterNum: Integer</text><polygon fill="none" points="17,200.9256,21,204.9256,17,208.9256,13,204.9256" style="stroke:#B38D22;stroke-width:1;"/><text fill="#000000" font-family="sans-serif" font-size="14" lengthAdjust="spacing" textLength="131.4595" x="26" y="209.8576">totalProposals: long</text><polygon fill="none" points="17,219.9935,21,223.9935,17,227.9935,13,223.9935" style="stroke:#B38D22;stroke-width:1;"/><text fill="#000000" font-family="sans-serif" font-size="14" lengthAdjust="spacing" textLength="164.3594" x="26" y="228.9255">approvedProposals: long</text><polygon fill="none" points="17,239.0614,21,243.0614,17,247.0614,13,243.0614" style="stroke:#B38D22;stroke-width:1;"/><text fill="#000000" font-family="sans-serif" font-size="14" lengthAdjust="spacing" textLength="154.8814" x="26" y="247.9934">rejectedProposals: long</text><polygon fill="none" points="17,258.1294,21,262.1294,17,266.1294,13,262.1294" style="stroke:#B38D22;stroke-width:1;"/><text fill="#000000" font-family="sans-serif" font-size="14" lengthAdjust="spacing" textLength="187.0253" x="26" y="267.0613">referredBackProposals: long</text><polygon fill="none" points="17,277.1973,21,281.1973,17,285.1973,13,281.1973" style="stroke:#B38D22;stroke-width:1;"/><text fill="#000000" font-family="sans-serif" font-size="14" lengthAdjust="spacing" textLength="224.6432" x="26" y="286.1293">committeeReferralProposals: long</text><polygon fill="none" points="17,296.2652,21,300.2652,17,304.2652,13,300.2652" style="stroke:#B38D22;stroke-width:1;"/><text fill="#000000" font-family="sans-serif" font-size="14" lengthAdjust="spacing" textLength="135.1835" x="26" y="305.1972">otherDecisions: long</text><polygon fill="none" points="17,315.3331,21,319.3331,17,323.3331,13,319.3331" style="stroke:#B38D22;stroke-width:1;"/><text fill="#000000" font-family="sans-serif" font-size="14" lengthAdjust="spacing" textLength="169.1333" x="26" y="324.2651">approvalRate: BigDecimal</text><polygon fill="none" points="17,334.401,21,338.401,17,342.401,13,338.401" style="stroke:#B38D22;stroke-width:1;"/><text fill="#000000" font-family="sans-serif" font-size="14" lengthAdjust="spacing" textLength="168.9233" x="26" y="343.333">rejectionRate: BigDecimal</text><polygon fill="none" points="17,353.4689,21,357.4689,17,361.4689,13,357.4689" style="stroke:#B38D22;stroke-width:1;"/><text fill="#000000" font-family="sans-serif" font-size="14" lengthAdjust="spacing" textLength="234.4571" x="26" y="362.4009">committeeReferralRate: BigDecimal</text><polygon fill="none" points="17,372.5369,21,376.5369,17,380.5369,13,376.5369" style="stroke:#B38D22;stroke-width:1;"/><text fill="#000000" font-family="sans-serif" font-size="14" lengthAdjust="spacing" textLength="175.8253" x="26" y="381.4688">earliestProposalDate: Date</text><polygon fill="none" points="17,391.6048,21,395.6048,17,399.6048,13,395.6048" style="stroke:#B38D22;stroke-width:1;"/><text fill="#000000" font-family="sans-serif" font-size="14" lengthAdjust="spacing" textLength="163.5894" x="26" y="400.5368">latestProposalDate: Date</text><line style="stroke:#181818;stroke-width:0.5;" x1="7" x2="616.2958" y1="408.6387" y2="408.6387"/><ellipse cx="17" cy="423.6727" fill="#84BE84" rx="3" ry="3" style="stroke:#038048;stroke-width:1;"/><text fill="#000000" font-family="sans-serif" font-size="14" lengthAdjust="spacing" textLength="392.4045" x="26" y="427.6047">getEmbeddedId(): ViewMinistryDecisionImpactEmbeddedId</text><ellipse cx="17" cy="442.7406" fill="#84BE84" rx="3" ry="3" style="stroke:#038048;stroke-width:1;"/><text fill="#000000" font-family="sans-serif" font-size="14" lengthAdjust="spacing" textLength="418.3044" x="26" y="446.6726">setEmbeddedId(ViewMinistryDecisionImpactEmbeddedId): void</text><ellipse cx="17" cy="461.8085" fill="#84BE84" rx="3" ry="3" style="stroke:#038048;stroke-width:1;"/><text fill="#000000" font-family="sans-serif" font-size="14" lengthAdjust="spacing" textLength="171.3313" x="26" y="465.7405">getDecisionYear(): Integer</text><ellipse cx="17" cy="480.8764" fill="#84BE84" rx="3" ry="3" style="stroke:#038048;stroke-width:1;"/><text fill="#000000" font-family="sans-serif" font-size="14" lengthAdjust="spacing" textLength="197.2312" x="26" y="484.8084">setDecisionYear(Integer): void</text><ellipse cx="17" cy="499.9444" fill="#84BE84" rx="3" ry="3" style="stroke:#038048;stroke-width:1;"/><text fill="#000000" font-family="sans-serif" font-size="14" lengthAdjust="spacing" textLength="170.3233" x="26" y="503.8763">getQuarterNum(): Integer</text><ellipse cx="17" cy="519.0123" fill="#84BE84" rx="3" ry="3" style="stroke:#038048;stroke-width:1;"/><text fill="#000000" font-family="sans-serif" font-size="14" lengthAdjust="spacing" textLength="196.2233" x="26" y="522.9443">setQuarterNum(Integer): void</text><ellipse cx="17" cy="538.0802" fill="#84BE84" rx="3" ry="3" style="stroke:#038048;stroke-width:1;"/><text fill="#000000" font-family="sans-serif" font-size="14" lengthAdjust="spacing" textLength="164.1494" x="26" y="542.0122">getTotalProposals(): long</text><ellipse cx="17" cy="557.1481" fill="#84BE84" rx="3" ry="3" style="stroke:#038048;stroke-width:1;"/><text fill="#000000" font-family="sans-serif" font-size="14" lengthAdjust="spacing" textLength="190.0493" x="26" y="561.0801">setTotalProposals(long): void</text><ellipse cx="17" cy="576.216" fill="#84BE84" rx="3" ry="3" style="stroke:#038048;stroke-width:1;"/><text fill="#000000" font-family="sans-serif" font-size="14" lengthAdjust="spacing" textLength="195.4113" x="26" y="580.148">getApprovedProposals(): long</text><ellipse cx="17" cy="595.284" fill="#84BE84" rx="3" ry="3" style="stroke:#038048;stroke-width:1;"/><text fill="#000000" font-family="sans-serif" font-size="14" lengthAdjust="spacing" textLength="221.3112" x="26" y="599.2159">setApprovedProposals(long): void</text><ellipse cx="17" cy="614.3519" fill="#84BE84" rx="3" ry="3" style="stroke:#038048;stroke-width:1;"/><text fill="#000000" font-family="sans-serif" font-size="14" lengthAdjust="spacing" textLength="187.7673" x="26" y="618.2838">getRejectedProposals(): long</text><ellipse cx="17" cy="633.4198" fill="#84BE84" rx="3" ry="3" style="stroke:#038048;stroke-width:1;"/><text fill="#000000" font-family="sans-serif" font-size="14" lengthAdjust="spacing" textLength="213.6672" x="26" y="637.3518">setRejectedProposals(long): void</text><ellipse cx="17" cy="652.4877" fill="#84BE84" rx="3" ry="3" style="stroke:#038048;stroke-width:1;"/><text fill="#000000" font-family="sans-serif" font-size="14" lengthAdjust="spacing" textLength="219.9112" x="26" y="656.4197">getReferredBackProposals(): long</text><ellipse cx="17" cy="671.5556" fill="#84BE84" rx="3" ry="3" style="stroke:#038048;stroke-width:1;"/><text fill="#000000" font-family="sans-serif" font-size="14" lengthAdjust="spacing" textLength="245.8111" x="26" y="675.4876">setReferredBackProposals(long): void</text><ellipse cx="17" cy="690.6235" fill="#84BE84" rx="3" ry="3" style="stroke:#038048;stroke-width:1;"/><text fill="#000000" font-family="sans-serif" font-size="14" lengthAdjust="spacing" textLength="256.731" x="26" y="694.5555">getCommitteeReferralProposals(): long</text><ellipse cx="17" cy="709.6915" fill="#84BE84" rx="3" ry="3" style="stroke:#038048;stroke-width:1;"/><text fill="#000000" font-family="sans-serif" font-size="14" lengthAdjust="spacing" textLength="282.631" x="26" y="713.6234">setCommitteeReferralProposals(long): void</text><ellipse cx="17" cy="728.7594" fill="#84BE84" rx="3" ry="3" style="stroke:#038048;stroke-width:1;"/><text fill="#000000" font-family="sans-serif" font-size="14" lengthAdjust="spacing" textLength="167.6073" x="26" y="732.6913">getOtherDecisions(): long</text><ellipse cx="17" cy="747.8273" fill="#84BE84" rx="3" ry="3" style="stroke:#038048;stroke-width:1;"/><text fill="#000000" font-family="sans-serif" font-size="14" lengthAdjust="spacing" textLength="193.5072" x="26" y="751.7593">setOtherDecisions(long): void</text><ellipse cx="17" cy="766.8952" fill="#84BE84" rx="3" ry="3" style="stroke:#038048;stroke-width:1;"/><text fill="#000000" font-family="sans-serif" font-size="14" lengthAdjust="spacing" textLength="200.1852" x="26" y="770.8272">getApprovalRate(): BigDecimal</text><ellipse cx="17" cy="785.9631" fill="#84BE84" rx="3" ry="3" style="stroke:#038048;stroke-width:1;"/><text fill="#000000" font-family="sans-serif" font-size="14" lengthAdjust="spacing" textLength="226.0851" x="26" y="789.8951">setApprovalRate(BigDecimal): void</text><ellipse cx="17" cy="805.031" fill="#84BE84" rx="3" ry="3" style="stroke:#038048;stroke-width:1;"/><text fill="#000000" font-family="sans-serif" font-size="14" lengthAdjust="spacing" textLength="201.8092" x="26" y="808.963">getRejectionRate(): BigDecimal</text><ellipse cx="17" cy="824.099" fill="#84BE84" rx="3" ry="3" style="stroke:#038048;stroke-width:1;"/><text fill="#000000" font-family="sans-serif" font-size="14" lengthAdjust="spacing" textLength="227.7091" x="26" y="828.0309">setRejectionRate(BigDecimal): void</text><ellipse cx="17" cy="843.1669" fill="#84BE84" rx="3" ry="3" style="stroke:#038048;stroke-width:1;"/><text fill="#000000" font-family="sans-serif" font-size="14" lengthAdjust="spacing" textLength="266.545" x="26" y="847.0988">getCommitteeReferralRate(): BigDecimal</text><ellipse cx="17" cy="862.2348" fill="#84BE84" rx="3" ry="3" style="stroke:#038048;stroke-width:1;"/><text fill="#000000" font-family="sans-serif" font-size="14" lengthAdjust="spacing" textLength="292.4449" x="26" y="866.1668">setCommitteeReferralRate(BigDecimal): void</text><ellipse cx="17" cy="881.3027" fill="#84BE84" rx="3" ry="3" style="stroke:#038048;stroke-width:1;"/><text fill="#000000" font-family="sans-serif" font-size="14" lengthAdjust="spacing" textLength="205.6732" x="26" y="885.2347">getEarliestProposalDate(): Date</text><ellipse cx="17" cy="900.3706" fill="#84BE84" rx="3" ry="3" style="stroke:#038048;stroke-width:1;"/><text fill="#000000" font-family="sans-serif" font-size="14" lengthAdjust="spacing" textLength="231.5731" x="26" y="904.3026">setEarliestProposalDate(Date): void</text><ellipse cx="17" cy="919.4385" fill="#84BE84" rx="3" ry="3" style="stroke:#038048;stroke-width:1;"/><text fill="#000000" font-family="sans-serif" font-size="14" lengthAdjust="spacing" textLength="197.2733" x="26" y="923.3705">getLatestProposalDate(): Date</text><ellipse cx="17" cy="938.5065" fill="#84BE84" rx="3" ry="3" style="stroke:#038048;stroke-width:1;"/><text fill="#000000" font-family="sans-serif" font-size="14" lengthAdjust="spacing" textLength="223.1732" x="26" y="942.4384">setLatestProposalDate(Date): void</text><ellipse cx="17" cy="957.5744" fill="#84BE84" rx="3" ry="3" style="stroke:#038048;stroke-width:1;"/><text fill="#000000" font-family="sans-serif" font-size="14" lengthAdjust="spacing" textLength="585.2958" x="26" y="961.5063">withEmbeddedId(ViewMinistryDecisionImpactEmbeddedId): ViewMinistryDecisionImpact</text><ellipse cx="17" cy="976.6423" fill="#84BE84" rx="3" ry="3" style="stroke:#038048;stroke-width:1;"/><text fill="#000000" font-family="sans-serif" font-size="14" lengthAdjust="spacing" textLength="364.2226" x="26" y="980.5743">withDecisionYear(Integer): ViewMinistryDecisionImpact</text><ellipse cx="17" cy="995.7102" fill="#84BE84" rx="3" ry="3" style="stroke:#038048;stroke-width:1;"/><text fill="#000000" font-family="sans-serif" font-size="14" lengthAdjust="spacing" textLength="363.2147" x="26" y="999.6422">withQuarterNum(Integer): ViewMinistryDecisionImpact</text><ellipse cx="17" cy="1014.7781" fill="#84BE84" rx="3" ry="3" style="stroke:#038048;stroke-width:1;"/><text fill="#000000" font-family="sans-serif" font-size="14" lengthAdjust="spacing" textLength="357.0407" x="26" y="1018.7101">withTotalProposals(long): ViewMinistryDecisionImpact</text><ellipse cx="17" cy="1033.846" fill="#84BE84" rx="3" ry="3" style="stroke:#038048;stroke-width:1;"/><text fill="#000000" font-family="sans-serif" font-size="14" lengthAdjust="spacing" textLength="388.3026" x="26" y="1037.778">withApprovedProposals(long): ViewMinistryDecisionImpact</text><ellipse cx="17" cy="1052.914" fill="#84BE84" rx="3" ry="3" style="stroke:#038048;stroke-width:1;"/><text fill="#000000" font-family="sans-serif" font-size="14" lengthAdjust="spacing" textLength="380.6586" x="26" y="1056.8459">withRejectedProposals(long): ViewMinistryDecisionImpact</text><ellipse cx="17" cy="1071.9819" fill="#84BE84" rx="3" ry="3" style="stroke:#038048;stroke-width:1;"/><text fill="#000000" font-family="sans-serif" font-size="14" lengthAdjust="spacing" textLength="412.8026" x="26" y="1075.9138">withReferredBackProposals(long): ViewMinistryDecisionImpact</text><ellipse cx="17" cy="1091.0498" fill="#84BE84" rx="3" ry="3" style="stroke:#038048;stroke-width:1;"/><text fill="#000000" font-family="sans-serif" font-size="14" lengthAdjust="spacing" textLength="449.6224" x="26" y="1094.9818">withCommitteeReferralProposals(long): ViewMinistryDecisionImpact</text><ellipse cx="17" cy="1110.1177" fill="#84BE84" rx="3" ry="3" style="stroke:#038048;stroke-width:1;"/><text fill="#000000" font-family="sans-serif" font-size="14" lengthAdjust="spacing" textLength="360.4987" x="26" y="1114.0497">withOtherDecisions(long): ViewMinistryDecisionImpact</text><ellipse cx="17" cy="1129.1856" fill="#84BE84" rx="3" ry="3" style="stroke:#038048;stroke-width:1;"/><text fill="#000000" font-family="sans-serif" font-size="14" lengthAdjust="spacing" textLength="393.0765" x="26" y="1133.1176">withApprovalRate(BigDecimal): ViewMinistryDecisionImpact</text><ellipse cx="17" cy="1148.2535" fill="#84BE84" rx="3" ry="3" style="stroke:#038048;stroke-width:1;"/><text fill="#000000" font-family="sans-serif" font-size="14" lengthAdjust="spacing" textLength="394.7005" x="26" y="1152.1855">withRejectionRate(BigDecimal): ViewMinistryDecisionImpact</text><ellipse cx="17" cy="1167.3215" fill="#84BE84" rx="3" ry="3" style="stroke:#038048;stroke-width:1;"/><text fill="#000000" font-family="sans-serif" font-size="14" lengthAdjust="spacing" textLength="459.4363" x="26" y="1171.2534">withCommitteeReferralRate(BigDecimal): ViewMinistryDecisionImpact</text><ellipse cx="17" cy="1186.3894" fill="#84BE84" rx="3" ry="3" style="stroke:#038048;stroke-width:1;"/><text fill="#000000" font-family="sans-serif" font-size="14" lengthAdjust="spacing" textLength="398.5646" x="26" y="1190.3214">withEarliestProposalDate(Date): ViewMinistryDecisionImpact</text><ellipse cx="17" cy="1205.4573" fill="#84BE84" rx="3" ry="3" style="stroke:#038048;stroke-width:1;"/><text fill="#000000" font-family="sans-serif" font-size="14" lengthAdjust="spacing" textLength="390.1646" x="26" y="1209.3893">withLatestProposalDate(Date): ViewMinistryDecisionImpact</text></a></g><!--class com.hack23.cia.model.common.api.ModelObject--><g class="entity" data-entity="com.hack23.cia.model.common.api.ModelObject" data-source-line="72" data-uid="ent0003" id="entity_com.hack23.cia.model.common.api.ModelObject"><rect fill="#F1F1F1" height="42.6879" rx="2.5" ry="2.5" style="stroke:#181818;stroke-width:0.5;" width="189.3398" x="217" y="12"/><ellipse cx="232" cy="33.344" fill="#B4A7E5" rx="11" ry="11" style="stroke:#181818;stroke-width:1;"/><path d="M227.9219,29.1096 L227.9219,26.9533 L235.3125,26.9533 L235.3125,29.1096 L232.8438,29.1096 L232.8438,37.1877 L235.3125,37.1877 L235.3125,39.344 L227.9219,39.344 L227.9219,37.1877 L230.3906,37.1877 L230.3906,29.1096 L227.9219,29.1096 Z " fill="#000000"/><text fill="#000000" font-family="sans-serif" font-size="14" font-style="italic" lengthAdjust="spacing" textLength="78.1477" x="285.596" y="31.9659">ModelObject</text><text fill="#000000" font-family="sans-serif" font-size="10" font-style="italic" lengthAdjust="spacing" textLength="157.3398" x="246" y="46.7579">com.hack23.cia.model.common.api</text></g><g class="link" data-entity-1="com.hack23.cia.model.common.api.ModelObject" data-entity-2="com.hack23.cia.model.internal.application.data.ministry.impl.ViewMinistryDecisionImpact" data-uid="lnk4" id="link_com.hack23.cia.model.common.api.ModelObject_com.hack23.cia.model.internal.application.data.ministry.impl.ViewMinistryDecisionImpact"><polygon fill="none" points="311.5,55.0786,305.5,73.0786,317.5,73.0786,311.5,55.0786" style="stroke:#181818;stroke-width:1;"/><path d="M311.5,73.0786 C311.5,82.3013 311.5,76.3547 311.5,90.6841" fill="none" style="stroke:#181818;stroke-width:1;stroke-dasharray:7,7;"/></g><g class="footer" data-source-line="82"><text fill="#888888" font-family="sans-serif" font-size="10" lengthAdjust="spacing" textLength="2.6" x="306.7" y="1221.69">&#160;</text><a href="https://github.com/talsma-ict/umldoclet" target="_top" title="https://github.com/talsma-ict/umldoclet" xlink:actuate="onRequest" xlink:href="https://github.com/talsma-ict/umldoclet" xlink:show="new" xlink:title="https://github.com/talsma-ict/umldoclet" xlink:type="simple"><text fill="#888888" font-family="sans-serif" font-size="10" lengthAdjust="spacing" textLength="76.7199" x="269.64" y="1235.31">UMLDoclet 2.2.4</text></a></g><!--SRC=[jLVVRzis47xlNy6r3qkHHfQLNwiH14YTeClWj5tY3XXSFz3IMU92aIf99V3M_kyxoefjEQIYT9WVP4ZttNV7EzxXZX12VYP3MImKIpD3Z2GcOvfylXeHAXAIWW153II4vJG5JMR0fKZr4WY4bYQJYiXvzHPBfK0NKYHCfEGtUaU9bgMAGGSlNf3ArFY1_Pxg3VRPmduybp47GtQ6hpTSYiB-qLuKHaTaJBdEARaSZeEQRQqJ1L5mG92RinY4HifI9A0gjyuA6kFVQ2bvG-v0QIO5weGrZprgB8MXJ6XIK6MqFT8dJeMnllO3j7yOz4EoStOpQZeNlgsSUqFEbA1bGgxbrt9rtfyAHLDqcTE5B0tHEHWgw5AcqMj1SumNZU46q2er64eX1LJoZ2L082_CWimPy4HlVqMoJEBdwdlCgTRavObcVyEWVt3w1uFxAoQODcfn3Z6p1xxCqPJv8cfGU1hBFCXeV1lj1p6ZGIuJu04J1l0eFA15WS6a1ZM3X1gKrtm1oml-ac02_mj1u7UHJ2P-OP2Pd4-dv9_gtFRt2l8P90aabyc0-1KlLgYrPb8Z_WIg1kGIFKz1hSLVIxmBe3wKkKDefA7yavA5r7Wn1yGMnbgAXrVo3X8lGC5V49jMm1omdf9t660l23EGCsC0hYjqYqCIIq4zHCJZBkNNM8u3yewb5fbJlkqlwleXZvpnGp7Ud84s3-wULqZxN6CulhKYTbFOoEhEwsTcVrStrBleeeaxoPA61-SRTyZwi7rHh9a6fWQuk7vVNJWVqmQYXMVSk9kMgv5kIxG5iN8NqzdsFNQIFKRv-AwthxsJxp7Ap-Ue4W-d2-dZ7NeBoqdU0lTP-DWeI2Vh5gGzHyjoipoEWbidgOQjCVuirSNUGjd4jNCENTsXXTkDRxTnuMWhraIpRMWFq3vShAD7ZSZ9wO0v6U-PoPxVT_om9hEdrNHLT_QNhihkdj9Lszj4kX9ukqPtWfOMqPNawLRGbSbT_iyBfwjidXTFPtN_S31-dAgjPBjo-4lq2ORlop6xcctdEB1lZDfNTkhzEBEXUcgsjWCI3iEqOFxnUOq9DfZhAR-x0Zdv5WJ_ru2-zEP4cmM7qrM4vr8YySPWRd-_BWfG8oPkXvBZUlFg5xVqiztME1E02s9yAm2NcN25_BuqrzkmLzlw8YQJp9X23tgz5FDRpcmuUgRQ5FTOR7fbpfFbYhYrB4wdzVBtVhM5saLkBupsmhVZy70GHeE3Vd0S7UxtZuwFztV3_Y0C9nSbNXxetHWPtsQIvzD_0G00]--></g></svg>