<svg xmlns="http://www.w3.org/2000/svg" xmlns:xlink="http://www.w3.org/1999/xlink" contentStyleType="text/css" data-diagram-type="CLASS" height="484px" preserveAspectRatio="none" style="width:669px;height:484px;background:#FFFFFF;" version="1.1" viewBox="0 0 669 484" width="669px" zoomAndPan="magnify"><defs/><g><!--class com.hack23.cia.model.internal.application.data.ministry.impl.ViewRiksdagenGovermentRoles--><g class="entity" data-entity="com.hack23.cia.model.internal.application.data.ministry.impl.ViewRiksdagenGovermentRoles" data-source-line="13" data-uid="ent0002" id="entity_com.hack23.cia.model.internal.application.data.ministry.impl.ViewRiksdagenGovermentRoles"><a href="ViewRiksdagenGovermentRoles.html" target="_top" title="ViewRiksdagenGovermentRoles.html" xlink:actuate="onRequest" xlink:href="ViewRiksdagenGovermentRoles.html" xlink:show="new" xlink:title="ViewRiksdagenGovermentRoles.html" xlink:type="simple"><rect fill="#F1F1F1" height="363.7746" rx="2.5" ry="2.5" style="stroke:#181818;stroke-width:0.5;" width="656.1796" x="6" y="91"/><ellipse cx="186.7699" cy="112.344" fill="#ADD1B2" rx="11" ry="11" style="stroke:#181818;stroke-width:1;"/><path d="M189.7387,117.9846 Q189.1606,118.2815 188.5199,118.4221 Q187.8793,118.5783 187.1762,118.5783 Q184.6762,118.5783 183.3481,116.9377 Q182.0356,115.2815 182.0356,112.1565 Q182.0356,109.0315 183.3481,107.3752 Q184.6762,105.719 187.1762,105.719 Q187.8793,105.719 188.5199,105.8752 Q189.1762,106.0315 189.7387,106.3283 L189.7387,109.0471 Q189.1137,108.469 188.5199,108.2033 Q187.9262,107.9221 187.3012,107.9221 Q185.9574,107.9221 185.2699,109.0002 Q184.5824,110.0627 184.5824,112.1565 Q184.5824,114.2502 185.2699,115.3283 Q185.9574,116.3908 187.3012,116.3908 Q187.9262,116.3908 188.5199,116.1252 Q189.1137,115.844 189.7387,115.2658 L189.7387,117.9846 Z " fill="#000000"/><text fill="#000000" font-family="sans-serif" font-size="14" lengthAdjust="spacing" textLength="208.5712" x="246.0542" y="110.9659">ViewRiksdagenGovermentRoles</text><text fill="#000000" font-family="sans-serif" font-size="10" lengthAdjust="spacing" textLength="286.1398" x="207.2699" y="125.7579">com.hack23.cia.model.internal.application.data.ministry.impl</text><line style="stroke:#181818;stroke-width:0.5;" x1="7" x2="661.1796" y1="133.6879" y2="133.6879"/><polygon fill="none" points="17,143.7219,21,147.7219,17,151.7219,13,147.7219" style="stroke:#B38D22;stroke-width:1;"/><text fill="#000000" font-family="sans-serif" font-size="14" lengthAdjust="spacing" textLength="384.9985" x="26" y="152.6538">embeddedId: ViewRiksdagenGovermentRolesEmbeddedId</text><polygon fill="none" points="17,162.7898,21,166.7898,17,170.7898,13,166.7898" style="stroke:#B38D22;stroke-width:1;"/><text fill="#000000" font-family="sans-serif" font-size="14" lengthAdjust="spacing" textLength="151.4094" x="26" y="171.7218">totalAssignments: long</text><polygon fill="none" points="17,181.8577,21,185.8577,17,189.8577,13,185.8577" style="stroke:#B38D22;stroke-width:1;"/><text fill="#000000" font-family="sans-serif" font-size="14" lengthAdjust="spacing" textLength="173.3333" x="26" y="190.7897">firstAssignmentDate: Date</text><polygon fill="none" points="17,200.9256,21,204.9256,17,208.9256,13,204.9256" style="stroke:#B38D22;stroke-width:1;"/><text fill="#000000" font-family="sans-serif" font-size="14" lengthAdjust="spacing" textLength="170.5894" x="26" y="209.8576">lastAssignmentDate: Date</text><line style="stroke:#181818;stroke-width:0.5;" x1="7" x2="661.1796" y1="217.9596" y2="217.9596"/><ellipse cx="17" cy="232.9935" fill="#84BE84" rx="3" ry="3" style="stroke:#038048;stroke-width:1;"/><text fill="#000000" font-family="sans-serif" font-size="14" lengthAdjust="spacing" textLength="414.8464" x="26" y="236.9255">getEmbeddedId(): ViewRiksdagenGovermentRolesEmbeddedId</text><ellipse cx="17" cy="252.0614" fill="#84BE84" rx="3" ry="3" style="stroke:#038048;stroke-width:1;"/><text fill="#000000" font-family="sans-serif" font-size="14" lengthAdjust="spacing" textLength="440.7463" x="26" y="255.9934">setEmbeddedId(ViewRiksdagenGovermentRolesEmbeddedId): void</text><ellipse cx="17" cy="271.1294" fill="#84BE84" rx="3" ry="3" style="stroke:#038048;stroke-width:1;"/><text fill="#000000" font-family="sans-serif" font-size="14" lengthAdjust="spacing" textLength="184.0993" x="26" y="275.0613">getTotalAssignments(): long</text><ellipse cx="17" cy="290.1973" fill="#84BE84" rx="3" ry="3" style="stroke:#038048;stroke-width:1;"/><text fill="#000000" font-family="sans-serif" font-size="14" lengthAdjust="spacing" textLength="209.9992" x="26" y="294.1293">setTotalAssignments(long): void</text><ellipse cx="17" cy="309.2652" fill="#84BE84" rx="3" ry="3" style="stroke:#038048;stroke-width:1;"/><text fill="#000000" font-family="sans-serif" font-size="14" lengthAdjust="spacing" textLength="205.7432" x="26" y="313.1972">getFirstAssignmentDate(): Date</text><ellipse cx="17" cy="328.3331" fill="#84BE84" rx="3" ry="3" style="stroke:#038048;stroke-width:1;"/><text fill="#000000" font-family="sans-serif" font-size="14" lengthAdjust="spacing" textLength="231.6431" x="26" y="332.2651">setFirstAssignmentDate(Date): void</text><ellipse cx="17" cy="347.401" fill="#84BE84" rx="3" ry="3" style="stroke:#038048;stroke-width:1;"/><text fill="#000000" font-family="sans-serif" font-size="14" lengthAdjust="spacing" textLength="204.2732" x="26" y="351.333">getLastAssignmentDate(): Date</text><ellipse cx="17" cy="366.4689" fill="#84BE84" rx="3" ry="3" style="stroke:#038048;stroke-width:1;"/><text fill="#000000" font-family="sans-serif" font-size="14" lengthAdjust="spacing" textLength="230.1731" x="26" y="370.4009">setLastAssignmentDate(Date): void</text><ellipse cx="17" cy="385.5369" fill="#84BE84" rx="3" ry="3" style="stroke:#038048;stroke-width:1;"/><text fill="#000000" font-family="sans-serif" font-size="14" lengthAdjust="spacing" textLength="630.1796" x="26" y="389.4688">withEmbeddedId(ViewRiksdagenGovermentRolesEmbeddedId): ViewRiksdagenGovermentRoles</text><ellipse cx="17" cy="404.6048" fill="#84BE84" rx="3" ry="3" style="stroke:#038048;stroke-width:1;"/><text fill="#000000" font-family="sans-serif" font-size="14" lengthAdjust="spacing" textLength="399.4324" x="26" y="408.5368">withTotalAssignments(long): ViewRiksdagenGovermentRoles</text><ellipse cx="17" cy="423.6727" fill="#84BE84" rx="3" ry="3" style="stroke:#038048;stroke-width:1;"/><text fill="#000000" font-family="sans-serif" font-size="14" lengthAdjust="spacing" textLength="421.0764" x="26" y="427.6047">withFirstAssignmentDate(Date): ViewRiksdagenGovermentRoles</text><ellipse cx="17" cy="442.7406" fill="#84BE84" rx="3" ry="3" style="stroke:#038048;stroke-width:1;"/><text fill="#000000" font-family="sans-serif" font-size="14" lengthAdjust="spacing" textLength="419.6064" x="26" y="446.6726">withLastAssignmentDate(Date): ViewRiksdagenGovermentRoles</text></a></g><!--class com.hack23.cia.model.common.api.ModelObject--><g class="entity" data-entity="com.hack23.cia.model.common.api.ModelObject" data-source-line="32" data-uid="ent0003" id="entity_com.hack23.cia.model.common.api.ModelObject"><rect fill="#F1F1F1" height="42.6879" rx="2.5" ry="2.5" style="stroke:#181818;stroke-width:0.5;" width="189.3398" x="239.5" y="12"/><ellipse cx="254.5" cy="33.344" fill="#B4A7E5" rx="11" ry="11" style="stroke:#181818;stroke-width:1;"/><path d="M250.4219,29.1096 L250.4219,26.9533 L257.8125,26.9533 L257.8125,29.1096 L255.3438,29.1096 L255.3438,37.1877 L257.8125,37.1877 L257.8125,39.344 L250.4219,39.344 L250.4219,37.1877 L252.8906,37.1877 L252.8906,29.1096 L250.4219,29.1096 Z " fill="#000000"/><text fill="#000000" font-family="sans-serif" font-size="14" font-style="italic" lengthAdjust="spacing" textLength="78.1477" x="308.096" y="31.9659">ModelObject</text><text fill="#000000" font-family="sans-serif" font-size="10" font-style="italic" lengthAdjust="spacing" textLength="157.3398" x="268.5" y="46.7579">com.hack23.cia.model.common.api</text></g><g class="link" data-entity-1="com.hack23.cia.model.common.api.ModelObject" data-entity-2="com.hack23.cia.model.internal.application.data.ministry.impl.ViewRiksdagenGovermentRoles" data-uid="lnk4" id="link_com.hack23.cia.model.common.api.ModelObject_com.hack23.cia.model.internal.application.data.ministry.impl.ViewRiksdagenGovermentRoles"><polygon fill="none" points="334,55.1611,328,73.1611,340,73.1611,334,55.1611" style="stroke:#181818;stroke-width:1;"/><path d="M334,73.1611 C334,82.641 334,76.8469 334,90.6291" fill="none" style="stroke:#181818;stroke-width:1;stroke-dasharray:7,7;"/></g><g class="footer" data-source-line="42"><text fill="#888888" font-family="sans-serif" font-size="10" lengthAdjust="spacing" textLength="2.6" x="329.2" y="459.69">&#160;</text><a href="https://github.com/talsma-ict/umldoclet" target="_top" title="https://github.com/talsma-ict/umldoclet" xlink:actuate="onRequest" xlink:href="https://github.com/talsma-ict/umldoclet" xlink:show="new" xlink:title="https://github.com/talsma-ict/umldoclet" xlink:type="simple"><text fill="#888888" font-family="sans-serif" font-size="10" lengthAdjust="spacing" textLength="76.7199" x="292.14" y="473.31">UMLDoclet 2.2.4</text></a></g><!--SRC=[jLLDKzim4BtpAxPmA0n4SPm0gOTX9XCefHEc7GYzX1mKQsEhaILNac7IblzUoKdp0I6axTG7Pw9z-_RjixqB0F0MsYeVQvwa5gm2ct83jrSTe991WX8rjSY0PpH10mCKIYPc0aIWXKsL1ZKi_yLAQpIvaepB13xIUmf65Jf6GxQse2pL_St-GCq2-s3i3yzKBD32RdjlGL8Or8ugOH0UGPSAar6uR7V9b6sU4vAGDC1n2nwZD8woa0nrAQkLqzZzT2QH0xX7RRYIBYUOylXMOoKjvT90JhKrlgNFWahhjTQ8gtz8QW7ijcuwo-A2TwMu0sXfIGi6r-fRCUltJQvfuYGBEbQ51PEXfP9EOiQfbZHpVj4ORz1LfTPPAPN4CfvoXe1PRiSmv2YOUNhgo5BbZilpM51ZOFl4yEyOrHgdNpW-NFEHOUwfoGlbMivGscibqDp9AIeuZLL6KXgFmZg9EIMPOYW8bnPTBuBGF7TkKkky8enQ5-UI6wl7X6Uvs0Rt1F-5WApH2BtUcYX9RIRwVVXHjkwl7Sm6o1YoInR1cipp6MoUQfMbecKCJwJ7cGZyApwF3xasTXu_Sozi1Fu-XpZproFs4xJpshjxVofotopbRvJiYjmhpfOqT9_qwfKiTUiBFGDvn2gszy-TyOJBdPlLE7zRnTcX6r6kWAraVE0s_GlZrk2MkL_oQcE2DTvipF6o6QzHF4wcH_d53jqSMfWWL_vR_ZJuYh5zRMAumynzuZJdBm-5EOOiC4-7r-O9SFAJaFysTYPoJemT2poTUJnKoZ4lJ1j_VHZdg3jSZjfAkB6zqrmTlVLRI729Rl758ubkI0SpvEEaN7MXthJMdUprKcjp4rMhYNl2nS3xKRNb1gpms5QBJB39wdko1FlzwLAxc6rNlw0gGQDIgtLhZQZUY88wQORDm_hXyN5pFmYZ8EYT5rhbMBsnAXwbIcJzNm00]--></g></svg>