<svg xmlns="http://www.w3.org/2000/svg" xmlns:xlink="http://www.w3.org/1999/xlink" contentStyleType="text/css" data-diagram-type="CLASS" height="1165px" preserveAspectRatio="none" style="width:410px;height:1165px;background:#FFFFFF;" version="1.1" viewBox="0 0 410 1165" width="410px" zoomAndPan="magnify"><defs/><g><!--class com.hack23.cia.model.internal.application.data.ministry.impl.ViewMinistryEffectivenessTrends--><g class="entity" data-entity="com.hack23.cia.model.internal.application.data.ministry.impl.ViewMinistryEffectivenessTrends" data-source-line="13" data-uid="ent0002" id="entity_com.hack23.cia.model.internal.application.data.ministry.impl.ViewMinistryEffectivenessTrends"><a href="ViewMinistryEffectivenessTrends.html" target="_top" title="ViewMinistryEffectivenessTrends.html" xlink:actuate="onRequest" xlink:href="ViewMinistryEffectivenessTrends.html" xlink:show="new" xlink:title="ViewMinistryEffectivenessTrends.html" xlink:type="simple"><rect fill="#F1F1F1" height="965.9479" rx="2.5" ry="2.5" style="stroke:#181818;stroke-width:0.5;" width="372.8207" x="18" y="91"/><ellipse cx="57.6064" cy="112.344" fill="#ADD1B2" rx="11" ry="11" style="stroke:#181818;stroke-width:1;"/><path d="M60.5752,117.9846 Q59.997,118.2815 59.3564,118.4221 Q58.7158,118.5783 58.0127,118.5783 Q55.5127,118.5783 54.1845,116.9377 Q52.872,115.2815 52.872,112.1565 Q52.872,109.0315 54.1845,107.3752 Q55.5127,105.719 58.0127,105.719 Q58.7158,105.719 59.3564,105.8752 Q60.0127,106.0315 60.5752,106.3283 L60.5752,109.0471 Q59.9502,108.469 59.3564,108.2033 Q58.7627,107.9221 58.1377,107.9221 Q56.7939,107.9221 56.1064,109.0002 Q55.4189,110.0627 55.4189,112.1565 Q55.4189,114.2502 56.1064,115.3283 Q56.7939,116.3908 58.1377,116.3908 Q58.7627,116.3908 59.3564,116.1252 Q59.9502,115.844 60.5752,115.2658 L60.5752,117.9846 Z " fill="#000000"/><text fill="#000000" font-family="sans-serif" font-size="14" lengthAdjust="spacing" textLength="215.2631" x="112.5128" y="110.9659">ViewMinistryEffectivenessTrends</text><text fill="#000000" font-family="sans-serif" font-size="10" lengthAdjust="spacing" textLength="286.1398" x="77.0745" y="125.7579">com.hack23.cia.model.internal.application.data.ministry.impl</text><line style="stroke:#181818;stroke-width:0.5;" x1="19" x2="389.8207" y1="133.6879" y2="133.6879"/><ellipse cx="29" cy="148.7219" fill="#84BE84" rx="3" ry="3" style="stroke:#038048;stroke-width:1;"/><text fill="#000000" font-family="sans-serif" font-size="14" lengthAdjust="spacing" textLength="268.001" x="38" y="152.6538">getEmbeddedId(): CompositePrimaryKey</text><ellipse cx="29" cy="167.7898" fill="#84BE84" rx="3" ry="3" style="stroke:#038048;stroke-width:1;"/><text fill="#000000" font-family="sans-serif" font-size="14" lengthAdjust="spacing" textLength="293.9009" x="38" y="171.7218">setEmbeddedId(CompositePrimaryKey): void</text><ellipse cx="29" cy="186.8577" fill="#84BE84" rx="3" ry="3" style="stroke:#038048;stroke-width:1;"/><text fill="#000000" font-family="sans-serif" font-size="14" lengthAdjust="spacing" textLength="146.2155" x="38" y="190.7897">getShortCode(): String</text><ellipse cx="29" cy="205.9256" fill="#84BE84" rx="3" ry="3" style="stroke:#038048;stroke-width:1;"/><text fill="#000000" font-family="sans-serif" font-size="14" lengthAdjust="spacing" textLength="172.1154" x="38" y="209.8576">setShortCode(String): void</text><ellipse cx="29" cy="224.9935" fill="#84BE84" rx="3" ry="3" style="stroke:#038048;stroke-width:1;"/><text fill="#000000" font-family="sans-serif" font-size="14" lengthAdjust="spacing" textLength="116.2276" x="38" y="228.9255">getName(): String</text><ellipse cx="29" cy="244.0614" fill="#84BE84" rx="3" ry="3" style="stroke:#038048;stroke-width:1;"/><text fill="#000000" font-family="sans-serif" font-size="14" lengthAdjust="spacing" textLength="142.1275" x="38" y="247.9934">setName(String): void</text><ellipse cx="29" cy="263.1294" fill="#84BE84" rx="3" ry="3" style="stroke:#038048;stroke-width:1;"/><text fill="#000000" font-family="sans-serif" font-size="14" lengthAdjust="spacing" textLength="136.2615" x="38" y="267.0613">getPeriodEnd(): Date</text><ellipse cx="29" cy="282.1973" fill="#84BE84" rx="3" ry="3" style="stroke:#038048;stroke-width:1;"/><text fill="#000000" font-family="sans-serif" font-size="14" lengthAdjust="spacing" textLength="162.1614" x="38" y="286.1293">setPeriodEnd(Date): void</text><ellipse cx="29" cy="301.2652" fill="#84BE84" rx="3" ry="3" style="stroke:#038048;stroke-width:1;"/><text fill="#000000" font-family="sans-serif" font-size="14" lengthAdjust="spacing" textLength="115.4436" x="38" y="305.1972">getYear(): Integer</text><ellipse cx="29" cy="320.3331" fill="#84BE84" rx="3" ry="3" style="stroke:#038048;stroke-width:1;"/><text fill="#000000" font-family="sans-serif" font-size="14" lengthAdjust="spacing" textLength="141.3435" x="38" y="324.2651">setYear(Integer): void</text><ellipse cx="29" cy="339.401" fill="#84BE84" rx="3" ry="3" style="stroke:#038048;stroke-width:1;"/><text fill="#000000" font-family="sans-serif" font-size="14" lengthAdjust="spacing" textLength="137.9415" x="38" y="343.333">getQuarter(): Integer</text><ellipse cx="29" cy="358.4689" fill="#84BE84" rx="3" ry="3" style="stroke:#038048;stroke-width:1;"/><text fill="#000000" font-family="sans-serif" font-size="14" lengthAdjust="spacing" textLength="163.8414" x="38" y="362.4009">setQuarter(Integer): void</text><ellipse cx="29" cy="377.5369" fill="#84BE84" rx="3" ry="3" style="stroke:#038048;stroke-width:1;"/><text fill="#000000" font-family="sans-serif" font-size="14" lengthAdjust="spacing" textLength="209.0892" x="38" y="381.4688">getDocumentsProduced(): Long</text><ellipse cx="29" cy="396.6048" fill="#84BE84" rx="3" ry="3" style="stroke:#038048;stroke-width:1;"/><text fill="#000000" font-family="sans-serif" font-size="14" lengthAdjust="spacing" textLength="234.9891" x="38" y="400.5368">setDocumentsProduced(Long): void</text><ellipse cx="29" cy="415.6727" fill="#84BE84" rx="3" ry="3" style="stroke:#038048;stroke-width:1;"/><text fill="#000000" font-family="sans-serif" font-size="14" lengthAdjust="spacing" textLength="153.0334" x="38" y="419.6047">getPropositions(): Long</text><ellipse cx="29" cy="434.7406" fill="#84BE84" rx="3" ry="3" style="stroke:#038048;stroke-width:1;"/><text fill="#000000" font-family="sans-serif" font-size="14" lengthAdjust="spacing" textLength="178.9333" x="38" y="438.6726">setPropositions(Long): void</text><ellipse cx="29" cy="453.8085" fill="#84BE84" rx="3" ry="3" style="stroke:#038048;stroke-width:1;"/><text fill="#000000" font-family="sans-serif" font-size="14" lengthAdjust="spacing" textLength="179.8573" x="38" y="457.7405">getGovernmentBills(): Long</text><ellipse cx="29" cy="472.8764" fill="#84BE84" rx="3" ry="3" style="stroke:#038048;stroke-width:1;"/><text fill="#000000" font-family="sans-serif" font-size="14" lengthAdjust="spacing" textLength="205.7572" x="38" y="476.8084">setGovernmentBills(Long): void</text><ellipse cx="29" cy="491.9444" fill="#84BE84" rx="3" ry="3" style="stroke:#038048;stroke-width:1;"/><text fill="#000000" font-family="sans-serif" font-size="14" lengthAdjust="spacing" textLength="215.1792" x="38" y="495.8763">getLegislativeDocuments(): Long</text><ellipse cx="29" cy="511.0123" fill="#84BE84" rx="3" ry="3" style="stroke:#038048;stroke-width:1;"/><text fill="#000000" font-family="sans-serif" font-size="14" lengthAdjust="spacing" textLength="241.0791" x="38" y="514.9443">setLegislativeDocuments(Long): void</text><ellipse cx="29" cy="530.0802" fill="#84BE84" rx="3" ry="3" style="stroke:#038048;stroke-width:1;"/><text fill="#000000" font-family="sans-serif" font-size="14" lengthAdjust="spacing" textLength="188.0053" x="38" y="534.0122">getActiveMembers(): Integer</text><ellipse cx="29" cy="549.1481" fill="#84BE84" rx="3" ry="3" style="stroke:#038048;stroke-width:1;"/><text fill="#000000" font-family="sans-serif" font-size="14" lengthAdjust="spacing" textLength="213.9052" x="38" y="553.0801">setActiveMembers(Integer): void</text><ellipse cx="29" cy="568.216" fill="#84BE84" rx="3" ry="3" style="stroke:#038048;stroke-width:1;"/><text fill="#000000" font-family="sans-serif" font-size="14" lengthAdjust="spacing" textLength="189.6852" x="38" y="572.148">getDocumentChange(): Long</text><ellipse cx="29" cy="587.284" fill="#84BE84" rx="3" ry="3" style="stroke:#038048;stroke-width:1;"/><text fill="#000000" font-family="sans-serif" font-size="14" lengthAdjust="spacing" textLength="215.5851" x="38" y="591.2159">setDocumentChange(Long): void</text><ellipse cx="29" cy="606.3519" fill="#84BE84" rx="3" ry="3" style="stroke:#038048;stroke-width:1;"/><text fill="#000000" font-family="sans-serif" font-size="14" lengthAdjust="spacing" textLength="192.4713" x="38" y="610.2838">getMemberChange(): Integer</text><ellipse cx="29" cy="625.4198" fill="#84BE84" rx="3" ry="3" style="stroke:#038048;stroke-width:1;"/><text fill="#000000" font-family="sans-serif" font-size="14" lengthAdjust="spacing" textLength="218.3712" x="38" y="629.3518">setMemberChange(Integer): void</text><ellipse cx="29" cy="644.4877" fill="#84BE84" rx="3" ry="3" style="stroke:#038048;stroke-width:1;"/><text fill="#000000" font-family="sans-serif" font-size="14" lengthAdjust="spacing" textLength="190.2312" x="38" y="648.4197">getLegislativeChange(): Long</text><ellipse cx="29" cy="663.5556" fill="#84BE84" rx="3" ry="3" style="stroke:#038048;stroke-width:1;"/><text fill="#000000" font-family="sans-serif" font-size="14" lengthAdjust="spacing" textLength="216.1311" x="38" y="667.4876">setLegislativeChange(Long): void</text><ellipse cx="29" cy="682.6235" fill="#84BE84" rx="3" ry="3" style="stroke:#038048;stroke-width:1;"/><text fill="#000000" font-family="sans-serif" font-size="14" lengthAdjust="spacing" textLength="320.9208" x="38" y="686.5555">getMovingAvg4QuarterDocuments(): BigDecimal</text><ellipse cx="29" cy="701.6915" fill="#84BE84" rx="3" ry="3" style="stroke:#038048;stroke-width:1;"/><text fill="#000000" font-family="sans-serif" font-size="14" lengthAdjust="spacing" textLength="346.8207" x="38" y="705.6234">setMovingAvg4QuarterDocuments(BigDecimal): void</text><ellipse cx="29" cy="720.7594" fill="#84BE84" rx="3" ry="3" style="stroke:#038048;stroke-width:1;"/><text fill="#000000" font-family="sans-serif" font-size="14" lengthAdjust="spacing" textLength="314.7607" x="38" y="724.6913">getMovingAvg4QuarterLegislative(): BigDecimal</text><ellipse cx="29" cy="739.8273" fill="#84BE84" rx="3" ry="3" style="stroke:#038048;stroke-width:1;"/><text fill="#000000" font-family="sans-serif" font-size="14" lengthAdjust="spacing" textLength="340.6607" x="38" y="743.7593">setMovingAvg4QuarterLegislative(BigDecimal): void</text><ellipse cx="29" cy="758.8952" fill="#84BE84" rx="3" ry="3" style="stroke:#038048;stroke-width:1;"/><text fill="#000000" font-family="sans-serif" font-size="14" lengthAdjust="spacing" textLength="308.1388" x="38" y="762.8272">getMovingAvg4QuarterMembers(): BigDecimal</text><ellipse cx="29" cy="777.9631" fill="#84BE84" rx="3" ry="3" style="stroke:#038048;stroke-width:1;"/><text fill="#000000" font-family="sans-serif" font-size="14" lengthAdjust="spacing" textLength="334.0388" x="38" y="781.8951">setMovingAvg4QuarterMembers(BigDecimal): void</text><ellipse cx="29" cy="797.031" fill="#84BE84" rx="3" ry="3" style="stroke:#038048;stroke-width:1;"/><text fill="#000000" font-family="sans-serif" font-size="14" lengthAdjust="spacing" textLength="265.257" x="38" y="800.963">getDocumentsPerMember(): BigDecimal</text><ellipse cx="29" cy="816.099" fill="#84BE84" rx="3" ry="3" style="stroke:#038048;stroke-width:1;"/><text fill="#000000" font-family="sans-serif" font-size="14" lengthAdjust="spacing" textLength="291.1569" x="38" y="820.0309">setDocumentsPerMember(BigDecimal): void</text><ellipse cx="29" cy="835.1669" fill="#84BE84" rx="3" ry="3" style="stroke:#038048;stroke-width:1;"/><text fill="#000000" font-family="sans-serif" font-size="14" lengthAdjust="spacing" textLength="259.097" x="38" y="839.0988">getLegislativePerMember(): BigDecimal</text><ellipse cx="29" cy="854.2348" fill="#84BE84" rx="3" ry="3" style="stroke:#038048;stroke-width:1;"/><text fill="#000000" font-family="sans-serif" font-size="14" lengthAdjust="spacing" textLength="284.9969" x="38" y="858.1668">setLegislativePerMember(BigDecimal): void</text><ellipse cx="29" cy="873.3027" fill="#84BE84" rx="3" ry="3" style="stroke:#038048;stroke-width:1;"/><text fill="#000000" font-family="sans-serif" font-size="14" lengthAdjust="spacing" textLength="188.8873" x="38" y="877.2347">getProductivityLevel(): String</text><ellipse cx="29" cy="892.3706" fill="#84BE84" rx="3" ry="3" style="stroke:#038048;stroke-width:1;"/><text fill="#000000" font-family="sans-serif" font-size="14" lengthAdjust="spacing" textLength="214.7872" x="38" y="896.3026">setProductivityLevel(String): void</text><ellipse cx="29" cy="911.4385" fill="#84BE84" rx="3" ry="3" style="stroke:#038048;stroke-width:1;"/><text fill="#000000" font-family="sans-serif" font-size="14" lengthAdjust="spacing" textLength="187.0533" x="38" y="915.3705">getLegislativeStatus(): String</text><ellipse cx="29" cy="930.5065" fill="#84BE84" rx="3" ry="3" style="stroke:#038048;stroke-width:1;"/><text fill="#000000" font-family="sans-serif" font-size="14" lengthAdjust="spacing" textLength="212.9532" x="38" y="934.4384">setLegislativeStatus(String): void</text><ellipse cx="29" cy="949.5744" fill="#84BE84" rx="3" ry="3" style="stroke:#038048;stroke-width:1;"/><text fill="#000000" font-family="sans-serif" font-size="14" lengthAdjust="spacing" textLength="168.8534" x="38" y="953.5063">getStaffingStatus(): String</text><ellipse cx="29" cy="968.6423" fill="#84BE84" rx="3" ry="3" style="stroke:#038048;stroke-width:1;"/><text fill="#000000" font-family="sans-serif" font-size="14" lengthAdjust="spacing" textLength="194.7533" x="38" y="972.5743">setStaffingStatus(String): void</text><ellipse cx="29" cy="987.7102" fill="#84BE84" rx="3" ry="3" style="stroke:#038048;stroke-width:1;"/><text fill="#000000" font-family="sans-serif" font-size="14" lengthAdjust="spacing" textLength="207.7452" x="38" y="991.6422">getStagnationIndicator(): String</text><ellipse cx="29" cy="1006.7781" fill="#84BE84" rx="3" ry="3" style="stroke:#038048;stroke-width:1;"/><text fill="#000000" font-family="sans-serif" font-size="14" lengthAdjust="spacing" textLength="233.6451" x="38" y="1010.7101">setStagnationIndicator(String): void</text><ellipse cx="29" cy="1025.846" fill="#84BE84" rx="3" ry="3" style="stroke:#038048;stroke-width:1;"/><text fill="#000000" font-family="sans-serif" font-size="14" lengthAdjust="spacing" textLength="240.7711" x="38" y="1029.778">getEffectivenessAssessment(): String</text><ellipse cx="29" cy="1044.914" fill="#84BE84" rx="3" ry="3" style="stroke:#038048;stroke-width:1;"/><text fill="#000000" font-family="sans-serif" font-size="14" lengthAdjust="spacing" textLength="266.671" x="38" y="1048.8459">setEffectivenessAssessment(String): void</text></a></g><!--class java.io.Serializable--><g class="entity" data-entity="java.io.Serializable" data-source-line="64" data-uid="ent0003" id="entity_java.io.Serializable"><rect fill="#F1F1F1" height="42.6879" rx="2.5" ry="2.5" style="stroke:#181818;stroke-width:0.5;" width="103.3017" x="153" y="12"/><ellipse cx="168" cy="33.344" fill="#B4A7E5" rx="11" ry="11" style="stroke:#181818;stroke-width:1;"/><path d="M163.9219,29.1096 L163.9219,26.9533 L171.3125,26.9533 L171.3125,29.1096 L168.8438,29.1096 L168.8438,37.1877 L171.3125,37.1877 L171.3125,39.344 L163.9219,39.344 L163.9219,37.1877 L166.3906,37.1877 L166.3906,29.1096 L163.9219,29.1096 Z " fill="#000000"/><text fill="#000000" font-family="sans-serif" font-size="14" font-style="italic" lengthAdjust="spacing" textLength="71.3017" x="182" y="31.9659">Serializable</text><text fill="#000000" font-family="sans-serif" font-size="10" font-style="italic" lengthAdjust="spacing" textLength="29.38" x="202.9609" y="46.7579">java.io</text></g><!--class com.hack23.cia.model.internal.application.data.ministry.impl.ViewMinistryEffectivenessTrends.CompositePrimaryKey--><g class="entity" data-entity="com.hack23.cia.model.internal.application.data.ministry.impl.ViewMinistryEffectivenessTrends.CompositePrimaryKey" data-source-line="65" data-uid="ent0004" id="entity_com.hack23.cia.model.internal.application.data.ministry.impl.ViewMinistryEffectivenessTrends.CompositePrimaryKey"><a href="ViewMinistryEffectivenessTrends.CompositePrimaryKey.html" target="_top" title="ViewMinistryEffectivenessTrends.CompositePrimaryKey.html" xlink:actuate="onRequest" xlink:href="ViewMinistryEffectivenessTrends.CompositePrimaryKey.html" xlink:show="new" xlink:title="ViewMinistryEffectivenessTrends.CompositePrimaryKey.html" xlink:type="simple"><rect fill="#F1F1F1" height="42.6879" rx="2.5" ry="2.5" style="stroke:#181818;stroke-width:0.5;" width="397.2026" x="6" y="1093"/><ellipse cx="21" cy="1114.344" fill="#ADD1B2" rx="11" ry="11" style="stroke:#181818;stroke-width:1;"/><path d="M23.9688,1119.9846 Q23.3906,1120.2815 22.75,1120.4221 Q22.1094,1120.5783 21.4063,1120.5783 Q18.9063,1120.5783 17.5781,1118.9377 Q16.2656,1117.2815 16.2656,1114.1565 Q16.2656,1111.0315 17.5781,1109.3752 Q18.9063,1107.719 21.4063,1107.719 Q22.1094,1107.719 22.75,1107.8752 Q23.4063,1108.0315 23.9688,1108.3283 L23.9688,1111.0471 Q23.3438,1110.469 22.75,1110.2033 Q22.1563,1109.9221 21.5313,1109.9221 Q20.1875,1109.9221 19.5,1111.0002 Q18.8125,1112.0627 18.8125,1114.1565 Q18.8125,1116.2502 19.5,1117.3283 Q20.1875,1118.3908 21.5313,1118.3908 Q22.1563,1118.3908 22.75,1118.1252 Q23.3438,1117.844 23.9688,1117.2658 L23.9688,1119.9846 Z " fill="#000000"/><text fill="#000000" font-family="sans-serif" font-size="14" lengthAdjust="spacing" textLength="365.2026" x="35" y="1112.9659">ViewMinistryEffectivenessTrends.CompositePrimaryKey</text><text fill="#000000" font-family="sans-serif" font-size="10" lengthAdjust="spacing" textLength="286.1398" x="74.5314" y="1127.7579">com.hack23.cia.model.internal.application.data.ministry.impl</text></a></g><g class="link" data-entity-1="java.io.Serializable" data-entity-2="com.hack23.cia.model.internal.application.data.ministry.impl.ViewMinistryEffectivenessTrends" data-uid="lnk5" id="link_java.io.Serializable_com.hack23.cia.model.internal.application.data.ministry.impl.ViewMinistryEffectivenessTrends"><polygon fill="none" points="204.5,55.2799,198.5,73.2799,210.5,73.2799,204.5,55.2799" style="stroke:#181818;stroke-width:1;"/><path d="M204.5,73.2799 C204.5,82.5577 204.5,76.6463 204.5,90.9369" fill="none" style="stroke:#181818;stroke-width:1;stroke-dasharray:7,7;"/></g><g class="link" data-entity-1="com.hack23.cia.model.internal.application.data.ministry.impl.ViewMinistryEffectivenessTrends" data-entity-2="com.hack23.cia.model.internal.application.data.ministry.impl.ViewMinistryEffectivenessTrends.CompositePrimaryKey" data-uid="lnk6" id="link_com.hack23.cia.model.internal.application.data.ministry.impl.ViewMinistryEffectivenessTrends_com.hack23.cia.model.internal.application.data.ministry.impl.ViewMinistryEffectivenessTrends.CompositePrimaryKey"><ellipse cx="204.5" cy="1065.1422" fill="#FFFFFF" rx="8" ry="8" style="stroke:#181818;stroke-width:1;"/><line style="stroke:#181818;stroke-width:1;" x1="204.5" x2="204.5" y1="1073.1422" y2="1057.1422"/><line style="stroke:#181818;stroke-width:1;" x1="196.5" x2="212.5" y1="1065.1422" y2="1065.1422"/><path d="M204.5,1073.1422 C204.5,1087.4978 204.5,1083.6277 204.5,1092.9136" fill="none" style="stroke:#181818;stroke-width:1;"/></g><g class="footer" data-source-line="76"><text fill="#888888" font-family="sans-serif" font-size="10" lengthAdjust="spacing" textLength="2.6" x="199.7" y="1140.69">&#160;</text><a href="https://github.com/talsma-ict/umldoclet" target="_top" title="https://github.com/talsma-ict/umldoclet" xlink:actuate="onRequest" xlink:href="https://github.com/talsma-ict/umldoclet" xlink:show="new" xlink:title="https://github.com/talsma-ict/umldoclet" xlink:type="simple"><text fill="#888888" font-family="sans-serif" font-size="10" lengthAdjust="spacing" textLength="76.7199" x="162.64" y="1154.31">UMLDoclet 2.2.4</text></a></g><!--SRC=[rLTRRzis57xlh-2wXwL8JSkNTPaH172TeClc3Ddi3XZSF33IiSI58bMISg6k_UyzkiIMR55rDtJ03CCNdUzyvqhf7488-OxCL99f7aQMM4Lin0rvVJCdJ0Oa10cQMGW8Zra8Xjo3K38q9H08IssaD57huf-lj0QJA1bm6PAVsOOHerBjWw5Fdf32rFAH_HqpDVRxBBzugNm1bfpCdjLS6dg35xsXDtn1baoOc97hsP9MR3kT8HtICK5kmNsG1YbJ6O0kt9ecpCUlUIbvJZQW3LSITRoA9m_LLz8oBWr9cBOc3-bMC6bpNmSKxNzF1nuvcIxcJUUy7mlddfEfbYmDoE_gRRgDzvj4in1T5YnJgIKc1iiaAsK6lPOindmn7nQ0Lfd5L4ebeP17F002SM8pikOW0hD_5SaYXPUBwxvWnf2dvuQ_XybWVF47XtStN79ZTNQrNeDl-GQpRSnIWmpC6raXlGjVnJHY_iDmH7tEQAm249HB2nYFe2n9CAFCOhvem2pAArBAuqGy9LZ5VqD0F-CdMQq-Ww2HZSNT7VcxI4F-EWt1NiNt40GGN0SdpoPOhpXHXbkurTZ6Eli5iXtQDD0jK2JOA1uq-1VOzNQ6aURq2wkntnkCEtafREFu5OllK2z4RirRq5m5Lx88xX8FK4Dv9yr5RVf_0jEvwZKMAGJTq2vabQ1DzxSKZmSurH_57GnuOjCOf3MtMWMf3qKKSxMNWaDK3cdDXbP5oR33J2jL0-1YUQNmjY1pYo-v4Er4-nWNrnn2RWJB6tKRHYjXAz35EYqw_mQmMRLnvRy9Eg8AiuZ943fBK45SVfN6TZnjRZKm7LxL4jBXs27AwPlQu1cQRi9nrPYDUhpauINuUCv5qrctqaxZA6irHx_4Nbtj2otMskDOQuygtPPsv_5HeyD62xYRlHRnCVojy6uBvMq4DRZDvh01uRZr7kBSz-6Q6mlBR6eSd8SuDoS2rckKTHBkWJhPGbayVAznAFFp2SDDUO1qypOUn5DZy3EljuFRXJxa_rXECyNqiCQvg3RHBF2nnWH_p-u5rCQNlt3Af5mLaqZrczQX_sGweYrJmFzbOchp_OWfgaMhcgpAYhIbbfn_eFIh1bCMxslEbwUztdzUZZAZvyPc0Yws1sMj55gipR7vwwSimSS1bmyp9N0v-FQiNVewttK4bu3hbV-GMoVU5lcnDDUlsQjilP6hLMHjOYRzViXjbDvJp4NV5djMZ_ksdyOYA1UilLKB-w9SdLvjTxXy3UfvuzvWi1oC9wFnn1lHiz5uXEyVpawzuSJpLbSfpcBGNrZbFqHAn7UV0000]--></g></svg>