<svg xmlns="http://www.w3.org/2000/svg" xmlns:xlink="http://www.w3.org/1999/xlink" contentStyleType="text/css" data-diagram-type="CLASS" height="941px" preserveAspectRatio="none" style="width:514px;height:941px;background:#FFFFFF;" version="1.1" viewBox="0 0 514 941" width="514px" zoomAndPan="magnify"><defs/><g><!--class com.hack23.cia.model.internal.application.data.ministry.impl.ViewRiksdagenGovermentProposals--><g class="entity" data-entity="com.hack23.cia.model.internal.application.data.ministry.impl.ViewRiksdagenGovermentProposals" data-source-line="13" data-uid="ent0002" id="entity_com.hack23.cia.model.internal.application.data.ministry.impl.ViewRiksdagenGovermentProposals"><a href="ViewRiksdagenGovermentProposals.html" target="_top" title="ViewRiksdagenGovermentProposals.html" xlink:actuate="onRequest" xlink:href="ViewRiksdagenGovermentProposals.html" xlink:show="new" xlink:title="ViewRiksdagenGovermentProposals.html" xlink:type="simple"><rect fill="#F1F1F1" height="821.4046" rx="2.5" ry="2.5" style="stroke:#181818;stroke-width:0.5;" width="501.6622" x="6" y="91"/><ellipse cx="109.5112" cy="112.344" fill="#ADD1B2" rx="11" ry="11" style="stroke:#181818;stroke-width:1;"/><path d="M112.4799,117.9846 Q111.9018,118.2815 111.2612,118.4221 Q110.6206,118.5783 109.9174,118.5783 Q107.4174,118.5783 106.0893,116.9377 Q104.7768,115.2815 104.7768,112.1565 Q104.7768,109.0315 106.0893,107.3752 Q107.4174,105.719 109.9174,105.719 Q110.6206,105.719 111.2612,105.8752 Q111.9174,106.0315 112.4799,106.3283 L112.4799,109.0471 Q111.8549,108.469 111.2612,108.2033 Q110.6674,107.9221 110.0424,107.9221 Q108.6987,107.9221 108.0112,109.0002 Q107.3237,110.0627 107.3237,112.1565 Q107.3237,114.2502 108.0112,115.3283 Q108.6987,116.3908 110.0424,116.3908 Q110.6674,116.3908 111.2612,116.1252 Q111.8549,115.844 112.4799,115.2658 L112.4799,117.9846 Z " fill="#000000"/><text fill="#000000" font-family="sans-serif" font-size="14" lengthAdjust="spacing" textLength="237.8591" x="154.1515" y="110.9659">ViewRiksdagenGovermentProposals</text><text fill="#000000" font-family="sans-serif" font-size="10" lengthAdjust="spacing" textLength="286.1398" x="130.0112" y="125.7579">com.hack23.cia.model.internal.application.data.ministry.impl</text><line style="stroke:#181818;stroke-width:0.5;" x1="7" x2="506.6622" y1="133.6879" y2="133.6879"/><polygon fill="none" points="17,143.7219,21,147.7219,17,151.7219,13,147.7219" style="stroke:#B38D22;stroke-width:1;"/><text fill="#000000" font-family="sans-serif" font-size="14" lengthAdjust="spacing" textLength="59.0098" x="26" y="152.6538">id: String</text><polygon fill="none" points="17,162.7898,21,166.7898,17,170.7898,13,166.7898" style="stroke:#B38D22;stroke-width:1;"/><text fill="#000000" font-family="sans-serif" font-size="14" lengthAdjust="spacing" textLength="72.0157" x="26" y="171.7218">title: String</text><polygon fill="none" points="17,181.8577,21,185.8577,17,189.8577,13,185.8577" style="stroke:#B38D22;stroke-width:1;"/><text fill="#000000" font-family="sans-serif" font-size="14" lengthAdjust="spacing" textLength="98.7136" x="26" y="190.7897">subTitle: String</text><polygon fill="none" points="17,200.9256,21,204.9256,17,208.9256,13,204.9256" style="stroke:#B38D22;stroke-width:1;"/><text fill="#000000" font-family="sans-serif" font-size="14" lengthAdjust="spacing" textLength="86.8137" x="26" y="209.8576">status: String</text><polygon fill="none" points="17,219.9935,21,223.9935,17,227.9935,13,223.9935" style="stroke:#B38D22;stroke-width:1;"/><text fill="#000000" font-family="sans-serif" font-size="14" lengthAdjust="spacing" textLength="69.6497" x="26" y="228.9255">org: String</text><polygon fill="none" points="17,239.0614,21,243.0614,17,247.0614,13,243.0614" style="stroke:#B38D22;stroke-width:1;"/><text fill="#000000" font-family="sans-serif" font-size="14" lengthAdjust="spacing" textLength="107.5476" x="26" y="247.9934">hangarId: String</text><polygon fill="none" points="17,258.1294,21,262.1294,17,266.1294,13,262.1294" style="stroke:#B38D22;stroke-width:1;"/><text fill="#000000" font-family="sans-serif" font-size="14" lengthAdjust="spacing" textLength="78.3717" x="26" y="267.0613">label: String</text><polygon fill="none" points="17,277.1973,21,281.1973,17,285.1973,13,281.1973" style="stroke:#B38D22;stroke-width:1;"/><text fill="#000000" font-family="sans-serif" font-size="14" lengthAdjust="spacing" textLength="146.5654" x="26" y="286.1293">madePublicDate: Date</text><polygon fill="none" points="17,296.2652,21,300.2652,17,304.2652,13,300.2652" style="stroke:#B38D22;stroke-width:1;"/><text fill="#000000" font-family="sans-serif" font-size="14" lengthAdjust="spacing" textLength="145.1234" x="26" y="305.1972">numberValue: Integer</text><polygon fill="none" points="17,315.3331,21,319.3331,17,323.3331,13,319.3331" style="stroke:#B38D22;stroke-width:1;"/><text fill="#000000" font-family="sans-serif" font-size="14" lengthAdjust="spacing" textLength="199.4713" x="26" y="324.2651">documentStatusUrlXml: String</text><line style="stroke:#181818;stroke-width:0.5;" x1="7" x2="506.6622" y1="332.3671" y2="332.3671"/><ellipse cx="17" cy="347.401" fill="#84BE84" rx="3" ry="3" style="stroke:#038048;stroke-width:1;"/><text fill="#000000" font-family="sans-serif" font-size="14" lengthAdjust="spacing" textLength="90.1037" x="26" y="351.333">getId(): String</text><ellipse cx="17" cy="366.4689" fill="#84BE84" rx="3" ry="3" style="stroke:#038048;stroke-width:1;"/><text fill="#000000" font-family="sans-serif" font-size="14" lengthAdjust="spacing" textLength="116.0036" x="26" y="370.4009">setId(String): void</text><ellipse cx="17" cy="385.5369" fill="#84BE84" rx="3" ry="3" style="stroke:#038048;stroke-width:1;"/><text fill="#000000" font-family="sans-serif" font-size="14" lengthAdjust="spacing" textLength="104.7056" x="26" y="389.4688">getTitle(): String</text><ellipse cx="17" cy="404.6048" fill="#84BE84" rx="3" ry="3" style="stroke:#038048;stroke-width:1;"/><text fill="#000000" font-family="sans-serif" font-size="14" lengthAdjust="spacing" textLength="130.6055" x="26" y="408.5368">setTitle(String): void</text><ellipse cx="17" cy="423.6727" fill="#84BE84" rx="3" ry="3" style="stroke:#038048;stroke-width:1;"/><text fill="#000000" font-family="sans-serif" font-size="14" lengthAdjust="spacing" textLength="129.6535" x="26" y="427.6047">getSubTitle(): String</text><ellipse cx="17" cy="442.7406" fill="#84BE84" rx="3" ry="3" style="stroke:#038048;stroke-width:1;"/><text fill="#000000" font-family="sans-serif" font-size="14" lengthAdjust="spacing" textLength="155.5534" x="26" y="446.6726">setSubTitle(String): void</text><ellipse cx="17" cy="461.8085" fill="#84BE84" rx="3" ry="3" style="stroke:#038048;stroke-width:1;"/><text fill="#000000" font-family="sans-serif" font-size="14" lengthAdjust="spacing" textLength="117.7536" x="26" y="465.7405">getStatus(): String</text><ellipse cx="17" cy="480.8764" fill="#84BE84" rx="3" ry="3" style="stroke:#038048;stroke-width:1;"/><text fill="#000000" font-family="sans-serif" font-size="14" lengthAdjust="spacing" textLength="143.6535" x="26" y="484.8084">setStatus(String): void</text><ellipse cx="17" cy="499.9444" fill="#84BE84" rx="3" ry="3" style="stroke:#038048;stroke-width:1;"/><text fill="#000000" font-family="sans-serif" font-size="14" lengthAdjust="spacing" textLength="102.0736" x="26" y="503.8763">getOrg(): String</text><ellipse cx="17" cy="519.0123" fill="#84BE84" rx="3" ry="3" style="stroke:#038048;stroke-width:1;"/><text fill="#000000" font-family="sans-serif" font-size="14" lengthAdjust="spacing" textLength="127.9735" x="26" y="522.9443">setOrg(String): void</text><ellipse cx="17" cy="538.0802" fill="#84BE84" rx="3" ry="3" style="stroke:#038048;stroke-width:1;"/><text fill="#000000" font-family="sans-serif" font-size="14" lengthAdjust="spacing" textLength="139.2295" x="26" y="542.0122">getHangarId(): String</text><ellipse cx="17" cy="557.1481" fill="#84BE84" rx="3" ry="3" style="stroke:#038048;stroke-width:1;"/><text fill="#000000" font-family="sans-serif" font-size="14" lengthAdjust="spacing" textLength="165.1294" x="26" y="561.0801">setHangarId(String): void</text><ellipse cx="17" cy="576.216" fill="#84BE84" rx="3" ry="3" style="stroke:#038048;stroke-width:1;"/><text fill="#000000" font-family="sans-serif" font-size="14" lengthAdjust="spacing" textLength="112.0556" x="26" y="580.148">getLabel(): String</text><ellipse cx="17" cy="595.284" fill="#84BE84" rx="3" ry="3" style="stroke:#038048;stroke-width:1;"/><text fill="#000000" font-family="sans-serif" font-size="14" lengthAdjust="spacing" textLength="137.9555" x="26" y="599.2159">setLabel(String): void</text><ellipse cx="17" cy="614.3519" fill="#84BE84" rx="3" ry="3" style="stroke:#038048;stroke-width:1;"/><text fill="#000000" font-family="sans-serif" font-size="14" lengthAdjust="spacing" textLength="176.1333" x="26" y="618.2838">getMadePublicDate(): Date</text><ellipse cx="17" cy="633.4198" fill="#84BE84" rx="3" ry="3" style="stroke:#038048;stroke-width:1;"/><text fill="#000000" font-family="sans-serif" font-size="14" lengthAdjust="spacing" textLength="202.0332" x="26" y="637.3518">setMadePublicDate(Date): void</text><ellipse cx="17" cy="652.4877" fill="#84BE84" rx="3" ry="3" style="stroke:#038048;stroke-width:1;"/><text fill="#000000" font-family="sans-serif" font-size="14" lengthAdjust="spacing" textLength="177.0713" x="26" y="656.4197">getNumberValue(): Integer</text><ellipse cx="17" cy="671.5556" fill="#84BE84" rx="3" ry="3" style="stroke:#038048;stroke-width:1;"/><text fill="#000000" font-family="sans-serif" font-size="14" lengthAdjust="spacing" textLength="202.9712" x="26" y="675.4876">setNumberValue(Integer): void</text><ellipse cx="17" cy="690.6235" fill="#84BE84" rx="3" ry="3" style="stroke:#038048;stroke-width:1;"/><text fill="#000000" font-family="sans-serif" font-size="14" lengthAdjust="spacing" textLength="231.0411" x="26" y="694.5555">getDocumentStatusUrlXml(): String</text><ellipse cx="17" cy="709.6915" fill="#84BE84" rx="3" ry="3" style="stroke:#038048;stroke-width:1;"/><text fill="#000000" font-family="sans-serif" font-size="14" lengthAdjust="spacing" textLength="256.941" x="26" y="713.6234">setDocumentStatusUrlXml(String): void</text><ellipse cx="17" cy="728.7594" fill="#84BE84" rx="3" ry="3" style="stroke:#038048;stroke-width:1;"/><text fill="#000000" font-family="sans-serif" font-size="14" lengthAdjust="spacing" textLength="334.7247" x="26" y="732.6913">withId(String): ViewRiksdagenGovermentProposals</text><ellipse cx="17" cy="747.8273" fill="#84BE84" rx="3" ry="3" style="stroke:#038048;stroke-width:1;"/><text fill="#000000" font-family="sans-serif" font-size="14" lengthAdjust="spacing" textLength="349.3267" x="26" y="751.7593">withTitle(String): ViewRiksdagenGovermentProposals</text><ellipse cx="17" cy="766.8952" fill="#84BE84" rx="3" ry="3" style="stroke:#038048;stroke-width:1;"/><text fill="#000000" font-family="sans-serif" font-size="14" lengthAdjust="spacing" textLength="374.2745" x="26" y="770.8272">withSubTitle(String): ViewRiksdagenGovermentProposals</text><ellipse cx="17" cy="785.9631" fill="#84BE84" rx="3" ry="3" style="stroke:#038048;stroke-width:1;"/><text fill="#000000" font-family="sans-serif" font-size="14" lengthAdjust="spacing" textLength="362.3746" x="26" y="789.8951">withStatus(String): ViewRiksdagenGovermentProposals</text><ellipse cx="17" cy="805.031" fill="#84BE84" rx="3" ry="3" style="stroke:#038048;stroke-width:1;"/><text fill="#000000" font-family="sans-serif" font-size="14" lengthAdjust="spacing" textLength="346.6946" x="26" y="808.963">withOrg(String): ViewRiksdagenGovermentProposals</text><ellipse cx="17" cy="824.099" fill="#84BE84" rx="3" ry="3" style="stroke:#038048;stroke-width:1;"/><text fill="#000000" font-family="sans-serif" font-size="14" lengthAdjust="spacing" textLength="383.8505" x="26" y="828.0309">withHangarId(String): ViewRiksdagenGovermentProposals</text><ellipse cx="17" cy="843.1669" fill="#84BE84" rx="3" ry="3" style="stroke:#038048;stroke-width:1;"/><text fill="#000000" font-family="sans-serif" font-size="14" lengthAdjust="spacing" textLength="356.6766" x="26" y="847.0988">withLabel(String): ViewRiksdagenGovermentProposals</text><ellipse cx="17" cy="862.2348" fill="#84BE84" rx="3" ry="3" style="stroke:#038048;stroke-width:1;"/><text fill="#000000" font-family="sans-serif" font-size="14" lengthAdjust="spacing" textLength="420.7543" x="26" y="866.1668">withMadePublicDate(Date): ViewRiksdagenGovermentProposals</text><ellipse cx="17" cy="881.3027" fill="#84BE84" rx="3" ry="3" style="stroke:#038048;stroke-width:1;"/><text fill="#000000" font-family="sans-serif" font-size="14" lengthAdjust="spacing" textLength="421.6923" x="26" y="885.2347">withNumberValue(Integer): ViewRiksdagenGovermentProposals</text><ellipse cx="17" cy="900.3706" fill="#84BE84" rx="3" ry="3" style="stroke:#038048;stroke-width:1;"/><text fill="#000000" font-family="sans-serif" font-size="14" lengthAdjust="spacing" textLength="475.6622" x="26" y="904.3026">withDocumentStatusUrlXml(String): ViewRiksdagenGovermentProposals</text></a></g><!--class com.hack23.cia.model.common.api.ModelObject--><g class="entity" data-entity="com.hack23.cia.model.common.api.ModelObject" data-source-line="56" data-uid="ent0003" id="entity_com.hack23.cia.model.common.api.ModelObject"><rect fill="#F1F1F1" height="42.6879" rx="2.5" ry="2.5" style="stroke:#181818;stroke-width:0.5;" width="189.3398" x="162.5" y="12"/><ellipse cx="177.5" cy="33.344" fill="#B4A7E5" rx="11" ry="11" style="stroke:#181818;stroke-width:1;"/><path d="M173.4219,29.1096 L173.4219,26.9533 L180.8125,26.9533 L180.8125,29.1096 L178.3438,29.1096 L178.3438,37.1877 L180.8125,37.1877 L180.8125,39.344 L173.4219,39.344 L173.4219,37.1877 L175.8906,37.1877 L175.8906,29.1096 L173.4219,29.1096 Z " fill="#000000"/><text fill="#000000" font-family="sans-serif" font-size="14" font-style="italic" lengthAdjust="spacing" textLength="78.1477" x="231.096" y="31.9659">ModelObject</text><text fill="#000000" font-family="sans-serif" font-size="10" font-style="italic" lengthAdjust="spacing" textLength="157.3398" x="191.5" y="46.7579">com.hack23.cia.model.common.api</text></g><g class="link" data-entity-1="com.hack23.cia.model.common.api.ModelObject" data-entity-2="com.hack23.cia.model.internal.application.data.ministry.impl.ViewRiksdagenGovermentProposals" data-uid="lnk4" id="link_com.hack23.cia.model.common.api.ModelObject_com.hack23.cia.model.internal.application.data.ministry.impl.ViewRiksdagenGovermentProposals"><polygon fill="none" points="257,55.1247,251,73.1247,263,73.1247,257,55.1247" style="stroke:#181818;stroke-width:1;"/><path d="M257,73.1247 C257,82.4603 257,76.6355 257,90.9624" fill="none" style="stroke:#181818;stroke-width:1;stroke-dasharray:7,7;"/></g><g class="footer" data-source-line="66"><text fill="#888888" font-family="sans-serif" font-size="10" lengthAdjust="spacing" textLength="2.6" x="252.2" y="916.69">&#160;</text><a href="https://github.com/talsma-ict/umldoclet" target="_top" title="https://github.com/talsma-ict/umldoclet" xlink:actuate="onRequest" xlink:href="https://github.com/talsma-ict/umldoclet" xlink:show="new" xlink:title="https://github.com/talsma-ict/umldoclet" xlink:type="simple"><text fill="#888888" font-family="sans-serif" font-size="10" lengthAdjust="spacing" textLength="76.7199" x="215.14" y="930.31">UMLDoclet 2.2.4</text></a></g><!--SRC=[jLRRRjj647tFLqoJXpf8lA9a9Oq5mu1X5uaBkJ4YEIYWw654ZicjbhlixjA6skRVEqkokZEEK9GF53HdpvdB3Z430F0ZN9fYOMMQUV06V2OTtDqC0NK2AMcow2a1cMDA3cQaZ4vTVP00IvyP2-Q- -XSRQyaLHYTIf_0BFY0uKzgOd7Zs32fNut_L7z6jgSyMmNXbOaKUZYvVheNKYxflZtjHxosCKRaSuVfoB1gr5QSdUg8FhAraJDgnPAaJibLO5mN6_3EiaTVmGDP9evaJDJeXrTXeZr8xAD1w5rAwLQXzYBKhsFyRqOtWw68qt0mkEgs2UmqNLcEPm2VpHxdCzuV2OieXAroOqeFBoQF66dCSjSQSwuKnZOYzekTIQgEfmZEP451U-0NSIrA9sxQoM6RONDbZXSx1ypCd_wH1jt_-MTBZ9pbt2T-QVcyuvPoqlxMcC8xB-4Kt9wFpsEGYmtZUEn6nH96RX9IGsXFdemGM1LSKFTTB9EWPbrewRnT2veLw3doB_qL0F14dJ2PFd12PpzLq2dzLPGZF2vaCOEGjz-3AvgLNj6jsvMpSWdZqfTkr6vlk6ZFKAThhFNuLyXUpQyuneTjonfMvuluVG7YlK5tcCxAVKPKCNNCbKx8hD35n6KemgYAyi-gtVDV3gvJyTNBqSXTm5L1R6NumCjbWLVLe8TPOEtVKbBE5leI_eL0brSQlmNRsHvksK0FIpllGt5yBUGctAmp3FRVGQwoTUxFH345aens2nDQHyDgdzEkgSOBCTki4fVKZ3RvFwMfFaxMaj_TeIxQFqcVhTNpYuzuaRlNEGTpTrZkCljLv1v4tUkyWvcxZ7KJVQho3kFixxY29_QrsaCItU-jxfBxMyx6QH_SyQTTcv4sOL1zdlrFidvg7RCnvW64XsqVUwenOKsx6y_SJuEnl8VxNeLg7TERyGj7vijxtnh3wsXmDpuT5GNOezVpIA5vENhpRZzw5NKj9JRpUnNDDl8f4ovDVQtUTDN-DhozwCicyBzoWqqdvjijPg4d7LtlUiOnzfynLKYzuMwlUTDgiRk-NEsHOmuwZ_d6tE-xs1oVzGNGYtdNVHAS_dVRxhwBU88ecFvTS1EgCl8ddcL7vz1y0]--></g></svg>