<svg xmlns="http://www.w3.org/2000/svg" xmlns:xlink="http://www.w3.org/1999/xlink" contentStyleType="text/css" data-diagram-type="CLASS" height="285px" preserveAspectRatio="none" style="width:480px;height:285px;background:#FFFFFF;" version="1.1" viewBox="0 0 480 285" width="480px" zoomAndPan="magnify"><defs/><g><!--class com.hack23.cia.model.internal.application.data.ministry.impl.ViewMinistryProductivityMatrix.CompositePrimaryKey--><g class="entity" data-entity="com.hack23.cia.model.internal.application.data.ministry.impl.ViewMinistryProductivityMatrix.CompositePrimaryKey" data-source-line="13" data-uid="ent0002" id="entity_com.hack23.cia.model.internal.application.data.ministry.impl.ViewMinistryProductivityMatrix.CompositePrimaryKey"><a href="ViewMinistryProductivityMatrix.CompositePrimaryKey.html" target="_top" title="ViewMinistryProductivityMatrix.CompositePrimaryKey.html" xlink:actuate="onRequest" xlink:href="ViewMinistryProductivityMatrix.CompositePrimaryKey.html" xlink:show="new" xlink:title="ViewMinistryProductivityMatrix.CompositePrimaryKey.html" xlink:type="simple"><rect fill="#F1F1F1" height="165.0954" rx="2.5" ry="2.5" style="stroke:#181818;stroke-width:0.5;" width="386.8007" x="6" y="91"/><ellipse cx="21" cy="112.344" fill="#ADD1B2" rx="11" ry="11" style="stroke:#181818;stroke-width:1;"/><path d="M23.9688,117.9846 Q23.3906,118.2815 22.75,118.4221 Q22.1094,118.5783 21.4063,118.5783 Q18.9063,118.5783 17.5781,116.9377 Q16.2656,115.2815 16.2656,112.1565 Q16.2656,109.0315 17.5781,107.3752 Q18.9063,105.719 21.4063,105.719 Q22.1094,105.719 22.75,105.8752 Q23.4063,106.0315 23.9688,106.3283 L23.9688,109.0471 Q23.3438,108.469 22.75,108.2033 Q22.1563,107.9221 21.5313,107.9221 Q20.1875,107.9221 19.5,109.0002 Q18.8125,110.0627 18.8125,112.1565 Q18.8125,114.2502 19.5,115.3283 Q20.1875,116.3908 21.5313,116.3908 Q22.1563,116.3908 22.75,116.1252 Q23.3438,115.844 23.9688,115.2658 L23.9688,117.9846 Z " fill="#000000"/><text fill="#000000" font-family="sans-serif" font-size="14" lengthAdjust="spacing" textLength="354.8007" x="35" y="110.9659">ViewMinistryProductivityMatrix.CompositePrimaryKey</text><text fill="#000000" font-family="sans-serif" font-size="10" lengthAdjust="spacing" textLength="286.1398" x="69.3305" y="125.7579">com.hack23.cia.model.internal.application.data.ministry.impl</text><line style="stroke:#181818;stroke-width:0.5;" x1="7" x2="391.8007" y1="133.6879" y2="133.6879"/><ellipse cx="17" cy="148.7219" fill="#84BE84" rx="3" ry="3" style="stroke:#038048;stroke-width:1;"/><text fill="#000000" font-family="sans-serif" font-size="14" lengthAdjust="spacing" textLength="154.5874" x="26" y="152.6538">CompositePrimaryKey()</text><ellipse cx="17" cy="167.7898" fill="#84BE84" rx="3" ry="3" style="stroke:#038048;stroke-width:1;"/><text fill="#000000" font-family="sans-serif" font-size="14" lengthAdjust="spacing" textLength="250.0111" x="26" y="171.7218">CompositePrimaryKey(String, Integer)</text><ellipse cx="17" cy="186.8577" fill="#84BE84" rx="3" ry="3" style="stroke:#038048;stroke-width:1;"/><text fill="#000000" font-family="sans-serif" font-size="14" lengthAdjust="spacing" textLength="135.8975" x="26" y="190.7897">getOrgCode(): String</text><ellipse cx="17" cy="205.9256" fill="#84BE84" rx="3" ry="3" style="stroke:#038048;stroke-width:1;"/><text fill="#000000" font-family="sans-serif" font-size="14" lengthAdjust="spacing" textLength="161.7974" x="26" y="209.8576">setOrgCode(String): void</text><ellipse cx="17" cy="224.9935" fill="#84BE84" rx="3" ry="3" style="stroke:#038048;stroke-width:1;"/><text fill="#000000" font-family="sans-serif" font-size="14" lengthAdjust="spacing" textLength="115.4436" x="26" y="228.9255">getYear(): Integer</text><ellipse cx="17" cy="244.0614" fill="#84BE84" rx="3" ry="3" style="stroke:#038048;stroke-width:1;"/><text fill="#000000" font-family="sans-serif" font-size="14" lengthAdjust="spacing" textLength="141.3435" x="26" y="247.9934">setYear(Integer): void</text></a></g><!--class java.io.Serializable--><g class="entity" data-entity="java.io.Serializable" data-source-line="22" data-uid="ent0003" id="entity_java.io.Serializable"><rect fill="#F1F1F1" height="42.6879" rx="2.5" ry="2.5" style="stroke:#181818;stroke-width:0.5;" width="103.3017" x="34" y="12"/><ellipse cx="49" cy="33.344" fill="#B4A7E5" rx="11" ry="11" style="stroke:#181818;stroke-width:1;"/><path d="M44.9219,29.1096 L44.9219,26.9533 L52.3125,26.9533 L52.3125,29.1096 L49.8438,29.1096 L49.8438,37.1877 L52.3125,37.1877 L52.3125,39.344 L44.9219,39.344 L44.9219,37.1877 L47.3906,37.1877 L47.3906,29.1096 L44.9219,29.1096 Z " fill="#000000"/><text fill="#000000" font-family="sans-serif" font-size="14" font-style="italic" lengthAdjust="spacing" textLength="71.3017" x="63" y="31.9659">Serializable</text><text fill="#000000" font-family="sans-serif" font-size="10" font-style="italic" lengthAdjust="spacing" textLength="29.38" x="83.9609" y="46.7579">java.io</text></g><!--class com.hack23.cia.model.internal.application.data.ministry.impl.ViewMinistryProductivityMatrix--><g class="entity" data-entity="com.hack23.cia.model.internal.application.data.ministry.impl.ViewMinistryProductivityMatrix" data-source-line="23" data-uid="ent0004" id="entity_com.hack23.cia.model.internal.application.data.ministry.impl.ViewMinistryProductivityMatrix"><a href="ViewMinistryProductivityMatrix.html" target="_top" title="ViewMinistryProductivityMatrix.html" xlink:actuate="onRequest" xlink:href="ViewMinistryProductivityMatrix.html" xlink:show="new" xlink:title="ViewMinistryProductivityMatrix.html" xlink:type="simple"><rect fill="#F1F1F1" height="42.6879" rx="2.5" ry="2.5" style="stroke:#181818;stroke-width:0.5;" width="318.1398" x="155.5" y="12"/><ellipse cx="170.5" cy="33.344" fill="#ADD1B2" rx="11" ry="11" style="stroke:#181818;stroke-width:1;"/><path d="M173.4688,38.9846 Q172.8906,39.2815 172.25,39.4221 Q171.6094,39.5783 170.9063,39.5783 Q168.4063,39.5783 167.0781,37.9377 Q165.7656,36.2815 165.7656,33.1565 Q165.7656,30.0315 167.0781,28.3752 Q168.4063,26.719 170.9063,26.719 Q171.6094,26.719 172.25,26.8752 Q172.9063,27.0315 173.4688,27.3283 L173.4688,30.0471 Q172.8438,29.469 172.25,29.2033 Q171.6563,28.9221 171.0313,28.9221 Q169.6875,28.9221 169,30.0002 Q168.3125,31.0627 168.3125,33.1565 Q168.3125,35.2502 169,36.3283 Q169.6875,37.3908 171.0313,37.3908 Q171.6563,37.3908 172.25,37.1252 Q172.8438,36.844 173.4688,36.2658 L173.4688,38.9846 Z " fill="#000000"/><text fill="#000000" font-family="sans-serif" font-size="14" lengthAdjust="spacing" textLength="204.8612" x="225.1393" y="31.9659">ViewMinistryProductivityMatrix</text><text fill="#000000" font-family="sans-serif" font-size="10" lengthAdjust="spacing" textLength="286.1398" x="184.5" y="46.7579">com.hack23.cia.model.internal.application.data.ministry.impl</text></a></g><g class="link" data-entity-1="java.io.Serializable" data-entity-2="com.hack23.cia.model.internal.application.data.ministry.impl.ViewMinistryProductivityMatrix.CompositePrimaryKey" data-uid="lnk5" id="link_java.io.Serializable_com.hack23.cia.model.internal.application.data.ministry.impl.ViewMinistryProductivityMatrix.CompositePrimaryKey"><polygon fill="none" points="102.567,55.16,109.405,72.8586,118.6566,65.216,102.567,55.16" style="stroke:#181818;stroke-width:1;"/><path d="M114.0308,69.0373 C122.2298,78.9624 121.1802,77.6918 132.1225,90.9378" fill="none" style="stroke:#181818;stroke-width:1;stroke-dasharray:7,7;"/></g><g class="link" data-entity-1="com.hack23.cia.model.internal.application.data.ministry.impl.ViewMinistryProductivityMatrix" data-entity-2="com.hack23.cia.model.internal.application.data.ministry.impl.ViewMinistryProductivityMatrix.CompositePrimaryKey" data-uid="lnk6" id="link_com.hack23.cia.model.internal.application.data.ministry.impl.ViewMinistryProductivityMatrix_com.hack23.cia.model.internal.application.data.ministry.impl.ViewMinistryProductivityMatrix.CompositePrimaryKey"><ellipse cx="292.1619" cy="61.3058" fill="#FFFFFF" rx="8" ry="8" style="stroke:#181818;stroke-width:1;"/><line style="stroke:#181818;stroke-width:1;" x1="287.0404" x2="297.2833" y1="67.4515" y2="55.16"/><line style="stroke:#181818;stroke-width:1;" x1="286.0161" x2="298.3076" y1="56.1843" y2="66.4272"/><path d="M287.0404,67.4515 C278.7695,77.3766 278.5068,77.6918 267.4685,90.9378" fill="none" style="stroke:#181818;stroke-width:1;"/></g><g class="footer" data-source-line="34"><text fill="#888888" font-family="sans-serif" font-size="10" lengthAdjust="spacing" textLength="2.6" x="234.95" y="260.69">&#160;</text><a href="https://github.com/talsma-ict/umldoclet" target="_top" title="https://github.com/talsma-ict/umldoclet" xlink:actuate="onRequest" xlink:href="https://github.com/talsma-ict/umldoclet" xlink:show="new" xlink:title="https://github.com/talsma-ict/umldoclet" xlink:type="simple"><text fill="#888888" font-family="sans-serif" font-size="10" lengthAdjust="spacing" textLength="76.7199" x="197.89" y="274.31">UMLDoclet 2.2.4</text></a></g><!--SRC=[rLLHJzim47xdLzpOmugWRj8M1XL2GjsqiHKDhMNIL7YuEjV4gsDdjbCMDlxxdAH0G6WJcuQql2JntNrtzzsN70302nZgh30YJXmu3IuH5awFHu0gWfWK6NGKWKWn9Wipabh5jdOamDmbse2ULszS6qCsqoeIAePtk4ImEZUSB5jRWohLv1hz0cq3VLQKXwyqb-IWDTnebDGDmfrsD-Zkm0IbJH6EXXEsGhkDwR8kwuF7beAJiXuoLn6Pggp33Bc_ZMhB5Yp9MA6LZmbME6MhN2k7Gbd8q3XRjdGYKRcorf3v_Dii3A1rE1xTBIxOguhRWaEZC8_We_wQt_JxB3CO-v8b5ZftO5DogB2sML-rmjJpXPp6vBEYyrGghQYo9o8Ye3Hp1Sm5oSZUF_LWYVR7rJcNQ2sixrjnIOEmV_19qCMnKC8wKvmO7UNSYQLmnJ4w8xwneKupROMZ4-C7QuhtL9ofLN1mm7NA4kIBReznWIpL4Kacb2FVecIOPPvaT9v25g7pzbKU9j9CheCVxDy0iCUN3jFfuuDOub9vVWxVA_xAQ_C1hzR6hyrZ3w_YBJZopSLa6junkGyc7lhMMni3gFrkhVRMMfkyprABw4xyPq9J1g_0xqHNjkkiZTYhMWyLsNElh8OcncG4Id69CqcDQN_ntoaJkXhSwfarNVz0N_-9bdwlcreZDQKFSGFxFnXxQhdN0_c7j6ossq_UKzNKldM5f8CReS-rzWaRdsXvlIqoCYEX5aCj_G_p-Ux3rjFo_o-58hzo-4AHbszmutbLf-iqygrodQdfD74kiuDE9nOkoMVCKz5nrUvf2-uwUIgZUkdSMpzUAFKwUNEpryhLq0xwxJ2SXFr1hpy8Ucnt-sLlEzphzJU3xY08fgzpepFgZ9tcYqJBzFmd]--></g></svg>