<?xml version="1.0" encoding="UTF-8" standalone="no"?><svg xmlns="http://www.w3.org/2000/svg" xmlns:xlink="http://www.w3.org/1999/xlink" contentScriptType="application/ecmascript" contentStyleType="text/css" height="346px" preserveAspectRatio="none" style="width:532px;height:346px;" version="1.1" viewBox="0 0 532 346" width="532px" zoomAndPan="magnify"><defs><filter height="300%" id="f154nzpemwrjp" width="300%" x="-1" y="-1"><feGaussianBlur result="blurOut" stdDeviation="2.0"/><feColorMatrix in="blurOut" result="blurOut2" type="matrix" values="0 0 0 0 0 0 0 0 0 0 0 0 0 0 0 0 0 0 .4 0"/><feOffset dx="4.0" dy="4.0" in="blurOut2" result="blurOut3"/><feBlend in="SourceGraphic" in2="blurOut3" mode="normal"/></filter></defs><g><!--class com.hack23.cia.model.internal.application.data.committee.impl.RiksdagenCommitteeDecisionTypeOrgSummaryEmbeddedId--><a href="RiksdagenCommitteeDecisionTypeOrgSummaryEmbeddedId.html" target="_top" xlink:actuate="onRequest" xlink:show="new" xlink:title="RiksdagenCommitteeDecisionTypeOrgSummaryEmbeddedId.html" xlink:type="simple"><rect fill="#FEFECE" filter="url(#f154nzpemwrjp)" height="207.5938" id="com.hack23.cia.model.internal.application.data.committee.impl.RiksdagenCommitteeDecisionTypeOrgSummaryEmbeddedId" style="stroke: #A80036; stroke-width: 1.5;" width="515" x="6" y="106"/><ellipse cx="49.35" cy="124.9688" fill="#ADD1B2" rx="11" ry="11" style="stroke: #A80036; stroke-width: 1.0;"/><path d="M52.3188,130.6094 Q51.7406,130.9063 51.1,131.0469 Q50.4594,131.2031 49.7563,131.2031 Q47.2563,131.2031 45.9281,129.5625 Q44.6156,127.9063 44.6156,124.7813 Q44.6156,121.6563 45.9281,120 Q47.2563,118.3438 49.7563,118.3438 Q50.4594,118.3438 51.1,118.5 Q51.7563,118.6563 52.3188,118.9531 L52.3188,121.6719 Q51.6938,121.0938 51.1,120.8281 Q50.5063,120.5469 49.8813,120.5469 Q48.5375,120.5469 47.85,121.625 Q47.1625,122.6875 47.1625,124.7813 Q47.1625,126.875 47.85,127.9531 Q48.5375,129.0156 49.8813,129.0156 Q50.5063,129.0156 51.1,128.75 Q51.6938,128.4688 52.3188,127.8906 L52.3188,130.6094 Z "/><text fill="#000000" font-family="sans-serif" font-size="14" lengthAdjust="spacingAndGlyphs" textLength="420" x="69.65" y="123.9951">RiksdagenCommitteeDecisionTypeOrgSummaryEmbeddedId</text><text fill="#000000" font-family="sans-serif" font-size="10" lengthAdjust="spacingAndGlyphs" textLength="304" x="127.65" y="136.5791">com.hack23.cia.model.internal.application.data.committee.impl</text><line style="stroke: #A80036; stroke-width: 1.5;" x1="7" x2="520" y1="143.9375" y2="143.9375"/><polygon fill="none" points="17,150.8398,21,154.8398,17,158.8398,13,154.8398" style="stroke: #B38D22; stroke-width: 1.0;"/><text fill="#000000" font-family="sans-serif" font-size="11" lengthAdjust="spacingAndGlyphs" textLength="107" x="26" y="158.1479">decisionDate: Date</text><polygon fill="none" points="17,163.6445,21,167.6445,17,171.6445,13,167.6445" style="stroke: #B38D22; stroke-width: 1.0;"/><text fill="#000000" font-family="sans-serif" font-size="11" lengthAdjust="spacingAndGlyphs" textLength="116" x="26" y="170.9526">decisionType: String</text><polygon fill="none" points="17,176.4492,21,180.4492,17,184.4492,13,180.4492" style="stroke: #B38D22; stroke-width: 1.0;"/><text fill="#000000" font-family="sans-serif" font-size="11" lengthAdjust="spacingAndGlyphs" textLength="61" x="26" y="183.7573">org: String</text><line style="stroke: #A80036; stroke-width: 1.5;" x1="7" x2="520" y1="190.3516" y2="190.3516"/><ellipse cx="17" cy="202.2539" fill="#84BE84" rx="3" ry="3" style="stroke: #038048; stroke-width: 1.0;"/><text fill="#000000" font-family="sans-serif" font-size="11" lengthAdjust="spacingAndGlyphs" textLength="134" x="26" y="204.562">getDecisionDate(): Date</text><ellipse cx="17" cy="215.0586" fill="#84BE84" rx="3" ry="3" style="stroke: #038048; stroke-width: 1.0;"/><text fill="#000000" font-family="sans-serif" font-size="11" lengthAdjust="spacingAndGlyphs" textLength="157" x="26" y="217.3667">setDecisionDate(Date): void</text><ellipse cx="17" cy="227.8633" fill="#84BE84" rx="3" ry="3" style="stroke: #038048; stroke-width: 1.0;"/><text fill="#000000" font-family="sans-serif" font-size="11" lengthAdjust="spacingAndGlyphs" textLength="143" x="26" y="230.1714">getDecisionType(): String</text><ellipse cx="17" cy="240.668" fill="#84BE84" rx="3" ry="3" style="stroke: #038048; stroke-width: 1.0;"/><text fill="#000000" font-family="sans-serif" font-size="11" lengthAdjust="spacingAndGlyphs" textLength="166" x="26" y="242.9761">setDecisionType(String): void</text><ellipse cx="17" cy="253.4727" fill="#84BE84" rx="3" ry="3" style="stroke: #038048; stroke-width: 1.0;"/><text fill="#000000" font-family="sans-serif" font-size="11" lengthAdjust="spacingAndGlyphs" textLength="89" x="26" y="255.7808">getOrg(): String</text><ellipse cx="17" cy="266.2773" fill="#84BE84" rx="3" ry="3" style="stroke: #038048; stroke-width: 1.0;"/><text fill="#000000" font-family="sans-serif" font-size="11" lengthAdjust="spacingAndGlyphs" textLength="112" x="26" y="268.5854">setOrg(String): void</text><ellipse cx="17" cy="279.082" fill="#84BE84" rx="3" ry="3" style="stroke: #038048; stroke-width: 1.0;"/><text fill="#000000" font-family="sans-serif" font-size="11" lengthAdjust="spacingAndGlyphs" textLength="480" x="26" y="281.3901">withDecisionDate(Date): RiksdagenCommitteeDecisionTypeOrgSummaryEmbeddedId</text><ellipse cx="17" cy="291.8867" fill="#84BE84" rx="3" ry="3" style="stroke: #038048; stroke-width: 1.0;"/><text fill="#000000" font-family="sans-serif" font-size="11" lengthAdjust="spacingAndGlyphs" textLength="489" x="26" y="294.1948">withDecisionType(String): RiksdagenCommitteeDecisionTypeOrgSummaryEmbeddedId</text><ellipse cx="17" cy="304.6914" fill="#84BE84" rx="3" ry="3" style="stroke: #038048; stroke-width: 1.0;"/><text fill="#000000" font-family="sans-serif" font-size="11" lengthAdjust="spacingAndGlyphs" textLength="435" x="26" y="306.9995">withOrg(String): RiksdagenCommitteeDecisionTypeOrgSummaryEmbeddedId</text></a><!--class com.hack23.cia.model.common.api.ModelObject--><rect fill="#FEFECE" filter="url(#f154nzpemwrjp)" height="37.9375" id="com.hack23.cia.model.common.api.ModelObject" style="stroke: #A80036; stroke-width: 1.5;" width="210" x="158.5" y="8"/><ellipse cx="173.5" cy="26.9688" fill="#B4A7E5" rx="11" ry="11" style="stroke: #A80036; stroke-width: 1.0;"/><path d="M169.4219,22.7344 L169.4219,20.5781 L176.8125,20.5781 L176.8125,22.7344 L174.3438,22.7344 L174.3438,30.8125 L176.8125,30.8125 L176.8125,32.9688 L169.4219,32.9688 L169.4219,30.8125 L171.8906,30.8125 L171.8906,22.7344 L169.4219,22.7344 Z "/><text fill="#000000" font-family="sans-serif" font-size="14" font-style="italic" lengthAdjust="spacingAndGlyphs" textLength="87" x="233" y="25.9951">ModelObject</text><text fill="#000000" font-family="sans-serif" font-size="10" font-style="italic" lengthAdjust="spacingAndGlyphs" textLength="178" x="187.5" y="38.5791">com.hack23.cia.model.common.api</text><!--link com.hack23.cia.model.common.api.ModelObject to com.hack23.cia.model.internal.application.data.committee.impl.RiksdagenCommitteeDecisionTypeOrgSummaryEmbeddedId--><path d="M263.5,66.5059 C263.5,78.3418 263.5,91.9152 263.5,105.8885 " fill="none" id="com.hack23.cia.model.common.api.ModelObject-com.hack23.cia.model.internal.application.data.committee.impl.RiksdagenCommitteeDecisionTypeOrgSummaryEmbeddedId" style="stroke: #A80036; stroke-width: 1.0; stroke-dasharray: 7.0,7.0;"/><polygon fill="none" points="256.5001,66.2384,263.5,46.2383,270.5001,66.2383,256.5001,66.2384" style="stroke: #A80036; stroke-width: 1.0;"/><text fill="#888888" font-family="sans-serif" font-size="10" lengthAdjust="spacingAndGlyphs" textLength="186" x="176.5" y="333.2822">UMLDoclet 2.0.5, PlantUML 1.2019.08</text><!--
@startuml
    set namespaceSeparator none
    hide empty fields
    hide empty methods

    class "<size:14>RiksdagenCommitteeDecisionTypeOrgSummaryEmbeddedId\n<size:10>com.hack23.cia.model.internal.application.data.committee.impl" as com.hack23.cia.model.internal.application.data.committee.impl.RiksdagenCommitteeDecisionTypeOrgSummaryEmbeddedId [[RiksdagenCommitteeDecisionTypeOrgSummaryEmbeddedId.html]] {
        #decisionDate: Date
        #decisionType: String
        #org: String
        +getDecisionDate(): Date
        +setDecisionDate(Date): void
        +getDecisionType(): String
        +setDecisionType(String): void
        +getOrg(): String
        +setOrg(String): void
        +withDecisionDate(Date): RiksdagenCommitteeDecisionTypeOrgSummaryEmbeddedId
        +withDecisionType(String): RiksdagenCommitteeDecisionTypeOrgSummaryEmbeddedId
        +withOrg(String): RiksdagenCommitteeDecisionTypeOrgSummaryEmbeddedId
    }

    interface "<size:14>ModelObject\n<size:10>com.hack23.cia.model.common.api" as com.hack23.cia.model.common.api.ModelObject

    com.hack23.cia.model.common.api.ModelObject <|.. com.hack23.cia.model.internal.application.data.committee.impl.RiksdagenCommitteeDecisionTypeOrgSummaryEmbeddedId

    center footer UMLDoclet 2.0.5, PlantUML 1.2019.08
@enduml

PlantUML version 1.2019.08(Sat Jul 13 21:25:14 CEST 2019)
(APACHE source distribution)
Java Runtime: OpenJDK Runtime Environment
JVM: OpenJDK 64-Bit Server VM
Java Version: 11.0.4+11-post-Ubuntu-1ubuntu219.04
Operating System: Linux
OS Version: 5.0.0-27-generic
Default Encoding: UTF-8
Language: en
Country: US
--></g></svg>