<?xml version="1.0" encoding="UTF-8" standalone="no"?><svg xmlns="http://www.w3.org/2000/svg" xmlns:xlink="http://www.w3.org/1999/xlink" contentScriptType="application/ecmascript" contentStyleType="text/css" height="397px" preserveAspectRatio="none" style="width:403px;height:397px;" version="1.1" viewBox="0 0 403 397" width="403px" zoomAndPan="magnify"><defs><filter height="300%" id="fsptut0ds2lo" width="300%" x="-1" y="-1"><feGaussianBlur result="blurOut" stdDeviation="2.0"/><feColorMatrix in="blurOut" result="blurOut2" type="matrix" values="0 0 0 0 0 0 0 0 0 0 0 0 0 0 0 0 0 0 .4 0"/><feOffset dx="4.0" dy="4.0" in="blurOut2" result="blurOut3"/><feBlend in="SourceGraphic" in2="blurOut3" mode="normal"/></filter></defs><g><!--class com.hack23.cia.model.internal.application.data.committee.impl.RiksdagenVoteDataBallotPartyEmbeddedId--><a href="RiksdagenVoteDataBallotPartyEmbeddedId.html" target="_top" xlink:actuate="onRequest" xlink:show="new" xlink:title="RiksdagenVoteDataBallotPartyEmbeddedId.html" xlink:type="simple"><rect fill="#FEFECE" filter="url(#fsptut0ds2lo)" height="258.8125" id="com.hack23.cia.model.internal.application.data.committee.impl.RiksdagenVoteDataBallotPartyEmbeddedId" style="stroke: #A80036; stroke-width: 1.5;" width="386" x="6" y="106"/><ellipse cx="43.5" cy="124.9688" fill="#ADD1B2" rx="11" ry="11" style="stroke: #A80036; stroke-width: 1.0;"/><path d="M46.4688,130.6094 Q45.8906,130.9063 45.25,131.0469 Q44.6094,131.2031 43.9063,131.2031 Q41.4063,131.2031 40.0781,129.5625 Q38.7656,127.9063 38.7656,124.7813 Q38.7656,121.6563 40.0781,120 Q41.4063,118.3438 43.9063,118.3438 Q44.6094,118.3438 45.25,118.5 Q45.9063,118.6563 46.4688,118.9531 L46.4688,121.6719 Q45.8438,121.0938 45.25,120.8281 Q44.6563,120.5469 44.0313,120.5469 Q42.6875,120.5469 42,121.625 Q41.3125,122.6875 41.3125,124.7813 Q41.3125,126.875 42,127.9531 Q42.6875,129.0156 44.0313,129.0156 Q44.6563,129.0156 45.25,128.75 Q45.8438,128.4688 46.4688,127.8906 L46.4688,130.6094 Z "/><text fill="#000000" font-family="sans-serif" font-size="14" lengthAdjust="spacingAndGlyphs" textLength="297" x="66" y="123.9951">RiksdagenVoteDataBallotPartyEmbeddedId</text><text fill="#000000" font-family="sans-serif" font-size="10" lengthAdjust="spacingAndGlyphs" textLength="304" x="62.5" y="136.5791">com.hack23.cia.model.internal.application.data.committee.impl</text><line style="stroke: #A80036; stroke-width: 1.5;" x1="7" x2="391" y1="143.9375" y2="143.9375"/><polygon fill="none" points="17,150.8398,21,154.8398,17,158.8398,13,154.8398" style="stroke: #B38D22; stroke-width: 1.0;"/><text fill="#000000" font-family="sans-serif" font-size="11" lengthAdjust="spacingAndGlyphs" textLength="83" x="26" y="158.1479">ballotId: String</text><polygon fill="none" points="17,163.6445,21,167.6445,17,171.6445,13,167.6445" style="stroke: #B38D22; stroke-width: 1.0;"/><text fill="#000000" font-family="sans-serif" font-size="11" lengthAdjust="spacingAndGlyphs" textLength="87" x="26" y="170.9526">concern: String</text><polygon fill="none" points="17,176.4492,21,180.4492,17,184.4492,13,180.4492" style="stroke: #B38D22; stroke-width: 1.0;"/><text fill="#000000" font-family="sans-serif" font-size="11" lengthAdjust="spacingAndGlyphs" textLength="73" x="26" y="183.7573">issue: String</text><polygon fill="none" points="17,189.2539,21,193.2539,17,197.2539,13,193.2539" style="stroke: #B38D22; stroke-width: 1.0;"/><text fill="#000000" font-family="sans-serif" font-size="11" lengthAdjust="spacingAndGlyphs" textLength="71" x="26" y="196.562">party: String</text><line style="stroke: #A80036; stroke-width: 1.5;" x1="7" x2="391" y1="203.1563" y2="203.1563"/><ellipse cx="17" cy="215.0586" fill="#84BE84" rx="3" ry="3" style="stroke: #038048; stroke-width: 1.0;"/><text fill="#000000" font-family="sans-serif" font-size="11" lengthAdjust="spacingAndGlyphs" textLength="110" x="26" y="217.3667">getBallotId(): String</text><ellipse cx="17" cy="227.8633" fill="#84BE84" rx="3" ry="3" style="stroke: #038048; stroke-width: 1.0;"/><text fill="#000000" font-family="sans-serif" font-size="11" lengthAdjust="spacingAndGlyphs" textLength="133" x="26" y="230.1714">setBallotId(String): void</text><ellipse cx="17" cy="240.668" fill="#84BE84" rx="3" ry="3" style="stroke: #038048; stroke-width: 1.0;"/><text fill="#000000" font-family="sans-serif" font-size="11" lengthAdjust="spacingAndGlyphs" textLength="115" x="26" y="242.9761">getConcern(): String</text><ellipse cx="17" cy="253.4727" fill="#84BE84" rx="3" ry="3" style="stroke: #038048; stroke-width: 1.0;"/><text fill="#000000" font-family="sans-serif" font-size="11" lengthAdjust="spacingAndGlyphs" textLength="138" x="26" y="255.7808">setConcern(String): void</text><ellipse cx="17" cy="266.2773" fill="#84BE84" rx="3" ry="3" style="stroke: #038048; stroke-width: 1.0;"/><text fill="#000000" font-family="sans-serif" font-size="11" lengthAdjust="spacingAndGlyphs" textLength="99" x="26" y="268.5854">getIssue(): String</text><ellipse cx="17" cy="279.082" fill="#84BE84" rx="3" ry="3" style="stroke: #038048; stroke-width: 1.0;"/><text fill="#000000" font-family="sans-serif" font-size="11" lengthAdjust="spacingAndGlyphs" textLength="122" x="26" y="281.3901">setIssue(String): void</text><ellipse cx="17" cy="291.8867" fill="#84BE84" rx="3" ry="3" style="stroke: #038048; stroke-width: 1.0;"/><text fill="#000000" font-family="sans-serif" font-size="11" lengthAdjust="spacingAndGlyphs" textLength="97" x="26" y="294.1948">getParty(): String</text><ellipse cx="17" cy="304.6914" fill="#84BE84" rx="3" ry="3" style="stroke: #038048; stroke-width: 1.0;"/><text fill="#000000" font-family="sans-serif" font-size="11" lengthAdjust="spacingAndGlyphs" textLength="120" x="26" y="306.9995">setParty(String): void</text><ellipse cx="17" cy="317.4961" fill="#84BE84" rx="3" ry="3" style="stroke: #038048; stroke-width: 1.0;"/><text fill="#000000" font-family="sans-serif" font-size="11" lengthAdjust="spacingAndGlyphs" textLength="355" x="26" y="319.8042">withBallotId(String): RiksdagenVoteDataBallotPartyEmbeddedId</text><ellipse cx="17" cy="330.3008" fill="#84BE84" rx="3" ry="3" style="stroke: #038048; stroke-width: 1.0;"/><text fill="#000000" font-family="sans-serif" font-size="11" lengthAdjust="spacingAndGlyphs" textLength="360" x="26" y="332.6089">withConcern(String): RiksdagenVoteDataBallotPartyEmbeddedId</text><ellipse cx="17" cy="343.1055" fill="#84BE84" rx="3" ry="3" style="stroke: #038048; stroke-width: 1.0;"/><text fill="#000000" font-family="sans-serif" font-size="11" lengthAdjust="spacingAndGlyphs" textLength="344" x="26" y="345.4136">withIssue(String): RiksdagenVoteDataBallotPartyEmbeddedId</text><ellipse cx="17" cy="355.9102" fill="#84BE84" rx="3" ry="3" style="stroke: #038048; stroke-width: 1.0;"/><text fill="#000000" font-family="sans-serif" font-size="11" lengthAdjust="spacingAndGlyphs" textLength="342" x="26" y="358.2183">withParty(String): RiksdagenVoteDataBallotPartyEmbeddedId</text></a><!--class com.hack23.cia.model.common.api.ModelObject--><rect fill="#FEFECE" filter="url(#fsptut0ds2lo)" height="37.9375" id="com.hack23.cia.model.common.api.ModelObject" style="stroke: #A80036; stroke-width: 1.5;" width="210" x="94" y="8"/><ellipse cx="109" cy="26.9688" fill="#B4A7E5" rx="11" ry="11" style="stroke: #A80036; stroke-width: 1.0;"/><path d="M104.9219,22.7344 L104.9219,20.5781 L112.3125,20.5781 L112.3125,22.7344 L109.8438,22.7344 L109.8438,30.8125 L112.3125,30.8125 L112.3125,32.9688 L104.9219,32.9688 L104.9219,30.8125 L107.3906,30.8125 L107.3906,22.7344 L104.9219,22.7344 Z "/><text fill="#000000" font-family="sans-serif" font-size="14" font-style="italic" lengthAdjust="spacingAndGlyphs" textLength="87" x="168.5" y="25.9951">ModelObject</text><text fill="#000000" font-family="sans-serif" font-size="10" font-style="italic" lengthAdjust="spacingAndGlyphs" textLength="178" x="123" y="38.5791">com.hack23.cia.model.common.api</text><!--link com.hack23.cia.model.common.api.ModelObject to com.hack23.cia.model.internal.application.data.committee.impl.RiksdagenVoteDataBallotPartyEmbeddedId--><path d="M199,66.679 C199,78.2948 199,91.675 199,105.7135 " fill="none" id="com.hack23.cia.model.common.api.ModelObject-com.hack23.cia.model.internal.application.data.committee.impl.RiksdagenVoteDataBallotPartyEmbeddedId" style="stroke: #A80036; stroke-width: 1.0; stroke-dasharray: 7.0,7.0;"/><polygon fill="none" points="192.0001,66.2415,199,46.2415,206.0001,66.2414,192.0001,66.2415" style="stroke: #A80036; stroke-width: 1.0;"/><text fill="#888888" font-family="sans-serif" font-size="10" lengthAdjust="spacingAndGlyphs" textLength="186" x="112" y="384.2822">UMLDoclet 2.0.5, PlantUML 1.2019.08</text><!--
@startuml
    set namespaceSeparator none
    hide empty fields
    hide empty methods

    class "<size:14>RiksdagenVoteDataBallotPartyEmbeddedId\n<size:10>com.hack23.cia.model.internal.application.data.committee.impl" as com.hack23.cia.model.internal.application.data.committee.impl.RiksdagenVoteDataBallotPartyEmbeddedId [[RiksdagenVoteDataBallotPartyEmbeddedId.html]] {
        #ballotId: String
        #concern: String
        #issue: String
        #party: String
        +getBallotId(): String
        +setBallotId(String): void
        +getConcern(): String
        +setConcern(String): void
        +getIssue(): String
        +setIssue(String): void
        +getParty(): String
        +setParty(String): void
        +withBallotId(String): RiksdagenVoteDataBallotPartyEmbeddedId
        +withConcern(String): RiksdagenVoteDataBallotPartyEmbeddedId
        +withIssue(String): RiksdagenVoteDataBallotPartyEmbeddedId
        +withParty(String): RiksdagenVoteDataBallotPartyEmbeddedId
    }

    interface "<size:14>ModelObject\n<size:10>com.hack23.cia.model.common.api" as com.hack23.cia.model.common.api.ModelObject

    com.hack23.cia.model.common.api.ModelObject <|.. com.hack23.cia.model.internal.application.data.committee.impl.RiksdagenVoteDataBallotPartyEmbeddedId

    center footer UMLDoclet 2.0.5, PlantUML 1.2019.08
@enduml

PlantUML version 1.2019.08(Sat Jul 13 21:25:14 CEST 2019)
(APACHE source distribution)
Java Runtime: OpenJDK Runtime Environment
JVM: OpenJDK 64-Bit Server VM
Java Version: 11.0.4+11-post-Ubuntu-1ubuntu219.04
Operating System: Linux
OS Version: 5.0.0-27-generic
Default Encoding: UTF-8
Language: en
Country: US
--></g></svg>