<?xml version="1.0" encoding="UTF-8" standalone="no"?><svg xmlns="http://www.w3.org/2000/svg" xmlns:xlink="http://www.w3.org/1999/xlink" contentScriptType="application/ecmascript" contentStyleType="text/css" height="294px" preserveAspectRatio="none" style="width:356px;height:294px;" version="1.1" viewBox="0 0 356 294" width="356px" zoomAndPan="magnify"><defs><filter height="300%" id="f15yi2m6qbs2l0" width="300%" x="-1" y="-1"><feGaussianBlur result="blurOut" stdDeviation="2.0"/><feColorMatrix in="blurOut" result="blurOut2" type="matrix" values="0 0 0 0 0 0 0 0 0 0 0 0 0 0 0 0 0 0 .4 0"/><feOffset dx="4.0" dy="4.0" in="blurOut2" result="blurOut3"/><feBlend in="SourceGraphic" in2="blurOut3" mode="normal"/></filter></defs><g><!--class com.hack23.cia.model.internal.application.data.committee.impl.RiksdagenCommitteeEmbeddedId--><a href="RiksdagenCommitteeEmbeddedId.html" target="_top" xlink:actuate="onRequest" xlink:show="new" xlink:title="RiksdagenCommitteeEmbeddedId.html" xlink:type="simple"><rect fill="#FEFECE" filter="url(#f15yi2m6qbs2l0)" height="156.375" id="com.hack23.cia.model.internal.application.data.committee.impl.RiksdagenCommitteeEmbeddedId" style="stroke: #A80036; stroke-width: 1.5;" width="339" x="6" y="106"/><ellipse cx="22.35" cy="124.9688" fill="#ADD1B2" rx="11" ry="11" style="stroke: #A80036; stroke-width: 1.0;"/><path d="M25.3188,130.6094 Q24.7406,130.9063 24.1,131.0469 Q23.4594,131.2031 22.7563,131.2031 Q20.2563,131.2031 18.9281,129.5625 Q17.6156,127.9063 17.6156,124.7813 Q17.6156,121.6563 18.9281,120 Q20.2563,118.3438 22.7563,118.3438 Q23.4594,118.3438 24.1,118.5 Q24.7563,118.6563 25.3188,118.9531 L25.3188,121.6719 Q24.6938,121.0938 24.1,120.8281 Q23.5063,120.5469 22.8813,120.5469 Q21.5375,120.5469 20.85,121.625 Q20.1625,122.6875 20.1625,124.7813 Q20.1625,126.875 20.85,127.9531 Q21.5375,129.0156 22.8813,129.0156 Q23.5063,129.0156 24.1,128.75 Q24.6938,128.4688 25.3188,127.8906 L25.3188,130.6094 Z "/><text fill="#000000" font-family="sans-serif" font-size="14" lengthAdjust="spacingAndGlyphs" textLength="237" x="70.15" y="123.9951">RiksdagenCommitteeEmbeddedId</text><text fill="#000000" font-family="sans-serif" font-size="10" lengthAdjust="spacingAndGlyphs" textLength="304" x="36.65" y="136.5791">com.hack23.cia.model.internal.application.data.committee.impl</text><line style="stroke: #A80036; stroke-width: 1.5;" x1="7" x2="344" y1="143.9375" y2="143.9375"/><polygon fill="none" points="17,150.8398,21,154.8398,17,158.8398,13,154.8398" style="stroke: #B38D22; stroke-width: 1.0;"/><text fill="#000000" font-family="sans-serif" font-size="11" lengthAdjust="spacingAndGlyphs" textLength="73" x="26" y="158.1479">detail: String</text><polygon fill="none" points="17,163.6445,21,167.6445,17,171.6445,13,167.6445" style="stroke: #B38D22; stroke-width: 1.0;"/><text fill="#000000" font-family="sans-serif" font-size="11" lengthAdjust="spacingAndGlyphs" textLength="90" x="26" y="170.9526">orgCode: String</text><line style="stroke: #A80036; stroke-width: 1.5;" x1="7" x2="344" y1="177.5469" y2="177.5469"/><ellipse cx="17" cy="189.4492" fill="#84BE84" rx="3" ry="3" style="stroke: #038048; stroke-width: 1.0;"/><text fill="#000000" font-family="sans-serif" font-size="11" lengthAdjust="spacingAndGlyphs" textLength="100" x="26" y="191.7573">getDetail(): String</text><ellipse cx="17" cy="202.2539" fill="#84BE84" rx="3" ry="3" style="stroke: #038048; stroke-width: 1.0;"/><text fill="#000000" font-family="sans-serif" font-size="11" lengthAdjust="spacingAndGlyphs" textLength="123" x="26" y="204.562">setDetail(String): void</text><ellipse cx="17" cy="215.0586" fill="#84BE84" rx="3" ry="3" style="stroke: #038048; stroke-width: 1.0;"/><text fill="#000000" font-family="sans-serif" font-size="11" lengthAdjust="spacingAndGlyphs" textLength="118" x="26" y="217.3667">getOrgCode(): String</text><ellipse cx="17" cy="227.8633" fill="#84BE84" rx="3" ry="3" style="stroke: #038048; stroke-width: 1.0;"/><text fill="#000000" font-family="sans-serif" font-size="11" lengthAdjust="spacingAndGlyphs" textLength="141" x="26" y="230.1714">setOrgCode(String): void</text><ellipse cx="17" cy="240.668" fill="#84BE84" rx="3" ry="3" style="stroke: #038048; stroke-width: 1.0;"/><text fill="#000000" font-family="sans-serif" font-size="11" lengthAdjust="spacingAndGlyphs" textLength="295" x="26" y="242.9761">withDetail(String): RiksdagenCommitteeEmbeddedId</text><ellipse cx="17" cy="253.4727" fill="#84BE84" rx="3" ry="3" style="stroke: #038048; stroke-width: 1.0;"/><text fill="#000000" font-family="sans-serif" font-size="11" lengthAdjust="spacingAndGlyphs" textLength="313" x="26" y="255.7808">withOrgCode(String): RiksdagenCommitteeEmbeddedId</text></a><!--class com.hack23.cia.model.common.api.ModelObject--><rect fill="#FEFECE" filter="url(#f15yi2m6qbs2l0)" height="37.9375" id="com.hack23.cia.model.common.api.ModelObject" style="stroke: #A80036; stroke-width: 1.5;" width="210" x="70.5" y="8"/><ellipse cx="85.5" cy="26.9688" fill="#B4A7E5" rx="11" ry="11" style="stroke: #A80036; stroke-width: 1.0;"/><path d="M81.4219,22.7344 L81.4219,20.5781 L88.8125,20.5781 L88.8125,22.7344 L86.3438,22.7344 L86.3438,30.8125 L88.8125,30.8125 L88.8125,32.9688 L81.4219,32.9688 L81.4219,30.8125 L83.8906,30.8125 L83.8906,22.7344 L81.4219,22.7344 Z "/><text fill="#000000" font-family="sans-serif" font-size="14" font-style="italic" lengthAdjust="spacingAndGlyphs" textLength="87" x="145" y="25.9951">ModelObject</text><text fill="#000000" font-family="sans-serif" font-size="10" font-style="italic" lengthAdjust="spacingAndGlyphs" textLength="178" x="99.5" y="38.5791">com.hack23.cia.model.common.api</text><!--link com.hack23.cia.model.common.api.ModelObject to com.hack23.cia.model.internal.application.data.committee.impl.RiksdagenCommitteeEmbeddedId--><path d="M175.5,66.3456 C175.5,78.3814 175.5,92.0678 175.5,105.7444 " fill="none" id="com.hack23.cia.model.common.api.ModelObject-com.hack23.cia.model.internal.application.data.committee.impl.RiksdagenCommitteeEmbeddedId" style="stroke: #A80036; stroke-width: 1.0; stroke-dasharray: 7.0,7.0;"/><polygon fill="none" points="168.5001,66.2513,175.5,46.2513,182.5001,66.2512,168.5001,66.2513" style="stroke: #A80036; stroke-width: 1.0;"/><text fill="#888888" font-family="sans-serif" font-size="10" lengthAdjust="spacingAndGlyphs" textLength="186" x="88.5" y="281.2822">UMLDoclet 2.0.5, PlantUML 1.2019.08</text><!--
@startuml
    set namespaceSeparator none
    hide empty fields
    hide empty methods

    class "<size:14>RiksdagenCommitteeEmbeddedId\n<size:10>com.hack23.cia.model.internal.application.data.committee.impl" as com.hack23.cia.model.internal.application.data.committee.impl.RiksdagenCommitteeEmbeddedId [[RiksdagenCommitteeEmbeddedId.html]] {
        #detail: String
        #orgCode: String
        +getDetail(): String
        +setDetail(String): void
        +getOrgCode(): String
        +setOrgCode(String): void
        +withDetail(String): RiksdagenCommitteeEmbeddedId
        +withOrgCode(String): RiksdagenCommitteeEmbeddedId
    }

    interface "<size:14>ModelObject\n<size:10>com.hack23.cia.model.common.api" as com.hack23.cia.model.common.api.ModelObject

    com.hack23.cia.model.common.api.ModelObject <|.. com.hack23.cia.model.internal.application.data.committee.impl.RiksdagenCommitteeEmbeddedId

    center footer UMLDoclet 2.0.5, PlantUML 1.2019.08
@enduml

PlantUML version 1.2019.08(Sat Jul 13 21:25:14 CEST 2019)
(APACHE source distribution)
Java Runtime: OpenJDK Runtime Environment
JVM: OpenJDK 64-Bit Server VM
Java Version: 11.0.4+11-post-Ubuntu-1ubuntu219.04
Operating System: Linux
OS Version: 5.0.0-27-generic
Default Encoding: UTF-8
Language: en
Country: US
--></g></svg>