<svg xmlns="http://www.w3.org/2000/svg" xmlns:xlink="http://www.w3.org/1999/xlink" contentStyleType="text/css" height="331px" preserveAspectRatio="none" style="width:586px;height:331px;background:#FFFFFF;" version="1.1" viewBox="0 0 586 331" width="586px" zoomAndPan="magnify"><defs/><g><!--class com.hack23.cia.model.internal.application.data.committee.impl.RiksdagenCommitteeDecisionTypeSummaryEmbeddedId--><a href="RiksdagenCommitteeDecisionTypeSummaryEmbeddedId.html" target="_top" title="RiksdagenCommitteeDecisionTypeSummaryEmbeddedId.html" xlink:actuate="onRequest" xlink:href="RiksdagenCommitteeDecisionTypeSummaryEmbeddedId.html" xlink:show="new" xlink:title="RiksdagenCommitteeDecisionTypeSummaryEmbeddedId.html" xlink:type="simple"><g id="elem_com.hack23.cia.model.internal.application.data.committee.impl.RiksdagenCommitteeDecisionTypeSummaryEmbeddedId"><rect codeLine="13" fill="#F1F1F1" height="211.2312" id="com.hack23.cia.model.internal.application.data.committee.impl.RiksdagenCommitteeDecisionTypeSummaryEmbeddedId" rx="2.5" ry="2.5" style="stroke:#181818;stroke-width:0.5;" width="573.0341" x="6" y="91"/><ellipse cx="100.1638" cy="112.344" fill="#ADD1B2" rx="11" ry="11" style="stroke:#181818;stroke-width:1.0;"/><path d="M103.1325,117.9846 Q102.5544,118.2815 101.9138,118.4221 Q101.2731,118.5783 100.57,118.5783 Q98.07,118.5783 96.7419,116.9377 Q95.4294,115.2815 95.4294,112.1565 Q95.4294,109.0315 96.7419,107.3752 Q98.07,105.719 100.57,105.719 Q101.2731,105.719 101.9138,105.8752 Q102.57,106.0315 103.1325,106.3283 L103.1325,109.0471 Q102.5075,108.469 101.9138,108.2033 Q101.32,107.9221 100.695,107.9221 Q99.3513,107.9221 98.6638,109.0002 Q97.9763,110.0627 97.9763,112.1565 Q97.9763,114.2502 98.6638,115.3283 Q99.3513,116.3908 100.695,116.3908 Q101.32,116.3908 101.9138,116.1252 Q102.5075,115.844 103.1325,115.2658 L103.1325,117.9846 Z " fill="#000000"/><text fill="#000000" font-family="sans-serif" font-size="14" lengthAdjust="spacing" textLength="376.2065" x="120.6638" y="110.9659">RiksdagenCommitteeDecisionTypeSummaryEmbeddedId</text><text fill="#000000" font-family="sans-serif" font-size="10" lengthAdjust="spacing" textLength="298.4498" x="159.5421" y="125.7579">com.hack23.cia.model.internal.application.data.committee.impl</text><line style="stroke:#181818;stroke-width:0.5;" x1="7" x2="578.0341" y1="133.6879" y2="133.6879"/><polygon fill="none" points="17,143.7219,21,147.7219,17,151.7219,13,147.7219" style="stroke:#B38D22;stroke-width:1.0;"/><text fill="#000000" font-family="sans-serif" font-size="14" lengthAdjust="spacing" textLength="123.7175" x="26" y="152.6538">decisionDate: Date</text><polygon fill="none" points="17,162.7898,21,166.7898,17,170.7898,13,166.7898" style="stroke:#B38D22;stroke-width:1.0;"/><text fill="#000000" font-family="sans-serif" font-size="14" lengthAdjust="spacing" textLength="132.4955" x="26" y="171.7218">decisionType: String</text><line style="stroke:#181818;stroke-width:0.5;" x1="7" x2="578.0341" y1="179.8237" y2="179.8237"/><ellipse cx="17" cy="194.8577" fill="#84BE84" rx="3" ry="3" style="stroke:#038048;stroke-width:1.0;"/><text fill="#000000" font-family="sans-serif" font-size="14" lengthAdjust="spacing" textLength="155.2874" x="26" y="198.7897">getDecisionDate(): Date</text><ellipse cx="17" cy="213.9256" fill="#84BE84" rx="3" ry="3" style="stroke:#038048;stroke-width:1.0;"/><text fill="#000000" font-family="sans-serif" font-size="14" lengthAdjust="spacing" textLength="181.1873" x="26" y="217.8576">setDecisionDate(Date): void</text><ellipse cx="17" cy="232.9935" fill="#84BE84" rx="3" ry="3" style="stroke:#038048;stroke-width:1.0;"/><text fill="#000000" font-family="sans-serif" font-size="14" lengthAdjust="spacing" textLength="164.0654" x="26" y="236.9255">getDecisionType(): String</text><ellipse cx="17" cy="252.0614" fill="#84BE84" rx="3" ry="3" style="stroke:#038048;stroke-width:1.0;"/><text fill="#000000" font-family="sans-serif" font-size="14" lengthAdjust="spacing" textLength="189.9653" x="26" y="255.9934">setDecisionType(String): void</text><ellipse cx="17" cy="271.1294" fill="#84BE84" rx="3" ry="3" style="stroke:#038048;stroke-width:1.0;"/><text fill="#000000" font-family="sans-serif" font-size="14" lengthAdjust="spacing" textLength="538.256" x="26" y="275.0613">withDecisionDate(Date): RiksdagenCommitteeDecisionTypeSummaryEmbeddedId</text><ellipse cx="17" cy="290.1973" fill="#84BE84" rx="3" ry="3" style="stroke:#038048;stroke-width:1.0;"/><text fill="#000000" font-family="sans-serif" font-size="14" lengthAdjust="spacing" textLength="547.0341" x="26" y="294.1293">withDecisionType(String): RiksdagenCommitteeDecisionTypeSummaryEmbeddedId</text></g></a><!--class com.hack23.cia.model.common.api.ModelObject--><g id="elem_com.hack23.cia.model.common.api.ModelObject"><rect codeLine="24" fill="#F1F1F1" height="42.6879" id="com.hack23.cia.model.common.api.ModelObject" rx="2.5" ry="2.5" style="stroke:#181818;stroke-width:0.5;" width="189.3398" x="198" y="12"/><ellipse cx="213" cy="33.344" fill="#B4A7E5" rx="11" ry="11" style="stroke:#181818;stroke-width:1.0;"/><path d="M208.9219,29.1096 L208.9219,26.9533 L216.3125,26.9533 L216.3125,29.1096 L213.8438,29.1096 L213.8438,37.1877 L216.3125,37.1877 L216.3125,39.344 L208.9219,39.344 L208.9219,37.1877 L211.3906,37.1877 L211.3906,29.1096 L208.9219,29.1096 Z " fill="#000000"/><text fill="#000000" font-family="sans-serif" font-size="14" font-style="italic" lengthAdjust="spacing" textLength="78.1477" x="266.596" y="31.9659">ModelObject</text><text fill="#000000" font-family="sans-serif" font-size="10" font-style="italic" lengthAdjust="spacing" textLength="157.3398" x="227" y="46.7579">com.hack23.cia.model.common.api</text></g><polygon fill="none" points="292.5,55.2183,286.5,73.2183,298.5,73.2183,292.5,55.2183" style="stroke:#181818;stroke-width:1.0;"/><path d="M292.5,73.2183 C292.5,82.9851 292.5,77.4416 292.5,90.8868 " fill="none" style="stroke:#181818;stroke-width:1.0;stroke-dasharray:7.0,7.0;"/><text fill="#888888" font-family="sans-serif" font-size="10" lengthAdjust="spacing" textLength="2.6" x="287.7" y="306.69">&#160;</text><a href="https://github.com/talsma-ict/umldoclet" target="_top" title="https://github.com/talsma-ict/umldoclet" xlink:actuate="onRequest" xlink:href="https://github.com/talsma-ict/umldoclet" xlink:show="new" xlink:title="https://github.com/talsma-ict/umldoclet" xlink:type="simple"><text fill="#888888" font-family="sans-serif" font-size="10" lengthAdjust="spacing" textLength="76.7199" x="250.64" y="320.31">UMLDoclet 2.2.1</text></a><!--SRC=[lLHDJnin4BttLqpXK134sImHJIE4X1BKKWMr8k4KSd3ioQuRVsnjBoXj-U-rTqC88LLBAtKF6yKpyzxC-Eq307W3FLCihCXo3zw0puM3wyi1KCqXGusMUkGW5CtGmHIbqPch4n5ewNDZmSogVynOYwumcWkTmKTwIy6PqZ9qvDKhgAX63-XtrAsXJnVni6-OH0zxlVsrbjAaTTn8axGD8ogTed3H6v4bscDDIbBIWe0j1KFj0cIfETgghRE2il0pg2E7S8lM2QD3JRB4YQCoepqLsa51hNTnfC-IQXzxRP78Jzx2tjbmyBItv5tLso6SMKrB3bVcQxaQztLXQHOwbdHXIWzEeQUQrZ4NcjPKXNLHXaCCfDI7JMgZiOhdWYEWAlm2PW8bTvkd0ImtuRWwPv8w1pidJdp3RgjzUYNcZeSBqpsZbF0UiOzCnAb7YmA7fLBKBixL53b7Vi5lzB8oEML6aPooUNf4cA146OwI2Eqnp2S9BOgmOEe34E7KKy8Uy8bGXTo1SAl_X41Us3cCno-i8BbNSZA1xzNYuhFBb_dzeCKknFVpMCJgmj3R8ErLz213tryhtjlVA3zm6mdn5P9kZU1RKI9DHDaaSXifTVmPqftm-JQ-5-veE-1Juh-1lA_LMebX5dI_fjZBA9DFqo_8_E_K61KJr4CByMkzFUQGDUJbn_Bd1N3oWv3_g-YwnnFd5n9FLnSnCoRGhOasFXz2lHq8FUyP6RnZjxCzUXsTK0gDmNpPN6DmYcILUL_JDTVubbmtUZpElIzSjzdCWWpAQPoiwIiNRWZccwMIlBRV3IEUJ9R6-dxbyD4b6wsqaNP6hUDkUXJkFBfgftFSFceV9ArkaepFIsiAR0wzOVFSI3Nv2G00]--></g></svg>