<svg xmlns="http://www.w3.org/2000/svg" xmlns:xlink="http://www.w3.org/1999/xlink" contentStyleType="text/css" height="484px" preserveAspectRatio="none" style="width:462px;height:484px;background:#FFFFFF;" version="1.1" viewBox="0 0 462 484" width="462px" zoomAndPan="magnify"><defs/><g><!--class com.hack23.cia.model.internal.application.data.committee.impl.RiksdagenVoteDataBallotPartyEmbeddedId--><a href="RiksdagenVoteDataBallotPartyEmbeddedId.html" target="_top" title="RiksdagenVoteDataBallotPartyEmbeddedId.html" xlink:actuate="onRequest" xlink:href="RiksdagenVoteDataBallotPartyEmbeddedId.html" xlink:show="new" xlink:title="RiksdagenVoteDataBallotPartyEmbeddedId.html" xlink:type="simple"><g id="elem_com.hack23.cia.model.internal.application.data.committee.impl.RiksdagenVoteDataBallotPartyEmbeddedId"><rect codeLine="13" fill="#F1F1F1" height="363.7746" id="com.hack23.cia.model.internal.application.data.committee.impl.RiksdagenVoteDataBallotPartyEmbeddedId" rx="2.5" ry="2.5" style="stroke:#181818;stroke-width:0.5;" width="449.9184" x="6" y="91"/><ellipse cx="77.4843" cy="112.344" fill="#ADD1B2" rx="11" ry="11" style="stroke:#181818;stroke-width:1.0;"/><path d="M80.453,117.9846 Q79.8749,118.2815 79.2343,118.4221 Q78.5937,118.5783 77.8905,118.5783 Q75.3905,118.5783 74.0624,116.9377 Q72.7499,115.2815 72.7499,112.1565 Q72.7499,109.0315 74.0624,107.3752 Q75.3905,105.719 77.8905,105.719 Q78.5937,105.719 79.2343,105.8752 Q79.8905,106.0315 80.453,106.3283 L80.453,109.0471 Q79.828,108.469 79.2343,108.2033 Q78.6405,107.9221 78.0155,107.9221 Q76.6718,107.9221 75.9843,109.0002 Q75.2968,110.0627 75.2968,112.1565 Q75.2968,114.2502 75.9843,115.3283 Q76.6718,116.3908 78.0155,116.3908 Q78.6405,116.3908 79.2343,116.1252 Q79.828,115.844 80.453,115.2658 L80.453,117.9846 Z " fill="#000000"/><text fill="#000000" font-family="sans-serif" font-size="14" lengthAdjust="spacing" textLength="285.3889" x="104.5147" y="110.9659">RiksdagenVoteDataBallotPartyEmbeddedId</text><text fill="#000000" font-family="sans-serif" font-size="10" lengthAdjust="spacing" textLength="298.4498" x="97.9843" y="125.7579">com.hack23.cia.model.internal.application.data.committee.impl</text><line style="stroke:#181818;stroke-width:0.5;" x1="7" x2="454.9184" y1="133.6879" y2="133.6879"/><polygon fill="none" points="17,143.7219,21,147.7219,17,151.7219,13,147.7219" style="stroke:#B38D22;stroke-width:1.0;"/><text fill="#000000" font-family="sans-serif" font-size="14" lengthAdjust="spacing" textLength="97.3557" x="26" y="152.6538">ballotId: String</text><polygon fill="none" points="17,162.7898,21,166.7898,17,170.7898,13,166.7898" style="stroke:#B38D22;stroke-width:1.0;"/><text fill="#000000" font-family="sans-serif" font-size="14" lengthAdjust="spacing" textLength="99.6796" x="26" y="171.7218">concern: String</text><polygon fill="none" points="17,181.8577,21,185.8577,17,189.8577,13,185.8577" style="stroke:#B38D22;stroke-width:1.0;"/><text fill="#000000" font-family="sans-serif" font-size="14" lengthAdjust="spacing" textLength="80.3597" x="26" y="190.7897">issue: String</text><polygon fill="none" points="17,200.9256,21,204.9256,17,208.9256,13,204.9256" style="stroke:#B38D22;stroke-width:1.0;"/><text fill="#000000" font-family="sans-serif" font-size="14" lengthAdjust="spacing" textLength="81.2277" x="26" y="209.8576">party: String</text><line style="stroke:#181818;stroke-width:0.5;" x1="7" x2="454.9184" y1="217.9596" y2="217.9596"/><ellipse cx="17" cy="232.9935" fill="#84BE84" rx="3" ry="3" style="stroke:#038048;stroke-width:1.0;"/><text fill="#000000" font-family="sans-serif" font-size="14" lengthAdjust="spacing" textLength="127.8055" x="26" y="236.9255">getBallotId(): String</text><ellipse cx="17" cy="252.0614" fill="#84BE84" rx="3" ry="3" style="stroke:#038048;stroke-width:1.0;"/><text fill="#000000" font-family="sans-serif" font-size="14" lengthAdjust="spacing" textLength="153.7054" x="26" y="255.9934">setBallotId(String): void</text><ellipse cx="17" cy="271.1294" fill="#84BE84" rx="3" ry="3" style="stroke:#038048;stroke-width:1.0;"/><text fill="#000000" font-family="sans-serif" font-size="14" lengthAdjust="spacing" textLength="131.7675" x="26" y="275.0613">getConcern(): String</text><ellipse cx="17" cy="290.1973" fill="#84BE84" rx="3" ry="3" style="stroke:#038048;stroke-width:1.0;"/><text fill="#000000" font-family="sans-serif" font-size="14" lengthAdjust="spacing" textLength="157.6674" x="26" y="294.1293">setConcern(String): void</text><ellipse cx="17" cy="309.2652" fill="#84BE84" rx="3" ry="3" style="stroke:#038048;stroke-width:1.0;"/><text fill="#000000" font-family="sans-serif" font-size="14" lengthAdjust="spacing" textLength="111.4536" x="26" y="313.1972">getIssue(): String</text><ellipse cx="17" cy="328.3331" fill="#84BE84" rx="3" ry="3" style="stroke:#038048;stroke-width:1.0;"/><text fill="#000000" font-family="sans-serif" font-size="14" lengthAdjust="spacing" textLength="137.3535" x="26" y="332.2651">setIssue(String): void</text><ellipse cx="17" cy="347.401" fill="#84BE84" rx="3" ry="3" style="stroke:#038048;stroke-width:1.0;"/><text fill="#000000" font-family="sans-serif" font-size="14" lengthAdjust="spacing" textLength="111.0476" x="26" y="351.333">getParty(): String</text><ellipse cx="17" cy="366.4689" fill="#84BE84" rx="3" ry="3" style="stroke:#038048;stroke-width:1.0;"/><text fill="#000000" font-family="sans-serif" font-size="14" lengthAdjust="spacing" textLength="136.9475" x="26" y="370.4009">setParty(String): void</text><ellipse cx="17" cy="385.5369" fill="#84BE84" rx="3" ry="3" style="stroke:#038048;stroke-width:1.0;"/><text fill="#000000" font-family="sans-serif" font-size="14" lengthAdjust="spacing" textLength="419.9564" x="26" y="389.4688">withBallotId(String): RiksdagenVoteDataBallotPartyEmbeddedId</text><ellipse cx="17" cy="404.6048" fill="#84BE84" rx="3" ry="3" style="stroke:#038048;stroke-width:1.0;"/><text fill="#000000" font-family="sans-serif" font-size="14" lengthAdjust="spacing" textLength="423.9184" x="26" y="408.5368">withConcern(String): RiksdagenVoteDataBallotPartyEmbeddedId</text><ellipse cx="17" cy="423.6727" fill="#84BE84" rx="3" ry="3" style="stroke:#038048;stroke-width:1.0;"/><text fill="#000000" font-family="sans-serif" font-size="14" lengthAdjust="spacing" textLength="403.6045" x="26" y="427.6047">withIssue(String): RiksdagenVoteDataBallotPartyEmbeddedId</text><ellipse cx="17" cy="442.7406" fill="#84BE84" rx="3" ry="3" style="stroke:#038048;stroke-width:1.0;"/><text fill="#000000" font-family="sans-serif" font-size="14" lengthAdjust="spacing" textLength="403.1985" x="26" y="446.6726">withParty(String): RiksdagenVoteDataBallotPartyEmbeddedId</text></g></a><!--class com.hack23.cia.model.common.api.ModelObject--><g id="elem_com.hack23.cia.model.common.api.ModelObject"><rect codeLine="32" fill="#F1F1F1" height="42.6879" id="com.hack23.cia.model.common.api.ModelObject" rx="2.5" ry="2.5" style="stroke:#181818;stroke-width:0.5;" width="189.3398" x="136.5" y="12"/><ellipse cx="151.5" cy="33.344" fill="#B4A7E5" rx="11" ry="11" style="stroke:#181818;stroke-width:1.0;"/><path d="M147.4219,29.1096 L147.4219,26.9533 L154.8125,26.9533 L154.8125,29.1096 L152.3438,29.1096 L152.3438,37.1877 L154.8125,37.1877 L154.8125,39.344 L147.4219,39.344 L147.4219,37.1877 L149.8906,37.1877 L149.8906,29.1096 L147.4219,29.1096 Z " fill="#000000"/><text fill="#000000" font-family="sans-serif" font-size="14" font-style="italic" lengthAdjust="spacing" textLength="78.1477" x="205.096" y="31.9659">ModelObject</text><text fill="#000000" font-family="sans-serif" font-size="10" font-style="italic" lengthAdjust="spacing" textLength="157.3398" x="165.5" y="46.7579">com.hack23.cia.model.common.api</text></g><polygon fill="none" points="231,55.1611,225,73.1611,237,73.1611,231,55.1611" style="stroke:#181818;stroke-width:1.0;"/><path d="M231,73.1611 C231,82.641 231,76.8469 231,90.6291 " fill="none" style="stroke:#181818;stroke-width:1.0;stroke-dasharray:7.0,7.0;"/><text fill="#888888" font-family="sans-serif" font-size="10" lengthAdjust="spacing" textLength="2.6" x="226.2" y="459.69">&#160;</text><a href="https://github.com/talsma-ict/umldoclet" target="_top" title="https://github.com/talsma-ict/umldoclet" xlink:actuate="onRequest" xlink:href="https://github.com/talsma-ict/umldoclet" xlink:show="new" xlink:title="https://github.com/talsma-ict/umldoclet" xlink:type="simple"><text fill="#888888" font-family="sans-serif" font-size="10" lengthAdjust="spacing" textLength="76.7199" x="189.14" y="473.31">UMLDoclet 2.2.1</text></a><!--SRC=[lLNVJzim47xdhxZ1mq1GDmtbLuMGeA2jKz4GBNifVN3jQ-BLiJFR0MKR__kSf9JIhbh7fEMbwdrtttrtzla00Dv3MwUv4L7im6bmiR1mTzq5gZX4gD1GXnn4GYEqC4AfLMGhHmIQkLWRqEFo7zF6e4srua95y8a-KB0wCmmjsTY0CbN_cVsHsZdsKLuOBpMJw62xlJCdAGmQXxKm29lGfz8c53hjFfcolSI492GDyDnIC5JMKsQAeobbdQUK-PzkXUp10nehjF8nmPIdA9LfvQXG5b9gd2rAkf5KkK9hWnJvoH5id_UwhxK59wMsFJWtYcOSRlMtR5RkkzJGo2kMDDUP0vkWeufMcFMY5KrykoZ37lgarFbEAgsmn6F14J19NGvZWPBRHQidYxKtbtOcgRMmUMh5TsmrccUtOcAvFp3rHJkyf8vUK2crk_6bvLV923b7tk7tQXeGd36Ta9YoIRXFcA0aqHmb4SgXBqiIcgQ-hzJvhX7ksOXtJuHpY4GagTm4VvZ_n43M4mo3mNgE97Q970xXHzcTujiQbNuTteAUC_v-lY3-v9bNkGm8QpDSDXSN95yoxqReBgOvjdUMOJi7LvXtUj22ls9eLrfM43oZg-CxXUGLqHMsEhRiuOhO2biH-oXSl5pRUYVrccMfmBUGBDJv5eg5Sl-2ugaQoFBYZ_repmtbTJ4IdqTVaRa_JLun7NvIQ2fMpzQB3vbZdhu7wmV0wKz2_ilqLj9EhSibditwFTO-ninDQl5zp5CqNQ4cRItzgxXr_7lqhdZZfL3ermgRAFHlO33pVAhIrUVoJNFTgy4WTYwrhNezygUTZOg2wgxSBpN1N3rB9AyMoyAA6GwdA-F3R7SLxt-j4TR2utxZi1Nk-wCcuN7pA3WuQHxi1erM40okCgDJhFUSPfDOosJu2m00]--></g></svg>