<svg xmlns="http://www.w3.org/2000/svg" xmlns:xlink="http://www.w3.org/1999/xlink" contentStyleType="text/css" height="2009px" preserveAspectRatio="none" style="width:599px;height:2009px;background:#FFFFFF;" version="1.1" viewBox="0 0 599 2009" width="599px" zoomAndPan="magnify"><defs/><g><!--class com.hack23.cia.model.internal.application.data.committee.impl.ViewRiksdagenVoteDataBallotSummaryDaily--><a href="ViewRiksdagenVoteDataBallotSummaryDaily.html" target="_top" title="ViewRiksdagenVoteDataBallotSummaryDaily.html" xlink:actuate="onRequest" xlink:href="ViewRiksdagenVoteDataBallotSummaryDaily.html" xlink:show="new" xlink:title="ViewRiksdagenVoteDataBallotSummaryDaily.html" xlink:type="simple"><g id="elem_com.hack23.cia.model.internal.application.data.committee.impl.ViewRiksdagenVoteDataBallotSummaryDaily"><rect codeLine="13" fill="#F1F1F1" height="1889.2079" id="com.hack23.cia.model.internal.application.data.committee.impl.ViewRiksdagenVoteDataBallotSummaryDaily" rx="2.5" ry="2.5" style="stroke:#181818;stroke-width:0.5;" width="586.6418" x="6" y="91"/><ellipse cx="145.846" cy="112.344" fill="#ADD1B2" rx="11" ry="11" style="stroke:#181818;stroke-width:1.0;"/><path d="M148.8147,117.9846 Q148.2366,118.2815 147.596,118.4221 Q146.9554,118.5783 146.2522,118.5783 Q143.7522,118.5783 142.4241,116.9377 Q141.1116,115.2815 141.1116,112.1565 Q141.1116,109.0315 142.4241,107.3752 Q143.7522,105.719 146.2522,105.719 Q146.9554,105.719 147.596,105.8752 Q148.2522,106.0315 148.8147,106.3283 L148.8147,109.0471 Q148.1897,108.469 147.596,108.2033 Q147.0022,107.9221 146.3772,107.9221 Q145.0335,107.9221 144.346,109.0002 Q143.6585,110.0627 143.6585,112.1565 Q143.6585,114.2502 144.346,115.3283 Q145.0335,116.3908 146.3772,116.3908 Q147.0022,116.3908 147.596,116.1252 Q148.1897,115.844 148.8147,115.2658 L148.8147,117.9846 Z " fill="#000000"/><text fill="#000000" font-family="sans-serif" font-size="14" lengthAdjust="spacing" textLength="293.2709" x="168.9355" y="110.9659">ViewRiksdagenVoteDataBallotSummaryDaily</text><text fill="#000000" font-family="sans-serif" font-size="10" lengthAdjust="spacing" textLength="298.4498" x="166.346" y="125.7579">com.hack23.cia.model.internal.application.data.committee.impl</text><line style="stroke:#181818;stroke-width:0.5;" x1="7" x2="591.6418" y1="133.6879" y2="133.6879"/><polygon fill="none" points="17,143.7219,21,147.7219,17,151.7219,13,147.7219" style="stroke:#B38D22;stroke-width:1.0;"/><text fill="#000000" font-family="sans-serif" font-size="14" lengthAdjust="spacing" textLength="97.9716" x="26" y="152.6538">voteDate: Date</text><polygon fill="none" points="17,162.7898,21,166.7898,17,170.7898,13,166.7898" style="stroke:#B38D22;stroke-width:1.0;"/><text fill="#000000" font-family="sans-serif" font-size="14" lengthAdjust="spacing" textLength="166.7533" x="26" y="171.7218">avgBornYear: BigDecimal</text><polygon fill="none" points="17,181.8577,21,185.8577,17,189.8577,13,185.8577" style="stroke:#B38D22;stroke-width:1.0;"/><text fill="#000000" font-family="sans-serif" font-size="14" lengthAdjust="spacing" textLength="148.2874" x="26" y="190.7897">totalVotes: BigDecimal</text><polygon fill="none" points="17,200.9256,21,204.9256,17,208.9256,13,204.9256" style="stroke:#B38D22;stroke-width:1.0;"/><text fill="#000000" font-family="sans-serif" font-size="14" lengthAdjust="spacing" textLength="139.9854" x="26" y="209.8576">yesVotes: BigDecimal</text><polygon fill="none" points="17,219.9935,21,223.9935,17,227.9935,13,223.9935" style="stroke:#B38D22;stroke-width:1.0;"/><text fill="#000000" font-family="sans-serif" font-size="14" lengthAdjust="spacing" textLength="135.3655" x="26" y="228.9255">noVotes: BigDecimal</text><polygon fill="none" points="17,239.0614,21,243.0614,17,247.0614,13,243.0614" style="stroke:#B38D22;stroke-width:1.0;"/><text fill="#000000" font-family="sans-serif" font-size="14" lengthAdjust="spacing" textLength="166.5854" x="26" y="247.9934">abstainVotes: BigDecimal</text><polygon fill="none" points="17,258.1294,21,262.1294,17,266.1294,13,262.1294" style="stroke:#B38D22;stroke-width:1.0;"/><text fill="#000000" font-family="sans-serif" font-size="14" lengthAdjust="spacing" textLength="163.0154" x="26" y="267.0613">absentVotes: BigDecimal</text><polygon fill="none" points="17,277.1973,21,281.1973,17,285.1973,13,281.1973" style="stroke:#B38D22;stroke-width:1.0;"/><text fill="#000000" font-family="sans-serif" font-size="14" lengthAdjust="spacing" textLength="179.2133" x="26" y="286.1293">percentageYes: BigDecimal</text><polygon fill="none" points="17,296.2652,21,300.2652,17,304.2652,13,300.2652" style="stroke:#B38D22;stroke-width:1.0;"/><text fill="#000000" font-family="sans-serif" font-size="14" lengthAdjust="spacing" textLength="175.7973" x="26" y="305.1972">percentageNo: BigDecimal</text><polygon fill="none" points="17,315.3331,21,319.3331,17,323.3331,13,319.3331" style="stroke:#B38D22;stroke-width:1.0;"/><text fill="#000000" font-family="sans-serif" font-size="14" lengthAdjust="spacing" textLength="202.5512" x="26" y="324.2651">percentageAbsent: BigDecimal</text><polygon fill="none" points="17,334.401,21,338.401,17,342.401,13,338.401" style="stroke:#B38D22;stroke-width:1.0;"/><text fill="#000000" font-family="sans-serif" font-size="14" lengthAdjust="spacing" textLength="206.1212" x="26" y="343.333">percentageAbstain: BigDecimal</text><polygon fill="none" points="17,353.4689,21,357.4689,17,361.4689,13,357.4689" style="stroke:#B38D22;stroke-width:1.0;"/><text fill="#000000" font-family="sans-serif" font-size="14" lengthAdjust="spacing" textLength="133.8255" x="26" y="362.4009">numberBallots: long</text><polygon fill="none" points="17,372.5369,21,376.5369,17,380.5369,13,376.5369" style="stroke:#B38D22;stroke-width:1.0;"/><text fill="#000000" font-family="sans-serif" font-size="14" lengthAdjust="spacing" textLength="129.6115" x="26" y="381.4688">avgTotalVotes: long</text><polygon fill="none" points="17,391.6048,21,395.6048,17,399.6048,13,395.6048" style="stroke:#B38D22;stroke-width:1.0;"/><text fill="#000000" font-family="sans-serif" font-size="14" lengthAdjust="spacing" textLength="144.0875" x="26" y="400.5368">approvedBallots: long</text><polygon fill="none" points="17,410.6727,21,414.6727,17,418.6727,13,414.6727" style="stroke:#B38D22;stroke-width:1.0;"/><text fill="#000000" font-family="sans-serif" font-size="14" lengthAdjust="spacing" textLength="164.3454" x="26" y="419.6047">avgYesVotes: BigDecimal</text><polygon fill="none" points="17,429.7406,21,433.7406,17,437.7406,13,433.7406" style="stroke:#B38D22;stroke-width:1.0;"/><text fill="#000000" font-family="sans-serif" font-size="14" lengthAdjust="spacing" textLength="160.9294" x="26" y="438.6726">avgNoVotes: BigDecimal</text><polygon fill="none" points="17,448.8085,21,452.8085,17,456.8085,13,452.8085" style="stroke:#B38D22;stroke-width:1.0;"/><text fill="#000000" font-family="sans-serif" font-size="14" lengthAdjust="spacing" textLength="191.2533" x="26" y="457.7405">avgAbstainVotes: BigDecimal</text><polygon fill="none" points="17,467.8764,21,471.8764,17,475.8764,13,471.8764" style="stroke:#B38D22;stroke-width:1.0;"/><text fill="#000000" font-family="sans-serif" font-size="14" lengthAdjust="spacing" textLength="187.6833" x="26" y="476.8084">avgAbsentVotes: BigDecimal</text><polygon fill="none" points="17,486.9444,21,490.9444,17,494.9444,13,490.9444" style="stroke:#B38D22;stroke-width:1.0;"/><text fill="#000000" font-family="sans-serif" font-size="14" lengthAdjust="spacing" textLength="220.7231" x="26" y="495.8763">percentageApproved: BigDecimal</text><polygon fill="none" points="17,506.0123,21,510.0123,17,514.0123,13,510.0123" style="stroke:#B38D22;stroke-width:1.0;"/><text fill="#000000" font-family="sans-serif" font-size="14" lengthAdjust="spacing" textLength="202.6492" x="26" y="514.9443">avgPercentageYes: BigDecimal</text><polygon fill="none" points="17,525.0802,21,529.0802,17,533.0802,13,529.0802" style="stroke:#B38D22;stroke-width:1.0;"/><text fill="#000000" font-family="sans-serif" font-size="14" lengthAdjust="spacing" textLength="199.2332" x="26" y="534.0122">avgPercentageNo: BigDecimal</text><polygon fill="none" points="17,544.1481,21,548.1481,17,552.1481,13,548.1481" style="stroke:#B38D22;stroke-width:1.0;"/><text fill="#000000" font-family="sans-serif" font-size="14" lengthAdjust="spacing" textLength="225.9871" x="26" y="553.0801">avgPercentageAbsent: BigDecimal</text><polygon fill="none" points="17,563.216,21,567.216,17,571.216,13,567.216" style="stroke:#B38D22;stroke-width:1.0;"/><text fill="#000000" font-family="sans-serif" font-size="14" lengthAdjust="spacing" textLength="229.5571" x="26" y="572.148">avgPercentageAbstain: BigDecimal</text><polygon fill="none" points="17,582.284,21,586.284,17,590.284,13,586.284" style="stroke:#B38D22;stroke-width:1.0;"/><text fill="#000000" font-family="sans-serif" font-size="14" lengthAdjust="spacing" textLength="212.1832" x="26" y="591.2159">avgPercentageMale: BigDecimal</text><line style="stroke:#181818;stroke-width:0.5;" x1="7" x2="591.6418" y1="599.3179" y2="599.3179"/><ellipse cx="17" cy="614.3519" fill="#84BE84" rx="3" ry="3" style="stroke:#038048;stroke-width:1.0;"/><text fill="#000000" font-family="sans-serif" font-size="14" lengthAdjust="spacing" textLength="129.2195" x="26" y="618.2838">getVoteDate(): Date</text><ellipse cx="17" cy="633.4198" fill="#84BE84" rx="3" ry="3" style="stroke:#038048;stroke-width:1.0;"/><text fill="#000000" font-family="sans-serif" font-size="14" lengthAdjust="spacing" textLength="155.1194" x="26" y="637.3518">setVoteDate(Date): void</text><ellipse cx="17" cy="652.4877" fill="#84BE84" rx="3" ry="3" style="stroke:#038048;stroke-width:1.0;"/><text fill="#000000" font-family="sans-serif" font-size="14" lengthAdjust="spacing" textLength="197.8052" x="26" y="656.4197">getAvgBornYear(): BigDecimal</text><ellipse cx="17" cy="671.5556" fill="#84BE84" rx="3" ry="3" style="stroke:#038048;stroke-width:1.0;"/><text fill="#000000" font-family="sans-serif" font-size="14" lengthAdjust="spacing" textLength="223.7051" x="26" y="675.4876">setAvgBornYear(BigDecimal): void</text><ellipse cx="17" cy="690.6235" fill="#84BE84" rx="3" ry="3" style="stroke:#038048;stroke-width:1.0;"/><text fill="#000000" font-family="sans-serif" font-size="14" lengthAdjust="spacing" textLength="180.9773" x="26" y="694.5555">getTotalVotes(): BigDecimal</text><ellipse cx="17" cy="709.6915" fill="#84BE84" rx="3" ry="3" style="stroke:#038048;stroke-width:1.0;"/><text fill="#000000" font-family="sans-serif" font-size="14" lengthAdjust="spacing" textLength="206.8772" x="26" y="713.6234">setTotalVotes(BigDecimal): void</text><ellipse cx="17" cy="728.7594" fill="#84BE84" rx="3" ry="3" style="stroke:#038048;stroke-width:1.0;"/><text fill="#000000" font-family="sans-serif" font-size="14" lengthAdjust="spacing" textLength="170.7293" x="26" y="732.6913">getYesVotes(): BigDecimal</text><ellipse cx="17" cy="747.8273" fill="#84BE84" rx="3" ry="3" style="stroke:#038048;stroke-width:1.0;"/><text fill="#000000" font-family="sans-serif" font-size="14" lengthAdjust="spacing" textLength="196.6292" x="26" y="751.7593">setYesVotes(BigDecimal): void</text><ellipse cx="17" cy="766.8952" fill="#84BE84" rx="3" ry="3" style="stroke:#038048;stroke-width:1.0;"/><text fill="#000000" font-family="sans-serif" font-size="14" lengthAdjust="spacing" textLength="167.3133" x="26" y="770.8272">getNoVotes(): BigDecimal</text><ellipse cx="17" cy="785.9631" fill="#84BE84" rx="3" ry="3" style="stroke:#038048;stroke-width:1.0;"/><text fill="#000000" font-family="sans-serif" font-size="14" lengthAdjust="spacing" textLength="193.2132" x="26" y="789.8951">setNoVotes(BigDecimal): void</text><ellipse cx="17" cy="805.031" fill="#84BE84" rx="3" ry="3" style="stroke:#038048;stroke-width:1.0;"/><text fill="#000000" font-family="sans-serif" font-size="14" lengthAdjust="spacing" textLength="197.6372" x="26" y="808.963">getAbstainVotes(): BigDecimal</text><ellipse cx="17" cy="824.099" fill="#84BE84" rx="3" ry="3" style="stroke:#038048;stroke-width:1.0;"/><text fill="#000000" font-family="sans-serif" font-size="14" lengthAdjust="spacing" textLength="223.5371" x="26" y="828.0309">setAbstainVotes(BigDecimal): void</text><ellipse cx="17" cy="843.1669" fill="#84BE84" rx="3" ry="3" style="stroke:#038048;stroke-width:1.0;"/><text fill="#000000" font-family="sans-serif" font-size="14" lengthAdjust="spacing" textLength="194.0672" x="26" y="847.0988">getAbsentVotes(): BigDecimal</text><ellipse cx="17" cy="862.2348" fill="#84BE84" rx="3" ry="3" style="stroke:#038048;stroke-width:1.0;"/><text fill="#000000" font-family="sans-serif" font-size="14" lengthAdjust="spacing" textLength="219.9671" x="26" y="866.1668">setAbsentVotes(BigDecimal): void</text><ellipse cx="17" cy="881.3027" fill="#84BE84" rx="3" ry="3" style="stroke:#038048;stroke-width:1.0;"/><text fill="#000000" font-family="sans-serif" font-size="14" lengthAdjust="spacing" textLength="209.0332" x="26" y="885.2347">getPercentageYes(): BigDecimal</text><ellipse cx="17" cy="900.3706" fill="#84BE84" rx="3" ry="3" style="stroke:#038048;stroke-width:1.0;"/><text fill="#000000" font-family="sans-serif" font-size="14" lengthAdjust="spacing" textLength="234.9331" x="26" y="904.3026">setPercentageYes(BigDecimal): void</text><ellipse cx="17" cy="919.4385" fill="#84BE84" rx="3" ry="3" style="stroke:#038048;stroke-width:1.0;"/><text fill="#000000" font-family="sans-serif" font-size="14" lengthAdjust="spacing" textLength="205.6172" x="26" y="923.3705">getPercentageNo(): BigDecimal</text><ellipse cx="17" cy="938.5065" fill="#84BE84" rx="3" ry="3" style="stroke:#038048;stroke-width:1.0;"/><text fill="#000000" font-family="sans-serif" font-size="14" lengthAdjust="spacing" textLength="231.5171" x="26" y="942.4384">setPercentageNo(BigDecimal): void</text><ellipse cx="17" cy="957.5744" fill="#84BE84" rx="3" ry="3" style="stroke:#038048;stroke-width:1.0;"/><text fill="#000000" font-family="sans-serif" font-size="14" lengthAdjust="spacing" textLength="232.3711" x="26" y="961.5063">getPercentageAbsent(): BigDecimal</text><ellipse cx="17" cy="976.6423" fill="#84BE84" rx="3" ry="3" style="stroke:#038048;stroke-width:1.0;"/><text fill="#000000" font-family="sans-serif" font-size="14" lengthAdjust="spacing" textLength="258.271" x="26" y="980.5743">setPercentageAbsent(BigDecimal): void</text><ellipse cx="17" cy="995.7102" fill="#84BE84" rx="3" ry="3" style="stroke:#038048;stroke-width:1.0;"/><text fill="#000000" font-family="sans-serif" font-size="14" lengthAdjust="spacing" textLength="235.9411" x="26" y="999.6422">getPercentageAbstain(): BigDecimal</text><ellipse cx="17" cy="1014.7781" fill="#84BE84" rx="3" ry="3" style="stroke:#038048;stroke-width:1.0;"/><text fill="#000000" font-family="sans-serif" font-size="14" lengthAdjust="spacing" textLength="261.841" x="26" y="1018.7101">setPercentageAbstain(BigDecimal): void</text><ellipse cx="17" cy="1033.846" fill="#84BE84" rx="3" ry="3" style="stroke:#038048;stroke-width:1.0;"/><text fill="#000000" font-family="sans-serif" font-size="14" lengthAdjust="spacing" textLength="165.7734" x="26" y="1037.778">getNumberBallots(): long</text><ellipse cx="17" cy="1052.914" fill="#84BE84" rx="3" ry="3" style="stroke:#038048;stroke-width:1.0;"/><text fill="#000000" font-family="sans-serif" font-size="14" lengthAdjust="spacing" textLength="191.6733" x="26" y="1056.8459">setNumberBallots(long): void</text><ellipse cx="17" cy="1071.9819" fill="#84BE84" rx="3" ry="3" style="stroke:#038048;stroke-width:1.0;"/><text fill="#000000" font-family="sans-serif" font-size="14" lengthAdjust="spacing" textLength="160.6634" x="26" y="1075.9138">getAvgTotalVotes(): long</text><ellipse cx="17" cy="1091.0498" fill="#84BE84" rx="3" ry="3" style="stroke:#038048;stroke-width:1.0;"/><text fill="#000000" font-family="sans-serif" font-size="14" lengthAdjust="spacing" textLength="186.5633" x="26" y="1094.9818">setAvgTotalVotes(long): void</text><ellipse cx="17" cy="1110.1177" fill="#84BE84" rx="3" ry="3" style="stroke:#038048;stroke-width:1.0;"/><text fill="#000000" font-family="sans-serif" font-size="14" lengthAdjust="spacing" textLength="175.1393" x="26" y="1114.0497">getApprovedBallots(): long</text><ellipse cx="17" cy="1129.1856" fill="#84BE84" rx="3" ry="3" style="stroke:#038048;stroke-width:1.0;"/><text fill="#000000" font-family="sans-serif" font-size="14" lengthAdjust="spacing" textLength="201.0392" x="26" y="1133.1176">setApprovedBallots(long): void</text><ellipse cx="17" cy="1148.2535" fill="#84BE84" rx="3" ry="3" style="stroke:#038048;stroke-width:1.0;"/><text fill="#000000" font-family="sans-serif" font-size="14" lengthAdjust="spacing" textLength="195.3972" x="26" y="1152.1855">getAvgYesVotes(): BigDecimal</text><ellipse cx="17" cy="1167.3215" fill="#84BE84" rx="3" ry="3" style="stroke:#038048;stroke-width:1.0;"/><text fill="#000000" font-family="sans-serif" font-size="14" lengthAdjust="spacing" textLength="221.2971" x="26" y="1171.2534">setAvgYesVotes(BigDecimal): void</text><ellipse cx="17" cy="1186.3894" fill="#84BE84" rx="3" ry="3" style="stroke:#038048;stroke-width:1.0;"/><text fill="#000000" font-family="sans-serif" font-size="14" lengthAdjust="spacing" textLength="191.9812" x="26" y="1190.3214">getAvgNoVotes(): BigDecimal</text><ellipse cx="17" cy="1205.4573" fill="#84BE84" rx="3" ry="3" style="stroke:#038048;stroke-width:1.0;"/><text fill="#000000" font-family="sans-serif" font-size="14" lengthAdjust="spacing" textLength="217.8811" x="26" y="1209.3893">setAvgNoVotes(BigDecimal): void</text><ellipse cx="17" cy="1224.5252" fill="#84BE84" rx="3" ry="3" style="stroke:#038048;stroke-width:1.0;"/><text fill="#000000" font-family="sans-serif" font-size="14" lengthAdjust="spacing" textLength="222.3051" x="26" y="1228.4572">getAvgAbstainVotes(): BigDecimal</text><ellipse cx="17" cy="1243.5931" fill="#84BE84" rx="3" ry="3" style="stroke:#038048;stroke-width:1.0;"/><text fill="#000000" font-family="sans-serif" font-size="14" lengthAdjust="spacing" textLength="248.205" x="26" y="1247.5251">setAvgAbstainVotes(BigDecimal): void</text><ellipse cx="17" cy="1262.661" fill="#84BE84" rx="3" ry="3" style="stroke:#038048;stroke-width:1.0;"/><text fill="#000000" font-family="sans-serif" font-size="14" lengthAdjust="spacing" textLength="218.7352" x="26" y="1266.593">getAvgAbsentVotes(): BigDecimal</text><ellipse cx="17" cy="1281.729" fill="#84BE84" rx="3" ry="3" style="stroke:#038048;stroke-width:1.0;"/><text fill="#000000" font-family="sans-serif" font-size="14" lengthAdjust="spacing" textLength="244.6351" x="26" y="1285.6609">setAvgAbsentVotes(BigDecimal): void</text><ellipse cx="17" cy="1300.7969" fill="#84BE84" rx="3" ry="3" style="stroke:#038048;stroke-width:1.0;"/><text fill="#000000" font-family="sans-serif" font-size="14" lengthAdjust="spacing" textLength="250.543" x="26" y="1304.7289">getPercentageApproved(): BigDecimal</text><ellipse cx="17" cy="1319.8648" fill="#84BE84" rx="3" ry="3" style="stroke:#038048;stroke-width:1.0;"/><text fill="#000000" font-family="sans-serif" font-size="14" lengthAdjust="spacing" textLength="276.4429" x="26" y="1323.7968">setPercentageApproved(BigDecimal): void</text><ellipse cx="17" cy="1338.9327" fill="#84BE84" rx="3" ry="3" style="stroke:#038048;stroke-width:1.0;"/><text fill="#000000" font-family="sans-serif" font-size="14" lengthAdjust="spacing" textLength="233.7011" x="26" y="1342.8647">getAvgPercentageYes(): BigDecimal</text><ellipse cx="17" cy="1358.0006" fill="#84BE84" rx="3" ry="3" style="stroke:#038048;stroke-width:1.0;"/><text fill="#000000" font-family="sans-serif" font-size="14" lengthAdjust="spacing" textLength="259.601" x="26" y="1361.9326">setAvgPercentageYes(BigDecimal): void</text><ellipse cx="17" cy="1377.0685" fill="#84BE84" rx="3" ry="3" style="stroke:#038048;stroke-width:1.0;"/><text fill="#000000" font-family="sans-serif" font-size="14" lengthAdjust="spacing" textLength="230.2851" x="26" y="1381.0005">getAvgPercentageNo(): BigDecimal</text><ellipse cx="17" cy="1396.1365" fill="#84BE84" rx="3" ry="3" style="stroke:#038048;stroke-width:1.0;"/><text fill="#000000" font-family="sans-serif" font-size="14" lengthAdjust="spacing" textLength="256.185" x="26" y="1400.0684">setAvgPercentageNo(BigDecimal): void</text><ellipse cx="17" cy="1415.2044" fill="#84BE84" rx="3" ry="3" style="stroke:#038048;stroke-width:1.0;"/><text fill="#000000" font-family="sans-serif" font-size="14" lengthAdjust="spacing" textLength="257.039" x="26" y="1419.1364">getAvgPercentageAbsent(): BigDecimal</text><ellipse cx="17" cy="1434.2723" fill="#84BE84" rx="3" ry="3" style="stroke:#038048;stroke-width:1.0;"/><text fill="#000000" font-family="sans-serif" font-size="14" lengthAdjust="spacing" textLength="282.9389" x="26" y="1438.2043">setAvgPercentageAbsent(BigDecimal): void</text><ellipse cx="17" cy="1453.3402" fill="#84BE84" rx="3" ry="3" style="stroke:#038048;stroke-width:1.0;"/><text fill="#000000" font-family="sans-serif" font-size="14" lengthAdjust="spacing" textLength="260.609" x="26" y="1457.2722">getAvgPercentageAbstain(): BigDecimal</text><ellipse cx="17" cy="1472.4081" fill="#84BE84" rx="3" ry="3" style="stroke:#038048;stroke-width:1.0;"/><text fill="#000000" font-family="sans-serif" font-size="14" lengthAdjust="spacing" textLength="286.5089" x="26" y="1476.3401">setAvgPercentageAbstain(BigDecimal): void</text><ellipse cx="17" cy="1491.476" fill="#84BE84" rx="3" ry="3" style="stroke:#038048;stroke-width:1.0;"/><text fill="#000000" font-family="sans-serif" font-size="14" lengthAdjust="spacing" textLength="243.235" x="26" y="1495.408">getAvgPercentageMale(): BigDecimal</text><ellipse cx="17" cy="1510.544" fill="#84BE84" rx="3" ry="3" style="stroke:#038048;stroke-width:1.0;"/><text fill="#000000" font-family="sans-serif" font-size="14" lengthAdjust="spacing" textLength="269.1349" x="26" y="1514.4759">setAvgPercentageMale(BigDecimal): void</text><ellipse cx="17" cy="1529.6119" fill="#84BE84" rx="3" ry="3" style="stroke:#038048;stroke-width:1.0;"/><text fill="#000000" font-family="sans-serif" font-size="14" lengthAdjust="spacing" textLength="429.2523" x="26" y="1533.5439">withVoteDate(Date): ViewRiksdagenVoteDataBallotSummaryDaily</text><ellipse cx="17" cy="1548.6798" fill="#84BE84" rx="3" ry="3" style="stroke:#038048;stroke-width:1.0;"/><text fill="#000000" font-family="sans-serif" font-size="14" lengthAdjust="spacing" textLength="497.8381" x="26" y="1552.6118">withAvgBornYear(BigDecimal): ViewRiksdagenVoteDataBallotSummaryDaily</text><ellipse cx="17" cy="1567.7477" fill="#84BE84" rx="3" ry="3" style="stroke:#038048;stroke-width:1.0;"/><text fill="#000000" font-family="sans-serif" font-size="14" lengthAdjust="spacing" textLength="481.0101" x="26" y="1571.6797">withTotalVotes(BigDecimal): ViewRiksdagenVoteDataBallotSummaryDaily</text><ellipse cx="17" cy="1586.8156" fill="#84BE84" rx="3" ry="3" style="stroke:#038048;stroke-width:1.0;"/><text fill="#000000" font-family="sans-serif" font-size="14" lengthAdjust="spacing" textLength="470.7621" x="26" y="1590.7476">withYesVotes(BigDecimal): ViewRiksdagenVoteDataBallotSummaryDaily</text><ellipse cx="17" cy="1605.8835" fill="#84BE84" rx="3" ry="3" style="stroke:#038048;stroke-width:1.0;"/><text fill="#000000" font-family="sans-serif" font-size="14" lengthAdjust="spacing" textLength="467.3462" x="26" y="1609.8155">withNoVotes(BigDecimal): ViewRiksdagenVoteDataBallotSummaryDaily</text><ellipse cx="17" cy="1624.9515" fill="#84BE84" rx="3" ry="3" style="stroke:#038048;stroke-width:1.0;"/><text fill="#000000" font-family="sans-serif" font-size="14" lengthAdjust="spacing" textLength="497.67" x="26" y="1628.8834">withAbstainVotes(BigDecimal): ViewRiksdagenVoteDataBallotSummaryDaily</text><ellipse cx="17" cy="1644.0194" fill="#84BE84" rx="3" ry="3" style="stroke:#038048;stroke-width:1.0;"/><text fill="#000000" font-family="sans-serif" font-size="14" lengthAdjust="spacing" textLength="494.1001" x="26" y="1647.9514">withAbsentVotes(BigDecimal): ViewRiksdagenVoteDataBallotSummaryDaily</text><ellipse cx="17" cy="1663.0873" fill="#84BE84" rx="3" ry="3" style="stroke:#038048;stroke-width:1.0;"/><text fill="#000000" font-family="sans-serif" font-size="14" lengthAdjust="spacing" textLength="509.066" x="26" y="1667.0193">withPercentageYes(BigDecimal): ViewRiksdagenVoteDataBallotSummaryDaily</text><ellipse cx="17" cy="1682.1552" fill="#84BE84" rx="3" ry="3" style="stroke:#038048;stroke-width:1.0;"/><text fill="#000000" font-family="sans-serif" font-size="14" lengthAdjust="spacing" textLength="505.65" x="26" y="1686.0872">withPercentageNo(BigDecimal): ViewRiksdagenVoteDataBallotSummaryDaily</text><ellipse cx="17" cy="1701.2231" fill="#84BE84" rx="3" ry="3" style="stroke:#038048;stroke-width:1.0;"/><text fill="#000000" font-family="sans-serif" font-size="14" lengthAdjust="spacing" textLength="532.404" x="26" y="1705.1551">withPercentageAbsent(BigDecimal): ViewRiksdagenVoteDataBallotSummaryDaily</text><ellipse cx="17" cy="1720.291" fill="#84BE84" rx="3" ry="3" style="stroke:#038048;stroke-width:1.0;"/><text fill="#000000" font-family="sans-serif" font-size="14" lengthAdjust="spacing" textLength="535.9739" x="26" y="1724.223">withPercentageAbstain(BigDecimal): ViewRiksdagenVoteDataBallotSummaryDaily</text><ellipse cx="17" cy="1739.359" fill="#84BE84" rx="3" ry="3" style="stroke:#038048;stroke-width:1.0;"/><text fill="#000000" font-family="sans-serif" font-size="14" lengthAdjust="spacing" textLength="465.8062" x="26" y="1743.2909">withNumberBallots(long): ViewRiksdagenVoteDataBallotSummaryDaily</text><ellipse cx="17" cy="1758.4269" fill="#84BE84" rx="3" ry="3" style="stroke:#038048;stroke-width:1.0;"/><text fill="#000000" font-family="sans-serif" font-size="14" lengthAdjust="spacing" textLength="460.6962" x="26" y="1762.3589">withAvgTotalVotes(long): ViewRiksdagenVoteDataBallotSummaryDaily</text><ellipse cx="17" cy="1777.4948" fill="#84BE84" rx="3" ry="3" style="stroke:#038048;stroke-width:1.0;"/><text fill="#000000" font-family="sans-serif" font-size="14" lengthAdjust="spacing" textLength="475.1722" x="26" y="1781.4268">withApprovedBallots(long): ViewRiksdagenVoteDataBallotSummaryDaily</text><ellipse cx="17" cy="1796.5627" fill="#84BE84" rx="3" ry="3" style="stroke:#038048;stroke-width:1.0;"/><text fill="#000000" font-family="sans-serif" font-size="14" lengthAdjust="spacing" textLength="495.4301" x="26" y="1800.4947">withAvgYesVotes(BigDecimal): ViewRiksdagenVoteDataBallotSummaryDaily</text><ellipse cx="17" cy="1815.6306" fill="#84BE84" rx="3" ry="3" style="stroke:#038048;stroke-width:1.0;"/><text fill="#000000" font-family="sans-serif" font-size="14" lengthAdjust="spacing" textLength="492.0141" x="26" y="1819.5626">withAvgNoVotes(BigDecimal): ViewRiksdagenVoteDataBallotSummaryDaily</text><ellipse cx="17" cy="1834.6985" fill="#84BE84" rx="3" ry="3" style="stroke:#038048;stroke-width:1.0;"/><text fill="#000000" font-family="sans-serif" font-size="14" lengthAdjust="spacing" textLength="522.338" x="26" y="1838.6305">withAvgAbstainVotes(BigDecimal): ViewRiksdagenVoteDataBallotSummaryDaily</text><ellipse cx="17" cy="1853.7665" fill="#84BE84" rx="3" ry="3" style="stroke:#038048;stroke-width:1.0;"/><text fill="#000000" font-family="sans-serif" font-size="14" lengthAdjust="spacing" textLength="518.768" x="26" y="1857.6984">withAvgAbsentVotes(BigDecimal): ViewRiksdagenVoteDataBallotSummaryDaily</text><ellipse cx="17" cy="1872.8344" fill="#84BE84" rx="3" ry="3" style="stroke:#038048;stroke-width:1.0;"/><text fill="#000000" font-family="sans-serif" font-size="14" lengthAdjust="spacing" textLength="550.5759" x="26" y="1876.7664">withPercentageApproved(BigDecimal): ViewRiksdagenVoteDataBallotSummaryDaily</text><ellipse cx="17" cy="1891.9023" fill="#84BE84" rx="3" ry="3" style="stroke:#038048;stroke-width:1.0;"/><text fill="#000000" font-family="sans-serif" font-size="14" lengthAdjust="spacing" textLength="533.7339" x="26" y="1895.8343">withAvgPercentageYes(BigDecimal): ViewRiksdagenVoteDataBallotSummaryDaily</text><ellipse cx="17" cy="1910.9702" fill="#84BE84" rx="3" ry="3" style="stroke:#038048;stroke-width:1.0;"/><text fill="#000000" font-family="sans-serif" font-size="14" lengthAdjust="spacing" textLength="530.3179" x="26" y="1914.9022">withAvgPercentageNo(BigDecimal): ViewRiksdagenVoteDataBallotSummaryDaily</text><ellipse cx="17" cy="1930.0381" fill="#84BE84" rx="3" ry="3" style="stroke:#038048;stroke-width:1.0;"/><text fill="#000000" font-family="sans-serif" font-size="14" lengthAdjust="spacing" textLength="557.0718" x="26" y="1933.9701">withAvgPercentageAbsent(BigDecimal): ViewRiksdagenVoteDataBallotSummaryDaily</text><ellipse cx="17" cy="1949.106" fill="#84BE84" rx="3" ry="3" style="stroke:#038048;stroke-width:1.0;"/><text fill="#000000" font-family="sans-serif" font-size="14" lengthAdjust="spacing" textLength="560.6418" x="26" y="1953.038">withAvgPercentageAbstain(BigDecimal): ViewRiksdagenVoteDataBallotSummaryDaily</text><ellipse cx="17" cy="1968.174" fill="#84BE84" rx="3" ry="3" style="stroke:#038048;stroke-width:1.0;"/><text fill="#000000" font-family="sans-serif" font-size="14" lengthAdjust="spacing" textLength="543.2679" x="26" y="1972.1059">withAvgPercentageMale(BigDecimal): ViewRiksdagenVoteDataBallotSummaryDaily</text></g></a><!--class com.hack23.cia.model.common.api.ModelObject--><g id="elem_com.hack23.cia.model.common.api.ModelObject"><rect codeLine="112" fill="#F1F1F1" height="42.6879" id="com.hack23.cia.model.common.api.ModelObject" rx="2.5" ry="2.5" style="stroke:#181818;stroke-width:0.5;" width="189.3398" x="205" y="12"/><ellipse cx="220" cy="33.344" fill="#B4A7E5" rx="11" ry="11" style="stroke:#181818;stroke-width:1.0;"/><path d="M215.9219,29.1096 L215.9219,26.9533 L223.3125,26.9533 L223.3125,29.1096 L220.8438,29.1096 L220.8438,37.1877 L223.3125,37.1877 L223.3125,39.344 L215.9219,39.344 L215.9219,37.1877 L218.3906,37.1877 L218.3906,29.1096 L215.9219,29.1096 Z " fill="#000000"/><text fill="#000000" font-family="sans-serif" font-size="14" font-style="italic" lengthAdjust="spacing" textLength="78.1477" x="273.596" y="31.9659">ModelObject</text><text fill="#000000" font-family="sans-serif" font-size="10" font-style="italic" lengthAdjust="spacing" textLength="157.3398" x="234" y="46.7579">com.hack23.cia.model.common.api</text></g><polygon fill="none" points="299.5,55.3864,293.5,73.3864,305.5,73.3864,299.5,55.3864" style="stroke:#181818;stroke-width:1.0;"/><path d="M299.5,73.3864 C299.5,82.5019 299.5,76.4052 299.5,90.7057 " fill="none" style="stroke:#181818;stroke-width:1.0;stroke-dasharray:7.0,7.0;"/><text fill="#888888" font-family="sans-serif" font-size="10" lengthAdjust="spacing" textLength="2.6" x="294.7" y="1984.69">&#160;</text><a href="https://github.com/talsma-ict/umldoclet" target="_top" title="https://github.com/talsma-ict/umldoclet" xlink:actuate="onRequest" xlink:href="https://github.com/talsma-ict/umldoclet" xlink:show="new" xlink:title="https://github.com/talsma-ict/umldoclet" xlink:type="simple"><text fill="#888888" font-family="sans-serif" font-size="10" lengthAdjust="spacing" textLength="76.7199" x="257.64" y="1998.31">UMLDoclet 2.2.1</text></a><!--SRC=[lPXHRzis4CVV-ocuzc4fqj2oqwMT4GHmag7Ra6H5unO8N3_GqaNYJ96QI3bmktxtaP9iIxP4oN8mFTYm-EUFn-CTppY44FePNObe6LC_K4W9f08gqUVR6qIuXtpW41C57g8XyK6Y6J31VPa90P541I96uZ7zvOeu1Xa9xb7kep_9WY0fajW5YL-yGEbIunNzYSW2VROqBw-5oq2XewlN1PC6Jl_iPE0Ctg8nOJ8aw8-hCSvfcpa3FC1zfDcCki2bHYRSWpWrQnGHLt_TP2Dlq09YIGNNSvoSOxRg2gu8vH9595RIREaZ8rmPM_lOh8_VeQFH_KtPDkVNrBOtQ1HpadZea_WdMM_tfoWclhQOaQL8598XAC99DYQrqPo4sbt4XNlGYnAbFSa5XtGye1uW22ErH8yKc2UttsfO8FJhzBtBY9JevRcats3OVtlnXSBJ9pgNdZuq_aKek2QAN1B6XBfFmf34osj2sV8hpsSu5wu8SK3S-U0KkvJWK7Z0CEKAzBuO9b6a7KkKTXlsD0fhUKYL0i0qZDXBf4_p809kQJ6QJ5egSQ12DfsYxwc3pFDgaObXYCpdvZrP-9SYvWz0uY6wfFurk3hSsKQWX2BCB2MhnvSWBQDSM0R9J9gmiok0AuiW0frYEdXzU6YMt8acnIXThuNAs5spuoISGPoTYRR8N1abRuyB_jmQZA9OBC2hd_jWzRKMt0dx-AZPuwcehTD7kScrh8_DvrDIrHrHIMGxfMrX_K6LbBU4GQNis0UL9neSlTxAdcDP63GVMh0Gr2lD7cqop02grf1brKPInTi4a0LN4Dbfgv2oiDOIEocFFGjefR1pYZ5gSrXHraXS1RGTk5RPUQMWjX3BkhRCEz4AgMLjYTdEMb5pwHvaSmXjqQcs8OgArwVXbYx1D8fA2ZDSatNbHDdXb1MrdFAbN4tQqbXiQf5kHLL3NAylV3kkPTwLouCTkK_sbIfA8tRl75nvlrqGhiIDDhTDyXtf7cHhgcyhz-0s9doLUZz-GzfNolTOmTJZjlXKQs4_KHLiL-cMVwJBaDeQtObMLw8xmQflZ4weojkYcxzgBuckkEhBeHFDahG7yhPpzK1SLNeUZjnDo6x1KbMCkoRNRZdkHgeknrsjUiRKggl5NM7FdM2M0dnen5NMtQvMFdVkMaljuSHdo-3cgdeuThUQxiFyaVNaqjRN8t6Xq9UxDKsnlsP_WwkQUc-cFoOu9X6jxwvjDBX0pbk2xIUWytyn_d_wTvbjvr8j6LoiJ-1Hw0bneLLddj-N4SGtbC-l11CnUlM-UlIpwVCooc4SK7VEGKhah9K_ikLwXVNojRxooIHGAfB3Ni_Nvv_Cp8vwAkqndr1NzPAGULbpUQlDF9tcRUCFw_wrwG6Vz0SdW_VZ_jbmSAhF6lVVdVxYwEVisEaF7MVoMnAB27htIhZpGB1m-Xy0]--></g></svg>