<svg xmlns="http://www.w3.org/2000/svg" xmlns:xlink="http://www.w3.org/1999/xlink" contentStyleType="text/css" data-diagram-type="CLASS" height="465px" preserveAspectRatio="none" style="width:323px;height:465px;background:#FFFFFF;" version="1.1" viewBox="0 0 323 465" width="323px" zoomAndPan="magnify"><defs/><g><!--class com.hack23.cia.model.external.val.partier.impl.SwedenElectionRegion--><g class="entity" data-entity="com.hack23.cia.model.external.val.partier.impl.SwedenElectionRegion" data-source-line="13" data-uid="ent0002" id="entity_com.hack23.cia.model.external.val.partier.impl.SwedenElectionRegion"><a href="SwedenElectionRegion.html" target="_top" title="SwedenElectionRegion.html" xlink:actuate="onRequest" xlink:href="SwedenElectionRegion.html" xlink:show="new" xlink:title="SwedenElectionRegion.html" xlink:type="simple"><rect fill="#F1F1F1" height="344.7067" rx="2.5" ry="2.5" style="stroke:#181818;stroke-width:0.5;" width="310.4089" x="6" y="91"/><ellipse cx="47.4866" cy="112.344" fill="#ADD1B2" rx="11" ry="11" style="stroke:#181818;stroke-width:1;"/><path d="M50.4553,117.9846 Q49.8772,118.2815 49.2366,118.4221 Q48.596,118.5783 47.8928,118.5783 Q45.3928,118.5783 44.0647,116.9377 Q42.7522,115.2815 42.7522,112.1565 Q42.7522,109.0315 44.0647,107.3752 Q45.3928,105.719 47.8928,105.719 Q48.596,105.719 49.2366,105.8752 Q49.8928,106.0315 50.4553,106.3283 L50.4553,109.0471 Q49.8303,108.469 49.2366,108.2033 Q48.6428,107.9221 48.0178,107.9221 Q46.6741,107.9221 45.9866,109.0002 Q45.2991,110.0627 45.2991,112.1565 Q45.2991,114.2502 45.9866,115.3283 Q46.6741,116.3908 48.0178,116.3908 Q48.6428,116.3908 49.2366,116.1252 Q49.8303,115.844 50.4553,115.2658 L50.4553,117.9846 Z " fill="#000000"/><text fill="#000000" font-family="sans-serif" font-size="14" lengthAdjust="spacing" textLength="149.4914" x="102.4017" y="110.9659">SwedenElectionRegion</text><text fill="#000000" font-family="sans-serif" font-size="10" lengthAdjust="spacing" textLength="219.5499" x="67.3725" y="125.7579">com.hack23.cia.model.external.val.partier.impl</text><line style="stroke:#181818;stroke-width:0.5;" x1="7" x2="315.4089" y1="133.6879" y2="133.6879"/><polygon fill="none" points="17,143.7219,21,147.7219,17,151.7219,13,147.7219" style="stroke:#B38D22;stroke-width:1;"/><text fill="#000000" font-family="sans-serif" font-size="14" lengthAdjust="spacing" textLength="104.8316" x="26" y="152.6538">countyId: String</text><polygon fill="none" points="17,162.7898,21,166.7898,17,170.7898,13,166.7898" style="stroke:#B38D22;stroke-width:1;"/><text fill="#000000" font-family="sans-serif" font-size="14" lengthAdjust="spacing" textLength="124.5575" x="26" y="171.7218">municipalId: String</text><polygon fill="none" points="17,181.8577,21,185.8577,17,189.8577,13,185.8577" style="stroke:#B38D22;stroke-width:1;"/><text fill="#000000" font-family="sans-serif" font-size="14" lengthAdjust="spacing" textLength="129.2895" x="26" y="190.7897">regionName: String</text><polygon fill="none" points="17,200.9256,21,204.9256,17,208.9256,13,204.9256" style="stroke:#B38D22;stroke-width:1;"/><text fill="#000000" font-family="sans-serif" font-size="14" lengthAdjust="spacing" textLength="228.6891" x="26" y="209.8576">parties: List&lt;SwedenPoliticalParty&gt;</text><polygon fill="none" points="17,219.9935,21,223.9935,17,227.9935,13,223.9935" style="stroke:#B38D22;stroke-width:1;"/><text fill="#000000" font-family="sans-serif" font-size="14" lengthAdjust="spacing" textLength="64.9457" x="26" y="228.9255">hjid: Long</text><line style="stroke:#181818;stroke-width:0.5;" x1="7" x2="315.4089" y1="237.0275" y2="237.0275"/><ellipse cx="17" cy="252.0614" fill="#84BE84" rx="3" ry="3" style="stroke:#038048;stroke-width:1;"/><text fill="#000000" font-family="sans-serif" font-size="14" lengthAdjust="spacing" textLength="136.9195" x="26" y="255.9934">getCountyId(): String</text><ellipse cx="17" cy="271.1294" fill="#84BE84" rx="3" ry="3" style="stroke:#038048;stroke-width:1;"/><text fill="#000000" font-family="sans-serif" font-size="14" lengthAdjust="spacing" textLength="162.8194" x="26" y="275.0613">setCountyId(String): void</text><ellipse cx="17" cy="290.1973" fill="#84BE84" rx="3" ry="3" style="stroke:#038048;stroke-width:1;"/><text fill="#000000" font-family="sans-serif" font-size="14" lengthAdjust="spacing" textLength="154.1254" x="26" y="294.1293">getMunicipalId(): String</text><ellipse cx="17" cy="309.2652" fill="#84BE84" rx="3" ry="3" style="stroke:#038048;stroke-width:1;"/><text fill="#000000" font-family="sans-serif" font-size="14" lengthAdjust="spacing" textLength="180.0253" x="26" y="313.1972">setMunicipalId(String): void</text><ellipse cx="17" cy="328.3331" fill="#84BE84" rx="3" ry="3" style="stroke:#038048;stroke-width:1;"/><text fill="#000000" font-family="sans-serif" font-size="14" lengthAdjust="spacing" textLength="162.1754" x="26" y="332.2651">getRegionName(): String</text><ellipse cx="17" cy="347.401" fill="#84BE84" rx="3" ry="3" style="stroke:#038048;stroke-width:1;"/><text fill="#000000" font-family="sans-serif" font-size="14" lengthAdjust="spacing" textLength="188.0753" x="26" y="351.333">setRegionName(String): void</text><ellipse cx="17" cy="366.4689" fill="#84BE84" rx="3" ry="3" style="stroke:#038048;stroke-width:1;"/><text fill="#000000" font-family="sans-serif" font-size="14" lengthAdjust="spacing" textLength="258.509" x="26" y="370.4009">getParties(): List&lt;SwedenPoliticalParty&gt;</text><ellipse cx="17" cy="385.5369" fill="#84BE84" rx="3" ry="3" style="stroke:#038048;stroke-width:1;"/><text fill="#000000" font-family="sans-serif" font-size="14" lengthAdjust="spacing" textLength="284.4089" x="26" y="389.4688">setParties(List&lt;SwedenPoliticalParty&gt;): void</text><ellipse cx="17" cy="404.6048" fill="#84BE84" rx="3" ry="3" style="stroke:#038048;stroke-width:1;"/><text fill="#000000" font-family="sans-serif" font-size="14" lengthAdjust="spacing" textLength="96.6276" x="26" y="408.5368">getHjid(): Long</text><ellipse cx="17" cy="423.6727" fill="#84BE84" rx="3" ry="3" style="stroke:#038048;stroke-width:1;"/><text fill="#000000" font-family="sans-serif" font-size="14" lengthAdjust="spacing" textLength="122.5275" x="26" y="427.6047">setHjid(Long): void</text></a></g><!--class com.hack23.cia.model.common.api.ModelObject--><g class="entity" data-entity="com.hack23.cia.model.common.api.ModelObject" data-source-line="31" data-uid="ent0003" id="entity_com.hack23.cia.model.common.api.ModelObject"><rect fill="#F1F1F1" height="42.6879" rx="2.5" ry="2.5" style="stroke:#181818;stroke-width:0.5;" width="189.3398" x="66.5" y="12"/><ellipse cx="81.5" cy="33.344" fill="#B4A7E5" rx="11" ry="11" style="stroke:#181818;stroke-width:1;"/><path d="M77.4219,29.1096 L77.4219,26.9533 L84.8125,26.9533 L84.8125,29.1096 L82.3438,29.1096 L82.3438,37.1877 L84.8125,37.1877 L84.8125,39.344 L77.4219,39.344 L77.4219,37.1877 L79.8906,37.1877 L79.8906,29.1096 L77.4219,29.1096 Z " fill="#000000"/><text fill="#000000" font-family="sans-serif" font-size="14" font-style="italic" lengthAdjust="spacing" textLength="78.1477" x="135.096" y="31.9659">ModelObject</text><text fill="#000000" font-family="sans-serif" font-size="10" font-style="italic" lengthAdjust="spacing" textLength="157.3398" x="95.5" y="46.7579">com.hack23.cia.model.common.api</text></g><g class="link" data-entity-1="com.hack23.cia.model.common.api.ModelObject" data-entity-2="com.hack23.cia.model.external.val.partier.impl.SwedenElectionRegion" data-uid="lnk4" id="link_com.hack23.cia.model.common.api.ModelObject_com.hack23.cia.model.external.val.partier.impl.SwedenElectionRegion"><polygon fill="none" points="161,55.1356,155,73.1356,167,73.1356,161,55.1356" style="stroke:#181818;stroke-width:1;"/><path d="M161,73.1356 C161,82.6723 161,76.9554 161,90.7761" fill="none" style="stroke:#181818;stroke-width:1;stroke-dasharray:7,7;"/></g><g class="footer" data-source-line="41"><text fill="#888888" font-family="sans-serif" font-size="10" lengthAdjust="spacing" textLength="2.6" x="156.2" y="440.69">&#160;</text><a href="https://github.com/talsma-ict/umldoclet" target="_top" title="https://github.com/talsma-ict/umldoclet" xlink:actuate="onRequest" xlink:href="https://github.com/talsma-ict/umldoclet" xlink:show="new" xlink:title="https://github.com/talsma-ict/umldoclet" xlink:type="simple"><text fill="#888888" font-family="sans-serif" font-size="10" lengthAdjust="spacing" textLength="76.7199" x="119.14" y="454.31">UMLDoclet 2.2.4</text></a></g><!--SRC=[hLJVJzj037xdh_3WOI3eDIdbLrKXeGuDfh9Lj3oLFbmlRdBqSfVbBcNTnly-9objW5PZqY8bKVpPdpyxFWC0V8IEIUQf32C7pe2Bf8Mxcovm7K286bFkC00Pyn0jZ54P7ThI4O5dBZ8fc4dn9KoQeasC3gGEuGkVSR0cImLQjhK5HQh1C_iZjnNsyJmtVZ92eOFTpbv5KiFpZsiDht4C0wvipE6wCs0BjbLCWpLO4uXRIO7Q4cMc0qmBMHS95_JgbiW1p32rqcYAyHOyUQd2QCUbjf3mrDcyf9xYskLQVKRvZvZlmUv5l_jId7TMY3k0YrJpB81RyprRrliXINb8aXMVcyo1ZT5npKlCachDO-eN5zX7oieTjL8RZGKUoG01uyJDOI9H1VQrbSWYG-R2BXIt5hRRLlx4bjyyxpzYWFfIeN1KwYs6zBpN2zWx5oPc4HVJnY4JahFO1AWO_d18HIWsepllWiIKoJXHsq0_wzz2s3e1C1okCxF8nMeqWbz59Vcr8qoctVmwQ47VfJHCAoJEj1GouMeTc1PyNwchRx5IdMtH75ZNBdNqZ99E2gvw1CxFLyxHWoJwhgaGx8VeEWjPktjl-FTj1IunSfeP6RnWk5d9tq1IzTZCSxkiT0DDnM4pIw_iIKxnZgxajCyHcztNvRcYTXP9p2kL1P1Rgr5FvKXBJRCreSDH6UkRVEg-ZHzeVFuspMICQRPu8ZUFxyg7LPWN9-hz0T3-pTZ_E21bvhPrSuMhla-C8PBAySYlgtc2QLVgQSSeMXixf-lHktmBAgcH5g-OQgGbuIqzdyfqzKg-HQvxFHn6pYMsLQ-7qaNPE2-zxeeDN9F2rRDO1UNgVRM4HwF5KlsytExvWgnvpPhl3_ncwz1lDK_OeNTsUjBmZxnzhz7olE5bbfe4wtrdn3GoAXxz0G00]--></g></svg>