<svg xmlns="http://www.w3.org/2000/svg" xmlns:xlink="http://www.w3.org/1999/xlink" contentStyleType="text/css" height="331px" preserveAspectRatio="none" style="width:458px;height:331px;background:#FFFFFF;" version="1.1" viewBox="0 0 458 331" width="458px" zoomAndPan="magnify"><defs/><g><!--class com.hack23.cia.web.impl.ui.application.views.common.dataseriesfactory.impl.PartyDataSeriesFactoryImpl--><a href="PartyDataSeriesFactoryImpl.html" target="_top" title="PartyDataSeriesFactoryImpl.html" xlink:actuate="onRequest" xlink:href="PartyDataSeriesFactoryImpl.html" xlink:show="new" xlink:title="PartyDataSeriesFactoryImpl.html" xlink:type="simple"><g id="elem_com.hack23.cia.web.impl.ui.application.views.common.dataseriesfactory.impl.PartyDataSeriesFactoryImpl"><rect codeLine="13" fill="#F1F1F1" height="126.9596" id="com.hack23.cia.web.impl.ui.application.views.common.dataseriesfactory.impl.PartyDataSeriesFactoryImpl" rx="2.5" ry="2.5" style="stroke:#181818;stroke-width:0.5;" width="445.7043" x="6" y="175"/><ellipse cx="43.3626" cy="196.344" fill="#ADD1B2" rx="11" ry="11" style="stroke:#181818;stroke-width:1.0;"/><path d="M46.3314,201.9846 Q45.7532,202.2815 45.1126,202.4221 Q44.472,202.5783 43.7689,202.5783 Q41.2689,202.5783 39.9407,200.9377 Q38.6282,199.2815 38.6282,196.1565 Q38.6282,193.0315 39.9407,191.3752 Q41.2689,189.719 43.7689,189.719 Q44.472,189.719 45.1126,189.8752 Q45.7689,190.0315 46.3314,190.3283 L46.3314,193.0471 Q45.7064,192.469 45.1126,192.2033 Q44.5189,191.9221 43.8939,191.9221 Q42.5501,191.9221 41.8626,193.0002 Q41.1751,194.0627 41.1751,196.1565 Q41.1751,198.2502 41.8626,199.3283 Q42.5501,200.3908 43.8939,200.3908 Q44.5189,200.3908 45.1126,200.1252 Q45.7064,199.844 46.3314,199.2658 L46.3314,201.9846 Z " fill="#000000"/><text fill="#000000" font-family="sans-serif" font-size="14" lengthAdjust="spacing" textLength="183.2033" x="152.7352" y="194.9659">PartyDataSeriesFactoryImpl</text><text fill="#000000" font-family="sans-serif" font-size="10" lengthAdjust="spacing" textLength="364.0096" x="62.3321" y="209.7579">com.hack23.cia.web.impl.ui.application.views.common.dataseriesfactory.impl</text><line style="stroke:#181818;stroke-width:0.5;" x1="7" x2="450.7043" y1="217.6879" y2="217.6879"/><ellipse cx="17" cy="232.7219" fill="#84BE84" rx="3" ry="3" style="stroke:#038048;stroke-width:1.0;"/><text fill="#000000" font-family="sans-serif" font-size="14" lengthAdjust="spacing" textLength="409.9184" x="26" y="236.6538">createChartTimeSeriesCurrentCommitteeByParty(): DataSeries</text><ellipse cx="17" cy="251.7898" fill="#84BE84" rx="3" ry="3" style="stroke:#038048;stroke-width:1.0;"/><text fill="#000000" font-family="sans-serif" font-size="14" lengthAdjust="spacing" textLength="419.7043" x="26" y="255.7218">createChartTimeSeriesCurrentGovernmentByParty(): DataSeries</text><ellipse cx="17" cy="270.8577" fill="#84BE84" rx="3" ry="3" style="stroke:#038048;stroke-width:1.0;"/><text fill="#000000" font-family="sans-serif" font-size="14" lengthAdjust="spacing" textLength="286.1729" x="26" y="274.7897">createPartyChartTimeSeriesAll(): DataSeries</text><ellipse cx="17" cy="289.9256" fill="#84BE84" rx="3" ry="3" style="stroke:#038048;stroke-width:1.0;"/><text fill="#000000" font-family="sans-serif" font-size="14" lengthAdjust="spacing" textLength="320.6688" x="26" y="293.8576">createPartyChartTimeSeriesCurrent(): DataSeries</text></g></a><!--class com.hack23.cia.web.impl.ui.application.views.common.dataseriesfactory.api.PartyDataSeriesFactory--><a href="../api/PartyDataSeriesFactory.html" target="_top" title="../api/PartyDataSeriesFactory.html" xlink:actuate="onRequest" xlink:href="../api/PartyDataSeriesFactory.html" xlink:show="new" xlink:title="../api/PartyDataSeriesFactory.html" xlink:type="simple"><g id="elem_com.hack23.cia.web.impl.ui.application.views.common.dataseriesfactory.api.PartyDataSeriesFactory"><rect codeLine="20" fill="#F1F1F1" height="126.9596" id="com.hack23.cia.web.impl.ui.application.views.common.dataseriesfactory.api.PartyDataSeriesFactory" rx="2.5" ry="2.5" style="stroke:#181818;stroke-width:0.5;" width="417.9846" x="20" y="12"/><ellipse cx="56.2062" cy="33.344" fill="#B4A7E5" rx="11" ry="11" style="stroke:#181818;stroke-width:1.0;"/><path d="M52.1281,29.1096 L52.1281,26.9533 L59.5187,26.9533 L59.5187,29.1096 L57.05,29.1096 L57.05,37.1877 L59.5187,37.1877 L59.5187,39.344 L52.1281,39.344 L52.1281,37.1877 L54.5968,37.1877 L54.5968,29.1096 L52.1281,29.1096 Z " fill="#000000"/><text fill="#000000" font-family="sans-serif" font-size="14" font-style="italic" lengthAdjust="spacing" textLength="144.4234" x="172.1368" y="31.9659">PartyDataSeriesFactory</text><text fill="#000000" font-family="sans-serif" font-size="10" font-style="italic" lengthAdjust="spacing" textLength="338.8596" x="74.9187" y="46.7579">com.hack23.cia.web.impl.ui.application.views.common.dataseriesfactory.api</text><line style="stroke:#181818;stroke-width:0.5;" x1="21" x2="436.9846" y1="54.6879" y2="54.6879"/><ellipse cx="31" cy="69.7219" fill="#84BE84" rx="3" ry="3" style="stroke:#038048;stroke-width:1.0;"/><text fill="#000000" font-family="sans-serif" font-size="14" font-style="italic" lengthAdjust="spacing" textLength="382.8986" x="40" y="73.6538">createChartTimeSeriesCurrentCommitteeByParty(): DataSeries</text><ellipse cx="31" cy="88.7898" fill="#84BE84" rx="3" ry="3" style="stroke:#038048;stroke-width:1.0;"/><text fill="#000000" font-family="sans-serif" font-size="14" font-style="italic" lengthAdjust="spacing" textLength="391.9846" x="40" y="92.7218">createChartTimeSeriesCurrentGovernmentByParty(): DataSeries</text><ellipse cx="31" cy="107.8577" fill="#84BE84" rx="3" ry="3" style="stroke:#038048;stroke-width:1.0;"/><text fill="#000000" font-family="sans-serif" font-size="14" font-style="italic" lengthAdjust="spacing" textLength="268.365" x="40" y="111.7897">createPartyChartTimeSeriesAll(): DataSeries</text><ellipse cx="31" cy="126.9256" fill="#84BE84" rx="3" ry="3" style="stroke:#038048;stroke-width:1.0;"/><text fill="#000000" font-family="sans-serif" font-size="14" font-style="italic" lengthAdjust="spacing" textLength="300.4808" x="40" y="130.8576">createPartyChartTimeSeriesCurrent(): DataSeries</text></g></a><polygon fill="none" points="229,139.2078,223,157.2078,235,157.2078,229,139.2078" style="stroke:#181818;stroke-width:1.0;"/><path d="M229,157.2078 C229,168.9508 229,163.2255 229,174.9633 " fill="none" style="stroke:#181818;stroke-width:1.0;stroke-dasharray:7.0,7.0;"/><text fill="#888888" font-family="sans-serif" font-size="10" lengthAdjust="spacing" textLength="2.6" x="224.2" y="306.69">&#160;</text><a href="https://github.com/talsma-ict/umldoclet" target="_top" title="https://github.com/talsma-ict/umldoclet" xlink:actuate="onRequest" xlink:href="https://github.com/talsma-ict/umldoclet" xlink:show="new" xlink:title="https://github.com/talsma-ict/umldoclet" xlink:type="simple"><text fill="#888888" font-family="sans-serif" font-size="10" lengthAdjust="spacing" textLength="76.7199" x="187.14" y="320.31">UMLDoclet 2.2.1</text></a><!--SRC=[lPLBJzj04CVlV8efFHG4MJiFNX52IaDBgL89DU4KSjYi9_4gwrrtTntaKhvxntOQKXuYI6bzIRmpyvk7__O007o0habpAwUn1s_0nzB1zRSUS1t153LQxZ42cV0fEXYZCdhgAaS4dldOM32JyauOQz6bHaTIJ-4hdtDm9hC27TlQWZBLu0_zbhiL-ZWl3i-DKEXXfxkxKb8Zh1_M6c7Z40PSkOJ3PNV05hI7c0Phi3eGMqc1sX4oqn7QignEoWNzz2hBFipHEcaqnOGBJj6gCDfpgHsat7fNj7IbkFP5hNL6-Lli27Ow_TxVjOKdPMtxqB6QPn5yDp-oPRllKikdLB7YkSayk0GzrxooEIfQyuJ6nGNsaP9oJvFKHcDfZsM4W4dgSvX8L95xV4gmsD1nUIuKTmwsJvtyYUrww-oAUiZFkUTzj1BTPou8dbycgRhH2wVmJ9Y4nLpC6aqc96UtE6QIF5Wc6KzJ6YJtD2OsbtZh63adT1CHqvNCISKiGxQ1dkRcSEpbyc4uVDd8Of-eqGZkofaKrvwmI0BhnXGpa0bM8TsCTAfzbsgGtYD-p4lcpcuR7hZhCIuCgKadz6yjIEdoYDHHwkr1Y_JF1DvNYf3QewMXugkgsBWYU2etA0YYlQ07qW9Z0Tc3v-rFvN37nyvRijvlH1dhujOLoLFUs_IoNlohqlddp-tq5sF_vtDHDNJgVAxmR3cdYJ7qSgpeehY-v2dQdjIphb7q8Nv__BprkbWhIcgaJIPc6kcp6ouzxwjqmKg-HQuRFHp6tgUk7GHJwUDiNFGK-7AbrQJmGPQegDfbZxRQQBJOKXVBTLcid5hOg8NDGRtPRjNRhHOxE3e-EZWyQHxlXVLs60u_PTQa6FIz4RFOg6Jq6m00]--></g></svg>