<svg xmlns="http://www.w3.org/2000/svg" xmlns:xlink="http://www.w3.org/1999/xlink" contentStyleType="text/css" data-diagram-type="CLASS" height="228px" preserveAspectRatio="none" style="width:435px;height:228px;background:#FFFFFF;" version="1.1" viewBox="0 0 435 228" width="435px" zoomAndPan="magnify"><defs/><g><!--class com.hack23.cia.service.impl.CoalitionPredictionService--><g class="entity" data-entity="com.hack23.cia.service.impl.CoalitionPredictionService" data-source-line="13" data-uid="ent0002" id="entity_com.hack23.cia.service.impl.CoalitionPredictionService"><a href="CoalitionPredictionService.html" target="_top" title="CoalitionPredictionService.html" xlink:actuate="onRequest" xlink:href="CoalitionPredictionService.html" xlink:show="new" xlink:title="CoalitionPredictionService.html" xlink:type="simple"><rect fill="#F1F1F1" height="107.8917" rx="2.5" ry="2.5" style="stroke:#181818;stroke-width:0.5;" width="422.2125" x="6" y="12"/><ellipse cx="132.1395" cy="33.344" fill="#B4A7E5" rx="11" ry="11" style="stroke:#181818;stroke-width:1;"/><path d="M128.0614,29.1096 L128.0614,26.9533 L135.452,26.9533 L135.452,29.1096 L132.9833,29.1096 L132.9833,37.1877 L135.452,37.1877 L135.452,39.344 L128.0614,39.344 L128.0614,37.1877 L130.5302,37.1877 L130.5302,29.1096 L128.0614,29.1096 Z " fill="#000000"/><text fill="#000000" font-family="sans-serif" font-size="14" font-style="italic" lengthAdjust="spacing" textLength="161.4334" x="152.6395" y="31.9659">CoalitionPredictionService</text><text fill="#000000" font-family="sans-serif" font-size="10" font-style="italic" lengthAdjust="spacing" textLength="123.6699" x="171.5213" y="46.7579">com.hack23.cia.service.impl</text><line style="stroke:#181818;stroke-width:0.5;" x1="7" x2="427.2125" y1="54.6879" y2="54.6879"/><ellipse cx="17" cy="69.7219" fill="#84BE84" rx="3" ry="3" style="stroke:#038048;stroke-width:1;"/><text fill="#000000" font-family="sans-serif" font-size="14" font-style="italic" lengthAdjust="spacing" textLength="303.4628" x="26" y="73.6538">predictCoalitions(String): List&lt;CoalitionScenario&gt;</text><ellipse cx="17" cy="88.7898" fill="#84BE84" rx="3" ry="3" style="stroke:#038048;stroke-width:1;"/><text fill="#000000" font-family="sans-serif" font-size="14" font-style="italic" lengthAdjust="spacing" textLength="396.2125" x="26" y="92.7218">getAlignmentMatrix(String): Map&lt;String, Map&lt;String, Double&gt;&gt;</text><ellipse cx="17" cy="107.8577" fill="#84BE84" rx="3" ry="3" style="stroke:#038048;stroke-width:1;"/><text fill="#000000" font-family="sans-serif" font-size="14" font-style="italic" lengthAdjust="spacing" textLength="290.0229" x="26" y="111.7897">calculateStabilityIndex(List&lt;String&gt;, String): int</text></a></g><!--class com.hack23.cia.service.impl.CoalitionPredictionService.CoalitionScenario--><g class="entity" data-entity="com.hack23.cia.service.impl.CoalitionPredictionService.CoalitionScenario" data-source-line="18" data-uid="ent0003" id="entity_com.hack23.cia.service.impl.CoalitionPredictionService.CoalitionScenario"><a href="CoalitionPredictionService.CoalitionScenario.html" target="_top" title="CoalitionPredictionService.CoalitionScenario.html" xlink:actuate="onRequest" xlink:href="CoalitionPredictionService.CoalitionScenario.html" xlink:show="new" xlink:title="CoalitionPredictionService.CoalitionScenario.html" xlink:type="simple"><rect fill="#F1F1F1" height="42.6879" rx="2.5" ry="2.5" style="stroke:#181818;stroke-width:0.5;" width="322.3729" x="56" y="156"/><ellipse cx="71" cy="177.344" fill="#ADD1B2" rx="11" ry="11" style="stroke:#181818;stroke-width:1;"/><path d="M73.9688,182.9846 Q73.3906,183.2815 72.75,183.4221 Q72.1094,183.5783 71.4063,183.5783 Q68.9063,183.5783 67.5781,181.9377 Q66.2656,180.2815 66.2656,177.1565 Q66.2656,174.0315 67.5781,172.3752 Q68.9063,170.719 71.4063,170.719 Q72.1094,170.719 72.75,170.8752 Q73.4063,171.0315 73.9688,171.3283 L73.9688,174.0471 Q73.3438,173.469 72.75,173.2033 Q72.1563,172.9221 71.5313,172.9221 Q70.1875,172.9221 69.5,174.0002 Q68.8125,175.0627 68.8125,177.1565 Q68.8125,179.2502 69.5,180.3283 Q70.1875,181.3908 71.5313,181.3908 Q72.1563,181.3908 72.75,181.1252 Q73.3438,180.844 73.9688,180.2658 L73.9688,182.9846 Z " fill="#000000"/><text fill="#000000" font-family="sans-serif" font-size="14" lengthAdjust="spacing" textLength="290.3729" x="85" y="175.9659">CoalitionPredictionService.CoalitionScenario</text><text fill="#000000" font-family="sans-serif" font-size="10" lengthAdjust="spacing" textLength="130.5999" x="164.8865" y="190.7579">com.hack23.cia.service.impl</text></a></g><g class="link" data-entity-1="com.hack23.cia.service.impl.CoalitionPredictionService" data-entity-2="com.hack23.cia.service.impl.CoalitionPredictionService.CoalitionScenario" data-uid="lnk4" id="link_com.hack23.cia.service.impl.CoalitionPredictionService_com.hack23.cia.service.impl.CoalitionPredictionService.CoalitionScenario"><ellipse cx="217" cy="128.1462" fill="#FFFFFF" rx="8" ry="8" style="stroke:#181818;stroke-width:1;"/><line style="stroke:#181818;stroke-width:1;" x1="217" x2="217" y1="136.1462" y2="120.1462"/><line style="stroke:#181818;stroke-width:1;" x1="209" x2="225" y1="128.1462" y2="128.1462"/><path d="M217,136.1462 C217,148.8969 217,145.7637 217,155.9772" fill="none" style="stroke:#181818;stroke-width:1;"/></g><g class="footer" data-source-line="28"><text fill="#888888" font-family="sans-serif" font-size="10" lengthAdjust="spacing" textLength="2.6" x="212.2" y="203.69">&#160;</text><a href="https://github.com/talsma-ict/umldoclet" target="_top" title="https://github.com/talsma-ict/umldoclet" xlink:actuate="onRequest" xlink:href="https://github.com/talsma-ict/umldoclet" xlink:show="new" xlink:title="https://github.com/talsma-ict/umldoclet" xlink:type="simple"><text fill="#888888" font-family="sans-serif" font-size="10" lengthAdjust="spacing" textLength="76.7199" x="175.14" y="217.31">UMLDoclet 2.2.4</text></a></g><!--SRC=[jLJVJzim47xdhxYnXnNHkaaeCAggKbMcZQb8Q2bFXOUhuoPM7Jkp7KQ7-DztIRfIVcgQjYXARD_vk-_ydGy0u0ECJR6oCiqyU0C-amukpoU0Ee5KQ67HYmHaZgbmC1VAwDGrZWAmz9cnO1RrZ1jhXIkCJgHEuIlU83XJMYuSszc1EjJqD_eFT5leyrMrU6gu4XvQuxqjIb4G7dMY83g2AIgN8voDfsoDzh0dOX7h0M4hoOLs15dgHDYQrgX0Jhz9Osd3ZR1E6arxWZLEbIetsgFK3WgqtbKfNIZKlk8QCef_oC80MgDuyfXSS5AJQyF8QYmJ-6Q-bvjytnKMKwAiS6LA3ouN7ZKsDaUiDUPqNiX5B2WgUZfARRIexPbC18Yyy2jOIA4IztILm393o_Mwr5xO1I71xi39dw8VzePZWqfwolJ2YaJoQXGBUqF7SANNJi6Gcvnbo9VH0UCIcMiScCmBjGkaqHjszde0cCrUDxBCv-hw6kvgvjLpXtFdBN9_3_j5uxxPxbgnjrHFUtrIqFd1nX2Jd6Yb6Ru8ame_KZBLkT3-70dXzW7d78j1Csa_6f-QSgx4y6L0ZegNYgerzZYNH65rHXLsswf9DGZ3DcnYa20rp7tzvGgT-oDfsBFy_hjOpqE-BTypzxMWJIN-PS7iTph_Z7v3PE3yYjJSYBamXkx8LjLLpvTL8Un4wkNOABfzxp- -RBsicecIMb3_uaijICnWuzb8FEXknLl7kjApMUPzuVhTRYfzLiuPvTZrTIFhK1RTCbT9qy6Uz38wpgOtVTuqoQhFT89U9moduM4_EA2N7VUEZuw3y2JQ3w9-4Cm-bTOKeXjxmvUPKVdrBm00]--></g></svg>