<svg xmlns="http://www.w3.org/2000/svg" xmlns:xlink="http://www.w3.org/1999/xlink" contentStyleType="text/css" data-diagram-type="CLASS" height="293px" preserveAspectRatio="none" style="width:457px;height:293px;background:#FFFFFF;" version="1.1" viewBox="0 0 457 293" width="457px" zoomAndPan="magnify"><defs/><g><!--class com.hack23.cia.service.impl.CoalitionPredictionServiceImpl--><g class="entity" data-entity="com.hack23.cia.service.impl.CoalitionPredictionServiceImpl" data-source-line="13" data-uid="ent0002" id="entity_com.hack23.cia.service.impl.CoalitionPredictionServiceImpl"><a href="CoalitionPredictionServiceImpl.html" target="_top" title="CoalitionPredictionServiceImpl.html" xlink:actuate="onRequest" xlink:href="CoalitionPredictionServiceImpl.html" xlink:show="new" xlink:title="CoalitionPredictionServiceImpl.html" xlink:type="simple"><rect fill="#F1F1F1" height="107.8917" rx="2.5" ry="2.5" style="stroke:#181818;stroke-width:0.5;" width="444.6685" x="6" y="156"/><ellipse cx="123.1726" cy="177.344" fill="#ADD1B2" rx="11" ry="11" style="stroke:#181818;stroke-width:1;"/><path d="M126.1414,182.9846 Q125.5633,183.2815 124.9226,183.4221 Q124.282,183.5783 123.5789,183.5783 Q121.0789,183.5783 119.7508,181.9377 Q118.4383,180.2815 118.4383,177.1565 Q118.4383,174.0315 119.7508,172.3752 Q121.0789,170.719 123.5789,170.719 Q124.282,170.719 124.9226,170.8752 Q125.5789,171.0315 126.1414,171.3283 L126.1414,174.0471 Q125.5164,173.469 124.9226,173.2033 Q124.3289,172.9221 123.7039,172.9221 Q122.3601,172.9221 121.6726,174.0002 Q120.9851,175.0627 120.9851,177.1565 Q120.9851,179.2502 121.6726,180.3283 Q122.3601,181.3908 123.7039,181.3908 Q124.3289,181.3908 124.9226,181.1252 Q125.5164,180.844 126.1414,180.2658 L126.1414,182.9846 Z " fill="#000000"/><text fill="#000000" font-family="sans-serif" font-size="14" lengthAdjust="spacing" textLength="201.8232" x="143.6726" y="175.9659">CoalitionPredictionServiceImpl</text><text fill="#000000" font-family="sans-serif" font-size="10" lengthAdjust="spacing" textLength="130.5999" x="179.2843" y="190.7579">com.hack23.cia.service.impl</text><line style="stroke:#181818;stroke-width:0.5;" x1="7" x2="449.6685" y1="198.6879" y2="198.6879"/><ellipse cx="17" cy="213.7219" fill="#84BE84" rx="3" ry="3" style="stroke:#038048;stroke-width:1;"/><text fill="#000000" font-family="sans-serif" font-size="14" lengthAdjust="spacing" textLength="319.9408" x="26" y="217.6538">predictCoalitions(String): List&lt;CoalitionScenario&gt;</text><ellipse cx="17" cy="232.7898" fill="#84BE84" rx="3" ry="3" style="stroke:#038048;stroke-width:1;"/><text fill="#000000" font-family="sans-serif" font-size="14" lengthAdjust="spacing" textLength="418.6685" x="26" y="236.7218">getAlignmentMatrix(String): Map&lt;String, Map&lt;String, Double&gt;&gt;</text><ellipse cx="17" cy="251.8577" fill="#84BE84" rx="3" ry="3" style="stroke:#038048;stroke-width:1;"/><text fill="#000000" font-family="sans-serif" font-size="14" lengthAdjust="spacing" textLength="305.5349" x="26" y="255.7897">calculateStabilityIndex(List&lt;String&gt;, String): int</text></a></g><!--class com.hack23.cia.service.impl.CoalitionPredictionService--><g class="entity" data-entity="com.hack23.cia.service.impl.CoalitionPredictionService" data-source-line="19" data-uid="ent0003" id="entity_com.hack23.cia.service.impl.CoalitionPredictionService"><a href="CoalitionPredictionService.html" target="_top" title="CoalitionPredictionService.html" xlink:actuate="onRequest" xlink:href="CoalitionPredictionService.html" xlink:show="new" xlink:title="CoalitionPredictionService.html" xlink:type="simple"><rect fill="#F1F1F1" height="107.8917" rx="2.5" ry="2.5" style="stroke:#181818;stroke-width:0.5;" width="422.2125" x="17.5" y="12"/><ellipse cx="143.6395" cy="33.344" fill="#B4A7E5" rx="11" ry="11" style="stroke:#181818;stroke-width:1;"/><path d="M139.5614,29.1096 L139.5614,26.9533 L146.952,26.9533 L146.952,29.1096 L144.4833,29.1096 L144.4833,37.1877 L146.952,37.1877 L146.952,39.344 L139.5614,39.344 L139.5614,37.1877 L142.0302,37.1877 L142.0302,29.1096 L139.5614,29.1096 Z " fill="#000000"/><text fill="#000000" font-family="sans-serif" font-size="14" font-style="italic" lengthAdjust="spacing" textLength="161.4334" x="164.1395" y="31.9659">CoalitionPredictionService</text><text fill="#000000" font-family="sans-serif" font-size="10" font-style="italic" lengthAdjust="spacing" textLength="123.6699" x="183.0213" y="46.7579">com.hack23.cia.service.impl</text><line style="stroke:#181818;stroke-width:0.5;" x1="18.5" x2="438.7125" y1="54.6879" y2="54.6879"/><ellipse cx="28.5" cy="69.7219" fill="#84BE84" rx="3" ry="3" style="stroke:#038048;stroke-width:1;"/><text fill="#000000" font-family="sans-serif" font-size="14" font-style="italic" lengthAdjust="spacing" textLength="303.4628" x="37.5" y="73.6538">predictCoalitions(String): List&lt;CoalitionScenario&gt;</text><ellipse cx="28.5" cy="88.7898" fill="#84BE84" rx="3" ry="3" style="stroke:#038048;stroke-width:1;"/><text fill="#000000" font-family="sans-serif" font-size="14" font-style="italic" lengthAdjust="spacing" textLength="396.2125" x="37.5" y="92.7218">getAlignmentMatrix(String): Map&lt;String, Map&lt;String, Double&gt;&gt;</text><ellipse cx="28.5" cy="107.8577" fill="#84BE84" rx="3" ry="3" style="stroke:#038048;stroke-width:1;"/><text fill="#000000" font-family="sans-serif" font-size="14" font-style="italic" lengthAdjust="spacing" textLength="290.0229" x="37.5" y="111.7897">calculateStabilityIndex(List&lt;String&gt;, String): int</text></a></g><g class="link" data-entity-1="com.hack23.cia.service.impl.CoalitionPredictionService" data-entity-2="com.hack23.cia.service.impl.CoalitionPredictionServiceImpl" data-uid="lnk4" id="link_com.hack23.cia.service.impl.CoalitionPredictionService_com.hack23.cia.service.impl.CoalitionPredictionServiceImpl"><polygon fill="none" points="228.5,120.2796,222.5,138.2796,234.5,138.2796,228.5,120.2796" style="stroke:#181818;stroke-width:1;"/><path d="M228.5,138.2796 C228.5,149.9268 228.5,144.2537 228.5,155.8941" fill="none" style="stroke:#181818;stroke-width:1;stroke-dasharray:7,7;"/></g><g class="footer" data-source-line="33"><text fill="#888888" font-family="sans-serif" font-size="10" lengthAdjust="spacing" textLength="2.6" x="223.7" y="268.69">&#160;</text><a href="https://github.com/talsma-ict/umldoclet" target="_top" title="https://github.com/talsma-ict/umldoclet" xlink:actuate="onRequest" xlink:href="https://github.com/talsma-ict/umldoclet" xlink:show="new" xlink:title="https://github.com/talsma-ict/umldoclet" xlink:type="simple"><text fill="#888888" font-family="sans-serif" font-size="10" lengthAdjust="spacing" textLength="76.7199" x="186.64" y="282.31">UMLDoclet 2.2.4</text></a></g><!--SRC=[jLJVRzCm47xdhpZ60vtMkcdsYrLLfQf3CDH94-sUkZvS7JUnwjZ1TiRAsF_E9IbPDb2564IH4llklk_kFli00Dx2s6GRA-F4WpVW4-dW-d82g2E8XHOMlOX0fXWB1qkXZ8vTvIW0SvyO2sPLhhYnLhZCw4Zg63xXBO8pkUN2iLUleAIQ_KJ_Ygw1ljmKc-U6A-6XDTvlf1G6lPDE68GdC4FbKeIByOnjqHvZGXQo8o1i9RdGZY1p7GbRfZNAaDDdKbdQS2kiaqPJJB35AKhbHdkKsa66rhkYf2k5sXUvzXZn7xDU0AtHTF8qkU2iJAuD8winZ-2p-PBNzRxEBCQKiiADoJsuL7ZKMDaSPQqnfNuX5rD1hEYfbTfeKTeJ6GaGQUOti992HUxvBe4bXhRBVQxGETWREFbDz7j7mx519JrLUML597dnDnNsbbfmaMRgHcyTWo4tAKkGhyD3nYKoLpanILvxG1hjiBFT932VxtPWYK_LOW7tPGN5Sv1LVdMSQqszfSEqtoVvd1_KXYbfYLQQuMDiBFn8oLYdGljBfB2xn-1Bp0RLelta_zpaIoM63HIEYkUA3kNKur8IsUQ23j9TgwIlmePjg86bzcNiGoK3BOLTaQ1_9CL_bs6d1B-s_nwNpbla_k55IZHX_eaeJS2NwVENRHnyP-m5Dw7Y7ZY_eRBggbR6q65fjBzuFcuoOITIhyT6qJHuy-xtrkjYk2cf1SrJljQ2xdvGUpvKTDq6tvRhHi_dYVUPwtUxiVH9lcHKLTUNWxL3UNVpL4NLH7qsMnUBxQpyK0_jOkvrWgDEhpVh7VU3GthPsUbfU186XwS7GTWFWldxt9fCTAVUy7LYLBhu0G00]--></g></svg>