<svg xmlns="http://www.w3.org/2000/svg" xmlns:xlink="http://www.w3.org/1999/xlink" contentStyleType="text/css" height="259px" preserveAspectRatio="none" style="width:543px;height:259px;background:#FFFFFF;" version="1.1" viewBox="0 0 543 259" width="543px" zoomAndPan="magnify"><defs/><g><!--cluster com.hack23.cia.web.impl.ui.application.views.user.partyranking--><g id="cluster_com.hack23.cia.web.impl.ui.application.views.user.partyranking"><path d="M16.5,98 L467.7803,98 A3.75,3.75 0 0 1 470.2803,100.5 L477.2803,123.0679 L477.5,123.0679 A2.5,2.5 0 0 1 480,125.5679 L480,219.5 A2.5,2.5 0 0 1 477.5,222 L16.5,222 A2.5,2.5 0 0 1 14,219.5 L14,100.5 A2.5,2.5 0 0 1 16.5,98 " fill="none" style="stroke:#000000;stroke-width:1.5;"/><line style="stroke:#000000;stroke-width:1.5;" x1="14" x2="477.2803" y1="123.0679" y2="123.0679"/><text fill="#000000" font-family="sans-serif" font-size="14" font-weight="bold" lengthAdjust="spacing" textLength="450.2803" x="18" y="114.9659">com.hack23.cia.web.impl.ui.application.views.user.partyranking</text></g><!--cluster com.hack23.cia.web.impl.ui.application.views.user.common--><g id="cluster_com.hack23.cia.web.impl.ui.application.views.user.common"><path d="M104.5,4 L524.2663,4 A3.75,3.75 0 0 1 526.7663,6.5 L533.7663,29.0679 L533.5,29.0679 A2.5,2.5 0 0 1 536,31.5679 L536,87.5 A2.5,2.5 0 0 1 533.5,90 L104.5,90 A2.5,2.5 0 0 1 102,87.5 L102,6.5 A2.5,2.5 0 0 1 104.5,4 " fill="none" style="stroke:#000000;stroke-width:1.5;"/><line style="stroke:#000000;stroke-width:1.5;" x1="102" x2="533.7663" y1="29.0679" y2="29.0679"/><text fill="#000000" font-family="sans-serif" font-size="14" font-weight="bold" lengthAdjust="spacing" textLength="418.7663" x="106" y="20.9659">com.hack23.cia.web.impl.ui.application.views.user.common</text></g><!--class PartyRankingView--><a href="PartyRankingView.html" target="_top" title="PartyRankingView.html" xlink:actuate="onRequest" xlink:href="PartyRankingView.html" xlink:show="new" xlink:title="PartyRankingView.html" xlink:type="simple"><g id="elem_PartyRankingView"><rect codeLine="12" fill="#F1F1F1" height="86.1358" id="PartyRankingView" rx="2.5" ry="2.5" style="stroke:#181818;stroke-width:0.5;" width="278.307" x="108" y="128"/><ellipse cx="183.5157" cy="144" fill="#ADD1B2" rx="11" ry="11" style="stroke:#181818;stroke-width:1.0;"/><path d="M186.4845,149.6406 Q185.9064,149.9375 185.2657,150.0781 Q184.6251,150.2344 183.922,150.2344 Q181.422,150.2344 180.0939,148.5938 Q178.7814,146.9375 178.7814,143.8125 Q178.7814,140.6875 180.0939,139.0313 Q181.422,137.375 183.922,137.375 Q184.6251,137.375 185.2657,137.5313 Q185.922,137.6875 186.4845,137.9844 L186.4845,140.7031 Q185.8595,140.125 185.2657,139.8594 Q184.672,139.5781 184.047,139.5781 Q182.7032,139.5781 182.0157,140.6563 Q181.3282,141.7188 181.3282,143.8125 Q181.3282,145.9063 182.0157,146.9844 Q182.7032,148.0469 184.047,148.0469 Q184.672,148.0469 185.2657,147.7813 Q185.8595,147.5 186.4845,146.9219 L186.4845,149.6406 Z " fill="#000000"/><text fill="#000000" font-family="sans-serif" font-size="14" lengthAdjust="spacing" textLength="118.7755" x="204.0157" y="149.432">PartyRankingView</text><line style="stroke:#181818;stroke-width:0.5;" x1="109" x2="385.307" y1="160" y2="160"/><ellipse cx="119" cy="175.034" fill="none" rx="3" ry="3" style="stroke:#038048;stroke-width:1.0;"/><text fill="#000000" font-family="sans-serif" font-size="14" lengthAdjust="spacing" text-decoration="underline" textLength="86.8557" x="128" y="178.9659">NAME: String</text><line style="stroke:#181818;stroke-width:0.5;" x1="109" x2="385.307" y1="187.0679" y2="187.0679"/><ellipse cx="119" cy="202.1019" fill="#84BE84" rx="3" ry="3" style="stroke:#038048;stroke-width:1.0;"/><text fill="#000000" font-family="sans-serif" font-size="14" lengthAdjust="spacing" textLength="252.307" x="128" y="206.0339">PartyRankingView(ApplicationContext)</text></g></a><!--class AbstractRankingView--><a href="../common/AbstractRankingView.html" target="_top" title="../common/AbstractRankingView.html" xlink:actuate="onRequest" xlink:href="../common/AbstractRankingView.html" xlink:show="new" xlink:title="../common/AbstractRankingView.html" xlink:type="simple"><g id="elem_AbstractRankingView"><rect codeLine="20" fill="#F1F1F1" height="48" id="AbstractRankingView" rx="2.5" ry="2.5" style="stroke:#181818;stroke-width:0.5;" width="162.4655" x="166" y="34"/><ellipse cx="181" cy="50" fill="#A9DCDF" rx="11" ry="11" style="stroke:#181818;stroke-width:1.0;"/><path d="M181.1094,45.3438 L179.9531,50.4219 L182.2813,50.4219 L181.1094,45.3438 Z M179.625,43.1094 L182.6094,43.1094 L185.9688,55.5 L183.5156,55.5 L182.75,52.4375 L179.4688,52.4375 L178.7188,55.5 L176.2813,55.5 L179.625,43.1094 Z " fill="#000000"/><text fill="#000000" font-family="sans-serif" font-size="14" font-style="italic" lengthAdjust="spacing" textLength="130.4655" x="195" y="55.432">AbstractRankingView</text><line style="stroke:#181818;stroke-width:0.5;" x1="167" x2="327.4655" y1="66" y2="66"/><line style="stroke:#181818;stroke-width:0.5;" x1="167" x2="327.4655" y1="74" y2="74"/></g></a><polygon fill="none" points="247,82.2692,241,100.2692,253,100.2692,247,82.2692" style="stroke:#181818;stroke-width:1.0;"/><path d="M247,100.2692 C247,113.4922 247,112.4505 247,127.9269 " fill="none" style="stroke:#181818;stroke-width:1.0;"/><text fill="#888888" font-family="sans-serif" font-size="10" lengthAdjust="spacing" textLength="2.6" x="262.2" y="234.69">&#160;</text><a href="https://github.com/talsma-ict/umldoclet" target="_top" title="https://github.com/talsma-ict/umldoclet" xlink:actuate="onRequest" xlink:href="https://github.com/talsma-ict/umldoclet" xlink:show="new" xlink:title="https://github.com/talsma-ict/umldoclet" xlink:type="simple"><text fill="#888888" font-family="sans-serif" font-size="10" lengthAdjust="spacing" textLength="76.7199" x="225.14" y="248.31">UMLDoclet 2.2.1</text></a><!--SRC=[fPHHRzem4CVV-obksiDQjJWXT7IDgac8LLidEbM5xeNnS1WtiN3ipBwqGntVVHV2AB0-hNb9dFFT_Vv_vm80y0xwhbnudUK4v81o7U3kUW1ePv0fgpoIce4kC5C1fieucuLcemAiA7SUtFrg9PttAfJEphJDu2i-80HNUQc2E3Y0LQlHt-gF6BQgJnVroqzE6aLms3_QGahYThULn4aNHcX2WN3L7ubrjUUSH2IY3LpRQAbiu9ALdIc_mkgLAFasQ28dyA1yqCvoJhokKqkLpX9g6w14Jw6MT6FGKitQ5jp_L9p1OMyus6MBprTi9z3p5giPtBgVrKRkcz9ZniG65wuY28KYjBWA1MOEYbiXiNzfsYGmw9njPfP2vFoST8JKA1xLLEYYDABI0ikI9IAn0F6WrMCGLL1UrD0BZtPUE__KLAilQJ04kAcZjqtqEoV1UBp_IkHKcCc4Ss7hUWh4hUGIZh_rhYzJ69Bd_JjRZlSh7VQU4Vjiglf5HvkCPOEsVArUpYZu29zfSHh8ewIrujvwkIjQYAX9Z5w8_-l0SflrVndJz2MMYz-jrYkFEKttdMz0Bm8jZFguKN7l7F4ax1xibqMf_43RUTyP_W3VVdWvUbSFaT5MyTpAkLNiRBndpqMqrM_TwuSTZtEYCgHHb6dAgsbjHaIh0MvfIL5Lc5apkNipF9ciP_BpvkTG3rWhJbfnPzJkfAT96iVYh7FsFZwFJxl7SPlNuylAkr95Gt9odZjJJFu0]--></g></svg>