<svg xmlns="http://www.w3.org/2000/svg" xmlns:xlink="http://www.w3.org/1999/xlink" contentStyleType="text/css" height="535px" preserveAspectRatio="none" style="width:1961px;height:535px;background:#FFFFFF;" version="1.1" viewBox="0 0 1961 535" width="1961px" zoomAndPan="magnify"><defs/><g><!--cluster com.hack23.cia.service.api--><g id="cluster_com.hack23.cia.service.api"><path d="M16.5,4 L203.4193,4 A3.75,3.75 0 0 1 205.9193,6.5 L212.9193,29.0679 L1951.5,29.0679 A2.5,2.5 0 0 1 1954,31.5679 L1954,495.5 A2.5,2.5 0 0 1 1951.5,498 L16.5,498 A2.5,2.5 0 0 1 14,495.5 L14,6.5 A2.5,2.5 0 0 1 16.5,4 " fill="none" style="stroke:#000000;stroke-width:1.5;"/><line style="stroke:#000000;stroke-width:1.5;" x1="14" x2="212.9193" y1="29.0679" y2="29.0679"/><text fill="#000000" font-family="sans-serif" font-size="14" font-weight="bold" lengthAdjust="spacing" textLength="185.9193" x="18" y="20.9659">com.hack23.cia.service.api</text></g><!--class ConfigurationManager--><a href="ConfigurationManager.html" target="_top" title="ConfigurationManager.html" xlink:actuate="onRequest" xlink:href="ConfigurationManager.html" xlink:show="new" xlink:title="ConfigurationManager.html" xlink:type="simple"><g id="elem_ConfigurationManager"><rect codeLine="12" fill="#F1F1F1" height="105.2038" id="ConfigurationManager" rx="2.5" ry="2.5" style="stroke:#181818;stroke-width:0.5;" width="371.2106" x="431.5" y="34"/><ellipse cx="541.5046" cy="50" fill="#B4A7E5" rx="11" ry="11" style="stroke:#181818;stroke-width:1.0;"/><path d="M537.4264,45.7656 L537.4264,43.6094 L544.8171,43.6094 L544.8171,45.7656 L542.3483,45.7656 L542.3483,53.8438 L544.8171,53.8438 L544.8171,56 L537.4264,56 L537.4264,53.8438 L539.8952,53.8438 L539.8952,45.7656 L537.4264,45.7656 Z " fill="#000000"/><text fill="#000000" font-family="sans-serif" font-size="14" font-style="italic" lengthAdjust="spacing" textLength="142.7015" x="562.0046" y="55.432">ConfigurationManager</text><line style="stroke:#181818;stroke-width:0.5;" x1="432.5" x2="801.7106" y1="66" y2="66"/><line style="stroke:#181818;stroke-width:0.5;" x1="432.5" x2="801.7106" y1="74" y2="74"/><ellipse cx="442.5" cy="89.034" fill="#84BE84" rx="3" ry="3" style="stroke:#038048;stroke-width:1.0;"/><text fill="#000000" font-family="sans-serif" font-size="14" font-style="italic" lengthAdjust="spacing" textLength="345.2106" x="451.5" y="92.9659">getUserConfiguration(String, String): UserConfiguration</text><ellipse cx="442.5" cy="108.1019" fill="#84BE84" rx="3" ry="3" style="stroke:#038048;stroke-width:1.0;"/><text fill="#000000" font-family="sans-serif" font-size="14" font-style="italic" lengthAdjust="spacing" textLength="213.1632" x="451.5" y="112.0339">createDefaultConfigIfEmpty(): void</text><ellipse cx="442.5" cy="127.1698" fill="#84BE84" rx="3" ry="3" style="stroke:#038048;stroke-width:1.0;"/><text fill="#000000" font-family="sans-serif" font-size="14" font-style="italic" lengthAdjust="spacing" textLength="240.8411" x="451.5" y="131.1018">createDefaultLanguagesIfEmpty(): void</text></g></a><!--class AgentContainer--><a href="AgentContainer.html" target="_top" title="AgentContainer.html" xlink:actuate="onRequest" xlink:href="AgentContainer.html" xlink:show="new" xlink:title="AgentContainer.html" xlink:type="simple"><g id="elem_AgentContainer"><rect codeLine="18" fill="#F1F1F1" height="67.0679" id="AgentContainer" rx="2.5" ry="2.5" style="stroke:#181818;stroke-width:0.5;" width="248.5992" x="820.5" y="53"/><ellipse cx="892.1518" cy="69" fill="#B4A7E5" rx="11" ry="11" style="stroke:#181818;stroke-width:1.0;"/><path d="M888.0736,64.7656 L888.0736,62.6094 L895.4643,62.6094 L895.4643,64.7656 L892.9955,64.7656 L892.9955,72.8438 L895.4643,72.8438 L895.4643,75 L888.0736,75 L888.0736,72.8438 L890.5424,72.8438 L890.5424,64.7656 L888.0736,64.7656 Z " fill="#000000"/><text fill="#000000" font-family="sans-serif" font-size="14" font-style="italic" lengthAdjust="spacing" textLength="96.7956" x="912.6518" y="74.432">AgentContainer</text><line style="stroke:#181818;stroke-width:0.5;" x1="821.5" x2="1068.0992" y1="85" y2="85"/><line style="stroke:#181818;stroke-width:0.5;" x1="821.5" x2="1068.0992" y1="93" y2="93"/><ellipse cx="831.5" cy="108.034" fill="#84BE84" rx="3" ry="3" style="stroke:#038048;stroke-width:1.0;"/><text fill="#000000" font-family="sans-serif" font-size="14" font-style="italic" lengthAdjust="spacing" textLength="222.5992" x="840.5" y="111.9659">execute(DataAgentWorkOrder): void</text></g></a><!--class UserConfiguration--><a href="UserConfiguration.html" target="_top" title="UserConfiguration.html" xlink:actuate="onRequest" xlink:href="UserConfiguration.html" xlink:show="new" xlink:title="UserConfiguration.html" xlink:type="simple"><g id="elem_UserConfiguration"><rect codeLine="22" fill="#F1F1F1" height="105.2038" id="UserConfiguration" rx="2.5" ry="2.5" style="stroke:#181818;stroke-width:0.5;" width="214.9853" x="1087.5" y="34"/><ellipse cx="1133.5739" cy="50" fill="#B4A7E5" rx="11" ry="11" style="stroke:#181818;stroke-width:1.0;"/><path d="M1129.4957,45.7656 L1129.4957,43.6094 L1136.8864,43.6094 L1136.8864,45.7656 L1134.4176,45.7656 L1134.4176,53.8438 L1136.8864,53.8438 L1136.8864,56 L1129.4957,56 L1129.4957,53.8438 L1131.9645,53.8438 L1131.9645,45.7656 L1129.4957,45.7656 Z " fill="#000000"/><text fill="#000000" font-family="sans-serif" font-size="14" font-style="italic" lengthAdjust="spacing" textLength="114.3376" x="1154.0739" y="55.432">UserConfiguration</text><line style="stroke:#181818;stroke-width:0.5;" x1="1088.5" x2="1301.4853" y1="66" y2="66"/><line style="stroke:#181818;stroke-width:0.5;" x1="1088.5" x2="1301.4853" y1="74" y2="74"/><ellipse cx="1098.5" cy="89.034" fill="#84BE84" rx="3" ry="3" style="stroke:#038048;stroke-width:1.0;"/><text fill="#000000" font-family="sans-serif" font-size="14" font-style="italic" lengthAdjust="spacing" textLength="122.9756" x="1107.5" y="92.9659">getAgency(): Agency</text><ellipse cx="1098.5" cy="108.1019" fill="#84BE84" rx="3" ry="3" style="stroke:#038048;stroke-width:1.0;"/><text fill="#000000" font-family="sans-serif" font-size="14" font-style="italic" lengthAdjust="spacing" textLength="110.2916" x="1107.5" y="112.0339">getPortal(): Portal</text><ellipse cx="1098.5" cy="127.1698" fill="#84BE84" rx="3" ry="3" style="stroke:#038048;stroke-width:1.0;"/><text fill="#000000" font-family="sans-serif" font-size="14" font-style="italic" lengthAdjust="spacing" textLength="188.9853" x="1107.5" y="131.1018">getLanguage(): LanguageData</text></g></a><!--class DataContainer--><a href="DataContainer.html" target="_top" title="DataContainer.html" xlink:actuate="onRequest" xlink:href="DataContainer.html" xlink:show="new" xlink:title="DataContainer.html" xlink:type="simple"><g id="elem_DataContainer"><rect codeLine="28" fill="#F1F1F1" height="314.9508" id="DataContainer" rx="2.5" ry="2.5" style="stroke:#181818;stroke-width:0.5;" width="1190.3607" x="22" y="175"/><ellipse cx="449.2057" cy="191" fill="#B4A7E5" rx="11" ry="11" style="stroke:#181818;stroke-width:1.0;"/><path d="M445.1276,186.7656 L445.1276,184.6094 L452.5182,184.6094 L452.5182,186.7656 L450.0495,186.7656 L450.0495,194.8438 L452.5182,194.8438 L452.5182,197 L445.1276,197 L445.1276,194.8438 L447.5964,194.8438 L447.5964,186.7656 L445.1276,186.7656 Z " fill="#000000"/><text fill="#000000" font-family="sans-serif" font-size="14" font-style="italic" lengthAdjust="spacing" textLength="90.9716" x="469.7057" y="196.432">DataContainer</text><rect fill="#FFFFFF" height="18.3441" style="stroke:#181818;stroke-width:1.0;stroke-dasharray:2.0,2.0;" width="234.4776" x="980.8831" y="172"/><text fill="#000000" font-family="sans-serif" font-size="12" font-style="italic" lengthAdjust="spacing" textLength="232.4776" x="981.8831" y="185.8281">T extends Serializable, I extends Serializable</text><line style="stroke:#181818;stroke-width:0.5;" x1="23" x2="1211.3607" y1="207" y2="207"/><line style="stroke:#181818;stroke-width:0.5;" x1="23" x2="1211.3607" y1="215" y2="215"/><ellipse cx="33" cy="230.034" fill="#84BE84" rx="3" ry="3" style="stroke:#038048;stroke-width:1.0;"/><text fill="#000000" font-family="sans-serif" font-size="14" font-style="italic" lengthAdjust="spacing" textLength="220.4291" x="42" y="233.9659">getAll(): List&lt;T extends Serializable&gt;</text><ellipse cx="33" cy="249.1019" fill="#84BE84" rx="3" ry="3" style="stroke:#038048;stroke-width:1.0;"/><text fill="#000000" font-family="sans-serif" font-size="14" font-style="italic" lengthAdjust="spacing" textLength="635.2336" x="42" y="253.0339">getAllOrderBy(SingularAttribute&lt;T extends Serializable, ? extends Object&gt;): List&lt;T extends Serializable&gt;</text><ellipse cx="33" cy="268.1698" fill="#84BE84" rx="3" ry="3" style="stroke:#038048;stroke-width:1.0;"/><text fill="#000000" font-family="sans-serif" font-size="14" font-style="italic" lengthAdjust="spacing" textLength="276.2749" x="42" y="272.1018">getPage(int, int): List&lt;T extends Serializable&gt;</text><ellipse cx="33" cy="287.2377" fill="#84BE84" rx="3" ry="3" style="stroke:#038048;stroke-width:1.0;"/><text fill="#000000" font-family="sans-serif" font-size="14" font-style="italic" lengthAdjust="spacing" textLength="698.3031" x="42" y="291.1697">getPageOrderBy(int, int, SingularAttribute&lt;T extends Serializable, ? extends Object&gt;): List&lt;T extends Serializable&gt;</text><ellipse cx="33" cy="306.3056" fill="#84BE84" rx="3" ry="3" style="stroke:#038048;stroke-width:1.0;"/><text fill="#000000" font-family="sans-serif" font-size="14" font-style="italic" lengthAdjust="spacing" textLength="645.9154" x="42" y="310.2376">getAllBy(SingularAttribute&lt;T extends Serializable, ? extends Object&gt;, Object): List&lt;T extends Serializable&gt;</text><ellipse cx="33" cy="325.3735" fill="#84BE84" rx="3" ry="3" style="stroke:#038048;stroke-width:1.0;"/><text fill="#000000" font-family="sans-serif" font-size="14" font-style="italic" lengthAdjust="spacing" textLength="731.105" x="42" y="329.3055">findListByProperty(Object..., SingularAttribute&lt;T extends Serializable, ? extends Object&gt;...): List&lt;T extends Serializable&gt;</text><ellipse cx="33" cy="344.4415" fill="#84BE84" rx="3" ry="3" style="stroke:#038048;stroke-width:1.0;"/><text fill="#000000" font-family="sans-serif" font-size="14" font-style="italic" lengthAdjust="spacing" textLength="1131.7826" x="42" y="348.3734">findOrderedListByProperty(SingularAttribute&lt;T extends Serializable, ? extends Object&gt;, Object, SingularAttribute&lt;T extends Serializable, ? extends Object&gt;): List&lt;T extends Serializable&gt;</text><ellipse cx="33" cy="363.5094" fill="#84BE84" rx="3" ry="3" style="stroke:#038048;stroke-width:1.0;"/><text fill="#000000" font-family="sans-serif" font-size="14" font-style="italic" lengthAdjust="spacing" textLength="1153.2865" x="42" y="367.4414">findOrderedListByProperty(SingularAttribute&lt;T extends Serializable, ? extends Object&gt;, Object..., SingularAttribute&lt;T extends Serializable, ? extends Object&gt;...): List&lt;T extends Serializable&gt;</text><ellipse cx="33" cy="382.5773" fill="#84BE84" rx="3" ry="3" style="stroke:#038048;stroke-width:1.0;"/><text fill="#000000" font-family="sans-serif" font-size="14" font-style="italic" lengthAdjust="spacing" textLength="806.6625" x="42" y="386.5093">findByQueryProperty(Class&lt;T&gt;, SingularAttribute&lt;T, ? extends Object&gt;, Class&lt;V&gt;, SingularAttribute&lt;V, ? extends Object&gt;, Object): T</text><ellipse cx="33" cy="401.6452" fill="#84BE84" rx="3" ry="3" style="stroke:#038048;stroke-width:1.0;"/><text fill="#000000" font-family="sans-serif" font-size="14" font-style="italic" lengthAdjust="spacing" textLength="800.2224" x="42" y="405.5772">findListByEmbeddedProperty(Class&lt;T&gt;, SingularAttribute&lt;T, V&gt;, Class&lt;V&gt;, SingularAttribute&lt;V, ? extends Object&gt;, Object): List&lt;T&gt;</text><ellipse cx="33" cy="420.7131" fill="#84BE84" rx="3" ry="3" style="stroke:#038048;stroke-width:1.0;"/><text fill="#000000" font-family="sans-serif" font-size="14" font-style="italic" lengthAdjust="spacing" textLength="1096.8949" x="42" y="424.6451">findOrderedListByEmbeddedProperty(Class&lt;T&gt;, SingularAttribute&lt;T, V&gt;, Class&lt;V&gt;, SingularAttribute&lt;V, ? extends Object&gt;, Object, SingularAttribute&lt;V, ? extends Object&gt;): List&lt;T&gt;</text><ellipse cx="33" cy="439.781" fill="#84BE84" rx="3" ry="3" style="stroke:#038048;stroke-width:1.0;"/><text fill="#000000" font-family="sans-serif" font-size="14" font-style="italic" lengthAdjust="spacing" textLength="1164.3607" x="42" y="443.713">findOrderedByPropertyListByEmbeddedProperty(Class&lt;T&gt;, SingularAttribute&lt;T, V&gt;, Class&lt;V&gt;, SingularAttribute&lt;V, ? extends Object&gt;, Object, SingularAttribute&lt;T, ? extends Object&gt;): List&lt;T&gt;</text><ellipse cx="33" cy="458.849" fill="#84BE84" rx="3" ry="3" style="stroke:#038048;stroke-width:1.0;"/><text fill="#000000" font-family="sans-serif" font-size="14" font-style="italic" lengthAdjust="spacing" textLength="306.8928" x="42" y="462.7809">load(I extends Serializable): T extends Serializable</text><ellipse cx="33" cy="477.9169" fill="#84BE84" rx="3" ry="3" style="stroke:#038048;stroke-width:1.0;"/><text fill="#000000" font-family="sans-serif" font-size="14" font-style="italic" lengthAdjust="spacing" textLength="89.7677" x="42" y="481.8489">getSize(): Long</text></g></a><!--class ApplicationManager--><a href="ApplicationManager.html" target="_top" title="ApplicationManager.html" xlink:actuate="onRequest" xlink:href="ApplicationManager.html" xlink:show="new" xlink:title="ApplicationManager.html" xlink:type="simple"><g id="elem_ApplicationManager"><rect codeLine="45" fill="#F1F1F1" height="124.2717" id="ApplicationManager" rx="2.5" ry="2.5" style="stroke:#181818;stroke-width:0.5;" width="714.5872" x="1230.5" y="270.5"/><ellipse cx="1520.3968" cy="286.5" fill="#B4A7E5" rx="11" ry="11" style="stroke:#181818;stroke-width:1.0;"/><path d="M1516.3187,282.2656 L1516.3187,280.1094 L1523.7093,280.1094 L1523.7093,282.2656 L1521.2406,282.2656 L1521.2406,290.3438 L1523.7093,290.3438 L1523.7093,292.5 L1516.3187,292.5 L1516.3187,290.3438 L1518.7874,290.3438 L1518.7874,282.2656 L1516.3187,282.2656 Z " fill="#000000"/><text fill="#000000" font-family="sans-serif" font-size="14" font-style="italic" lengthAdjust="spacing" textLength="126.2935" x="1540.8968" y="291.932">ApplicationManager</text><line style="stroke:#181818;stroke-width:0.5;" x1="1231.5" x2="1944.0872" y1="302.5" y2="302.5"/><line style="stroke:#181818;stroke-width:0.5;" x1="1231.5" x2="1944.0872" y1="310.5" y2="310.5"/><ellipse cx="1241.5" cy="325.534" fill="#84BE84" rx="3" ry="3" style="stroke:#038048;stroke-width:1.0;"/><text fill="#000000" font-family="sans-serif" font-size="14" font-style="italic" lengthAdjust="spacing" textLength="228.6751" x="1250.5" y="329.4659">getAgentContainer(): AgentContainer</text><ellipse cx="1241.5" cy="344.6019" fill="#84BE84" rx="3" ry="3" style="stroke:#038048;stroke-width:1.0;"/><text fill="#000000" font-family="sans-serif" font-size="14" font-style="italic" lengthAdjust="spacing" textLength="688.5872" x="1250.5" y="348.5339">getDataContainer(Class&lt;T extends Serializable&gt;): DataContainer&lt;T extends Serializable, V extends Serializable&gt;</text><ellipse cx="1241.5" cy="363.6698" fill="#84BE84" rx="3" ry="3" style="stroke:#038048;stroke-width:1.0;"/><text fill="#000000" font-family="sans-serif" font-size="14" font-style="italic" lengthAdjust="spacing" textLength="250.7251" x="1250.5" y="367.6018">service(ServiceRequest): ServiceResponse</text><ellipse cx="1241.5" cy="382.7377" fill="#84BE84" rx="3" ry="3" style="stroke:#038048;stroke-width:1.0;"/><text fill="#000000" font-family="sans-serif" font-size="14" font-style="italic" lengthAdjust="spacing" textLength="342.8447" x="1250.5" y="386.6697">asyncService(ServiceRequest): Future&lt;ServiceResponse&gt;</text></g></a><text fill="#888888" font-family="sans-serif" font-size="10" lengthAdjust="spacing" textLength="2.6" x="971.2" y="510.69">&#160;</text><a href="https://github.com/talsma-ict/umldoclet" target="_top" title="https://github.com/talsma-ict/umldoclet" xlink:actuate="onRequest" xlink:href="https://github.com/talsma-ict/umldoclet" xlink:show="new" xlink:title="https://github.com/talsma-ict/umldoclet" xlink:type="simple"><text fill="#888888" font-family="sans-serif" font-size="10" lengthAdjust="spacing" textLength="76.7199" x="934.14" y="524.31">UMLDoclet 2.2.1</text></a><!--SRC=[pLTRTzf647xFhzYUFfISO26KYssE3pqOEwrpo8aRiFj0ULYaGMnPxQfxSQFavBzdLk9kWUNGrjMBbj5Sllbc96O88UGdqfLffbWyDSH8OgPCavltFK95H68GeAY1YB24ng396BWKiIuKWL1hfb8HESb_XL8fqAaK4HCnUKVlAD7IgX2qz-mPoKCD5jx_fdhD-pXpmWiPSZ2ards-1Ydmcs-E0ZzuHGQKwuIIg-x0ctjRsGHUu3K9-kOi1A7HfHKHg1nM9wKXtdh5apgv0wMP56ZZp_suL4Cf36L2avGgerrArvmAux0sFHVVEoQrJh-tYSq_pR7LIKS9QYFoKVvbb-d-a2eQ8s9ECsaDqGaOAcZ-I2Dc3HYA6kIlrIeC4EWCQKOiYJV5S_3I2ndrDAWx1E_Hb94lXQQxc32W9ZG4H2GcBBRe3FDwZp5YJ7quB1DxKvFmqGZzaBNh2nrhesXelf8NCPWRZBXXNEiRXJMja-B-l4NkgUpq5oh06b_0X5fk2fEhoMMIcgo6VkuaYwgPzgY8hMl2NTPVowZfO9EvgAwsEIcRWeVfW4yGMWEr2sfeRlkxLBCF2fkhKlnxF264Ux9AHN71mpphuhHFzregGxdJBKxxT1UyEkt5sIMxFo-diMJnR43Wam4HQT87nIXdd-cOuwjsLIfl8mSRzjNovtb2FQRDZdZj1yppgfrdjJwsiELKTGnsynYBknF_pqlvX_6V49hs0G2k7ST8ODsnUA2VHIOBT_XYFabEIEfXVDRdX-_5C64YSeRdsRMIAIZyB1GEFSyxY1IqFmHJNY3OXlOF4FKabVvNCthYIfrdlrbGguowd6fzDcYNOYfDex2uBRMutT_pWmgDVPcC8OeWgehmzZ181P6Fw8N_4bzL_SVbiUhd_qT6W-_BY4iQrSh_SLshbJxOzt7liy_5K80J_mD3LfhYtBqrVTuNLXvpLlFPOjnPIVRPRWmLYwgLVnFGRxKHvlQHtvJvi5xh5_UFu1O2zs8j1Mv3qhkPfpeJON-NbxVMM0LdMyxQs_MPtywqoTR1JgJ4ccqLuDSCkxp7nAmhEIuZFvwKFxrn2nL7hd272sS2j2R-MjWyN6CjtZpM7s8ud1gJwbQZ4JCpjMCFrvk6oPUv8nQQXaruL6nnM_lSQ3JVptvPBefksJfg1aT1C6YUjFoNhTSdtl6hDwUlJuzFWXT-i-Nxmqlhtjj6tyXmDfKy6Nq3]--></g></svg>