<?xml version="1.0" encoding="UTF-8" standalone="no"?><svg xmlns="http://www.w3.org/2000/svg" xmlns:xlink="http://www.w3.org/1999/xlink" contentStyleType="text/css" height="234px" preserveAspectRatio="none" style="width:368px;height:234px;background:#FFFFFF;" version="1.1" viewBox="0 0 368 234" width="368px" zoomAndPan="magnify"><defs/><g><!--MD5=[a1d459cd20c0171c85c2e4dbc6e6f746]
class com.hack23.cia.web.impl.ui.application.views.user.govermentbody.GovernmenBodyView--><a href="GovernmenBodyView.html" target="_top" title="GovernmenBodyView.html" xlink:actuate="onRequest" xlink:href="GovernmenBodyView.html" xlink:show="new" xlink:title="GovernmenBodyView.html" xlink:type="simple"><g id="elem_com.hack23.cia.web.impl.ui.application.views.user.govermentbody.GovernmenBodyView"><rect codeLine="5" fill="#F1F1F1" height="96.8237" id="com.hack23.cia.web.impl.ui.application.views.user.govermentbody.GovernmenBodyView" rx="2.5" ry="2.5" style="stroke:#181818;stroke-width:0.5;" width="354" x="7" y="110"/><ellipse cx="22" cy="131.344" fill="#ADD1B2" rx="11" ry="11" style="stroke:#181818;stroke-width:1.0;"/><path d="M24.9688,136.9846 Q24.3906,137.2815 23.75,137.4221 Q23.1094,137.5783 22.4063,137.5783 Q19.9063,137.5783 18.5781,135.9377 Q17.2656,134.2815 17.2656,131.1565 Q17.2656,128.0315 18.5781,126.3752 Q19.9063,124.719 22.4063,124.719 Q23.1094,124.719 23.75,124.8752 Q24.4063,125.0315 24.9688,125.3283 L24.9688,128.0471 Q24.3438,127.469 23.75,127.2033 Q23.1563,126.9221 22.5313,126.9221 Q21.1875,126.9221 20.5,128.0002 Q19.8125,129.0627 19.8125,131.1565 Q19.8125,133.2502 20.5,134.3283 Q21.1875,135.3908 22.5313,135.3908 Q23.1563,135.3908 23.75,135.1252 Q24.3438,134.844 24.9688,134.2658 L24.9688,136.9846 Z " fill="#000000"/><text fill="#000000" font-family="sans-serif" font-size="14" lengthAdjust="spacing" textLength="142" x="126" y="129.9659">GovernmenBodyView</text><text fill="#000000" font-family="sans-serif" font-size="10" lengthAdjust="spacing" textLength="322" x="36" y="144.7579">com.hack23.cia.web.impl.ui.application.views.user.govermentbody</text><line style="stroke:#181818;stroke-width:0.5;" x1="8" x2="360" y1="152.6879" y2="152.6879"/><ellipse cx="18" cy="167.7219" fill="none" rx="3" ry="3" style="stroke:#038048;stroke-width:1.0;"/><text fill="#000000" font-family="sans-serif" font-size="14" lengthAdjust="spacing" text-decoration="underline" textLength="90" x="27" y="171.6538">NAME: String</text><line style="stroke:#181818;stroke-width:0.5;" x1="8" x2="360" y1="179.7558" y2="179.7558"/><ellipse cx="18" cy="194.7898" fill="#84BE84" rx="3" ry="3" style="stroke:#038048;stroke-width:1.0;"/><text fill="#000000" font-family="sans-serif" font-size="14" lengthAdjust="spacing" textLength="277" x="27" y="198.7218">GovernmenBodyView(ApplicationContext)</text></g></a><!--MD5=[4d95a43774ca7342273458fa929c2e89]
class com.hack23.cia.web.impl.ui.application.views.user.common.AbstractGroupView--><a href="../common/AbstractGroupView.html" target="_top" title="../common/AbstractGroupView.html" xlink:actuate="onRequest" xlink:href="../common/AbstractGroupView.html" xlink:show="new" xlink:title="../common/AbstractGroupView.html" xlink:type="simple"><g id="elem_com.hack23.cia.web.impl.ui.application.views.user.common.AbstractGroupView"><rect codeLine="10" fill="#F1F1F1" height="42.6879" id="com.hack23.cia.web.impl.ui.application.views.user.common.AbstractGroupView" rx="2.5" ry="2.5" style="stroke:#181818;stroke-width:0.5;" width="312" x="28" y="7"/><ellipse cx="43" cy="28.344" fill="#A9DCDF" rx="11" ry="11" style="stroke:#181818;stroke-width:1.0;"/><path d="M43.1094,23.6877 L41.9531,28.7658 L44.2813,28.7658 L43.1094,23.6877 Z M41.625,21.4533 L44.6094,21.4533 L47.9688,33.844 L45.5156,33.844 L44.75,30.7815 L41.4688,30.7815 L40.7188,33.844 L38.2813,33.844 L41.625,21.4533 Z " fill="#000000"/><text fill="#000000" font-family="sans-serif" font-size="14" font-style="italic" lengthAdjust="spacing" textLength="120" x="137" y="26.9659">AbstractGroupView</text><text fill="#000000" font-family="sans-serif" font-size="10" font-style="italic" lengthAdjust="spacing" textLength="280" x="57" y="41.7579">com.hack23.cia.web.impl.ui.application.views.user.common</text></g></a><!--MD5=[2c61621b362ed9b14964581b5361ed39]
reverse link com.hack23.cia.web.impl.ui.application.views.user.common.AbstractGroupView to com.hack23.cia.web.impl.ui.application.views.user.govermentbody.GovernmenBodyView--><g id="link_com.hack23.cia.web.impl.ui.application.views.user.common.AbstractGroupView_com.hack23.cia.web.impl.ui.application.views.user.govermentbody.GovernmenBodyView"><path codeLine="12" d="M184,70.16 C184,82.79 184,96.82 184,109.88 " fill="none" id="com.hack23.cia.web.impl.ui.application.views.user.common.AbstractGroupView-backto-com.hack23.cia.web.impl.ui.application.views.user.govermentbody.GovernmenBodyView" style="stroke:#181818;stroke-width:1.0;"/><polygon fill="none" points="177,70.07,184,50.07,191,70.07,177,70.07" style="stroke:#181818;stroke-width:1.0;"/></g><rect fill="none" height="13.62" style="stroke:none;stroke-width:1.0;" width="188" x="83" y="212.8237"/><text fill="#888888" font-family="sans-serif" font-size="10" lengthAdjust="spacing" textLength="188" x="83" y="223.5137">UMLDoclet 2.0.20, PlantUML 1.2022.12</text><!--MD5=[c4e8d21bc6562f449e70e46457c6fe6c]
@startuml
    set namespaceSeparator none
    hide empty fields
    hide empty methods

    class "<size:14>GovernmenBodyView\n<size:10>com.hack23.cia.web.impl.ui.application.views.user.govermentbody" as com.hack23.cia.web.impl.ui.application.views.user.govermentbody.GovernmenBodyView [[GovernmenBodyView.html]] {
        {static} +NAME: String
        +GovernmenBodyView(ApplicationContext)
    }

    abstract class "<size:14>AbstractGroupView\n<size:10>com.hack23.cia.web.impl.ui.application.views.user.common" as com.hack23.cia.web.impl.ui.application.views.user.common.AbstractGroupView [[../common/AbstractGroupView.html]]

    com.hack23.cia.web.impl.ui.application.views.user.common.AbstractGroupView <|- - com.hack23.cia.web.impl.ui.application.views.user.govermentbody.GovernmenBodyView

    center footer UMLDoclet 2.0.20, PlantUML 1.2022.12
@enduml

PlantUML version 1.2022.12(Sun Oct 23 20:12:26 CEST 2022)
(APACHE source distribution)
Java Runtime: OpenJDK Runtime Environment
JVM: OpenJDK 64-Bit Server VM
Default Encoding: UTF-8
Language: 
Country: 
--></g></svg>