<svg xmlns="http://www.w3.org/2000/svg" xmlns:xlink="http://www.w3.org/1999/xlink" contentStyleType="text/css" height="259px" preserveAspectRatio="none" style="width:560px;height:259px;background:#FFFFFF;" version="1.1" viewBox="0 0 560 259" width="560px" zoomAndPan="magnify"><defs/><g><!--cluster com.hack23.cia.web.impl.ui.application.views.user.govermentbody--><g id="cluster_com.hack23.cia.web.impl.ui.application.views.user.govermentbody"><path d="M16.5,98 L486.8202,98 A3.75,3.75 0 0 1 489.3202,100.5 L496.3202,123.0679 L496.5,123.0679 A2.5,2.5 0 0 1 499,125.5679 L499,219.5 A2.5,2.5 0 0 1 496.5,222 L16.5,222 A2.5,2.5 0 0 1 14,219.5 L14,100.5 A2.5,2.5 0 0 1 16.5,98 " fill="none" style="stroke:#000000;stroke-width:1.5;"/><line style="stroke:#000000;stroke-width:1.5;" x1="14" x2="496.3202" y1="123.0679" y2="123.0679"/><text fill="#000000" font-family="sans-serif" font-size="14" font-weight="bold" lengthAdjust="spacing" textLength="469.3202" x="18" y="114.9659">com.hack23.cia.web.impl.ui.application.views.user.govermentbody</text></g><!--cluster com.hack23.cia.web.impl.ui.application.views.user.common--><g id="cluster_com.hack23.cia.web.impl.ui.application.views.user.common"><path d="M121.5,4 L541.2663,4 A3.75,3.75 0 0 1 543.7663,6.5 L550.7663,29.0679 L550.5,29.0679 A2.5,2.5 0 0 1 553,31.5679 L553,87.5 A2.5,2.5 0 0 1 550.5,90 L121.5,90 A2.5,2.5 0 0 1 119,87.5 L119,6.5 A2.5,2.5 0 0 1 121.5,4 " fill="none" style="stroke:#000000;stroke-width:1.5;"/><line style="stroke:#000000;stroke-width:1.5;" x1="119" x2="550.7663" y1="29.0679" y2="29.0679"/><text fill="#000000" font-family="sans-serif" font-size="14" font-weight="bold" lengthAdjust="spacing" textLength="418.7663" x="123" y="20.9659">com.hack23.cia.web.impl.ui.application.views.user.common</text></g><!--class GovernmenBodyView--><a href="GovernmenBodyView.html" target="_top" title="GovernmenBodyView.html" xlink:actuate="onRequest" xlink:href="GovernmenBodyView.html" xlink:show="new" xlink:title="GovernmenBodyView.html" xlink:type="simple"><g id="elem_GovernmenBodyView"><rect codeLine="12" fill="#F1F1F1" height="86.1358" id="GovernmenBodyView" rx="2.5" ry="2.5" style="stroke:#181818;stroke-width:0.5;" width="301.5049" x="105" y="128"/><ellipse cx="180.5157" cy="144" fill="#ADD1B2" rx="11" ry="11" style="stroke:#181818;stroke-width:1.0;"/><path d="M183.4845,149.6406 Q182.9064,149.9375 182.2657,150.0781 Q181.6251,150.2344 180.922,150.2344 Q178.422,150.2344 177.0939,148.5938 Q175.7814,146.9375 175.7814,143.8125 Q175.7814,140.6875 177.0939,139.0313 Q178.422,137.375 180.922,137.375 Q181.6251,137.375 182.2657,137.5313 Q182.922,137.6875 183.4845,137.9844 L183.4845,140.7031 Q182.8595,140.125 182.2657,139.8594 Q181.672,139.5781 181.047,139.5781 Q179.7032,139.5781 179.0157,140.6563 Q178.3282,141.7188 178.3282,143.8125 Q178.3282,145.9063 179.0157,146.9844 Q179.7032,148.0469 181.047,148.0469 Q181.672,148.0469 182.2657,147.7813 Q182.8595,147.5 183.4845,146.9219 L183.4845,149.6406 Z " fill="#000000"/><text fill="#000000" font-family="sans-serif" font-size="14" lengthAdjust="spacing" textLength="141.9734" x="201.0157" y="149.432">GovernmenBodyView</text><line style="stroke:#181818;stroke-width:0.5;" x1="106" x2="405.5049" y1="160" y2="160"/><ellipse cx="116" cy="175.034" fill="none" rx="3" ry="3" style="stroke:#038048;stroke-width:1.0;"/><text fill="#000000" font-family="sans-serif" font-size="14" lengthAdjust="spacing" text-decoration="underline" textLength="86.8557" x="125" y="178.9659">NAME: String</text><line style="stroke:#181818;stroke-width:0.5;" x1="106" x2="405.5049" y1="187.0679" y2="187.0679"/><ellipse cx="116" cy="202.1019" fill="#84BE84" rx="3" ry="3" style="stroke:#038048;stroke-width:1.0;"/><text fill="#000000" font-family="sans-serif" font-size="14" lengthAdjust="spacing" textLength="275.5049" x="125" y="206.0339">GovernmenBodyView(ApplicationContext)</text></g></a><!--class AbstractGroupView--><a href="../common/AbstractGroupView.html" target="_top" title="../common/AbstractGroupView.html" xlink:actuate="onRequest" xlink:href="../common/AbstractGroupView.html" xlink:show="new" xlink:title="../common/AbstractGroupView.html" xlink:type="simple"><g id="elem_AbstractGroupView"><rect codeLine="20" fill="#F1F1F1" height="48" id="AbstractGroupView" rx="2.5" ry="2.5" style="stroke:#181818;stroke-width:0.5;" width="150.7895" x="180.5" y="34"/><ellipse cx="195.5" cy="50" fill="#A9DCDF" rx="11" ry="11" style="stroke:#181818;stroke-width:1.0;"/><path d="M195.6094,45.3438 L194.4531,50.4219 L196.7813,50.4219 L195.6094,45.3438 Z M194.125,43.1094 L197.1094,43.1094 L200.4688,55.5 L198.0156,55.5 L197.25,52.4375 L193.9688,52.4375 L193.2188,55.5 L190.7813,55.5 L194.125,43.1094 Z " fill="#000000"/><text fill="#000000" font-family="sans-serif" font-size="14" font-style="italic" lengthAdjust="spacing" textLength="118.7895" x="209.5" y="55.432">AbstractGroupView</text><line style="stroke:#181818;stroke-width:0.5;" x1="181.5" x2="330.2895" y1="66" y2="66"/><line style="stroke:#181818;stroke-width:0.5;" x1="181.5" x2="330.2895" y1="74" y2="74"/></g></a><polygon fill="none" points="256,82.2692,250,100.2692,262,100.2692,256,82.2692" style="stroke:#181818;stroke-width:1.0;"/><path d="M256,100.2692 C256,113.4922 256,112.4505 256,127.9269 " fill="none" style="stroke:#181818;stroke-width:1.0;"/><text fill="#888888" font-family="sans-serif" font-size="10" lengthAdjust="spacing" textLength="2.6" x="270.7" y="234.69">&#160;</text><a href="https://github.com/talsma-ict/umldoclet" target="_top" title="https://github.com/talsma-ict/umldoclet" xlink:actuate="onRequest" xlink:href="https://github.com/talsma-ict/umldoclet" xlink:show="new" xlink:title="https://github.com/talsma-ict/umldoclet" xlink:type="simple"><text fill="#888888" font-family="sans-serif" font-size="10" lengthAdjust="spacing" textLength="76.7199" x="233.64" y="248.31">UMLDoclet 2.2.1</text></a><!--SRC=[fLHDSzCm4BttLop3WNJQo1_f1EhfC1D29vH96OQaN48EYgpQciYIaTOjdfB_pZesQTfmehhOqkhjlhVhPm20Dp2sPUrKbYEW1SoLXvlhAN2JGYQDT1nb2ghWcVImajgQpBSN9V0AS-l0tcvtmZedVMbDgam6d_aT1syh9wHdHqUmBJN_c_sU-xtigxev_6Y5bWYzyV4UfJYCXlquZ8SmvzeN7Ax6SzPbUyJ4B6OHK6wjX3IUKbOcbMvBQrHoGOzf6pc5E-cyieOmOPUdaIgiGQwCXv8xz8sahveRRBX6ZEgViRVG6yscJxc5vrjkfp1oXbSfVBC_gvtSLwNZ6J7MlBOLWYyaSiEt8K-SlQHI7Ab_IT82YEYQsanS2fRJUpnWGd5sBrTC5QLcbMAyB4aYHnB0xfIyzwpoqh7Cagf26bpPj8Q7DbspXERUmwG96uf_eF1tWi5YSN36SYpqSabes5iF7gcQsC39bz7rPG8pT3JT9rTE3bBrHeyqnzHO-GkFTv1DosxpKis4A6YCZtJvogFZ0ZlHesuxSROgEz6C1IqiE8WUoj_iy_nVVabooEFYTx__qY4doK7NMw8N7cijt-zKt5gBv8IdK_rKbz9DbLcFhQOFyFMxVqTl6XDfPIJvLgoDfAw6pzfp4UpLwshzC8j5ZbZw90WoXNcrQfeHuDR0VIKmg0gTjivzvk7bilFaPFTpQ0pM3-D-E9X7W-GiIix8kUV3mU1y64KdOPI4uUAoShQKmGojMETM5yi_]--></g></svg>