<?xml version="1.0" encoding="UTF-8" standalone="no"?><svg xmlns="http://www.w3.org/2000/svg" xmlns:xlink="http://www.w3.org/1999/xlink" contentStyleType="text/css" height="630px" preserveAspectRatio="none" style="width:1044px;height:630px;background:#FFFFFF;" version="1.1" viewBox="0 0 1044 630" width="1044px" zoomAndPan="magnify"><defs/><g><!--MD5=[b6f7de69fe91c8bcc3328c73a6375d62]
cluster com.hack23.cia.web.impl.ui.application.views.user.common--><g id="cluster_com.hack23.cia.web.impl.ui.application.views.user.common"><path d="M8.5,227.602 L424.5,227.602 A3.75,3.75 0 0 1 427,230.102 L434,252.6699 L1034.5,252.6699 A2.5,2.5 0 0 1 1037,255.1699 L1037,600.102 A2.5,2.5 0 0 1 1034.5,602.602 L8.5,602.602 A2.5,2.5 0 0 1 6,600.102 L6,230.102 A2.5,2.5 0 0 1 8.5,227.602 " fill="none" style="stroke:#000000;stroke-width:1.5;"/><line style="stroke:#000000;stroke-width:1.5;" x1="6" x2="434" y1="252.6699" y2="252.6699"/><text fill="#000000" font-family="sans-serif" font-size="14" font-weight="bold" lengthAdjust="spacing" textLength="415" x="10" y="244.5679">com.hack23.cia.web.impl.ui.application.views.user.common</text></g><!--MD5=[ca7137a5cb5dd6a4f240bec724ad43a0]
cluster com.hack23.cia.web.impl.ui.application.views.common--><g id="cluster_com.hack23.cia.web.impl.ui.application.views.common"><path d="M330.5,6.602 L712.5,6.602 A3.75,3.75 0 0 1 715,9.102 L722,31.6699 L722.5,31.6699 A2.5,2.5 0 0 1 725,34.1699 L725,201.102 A2.5,2.5 0 0 1 722.5,203.602 L330.5,203.602 A2.5,2.5 0 0 1 328,201.102 L328,9.102 A2.5,2.5 0 0 1 330.5,6.602 " fill="none" style="stroke:#000000;stroke-width:1.5;"/><line style="stroke:#000000;stroke-width:1.5;" x1="328" x2="722" y1="31.6699" y2="31.6699"/><text fill="#000000" font-family="sans-serif" font-size="14" font-weight="bold" lengthAdjust="spacing" textLength="381" x="332" y="23.5679">com.hack23.cia.web.impl.ui.application.views.common</text></g><!--MD5=[968b4da468365d2329577b3d306a41ed]
class com.hack23.cia.web.impl.ui.application.views.user.common.AbstractUserView--><a href="AbstractUserView.html" target="_top" title="AbstractUserView.html" xlink:actuate="onRequest" xlink:href="AbstractUserView.html" xlink:show="new" xlink:title="AbstractUserView.html" xlink:type="simple"><g id="elem_com.hack23.cia.web.impl.ui.application.views.user.common.AbstractUserView"><rect codeLine="3" fill="#F1F1F1" height="67.0679" id="com.hack23.cia.web.impl.ui.application.views.user.common.AbstractUserView" rx="2.5" ry="2.5" style="stroke:#181818;stroke-width:0.5;" width="468" x="292" y="265.602"/><ellipse cx="467.25" cy="281.602" fill="#A9DCDF" rx="11" ry="11" style="stroke:#181818;stroke-width:1.0;"/><path d="M467.3594,276.9457 L466.2031,282.0239 L468.5313,282.0239 L467.3594,276.9457 Z M465.875,274.7114 L468.8594,274.7114 L472.2188,287.102 L469.7656,287.102 L469,284.0395 L465.7188,284.0395 L464.9688,287.102 L462.5313,287.102 L465.875,274.7114 Z " fill="#000000"/><text fill="#000000" font-family="sans-serif" font-size="14" font-style="italic" lengthAdjust="spacing" textLength="109" x="487.75" y="287.034">AbstractUserView</text><line style="stroke:#181818;stroke-width:0.5;" x1="293" x2="759" y1="297.602" y2="297.602"/><line style="stroke:#181818;stroke-width:0.5;" x1="293" x2="759" y1="305.602" y2="305.602"/><polygon fill="#FFFF44" points="303,315.6359,307,319.6359,303,323.6359,299,319.6359" style="stroke:#B38D22;stroke-width:1.0;"/><text fill="#000000" font-family="sans-serif" font-size="14" lengthAdjust="spacing" textLength="442" x="312" y="324.5679">AbstractUserView(Map&lt;String, PageModeContentFactory&gt;, String)</text></g></a><!--MD5=[00a1846810b414438ee6460487108842]
class com.hack23.cia.web.impl.ui.application.views.user.common.AbstractPersonView--><a href="AbstractPersonView.html" target="_top" title="AbstractPersonView.html" xlink:actuate="onRequest" xlink:href="AbstractPersonView.html" xlink:show="new" xlink:title="AbstractPersonView.html" xlink:type="simple"><g id="elem_com.hack23.cia.web.impl.ui.application.views.user.common.AbstractPersonView"><rect codeLine="7" fill="#F1F1F1" height="67.0679" id="com.hack23.cia.web.impl.ui.application.views.user.common.AbstractPersonView" rx="2.5" ry="2.5" style="stroke:#181818;stroke-width:0.5;" width="483" x="23.5" y="519.602"/><ellipse cx="198.75" cy="535.602" fill="#A9DCDF" rx="11" ry="11" style="stroke:#181818;stroke-width:1.0;"/><path d="M198.8594,530.9457 L197.7031,536.0239 L200.0313,536.0239 L198.8594,530.9457 Z M197.375,528.7114 L200.3594,528.7114 L203.7188,541.102 L201.2656,541.102 L200.5,538.0395 L197.2188,538.0395 L196.4688,541.102 L194.0313,541.102 L197.375,528.7114 Z " fill="#000000"/><text fill="#000000" font-family="sans-serif" font-size="14" font-style="italic" lengthAdjust="spacing" textLength="124" x="219.25" y="541.034">AbstractPersonView</text><line style="stroke:#181818;stroke-width:0.5;" x1="24.5" x2="505.5" y1="551.602" y2="551.602"/><line style="stroke:#181818;stroke-width:0.5;" x1="24.5" x2="505.5" y1="559.602" y2="559.602"/><ellipse cx="34.5" cy="574.6359" fill="#84BE84" rx="3" ry="3" style="stroke:#038048;stroke-width:1.0;"/><text fill="#000000" font-family="sans-serif" font-size="14" lengthAdjust="spacing" textLength="457" x="43.5" y="578.5679">AbstractPersonView(Map&lt;String, PageModeContentFactory&gt;, String)</text></g></a><!--MD5=[391696cd44669b86b1fc88d08221bc08]
class com.hack23.cia.web.impl.ui.application.views.user.common.AbstractRankingView--><a href="AbstractRankingView.html" target="_top" title="AbstractRankingView.html" xlink:actuate="onRequest" xlink:href="AbstractRankingView.html" xlink:show="new" xlink:title="AbstractRankingView.html" xlink:type="simple"><g id="elem_com.hack23.cia.web.impl.ui.application.views.user.common.AbstractRankingView"><rect codeLine="11" fill="#F1F1F1" height="67.0679" id="com.hack23.cia.web.impl.ui.application.views.user.common.AbstractRankingView" rx="2.5" ry="2.5" style="stroke:#181818;stroke-width:0.5;" width="492" x="22" y="392.602"/><ellipse cx="197.75" cy="408.602" fill="#A9DCDF" rx="11" ry="11" style="stroke:#181818;stroke-width:1.0;"/><path d="M197.8594,403.9457 L196.7031,409.0239 L199.0313,409.0239 L197.8594,403.9457 Z M196.375,401.7114 L199.3594,401.7114 L202.7188,414.102 L200.2656,414.102 L199.5,411.0395 L196.2188,411.0395 L195.4688,414.102 L193.0313,414.102 L196.375,401.7114 Z " fill="#000000"/><text fill="#000000" font-family="sans-serif" font-size="14" font-style="italic" lengthAdjust="spacing" textLength="132" x="218.25" y="414.034">AbstractRankingView</text><line style="stroke:#181818;stroke-width:0.5;" x1="23" x2="513" y1="424.602" y2="424.602"/><line style="stroke:#181818;stroke-width:0.5;" x1="23" x2="513" y1="432.602" y2="432.602"/><polygon fill="#FFFF44" points="33,442.6359,37,446.6359,33,450.6359,29,446.6359" style="stroke:#B38D22;stroke-width:1.0;"/><text fill="#000000" font-family="sans-serif" font-size="14" lengthAdjust="spacing" textLength="466" x="42" y="451.5679">AbstractRankingView(Map&lt;String, PageModeContentFactory&gt;, String)</text></g></a><!--MD5=[4d95a43774ca7342273458fa929c2e89]
class com.hack23.cia.web.impl.ui.application.views.user.common.AbstractGroupView--><a href="AbstractGroupView.html" target="_top" title="AbstractGroupView.html" xlink:actuate="onRequest" xlink:href="AbstractGroupView.html" xlink:show="new" xlink:title="AbstractGroupView.html" xlink:type="simple"><g id="elem_com.hack23.cia.web.impl.ui.application.views.user.common.AbstractGroupView"><rect codeLine="15" fill="#F1F1F1" height="67.0679" id="com.hack23.cia.web.impl.ui.application.views.user.common.AbstractGroupView" rx="2.5" ry="2.5" style="stroke:#181818;stroke-width:0.5;" width="479" x="541.5" y="519.602"/><ellipse cx="716.75" cy="535.602" fill="#A9DCDF" rx="11" ry="11" style="stroke:#181818;stroke-width:1.0;"/><path d="M716.8594,530.9457 L715.7031,536.0239 L718.0313,536.0239 L716.8594,530.9457 Z M715.375,528.7114 L718.3594,528.7114 L721.7188,541.102 L719.2656,541.102 L718.5,538.0395 L715.2188,538.0395 L714.4688,541.102 L712.0313,541.102 L715.375,528.7114 Z " fill="#000000"/><text fill="#000000" font-family="sans-serif" font-size="14" font-style="italic" lengthAdjust="spacing" textLength="120" x="737.25" y="541.034">AbstractGroupView</text><line style="stroke:#181818;stroke-width:0.5;" x1="542.5" x2="1019.5" y1="551.602" y2="551.602"/><line style="stroke:#181818;stroke-width:0.5;" x1="542.5" x2="1019.5" y1="559.602" y2="559.602"/><ellipse cx="552.5" cy="574.6359" fill="#84BE84" rx="3" ry="3" style="stroke:#038048;stroke-width:1.0;"/><text fill="#000000" font-family="sans-serif" font-size="14" lengthAdjust="spacing" textLength="453" x="561.5" y="578.5679">AbstractGroupView(Map&lt;String, PageModeContentFactory&gt;, String)</text></g></a><!--MD5=[e5ab492ef72e0e56d61ba1726004a083]
class com.hack23.cia.web.impl.ui.application.views.user.common.AbstractActorView--><a href="AbstractActorView.html" target="_top" title="AbstractActorView.html" xlink:actuate="onRequest" xlink:href="AbstractActorView.html" xlink:show="new" xlink:title="AbstractActorView.html" xlink:type="simple"><g id="elem_com.hack23.cia.web.impl.ui.application.views.user.common.AbstractActorView"><rect codeLine="19" fill="#F1F1F1" height="67.0679" id="com.hack23.cia.web.impl.ui.application.views.user.common.AbstractActorView" rx="2.5" ry="2.5" style="stroke:#181818;stroke-width:0.5;" width="472" x="549" y="392.602"/><ellipse cx="723.75" cy="408.602" fill="#A9DCDF" rx="11" ry="11" style="stroke:#181818;stroke-width:1.0;"/><path d="M723.8594,403.9457 L722.7031,409.0239 L725.0313,409.0239 L723.8594,403.9457 Z M722.375,401.7114 L725.3594,401.7114 L728.7188,414.102 L726.2656,414.102 L725.5,411.0395 L722.2188,411.0395 L721.4688,414.102 L719.0313,414.102 L722.375,401.7114 Z " fill="#000000"/><text fill="#000000" font-family="sans-serif" font-size="14" font-style="italic" lengthAdjust="spacing" textLength="114" x="744.25" y="414.034">AbstractActorView</text><line style="stroke:#181818;stroke-width:0.5;" x1="550" x2="1020" y1="424.602" y2="424.602"/><line style="stroke:#181818;stroke-width:0.5;" x1="550" x2="1020" y1="432.602" y2="432.602"/><ellipse cx="560" cy="447.6359" fill="#84BE84" rx="3" ry="3" style="stroke:#038048;stroke-width:1.0;"/><text fill="#000000" font-family="sans-serif" font-size="14" lengthAdjust="spacing" textLength="446" x="569" y="451.5679">AbstractActorView(Map&lt;String, PageModeContentFactory&gt;, String)</text></g></a><!--MD5=[39d9067b85bbf212528c68bdcb9daa3e]
class com.hack23.cia.web.impl.ui.application.views.common.AbstractView--><a href="../../common/AbstractView.html" target="_top" title="../../common/AbstractView.html" xlink:actuate="onRequest" xlink:href="../../common/AbstractView.html" xlink:show="new" xlink:title="../../common/AbstractView.html" xlink:type="simple"><g id="elem_com.hack23.cia.web.impl.ui.application.views.common.AbstractView"><rect codeLine="31" fill="#F1F1F1" height="143.3396" id="com.hack23.cia.web.impl.ui.application.views.common.AbstractView" rx="2.5" ry="2.5" style="stroke:#181818;stroke-width:0.5;" width="349" x="351.5" y="44.602"/><ellipse cx="481.25" cy="60.602" fill="#A9DCDF" rx="11" ry="11" style="stroke:#181818;stroke-width:1.0;"/><path d="M481.3594,55.9457 L480.2031,61.0239 L482.5313,61.0239 L481.3594,55.9457 Z M479.875,53.7114 L482.8594,53.7114 L486.2188,66.102 L483.7656,66.102 L483,63.0395 L479.7188,63.0395 L478.9688,66.102 L476.5313,66.102 L479.875,53.7114 Z " fill="#000000"/><text fill="#000000" font-family="sans-serif" font-size="14" font-style="italic" lengthAdjust="spacing" textLength="81" x="501.75" y="66.034">AbstractView</text><line style="stroke:#181818;stroke-width:0.5;" x1="352.5" x2="699.5" y1="76.602" y2="76.602"/><polygon fill="none" points="362.5,86.6359,366.5,90.6359,362.5,94.6359,358.5,90.6359" style="stroke:#B38D22;stroke-width:1.0;"/><text fill="#000000" font-family="sans-serif" font-size="14" lengthAdjust="spacing" textLength="323" x="371.5" y="95.5679">pageActionEventHelper: PageActionEventHelper</text><polygon fill="none" points="362.5,105.7039,366.5,109.7039,362.5,113.7039,358.5,109.7039" style="stroke:#B38D22;stroke-width:1.0;"/><text fill="#000000" font-family="sans-serif" font-size="14" lengthAdjust="spacing" textLength="225" x="371.5" y="114.6358">pageLinkFactory: PageLinkFactory</text><polygon fill="none" points="362.5,124.7718,366.5,128.7718,362.5,132.7718,358.5,128.7718" style="stroke:#B38D22;stroke-width:1.0;"/><text fill="#000000" font-family="sans-serif" font-size="14" lengthAdjust="spacing" textLength="164" x="371.5" y="133.7038">applicationName: String</text><polygon fill="none" points="362.5,143.8397,366.5,147.8397,362.5,151.8397,358.5,147.8397" style="stroke:#B38D22;stroke-width:1.0;"/><text fill="#000000" font-family="sans-serif" font-size="14" lengthAdjust="spacing" textLength="174" x="371.5" y="152.7717">applicationVersion: String</text><polygon fill="none" points="362.5,162.9076,366.5,166.9076,362.5,170.9076,358.5,166.9076" style="stroke:#B38D22;stroke-width:1.0;"/><text fill="#000000" font-family="sans-serif" font-size="14" lengthAdjust="spacing" textLength="144" x="371.5" y="171.8396">applicationUrl: String</text><line style="stroke:#181818;stroke-width:0.5;" x1="352.5" x2="699.5" y1="179.9416" y2="179.9416"/></g></a><!--MD5=[3ccb537372d78a4f96cc0c9693ed3f33]
reverse link com.hack23.cia.web.impl.ui.application.views.common.AbstractView to com.hack23.cia.web.impl.ui.application.views.user.common.AbstractUserView--><g id="link_com.hack23.cia.web.impl.ui.application.views.common.AbstractView_com.hack23.cia.web.impl.ui.application.views.user.common.AbstractUserView"><path codeLine="23" d="M526,207.912 C526,228.542 526,249.142 526,265.442 " fill="none" id="com.hack23.cia.web.impl.ui.application.views.common.AbstractView-backto-com.hack23.cia.web.impl.ui.application.views.user.common.AbstractUserView" style="stroke:#181818;stroke-width:1.0;"/><polygon fill="none" points="519,207.862,526,187.862,533,207.862,519,207.862" style="stroke:#181818;stroke-width:1.0;"/></g><!--MD5=[d64ee00d42681fa5cc4935af0a50a9be]
reverse link com.hack23.cia.web.impl.ui.application.views.user.common.AbstractActorView to com.hack23.cia.web.impl.ui.application.views.user.common.AbstractPersonView--><g id="link_com.hack23.cia.web.impl.ui.application.views.user.common.AbstractActorView_com.hack23.cia.web.impl.ui.application.views.user.common.AbstractPersonView"><path codeLine="24" d="M630.02,464.352 C557.05,481.902 470.82,502.622 400.49,519.532 " fill="none" id="com.hack23.cia.web.impl.ui.application.views.user.common.AbstractActorView-backto-com.hack23.cia.web.impl.ui.application.views.user.common.AbstractPersonView" style="stroke:#181818;stroke-width:1.0;"/><polygon fill="none" points="628.65,457.482,649.73,459.622,631.92,471.102,628.65,457.482" style="stroke:#181818;stroke-width:1.0;"/></g><!--MD5=[dee6fda7569d1066d197e8257fb4dc0f]
reverse link com.hack23.cia.web.impl.ui.application.views.user.common.AbstractUserView to com.hack23.cia.web.impl.ui.application.views.user.common.AbstractRankingView--><g id="link_com.hack23.cia.web.impl.ui.application.views.user.common.AbstractUserView_com.hack23.cia.web.impl.ui.application.views.user.common.AbstractRankingView"><path codeLine="25" d="M440.42,341.562 C406.2,358.142 367.36,376.962 335.22,392.532 " fill="none" id="com.hack23.cia.web.impl.ui.application.views.user.common.AbstractUserView-backto-com.hack23.cia.web.impl.ui.application.views.user.common.AbstractRankingView" style="stroke:#181818;stroke-width:1.0;"/><polygon fill="none" points="437.84,335.042,458.89,332.622,443.94,347.642,437.84,335.042" style="stroke:#181818;stroke-width:1.0;"/></g><!--MD5=[a768d619f8d1a96aa24ac1edd2d375cc]
reverse link com.hack23.cia.web.impl.ui.application.views.user.common.AbstractActorView to com.hack23.cia.web.impl.ui.application.views.user.common.AbstractGroupView--><g id="link_com.hack23.cia.web.impl.ui.application.views.user.common.AbstractActorView_com.hack23.cia.web.impl.ui.application.views.user.common.AbstractGroupView"><path codeLine="26" d="M783.31,479.802 C782.88,493.212 782.44,507.232 782.05,519.312 " fill="none" id="com.hack23.cia.web.impl.ui.application.views.user.common.AbstractActorView-backto-com.hack23.cia.web.impl.ui.application.views.user.common.AbstractGroupView" style="stroke:#181818;stroke-width:1.0;"/><polygon fill="none" points="776.32,479.382,783.96,459.622,790.32,479.832,776.32,479.382" style="stroke:#181818;stroke-width:1.0;"/></g><!--MD5=[817ad3c11f6e5601ba3e22c8175d61f0]
reverse link com.hack23.cia.web.impl.ui.application.views.user.common.AbstractUserView to com.hack23.cia.web.impl.ui.application.views.user.common.AbstractActorView--><g id="link_com.hack23.cia.web.impl.ui.application.views.user.common.AbstractUserView_com.hack23.cia.web.impl.ui.application.views.user.common.AbstractActorView"><path codeLine="27" d="M611.43,341.332 C645.9,357.972 685.1,376.892 717.51,392.532 " fill="none" id="com.hack23.cia.web.impl.ui.application.views.user.common.AbstractUserView-backto-com.hack23.cia.web.impl.ui.application.views.user.common.AbstractActorView" style="stroke:#181818;stroke-width:1.0;"/><polygon fill="none" points="608.34,347.612,593.37,332.622,614.43,335.002,608.34,347.612" style="stroke:#181818;stroke-width:1.0;"/></g><rect fill="none" height="13.62" style="stroke:none;stroke-width:1.0;" width="188" x="421" y="608.602"/><text fill="#888888" font-family="sans-serif" font-size="10" lengthAdjust="spacing" textLength="188" x="421" y="619.292">UMLDoclet 2.0.20, PlantUML 1.2022.12</text><!--MD5=[ef61dc7c7053e2bfa0be393d4826bb6b]
@startuml
    namespace com.hack23.cia.web.impl.ui.application.views.user.common {

        abstract class AbstractUserView [[AbstractUserView.html]] {
            #AbstractUserView(Map<String, PageModeContentFactory>, String)
        }

        abstract class AbstractPersonView [[AbstractPersonView.html]] {
            +AbstractPersonView(Map<String, PageModeContentFactory>, String)
        }

        abstract class AbstractRankingView [[AbstractRankingView.html]] {
            #AbstractRankingView(Map<String, PageModeContentFactory>, String)
        }

        abstract class AbstractGroupView [[AbstractGroupView.html]] {
            +AbstractGroupView(Map<String, PageModeContentFactory>, String)
        }

        abstract class AbstractActorView [[AbstractActorView.html]] {
            +AbstractActorView(Map<String, PageModeContentFactory>, String)
        }

        com.hack23.cia.web.impl.ui.application.views.common.AbstractView <|- - AbstractUserView
        AbstractActorView <|- - AbstractPersonView
        AbstractUserView <|- - AbstractRankingView
        AbstractActorView <|- - AbstractGroupView
        AbstractUserView <|- - AbstractActorView
    }

    namespace com.hack23.cia.web.impl.ui.application.views.common {
        abstract class AbstractView [[../../common/AbstractView.html]] {
            #pageActionEventHelper: PageActionEventHelper
            #pageLinkFactory: PageLinkFactory
            #applicationName: String
            #applicationVersion: String
            #applicationUrl: String
        }
    }

    center footer UMLDoclet 2.0.20, PlantUML 1.2022.12
@enduml

PlantUML version 1.2022.12(Sun Oct 23 20:12:26 CEST 2022)
(APACHE source distribution)
Java Runtime: OpenJDK Runtime Environment
JVM: OpenJDK 64-Bit Server VM
Default Encoding: UTF-8
Language: 
Country: 
--></g></svg>