<svg xmlns="http://www.w3.org/2000/svg" xmlns:xlink="http://www.w3.org/1999/xlink" contentStyleType="text/css" height="293px" preserveAspectRatio="none" style="width:507px;height:293px;background:#FFFFFF;" version="1.1" viewBox="0 0 507 293" width="507px" zoomAndPan="magnify"><defs/><g><!--class com.hack23.cia.web.impl.ui.application.views.common.dataseriesfactory.impl.CommitteeDataSeriesFactoryImpl--><a href="CommitteeDataSeriesFactoryImpl.html" target="_top" title="CommitteeDataSeriesFactoryImpl.html" xlink:actuate="onRequest" xlink:href="CommitteeDataSeriesFactoryImpl.html" xlink:show="new" xlink:title="CommitteeDataSeriesFactoryImpl.html" xlink:type="simple"><g id="elem_com.hack23.cia.web.impl.ui.application.views.common.dataseriesfactory.impl.CommitteeDataSeriesFactoryImpl"><rect codeLine="13" fill="#F1F1F1" height="107.8917" id="com.hack23.cia.web.impl.ui.application.views.common.dataseriesfactory.impl.CommitteeDataSeriesFactoryImpl" rx="2.5" ry="2.5" style="stroke:#181818;stroke-width:0.5;" width="494.9282" x="6" y="156"/><ellipse cx="67.2093" cy="177.344" fill="#ADD1B2" rx="11" ry="11" style="stroke:#181818;stroke-width:1.0;"/><path d="M70.178,182.9846 Q69.5999,183.2815 68.9593,183.4221 Q68.3187,183.5783 67.6155,183.5783 Q65.1155,183.5783 63.7874,181.9377 Q62.4749,180.2815 62.4749,177.1565 Q62.4749,174.0315 63.7874,172.3752 Q65.1155,170.719 67.6155,170.719 Q68.3187,170.719 68.9593,170.8752 Q69.6155,171.0315 70.178,171.3283 L70.178,174.0471 Q69.553,173.469 68.9593,173.2033 Q68.3655,172.9221 67.7405,172.9221 Q66.3968,172.9221 65.7093,174.0002 Q65.0218,175.0627 65.0218,177.1565 Q65.0218,179.2502 65.7093,180.3283 Q66.3968,181.3908 67.7405,181.3908 Q68.3655,181.3908 68.9593,181.1252 Q69.553,180.844 70.178,180.2658 L70.178,182.9846 Z " fill="#000000"/><text fill="#000000" font-family="sans-serif" font-size="14" lengthAdjust="spacing" textLength="221.9132" x="158.7575" y="175.9659">CommitteeDataSeriesFactoryImpl</text><text fill="#000000" font-family="sans-serif" font-size="10" lengthAdjust="spacing" textLength="364.0096" x="87.7093" y="190.7579">com.hack23.cia.web.impl.ui.application.views.common.dataseriesfactory.impl</text><line style="stroke:#181818;stroke-width:0.5;" x1="7" x2="499.9282" y1="198.6879" y2="198.6879"/><ellipse cx="17" cy="213.7219" fill="#84BE84" rx="3" ry="3" style="stroke:#038048;stroke-width:1.0;"/><text fill="#000000" font-family="sans-serif" font-size="14" lengthAdjust="spacing" textLength="468.9282" x="26" y="217.6538">createChartTimeSeriesTotalDaysServedCommitteeByParty(): DataSeries</text><ellipse cx="17" cy="232.7898" fill="#84BE84" rx="3" ry="3" style="stroke:#038048;stroke-width:1.0;"/><text fill="#000000" font-family="sans-serif" font-size="14" lengthAdjust="spacing" textLength="324.8828" x="26" y="236.7218">createCommitteeChartTimeSeriesAll(): DataSeries</text><ellipse cx="17" cy="251.8577" fill="#84BE84" rx="3" ry="3" style="stroke:#038048;stroke-width:1.0;"/><text fill="#000000" font-family="sans-serif" font-size="14" lengthAdjust="spacing" textLength="359.3786" x="26" y="255.7897">createCommitteeChartTimeSeriesCurrent(): DataSeries</text></g></a><!--class com.hack23.cia.web.impl.ui.application.views.common.dataseriesfactory.api.CommitteeDataSeriesFactory--><a href="../api/CommitteeDataSeriesFactory.html" target="_top" title="../api/CommitteeDataSeriesFactory.html" xlink:actuate="onRequest" xlink:href="../api/CommitteeDataSeriesFactory.html" xlink:show="new" xlink:title="../api/CommitteeDataSeriesFactory.html" xlink:type="simple"><g id="elem_com.hack23.cia.web.impl.ui.application.views.common.dataseriesfactory.api.CommitteeDataSeriesFactory"><rect codeLine="19" fill="#F1F1F1" height="107.8917" id="com.hack23.cia.web.impl.ui.application.views.common.dataseriesfactory.api.CommitteeDataSeriesFactory" rx="2.5" ry="2.5" style="stroke:#181818;stroke-width:0.5;" width="463.9323" x="21.5" y="12"/><ellipse cx="79.7863" cy="33.344" fill="#B4A7E5" rx="11" ry="11" style="stroke:#181818;stroke-width:1.0;"/><path d="M75.7082,29.1096 L75.7082,26.9533 L83.0988,26.9533 L83.0988,29.1096 L80.6301,29.1096 L80.6301,37.1877 L83.0988,37.1877 L83.0988,39.344 L75.7082,39.344 L75.7082,37.1877 L78.177,37.1877 L78.177,29.1096 L75.7082,29.1096 Z " fill="#000000"/><text fill="#000000" font-family="sans-serif" font-size="14" font-style="italic" lengthAdjust="spacing" textLength="179.2553" x="180.0885" y="31.9659">CommitteeDataSeriesFactory</text><text fill="#000000" font-family="sans-serif" font-size="10" font-style="italic" lengthAdjust="spacing" textLength="338.8596" x="100.2863" y="46.7579">com.hack23.cia.web.impl.ui.application.views.common.dataseriesfactory.api</text><line style="stroke:#181818;stroke-width:0.5;" x1="22.5" x2="484.4323" y1="54.6879" y2="54.6879"/><ellipse cx="32.5" cy="69.7219" fill="#84BE84" rx="3" ry="3" style="stroke:#038048;stroke-width:1.0;"/><text fill="#000000" font-family="sans-serif" font-size="14" font-style="italic" lengthAdjust="spacing" textLength="437.9323" x="41.5" y="73.6538">createChartTimeSeriesTotalDaysServedCommitteeByParty(): DataSeries</text><ellipse cx="32.5" cy="88.7898" fill="#84BE84" rx="3" ry="3" style="stroke:#038048;stroke-width:1.0;"/><text fill="#000000" font-family="sans-serif" font-size="14" font-style="italic" lengthAdjust="spacing" textLength="303.1968" x="41.5" y="92.7218">createCommitteeChartTimeSeriesAll(): DataSeries</text><ellipse cx="32.5" cy="107.8577" fill="#84BE84" rx="3" ry="3" style="stroke:#038048;stroke-width:1.0;"/><text fill="#000000" font-family="sans-serif" font-size="14" font-style="italic" lengthAdjust="spacing" textLength="335.3127" x="41.5" y="111.7897">createCommitteeChartTimeSeriesCurrent(): DataSeries</text></g></a><polygon fill="none" points="253.5,120.2796,247.5,138.2796,259.5,138.2796,253.5,120.2796" style="stroke:#181818;stroke-width:1.0;"/><path d="M253.5,138.2796 C253.5,149.9268 253.5,144.2537 253.5,155.8941 " fill="none" style="stroke:#181818;stroke-width:1.0;stroke-dasharray:7.0,7.0;"/><text fill="#888888" font-family="sans-serif" font-size="10" lengthAdjust="spacing" textLength="2.6" x="248.7" y="268.69">&#160;</text><a href="https://github.com/talsma-ict/umldoclet" target="_top" title="https://github.com/talsma-ict/umldoclet" xlink:actuate="onRequest" xlink:href="https://github.com/talsma-ict/umldoclet" xlink:show="new" xlink:title="https://github.com/talsma-ict/umldoclet" xlink:type="simple"><text fill="#888888" font-family="sans-serif" font-size="10" lengthAdjust="spacing" textLength="76.7199" x="211.64" y="282.31">UMLDoclet 2.2.1</text></a><!--SRC=[lLNRJjj047tlLqpfGq6GZMDk9K98QUY5AfLG4vv27YRs95vblUlkheDSohztR8UG0gMqYl2BjJjdpbpExWu0m5lecgomSffuy0Py8XrSVEq1wXYcfCcYfnXaYbDoC2PbzDJLG0BCVM8ic4crYeorv3AZOwcdy0Nd2CxaDY8dNhs2AjJWblqAtGhxk2WtJqsaoCDcTsibfJ1e7JJ28Do70IgN8fnr1sB1TkSJYb2qWBcLZ4WxfinrJBPAgvDXnBzURTc1ELadZMQVOC5JbXePxL5g1nbQxygIpXLgN-RQ4Xn_Jnp2PgVV-pstuAZARGSwLcCUmpVpFL-M-pgpEEMC5HOcz-1IygYnjZbEMcFAxSA8-iH1qNCdjT5KsHCP4r2Q-G8cabJixkyoMM9ukzgF53e76yTE_g1sQ- -aQz9KUazqYXxxP2MvZnXnWE8ipTIbNW23ayYa8i5e5kwAIAAueh6GZ12v59Xbt4pqt2enbtJb18DJNiJCwIhEISrPkMm0Axe-El5q2J0SFWqGYK_LQ0JNLN_ARpkon8Ujcx2-0vbIxJ8m7jKf5ewNSugNfE-BSyOLcrjjkED_m7MBlaVQKUh_7Bivto3j7t6-gOMMsfFbFj6pn5wxq9Z9DUhCR4_8p18BqMHCyy-OXofVuzXvozQRjGh-2Eq_Q_zyZhyUWnVf__5F8LxkHjU57JjVA3fPzcnY31_u5NtBxtEHaUr9FUiQnM_cctUFMo_A2Q2a9XuwqKmJlv314dbJXskkn5l4kjJ3OU9zvjhDvbJw91-NTJLzDNqQClBDF5LnFNRk3Q3HQ35GFYqdMpaT6i5XexKxQ0Ly4Tl1eTWFTe_2rlv1Qpi8sq4m_91Rar6pxqqqIunAHxy0]--></g></svg>