<?xml version="1.0" encoding="UTF-8" standalone="no"?><svg xmlns="http://www.w3.org/2000/svg" xmlns:xlink="http://www.w3.org/1999/xlink" contentScriptType="application/ecmascript" contentStyleType="text/css" height="744px" preserveAspectRatio="none" style="width:1470px;height:744px;" version="1.1" viewBox="0 0 1470 744" width="1470px" zoomAndPan="magnify"><defs><filter height="300%" id="fk4xfvp2jutbt" width="300%" x="-1" y="-1"><feGaussianBlur result="blurOut" stdDeviation="2.0"/><feColorMatrix in="blurOut" result="blurOut2" type="matrix" values="0 0 0 0 0 0 0 0 0 0 0 0 0 0 0 0 0 0 .4 0"/><feOffset dx="4.0" dy="4.0" in="blurOut2" result="blurOut3"/><feBlend in="SourceGraphic" in2="blurOut3" mode="normal"/></filter></defs><g><!--cluster com.hack23.cia.web.impl.ui.application.views.common.pagemode--><polygon fill="#FFFFFF" filter="url(#fk4xfvp2jutbt)" points="14,16,538,16,545,38.2969,1448,38.2969,1448,704,14,704,14,16" style="stroke: #000000; stroke-width: 1.5;"/><line style="stroke: #000000; stroke-width: 1.5;" x1="14" x2="545" y1="38.2969" y2="38.2969"/><text fill="#000000" font-family="sans-serif" font-size="14" font-weight="bold" lengthAdjust="spacingAndGlyphs" textLength="518" x="18" y="30.9951">com.hack23.cia.web.impl.ui.application.views.common.pagemode</text><!--class com.hack23.cia.web.impl.ui.application.views.common.pagemode.AbstractPageModContentFactoryImpl--><a href="AbstractPageModContentFactoryImpl.html" target="_top" xlink:actuate="onRequest" xlink:show="new" xlink:title="AbstractPageModContentFactoryImpl.html" xlink:type="simple"><rect fill="#FEFECE" filter="url(#fk4xfvp2jutbt)" height="227.2656" id="com.hack23.cia.web.impl.ui.application.views.common.pagemode.AbstractPageModContentFactoryImpl" style="stroke: #A80036; stroke-width: 1.5;" width="356" x="736" y="189"/><ellipse cx="793.75" cy="205" fill="#A9DCDF" rx="11" ry="11" style="stroke: #A80036; stroke-width: 1.0;"/><path d="M793.8594,200.3438 L792.7031,205.4219 L795.0313,205.4219 L793.8594,200.3438 Z M792.375,198.1094 L795.3594,198.1094 L798.7188,210.5 L796.2656,210.5 L795.5,207.4375 L792.2188,207.4375 L791.4688,210.5 L789.0313,210.5 L792.375,198.1094 Z "/><text fill="#000000" font-family="sans-serif" font-size="12" font-style="italic" lengthAdjust="spacingAndGlyphs" textLength="232" x="814.25" y="209.1543">AbstractPageModContentFactoryImpl</text><line style="stroke: #A80036; stroke-width: 1.5;" x1="737" x2="1091" y1="221" y2="221"/><ellipse cx="747" cy="232.9023" fill="none" rx="3" ry="3" style="stroke: #038048; stroke-width: 1.0;"/><text fill="#000000" font-family="sans-serif" font-size="11" lengthAdjust="spacingAndGlyphs" text-decoration="underline" textLength="219" x="756" y="235.2104">CURRENT_PAGE_VISIT_HISTORY: String</text><ellipse cx="747" cy="245.707" fill="none" rx="3" ry="3" style="stroke: #038048; stroke-width: 1.0;"/><text fill="#000000" font-family="sans-serif" font-size="11" lengthAdjust="spacingAndGlyphs" text-decoration="underline" textLength="191" x="756" y="248.0151">DEFAULT_RESULTS_PER_PAGE: int</text><ellipse cx="747" cy="258.5117" fill="none" rx="3" ry="3" style="stroke: #038048; stroke-width: 1.0;"/><text fill="#000000" font-family="sans-serif" font-size="11" lengthAdjust="spacingAndGlyphs" text-decoration="underline" textLength="238" x="756" y="260.8198">GENERAL_PAGE_MODE_PAGE_VISIT: String</text><line style="stroke: #A80036; stroke-width: 1.5;" x1="737" x2="1091" y1="267.4141" y2="267.4141"/><polygon fill="#FFFF44" points="747,274.3164,751,278.3164,747,282.3164,743,278.3164" style="stroke: #B38D22; stroke-width: 1.0;"/><text fill="#000000" font-family="sans-serif" font-size="11" lengthAdjust="spacingAndGlyphs" textLength="330" x="756" y="281.6245">createPageVisitHistory(String, String, VerticalLayout): void</text><polygon fill="#FFFF44" points="747,287.1211,751,291.1211,747,295.1211,743,291.1211" style="stroke: #B38D22; stroke-width: 1.0;"/><text fill="#000000" font-family="sans-serif" font-size="11" lengthAdjust="spacingAndGlyphs" textLength="206" x="756" y="294.4292">createPanelContent(): VerticalLayout</text><polygon fill="#FFFF44" points="747,299.9258,751,303.9258,747,307.9258,743,303.9258" style="stroke: #B38D22; stroke-width: 1.0;"/><text fill="#000000" font-family="sans-serif" font-size="11" lengthAdjust="spacingAndGlyphs" textLength="316" x="756" y="307.2339">getAdminChartDataManager(): AdminChartDataManager</text><polygon fill="#FFFF44" points="747,312.7305,751,316.7305,747,320.7305,743,316.7305" style="stroke: #B38D22; stroke-width: 1.0;"/><text fill="#000000" font-family="sans-serif" font-size="11" lengthAdjust="spacingAndGlyphs" textLength="254" x="756" y="320.0386">getApplicationManager(): ApplicationManager</text><polygon fill="#FFFF44" points="747,325.5352,751,329.5352,747,333.5352,743,329.5352" style="stroke: #B38D22; stroke-width: 1.0;"/><text fill="#000000" font-family="sans-serif" font-size="11" lengthAdjust="spacingAndGlyphs" textLength="174" x="756" y="332.8433">getFormFactory(): FormFactory</text><polygon fill="#FFFF44" points="747,338.3398,751,342.3398,747,346.3398,743,342.3398" style="stroke: #B38D22; stroke-width: 1.0;"/><text fill="#000000" font-family="sans-serif" font-size="11" lengthAdjust="spacingAndGlyphs" textLength="164" x="756" y="345.6479">getGridFactory(): GridFactory</text><polygon fill="#FFFF44" points="747,351.1445,751,355.1445,747,359.1445,743,355.1445" style="stroke: #B38D22; stroke-width: 1.0;"/><text fill="#000000" font-family="sans-serif" font-size="11" lengthAdjust="spacingAndGlyphs" textLength="287" x="756" y="358.4526">getMenuItemFactory(): ApplicationMenuItemFactory</text><polygon fill="#FFFF44" points="747,363.9492,751,367.9492,747,371.9492,743,367.9492" style="stroke: #B38D22; stroke-width: 1.0;"/><text fill="#000000" font-family="sans-serif" font-size="11" lengthAdjust="spacingAndGlyphs" textLength="294" x="756" y="371.2573">getPageActionEventHelper(): PageActionEventHelper</text><polygon fill="#FFFF44" points="747,376.7539,751,380.7539,747,384.7539,743,380.7539" style="stroke: #B38D22; stroke-width: 1.0;"/><text fill="#000000" font-family="sans-serif" font-size="11" lengthAdjust="spacingAndGlyphs" textLength="140" x="756" y="384.062">getPageId(String): String</text><polygon fill="#FFFF44" points="747,389.5586,751,393.5586,747,397.5586,743,393.5586" style="stroke: #B38D22; stroke-width: 1.0;"/><text fill="#000000" font-family="sans-serif" font-size="11" lengthAdjust="spacingAndGlyphs" textLength="216" x="756" y="396.8667">getPageLinkFactory(): PageLinkFactory</text><polygon fill="#FFFF44" points="747,402.3633,751,406.3633,747,410.3633,743,406.3633" style="stroke: #B38D22; stroke-width: 1.0;"/><text fill="#000000" font-family="sans-serif" font-size="11" lengthAdjust="spacingAndGlyphs" textLength="123" x="756" y="409.6714">getPageNr(String): int</text></a><!--class com.hack23.cia.web.impl.ui.application.views.common.pagemode.MainViewRegisterPageModContentFactoryImpl--><a href="MainViewRegisterPageModContentFactoryImpl.html" target="_top" xlink:actuate="onRequest" xlink:show="new" xlink:title="MainViewRegisterPageModContentFactoryImpl.html" xlink:type="simple"><rect fill="#FEFECE" filter="url(#fk4xfvp2jutbt)" height="86.4141" id="com.hack23.cia.web.impl.ui.application.views.common.pagemode.MainViewRegisterPageModContentFactoryImpl" style="stroke: #A80036; stroke-width: 1.5;" width="320" x="22" y="610"/><ellipse cx="37" cy="626" fill="#ADD1B2" rx="11" ry="11" style="stroke: #A80036; stroke-width: 1.0;"/><path d="M39.9688,631.6406 Q39.3906,631.9375 38.75,632.0781 Q38.1094,632.2344 37.4063,632.2344 Q34.9063,632.2344 33.5781,630.5938 Q32.2656,628.9375 32.2656,625.8125 Q32.2656,622.6875 33.5781,621.0313 Q34.9063,619.375 37.4063,619.375 Q38.1094,619.375 38.75,619.5313 Q39.4063,619.6875 39.9688,619.9844 L39.9688,622.7031 Q39.3438,622.125 38.75,621.8594 Q38.1563,621.5781 37.5313,621.5781 Q36.1875,621.5781 35.5,622.6563 Q34.8125,623.7188 34.8125,625.8125 Q34.8125,627.9063 35.5,628.9844 Q36.1875,630.0469 37.5313,630.0469 Q38.1563,630.0469 38.75,629.7813 Q39.3438,629.5 39.9688,628.9219 L39.9688,631.6406 Z "/><text fill="#000000" font-family="sans-serif" font-size="12" lengthAdjust="spacingAndGlyphs" textLength="288" x="51" y="630.1543">MainViewRegisterPageModContentFactoryImpl</text><line style="stroke: #A80036; stroke-width: 1.5;" x1="23" x2="341" y1="642" y2="642"/><ellipse cx="33" cy="653.9023" fill="none" rx="3" ry="3" style="stroke: #038048; stroke-width: 1.0;"/><text fill="#000000" font-family="sans-serif" font-size="11" lengthAdjust="spacingAndGlyphs" text-decoration="underline" textLength="73" x="42" y="656.2104">NAME: String</text><line style="stroke: #A80036; stroke-width: 1.5;" x1="23" x2="341" y1="662.8047" y2="662.8047"/><ellipse cx="33" cy="674.707" fill="#84BE84" rx="3" ry="3" style="stroke: #038048; stroke-width: 1.0;"/><text fill="#000000" font-family="sans-serif" font-size="11" lengthAdjust="spacingAndGlyphs" textLength="264" x="42" y="677.0151">createContent(String, MenuBar, Panel): Layout</text><ellipse cx="33" cy="687.5117" fill="#84BE84" rx="3" ry="3" style="stroke: #038048; stroke-width: 1.0;"/><text fill="#000000" font-family="sans-serif" font-size="11" lengthAdjust="spacingAndGlyphs" textLength="186" x="42" y="689.8198">matches(String, String): boolean</text></a><!--class com.hack23.cia.web.impl.ui.application.views.common.pagemode.MainViewPageVisitHistoryPageModContentFactoryImpl--><a href="MainViewPageVisitHistoryPageModContentFactoryImpl.html" target="_top" xlink:actuate="onRequest" xlink:show="new" xlink:title="MainViewPageVisitHistoryPageModContentFactoryImpl.html" xlink:type="simple"><rect fill="#FEFECE" filter="url(#fk4xfvp2jutbt)" height="86.4141" id="com.hack23.cia.web.impl.ui.application.views.common.pagemode.MainViewPageVisitHistoryPageModContentFactoryImpl" style="stroke: #A80036; stroke-width: 1.5;" width="369" x="377.5" y="610"/><ellipse cx="392.5" cy="626" fill="#ADD1B2" rx="11" ry="11" style="stroke: #A80036; stroke-width: 1.0;"/><path d="M395.4688,631.6406 Q394.8906,631.9375 394.25,632.0781 Q393.6094,632.2344 392.9063,632.2344 Q390.4063,632.2344 389.0781,630.5938 Q387.7656,628.9375 387.7656,625.8125 Q387.7656,622.6875 389.0781,621.0313 Q390.4063,619.375 392.9063,619.375 Q393.6094,619.375 394.25,619.5313 Q394.9063,619.6875 395.4688,619.9844 L395.4688,622.7031 Q394.8438,622.125 394.25,621.8594 Q393.6563,621.5781 393.0313,621.5781 Q391.6875,621.5781 391,622.6563 Q390.3125,623.7188 390.3125,625.8125 Q390.3125,627.9063 391,628.9844 Q391.6875,630.0469 393.0313,630.0469 Q393.6563,630.0469 394.25,629.7813 Q394.8438,629.5 395.4688,628.9219 L395.4688,631.6406 Z "/><text fill="#000000" font-family="sans-serif" font-size="12" lengthAdjust="spacingAndGlyphs" textLength="337" x="406.5" y="630.1543">MainViewPageVisitHistoryPageModContentFactoryImpl</text><line style="stroke: #A80036; stroke-width: 1.5;" x1="378.5" x2="745.5" y1="642" y2="642"/><ellipse cx="388.5" cy="653.9023" fill="none" rx="3" ry="3" style="stroke: #038048; stroke-width: 1.0;"/><text fill="#000000" font-family="sans-serif" font-size="11" lengthAdjust="spacingAndGlyphs" text-decoration="underline" textLength="73" x="397.5" y="656.2104">NAME: String</text><line style="stroke: #A80036; stroke-width: 1.5;" x1="378.5" x2="745.5" y1="662.8047" y2="662.8047"/><ellipse cx="388.5" cy="674.707" fill="#84BE84" rx="3" ry="3" style="stroke: #038048; stroke-width: 1.0;"/><text fill="#000000" font-family="sans-serif" font-size="11" lengthAdjust="spacingAndGlyphs" textLength="264" x="397.5" y="677.0151">createContent(String, MenuBar, Panel): Layout</text><ellipse cx="388.5" cy="687.5117" fill="#84BE84" rx="3" ry="3" style="stroke: #038048; stroke-width: 1.0;"/><text fill="#000000" font-family="sans-serif" font-size="11" lengthAdjust="spacingAndGlyphs" textLength="186" x="397.5" y="689.8198">matches(String, String): boolean</text></a><!--class com.hack23.cia.web.impl.ui.application.views.common.pagemode.MainViewLoginPageModContentFactoryImpl--><a href="MainViewLoginPageModContentFactoryImpl.html" target="_top" xlink:actuate="onRequest" xlink:show="new" xlink:title="MainViewLoginPageModContentFactoryImpl.html" xlink:type="simple"><rect fill="#FEFECE" filter="url(#fk4xfvp2jutbt)" height="86.4141" id="com.hack23.cia.web.impl.ui.application.views.common.pagemode.MainViewLoginPageModContentFactoryImpl" style="stroke: #A80036; stroke-width: 1.5;" width="301" x="781.5" y="610"/><ellipse cx="796.5" cy="626" fill="#ADD1B2" rx="11" ry="11" style="stroke: #A80036; stroke-width: 1.0;"/><path d="M799.4688,631.6406 Q798.8906,631.9375 798.25,632.0781 Q797.6094,632.2344 796.9063,632.2344 Q794.4063,632.2344 793.0781,630.5938 Q791.7656,628.9375 791.7656,625.8125 Q791.7656,622.6875 793.0781,621.0313 Q794.4063,619.375 796.9063,619.375 Q797.6094,619.375 798.25,619.5313 Q798.9063,619.6875 799.4688,619.9844 L799.4688,622.7031 Q798.8438,622.125 798.25,621.8594 Q797.6563,621.5781 797.0313,621.5781 Q795.6875,621.5781 795,622.6563 Q794.3125,623.7188 794.3125,625.8125 Q794.3125,627.9063 795,628.9844 Q795.6875,630.0469 797.0313,630.0469 Q797.6563,630.0469 798.25,629.7813 Q798.8438,629.5 799.4688,628.9219 L799.4688,631.6406 Z "/><text fill="#000000" font-family="sans-serif" font-size="12" lengthAdjust="spacingAndGlyphs" textLength="269" x="810.5" y="630.1543">MainViewLoginPageModContentFactoryImpl</text><line style="stroke: #A80036; stroke-width: 1.5;" x1="782.5" x2="1081.5" y1="642" y2="642"/><ellipse cx="792.5" cy="653.9023" fill="none" rx="3" ry="3" style="stroke: #038048; stroke-width: 1.0;"/><text fill="#000000" font-family="sans-serif" font-size="11" lengthAdjust="spacingAndGlyphs" text-decoration="underline" textLength="73" x="801.5" y="656.2104">NAME: String</text><line style="stroke: #A80036; stroke-width: 1.5;" x1="782.5" x2="1081.5" y1="662.8047" y2="662.8047"/><ellipse cx="792.5" cy="674.707" fill="#84BE84" rx="3" ry="3" style="stroke: #038048; stroke-width: 1.0;"/><text fill="#000000" font-family="sans-serif" font-size="11" lengthAdjust="spacingAndGlyphs" textLength="264" x="801.5" y="677.0151">createContent(String, MenuBar, Panel): Layout</text><ellipse cx="792.5" cy="687.5117" fill="#84BE84" rx="3" ry="3" style="stroke: #038048; stroke-width: 1.0;"/><text fill="#000000" font-family="sans-serif" font-size="11" lengthAdjust="spacingAndGlyphs" textLength="186" x="801.5" y="689.8198">matches(String, String): boolean</text></a><!--class com.hack23.cia.web.impl.ui.application.views.common.pagemode.AbstractBasicPageModContentFactoryImpl--><a href="AbstractBasicPageModContentFactoryImpl.html" target="_top" xlink:actuate="onRequest" xlink:show="new" xlink:title="AbstractBasicPageModContentFactoryImpl.html" xlink:type="simple"><rect fill="#FEFECE" filter="url(#fk4xfvp2jutbt)" height="60.8047" id="com.hack23.cia.web.impl.ui.application.views.common.pagemode.AbstractBasicPageModContentFactoryImpl" style="stroke: #A80036; stroke-width: 1.5;" width="296" x="599" y="482.5"/><ellipse cx="614" cy="498.5" fill="#A9DCDF" rx="11" ry="11" style="stroke: #A80036; stroke-width: 1.0;"/><path d="M614.1094,493.8438 L612.9531,498.9219 L615.2813,498.9219 L614.1094,493.8438 Z M612.625,491.6094 L615.6094,491.6094 L618.9688,504 L616.5156,504 L615.75,500.9375 L612.4688,500.9375 L611.7188,504 L609.2813,504 L612.625,491.6094 Z "/><text fill="#000000" font-family="sans-serif" font-size="12" font-style="italic" lengthAdjust="spacingAndGlyphs" textLength="264" x="628" y="502.6543">AbstractBasicPageModContentFactoryImpl</text><line style="stroke: #A80036; stroke-width: 1.5;" x1="600" x2="894" y1="514.5" y2="514.5"/><line style="stroke: #A80036; stroke-width: 1.5;" x1="600" x2="894" y1="522.5" y2="522.5"/><ellipse cx="610" cy="534.4023" fill="#84BE84" rx="3" ry="3" style="stroke: #038048; stroke-width: 1.0;"/><text fill="#000000" font-family="sans-serif" font-size="11" lengthAdjust="spacingAndGlyphs" textLength="178" x="619" y="536.7104">validReference(String): boolean</text></a><!--class com.hack23.cia.web.impl.ui.application.views.common.pagemode.AbstractItemPageModContentFactoryImpl--><a href="AbstractItemPageModContentFactoryImpl.html" target="_top" xlink:actuate="onRequest" xlink:show="new" xlink:title="AbstractItemPageModContentFactoryImpl.html" xlink:type="simple"><rect fill="#FEFECE" filter="url(#fk4xfvp2jutbt)" height="73.6094" id="com.hack23.cia.web.impl.ui.application.views.common.pagemode.AbstractItemPageModContentFactoryImpl" style="stroke: #A80036; stroke-width: 1.5;" width="303" x="930.5" y="476"/><ellipse cx="945.5" cy="492" fill="#A9DCDF" rx="11" ry="11" style="stroke: #A80036; stroke-width: 1.0;"/><path d="M945.6094,487.3438 L944.4531,492.4219 L946.7813,492.4219 L945.6094,487.3438 Z M944.125,485.1094 L947.1094,485.1094 L950.4688,497.5 L948.0156,497.5 L947.25,494.4375 L943.9688,494.4375 L943.2188,497.5 L940.7813,497.5 L944.125,485.1094 Z "/><text fill="#000000" font-family="sans-serif" font-size="12" font-style="italic" lengthAdjust="spacingAndGlyphs" textLength="260" x="959.5" y="496.1543">AbstractItemPageModContentFactoryImpl</text><rect fill="#FFFFFF" height="15.9688" style="stroke: #000000; stroke-width: 1.0; stroke-dasharray: 2.0,2.0;" width="9" x="1227.5" y="473"/><text fill="#000000" font-family="sans-serif" font-size="12" font-style="italic" lengthAdjust="spacingAndGlyphs" textLength="7" x="1228.5" y="485.1387">T</text><line style="stroke: #A80036; stroke-width: 1.5;" x1="931.5" x2="1232.5" y1="508" y2="508"/><line style="stroke: #A80036; stroke-width: 1.5;" x1="931.5" x2="1232.5" y1="516" y2="516"/><polygon fill="#FFFF44" points="941.5,522.9023,945.5,526.9023,941.5,530.9023,937.5,526.9023" style="stroke: #B38D22; stroke-width: 1.0;"/><text fill="#000000" font-family="sans-serif" font-size="11" font-style="italic" lengthAdjust="spacingAndGlyphs" textLength="99" x="950.5" y="530.2104">getItem(String): T</text><ellipse cx="941.5" cy="540.707" fill="#84BE84" rx="3" ry="3" style="stroke: #038048; stroke-width: 1.0;"/><text fill="#000000" font-family="sans-serif" font-size="11" lengthAdjust="spacingAndGlyphs" textLength="178" x="950.5" y="543.0151">validReference(String): boolean</text></a><!--class com.hack23.cia.web.impl.ui.application.views.common.pagemode.PageModeContentFactory--><a href="PageModeContentFactory.html" target="_top" xlink:actuate="onRequest" xlink:show="new" xlink:title="PageModeContentFactory.html" xlink:type="simple"><rect fill="#FEFECE" filter="url(#fk4xfvp2jutbt)" height="86.4141" id="com.hack23.cia.web.impl.ui.application.views.common.pagemode.PageModeContentFactory" style="stroke: #A80036; stroke-width: 1.5;" width="290" x="769" y="43"/><ellipse cx="828.75" cy="59" fill="#B4A7E5" rx="11" ry="11" style="stroke: #A80036; stroke-width: 1.0;"/><path d="M824.6719,54.7656 L824.6719,52.6094 L832.0625,52.6094 L832.0625,54.7656 L829.5938,54.7656 L829.5938,62.8438 L832.0625,62.8438 L832.0625,65 L824.6719,65 L824.6719,62.8438 L827.1406,62.8438 L827.1406,54.7656 L824.6719,54.7656 Z "/><text fill="#000000" font-family="sans-serif" font-size="12" font-style="italic" lengthAdjust="spacingAndGlyphs" textLength="162" x="849.25" y="63.1543">PageModeContentFactory</text><line style="stroke: #A80036; stroke-width: 1.5;" x1="770" x2="1058" y1="75" y2="75"/><line style="stroke: #A80036; stroke-width: 1.5;" x1="770" x2="1058" y1="83" y2="83"/><ellipse cx="780" cy="94.9023" fill="#84BE84" rx="3" ry="3" style="stroke: #038048; stroke-width: 1.0;"/><text fill="#000000" font-family="sans-serif" font-size="11" font-style="italic" lengthAdjust="spacingAndGlyphs" textLength="264" x="789" y="97.2104">createContent(String, MenuBar, Panel): Layout</text><ellipse cx="780" cy="107.707" fill="#84BE84" rx="3" ry="3" style="stroke: #038048; stroke-width: 1.0;"/><text fill="#000000" font-family="sans-serif" font-size="11" font-style="italic" lengthAdjust="spacingAndGlyphs" textLength="183" x="789" y="110.0151">matches(String, String): boolean</text><ellipse cx="780" cy="120.5117" fill="#84BE84" rx="3" ry="3" style="stroke: #038048; stroke-width: 1.0;"/><text fill="#000000" font-family="sans-serif" font-size="11" font-style="italic" lengthAdjust="spacingAndGlyphs" textLength="179" x="789" y="122.8198">validReference(String): boolean</text></a><!--class com.hack23.cia.web.impl.ui.application.views.common.pagemode.MainViewOverviewPageModContentFactoryImpl--><a href="MainViewOverviewPageModContentFactoryImpl.html" target="_top" xlink:actuate="onRequest" xlink:show="new" xlink:title="MainViewOverviewPageModContentFactoryImpl.html" xlink:type="simple"><rect fill="#FEFECE" filter="url(#fk4xfvp2jutbt)" height="86.4141" id="com.hack23.cia.web.impl.ui.application.views.common.pagemode.MainViewOverviewPageModContentFactoryImpl" style="stroke: #A80036; stroke-width: 1.5;" width="322" x="1118" y="610"/><ellipse cx="1133" cy="626" fill="#ADD1B2" rx="11" ry="11" style="stroke: #A80036; stroke-width: 1.0;"/><path d="M1135.9688,631.6406 Q1135.3906,631.9375 1134.75,632.0781 Q1134.1094,632.2344 1133.4063,632.2344 Q1130.9063,632.2344 1129.5781,630.5938 Q1128.2656,628.9375 1128.2656,625.8125 Q1128.2656,622.6875 1129.5781,621.0313 Q1130.9063,619.375 1133.4063,619.375 Q1134.1094,619.375 1134.75,619.5313 Q1135.4063,619.6875 1135.9688,619.9844 L1135.9688,622.7031 Q1135.3438,622.125 1134.75,621.8594 Q1134.1563,621.5781 1133.5313,621.5781 Q1132.1875,621.5781 1131.5,622.6563 Q1130.8125,623.7188 1130.8125,625.8125 Q1130.8125,627.9063 1131.5,628.9844 Q1132.1875,630.0469 1133.5313,630.0469 Q1134.1563,630.0469 1134.75,629.7813 Q1135.3438,629.5 1135.9688,628.9219 L1135.9688,631.6406 Z "/><text fill="#000000" font-family="sans-serif" font-size="12" lengthAdjust="spacingAndGlyphs" textLength="290" x="1147" y="630.1543">MainViewOverviewPageModContentFactoryImpl</text><line style="stroke: #A80036; stroke-width: 1.5;" x1="1119" x2="1439" y1="642" y2="642"/><ellipse cx="1129" cy="653.9023" fill="none" rx="3" ry="3" style="stroke: #038048; stroke-width: 1.0;"/><text fill="#000000" font-family="sans-serif" font-size="11" lengthAdjust="spacingAndGlyphs" text-decoration="underline" textLength="73" x="1138" y="656.2104">NAME: String</text><line style="stroke: #A80036; stroke-width: 1.5;" x1="1119" x2="1439" y1="662.8047" y2="662.8047"/><ellipse cx="1129" cy="674.707" fill="#84BE84" rx="3" ry="3" style="stroke: #038048; stroke-width: 1.0;"/><text fill="#000000" font-family="sans-serif" font-size="11" lengthAdjust="spacingAndGlyphs" textLength="264" x="1138" y="677.0151">createContent(String, MenuBar, Panel): Layout</text><ellipse cx="1129" cy="687.5117" fill="#84BE84" rx="3" ry="3" style="stroke: #038048; stroke-width: 1.0;"/><text fill="#000000" font-family="sans-serif" font-size="11" lengthAdjust="spacingAndGlyphs" textLength="186" x="1138" y="689.8198">matches(String, String): boolean</text></a><!--link com.hack23.cia.web.impl.ui.application.views.common.pagemode.PageModeContentFactory to com.hack23.cia.web.impl.ui.application.views.common.pagemode.AbstractPageModContentFactoryImpl--><path d="M914,149.4706 C914,161.8562 914,175.1913 914,188.6422 " fill="none" id="com.hack23.cia.web.impl.ui.application.views.common.pagemode.PageModeContentFactory-com.hack23.cia.web.impl.ui.application.views.common.pagemode.AbstractPageModContentFactoryImpl" style="stroke: #A80036; stroke-width: 1.0; stroke-dasharray: 7.0,7.0;"/><polygon fill="none" points="907.0001,149.0323,914,129.0323,921.0001,149.0322,907.0001,149.0323" style="stroke: #A80036; stroke-width: 1.0;"/><!--link com.hack23.cia.web.impl.ui.application.views.common.pagemode.AbstractBasicPageModContentFactoryImpl to com.hack23.cia.web.impl.ui.application.views.common.pagemode.MainViewRegisterPageModContentFactoryImpl--><path d="M604.1208,548.4037 C524.2774,568.1879 424.5563,592.8975 342.0892,613.3319 " fill="none" id="com.hack23.cia.web.impl.ui.application.views.common.pagemode.AbstractBasicPageModContentFactoryImpl-com.hack23.cia.web.impl.ui.application.views.common.pagemode.MainViewRegisterPageModContentFactoryImpl" style="stroke: #A80036; stroke-width: 1.0;"/><polygon fill="none" points="602.61,541.5664,623.7065,543.5506,605.9772,555.1555,602.61,541.5664" style="stroke: #A80036; stroke-width: 1.0;"/><!--link com.hack23.cia.web.impl.ui.application.views.common.pagemode.AbstractBasicPageModContentFactoryImpl to com.hack23.cia.web.impl.ui.application.views.common.pagemode.MainViewPageVisitHistoryPageModContentFactoryImpl--><path d="M690.2483,555.9472 C667.6287,573.0648 641.6386,592.733 618.9949,609.8687 " fill="none" id="com.hack23.cia.web.impl.ui.application.views.common.pagemode.AbstractBasicPageModContentFactoryImpl-com.hack23.cia.web.impl.ui.application.views.common.pagemode.MainViewPageVisitHistoryPageModContentFactoryImpl" style="stroke: #A80036; stroke-width: 1.0;"/><polygon fill="none" points="686.2287,550.2106,706.401,543.7236,694.6769,561.3743,686.2287,550.2106" style="stroke: #A80036; stroke-width: 1.0;"/><!--link com.hack23.cia.web.impl.ui.application.views.common.pagemode.AbstractBasicPageModContentFactoryImpl to com.hack23.cia.web.impl.ui.application.views.common.pagemode.MainViewLoginPageModContentFactoryImpl--><path d="M803.7517,555.9472 C826.3713,573.0648 852.3614,592.733 875.0051,609.8687 " fill="none" id="com.hack23.cia.web.impl.ui.application.views.common.pagemode.AbstractBasicPageModContentFactoryImpl-com.hack23.cia.web.impl.ui.application.views.common.pagemode.MainViewLoginPageModContentFactoryImpl" style="stroke: #A80036; stroke-width: 1.0;"/><polygon fill="none" points="799.3231,561.3743,787.599,543.7236,807.7713,550.2106,799.3231,561.3743" style="stroke: #A80036; stroke-width: 1.0;"/><!--link com.hack23.cia.web.impl.ui.application.views.common.pagemode.AbstractPageModContentFactoryImpl to com.hack23.cia.web.impl.ui.application.views.common.pagemode.AbstractBasicPageModContentFactoryImpl--><path d="M811.2756,431.9819 C796.4325,450.6914 782.4464,468.3206 771.3349,482.3264 " fill="none" id="com.hack23.cia.web.impl.ui.application.views.common.pagemode.AbstractPageModContentFactoryImpl-com.hack23.cia.web.impl.ui.application.views.common.pagemode.AbstractBasicPageModContentFactoryImpl" style="stroke: #A80036; stroke-width: 1.0;"/><polygon fill="none" points="805.987,427.3852,823.9011,416.0677,816.9547,436.0864,805.987,427.3852" style="stroke: #A80036; stroke-width: 1.0;"/><!--link com.hack23.cia.web.impl.ui.application.views.common.pagemode.AbstractPageModContentFactoryImpl to com.hack23.cia.web.impl.ui.application.views.common.pagemode.AbstractItemPageModContentFactoryImpl--><path d="M1017.4248,432.0888 C1030.0503,447.9082 1042.0563,462.9515 1052.2152,475.6803 " fill="none" id="com.hack23.cia.web.impl.ui.application.views.common.pagemode.AbstractPageModContentFactoryImpl-com.hack23.cia.web.impl.ui.application.views.common.pagemode.AbstractItemPageModContentFactoryImpl" style="stroke: #A80036; stroke-width: 1.0;"/><polygon fill="none" points="1011.643,436.0661,1004.6384,416.0677,1022.5853,427.3331,1011.643,436.0661" style="stroke: #A80036; stroke-width: 1.0;"/><!--link com.hack23.cia.web.impl.ui.application.views.common.pagemode.AbstractBasicPageModContentFactoryImpl to com.hack23.cia.web.impl.ui.application.views.common.pagemode.MainViewOverviewPageModContentFactoryImpl--><path d="M882.8174,548.7414 C954.41,567.5816 1042.7016,590.8162 1117.7524,610.5664 " fill="none" id="com.hack23.cia.web.impl.ui.application.views.common.pagemode.AbstractBasicPageModContentFactoryImpl-com.hack23.cia.web.impl.ui.application.views.common.pagemode.MainViewOverviewPageModContentFactoryImpl" style="stroke: #A80036; stroke-width: 1.0;"/><polygon fill="none" points="880.6523,555.4101,863.0923,543.5506,884.2152,541.871,880.6523,555.4101" style="stroke: #A80036; stroke-width: 1.0;"/><text fill="#888888" font-family="sans-serif" font-size="10" lengthAdjust="spacingAndGlyphs" textLength="186" x="644" y="731.2822">UMLDoclet 2.0.5, PlantUML 1.2019.08</text><!--
@startuml
    namespace com.hack23.cia.web.impl.ui.application.views.common.pagemode {

        abstract class AbstractPageModContentFactoryImpl [[AbstractPageModContentFactoryImpl.html]] {
            {static} +CURRENT_PAGE_VISIT_HISTORY: String
            {static} +DEFAULT_RESULTS_PER_PAGE: int
            {static} +GENERAL_PAGE_MODE_PAGE_VISIT: String
            #createPageVisitHistory(String, String, VerticalLayout): void
            #createPanelContent(): VerticalLayout
            #getAdminChartDataManager(): AdminChartDataManager
            #getApplicationManager(): ApplicationManager
            #getFormFactory(): FormFactory
            #getGridFactory(): GridFactory
            #getMenuItemFactory(): ApplicationMenuItemFactory
            #getPageActionEventHelper(): PageActionEventHelper
            #getPageId(String): String
            #getPageLinkFactory(): PageLinkFactory
            #getPageNr(String): int
        }

        class MainViewRegisterPageModContentFactoryImpl [[MainViewRegisterPageModContentFactoryImpl.html]] {
            {static} +NAME: String
            +createContent(String, MenuBar, Panel): Layout
            +matches(String, String): boolean
        }

        class MainViewPageVisitHistoryPageModContentFactoryImpl [[MainViewPageVisitHistoryPageModContentFactoryImpl.html]] {
            {static} +NAME: String
            +createContent(String, MenuBar, Panel): Layout
            +matches(String, String): boolean
        }

        class MainViewLoginPageModContentFactoryImpl [[MainViewLoginPageModContentFactoryImpl.html]] {
            {static} +NAME: String
            +createContent(String, MenuBar, Panel): Layout
            +matches(String, String): boolean
        }

        abstract class AbstractBasicPageModContentFactoryImpl [[AbstractBasicPageModContentFactoryImpl.html]] {
            +validReference(String): boolean
        }

        abstract class AbstractItemPageModContentFactoryImpl<T> [[AbstractItemPageModContentFactoryImpl.html]] {
            {abstract} #getItem(String): T
            +validReference(String): boolean
        }

        interface PageModeContentFactory [[PageModeContentFactory.html]] {
            {abstract} +createContent(String, MenuBar, Panel): Layout
            {abstract} +matches(String, String): boolean
            {abstract} +validReference(String): boolean
        }

        class MainViewOverviewPageModContentFactoryImpl [[MainViewOverviewPageModContentFactoryImpl.html]] {
            {static} +NAME: String
            +createContent(String, MenuBar, Panel): Layout
            +matches(String, String): boolean
        }

        PageModeContentFactory <|.. AbstractPageModContentFactoryImpl
        AbstractBasicPageModContentFactoryImpl <|- - MainViewRegisterPageModContentFactoryImpl
        AbstractBasicPageModContentFactoryImpl <|- - MainViewPageVisitHistoryPageModContentFactoryImpl
        AbstractBasicPageModContentFactoryImpl <|- - MainViewLoginPageModContentFactoryImpl
        AbstractPageModContentFactoryImpl <|- - AbstractBasicPageModContentFactoryImpl
        AbstractPageModContentFactoryImpl <|- - AbstractItemPageModContentFactoryImpl
        AbstractBasicPageModContentFactoryImpl <|- - MainViewOverviewPageModContentFactoryImpl
    }

    center footer UMLDoclet 2.0.5, PlantUML 1.2019.08
@enduml

PlantUML version 1.2019.08(Sat Jul 13 21:25:14 CEST 2019)
(APACHE source distribution)
Java Runtime: OpenJDK Runtime Environment
JVM: OpenJDK 64-Bit Server VM
Java Version: 11.0.5-ea+6-post-Ubuntu-1ubuntu2
Operating System: Linux
OS Version: 5.3.0-12-generic
Default Encoding: UTF-8
Language: en
Country: US
--></g></svg>