<?xml version="1.0" encoding="UTF-8" standalone="no"?><svg xmlns="http://www.w3.org/2000/svg" xmlns:xlink="http://www.w3.org/1999/xlink" contentScriptType="application/ecmascript" contentStyleType="text/css" height="336px" preserveAspectRatio="none" style="width:507px;height:336px;" version="1.1" viewBox="0 0 507 336" width="507px" zoomAndPan="magnify"><defs><filter height="300%" id="f1qqzr1hf9h8cn" width="300%" x="-1" y="-1"><feGaussianBlur result="blurOut" stdDeviation="2.0"/><feColorMatrix in="blurOut" result="blurOut2" type="matrix" values="0 0 0 0 0 0 0 0 0 0 0 0 0 0 0 0 0 0 .4 0"/><feOffset dx="4.0" dy="4.0" in="blurOut2" result="blurOut3"/><feBlend in="SourceGraphic" in2="blurOut3" mode="normal"/></filter></defs><g><!--cluster com.hack23.cia.service.impl.action.application.encryption--><polygon fill="#FFFFFF" filter="url(#f1qqzr1hf9h8cn)" points="14,16,475,16,482,38.2969,485,38.2969,485,296,14,296,14,16" style="stroke: #000000; stroke-width: 1.5;"/><line style="stroke: #000000; stroke-width: 1.5;" x1="14" x2="482" y1="38.2969" y2="38.2969"/><text fill="#000000" font-family="sans-serif" font-size="14" font-weight="bold" lengthAdjust="spacingAndGlyphs" textLength="455" x="18" y="30.9951">com.hack23.cia.service.impl.action.application.encryption</text><!--class com.hack23.cia.service.impl.action.application.encryption.VaultManagerImpl--><a href="VaultManagerImpl.html" target="_top" xlink:actuate="onRequest" xlink:show="new" xlink:title="VaultManagerImpl.html" xlink:type="simple"><rect fill="#FEFECE" filter="url(#f1qqzr1hf9h8cn)" height="99.2188" id="com.hack23.cia.service.impl.action.application.encryption.VaultManagerImpl" style="stroke: #A80036; stroke-width: 1.5;" width="294" x="102" y="189"/><ellipse cx="188.75" cy="205" fill="#ADD1B2" rx="11" ry="11" style="stroke: #A80036; stroke-width: 1.0;"/><path d="M191.7188,210.6406 Q191.1406,210.9375 190.5,211.0781 Q189.8594,211.2344 189.1563,211.2344 Q186.6563,211.2344 185.3281,209.5938 Q184.0156,207.9375 184.0156,204.8125 Q184.0156,201.6875 185.3281,200.0313 Q186.6563,198.375 189.1563,198.375 Q189.8594,198.375 190.5,198.5313 Q191.1563,198.6875 191.7188,198.9844 L191.7188,201.7031 Q191.0938,201.125 190.5,200.8594 Q189.9063,200.5781 189.2813,200.5781 Q187.9375,200.5781 187.25,201.6563 Q186.5625,202.7188 186.5625,204.8125 Q186.5625,206.9063 187.25,207.9844 Q187.9375,209.0469 189.2813,209.0469 Q189.9063,209.0469 190.5,208.7813 Q191.0938,208.5 191.7188,207.9219 L191.7188,210.6406 Z "/><text fill="#000000" font-family="sans-serif" font-size="12" lengthAdjust="spacingAndGlyphs" textLength="112" x="209.25" y="209.1543">VaultManagerImpl</text><line style="stroke: #A80036; stroke-width: 1.5;" x1="103" x2="395" y1="221" y2="221"/><line style="stroke: #A80036; stroke-width: 1.5;" x1="103" x2="395" y1="229" y2="229"/><ellipse cx="113" cy="240.9023" fill="#84BE84" rx="3" ry="3" style="stroke: #038048; stroke-width: 1.0;"/><text fill="#000000" font-family="sans-serif" font-size="11" lengthAdjust="spacingAndGlyphs" textLength="220" x="122" y="243.2104">VaultManagerImpl(EncryptedValueDAO)</text><ellipse cx="113" cy="253.707" fill="#84BE84" rx="3" ry="3" style="stroke: #038048; stroke-width: 1.0;"/><text fill="#000000" font-family="sans-serif" font-size="11" lengthAdjust="spacingAndGlyphs" textLength="268" x="122" y="256.0151">getEncryptedValue(String, UserAccount): String</text><ellipse cx="113" cy="266.5117" fill="#84BE84" rx="3" ry="3" style="stroke: #038048; stroke-width: 1.0;"/><text fill="#000000" font-family="sans-serif" font-size="11" lengthAdjust="spacingAndGlyphs" textLength="241" x="122" y="268.8198">encryptValue(String, String, String): String</text><ellipse cx="113" cy="279.3164" fill="#84BE84" rx="3" ry="3" style="stroke: #038048; stroke-width: 1.0;"/><text fill="#000000" font-family="sans-serif" font-size="11" lengthAdjust="spacingAndGlyphs" textLength="241" x="122" y="281.6245">decryptValue(String, String, String): String</text></a><!--class com.hack23.cia.service.impl.action.application.encryption.VaultManager--><a href="VaultManager.html" target="_top" xlink:actuate="onRequest" xlink:show="new" xlink:title="VaultManager.html" xlink:type="simple"><rect fill="#FEFECE" filter="url(#f1qqzr1hf9h8cn)" height="86.4141" id="com.hack23.cia.service.impl.action.application.encryption.VaultManager" style="stroke: #A80036; stroke-width: 1.5;" width="294" x="102" y="43"/><ellipse cx="201.25" cy="59" fill="#B4A7E5" rx="11" ry="11" style="stroke: #A80036; stroke-width: 1.0;"/><path d="M197.1719,54.7656 L197.1719,52.6094 L204.5625,52.6094 L204.5625,54.7656 L202.0938,54.7656 L202.0938,62.8438 L204.5625,62.8438 L204.5625,65 L197.1719,65 L197.1719,62.8438 L199.6406,62.8438 L199.6406,54.7656 L197.1719,54.7656 Z "/><text fill="#000000" font-family="sans-serif" font-size="12" font-style="italic" lengthAdjust="spacingAndGlyphs" textLength="87" x="221.75" y="63.1543">VaultManager</text><line style="stroke: #A80036; stroke-width: 1.5;" x1="103" x2="395" y1="75" y2="75"/><line style="stroke: #A80036; stroke-width: 1.5;" x1="103" x2="395" y1="83" y2="83"/><ellipse cx="113" cy="94.9023" fill="#84BE84" rx="3" ry="3" style="stroke: #038048; stroke-width: 1.0;"/><text fill="#000000" font-family="sans-serif" font-size="11" font-style="italic" lengthAdjust="spacingAndGlyphs" textLength="268" x="122" y="97.2104">getEncryptedValue(String, UserAccount): String</text><ellipse cx="113" cy="107.707" fill="#84BE84" rx="3" ry="3" style="stroke: #038048; stroke-width: 1.0;"/><text fill="#000000" font-family="sans-serif" font-size="11" font-style="italic" lengthAdjust="spacingAndGlyphs" textLength="239" x="122" y="110.0151">encryptValue(String, String, String): String</text><ellipse cx="113" cy="120.5117" fill="#84BE84" rx="3" ry="3" style="stroke: #038048; stroke-width: 1.0;"/><text fill="#000000" font-family="sans-serif" font-size="11" font-style="italic" lengthAdjust="spacingAndGlyphs" textLength="239" x="122" y="122.8198">decryptValue(String, String, String): String</text></a><!--link com.hack23.cia.service.impl.action.application.encryption.VaultManager to com.hack23.cia.service.impl.action.application.encryption.VaultManagerImpl--><path d="M249,149.363 C249,162.5636 249,176.2948 249,188.9119 " fill="none" id="com.hack23.cia.service.impl.action.application.encryption.VaultManager-com.hack23.cia.service.impl.action.application.encryption.VaultManagerImpl" style="stroke: #A80036; stroke-width: 1.0; stroke-dasharray: 7.0,7.0;"/><polygon fill="none" points="242.0001,149.2925,249,129.2925,256.0001,149.2924,242.0001,149.2925" style="stroke: #A80036; stroke-width: 1.0;"/><text fill="#888888" font-family="sans-serif" font-size="10" lengthAdjust="spacingAndGlyphs" textLength="186" x="162.5" y="323.2822">UMLDoclet 2.0.5, PlantUML 1.2019.08</text><!--
@startuml
    namespace com.hack23.cia.service.impl.action.application.encryption {

        class VaultManagerImpl [[VaultManagerImpl.html]] {
            +VaultManagerImpl(EncryptedValueDAO)
            +getEncryptedValue(String, UserAccount): String
            +encryptValue(String, String, String): String
            +decryptValue(String, String, String): String
        }

        interface VaultManager [[VaultManager.html]] {
            {abstract} +getEncryptedValue(String, UserAccount): String
            {abstract} +encryptValue(String, String, String): String
            {abstract} +decryptValue(String, String, String): String
        }

        VaultManager <|.. VaultManagerImpl
    }

    center footer UMLDoclet 2.0.5, PlantUML 1.2019.08
@enduml

PlantUML version 1.2019.08(Sat Jul 13 21:25:14 CEST 2019)
(APACHE source distribution)
Java Runtime: OpenJDK Runtime Environment
JVM: OpenJDK 64-Bit Server VM
Java Version: 11.0.4+11-post-Ubuntu-1ubuntu219.04
Operating System: Linux
OS Version: 5.0.0-27-generic
Default Encoding: UTF-8
Language: en
Country: US
--></g></svg>