<svg xmlns="http://www.w3.org/2000/svg" xmlns:xlink="http://www.w3.org/1999/xlink" contentStyleType="text/css" height="312px" preserveAspectRatio="none" style="width:349px;height:312px;background:#FFFFFF;" version="1.1" viewBox="0 0 349 312" width="349px" zoomAndPan="magnify"><defs/><g><!--class com.hack23.cia.service.impl.action.application.encryption.VaultManagerImpl--><a href="VaultManagerImpl.html" target="_top" title="VaultManagerImpl.html" xlink:actuate="onRequest" xlink:href="VaultManagerImpl.html" xlink:show="new" xlink:title="VaultManagerImpl.html" xlink:type="simple"><g id="elem_com.hack23.cia.service.impl.action.application.encryption.VaultManagerImpl"><rect codeLine="13" fill="#F1F1F1" height="126.9596" id="com.hack23.cia.service.impl.action.application.encryption.VaultManagerImpl" rx="2.5" ry="2.5" style="stroke:#181818;stroke-width:0.5;" width="336.0289" x="6" y="156"/><ellipse cx="36.4076" cy="177.344" fill="#ADD1B2" rx="11" ry="11" style="stroke:#181818;stroke-width:1.0;"/><path d="M39.3763,182.9846 Q38.7982,183.2815 38.1576,183.4221 Q37.5169,183.5783 36.8138,183.5783 Q34.3138,183.5783 32.9857,181.9377 Q31.6732,180.2815 31.6732,177.1565 Q31.6732,174.0315 32.9857,172.3752 Q34.3138,170.719 36.8138,170.719 Q37.5169,170.719 38.1576,170.8752 Q38.8138,171.0315 39.3763,171.3283 L39.3763,174.0471 Q38.7513,173.469 38.1576,173.2033 Q37.5638,172.9221 36.9388,172.9221 Q35.5951,172.9221 34.9076,174.0002 Q34.2201,175.0627 34.2201,177.1565 Q34.2201,179.2502 34.9076,180.3283 Q35.5951,181.3908 36.9388,181.3908 Q37.5638,181.3908 38.1576,181.1252 Q38.7513,180.844 39.3763,180.2658 L39.3763,182.9846 Z " fill="#000000"/><text fill="#000000" font-family="sans-serif" font-size="14" lengthAdjust="spacing" textLength="122.9755" x="127.2386" y="175.9659">VaultManagerImpl</text><text fill="#000000" font-family="sans-serif" font-size="10" lengthAdjust="spacing" textLength="269.7898" x="53.8315" y="190.7579">com.hack23.cia.service.impl.action.application.encryption</text><line style="stroke:#181818;stroke-width:0.5;" x1="7" x2="341.0289" y1="198.6879" y2="198.6879"/><ellipse cx="17" cy="213.7219" fill="#84BE84" rx="3" ry="3" style="stroke:#038048;stroke-width:1.0;"/><text fill="#000000" font-family="sans-serif" font-size="14" lengthAdjust="spacing" textLength="264.137" x="26" y="217.6538">VaultManagerImpl(EncryptedValueDAO)</text><ellipse cx="17" cy="232.7898" fill="#84BE84" rx="3" ry="3" style="stroke:#038048;stroke-width:1.0;"/><text fill="#000000" font-family="sans-serif" font-size="14" lengthAdjust="spacing" textLength="310.0289" x="26" y="236.7218">getEncryptedValue(String, UserAccount): String</text><ellipse cx="17" cy="251.8577" fill="#84BE84" rx="3" ry="3" style="stroke:#038048;stroke-width:1.0;"/><text fill="#000000" font-family="sans-serif" font-size="14" lengthAdjust="spacing" textLength="274.427" x="26" y="255.7897">encryptValue(String, String, String): String</text><ellipse cx="17" cy="270.9256" fill="#84BE84" rx="3" ry="3" style="stroke:#038048;stroke-width:1.0;"/><text fill="#000000" font-family="sans-serif" font-size="14" lengthAdjust="spacing" textLength="274.385" x="26" y="274.8576">decryptValue(String, String, String): String</text></g></a><!--class com.hack23.cia.service.impl.action.application.encryption.VaultManager--><a href="VaultManager.html" target="_top" title="VaultManager.html" xlink:actuate="onRequest" xlink:href="VaultManager.html" xlink:show="new" xlink:title="VaultManager.html" xlink:type="simple"><g id="elem_com.hack23.cia.service.impl.action.application.encryption.VaultManager"><rect codeLine="20" fill="#F1F1F1" height="107.8917" id="com.hack23.cia.service.impl.action.application.encryption.VaultManager" rx="2.5" ry="2.5" style="stroke:#181818;stroke-width:0.5;" width="315.8969" x="16" y="12"/><ellipse cx="43.5987" cy="33.344" fill="#B4A7E5" rx="11" ry="11" style="stroke:#181818;stroke-width:1.0;"/><path d="M39.5206,29.1096 L39.5206,26.9533 L46.9112,26.9533 L46.9112,29.1096 L44.4425,29.1096 L44.4425,37.1877 L46.9112,37.1877 L46.9112,39.344 L39.5206,39.344 L39.5206,37.1877 L41.9894,37.1877 L41.9894,29.1096 L39.5206,29.1096 Z " fill="#000000"/><text fill="#000000" font-family="sans-serif" font-size="14" font-style="italic" lengthAdjust="spacing" textLength="88.4937" x="144.1015" y="31.9659">VaultManager</text><text fill="#000000" font-family="sans-serif" font-size="10" font-style="italic" lengthAdjust="spacing" textLength="255.8997" x="60.3984" y="46.7579">com.hack23.cia.service.impl.action.application.encryption</text><line style="stroke:#181818;stroke-width:0.5;" x1="17" x2="330.8969" y1="54.6879" y2="54.6879"/><ellipse cx="27" cy="69.7219" fill="#84BE84" rx="3" ry="3" style="stroke:#038048;stroke-width:1.0;"/><text fill="#000000" font-family="sans-serif" font-size="14" font-style="italic" lengthAdjust="spacing" textLength="289.8969" x="36" y="73.6538">getEncryptedValue(String, UserAccount): String</text><ellipse cx="27" cy="88.7898" fill="#84BE84" rx="3" ry="3" style="stroke:#038048;stroke-width:1.0;"/><text fill="#000000" font-family="sans-serif" font-size="14" font-style="italic" lengthAdjust="spacing" textLength="258.929" x="36" y="92.7218">encryptValue(String, String, String): String</text><ellipse cx="27" cy="107.8577" fill="#84BE84" rx="3" ry="3" style="stroke:#038048;stroke-width:1.0;"/><text fill="#000000" font-family="sans-serif" font-size="14" font-style="italic" lengthAdjust="spacing" textLength="258.929" x="36" y="111.7897">decryptValue(String, String, String): String</text></g></a><polygon fill="none" points="174,120.4132,168,138.4132,180,138.4132,174,120.4132" style="stroke:#181818;stroke-width:1.0;"/><path d="M174,138.4132 C174,149.914 174,144.1692 174,155.9814 " fill="none" style="stroke:#181818;stroke-width:1.0;stroke-dasharray:7.0,7.0;"/><text fill="#888888" font-family="sans-serif" font-size="10" lengthAdjust="spacing" textLength="2.6" x="169.2" y="287.69">&#160;</text><a href="https://github.com/talsma-ict/umldoclet" target="_top" title="https://github.com/talsma-ict/umldoclet" xlink:actuate="onRequest" xlink:href="https://github.com/talsma-ict/umldoclet" xlink:show="new" xlink:title="https://github.com/talsma-ict/umldoclet" xlink:type="simple"><text fill="#888888" font-family="sans-serif" font-size="10" lengthAdjust="spacing" textLength="76.7199" x="132.14" y="301.31">UMLDoclet 2.2.1</text></a><!--SRC=[pLJ1Jjj04Btp5LDwQ11aOvkKqWWXHG6rL46jci0bv31PJ-nLrhlkxfhAfVnxrtOQafGU6d6eBxPdTjwycMS_080tCD1vQKIIEd0QN2eit5mF0LKC2Iaow2W6aM525cOajKfiSv002vTg0tfUlt5j3DbSgrYe13xXFOBLXU5asTuUrAt6lz6_err3dvLLy49pIGvQWuCrIb4GdhIZ8Eh26AND4Au6OxP4Uwg9MCH2yDXIS5BMGnOg9bFJwkV8_MtOP8xWdemLMlcQO8bJZSgrSYYKXHoDizL8NoGgLt4DMTMVlODMVpJSv1QyhxaTGTyeB6BughyLgt5VvGOJprXYgGi7DYE72fkSzQGLPdvTo6b4lYawlqcb5TNvLCG4bEMkXBaW6Tljg0TBjG_NSIxHMjW_i-87zSBk-IqMqbtxPWcPgooNTsgP2iwvpbYAV14TCowGMJBtVZ5C-5CCkVEBOPZdVerOFvFYfiohnttmakrSpROfmMIo7MAfo-Hq2W_rJDLrk7saTTaWKdoBig2B_kU3fyC9kSrqQ-IC_nIFuCOJxNEk2-KEUj14d-gMB3TBDk_FLCNqZrMFZLP2EJ9ph_fVzFhFjDhIwK-D7d1cdV60Zpihi0wnanZh0BlgyaBhEll9s0l-9WstC-jAIUUhUUTQ-uzeJOJg-bZcP8P2BGPQUYjvVVfyzgOoHYaKUI_c2qNUE8BLoSUcNMUjtxBNdPfCKkTos-jq4k7IOiRyb1rNct9RSDSfCXatRhpbozFfqcS_h0o_Cirs6BMZQ1oUzgAmTnomjzqeFEcUXE5X4FQ2O79P69rJP-GqNwHQPjDV]--></g></svg>