<svg xmlns="http://www.w3.org/2000/svg" xmlns:xlink="http://www.w3.org/1999/xlink" contentStyleType="text/css" height="299px" preserveAspectRatio="none" style="width:465px;height:299px;background:#FFFFFF;" version="1.1" viewBox="0 0 465 299" width="465px" zoomAndPan="magnify"><defs/><g><!--cluster com.hack23.cia.web.impl.ui.application.views.common.sizing--><g id="cluster_com.hack23.cia.web.impl.ui.application.views.common.sizing"><path d="M16.5,4 L445.8703,4 A3.75,3.75 0 0 1 448.3703,6.5 L455.3703,29.0679 L455.5,29.0679 A2.5,2.5 0 0 1 458,31.5679 L458,259.5 A2.5,2.5 0 0 1 455.5,262 L16.5,262 A2.5,2.5 0 0 1 14,259.5 L14,6.5 A2.5,2.5 0 0 1 16.5,4 " fill="none" style="stroke:#000000;stroke-width:1.5;"/><line style="stroke:#000000;stroke-width:1.5;" x1="14" x2="455.3703" y1="29.0679" y2="29.0679"/><text fill="#000000" font-family="sans-serif" font-size="14" font-weight="bold" lengthAdjust="spacing" textLength="428.3703" x="18" y="20.9659">com.hack23.cia.web.impl.ui.application.views.common.sizing</text></g><!--class ContentRatio--><a href="ContentRatio.html" target="_top" title="ContentRatio.html" xlink:actuate="onRequest" xlink:href="ContentRatio.html" xlink:show="new" xlink:title="ContentRatio.html" xlink:type="simple"><g id="elem_ContentRatio"><rect codeLine="12" fill="#F1F1F1" height="219.6113" id="ContentRatio" rx="2.5" ry="2.5" style="stroke:#181818;stroke-width:0.5;" width="151.9855" x="269" y="34"/><ellipse cx="299.1478" cy="50" fill="#ADD1B2" rx="11" ry="11" style="stroke:#181818;stroke-width:1.0;"/><path d="M302.1166,55.6406 Q301.5385,55.9375 300.8978,56.0781 Q300.2572,56.2344 299.5541,56.2344 Q297.0541,56.2344 295.726,54.5938 Q294.4135,52.9375 294.4135,49.8125 Q294.4135,46.6875 295.726,45.0313 Q297.0541,43.375 299.5541,43.375 Q300.2572,43.375 300.8978,43.5313 Q301.5541,43.6875 302.1166,43.9844 L302.1166,46.7031 Q301.4916,46.125 300.8978,45.8594 Q300.3041,45.5781 299.6791,45.5781 Q298.3353,45.5781 297.6478,46.6563 Q296.9603,47.7188 296.9603,49.8125 Q296.9603,51.9063 297.6478,52.9844 Q298.3353,54.0469 299.6791,54.0469 Q300.3041,54.0469 300.8978,53.7813 Q301.4916,53.5 302.1166,52.9219 L302.1166,55.6406 Z " fill="#000000"/><text fill="#000000" font-family="sans-serif" font-size="14" lengthAdjust="spacing" textLength="86.3237" x="316.514" y="55.432">ContentRatio</text><line style="stroke:#181818;stroke-width:0.5;" x1="270" x2="419.9855" y1="66" y2="66"/><ellipse cx="280" cy="81.034" fill="none" rx="3" ry="3" style="stroke:#038048;stroke-width:1.0;"/><text fill="#000000" font-family="sans-serif" font-size="14" lengthAdjust="spacing" text-decoration="underline" textLength="81.8577" x="289" y="84.9659">CHART: float</text><ellipse cx="280" cy="100.1019" fill="none" rx="3" ry="3" style="stroke:#038048;stroke-width:1.0;"/><text fill="#000000" font-family="sans-serif" font-size="14" lengthAdjust="spacing" text-decoration="underline" textLength="103.8096" x="289" y="104.0339">FULL_SIZE: float</text><ellipse cx="280" cy="119.1698" fill="none" rx="3" ry="3" style="stroke:#038048;stroke-width:1.0;"/><text fill="#000000" font-family="sans-serif" font-size="14" lengthAdjust="spacing" text-decoration="underline" textLength="71.0637" x="289" y="123.1018">GRID: float</text><ellipse cx="280" cy="138.2377" fill="none" rx="3" ry="3" style="stroke:#038048;stroke-width:1.0;"/><text fill="#000000" font-family="sans-serif" font-size="14" lengthAdjust="spacing" text-decoration="underline" textLength="80.1637" x="289" y="142.1697">LARGE: float</text><ellipse cx="280" cy="157.3056" fill="none" rx="3" ry="3" style="stroke:#038048;stroke-width:1.0;"/><text fill="#000000" font-family="sans-serif" font-size="14" lengthAdjust="spacing" text-decoration="underline" textLength="125.9855" x="289" y="161.2376">LARGE_FORM: float</text><ellipse cx="280" cy="176.3735" fill="none" rx="3" ry="3" style="stroke:#038048;stroke-width:1.0;"/><text fill="#000000" font-family="sans-serif" font-size="14" lengthAdjust="spacing" text-decoration="underline" textLength="81.1997" x="289" y="180.3055">SMALL: float</text><ellipse cx="280" cy="195.4415" fill="none" rx="3" ry="3" style="stroke:#038048;stroke-width:1.0;"/><text fill="#000000" font-family="sans-serif" font-size="14" lengthAdjust="spacing" text-decoration="underline" textLength="121.2815" x="289" y="199.3734">SMALL_GRID: float</text><ellipse cx="280" cy="214.5094" fill="none" rx="3" ry="3" style="stroke:#038048;stroke-width:1.0;"/><text fill="#000000" font-family="sans-serif" font-size="14" lengthAdjust="spacing" text-decoration="underline" textLength="89.2077" x="289" y="218.4414">SMALL2: float</text><ellipse cx="280" cy="233.5773" fill="none" rx="3" ry="3" style="stroke:#038048;stroke-width:1.0;"/><text fill="#000000" font-family="sans-serif" font-size="14" lengthAdjust="spacing" text-decoration="underline" textLength="89.2077" x="289" y="237.5093">SMALL3: float</text><line style="stroke:#181818;stroke-width:0.5;" x1="270" x2="419.9855" y1="245.6113" y2="245.6113"/></g></a><!--class ContentSize--><a href="ContentSize.html" target="_top" title="ContentSize.html" xlink:actuate="onRequest" xlink:href="ContentSize.html" xlink:show="new" xlink:title="ContentSize.html" xlink:type="simple"><g id="elem_ContentSize"><rect codeLine="24" fill="#F1F1F1" height="86.1358" id="ContentSize" rx="2.5" ry="2.5" style="stroke:#181818;stroke-width:0.5;" width="141.1496" x="80.5" y="101"/><ellipse cx="109.3374" cy="117" fill="#ADD1B2" rx="11" ry="11" style="stroke:#181818;stroke-width:1.0;"/><path d="M112.3062,122.6406 Q111.7281,122.9375 111.0874,123.0781 Q110.4468,123.2344 109.7437,123.2344 Q107.2437,123.2344 105.9156,121.5938 Q104.6031,119.9375 104.6031,116.8125 Q104.6031,113.6875 105.9156,112.0313 Q107.2437,110.375 109.7437,110.375 Q110.4468,110.375 111.0874,110.5313 Q111.7437,110.6875 112.3062,110.9844 L112.3062,113.7031 Q111.6812,113.125 111.0874,112.8594 Q110.4937,112.5781 109.8687,112.5781 Q108.5249,112.5781 107.8374,113.6563 Q107.1499,114.7188 107.1499,116.8125 Q107.1499,118.9063 107.8374,119.9844 Q108.5249,121.0469 109.8687,121.0469 Q110.4937,121.0469 111.0874,120.7813 Q111.6812,120.5 112.3062,119.9219 L112.3062,122.6406 Z " fill="#000000"/><text fill="#000000" font-family="sans-serif" font-size="14" lengthAdjust="spacing" textLength="78.3997" x="126.4124" y="122.432">ContentSize</text><line style="stroke:#181818;stroke-width:0.5;" x1="81.5" x2="220.6496" y1="133" y2="133"/><ellipse cx="91.5" cy="148.034" fill="none" rx="3" ry="3" style="stroke:#038048;stroke-width:1.0;"/><text fill="#000000" font-family="sans-serif" font-size="14" lengthAdjust="spacing" text-decoration="underline" textLength="113.3996" x="100.5" y="151.9659">FULL_SIZE: String</text><ellipse cx="91.5" cy="167.1019" fill="none" rx="3" ry="3" style="stroke:#038048;stroke-width:1.0;"/><text fill="#000000" font-family="sans-serif" font-size="14" lengthAdjust="spacing" text-decoration="underline" textLength="115.1496" x="100.5" y="171.0339">HALF_SIZE: String</text><line style="stroke:#181818;stroke-width:0.5;" x1="81.5" x2="220.6496" y1="179.1358" y2="179.1358"/></g></a><text fill="#888888" font-family="sans-serif" font-size="10" lengthAdjust="spacing" textLength="2.6" x="223.2" y="274.69">&#160;</text><a href="https://github.com/talsma-ict/umldoclet" target="_top" title="https://github.com/talsma-ict/umldoclet" xlink:actuate="onRequest" xlink:href="https://github.com/talsma-ict/umldoclet" xlink:show="new" xlink:title="https://github.com/talsma-ict/umldoclet" xlink:type="simple"><text fill="#888888" font-family="sans-serif" font-size="10" lengthAdjust="spacing" textLength="76.7199" x="186.14" y="288.31">UMLDoclet 2.2.1</text></a><!--SRC=[ZLJRRjim37tlLt3OmpgqKHpdijGO1XXfUeE33KdwiYm855knXSYI9z49qgB_FjdnMhVe9NwHQHxo79AY0G2-m41bEytZ104LOC8Dt8u2e3A2c4ccAR88U4fZPc39X9AnsGCPq1mJfK6jIYjKMZEJAHbn6SCDtL0mAjSXC-Je24ggwV_iMsfgsPUxukEv2WL3E1vyhKbodLQluJfk1wPKc9J2zM1AgcnFCIvnIGjiRi539erDcSk8wLAMdz7G7i7USmeRfWrNqiOuLPwYr519f5mQoAX6KvJqIr29XTOMAVZ9DpZs9y5pRSvPgUqKV2rf7i5O_SqVo_sKQHfRnOBkL8vWKePKqj9bh6R3B1L5sp_FsmTOeMlRPgib9ObzTziav9HisPBmD1CavuHccIsHeYs0R3ZR6cB1gJKClokwVh_FL3oXeCPOjHAPn74H0hDPtIG9fc8-jp5GU-uDMcVu02U3AtyyzM0b5CKt81UtGR2ONFyUlW-x75-Vluy8_F7by038ukBdUFG-RZBoW-00oE9ZLINEFG3JVebvU6CE4tx7diPGM1zDeTRY2MexupTmLtvmyJgkqb8Ttmtk1Flnw5qfXNPJdjDVxJAc0oxN0oNi1VtSVzrxMooPu9BPlGxNajawdHfjITUiyLLSV-HibY1cncisOuv9lYnkSHFB1M_m49jvAgBzPh_OyVcysjdBnvz7iO2Dbjjm-zDMr-lsl7Q7k9r-s-cUTNedJijpdDamrofZpGcgS9qeaSx_0G00]--></g></svg>