<?xml version="1.0" encoding="UTF-8" standalone="no"?><svg xmlns="http://www.w3.org/2000/svg" xmlns:xlink="http://www.w3.org/1999/xlink" contentScriptType="application/ecmascript" contentStyleType="text/css" height="286px" preserveAspectRatio="none" style="width:573px;height:286px;" version="1.1" viewBox="0 0 573 286" width="573px" zoomAndPan="magnify"><defs><filter height="300%" id="f1favhwowunynz" width="300%" x="-1" y="-1"><feGaussianBlur result="blurOut" stdDeviation="2.0"/><feColorMatrix in="blurOut" result="blurOut2" type="matrix" values="0 0 0 0 0 0 0 0 0 0 0 0 0 0 0 0 0 0 .4 0"/><feOffset dx="4.0" dy="4.0" in="blurOut2" result="blurOut3"/><feBlend in="SourceGraphic" in2="blurOut3" mode="normal"/></filter></defs><g><!--cluster com.hack23.cia.web.impl.ui.application.views.admin.common--><polygon fill="#FFFFFF" filter="url(#f1favhwowunynz)" points="14,150,502,150,509,172.2969,512,172.2969,512,246,14,246,14,150" style="stroke: #000000; stroke-width: 1.5;"/><line style="stroke: #000000; stroke-width: 1.5;" x1="14" x2="509" y1="172.2969" y2="172.2969"/><text fill="#000000" font-family="sans-serif" font-size="14" font-weight="bold" lengthAdjust="spacingAndGlyphs" textLength="482" x="18" y="164.9951">com.hack23.cia.web.impl.ui.application.views.admin.common</text><!--cluster com.hack23.cia.web.impl.ui.application.views.common--><polygon fill="#FFFFFF" filter="url(#f1favhwowunynz)" points="105,16,541,16,548,38.2969,551,38.2969,551,125,105,125,105,16" style="stroke: #000000; stroke-width: 1.5;"/><line style="stroke: #000000; stroke-width: 1.5;" x1="105" x2="548" y1="38.2969" y2="38.2969"/><text fill="#000000" font-family="sans-serif" font-size="14" font-weight="bold" lengthAdjust="spacingAndGlyphs" textLength="430" x="109" y="30.9951">com.hack23.cia.web.impl.ui.application.views.common</text><!--class com.hack23.cia.web.impl.ui.application.views.admin.common.AbstractAdminView--><a href="AbstractAdminView.html" target="_top" xlink:actuate="onRequest" xlink:show="new" xlink:title="AbstractAdminView.html" xlink:type="simple"><rect fill="#FEFECE" filter="url(#f1favhwowunynz)" height="60.8047" id="com.hack23.cia.web.impl.ui.application.views.admin.common.AbstractAdminView" style="stroke: #A80036; stroke-width: 1.5;" width="410" x="58" y="177"/><ellipse cx="199.25" cy="193" fill="#A9DCDF" rx="11" ry="11" style="stroke: #A80036; stroke-width: 1.0;"/><path d="M199.3594,188.3438 L198.2031,193.4219 L200.5313,193.4219 L199.3594,188.3438 Z M197.875,186.1094 L200.8594,186.1094 L204.2188,198.5 L201.7656,198.5 L201,195.4375 L197.7188,195.4375 L196.9688,198.5 L194.5313,198.5 L197.875,186.1094 Z "/><text fill="#000000" font-family="sans-serif" font-size="12" font-style="italic" lengthAdjust="spacingAndGlyphs" textLength="119" x="219.75" y="197.1543">AbstractAdminView</text><line style="stroke: #A80036; stroke-width: 1.5;" x1="59" x2="467" y1="209" y2="209"/><line style="stroke: #A80036; stroke-width: 1.5;" x1="59" x2="467" y1="217" y2="217"/><polygon fill="#FFFF44" points="69,223.9023,73,227.9023,69,231.9023,65,227.9023" style="stroke: #B38D22; stroke-width: 1.0;"/><text fill="#000000" font-family="sans-serif" font-size="11" lengthAdjust="spacingAndGlyphs" textLength="384" x="78" y="231.2104">AbstractAdminView(Map&lt;String, PageModeContentFactory&gt;, String)</text></a><!--class com.hack23.cia.web.impl.ui.application.views.common.AbstractView--><a href="../../common/AbstractView.html" target="_top" xlink:actuate="onRequest" xlink:show="new" xlink:title="../../common/AbstractView.html" xlink:type="simple"><rect fill="#FEFECE" filter="url(#f1favhwowunynz)" height="73.6094" id="com.hack23.cia.web.impl.ui.application.views.common.AbstractView" style="stroke: #A80036; stroke-width: 1.5;" width="294" x="116" y="43"/><ellipse cx="218.25" cy="59" fill="#A9DCDF" rx="11" ry="11" style="stroke: #A80036; stroke-width: 1.0;"/><path d="M218.3594,54.3438 L217.2031,59.4219 L219.5313,59.4219 L218.3594,54.3438 Z M216.875,52.1094 L219.8594,52.1094 L223.2188,64.5 L220.7656,64.5 L220,61.4375 L216.7188,61.4375 L215.9688,64.5 L213.5313,64.5 L216.875,52.1094 Z "/><text fill="#000000" font-family="sans-serif" font-size="12" font-style="italic" lengthAdjust="spacingAndGlyphs" textLength="81" x="238.75" y="63.1543">AbstractView</text><line style="stroke: #A80036; stroke-width: 1.5;" x1="117" x2="409" y1="75" y2="75"/><polygon fill="none" points="127,81.9023,131,85.9023,127,89.9023,123,85.9023" style="stroke: #B38D22; stroke-width: 1.0;"/><text fill="#000000" font-family="sans-serif" font-size="11" lengthAdjust="spacingAndGlyphs" textLength="268" x="136" y="89.2104">pageActionEventHelper: PageActionEventHelper</text><polygon fill="none" points="127,94.707,131,98.707,127,102.707,123,98.707" style="stroke: #B38D22; stroke-width: 1.0;"/><text fill="#000000" font-family="sans-serif" font-size="11" lengthAdjust="spacingAndGlyphs" textLength="190" x="136" y="102.0151">pageLinkFactory: PageLinkFactory</text><line style="stroke: #A80036; stroke-width: 1.5;" x1="117" x2="409" y1="108.6094" y2="108.6094"/></a><!--link com.hack23.cia.web.impl.ui.application.views.common.AbstractView to com.hack23.cia.web.impl.ui.application.views.admin.common.AbstractAdminView--><path d="M263,137.2952 C263,150.9403 263,164.9839 263,176.8909 " fill="none" id="com.hack23.cia.web.impl.ui.application.views.common.AbstractView-com.hack23.cia.web.impl.ui.application.views.admin.common.AbstractAdminView" style="stroke: #A80036; stroke-width: 1.0;"/><polygon fill="none" points="256.0001,137.2211,263,117.221,270.0001,137.221,256.0001,137.2211" style="stroke: #A80036; stroke-width: 1.0;"/><text fill="#888888" font-family="sans-serif" font-size="10" lengthAdjust="spacingAndGlyphs" textLength="186" x="195.5" y="273.2822">UMLDoclet 2.0.5, PlantUML 1.2019.08</text><!--
@startuml
    namespace com.hack23.cia.web.impl.ui.application.views.admin.common {

        abstract class AbstractAdminView [[AbstractAdminView.html]] {
            #AbstractAdminView(Map<String, PageModeContentFactory>, String)
        }

        com.hack23.cia.web.impl.ui.application.views.common.AbstractView <|- - AbstractAdminView
    }

    namespace com.hack23.cia.web.impl.ui.application.views.common {
        abstract class AbstractView [[../../common/AbstractView.html]] {
            #pageActionEventHelper: PageActionEventHelper
            #pageLinkFactory: PageLinkFactory
        }
    }

    center footer UMLDoclet 2.0.5, PlantUML 1.2019.08
@enduml

PlantUML version 1.2019.08(Sat Jul 13 21:25:14 CEST 2019)
(APACHE source distribution)
Java Runtime: OpenJDK Runtime Environment
JVM: OpenJDK 64-Bit Server VM
Java Version: 11.0.5-ea+10-post-Ubuntu-0ubuntu1
Operating System: Linux
OS Version: 5.3.0-13-generic
Default Encoding: UTF-8
Language: en
Country: US
--></g></svg>