<svg xmlns="http://www.w3.org/2000/svg" xmlns:xlink="http://www.w3.org/1999/xlink" contentStyleType="text/css" height="495px" preserveAspectRatio="none" style="width:1957px;height:495px;background:#FFFFFF;" version="1.1" viewBox="0 0 1957 495" width="1957px" zoomAndPan="magnify"><defs/><g><!--cluster com.hack23.cia.service.impl.task--><g id="cluster_com.hack23.cia.service.impl.task"><path d="M16.5,117 L247.1411,117 A3.75,3.75 0 0 1 249.6411,119.5 L256.6411,142.0679 L1947.5,142.0679 A2.5,2.5 0 0 1 1950,144.5679 L1950,455.5 A2.5,2.5 0 0 1 1947.5,458 L16.5,458 A2.5,2.5 0 0 1 14,455.5 L14,119.5 A2.5,2.5 0 0 1 16.5,117 " fill="none" style="stroke:#000000;stroke-width:1.5;"/><line style="stroke:#000000;stroke-width:1.5;" x1="14" x2="256.6411" y1="142.0679" y2="142.0679"/><text fill="#000000" font-family="sans-serif" font-size="14" font-weight="bold" lengthAdjust="spacing" textLength="229.6411" x="18" y="133.9659">com.hack23.cia.service.impl.task</text></g><!--cluster org.springframework.scheduling.quartz--><g id="cluster_org.springframework.scheduling.quartz"><path d="M406.5,4 L687.863,4 A3.75,3.75 0 0 1 690.363,6.5 L697.363,29.0679 L709.5,29.0679 A2.5,2.5 0 0 1 712,31.5679 L712,106.5 A2.5,2.5 0 0 1 709.5,109 L406.5,109 A2.5,2.5 0 0 1 404,106.5 L404,6.5 A2.5,2.5 0 0 1 406.5,4 " fill="none" style="stroke:#000000;stroke-width:1.5;"/><line style="stroke:#000000;stroke-width:1.5;" x1="404" x2="697.363" y1="29.0679" y2="29.0679"/><text fill="#000000" font-family="sans-serif" font-size="14" font-weight="bold" lengthAdjust="spacing" textLength="280.363" x="408" y="20.9659">org.springframework.scheduling.quartz</text></g><!--cluster java.io--><g id="cluster_java.io"><path d="M722.5,13.5 L769.5738,13.5 A3.75,3.75 0 0 1 772.0738,16 L779.0738,38.5679 L837.5,38.5679 A2.5,2.5 0 0 1 840,41.0679 L840,97 A2.5,2.5 0 0 1 837.5,99.5 L722.5,99.5 A2.5,2.5 0 0 1 720,97 L720,16 A2.5,2.5 0 0 1 722.5,13.5 " fill="none" style="stroke:#000000;stroke-width:1.5;"/><line style="stroke:#000000;stroke-width:1.5;" x1="720" x2="779.0738" y1="38.5679" y2="38.5679"/><text fill="#000000" font-family="sans-serif" font-size="14" font-weight="bold" lengthAdjust="spacing" textLength="46.0738" x="724" y="30.4659">java.io</text></g><!--class UpdateSearchIndexJob--><a href="UpdateSearchIndexJob.html" target="_top" title="UpdateSearchIndexJob.html" xlink:actuate="onRequest" xlink:href="UpdateSearchIndexJob.html" xlink:show="new" xlink:title="UpdateSearchIndexJob.html" xlink:type="simple"><g id="elem_UpdateSearchIndexJob"><rect codeLine="12" fill="#F1F1F1" height="67.0679" id="UpdateSearchIndexJob" rx="2.5" ry="2.5" style="stroke:#181818;stroke-width:0.5;" width="309.8909" x="22" y="345"/><ellipse cx="97.1657" cy="361" fill="#ADD1B2" rx="11" ry="11" style="stroke:#181818;stroke-width:1.0;"/><path d="M100.1345,366.6406 Q99.5564,366.9375 98.9157,367.0781 Q98.2751,367.2344 97.572,367.2344 Q95.072,367.2344 93.7439,365.5938 Q92.4314,363.9375 92.4314,360.8125 Q92.4314,357.6875 93.7439,356.0313 Q95.072,354.375 97.572,354.375 Q98.2751,354.375 98.9157,354.5313 Q99.572,354.6875 100.1345,354.9844 L100.1345,357.7031 Q99.5095,357.125 98.9157,356.8594 Q98.322,356.5781 97.697,356.5781 Q96.3532,356.5781 95.6657,357.6563 Q94.9782,358.7188 94.9782,360.8125 Q94.9782,362.9063 95.6657,363.9844 Q96.3532,365.0469 97.697,365.0469 Q98.322,365.0469 98.9157,364.7813 Q99.5095,364.5 100.1345,363.9219 L100.1345,366.6406 Z " fill="#000000"/><text fill="#000000" font-family="sans-serif" font-size="14" lengthAdjust="spacing" textLength="151.0594" x="117.6657" y="366.432">UpdateSearchIndexJob</text><line style="stroke:#181818;stroke-width:0.5;" x1="23" x2="330.8909" y1="377" y2="377"/><line style="stroke:#181818;stroke-width:0.5;" x1="23" x2="330.8909" y1="385" y2="385"/><polygon fill="#FFFF44" points="33,395.034,37,399.034,33,403.034,29,399.034" style="stroke:#B38D22;stroke-width:1.0;"/><text fill="#000000" font-family="sans-serif" font-size="14" lengthAdjust="spacing" textLength="283.8909" x="42" y="403.9659">executeInternal(JobExecutionContext): void</text></g></a><!--class JobContextHolder--><a href="JobContextHolder.html" target="_top" title="JobContextHolder.html" xlink:actuate="onRequest" xlink:href="JobContextHolder.html" xlink:show="new" xlink:title="JobContextHolder.html" xlink:type="simple"><g id="elem_JobContextHolder"><rect codeLine="16" fill="#F1F1F1" height="124.2717" id="JobContextHolder" rx="2.5" ry="2.5" style="stroke:#181818;stroke-width:0.5;" width="231.4632" x="1522.5" y="147"/><ellipse cx="1579.6128" cy="163" fill="#B4A7E5" rx="11" ry="11" style="stroke:#181818;stroke-width:1.0;"/><path d="M1575.5347,158.7656 L1575.5347,156.6094 L1582.9253,156.6094 L1582.9253,158.7656 L1580.4565,158.7656 L1580.4565,166.8438 L1582.9253,166.8438 L1582.9253,169 L1575.5347,169 L1575.5347,166.8438 L1578.0034,166.8438 L1578.0034,158.7656 L1575.5347,158.7656 Z " fill="#000000"/><text fill="#000000" font-family="sans-serif" font-size="14" font-style="italic" lengthAdjust="spacing" textLength="108.7376" x="1600.1128" y="168.432">JobContextHolder</text><line style="stroke:#181818;stroke-width:0.5;" x1="1523.5" x2="1752.9632" y1="179" y2="179"/><line style="stroke:#181818;stroke-width:0.5;" x1="1523.5" x2="1752.9632" y1="187" y2="187"/><ellipse cx="1533.5" cy="202.034" fill="#84BE84" rx="3" ry="3" style="stroke:#038048;stroke-width:1.0;"/><text fill="#000000" font-family="sans-serif" font-size="14" font-style="italic" lengthAdjust="spacing" textLength="205.4632" x="1542.5" y="205.9659">getDataAgentApi(): DataAgentApi</text><ellipse cx="1533.5" cy="221.1019" fill="#84BE84" rx="3" ry="3" style="stroke:#038048;stroke-width:1.0;"/><text fill="#000000" font-family="sans-serif" font-size="14" font-style="italic" lengthAdjust="spacing" textLength="161.9094" x="1542.5" y="225.0339">updateSearchIndex(): void</text><ellipse cx="1533.5" cy="240.1698" fill="#84BE84" rx="3" ry="3" style="stroke:#038048;stroke-width:1.0;"/><text fill="#000000" font-family="sans-serif" font-size="14" font-style="italic" lengthAdjust="spacing" textLength="119.6995" x="1542.5" y="244.1018">refreshViews(): void</text><ellipse cx="1533.5" cy="259.2377" fill="#84BE84" rx="3" ry="3" style="stroke:#038048;stroke-width:1.0;"/><text fill="#000000" font-family="sans-serif" font-size="14" font-style="italic" lengthAdjust="spacing" textLength="173.1933" x="1542.5" y="263.1697">updateRuleViolations(): void</text></g></a><!--class AgentJob--><a href="AgentJob.html" target="_top" title="AgentJob.html" xlink:actuate="onRequest" xlink:href="AgentJob.html" xlink:show="new" xlink:title="AgentJob.html" xlink:type="simple"><g id="elem_AgentJob"><rect codeLine="23" fill="#F1F1F1" height="67.0679" id="AgentJob" rx="2.5" ry="2.5" style="stroke:#181818;stroke-width:0.5;" width="309.8909" x="350" y="345"/><ellipse cx="470.6656" cy="361" fill="#ADD1B2" rx="11" ry="11" style="stroke:#181818;stroke-width:1.0;"/><path d="M473.6343,366.6406 Q473.0562,366.9375 472.4156,367.0781 Q471.7749,367.2344 471.0718,367.2344 Q468.5718,367.2344 467.2437,365.5938 Q465.9312,363.9375 465.9312,360.8125 Q465.9312,357.6875 467.2437,356.0313 Q468.5718,354.375 471.0718,354.375 Q471.7749,354.375 472.4156,354.5313 Q473.0718,354.6875 473.6343,354.9844 L473.6343,357.7031 Q473.0093,357.125 472.4156,356.8594 Q471.8218,356.5781 471.1968,356.5781 Q469.8531,356.5781 469.1656,357.6563 Q468.4781,358.7188 468.4781,360.8125 Q468.4781,362.9063 469.1656,363.9844 Q469.8531,365.0469 471.1968,365.0469 Q471.8218,365.0469 472.4156,364.7813 Q473.0093,364.5 473.6343,363.9219 L473.6343,366.6406 Z " fill="#000000"/><text fill="#000000" font-family="sans-serif" font-size="14" lengthAdjust="spacing" textLength="60.0598" x="491.1656" y="366.432">AgentJob</text><line style="stroke:#181818;stroke-width:0.5;" x1="351" x2="658.8909" y1="377" y2="377"/><line style="stroke:#181818;stroke-width:0.5;" x1="351" x2="658.8909" y1="385" y2="385"/><polygon fill="#FFFF44" points="361,395.034,365,399.034,361,403.034,357,399.034" style="stroke:#B38D22;stroke-width:1.0;"/><text fill="#000000" font-family="sans-serif" font-size="14" lengthAdjust="spacing" textLength="283.8909" x="370" y="403.9659">executeInternal(JobExecutionContext): void</text></g></a><!--class UpdateRuleViolationsJob--><a href="UpdateRuleViolationsJob.html" target="_top" title="UpdateRuleViolationsJob.html" xlink:actuate="onRequest" xlink:href="UpdateRuleViolationsJob.html" xlink:show="new" xlink:title="UpdateRuleViolationsJob.html" xlink:type="simple"><g id="elem_UpdateRuleViolationsJob"><rect codeLine="27" fill="#F1F1F1" height="67.0679" id="UpdateRuleViolationsJob" rx="2.5" ry="2.5" style="stroke:#181818;stroke-width:0.5;" width="309.8909" x="678" y="345"/><ellipse cx="747.4608" cy="361" fill="#ADD1B2" rx="11" ry="11" style="stroke:#181818;stroke-width:1.0;"/><path d="M750.4295,366.6406 Q749.8514,366.9375 749.2108,367.0781 Q748.5701,367.2344 747.867,367.2344 Q745.367,367.2344 744.0389,365.5938 Q742.7264,363.9375 742.7264,360.8125 Q742.7264,357.6875 744.0389,356.0313 Q745.367,354.375 747.867,354.375 Q748.5701,354.375 749.2108,354.5313 Q749.867,354.6875 750.4295,354.9844 L750.4295,357.7031 Q749.8045,357.125 749.2108,356.8594 Q748.617,356.5781 747.992,356.5781 Q746.6483,356.5781 745.9608,357.6563 Q745.2733,358.7188 745.2733,360.8125 Q745.2733,362.9063 745.9608,363.9844 Q746.6483,365.0469 747.992,365.0469 Q748.617,365.0469 749.2108,364.7813 Q749.8045,364.5 750.4295,363.9219 L750.4295,366.6406 Z " fill="#000000"/><text fill="#000000" font-family="sans-serif" font-size="14" lengthAdjust="spacing" textLength="162.4694" x="767.9608" y="366.432">UpdateRuleViolationsJob</text><line style="stroke:#181818;stroke-width:0.5;" x1="679" x2="986.8909" y1="377" y2="377"/><line style="stroke:#181818;stroke-width:0.5;" x1="679" x2="986.8909" y1="385" y2="385"/><polygon fill="#FFFF44" points="689,395.034,693,399.034,689,403.034,685,399.034" style="stroke:#B38D22;stroke-width:1.0;"/><text fill="#000000" font-family="sans-serif" font-size="14" lengthAdjust="spacing" textLength="283.8909" x="698" y="403.9659">executeInternal(JobExecutionContext): void</text></g></a><!--class AbstractJob--><a href="AbstractJob.html" target="_top" title="AbstractJob.html" xlink:actuate="onRequest" xlink:href="AbstractJob.html" xlink:show="new" xlink:title="AbstractJob.html" xlink:type="simple"><g id="elem_AbstractJob"><rect codeLine="31" fill="#F1F1F1" height="67.0679" id="AbstractJob" rx="2.5" ry="2.5" style="stroke:#181818;stroke-width:0.5;" width="433.9305" x="452" y="175.5"/><ellipse cx="629.2184" cy="191.5" fill="#A9DCDF" rx="11" ry="11" style="stroke:#181818;stroke-width:1.0;"/><path d="M629.3278,186.8438 L628.1715,191.9219 L630.4996,191.9219 L629.3278,186.8438 Z M627.8434,184.6094 L630.8278,184.6094 L634.1871,197 L631.734,197 L630.9684,193.9375 L627.6871,193.9375 L626.9371,197 L624.4996,197 L627.8434,184.6094 Z " fill="#000000"/><text fill="#000000" font-family="sans-serif" font-size="14" font-style="italic" lengthAdjust="spacing" textLength="70.9937" x="649.7184" y="196.932">AbstractJob</text><line style="stroke:#181818;stroke-width:0.5;" x1="453" x2="884.9305" y1="207.5" y2="207.5"/><line style="stroke:#181818;stroke-width:0.5;" x1="453" x2="884.9305" y1="215.5" y2="215.5"/><polygon fill="#FFFF44" points="463,225.534,467,229.534,463,233.534,459,229.534" style="stroke:#B38D22;stroke-width:1.0;"/><text fill="#000000" font-family="sans-serif" font-size="14" lengthAdjust="spacing" text-decoration="underline" textLength="407.9305" x="472" y="234.4659">getJobContextHolder(JobExecutionContext): JobContextHolder</text></g></a><!--class RefreshViewsJob--><a href="RefreshViewsJob.html" target="_top" title="RefreshViewsJob.html" xlink:actuate="onRequest" xlink:href="RefreshViewsJob.html" xlink:show="new" xlink:title="RefreshViewsJob.html" xlink:type="simple"><g id="elem_RefreshViewsJob"><rect codeLine="35" fill="#F1F1F1" height="67.0679" id="RefreshViewsJob" rx="2.5" ry="2.5" style="stroke:#181818;stroke-width:0.5;" width="309.8909" x="1006" y="345"/><ellipse cx="1102.2077" cy="361" fill="#ADD1B2" rx="11" ry="11" style="stroke:#181818;stroke-width:1.0;"/><path d="M1105.1764,366.6406 Q1104.5983,366.9375 1103.9577,367.0781 Q1103.3171,367.2344 1102.6139,367.2344 Q1100.1139,367.2344 1098.7858,365.5938 Q1097.4733,363.9375 1097.4733,360.8125 Q1097.4733,357.6875 1098.7858,356.0313 Q1100.1139,354.375 1102.6139,354.375 Q1103.3171,354.375 1103.9577,354.5313 Q1104.6139,354.6875 1105.1764,354.9844 L1105.1764,357.7031 Q1104.5514,357.125 1103.9577,356.8594 Q1103.3639,356.5781 1102.7389,356.5781 Q1101.3952,356.5781 1100.7077,357.6563 Q1100.0202,358.7188 1100.0202,360.8125 Q1100.0202,362.9063 1100.7077,363.9844 Q1101.3952,365.0469 1102.7389,365.0469 Q1103.3639,365.0469 1103.9577,364.7813 Q1104.5514,364.5 1105.1764,363.9219 L1105.1764,366.6406 Z " fill="#000000"/><text fill="#000000" font-family="sans-serif" font-size="14" lengthAdjust="spacing" textLength="108.9756" x="1122.7077" y="366.432">RefreshViewsJob</text><line style="stroke:#181818;stroke-width:0.5;" x1="1007" x2="1314.8909" y1="377" y2="377"/><line style="stroke:#181818;stroke-width:0.5;" x1="1007" x2="1314.8909" y1="385" y2="385"/><polygon fill="#FFFF44" points="1017,395.034,1021,399.034,1017,403.034,1013,399.034" style="stroke:#B38D22;stroke-width:1.0;"/><text fill="#000000" font-family="sans-serif" font-size="14" lengthAdjust="spacing" textLength="283.8909" x="1026" y="403.9659">executeInternal(JobExecutionContext): void</text></g></a><!--class JobContextHolderImpl--><a href="JobContextHolderImpl.html" target="_top" title="JobContextHolderImpl.html" xlink:actuate="onRequest" xlink:href="JobContextHolderImpl.html" xlink:show="new" xlink:title="JobContextHolderImpl.html" xlink:type="simple"><g id="elem_JobContextHolderImpl"><rect codeLine="39" fill="#F1F1F1" height="143.3396" id="JobContextHolderImpl" rx="2.5" ry="2.5" style="stroke:#181818;stroke-width:0.5;" width="606.7039" x="1334.5" y="307"/><ellipse cx="1560.0602" cy="323" fill="#ADD1B2" rx="11" ry="11" style="stroke:#181818;stroke-width:1.0;"/><path d="M1563.0289,328.6406 Q1562.4508,328.9375 1561.8102,329.0781 Q1561.1696,329.2344 1560.4664,329.2344 Q1557.9664,329.2344 1556.6383,327.5938 Q1555.3258,325.9375 1555.3258,322.8125 Q1555.3258,319.6875 1556.6383,318.0313 Q1557.9664,316.375 1560.4664,316.375 Q1561.1696,316.375 1561.8102,316.5313 Q1562.4664,316.6875 1563.0289,316.9844 L1563.0289,319.7031 Q1562.4039,319.125 1561.8102,318.8594 Q1561.2164,318.5781 1560.5914,318.5781 Q1559.2477,318.5781 1558.5602,319.6563 Q1557.8727,320.7188 1557.8727,322.8125 Q1557.8727,324.9063 1558.5602,325.9844 Q1559.2477,327.0469 1560.5914,327.0469 Q1561.2164,327.0469 1561.8102,326.7813 Q1562.4039,326.5 1563.0289,325.9219 L1563.0289,328.6406 Z " fill="#000000"/><text fill="#000000" font-family="sans-serif" font-size="14" lengthAdjust="spacing" textLength="147.0835" x="1580.5602" y="328.432">JobContextHolderImpl</text><line style="stroke:#181818;stroke-width:0.5;" x1="1335.5" x2="1940.2039" y1="339" y2="339"/><line style="stroke:#181818;stroke-width:0.5;" x1="1335.5" x2="1940.2039" y1="347" y2="347"/><ellipse cx="1345.5" cy="362.034" fill="#84BE84" rx="3" ry="3" style="stroke:#038048;stroke-width:1.0;"/><text fill="#000000" font-family="sans-serif" font-size="14" lengthAdjust="spacing" textLength="580.7039" x="1354.5" y="365.9659">JobContextHolderImpl(DataAgentApi, SearchIndexer, ViewDataManager, RulesManager)</text><ellipse cx="1345.5" cy="381.1019" fill="#84BE84" rx="3" ry="3" style="stroke:#038048;stroke-width:1.0;"/><text fill="#000000" font-family="sans-serif" font-size="14" lengthAdjust="spacing" textLength="219.9672" x="1354.5" y="385.0339">getDataAgentApi(): DataAgentApi</text><ellipse cx="1345.5" cy="400.1698" fill="#84BE84" rx="3" ry="3" style="stroke:#038048;stroke-width:1.0;"/><text fill="#000000" font-family="sans-serif" font-size="14" lengthAdjust="spacing" textLength="172.1713" x="1354.5" y="404.1018">updateSearchIndex(): void</text><ellipse cx="1345.5" cy="419.2377" fill="#84BE84" rx="3" ry="3" style="stroke:#038048;stroke-width:1.0;"/><text fill="#000000" font-family="sans-serif" font-size="14" lengthAdjust="spacing" textLength="128.7435" x="1354.5" y="423.1697">refreshViews(): void</text><ellipse cx="1345.5" cy="438.3056" fill="#84BE84" rx="3" ry="3" style="stroke:#038048;stroke-width:1.0;"/><text fill="#000000" font-family="sans-serif" font-size="14" lengthAdjust="spacing" textLength="183.5813" x="1354.5" y="442.2376">updateRuleViolations(): void</text></g></a><!--class QuartzJobBean--><g id="elem_QuartzJobBean"><rect codeLine="50" fill="#F1F1F1" height="67.0679" id="QuartzJobBean" rx="2.5" ry="2.5" style="stroke:#181818;stroke-width:0.5;" width="290.515" x="412.5" y="34"/><ellipse cx="506.5797" cy="50" fill="#A9DCDF" rx="11" ry="11" style="stroke:#181818;stroke-width:1.0;"/><path d="M506.6891,45.3438 L505.5328,50.4219 L507.8609,50.4219 L506.6891,45.3438 Z M505.2047,43.1094 L508.1891,43.1094 L511.5484,55.5 L509.0953,55.5 L508.3297,52.4375 L505.0484,52.4375 L504.2984,55.5 L501.8609,55.5 L505.2047,43.1094 Z " fill="#000000"/><text fill="#000000" font-family="sans-serif" font-size="14" font-style="italic" lengthAdjust="spacing" textLength="93.8557" x="527.0797" y="55.432">QuartzJobBean</text><line style="stroke:#181818;stroke-width:0.5;" x1="413.5" x2="702.015" y1="66" y2="66"/><line style="stroke:#181818;stroke-width:0.5;" x1="413.5" x2="702.015" y1="74" y2="74"/><polygon fill="#FFFF44" points="423.5,84.034,427.5,88.034,423.5,92.034,419.5,88.034" style="stroke:#B38D22;stroke-width:1.0;"/><text fill="#000000" font-family="sans-serif" font-size="14" font-style="italic" lengthAdjust="spacing" textLength="264.515" x="432.5" y="92.9659">executeInternal(JobExecutionContext): void</text></g><!--class Serializable--><g id="elem_Serializable"><rect codeLine="56" fill="#F1F1F1" height="48" id="Serializable" rx="2.5" ry="2.5" style="stroke:#181818;stroke-width:0.5;" width="103.3017" x="728.5" y="43.5"/><ellipse cx="743.5" cy="59.5" fill="#B4A7E5" rx="11" ry="11" style="stroke:#181818;stroke-width:1.0;"/><path d="M739.4219,55.2656 L739.4219,53.1094 L746.8125,53.1094 L746.8125,55.2656 L744.3438,55.2656 L744.3438,63.3438 L746.8125,63.3438 L746.8125,65.5 L739.4219,65.5 L739.4219,63.3438 L741.8906,63.3438 L741.8906,55.2656 L739.4219,55.2656 Z " fill="#000000"/><text fill="#000000" font-family="sans-serif" font-size="14" font-style="italic" lengthAdjust="spacing" textLength="71.3017" x="757.5" y="64.932">Serializable</text><line style="stroke:#181818;stroke-width:0.5;" x1="729.5" x2="830.8017" y1="75.5" y2="75.5"/><line style="stroke:#181818;stroke-width:0.5;" x1="729.5" x2="830.8017" y1="83.5" y2="83.5"/></g><polygon fill="none" points="546.3872,242.5362,527.4357,241.6196,530.676,253.1738,546.3872,242.5362" style="stroke:#181818;stroke-width:1.0;"/><path d="M529.0559,247.3967 C466.9448,264.8156 408.0173,282.7821 341,307 C309.9586,318.2173 276.3613,332.3029 247.707,344.9288 " fill="none" style="stroke:#181818;stroke-width:1.0;"/><polygon fill="none" points="636.9898,242.6933,620.1098,251.3573,628.6842,259.7525,636.9898,242.6933" style="stroke:#181818;stroke-width:1.0;"/><path d="M624.397,255.5549 C595.4998,285.0688 565.8017,315.4007 536.9294,344.8891 " fill="none" style="stroke:#181818;stroke-width:1.0;"/><polygon fill="none" points="701.0102,242.6933,709.3158,259.7525,717.8902,251.3573,701.0102,242.6933" style="stroke:#181818;stroke-width:1.0;"/><path d="M713.603,255.5549 C742.5002,285.0688 772.1983,315.4007 801.0706,344.8891 " fill="none" style="stroke:#181818;stroke-width:1.0;"/><polygon fill="none" points="584.0246,101.2066,590.5371,119.0275,599.9271,111.5558,584.0246,101.2066" style="stroke:#181818;stroke-width:1.0;"/><path d="M595.2321,115.2917 C613.046,137.6794 625.3596,153.1546 643.1385,175.4984 " fill="none" style="stroke:#181818;stroke-width:1.0;"/><polygon fill="none" points="761.6706,91.5356,745.768,101.8849,755.1581,109.3566,761.6706,91.5356" style="stroke:#181818;stroke-width:1.0;"/><path d="M750.4631,105.6207 C732.298,128.4498 715.5087,149.5499 695.0399,175.2742 " fill="none" style="stroke:#181818;stroke-width:1.0;stroke-dasharray:7.0,7.0;"/><polygon fill="none" points="791.6128,242.5362,807.324,253.1738,810.5643,241.6196,791.6128,242.5362" style="stroke:#181818;stroke-width:1.0;"/><path d="M808.9441,247.3967 C871.0552,264.8156 929.9827,282.7821 997,307 C1028.0414,318.2173 1061.6387,332.3029 1090.293,344.9288 " fill="none" style="stroke:#181818;stroke-width:1.0;"/><polygon fill="none" points="1638,271.4197,1632,289.4197,1644,289.4197,1638,271.4197" style="stroke:#181818;stroke-width:1.0;"/><path d="M1638,289.4197 C1638,300.904 1638,294.9926 1638,306.7324 " fill="none" style="stroke:#181818;stroke-width:1.0;stroke-dasharray:7.0,7.0;"/><text fill="#888888" font-family="sans-serif" font-size="10" lengthAdjust="spacing" textLength="2.6" x="969.2" y="470.69">&#160;</text><a href="https://github.com/talsma-ict/umldoclet" target="_top" title="https://github.com/talsma-ict/umldoclet" xlink:actuate="onRequest" xlink:href="https://github.com/talsma-ict/umldoclet" xlink:show="new" xlink:title="https://github.com/talsma-ict/umldoclet" xlink:type="simple"><text fill="#888888" font-family="sans-serif" font-size="10" lengthAdjust="spacing" textLength="76.7199" x="932.14" y="484.31">UMLDoclet 2.2.1</text></a><!--SRC=[jLRTRzis47_lNt537kOWCIqhMTC9mG3FBTOKAR0cQLyyFz3IMU9CaIf99N4x_-yxVJYM5Hbn2rWlDe_tyRjF7W30hp3MsTA8E77WDBX4MFZyyHguYY16XOOxZ42aF4OBCvHQnRPYHE2vIxG1FIzFeJO6RQPL95GC7_Wz1wjp4w9bhrv1QUfkhVs1suRssR8WljMXH0UzyN43akyDN_Tzpp-7Eovjok5gVCTgRHiPd_bi2AHRYX2L9PMvYj2Ki4OP3-ddkhevXNiqLcX5Cbwjft0rrCfneInat3XRkFItvCeLM8UiiCyke3UwlTx6vlrUOZk5aL4yZ-16VysVtFqbCpmcn98lTUx0fkYuukML9SmMoHHt5ByWg0G8w8B2J5XIbj1__uo5WZEBvfx0Cv5caZbk5_2zuY- -K79B8SqY2kGjSXCcL-JvumSzWycaYymIbyhfb7H0upl2HmnpXrVA8RaYUyJvhYHHgCOK6tnqnm7SQn4zoQqsA4GXDkSX0idLxE-rB58mcRH9tGY-yvbrXeTk1ISnkhVSyH5LY1jbeaUMc-UTSddRtruRSrl2u9ngDlaYyC6-o5oflyabVX5QyY8qpuLMxToKgAjyhFyU90VDIjZ6s2o6PpS7mR8EsZe4zR6EmkQqenIi8tZX2ewe4DhLimD9csrtX6uQAQy0jIW7p4uRvHMrT4U75EHk52TThBrcSvn2e_xHd4BXLi7maOPFN12A4h3rwNXR-uyqtfxTzdAB_L1VhRP7fJOnivcX1sTkU8eFsYoOfN4VvP9ex6jEq_nR8uQjmlnKtbDC_qIkTW-adyjz1zn_wL5aGZSiRIRdBHh1fVZ6PnARiY-z1a7GRA_B__hzFKIwNeR3MLlFlKFxysoubGRtgf4WsAw5VJtRG2rjrGaEWcOsIHbZFw7i895g3Riz3JrxrlTqgMjSLMLzQTrIuXzFZJ3NcZgXrOFlbncQQw4MOorfKJfwqttxkLZsA9b8-sMuK4YTxRKQyNBGi5VR-aTD9ebpcGq6WrYu99ynycZWoaMpBq8to5CPLHjcQzUSJklTyQ-d9RPO1Fj3l-_xTyCtWJyCpdpss_cvVt5nvfsVUCF0yoRlSgCp7Dmw7IuIBTFf_m00]--></g></svg>