<svg xmlns="http://www.w3.org/2000/svg" xmlns:xlink="http://www.w3.org/1999/xlink" contentStyleType="text/css" data-diagram-type="CLASS" height="438px" preserveAspectRatio="none" style="width:422px;height:438px;background:#FFFFFF;" version="1.1" viewBox="0 0 422 438" width="422px" zoomAndPan="magnify"><defs/><g><!--class com.hack23.cia.model.internal.application.data.politician.impl.ViewRiksdagenPoliticianExperienceSummary.PoliticalRole--><g class="entity" data-entity="com.hack23.cia.model.internal.application.data.politician.impl.ViewRiksdagenPoliticianExperienceSummary.PoliticalRole" data-source-line="13" data-uid="ent0002" id="entity_com.hack23.cia.model.internal.application.data.politician.impl.ViewRiksdagenPoliticianExperienceSummary.PoliticalRole"><a href="ViewRiksdagenPoliticianExperienceSummary.PoliticalRole.html" target="_top" title="ViewRiksdagenPoliticianExperienceSummary.PoliticalRole.html" xlink:actuate="onRequest" xlink:href="ViewRiksdagenPoliticianExperienceSummary.PoliticalRole.html" xlink:show="new" xlink:title="ViewRiksdagenPoliticianExperienceSummary.PoliticalRole.html" xlink:type="simple"><rect fill="#F1F1F1" height="317.6387" rx="2.5" ry="2.5" style="stroke:#181818;stroke-width:0.5;" width="409.7045" x="6" y="91"/><ellipse cx="21" cy="112.344" fill="#ADD1B2" rx="11" ry="11" style="stroke:#181818;stroke-width:1;"/><path d="M23.9688,117.9846 Q23.3906,118.2815 22.75,118.4221 Q22.1094,118.5783 21.4063,118.5783 Q18.9063,118.5783 17.5781,116.9377 Q16.2656,115.2815 16.2656,112.1565 Q16.2656,109.0315 17.5781,107.3752 Q18.9063,105.719 21.4063,105.719 Q22.1094,105.719 22.75,105.8752 Q23.4063,106.0315 23.9688,106.3283 L23.9688,109.0471 Q23.3438,108.469 22.75,108.2033 Q22.1563,107.9221 21.5313,107.9221 Q20.1875,107.9221 19.5,109.0002 Q18.8125,110.0627 18.8125,112.1565 Q18.8125,114.2502 19.5,115.3283 Q20.1875,116.3908 21.5313,116.3908 Q22.1563,116.3908 22.75,116.1252 Q23.3438,115.844 23.9688,115.2658 L23.9688,117.9846 Z " fill="#000000"/><text fill="#000000" font-family="sans-serif" font-size="14" lengthAdjust="spacing" textLength="377.7045" x="35" y="110.9659">ViewRiksdagenPoliticianExperienceSummary.PoliticalRole</text><text fill="#000000" font-family="sans-serif" font-size="10" lengthAdjust="spacing" textLength="290.5398" x="78.5824" y="125.7579">com.hack23.cia.model.internal.application.data.politician.impl</text><line style="stroke:#181818;stroke-width:0.5;" x1="7" x2="414.7045" y1="133.6879" y2="133.6879"/><ellipse cx="17" cy="148.7219" fill="#84BE84" rx="3" ry="3" style="stroke:#038048;stroke-width:1;"/><text fill="#000000" font-family="sans-serif" font-size="14" lengthAdjust="spacing" textLength="108.1776" x="26" y="152.6538">getType(): String</text><ellipse cx="17" cy="167.7898" fill="#84BE84" rx="3" ry="3" style="stroke:#038048;stroke-width:1;"/><text fill="#000000" font-family="sans-serif" font-size="14" lengthAdjust="spacing" textLength="134.0775" x="26" y="171.7218">setType(String): void</text><ellipse cx="17" cy="186.8577" fill="#84BE84" rx="3" ry="3" style="stroke:#038048;stroke-width:1;"/><text fill="#000000" font-family="sans-serif" font-size="14" lengthAdjust="spacing" textLength="105.4336" x="26" y="190.7897">getRole(): String</text><ellipse cx="17" cy="205.9256" fill="#84BE84" rx="3" ry="3" style="stroke:#038048;stroke-width:1;"/><text fill="#000000" font-family="sans-serif" font-size="14" lengthAdjust="spacing" textLength="131.3335" x="26" y="209.8576">setRole(String): void</text><ellipse cx="17" cy="224.9935" fill="#84BE84" rx="3" ry="3" style="stroke:#038048;stroke-width:1;"/><text fill="#000000" font-family="sans-serif" font-size="14" lengthAdjust="spacing" textLength="102.0736" x="26" y="228.9255">getOrg(): String</text><ellipse cx="17" cy="244.0614" fill="#84BE84" rx="3" ry="3" style="stroke:#038048;stroke-width:1;"/><text fill="#000000" font-family="sans-serif" font-size="14" lengthAdjust="spacing" textLength="127.9735" x="26" y="247.9934">setOrg(String): void</text><ellipse cx="17" cy="263.1294" fill="#84BE84" rx="3" ry="3" style="stroke:#038048;stroke-width:1;"/><text fill="#000000" font-family="sans-serif" font-size="14" lengthAdjust="spacing" textLength="102.3396" x="26" y="267.0613">getDays(): Long</text><ellipse cx="17" cy="282.1973" fill="#84BE84" rx="3" ry="3" style="stroke:#038048;stroke-width:1;"/><text fill="#000000" font-family="sans-serif" font-size="14" lengthAdjust="spacing" textLength="128.2395" x="26" y="286.1293">setDays(Long): void</text><ellipse cx="17" cy="301.2652" fill="#84BE84" rx="3" ry="3" style="stroke:#038048;stroke-width:1;"/><text fill="#000000" font-family="sans-serif" font-size="14" lengthAdjust="spacing" textLength="157.5694" x="26" y="305.1972">getWeightedExp(): Long</text><ellipse cx="17" cy="320.3331" fill="#84BE84" rx="3" ry="3" style="stroke:#038048;stroke-width:1;"/><text fill="#000000" font-family="sans-serif" font-size="14" lengthAdjust="spacing" textLength="183.4693" x="26" y="324.2651">setWeightedExp(Long): void</text><ellipse cx="17" cy="339.401" fill="#84BE84" rx="3" ry="3" style="stroke:#038048;stroke-width:1;"/><text fill="#000000" font-family="sans-serif" font-size="14" lengthAdjust="spacing" textLength="169.3154" x="26" y="343.333">getSubstituteDays(): Long</text><ellipse cx="17" cy="358.4689" fill="#84BE84" rx="3" ry="3" style="stroke:#038048;stroke-width:1;"/><text fill="#000000" font-family="sans-serif" font-size="14" lengthAdjust="spacing" textLength="195.2153" x="26" y="362.4009">setSubstituteDays(Long): void</text><ellipse cx="17" cy="377.5369" fill="#84BE84" rx="3" ry="3" style="stroke:#038048;stroke-width:1;"/><text fill="#000000" font-family="sans-serif" font-size="14" lengthAdjust="spacing" textLength="175.2933" x="26" y="381.4688">getLeadershipDays(): Long</text><ellipse cx="17" cy="396.6048" fill="#84BE84" rx="3" ry="3" style="stroke:#038048;stroke-width:1;"/><text fill="#000000" font-family="sans-serif" font-size="14" lengthAdjust="spacing" textLength="201.1932" x="26" y="400.5368">setLeadershipDays(Long): void</text></a></g><!--class com.hack23.cia.model.internal.application.data.politician.impl.ViewRiksdagenPoliticianExperienceSummary--><g class="entity" data-entity="com.hack23.cia.model.internal.application.data.politician.impl.ViewRiksdagenPoliticianExperienceSummary" data-source-line="30" data-uid="ent0003" id="entity_com.hack23.cia.model.internal.application.data.politician.impl.ViewRiksdagenPoliticianExperienceSummary"><a href="ViewRiksdagenPoliticianExperienceSummary.html" target="_top" title="ViewRiksdagenPoliticianExperienceSummary.html" xlink:actuate="onRequest" xlink:href="ViewRiksdagenPoliticianExperienceSummary.html" xlink:show="new" xlink:title="ViewRiksdagenPoliticianExperienceSummary.html" xlink:type="simple"><rect fill="#F1F1F1" height="42.6879" rx="2.5" ry="2.5" style="stroke:#181818;stroke-width:0.5;" width="326.2509" x="48" y="12"/><ellipse cx="63" cy="33.344" fill="#ADD1B2" rx="11" ry="11" style="stroke:#181818;stroke-width:1;"/><path d="M65.9688,38.9846 Q65.3906,39.2815 64.75,39.4221 Q64.1094,39.5783 63.4063,39.5783 Q60.9063,39.5783 59.5781,37.9377 Q58.2656,36.2815 58.2656,33.1565 Q58.2656,30.0315 59.5781,28.3752 Q60.9063,26.719 63.4063,26.719 Q64.1094,26.719 64.75,26.8752 Q65.4063,27.0315 65.9688,27.3283 L65.9688,30.0471 Q65.3438,29.469 64.75,29.2033 Q64.1563,28.9221 63.5313,28.9221 Q62.1875,28.9221 61.5,30.0002 Q60.8125,31.0627 60.8125,33.1565 Q60.8125,35.2502 61.5,36.3283 Q62.1875,37.3908 63.5313,37.3908 Q64.1563,37.3908 64.75,37.1252 Q65.3438,36.844 65.9688,36.2658 L65.9688,38.9846 Z " fill="#000000"/><text fill="#000000" font-family="sans-serif" font-size="14" lengthAdjust="spacing" textLength="294.2509" x="77" y="31.9659">ViewRiksdagenPoliticianExperienceSummary</text><text fill="#000000" font-family="sans-serif" font-size="10" lengthAdjust="spacing" textLength="290.5398" x="78.8555" y="46.7579">com.hack23.cia.model.internal.application.data.politician.impl</text></a></g><g class="link" data-entity-1="com.hack23.cia.model.internal.application.data.politician.impl.ViewRiksdagenPoliticianExperienceSummary" data-entity-2="com.hack23.cia.model.internal.application.data.politician.impl.ViewRiksdagenPoliticianExperienceSummary.PoliticalRole" data-uid="lnk4" id="link_com.hack23.cia.model.internal.application.data.politician.impl.ViewRiksdagenPoliticianExperienceSummary_com.hack23.cia.model.internal.application.data.politician.impl.ViewRiksdagenPoliticianExperienceSummary.PoliticalRole"><ellipse cx="211" cy="63.0672" fill="#FFFFFF" rx="8" ry="8" style="stroke:#181818;stroke-width:1;"/><line style="stroke:#181818;stroke-width:1;" x1="211" x2="211" y1="71.0672" y2="55.0672"/><line style="stroke:#181818;stroke-width:1;" x1="203" x2="219" y1="63.0672" y2="63.0672"/><path d="M211,71.0672 C211,80.6093 211,76.8857 211,90.6231" fill="none" style="stroke:#181818;stroke-width:1;"/></g><g class="footer" data-source-line="40"><text fill="#888888" font-family="sans-serif" font-size="10" lengthAdjust="spacing" textLength="2.6" x="206.2" y="413.69">&#160;</text><a href="https://github.com/talsma-ict/umldoclet" target="_top" title="https://github.com/talsma-ict/umldoclet" xlink:actuate="onRequest" xlink:href="https://github.com/talsma-ict/umldoclet" xlink:show="new" xlink:title="https://github.com/talsma-ict/umldoclet" xlink:type="simple"><text fill="#888888" font-family="sans-serif" font-size="10" lengthAdjust="spacing" textLength="76.7199" x="169.14" y="427.31">UMLDoclet 2.2.4</text></a></g><!--SRC=[rLLDJzj04BttLqpfeI38nd43XGWXeO3weLH59BI7m65Y3_OgwrrtTmnrA_vxrtOQGeGF1QbLVR4yRzwRZvtr002yXg79IokJb84DS2eTN7mQ0UeO4j9aaIa6cM523cQaZ4vSuqY01QV6Whcklo9ZBRdSw5Zg13xY3O8pXOt8YHSle0ur-Qr-Ysv5VLPMnXCJAMBO76wjf1G6lRrE68HxC47bCeGFmubOgDrpGX6AFdXj9IFIpaiMEYPRftMSO-HVemRPWHkoJXhjES52foerCffHQWSvMdPLIMSADLUvzeIFlojw0MmUZqSFamiEwkHsuDXgB68uDz-APRqlSuk9JrbXQGe6bn6ZnWPpFckDcUyNHZGc7nNPjr8RJJMUofY0ifnBk9QaOhTkzMAfyURQ7Ybq3ZOEdVn1Wrx_w8kastCvTx4_DNrcb6GPITIdttEoahIFM6GPsb8iC5JdHj6bNWW4Hv79H8hHF7mZF55a9YObf6RoPIg1UUuRZUpRA69a5FaoX91PhZR07-_p9CJJIe3fz6b4aNAchgxWPztFwjbEY2TbJfjR0nYpzJDz3xa5rDYzmusHyGDcfTd2hA5svcURj10hf9rtWgMhY2EpHgk1oleOwojLaqonRy-Zv5MyJMDSp1nBBfXQSrXpQLCQ4VfhwrAPjogjkQmhtJtlGloNL-1FXhuPyqMJ_b9wsvtEl_aRD6KUEYuL7IsdwDeO7tRbfbVFUt-TxKZg-T0e_nz-jVyuUb6j5IKr-KqMpJNv8GkMddTDkEvAl4MiIpsTfiov6tIxYUIqc0dVa2xNAwqZ8-uMcOgRNRQsrVnXDLlgtN9TLXkd4uITu60Ix0w2SD3V5_tT_jk3SB-tjntq1a4mFIsioQaxPXFDKwEogry0]--></g></svg>