<svg xmlns="http://www.w3.org/2000/svg" xmlns:xlink="http://www.w3.org/1999/xlink" contentStyleType="text/css" data-diagram-type="CLASS" height="285px" preserveAspectRatio="none" style="width:446px;height:285px;background:#FFFFFF;" version="1.1" viewBox="0 0 446 285" width="446px" zoomAndPan="magnify"><defs/><g><!--class com.hack23.cia.model.internal.application.data.politician.impl.ViewRiksdagenPoliticianExperienceSummary.KnowledgeArea--><g class="entity" data-entity="com.hack23.cia.model.internal.application.data.politician.impl.ViewRiksdagenPoliticianExperienceSummary.KnowledgeArea" data-source-line="13" data-uid="ent0002" id="entity_com.hack23.cia.model.internal.application.data.politician.impl.ViewRiksdagenPoliticianExperienceSummary.KnowledgeArea"><a href="ViewRiksdagenPoliticianExperienceSummary.KnowledgeArea.html" target="_top" title="ViewRiksdagenPoliticianExperienceSummary.KnowledgeArea.html" xlink:actuate="onRequest" xlink:href="ViewRiksdagenPoliticianExperienceSummary.KnowledgeArea.html" xlink:show="new" xlink:title="ViewRiksdagenPoliticianExperienceSummary.KnowledgeArea.html" xlink:type="simple"><rect fill="#F1F1F1" height="165.0954" rx="2.5" ry="2.5" style="stroke:#181818;stroke-width:0.5;" width="433.8965" x="6" y="91"/><ellipse cx="21" cy="112.344" fill="#ADD1B2" rx="11" ry="11" style="stroke:#181818;stroke-width:1;"/><path d="M23.9688,117.9846 Q23.3906,118.2815 22.75,118.4221 Q22.1094,118.5783 21.4063,118.5783 Q18.9063,118.5783 17.5781,116.9377 Q16.2656,115.2815 16.2656,112.1565 Q16.2656,109.0315 17.5781,107.3752 Q18.9063,105.719 21.4063,105.719 Q22.1094,105.719 22.75,105.8752 Q23.4063,106.0315 23.9688,106.3283 L23.9688,109.0471 Q23.3438,108.469 22.75,108.2033 Q22.1563,107.9221 21.5313,107.9221 Q20.1875,107.9221 19.5,109.0002 Q18.8125,110.0627 18.8125,112.1565 Q18.8125,114.2502 19.5,115.3283 Q20.1875,116.3908 21.5313,116.3908 Q22.1563,116.3908 22.75,116.1252 Q23.3438,115.844 23.9688,115.2658 L23.9688,117.9846 Z " fill="#000000"/><text fill="#000000" font-family="sans-serif" font-size="14" lengthAdjust="spacing" textLength="401.8965" x="35" y="110.9659">ViewRiksdagenPoliticianExperienceSummary.KnowledgeArea</text><text fill="#000000" font-family="sans-serif" font-size="10" lengthAdjust="spacing" textLength="290.5398" x="90.6783" y="125.7579">com.hack23.cia.model.internal.application.data.politician.impl</text><line style="stroke:#181818;stroke-width:0.5;" x1="7" x2="438.8965" y1="133.6879" y2="133.6879"/><ellipse cx="17" cy="148.7219" fill="#84BE84" rx="3" ry="3" style="stroke:#038048;stroke-width:1;"/><text fill="#000000" font-family="sans-serif" font-size="14" lengthAdjust="spacing" textLength="107.2256" x="26" y="152.6538">getArea(): String</text><ellipse cx="17" cy="167.7898" fill="#84BE84" rx="3" ry="3" style="stroke:#038048;stroke-width:1;"/><text fill="#000000" font-family="sans-serif" font-size="14" lengthAdjust="spacing" textLength="133.1255" x="26" y="171.7218">setArea(String): void</text><ellipse cx="17" cy="186.8577" fill="#84BE84" rx="3" ry="3" style="stroke:#038048;stroke-width:1;"/><text fill="#000000" font-family="sans-serif" font-size="14" lengthAdjust="spacing" textLength="102.3396" x="26" y="190.7897">getDays(): Long</text><ellipse cx="17" cy="205.9256" fill="#84BE84" rx="3" ry="3" style="stroke:#038048;stroke-width:1;"/><text fill="#000000" font-family="sans-serif" font-size="14" lengthAdjust="spacing" textLength="128.2395" x="26" y="209.8576">setDays(Long): void</text><ellipse cx="17" cy="224.9935" fill="#84BE84" rx="3" ry="3" style="stroke:#038048;stroke-width:1;"/><text fill="#000000" font-family="sans-serif" font-size="14" lengthAdjust="spacing" textLength="157.5694" x="26" y="228.9255">getWeightedExp(): Long</text><ellipse cx="17" cy="244.0614" fill="#84BE84" rx="3" ry="3" style="stroke:#038048;stroke-width:1;"/><text fill="#000000" font-family="sans-serif" font-size="14" lengthAdjust="spacing" textLength="183.4693" x="26" y="247.9934">setWeightedExp(Long): void</text></a></g><!--class com.hack23.cia.model.internal.application.data.politician.impl.ViewRiksdagenPoliticianExperienceSummary--><g class="entity" data-entity="com.hack23.cia.model.internal.application.data.politician.impl.ViewRiksdagenPoliticianExperienceSummary" data-source-line="22" data-uid="ent0003" id="entity_com.hack23.cia.model.internal.application.data.politician.impl.ViewRiksdagenPoliticianExperienceSummary"><a href="ViewRiksdagenPoliticianExperienceSummary.html" target="_top" title="ViewRiksdagenPoliticianExperienceSummary.html" xlink:actuate="onRequest" xlink:href="ViewRiksdagenPoliticianExperienceSummary.html" xlink:show="new" xlink:title="ViewRiksdagenPoliticianExperienceSummary.html" xlink:type="simple"><rect fill="#F1F1F1" height="42.6879" rx="2.5" ry="2.5" style="stroke:#181818;stroke-width:0.5;" width="326.2509" x="60" y="12"/><ellipse cx="75" cy="33.344" fill="#ADD1B2" rx="11" ry="11" style="stroke:#181818;stroke-width:1;"/><path d="M77.9688,38.9846 Q77.3906,39.2815 76.75,39.4221 Q76.1094,39.5783 75.4063,39.5783 Q72.9063,39.5783 71.5781,37.9377 Q70.2656,36.2815 70.2656,33.1565 Q70.2656,30.0315 71.5781,28.3752 Q72.9063,26.719 75.4063,26.719 Q76.1094,26.719 76.75,26.8752 Q77.4063,27.0315 77.9688,27.3283 L77.9688,30.0471 Q77.3438,29.469 76.75,29.2033 Q76.1563,28.9221 75.5313,28.9221 Q74.1875,28.9221 73.5,30.0002 Q72.8125,31.0627 72.8125,33.1565 Q72.8125,35.2502 73.5,36.3283 Q74.1875,37.3908 75.5313,37.3908 Q76.1563,37.3908 76.75,37.1252 Q77.3438,36.844 77.9688,36.2658 L77.9688,38.9846 Z " fill="#000000"/><text fill="#000000" font-family="sans-serif" font-size="14" lengthAdjust="spacing" textLength="294.2509" x="89" y="31.9659">ViewRiksdagenPoliticianExperienceSummary</text><text fill="#000000" font-family="sans-serif" font-size="10" lengthAdjust="spacing" textLength="290.5398" x="90.8555" y="46.7579">com.hack23.cia.model.internal.application.data.politician.impl</text></a></g><g class="link" data-entity-1="com.hack23.cia.model.internal.application.data.politician.impl.ViewRiksdagenPoliticianExperienceSummary" data-entity-2="com.hack23.cia.model.internal.application.data.politician.impl.ViewRiksdagenPoliticianExperienceSummary.KnowledgeArea" data-uid="lnk4" id="link_com.hack23.cia.model.internal.application.data.politician.impl.ViewRiksdagenPoliticianExperienceSummary_com.hack23.cia.model.internal.application.data.politician.impl.ViewRiksdagenPoliticianExperienceSummary.KnowledgeArea"><ellipse cx="223" cy="63.16" fill="#FFFFFF" rx="8" ry="8" style="stroke:#181818;stroke-width:1;"/><line style="stroke:#181818;stroke-width:1;" x1="223" x2="223" y1="71.16" y2="55.16"/><line style="stroke:#181818;stroke-width:1;" x1="215" x2="231" y1="63.16" y2="63.16"/><path d="M223,71.16 C223,81.0851 223,77.6918 223,90.9378" fill="none" style="stroke:#181818;stroke-width:1;"/></g><g class="footer" data-source-line="32"><text fill="#888888" font-family="sans-serif" font-size="10" lengthAdjust="spacing" textLength="2.6" x="218.2" y="260.69">&#160;</text><a href="https://github.com/talsma-ict/umldoclet" target="_top" title="https://github.com/talsma-ict/umldoclet" xlink:actuate="onRequest" xlink:href="https://github.com/talsma-ict/umldoclet" xlink:show="new" xlink:title="https://github.com/talsma-ict/umldoclet" xlink:type="simple"><text fill="#888888" font-family="sans-serif" font-size="10" lengthAdjust="spacing" textLength="76.7199" x="181.14" y="274.31">UMLDoclet 2.2.4</text></a></g><!--SRC=[rLLDJzj04BtpAwRqK11aOpi1bGWXHG7rAvKG2UqXS1ZimLvblUlkhaFTYl_UiPs6474fIAsw5yipE- -z-V0O0E0DZ4nHMPbc7hm1dqa7bv_7W3g1b3HPz9I0p34b1pUaZ4vTUv40IvyP2-QsUOkDjUGAenEfK_Y82mHdIXkJ4rjRq51DVwFVeLj3lwbguwc95NdO6UskIOg2yB0J1T4XJ56v7E73Q2gMQ0ynaOX47nXRoPYqOyXI9sGRMSC2OtwCMyy-BCWwQJJ714kSEjNOQ8zIEoZGUbUdTAvG-rfhA9Z_G8G1x0mduyVYWgD6t3uChSOoWGlphLpb-wgmcB9aXPKfFRYSF6fiVOvLQyovNXZJX9WLFPTI6qsDFvC90UM5h-1MaahSffN1CiFcnXuhT0wsZvtyGOEmV_95qjs5dBk4kwRFZP9UnXBrsVU2h2JDZ6MUewt49stk52Kf3ItXbLu212UnoKM6yJpg2GuKkKb82QazSPfAO55meT5p6KM27aMneX0oBzGsS7jV1Y6UbmBCPiyB59dFrVKr_6pgMP-zb7pjsTaTmCHRdka7brkwMZjVM1YPF8eynShLaMEp4TSuQkjJKL-fdYjAMEoJmUl-JOpxbut2VzdyFsbts-1baVwIlBrEvzzy1ssQnyvNYavM8tHh3DEkpNXztbUCD9PwFZAADz3hjqzxB-k5ggGctk7nN1CFMR2wUT_ITTVubbnNUZRBl2_SeDjDfS_A6y45wVfccNTaxBjbhf9sYs_iSsvMkv_VhNuKzQxj1FrE64x3_g3N7uIXE0YEWh0N7VNsWcWG1BEpqfg2kXDludbcL7xz2m00]--></g></svg>