<?xml version="1.0" encoding="UTF-8" standalone="no"?><svg xmlns="http://www.w3.org/2000/svg" xmlns:xlink="http://www.w3.org/1999/xlink" contentStyleType="text/css" height="226px" preserveAspectRatio="none" style="width:414px;height:226px;background:#FFFFFF;" version="1.1" viewBox="0 0 414 226" width="414px" zoomAndPan="magnify"><defs/><g><!--MD5=[c17c5d1a17cf824b64b4c08c74178971]
class com.hack23.cia.web.impl.ui.application.views.common.pagelinks.impl.ExternalAttachmentDownloadLink--><a href="ExternalAttachmentDownloadLink.html" target="_top" title="ExternalAttachmentDownloadLink.html" xlink:actuate="onRequest" xlink:href="ExternalAttachmentDownloadLink.html" xlink:show="new" xlink:title="ExternalAttachmentDownloadLink.html" xlink:type="simple"><g id="elem_com.hack23.cia.web.impl.ui.application.views.common.pagelinks.impl.ExternalAttachmentDownloadLink"><rect codeLine="5" fill="#F1F1F1" height="88.8237" id="com.hack23.cia.web.impl.ui.application.views.common.pagelinks.impl.ExternalAttachmentDownloadLink" rx="2.5" ry="2.5" style="stroke:#181818;stroke-width:0.5;" width="400" x="7" y="110"/><ellipse cx="35.95" cy="131.344" fill="#ADD1B2" rx="11" ry="11" style="stroke:#181818;stroke-width:1.0;"/><path d="M38.9188,136.9846 Q38.3406,137.2815 37.7,137.4221 Q37.0594,137.5783 36.3563,137.5783 Q33.8563,137.5783 32.5281,135.9377 Q31.2156,134.2815 31.2156,131.1565 Q31.2156,128.0315 32.5281,126.3752 Q33.8563,124.719 36.3563,124.719 Q37.0594,124.719 37.7,124.8752 Q38.3563,125.0315 38.9188,125.3283 L38.9188,128.0471 Q38.2938,127.469 37.7,127.2033 Q37.1063,126.9221 36.4813,126.9221 Q35.1375,126.9221 34.45,128.0002 Q33.7625,129.0627 33.7625,131.1565 Q33.7625,133.2502 34.45,134.3283 Q35.1375,135.3908 36.4813,135.3908 Q37.1063,135.3908 37.7,135.1252 Q38.2938,134.844 38.9188,134.2658 L38.9188,136.9846 Z " fill="#000000"/><text fill="#000000" font-family="sans-serif" font-size="14" lengthAdjust="spacing" textLength="227" x="108.05" y="129.9659">ExternalAttachmentDownloadLink</text><text fill="#000000" font-family="sans-serif" font-size="10" lengthAdjust="spacing" textLength="337" x="53.05" y="144.7579">com.hack23.cia.web.impl.ui.application.views.common.pagelinks.impl</text><line style="stroke:#181818;stroke-width:0.5;" x1="8" x2="406" y1="152.6879" y2="152.6879"/><ellipse cx="18" cy="167.7219" fill="#84BE84" rx="3" ry="3" style="stroke:#038048;stroke-width:1.0;"/><text fill="#000000" font-family="sans-serif" font-size="14" lengthAdjust="spacing" textLength="374" x="27" y="171.6538">ExternalAttachmentDownloadLink(String, String, String)</text><ellipse cx="18" cy="186.7898" fill="#84BE84" rx="3" ry="3" style="stroke:#038048;stroke-width:1.0;"/><text fill="#000000" font-family="sans-serif" font-size="14" lengthAdjust="spacing" textLength="86" x="27" y="190.7218">attach(): void</text></g></a><!--MD5=[648101d2aa1db97ee0036bcc2f83627f]
class com.vaadin.ui.Link--><g id="elem_com.vaadin.ui.Link"><rect codeLine="10" fill="#F1F1F1" height="42.6879" id="com.vaadin.ui.Link" rx="2.5" ry="2.5" style="stroke:#181818;stroke-width:0.5;" width="99" x="157.5" y="7"/><ellipse cx="172.5" cy="28.344" fill="#ADD1B2" rx="11" ry="11" style="stroke:#181818;stroke-width:1.0;"/><path d="M175.4688,33.9846 Q174.8906,34.2815 174.25,34.4221 Q173.6094,34.5783 172.9063,34.5783 Q170.4063,34.5783 169.0781,32.9377 Q167.7656,31.2815 167.7656,28.1565 Q167.7656,25.0315 169.0781,23.3752 Q170.4063,21.719 172.9063,21.719 Q173.6094,21.719 174.25,21.8752 Q174.9063,22.0315 175.4688,22.3283 L175.4688,25.0471 Q174.8438,24.469 174.25,24.2033 Q173.6563,23.9221 173.0313,23.9221 Q171.6875,23.9221 171,25.0002 Q170.3125,26.0627 170.3125,28.1565 Q170.3125,30.2502 171,31.3283 Q171.6875,32.3908 173.0313,32.3908 Q173.6563,32.3908 174.25,32.1252 Q174.8438,31.844 175.4688,31.2658 L175.4688,33.9846 Z " fill="#000000"/><text fill="#000000" font-family="sans-serif" font-size="14" lengthAdjust="spacing" textLength="27" x="206.5" y="26.9659">Link</text><text fill="#000000" font-family="sans-serif" font-size="10" lengthAdjust="spacing" textLength="67" x="186.5" y="41.7579">com.vaadin.ui</text></g><!--MD5=[13fb8eb35ef7f3a85abee28b5d6c2f47]
reverse link com.vaadin.ui.Link to com.hack23.cia.web.impl.ui.application.views.common.pagelinks.impl.ExternalAttachmentDownloadLink--><g id="link_com.vaadin.ui.Link_com.hack23.cia.web.impl.ui.application.views.common.pagelinks.impl.ExternalAttachmentDownloadLink"><path codeLine="12" d="M207,70.4 C207,83.02 207,96.96 207,109.77 " fill="none" id="com.vaadin.ui.Link-backto-com.hack23.cia.web.impl.ui.application.views.common.pagelinks.impl.ExternalAttachmentDownloadLink" style="stroke:#181818;stroke-width:1.0;"/><polygon fill="none" points="200,70.25,207,50.25,214,70.25,200,70.25" style="stroke:#181818;stroke-width:1.0;"/></g><rect fill="none" height="13.62" style="stroke:none;stroke-width:1.0;" width="188" x="106" y="204.8237"/><text fill="#888888" font-family="sans-serif" font-size="10" lengthAdjust="spacing" textLength="188" x="106" y="215.5137">UMLDoclet 2.0.20, PlantUML 1.2022.12</text><!--MD5=[22fe1f6a1a1ba5e8192e0053239032e6]
@startuml
    set namespaceSeparator none
    hide empty fields
    hide empty methods

    class "<size:14>ExternalAttachmentDownloadLink\n<size:10>com.hack23.cia.web.impl.ui.application.views.common.pagelinks.impl" as com.hack23.cia.web.impl.ui.application.views.common.pagelinks.impl.ExternalAttachmentDownloadLink [[ExternalAttachmentDownloadLink.html]] {
        +ExternalAttachmentDownloadLink(String, String, String)
        +attach(): void
    }

    class "<size:14>Link\n<size:10>com.vaadin.ui" as com.vaadin.ui.Link

    com.vaadin.ui.Link <|- - com.hack23.cia.web.impl.ui.application.views.common.pagelinks.impl.ExternalAttachmentDownloadLink

    center footer UMLDoclet 2.0.20, PlantUML 1.2022.12
@enduml

PlantUML version 1.2022.12(Sun Oct 23 20:12:26 CEST 2022)
(APACHE source distribution)
Java Runtime: OpenJDK Runtime Environment
JVM: OpenJDK 64-Bit Server VM
Default Encoding: UTF-8
Language: 
Country: 
--></g></svg>