<svg xmlns="http://www.w3.org/2000/svg" xmlns:xlink="http://www.w3.org/1999/xlink" contentStyleType="text/css" height="793px" preserveAspectRatio="none" style="width:1216px;height:793px;background:#FFFFFF;" version="1.1" viewBox="0 0 1216 793" width="1216px" zoomAndPan="magnify"><defs/><g><!--cluster com.hack23.cia.web.impl.ui.application.views.common.pagelinks.impl--><g id="cluster_com.hack23.cia.web.impl.ui.application.views.common.pagelinks.impl"><path d="M16.5,384 L508.4501,384 A3.75,3.75 0 0 1 510.9501,386.5 L517.9501,409.0679 L1166.5,409.0679 A2.5,2.5 0 0 1 1169,411.5679 L1169,753.5 A2.5,2.5 0 0 1 1166.5,756 L16.5,756 A2.5,2.5 0 0 1 14,753.5 L14,386.5 A2.5,2.5 0 0 1 16.5,384 " fill="none" style="stroke:#000000;stroke-width:1.5;"/><line style="stroke:#000000;stroke-width:1.5;" x1="14" x2="517.9501" y1="409.0679" y2="409.0679"/><text fill="#000000" font-family="sans-serif" font-size="14" font-weight="bold" lengthAdjust="spacing" textLength="490.9501" x="18" y="400.9659">com.hack23.cia.web.impl.ui.application.views.common.pagelinks.impl</text></g><!--cluster com.vaadin.ui--><g id="cluster_com.vaadin.ui"><path d="M66.5,118.5 L165.7656,118.5 A3.75,3.75 0 0 1 168.2656,121 L175.2656,143.5679 L369.5,143.5679 A2.5,2.5 0 0 1 372,146.0679 L372,259 A2.5,2.5 0 0 1 369.5,261.5 L66.5,261.5 A2.5,2.5 0 0 1 64,259 L64,121 A2.5,2.5 0 0 1 66.5,118.5 " fill="none" style="stroke:#000000;stroke-width:1.5;"/><line style="stroke:#000000;stroke-width:1.5;" x1="64" x2="175.2656" y1="143.5679" y2="143.5679"/><text fill="#000000" font-family="sans-serif" font-size="14" font-weight="bold" lengthAdjust="spacing" textLength="98.2656" x="68" y="135.4659">com.vaadin.ui</text></g><!--cluster com.vaadin.server--><g id="cluster_com.vaadin.server"><path d="M452.5,137.5 L582.4815,137.5 A3.75,3.75 0 0 1 584.9815,140 L591.9815,162.5679 L685.5,162.5679 A2.5,2.5 0 0 1 688,165.0679 L688,240 A2.5,2.5 0 0 1 685.5,242.5 L452.5,242.5 A2.5,2.5 0 0 1 450,240 L450,140 A2.5,2.5 0 0 1 452.5,137.5 " fill="none" style="stroke:#000000;stroke-width:1.5;"/><line style="stroke:#000000;stroke-width:1.5;" x1="450" x2="591.9815" y1="162.5679" y2="162.5679"/><text fill="#000000" font-family="sans-serif" font-size="14" font-weight="bold" lengthAdjust="spacing" textLength="128.9815" x="454" y="154.4659">com.vaadin.server</text></g><!--cluster com.hack23.cia.web.impl.ui.application.views.common.pagelinks.api--><g id="cluster_com.hack23.cia.web.impl.ui.application.views.common.pagelinks.api"><path d="M714.5,4 L1196.8881,4 A3.75,3.75 0 0 1 1199.3881,6.5 L1206.3881,29.0679 L1206.5,29.0679 A2.5,2.5 0 0 1 1209,31.5679 L1209,373.5 A2.5,2.5 0 0 1 1206.5,376 L714.5,376 A2.5,2.5 0 0 1 712,373.5 L712,6.5 A2.5,2.5 0 0 1 714.5,4 " fill="none" style="stroke:#000000;stroke-width:1.5;"/><line style="stroke:#000000;stroke-width:1.5;" x1="712" x2="1206.3881" y1="29.0679" y2="29.0679"/><text fill="#000000" font-family="sans-serif" font-size="14" font-weight="bold" lengthAdjust="spacing" textLength="481.3881" x="716" y="20.9659">com.hack23.cia.web.impl.ui.application.views.common.pagelinks.api</text></g><!--class ExternalAttachmentDownloadLink--><a href="ExternalAttachmentDownloadLink.html" target="_top" title="ExternalAttachmentDownloadLink.html" xlink:actuate="onRequest" xlink:href="ExternalAttachmentDownloadLink.html" xlink:show="new" xlink:title="ExternalAttachmentDownloadLink.html" xlink:type="simple"><g id="elem_ExternalAttachmentDownloadLink"><rect codeLine="12" fill="#F1F1F1" height="86.1358" id="ExternalAttachmentDownloadLink" rx="2.5" ry="2.5" style="stroke:#181818;stroke-width:0.5;" width="392.3506" x="22" y="538"/><ellipse cx="101.4357" cy="554" fill="#ADD1B2" rx="11" ry="11" style="stroke:#181818;stroke-width:1.0;"/><path d="M104.4045,559.6406 Q103.8264,559.9375 103.1857,560.0781 Q102.5451,560.2344 101.842,560.2344 Q99.342,560.2344 98.0139,558.5938 Q96.7014,556.9375 96.7014,553.8125 Q96.7014,550.6875 98.0139,549.0313 Q99.342,547.375 101.842,547.375 Q102.5451,547.375 103.1857,547.5313 Q103.842,547.6875 104.4045,547.9844 L104.4045,550.7031 Q103.7795,550.125 103.1857,549.8594 Q102.592,549.5781 101.967,549.5781 Q100.6232,549.5781 99.9357,550.6563 Q99.2482,551.7188 99.2482,553.8125 Q99.2482,555.9063 99.9357,556.9844 Q100.6232,558.0469 101.967,558.0469 Q102.592,558.0469 103.1857,557.7813 Q103.7795,557.5 104.4045,556.9219 L104.4045,559.6406 Z " fill="#000000"/><text fill="#000000" font-family="sans-serif" font-size="14" lengthAdjust="spacing" textLength="224.9791" x="121.9357" y="559.432">ExternalAttachmentDownloadLink</text><line style="stroke:#181818;stroke-width:0.5;" x1="23" x2="413.3506" y1="570" y2="570"/><line style="stroke:#181818;stroke-width:0.5;" x1="23" x2="413.3506" y1="578" y2="578"/><ellipse cx="33" cy="593.034" fill="#84BE84" rx="3" ry="3" style="stroke:#038048;stroke-width:1.0;"/><text fill="#000000" font-family="sans-serif" font-size="14" lengthAdjust="spacing" textLength="366.3506" x="42" y="596.9659">ExternalAttachmentDownloadLink(String, String, String)</text><ellipse cx="33" cy="612.1019" fill="#84BE84" rx="3" ry="3" style="stroke:#038048;stroke-width:1.0;"/><text fill="#000000" font-family="sans-serif" font-size="14" lengthAdjust="spacing" textLength="84.7837" x="42" y="616.0339">attach(): void</text></g></a><!--class StreamSourceImplementation--><a href="StreamSourceImplementation.html" target="_top" title="StreamSourceImplementation.html" xlink:actuate="onRequest" xlink:href="StreamSourceImplementation.html" xlink:show="new" xlink:title="StreamSourceImplementation.html" xlink:type="simple"><g id="elem_StreamSourceImplementation"><rect codeLine="17" fill="#F1F1F1" height="86.1358" id="StreamSourceImplementation" rx="2.5" ry="2.5" style="stroke:#181818;stroke-width:0.5;" width="272.6511" x="432.5" y="538"/><ellipse cx="466.3081" cy="554" fill="#ADD1B2" rx="11" ry="11" style="stroke:#181818;stroke-width:1.0;"/><path d="M469.2769,559.6406 Q468.6987,559.9375 468.0581,560.0781 Q467.4175,560.2344 466.7144,560.2344 Q464.2144,560.2344 462.8862,558.5938 Q461.5737,556.9375 461.5737,553.8125 Q461.5737,550.6875 462.8862,549.0313 Q464.2144,547.375 466.7144,547.375 Q467.4175,547.375 468.0581,547.5313 Q468.7144,547.6875 469.2769,547.9844 L469.2769,550.7031 Q468.6519,550.125 468.0581,549.8594 Q467.4644,549.5781 466.8394,549.5781 Q465.4956,549.5781 464.8081,550.6563 Q464.1206,551.7188 464.1206,553.8125 Q464.1206,555.9063 464.8081,556.9844 Q465.4956,558.0469 466.8394,558.0469 Q467.4644,558.0469 468.0581,557.7813 Q468.6519,557.5 469.2769,556.9219 L469.2769,559.6406 Z " fill="#000000"/><text fill="#000000" font-family="sans-serif" font-size="14" lengthAdjust="spacing" textLength="198.8553" x="484.4877" y="559.432">StreamSourceImplementation</text><line style="stroke:#181818;stroke-width:0.5;" x1="433.5" x2="704.1511" y1="570" y2="570"/><line style="stroke:#181818;stroke-width:0.5;" x1="433.5" x2="704.1511" y1="578" y2="578"/><ellipse cx="443.5" cy="593.034" fill="#84BE84" rx="3" ry="3" style="stroke:#038048;stroke-width:1.0;"/><text fill="#000000" font-family="sans-serif" font-size="14" lengthAdjust="spacing" textLength="246.6511" x="452.5" y="596.9659">StreamSourceImplementation(String)</text><ellipse cx="443.5" cy="612.1019" fill="#84BE84" rx="3" ry="3" style="stroke:#038048;stroke-width:1.0;"/><text fill="#000000" font-family="sans-serif" font-size="14" lengthAdjust="spacing" textLength="167.7894" x="452.5" y="616.0339">getStream(): InputStream</text></g></a><!--class PageLinkFactoryImpl--><a href="PageLinkFactoryImpl.html" target="_top" title="PageLinkFactoryImpl.html" xlink:actuate="onRequest" xlink:href="PageLinkFactoryImpl.html" xlink:show="new" xlink:title="PageLinkFactoryImpl.html" xlink:type="simple"><g id="elem_PageLinkFactoryImpl"><rect codeLine="22" fill="#F1F1F1" height="334.0188" id="PageLinkFactoryImpl" rx="2.5" ry="2.5" style="stroke:#181818;stroke-width:0.5;" width="437.3185" x="723.5" y="414"/><ellipse cx="868.7845" cy="430" fill="#ADD1B2" rx="11" ry="11" style="stroke:#181818;stroke-width:1.0;"/><path d="M871.7533,435.6406 Q871.1751,435.9375 870.5345,436.0781 Q869.8939,436.2344 869.1908,436.2344 Q866.6908,436.2344 865.3626,434.5938 Q864.0501,432.9375 864.0501,429.8125 Q864.0501,426.6875 865.3626,425.0313 Q866.6908,423.375 869.1908,423.375 Q869.8939,423.375 870.5345,423.5313 Q871.1908,423.6875 871.7533,423.9844 L871.7533,426.7031 Q871.1283,426.125 870.5345,425.8594 Q869.9408,425.5781 869.3158,425.5781 Q867.972,425.5781 867.2845,426.6563 Q866.597,427.7188 866.597,429.8125 Q866.597,431.9063 867.2845,432.9844 Q867.972,434.0469 869.3158,434.0469 Q869.9408,434.0469 870.5345,433.7813 Q871.1283,433.5 871.7533,432.9219 L871.7533,435.6406 Z " fill="#000000"/><text fill="#000000" font-family="sans-serif" font-size="14" lengthAdjust="spacing" textLength="138.2495" x="889.2845" y="435.432">PageLinkFactoryImpl</text><line style="stroke:#181818;stroke-width:0.5;" x1="724.5" x2="1159.8185" y1="446" y2="446"/><line style="stroke:#181818;stroke-width:0.5;" x1="724.5" x2="1159.8185" y1="454" y2="454"/><ellipse cx="734.5" cy="469.034" fill="#84BE84" rx="3" ry="3" style="stroke:#038048;stroke-width:1.0;"/><text fill="#000000" font-family="sans-serif" font-size="14" lengthAdjust="spacing" textLength="372.9026" x="743.5" y="472.9659">addCommitteePageLink(ViewRiksdagenCommittee): Link</text><ellipse cx="734.5" cy="488.1019" fill="#84BE84" rx="3" ry="3" style="stroke:#038048;stroke-width:1.0;"/><text fill="#000000" font-family="sans-serif" font-size="14" lengthAdjust="spacing" textLength="333.3948" x="743.5" y="492.0339">addMinistryPageLink(ViewRiksdagenMinistry): Link</text><ellipse cx="734.5" cy="507.1698" fill="#84BE84" rx="3" ry="3" style="stroke:#038048;stroke-width:1.0;"/><text fill="#000000" font-family="sans-serif" font-size="14" lengthAdjust="spacing" textLength="295.4828" x="743.5" y="511.1018">addPartyPageLink(ViewRiksdagenParty): Link</text><ellipse cx="734.5" cy="526.2377" fill="#84BE84" rx="3" ry="3" style="stroke:#038048;stroke-width:1.0;"/><text fill="#000000" font-family="sans-serif" font-size="14" lengthAdjust="spacing" textLength="379.6226" x="743.5" y="530.1697">createAdminPagingLink(String, String, String, String): Link</text><ellipse cx="734.5" cy="545.3056" fill="#84BE84" rx="3" ry="3" style="stroke:#038048;stroke-width:1.0;"/><text fill="#000000" font-family="sans-serif" font-size="14" lengthAdjust="spacing" textLength="180.6553" x="743.5" y="549.2376">createLoginPageLink(): Link</text><ellipse cx="734.5" cy="564.3735" fill="#84BE84" rx="3" ry="3" style="stroke:#038048;stroke-width:1.0;"/><text fill="#000000" font-family="sans-serif" font-size="14" lengthAdjust="spacing" textLength="207.7032" x="743.5" y="568.3055">createMainViewPageLink(): Link</text><ellipse cx="734.5" cy="583.4415" fill="#84BE84" rx="3" ry="3" style="stroke:#038048;stroke-width:1.0;"/><text fill="#000000" font-family="sans-serif" font-size="14" lengthAdjust="spacing" textLength="280.6009" x="743.5" y="587.3734">createPoliticianPageLink(PersonData): Link</text><ellipse cx="734.5" cy="602.5094" fill="#84BE84" rx="3" ry="3" style="stroke:#038048;stroke-width:1.0;"/><text fill="#000000" font-family="sans-serif" font-size="14" lengthAdjust="spacing" textLength="362.3466" x="743.5" y="606.4414">createPoliticianPageLink(ViewRiksdagenPolitician): Link</text><ellipse cx="734.5" cy="621.5773" fill="#84BE84" rx="3" ry="3" style="stroke:#038048;stroke-width:1.0;"/><text fill="#000000" font-family="sans-serif" font-size="14" lengthAdjust="spacing" textLength="198.2392" x="743.5" y="625.5093">createRegisterPageLink(): Link</text><ellipse cx="734.5" cy="640.6452" fill="#84BE84" rx="3" ry="3" style="stroke:#038048;stroke-width:1.0;"/><text fill="#000000" font-family="sans-serif" font-size="14" lengthAdjust="spacing" textLength="245.335" x="743.5" y="644.5772">createUserHomeViewPageLink(): Link</text><ellipse cx="734.5" cy="659.7131" fill="#84BE84" rx="3" ry="3" style="stroke:#038048;stroke-width:1.0;"/><text fill="#000000" font-family="sans-serif" font-size="14" lengthAdjust="spacing" textLength="220.4991" x="743.5" y="663.6451">addMinistryPageLink(String): Link</text><ellipse cx="734.5" cy="678.781" fill="#84BE84" rx="3" ry="3" style="stroke:#038048;stroke-width:1.0;"/><text fill="#000000" font-family="sans-serif" font-size="14" lengthAdjust="spacing" textLength="339.0367" x="743.5" y="682.713">addMinistryGovermentBodiesPageLink(String): Link</text><ellipse cx="734.5" cy="697.849" fill="#84BE84" rx="3" ry="3" style="stroke:#038048;stroke-width:1.0;"/><text fill="#000000" font-family="sans-serif" font-size="14" lengthAdjust="spacing" textLength="411.3185" x="743.5" y="701.7809">addMinistryGovermentBodiesHeadcountPageLink(String): Link</text><ellipse cx="734.5" cy="716.9169" fill="#84BE84" rx="3" ry="3" style="stroke:#038048;stroke-width:1.0;"/><text fill="#000000" font-family="sans-serif" font-size="14" lengthAdjust="spacing" textLength="388.6106" x="743.5" y="720.8489">addMinistryGovermentBodiesIncomePageLink(String): Link</text><ellipse cx="734.5" cy="735.9848" fill="#84BE84" rx="3" ry="3" style="stroke:#038048;stroke-width:1.0;"/><text fill="#000000" font-family="sans-serif" font-size="14" lengthAdjust="spacing" textLength="394.2245" x="743.5" y="739.9168">addMinistrGovermentBodiesSpendingPageLink(String): Link</text></g></a><!--class Link--><g id="elem_Link"><rect codeLine="43" fill="#F1F1F1" height="105.2038" id="Link" rx="2.5" ry="2.5" style="stroke:#181818;stroke-width:0.5;" width="291.3129" x="72.5" y="148.5"/><ellipse cx="200.3685" cy="164.5" fill="#ADD1B2" rx="11" ry="11" style="stroke:#181818;stroke-width:1.0;"/><path d="M203.3373,170.1406 Q202.7592,170.4375 202.1185,170.5781 Q201.4779,170.7344 200.7748,170.7344 Q198.2748,170.7344 196.9467,169.0938 Q195.6342,167.4375 195.6342,164.3125 Q195.6342,161.1875 196.9467,159.5313 Q198.2748,157.875 200.7748,157.875 Q201.4779,157.875 202.1185,158.0313 Q202.7748,158.1875 203.3373,158.4844 L203.3373,161.2031 Q202.7123,160.625 202.1185,160.3594 Q201.5248,160.0781 200.8998,160.0781 Q199.556,160.0781 198.8685,161.1563 Q198.181,162.2188 198.181,164.3125 Q198.181,166.4063 198.8685,167.4844 Q199.556,168.5469 200.8998,168.5469 Q201.5248,168.5469 202.1185,168.2813 Q202.7123,168 203.3373,167.4219 L203.3373,170.1406 Z " fill="#000000"/><text fill="#000000" font-family="sans-serif" font-size="14" lengthAdjust="spacing" textLength="27.0759" x="220.8685" y="169.932">Link</text><line style="stroke:#181818;stroke-width:0.5;" x1="73.5" x2="362.8129" y1="180.5" y2="180.5"/><ellipse cx="83.5" cy="195.534" fill="none" rx="3" ry="3" style="stroke:#038048;stroke-width:1.0;"/><text fill="#000000" font-family="sans-serif" font-size="14" lengthAdjust="spacing" text-decoration="underline" textLength="159.0813" x="92.5" y="199.4659">TARGET_BORDER_NONE</text><text fill="#000000" font-family="sans-serif" font-size="14" lengthAdjust="spacing" text-decoration="underline" textLength="84.4197" x="251.5813" y="199.4659">: BorderStyle</text><ellipse cx="83.5" cy="214.6019" fill="none" rx="3" ry="3" style="stroke:#038048;stroke-width:1.0;"/><text fill="#000000" font-family="sans-serif" font-size="14" lengthAdjust="spacing" text-decoration="underline" textLength="180.8933" x="92.5" y="218.5339">TARGET_BORDER_MINIMAL</text><text fill="#000000" font-family="sans-serif" font-size="14" lengthAdjust="spacing" text-decoration="underline" textLength="84.4197" x="273.3933" y="218.5339">: BorderStyle</text><ellipse cx="83.5" cy="233.6698" fill="none" rx="3" ry="3" style="stroke:#038048;stroke-width:1.0;"/><text fill="#000000" font-family="sans-serif" font-size="14" lengthAdjust="spacing" text-decoration="underline" textLength="178.6533" x="92.5" y="237.6018">TARGET_BORDER_DEFAULT</text><text fill="#000000" font-family="sans-serif" font-size="14" lengthAdjust="spacing" text-decoration="underline" textLength="84.4197" x="271.1533" y="237.6018">: BorderStyle</text><line style="stroke:#181818;stroke-width:0.5;" x1="73.5" x2="362.8129" y1="245.7038" y2="245.7038"/></g><!--class StreamResource.StreamSource--><g id="elem_StreamResource.StreamSource"><rect codeLine="51" fill="#F1F1F1" height="67.0679" id="StreamResource.StreamSource" rx="2.5" ry="2.5" style="stroke:#181818;stroke-width:0.5;" width="222.4413" x="458" y="167.5"/><ellipse cx="473" cy="183.5" fill="#B4A7E5" rx="11" ry="11" style="stroke:#181818;stroke-width:1.0;"/><path d="M468.9219,179.2656 L468.9219,177.1094 L476.3125,177.1094 L476.3125,179.2656 L473.8438,179.2656 L473.8438,187.3438 L476.3125,187.3438 L476.3125,189.5 L468.9219,189.5 L468.9219,187.3438 L471.3906,187.3438 L471.3906,179.2656 L468.9219,179.2656 Z " fill="#000000"/><text fill="#000000" font-family="sans-serif" font-size="14" font-style="italic" lengthAdjust="spacing" textLength="190.4413" x="487" y="188.932">StreamResource.StreamSource</text><line style="stroke:#181818;stroke-width:0.5;" x1="459" x2="679.4413" y1="199.5" y2="199.5"/><line style="stroke:#181818;stroke-width:0.5;" x1="459" x2="679.4413" y1="207.5" y2="207.5"/><ellipse cx="469" cy="222.534" fill="#84BE84" rx="3" ry="3" style="stroke:#038048;stroke-width:1.0;"/><text fill="#000000" font-family="sans-serif" font-size="14" font-style="italic" lengthAdjust="spacing" textLength="157.5414" x="478" y="226.4659">getStream(): InputStream</text></g><!--class PageLinkFactory--><a href="../api/PageLinkFactory.html" target="_top" title="../api/PageLinkFactory.html" xlink:actuate="onRequest" xlink:href="../api/PageLinkFactory.html" xlink:show="new" xlink:title="../api/PageLinkFactory.html" xlink:type="simple"><g id="elem_PageLinkFactory"><rect codeLine="57" fill="#F1F1F1" height="334.0188" id="PageLinkFactory" rx="2.5" ry="2.5" style="stroke:#181818;stroke-width:0.5;" width="411.3345" x="736.5" y="34"/><ellipse cx="886.9505" cy="50" fill="#B4A7E5" rx="11" ry="11" style="stroke:#181818;stroke-width:1.0;"/><path d="M882.8723,45.7656 L882.8723,43.6094 L890.263,43.6094 L890.263,45.7656 L887.7942,45.7656 L887.7942,53.8438 L890.263,53.8438 L890.263,56 L882.8723,56 L882.8723,53.8438 L885.3411,53.8438 L885.3411,45.7656 L882.8723,45.7656 Z " fill="#000000"/><text fill="#000000" font-family="sans-serif" font-size="14" font-style="italic" lengthAdjust="spacing" textLength="101.9336" x="907.4505" y="55.432">PageLinkFactory</text><line style="stroke:#181818;stroke-width:0.5;" x1="737.5" x2="1146.8345" y1="66" y2="66"/><line style="stroke:#181818;stroke-width:0.5;" x1="737.5" x2="1146.8345" y1="74" y2="74"/><ellipse cx="747.5" cy="89.034" fill="#84BE84" rx="3" ry="3" style="stroke:#038048;stroke-width:1.0;"/><text fill="#000000" font-family="sans-serif" font-size="14" font-style="italic" lengthAdjust="spacing" textLength="348.4447" x="756.5" y="92.9659">addCommitteePageLink(ViewRiksdagenCommittee): Link</text><ellipse cx="747.5" cy="108.1019" fill="#84BE84" rx="3" ry="3" style="stroke:#038048;stroke-width:1.0;"/><text fill="#000000" font-family="sans-serif" font-size="14" font-style="italic" lengthAdjust="spacing" textLength="313.3049" x="756.5" y="112.0339">addMinistryPageLink(ViewRiksdagenMinistry): Link</text><ellipse cx="747.5" cy="127.1698" fill="#84BE84" rx="3" ry="3" style="stroke:#038048;stroke-width:1.0;"/><text fill="#000000" font-family="sans-serif" font-size="14" font-style="italic" lengthAdjust="spacing" textLength="278.7809" x="756.5" y="131.1018">addPartyPageLink(ViewRiksdagenParty): Link</text><ellipse cx="747.5" cy="146.2377" fill="#84BE84" rx="3" ry="3" style="stroke:#038048;stroke-width:1.0;"/><text fill="#000000" font-family="sans-serif" font-size="14" font-style="italic" lengthAdjust="spacing" textLength="358.3987" x="756.5" y="150.1697">createAdminPagingLink(String, String, String, String): Link</text><ellipse cx="747.5" cy="165.3056" fill="#84BE84" rx="3" ry="3" style="stroke:#038048;stroke-width:1.0;"/><text fill="#000000" font-family="sans-serif" font-size="14" font-style="italic" lengthAdjust="spacing" textLength="169.8894" x="756.5" y="169.2376">createLoginPageLink(): Link</text><ellipse cx="747.5" cy="184.3735" fill="#84BE84" rx="3" ry="3" style="stroke:#038048;stroke-width:1.0;"/><text fill="#000000" font-family="sans-serif" font-size="14" font-style="italic" lengthAdjust="spacing" textLength="195.3833" x="756.5" y="188.3055">createMainViewPageLink(): Link</text><ellipse cx="747.5" cy="203.4415" fill="#84BE84" rx="3" ry="3" style="stroke:#038048;stroke-width:1.0;"/><text fill="#000000" font-family="sans-serif" font-size="14" font-style="italic" lengthAdjust="spacing" textLength="265.229" x="756.5" y="207.3734">createPoliticianPageLink(PersonData): Link</text><ellipse cx="747.5" cy="222.5094" fill="#84BE84" rx="3" ry="3" style="stroke:#038048;stroke-width:1.0;"/><text fill="#000000" font-family="sans-serif" font-size="14" font-style="italic" lengthAdjust="spacing" textLength="185.4713" x="756.5" y="226.4414">createRegisterPageLink(): Link</text><ellipse cx="747.5" cy="241.5773" fill="#84BE84" rx="3" ry="3" style="stroke:#038048;stroke-width:1.0;"/><text fill="#000000" font-family="sans-serif" font-size="14" font-style="italic" lengthAdjust="spacing" textLength="228.6611" x="756.5" y="245.5093">createUserHomeViewPageLink(): Link</text><ellipse cx="747.5" cy="260.6452" fill="#84BE84" rx="3" ry="3" style="stroke:#038048;stroke-width:1.0;"/><text fill="#000000" font-family="sans-serif" font-size="14" font-style="italic" lengthAdjust="spacing" textLength="342.4388" x="756.5" y="264.5772">createPoliticianPageLink(ViewRiksdagenPolitician): Link</text><ellipse cx="747.5" cy="279.7131" fill="#84BE84" rx="3" ry="3" style="stroke:#038048;stroke-width:1.0;"/><text fill="#000000" font-family="sans-serif" font-size="14" font-style="italic" lengthAdjust="spacing" textLength="208.1932" x="756.5" y="283.6451">addMinistryPageLink(String): Link</text><ellipse cx="747.5" cy="298.781" fill="#84BE84" rx="3" ry="3" style="stroke:#038048;stroke-width:1.0;"/><text fill="#000000" font-family="sans-serif" font-size="14" font-style="italic" lengthAdjust="spacing" textLength="317.6868" x="756.5" y="302.713">addMinistryGovermentBodiesPageLink(String): Link</text><ellipse cx="747.5" cy="317.849" fill="#84BE84" rx="3" ry="3" style="stroke:#038048;stroke-width:1.0;"/><text fill="#000000" font-family="sans-serif" font-size="14" font-style="italic" lengthAdjust="spacing" textLength="385.3345" x="756.5" y="321.7809">addMinistryGovermentBodiesHeadcountPageLink(String): Link</text><ellipse cx="747.5" cy="336.9169" fill="#84BE84" rx="3" ry="3" style="stroke:#038048;stroke-width:1.0;"/><text fill="#000000" font-family="sans-serif" font-size="14" font-style="italic" lengthAdjust="spacing" textLength="363.7887" x="756.5" y="340.8489">addMinistryGovermentBodiesIncomePageLink(String): Link</text><ellipse cx="747.5" cy="355.9848" fill="#84BE84" rx="3" ry="3" style="stroke:#038048;stroke-width:1.0;"/><text fill="#000000" font-family="sans-serif" font-size="14" font-style="italic" lengthAdjust="spacing" textLength="369.3466" x="756.5" y="359.9168">addMinistrGovermentBodiesSpendingPageLink(String): Link</text></g></a><polygon fill="none" points="218,253.7667,212,271.7667,224,271.7667,218,253.7667" style="stroke:#181818;stroke-width:1.0;"/><path d="M218,271.7667 C218,347.2872 218,468.2324 218,537.8778 " fill="none" style="stroke:#181818;stroke-width:1.0;"/><polygon fill="none" points="569,234.5552,563,252.5552,575,252.5552,569,234.5552" style="stroke:#181818;stroke-width:1.0;"/><path d="M569,252.5552 C569,320.9639 569,461.5879 569,537.7289 " fill="none" style="stroke:#181818;stroke-width:1.0;stroke-dasharray:7.0,7.0;"/><polygon fill="none" points="942,368.0713,936,386.0713,948,386.0713,942,368.0713" style="stroke:#181818;stroke-width:1.0;"/><path d="M942,386.0713 C942,401.2351 942,398.5988 942,413.764 " fill="none" style="stroke:#181818;stroke-width:1.0;stroke-dasharray:7.0,7.0;"/><text fill="#888888" font-family="sans-serif" font-size="10" lengthAdjust="spacing" textLength="2.6" x="598.7" y="768.69">&#160;</text><a href="https://github.com/talsma-ict/umldoclet" target="_top" title="https://github.com/talsma-ict/umldoclet" xlink:actuate="onRequest" xlink:href="https://github.com/talsma-ict/umldoclet" xlink:show="new" xlink:title="https://github.com/talsma-ict/umldoclet" xlink:type="simple"><text fill="#888888" font-family="sans-serif" font-size="10" lengthAdjust="spacing" textLength="76.7199" x="561.64" y="782.31">UMLDoclet 2.2.1</text></a><!--SRC=[hLTTSzeu57tlhr1d7qeciVX8aqqycSuGe0axa390zeKo7M4hHeCjkPPCbcdvxtjb4sgC3GRY5x2bStJkbNIkX112dr13-8k0ELE5b41goYHwxdOGuJPoAAS1KTH6p2CEbMX2NS4T6NUaY8HgAW8aNg8tImG1bRxWDkCE-eVC2P8Y32mgyOSFA1fg-CR-IcI2VRBG7vl2Sgb2fSPPGbAjKhqsQfNQPpGahlG8QZU6UCNs1rF3DLn5mEqoYt89b26tQH39gll4WfzEt7A1vZIGJ730L5OyEbHBS4KObyWdWP8wf9vBkD9QgrYFZ_z6fVgWiwcjSXjfkq3rW9FGHdtnCro7-z4FY0EANR8GeKBIeufm4ZL9q2mf34KKvCyqOm08dK6QGOk7f_2_TeajHl0hdM3c-IuE6IQ-3o4I1G7WEQEl4aDd3rvy0BgCpsJK5VsA6VLZkKHArFfFKT3erfM2T7YKgwPuvQuWTWTGQ3JQtG5FbUUEny2B4i_vRb1fe09O2XTey_TiauD4sDAPYUQ2sUksPJe205FY3Q8LrOOOgHukoWIeps_CKPuFA6MgTAYA8Lfec_lXwZLVRmzcH6VXAx5WaXTw412QyJL78R7j1imjKuhIDrJfNvZpFfj96pxmTJD8qgrR-2xZJAfWaGr_Qyr3zs0dv42ZfaoS1KbHj6vx33evaCST2s6z8FA9EiA9Y68DEpfsOVDgYKNwzeJB58EjzOUv1wOWU9CeSXXkColhzXqaVUf0rcbGHEYpfC6ZyEZ-mB8cUqTo4zqV11YYNlptmcPKdeP-fCIsHCZLQJHj3gv63-D8KGny6jMXFIIhNRlSDk0v8O07pqtiotXZHuQvkLb_IUqTrXAT6yQmtdze3N_SV-itM_qVJz-UMePXediHG44Qg8LB2oAxxQTsjzuv3jniVQq_TuPvuEMUg67TGJOJGJ8EI_Q5M7HbmtqQbtQSzD5qKiW4vWLyRbd8FdCK7Ly8YSyo8qXPC9WoncNeN4urPFjoCgeJBJf5TRnRfuYECUuanNjv-3RdVZlVnXHozctOmIQ_JL78ghTXXLsxaEW3Aio-zLHifawg3SM83YaJnHWBLunikcEBHyApDcg6QKP5ukwtORp3QTuqTv-pq-F7xcsQkwpwxZV6xo8j_o2zbdMIXPjcsg_VJNh6MJoUopkfg-MNzKI_2A4sog5-7XS-3JIy8LounFrraztwh2-YC2g5kwyrunGE49NK2heh9yPRZVMTZqPJfNnfbiiEKzDmegCeg-WIR31BbKFFjUFRR-eUF1wlxhKFwmkslgGQrPfHknbMhyohQ_FpDRwvgjvMghUNb-ULgbcfZ5fX87nQ7YXXpQR2zSR_0m00]--></g></svg>