<?xml version="1.0" encoding="UTF-8" standalone="no"?><svg xmlns="http://www.w3.org/2000/svg" xmlns:xlink="http://www.w3.org/1999/xlink" contentStyleType="text/css" height="834px" preserveAspectRatio="none" style="width:1385px;height:834px;background:#FFFFFF;" version="1.1" viewBox="0 0 1385 834" width="1385px" zoomAndPan="magnify"><defs/><g><!--MD5=[a220d91611999bcd26057b458b1da1cc]
cluster com.hack23.cia.web.impl.ui.application.views.common.pagelinks.impl--><g id="cluster_com.hack23.cia.web.impl.ui.application.views.common.pagelinks.impl"><path d="M118,418.602 L606,418.602 A3.75,3.75 0 0 1 608.5,421.102 L615.5,443.6699 L1376,443.6699 A2.5,2.5 0 0 1 1378.5,446.1699 L1378.5,804.102 A2.5,2.5 0 0 1 1376,806.602 L118,806.602 A2.5,2.5 0 0 1 115.5,804.102 L115.5,421.102 A2.5,2.5 0 0 1 118,418.602 " fill="none" style="stroke:#000000;stroke-width:1.5;"/><line style="stroke:#000000;stroke-width:1.5;" x1="115.5" x2="615.5" y1="443.6699" y2="443.6699"/><text fill="#000000" font-family="sans-serif" font-size="14" font-weight="bold" lengthAdjust="spacing" textLength="487" x="119.5" y="435.5679">com.hack23.cia.web.impl.ui.application.views.common.pagelinks.impl</text></g><!--MD5=[99b8bc54f75e0f490d62721683ad7b11]
cluster com.vaadin.ui--><g id="cluster_com.vaadin.ui"><path d="M170,121.102 L268,121.102 A3.75,3.75 0 0 1 270.5,123.602 L277.5,146.1699 L493,146.1699 A2.5,2.5 0 0 1 495.5,148.6699 L495.5,277.602 A2.5,2.5 0 0 1 493,280.102 L170,280.102 A2.5,2.5 0 0 1 167.5,277.602 L167.5,123.602 A2.5,2.5 0 0 1 170,121.102 " fill="none" style="stroke:#000000;stroke-width:1.5;"/><line style="stroke:#000000;stroke-width:1.5;" x1="167.5" x2="277.5" y1="146.1699" y2="146.1699"/><text fill="#000000" font-family="sans-serif" font-size="14" font-weight="bold" lengthAdjust="spacing" textLength="97" x="171.5" y="138.0679">com.vaadin.ui</text></g><!--MD5=[26bdb43b0a9cf407e00f3be9323df720]
cluster com.vaadin.server.StreamResource--><g id="cluster_com.vaadin.server.StreamResource"><path d="M575,140.102 L820,140.102 A3.75,3.75 0 0 1 822.5,142.602 L829.5,165.1699 L830,165.1699 A2.5,2.5 0 0 1 832.5,167.6699 L832.5,258.602 A2.5,2.5 0 0 1 830,261.102 L575,261.102 A2.5,2.5 0 0 1 572.5,258.602 L572.5,142.602 A2.5,2.5 0 0 1 575,140.102 " fill="none" style="stroke:#000000;stroke-width:1.5;"/><line style="stroke:#000000;stroke-width:1.5;" x1="572.5" x2="829.5" y1="165.1699" y2="165.1699"/><text fill="#000000" font-family="sans-serif" font-size="14" font-weight="bold" lengthAdjust="spacing" textLength="244" x="576.5" y="157.0679">com.vaadin.server.StreamResource</text></g><!--MD5=[cbb0111ccb0741895fa998c1a69c3373]
cluster com.hack23.cia.web.impl.ui.application.views.common.pagelinks.api--><g id="cluster_com.hack23.cia.web.impl.ui.application.views.common.pagelinks.api"><path d="M877,6.602 L1355,6.602 A3.75,3.75 0 0 1 1357.5,9.102 L1364.5,31.6699 L1365,31.6699 A2.5,2.5 0 0 1 1367.5,34.1699 L1367.5,392.102 A2.5,2.5 0 0 1 1365,394.602 L877,394.602 A2.5,2.5 0 0 1 874.5,392.102 L874.5,9.102 A2.5,2.5 0 0 1 877,6.602 " fill="none" style="stroke:#000000;stroke-width:1.5;"/><line style="stroke:#000000;stroke-width:1.5;" x1="874.5" x2="1364.5" y1="31.6699" y2="31.6699"/><text fill="#000000" font-family="sans-serif" font-size="14" font-weight="bold" lengthAdjust="spacing" textLength="477" x="878.5" y="23.5679">com.hack23.cia.web.impl.ui.application.views.common.pagelinks.api</text></g><!--MD5=[c17c5d1a17cf824b64b4c08c74178971]
class com.hack23.cia.web.impl.ui.application.views.common.pagelinks.impl.ExternalAttachmentDownloadLink--><a href="ExternalAttachmentDownloadLink.html" target="_top" title="ExternalAttachmentDownloadLink.html" xlink:actuate="onRequest" xlink:href="ExternalAttachmentDownloadLink.html" xlink:show="new" xlink:title="ExternalAttachmentDownloadLink.html" xlink:type="simple"><g id="elem_com.hack23.cia.web.impl.ui.application.views.common.pagelinks.impl.ExternalAttachmentDownloadLink"><rect codeLine="3" fill="#F1F1F1" height="86.1358" id="com.hack23.cia.web.impl.ui.application.views.common.pagelinks.impl.ExternalAttachmentDownloadLink" rx="2.5" ry="2.5" style="stroke:#181818;stroke-width:0.5;" width="400" x="131.5" y="580.602"/><ellipse cx="213.75" cy="596.602" fill="#ADD1B2" rx="11" ry="11" style="stroke:#181818;stroke-width:1.0;"/><path d="M216.7188,602.2426 Q216.1406,602.5395 215.5,602.6801 Q214.8594,602.8364 214.1563,602.8364 Q211.6563,602.8364 210.3281,601.1957 Q209.0156,599.5395 209.0156,596.4145 Q209.0156,593.2895 210.3281,591.6332 Q211.6563,589.977 214.1563,589.977 Q214.8594,589.977 215.5,590.1332 Q216.1563,590.2895 216.7188,590.5864 L216.7188,593.3051 Q216.0938,592.727 215.5,592.4614 Q214.9063,592.1801 214.2813,592.1801 Q212.9375,592.1801 212.25,593.2582 Q211.5625,594.3207 211.5625,596.4145 Q211.5625,598.5082 212.25,599.5864 Q212.9375,600.6489 214.2813,600.6489 Q214.9063,600.6489 215.5,600.3832 Q216.0938,600.102 216.7188,599.5239 L216.7188,602.2426 Z " fill="#000000"/><text fill="#000000" font-family="sans-serif" font-size="14" lengthAdjust="spacing" textLength="227" x="234.25" y="602.034">ExternalAttachmentDownloadLink</text><line style="stroke:#181818;stroke-width:0.5;" x1="132.5" x2="530.5" y1="612.602" y2="612.602"/><line style="stroke:#181818;stroke-width:0.5;" x1="132.5" x2="530.5" y1="620.602" y2="620.602"/><ellipse cx="142.5" cy="635.6359" fill="#84BE84" rx="3" ry="3" style="stroke:#038048;stroke-width:1.0;"/><text fill="#000000" font-family="sans-serif" font-size="14" lengthAdjust="spacing" textLength="374" x="151.5" y="639.5679">ExternalAttachmentDownloadLink(String, String, String)</text><ellipse cx="142.5" cy="654.7039" fill="#84BE84" rx="3" ry="3" style="stroke:#038048;stroke-width:1.0;"/><text fill="#000000" font-family="sans-serif" font-size="14" lengthAdjust="spacing" textLength="86" x="151.5" y="658.6358">attach(): void</text></g></a><!--MD5=[1fe20ab847420d7017c2eacb9727edeb]
class com.hack23.cia.web.impl.ui.application.views.common.pagelinks.impl.StreamSourceImplementation--><a href="StreamSourceImplementation.html" target="_top" title="StreamSourceImplementation.html" xlink:actuate="onRequest" xlink:href="StreamSourceImplementation.html" xlink:show="new" xlink:title="StreamSourceImplementation.html" xlink:type="simple"><g id="elem_com.hack23.cia.web.impl.ui.application.views.common.pagelinks.impl.StreamSourceImplementation"><rect codeLine="8" fill="#F1F1F1" height="86.1358" id="com.hack23.cia.web.impl.ui.application.views.common.pagelinks.impl.StreamSourceImplementation" rx="2.5" ry="2.5" style="stroke:#181818;stroke-width:0.5;" width="277" x="567" y="580.602"/><ellipse cx="601.35" cy="596.602" fill="#ADD1B2" rx="11" ry="11" style="stroke:#181818;stroke-width:1.0;"/><path d="M604.3188,602.2426 Q603.7406,602.5395 603.1,602.6801 Q602.4594,602.8364 601.7563,602.8364 Q599.2563,602.8364 597.9281,601.1957 Q596.6156,599.5395 596.6156,596.4145 Q596.6156,593.2895 597.9281,591.6332 Q599.2563,589.977 601.7563,589.977 Q602.4594,589.977 603.1,590.1332 Q603.7563,590.2895 604.3188,590.5864 L604.3188,593.3051 Q603.6938,592.727 603.1,592.4614 Q602.5063,592.1801 601.8813,592.1801 Q600.5375,592.1801 599.85,593.2582 Q599.1625,594.3207 599.1625,596.4145 Q599.1625,598.5082 599.85,599.5864 Q600.5375,600.6489 601.8813,600.6489 Q602.5063,600.6489 603.1,600.3832 Q603.6938,600.102 604.3188,599.5239 L604.3188,602.2426 Z " fill="#000000"/><text fill="#000000" font-family="sans-serif" font-size="14" lengthAdjust="spacing" textLength="202" x="619.65" y="602.034">StreamSourceImplementation</text><line style="stroke:#181818;stroke-width:0.5;" x1="568" x2="843" y1="612.602" y2="612.602"/><line style="stroke:#181818;stroke-width:0.5;" x1="568" x2="843" y1="620.602" y2="620.602"/><ellipse cx="578" cy="635.6359" fill="#84BE84" rx="3" ry="3" style="stroke:#038048;stroke-width:1.0;"/><text fill="#000000" font-family="sans-serif" font-size="14" lengthAdjust="spacing" textLength="251" x="587" y="639.5679">StreamSourceImplementation(String)</text><ellipse cx="578" cy="654.7039" fill="#84BE84" rx="3" ry="3" style="stroke:#038048;stroke-width:1.0;"/><text fill="#000000" font-family="sans-serif" font-size="14" lengthAdjust="spacing" textLength="171" x="587" y="658.6358">getStream(): InputStream</text></g></a><!--MD5=[c28845fd61d180fe1fda3957e9362522]
class com.hack23.cia.web.impl.ui.application.views.common.pagelinks.impl.PageLinkFactoryImpl--><a href="PageLinkFactoryImpl.html" target="_top" title="PageLinkFactoryImpl.html" xlink:actuate="onRequest" xlink:href="PageLinkFactoryImpl.html" xlink:show="new" xlink:title="PageLinkFactoryImpl.html" xlink:type="simple"><g id="elem_com.hack23.cia.web.impl.ui.application.views.common.pagelinks.impl.PageLinkFactoryImpl"><rect codeLine="13" fill="#F1F1F1" height="334.0188" id="com.hack23.cia.web.impl.ui.application.views.common.pagelinks.impl.PageLinkFactoryImpl" rx="2.5" ry="2.5" style="stroke:#181818;stroke-width:0.5;" width="483" x="879" y="456.602"/><ellipse cx="1046.75" cy="472.602" fill="#ADD1B2" rx="11" ry="11" style="stroke:#181818;stroke-width:1.0;"/><path d="M1049.7188,478.2426 Q1049.1406,478.5395 1048.5,478.6801 Q1047.8594,478.8364 1047.1563,478.8364 Q1044.6563,478.8364 1043.3281,477.1957 Q1042.0156,475.5395 1042.0156,472.4145 Q1042.0156,469.2895 1043.3281,467.6332 Q1044.6563,465.977 1047.1563,465.977 Q1047.8594,465.977 1048.5,466.1332 Q1049.1563,466.2895 1049.7188,466.5864 L1049.7188,469.3051 Q1049.0938,468.727 1048.5,468.4614 Q1047.9063,468.1801 1047.2813,468.1801 Q1045.9375,468.1801 1045.25,469.2582 Q1044.5625,470.3207 1044.5625,472.4145 Q1044.5625,474.5082 1045.25,475.5864 Q1045.9375,476.6489 1047.2813,476.6489 Q1047.9063,476.6489 1048.5,476.3832 Q1049.0938,476.102 1049.7188,475.5239 L1049.7188,478.2426 Z " fill="#000000"/><text fill="#000000" font-family="sans-serif" font-size="14" lengthAdjust="spacing" textLength="139" x="1067.25" y="478.034">PageLinkFactoryImpl</text><line style="stroke:#181818;stroke-width:0.5;" x1="880" x2="1361" y1="488.602" y2="488.602"/><line style="stroke:#181818;stroke-width:0.5;" x1="880" x2="1361" y1="496.602" y2="496.602"/><ellipse cx="890" cy="511.6359" fill="#84BE84" rx="3" ry="3" style="stroke:#038048;stroke-width:1.0;"/><text fill="#000000" font-family="sans-serif" font-size="14" lengthAdjust="spacing" textLength="376" x="899" y="515.5679">addCommitteePageLink(ViewRiksdagenCommittee): Link</text><ellipse cx="890" cy="530.7039" fill="#84BE84" rx="3" ry="3" style="stroke:#038048;stroke-width:1.0;"/><text fill="#000000" font-family="sans-serif" font-size="14" lengthAdjust="spacing" textLength="340" x="899" y="534.6358">addMinistryPageLink(ViewRiksdagenMinistry): Link</text><ellipse cx="890" cy="549.7718" fill="#84BE84" rx="3" ry="3" style="stroke:#038048;stroke-width:1.0;"/><text fill="#000000" font-family="sans-serif" font-size="14" lengthAdjust="spacing" textLength="298" x="899" y="553.7038">addPartyPageLink(ViewRiksdagenParty): Link</text><ellipse cx="890" cy="568.8397" fill="#84BE84" rx="3" ry="3" style="stroke:#038048;stroke-width:1.0;"/><text fill="#000000" font-family="sans-serif" font-size="14" lengthAdjust="spacing" textLength="391" x="899" y="572.7717">createAdminPagingLink(String, String, String, String): Link</text><ellipse cx="890" cy="587.9076" fill="#84BE84" rx="3" ry="3" style="stroke:#038048;stroke-width:1.0;"/><text fill="#000000" font-family="sans-serif" font-size="14" lengthAdjust="spacing" textLength="182" x="899" y="591.8396">createLoginPageLink(): Link</text><ellipse cx="890" cy="606.9755" fill="#84BE84" rx="3" ry="3" style="stroke:#038048;stroke-width:1.0;"/><text fill="#000000" font-family="sans-serif" font-size="14" lengthAdjust="spacing" textLength="210" x="899" y="610.9075">createMainViewPageLink(): Link</text><ellipse cx="890" cy="626.0434" fill="#84BE84" rx="3" ry="3" style="stroke:#038048;stroke-width:1.0;"/><text fill="#000000" font-family="sans-serif" font-size="14" lengthAdjust="spacing" textLength="283" x="899" y="629.9754">createPoliticianPageLink(PersonData): Link</text><ellipse cx="890" cy="645.1114" fill="#84BE84" rx="3" ry="3" style="stroke:#038048;stroke-width:1.0;"/><text fill="#000000" font-family="sans-serif" font-size="14" lengthAdjust="spacing" textLength="368" x="899" y="649.0433">createPoliticianPageLink(ViewRiksdagenPolitician): Link</text><ellipse cx="890" cy="664.1793" fill="#84BE84" rx="3" ry="3" style="stroke:#038048;stroke-width:1.0;"/><text fill="#000000" font-family="sans-serif" font-size="14" lengthAdjust="spacing" textLength="201" x="899" y="668.1113">createRegisterPageLink(): Link</text><ellipse cx="890" cy="683.2472" fill="#84BE84" rx="3" ry="3" style="stroke:#038048;stroke-width:1.0;"/><text fill="#000000" font-family="sans-serif" font-size="14" lengthAdjust="spacing" textLength="246" x="899" y="687.1792">createUserHomeViewPageLink(): Link</text><ellipse cx="890" cy="702.3151" fill="#84BE84" rx="3" ry="3" style="stroke:#038048;stroke-width:1.0;"/><text fill="#000000" font-family="sans-serif" font-size="14" lengthAdjust="spacing" textLength="225" x="899" y="706.2471">addMinistryPageLink(String): Link</text><ellipse cx="890" cy="721.383" fill="#84BE84" rx="3" ry="3" style="stroke:#038048;stroke-width:1.0;"/><text fill="#000000" font-family="sans-serif" font-size="14" lengthAdjust="spacing" textLength="370" x="899" y="725.315">addMinistryGovermentBodiesPageLink(String, int): Link</text><ellipse cx="890" cy="740.4509" fill="#84BE84" rx="3" ry="3" style="stroke:#038048;stroke-width:1.0;"/><text fill="#000000" font-family="sans-serif" font-size="14" lengthAdjust="spacing" textLength="443" x="899" y="744.3829">addMinistryGovermentBodiesHeadcountPageLink(String, int): Link</text><ellipse cx="890" cy="759.5189" fill="#84BE84" rx="3" ry="3" style="stroke:#038048;stroke-width:1.0;"/><text fill="#000000" font-family="sans-serif" font-size="14" lengthAdjust="spacing" textLength="449" x="899" y="763.4508">addMinistryGovermentBodiesIncomePageLink(String, double): Link</text><ellipse cx="890" cy="778.5868" fill="#84BE84" rx="3" ry="3" style="stroke:#038048;stroke-width:1.0;"/><text fill="#000000" font-family="sans-serif" font-size="14" lengthAdjust="spacing" textLength="457" x="899" y="782.5188">addMinistrGovermentBodiesSpendingPageLink(String, double): Link</text></g></a><!--MD5=[648101d2aa1db97ee0036bcc2f83627f]
class com.vaadin.ui.Link--><g id="elem_com.vaadin.ui.Link"><rect codeLine="37" fill="#F1F1F1" height="105.2038" id="com.vaadin.ui.Link" rx="2.5" ry="2.5" style="stroke:#181818;stroke-width:0.5;" width="295" x="184" y="159.102"/><ellipse cx="313.75" cy="175.102" fill="#ADD1B2" rx="11" ry="11" style="stroke:#181818;stroke-width:1.0;"/><path d="M316.7188,180.7426 Q316.1406,181.0395 315.5,181.1801 Q314.8594,181.3364 314.1563,181.3364 Q311.6563,181.3364 310.3281,179.6957 Q309.0156,178.0395 309.0156,174.9145 Q309.0156,171.7895 310.3281,170.1332 Q311.6563,168.477 314.1563,168.477 Q314.8594,168.477 315.5,168.6332 Q316.1563,168.7895 316.7188,169.0864 L316.7188,171.8051 Q316.0938,171.227 315.5,170.9614 Q314.9063,170.6801 314.2813,170.6801 Q312.9375,170.6801 312.25,171.7582 Q311.5625,172.8207 311.5625,174.9145 Q311.5625,177.0082 312.25,178.0864 Q312.9375,179.1489 314.2813,179.1489 Q314.9063,179.1489 315.5,178.8832 Q316.0938,178.602 316.7188,178.0239 L316.7188,180.7426 Z " fill="#000000"/><text fill="#000000" font-family="sans-serif" font-size="14" lengthAdjust="spacing" textLength="27" x="334.25" y="180.534">Link</text><line style="stroke:#181818;stroke-width:0.5;" x1="185" x2="478" y1="191.102" y2="191.102"/><ellipse cx="195" cy="206.1359" fill="none" rx="3" ry="3" style="stroke:#038048;stroke-width:1.0;"/><text fill="#000000" font-family="sans-serif" font-size="14" lengthAdjust="spacing" text-decoration="underline" textLength="161" x="204" y="210.0679">TARGET_BORDER_NONE</text><text fill="#000000" font-family="sans-serif" font-size="14" lengthAdjust="spacing" text-decoration="underline" textLength="86" x="365" y="210.0679">: BorderStyle</text><ellipse cx="195" cy="225.2039" fill="none" rx="3" ry="3" style="stroke:#038048;stroke-width:1.0;"/><text fill="#000000" font-family="sans-serif" font-size="14" lengthAdjust="spacing" text-decoration="underline" textLength="183" x="204" y="229.1358">TARGET_BORDER_MINIMAL</text><text fill="#000000" font-family="sans-serif" font-size="14" lengthAdjust="spacing" text-decoration="underline" textLength="86" x="387" y="229.1358">: BorderStyle</text><ellipse cx="195" cy="244.2718" fill="none" rx="3" ry="3" style="stroke:#038048;stroke-width:1.0;"/><text fill="#000000" font-family="sans-serif" font-size="14" lengthAdjust="spacing" text-decoration="underline" textLength="179" x="204" y="248.2038">TARGET_BORDER_DEFAULT</text><text fill="#000000" font-family="sans-serif" font-size="14" lengthAdjust="spacing" text-decoration="underline" textLength="86" x="383" y="248.2038">: BorderStyle</text><line style="stroke:#181818;stroke-width:0.5;" x1="185" x2="478" y1="256.3057" y2="256.3057"/></g><!--MD5=[9c9d682053acda7b719666faffd3a7fa]
class com.vaadin.server.StreamResource.StreamSource--><g id="elem_com.vaadin.server.StreamResource.StreamSource"><rect codeLine="45" fill="#F1F1F1" height="67.0679" id="com.vaadin.server.StreamResource.StreamSource" rx="2.5" ry="2.5" style="stroke:#181818;stroke-width:0.5;" width="186" x="612.5" y="178.102"/><ellipse cx="657.75" cy="194.102" fill="#B4A7E5" rx="11" ry="11" style="stroke:#181818;stroke-width:1.0;"/><path d="M653.6719,189.8676 L653.6719,187.7114 L661.0625,187.7114 L661.0625,189.8676 L658.5938,189.8676 L658.5938,197.9457 L661.0625,197.9457 L661.0625,200.102 L653.6719,200.102 L653.6719,197.9457 L656.1406,197.9457 L656.1406,189.8676 L653.6719,189.8676 Z " fill="#000000"/><text fill="#000000" font-family="sans-serif" font-size="14" font-style="italic" lengthAdjust="spacing" textLength="87" x="678.25" y="199.534">StreamSource</text><line style="stroke:#181818;stroke-width:0.5;" x1="613.5" x2="797.5" y1="210.102" y2="210.102"/><line style="stroke:#181818;stroke-width:0.5;" x1="613.5" x2="797.5" y1="218.102" y2="218.102"/><ellipse cx="623.5" cy="233.1359" fill="#84BE84" rx="3" ry="3" style="stroke:#038048;stroke-width:1.0;"/><text fill="#000000" font-family="sans-serif" font-size="14" font-style="italic" lengthAdjust="spacing" textLength="160" x="632.5" y="237.0679">getStream(): InputStream</text></g><!--MD5=[914a8c46903c27a07689f22c386cc52d]
class com.hack23.cia.web.impl.ui.application.views.common.pagelinks.api.PageLinkFactory--><a href="../api/PageLinkFactory.html" target="_top" title="../api/PageLinkFactory.html" xlink:actuate="onRequest" xlink:href="../api/PageLinkFactory.html" xlink:show="new" xlink:title="../api/PageLinkFactory.html" xlink:type="simple"><g id="elem_com.hack23.cia.web.impl.ui.application.views.common.pagelinks.api.PageLinkFactory"><rect codeLine="51" fill="#F1F1F1" height="334.0188" id="com.hack23.cia.web.impl.ui.application.views.common.pagelinks.api.PageLinkFactory" rx="2.5" ry="2.5" style="stroke:#181818;stroke-width:0.5;" width="451" x="895" y="44.602"/><ellipse cx="1064.25" cy="60.602" fill="#B4A7E5" rx="11" ry="11" style="stroke:#181818;stroke-width:1.0;"/><path d="M1060.1719,56.3676 L1060.1719,54.2114 L1067.5625,54.2114 L1067.5625,56.3676 L1065.0938,56.3676 L1065.0938,64.4457 L1067.5625,64.4457 L1067.5625,66.602 L1060.1719,66.602 L1060.1719,64.4457 L1062.6406,64.4457 L1062.6406,56.3676 L1060.1719,56.3676 Z " fill="#000000"/><text fill="#000000" font-family="sans-serif" font-size="14" font-style="italic" lengthAdjust="spacing" textLength="104" x="1084.75" y="66.034">PageLinkFactory</text><line style="stroke:#181818;stroke-width:0.5;" x1="896" x2="1345" y1="76.602" y2="76.602"/><line style="stroke:#181818;stroke-width:0.5;" x1="896" x2="1345" y1="84.602" y2="84.602"/><ellipse cx="906" cy="99.6359" fill="#84BE84" rx="3" ry="3" style="stroke:#038048;stroke-width:1.0;"/><text fill="#000000" font-family="sans-serif" font-size="14" font-style="italic" lengthAdjust="spacing" textLength="352" x="915" y="103.5679">addCommitteePageLink(ViewRiksdagenCommittee): Link</text><ellipse cx="906" cy="118.7039" fill="#84BE84" rx="3" ry="3" style="stroke:#038048;stroke-width:1.0;"/><text fill="#000000" font-family="sans-serif" font-size="14" font-style="italic" lengthAdjust="spacing" textLength="320" x="915" y="122.6358">addMinistryPageLink(ViewRiksdagenMinistry): Link</text><ellipse cx="906" cy="137.7718" fill="#84BE84" rx="3" ry="3" style="stroke:#038048;stroke-width:1.0;"/><text fill="#000000" font-family="sans-serif" font-size="14" font-style="italic" lengthAdjust="spacing" textLength="284" x="915" y="141.7038">addPartyPageLink(ViewRiksdagenParty): Link</text><ellipse cx="906" cy="156.8397" fill="#84BE84" rx="3" ry="3" style="stroke:#038048;stroke-width:1.0;"/><text fill="#000000" font-family="sans-serif" font-size="14" font-style="italic" lengthAdjust="spacing" textLength="367" x="915" y="160.7717">createAdminPagingLink(String, String, String, String): Link</text><ellipse cx="906" cy="175.9076" fill="#84BE84" rx="3" ry="3" style="stroke:#038048;stroke-width:1.0;"/><text fill="#000000" font-family="sans-serif" font-size="14" font-style="italic" lengthAdjust="spacing" textLength="173" x="915" y="179.8396">createLoginPageLink(): Link</text><ellipse cx="906" cy="194.9755" fill="#84BE84" rx="3" ry="3" style="stroke:#038048;stroke-width:1.0;"/><text fill="#000000" font-family="sans-serif" font-size="14" font-style="italic" lengthAdjust="spacing" textLength="199" x="915" y="198.9075">createMainViewPageLink(): Link</text><ellipse cx="906" cy="214.0434" fill="#84BE84" rx="3" ry="3" style="stroke:#038048;stroke-width:1.0;"/><text fill="#000000" font-family="sans-serif" font-size="14" font-style="italic" lengthAdjust="spacing" textLength="270" x="915" y="217.9754">createPoliticianPageLink(PersonData): Link</text><ellipse cx="906" cy="233.1114" fill="#84BE84" rx="3" ry="3" style="stroke:#038048;stroke-width:1.0;"/><text fill="#000000" font-family="sans-serif" font-size="14" font-style="italic" lengthAdjust="spacing" textLength="189" x="915" y="237.0433">createRegisterPageLink(): Link</text><ellipse cx="906" cy="252.1793" fill="#84BE84" rx="3" ry="3" style="stroke:#038048;stroke-width:1.0;"/><text fill="#000000" font-family="sans-serif" font-size="14" font-style="italic" lengthAdjust="spacing" textLength="232" x="915" y="256.1113">createUserHomeViewPageLink(): Link</text><ellipse cx="906" cy="271.2472" fill="#84BE84" rx="3" ry="3" style="stroke:#038048;stroke-width:1.0;"/><text fill="#000000" font-family="sans-serif" font-size="14" font-style="italic" lengthAdjust="spacing" textLength="349" x="915" y="275.1792">createPoliticianPageLink(ViewRiksdagenPolitician): Link</text><ellipse cx="906" cy="290.3151" fill="#84BE84" rx="3" ry="3" style="stroke:#038048;stroke-width:1.0;"/><text fill="#000000" font-family="sans-serif" font-size="14" font-style="italic" lengthAdjust="spacing" textLength="213" x="915" y="294.2471">addMinistryPageLink(String): Link</text><ellipse cx="906" cy="309.383" fill="#84BE84" rx="3" ry="3" style="stroke:#038048;stroke-width:1.0;"/><text fill="#000000" font-family="sans-serif" font-size="14" font-style="italic" lengthAdjust="spacing" textLength="348" x="915" y="313.315">addMinistryGovermentBodiesPageLink(String, int): Link</text><ellipse cx="906" cy="328.4509" fill="#84BE84" rx="3" ry="3" style="stroke:#038048;stroke-width:1.0;"/><text fill="#000000" font-family="sans-serif" font-size="14" font-style="italic" lengthAdjust="spacing" textLength="416" x="915" y="332.3829">addMinistryGovermentBodiesHeadcountPageLink(String, int): Link</text><ellipse cx="906" cy="347.5189" fill="#84BE84" rx="3" ry="3" style="stroke:#038048;stroke-width:1.0;"/><text fill="#000000" font-family="sans-serif" font-size="14" font-style="italic" lengthAdjust="spacing" textLength="420" x="915" y="351.4508">addMinistryGovermentBodiesIncomePageLink(String, double): Link</text><ellipse cx="906" cy="366.5868" fill="#84BE84" rx="3" ry="3" style="stroke:#038048;stroke-width:1.0;"/><text fill="#000000" font-family="sans-serif" font-size="14" font-style="italic" lengthAdjust="spacing" textLength="425" x="915" y="370.5188">addMinistrGovermentBodiesSpendingPageLink(String, double): Link</text></g></a><path d="M8.5,182.602 L132.5,182.602 A3.75,3.75 0 0 1 135,185.102 L142,207.6699 L146.5,207.6699 A2.5,2.5 0 0 1 149,210.1699 L149,238.2378 A2.5,2.5 0 0 1 146.5,240.7378 L8.5,240.7378 A2.5,2.5 0 0 1 6,238.2378 L6,185.102 A2.5,2.5 0 0 1 8.5,182.602 " fill="#F1F1F1" style="stroke:#181818;stroke-width:0.5;"/><line style="stroke:#181818;stroke-width:0.5;" x1="6" x2="142" y1="207.6699" y2="207.6699"/><text fill="#000000" font-family="sans-serif" font-size="14" lengthAdjust="spacing" textLength="123" x="10" y="199.5679">com.vaadin.server</text><!--MD5=[13fb8eb35ef7f3a85abee28b5d6c2f47]
reverse link com.vaadin.ui.Link to com.hack23.cia.web.impl.ui.application.views.common.pagelinks.impl.ExternalAttachmentDownloadLink--><g id="link_com.vaadin.ui.Link_com.hack23.cia.web.impl.ui.application.views.common.pagelinks.impl.ExternalAttachmentDownloadLink"><path codeLine="31" d="M331.5,284.132 C331.5,369.872 331.5,510.732 331.5,580.602 " fill="none" id="com.vaadin.ui.Link-backto-com.hack23.cia.web.impl.ui.application.views.common.pagelinks.impl.ExternalAttachmentDownloadLink" style="stroke:#181818;stroke-width:1.0;"/><polygon fill="none" points="324.5,284.112,331.5,264.112,338.5,284.112,324.5,284.112" style="stroke:#181818;stroke-width:1.0;"/></g><!--MD5=[602b8c6661711227f117fbdf44d990a7]
reverse link com.vaadin.server.StreamResource.StreamSource to com.hack23.cia.web.impl.ui.application.views.common.pagelinks.impl.StreamSourceImplementation--><g id="link_com.vaadin.server.StreamResource.StreamSource_com.hack23.cia.web.impl.ui.application.views.common.pagelinks.impl.StreamSourceImplementation"><path codeLine="32" d="M705.5,265.272 C705.5,347.602 705.5,505.152 705.5,580.472 " fill="none" id="com.vaadin.server.StreamResource.StreamSource-backto-com.hack23.cia.web.impl.ui.application.views.common.pagelinks.impl.StreamSourceImplementation" style="stroke:#181818;stroke-width:1.0;stroke-dasharray:7.0,7.0;"/><polygon fill="none" points="698.5,265.112,705.5,245.112,712.5,265.112,698.5,265.112" style="stroke:#181818;stroke-width:1.0;"/></g><!--MD5=[599b92afe270e0c554b8b846853b6acb]
reverse link com.hack23.cia.web.impl.ui.application.views.common.pagelinks.api.PageLinkFactory to com.hack23.cia.web.impl.ui.application.views.common.pagelinks.impl.PageLinkFactoryImpl--><g id="link_com.hack23.cia.web.impl.ui.application.views.common.pagelinks.api.PageLinkFactory_com.hack23.cia.web.impl.ui.application.views.common.pagelinks.impl.PageLinkFactoryImpl"><path codeLine="33" d="M1120.5,399.042 C1120.5,418.212 1120.5,437.602 1120.5,456.522 " fill="none" id="com.hack23.cia.web.impl.ui.application.views.common.pagelinks.api.PageLinkFactory-backto-com.hack23.cia.web.impl.ui.application.views.common.pagelinks.impl.PageLinkFactoryImpl" style="stroke:#181818;stroke-width:1.0;stroke-dasharray:7.0,7.0;"/><polygon fill="none" points="1113.5,398.772,1120.5,378.772,1127.5,398.772,1113.5,398.772" style="stroke:#181818;stroke-width:1.0;"/></g><rect fill="none" height="13.62" style="stroke:none;stroke-width:1.0;" width="188" x="591.75" y="812.602"/><text fill="#888888" font-family="sans-serif" font-size="10" lengthAdjust="spacing" textLength="188" x="591.75" y="823.292">UMLDoclet 2.0.20, PlantUML 1.2022.12</text><!--MD5=[392a84b87f3c21104a39a76775e13521]
@startuml
    namespace com.hack23.cia.web.impl.ui.application.views.common.pagelinks.impl {

        class ExternalAttachmentDownloadLink [[ExternalAttachmentDownloadLink.html]] {
            +ExternalAttachmentDownloadLink(String, String, String)
            +attach(): void
        }

        class StreamSourceImplementation [[StreamSourceImplementation.html]] {
            +StreamSourceImplementation(String)
            +getStream(): InputStream
        }

        class PageLinkFactoryImpl [[PageLinkFactoryImpl.html]] {
            +addCommitteePageLink(ViewRiksdagenCommittee): Link
            +addMinistryPageLink(ViewRiksdagenMinistry): Link
            +addPartyPageLink(ViewRiksdagenParty): Link
            +createAdminPagingLink(String, String, String, String): Link
            +createLoginPageLink(): Link
            +createMainViewPageLink(): Link
            +createPoliticianPageLink(PersonData): Link
            +createPoliticianPageLink(ViewRiksdagenPolitician): Link
            +createRegisterPageLink(): Link
            +createUserHomeViewPageLink(): Link
            +addMinistryPageLink(String): Link
            +addMinistryGovermentBodiesPageLink(String, int): Link
            +addMinistryGovermentBodiesHeadcountPageLink(String, int): Link
            +addMinistryGovermentBodiesIncomePageLink(String, double): Link
            +addMinistrGovermentBodiesSpendingPageLink(String, double): Link
        }

        com.vaadin.ui.Link <|- - ExternalAttachmentDownloadLink
        com.vaadin.server.StreamResource.StreamSource <|.. StreamSourceImplementation
        com.hack23.cia.web.impl.ui.application.views.common.pagelinks.api.PageLinkFactory <|.. PageLinkFactoryImpl
    }

    namespace com.vaadin.ui {
        class Link {
            {static} +- -TARGET_BORDER_NONE- -: BorderStyle
            {static} +- -TARGET_BORDER_MINIMAL- -: BorderStyle
            {static} +- -TARGET_BORDER_DEFAULT- -: BorderStyle
        }
    }

    namespace com.vaadin.server {
        interface com.vaadin.server.StreamResource.StreamSource {
            {abstract} +getStream(): InputStream
        }
    }

    namespace com.hack23.cia.web.impl.ui.application.views.common.pagelinks.api {
        interface PageLinkFactory [[../api/PageLinkFactory.html]] {
            {abstract} +addCommitteePageLink(ViewRiksdagenCommittee): Link
            {abstract} +addMinistryPageLink(ViewRiksdagenMinistry): Link
            {abstract} +addPartyPageLink(ViewRiksdagenParty): Link
            {abstract} +createAdminPagingLink(String, String, String, String): Link
            {abstract} +createLoginPageLink(): Link
            {abstract} +createMainViewPageLink(): Link
            {abstract} +createPoliticianPageLink(PersonData): Link
            {abstract} +createRegisterPageLink(): Link
            {abstract} +createUserHomeViewPageLink(): Link
            {abstract} +createPoliticianPageLink(ViewRiksdagenPolitician): Link
            {abstract} +addMinistryPageLink(String): Link
            {abstract} +addMinistryGovermentBodiesPageLink(String, int): Link
            {abstract} +addMinistryGovermentBodiesHeadcountPageLink(String, int): Link
            {abstract} +addMinistryGovermentBodiesIncomePageLink(String, double): Link
            {abstract} +addMinistrGovermentBodiesSpendingPageLink(String, double): Link
        }
    }

    center footer UMLDoclet 2.0.20, PlantUML 1.2022.12
@enduml

PlantUML version 1.2022.12(Sun Oct 23 20:12:26 CEST 2022)
(APACHE source distribution)
Java Runtime: OpenJDK Runtime Environment
JVM: OpenJDK 64-Bit Server VM
Default Encoding: UTF-8
Language: 
Country: 
--></g></svg>