<svg xmlns="http://www.w3.org/2000/svg" xmlns:xlink="http://www.w3.org/1999/xlink" contentStyleType="text/css" height="408px" preserveAspectRatio="none" style="width:609px;height:408px;background:#FFFFFF;" version="1.1" viewBox="0 0 609 408" width="609px" zoomAndPan="magnify"><defs/><g><!--class com.hack23.cia.model.internal.application.data.impl.ApplicationActionEventPageModePeriodSummaryEmbeddedId--><a href="ApplicationActionEventPageModePeriodSummaryEmbeddedId.html" target="_top" title="ApplicationActionEventPageModePeriodSummaryEmbeddedId.html" xlink:actuate="onRequest" xlink:href="ApplicationActionEventPageModePeriodSummaryEmbeddedId.html" xlink:show="new" xlink:title="ApplicationActionEventPageModePeriodSummaryEmbeddedId.html" xlink:type="simple"><g id="elem_com.hack23.cia.model.internal.application.data.impl.ApplicationActionEventPageModePeriodSummaryEmbeddedId"><rect codeLine="13" fill="#F1F1F1" height="287.5029" id="com.hack23.cia.model.internal.application.data.impl.ApplicationActionEventPageModePeriodSummaryEmbeddedId" rx="2.5" ry="2.5" style="stroke:#181818;stroke-width:0.5;" width="596.9041" x="6" y="91"/><ellipse cx="93.8008" cy="112.344" fill="#ADD1B2" rx="11" ry="11" style="stroke:#181818;stroke-width:1.0;"/><path d="M96.7695,117.9846 Q96.1914,118.2815 95.5508,118.4221 Q94.9102,118.5783 94.207,118.5783 Q91.707,118.5783 90.3789,116.9377 Q89.0664,115.2815 89.0664,112.1565 Q89.0664,109.0315 90.3789,107.3752 Q91.707,105.719 94.207,105.719 Q94.9102,105.719 95.5508,105.8752 Q96.207,106.0315 96.7695,106.3283 L96.7695,109.0471 Q96.1445,108.469 95.5508,108.2033 Q94.957,107.9221 94.332,107.9221 Q92.9883,107.9221 92.3008,109.0002 Q91.6133,110.0627 91.6133,112.1565 Q91.6133,114.2502 92.3008,115.3283 Q92.9883,116.3908 94.332,116.3908 Q94.957,116.3908 95.5508,116.1252 Q96.1445,115.844 96.7695,115.2658 L96.7695,117.9846 Z " fill="#000000"/><text fill="#000000" font-family="sans-serif" font-size="14" lengthAdjust="spacing" textLength="412.8025" x="114.3008" y="110.9659">ApplicationActionEventPageModePeriodSummaryEmbeddedId</text><text fill="#000000" font-family="sans-serif" font-size="10" lengthAdjust="spacing" textLength="245.1398" x="198.1321" y="125.7579">com.hack23.cia.model.internal.application.data.impl</text><line style="stroke:#181818;stroke-width:0.5;" x1="7" x2="601.9041" y1="133.6879" y2="133.6879"/><polygon fill="none" points="17,143.7219,21,147.7219,17,151.7219,13,147.7219" style="stroke:#B38D22;stroke-width:1.0;"/><text fill="#000000" font-family="sans-serif" font-size="14" lengthAdjust="spacing" textLength="119.2515" x="26" y="152.6538">createdDate: Date</text><polygon fill="none" points="17,162.7898,21,166.7898,17,170.7898,13,166.7898" style="stroke:#B38D22;stroke-width:1.0;"/><text fill="#000000" font-family="sans-serif" font-size="14" lengthAdjust="spacing" textLength="79.7577" x="26" y="171.7218">page: String</text><polygon fill="none" points="17,181.8577,21,185.8577,17,189.8577,13,185.8577" style="stroke:#B38D22;stroke-width:1.0;"/><text fill="#000000" font-family="sans-serif" font-size="14" lengthAdjust="spacing" textLength="117.4316" x="26" y="190.7897">pageMode: String</text><line style="stroke:#181818;stroke-width:0.5;" x1="7" x2="601.9041" y1="198.8917" y2="198.8917"/><ellipse cx="17" cy="213.9256" fill="#84BE84" rx="3" ry="3" style="stroke:#038048;stroke-width:1.0;"/><text fill="#000000" font-family="sans-serif" font-size="14" lengthAdjust="spacing" textLength="151.3394" x="26" y="217.8576">getCreatedDate(): Date</text><ellipse cx="17" cy="232.9935" fill="#84BE84" rx="3" ry="3" style="stroke:#038048;stroke-width:1.0;"/><text fill="#000000" font-family="sans-serif" font-size="14" lengthAdjust="spacing" textLength="177.2393" x="26" y="236.9255">setCreatedDate(Date): void</text><ellipse cx="17" cy="252.0614" fill="#84BE84" rx="3" ry="3" style="stroke:#038048;stroke-width:1.0;"/><text fill="#000000" font-family="sans-serif" font-size="14" lengthAdjust="spacing" textLength="109.5776" x="26" y="255.9934">getPage(): String</text><ellipse cx="17" cy="271.1294" fill="#84BE84" rx="3" ry="3" style="stroke:#038048;stroke-width:1.0;"/><text fill="#000000" font-family="sans-serif" font-size="14" lengthAdjust="spacing" textLength="135.4775" x="26" y="275.0613">setPage(String): void</text><ellipse cx="17" cy="290.1973" fill="#84BE84" rx="3" ry="3" style="stroke:#038048;stroke-width:1.0;"/><text fill="#000000" font-family="sans-serif" font-size="14" lengthAdjust="spacing" textLength="147.2514" x="26" y="294.1293">getPageMode(): String</text><ellipse cx="17" cy="309.2652" fill="#84BE84" rx="3" ry="3" style="stroke:#038048;stroke-width:1.0;"/><text fill="#000000" font-family="sans-serif" font-size="14" lengthAdjust="spacing" textLength="173.1514" x="26" y="313.1972">setPageMode(String): void</text><ellipse cx="17" cy="328.3331" fill="#84BE84" rx="3" ry="3" style="stroke:#038048;stroke-width:1.0;"/><text fill="#000000" font-family="sans-serif" font-size="14" lengthAdjust="spacing" textLength="570.9041" x="26" y="332.2651">withCreatedDate(Date): ApplicationActionEventPageModePeriodSummaryEmbeddedId</text><ellipse cx="17" cy="347.401" fill="#84BE84" rx="3" ry="3" style="stroke:#038048;stroke-width:1.0;"/><text fill="#000000" font-family="sans-serif" font-size="14" lengthAdjust="spacing" textLength="529.1421" x="26" y="351.333">withPage(String): ApplicationActionEventPageModePeriodSummaryEmbeddedId</text><ellipse cx="17" cy="366.4689" fill="#84BE84" rx="3" ry="3" style="stroke:#038048;stroke-width:1.0;"/><text fill="#000000" font-family="sans-serif" font-size="14" lengthAdjust="spacing" textLength="566.816" x="26" y="370.4009">withPageMode(String): ApplicationActionEventPageModePeriodSummaryEmbeddedId</text></g></a><!--class com.hack23.cia.model.common.api.ModelObject--><g id="elem_com.hack23.cia.model.common.api.ModelObject"><rect codeLine="28" fill="#F1F1F1" height="42.6879" id="com.hack23.cia.model.common.api.ModelObject" rx="2.5" ry="2.5" style="stroke:#181818;stroke-width:0.5;" width="189.3398" x="210" y="12"/><ellipse cx="225" cy="33.344" fill="#B4A7E5" rx="11" ry="11" style="stroke:#181818;stroke-width:1.0;"/><path d="M220.9219,29.1096 L220.9219,26.9533 L228.3125,26.9533 L228.3125,29.1096 L225.8438,29.1096 L225.8438,37.1877 L228.3125,37.1877 L228.3125,39.344 L220.9219,39.344 L220.9219,37.1877 L223.3906,37.1877 L223.3906,29.1096 L220.9219,29.1096 Z " fill="#000000"/><text fill="#000000" font-family="sans-serif" font-size="14" font-style="italic" lengthAdjust="spacing" textLength="78.1477" x="278.596" y="31.9659">ModelObject</text><text fill="#000000" font-family="sans-serif" font-size="10" font-style="italic" lengthAdjust="spacing" textLength="157.3398" x="239" y="46.7579">com.hack23.cia.model.common.api</text></g><polygon fill="none" points="304.5,55.0986,298.5,73.0986,310.5,73.0986,304.5,55.0986" style="stroke:#181818;stroke-width:1.0;"/><path d="M304.5,73.0986 C304.5,82.7554 304.5,77.1744 304.5,90.9623 " fill="none" style="stroke:#181818;stroke-width:1.0;stroke-dasharray:7.0,7.0;"/><text fill="#888888" font-family="sans-serif" font-size="10" lengthAdjust="spacing" textLength="2.6" x="299.7" y="383.69">&#160;</text><a href="https://github.com/talsma-ict/umldoclet" target="_top" title="https://github.com/talsma-ict/umldoclet" xlink:actuate="onRequest" xlink:href="https://github.com/talsma-ict/umldoclet" xlink:show="new" xlink:title="https://github.com/talsma-ict/umldoclet" xlink:type="simple"><text fill="#888888" font-family="sans-serif" font-size="10" lengthAdjust="spacing" textLength="76.7199" x="262.64" y="397.31">UMLDoclet 2.2.1</text></a><!--SRC=[lLLDRnCn4BttLmpjWLPjdDtj1oMgAaLf1KMfg4XwIdDmxCckYTTUR6-g0FtlsBiXNxI08iGU76N6xysRiMSC0F0QEhgO6P5c3fm6bmaBzxTTe8f3YWeDTSX1v3H52oEKMgMsteX0IvTf0tfS_MFQ6BI5Lboe53xGAGMhIyFGafqTg4BrVx8_Khl2Ffe5uvLc4XtiTmvM92LHVDP8ekG4-bJQdC9Dfq_cR4jCGX8IW-UMWg6odh9K74qbgrrGvd-wjUS8fcYiqCfZeZbFI9LfvQXG5Wfgd0qftKcgND0Qan2Vl87zTg-xhYrwMsaxWhPHjEJmINyf5-c-AWnDlM99PxfqO7DqLD7QPxreHNDVBigmXpueTRwIIYki_9dW29WNRWPZWPBRJQidoxGtLtOcgRMmUs75Lsp59vVjel25eCwdsMPXlPwYSdV-26yrnpiqGlDUcUVKpAxp4NAE_8O_g3a-kcGw9nbba-IOC459xa6I2ENGPoa9NR8JJXqb8Y_aBlWJtG97jj8AWy5ME9AvN0w7yAqgM_ZscC5m1w_yqeAmBbs59sj1pnb_dzUj8SGldiCKNMV9jd-mmNTer_rXyNkcMl0rZf1306_Isxchjh-43D9-WwxSBp0y2fSz8t2hIg-phkl-HuJhgMnF-bGtKNLFnxuTLnefGEN7qMTaxa_juOsvlzYq42-tmd8FMM6Uz_3V0-3YEo7_hzbgVHVMpIHUBevXhBKFjT99uNi_Az1qXPfqjFJZRE_yUUzz6CvIAFJl0PiezCChMknygiCrL-BDOpsemI1phh2jPZFrbw0SXG8rNVKmD0HppJANl7uHDjw6uN0-wzyj7fqmk1jnqaZE-_5PApbknSSaFZkDpa_Z93cCubOK3QvBemjizfncaqpBVFW3]--></g></svg>