<svg xmlns="http://www.w3.org/2000/svg" xmlns:xlink="http://www.w3.org/1999/xlink" contentStyleType="text/css" height="484px" preserveAspectRatio="none" style="width:867px;height:484px;background:#FFFFFF;" version="1.1" viewBox="0 0 867 484" width="867px" zoomAndPan="magnify"><defs/><g><!--class com.hack23.cia.model.internal.application.data.impl.ViewApplicationActionEventPageAnnualSummary--><a href="ViewApplicationActionEventPageAnnualSummary.html" target="_top" title="ViewApplicationActionEventPageAnnualSummary.html" xlink:actuate="onRequest" xlink:href="ViewApplicationActionEventPageAnnualSummary.html" xlink:show="new" xlink:title="ViewApplicationActionEventPageAnnualSummary.html" xlink:type="simple"><g id="elem_com.hack23.cia.model.internal.application.data.impl.ViewApplicationActionEventPageAnnualSummary"><rect codeLine="13" fill="#F1F1F1" height="363.7746" id="com.hack23.cia.model.internal.application.data.impl.ViewApplicationActionEventPageAnnualSummary" rx="2.5" ry="2.5" style="stroke:#181818;stroke-width:0.5;" width="854.8112" x="6" y="91"/><ellipse cx="266.6022" cy="112.344" fill="#ADD1B2" rx="11" ry="11" style="stroke:#181818;stroke-width:1.0;"/><path d="M269.571,117.9846 Q268.9928,118.2815 268.3522,118.4221 Q267.7116,118.5783 267.0085,118.5783 Q264.5085,118.5783 263.1803,116.9377 Q261.8678,115.2815 261.8678,112.1565 Q261.8678,109.0315 263.1803,107.3752 Q264.5085,105.719 267.0085,105.719 Q267.7116,105.719 268.3522,105.8752 Q269.0085,106.0315 269.571,106.3283 L269.571,109.0471 Q268.946,108.469 268.3522,108.2033 Q267.7585,107.9221 267.1335,107.9221 Q265.7897,107.9221 265.1022,109.0002 Q264.4147,110.0627 264.4147,112.1565 Q264.4147,114.2502 265.1022,115.3283 Q265.7897,116.3908 267.1335,116.3908 Q267.7585,116.3908 268.3522,116.1252 Q268.946,115.844 269.571,115.2658 L269.571,117.9846 Z " fill="#000000"/><text fill="#000000" font-family="sans-serif" font-size="14" lengthAdjust="spacing" textLength="325.1068" x="287.1022" y="110.9659">ViewApplicationActionEventPageAnnualSummary</text><text fill="#000000" font-family="sans-serif" font-size="10" lengthAdjust="spacing" textLength="245.1398" x="327.0857" y="125.7579">com.hack23.cia.model.internal.application.data.impl</text><line style="stroke:#181818;stroke-width:0.5;" x1="7" x2="859.8112" y1="133.6879" y2="133.6879"/><polygon fill="none" points="17,143.7219,21,147.7219,17,151.7219,13,147.7219" style="stroke:#B38D22;stroke-width:1.0;"/><text fill="#000000" font-family="sans-serif" font-size="14" lengthAdjust="spacing" textLength="467.0943" x="26" y="152.6538">embeddedId: ApplicationActionEventPagePeriodSummaryEmbeddedId</text><polygon fill="none" points="17,162.7898,21,166.7898,17,170.7898,13,166.7898" style="stroke:#B38D22;stroke-width:1.0;"/><text fill="#000000" font-family="sans-serif" font-size="14" lengthAdjust="spacing" textLength="60.7598" x="26" y="171.7218">hits: long</text><polygon fill="none" points="17,181.8577,21,185.8577,17,189.8577,13,185.8577" style="stroke:#B38D22;stroke-width:1.0;"/><text fill="#000000" font-family="sans-serif" font-size="14" lengthAdjust="spacing" textLength="66.4997" x="26" y="190.7897">rank: long</text><polygon fill="none" points="17,200.9256,21,204.9256,17,208.9256,13,204.9256" style="stroke:#B38D22;stroke-width:1.0;"/><text fill="#000000" font-family="sans-serif" font-size="14" lengthAdjust="spacing" textLength="186.3113" x="26" y="209.8576">rankPercentage: BigDecimal</text><line style="stroke:#181818;stroke-width:0.5;" x1="7" x2="859.8112" y1="217.9596" y2="217.9596"/><ellipse cx="17" cy="232.9935" fill="#84BE84" rx="3" ry="3" style="stroke:#038048;stroke-width:1.0;"/><text fill="#000000" font-family="sans-serif" font-size="14" lengthAdjust="spacing" textLength="496.9422" x="26" y="236.9255">getEmbeddedId(): ApplicationActionEventPagePeriodSummaryEmbeddedId</text><ellipse cx="17" cy="252.0614" fill="#84BE84" rx="3" ry="3" style="stroke:#038048;stroke-width:1.0;"/><text fill="#000000" font-family="sans-serif" font-size="14" lengthAdjust="spacing" textLength="522.8421" x="26" y="255.9934">setEmbeddedId(ApplicationActionEventPagePeriodSummaryEmbeddedId): void</text><ellipse cx="17" cy="271.1294" fill="#84BE84" rx="3" ry="3" style="stroke:#038048;stroke-width:1.0;"/><text fill="#000000" font-family="sans-serif" font-size="14" lengthAdjust="spacing" textLength="92.4417" x="26" y="275.0613">getHits(): long</text><ellipse cx="17" cy="290.1973" fill="#84BE84" rx="3" ry="3" style="stroke:#038048;stroke-width:1.0;"/><text fill="#000000" font-family="sans-serif" font-size="14" lengthAdjust="spacing" textLength="118.3416" x="26" y="294.1293">setHits(long): void</text><ellipse cx="17" cy="309.2652" fill="#84BE84" rx="3" ry="3" style="stroke:#038048;stroke-width:1.0;"/><text fill="#000000" font-family="sans-serif" font-size="14" lengthAdjust="spacing" textLength="99.3856" x="26" y="313.1972">getRank(): long</text><ellipse cx="17" cy="328.3331" fill="#84BE84" rx="3" ry="3" style="stroke:#038048;stroke-width:1.0;"/><text fill="#000000" font-family="sans-serif" font-size="14" lengthAdjust="spacing" textLength="125.2855" x="26" y="332.2651">setRank(long): void</text><ellipse cx="17" cy="347.401" fill="#84BE84" rx="3" ry="3" style="stroke:#038048;stroke-width:1.0;"/><text fill="#000000" font-family="sans-serif" font-size="14" lengthAdjust="spacing" textLength="219.1971" x="26" y="351.333">getRankPercentage(): BigDecimal</text><ellipse cx="17" cy="366.4689" fill="#84BE84" rx="3" ry="3" style="stroke:#038048;stroke-width:1.0;"/><text fill="#000000" font-family="sans-serif" font-size="14" lengthAdjust="spacing" textLength="245.097" x="26" y="370.4009">setRankPercentage(BigDecimal): void</text><ellipse cx="17" cy="385.5369" fill="#84BE84" rx="3" ry="3" style="stroke:#038048;stroke-width:1.0;"/><text fill="#000000" font-family="sans-serif" font-size="14" lengthAdjust="spacing" textLength="828.8112" x="26" y="389.4688">withEmbeddedId(ApplicationActionEventPagePeriodSummaryEmbeddedId): ViewApplicationActionEventPageAnnualSummary</text><ellipse cx="17" cy="404.6048" fill="#84BE84" rx="3" ry="3" style="stroke:#038048;stroke-width:1.0;"/><text fill="#000000" font-family="sans-serif" font-size="14" lengthAdjust="spacing" textLength="424.3104" x="26" y="408.5368">withHits(long): ViewApplicationActionEventPageAnnualSummary</text><ellipse cx="17" cy="423.6727" fill="#84BE84" rx="3" ry="3" style="stroke:#038048;stroke-width:1.0;"/><text fill="#000000" font-family="sans-serif" font-size="14" lengthAdjust="spacing" textLength="431.2544" x="26" y="427.6047">withRank(long): ViewApplicationActionEventPageAnnualSummary</text><ellipse cx="17" cy="442.7406" fill="#84BE84" rx="3" ry="3" style="stroke:#038048;stroke-width:1.0;"/><text fill="#000000" font-family="sans-serif" font-size="14" lengthAdjust="spacing" textLength="551.066" x="26" y="446.6726">withRankPercentage(BigDecimal): ViewApplicationActionEventPageAnnualSummary</text></g></a><!--class com.hack23.cia.model.common.api.ModelObject--><g id="elem_com.hack23.cia.model.common.api.ModelObject"><rect codeLine="32" fill="#F1F1F1" height="42.6879" id="com.hack23.cia.model.common.api.ModelObject" rx="2.5" ry="2.5" style="stroke:#181818;stroke-width:0.5;" width="189.3398" x="339" y="12"/><ellipse cx="354" cy="33.344" fill="#B4A7E5" rx="11" ry="11" style="stroke:#181818;stroke-width:1.0;"/><path d="M349.9219,29.1096 L349.9219,26.9533 L357.3125,26.9533 L357.3125,29.1096 L354.8438,29.1096 L354.8438,37.1877 L357.3125,37.1877 L357.3125,39.344 L349.9219,39.344 L349.9219,37.1877 L352.3906,37.1877 L352.3906,29.1096 L349.9219,29.1096 Z " fill="#000000"/><text fill="#000000" font-family="sans-serif" font-size="14" font-style="italic" lengthAdjust="spacing" textLength="78.1477" x="407.596" y="31.9659">ModelObject</text><text fill="#000000" font-family="sans-serif" font-size="10" font-style="italic" lengthAdjust="spacing" textLength="157.3398" x="368" y="46.7579">com.hack23.cia.model.common.api</text></g><polygon fill="none" points="433.5,55.1611,427.5,73.1611,439.5,73.1611,433.5,55.1611" style="stroke:#181818;stroke-width:1.0;"/><path d="M433.5,73.1611 C433.5,82.641 433.5,76.8469 433.5,90.6291 " fill="none" style="stroke:#181818;stroke-width:1.0;stroke-dasharray:7.0,7.0;"/><text fill="#888888" font-family="sans-serif" font-size="10" lengthAdjust="spacing" textLength="2.6" x="428.7" y="459.69">&#160;</text><a href="https://github.com/talsma-ict/umldoclet" target="_top" title="https://github.com/talsma-ict/umldoclet" xlink:actuate="onRequest" xlink:href="https://github.com/talsma-ict/umldoclet" xlink:show="new" xlink:title="https://github.com/talsma-ict/umldoclet" xlink:type="simple"><text fill="#888888" font-family="sans-serif" font-size="10" lengthAdjust="spacing" textLength="76.7199" x="391.64" y="473.31">UMLDoclet 2.2.1</text></a><!--SRC=[jLNVJzim47xdhxZ1mq1GDmaTOn52wZeqc8g6QDbBwOFhN1ElZft5Jb6tyR_FJhicXRAjeEMXLUx7TzzzZky005v3HsMpdCU90QF095p3pMKNg8mWHeavDHW1JscC6aOeb8prF1215YPHEQXn-SPKdgFEb8ouZE4JdLBGgiWPQhAr1MMf_c_qEwfhwAEPCtvGJA21tSvUZLBW-KUDm0jQqAT2fnGkEdsoGAjo0X8G7oosu0objf25Z30lQRKpoknVT-uvW2dccYjfSxm5ZckLAMaebneocXljMheIL1h7rIUkFdaBk-rUTvMRzwxaTW3jND8YWclrhLYs-ohBQMmP2pfJXG6Teg6IpdtQafOqjN9HXZsqHQcnIaebiVGdF4B0D3Cp67CKaNvejM29ikRIpWJL6hPFDF-EeTyw_SBnhfrbLWngRAjjvdxFfYZDbJt6jfG55RqYJMa-kvMBBE-KgPGab4s2Gy8u9QcAK10k3ThU1A4L7eceeOIdcTW6UuxFo2CRC8J1O8DeafXK38VmenJ6FJkOZZ2ACBg8GdWQvGfphg85ojaofO99kD4XkE-_ikLKJjRPB9Zzseo53U4zZpyWinT8B6FsOpHLYTszb_3QrojO6mFPubF5enLkvxPLnsgbCLUeT3Zhkgnhs_ZQhDBnfwnABfU_JZ3zAB2AUeHwnqtoGaas-E9MwzOLUZP8NR0NWJobrwQWz_CvKrxgiPrOjLbpwQxxvz5NPEPliyGQKpi5QCQVdXjL3AaXByRSloV0oKz2_lTachCwqMOcy7Gf_bWfMw0sWDnpFiimxt8vwIXXv_pEyNhlZTjQWakqYv9D9DgfxYqZx-VbchLwYrgtSZ18ZCbqs6p6zkYBaPEbQSgDsU3CD8jKHFDL-M1f3eUB9VXnkOtTHcluGICuxlj7ON0O-eV43zwqWfRl7-zxVkXvWxCYLnasUqQnIQ94Elm5]--></g></svg>