<svg xmlns="http://www.w3.org/2000/svg" xmlns:xlink="http://www.w3.org/1999/xlink" contentStyleType="text/css" height="484px" preserveAspectRatio="none" style="width:973px;height:484px;background:#FFFFFF;" version="1.1" viewBox="0 0 973 484" width="973px" zoomAndPan="magnify"><defs/><g><!--class com.hack23.cia.model.internal.application.data.impl.ViewApplicationActionEventPageElementHourlySummary--><a href="ViewApplicationActionEventPageElementHourlySummary.html" target="_top" title="ViewApplicationActionEventPageElementHourlySummary.html" xlink:actuate="onRequest" xlink:href="ViewApplicationActionEventPageElementHourlySummary.html" xlink:show="new" xlink:title="ViewApplicationActionEventPageElementHourlySummary.html" xlink:type="simple"><g id="elem_com.hack23.cia.model.internal.application.data.impl.ViewApplicationActionEventPageElementHourlySummary"><rect codeLine="13" fill="#F1F1F1" height="363.7746" id="com.hack23.cia.model.internal.application.data.impl.ViewApplicationActionEventPageElementHourlySummary" rx="2.5" ry="2.5" style="stroke:#181818;stroke-width:0.5;" width="960.4409" x="6" y="91"/><ellipse cx="293.5941" cy="112.344" fill="#ADD1B2" rx="11" ry="11" style="stroke:#181818;stroke-width:1.0;"/><path d="M296.5629,117.9846 Q295.9848,118.2815 295.3441,118.4221 Q294.7035,118.5783 294.0004,118.5783 Q291.5004,118.5783 290.1723,116.9377 Q288.8598,115.2815 288.8598,112.1565 Q288.8598,109.0315 290.1723,107.3752 Q291.5004,105.719 294.0004,105.719 Q294.7035,105.719 295.3441,105.8752 Q296.0004,106.0315 296.5629,106.3283 L296.5629,109.0471 Q295.9379,108.469 295.3441,108.2033 Q294.7504,107.9221 294.1254,107.9221 Q292.7816,107.9221 292.0941,109.0002 Q291.4066,110.0627 291.4066,112.1565 Q291.4066,114.2502 292.0941,115.3283 Q292.7816,116.3908 294.1254,116.3908 Q294.7504,116.3908 295.3441,116.1252 Q295.9379,115.844 296.5629,115.2658 L296.5629,117.9846 Z " fill="#000000"/><text fill="#000000" font-family="sans-serif" font-size="14" lengthAdjust="spacing" textLength="376.7526" x="314.0941" y="110.9659">ViewApplicationActionEventPageElementHourlySummary</text><text fill="#000000" font-family="sans-serif" font-size="10" lengthAdjust="spacing" textLength="245.1398" x="379.9005" y="125.7579">com.hack23.cia.model.internal.application.data.impl</text><line style="stroke:#181818;stroke-width:0.5;" x1="7" x2="965.4409" y1="133.6879" y2="133.6879"/><polygon fill="none" points="17,143.7219,21,147.7219,17,151.7219,13,147.7219" style="stroke:#B38D22;stroke-width:1.0;"/><text fill="#000000" font-family="sans-serif" font-size="14" lengthAdjust="spacing" textLength="521.0781" x="26" y="152.6538">embeddedId: ApplicationActionEventPageElementPeriodSummaryEmbeddedId</text><polygon fill="none" points="17,162.7898,21,166.7898,17,170.7898,13,166.7898" style="stroke:#B38D22;stroke-width:1.0;"/><text fill="#000000" font-family="sans-serif" font-size="14" lengthAdjust="spacing" textLength="60.7598" x="26" y="171.7218">hits: long</text><polygon fill="none" points="17,181.8577,21,185.8577,17,189.8577,13,185.8577" style="stroke:#B38D22;stroke-width:1.0;"/><text fill="#000000" font-family="sans-serif" font-size="14" lengthAdjust="spacing" textLength="66.4997" x="26" y="190.7897">rank: long</text><polygon fill="none" points="17,200.9256,21,204.9256,17,208.9256,13,204.9256" style="stroke:#B38D22;stroke-width:1.0;"/><text fill="#000000" font-family="sans-serif" font-size="14" lengthAdjust="spacing" textLength="186.3113" x="26" y="209.8576">rankPercentage: BigDecimal</text><line style="stroke:#181818;stroke-width:0.5;" x1="7" x2="965.4409" y1="217.9596" y2="217.9596"/><ellipse cx="17" cy="232.9935" fill="#84BE84" rx="3" ry="3" style="stroke:#038048;stroke-width:1.0;"/><text fill="#000000" font-family="sans-serif" font-size="14" lengthAdjust="spacing" textLength="550.926" x="26" y="236.9255">getEmbeddedId(): ApplicationActionEventPageElementPeriodSummaryEmbeddedId</text><ellipse cx="17" cy="252.0614" fill="#84BE84" rx="3" ry="3" style="stroke:#038048;stroke-width:1.0;"/><text fill="#000000" font-family="sans-serif" font-size="14" lengthAdjust="spacing" textLength="576.8259" x="26" y="255.9934">setEmbeddedId(ApplicationActionEventPageElementPeriodSummaryEmbeddedId): void</text><ellipse cx="17" cy="271.1294" fill="#84BE84" rx="3" ry="3" style="stroke:#038048;stroke-width:1.0;"/><text fill="#000000" font-family="sans-serif" font-size="14" lengthAdjust="spacing" textLength="92.4417" x="26" y="275.0613">getHits(): long</text><ellipse cx="17" cy="290.1973" fill="#84BE84" rx="3" ry="3" style="stroke:#038048;stroke-width:1.0;"/><text fill="#000000" font-family="sans-serif" font-size="14" lengthAdjust="spacing" textLength="118.3416" x="26" y="294.1293">setHits(long): void</text><ellipse cx="17" cy="309.2652" fill="#84BE84" rx="3" ry="3" style="stroke:#038048;stroke-width:1.0;"/><text fill="#000000" font-family="sans-serif" font-size="14" lengthAdjust="spacing" textLength="99.3856" x="26" y="313.1972">getRank(): long</text><ellipse cx="17" cy="328.3331" fill="#84BE84" rx="3" ry="3" style="stroke:#038048;stroke-width:1.0;"/><text fill="#000000" font-family="sans-serif" font-size="14" lengthAdjust="spacing" textLength="125.2855" x="26" y="332.2651">setRank(long): void</text><ellipse cx="17" cy="347.401" fill="#84BE84" rx="3" ry="3" style="stroke:#038048;stroke-width:1.0;"/><text fill="#000000" font-family="sans-serif" font-size="14" lengthAdjust="spacing" textLength="219.1971" x="26" y="351.333">getRankPercentage(): BigDecimal</text><ellipse cx="17" cy="366.4689" fill="#84BE84" rx="3" ry="3" style="stroke:#038048;stroke-width:1.0;"/><text fill="#000000" font-family="sans-serif" font-size="14" lengthAdjust="spacing" textLength="245.097" x="26" y="370.4009">setRankPercentage(BigDecimal): void</text><ellipse cx="17" cy="385.5369" fill="#84BE84" rx="3" ry="3" style="stroke:#038048;stroke-width:1.0;"/><text fill="#000000" font-family="sans-serif" font-size="14" lengthAdjust="spacing" textLength="934.4409" x="26" y="389.4688">withEmbeddedId(ApplicationActionEventPageElementPeriodSummaryEmbeddedId): ViewApplicationActionEventPageElementHourlySummary</text><ellipse cx="17" cy="404.6048" fill="#84BE84" rx="3" ry="3" style="stroke:#038048;stroke-width:1.0;"/><text fill="#000000" font-family="sans-serif" font-size="14" lengthAdjust="spacing" textLength="475.9562" x="26" y="408.5368">withHits(long): ViewApplicationActionEventPageElementHourlySummary</text><ellipse cx="17" cy="423.6727" fill="#84BE84" rx="3" ry="3" style="stroke:#038048;stroke-width:1.0;"/><text fill="#000000" font-family="sans-serif" font-size="14" lengthAdjust="spacing" textLength="482.9001" x="26" y="427.6047">withRank(long): ViewApplicationActionEventPageElementHourlySummary</text><ellipse cx="17" cy="442.7406" fill="#84BE84" rx="3" ry="3" style="stroke:#038048;stroke-width:1.0;"/><text fill="#000000" font-family="sans-serif" font-size="14" lengthAdjust="spacing" textLength="602.7117" x="26" y="446.6726">withRankPercentage(BigDecimal): ViewApplicationActionEventPageElementHourlySummary</text></g></a><!--class com.hack23.cia.model.common.api.ModelObject--><g id="elem_com.hack23.cia.model.common.api.ModelObject"><rect codeLine="32" fill="#F1F1F1" height="42.6879" id="com.hack23.cia.model.common.api.ModelObject" rx="2.5" ry="2.5" style="stroke:#181818;stroke-width:0.5;" width="189.3398" x="391.5" y="12"/><ellipse cx="406.5" cy="33.344" fill="#B4A7E5" rx="11" ry="11" style="stroke:#181818;stroke-width:1.0;"/><path d="M402.4219,29.1096 L402.4219,26.9533 L409.8125,26.9533 L409.8125,29.1096 L407.3438,29.1096 L407.3438,37.1877 L409.8125,37.1877 L409.8125,39.344 L402.4219,39.344 L402.4219,37.1877 L404.8906,37.1877 L404.8906,29.1096 L402.4219,29.1096 Z " fill="#000000"/><text fill="#000000" font-family="sans-serif" font-size="14" font-style="italic" lengthAdjust="spacing" textLength="78.1477" x="460.096" y="31.9659">ModelObject</text><text fill="#000000" font-family="sans-serif" font-size="10" font-style="italic" lengthAdjust="spacing" textLength="157.3398" x="420.5" y="46.7579">com.hack23.cia.model.common.api</text></g><polygon fill="none" points="486,55.1611,480,73.1611,492,73.1611,486,55.1611" style="stroke:#181818;stroke-width:1.0;"/><path d="M486,73.1611 C486,82.641 486,76.8469 486,90.6291 " fill="none" style="stroke:#181818;stroke-width:1.0;stroke-dasharray:7.0,7.0;"/><text fill="#888888" font-family="sans-serif" font-size="10" lengthAdjust="spacing" textLength="2.6" x="481.2" y="459.69">&#160;</text><a href="https://github.com/talsma-ict/umldoclet" target="_top" title="https://github.com/talsma-ict/umldoclet" xlink:actuate="onRequest" xlink:href="https://github.com/talsma-ict/umldoclet" xlink:show="new" xlink:title="https://github.com/talsma-ict/umldoclet" xlink:type="simple"><text fill="#888888" font-family="sans-serif" font-size="10" lengthAdjust="spacing" textLength="76.7199" x="444.14" y="473.31">UMLDoclet 2.2.1</text></a><!--SRC=[lLNRKjim47tdAxRmK1Y8uZZScc6OIIbJw8GfGw0l8G-AlDXgPCcrv31koxztvQIvG2Y5ClL3BdivU_P8tWK0U0j79Yjp6ISEd06NI0jNPntWEe8ODURSOGGovJ5Q6A0oEhRZG0HUkCJaO6wgVyBaEThCw4Zg63xn4GThYboWPIihK9Mw_8r-o-qS-g3qnWz6A7ImVhGnHoaC6hkrC0YtuP8hct8uFRfa4xHPJiX2rW32LbAWjWHPw0ZpYbOxuuA-EcFF5emmjz9eoWacEBvLORJZKbl8UEwiR-bSSUqyrmRpzTaUhBUxdKLkmRkAsnQqSysB22xCjsBQxfiivp4nLhmqXGERekEQZtsMI6kUabnSO1UfA7Uaf3OQAtyY8mHCCrV2ZKGLsVjM0aiCcIkxKDnQM3smyZks6jk7NoJUjhECnE2EMcqB_tayGktEwHYF5QRqyuJEHfNT8arvNbxhIN9mA4pA4Yw6OPC9oLbg8bHCQeVKec9y1iiYxZYJQQPMWOxp1Ndi-KIXrtj-4ajSglfz-56fvPyrJ0SOHHYTHYru4kmSSscY2TZnD7E6baXdM-3VZPajvtgup4PWT1CTeRVWlOm_eA2NIqrZDcDqinBh6wz0RzCkGBuKZwYCZ8mMc9vGuvxZGfk-NkNmrcLP5oJ3qgpAyQUicNW-Vvbyza7WBEe1wgrqoUiey_nBkSXYNgz_nPfNyJMm7jFoXTXtuw5LZOOR6dzpW-lC3utFWwyet5CJYOmfpHAUoSUdpoo6pI5FPkRV9y31JyR-qtmRapkmhbHuE3sA6sEepjpyyiz9cM7UaNfuP1JjZhNzvTuhlmcLr4ZBLmmrqgO8ff5tutBrkNgJMjUwrqkSosohNe_f8XG3hqxTLLku9eMh5wcAnklttYBkzoUBzUDqm_ijMMk4jN3_ih7R2fkjHfC5ExlDdUszlTtDeD4AWjvnaPiCwrrdn30nAkt_0W00]--></g></svg>