<svg xmlns="http://www.w3.org/2000/svg" xmlns:xlink="http://www.w3.org/1999/xlink" contentStyleType="text/css" height="484px" preserveAspectRatio="none" style="width:943px;height:484px;background:#FFFFFF;" version="1.1" viewBox="0 0 943 484" width="943px" zoomAndPan="magnify"><defs/><g><!--class com.hack23.cia.model.internal.application.data.impl.ViewApplicationActionEventPageModeWeeklySummary--><a href="ViewApplicationActionEventPageModeWeeklySummary.html" target="_top" title="ViewApplicationActionEventPageModeWeeklySummary.html" xlink:actuate="onRequest" xlink:href="ViewApplicationActionEventPageModeWeeklySummary.html" xlink:show="new" xlink:title="ViewApplicationActionEventPageModeWeeklySummary.html" xlink:type="simple"><g id="elem_com.hack23.cia.model.internal.application.data.impl.ViewApplicationActionEventPageModeWeeklySummary"><rect codeLine="13" fill="#F1F1F1" height="363.7746" id="com.hack23.cia.model.internal.application.data.impl.ViewApplicationActionEventPageModeWeeklySummary" rx="2.5" ry="2.5" style="stroke:#181818;stroke-width:0.5;" width="930.8309" x="6" y="91"/><ellipse cx="285.4391" cy="112.344" fill="#ADD1B2" rx="11" ry="11" style="stroke:#181818;stroke-width:1.0;"/><path d="M288.4079,117.9846 Q287.8297,118.2815 287.1891,118.4221 Q286.5485,118.5783 285.8454,118.5783 Q283.3454,118.5783 282.0172,116.9377 Q280.7047,115.2815 280.7047,112.1565 Q280.7047,109.0315 282.0172,107.3752 Q283.3454,105.719 285.8454,105.719 Q286.5485,105.719 287.1891,105.8752 Q287.8454,106.0315 288.4079,106.3283 L288.4079,109.0471 Q287.7829,108.469 287.1891,108.2033 Q286.5954,107.9221 285.9704,107.9221 Q284.6266,107.9221 283.9391,109.0002 Q283.2516,110.0627 283.2516,112.1565 Q283.2516,114.2502 283.9391,115.3283 Q284.6266,116.3908 285.9704,116.3908 Q286.5954,116.3908 287.1891,116.1252 Q287.7829,115.844 288.4079,115.2658 L288.4079,117.9846 Z " fill="#000000"/><text fill="#000000" font-family="sans-serif" font-size="14" lengthAdjust="spacing" textLength="363.4526" x="305.9391" y="110.9659">ViewApplicationActionEventPageModeWeeklySummary</text><text fill="#000000" font-family="sans-serif" font-size="10" lengthAdjust="spacing" textLength="245.1398" x="365.0955" y="125.7579">com.hack23.cia.model.internal.application.data.impl</text><line style="stroke:#181818;stroke-width:0.5;" x1="7" x2="935.8309" y1="133.6879" y2="133.6879"/><polygon fill="none" points="17,143.7219,21,147.7219,17,151.7219,13,147.7219" style="stroke:#B38D22;stroke-width:1.0;"/><text fill="#000000" font-family="sans-serif" font-size="14" lengthAdjust="spacing" textLength="504.7682" x="26" y="152.6538">embeddedId: ApplicationActionEventPageModePeriodSummaryEmbeddedId</text><polygon fill="none" points="17,162.7898,21,166.7898,17,170.7898,13,166.7898" style="stroke:#B38D22;stroke-width:1.0;"/><text fill="#000000" font-family="sans-serif" font-size="14" lengthAdjust="spacing" textLength="60.7598" x="26" y="171.7218">hits: long</text><polygon fill="none" points="17,181.8577,21,185.8577,17,189.8577,13,185.8577" style="stroke:#B38D22;stroke-width:1.0;"/><text fill="#000000" font-family="sans-serif" font-size="14" lengthAdjust="spacing" textLength="66.4997" x="26" y="190.7897">rank: long</text><polygon fill="none" points="17,200.9256,21,204.9256,17,208.9256,13,204.9256" style="stroke:#B38D22;stroke-width:1.0;"/><text fill="#000000" font-family="sans-serif" font-size="14" lengthAdjust="spacing" textLength="186.3113" x="26" y="209.8576">rankPercentage: BigDecimal</text><line style="stroke:#181818;stroke-width:0.5;" x1="7" x2="935.8309" y1="217.9596" y2="217.9596"/><ellipse cx="17" cy="232.9935" fill="#84BE84" rx="3" ry="3" style="stroke:#038048;stroke-width:1.0;"/><text fill="#000000" font-family="sans-serif" font-size="14" lengthAdjust="spacing" textLength="534.6161" x="26" y="236.9255">getEmbeddedId(): ApplicationActionEventPageModePeriodSummaryEmbeddedId</text><ellipse cx="17" cy="252.0614" fill="#84BE84" rx="3" ry="3" style="stroke:#038048;stroke-width:1.0;"/><text fill="#000000" font-family="sans-serif" font-size="14" lengthAdjust="spacing" textLength="560.5159" x="26" y="255.9934">setEmbeddedId(ApplicationActionEventPageModePeriodSummaryEmbeddedId): void</text><ellipse cx="17" cy="271.1294" fill="#84BE84" rx="3" ry="3" style="stroke:#038048;stroke-width:1.0;"/><text fill="#000000" font-family="sans-serif" font-size="14" lengthAdjust="spacing" textLength="92.4417" x="26" y="275.0613">getHits(): long</text><ellipse cx="17" cy="290.1973" fill="#84BE84" rx="3" ry="3" style="stroke:#038048;stroke-width:1.0;"/><text fill="#000000" font-family="sans-serif" font-size="14" lengthAdjust="spacing" textLength="118.3416" x="26" y="294.1293">setHits(long): void</text><ellipse cx="17" cy="309.2652" fill="#84BE84" rx="3" ry="3" style="stroke:#038048;stroke-width:1.0;"/><text fill="#000000" font-family="sans-serif" font-size="14" lengthAdjust="spacing" textLength="99.3856" x="26" y="313.1972">getRank(): long</text><ellipse cx="17" cy="328.3331" fill="#84BE84" rx="3" ry="3" style="stroke:#038048;stroke-width:1.0;"/><text fill="#000000" font-family="sans-serif" font-size="14" lengthAdjust="spacing" textLength="125.2855" x="26" y="332.2651">setRank(long): void</text><ellipse cx="17" cy="347.401" fill="#84BE84" rx="3" ry="3" style="stroke:#038048;stroke-width:1.0;"/><text fill="#000000" font-family="sans-serif" font-size="14" lengthAdjust="spacing" textLength="219.1971" x="26" y="351.333">getRankPercentage(): BigDecimal</text><ellipse cx="17" cy="366.4689" fill="#84BE84" rx="3" ry="3" style="stroke:#038048;stroke-width:1.0;"/><text fill="#000000" font-family="sans-serif" font-size="14" lengthAdjust="spacing" textLength="245.097" x="26" y="370.4009">setRankPercentage(BigDecimal): void</text><ellipse cx="17" cy="385.5369" fill="#84BE84" rx="3" ry="3" style="stroke:#038048;stroke-width:1.0;"/><text fill="#000000" font-family="sans-serif" font-size="14" lengthAdjust="spacing" textLength="904.8309" x="26" y="389.4688">withEmbeddedId(ApplicationActionEventPageModePeriodSummaryEmbeddedId): ViewApplicationActionEventPageModeWeeklySummary</text><ellipse cx="17" cy="404.6048" fill="#84BE84" rx="3" ry="3" style="stroke:#038048;stroke-width:1.0;"/><text fill="#000000" font-family="sans-serif" font-size="14" lengthAdjust="spacing" textLength="462.6563" x="26" y="408.5368">withHits(long): ViewApplicationActionEventPageModeWeeklySummary</text><ellipse cx="17" cy="423.6727" fill="#84BE84" rx="3" ry="3" style="stroke:#038048;stroke-width:1.0;"/><text fill="#000000" font-family="sans-serif" font-size="14" lengthAdjust="spacing" textLength="469.6002" x="26" y="427.6047">withRank(long): ViewApplicationActionEventPageModeWeeklySummary</text><ellipse cx="17" cy="442.7406" fill="#84BE84" rx="3" ry="3" style="stroke:#038048;stroke-width:1.0;"/><text fill="#000000" font-family="sans-serif" font-size="14" lengthAdjust="spacing" textLength="589.4118" x="26" y="446.6726">withRankPercentage(BigDecimal): ViewApplicationActionEventPageModeWeeklySummary</text></g></a><!--class com.hack23.cia.model.common.api.ModelObject--><g id="elem_com.hack23.cia.model.common.api.ModelObject"><rect codeLine="32" fill="#F1F1F1" height="42.6879" id="com.hack23.cia.model.common.api.ModelObject" rx="2.5" ry="2.5" style="stroke:#181818;stroke-width:0.5;" width="189.3398" x="377" y="12"/><ellipse cx="392" cy="33.344" fill="#B4A7E5" rx="11" ry="11" style="stroke:#181818;stroke-width:1.0;"/><path d="M387.9219,29.1096 L387.9219,26.9533 L395.3125,26.9533 L395.3125,29.1096 L392.8438,29.1096 L392.8438,37.1877 L395.3125,37.1877 L395.3125,39.344 L387.9219,39.344 L387.9219,37.1877 L390.3906,37.1877 L390.3906,29.1096 L387.9219,29.1096 Z " fill="#000000"/><text fill="#000000" font-family="sans-serif" font-size="14" font-style="italic" lengthAdjust="spacing" textLength="78.1477" x="445.596" y="31.9659">ModelObject</text><text fill="#000000" font-family="sans-serif" font-size="10" font-style="italic" lengthAdjust="spacing" textLength="157.3398" x="406" y="46.7579">com.hack23.cia.model.common.api</text></g><polygon fill="none" points="471.5,55.1611,465.5,73.1611,477.5,73.1611,471.5,55.1611" style="stroke:#181818;stroke-width:1.0;"/><path d="M471.5,73.1611 C471.5,82.641 471.5,76.8469 471.5,90.6291 " fill="none" style="stroke:#181818;stroke-width:1.0;stroke-dasharray:7.0,7.0;"/><text fill="#888888" font-family="sans-serif" font-size="10" lengthAdjust="spacing" textLength="2.6" x="466.7" y="459.69">&#160;</text><a href="https://github.com/talsma-ict/umldoclet" target="_top" title="https://github.com/talsma-ict/umldoclet" xlink:actuate="onRequest" xlink:href="https://github.com/talsma-ict/umldoclet" xlink:show="new" xlink:title="https://github.com/talsma-ict/umldoclet" xlink:type="simple"><text fill="#888888" font-family="sans-serif" font-size="10" lengthAdjust="spacing" textLength="76.7199" x="429.64" y="473.31">UMLDoclet 2.2.1</text></a><!--SRC=[lLLDKzim4BtpAxPmA0n4iHtAXuTX9WrCeHEc30dj8UIWo1jRZIovbXp6RVdlbPmq7n1eWKvzICQx-zw-NLcx001leQMoCkTnOi0eC0dNS7tH1YeZY55YJWr6m5CQeuO12YLZFGb4e8L9L0vgMBqnbUUeCoKZBcFuICSKj2foXfgihK6LglkR_PRg1VP1wOmdYWaqiDdQMf0KUFvUBV22NUXIeLCAvwqkcRBDCG49Y0-MMt26KblAGaQOLxAQ6MNshptnxC0OSysLj1XlokDAPKeQogM6ZEP6kv8k1PN6QVM9oq_sORFPQIzhymuhRJlGp2Kj8hXItufPkM-odCPMiQ2bAWpe50sLTEBJLhIagMqNPTX1cvGQsqcf95R-X4S8c6QcX2574UdxLakMA6kkx4nGhM7zIFFl6FgxnvyvtZQpp3Q36bjgaxdVqp5ASscFyK95-0Ln9CfEaQOqBs_a5EaTCvMIXB9Hq22CKvBQK46uD6Zh4uJEEKb43IKypSGwsBDy0OuyKoNqUiz4aCIaej-77rMJtBE1wG2Z2AFpA8IdcIunvogQCftEO7EgX1iTWhiFSrjEvMYLpPBPhyzOwX3Uy_W4cRrGOXQp7QEPfzZSUgssRRt4zo8oAsAiUBIaySoMxDGj5UYILGvdNOMwiWrOYQeSJw7cRNFuLOtJ3mBdKGzORxb9_a5RdlaLBkTVxDIhY1QRzsgYn_ht4kAxoKogBl_GJhU5kUG0ujFWApBpfvbZZQcT5ZJZZy-NUGnPO9wEnBy7mD5FGlx719ieEzAc57WyEuIXKZR9mf1oprcPOTxcSjHImkw5ZOFLtcktvGINQ1Sh6qcqMy2RHTvDqjKNyarptSXUBp4cqs6z7jjFe1YurjHDjM5hd9bwaOfeibhlBTb-VxeqFyosjzk0DJ-e1GTTVoyC6g7V847ZdUVl7XpkRtj-w7czqo9N6TOxHh5HeaJQ_mK0]--></g></svg>