<?xml version="1.0" encoding="UTF-8" standalone="no"?><svg xmlns="http://www.w3.org/2000/svg" xmlns:xlink="http://www.w3.org/1999/xlink" contentScriptType="application/ecmascript" contentStyleType="text/css" height="294px" preserveAspectRatio="none" style="width:477px;height:294px;" version="1.1" viewBox="0 0 477 294" width="477px" zoomAndPan="magnify"><defs><filter height="300%" id="ffeb2zpcygm6j" width="300%" x="-1" y="-1"><feGaussianBlur result="blurOut" stdDeviation="2.0"/><feColorMatrix in="blurOut" result="blurOut2" type="matrix" values="0 0 0 0 0 0 0 0 0 0 0 0 0 0 0 0 0 0 .4 0"/><feOffset dx="4.0" dy="4.0" in="blurOut2" result="blurOut3"/><feBlend in="SourceGraphic" in2="blurOut3" mode="normal"/></filter></defs><g><!--class com.hack23.cia.model.internal.application.data.impl.WorldbankIndicatorDataCountrySummaryEmbeddedId--><a href="WorldbankIndicatorDataCountrySummaryEmbeddedId.html" target="_top" xlink:actuate="onRequest" xlink:show="new" xlink:title="WorldbankIndicatorDataCountrySummaryEmbeddedId.html" xlink:type="simple"><rect fill="#FEFECE" filter="url(#ffeb2zpcygm6j)" height="156.375" id="com.hack23.cia.model.internal.application.data.impl.WorldbankIndicatorDataCountrySummaryEmbeddedId" style="stroke: #A80036; stroke-width: 1.5;" width="460" x="6" y="106"/><ellipse cx="47.1" cy="124.9688" fill="#ADD1B2" rx="11" ry="11" style="stroke: #A80036; stroke-width: 1.0;"/><path d="M50.0688,130.6094 Q49.4906,130.9063 48.85,131.0469 Q48.2094,131.2031 47.5063,131.2031 Q45.0063,131.2031 43.6781,129.5625 Q42.3656,127.9063 42.3656,124.7813 Q42.3656,121.6563 43.6781,120 Q45.0063,118.3438 47.5063,118.3438 Q48.2094,118.3438 48.85,118.5 Q49.5063,118.6563 50.0688,118.9531 L50.0688,121.6719 Q49.4438,121.0938 48.85,120.8281 Q48.2563,120.5469 47.6313,120.5469 Q46.2875,120.5469 45.6,121.625 Q44.9125,122.6875 44.9125,124.7813 Q44.9125,126.875 45.6,127.9531 Q46.2875,129.0156 47.6313,129.0156 Q48.2563,129.0156 48.85,128.75 Q49.4438,128.4688 50.0688,127.8906 L50.0688,130.6094 Z "/><text fill="#000000" font-family="sans-serif" font-size="14" lengthAdjust="spacingAndGlyphs" textLength="370" x="66.9" y="123.9951">WorldbankIndicatorDataCountrySummaryEmbeddedId</text><text fill="#000000" font-family="sans-serif" font-size="10" lengthAdjust="spacingAndGlyphs" textLength="248" x="127.9" y="136.5791">com.hack23.cia.model.internal.application.data.impl</text><line style="stroke: #A80036; stroke-width: 1.5;" x1="7" x2="465" y1="143.9375" y2="143.9375"/><polygon fill="none" points="17,150.8398,21,154.8398,17,158.8398,13,154.8398" style="stroke: #B38D22; stroke-width: 1.0;"/><text fill="#000000" font-family="sans-serif" font-size="11" lengthAdjust="spacingAndGlyphs" textLength="101" x="26" y="158.1479">indicatorId: String</text><polygon fill="none" points="17,163.6445,21,167.6445,17,171.6445,13,167.6445" style="stroke: #B38D22; stroke-width: 1.0;"/><text fill="#000000" font-family="sans-serif" font-size="11" lengthAdjust="spacingAndGlyphs" textLength="94" x="26" y="170.9526">countryId: String</text><line style="stroke: #A80036; stroke-width: 1.5;" x1="7" x2="465" y1="177.5469" y2="177.5469"/><ellipse cx="17" cy="189.4492" fill="#84BE84" rx="3" ry="3" style="stroke: #038048; stroke-width: 1.0;"/><text fill="#000000" font-family="sans-serif" font-size="11" lengthAdjust="spacingAndGlyphs" textLength="127" x="26" y="191.7573">getIndicatorId(): String</text><ellipse cx="17" cy="202.2539" fill="#84BE84" rx="3" ry="3" style="stroke: #038048; stroke-width: 1.0;"/><text fill="#000000" font-family="sans-serif" font-size="11" lengthAdjust="spacingAndGlyphs" textLength="150" x="26" y="204.562">setIndicatorId(String): void</text><ellipse cx="17" cy="215.0586" fill="#84BE84" rx="3" ry="3" style="stroke: #038048; stroke-width: 1.0;"/><text fill="#000000" font-family="sans-serif" font-size="11" lengthAdjust="spacingAndGlyphs" textLength="122" x="26" y="217.3667">getCountryId(): String</text><ellipse cx="17" cy="227.8633" fill="#84BE84" rx="3" ry="3" style="stroke: #038048; stroke-width: 1.0;"/><text fill="#000000" font-family="sans-serif" font-size="11" lengthAdjust="spacingAndGlyphs" textLength="145" x="26" y="230.1714">setCountryId(String): void</text><ellipse cx="17" cy="240.668" fill="#84BE84" rx="3" ry="3" style="stroke: #038048; stroke-width: 1.0;"/><text fill="#000000" font-family="sans-serif" font-size="11" lengthAdjust="spacingAndGlyphs" textLength="434" x="26" y="242.9761">withIndicatorId(String): WorldbankIndicatorDataCountrySummaryEmbeddedId</text><ellipse cx="17" cy="253.4727" fill="#84BE84" rx="3" ry="3" style="stroke: #038048; stroke-width: 1.0;"/><text fill="#000000" font-family="sans-serif" font-size="11" lengthAdjust="spacingAndGlyphs" textLength="429" x="26" y="255.7808">withCountryId(String): WorldbankIndicatorDataCountrySummaryEmbeddedId</text></a><!--class com.hack23.cia.model.common.api.ModelObject--><rect fill="#FEFECE" filter="url(#ffeb2zpcygm6j)" height="37.9375" id="com.hack23.cia.model.common.api.ModelObject" style="stroke: #A80036; stroke-width: 1.5;" width="210" x="131" y="8"/><ellipse cx="146" cy="26.9688" fill="#B4A7E5" rx="11" ry="11" style="stroke: #A80036; stroke-width: 1.0;"/><path d="M141.9219,22.7344 L141.9219,20.5781 L149.3125,20.5781 L149.3125,22.7344 L146.8438,22.7344 L146.8438,30.8125 L149.3125,30.8125 L149.3125,32.9688 L141.9219,32.9688 L141.9219,30.8125 L144.3906,30.8125 L144.3906,22.7344 L141.9219,22.7344 Z "/><text fill="#000000" font-family="sans-serif" font-size="14" font-style="italic" lengthAdjust="spacingAndGlyphs" textLength="87" x="205.5" y="25.9951">ModelObject</text><text fill="#000000" font-family="sans-serif" font-size="10" font-style="italic" lengthAdjust="spacingAndGlyphs" textLength="178" x="160" y="38.5791">com.hack23.cia.model.common.api</text><!--link com.hack23.cia.model.common.api.ModelObject to com.hack23.cia.model.internal.application.data.impl.WorldbankIndicatorDataCountrySummaryEmbeddedId--><path d="M236,66.3456 C236,78.3814 236,92.0678 236,105.7444 " fill="none" id="com.hack23.cia.model.common.api.ModelObject-com.hack23.cia.model.internal.application.data.impl.WorldbankIndicatorDataCountrySummaryEmbeddedId" style="stroke: #A80036; stroke-width: 1.0; stroke-dasharray: 7.0,7.0;"/><polygon fill="none" points="229.0001,66.2513,236,46.2513,243.0001,66.2512,229.0001,66.2513" style="stroke: #A80036; stroke-width: 1.0;"/><text fill="#888888" font-family="sans-serif" font-size="10" lengthAdjust="spacingAndGlyphs" textLength="186" x="149" y="281.2822">UMLDoclet 2.0.5, PlantUML 1.2019.08</text><!--
@startuml
    set namespaceSeparator none
    hide empty fields
    hide empty methods

    class "<size:14>WorldbankIndicatorDataCountrySummaryEmbeddedId\n<size:10>com.hack23.cia.model.internal.application.data.impl" as com.hack23.cia.model.internal.application.data.impl.WorldbankIndicatorDataCountrySummaryEmbeddedId [[WorldbankIndicatorDataCountrySummaryEmbeddedId.html]] {
        #indicatorId: String
        #countryId: String
        +getIndicatorId(): String
        +setIndicatorId(String): void
        +getCountryId(): String
        +setCountryId(String): void
        +withIndicatorId(String): WorldbankIndicatorDataCountrySummaryEmbeddedId
        +withCountryId(String): WorldbankIndicatorDataCountrySummaryEmbeddedId
    }

    interface "<size:14>ModelObject\n<size:10>com.hack23.cia.model.common.api" as com.hack23.cia.model.common.api.ModelObject

    com.hack23.cia.model.common.api.ModelObject <|.. com.hack23.cia.model.internal.application.data.impl.WorldbankIndicatorDataCountrySummaryEmbeddedId

    center footer UMLDoclet 2.0.5, PlantUML 1.2019.08
@enduml

PlantUML version 1.2019.08(Sat Jul 13 21:25:14 CEST 2019)
(APACHE source distribution)
Java Runtime: OpenJDK Runtime Environment
JVM: OpenJDK 64-Bit Server VM
Java Version: 11.0.4+11-post-Ubuntu-1ubuntu219.04
Operating System: Linux
OS Version: 5.0.0-27-generic
Default Encoding: UTF-8
Language: en
Country: US
--></g></svg>