<svg xmlns="http://www.w3.org/2000/svg" xmlns:xlink="http://www.w3.org/1999/xlink" contentStyleType="text/css" height="331px" preserveAspectRatio="none" style="width:448px;height:331px;background:#FFFFFF;" version="1.1" viewBox="0 0 448 331" width="448px" zoomAndPan="magnify"><defs/><g><!--class com.hack23.cia.web.impl.ui.application.views.common.pagelinks.api.PageModeMenuCommand--><a href="PageModeMenuCommand.html" target="_top" title="PageModeMenuCommand.html" xlink:actuate="onRequest" xlink:href="PageModeMenuCommand.html" xlink:show="new" xlink:title="PageModeMenuCommand.html" xlink:type="simple"><g id="elem_com.hack23.cia.web.impl.ui.application.views.common.pagelinks.api.PageModeMenuCommand"><rect codeLine="13" fill="#F1F1F1" height="184.1633" id="com.hack23.cia.web.impl.ui.application.views.common.pagelinks.api.PageModeMenuCommand" rx="2.5" ry="2.5" style="stroke:#181818;stroke-width:0.5;" width="375.4947" x="40" y="118"/><ellipse cx="64.9337" cy="139.344" fill="#ADD1B2" rx="11" ry="11" style="stroke:#181818;stroke-width:1.0;"/><path d="M67.9025,144.9846 Q67.3244,145.2815 66.6837,145.4221 Q66.0431,145.5783 65.34,145.5783 Q62.84,145.5783 61.5119,143.9377 Q60.1994,142.2815 60.1994,139.1565 Q60.1994,136.0315 61.5119,134.3752 Q62.84,132.719 65.34,132.719 Q66.0431,132.719 66.6837,132.8752 Q67.34,133.0315 67.9025,133.3283 L67.9025,136.0471 Q67.2775,135.469 66.6837,135.2033 Q66.09,134.9221 65.465,134.9221 Q64.1212,134.9221 63.4337,136.0002 Q62.7462,137.0627 62.7462,139.1565 Q62.7462,141.2502 63.4337,142.3283 Q64.1212,143.3908 65.465,143.3908 Q66.09,143.3908 66.6837,143.1252 Q67.2775,142.844 67.9025,142.2658 L67.9025,144.9846 Z " fill="#000000"/><text fill="#000000" font-family="sans-serif" font-size="14" lengthAdjust="spacing" textLength="177.0153" x="153.3434" y="137.9659">PageModeMenuCommand</text><text fill="#000000" font-family="sans-serif" font-size="10" lengthAdjust="spacing" textLength="321.4197" x="81.1412" y="152.7579">com.hack23.cia.web.impl.ui.application.views.common.pagelinks.api</text><line style="stroke:#181818;stroke-width:0.5;" x1="41" x2="414.4947" y1="160.6879" y2="160.6879"/><ellipse cx="51" cy="175.7219" fill="#84BE84" rx="3" ry="3" style="stroke:#038048;stroke-width:1.0;"/><text fill="#000000" font-family="sans-serif" font-size="14" lengthAdjust="spacing" textLength="302.7068" x="60" y="179.6538">PageModeMenuCommand(String, PageMode)</text><ellipse cx="51" cy="194.7898" fill="#84BE84" rx="3" ry="3" style="stroke:#038048;stroke-width:1.0;"/><text fill="#000000" font-family="sans-serif" font-size="14" lengthAdjust="spacing" textLength="349.4947" x="60" y="198.7218">PageModeMenuCommand(String, PageMode, String)</text><ellipse cx="51" cy="213.8577" fill="#84BE84" rx="3" ry="3" style="stroke:#038048;stroke-width:1.0;"/><text fill="#000000" font-family="sans-serif" font-size="14" lengthAdjust="spacing" textLength="271.599" x="60" y="217.7897">PageModeMenuCommand(String, String)</text><ellipse cx="51" cy="232.9256" fill="#84BE84" rx="3" ry="3" style="stroke:#038048;stroke-width:1.0;"/><text fill="#000000" font-family="sans-serif" font-size="14" lengthAdjust="spacing" textLength="318.3868" x="60" y="236.8576">PageModeMenuCommand(String, String, String)</text><ellipse cx="51" cy="251.9935" fill="#84BE84" rx="3" ry="3" style="stroke:#038048;stroke-width:1.0;"/><text fill="#000000" font-family="sans-serif" font-size="14" lengthAdjust="spacing" textLength="185.1212" x="60" y="255.9255">buttonClick(ClickEvent): void</text><ellipse cx="51" cy="271.0614" fill="#84BE84" rx="3" ry="3" style="stroke:#038048;stroke-width:1.0;"/><text fill="#000000" font-family="sans-serif" font-size="14" lengthAdjust="spacing" textLength="139.6075" x="60" y="274.9934">getPagePath(): String</text><ellipse cx="51" cy="290.1294" fill="#84BE84" rx="3" ry="3" style="stroke:#038048;stroke-width:1.0;"/><text fill="#000000" font-family="sans-serif" font-size="14" lengthAdjust="spacing" textLength="205.9392" x="60" y="294.0613">menuSelected(MenuItem): void</text></g></a><!--class com.vaadin.ui.MenuBar.Command--><g id="elem_com.vaadin.ui.MenuBar.Command"><rect codeLine="23" fill="#F1F1F1" height="69.7558" id="com.vaadin.ui.MenuBar.Command" rx="2.5" ry="2.5" style="stroke:#181818;stroke-width:0.5;" width="217.0573" x="6" y="12"/><ellipse cx="47.9162" cy="33.344" fill="#B4A7E5" rx="11" ry="11" style="stroke:#181818;stroke-width:1.0;"/><path d="M43.8381,29.1096 L43.8381,26.9533 L51.2287,26.9533 L51.2287,29.1096 L48.76,29.1096 L48.76,37.1877 L51.2287,37.1877 L51.2287,39.344 L43.8381,39.344 L43.8381,37.1877 L46.3068,37.1877 L46.3068,29.1096 L43.8381,29.1096 Z " fill="#000000"/><text fill="#000000" font-family="sans-serif" font-size="14" font-style="italic" lengthAdjust="spacing" textLength="125.2435" x="67.8976" y="31.9659">MenuBar.Command</text><text fill="#000000" font-family="sans-serif" font-size="10" font-style="italic" lengthAdjust="spacing" textLength="62.5899" x="99.2244" y="46.7579">com.vaadin.ui</text><line style="stroke:#181818;stroke-width:0.5;" x1="7" x2="222.0573" y1="54.6879" y2="54.6879"/><ellipse cx="17" cy="69.7219" fill="#84BE84" rx="3" ry="3" style="stroke:#038048;stroke-width:1.0;"/><text fill="#000000" font-family="sans-serif" font-size="14" font-style="italic" lengthAdjust="spacing" textLength="191.0573" x="26" y="73.6538">menuSelected(MenuItem): void</text></g><!--class com.vaadin.ui.Button.ClickListener--><g id="elem_com.vaadin.ui.Button.ClickListener"><rect codeLine="26" fill="#F1F1F1" height="69.7558" id="com.vaadin.ui.Button.ClickListener" rx="2.5" ry="2.5" style="stroke:#181818;stroke-width:0.5;" width="199.8794" x="241.5" y="12"/><ellipse cx="276.8138" cy="33.344" fill="#B4A7E5" rx="11" ry="11" style="stroke:#181818;stroke-width:1.0;"/><path d="M272.7357,29.1096 L272.7357,26.9533 L280.1263,26.9533 L280.1263,29.1096 L277.6576,29.1096 L277.6576,37.1877 L280.1263,37.1877 L280.1263,39.344 L272.7357,39.344 L272.7357,37.1877 L275.2044,37.1877 L275.2044,29.1096 L272.7357,29.1096 Z " fill="#000000"/><text fill="#000000" font-family="sans-serif" font-size="14" font-style="italic" lengthAdjust="spacing" textLength="122.7375" x="295.328" y="31.9659">Button.ClickListener</text><text fill="#000000" font-family="sans-serif" font-size="10" font-style="italic" lengthAdjust="spacing" textLength="62.5899" x="325.4018" y="46.7579">com.vaadin.ui</text><line style="stroke:#181818;stroke-width:0.5;" x1="242.5" x2="440.3794" y1="54.6879" y2="54.6879"/><ellipse cx="252.5" cy="69.7219" fill="#84BE84" rx="3" ry="3" style="stroke:#038048;stroke-width:1.0;"/><text fill="#000000" font-family="sans-serif" font-size="14" font-style="italic" lengthAdjust="spacing" textLength="173.8794" x="261.5" y="73.6538">buttonClick(ClickEvent): void</text></g><polygon fill="none" points="138.4644,82.144,143.894,100.3241,153.7162,93.4303,138.4644,82.144" style="stroke:#181818;stroke-width:1.0;"/><path d="M148.8051,96.8772 C156.3202,107.5846 154.6596,105.2185 163.591,117.9438 " fill="none" style="stroke:#181818;stroke-width:1.0;stroke-dasharray:7.0,7.0;"/><polygon fill="none" points="317.3235,82.144,302.025,93.3669,311.8185,100.3015,317.3235,82.144" style="stroke:#181818;stroke-width:1.0;"/><path d="M306.9218,96.8342 C299.3401,107.5416 300.985,105.2185 291.9746,117.9438 " fill="none" style="stroke:#181818;stroke-width:1.0;stroke-dasharray:7.0,7.0;"/><text fill="#888888" font-family="sans-serif" font-size="10" lengthAdjust="spacing" textLength="2.6" x="218.95" y="306.69">&#160;</text><a href="https://github.com/talsma-ict/umldoclet" target="_top" title="https://github.com/talsma-ict/umldoclet" xlink:actuate="onRequest" xlink:href="https://github.com/talsma-ict/umldoclet" xlink:show="new" xlink:title="https://github.com/talsma-ict/umldoclet" xlink:type="simple"><text fill="#888888" font-family="sans-serif" font-size="10" lengthAdjust="spacing" textLength="76.7199" x="181.89" y="320.31">UMLDoclet 2.2.1</text></a><!--SRC=[jLLBJzj04BxpAwRqq22IZUr0IgC82LBKKWK9DU4KSjZOatWLUzVT7GUbbF_UiHD2GAQ5LlXWo_Fuvfl7pW80V82UoPPMpM82Ca2nSd1rqGUf8vYXHYi98r2fdA632IP6pzpA447c51iBPbh-XSPQT9dHaT8p-2ON4fp9ROXExEn06MfuZtuZtHRwP5a8FvimGO9QRs-BKk3vxKRW1GSmb8bB9PptXcADzk0JY43umDY92b4xXinrXBQaTPB9a3_zbQOE2xHE6Sq-tXgdI3KqcgJI3Z9foHKfNIPIKy7L5qLyyH5g9uF-OsxUfv9R7Kwibda4tysFV9FkkypA6JDEvDBa12v5abgkT8v9QvbokMI80-IWahYIscWizR6A433DQ0bJXKdadaePB3OiBkLX8fs3tQvJFx7Z7nnVShCkJ8GNgFEUILDEy5gljTvnQ58Hot0Uj4IefBZ1YL1fbeXS2PbbN459N1-nK7ZZ11kd_9CnOgBqtB69sWNktd-ZY0gMC1fLI4LCQJ8UmssPRF7iLrZL1cHvyEfmhzjxdNaTLf8Nkls3SONJ92SokiVbcjVAzza2DUrrO65Kz60sGohWBoN5DLQkO1xKAOSSO88X7wPQ4V-SCDq6kLlDYTA4TieJjpKhXVcfjA9wJXPIycdcfcvwlf689vvRxRcL4qTMXdJt8cxFKJijYoFAklILes9Vl89VbVip9F_UXdK5_ro1xYyXtkPWL0IlJEyD6PGKkewM2HvlYZWrXXvLjNY-BZEqVGRhcOINslkZQkrLiQ8v9lAj4CuryWhpDfQhgUWsj-AjOrthqIWcobodsPmfYlD9aKEJokkXeK9gvcaIhUw59pV4UBpU-5ysLq-nlXj-q0YEXlvXvx3TQHsATj1k-PxVQkzxViVpHcUvDHas1sJ2UMoITFmR]--></g></svg>