<?xml version="1.0" encoding="UTF-8" standalone="no"?><svg xmlns="http://www.w3.org/2000/svg" xmlns:xlink="http://www.w3.org/1999/xlink" contentStyleType="text/css" height="348px" preserveAspectRatio="none" style="width:471px;height:348px;background:#FFFFFF;" version="1.1" viewBox="0 0 471 348" width="471px" zoomAndPan="magnify"><defs/><g><!--MD5=[9ad39903597e3d6f084eb531a4cef123]
class com.hack23.cia.web.impl.ui.application.views.common.pagelinks.api.PageModeMenuCommand--><a href="PageModeMenuCommand.html" target="_top" title="PageModeMenuCommand.html" xlink:actuate="onRequest" xlink:href="PageModeMenuCommand.html" xlink:show="new" xlink:title="PageModeMenuCommand.html" xlink:type="simple"><g id="elem_com.hack23.cia.web.impl.ui.application.views.common.pagelinks.api.PageModeMenuCommand"><rect codeLine="5" fill="#F1F1F1" height="184.1633" id="com.hack23.cia.web.impl.ui.application.views.common.pagelinks.api.PageModeMenuCommand" rx="2.5" ry="2.5" style="stroke:#181818;stroke-width:0.5;" width="382" x="48.5" y="137"/><ellipse cx="72.05" cy="158.344" fill="#ADD1B2" rx="11" ry="11" style="stroke:#181818;stroke-width:1.0;"/><path d="M75.0188,163.9846 Q74.4406,164.2815 73.8,164.4221 Q73.1594,164.5783 72.4563,164.5783 Q69.9563,164.5783 68.6281,162.9377 Q67.3156,161.2815 67.3156,158.1565 Q67.3156,155.0315 68.6281,153.3752 Q69.9563,151.719 72.4563,151.719 Q73.1594,151.719 73.8,151.8752 Q74.4563,152.0315 75.0188,152.3283 L75.0188,155.0471 Q74.3938,154.469 73.8,154.2033 Q73.2063,153.9221 72.5813,153.9221 Q71.2375,153.9221 70.55,155.0002 Q69.8625,156.0627 69.8625,158.1565 Q69.8625,160.2502 70.55,161.3283 Q71.2375,162.3908 72.5813,162.3908 Q73.2063,162.3908 73.8,162.1252 Q74.3938,161.844 75.0188,161.2658 L75.0188,163.9846 Z " fill="#000000"/><text fill="#000000" font-family="sans-serif" font-size="14" lengthAdjust="spacing" textLength="179" x="163.95" y="156.9659">PageModeMenuCommand</text><text fill="#000000" font-family="sans-serif" font-size="10" lengthAdjust="spacing" textLength="331" x="87.95" y="171.7579">com.hack23.cia.web.impl.ui.application.views.common.pagelinks.api</text><line style="stroke:#181818;stroke-width:0.5;" x1="49.5" x2="429.5" y1="179.6879" y2="179.6879"/><ellipse cx="59.5" cy="194.7219" fill="#84BE84" rx="3" ry="3" style="stroke:#038048;stroke-width:1.0;"/><text fill="#000000" font-family="sans-serif" font-size="14" lengthAdjust="spacing" textLength="307" x="68.5" y="198.6538">PageModeMenuCommand(String, PageMode)</text><ellipse cx="59.5" cy="213.7898" fill="#84BE84" rx="3" ry="3" style="stroke:#038048;stroke-width:1.0;"/><text fill="#000000" font-family="sans-serif" font-size="14" lengthAdjust="spacing" textLength="356" x="68.5" y="217.7218">PageModeMenuCommand(String, PageMode, String)</text><ellipse cx="59.5" cy="232.8577" fill="#84BE84" rx="3" ry="3" style="stroke:#038048;stroke-width:1.0;"/><text fill="#000000" font-family="sans-serif" font-size="14" lengthAdjust="spacing" textLength="277" x="68.5" y="236.7897">PageModeMenuCommand(String, String)</text><ellipse cx="59.5" cy="251.9256" fill="#84BE84" rx="3" ry="3" style="stroke:#038048;stroke-width:1.0;"/><text fill="#000000" font-family="sans-serif" font-size="14" lengthAdjust="spacing" textLength="326" x="68.5" y="255.8576">PageModeMenuCommand(String, String, String)</text><ellipse cx="59.5" cy="270.9935" fill="#84BE84" rx="3" ry="3" style="stroke:#038048;stroke-width:1.0;"/><text fill="#000000" font-family="sans-serif" font-size="14" lengthAdjust="spacing" textLength="188" x="68.5" y="274.9255">buttonClick(ClickEvent): void</text><ellipse cx="59.5" cy="290.0614" fill="#84BE84" rx="3" ry="3" style="stroke:#038048;stroke-width:1.0;"/><text fill="#000000" font-family="sans-serif" font-size="14" lengthAdjust="spacing" textLength="142" x="68.5" y="293.9934">getPagePath(): String</text><ellipse cx="59.5" cy="309.1294" fill="#84BE84" rx="3" ry="3" style="stroke:#038048;stroke-width:1.0;"/><text fill="#000000" font-family="sans-serif" font-size="14" lengthAdjust="spacing" textLength="210" x="68.5" y="313.0613">menuSelected(MenuItem): void</text></g></a><!--MD5=[e593bd8ab1cef72060c569122393cb80]
class com.vaadin.ui.MenuBar.Command--><g id="elem_com.vaadin.ui.MenuBar.Command"><rect codeLine="15" fill="#F1F1F1" height="69.7558" id="com.vaadin.ui.MenuBar.Command" rx="2.5" ry="2.5" style="stroke:#181818;stroke-width:0.5;" width="219" x="7" y="7"/><ellipse cx="49.9" cy="28.344" fill="#B4A7E5" rx="11" ry="11" style="stroke:#181818;stroke-width:1.0;"/><path d="M45.8219,24.1096 L45.8219,21.9533 L53.2125,21.9533 L53.2125,24.1096 L50.7438,24.1096 L50.7438,32.1877 L53.2125,32.1877 L53.2125,34.344 L45.8219,34.344 L45.8219,32.1877 L48.2906,32.1877 L48.2906,24.1096 L45.8219,24.1096 Z " fill="#000000"/><text fill="#000000" font-family="sans-serif" font-size="14" font-style="italic" lengthAdjust="spacing" textLength="125" x="70.1" y="26.9659">MenuBar.Command</text><text fill="#000000" font-family="sans-serif" font-size="10" font-style="italic" lengthAdjust="spacing" textLength="67" x="99.1" y="41.7579">com.vaadin.ui</text><line style="stroke:#181818;stroke-width:0.5;" x1="8" x2="225" y1="49.6879" y2="49.6879"/><ellipse cx="18" cy="64.7219" fill="#84BE84" rx="3" ry="3" style="stroke:#038048;stroke-width:1.0;"/><text fill="#000000" font-family="sans-serif" font-size="14" font-style="italic" lengthAdjust="spacing" textLength="193" x="27" y="68.6538">menuSelected(MenuItem): void</text></g><!--MD5=[c8b74d6c3e7b4a4086db53b8a4347040]
class com.vaadin.ui.Button.ClickListener--><g id="elem_com.vaadin.ui.Button.ClickListener"><rect codeLine="18" fill="#F1F1F1" height="69.7558" id="com.vaadin.ui.Button.ClickListener" rx="2.5" ry="2.5" style="stroke:#181818;stroke-width:0.5;" width="203" x="261" y="7"/><ellipse cx="296.7" cy="28.344" fill="#B4A7E5" rx="11" ry="11" style="stroke:#181818;stroke-width:1.0;"/><path d="M292.6219,24.1096 L292.6219,21.9533 L300.0125,21.9533 L300.0125,24.1096 L297.5438,24.1096 L297.5438,32.1877 L300.0125,32.1877 L300.0125,34.344 L292.6219,34.344 L292.6219,32.1877 L295.0906,32.1877 L295.0906,24.1096 L292.6219,24.1096 Z " fill="#000000"/><text fill="#000000" font-family="sans-serif" font-size="14" font-style="italic" lengthAdjust="spacing" textLength="125" x="315.3" y="26.9659">Button.ClickListener</text><text fill="#000000" font-family="sans-serif" font-size="10" font-style="italic" lengthAdjust="spacing" textLength="67" x="344.3" y="41.7579">com.vaadin.ui</text><line style="stroke:#181818;stroke-width:0.5;" x1="262" x2="463" y1="49.6879" y2="49.6879"/><ellipse cx="272" cy="64.7219" fill="#84BE84" rx="3" ry="3" style="stroke:#038048;stroke-width:1.0;"/><text fill="#000000" font-family="sans-serif" font-size="14" font-style="italic" lengthAdjust="spacing" textLength="177" x="281" y="68.6538">buttonClick(ClickEvent): void</text></g><!--MD5=[4f43b2e422d671382f66b560ef145fab]
reverse link com.vaadin.ui.MenuBar.Command to com.hack23.cia.web.impl.ui.application.views.common.pagelinks.api.PageModeMenuCommand--><g id="link_com.vaadin.ui.MenuBar.Command_com.hack23.cia.web.impl.ui.application.views.common.pagelinks.api.PageModeMenuCommand"><path codeLine="22" d="M150.66,94.38 C159.45,107.59 169.17,122.21 178.86,136.79 " fill="none" id="com.vaadin.ui.MenuBar.Command-backto-com.hack23.cia.web.impl.ui.application.views.common.pagelinks.api.PageModeMenuCommand" style="stroke:#181818;stroke-width:1.0;stroke-dasharray:7.0,7.0;"/><polygon fill="none" points="144.59,97.89,139.35,77.36,156.25,90.14,144.59,97.89" style="stroke:#181818;stroke-width:1.0;"/></g><!--MD5=[0cbfbdd1fae41beb5b2bb1689ea8c98d]
reverse link com.vaadin.ui.Button.ClickListener to com.hack23.cia.web.impl.ui.application.views.common.pagelinks.api.PageModeMenuCommand--><g id="link_com.vaadin.ui.Button.ClickListener_com.hack23.cia.web.impl.ui.application.views.common.pagelinks.api.PageModeMenuCommand"><path codeLine="23" d="M328.34,94.38 C319.55,107.59 309.83,122.21 300.14,136.79 " fill="none" id="com.vaadin.ui.Button.ClickListener-backto-com.hack23.cia.web.impl.ui.application.views.common.pagelinks.api.PageModeMenuCommand" style="stroke:#181818;stroke-width:1.0;stroke-dasharray:7.0,7.0;"/><polygon fill="none" points="322.75,90.14,339.65,77.36,334.41,97.89,322.75,90.14" style="stroke:#181818;stroke-width:1.0;"/></g><rect fill="none" height="13.62" style="stroke:none;stroke-width:1.0;" width="188" x="134.5" y="327.1633"/><text fill="#888888" font-family="sans-serif" font-size="10" lengthAdjust="spacing" textLength="188" x="134.5" y="337.8533">UMLDoclet 2.0.20, PlantUML 1.2022.12</text><!--MD5=[79667a67aeefbea274653453baf7b225]
@startuml
    set namespaceSeparator none
    hide empty fields
    hide empty methods

    class "<size:14>PageModeMenuCommand\n<size:10>com.hack23.cia.web.impl.ui.application.views.common.pagelinks.api" as com.hack23.cia.web.impl.ui.application.views.common.pagelinks.api.PageModeMenuCommand [[PageModeMenuCommand.html]] {
        +PageModeMenuCommand(String, PageMode)
        +PageModeMenuCommand(String, PageMode, String)
        +PageModeMenuCommand(String, String)
        +PageModeMenuCommand(String, String, String)
        +buttonClick(ClickEvent): void
        +getPagePath(): String
        +menuSelected(MenuItem): void
    }

    interface "<size:14>MenuBar.Command\n<size:10>com.vaadin.ui" as com.vaadin.ui.MenuBar.Command {
        {abstract} +menuSelected(MenuItem): void
    }
    interface "<size:14>Button.ClickListener\n<size:10>com.vaadin.ui" as com.vaadin.ui.Button.ClickListener {
        {abstract} +buttonClick(ClickEvent): void
    }

    com.vaadin.ui.MenuBar.Command <|.. com.hack23.cia.web.impl.ui.application.views.common.pagelinks.api.PageModeMenuCommand
    com.vaadin.ui.Button.ClickListener <|.. com.hack23.cia.web.impl.ui.application.views.common.pagelinks.api.PageModeMenuCommand

    center footer UMLDoclet 2.0.20, PlantUML 1.2022.12
@enduml

PlantUML version 1.2022.12(Sun Oct 23 20:12:26 CEST 2022)
(APACHE source distribution)
Java Runtime: OpenJDK Runtime Environment
JVM: OpenJDK 64-Bit Server VM
Default Encoding: UTF-8
Language: 
Country: 
--></g></svg>