<svg xmlns="http://www.w3.org/2000/svg" xmlns:xlink="http://www.w3.org/1999/xlink" contentStyleType="text/css" height="325px" preserveAspectRatio="none" style="width:587px;height:325px;background:#FFFFFF;" version="1.1" viewBox="0 0 587 325" width="587px" zoomAndPan="magnify"><defs/><g><!--cluster com.hack23.cia.web.impl.ui.application.views.common.paging--><g id="cluster_com.hack23.cia.web.impl.ui.application.views.common.paging"><path d="M16.5,4 L453.9903,4 A3.75,3.75 0 0 1 456.4903,6.5 L463.4903,29.0679 L577.5,29.0679 A2.5,2.5 0 0 1 580,31.5679 L580,285.5 A2.5,2.5 0 0 1 577.5,288 L16.5,288 A2.5,2.5 0 0 1 14,285.5 L14,6.5 A2.5,2.5 0 0 1 16.5,4 " fill="none" style="stroke:#000000;stroke-width:1.5;"/><line style="stroke:#000000;stroke-width:1.5;" x1="14" x2="463.4903" y1="29.0679" y2="29.0679"/><text fill="#000000" font-family="sans-serif" font-size="14" font-weight="bold" lengthAdjust="spacing" textLength="436.4903" x="18" y="20.9659">com.hack23.cia.web.impl.ui.application.views.common.paging</text></g><!--class PagingUtil--><a href="PagingUtil.html" target="_top" title="PagingUtil.html" xlink:actuate="onRequest" xlink:href="PagingUtil.html" xlink:show="new" xlink:title="PagingUtil.html" xlink:type="simple"><g id="elem_PagingUtil"><rect codeLine="12" fill="#F1F1F1" height="67.0679" id="PagingUtil" rx="2.5" ry="2.5" style="stroke:#181818;stroke-width:0.5;" width="520.044" x="37" y="34"/><ellipse cx="260.1871" cy="50" fill="#B4A7E5" rx="11" ry="11" style="stroke:#181818;stroke-width:1.0;"/><path d="M256.109,45.7656 L256.109,43.6094 L263.4996,43.6094 L263.4996,45.7656 L261.0309,45.7656 L261.0309,53.8438 L263.4996,53.8438 L263.4996,56 L256.109,56 L256.109,53.8438 L258.5778,53.8438 L258.5778,45.7656 L256.109,45.7656 Z " fill="#000000"/><text fill="#000000" font-family="sans-serif" font-size="14" font-style="italic" lengthAdjust="spacing" textLength="65.1698" x="280.6871" y="55.432">PagingUtil</text><line style="stroke:#181818;stroke-width:0.5;" x1="38" x2="556.044" y1="66" y2="66"/><line style="stroke:#181818;stroke-width:0.5;" x1="38" x2="556.044" y1="74" y2="74"/><ellipse cx="48" cy="89.034" fill="#84BE84" rx="3" ry="3" style="stroke:#038048;stroke-width:1.0;"/><text fill="#000000" font-family="sans-serif" font-size="14" font-style="italic" lengthAdjust="spacing" textLength="494.044" x="57" y="92.9659">createPagingControls(AbstractOrderedLayout, String, String, Long, int, int): void</text></g></a><!--class PagingUtilImpl--><a href="PagingUtilImpl.html" target="_top" title="PagingUtilImpl.html" xlink:actuate="onRequest" xlink:href="PagingUtilImpl.html" xlink:show="new" xlink:title="PagingUtilImpl.html" xlink:type="simple"><g id="elem_PagingUtilImpl"><rect codeLine="16" fill="#F1F1F1" height="143.3396" id="PagingUtilImpl" rx="2.5" ry="2.5" style="stroke:#181818;stroke-width:0.5;" width="550.3962" x="22" y="137"/><ellipse cx="243.7593" cy="153" fill="#ADD1B2" rx="11" ry="11" style="stroke:#181818;stroke-width:1.0;"/><path d="M246.728,158.6406 Q246.1499,158.9375 245.5093,159.0781 Q244.8686,159.2344 244.1655,159.2344 Q241.6655,159.2344 240.3374,157.5938 Q239.0249,155.9375 239.0249,152.8125 Q239.0249,149.6875 240.3374,148.0313 Q241.6655,146.375 244.1655,146.375 Q244.8686,146.375 245.5093,146.5313 Q246.1655,146.6875 246.728,146.9844 L246.728,149.7031 Q246.103,149.125 245.5093,148.8594 Q244.9155,148.5781 244.2905,148.5781 Q242.9468,148.5781 242.2593,149.6563 Q241.5718,150.7188 241.5718,152.8125 Q241.5718,154.9063 242.2593,155.9844 Q242.9468,157.0469 244.2905,157.0469 Q244.9155,157.0469 245.5093,156.7813 Q246.103,156.5 246.728,155.9219 L246.728,158.6406 Z " fill="#000000"/><text fill="#000000" font-family="sans-serif" font-size="14" lengthAdjust="spacing" textLength="98.3776" x="264.2593" y="158.432">PagingUtilImpl</text><line style="stroke:#181818;stroke-width:0.5;" x1="23" x2="571.3962" y1="169" y2="169"/><ellipse cx="33" cy="184.034" fill="none" rx="3" ry="3" style="stroke:#038048;stroke-width:1.0;"/><text fill="#000000" font-family="sans-serif" font-size="14" lengthAdjust="spacing" text-decoration="underline" textLength="124.5855" x="42" y="187.9659">FIRST_PAGE: String</text><ellipse cx="33" cy="203.1019" fill="none" rx="3" ry="3" style="stroke:#038048;stroke-width:1.0;"/><text fill="#000000" font-family="sans-serif" font-size="14" lengthAdjust="spacing" text-decoration="underline" textLength="120.1475" x="42" y="207.0339">LAST_PAGE: String</text><ellipse cx="33" cy="222.1698" fill="none" rx="3" ry="3" style="stroke:#038048;stroke-width:1.0;"/><text fill="#000000" font-family="sans-serif" font-size="14" lengthAdjust="spacing" text-decoration="underline" textLength="122.8075" x="42" y="226.1018">NEXT_PAGE: String</text><ellipse cx="33" cy="241.2377" fill="none" rx="3" ry="3" style="stroke:#038048;stroke-width:1.0;"/><text fill="#000000" font-family="sans-serif" font-size="14" lengthAdjust="spacing" text-decoration="underline" textLength="155.3574" x="42" y="245.1697">PREVIOUS_PAGE: String</text><line style="stroke:#181818;stroke-width:0.5;" x1="23" x2="571.3962" y1="253.2717" y2="253.2717"/><ellipse cx="33" cy="268.3056" fill="#84BE84" rx="3" ry="3" style="stroke:#038048;stroke-width:1.0;"/><text fill="#000000" font-family="sans-serif" font-size="14" lengthAdjust="spacing" textLength="524.3962" x="42" y="272.2376">createPagingControls(AbstractOrderedLayout, String, String, Long, int, int): void</text></g></a><polygon fill="none" points="297,101.0893,291,119.0893,303,119.0893,297,101.0893" style="stroke:#181818;stroke-width:1.0;"/><path d="M297,119.0893 C297,129.8418 297,124.2549 297,136.7227 " fill="none" style="stroke:#181818;stroke-width:1.0;stroke-dasharray:7.0,7.0;"/><text fill="#888888" font-family="sans-serif" font-size="10" lengthAdjust="spacing" textLength="2.6" x="284.2" y="300.69">&#160;</text><a href="https://github.com/talsma-ict/umldoclet" target="_top" title="https://github.com/talsma-ict/umldoclet" xlink:actuate="onRequest" xlink:href="https://github.com/talsma-ict/umldoclet" xlink:show="new" xlink:title="https://github.com/talsma-ict/umldoclet" xlink:type="simple"><text fill="#888888" font-family="sans-serif" font-size="10" lengthAdjust="spacing" textLength="76.7199" x="247.14" y="314.31">UMLDoclet 2.2.1</text></a><!--SRC=[jPHRQzim583V-olEsCDQsYYsqwifWv1bNOQtXYOPWomCHLPj4Ldo93abTFtlExuiSSiAPMnwa2oVstUEf0C0y0O6EjyOaQGEd0QN2WkpJn5G5KF25JVKyHX4HXDkOScbLecj5JdGmgNQWBwjTamRmsskLInK0X_fceBLXM7Sahqzg49DVtk_exRbVRafVxxJJ787-uE35bBW-QUTm0jEOKgbpIYC1bFIUDlP12GWFg1lAHXN5bqMAkQcmkhdbE4IrP8ZM7DZXLPeupL-obIPLeuAPI6dnjaofR6aofMiFi7un-GCzlkJw36RTr6n7K7VA5h4SAD_5DjqN-M69aWiwKON3cp67LMq4bbajXn3KOVr2yFQ045NM6PaoKYAtq6FC4797LyIaUMI58BGFCSKgSC4o5hmEqjGESDDJfEowlUrft88vRYvfOp3k9BDd90md-ys97MPN2pG1bhZdYwjCvIv1pXaXkFvr1O3B93Hqkxt6_crmGhpEAgoEuA9CwYrMoDTpWXHJGSXhBM8jv4UTfnCKcjRZ2DCzH5d-UCPLkkm50n9tuzk9jFlu_xLC6m8db6C-Y_J-ppy-YAzyStmo-XwDdbUz_zNiLd-_jg4OUkANFuav1_vAa-kPhkqRYFvsotvhTPuEvySvuTDpaqar6gW9JwBr-T_bixAfos5ujXDs4fnl3rUgoHLk6uhNXFhcvhFK-To6tQxYN1fiIp1kwvgAnt1NBV8P5ptaoUTPR5eEiNLjcMLpxxZ1HslD_LxuN4GUXxnByvF_EFUsScXv-D-FYoCpdbtuZHRfLfcYry0]--></g></svg>