<?xml version="1.0" encoding="UTF-8" standalone="no"?><svg xmlns="http://www.w3.org/2000/svg" xmlns:xlink="http://www.w3.org/1999/xlink" contentScriptType="application/ecmascript" contentStyleType="text/css" height="132px" preserveAspectRatio="none" style="width:281px;height:132px;" version="1.1" viewBox="0 0 281 132" width="281px" zoomAndPan="magnify"><defs><filter height="300%" id="f15quf839se4ef" width="300%" x="-1" y="-1"><feGaussianBlur result="blurOut" stdDeviation="2.0"/><feColorMatrix in="blurOut" result="blurOut2" type="matrix" values="0 0 0 0 0 0 0 0 0 0 0 0 0 0 0 0 0 0 .4 0"/><feOffset dx="4.0" dy="4.0" in="blurOut2" result="blurOut3"/><feBlend in="SourceGraphic" in2="blurOut3" mode="normal"/></filter></defs><g><!--class com.hack23.cia.web.impl.ui.application.util.WebBrowserUtil--><a href="WebBrowserUtil.html" target="_top" xlink:actuate="onRequest" xlink:show="new" xlink:title="WebBrowserUtil.html" xlink:type="simple"><rect fill="#FEFECE" filter="url(#f15quf839se4ef)" height="92.3516" id="com.hack23.cia.web.impl.ui.application.util.WebBrowserUtil" style="stroke: #A80036; stroke-width: 1.5;" width="264" x="6" y="8"/><ellipse cx="34.5" cy="26.9688" fill="#ADD1B2" rx="11" ry="11" style="stroke: #A80036; stroke-width: 1.0;"/><path d="M37.4688,32.6094 Q36.8906,32.9063 36.25,33.0469 Q35.6094,33.2031 34.9063,33.2031 Q32.4063,33.2031 31.0781,31.5625 Q29.7656,29.9063 29.7656,26.7813 Q29.7656,23.6563 31.0781,22 Q32.4063,20.3438 34.9063,20.3438 Q35.6094,20.3438 36.25,20.5 Q36.9063,20.6563 37.4688,20.9531 L37.4688,23.6719 Q36.8438,23.0938 36.25,22.8281 Q35.6563,22.5469 35.0313,22.5469 Q33.6875,22.5469 33,23.625 Q32.3125,24.6875 32.3125,26.7813 Q32.3125,28.875 33,29.9531 Q33.6875,31.0156 35.0313,31.0156 Q35.6563,31.0156 36.25,30.75 Q36.8438,30.4688 37.4688,29.8906 L37.4688,32.6094 Z "/><text fill="#000000" font-family="sans-serif" font-size="14" lengthAdjust="spacingAndGlyphs" textLength="109" x="98" y="25.9951">WebBrowserUtil</text><text fill="#000000" font-family="sans-serif" font-size="10" lengthAdjust="spacingAndGlyphs" textLength="202" x="51.5" y="38.5791">com.hack23.cia.web.impl.ui.application.util</text><line style="stroke: #A80036; stroke-width: 1.5;" x1="7" x2="269" y1="45.9375" y2="45.9375"/><ellipse cx="17" cy="57.8398" fill="none" rx="3" ry="3" style="stroke: #038048; stroke-width: 1.0;"/><text fill="#000000" font-family="sans-serif" font-size="11" lengthAdjust="spacingAndGlyphs" text-decoration="underline" textLength="151" x="26" y="60.1479">X_FORWARDED_FOR: String</text><line style="stroke: #A80036; stroke-width: 1.5;" x1="7" x2="269" y1="66.7422" y2="66.7422"/><ellipse cx="17" cy="78.6445" fill="#84BE84" rx="3" ry="3" style="stroke: #038048; stroke-width: 1.0;"/><text fill="#000000" font-family="sans-serif" font-size="11" lengthAdjust="spacingAndGlyphs" text-decoration="underline" textLength="214" x="26" y="80.9526">getIpInformation(WebBrowser): String</text><ellipse cx="17" cy="91.4492" fill="#84BE84" rx="3" ry="3" style="stroke: #038048; stroke-width: 1.0;"/><text fill="#000000" font-family="sans-serif" font-size="11" lengthAdjust="spacingAndGlyphs" text-decoration="underline" textLength="238" x="26" y="93.7573">getOperatingSystem(WebBrowser): String</text></a><text fill="#888888" font-family="sans-serif" font-size="10" lengthAdjust="spacingAndGlyphs" textLength="186" x="51" y="119.2822">UMLDoclet 2.0.5, PlantUML 1.2019.08</text><!--
@startuml
    set namespaceSeparator none
    hide empty fields
    hide empty methods

    class "<size:14>WebBrowserUtil\n<size:10>com.hack23.cia.web.impl.ui.application.util" as com.hack23.cia.web.impl.ui.application.util.WebBrowserUtil [[WebBrowserUtil.html]] {
        {static} +X_FORWARDED_FOR: String
        {static} +getIpInformation(WebBrowser): String
        {static} +getOperatingSystem(WebBrowser): String
    }

    center footer UMLDoclet 2.0.5, PlantUML 1.2019.08
@enduml

PlantUML version 1.2019.08(Sat Jul 13 21:25:14 CEST 2019)
(APACHE source distribution)
Java Runtime: OpenJDK Runtime Environment
JVM: OpenJDK 64-Bit Server VM
Java Version: 11.0.4+11-post-Ubuntu-1ubuntu219.04
Operating System: Linux
OS Version: 5.0.0-27-generic
Default Encoding: UTF-8
Language: en
Country: US
--></g></svg>