<?xml version="1.0" encoding="UTF-8" standalone="no"?><svg xmlns="http://www.w3.org/2000/svg" xmlns:xlink="http://www.w3.org/1999/xlink" contentScriptType="application/ecmascript" contentStyleType="text/css" height="277px" preserveAspectRatio="none" style="width:655px;height:277px;background:#FFFFFF;" version="1.1" viewBox="0 0 655 277" width="655px" zoomAndPan="magnify"><defs><filter height="300%" id="f1s3bt5krpro9w" width="300%" x="-1" y="-1"><feGaussianBlur result="blurOut" stdDeviation="2.0"/><feColorMatrix in="blurOut" result="blurOut2" type="matrix" values="0 0 0 0 0 0 0 0 0 0 0 0 0 0 0 0 0 0 .4 0"/><feOffset dx="4.0" dy="4.0" in="blurOut2" result="blurOut3"/><feBlend in="SourceGraphic" in2="blurOut3" mode="normal"/></filter></defs><g><!--MD5=[8c3484027c10f162e339c027856a7c85]
cluster com.hack23.cia.web.impl.ui.application.views.user.parliament--><polygon fill="#FFFFFF" filter="url(#f1s3bt5krpro9w)" points="16,129,509,129,516,151.2969,519,151.2969,519,254,16,254,16,129" style="stroke:#000000;stroke-width:1.5;"/><line style="stroke:#000000;stroke-width:1.5;" x1="16" x2="516" y1="151.2969" y2="151.2969"/><text fill="#000000" font-family="sans-serif" font-size="14" font-weight="bold" lengthAdjust="spacing" textLength="487" x="20" y="143.9951">com.hack23.cia.web.impl.ui.application.views.user.parliament</text><!--MD5=[b6f7de69fe91c8bcc3328c73a6375d62]
cluster com.hack23.cia.web.impl.ui.application.views.user.common--><polygon fill="#FFFFFF" filter="url(#f1s3bt5krpro9w)" points="151,6,628,6,635,28.2969,638,28.2969,638,105,151,105,151,6" style="stroke:#000000;stroke-width:1.5;"/><line style="stroke:#000000;stroke-width:1.5;" x1="151" x2="635" y1="28.2969" y2="28.2969"/><text fill="#000000" font-family="sans-serif" font-size="14" font-weight="bold" lengthAdjust="spacing" textLength="471" x="155" y="20.9951">com.hack23.cia.web.impl.ui.application.views.user.common</text><!--MD5=[a53eecbe72c9b7e35e0d1ee1079c9900]
class com.hack23.cia.web.impl.ui.application.views.user.parliament.ParliamentRankingView--><a href="ParliamentRankingView.html" target="_top" title="ParliamentRankingView.html" xlink:actuate="onRequest" xlink:href="ParliamentRankingView.html" xlink:show="new" xlink:title="ParliamentRankingView.html" xlink:type="simple"><rect codeLine="3" fill="#FEFECE" filter="url(#f1s3bt5krpro9w)" height="73.6094" id="com.hack23.cia.web.impl.ui.application.views.user.parliament.ParliamentRankingView" style="stroke:#A80036;stroke-width:1.5;" width="269" x="132.5" y="164"/><ellipse cx="190.25" cy="180" fill="#ADD1B2" rx="11" ry="11" style="stroke:#A80036;stroke-width:1.0;"/><path d="M193.2188,185.6406 Q192.6406,185.9375 192,186.0781 Q191.3594,186.2344 190.6563,186.2344 Q188.1563,186.2344 186.8281,184.5938 Q185.5156,182.9375 185.5156,179.8125 Q185.5156,176.6875 186.8281,175.0313 Q188.1563,173.375 190.6563,173.375 Q191.3594,173.375 192,173.5313 Q192.6563,173.6875 193.2188,173.9844 L193.2188,176.7031 Q192.5938,176.125 192,175.8594 Q191.4063,175.5781 190.7813,175.5781 Q189.4375,175.5781 188.75,176.6563 Q188.0625,177.7188 188.0625,179.8125 Q188.0625,181.9063 188.75,182.9844 Q189.4375,184.0469 190.7813,184.0469 Q191.4063,184.0469 192,183.7813 Q192.5938,183.5 193.2188,182.9219 L193.2188,185.6406 Z " fill="#000000"/><text fill="#000000" font-family="sans-serif" font-size="12" lengthAdjust="spacing" textLength="145" x="210.75" y="184.1543">ParliamentRankingView</text><line style="stroke:#A80036;stroke-width:1.5;" x1="133.5" x2="400.5" y1="196" y2="196"/><ellipse cx="143.5" cy="207" rx="3" ry="3" style="stroke:#038048;stroke-width:1.0;fill:none;"/><text fill="#000000" font-family="sans-serif" font-size="11" lengthAdjust="spacing" text-decoration="underline" textLength="73" x="152.5" y="210.2104">NAME: String</text><line style="stroke:#A80036;stroke-width:1.5;" x1="133.5" x2="400.5" y1="216.8047" y2="216.8047"/><ellipse cx="143.5" cy="227.8047" fill="#84BE84" rx="3" ry="3" style="stroke:#038048;stroke-width:1.0;"/><text fill="#000000" font-family="sans-serif" font-size="11" lengthAdjust="spacing" textLength="243" x="152.5" y="231.0151">ParliamentRankingView(ApplicationContext)</text></a><!--MD5=[391696cd44669b86b1fc88d08221bc08]
class com.hack23.cia.web.impl.ui.application.views.user.common.AbstractRankingView--><a href="../common/AbstractRankingView.html" target="_top" title="../common/AbstractRankingView.html" xlink:actuate="onRequest" xlink:href="../common/AbstractRankingView.html" xlink:show="new" xlink:title="../common/AbstractRankingView.html" xlink:type="simple"><rect codeLine="12" fill="#FEFECE" filter="url(#f1s3bt5krpro9w)" height="48" id="com.hack23.cia.web.impl.ui.application.views.user.common.AbstractRankingView" style="stroke:#A80036;stroke-width:1.5;" width="163" x="185.5" y="41"/><ellipse cx="200.5" cy="57" fill="#A9DCDF" rx="11" ry="11" style="stroke:#A80036;stroke-width:1.0;"/><path d="M200.6094,52.3438 L199.4531,57.4219 L201.7813,57.4219 L200.6094,52.3438 Z M199.125,50.1094 L202.1094,50.1094 L205.4688,62.5 L203.0156,62.5 L202.25,59.4375 L198.9688,59.4375 L198.2188,62.5 L195.7813,62.5 L199.125,50.1094 Z " fill="#000000"/><text fill="#000000" font-family="sans-serif" font-size="12" font-style="italic" lengthAdjust="spacing" textLength="131" x="214.5" y="61.1543">AbstractRankingView</text><line style="stroke:#A80036;stroke-width:1.5;" x1="186.5" x2="347.5" y1="73" y2="73"/><line style="stroke:#A80036;stroke-width:1.5;" x1="186.5" x2="347.5" y1="81" y2="81"/></a><!--MD5=[fabe311b629768b027943b934b3a3b8d]
reverse link com.hack23.cia.web.impl.ui.application.views.user.common.AbstractRankingView to com.hack23.cia.web.impl.ui.application.views.user.parliament.ParliamentRankingView--><path codeLine="8" d="M267,109.26 C267,126.9 267,147.07 267,163.91 " fill="none" id="com.hack23.cia.web.impl.ui.application.views.user.common.AbstractRankingView-backto-com.hack23.cia.web.impl.ui.application.views.user.parliament.ParliamentRankingView" style="stroke:#A80036;stroke-width:1.0;"/><polygon fill="none" points="260,109.04,267,89.04,274,109.04,260,109.04" style="stroke:#A80036;stroke-width:1.0;"/><text fill="#888888" font-family="sans-serif" font-size="10" lengthAdjust="spacing" textLength="186" x="228" y="269.2822">UMLDoclet 2.0.14, PlantUML 1.2021.9</text><!--MD5=[fa1cae74fa4d99d03a2727f8e1190045]
@startuml
    namespace com.hack23.cia.web.impl.ui.application.views.user.parliament {

        class ParliamentRankingView [[ParliamentRankingView.html]] {
            {static} +NAME: String
            +ParliamentRankingView(ApplicationContext)
        }

        com.hack23.cia.web.impl.ui.application.views.user.common.AbstractRankingView <|- - ParliamentRankingView
    }

    namespace com.hack23.cia.web.impl.ui.application.views.user.common {
        abstract class AbstractRankingView [[../common/AbstractRankingView.html]] {
        }
    }

    center footer UMLDoclet 2.0.14, PlantUML 1.2021.9
@enduml

PlantUML version 1.2021.9(Sun Jul 25 12:13:56 CEST 2021)
(APACHE source distribution)
Java Runtime: OpenJDK Runtime Environment
JVM: OpenJDK 64-Bit Server VM
Default Encoding: UTF-8
Language: en
Country: US
--></g></svg>