<svg xmlns="http://www.w3.org/2000/svg" xmlns:xlink="http://www.w3.org/1999/xlink" contentStyleType="text/css" height="419px" preserveAspectRatio="none" style="width:1373px;height:419px;background:#FFFFFF;" version="1.1" viewBox="0 0 1373 419" width="1373px" zoomAndPan="magnify"><defs/><g><!--cluster com.hack23.cia.service.impl--><g id="cluster_com.hack23.cia.service.impl"><path d="M16.5,136 L212.9813,136 A3.75,3.75 0 0 1 215.4813,138.5 L222.4813,161.0679 L1363.5,161.0679 A2.5,2.5 0 0 1 1366,163.5679 L1366,379.5 A2.5,2.5 0 0 1 1363.5,382 L16.5,382 A2.5,2.5 0 0 1 14,379.5 L14,138.5 A2.5,2.5 0 0 1 16.5,136 " fill="none" style="stroke:#000000;stroke-width:1.5;"/><line style="stroke:#000000;stroke-width:1.5;" x1="14" x2="222.4813" y1="161.0679" y2="161.0679"/><text fill="#000000" font-family="sans-serif" font-size="14" font-weight="bold" lengthAdjust="spacing" textLength="195.4813" x="18" y="152.9659">com.hack23.cia.service.impl</text></g><!--cluster org.springframework.security.authentication--><g id="cluster_org.springframework.security.authentication"><path d="M21.5,4 L341.6988,4 A3.75,3.75 0 0 1 344.1988,6.5 L351.1988,29.0679 L351.5,29.0679 A2.5,2.5 0 0 1 354,31.5679 L354,125.5 A2.5,2.5 0 0 1 351.5,128 L21.5,128 A2.5,2.5 0 0 1 19,125.5 L19,6.5 A2.5,2.5 0 0 1 21.5,4 " fill="none" style="stroke:#000000;stroke-width:1.5;"/><line style="stroke:#000000;stroke-width:1.5;" x1="19" x2="351.1988" y1="29.0679" y2="29.0679"/><text fill="#000000" font-family="sans-serif" font-size="14" font-weight="bold" lengthAdjust="spacing" textLength="319.1988" x="23" y="20.9659">org.springframework.security.authentication</text></g><!--class ViewDataDataContainerFactory--><a href="ViewDataDataContainerFactory.html" target="_top" title="ViewDataDataContainerFactory.html" xlink:actuate="onRequest" xlink:href="ViewDataDataContainerFactory.html" xlink:show="new" xlink:title="ViewDataDataContainerFactory.html" xlink:type="simple"><g id="elem_ViewDataDataContainerFactory"><rect codeLine="12" fill="#F1F1F1" height="67.0679" id="ViewDataDataContainerFactory" rx="2.5" ry="2.5" style="stroke:#181818;stroke-width:0.5;" width="730.1411" x="360" y="175.5"/><ellipse cx="623.3599" cy="191.5" fill="#B4A7E5" rx="11" ry="11" style="stroke:#181818;stroke-width:1.0;"/><path d="M619.2818,187.2656 L619.2818,185.1094 L626.6724,185.1094 L626.6724,187.2656 L624.2037,187.2656 L624.2037,195.3438 L626.6724,195.3438 L626.6724,197.5 L619.2818,197.5 L619.2818,195.3438 L621.7506,195.3438 L621.7506,187.2656 L619.2818,187.2656 Z " fill="#000000"/><text fill="#000000" font-family="sans-serif" font-size="14" font-style="italic" lengthAdjust="spacing" textLength="194.9212" x="643.8599" y="196.932">ViewDataDataContainerFactory</text><line style="stroke:#181818;stroke-width:0.5;" x1="361" x2="1089.1411" y1="207.5" y2="207.5"/><line style="stroke:#181818;stroke-width:0.5;" x1="361" x2="1089.1411" y1="215.5" y2="215.5"/><ellipse cx="371" cy="230.534" fill="#84BE84" rx="3" ry="3" style="stroke:#038048;stroke-width:1.0;"/><text fill="#000000" font-family="sans-serif" font-size="14" font-style="italic" lengthAdjust="spacing" textLength="704.1411" x="380" y="234.4659">createDataContainer(Class&lt;T extends Serializable&gt;): DataContainer&lt;T extends Serializable, I extends Serializable&gt;</text></g></a><!--class BootstrapDefaultConfig--><a href="BootstrapDefaultConfig.html" target="_top" title="BootstrapDefaultConfig.html" xlink:actuate="onRequest" xlink:href="BootstrapDefaultConfig.html" xlink:show="new" xlink:title="BootstrapDefaultConfig.html" xlink:type="simple"><g id="elem_BootstrapDefaultConfig"><rect codeLine="16" fill="#F1F1F1" height="67.0679" id="BootstrapDefaultConfig" rx="2.5" ry="2.5" style="stroke:#181818;stroke-width:0.5;" width="249.9851" x="1108" y="175.5"/><ellipse cx="1150.7982" cy="191.5" fill="#ADD1B2" rx="11" ry="11" style="stroke:#181818;stroke-width:1.0;"/><path d="M1153.7669,197.1406 Q1153.1888,197.4375 1152.5482,197.5781 Q1151.9075,197.7344 1151.2044,197.7344 Q1148.7044,197.7344 1147.3763,196.0938 Q1146.0638,194.4375 1146.0638,191.3125 Q1146.0638,188.1875 1147.3763,186.5313 Q1148.7044,184.875 1151.2044,184.875 Q1151.9075,184.875 1152.5482,185.0313 Q1153.2044,185.1875 1153.7669,185.4844 L1153.7669,188.2031 Q1153.1419,187.625 1152.5482,187.3594 Q1151.9544,187.0781 1151.3294,187.0781 Q1149.9857,187.0781 1149.2982,188.1563 Q1148.6107,189.2188 1148.6107,191.3125 Q1148.6107,193.4063 1149.2982,194.4844 Q1149.9857,195.5469 1151.3294,195.5469 Q1151.9544,195.5469 1152.5482,195.2813 Q1153.1419,195 1153.7669,194.4219 L1153.7669,197.1406 Z " fill="#000000"/><text fill="#000000" font-family="sans-serif" font-size="14" lengthAdjust="spacing" textLength="156.2114" x="1170.9755" y="196.932">BootstrapDefaultConfig</text><line style="stroke:#181818;stroke-width:0.5;" x1="1109" x2="1356.9851" y1="207.5" y2="207.5"/><line style="stroke:#181818;stroke-width:0.5;" x1="1109" x2="1356.9851" y1="215.5" y2="215.5"/><ellipse cx="1119" cy="230.534" fill="#84BE84" rx="3" ry="3" style="stroke:#038048;stroke-width:1.0;"/><text fill="#000000" font-family="sans-serif" font-size="14" lengthAdjust="spacing" textLength="223.9851" x="1128" y="234.4659">createDefaultConfiguration(): void</text></g></a><!--class ViewRiksdagenCommitteeDataContainer--><a href="ViewRiksdagenCommitteeDataContainer.html" target="_top" title="ViewRiksdagenCommitteeDataContainer.html" xlink:actuate="onRequest" xlink:href="ViewRiksdagenCommitteeDataContainer.html" xlink:show="new" xlink:title="ViewRiksdagenCommitteeDataContainer.html" xlink:type="simple"><g id="elem_ViewRiksdagenCommitteeDataContainer"><rect codeLine="20" fill="#F1F1F1" height="86.1358" id="ViewRiksdagenCommitteeDataContainer" rx="2.5" ry="2.5" style="stroke:#181818;stroke-width:0.5;" width="377.8186" x="536" y="288"/><ellipse cx="586.7358" cy="304" fill="#ADD1B2" rx="11" ry="11" style="stroke:#181818;stroke-width:1.0;"/><path d="M589.7046,309.6406 Q589.1264,309.9375 588.4858,310.0781 Q587.8452,310.2344 587.1421,310.2344 Q584.6421,310.2344 583.3139,308.5938 Q582.0014,306.9375 582.0014,303.8125 Q582.0014,300.6875 583.3139,299.0313 Q584.6421,297.375 587.1421,297.375 Q587.8452,297.375 588.4858,297.5313 Q589.1421,297.6875 589.7046,297.9844 L589.7046,300.7031 Q589.0796,300.125 588.4858,299.8594 Q587.8921,299.5781 587.2671,299.5781 Q585.9233,299.5781 585.2358,300.6563 Q584.5483,301.7188 584.5483,303.8125 Q584.5483,305.9063 585.2358,306.9844 Q585.9233,308.0469 587.2671,308.0469 Q587.8921,308.0469 588.4858,307.7813 Q589.0796,307.5 589.7046,306.9219 L589.7046,309.6406 Z " fill="#000000"/><text fill="#000000" font-family="sans-serif" font-size="14" lengthAdjust="spacing" textLength="267.847" x="607.2358" y="309.432">ViewRiksdagenCommitteeDataContainer</text><line style="stroke:#181818;stroke-width:0.5;" x1="537" x2="912.8186" y1="320" y2="320"/><line style="stroke:#181818;stroke-width:0.5;" x1="537" x2="912.8186" y1="328" y2="328"/><ellipse cx="547" cy="343.034" fill="#84BE84" rx="3" ry="3" style="stroke:#038048;stroke-width:1.0;"/><text fill="#000000" font-family="sans-serif" font-size="14" lengthAdjust="spacing" textLength="351.8186" x="556" y="346.9659">ViewRiksdagenCommitteeDataContainer(DataViewer)</text><ellipse cx="547" cy="362.1019" fill="#84BE84" rx="3" ry="3" style="stroke:#038048;stroke-width:1.0;"/><text fill="#000000" font-family="sans-serif" font-size="14" lengthAdjust="spacing" textLength="255.779" x="556" y="366.0339">load(String): ViewRiksdagenCommittee</text></g></a><!--class SecurityAuthenticationProvider--><a href="SecurityAuthenticationProvider.html" target="_top" title="SecurityAuthenticationProvider.html" xlink:actuate="onRequest" xlink:href="SecurityAuthenticationProvider.html" xlink:show="new" xlink:title="SecurityAuthenticationProvider.html" xlink:type="simple"><g id="elem_SecurityAuthenticationProvider"><rect codeLine="25" fill="#F1F1F1" height="86.1358" id="SecurityAuthenticationProvider" rx="2.5" ry="2.5" style="stroke:#181818;stroke-width:0.5;" width="318.5009" x="22.5" y="166"/><ellipse cx="74.9228" cy="182" fill="#ADD1B2" rx="11" ry="11" style="stroke:#181818;stroke-width:1.0;"/><path d="M77.8916,187.6406 Q77.3134,187.9375 76.6728,188.0781 Q76.0322,188.2344 75.3291,188.2344 Q72.8291,188.2344 71.5009,186.5938 Q70.1884,184.9375 70.1884,181.8125 Q70.1884,178.6875 71.5009,177.0313 Q72.8291,175.375 75.3291,175.375 Q76.0322,175.375 76.6728,175.5313 Q77.3291,175.6875 77.8916,175.9844 L77.8916,178.7031 Q77.2666,178.125 76.6728,177.8594 Q76.0791,177.5781 75.4541,177.5781 Q74.1103,177.5781 73.4228,178.6563 Q72.7353,179.7188 72.7353,181.8125 Q72.7353,183.9063 73.4228,184.9844 Q74.1103,186.0469 75.4541,186.0469 Q76.0791,186.0469 76.6728,185.7813 Q77.2666,185.5 77.8916,184.9219 L77.8916,187.6406 Z " fill="#000000"/><text fill="#000000" font-family="sans-serif" font-size="14" lengthAdjust="spacing" textLength="205.1552" x="95.4228" y="187.432">SecurityAuthenticationProvider</text><line style="stroke:#181818;stroke-width:0.5;" x1="23.5" x2="340.0009" y1="198" y2="198"/><line style="stroke:#181818;stroke-width:0.5;" x1="23.5" x2="340.0009" y1="206" y2="206"/><ellipse cx="33.5" cy="221.034" fill="#84BE84" rx="3" ry="3" style="stroke:#038048;stroke-width:1.0;"/><text fill="#000000" font-family="sans-serif" font-size="14" lengthAdjust="spacing" textLength="292.5009" x="42.5" y="224.9659">authenticate(Authentication): Authentication</text><ellipse cx="33.5" cy="240.1019" fill="#84BE84" rx="3" ry="3" style="stroke:#038048;stroke-width:1.0;"/><text fill="#000000" font-family="sans-serif" font-size="14" lengthAdjust="spacing" textLength="183.7633" x="42.5" y="244.0339">supports(Class&lt;?&gt;): boolean</text></g></a><!--class AuthenticationProvider--><g id="elem_AuthenticationProvider"><rect codeLine="33" fill="#F1F1F1" height="86.1358" id="AuthenticationProvider" rx="2.5" ry="2.5" style="stroke:#181818;stroke-width:0.5;" width="300.679" x="31.5" y="34"/><ellipse cx="106.1757" cy="50" fill="#B4A7E5" rx="11" ry="11" style="stroke:#181818;stroke-width:1.0;"/><path d="M102.0976,45.7656 L102.0976,43.6094 L109.4882,43.6094 L109.4882,45.7656 L107.0195,45.7656 L107.0195,53.8438 L109.4882,53.8438 L109.4882,56 L102.0976,56 L102.0976,53.8438 L104.5664,53.8438 L104.5664,45.7656 L102.0976,45.7656 Z " fill="#000000"/><text fill="#000000" font-family="sans-serif" font-size="14" font-style="italic" lengthAdjust="spacing" textLength="142.8275" x="126.6757" y="55.432">AuthenticationProvider</text><line style="stroke:#181818;stroke-width:0.5;" x1="32.5" x2="331.179" y1="66" y2="66"/><line style="stroke:#181818;stroke-width:0.5;" x1="32.5" x2="331.179" y1="74" y2="74"/><ellipse cx="42.5" cy="89.034" fill="#84BE84" rx="3" ry="3" style="stroke:#038048;stroke-width:1.0;"/><text fill="#000000" font-family="sans-serif" font-size="14" font-style="italic" lengthAdjust="spacing" textLength="274.679" x="51.5" y="92.9659">authenticate(Authentication): Authentication</text><ellipse cx="42.5" cy="108.1019" fill="#84BE84" rx="3" ry="3" style="stroke:#038048;stroke-width:1.0;"/><text fill="#000000" font-family="sans-serif" font-size="14" font-style="italic" lengthAdjust="spacing" textLength="174.2993" x="51.5" y="112.0339">supports(Class&lt;?&gt;): boolean</text></g><polygon fill="none" points="182,120.2073,176,138.2073,188,138.2073,182,120.2073" style="stroke:#181818;stroke-width:1.0;"/><path d="M182,138.2073 C182,152.7385 182,151.0099 182,165.5596 " fill="none" style="stroke:#181818;stroke-width:1.0;stroke-dasharray:7.0,7.0;"/><text fill="#888888" font-family="sans-serif" font-size="10" lengthAdjust="spacing" textLength="2.6" x="677.2" y="394.69">&#160;</text><a href="https://github.com/talsma-ict/umldoclet" target="_top" title="https://github.com/talsma-ict/umldoclet" xlink:actuate="onRequest" xlink:href="https://github.com/talsma-ict/umldoclet" xlink:show="new" xlink:title="https://github.com/talsma-ict/umldoclet" xlink:type="simple"><text fill="#888888" font-family="sans-serif" font-size="10" lengthAdjust="spacing" textLength="76.7199" x="640.14" y="408.31">UMLDoclet 2.2.1</text></a><!--SRC=[dLNRJjj047tdAwRgGuE0ZUC29HPgHKClLAc4IEXBceU9FN5MMU-wk-lGbFBl7IU1s3IX5qkMBtjcvfpPcHq0W1VGCVdSodJYmHlm4-dW-dCNK2UGaYQBdXAG6QRaO4JAwDGjWGHO-8cnOCQBhzXOIoutEf4wXKyuGt2ci34viRC3Yr3zU-ytw2hUH_Fovxc95NbeT7OhbCAWTNmG1k4Xz56v3E6YqnShRskRK8IY1UnRoPYqOvU5JiWkQ9tb6FEZkrpPXnbP9urccs3bfvGQ6-rHQWSvMkzAIPSAjI-vjaGPNxo2nbclM-SMj1VSzk7CQYmIk3BVYWUvptABAJDME3U51vUHHusB9SUS7N4ez9o_A5eQCD4ffvcvP6B2x-5B4KiKZkoCoGkPvGfkbz3oajgJ7MDCy4NIpJbwBE_EKWZPznYpypaC1ayjYudFr738Vg5otUB8USk8EzYBBV4crMmR7ONEdVQ1ldlIYOCUMObA_i2HejUx4TJGMt3xSB7P_e79tLfhN0Q4jyRuabT-JcCibESGOvcomiqBcxNT2weY2zu8hea6KvyPcMndKARoIavTmlkaEoRBfFTKJyuguNz0RU7s5vQDygl4aTsj6ok3IQFdBRSV2zdiQhkq7iM5bNv-narDsijuaP9BQsOoMQXw6h154Ax1rAXRCiVwZxgbA_BSS2-kYkrDMLSZOnIXVYpYhju_ngR2vMKQnXOpkZ5soasq92-m5h92TzrEMpAmlKN-MsJLoT_fhSZz1vbHj4NJwKyXdZflekZfNLyoENL-NctSCRVZRmdxEC_9TgMUTepYG-_voURLw_BWLbpeF2lYgIQkpE2H_jDc9TugrbSz64oyprtKRARIJugHO5bDlnWQ1pBspI9JoN9QF9eRm-5g3dnu64ZbeNxG2W_2iDywYS9M5BP5U7JS3WwFZzfxGIiAWi6xmfgScZrlukd4g6pu2m00]--></g></svg>