<svg xmlns="http://www.w3.org/2000/svg" xmlns:xlink="http://www.w3.org/1999/xlink" contentStyleType="text/css" data-diagram-type="CLASS" height="408px" preserveAspectRatio="none" style="width:561px;height:408px;background:#FFFFFF;" version="1.1" viewBox="0 0 561 408" width="561px" zoomAndPan="magnify"><defs/><g><!--class com.hack23.cia.model.internal.application.data.politician.impl.ViewRiksdagenPoliticianDecisionPatternEmbeddedId--><g class="entity" data-entity="com.hack23.cia.model.internal.application.data.politician.impl.ViewRiksdagenPoliticianDecisionPatternEmbeddedId" data-source-line="13" data-uid="ent0002" id="entity_com.hack23.cia.model.internal.application.data.politician.impl.ViewRiksdagenPoliticianDecisionPatternEmbeddedId"><a href="ViewRiksdagenPoliticianDecisionPatternEmbeddedId.html" target="_top" title="ViewRiksdagenPoliticianDecisionPatternEmbeddedId.html" xlink:actuate="onRequest" xlink:href="ViewRiksdagenPoliticianDecisionPatternEmbeddedId.html" xlink:show="new" xlink:title="ViewRiksdagenPoliticianDecisionPatternEmbeddedId.html" xlink:type="simple"><rect fill="#F1F1F1" height="287.5029" rx="2.5" ry="2.5" style="stroke:#181818;stroke-width:0.5;" width="548.366" x="6" y="91"/><ellipse cx="102.0257" cy="112.344" fill="#ADD1B2" rx="11" ry="11" style="stroke:#181818;stroke-width:1;"/><path d="M104.9944,117.9846 Q104.4163,118.2815 103.7757,118.4221 Q103.1351,118.5783 102.4319,118.5783 Q99.9319,118.5783 98.6038,116.9377 Q97.2913,115.2815 97.2913,112.1565 Q97.2913,109.0315 98.6038,107.3752 Q99.9319,105.719 102.4319,105.719 Q103.1351,105.719 103.7757,105.8752 Q104.4319,106.0315 104.9944,106.3283 L104.9944,109.0471 Q104.3694,108.469 103.7757,108.2033 Q103.1819,107.9221 102.5569,107.9221 Q101.2132,107.9221 100.5257,109.0002 Q99.8382,110.0627 99.8382,112.1565 Q99.8382,114.2502 100.5257,115.3283 Q101.2132,116.3908 102.5569,116.3908 Q103.1819,116.3908 103.7757,116.1252 Q104.3694,115.844 104.9944,115.2658 L104.9944,117.9846 Z " fill="#000000"/><text fill="#000000" font-family="sans-serif" font-size="14" lengthAdjust="spacing" textLength="347.8146" x="122.5257" y="110.9659">ViewRiksdagenPoliticianDecisionPatternEmbeddedId</text><text fill="#000000" font-family="sans-serif" font-size="10" lengthAdjust="spacing" textLength="290.5398" x="151.1631" y="125.7579">com.hack23.cia.model.internal.application.data.politician.impl</text><line style="stroke:#181818;stroke-width:0.5;" x1="7" x2="553.366" y1="133.6879" y2="133.6879"/><polygon fill="none" points="17,143.7219,21,147.7219,17,151.7219,13,147.7219" style="stroke:#B38D22;stroke-width:1;"/><text fill="#000000" font-family="sans-serif" font-size="14" lengthAdjust="spacing" textLength="106.2596" x="26" y="152.6538">personId: String</text><polygon fill="none" points="17,162.7898,21,166.7898,17,170.7898,13,166.7898" style="stroke:#B38D22;stroke-width:1;"/><text fill="#000000" font-family="sans-serif" font-size="14" lengthAdjust="spacing" textLength="117.6696" x="26" y="171.7218">committee: String</text><polygon fill="none" points="17,181.8577,21,185.8577,17,189.8577,13,185.8577" style="stroke:#B38D22;stroke-width:1;"/><text fill="#000000" font-family="sans-serif" font-size="14" lengthAdjust="spacing" textLength="136.2195" x="26" y="190.7897">decisionMonth: Date</text><line style="stroke:#181818;stroke-width:0.5;" x1="7" x2="553.366" y1="198.8917" y2="198.8917"/><ellipse cx="17" cy="213.9256" fill="#84BE84" rx="3" ry="3" style="stroke:#038048;stroke-width:1;"/><text fill="#000000" font-family="sans-serif" font-size="14" lengthAdjust="spacing" textLength="136.0795" x="26" y="217.8576">getPersonId(): String</text><ellipse cx="17" cy="232.9935" fill="#84BE84" rx="3" ry="3" style="stroke:#038048;stroke-width:1;"/><text fill="#000000" font-family="sans-serif" font-size="14" lengthAdjust="spacing" textLength="161.9794" x="26" y="236.9255">setPersonId(String): void</text><ellipse cx="17" cy="252.0614" fill="#84BE84" rx="3" ry="3" style="stroke:#038048;stroke-width:1;"/><text fill="#000000" font-family="sans-serif" font-size="14" lengthAdjust="spacing" textLength="149.7574" x="26" y="255.9934">getCommittee(): String</text><ellipse cx="17" cy="271.1294" fill="#84BE84" rx="3" ry="3" style="stroke:#038048;stroke-width:1;"/><text fill="#000000" font-family="sans-serif" font-size="14" lengthAdjust="spacing" textLength="175.6573" x="26" y="275.0613">setCommittee(String): void</text><ellipse cx="17" cy="290.1973" fill="#84BE84" rx="3" ry="3" style="stroke:#038048;stroke-width:1;"/><text fill="#000000" font-family="sans-serif" font-size="14" lengthAdjust="spacing" textLength="167.7893" x="26" y="294.1293">getDecisionMonth(): Date</text><ellipse cx="17" cy="309.2652" fill="#84BE84" rx="3" ry="3" style="stroke:#038048;stroke-width:1;"/><text fill="#000000" font-family="sans-serif" font-size="14" lengthAdjust="spacing" textLength="193.6892" x="26" y="313.1972">setDecisionMonth(Date): void</text><ellipse cx="17" cy="328.3331" fill="#84BE84" rx="3" ry="3" style="stroke:#038048;stroke-width:1;"/><text fill="#000000" font-family="sans-serif" font-size="14" lengthAdjust="spacing" textLength="490.6562" x="26" y="332.2651">withPersonId(String): ViewRiksdagenPoliticianDecisionPatternEmbeddedId</text><ellipse cx="17" cy="347.401" fill="#84BE84" rx="3" ry="3" style="stroke:#038048;stroke-width:1;"/><text fill="#000000" font-family="sans-serif" font-size="14" lengthAdjust="spacing" textLength="504.3341" x="26" y="351.333">withCommittee(String): ViewRiksdagenPoliticianDecisionPatternEmbeddedId</text><ellipse cx="17" cy="366.4689" fill="#84BE84" rx="3" ry="3" style="stroke:#038048;stroke-width:1;"/><text fill="#000000" font-family="sans-serif" font-size="14" lengthAdjust="spacing" textLength="522.366" x="26" y="370.4009">withDecisionMonth(Date): ViewRiksdagenPoliticianDecisionPatternEmbeddedId</text></a></g><!--class com.hack23.cia.model.common.api.ModelObject--><g class="entity" data-entity="com.hack23.cia.model.common.api.ModelObject" data-source-line="28" data-uid="ent0003" id="entity_com.hack23.cia.model.common.api.ModelObject"><rect fill="#F1F1F1" height="42.6879" rx="2.5" ry="2.5" style="stroke:#181818;stroke-width:0.5;" width="189.3398" x="185.5" y="12"/><ellipse cx="200.5" cy="33.344" fill="#B4A7E5" rx="11" ry="11" style="stroke:#181818;stroke-width:1;"/><path d="M196.4219,29.1096 L196.4219,26.9533 L203.8125,26.9533 L203.8125,29.1096 L201.3438,29.1096 L201.3438,37.1877 L203.8125,37.1877 L203.8125,39.344 L196.4219,39.344 L196.4219,37.1877 L198.8906,37.1877 L198.8906,29.1096 L196.4219,29.1096 Z " fill="#000000"/><text fill="#000000" font-family="sans-serif" font-size="14" font-style="italic" lengthAdjust="spacing" textLength="78.1477" x="254.096" y="31.9659">ModelObject</text><text fill="#000000" font-family="sans-serif" font-size="10" font-style="italic" lengthAdjust="spacing" textLength="157.3398" x="214.5" y="46.7579">com.hack23.cia.model.common.api</text></g><g class="link" data-entity-1="com.hack23.cia.model.common.api.ModelObject" data-entity-2="com.hack23.cia.model.internal.application.data.politician.impl.ViewRiksdagenPoliticianDecisionPatternEmbeddedId" data-uid="lnk4" id="link_com.hack23.cia.model.common.api.ModelObject_com.hack23.cia.model.internal.application.data.politician.impl.ViewRiksdagenPoliticianDecisionPatternEmbeddedId"><polygon fill="none" points="280,55.0986,274,73.0986,286,73.0986,280,55.0986" style="stroke:#181818;stroke-width:1;"/><path d="M280,73.0986 C280,82.7554 280,77.1744 280,90.9623" fill="none" style="stroke:#181818;stroke-width:1;stroke-dasharray:7,7;"/></g><g class="footer" data-source-line="38"><text fill="#888888" font-family="sans-serif" font-size="10" lengthAdjust="spacing" textLength="2.6" x="275.2" y="383.69">&#160;</text><a href="https://github.com/talsma-ict/umldoclet" target="_top" title="https://github.com/talsma-ict/umldoclet" xlink:actuate="onRequest" xlink:href="https://github.com/talsma-ict/umldoclet" xlink:show="new" xlink:title="https://github.com/talsma-ict/umldoclet" xlink:type="simple"><text fill="#888888" font-family="sans-serif" font-size="10" lengthAdjust="spacing" textLength="76.7199" x="238.14" y="397.31">UMLDoclet 2.2.4</text></a></g><!--SRC=[lLNVJzim47xdhxZ1mq1GDmqTWWeXeHPjJ4MhQDbBwOCRNnElZft53gZR-Dzt-K6RKj36a9QNglxklllkVES307WFNPCiKXb63fm15qaBDrTzu5f0Y1fJxb20Z7c85gQeZ0vjQOZ0CnUP5Coi-1UOD4MR62sa3k4pl-DWJPO6QDdM5XIXHe_izzpMsAUB_B1d0eKEThjxDKc-rpfg-9v_12EkRCpXiZjY5TlAnsS-QmDnAncWjaIPQO5f8UiyuG7zz4la0EumjT9eyl4gdZpLm6Z7fRQGyDJPFAM1ujhbMbkCudzWBGzspuVzTN7UII7k0CvJpJC1r-PxjiptNPBoa2GhlZ2P0nkZuvgNc2NLciTKBnxW42agTrHARJGMU2G50iQ9My1CeXBswIcHHOQEY_D0SMjX-zJA7zXfjS- -Iho_bdChwDRqm2ZfP22vxc4Wyzm7t3bCzKKyHI5GN8fRNRbwPu69MSI3kN_8o8N5Hg1YKkVsN36U95HYxeY42UuuIvRaJCQ9sWQwsBTHiDUAX_7ujIuiSh6QJE1dKRtysqceBOo-51qOkfGQU8LGEh4a0jo4H1NWYhedwa2Fkda9xeVe1XNfxjw6xxwjmIL6HdT6YZM6xcFm5oXM-CiSlRhAd6TTftrgaSCRFFVIHPjwNrluTRvdnB-DyDay_edoeHoiecjdDAAruRhA-_dBz1i6xazpaxSEjJbFvCk3iR9XDUPghl_U0Kv_CVQ_HwzKUMhTGk7PyYfcnf1PRRZoxzE29gmlzRnh53rqEyVFepVvkwsaHbeLmLmZFMlUqlAX3DUinQjYtUhnE78kiPrcCwH6oAPvcPgks1aD6RXc5YjHBeidQsCogTR0n-K-of_qXjTkj5gZLhjpsEvuRTRsMYV7tk6nl-_v7SyRNsIfIR0vT2QOHqR5azy0]--></g></svg>