<?xml version="1.0" encoding="UTF-8" standalone="no"?><svg xmlns="http://www.w3.org/2000/svg" xmlns:xlink="http://www.w3.org/1999/xlink" contentScriptType="application/ecmascript" contentStyleType="text/css" height="277px" preserveAspectRatio="none" style="width:565px;height:277px;background:#FFFFFF;" version="1.1" viewBox="0 0 565 277" width="565px" zoomAndPan="magnify"><defs><filter height="300%" id="fj6tf8udkbrzi" width="300%" x="-1" y="-1"><feGaussianBlur result="blurOut" stdDeviation="2.0"/><feColorMatrix in="blurOut" result="blurOut2" type="matrix" values="0 0 0 0 0 0 0 0 0 0 0 0 0 0 0 0 0 0 .4 0"/><feOffset dx="4.0" dy="4.0" in="blurOut2" result="blurOut3"/><feBlend in="SourceGraphic" in2="blurOut3" mode="normal"/></filter></defs><g><!--MD5=[fd7cf07666ae2dcc82d27639c6508086]
cluster com.hack23.cia.web.impl.ui.application.views.user.party--><polygon fill="#FFFFFF" filter="url(#fj6tf8udkbrzi)" points="16,129,467,129,474,151.2969,514,151.2969,514,254,16,254,16,129" style="stroke:#000000;stroke-width:1.5;"/><line style="stroke:#000000;stroke-width:1.5;" x1="16" x2="474" y1="151.2969" y2="151.2969"/><text fill="#000000" font-family="sans-serif" font-size="14" font-weight="bold" lengthAdjust="spacing" textLength="445" x="20" y="143.9951">com.hack23.cia.web.impl.ui.application.views.user.party</text><!--MD5=[b6f7de69fe91c8bcc3328c73a6375d62]
cluster com.hack23.cia.web.impl.ui.application.views.user.common--><polygon fill="#FFFFFF" filter="url(#fj6tf8udkbrzi)" points="61,6,538,6,545,28.2969,548,28.2969,548,105,61,105,61,6" style="stroke:#000000;stroke-width:1.5;"/><line style="stroke:#000000;stroke-width:1.5;" x1="61" x2="545" y1="28.2969" y2="28.2969"/><text fill="#000000" font-family="sans-serif" font-size="14" font-weight="bold" lengthAdjust="spacing" textLength="471" x="65" y="20.9951">com.hack23.cia.web.impl.ui.application.views.user.common</text><!--MD5=[c5350e2c03dadff73f69df7bb3db2da9]
class com.hack23.cia.web.impl.ui.application.views.user.party.PartyRankingView--><a href="PartyRankingView.html" target="_top" title="PartyRankingView.html" xlink:actuate="onRequest" xlink:href="PartyRankingView.html" xlink:show="new" xlink:title="PartyRankingView.html" xlink:type="simple"><rect codeLine="3" fill="#FEFECE" filter="url(#fj6tf8udkbrzi)" height="73.6094" id="com.hack23.cia.web.impl.ui.application.views.user.party.PartyRankingView" style="stroke:#A80036;stroke-width:1.5;" width="237" x="260.5" y="164"/><ellipse cx="319.75" cy="180" fill="#ADD1B2" rx="11" ry="11" style="stroke:#A80036;stroke-width:1.0;"/><path d="M322.7188,185.6406 Q322.1406,185.9375 321.5,186.0781 Q320.8594,186.2344 320.1563,186.2344 Q317.6563,186.2344 316.3281,184.5938 Q315.0156,182.9375 315.0156,179.8125 Q315.0156,176.6875 316.3281,175.0313 Q317.6563,173.375 320.1563,173.375 Q320.8594,173.375 321.5,173.5313 Q322.1563,173.6875 322.7188,173.9844 L322.7188,176.7031 Q322.0938,176.125 321.5,175.8594 Q320.9063,175.5781 320.2813,175.5781 Q318.9375,175.5781 318.25,176.6563 Q317.5625,177.7188 317.5625,179.8125 Q317.5625,181.9063 318.25,182.9844 Q318.9375,184.0469 320.2813,184.0469 Q320.9063,184.0469 321.5,183.7813 Q322.0938,183.5 322.7188,182.9219 L322.7188,185.6406 Z " fill="#000000"/><text fill="#000000" font-family="sans-serif" font-size="12" lengthAdjust="spacing" textLength="110" x="340.25" y="184.1543">PartyRankingView</text><line style="stroke:#A80036;stroke-width:1.5;" x1="261.5" x2="496.5" y1="196" y2="196"/><ellipse cx="271.5" cy="207" rx="3" ry="3" style="stroke:#038048;stroke-width:1.0;fill:none;"/><text fill="#000000" font-family="sans-serif" font-size="11" lengthAdjust="spacing" text-decoration="underline" textLength="73" x="280.5" y="210.2104">NAME: String</text><line style="stroke:#A80036;stroke-width:1.5;" x1="261.5" x2="496.5" y1="216.8047" y2="216.8047"/><ellipse cx="271.5" cy="227.8047" fill="#84BE84" rx="3" ry="3" style="stroke:#038048;stroke-width:1.0;"/><text fill="#000000" font-family="sans-serif" font-size="11" lengthAdjust="spacing" textLength="211" x="280.5" y="231.0151">PartyRankingView(ApplicationContext)</text></a><!--MD5=[12f93890e637e83563e6e5ab67246f25]
class com.hack23.cia.web.impl.ui.application.views.user.party.PartyView--><a href="PartyView.html" target="_top" title="PartyView.html" xlink:actuate="onRequest" xlink:href="PartyView.html" xlink:show="new" xlink:title="PartyView.html" xlink:type="simple"><rect codeLine="8" fill="#FEFECE" filter="url(#fj6tf8udkbrzi)" height="73.6094" id="com.hack23.cia.web.impl.ui.application.views.user.party.PartyView" style="stroke:#A80036;stroke-width:1.5;" width="193" x="32.5" y="164"/><ellipse cx="94.75" cy="180" fill="#ADD1B2" rx="11" ry="11" style="stroke:#A80036;stroke-width:1.0;"/><path d="M97.7188,185.6406 Q97.1406,185.9375 96.5,186.0781 Q95.8594,186.2344 95.1563,186.2344 Q92.6563,186.2344 91.3281,184.5938 Q90.0156,182.9375 90.0156,179.8125 Q90.0156,176.6875 91.3281,175.0313 Q92.6563,173.375 95.1563,173.375 Q95.8594,173.375 96.5,173.5313 Q97.1563,173.6875 97.7188,173.9844 L97.7188,176.7031 Q97.0938,176.125 96.5,175.8594 Q95.9063,175.5781 95.2813,175.5781 Q93.9375,175.5781 93.25,176.6563 Q92.5625,177.7188 92.5625,179.8125 Q92.5625,181.9063 93.25,182.9844 Q93.9375,184.0469 95.2813,184.0469 Q95.9063,184.0469 96.5,183.7813 Q97.0938,183.5 97.7188,182.9219 L97.7188,185.6406 Z " fill="#000000"/><text fill="#000000" font-family="sans-serif" font-size="12" lengthAdjust="spacing" textLength="60" x="115.25" y="184.1543">PartyView</text><line style="stroke:#A80036;stroke-width:1.5;" x1="33.5" x2="224.5" y1="196" y2="196"/><ellipse cx="43.5" cy="207" rx="3" ry="3" style="stroke:#038048;stroke-width:1.0;fill:none;"/><text fill="#000000" font-family="sans-serif" font-size="11" lengthAdjust="spacing" text-decoration="underline" textLength="73" x="52.5" y="210.2104">NAME: String</text><line style="stroke:#A80036;stroke-width:1.5;" x1="33.5" x2="224.5" y1="216.8047" y2="216.8047"/><ellipse cx="43.5" cy="227.8047" fill="#84BE84" rx="3" ry="3" style="stroke:#038048;stroke-width:1.0;"/><text fill="#000000" font-family="sans-serif" font-size="11" lengthAdjust="spacing" textLength="167" x="52.5" y="231.0151">PartyView(ApplicationContext)</text></a><!--MD5=[391696cd44669b86b1fc88d08221bc08]
class com.hack23.cia.web.impl.ui.application.views.user.common.AbstractRankingView--><a href="../common/AbstractRankingView.html" target="_top" title="../common/AbstractRankingView.html" xlink:actuate="onRequest" xlink:href="../common/AbstractRankingView.html" xlink:show="new" xlink:title="../common/AbstractRankingView.html" xlink:type="simple"><rect codeLine="18" fill="#FEFECE" filter="url(#fj6tf8udkbrzi)" height="48" id="com.hack23.cia.web.impl.ui.application.views.user.common.AbstractRankingView" style="stroke:#A80036;stroke-width:1.5;" width="163" x="268.5" y="41"/><ellipse cx="283.5" cy="57" fill="#A9DCDF" rx="11" ry="11" style="stroke:#A80036;stroke-width:1.0;"/><path d="M283.6094,52.3438 L282.4531,57.4219 L284.7813,57.4219 L283.6094,52.3438 Z M282.125,50.1094 L285.1094,50.1094 L288.4688,62.5 L286.0156,62.5 L285.25,59.4375 L281.9688,59.4375 L281.2188,62.5 L278.7813,62.5 L282.125,50.1094 Z " fill="#000000"/><text fill="#000000" font-family="sans-serif" font-size="12" font-style="italic" lengthAdjust="spacing" textLength="131" x="297.5" y="61.1543">AbstractRankingView</text><line style="stroke:#A80036;stroke-width:1.5;" x1="269.5" x2="430.5" y1="73" y2="73"/><line style="stroke:#A80036;stroke-width:1.5;" x1="269.5" x2="430.5" y1="81" y2="81"/></a><!--MD5=[4d95a43774ca7342273458fa929c2e89]
class com.hack23.cia.web.impl.ui.application.views.user.common.AbstractGroupView--><a href="../common/AbstractGroupView.html" target="_top" title="../common/AbstractGroupView.html" xlink:actuate="onRequest" xlink:href="../common/AbstractGroupView.html" xlink:show="new" xlink:title="../common/AbstractGroupView.html" xlink:type="simple"><rect codeLine="20" fill="#FEFECE" filter="url(#fj6tf8udkbrzi)" height="48" id="com.hack23.cia.web.impl.ui.application.views.user.common.AbstractGroupView" style="stroke:#A80036;stroke-width:1.5;" width="151" x="82.5" y="41"/><ellipse cx="97.5" cy="57" fill="#A9DCDF" rx="11" ry="11" style="stroke:#A80036;stroke-width:1.0;"/><path d="M97.6094,52.3438 L96.4531,57.4219 L98.7813,57.4219 L97.6094,52.3438 Z M96.125,50.1094 L99.1094,50.1094 L102.4688,62.5 L100.0156,62.5 L99.25,59.4375 L95.9688,59.4375 L95.2188,62.5 L92.7813,62.5 L96.125,50.1094 Z " fill="#000000"/><text fill="#000000" font-family="sans-serif" font-size="12" font-style="italic" lengthAdjust="spacing" textLength="119" x="111.5" y="61.1543">AbstractGroupView</text><line style="stroke:#A80036;stroke-width:1.5;" x1="83.5" x2="232.5" y1="73" y2="73"/><line style="stroke:#A80036;stroke-width:1.5;" x1="83.5" x2="232.5" y1="81" y2="81"/></a><!--MD5=[016cf917a18ea016b5ac5601181e46d1]
reverse link com.hack23.cia.web.impl.ui.application.views.user.common.AbstractRankingView to com.hack23.cia.web.impl.ui.application.views.user.party.PartyRankingView--><path codeLine="13" d="M359.23,108.67 C363.08,126.46 367.51,146.89 371.19,163.91 " fill="none" id="com.hack23.cia.web.impl.ui.application.views.user.common.AbstractRankingView-backto-com.hack23.cia.web.impl.ui.application.views.user.party.PartyRankingView" style="stroke:#A80036;stroke-width:1.0;"/><polygon fill="none" points="352.37,110.06,354.99,89.04,366.06,107.1,352.37,110.06" style="stroke:#A80036;stroke-width:1.0;"/><!--MD5=[cb396abc5fedef9261d254783b4ac5de]
reverse link com.hack23.cia.web.impl.ui.application.views.user.common.AbstractGroupView to com.hack23.cia.web.impl.ui.application.views.user.party.PartyView--><path codeLine="14" d="M148.77,108.67 C144.92,126.46 140.49,146.89 136.81,163.91 " fill="none" id="com.hack23.cia.web.impl.ui.application.views.user.common.AbstractGroupView-backto-com.hack23.cia.web.impl.ui.application.views.user.party.PartyView" style="stroke:#A80036;stroke-width:1.0;"/><polygon fill="none" points="141.94,107.1,153.01,89.04,155.63,110.06,141.94,107.1" style="stroke:#A80036;stroke-width:1.0;"/><text fill="#888888" font-family="sans-serif" font-size="10" lengthAdjust="spacing" textLength="192" x="180" y="269.2822">UMLDoclet 2.0.15, PlantUML 1.2021.13</text><!--MD5=[4ec73ff0dce2332580800942d6b7847e]
@startuml
    namespace com.hack23.cia.web.impl.ui.application.views.user.party {

        class PartyRankingView [[PartyRankingView.html]] {
            {static} +NAME: String
            +PartyRankingView(ApplicationContext)
        }

        class PartyView [[PartyView.html]] {
            {static} +NAME: String
            +PartyView(ApplicationContext)
        }

        com.hack23.cia.web.impl.ui.application.views.user.common.AbstractRankingView <|- - PartyRankingView
        com.hack23.cia.web.impl.ui.application.views.user.common.AbstractGroupView <|- - PartyView
    }

    namespace com.hack23.cia.web.impl.ui.application.views.user.common {
        abstract class AbstractRankingView [[../common/AbstractRankingView.html]] {
        }
        abstract class AbstractGroupView [[../common/AbstractGroupView.html]] {
        }
    }

    center footer UMLDoclet 2.0.15, PlantUML 1.2021.13
@enduml

PlantUML version 1.2021.13(Mon Nov 01 12:38:45 CET 2021)
(APACHE source distribution)
Java Runtime: OpenJDK Runtime Environment
JVM: OpenJDK 64-Bit Server VM
Default Encoding: UTF-8
Language: en
Country: US
--></g></svg>