<?xml version="1.0" encoding="UTF-8" standalone="no"?><svg xmlns="http://www.w3.org/2000/svg" xmlns:xlink="http://www.w3.org/1999/xlink" contentStyleType="text/css" height="286px" preserveAspectRatio="none" style="width:598px;height:286px;background:#FFFFFF;" version="1.1" viewBox="0 0 598 286" width="598px" zoomAndPan="magnify"><defs/><g><!--MD5=[fd7cf07666ae2dcc82d27639c6508086]
cluster com.hack23.cia.web.impl.ui.application.views.user.party--><g id="cluster_com.hack23.cia.web.impl.ui.application.views.user.party"><path d="M8.5,129 L454.5,129 A3.75,3.75 0 0 1 457,131.5 L464,151.2969 L588.5,151.2969 A2.5,2.5 0 0 1 591,153.7969 L591,258.5 A2.5,2.5 0 0 1 588.5,261 L8.5,261 A2.5,2.5 0 0 1 6,258.5 L6,131.5 A2.5,2.5 0 0 1 8.5,129 " style="stroke:#000000;stroke-width:1.5;fill:none;"/><line style="stroke:#000000;stroke-width:1.5;fill:none;" x1="6" x2="464" y1="151.2969" y2="151.2969"/><text fill="#000000" font-family="sans-serif" font-size="14" font-weight="bold" lengthAdjust="spacing" textLength="445" x="10" y="143.9951">com.hack23.cia.web.impl.ui.application.views.user.party</text></g><!--MD5=[b6f7de69fe91c8bcc3328c73a6375d62]
cluster com.hack23.cia.web.impl.ui.application.views.user.common--><g id="cluster_com.hack23.cia.web.impl.ui.application.views.user.common"><path d="M65.5,6 L537.5,6 A3.75,3.75 0 0 1 540,8.5 L547,28.2969 L547.5,28.2969 A2.5,2.5 0 0 1 550,30.7969 L550,102.5 A2.5,2.5 0 0 1 547.5,105 L65.5,105 A2.5,2.5 0 0 1 63,102.5 L63,8.5 A2.5,2.5 0 0 1 65.5,6 " style="stroke:#000000;stroke-width:1.5;fill:none;"/><line style="stroke:#000000;stroke-width:1.5;fill:none;" x1="63" x2="547" y1="28.2969" y2="28.2969"/><text fill="#000000" font-family="sans-serif" font-size="14" font-weight="bold" lengthAdjust="spacing" textLength="471" x="67" y="20.9951">com.hack23.cia.web.impl.ui.application.views.user.common</text></g><!--MD5=[c5350e2c03dadff73f69df7bb3db2da9]
class com.hack23.cia.web.impl.ui.application.views.user.party.PartyRankingView--><a href="PartyRankingView.html" target="_top" title="PartyRankingView.html" xlink:actuate="onRequest" xlink:href="PartyRankingView.html" xlink:show="new" xlink:title="PartyRankingView.html" xlink:type="simple"><g id="elem_com.hack23.cia.web.impl.ui.application.views.user.party.PartyRankingView"><rect codeLine="3" fill="#F1F1F1" height="80.5938" id="com.hack23.cia.web.impl.ui.application.views.user.party.PartyRankingView" rx="2.5" ry="2.5" style="stroke:#181818;stroke-width:0.5;" width="287" x="287.5" y="164"/><ellipse cx="365.75" cy="180" fill="#ADD1B2" rx="11" ry="11" style="stroke:#181818;stroke-width:1.0;"/><path d="M368.7188,185.6406 Q368.1406,185.9375 367.5,186.0781 Q366.8594,186.2344 366.1563,186.2344 Q363.6563,186.2344 362.3281,184.5938 Q361.0156,182.9375 361.0156,179.8125 Q361.0156,176.6875 362.3281,175.0313 Q363.6563,173.375 366.1563,173.375 Q366.8594,173.375 367.5,173.5313 Q368.1563,173.6875 368.7188,173.9844 L368.7188,176.7031 Q368.0938,176.125 367.5,175.8594 Q366.9063,175.5781 366.2813,175.5781 Q364.9375,175.5781 364.25,176.6563 Q363.5625,177.7188 363.5625,179.8125 Q363.5625,181.9063 364.25,182.9844 Q364.9375,184.0469 366.2813,184.0469 Q366.9063,184.0469 367.5,183.7813 Q368.0938,183.5 368.7188,182.9219 L368.7188,185.6406 Z " fill="#000000"/><text fill="#000000" font-family="sans-serif" font-size="14" lengthAdjust="spacing" textLength="122" x="386.25" y="184.8467">PartyRankingView</text><line style="stroke:#181818;stroke-width:0.5;" x1="288.5" x2="573.5" y1="196" y2="196"/><ellipse cx="298.5" cy="207" fill="none" rx="3" ry="3" style="stroke:#038048;stroke-width:1.0;"/><text fill="#000000" font-family="sans-serif" font-size="14" lengthAdjust="spacing" text-decoration="underline" textLength="89" x="307.5" y="212.9951">NAME: String</text><line style="stroke:#181818;stroke-width:0.5;" x1="288.5" x2="573.5" y1="220.2969" y2="220.2969"/><ellipse cx="298.5" cy="231.2969" fill="#84BE84" rx="3" ry="3" style="stroke:#038048;stroke-width:1.0;"/><text fill="#000000" font-family="sans-serif" font-size="14" lengthAdjust="spacing" textLength="261" x="307.5" y="237.292">PartyRankingView(ApplicationContext)</text></g></a><!--MD5=[12f93890e637e83563e6e5ab67246f25]
class com.hack23.cia.web.impl.ui.application.views.user.party.PartyView--><a href="PartyView.html" target="_top" title="PartyView.html" xlink:actuate="onRequest" xlink:href="PartyView.html" xlink:show="new" xlink:title="PartyView.html" xlink:type="simple"><g id="elem_com.hack23.cia.web.impl.ui.application.views.user.party.PartyView"><rect codeLine="8" fill="#F1F1F1" height="80.5938" id="com.hack23.cia.web.impl.ui.application.views.user.party.PartyView" rx="2.5" ry="2.5" style="stroke:#181818;stroke-width:0.5;" width="231" x="21.5" y="164"/><ellipse cx="99.75" cy="180" fill="#ADD1B2" rx="11" ry="11" style="stroke:#181818;stroke-width:1.0;"/><path d="M102.7188,185.6406 Q102.1406,185.9375 101.5,186.0781 Q100.8594,186.2344 100.1563,186.2344 Q97.6563,186.2344 96.3281,184.5938 Q95.0156,182.9375 95.0156,179.8125 Q95.0156,176.6875 96.3281,175.0313 Q97.6563,173.375 100.1563,173.375 Q100.8594,173.375 101.5,173.5313 Q102.1563,173.6875 102.7188,173.9844 L102.7188,176.7031 Q102.0938,176.125 101.5,175.8594 Q100.9063,175.5781 100.2813,175.5781 Q98.9375,175.5781 98.25,176.6563 Q97.5625,177.7188 97.5625,179.8125 Q97.5625,181.9063 98.25,182.9844 Q98.9375,184.0469 100.2813,184.0469 Q100.9063,184.0469 101.5,183.7813 Q102.0938,183.5 102.7188,182.9219 L102.7188,185.6406 Z " fill="#000000"/><text fill="#000000" font-family="sans-serif" font-size="14" lengthAdjust="spacing" textLength="66" x="120.25" y="184.8467">PartyView</text><line style="stroke:#181818;stroke-width:0.5;" x1="22.5" x2="251.5" y1="196" y2="196"/><ellipse cx="32.5" cy="207" fill="none" rx="3" ry="3" style="stroke:#038048;stroke-width:1.0;"/><text fill="#000000" font-family="sans-serif" font-size="14" lengthAdjust="spacing" text-decoration="underline" textLength="89" x="41.5" y="212.9951">NAME: String</text><line style="stroke:#181818;stroke-width:0.5;" x1="22.5" x2="251.5" y1="220.2969" y2="220.2969"/><ellipse cx="32.5" cy="231.2969" fill="#84BE84" rx="3" ry="3" style="stroke:#038048;stroke-width:1.0;"/><text fill="#000000" font-family="sans-serif" font-size="14" lengthAdjust="spacing" textLength="205" x="41.5" y="237.292">PartyView(ApplicationContext)</text></g></a><!--MD5=[391696cd44669b86b1fc88d08221bc08]
class com.hack23.cia.web.impl.ui.application.views.user.common.AbstractRankingView--><a href="../common/AbstractRankingView.html" target="_top" title="../common/AbstractRankingView.html" xlink:actuate="onRequest" xlink:href="../common/AbstractRankingView.html" xlink:show="new" xlink:title="../common/AbstractRankingView.html" xlink:type="simple"><g id="elem_com.hack23.cia.web.impl.ui.application.views.user.common.AbstractRankingView"><rect codeLine="18" fill="#F1F1F1" height="48" id="com.hack23.cia.web.impl.ui.application.views.user.common.AbstractRankingView" rx="2.5" ry="2.5" style="stroke:#181818;stroke-width:0.5;" width="178" x="296" y="41"/><ellipse cx="311" cy="57" fill="#A9DCDF" rx="11" ry="11" style="stroke:#181818;stroke-width:1.0;"/><path d="M311.1094,52.3438 L309.9531,57.4219 L312.2813,57.4219 L311.1094,52.3438 Z M309.625,50.1094 L312.6094,50.1094 L315.9688,62.5 L313.5156,62.5 L312.75,59.4375 L309.4688,59.4375 L308.7188,62.5 L306.2813,62.5 L309.625,50.1094 Z " fill="#000000"/><text fill="#000000" font-family="sans-serif" font-size="14" font-style="italic" lengthAdjust="spacing" textLength="146" x="325" y="61.8467">AbstractRankingView</text><line style="stroke:#181818;stroke-width:0.5;" x1="297" x2="473" y1="73" y2="73"/><line style="stroke:#181818;stroke-width:0.5;" x1="297" x2="473" y1="81" y2="81"/></g></a><!--MD5=[4d95a43774ca7342273458fa929c2e89]
class com.hack23.cia.web.impl.ui.application.views.user.common.AbstractGroupView--><a href="../common/AbstractGroupView.html" target="_top" title="../common/AbstractGroupView.html" xlink:actuate="onRequest" xlink:href="../common/AbstractGroupView.html" xlink:show="new" xlink:title="../common/AbstractGroupView.html" xlink:type="simple"><g id="elem_com.hack23.cia.web.impl.ui.application.views.user.common.AbstractGroupView"><rect codeLine="20" fill="#F1F1F1" height="48" id="com.hack23.cia.web.impl.ui.application.views.user.common.AbstractGroupView" rx="2.5" ry="2.5" style="stroke:#181818;stroke-width:0.5;" width="165" x="95.5" y="41"/><ellipse cx="110.5" cy="57" fill="#A9DCDF" rx="11" ry="11" style="stroke:#181818;stroke-width:1.0;"/><path d="M110.6094,52.3438 L109.4531,57.4219 L111.7813,57.4219 L110.6094,52.3438 Z M109.125,50.1094 L112.1094,50.1094 L115.4688,62.5 L113.0156,62.5 L112.25,59.4375 L108.9688,59.4375 L108.2188,62.5 L105.7813,62.5 L109.125,50.1094 Z " fill="#000000"/><text fill="#000000" font-family="sans-serif" font-size="14" font-style="italic" lengthAdjust="spacing" textLength="133" x="124.5" y="61.8467">AbstractGroupView</text><line style="stroke:#181818;stroke-width:0.5;" x1="96.5" x2="259.5" y1="73" y2="73"/><line style="stroke:#181818;stroke-width:0.5;" x1="96.5" x2="259.5" y1="81" y2="81"/></g></a><!--MD5=[016cf917a18ea016b5ac5601181e46d1]
reverse link com.hack23.cia.web.impl.ui.application.views.user.common.AbstractRankingView to com.hack23.cia.web.impl.ui.application.views.user.party.PartyRankingView--><g id="link_com.hack23.cia.web.impl.ui.application.views.user.common.AbstractRankingView_com.hack23.cia.web.impl.ui.application.views.user.party.PartyRankingView"><path codeLine="13" d="M399.13,108.22 C405.06,125.97 411.94,146.51 417.77,163.97 " fill="none" id="com.hack23.cia.web.impl.ui.application.views.user.common.AbstractRankingView-backto-com.hack23.cia.web.impl.ui.application.views.user.party.PartyRankingView" style="stroke:#181818;stroke-width:1.0;"/><polygon fill="none" points="392.41,110.2,392.7,89.01,405.68,105.76,392.41,110.2" style="stroke:#181818;stroke-width:1.0;"/></g><!--MD5=[cb396abc5fedef9261d254783b4ac5de]
reverse link com.hack23.cia.web.impl.ui.application.views.user.common.AbstractGroupView to com.hack23.cia.web.impl.ui.application.views.user.party.PartyView--><g id="link_com.hack23.cia.web.impl.ui.application.views.user.common.AbstractGroupView_com.hack23.cia.web.impl.ui.application.views.user.party.PartyView"><path codeLine="14" d="M165.41,108.22 C160.12,125.97 153.99,146.51 148.79,163.97 " fill="none" id="com.hack23.cia.web.impl.ui.application.views.user.common.AbstractGroupView-backto-com.hack23.cia.web.impl.ui.application.views.user.party.PartyView" style="stroke:#181818;stroke-width:1.0;"/><polygon fill="none" points="158.71,106.18,171.14,89.01,172.13,110.18,158.71,106.18" style="stroke:#181818;stroke-width:1.0;"/></g><rect height="11.6406" style="stroke:#00000000;stroke-width:1.0;fill:none;" width="186" x="199" y="267"/><text fill="#888888" font-family="sans-serif" font-size="10" lengthAdjust="spacing" textLength="186" x="199" y="276.2822">UMLDoclet 2.0.18, PlantUML 1.2022.6</text><!--MD5=[df5d77a9798513105f6eaebca79d2a01]
@startuml
    namespace com.hack23.cia.web.impl.ui.application.views.user.party {

        class PartyRankingView [[PartyRankingView.html]] {
            {static} +NAME: String
            +PartyRankingView(ApplicationContext)
        }

        class PartyView [[PartyView.html]] {
            {static} +NAME: String
            +PartyView(ApplicationContext)
        }

        com.hack23.cia.web.impl.ui.application.views.user.common.AbstractRankingView <|- - PartyRankingView
        com.hack23.cia.web.impl.ui.application.views.user.common.AbstractGroupView <|- - PartyView
    }

    namespace com.hack23.cia.web.impl.ui.application.views.user.common {
        abstract class AbstractRankingView [[../common/AbstractRankingView.html]] {
        }
        abstract class AbstractGroupView [[../common/AbstractGroupView.html]] {
        }
    }

    center footer UMLDoclet 2.0.18, PlantUML 1.2022.6
@enduml

PlantUML version 1.2022.6(Tue Jun 21 19:34:49 CEST 2022)
(APACHE source distribution)
Java Runtime: OpenJDK Runtime Environment
JVM: OpenJDK 64-Bit Server VM
Default Encoding: ANSI_X3.4-1968
Language: en
Country: US
--></g></svg>