<?xml version="1.0" encoding="UTF-8" standalone="no"?><svg xmlns="http://www.w3.org/2000/svg" xmlns:xlink="http://www.w3.org/1999/xlink" contentScriptType="application/ecmascript" contentStyleType="text/css" height="218px" preserveAspectRatio="none" style="width:348px;height:218px;" version="1.1" viewBox="0 0 348 218" width="348px" zoomAndPan="magnify"><defs><filter height="300%" id="fnbnt464f2z6r" width="300%" x="-1" y="-1"><feGaussianBlur result="blurOut" stdDeviation="2.0"/><feColorMatrix in="blurOut" result="blurOut2" type="matrix" values="0 0 0 0 0 0 0 0 0 0 0 0 0 0 0 0 0 0 .4 0"/><feOffset dx="4.0" dy="4.0" in="blurOut2" result="blurOut3"/><feBlend in="SourceGraphic" in2="blurOut3" mode="normal"/></filter></defs><g><!--class com.hack23.cia.web.impl.ui.application.views.user.party.PartyRankingView--><a href="PartyRankingView.html" target="_top" xlink:actuate="onRequest" xlink:show="new" xlink:title="PartyRankingView.html" xlink:type="simple"><rect fill="#FEFECE" filter="url(#fnbnt464f2z6r)" height="79.5469" id="com.hack23.cia.web.impl.ui.application.views.user.party.PartyRankingView" style="stroke: #A80036; stroke-width: 1.5;" width="300" x="21.5" y="106"/><ellipse cx="36.5" cy="124.9688" fill="#ADD1B2" rx="11" ry="11" style="stroke: #A80036; stroke-width: 1.0;"/><path d="M39.4688,130.6094 Q38.8906,130.9063 38.25,131.0469 Q37.6094,131.2031 36.9063,131.2031 Q34.4063,131.2031 33.0781,129.5625 Q31.7656,127.9063 31.7656,124.7813 Q31.7656,121.6563 33.0781,120 Q34.4063,118.3438 36.9063,118.3438 Q37.6094,118.3438 38.25,118.5 Q38.9063,118.6563 39.4688,118.9531 L39.4688,121.6719 Q38.8438,121.0938 38.25,120.8281 Q37.6563,120.5469 37.0313,120.5469 Q35.6875,120.5469 35,121.625 Q34.3125,122.6875 34.3125,124.7813 Q34.3125,126.875 35,127.9531 Q35.6875,129.0156 37.0313,129.0156 Q37.6563,129.0156 38.25,128.75 Q38.8438,128.4688 39.4688,127.8906 L39.4688,130.6094 Z "/><text fill="#000000" font-family="sans-serif" font-size="14" lengthAdjust="spacingAndGlyphs" textLength="122" x="123.5" y="123.9951">PartyRankingView</text><text fill="#000000" font-family="sans-serif" font-size="10" lengthAdjust="spacingAndGlyphs" textLength="268" x="50.5" y="136.5791">com.hack23.cia.web.impl.ui.application.views.user.party</text><line style="stroke: #A80036; stroke-width: 1.5;" x1="22.5" x2="320.5" y1="143.9375" y2="143.9375"/><ellipse cx="32.5" cy="155.8398" fill="none" rx="3" ry="3" style="stroke: #038048; stroke-width: 1.0;"/><text fill="#000000" font-family="sans-serif" font-size="11" lengthAdjust="spacingAndGlyphs" text-decoration="underline" textLength="73" x="41.5" y="158.1479">NAME: String</text><line style="stroke: #A80036; stroke-width: 1.5;" x1="22.5" x2="320.5" y1="164.7422" y2="164.7422"/><ellipse cx="32.5" cy="176.6445" fill="#84BE84" rx="3" ry="3" style="stroke: #038048; stroke-width: 1.0;"/><text fill="#000000" font-family="sans-serif" font-size="11" lengthAdjust="spacingAndGlyphs" textLength="211" x="41.5" y="178.9526">PartyRankingView(ApplicationContext)</text></a><!--class com.hack23.cia.web.impl.ui.application.views.user.common.AbstractRankingView--><a href="../common/AbstractRankingView.html" target="_top" xlink:actuate="onRequest" xlink:show="new" xlink:title="../common/AbstractRankingView.html" xlink:type="simple"><rect fill="#FEFECE" filter="url(#fnbnt464f2z6r)" height="37.9375" id="com.hack23.cia.web.impl.ui.application.views.user.common.AbstractRankingView" style="stroke: #A80036; stroke-width: 1.5;" width="331" x="6" y="8"/><ellipse cx="21" cy="26.9688" fill="#A9DCDF" rx="11" ry="11" style="stroke: #A80036; stroke-width: 1.0;"/><path d="M21.1094,22.3125 L19.9531,27.3906 L22.2813,27.3906 L21.1094,22.3125 Z M19.625,20.0781 L22.6094,20.0781 L25.9688,32.4688 L23.5156,32.4688 L22.75,29.4063 L19.4688,29.4063 L18.7188,32.4688 L16.2813,32.4688 L19.625,20.0781 Z "/><text fill="#000000" font-family="sans-serif" font-size="14" font-style="italic" lengthAdjust="spacingAndGlyphs" textLength="146" x="111.5" y="25.9951">AbstractRankingView</text><text fill="#000000" font-family="sans-serif" font-size="10" font-style="italic" lengthAdjust="spacingAndGlyphs" textLength="299" x="35" y="38.5791">com.hack23.cia.web.impl.ui.application.views.user.common</text></a><!--link com.hack23.cia.web.impl.ui.application.views.user.common.AbstractRankingView to com.hack23.cia.web.impl.ui.application.views.user.party.PartyRankingView--><path d="M171.5,66.2438 C171.5,78.9166 171.5,92.9816 171.5,105.7276 " fill="none" id="com.hack23.cia.web.impl.ui.application.views.user.common.AbstractRankingView-com.hack23.cia.web.impl.ui.application.views.user.party.PartyRankingView" style="stroke: #A80036; stroke-width: 1.0;"/><polygon fill="none" points="164.5001,66.1194,171.5,46.1194,178.5001,66.1194,164.5001,66.1194" style="stroke: #A80036; stroke-width: 1.0;"/><text fill="#888888" font-family="sans-serif" font-size="10" lengthAdjust="spacingAndGlyphs" textLength="186" x="84.5" y="205.2822">UMLDoclet 2.0.4, PlantUML 1.2019.06</text><!--
@startuml
    set namespaceSeparator none
    hide empty fields
    hide empty methods

    class "<size:14>PartyRankingView\n<size:10>com.hack23.cia.web.impl.ui.application.views.user.party" as com.hack23.cia.web.impl.ui.application.views.user.party.PartyRankingView [[PartyRankingView.html]] {
        {static} +NAME: String
        +PartyRankingView(ApplicationContext)
    }

    abstract class "<size:14>AbstractRankingView\n<size:10>com.hack23.cia.web.impl.ui.application.views.user.common" as com.hack23.cia.web.impl.ui.application.views.user.common.AbstractRankingView [[../common/AbstractRankingView.html]]

    com.hack23.cia.web.impl.ui.application.views.user.common.AbstractRankingView <|- - com.hack23.cia.web.impl.ui.application.views.user.party.PartyRankingView

    center footer UMLDoclet 2.0.4, PlantUML 1.2019.06
@enduml

PlantUML version 1.2019.06(Fri May 24 19:10:25 CEST 2019)
(APACHE source distribution)
Java Runtime: OpenJDK Runtime Environment
JVM: OpenJDK 64-Bit Server VM
Java Version: 11.0.3+7-Ubuntu-1ubuntu219.04.1
Operating System: Linux
OS Version: 5.0.0-20-generic
Default Encoding: UTF-8
Language: en
Country: US
--></g></svg>