<?xml version="1.0" encoding="UTF-8" standalone="no"?><svg xmlns="http://www.w3.org/2000/svg" xmlns:xlink="http://www.w3.org/1999/xlink" contentScriptType="application/ecmascript" contentStyleType="text/css" height="207px" preserveAspectRatio="none" style="width:384px;height:207px;background:#FFFFFF;" version="1.1" viewBox="0 0 384 207" width="384px" zoomAndPan="magnify"><defs><filter height="300%" id="f1h4pa8p31jh19" width="300%" x="-1" y="-1"><feGaussianBlur result="blurOut" stdDeviation="2.0"/><feColorMatrix in="blurOut" result="blurOut2" type="matrix" values="0 0 0 0 0 0 0 0 0 0 0 0 0 0 0 0 0 0 .4 0"/><feOffset dx="4.0" dy="4.0" in="blurOut2" result="blurOut3"/><feBlend in="SourceGraphic" in2="blurOut3" mode="normal"/></filter></defs><g><!--MD5=[c17c5d1a17cf824b64b4c08c74178971]
class com.hack23.cia.web.impl.ui.application.views.common.pagelinks.impl.ExternalAttachmentDownloadLink--><a href="ExternalAttachmentDownloadLink.html" target="_top" title="ExternalAttachmentDownloadLink.html" xlink:actuate="onRequest" xlink:href="ExternalAttachmentDownloadLink.html" xlink:show="new" xlink:title="ExternalAttachmentDownloadLink.html" xlink:type="simple"><rect codeLine="5" fill="#FEFECE" filter="url(#f1h4pa8p31jh19)" height="71.5469" id="com.hack23.cia.web.impl.ui.application.views.common.pagelinks.impl.ExternalAttachmentDownloadLink" style="stroke:#A80036;stroke-width:1.5;" width="363" x="7" y="105"/><ellipse cx="22" cy="123.9688" fill="#ADD1B2" rx="11" ry="11" style="stroke:#A80036;stroke-width:1.0;"/><path d="M24.9688,129.6094 Q24.3906,129.9063 23.75,130.0469 Q23.1094,130.2031 22.4063,130.2031 Q19.9063,130.2031 18.5781,128.5625 Q17.2656,126.9063 17.2656,123.7813 Q17.2656,120.6563 18.5781,119 Q19.9063,117.3438 22.4063,117.3438 Q23.1094,117.3438 23.75,117.5 Q24.4063,117.6563 24.9688,117.9531 L24.9688,120.6719 Q24.3438,120.0938 23.75,119.8281 Q23.1563,119.5469 22.5313,119.5469 Q21.1875,119.5469 20.5,120.625 Q19.8125,121.6875 19.8125,123.7813 Q19.8125,125.875 20.5,126.9531 Q21.1875,128.0156 22.5313,128.0156 Q23.1563,128.0156 23.75,127.75 Q24.3438,127.4688 24.9688,126.8906 L24.9688,129.6094 Z " fill="#000000"/><text fill="#000000" font-family="sans-serif" font-size="14" lengthAdjust="spacing" textLength="231" x="86" y="122.9951">ExternalAttachmentDownloadLink</text><text fill="#000000" font-family="sans-serif" font-size="10" lengthAdjust="spacing" textLength="331" x="36" y="135.5791">com.hack23.cia.web.impl.ui.application.views.common.pagelinks.impl</text><line style="stroke:#A80036;stroke-width:1.5;" x1="8" x2="369" y1="142.9375" y2="142.9375"/><ellipse cx="18" cy="153.9375" fill="#84BE84" rx="3" ry="3" style="stroke:#038048;stroke-width:1.0;"/><text fill="#000000" font-family="sans-serif" font-size="11" lengthAdjust="spacing" textLength="313" x="27" y="157.1479">ExternalAttachmentDownloadLink(String, String, String)</text><ellipse cx="18" cy="166.7422" fill="#84BE84" rx="3" ry="3" style="stroke:#038048;stroke-width:1.0;"/><text fill="#000000" font-family="sans-serif" font-size="11" lengthAdjust="spacing" textLength="74" x="27" y="169.9526">attach(): void</text></a><!--MD5=[648101d2aa1db97ee0036bcc2f83627f]
class com.vaadin.ui.Link--><rect codeLine="10" fill="#FEFECE" filter="url(#f1h4pa8p31jh19)" height="37.9375" id="com.vaadin.ui.Link" style="stroke:#A80036;stroke-width:1.5;" width="99" x="139" y="7"/><ellipse cx="154" cy="25.9688" fill="#ADD1B2" rx="11" ry="11" style="stroke:#A80036;stroke-width:1.0;"/><path d="M156.9688,31.6094 Q156.3906,31.9063 155.75,32.0469 Q155.1094,32.2031 154.4063,32.2031 Q151.9063,32.2031 150.5781,30.5625 Q149.2656,28.9063 149.2656,25.7813 Q149.2656,22.6563 150.5781,21 Q151.9063,19.3438 154.4063,19.3438 Q155.1094,19.3438 155.75,19.5 Q156.4063,19.6563 156.9688,19.9531 L156.9688,22.6719 Q156.3438,22.0938 155.75,21.8281 Q155.1563,21.5469 154.5313,21.5469 Q153.1875,21.5469 152.5,22.625 Q151.8125,23.6875 151.8125,25.7813 Q151.8125,27.875 152.5,28.9531 Q153.1875,30.0156 154.5313,30.0156 Q155.1563,30.0156 155.75,29.75 Q156.3438,29.4688 156.9688,28.8906 L156.9688,31.6094 Z " fill="#000000"/><text fill="#000000" font-family="sans-serif" font-size="14" lengthAdjust="spacing" textLength="27" x="188" y="24.9951">Link</text><text fill="#000000" font-family="sans-serif" font-size="10" lengthAdjust="spacing" textLength="67" x="168" y="37.5791">com.vaadin.ui</text><!--MD5=[13fb8eb35ef7f3a85abee28b5d6c2f47]
reverse link com.vaadin.ui.Link to com.hack23.cia.web.impl.ui.application.views.common.pagelinks.impl.ExternalAttachmentDownloadLink--><path codeLine="12" d="M188.5,65.3 C188.5,78 188.5,92.08 188.5,104.56 " fill="none" id="com.vaadin.ui.Link-backto-com.hack23.cia.web.impl.ui.application.views.common.pagelinks.impl.ExternalAttachmentDownloadLink" style="stroke:#A80036;stroke-width:1.0;"/><polygon fill="none" points="181.5,65.16,188.5,45.16,195.5,65.16,181.5,65.16" style="stroke:#A80036;stroke-width:1.0;"/><text fill="#888888" font-family="sans-serif" font-size="10" lengthAdjust="spacing" textLength="192" x="89.5" y="198.8291">UMLDoclet 2.0.15, PlantUML 1.2021.13</text><!--MD5=[fedd8087201fca4940809af60fee442b]
@startuml
    set namespaceSeparator none
    hide empty fields
    hide empty methods

    class "<size:14>ExternalAttachmentDownloadLink\n<size:10>com.hack23.cia.web.impl.ui.application.views.common.pagelinks.impl" as com.hack23.cia.web.impl.ui.application.views.common.pagelinks.impl.ExternalAttachmentDownloadLink [[ExternalAttachmentDownloadLink.html]] {
        +ExternalAttachmentDownloadLink(String, String, String)
        +attach(): void
    }

    class "<size:14>Link\n<size:10>com.vaadin.ui" as com.vaadin.ui.Link

    com.vaadin.ui.Link <|- - com.hack23.cia.web.impl.ui.application.views.common.pagelinks.impl.ExternalAttachmentDownloadLink

    center footer UMLDoclet 2.0.15, PlantUML 1.2021.13
@enduml

PlantUML version 1.2021.13(Mon Nov 01 12:38:45 CET 2021)
(APACHE source distribution)
Java Runtime: OpenJDK Runtime Environment
JVM: OpenJDK 64-Bit Server VM
Default Encoding: UTF-8
Language: en
Country: US
--></g></svg>