<?xml version="1.0" encoding="UTF-8" standalone="no"?><svg xmlns="http://www.w3.org/2000/svg" xmlns:xlink="http://www.w3.org/1999/xlink" contentStyleType="text/css" height="233px" preserveAspectRatio="none" style="width:377px;height:233px;background:#FFFFFF;" version="1.1" viewBox="0 0 377 233" width="377px" zoomAndPan="magnify"><defs/><g><!--MD5=[1fe20ab847420d7017c2eacb9727edeb]
class com.hack23.cia.web.impl.ui.application.views.common.pagelinks.impl.StreamSourceImplementation--><a href="StreamSourceImplementation.html" target="_top" title="StreamSourceImplementation.html" xlink:actuate="onRequest" xlink:href="StreamSourceImplementation.html" xlink:show="new" xlink:title="StreamSourceImplementation.html" xlink:type="simple"><g id="elem_com.hack23.cia.web.impl.ui.application.views.common.pagelinks.impl.StreamSourceImplementation"><rect codeLine="5" fill="#F1F1F1" height="78.5313" id="com.hack23.cia.web.impl.ui.application.views.common.pagelinks.impl.StreamSourceImplementation" rx="2.5" ry="2.5" style="stroke:#181818;stroke-width:0.5;" width="363" x="7" y="129"/><ellipse cx="22" cy="147.9688" fill="#ADD1B2" rx="11" ry="11" style="stroke:#181818;stroke-width:1.0;"/><path d="M24.9688,153.6094 Q24.3906,153.9063 23.75,154.0469 Q23.1094,154.2031 22.4063,154.2031 Q19.9063,154.2031 18.5781,152.5625 Q17.2656,150.9063 17.2656,147.7813 Q17.2656,144.6563 18.5781,143 Q19.9063,141.3438 22.4063,141.3438 Q23.1094,141.3438 23.75,141.5 Q24.4063,141.6563 24.9688,141.9531 L24.9688,144.6719 Q24.3438,144.0938 23.75,143.8281 Q23.1563,143.5469 22.5313,143.5469 Q21.1875,143.5469 20.5,144.625 Q19.8125,145.6875 19.8125,147.7813 Q19.8125,149.875 20.5,150.9531 Q21.1875,152.0156 22.5313,152.0156 Q23.1563,152.0156 23.75,151.75 Q24.3438,151.4688 24.9688,150.8906 L24.9688,153.6094 Z " fill="#000000"/><text fill="#000000" font-family="sans-serif" font-size="14" lengthAdjust="spacing" textLength="205" x="99" y="146.9951">StreamSourceImplementation</text><text fill="#000000" font-family="sans-serif" font-size="10" lengthAdjust="spacing" textLength="331" x="36" y="159.5791">com.hack23.cia.web.impl.ui.application.views.common.pagelinks.impl</text><line style="stroke:#181818;stroke-width:0.5;" x1="8" x2="369" y1="166.9375" y2="166.9375"/><ellipse cx="18" cy="177.9375" fill="#84BE84" rx="3" ry="3" style="stroke:#038048;stroke-width:1.0;"/><text fill="#000000" font-family="sans-serif" font-size="14" lengthAdjust="spacing" textLength="255" x="27" y="183.9326">StreamSourceImplementation(String)</text><ellipse cx="18" cy="194.2344" fill="#84BE84" rx="3" ry="3" style="stroke:#038048;stroke-width:1.0;"/><text fill="#000000" font-family="sans-serif" font-size="14" lengthAdjust="spacing" textLength="175" x="27" y="200.2295">getStream(): InputStream</text></g></a><!--MD5=[9c9d682053acda7b719666faffd3a7fa]
class com.vaadin.server.StreamResource.StreamSource--><g id="elem_com.vaadin.server.StreamResource.StreamSource"><rect codeLine="10" fill="#F1F1F1" height="62.2344" id="com.vaadin.server.StreamResource.StreamSource" rx="2.5" ry="2.5" style="stroke:#181818;stroke-width:0.5;" width="249" x="64" y="7"/><ellipse cx="79" cy="25.9688" fill="#B4A7E5" rx="11" ry="11" style="stroke:#181818;stroke-width:1.0;"/><path d="M74.9219,21.7344 L74.9219,19.5781 L82.3125,19.5781 L82.3125,21.7344 L79.8438,21.7344 L79.8438,29.8125 L82.3125,29.8125 L82.3125,31.9688 L74.9219,31.9688 L74.9219,29.8125 L77.3906,29.8125 L77.3906,21.7344 L74.9219,21.7344 Z " fill="#000000"/><text fill="#000000" font-family="sans-serif" font-size="14" font-style="italic" lengthAdjust="spacing" textLength="217" x="93" y="24.9951">StreamResource.StreamSource</text><text fill="#000000" font-family="sans-serif" font-size="10" font-style="italic" lengthAdjust="spacing" textLength="92" x="155.5" y="37.5791">com.vaadin.server</text><line style="stroke:#181818;stroke-width:0.5;" x1="65" x2="312" y1="44.9375" y2="44.9375"/><ellipse cx="75" cy="55.9375" fill="#84BE84" rx="3" ry="3" style="stroke:#038048;stroke-width:1.0;"/><text fill="#000000" font-family="sans-serif" font-size="14" font-style="italic" lengthAdjust="spacing" textLength="176" x="84" y="61.9326">getStream(): InputStream</text></g><!--MD5=[602b8c6661711227f117fbdf44d990a7]
reverse link com.vaadin.server.StreamResource.StreamSource to com.hack23.cia.web.impl.ui.application.views.common.pagelinks.impl.StreamSourceImplementation--><g id="link_com.vaadin.server.StreamResource.StreamSource_com.hack23.cia.web.impl.ui.application.views.common.pagelinks.impl.StreamSourceImplementation"><path codeLine="14" d="M188.5,89.36 C188.5,102.47 188.5,116.38 188.5,128.78 " fill="none" id="com.vaadin.server.StreamResource.StreamSource-backto-com.hack23.cia.web.impl.ui.application.views.common.pagelinks.impl.StreamSourceImplementation" style="stroke:#181818;stroke-width:1.0;stroke-dasharray:7.0,7.0;"/><polygon fill="none" points="181.5,89.13,188.5,69.13,195.5,89.13,181.5,89.13" style="stroke:#181818;stroke-width:1.0;"/></g><rect height="11.6406" style="stroke:#00000000;stroke-width:1.0;fill:none;" width="186" x="88.5" y="213.5313"/><text fill="#888888" font-family="sans-serif" font-size="10" lengthAdjust="spacing" textLength="186" x="88.5" y="222.8135">UMLDoclet 2.0.18, PlantUML 1.2022.6</text><!--MD5=[cb6e348c6a42c6211b3a7a386da4bd12]
@startuml
    set namespaceSeparator none
    hide empty fields
    hide empty methods

    class "<size:14>StreamSourceImplementation\n<size:10>com.hack23.cia.web.impl.ui.application.views.common.pagelinks.impl" as com.hack23.cia.web.impl.ui.application.views.common.pagelinks.impl.StreamSourceImplementation [[StreamSourceImplementation.html]] {
        +StreamSourceImplementation(String)
        +getStream(): InputStream
    }

    interface "<size:14>StreamResource.StreamSource\n<size:10>com.vaadin.server" as com.vaadin.server.StreamResource.StreamSource {
        {abstract} +getStream(): InputStream
    }

    com.vaadin.server.StreamResource.StreamSource <|.. com.hack23.cia.web.impl.ui.application.views.common.pagelinks.impl.StreamSourceImplementation

    center footer UMLDoclet 2.0.18, PlantUML 1.2022.6
@enduml

PlantUML version 1.2022.6(Tue Jun 21 19:34:49 CEST 2022)
(APACHE source distribution)
Java Runtime: OpenJDK Runtime Environment
JVM: OpenJDK 64-Bit Server VM
Default Encoding: ANSI_X3.4-1968
Language: en
Country: US
--></g></svg>