<svg xmlns="http://www.w3.org/2000/svg" xmlns:xlink="http://www.w3.org/1999/xlink" contentStyleType="text/css" height="278px" preserveAspectRatio="none" style="width:543px;height:278px;background:#FFFFFF;" version="1.1" viewBox="0 0 543 278" width="543px" zoomAndPan="magnify"><defs/><g><!--cluster com.hack23.cia.web.impl.ui.application.views.user.docsearch.pagemode--><g id="cluster_com.hack23.cia.web.impl.ui.application.views.user.docsearch.pagemode"><path d="M16.5,98 L524.2001,98 A3.75,3.75 0 0 1 526.7001,100.5 L533.7001,123.0679 L533.5,123.0679 A2.5,2.5 0 0 1 536,125.5679 L536,238.5 A2.5,2.5 0 0 1 533.5,241 L16.5,241 A2.5,2.5 0 0 1 14,238.5 L14,100.5 A2.5,2.5 0 0 1 16.5,98 " fill="none" style="stroke:#000000;stroke-width:1.5;"/><line style="stroke:#000000;stroke-width:1.5;" x1="14" x2="533.7001" y1="123.0679" y2="123.0679"/><text fill="#000000" font-family="sans-serif" font-size="14" font-weight="bold" lengthAdjust="spacing" textLength="506.7001" x="18" y="114.9659">com.hack23.cia.web.impl.ui.application.views.user.docsearch.pagemode</text></g><!--cluster com.hack23.cia.web.impl.ui.application.views.common.pagemode--><g id="cluster_com.hack23.cia.web.impl.ui.application.views.common.pagemode"><path d="M33.5,4 L496.4841,4 A3.75,3.75 0 0 1 498.9841,6.5 L505.9841,29.0679 L505.5,29.0679 A2.5,2.5 0 0 1 508,31.5679 L508,87.5 A2.5,2.5 0 0 1 505.5,90 L33.5,90 A2.5,2.5 0 0 1 31,87.5 L31,6.5 A2.5,2.5 0 0 1 33.5,4 " fill="none" style="stroke:#000000;stroke-width:1.5;"/><line style="stroke:#000000;stroke-width:1.5;" x1="31" x2="505.9841" y1="29.0679" y2="29.0679"/><text fill="#000000" font-family="sans-serif" font-size="14" font-weight="bold" lengthAdjust="spacing" textLength="461.9841" x="35" y="20.9659">com.hack23.cia.web.impl.ui.application.views.common.pagemode</text></g><!--class SearchDocumentPageModContentFactoryImpl--><a href="SearchDocumentPageModContentFactoryImpl.html" target="_top" title="SearchDocumentPageModContentFactoryImpl.html" xlink:actuate="onRequest" xlink:href="SearchDocumentPageModContentFactoryImpl.html" xlink:show="new" xlink:title="SearchDocumentPageModContentFactoryImpl.html" xlink:type="simple"><g id="elem_SearchDocumentPageModContentFactoryImpl"><rect codeLine="12" fill="#F1F1F1" height="105.2038" id="SearchDocumentPageModContentFactoryImpl" rx="2.5" ry="2.5" style="stroke:#181818;stroke-width:0.5;" width="338.9208" x="34.5" y="128"/><ellipse cx="49.5" cy="144" fill="#ADD1B2" rx="11" ry="11" style="stroke:#181818;stroke-width:1.0;"/><path d="M52.4688,149.6406 Q51.8906,149.9375 51.25,150.0781 Q50.6094,150.2344 49.9063,150.2344 Q47.4063,150.2344 46.0781,148.5938 Q44.7656,146.9375 44.7656,143.8125 Q44.7656,140.6875 46.0781,139.0313 Q47.4063,137.375 49.9063,137.375 Q50.6094,137.375 51.25,137.5313 Q51.9063,137.6875 52.4688,137.9844 L52.4688,140.7031 Q51.8438,140.125 51.25,139.8594 Q50.6563,139.5781 50.0313,139.5781 Q48.6875,139.5781 48,140.6563 Q47.3125,141.7188 47.3125,143.8125 Q47.3125,145.9063 48,146.9844 Q48.6875,148.0469 50.0313,148.0469 Q50.6563,148.0469 51.25,147.7813 Q51.8438,147.5 52.4688,146.9219 L52.4688,149.6406 Z " fill="#000000"/><text fill="#000000" font-family="sans-serif" font-size="14" lengthAdjust="spacing" textLength="306.9208" x="63.5" y="149.432">SearchDocumentPageModContentFactoryImpl</text><line style="stroke:#181818;stroke-width:0.5;" x1="35.5" x2="372.4208" y1="160" y2="160"/><ellipse cx="45.5" cy="175.034" fill="none" rx="3" ry="3" style="stroke:#038048;stroke-width:1.0;"/><text fill="#000000" font-family="sans-serif" font-size="14" lengthAdjust="spacing" text-decoration="underline" textLength="86.8557" x="54.5" y="178.9659">NAME: String</text><line style="stroke:#181818;stroke-width:0.5;" x1="35.5" x2="372.4208" y1="187.0679" y2="187.0679"/><ellipse cx="45.5" cy="202.1019" fill="#84BE84" rx="3" ry="3" style="stroke:#038048;stroke-width:1.0;"/><text fill="#000000" font-family="sans-serif" font-size="14" lengthAdjust="spacing" textLength="305.4228" x="54.5" y="206.0339">createContent(String, MenuBar, Panel): Layout</text><ellipse cx="45.5" cy="221.1698" fill="#84BE84" rx="3" ry="3" style="stroke:#038048;stroke-width:1.0;"/><text fill="#000000" font-family="sans-serif" font-size="14" lengthAdjust="spacing" textLength="211.5112" x="54.5" y="225.1018">matches(String, String): boolean</text></g></a><!--class AbstractBasicPageModContentFactoryImpl--><a href="../../../common/pagemode/AbstractBasicPageModContentFactoryImpl.html" target="_top" title="../../../common/pagemode/AbstractBasicPageModContentFactoryImpl.html" xlink:actuate="onRequest" xlink:href="../../../common/pagemode/AbstractBasicPageModContentFactoryImpl.html" xlink:show="new" xlink:title="../../../common/pagemode/AbstractBasicPageModContentFactoryImpl.html" xlink:type="simple"><g id="elem_AbstractBasicPageModContentFactoryImpl"><rect codeLine="21" fill="#F1F1F1" height="48" id="AbstractBasicPageModContentFactoryImpl" rx="2.5" ry="2.5" style="stroke:#181818;stroke-width:0.5;" width="296.991" x="55.5" y="34"/><ellipse cx="70.5" cy="50" fill="#A9DCDF" rx="11" ry="11" style="stroke:#181818;stroke-width:1.0;"/><path d="M70.6094,45.3438 L69.4531,50.4219 L71.7813,50.4219 L70.6094,45.3438 Z M69.125,43.1094 L72.1094,43.1094 L75.4688,55.5 L73.0156,55.5 L72.25,52.4375 L68.9688,52.4375 L68.2188,55.5 L65.7813,55.5 L69.125,43.1094 Z " fill="#000000"/><text fill="#000000" font-family="sans-serif" font-size="14" font-style="italic" lengthAdjust="spacing" textLength="264.991" x="84.5" y="55.432">AbstractBasicPageModContentFactoryImpl</text><line style="stroke:#181818;stroke-width:0.5;" x1="56.5" x2="351.491" y1="66" y2="66"/><line style="stroke:#181818;stroke-width:0.5;" x1="56.5" x2="351.491" y1="74" y2="74"/></g></a><polygon fill="none" points="204,82.2336,198,100.2336,210,100.2336,204,82.2336" style="stroke:#181818;stroke-width:1.0;"/><path d="M204,100.2336 C204,113.2278 204,111.9725 204,127.8946 " fill="none" style="stroke:#181818;stroke-width:1.0;"/><text fill="#888888" font-family="sans-serif" font-size="10" lengthAdjust="spacing" textLength="2.6" x="262.2" y="253.69">&#160;</text><a href="https://github.com/talsma-ict/umldoclet" target="_top" title="https://github.com/talsma-ict/umldoclet" xlink:actuate="onRequest" xlink:href="https://github.com/talsma-ict/umldoclet" xlink:show="new" xlink:title="https://github.com/talsma-ict/umldoclet" xlink:type="simple"><text fill="#888888" font-family="sans-serif" font-size="10" lengthAdjust="spacing" textLength="76.7199" x="225.14" y="267.31">UMLDoclet 2.2.1</text></a><!--SRC=[hLJlJzim4FtENt7JFW2YTT8K64HeKkdOnjHEQ2sVEZvS7PDOTUpCTa0Lut_VvGTTEarJ9HP5IXpVlNll-N800FimDiNQoZJpu0tuJ3gudKu0TGAfqCAY5md875FXO2cKqQbh0WLWwJDZmTpNAswi5QumEf4wXI_uWE1CQRbmR6yFwbBp5_H7T1tqvRhw-C5m9JmSZ0yxbA9mSDgFmkWKvgXSZd0zdhCMxNTEn28s0C9MaWlj2BBKYR0rhL61d1wJPgS73y8wQJJbX2rE9PKRxL5g1mLQxof9DmgrhxWE6DK_Pk_WO3IRR7CBpsjkFHXPZMK2tyoFSYFtJM4n9SOArwRqu7BXKMEzvOYp4rGAFVaNnqq24LsHpSGbPnczHqF69R97iMGoBnGh9SEY88deIG1xaEBHiT89onB3dK3BCrOGG6uI0KyDPdLnXSx1h0uWmyfSQ7z3SLEJZ4ashJuY9oBhQwe2YyMEaIppkRgxeqhGkPwS9thy6Ow-ZgPNCSoyfNRO2ZdYLj2vjuW7JKGFfaANbsXxS8DQgCCO9hLnswavUZfDjqbgdXIyD4O9r9levqR_yokifU2S5XrBNy1nwRmb9rfhH-to4fta_tAMiQ2v6-ZW1JhO3Q5rl2liDOBYU4VY5p_x_V_IbN6yOsyruYwSNolnVcFxlJ6U_khjXlkyBeITIBqQ6qK_qzkpl-_ULWD1IIre1l6L5dHiOQTPwd91frvRwxjUB3Bl2nS7GIfzLYuh5mDV3wE-v3ueSvKqK-YFUTGUr3vysWowQbZqmwWV3kU3ONmSnM78peOdWxFJa_FZet10wyLLQKqXWfatV9KPbT_z0W00]--></g></svg>