<?xml version="1.0" encoding="UTF-8" standalone="no"?><svg xmlns="http://www.w3.org/2000/svg" xmlns:xlink="http://www.w3.org/1999/xlink" contentStyleType="text/css" height="351px" preserveAspectRatio="none" style="width:621px;height:351px;background:#FFFFFF;" version="1.1" viewBox="0 0 621 351" width="621px" zoomAndPan="magnify"><defs/><g><!--MD5=[e3e85904e90eac2a36a39b07f5536001]
class com.hack23.cia.web.impl.ui.application.views.common.converters.ListPropertyConverter--><a href="ListPropertyConverter.html" target="_top" title="ListPropertyConverter.html" xlink:actuate="onRequest" xlink:href="ListPropertyConverter.html" xlink:show="new" xlink:title="ListPropertyConverter.html" xlink:type="simple"><g id="elem_com.hack23.cia.web.impl.ui.application.views.common.converters.ListPropertyConverter"><rect codeLine="5" fill="#F1F1F1" height="165.0954" id="com.hack23.cia.web.impl.ui.application.views.common.converters.ListPropertyConverter" rx="2.5" ry="2.5" style="stroke:#181818;stroke-width:0.5;" width="390" x="156.5" y="159.016"/><ellipse cx="189.5" cy="180.36" fill="#ADD1B2" rx="11" ry="11" style="stroke:#181818;stroke-width:1.0;"/><path d="M192.4688,186.0006 Q191.8906,186.2975 191.25,186.4381 Q190.6094,186.5944 189.9063,186.5944 Q187.4063,186.5944 186.0781,184.9537 Q184.7656,183.2975 184.7656,180.1725 Q184.7656,177.0475 186.0781,175.3912 Q187.4063,173.735 189.9063,173.735 Q190.6094,173.735 191.25,173.8912 Q191.9063,174.0475 192.4688,174.3444 L192.4688,177.0631 Q191.8438,176.485 191.25,176.2194 Q190.6563,175.9381 190.0313,175.9381 Q188.6875,175.9381 188,177.0162 Q187.3125,178.0787 187.3125,180.1725 Q187.3125,182.2662 188,183.3444 Q188.6875,184.4069 190.0313,184.4069 Q190.6563,184.4069 191.25,184.1412 Q191.8438,183.86 192.4688,183.2819 L192.4688,186.0006 Z " fill="#000000"/><text fill="#000000" font-family="sans-serif" font-size="14" lengthAdjust="spacing" textLength="146" x="293.5" y="178.982">ListPropertyConverter</text><text fill="#000000" font-family="sans-serif" font-size="10" lengthAdjust="spacing" textLength="318" x="207.5" y="193.7739">com.hack23.cia.web.impl.ui.application.views.common.converters</text><line style="stroke:#181818;stroke-width:0.5;" x1="157.5" x2="545.5" y1="201.7039" y2="201.7039"/><ellipse cx="167.5" cy="216.7379" fill="#84BE84" rx="3" ry="3" style="stroke:#038048;stroke-width:1.0;"/><text fill="#000000" font-family="sans-serif" font-size="14" lengthAdjust="spacing" textLength="244" x="176.5" y="220.6699">ListPropertyConverter(String, String)</text><ellipse cx="167.5" cy="235.8058" fill="#84BE84" rx="3" ry="3" style="stroke:#038048;stroke-width:1.0;"/><text fill="#000000" font-family="sans-serif" font-size="14" lengthAdjust="spacing" textLength="293" x="176.5" y="239.7378">ListPropertyConverter(String, String, String)</text><ellipse cx="167.5" cy="254.8737" fill="#84BE84" rx="3" ry="3" style="stroke:#038048;stroke-width:1.0;"/><text fill="#000000" font-family="sans-serif" font-size="14" lengthAdjust="spacing" textLength="138" x="176.5" y="258.8057">apply(Object): String</text><ellipse cx="167.5" cy="273.9416" fill="#84BE84" rx="3" ry="3" style="stroke:#038048;stroke-width:1.0;"/><text fill="#000000" font-family="sans-serif" font-size="14" lengthAdjust="spacing" textLength="364" x="176.5" y="277.8736">convertToModel(String, ValueContext): Result&lt;List&lt;?&gt;&gt;</text><ellipse cx="167.5" cy="293.0096" fill="#84BE84" rx="3" ry="3" style="stroke:#038048;stroke-width:1.0;"/><text fill="#000000" font-family="sans-serif" font-size="14" lengthAdjust="spacing" textLength="327" x="176.5" y="296.9415">convertToPresentation(List, ValueContext): String</text><ellipse cx="167.5" cy="312.0775" fill="#84BE84" rx="3" ry="3" style="stroke:#038048;stroke-width:1.0;"/><text fill="#000000" font-family="sans-serif" font-size="14" lengthAdjust="spacing" textLength="131" x="176.5" y="316.0094">getColumn(): String</text></g></a><!--MD5=[50e48f68f5e6b9ef20d8319f32974b87]
class com.vaadin.data.Converter--><g id="elem_com.vaadin.data.Converter"><rect codeLine="14" fill="#F1F1F1" height="88.8237" id="com.vaadin.data.Converter" rx="2.5" ry="2.5" style="stroke:#181818;stroke-width:0.5;" width="371" x="7" y="10.016"/><ellipse cx="109.25" cy="31.36" fill="#B4A7E5" rx="11" ry="11" style="stroke:#181818;stroke-width:1.0;"/><path d="M105.1719,27.1256 L105.1719,24.9694 L112.5625,24.9694 L112.5625,27.1256 L110.0938,27.1256 L110.0938,35.2037 L112.5625,35.2037 L112.5625,37.36 L105.1719,37.36 L105.1719,35.2037 L107.6406,35.2037 L107.6406,27.1256 L105.1719,27.1256 Z " fill="#000000"/><text fill="#000000" font-family="sans-serif" font-size="14" font-style="italic" lengthAdjust="spacing" textLength="62" x="138.25" y="29.982">Converter</text><text fill="#000000" font-family="sans-serif" font-size="10" font-style="italic" lengthAdjust="spacing" textLength="79" x="129.75" y="44.7739">com.vaadin.data</text><rect fill="#FFFFFF" height="18.3441" style="stroke:#181818;stroke-width:1.0;stroke-dasharray:2.0,2.0;" width="77" x="304" y="7.016"/><text fill="#000000" font-family="sans-serif" font-size="12" font-style="italic" lengthAdjust="spacing" textLength="75" x="305" y="20.8441">String, List&lt;?&gt;</text><line style="stroke:#181818;stroke-width:0.5;" x1="8" x2="377" y1="52.7039" y2="52.7039"/><ellipse cx="18" cy="67.7379" fill="#84BE84" rx="3" ry="3" style="stroke:#038048;stroke-width:1.0;"/><text fill="#000000" font-family="sans-serif" font-size="14" font-style="italic" lengthAdjust="spacing" textLength="345" x="27" y="71.6699">convertToModel(String, ValueContext): Result&lt;MODEL&gt;</text><ellipse cx="18" cy="86.8058" fill="#84BE84" rx="3" ry="3" style="stroke:#038048;stroke-width:1.0;"/><text fill="#000000" font-family="sans-serif" font-size="14" font-style="italic" lengthAdjust="spacing" textLength="331" x="27" y="90.7378">convertToPresentation(List&lt;?&gt;, ValueContext): String</text></g><!--MD5=[f43961016bf2082b8138703d14bf28ba]
class com.vaadin.data.ValueProvider--><g id="elem_com.vaadin.data.ValueProvider"><rect codeLine="18" fill="#F1F1F1" height="69.7558" id="com.vaadin.data.ValueProvider" rx="2.5" ry="2.5" style="stroke:#181818;stroke-width:0.5;" width="197" x="413" y="19.516"/><ellipse cx="428" cy="40.86" fill="#B4A7E5" rx="11" ry="11" style="stroke:#181818;stroke-width:1.0;"/><path d="M423.9219,36.6256 L423.9219,34.4694 L431.3125,34.4694 L431.3125,36.6256 L428.8438,36.6256 L428.8438,44.7037 L431.3125,44.7037 L431.3125,46.86 L423.9219,46.86 L423.9219,44.7037 L426.3906,44.7037 L426.3906,36.6256 L423.9219,36.6256 Z " fill="#000000"/><text fill="#000000" font-family="sans-serif" font-size="14" font-style="italic" lengthAdjust="spacing" textLength="89" x="442" y="39.482">ValueProvider</text><text fill="#000000" font-family="sans-serif" font-size="10" font-style="italic" lengthAdjust="spacing" textLength="79" x="447" y="54.2739">com.vaadin.data</text><rect fill="#FFFFFF" height="18.3441" style="stroke:#181818;stroke-width:1.0;stroke-dasharray:2.0,2.0;" width="74" x="539" y="16.516"/><text fill="#000000" font-family="sans-serif" font-size="12" font-style="italic" lengthAdjust="spacing" textLength="72" x="540" y="30.3441">Object, String</text><line style="stroke:#181818;stroke-width:0.5;" x1="414" x2="609" y1="62.2039" y2="62.2039"/><ellipse cx="424" cy="77.2379" fill="#84BE84" rx="3" ry="3" style="stroke:#038048;stroke-width:1.0;"/><text fill="#000000" font-family="sans-serif" font-size="14" font-style="italic" lengthAdjust="spacing" textLength="129" x="433" y="81.1699">apply(Object): String</text></g><!--MD5=[20be46069b937d5d33a7033af3333da3]
reverse link com.vaadin.data.Converter to com.hack23.cia.web.impl.ui.application.views.common.converters.ListPropertyConverter--><g id="link_com.vaadin.data.Converter_com.hack23.cia.web.impl.ui.application.views.common.converters.ListPropertyConverter"><path codeLine="22" d="M243.34,114.666 C255.44,128.756 268.57,144.026 281.37,158.916 " fill="none" id="com.vaadin.data.Converter-backto-com.hack23.cia.web.impl.ui.application.views.common.converters.ListPropertyConverter" style="stroke:#181818;stroke-width:1.0;stroke-dasharray:7.0,7.0;"/><polygon fill="none" points="237.91,119.086,230.18,99.356,248.53,109.966,237.91,119.086" style="stroke:#181818;stroke-width:1.0;"/></g><!--MD5=[f19c15ef3a99ec44d48099f654a10cb7]
reverse link com.vaadin.data.ValueProvider to com.hack23.cia.web.impl.ui.application.views.common.converters.ListPropertyConverter--><g id="link_com.vaadin.data.ValueProvider_com.hack23.cia.web.impl.ui.application.views.common.converters.ListPropertyConverter"><path codeLine="23" d="M468.55,105.176 C454.3,121.656 438.03,140.466 422.25,158.716 " fill="none" id="com.vaadin.data.ValueProvider-backto-com.hack23.cia.web.impl.ui.application.views.common.converters.ListPropertyConverter" style="stroke:#181818;stroke-width:1.0;stroke-dasharray:7.0,7.0;"/><polygon fill="none" points="463.4,100.426,481.78,89.876,473.99,109.586,463.4,100.426" style="stroke:#181818;stroke-width:1.0;"/></g><rect fill="none" height="13.62" style="stroke:none;stroke-width:1.0;" width="188" x="209.5" y="330.1114"/><text fill="#888888" font-family="sans-serif" font-size="10" lengthAdjust="spacing" textLength="188" x="209.5" y="340.8014">UMLDoclet 2.0.20, PlantUML 1.2022.12</text><!--MD5=[006f1a23693a6e09154a4d06e15d8c63]
@startuml
    set namespaceSeparator none
    hide empty fields
    hide empty methods

    class "<size:14>ListPropertyConverter\n<size:10>com.hack23.cia.web.impl.ui.application.views.common.converters" as com.hack23.cia.web.impl.ui.application.views.common.converters.ListPropertyConverter [[ListPropertyConverter.html]] {
        +ListPropertyConverter(String, String)
        +ListPropertyConverter(String, String, String)
        +apply(Object): String
        +convertToModel(String, ValueContext): Result<List<?>>
        +convertToPresentation(List, ValueContext): String
        +getColumn(): String
    }

    interface "<size:14>Converter\n<size:10>com.vaadin.data" as com.vaadin.data.Converter<String, List<?>> {
        {abstract} +convertToModel(String, ValueContext): Result<MODEL>
        {abstract} +convertToPresentation(List<?>, ValueContext): String
    }
    interface "<size:14>ValueProvider\n<size:10>com.vaadin.data" as com.vaadin.data.ValueProvider<Object, String> {
        {abstract} +apply(Object): String
    }

    com.vaadin.data.Converter <|.. com.hack23.cia.web.impl.ui.application.views.common.converters.ListPropertyConverter
    com.vaadin.data.ValueProvider <|.. com.hack23.cia.web.impl.ui.application.views.common.converters.ListPropertyConverter

    center footer UMLDoclet 2.0.20, PlantUML 1.2022.12
@enduml

PlantUML version 1.2022.12(Sun Oct 23 20:12:26 CEST 2022)
(APACHE source distribution)
Java Runtime: OpenJDK Runtime Environment
JVM: OpenJDK 64-Bit Server VM
Default Encoding: UTF-8
Language: 
Country: 
--></g></svg>