<?xml version="1.0" encoding="UTF-8" standalone="no"?><svg xmlns="http://www.w3.org/2000/svg" xmlns:xlink="http://www.w3.org/1999/xlink" contentStyleType="text/css" height="490px" preserveAspectRatio="none" style="width:1135px;height:490px;background:#FFFFFF;" version="1.1" viewBox="0 0 1135 490" width="1135px" zoomAndPan="magnify"><defs/><g><!--MD5=[9172f4df071df4ab8d9e939623be3be2]
cluster com.hack23.cia.web.impl.ui.application.views.common.converters--><g id="cluster_com.hack23.cia.web.impl.ui.application.views.common.converters"><path d="M228.5,246.602 L688.5,246.602 A3.75,3.75 0 0 1 691,249.102 L698,271.6699 L698.5,271.6699 A2.5,2.5 0 0 1 701,274.1699 L701,460.102 A2.5,2.5 0 0 1 698.5,462.602 L228.5,462.602 A2.5,2.5 0 0 1 226,460.102 L226,249.102 A2.5,2.5 0 0 1 228.5,246.602 " fill="none" style="stroke:#000000;stroke-width:1.5;"/><line style="stroke:#000000;stroke-width:1.5;" x1="226" x2="698" y1="271.6699" y2="271.6699"/><text fill="#000000" font-family="sans-serif" font-size="14" font-weight="bold" lengthAdjust="spacing" textLength="459" x="230" y="263.5679">com.hack23.cia.web.impl.ui.application.views.common.converters</text></g><!--MD5=[a709f92e7afed3e2534b1458593faadc]
cluster com.vaadin.data--><g id="cluster_com.vaadin.data"><path d="M8.5,6.602 L124.5,6.602 A3.75,3.75 0 0 1 127,9.102 L134,31.6699 L1125.5,31.6699 A2.5,2.5 0 0 1 1128,34.1699 L1128,220.102 A2.5,2.5 0 0 1 1125.5,222.602 L8.5,222.602 A2.5,2.5 0 0 1 6,220.102 L6,9.102 A2.5,2.5 0 0 1 8.5,6.602 " fill="none" style="stroke:#000000;stroke-width:1.5;"/><line style="stroke:#000000;stroke-width:1.5;" x1="6" x2="134" y1="31.6699" y2="31.6699"/><text fill="#000000" font-family="sans-serif" font-size="14" font-weight="bold" lengthAdjust="spacing" textLength="115" x="10" y="23.5679">com.vaadin.data</text></g><!--MD5=[e3e85904e90eac2a36a39b07f5536001]
class com.hack23.cia.web.impl.ui.application.views.common.converters.ListPropertyConverter--><a href="ListPropertyConverter.html" target="_top" title="ListPropertyConverter.html" xlink:actuate="onRequest" xlink:href="ListPropertyConverter.html" xlink:show="new" xlink:title="ListPropertyConverter.html" xlink:type="simple"><g id="elem_com.hack23.cia.web.impl.ui.application.views.common.converters.ListPropertyConverter"><rect codeLine="3" fill="#F1F1F1" height="162.4075" id="com.hack23.cia.web.impl.ui.application.views.common.converters.ListPropertyConverter" rx="2.5" ry="2.5" style="stroke:#181818;stroke-width:0.5;" width="390" x="268" y="284.602"/><ellipse cx="385.75" cy="300.602" fill="#ADD1B2" rx="11" ry="11" style="stroke:#181818;stroke-width:1.0;"/><path d="M388.7188,306.2426 Q388.1406,306.5395 387.5,306.6801 Q386.8594,306.8364 386.1563,306.8364 Q383.6563,306.8364 382.3281,305.1957 Q381.0156,303.5395 381.0156,300.4145 Q381.0156,297.2895 382.3281,295.6332 Q383.6563,293.977 386.1563,293.977 Q386.8594,293.977 387.5,294.1332 Q388.1563,294.2895 388.7188,294.5864 L388.7188,297.3051 Q388.0938,296.727 387.5,296.4614 Q386.9063,296.1801 386.2813,296.1801 Q384.9375,296.1801 384.25,297.2582 Q383.5625,298.3207 383.5625,300.4145 Q383.5625,302.5082 384.25,303.5864 Q384.9375,304.6489 386.2813,304.6489 Q386.9063,304.6489 387.5,304.3832 Q388.0938,304.102 388.7188,303.5239 L388.7188,306.2426 Z " fill="#000000"/><text fill="#000000" font-family="sans-serif" font-size="14" lengthAdjust="spacing" textLength="146" x="406.25" y="306.034">ListPropertyConverter</text><line style="stroke:#181818;stroke-width:0.5;" x1="269" x2="657" y1="316.602" y2="316.602"/><line style="stroke:#181818;stroke-width:0.5;" x1="269" x2="657" y1="324.602" y2="324.602"/><ellipse cx="279" cy="339.6359" fill="#84BE84" rx="3" ry="3" style="stroke:#038048;stroke-width:1.0;"/><text fill="#000000" font-family="sans-serif" font-size="14" lengthAdjust="spacing" textLength="244" x="288" y="343.5679">ListPropertyConverter(String, String)</text><ellipse cx="279" cy="358.7039" fill="#84BE84" rx="3" ry="3" style="stroke:#038048;stroke-width:1.0;"/><text fill="#000000" font-family="sans-serif" font-size="14" lengthAdjust="spacing" textLength="293" x="288" y="362.6358">ListPropertyConverter(String, String, String)</text><ellipse cx="279" cy="377.7718" fill="#84BE84" rx="3" ry="3" style="stroke:#038048;stroke-width:1.0;"/><text fill="#000000" font-family="sans-serif" font-size="14" lengthAdjust="spacing" textLength="138" x="288" y="381.7038">apply(Object): String</text><ellipse cx="279" cy="396.8397" fill="#84BE84" rx="3" ry="3" style="stroke:#038048;stroke-width:1.0;"/><text fill="#000000" font-family="sans-serif" font-size="14" lengthAdjust="spacing" textLength="364" x="288" y="400.7717">convertToModel(String, ValueContext): Result&lt;List&lt;?&gt;&gt;</text><ellipse cx="279" cy="415.9076" fill="#84BE84" rx="3" ry="3" style="stroke:#038048;stroke-width:1.0;"/><text fill="#000000" font-family="sans-serif" font-size="14" lengthAdjust="spacing" textLength="327" x="288" y="419.8396">convertToPresentation(List, ValueContext): String</text><ellipse cx="279" cy="434.9755" fill="#84BE84" rx="3" ry="3" style="stroke:#038048;stroke-width:1.0;"/><text fill="#000000" font-family="sans-serif" font-size="14" lengthAdjust="spacing" textLength="131" x="288" y="438.9075">getColumn(): String</text></g></a><!--MD5=[50e48f68f5e6b9ef20d8319f32974b87]
class com.vaadin.data.Converter--><g id="elem_com.vaadin.data.Converter"><rect codeLine="17" fill="#F1F1F1" height="162.4075" id="com.vaadin.data.Converter" rx="2.5" ry="2.5" style="stroke:#181818;stroke-width:0.5;" width="829" x="283.5" y="44.602"/><ellipse cx="598.25" cy="60.602" fill="#B4A7E5" rx="11" ry="11" style="stroke:#181818;stroke-width:1.0;"/><path d="M594.1719,56.3676 L594.1719,54.2114 L601.5625,54.2114 L601.5625,56.3676 L599.0938,56.3676 L599.0938,64.4457 L601.5625,64.4457 L601.5625,66.602 L594.1719,66.602 L594.1719,64.4457 L596.6406,64.4457 L596.6406,56.3676 L594.1719,56.3676 Z " fill="#000000"/><text fill="#000000" font-family="sans-serif" font-size="14" font-style="italic" lengthAdjust="spacing" textLength="62" x="618.75" y="66.034">Converter</text><rect fill="#FFFFFF" height="18.3441" style="stroke:#181818;stroke-width:1.0;stroke-dasharray:2.0,2.0;" width="127" x="988.5" y="41.602"/><text fill="#000000" font-family="sans-serif" font-size="12" font-style="italic" lengthAdjust="spacing" textLength="125" x="989.5" y="55.4301">PRESENTATION, MODEL</text><line style="stroke:#181818;stroke-width:0.5;" x1="284.5" x2="1111.5" y1="76.602" y2="76.602"/><line style="stroke:#181818;stroke-width:0.5;" x1="284.5" x2="1111.5" y1="84.602" y2="84.602"/><ellipse cx="294.5" cy="99.6359" fill="#84BE84" rx="3" ry="3" style="stroke:#038048;stroke-width:1.0;"/><text fill="#000000" font-family="sans-serif" font-size="14" font-style="italic" lengthAdjust="spacing" textLength="401" x="303.5" y="103.5679">convertToModel(PRESENTATION, ValueContext): Result&lt;MODEL&gt;</text><ellipse cx="294.5" cy="118.7039" fill="#84BE84" rx="3" ry="3" style="stroke:#038048;stroke-width:1.0;"/><text fill="#000000" font-family="sans-serif" font-size="14" font-style="italic" lengthAdjust="spacing" textLength="388" x="303.5" y="122.6358">convertToPresentation(MODEL, ValueContext): PRESENTATION</text><ellipse cx="294.5" cy="137.7718" fill="#84BE84" rx="3" ry="3" style="stroke:#038048;stroke-width:1.0;"/><text fill="#000000" font-family="sans-serif" font-size="14" lengthAdjust="spacing" text-decoration="underline" textLength="173" x="303.5" y="141.7038">identity(): Converter&lt;T, T&gt;</text><ellipse cx="294.5" cy="156.8397" fill="#84BE84" rx="3" ry="3" style="stroke:#038048;stroke-width:1.0;"/><text fill="#000000" font-family="sans-serif" font-size="14" lengthAdjust="spacing" text-decoration="underline" textLength="803" x="303.5" y="160.7717">from(SerializableFunction&lt;P, M&gt;, SerializableFunction&lt;M, P&gt;, SerializableFunction&lt;Exception, String&gt;): Converter&lt;P, M&gt;</text><ellipse cx="294.5" cy="175.9076" fill="#84BE84" rx="3" ry="3" style="stroke:#038048;stroke-width:1.0;"/><text fill="#000000" font-family="sans-serif" font-size="14" lengthAdjust="spacing" text-decoration="underline" textLength="587" x="303.5" y="179.8396">from(SerializableFunction&lt;P, Result&lt;M&gt;&gt;, SerializableFunction&lt;M, P&gt;): Converter&lt;P, M&gt;</text><ellipse cx="294.5" cy="194.9755" fill="#84BE84" rx="3" ry="3" style="stroke:#038048;stroke-width:1.0;"/><text fill="#000000" font-family="sans-serif" font-size="14" lengthAdjust="spacing" textLength="402" x="303.5" y="198.9075">chain(Converter&lt;MODEL, T&gt;): Converter&lt;PRESENTATION, T&gt;</text></g><!--MD5=[f43961016bf2082b8138703d14bf28ba]
class com.vaadin.data.ValueProvider--><g id="elem_com.vaadin.data.ValueProvider"><rect codeLine="25" fill="#F1F1F1" height="86.1358" id="com.vaadin.data.ValueProvider" rx="2.5" ry="2.5" style="stroke:#181818;stroke-width:0.5;" width="226" x="22" y="82.602"/><ellipse cx="42.4" cy="98.602" fill="#B4A7E5" rx="11" ry="11" style="stroke:#181818;stroke-width:1.0;"/><path d="M38.3219,94.3676 L38.3219,92.2114 L45.7125,92.2114 L45.7125,94.3676 L43.2438,94.3676 L43.2438,102.4457 L45.7125,102.4457 L45.7125,104.602 L38.3219,104.602 L38.3219,102.4457 L40.7906,102.4457 L40.7906,94.3676 L38.3219,94.3676 Z " fill="#000000"/><text fill="#000000" font-family="sans-serif" font-size="14" font-style="italic" lengthAdjust="spacing" textLength="89" x="57.6" y="104.034">ValueProvider</text><rect fill="#FFFFFF" height="18.3441" style="stroke:#181818;stroke-width:1.0;stroke-dasharray:2.0,2.0;" width="91" x="160" y="79.602"/><text fill="#000000" font-family="sans-serif" font-size="12" font-style="italic" lengthAdjust="spacing" textLength="89" x="161" y="93.4301">SOURCE, TARGET</text><line style="stroke:#181818;stroke-width:0.5;" x1="23" x2="247" y1="114.602" y2="114.602"/><line style="stroke:#181818;stroke-width:0.5;" x1="23" x2="247" y1="122.602" y2="122.602"/><ellipse cx="33" cy="137.6359" fill="#84BE84" rx="3" ry="3" style="stroke:#038048;stroke-width:1.0;"/><text fill="#000000" font-family="sans-serif" font-size="14" lengthAdjust="spacing" text-decoration="underline" textLength="200" x="42" y="141.5679">identity(): ValueProvider&lt;T, T&gt;</text><ellipse cx="33" cy="156.7039" fill="#84BE84" rx="3" ry="3" style="stroke:#038048;stroke-width:1.0;"/><text fill="#000000" font-family="sans-serif" font-size="14" font-style="italic" lengthAdjust="spacing" textLength="146" x="42" y="160.6358">apply(SOURCE): TARGET</text></g><!--MD5=[20be46069b937d5d33a7033af3333da3]
reverse link com.vaadin.data.Converter to com.hack23.cia.web.impl.ui.application.views.common.converters.ListPropertyConverter--><g id="link_com.vaadin.data.Converter_com.hack23.cia.web.impl.ui.application.views.common.converters.ListPropertyConverter"><path codeLine="12" d="M604.67,221.122 C584.01,242.042 562.32,264.012 542.29,284.302 " fill="none" id="com.vaadin.data.Converter-backto-com.hack23.cia.web.impl.ui.application.views.common.converters.ListPropertyConverter" style="stroke:#181818;stroke-width:1.0;stroke-dasharray:7.0,7.0;"/><polygon fill="none" points="599.73,216.162,618.77,206.842,609.7,225.992,599.73,216.162" style="stroke:#181818;stroke-width:1.0;"/></g><!--MD5=[f19c15ef3a99ec44d48099f654a10cb7]
reverse link com.vaadin.data.ValueProvider to com.hack23.cia.web.impl.ui.application.views.common.converters.ListPropertyConverter--><g id="link_com.vaadin.data.ValueProvider_com.hack23.cia.web.impl.ui.application.views.common.converters.ListPropertyConverter"><path codeLine="13" d="M202.02,181.362 C222.33,197.532 244.87,215.062 266,230.602 C290.32,248.492 316.8,267.072 342.21,284.502 " fill="none" id="com.vaadin.data.ValueProvider-backto-com.hack23.cia.web.impl.ui.application.views.common.converters.ListPropertyConverter" style="stroke:#181818;stroke-width:1.0;stroke-dasharray:7.0,7.0;"/><polygon fill="none" points="197.5,186.712,186.27,168.742,206.26,175.782,197.5,186.712" style="stroke:#181818;stroke-width:1.0;"/></g><rect fill="none" height="13.62" style="stroke:none;stroke-width:1.0;" width="188" x="466.5" y="468.602"/><text fill="#888888" font-family="sans-serif" font-size="10" lengthAdjust="spacing" textLength="188" x="466.5" y="479.292">UMLDoclet 2.0.20, PlantUML 1.2022.12</text><!--MD5=[2b471eafa7746d68b5f92abab5e7bd10]
@startuml
    namespace com.hack23.cia.web.impl.ui.application.views.common.converters {

        class ListPropertyConverter [[ListPropertyConverter.html]] {
            +ListPropertyConverter(String, String)
            +ListPropertyConverter(String, String, String)
            +apply(Object): String
            +convertToModel(String, ValueContext): Result<List<?>>
            +convertToPresentation(List, ValueContext): String
            +getColumn(): String
        }

        com.vaadin.data.Converter <|.. ListPropertyConverter
        com.vaadin.data.ValueProvider <|.. ListPropertyConverter
    }

    namespace com.vaadin.data {
        interface Converter<PRESENTATION, MODEL> {
            {abstract} +convertToModel(PRESENTATION, ValueContext): Result<MODEL>
            {abstract} +convertToPresentation(MODEL, ValueContext): PRESENTATION
            {static} +identity(): Converter<T, T>
            {static} +from(SerializableFunction<P, M>, SerializableFunction<M, P>, SerializableFunction<Exception, String>): Converter<P, M>
            {static} +from(SerializableFunction<P, Result<M>>, SerializableFunction<M, P>): Converter<P, M>
            +chain(Converter<MODEL, T>): Converter<PRESENTATION, T>
        }
        interface ValueProvider<SOURCE, TARGET> {
            {static} +identity(): ValueProvider<T, T>
            {abstract} +apply(SOURCE): TARGET
        }
    }

    center footer UMLDoclet 2.0.20, PlantUML 1.2022.12
@enduml

PlantUML version 1.2022.12(Sun Oct 23 20:12:26 CEST 2022)
(APACHE source distribution)
Java Runtime: OpenJDK Runtime Environment
JVM: OpenJDK 64-Bit Server VM
Default Encoding: UTF-8
Language: 
Country: 
--></g></svg>