<svg xmlns="http://www.w3.org/2000/svg" xmlns:xlink="http://www.w3.org/1999/xlink" contentStyleType="text/css" height="743px" preserveAspectRatio="none" style="width:1606px;height:743px;background:#FFFFFF;" version="1.1" viewBox="0 0 1606 743" width="1606px" zoomAndPan="magnify"><defs/><g><!--cluster com.hack23.cia.web.impl.ui.application.views.user.country.pagemode--><g id="cluster_com.hack23.cia.web.impl.ui.application.views.user.country.pagemode"><path d="M16.5,98 L507.6941,98 A3.75,3.75 0 0 1 510.1941,100.5 L517.1941,123.0679 L1596.5,123.0679 A2.5,2.5 0 0 1 1599,125.5679 L1599,703.5 A2.5,2.5 0 0 1 1596.5,706 L16.5,706 A2.5,2.5 0 0 1 14,703.5 L14,100.5 A2.5,2.5 0 0 1 16.5,98 " fill="none" style="stroke:#000000;stroke-width:1.5;"/><line style="stroke:#000000;stroke-width:1.5;" x1="14" x2="517.1941" y1="123.0679" y2="123.0679"/><text fill="#000000" font-family="sans-serif" font-size="14" font-weight="bold" lengthAdjust="spacing" textLength="490.1941" x="18" y="114.9659">com.hack23.cia.web.impl.ui.application.views.user.country.pagemode</text></g><!--cluster com.hack23.cia.web.impl.ui.application.views.common.pagemode--><g id="cluster_com.hack23.cia.web.impl.ui.application.views.common.pagemode"><path d="M357.5,4 L820.4841,4 A3.75,3.75 0 0 1 822.9841,6.5 L829.9841,29.0679 L829.5,29.0679 A2.5,2.5 0 0 1 832,31.5679 L832,87.5 A2.5,2.5 0 0 1 829.5,90 L357.5,90 A2.5,2.5 0 0 1 355,87.5 L355,6.5 A2.5,2.5 0 0 1 357.5,4 " fill="none" style="stroke:#000000;stroke-width:1.5;"/><line style="stroke:#000000;stroke-width:1.5;" x1="355" x2="829.9841" y1="29.0679" y2="29.0679"/><text fill="#000000" font-family="sans-serif" font-size="14" font-weight="bold" lengthAdjust="spacing" textLength="461.9841" x="359" y="20.9659">com.hack23.cia.web.impl.ui.application.views.common.pagemode</text></g><!--class CountryRankingConstants--><a href="CountryRankingConstants.html" target="_top" title="CountryRankingConstants.html" xlink:actuate="onRequest" xlink:href="CountryRankingConstants.html" xlink:show="new" xlink:title="CountryRankingConstants.html" xlink:type="simple"><g id="elem_CountryRankingConstants"><rect codeLine="12" fill="#F1F1F1" height="162.4075" id="CountryRankingConstants" rx="2.5" ry="2.5" style="stroke:#181818;stroke-width:0.5;" width="193.5594" x="1397" y="261.5"/><ellipse cx="1412" cy="277.5" fill="#B4A7E5" rx="11" ry="11" style="stroke:#181818;stroke-width:1.0;"/><path d="M1407.9219,273.2656 L1407.9219,271.1094 L1415.3125,271.1094 L1415.3125,273.2656 L1412.8438,273.2656 L1412.8438,281.3438 L1415.3125,281.3438 L1415.3125,283.5 L1407.9219,283.5 L1407.9219,281.3438 L1410.3906,281.3438 L1410.3906,273.2656 L1407.9219,273.2656 Z " fill="#000000"/><text fill="#000000" font-family="sans-serif" font-size="14" font-style="italic" lengthAdjust="spacing" textLength="161.5594" x="1426" y="282.932">CountryRankingConstants</text><line style="stroke:#181818;stroke-width:0.5;" x1="1398" x2="1589.5594" y1="293.5" y2="293.5"/><ellipse cx="1408" cy="308.534" fill="none" rx="3" ry="3" style="stroke:#038048;stroke-width:1.0;"/><text fill="#000000" font-family="sans-serif" font-size="14" lengthAdjust="spacing" text-decoration="underline" textLength="133.0975" x="1417" y="312.4659">CHART_TITLE: String</text><ellipse cx="1408" cy="327.6019" fill="none" rx="3" ry="3" style="stroke:#038048;stroke-width:1.0;"/><text fill="#000000" font-family="sans-serif" font-size="14" lengthAdjust="spacing" text-decoration="underline" textLength="160.1174" x="1417" y="331.5339">CHART_SUBTITLE: String</text><ellipse cx="1408" cy="346.6698" fill="none" rx="3" ry="3" style="stroke:#038048;stroke-width:1.0;"/><text fill="#000000" font-family="sans-serif" font-size="14" lengthAdjust="spacing" text-decoration="underline" textLength="132.2015" x="1417" y="350.6018">CHART_DESC: String</text><ellipse cx="1408" cy="365.7377" fill="none" rx="3" ry="3" style="stroke:#038048;stroke-width:1.0;"/><text fill="#000000" font-family="sans-serif" font-size="14" lengthAdjust="spacing" text-decoration="underline" textLength="122.3035" x="1417" y="369.6697">GRID_TITLE: String</text><ellipse cx="1408" cy="384.8056" fill="none" rx="3" ry="3" style="stroke:#038048;stroke-width:1.0;"/><text fill="#000000" font-family="sans-serif" font-size="14" lengthAdjust="spacing" text-decoration="underline" textLength="149.3234" x="1417" y="388.7376">GRID_SUBTITLE: String</text><ellipse cx="1408" cy="403.8735" fill="none" rx="3" ry="3" style="stroke:#038048;stroke-width:1.0;"/><text fill="#000000" font-family="sans-serif" font-size="14" lengthAdjust="spacing" text-decoration="underline" textLength="121.4075" x="1417" y="407.8055">GRID_DESC: String</text><line style="stroke:#181818;stroke-width:0.5;" x1="1398" x2="1589.5594" y1="415.9075" y2="415.9075"/></g></a><!--class CountryViewConstants--><a href="CountryViewConstants.html" target="_top" title="CountryViewConstants.html" xlink:actuate="onRequest" xlink:href="CountryViewConstants.html" xlink:show="new" xlink:title="CountryViewConstants.html" xlink:type="simple"><g id="elem_CountryViewConstants"><rect codeLine="21" fill="#F1F1F1" height="105.2038" id="CountryViewConstants" rx="2.5" ry="2.5" style="stroke:#181818;stroke-width:0.5;" width="279.987" x="1083" y="593"/><ellipse cx="1149.1568" cy="609" fill="#B4A7E5" rx="11" ry="11" style="stroke:#181818;stroke-width:1.0;"/><path d="M1145.0786,604.7656 L1145.0786,602.6094 L1152.4693,602.6094 L1152.4693,604.7656 L1150.0005,604.7656 L1150.0005,612.8438 L1152.4693,612.8438 L1152.4693,615 L1145.0786,615 L1145.0786,612.8438 L1147.5474,612.8438 L1147.5474,604.7656 L1145.0786,604.7656 Z " fill="#000000"/><text fill="#000000" font-family="sans-serif" font-size="14" font-style="italic" lengthAdjust="spacing" textLength="139.1735" x="1169.6568" y="614.432">CountryViewConstants</text><line style="stroke:#181818;stroke-width:0.5;" x1="1084" x2="1361.987" y1="625" y2="625"/><ellipse cx="1094" cy="640.034" fill="none" rx="3" ry="3" style="stroke:#038048;stroke-width:1.0;"/><text fill="#000000" font-family="sans-serif" font-size="14" lengthAdjust="spacing" text-decoration="underline" textLength="226.9671" x="1103" y="643.9659">RANKING_OVERVIEW_TITLE: String</text><ellipse cx="1094" cy="659.1019" fill="none" rx="3" ry="3" style="stroke:#038048;stroke-width:1.0;"/><text fill="#000000" font-family="sans-serif" font-size="14" lengthAdjust="spacing" text-decoration="underline" textLength="253.987" x="1103" y="663.0339">RANKING_OVERVIEW_SUBTITLE: String</text><ellipse cx="1094" cy="678.1698" fill="none" rx="3" ry="3" style="stroke:#038048;stroke-width:1.0;"/><text fill="#000000" font-family="sans-serif" font-size="14" lengthAdjust="spacing" text-decoration="underline" textLength="226.0711" x="1103" y="682.1018">RANKING_OVERVIEW_DESC: String</text><line style="stroke:#181818;stroke-width:0.5;" x1="1084" x2="1361.987" y1="690.2038" y2="690.2038"/></g></a><!--class CountryIndicatorConstants--><a href="CountryIndicatorConstants.html" target="_top" title="CountryIndicatorConstants.html" xlink:actuate="onRequest" xlink:href="CountryIndicatorConstants.html" xlink:show="new" xlink:title="CountryIndicatorConstants.html" xlink:type="simple"><g id="elem_CountryIndicatorConstants"><rect codeLine="27" fill="#F1F1F1" height="429.3583" id="CountryIndicatorConstants" rx="2.5" ry="2.5" style="stroke:#181818;stroke-width:0.5;" width="311.1369" x="1067.5" y="128"/><ellipse cx="1135.0778" cy="144" fill="#B4A7E5" rx="11" ry="11" style="stroke:#181818;stroke-width:1.0;"/><path d="M1130.9996,139.7656 L1130.9996,137.6094 L1138.3903,137.6094 L1138.3903,139.7656 L1135.9215,139.7656 L1135.9215,147.8438 L1138.3903,147.8438 L1138.3903,150 L1130.9996,150 L1130.9996,147.8438 L1133.4684,147.8438 L1133.4684,139.7656 L1130.9996,139.7656 Z " fill="#000000"/><text fill="#000000" font-family="sans-serif" font-size="14" font-style="italic" lengthAdjust="spacing" textLength="167.4814" x="1155.5778" y="149.432">CountryIndicatorConstants</text><line style="stroke:#181818;stroke-width:0.5;" x1="1068.5" x2="1377.6369" y1="160" y2="160"/><ellipse cx="1078.5" cy="175.034" fill="none" rx="3" ry="3" style="stroke:#038048;stroke-width:1.0;"/><text fill="#000000" font-family="sans-serif" font-size="14" lengthAdjust="spacing" text-decoration="underline" textLength="257.501" x="1087.5" y="178.9659">INDICATOR_SUMMARY_HEADER: String</text><ellipse cx="1078.5" cy="194.1019" fill="none" rx="3" ry="3" style="stroke:#038048;stroke-width:1.0;"/><text fill="#000000" font-family="sans-serif" font-size="14" lengthAdjust="spacing" text-decoration="underline" textLength="215.3611" x="1087.5" y="198.0339">INDICATOR_NAME_LABEL: String</text><ellipse cx="1078.5" cy="213.1698" fill="none" rx="3" ry="3" style="stroke:#038048;stroke-width:1.0;"/><text fill="#000000" font-family="sans-serif" font-size="14" lengthAdjust="spacing" text-decoration="underline" textLength="196.6152" x="1087.5" y="217.1018">SOURCE_VALUE_LABEL: String</text><ellipse cx="1078.5" cy="232.2377" fill="none" rx="3" ry="3" style="stroke:#038048;stroke-width:1.0;"/><text fill="#000000" font-family="sans-serif" font-size="14" lengthAdjust="spacing" text-decoration="underline" textLength="183.7493" x="1087.5" y="236.1697">SOURCE_ORG_LABEL: String</text><ellipse cx="1078.5" cy="251.3056" fill="none" rx="3" ry="3" style="stroke:#038048;stroke-width:1.0;"/><text fill="#000000" font-family="sans-serif" font-size="14" lengthAdjust="spacing" text-decoration="underline" textLength="232.8471" x="1087.5" y="255.2376">INDICATOR_NAME_TOOLTIP: String</text><ellipse cx="1078.5" cy="270.3735" fill="none" rx="3" ry="3" style="stroke:#038048;stroke-width:1.0;"/><text fill="#000000" font-family="sans-serif" font-size="14" lengthAdjust="spacing" text-decoration="underline" textLength="214.1012" x="1087.5" y="274.3055">SOURCE_VALUE_TOOLTIP: String</text><ellipse cx="1078.5" cy="289.4415" fill="none" rx="3" ry="3" style="stroke:#038048;stroke-width:1.0;"/><text fill="#000000" font-family="sans-serif" font-size="14" lengthAdjust="spacing" text-decoration="underline" textLength="201.2352" x="1087.5" y="293.3734">SOURCE_ORG_TOOLTIP: String</text><ellipse cx="1078.5" cy="308.5094" fill="none" rx="3" ry="3" style="stroke:#038048;stroke-width:1.0;"/><text fill="#000000" font-family="sans-serif" font-size="14" lengthAdjust="spacing" text-decoration="underline" textLength="285.1369" x="1087.5" y="312.4414">INDICATOR_SUMMARY_CARD_STYLE: String</text><ellipse cx="1078.5" cy="327.5773" fill="none" rx="3" ry="3" style="stroke:#038048;stroke-width:1.0;"/><text fill="#000000" font-family="sans-serif" font-size="14" lengthAdjust="spacing" text-decoration="underline" textLength="209.9712" x="1087.5" y="331.5093">SECTION_HEADER_STYLE: String</text><ellipse cx="1078.5" cy="346.6452" fill="none" rx="3" ry="3" style="stroke:#038048;stroke-width:1.0;"/><text fill="#000000" font-family="sans-serif" font-size="14" lengthAdjust="spacing" text-decoration="underline" textLength="211.6932" x="1087.5" y="350.5772">ECONOMIC_INDICATORS: String</text><ellipse cx="1078.5" cy="365.7131" fill="none" rx="3" ry="3" style="stroke:#038048;stroke-width:1.0;"/><text fill="#000000" font-family="sans-serif" font-size="14" lengthAdjust="spacing" text-decoration="underline" textLength="219.0011" x="1087.5" y="369.6451">ECONOMIC_DESCRIPTION: String</text><ellipse cx="1078.5" cy="384.781" fill="none" rx="3" ry="3" style="stroke:#038048;stroke-width:1.0;"/><text fill="#000000" font-family="sans-serif" font-size="14" lengthAdjust="spacing" text-decoration="underline" textLength="184.7573" x="1087.5" y="388.713">SOCIAL_INDICATORS: String</text><ellipse cx="1078.5" cy="403.849" fill="none" rx="3" ry="3" style="stroke:#038048;stroke-width:1.0;"/><text fill="#000000" font-family="sans-serif" font-size="14" lengthAdjust="spacing" text-decoration="underline" textLength="192.0653" x="1087.5" y="407.7809">SOCIAL_DESCRIPTION: String</text><ellipse cx="1078.5" cy="422.9169" fill="none" rx="3" ry="3" style="stroke:#038048;stroke-width:1.0;"/><text fill="#000000" font-family="sans-serif" font-size="14" lengthAdjust="spacing" text-decoration="underline" textLength="253.301" x="1087.5" y="426.8489">ENVIRONMENTAL_INDICATORS: String</text><ellipse cx="1078.5" cy="441.9848" fill="none" rx="3" ry="3" style="stroke:#038048;stroke-width:1.0;"/><text fill="#000000" font-family="sans-serif" font-size="14" lengthAdjust="spacing" text-decoration="underline" textLength="260.6089" x="1087.5" y="445.9168">ENVIRONMENTAL_DESCRIPTION: String</text><ellipse cx="1078.5" cy="461.0527" fill="none" rx="3" ry="3" style="stroke:#038048;stroke-width:1.0;"/><text fill="#000000" font-family="sans-serif" font-size="14" lengthAdjust="spacing" text-decoration="underline" textLength="229.1371" x="1087.5" y="464.9847">GOVERNANCE_INDICATORS: String</text><ellipse cx="1078.5" cy="480.1206" fill="none" rx="3" ry="3" style="stroke:#038048;stroke-width:1.0;"/><text fill="#000000" font-family="sans-serif" font-size="14" lengthAdjust="spacing" text-decoration="underline" textLength="236.4451" x="1087.5" y="484.0526">GOVERNANCE_DESCRIPTION: String</text><ellipse cx="1078.5" cy="499.1885" fill="none" rx="3" ry="3" style="stroke:#038048;stroke-width:1.0;"/><text fill="#000000" font-family="sans-serif" font-size="14" lengthAdjust="spacing" text-decoration="underline" textLength="164.0094" x="1087.5" y="503.1205">INDICATOR_TITLE: String</text><ellipse cx="1078.5" cy="518.2565" fill="none" rx="3" ry="3" style="stroke:#038048;stroke-width:1.0;"/><text fill="#000000" font-family="sans-serif" font-size="14" lengthAdjust="spacing" text-decoration="underline" textLength="191.0293" x="1087.5" y="522.1884">INDICATOR_SUBTITLE: String</text><ellipse cx="1078.5" cy="537.3244" fill="none" rx="3" ry="3" style="stroke:#038048;stroke-width:1.0;"/><text fill="#000000" font-family="sans-serif" font-size="14" lengthAdjust="spacing" text-decoration="underline" textLength="163.1134" x="1087.5" y="541.2564">INDICATOR_DESC: String</text><line style="stroke:#181818;stroke-width:0.5;" x1="1068.5" x2="1377.6369" y1="549.3583" y2="549.3583"/></g></a><!--class CountryRankingOverviewPageModContentFactoryImpl--><a href="CountryRankingOverviewPageModContentFactoryImpl.html" target="_top" title="CountryRankingOverviewPageModContentFactoryImpl.html" xlink:actuate="onRequest" xlink:href="CountryRankingOverviewPageModContentFactoryImpl.html" xlink:show="new" xlink:title="CountryRankingOverviewPageModContentFactoryImpl.html" xlink:type="simple"><g id="elem_CountryRankingOverviewPageModContentFactoryImpl"><rect codeLine="50" fill="#F1F1F1" height="86.1358" id="CountryRankingOverviewPageModContentFactoryImpl" rx="2.5" ry="2.5" style="stroke:#181818;stroke-width:0.5;" width="393.0866" x="656.5" y="299.5"/><ellipse cx="671.5" cy="315.5" fill="#ADD1B2" rx="11" ry="11" style="stroke:#181818;stroke-width:1.0;"/><path d="M674.4688,321.1406 Q673.8906,321.4375 673.25,321.5781 Q672.6094,321.7344 671.9063,321.7344 Q669.4063,321.7344 668.0781,320.0938 Q666.7656,318.4375 666.7656,315.3125 Q666.7656,312.1875 668.0781,310.5313 Q669.4063,308.875 671.9063,308.875 Q672.6094,308.875 673.25,309.0313 Q673.9063,309.1875 674.4688,309.4844 L674.4688,312.2031 Q673.8438,311.625 673.25,311.3594 Q672.6563,311.0781 672.0313,311.0781 Q670.6875,311.0781 670,312.1563 Q669.3125,313.2188 669.3125,315.3125 Q669.3125,317.4063 670,318.4844 Q670.6875,319.5469 672.0313,319.5469 Q672.6563,319.5469 673.25,319.2813 Q673.8438,319 674.4688,318.4219 L674.4688,321.1406 Z " fill="#000000"/><text fill="#000000" font-family="sans-serif" font-size="14" lengthAdjust="spacing" textLength="361.0866" x="685.5" y="320.932">CountryRankingOverviewPageModContentFactoryImpl</text><line style="stroke:#181818;stroke-width:0.5;" x1="657.5" x2="1048.5866" y1="331.5" y2="331.5"/><line style="stroke:#181818;stroke-width:0.5;" x1="657.5" x2="1048.5866" y1="339.5" y2="339.5"/><ellipse cx="667.5" cy="354.534" fill="#84BE84" rx="3" ry="3" style="stroke:#038048;stroke-width:1.0;"/><text fill="#000000" font-family="sans-serif" font-size="14" lengthAdjust="spacing" textLength="305.4228" x="676.5" y="358.4659">createContent(String, MenuBar, Panel): Layout</text><ellipse cx="667.5" cy="373.6019" fill="#84BE84" rx="3" ry="3" style="stroke:#038048;stroke-width:1.0;"/><text fill="#000000" font-family="sans-serif" font-size="14" lengthAdjust="spacing" textLength="211.5112" x="676.5" y="377.5339">matches(String, String): boolean</text></g></a><!--class CountryPageTitleConstants--><a href="CountryPageTitleConstants.html" target="_top" title="CountryPageTitleConstants.html" xlink:actuate="onRequest" xlink:href="CountryPageTitleConstants.html" xlink:show="new" xlink:title="CountryPageTitleConstants.html" xlink:type="simple"><g id="elem_CountryPageTitleConstants"><rect codeLine="55" fill="#F1F1F1" height="200.5433" id="CountryPageTitleConstants" rx="2.5" ry="2.5" style="stroke:#181818;stroke-width:0.5;" width="267.3031" x="371.5" y="242"/><ellipse cx="417.1118" cy="258" fill="#B4A7E5" rx="11" ry="11" style="stroke:#181818;stroke-width:1.0;"/><path d="M413.0337,253.7656 L413.0337,251.6094 L420.4243,251.6094 L420.4243,253.7656 L417.9556,253.7656 L417.9556,261.8438 L420.4243,261.8438 L420.4243,264 L413.0337,264 L413.0337,261.8438 L415.5025,261.8438 L415.5025,253.7656 L413.0337,253.7656 Z " fill="#000000"/><text fill="#000000" font-family="sans-serif" font-size="14" font-style="italic" lengthAdjust="spacing" textLength="167.5794" x="437.6118" y="263.432">CountryPageTitleConstants</text><line style="stroke:#181818;stroke-width:0.5;" x1="372.5" x2="637.8031" y1="274" y2="274"/><ellipse cx="382.5" cy="289.034" fill="none" rx="3" ry="3" style="stroke:#038048;stroke-width:1.0;"/><text fill="#000000" font-family="sans-serif" font-size="14" lengthAdjust="spacing" text-decoration="underline" textLength="158.2134" x="391.5" y="292.9659">OVERVIEW_TITLE: String</text><ellipse cx="382.5" cy="308.1019" fill="none" rx="3" ry="3" style="stroke:#038048;stroke-width:1.0;"/><text fill="#000000" font-family="sans-serif" font-size="14" lengthAdjust="spacing" text-decoration="underline" textLength="213.3452" x="391.5" y="312.0339">OVERVIEW_DESCRIPTION: String</text><ellipse cx="382.5" cy="327.1698" fill="none" rx="3" ry="3" style="stroke:#038048;stroke-width:1.0;"/><text fill="#000000" font-family="sans-serif" font-size="14" lengthAdjust="spacing" text-decoration="underline" textLength="171.6953" x="391.5" y="331.1018">INDICATORS_TITLE: String</text><ellipse cx="382.5" cy="346.2377" fill="none" rx="3" ry="3" style="stroke:#038048;stroke-width:1.0;"/><text fill="#000000" font-family="sans-serif" font-size="14" lengthAdjust="spacing" text-decoration="underline" textLength="226.8271" x="391.5" y="350.1697">INDICATORS_DESCRIPTION: String</text><ellipse cx="382.5" cy="365.3056" fill="none" rx="3" ry="3" style="stroke:#038048;stroke-width:1.0;"/><text fill="#000000" font-family="sans-serif" font-size="14" lengthAdjust="spacing" text-decoration="underline" textLength="150.9754" x="391.5" y="369.2376">RANKING_TITLE: String</text><ellipse cx="382.5" cy="384.3735" fill="none" rx="3" ry="3" style="stroke:#038048;stroke-width:1.0;"/><text fill="#000000" font-family="sans-serif" font-size="14" lengthAdjust="spacing" text-decoration="underline" textLength="206.1072" x="391.5" y="388.3055">RANKING_DESCRIPTION: String</text><ellipse cx="382.5" cy="403.4415" fill="none" rx="3" ry="3" style="stroke:#038048;stroke-width:1.0;"/><text fill="#000000" font-family="sans-serif" font-size="14" lengthAdjust="spacing" text-decoration="underline" textLength="186.1713" x="391.5" y="407.3734">VISIT_HISTORY_TITLE: String</text><ellipse cx="382.5" cy="422.5094" fill="none" rx="3" ry="3" style="stroke:#038048;stroke-width:1.0;"/><text fill="#000000" font-family="sans-serif" font-size="14" lengthAdjust="spacing" text-decoration="underline" textLength="241.3031" x="391.5" y="426.4414">VISIT_HISTORY_DESCRIPTION: String</text><line style="stroke:#181818;stroke-width:0.5;" x1="372.5" x2="637.8031" y1="434.5433" y2="434.5433"/></g></a><!--class WorldIndicatorsPageModContentFactoryImpl--><a href="WorldIndicatorsPageModContentFactoryImpl.html" target="_top" title="WorldIndicatorsPageModContentFactoryImpl.html" xlink:actuate="onRequest" xlink:href="WorldIndicatorsPageModContentFactoryImpl.html" xlink:show="new" xlink:title="WorldIndicatorsPageModContentFactoryImpl.html" xlink:type="simple"><g id="elem_WorldIndicatorsPageModContentFactoryImpl"><rect codeLine="66" fill="#F1F1F1" height="86.1358" id="WorldIndicatorsPageModContentFactoryImpl" rx="2.5" ry="2.5" style="stroke:#181818;stroke-width:0.5;" width="331.4228" x="22.5" y="299.5"/><ellipse cx="37.5657" cy="315.5" fill="#ADD1B2" rx="11" ry="11" style="stroke:#181818;stroke-width:1.0;"/><path d="M40.5344,321.1406 Q39.9563,321.4375 39.3157,321.5781 Q38.675,321.7344 37.9719,321.7344 Q35.4719,321.7344 34.1438,320.0938 Q32.8313,318.4375 32.8313,315.3125 Q32.8313,312.1875 34.1438,310.5313 Q35.4719,308.875 37.9719,308.875 Q38.675,308.875 39.3157,309.0313 Q39.9719,309.1875 40.5344,309.4844 L40.5344,312.2031 Q39.9094,311.625 39.3157,311.3594 Q38.7219,311.0781 38.0969,311.0781 Q36.7532,311.0781 36.0657,312.1563 Q35.3782,313.2188 35.3782,315.3125 Q35.3782,317.4063 36.0657,318.4844 Q36.7532,319.5469 38.0969,319.5469 Q38.7219,319.5469 39.3157,319.2813 Q39.9094,319 40.5344,318.4219 L40.5344,321.1406 Z " fill="#000000"/><text fill="#000000" font-family="sans-serif" font-size="14" lengthAdjust="spacing" textLength="299.2769" x="51.5802" y="320.932">WorldIndicatorsPageModContentFactoryImpl</text><line style="stroke:#181818;stroke-width:0.5;" x1="23.5" x2="352.9228" y1="331.5" y2="331.5"/><line style="stroke:#181818;stroke-width:0.5;" x1="23.5" x2="352.9228" y1="339.5" y2="339.5"/><ellipse cx="33.5" cy="354.534" fill="#84BE84" rx="3" ry="3" style="stroke:#038048;stroke-width:1.0;"/><text fill="#000000" font-family="sans-serif" font-size="14" lengthAdjust="spacing" textLength="305.4228" x="42.5" y="358.4659">createContent(String, MenuBar, Panel): Layout</text><ellipse cx="33.5" cy="373.6019" fill="#84BE84" rx="3" ry="3" style="stroke:#038048;stroke-width:1.0;"/><text fill="#000000" font-family="sans-serif" font-size="14" lengthAdjust="spacing" textLength="211.5112" x="42.5" y="377.5339">matches(String, String): boolean</text></g></a><!--class AbstractBasicPageModContentFactoryImpl--><a href="../../../common/pagemode/AbstractBasicPageModContentFactoryImpl.html" target="_top" title="../../../common/pagemode/AbstractBasicPageModContentFactoryImpl.html" xlink:actuate="onRequest" xlink:href="../../../common/pagemode/AbstractBasicPageModContentFactoryImpl.html" xlink:show="new" xlink:title="../../../common/pagemode/AbstractBasicPageModContentFactoryImpl.html" xlink:type="simple"><g id="elem_AbstractBasicPageModContentFactoryImpl"><rect codeLine="74" fill="#F1F1F1" height="48" id="AbstractBasicPageModContentFactoryImpl" rx="2.5" ry="2.5" style="stroke:#181818;stroke-width:0.5;" width="296.991" x="371.5" y="34"/><ellipse cx="386.5" cy="50" fill="#A9DCDF" rx="11" ry="11" style="stroke:#181818;stroke-width:1.0;"/><path d="M386.6094,45.3438 L385.4531,50.4219 L387.7813,50.4219 L386.6094,45.3438 Z M385.125,43.1094 L388.1094,43.1094 L391.4688,55.5 L389.0156,55.5 L388.25,52.4375 L384.9688,52.4375 L384.2188,55.5 L381.7813,55.5 L385.125,43.1094 Z " fill="#000000"/><text fill="#000000" font-family="sans-serif" font-size="14" font-style="italic" lengthAdjust="spacing" textLength="264.991" x="400.5" y="55.432">AbstractBasicPageModContentFactoryImpl</text><line style="stroke:#181818;stroke-width:0.5;" x1="372.5" x2="667.491" y1="66" y2="66"/><line style="stroke:#181818;stroke-width:0.5;" x1="372.5" x2="667.491" y1="74" y2="74"/></g></a><polygon fill="none" points="548.8658,443.0782,552.4491,461.7104,562.9117,455.834,548.8658,443.0782" style="stroke:#181818;stroke-width:1.0;"/><path d="M557.6804,458.7722 C581.1204,500.5058 605.2569,529.8541 648,557 C718.215,601.5931 936.1991,625.0293 1082.6769,636.0709 " fill="none" style="stroke:#181818;stroke-width:1.0;"/><polygon fill="none" points="1223,557.034,1217,575.034,1229,575.034,1223,557.034" style="stroke:#181818;stroke-width:1.0;"/><path d="M1223,575.034 C1223,587.9166 1223,582.0471 1223,592.9367 " fill="none" style="stroke:#181818;stroke-width:1.0;"/><polygon fill="none" points="1468.0001,423.5903,1455.7843,438.1083,1466.9383,442.5342,1468.0001,423.5903" style="stroke:#181818;stroke-width:1.0;"/><path d="M1461.3613,440.3213 C1444.0857,483.8592 1424.4459,519.5655 1388,557 C1374.768,570.5909 1358.9673,582.5395 1342.4627,592.8868 " fill="none" style="stroke:#181818;stroke-width:1.0;"/><polygon fill="none" points="617.4244,82.0983,631.765,94.5218,636.3511,83.4327,617.4244,82.0983" style="stroke:#181818;stroke-width:1.0;"/><path d="M634.058,88.9773 C644.7957,93.4179 638.5966,91.7935 648,98 C728.4809,151.1195 794.4937,244.9605 828.3683,299.3271 " fill="none" style="stroke:#181818;stroke-width:1.0;"/><polygon fill="none" points="392.7649,82.1482,373.8447,83.571,378.4824,94.6386,392.7649,82.1482" style="stroke:#181818;stroke-width:1.0;"/><path d="M376.1636,89.1048 C365.6699,93.5021 372.1838,91.7767 363,98 C287.581,149.1067 233.4963,244.1286 206.8213,299.1432 " fill="none" style="stroke:#181818;stroke-width:1.0;"/><text fill="#888888" font-family="sans-serif" font-size="10" lengthAdjust="spacing" textLength="2.6" x="793.7" y="718.69">&#160;</text><a href="https://github.com/talsma-ict/umldoclet" target="_top" title="https://github.com/talsma-ict/umldoclet" xlink:actuate="onRequest" xlink:href="https://github.com/talsma-ict/umldoclet" xlink:show="new" xlink:title="https://github.com/talsma-ict/umldoclet" xlink:type="simple"><text fill="#888888" font-family="sans-serif" font-size="10" lengthAdjust="spacing" textLength="76.7199" x="756.64" y="732.31">UMLDoclet 2.2.1</text></a><!--SRC=[rLXjR-8u4Fw-lyAd-x1TjOH0NtOtMfqKGexcBYHL4bXLlGgPu4BKnCxPJYkqr_z-aq0f51OSRQMxHPKeU9vvdfcCPumHGkWzibW-vybq9f5aICuIWGPz5s4wGLD22SUIJ52IuIaHQ4nIHgTYOKWGBkICSSJkgaynuvo8dD59GgVe3_o0aM05ZudGthr35LNqxFqHYpNlutdvPPV5AP7eoFgm9gcjjouQRRrzZYASYWmZnugqfRSNJ5jhQoq4ljCa9bI0ou9E2AzacJcEuSrTh9oW1y95mYXWzAMVCjIOKOaJAb2EkHHbI5SffhBKsjA0_qpxY8xCqDtKfd-kj9qWarDSJ530_YvMuVwISpm5nIcUiq8YaH69AQwM16WM1AYmXFmPnW80GkyXpQ0bqsRmV_jKYnEiFPAnbcHvgXM9XlCSGiGI0j0U4l8ej48GhiMie9BFjHpW6PiGz6tXiNmbL19-XsC2oYkh0DDxU48Mem84GR0tDzzPqMOoIszlmHjQUts3HPd4J-ZOkZI3Q1GvaMiRA9GSi7ijmq57tRXhXzO1mrxWT9NeAqD5zifs9_dJdgGEuM7ioEZ6ruVI6PZUduxN6_b3EnWwzbUbqBP0Yc5kuMg7xC16Zyi2tX7tzjgXu1slwrXcv0SGGBzl1jUZIzlisi61C5vWdjctHwxPiTq3aD0V19Oz6fhke1R03tfAvgyaHRxlHivL7L6r8AKiDS1sYYqpW7qHNH-ibj2s8iVtbiz42M9RlkVt7MkqeWrL4MKf1ivLoNWm1vPZkkeKItjr0jiREe7lzMqlgiEp2LEdwvNRqJCzUAxAN6iOTQANMb1f5kkLqwa7EDHMuXGByMeq-J2Zo-bs1UEipoRGGoIXydSSGqEPEp0AjqRMGSJkzdCSSm8daANvqKBb2UeJMdGmFq5Nc9BqWu7SQeHlGZCiuLmXLg35EnYF6Ki9faezjDGR9J8bEthezjgX7bfhS6mq_ff54zQhch06n_DSgZF3rBqFdT29HfTE2AgkbJWs4VkOjehwA-FfP3K9nRvgLZNzxyluwGVEgc2SmOUrK-gpSpmMaaEOoyoPouyTB99uNzuqhRduMxXkFhjkgdbOfdCzi1y_V1l6zpVtbtyQZRUas3XVlhN-7GUydqh_rW-T_vdwLzl1C1JB_gt3K9sXFs64gdrriVU_23bFoM-hhdJ76CphLytsSfuJxYRqtc8f_7Z_zTFkrK5v0P4cb4Ip9Bwd1BgQljPBAxhc6j-IwozwSpEJCXT6ipbDvAmObqbiokhoev74ibbawMHnw_7g_cFPnzwZtkfYfRoSQEWV6wtJgAKR-cVZx4BxT7vntZexFJixrjk6hj_O1MSvQOQInVSpbcQt_m80]--></g></svg>