<?xml version="1.0" encoding="UTF-8" standalone="no"?><svg xmlns="http://www.w3.org/2000/svg" xmlns:xlink="http://www.w3.org/1999/xlink" contentScriptType="application/ecmascript" contentStyleType="text/css" height="215px" preserveAspectRatio="none" style="width:352px;height:215px;background:#FFFFFF;" version="1.1" viewBox="0 0 352 215" width="352px" zoomAndPan="magnify"><defs><filter height="300%" id="f11k1egmz7jrho" width="300%" x="-1" y="-1"><feGaussianBlur result="blurOut" stdDeviation="2.0"/><feColorMatrix in="blurOut" result="blurOut2" type="matrix" values="0 0 0 0 0 0 0 0 0 0 0 0 0 0 0 0 0 0 .4 0"/><feOffset dx="4.0" dy="4.0" in="blurOut2" result="blurOut3"/><feBlend in="SourceGraphic" in2="blurOut3" mode="normal"/></filter></defs><g><!--MD5=[0acc8722546daf1cb4bef74d7eae210a]
class com.hack23.cia.web.impl.ui.application.views.user.politician.PoliticianView--><a href="PoliticianView.html" target="_top" title="PoliticianView.html" xlink:actuate="onRequest" xlink:href="PoliticianView.html" xlink:show="new" xlink:title="PoliticianView.html" xlink:type="simple"><rect codeLine="5" fill="#FEFECE" filter="url(#f11k1egmz7jrho)" height="79.5469" id="com.hack23.cia.web.impl.ui.application.views.user.politician.PoliticianView" style="stroke:#A80036;stroke-width:1.5;" width="315" x="15" y="105"/><ellipse cx="30" cy="123.9688" fill="#ADD1B2" rx="11" ry="11" style="stroke:#A80036;stroke-width:1.0;"/><path d="M32.9688,129.6094 Q32.3906,129.9063 31.75,130.0469 Q31.1094,130.2031 30.4063,130.2031 Q27.9063,130.2031 26.5781,128.5625 Q25.2656,126.9063 25.2656,123.7813 Q25.2656,120.6563 26.5781,119 Q27.9063,117.3438 30.4063,117.3438 Q31.1094,117.3438 31.75,117.5 Q32.4063,117.6563 32.9688,117.9531 L32.9688,120.6719 Q32.3438,120.0938 31.75,119.8281 Q31.1563,119.5469 30.5313,119.5469 Q29.1875,119.5469 28.5,120.625 Q27.8125,121.6875 27.8125,123.7813 Q27.8125,125.875 28.5,126.9531 Q29.1875,128.0156 30.5313,128.0156 Q31.1563,128.0156 31.75,127.75 Q32.3438,127.4688 32.9688,126.8906 L32.9688,129.6094 Z " fill="#000000"/><text fill="#000000" font-family="sans-serif" font-size="14" lengthAdjust="spacing" textLength="92" x="139.5" y="122.9951">PoliticianView</text><text fill="#000000" font-family="sans-serif" font-size="10" lengthAdjust="spacing" textLength="283" x="44" y="135.5791">com.hack23.cia.web.impl.ui.application.views.user.politician</text><line style="stroke:#A80036;stroke-width:1.5;" x1="16" x2="329" y1="142.9375" y2="142.9375"/><ellipse cx="26" cy="153.9375" rx="3" ry="3" style="stroke:#038048;stroke-width:1.0;fill:none;"/><text fill="#000000" font-family="sans-serif" font-size="11" lengthAdjust="spacing" text-decoration="underline" textLength="73" x="35" y="157.1479">NAME: String</text><line style="stroke:#A80036;stroke-width:1.5;" x1="16" x2="329" y1="163.7422" y2="163.7422"/><ellipse cx="26" cy="174.7422" fill="#84BE84" rx="3" ry="3" style="stroke:#038048;stroke-width:1.0;"/><text fill="#000000" font-family="sans-serif" font-size="11" lengthAdjust="spacing" textLength="188" x="35" y="177.9526">PoliticianView(ApplicationContext)</text></a><!--MD5=[00a1846810b414438ee6460487108842]
class com.hack23.cia.web.impl.ui.application.views.user.common.AbstractPersonView--><a href="../common/AbstractPersonView.html" target="_top" title="../common/AbstractPersonView.html" xlink:actuate="onRequest" xlink:href="../common/AbstractPersonView.html" xlink:show="new" xlink:title="../common/AbstractPersonView.html" xlink:type="simple"><rect codeLine="10" fill="#FEFECE" filter="url(#f11k1egmz7jrho)" height="37.9375" id="com.hack23.cia.web.impl.ui.application.views.user.common.AbstractPersonView" style="stroke:#A80036;stroke-width:1.5;" width="331" x="7" y="7"/><ellipse cx="22" cy="25.9688" fill="#A9DCDF" rx="11" ry="11" style="stroke:#A80036;stroke-width:1.0;"/><path d="M22.1094,21.3125 L20.9531,26.3906 L23.2813,26.3906 L22.1094,21.3125 Z M20.625,19.0781 L23.6094,19.0781 L26.9688,31.4688 L24.5156,31.4688 L23.75,28.4063 L20.4688,28.4063 L19.7188,31.4688 L17.2813,31.4688 L20.625,19.0781 Z " fill="#000000"/><text fill="#000000" font-family="sans-serif" font-size="14" font-style="italic" lengthAdjust="spacing" textLength="137" x="117" y="24.9951">AbstractPersonView</text><text fill="#000000" font-family="sans-serif" font-size="10" font-style="italic" lengthAdjust="spacing" textLength="299" x="36" y="37.5791">com.hack23.cia.web.impl.ui.application.views.user.common</text></a><!--MD5=[5ac20839c98351509830a071ba344d61]
reverse link com.hack23.cia.web.impl.ui.application.views.user.common.AbstractPersonView to com.hack23.cia.web.impl.ui.application.views.user.politician.PoliticianView--><path codeLine="12" d="M172.5,65.14 C172.5,77.87 172.5,92.07 172.5,104.87 " fill="none" id="com.hack23.cia.web.impl.ui.application.views.user.common.AbstractPersonView-backto-com.hack23.cia.web.impl.ui.application.views.user.politician.PoliticianView" style="stroke:#A80036;stroke-width:1.0;"/><polygon fill="none" points="165.5,65.02,172.5,45.02,179.5,65.02,165.5,65.02" style="stroke:#A80036;stroke-width:1.0;"/><text fill="#888888" font-family="sans-serif" font-size="10" lengthAdjust="spacing" textLength="192" x="73.5" y="206.8291">UMLDoclet 2.0.15, PlantUML 1.2021.13</text><!--MD5=[7c66669a4279c65cd9941cf09a5049ef]
@startuml
    set namespaceSeparator none
    hide empty fields
    hide empty methods

    class "<size:14>PoliticianView\n<size:10>com.hack23.cia.web.impl.ui.application.views.user.politician" as com.hack23.cia.web.impl.ui.application.views.user.politician.PoliticianView [[PoliticianView.html]] {
        {static} +NAME: String
        +PoliticianView(ApplicationContext)
    }

    abstract class "<size:14>AbstractPersonView\n<size:10>com.hack23.cia.web.impl.ui.application.views.user.common" as com.hack23.cia.web.impl.ui.application.views.user.common.AbstractPersonView [[../common/AbstractPersonView.html]]

    com.hack23.cia.web.impl.ui.application.views.user.common.AbstractPersonView <|- - com.hack23.cia.web.impl.ui.application.views.user.politician.PoliticianView

    center footer UMLDoclet 2.0.15, PlantUML 1.2021.13
@enduml

PlantUML version 1.2021.13(Mon Nov 01 12:38:45 CET 2021)
(APACHE source distribution)
Java Runtime: OpenJDK Runtime Environment
JVM: OpenJDK 64-Bit Server VM
Default Encoding: UTF-8
Language: en
Country: US
--></g></svg>