<svg xmlns="http://www.w3.org/2000/svg" xmlns:xlink="http://www.w3.org/1999/xlink" contentStyleType="text/css" height="354px" preserveAspectRatio="none" style="width:3714px;height:354px;background:#FFFFFF;" version="1.1" viewBox="0 0 3714 354" width="3714px" zoomAndPan="magnify"><defs/><g><!--cluster com.hack23.cia.service.impl.action.application--><g id="cluster_com.hack23.cia.service.impl.action.application"><path d="M16.5,174 L343.4048,174 A3.75,3.75 0 0 1 345.9048,176.5 L352.9048,199.0679 L3704.5,199.0679 A2.5,2.5 0 0 1 3707,201.5679 L3707,314.5 A2.5,2.5 0 0 1 3704.5,317 L16.5,317 A2.5,2.5 0 0 1 14,314.5 L14,176.5 A2.5,2.5 0 0 1 16.5,174 " fill="none" style="stroke:#000000;stroke-width:1.5;"/><line style="stroke:#000000;stroke-width:1.5;" x1="14" x2="352.9048" y1="199.0679" y2="199.0679"/><text fill="#000000" font-family="sans-serif" font-size="14" font-weight="bold" lengthAdjust="spacing" textLength="325.9048" x="18" y="190.9659">com.hack23.cia.service.impl.action.application</text></g><!--cluster com.hack23.cia.service.impl.action.common--><g id="cluster_com.hack23.cia.service.impl.action.common"><path d="M885.5,4 L1195.0448,4 A3.75,3.75 0 0 1 1197.5448,6.5 L1204.5448,29.0679 L2246.5,29.0679 A2.5,2.5 0 0 1 2249,31.5679 L2249,163.5 A2.5,2.5 0 0 1 2246.5,166 L885.5,166 A2.5,2.5 0 0 1 883,163.5 L883,6.5 A2.5,2.5 0 0 1 885.5,4 " fill="none" style="stroke:#000000;stroke-width:1.5;"/><line style="stroke:#000000;stroke-width:1.5;" x1="883" x2="1204.5448" y1="29.0679" y2="29.0679"/><text fill="#000000" font-family="sans-serif" font-size="14" font-weight="bold" lengthAdjust="spacing" textLength="308.5448" x="887" y="20.9659">com.hack23.cia.service.impl.action.common</text></g><!--class RegisterUserService--><a href="RegisterUserService.html" target="_top" title="RegisterUserService.html" xlink:actuate="onRequest" xlink:href="RegisterUserService.html" xlink:show="new" xlink:title="RegisterUserService.html" xlink:type="simple"><g id="elem_RegisterUserService"><rect codeLine="12" fill="#F1F1F1" height="105.2038" id="RegisterUserService" rx="2.5" ry="2.5" style="stroke:#181818;stroke-width:0.5;" width="606.97" x="1799.5" y="204"/><ellipse cx="2032.9422" cy="220" fill="#ADD1B2" rx="11" ry="11" style="stroke:#181818;stroke-width:1.0;"/><path d="M2035.911,225.6406 Q2035.3329,225.9375 2034.6922,226.0781 Q2034.0516,226.2344 2033.3485,226.2344 Q2030.8485,226.2344 2029.5204,224.5938 Q2028.2079,222.9375 2028.2079,219.8125 Q2028.2079,216.6875 2029.5204,215.0313 Q2030.8485,213.375 2033.3485,213.375 Q2034.0516,213.375 2034.6922,213.5313 Q2035.3485,213.6875 2035.911,213.9844 L2035.911,216.7031 Q2035.286,216.125 2034.6922,215.8594 Q2034.0985,215.5781 2033.4735,215.5781 Q2032.1297,215.5781 2031.4422,216.6563 Q2030.7547,217.7188 2030.7547,219.8125 Q2030.7547,221.9063 2031.4422,222.9844 Q2032.1297,224.0469 2033.4735,224.0469 Q2034.0985,224.0469 2034.6922,223.7813 Q2035.286,223.5 2035.911,222.9219 L2035.911,225.6406 Z " fill="#000000"/><text fill="#000000" font-family="sans-serif" font-size="14" lengthAdjust="spacing" textLength="131.5855" x="2053.4422" y="225.432">RegisterUserService</text><line style="stroke:#181818;stroke-width:0.5;" x1="1800.5" x2="2405.47" y1="236" y2="236"/><line style="stroke:#181818;stroke-width:0.5;" x1="1800.5" x2="2405.47" y1="244" y2="244"/><ellipse cx="1810.5" cy="259.034" fill="#84BE84" rx="3" ry="3" style="stroke:#038048;stroke-width:1.0;"/><text fill="#000000" font-family="sans-serif" font-size="14" lengthAdjust="spacing" textLength="400.3145" x="1819.5" y="262.9659">processService(RegisterUserRequest): RegisterUserResponse</text><polygon fill="#FFFF44" points="1810.5,273.1019,1814.5,277.1019,1810.5,281.1019,1806.5,277.1019" style="stroke:#B38D22;stroke-width:1.0;"/><text fill="#000000" font-family="sans-serif" font-size="14" lengthAdjust="spacing" textLength="580.97" x="1819.5" y="282.0339">createApplicationEventForService(RegisterUserRequest): CreateApplicationEventRequest</text><polygon fill="#FFFF44" points="1810.5,292.1698,1814.5,296.1698,1810.5,300.1698,1806.5,296.1698" style="stroke:#B38D22;stroke-width:1.0;"/><text fill="#000000" font-family="sans-serif" font-size="14" lengthAdjust="spacing" textLength="302.7629" x="1819.5" y="301.1018">createErrorResponse(): RegisterUserResponse</text></g></a><!--class LogoutService--><a href="LogoutService.html" target="_top" title="LogoutService.html" xlink:actuate="onRequest" xlink:href="LogoutService.html" xlink:show="new" xlink:title="LogoutService.html" xlink:type="simple"><g id="elem_LogoutService"><rect codeLine="18" fill="#F1F1F1" height="105.2038" id="LogoutService" rx="2.5" ry="2.5" style="stroke:#181818;stroke-width:0.5;" width="568.6801" x="1212.5" y="204"/><ellipse cx="1445.9422" cy="220" fill="#ADD1B2" rx="11" ry="11" style="stroke:#181818;stroke-width:1.0;"/><path d="M1448.911,225.6406 Q1448.3328,225.9375 1447.6922,226.0781 Q1447.0516,226.2344 1446.3485,226.2344 Q1443.8485,226.2344 1442.5203,224.5938 Q1441.2078,222.9375 1441.2078,219.8125 Q1441.2078,216.6875 1442.5203,215.0313 Q1443.8485,213.375 1446.3485,213.375 Q1447.0516,213.375 1447.6922,213.5313 Q1448.3485,213.6875 1448.911,213.9844 L1448.911,216.7031 Q1448.286,216.125 1447.6922,215.8594 Q1447.0985,215.5781 1446.4735,215.5781 Q1445.1297,215.5781 1444.4422,216.6563 Q1443.7547,217.7188 1443.7547,219.8125 Q1443.7547,221.9063 1444.4422,222.9844 Q1445.1297,224.0469 1446.4735,224.0469 Q1447.0985,224.0469 1447.6922,223.7813 Q1448.286,223.5 1448.911,222.9219 L1448.911,225.6406 Z " fill="#000000"/><text fill="#000000" font-family="sans-serif" font-size="14" lengthAdjust="spacing" textLength="93.2956" x="1466.4422" y="225.432">LogoutService</text><line style="stroke:#181818;stroke-width:0.5;" x1="1213.5" x2="1780.1801" y1="236" y2="236"/><line style="stroke:#181818;stroke-width:0.5;" x1="1213.5" x2="1780.1801" y1="244" y2="244"/><ellipse cx="1223.5" cy="259.034" fill="#84BE84" rx="3" ry="3" style="stroke:#038048;stroke-width:1.0;"/><text fill="#000000" font-family="sans-serif" font-size="14" lengthAdjust="spacing" textLength="323.7348" x="1232.5" y="262.9659">processService(LogoutRequest): LogoutResponse</text><polygon fill="#FFFF44" points="1223.5,273.1019,1227.5,277.1019,1223.5,281.1019,1219.5,277.1019" style="stroke:#B38D22;stroke-width:1.0;"/><text fill="#000000" font-family="sans-serif" font-size="14" lengthAdjust="spacing" textLength="542.6801" x="1232.5" y="282.0339">createApplicationEventForService(LogoutRequest): CreateApplicationEventRequest</text><polygon fill="#FFFF44" points="1223.5,292.1698,1227.5,296.1698,1223.5,300.1698,1219.5,296.1698" style="stroke:#B38D22;stroke-width:1.0;"/><text fill="#000000" font-family="sans-serif" font-size="14" lengthAdjust="spacing" textLength="264.473" x="1232.5" y="301.1018">createErrorResponse(): LogoutResponse</text></g></a><!--class CreateApplicationEventService--><a href="CreateApplicationEventService.html" target="_top" title="CreateApplicationEventService.html" xlink:actuate="onRequest" xlink:href="CreateApplicationEventService.html" xlink:show="new" xlink:title="CreateApplicationEventService.html" xlink:type="simple"><g id="elem_CreateApplicationEventService"><rect codeLine="24" fill="#F1F1F1" height="67.0679" id="CreateApplicationEventService" rx="2.5" ry="2.5" style="stroke:#181818;stroke-width:0.5;" width="563.7101" x="630" y="223"/><ellipse cx="807.4634" cy="239" fill="#ADD1B2" rx="11" ry="11" style="stroke:#181818;stroke-width:1.0;"/><path d="M810.4322,244.6406 Q809.8541,244.9375 809.2134,245.0781 Q808.5728,245.2344 807.8697,245.2344 Q805.3697,245.2344 804.0416,243.5938 Q802.7291,241.9375 802.7291,238.8125 Q802.7291,235.6875 804.0416,234.0313 Q805.3697,232.375 807.8697,232.375 Q808.5728,232.375 809.2134,232.5313 Q809.8697,232.6875 810.4322,232.9844 L810.4322,235.7031 Q809.8072,235.125 809.2134,234.8594 Q808.6197,234.5781 807.9947,234.5781 Q806.6509,234.5781 805.9634,235.6563 Q805.2759,236.7188 805.2759,238.8125 Q805.2759,240.9063 805.9634,241.9844 Q806.6509,243.0469 807.9947,243.0469 Q808.6197,243.0469 809.2134,242.7813 Q809.8072,242.5 810.4322,241.9219 L810.4322,244.6406 Z " fill="#000000"/><text fill="#000000" font-family="sans-serif" font-size="14" lengthAdjust="spacing" textLength="200.2832" x="827.9634" y="244.432">CreateApplicationEventService</text><line style="stroke:#181818;stroke-width:0.5;" x1="631" x2="1192.7101" y1="255" y2="255"/><line style="stroke:#181818;stroke-width:0.5;" x1="631" x2="1192.7101" y1="263" y2="263"/><ellipse cx="641" cy="278.034" fill="#84BE84" rx="3" ry="3" style="stroke:#038048;stroke-width:1.0;"/><text fill="#000000" font-family="sans-serif" font-size="14" lengthAdjust="spacing" textLength="537.7101" x="650" y="281.9659">processService(CreateApplicationEventRequest): CreateApplicationEventResponse</text></g></a><!--class CreateApplicationSessionService--><a href="CreateApplicationSessionService.html" target="_top" title="CreateApplicationSessionService.html" xlink:actuate="onRequest" xlink:href="CreateApplicationSessionService.html" xlink:show="new" xlink:title="CreateApplicationSessionService.html" xlink:type="simple"><g id="elem_CreateApplicationSessionService"><rect codeLine="28" fill="#F1F1F1" height="67.0679" id="CreateApplicationSessionService" rx="2.5" ry="2.5" style="stroke:#181818;stroke-width:0.5;" width="590.17" x="22" y="223"/><ellipse cx="206.0784" cy="239" fill="#ADD1B2" rx="11" ry="11" style="stroke:#181818;stroke-width:1.0;"/><path d="M209.0472,244.6406 Q208.4691,244.9375 207.8284,245.0781 Q207.1878,245.2344 206.4847,245.2344 Q203.9847,245.2344 202.6566,243.5938 Q201.3441,241.9375 201.3441,238.8125 Q201.3441,235.6875 202.6566,234.0313 Q203.9847,232.375 206.4847,232.375 Q207.1878,232.375 207.8284,232.5313 Q208.4847,232.6875 209.0472,232.9844 L209.0472,235.7031 Q208.4222,235.125 207.8284,234.8594 Q207.2347,234.5781 206.6097,234.5781 Q205.2659,234.5781 204.5784,235.6563 Q203.8909,236.7188 203.8909,238.8125 Q203.8909,240.9063 204.5784,241.9844 Q205.2659,243.0469 206.6097,243.0469 Q207.2347,243.0469 207.8284,242.7813 Q208.4222,242.5 209.0472,241.9219 L209.0472,244.6406 Z " fill="#000000"/><text fill="#000000" font-family="sans-serif" font-size="14" lengthAdjust="spacing" textLength="213.5132" x="226.5784" y="244.432">CreateApplicationSessionService</text><line style="stroke:#181818;stroke-width:0.5;" x1="23" x2="611.17" y1="255" y2="255"/><line style="stroke:#181818;stroke-width:0.5;" x1="23" x2="611.17" y1="263" y2="263"/><ellipse cx="33" cy="278.034" fill="#84BE84" rx="3" ry="3" style="stroke:#038048;stroke-width:1.0;"/><text fill="#000000" font-family="sans-serif" font-size="14" lengthAdjust="spacing" textLength="564.17" x="42" y="281.9659">processService(CreateApplicationSessionRequest): CreateApplicationSessionResponse</text></g></a><!--class DestroyApplicationSessionService--><a href="DestroyApplicationSessionService.html" target="_top" title="DestroyApplicationSessionService.html" xlink:actuate="onRequest" xlink:href="DestroyApplicationSessionService.html" xlink:show="new" xlink:title="DestroyApplicationSessionService.html" xlink:type="simple"><g id="elem_DestroyApplicationSessionService"><rect codeLine="32" fill="#F1F1F1" height="105.2038" id="DestroyApplicationSessionService" rx="2.5" ry="2.5" style="stroke:#181818;stroke-width:0.5;" width="696.8357" x="3001.5" y="204"/><ellipse cx="3234.9423" cy="220" fill="#ADD1B2" rx="11" ry="11" style="stroke:#181818;stroke-width:1.0;"/><path d="M3237.911,225.6406 Q3237.3329,225.9375 3236.6923,226.0781 Q3236.0516,226.2344 3235.3485,226.2344 Q3232.8485,226.2344 3231.5204,224.5938 Q3230.2079,222.9375 3230.2079,219.8125 Q3230.2079,216.6875 3231.5204,215.0313 Q3232.8485,213.375 3235.3485,213.375 Q3236.0516,213.375 3236.6923,213.5313 Q3237.3485,213.6875 3237.911,213.9844 L3237.911,216.7031 Q3237.286,216.125 3236.6923,215.8594 Q3236.0985,215.5781 3235.4735,215.5781 Q3234.1298,215.5781 3233.4423,216.6563 Q3232.7548,217.7188 3232.7548,219.8125 Q3232.7548,221.9063 3233.4423,222.9844 Q3234.1298,224.0469 3235.4735,224.0469 Q3236.0985,224.0469 3236.6923,223.7813 Q3237.286,223.5 3237.911,222.9219 L3237.911,225.6406 Z " fill="#000000"/><text fill="#000000" font-family="sans-serif" font-size="14" lengthAdjust="spacing" textLength="221.4512" x="3255.4423" y="225.432">DestroyApplicationSessionService</text><line style="stroke:#181818;stroke-width:0.5;" x1="3002.5" x2="3697.3357" y1="236" y2="236"/><line style="stroke:#181818;stroke-width:0.5;" x1="3002.5" x2="3697.3357" y1="244" y2="244"/><ellipse cx="3012.5" cy="259.034" fill="#84BE84" rx="3" ry="3" style="stroke:#038048;stroke-width:1.0;"/><text fill="#000000" font-family="sans-serif" font-size="14" lengthAdjust="spacing" textLength="580.046" x="3021.5" y="262.9659">processService(DestroyApplicationSessionRequest): DestroyApplicationSessionResponse</text><polygon fill="#FFFF44" points="3012.5,273.1019,3016.5,277.1019,3012.5,281.1019,3008.5,277.1019" style="stroke:#B38D22;stroke-width:1.0;"/><text fill="#000000" font-family="sans-serif" font-size="14" lengthAdjust="spacing" textLength="670.8357" x="3021.5" y="282.0339">createApplicationEventForService(DestroyApplicationSessionRequest): CreateApplicationEventRequest</text><polygon fill="#FFFF44" points="3012.5,292.1698,3016.5,296.1698,3012.5,300.1698,3008.5,296.1698" style="stroke:#B38D22;stroke-width:1.0;"/><text fill="#000000" font-family="sans-serif" font-size="14" lengthAdjust="spacing" textLength="392.6286" x="3021.5" y="301.1018">createErrorResponse(): DestroyApplicationSessionResponse</text></g></a><!--class LoginService--><a href="LoginService.html" target="_top" title="LoginService.html" xlink:actuate="onRequest" xlink:href="LoginService.html" xlink:show="new" xlink:title="LoginService.html" xlink:type="simple"><g id="elem_LoginService"><rect codeLine="38" fill="#F1F1F1" height="105.2038" id="LoginService" rx="2.5" ry="2.5" style="stroke:#181818;stroke-width:0.5;" width="558.7681" x="2424.5" y="204"/><ellipse cx="2657.9422" cy="220" fill="#ADD1B2" rx="11" ry="11" style="stroke:#181818;stroke-width:1.0;"/><path d="M2660.9109,225.6406 Q2660.3328,225.9375 2659.6922,226.0781 Q2659.0516,226.2344 2658.3484,226.2344 Q2655.8484,226.2344 2654.5203,224.5938 Q2653.2078,222.9375 2653.2078,219.8125 Q2653.2078,216.6875 2654.5203,215.0313 Q2655.8484,213.375 2658.3484,213.375 Q2659.0516,213.375 2659.6922,213.5313 Q2660.3484,213.6875 2660.9109,213.9844 L2660.9109,216.7031 Q2660.2859,216.125 2659.6922,215.8594 Q2659.0984,215.5781 2658.4734,215.5781 Q2657.1297,215.5781 2656.4422,216.6563 Q2655.7547,217.7188 2655.7547,219.8125 Q2655.7547,221.9063 2656.4422,222.9844 Q2657.1297,224.0469 2658.4734,224.0469 Q2659.0984,224.0469 2659.6922,223.7813 Q2660.2859,223.5 2660.9109,222.9219 L2660.9109,225.6406 Z " fill="#000000"/><text fill="#000000" font-family="sans-serif" font-size="14" lengthAdjust="spacing" textLength="83.3837" x="2678.4422" y="225.432">LoginService</text><line style="stroke:#181818;stroke-width:0.5;" x1="2425.5" x2="2982.2681" y1="236" y2="236"/><line style="stroke:#181818;stroke-width:0.5;" x1="2425.5" x2="2982.2681" y1="244" y2="244"/><ellipse cx="2435.5" cy="259.034" fill="#84BE84" rx="3" ry="3" style="stroke:#038048;stroke-width:1.0;"/><text fill="#000000" font-family="sans-serif" font-size="14" lengthAdjust="spacing" textLength="303.9109" x="2444.5" y="262.9659">processService(LoginRequest): LoginResponse</text><polygon fill="#FFFF44" points="2435.5,273.1019,2439.5,277.1019,2435.5,281.1019,2431.5,277.1019" style="stroke:#B38D22;stroke-width:1.0;"/><text fill="#000000" font-family="sans-serif" font-size="14" lengthAdjust="spacing" textLength="532.7681" x="2444.5" y="282.0339">createApplicationEventForService(LoginRequest): CreateApplicationEventRequest</text><polygon fill="#FFFF44" points="2435.5,292.1698,2439.5,296.1698,2435.5,300.1698,2431.5,296.1698" style="stroke:#B38D22;stroke-width:1.0;"/><text fill="#000000" font-family="sans-serif" font-size="14" lengthAdjust="spacing" textLength="254.561" x="2444.5" y="301.1018">createErrorResponse(): LoginResponse</text></g></a><!--class AbstractBusinessServiceImpl--><a href="../common/AbstractBusinessServiceImpl.html" target="_top" title="../common/AbstractBusinessServiceImpl.html" xlink:actuate="onRequest" xlink:href="../common/AbstractBusinessServiceImpl.html" xlink:show="new" xlink:title="../common/AbstractBusinessServiceImpl.html" xlink:type="simple"><g id="elem_AbstractBusinessServiceImpl"><rect codeLine="47" fill="#F1F1F1" height="124.2717" id="AbstractBusinessServiceImpl" rx="2.5" ry="2.5" style="stroke:#181818;stroke-width:0.5;" width="784.0133" x="1457" y="34"/><ellipse cx="1615.3501" cy="50" fill="#A9DCDF" rx="11" ry="11" style="stroke:#181818;stroke-width:1.0;"/><path d="M1615.4594,45.3438 L1614.3032,50.4219 L1616.6313,50.4219 L1615.4594,45.3438 Z M1613.9751,43.1094 L1616.9594,43.1094 L1620.3188,55.5 L1617.8657,55.5 L1617.1001,52.4375 L1613.8188,52.4375 L1613.0688,55.5 L1610.6313,55.5 L1613.9751,43.1094 Z " fill="#000000"/><text fill="#000000" font-family="sans-serif" font-size="14" font-style="italic" lengthAdjust="spacing" textLength="176.1473" x="1635.8501" y="55.432">AbstractBusinessServiceImpl</text><rect fill="#FFFFFF" height="18.3441" style="stroke:#181818;stroke-width:1.0;stroke-dasharray:2.0,2.0;" width="280.6658" x="1963.3475" y="31"/><text fill="#000000" font-family="sans-serif" font-size="12" font-style="italic" lengthAdjust="spacing" textLength="278.6658" x="1964.3475" y="44.8281">T extends ServiceRequest, V extends ServiceResponse</text><line style="stroke:#181818;stroke-width:0.5;" x1="1458" x2="2240.0133" y1="66" y2="66"/><polygon fill="none" points="1468,76.034,1472,80.034,1468,84.034,1464,80.034" style="stroke:#B38D22;stroke-width:1.0;"/><text fill="#000000" font-family="sans-serif" font-size="14" lengthAdjust="spacing" textLength="758.0133" x="1477" y="84.9659">createApplicationEventService: BusinessService&lt;CreateApplicationEventRequest, CreateApplicationEventResponse&gt;</text><polygon fill="none" points="1468,95.1019,1472,99.1019,1468,103.1019,1464,99.1019" style="stroke:#B38D22;stroke-width:1.0;"/><text fill="#000000" font-family="sans-serif" font-size="14" lengthAdjust="spacing" textLength="124.5995" x="1477" y="104.0339">validator: Validator</text><line style="stroke:#181818;stroke-width:0.5;" x1="1458" x2="2240.0133" y1="112.1358" y2="112.1358"/><polygon fill="#FFFF44" points="1468,122.1698,1472,126.1698,1468,130.1698,1464,126.1698" style="stroke:#B38D22;stroke-width:1.0;"/><text fill="#000000" font-family="sans-serif" font-size="14" font-style="italic" lengthAdjust="spacing" textLength="307.7468" x="1477" y="131.1018">createErrorResponse(): V extends ServiceResponse</text><polygon fill="#FFFF44" points="1468,141.2377,1472,145.2377,1468,149.2377,1464,145.2377" style="stroke:#B38D22;stroke-width:1.0;"/><text fill="#000000" font-family="sans-serif" font-size="14" font-style="italic" lengthAdjust="spacing" textLength="566.9137" x="1477" y="150.1697">createApplicationEventForService(T extends ServiceRequest): CreateApplicationEventRequest</text></g></a><!--class AbstractCommonBusinessServiceImpl--><a href="../common/AbstractCommonBusinessServiceImpl.html" target="_top" title="../common/AbstractCommonBusinessServiceImpl.html" xlink:actuate="onRequest" xlink:href="../common/AbstractCommonBusinessServiceImpl.html" xlink:show="new" xlink:title="../common/AbstractCommonBusinessServiceImpl.html" xlink:type="simple"><g id="elem_AbstractCommonBusinessServiceImpl"><rect codeLine="53" fill="#F1F1F1" height="48" id="AbstractCommonBusinessServiceImpl" rx="2.5" ry="2.5" style="stroke:#181818;stroke-width:0.5;" width="547.401" x="891.5" y="72"/><ellipse cx="906.5" cy="88" fill="#A9DCDF" rx="11" ry="11" style="stroke:#181818;stroke-width:1.0;"/><path d="M906.6094,83.3438 L905.4531,88.4219 L907.7813,88.4219 L906.6094,83.3438 Z M905.125,81.1094 L908.1094,81.1094 L911.4688,93.5 L909.0156,93.5 L908.25,90.4375 L904.9688,90.4375 L904.2188,93.5 L901.7813,93.5 L905.125,81.1094 Z " fill="#000000"/><text fill="#000000" font-family="sans-serif" font-size="14" font-style="italic" lengthAdjust="spacing" textLength="232.7351" x="920.5" y="93.432">AbstractCommonBusinessServiceImpl</text><rect fill="#FFFFFF" height="18.3441" style="stroke:#181818;stroke-width:1.0;stroke-dasharray:2.0,2.0;" width="280.6658" x="1161.2351" y="69"/><text fill="#000000" font-family="sans-serif" font-size="12" font-style="italic" lengthAdjust="spacing" textLength="278.6658" x="1162.2351" y="82.8281">T extends ServiceRequest, V extends ServiceResponse</text><line style="stroke:#181818;stroke-width:0.5;" x1="892.5" x2="1437.901" y1="104" y2="104"/><line style="stroke:#181818;stroke-width:0.5;" x1="892.5" x2="1437.901" y1="112" y2="112"/></g></a><polygon fill="none" points="1946.8397,158.0535,1958.934,172.6729,1965.2868,162.4924,1946.8397,158.0535" style="stroke:#181818;stroke-width:1.0;"/><path d="M1962.1104,167.5827 C1986.2875,182.6695 1996.6842,189.1573 2020.0746,203.7533 " fill="none" style="stroke:#181818;stroke-width:1.0;"/><polygon fill="none" points="1713.4111,158.0535,1694.5348,159.973,1699.4618,170.9149,1713.4111,158.0535" style="stroke:#181818;stroke-width:1.0;"/><path d="M1696.9983,165.444 C1663.3963,180.5744 1644.1296,189.2499 1611.6392,203.8798 " fill="none" style="stroke:#181818;stroke-width:1.0;"/><polygon fill="none" points="1128.2116,120.0473,1109.7724,124.5189,1116.1432,134.6881,1128.2116,120.0473" style="stroke:#181818;stroke-width:1.0;"/><path d="M1112.9578,129.6035 C1069.7875,156.6489 1013.1517,192.1303 964.2216,222.7841 " fill="none" style="stroke:#181818;stroke-width:1.0;"/><polygon fill="none" points="960.2379,120.0162,941.6248,116.3347,943.1385,128.2389,960.2379,120.0162" style="stroke:#181818;stroke-width:1.0;"/><path d="M942.3816,122.2868 C839.9923,135.3064 732.3346,151.284 621,174 C555.5492,187.3542 483.2838,206.5396 425.6379,222.9417 " fill="none" style="stroke:#181818;stroke-width:1.0;"/><polygon fill="none" points="2241.1108,108.1468,2258.8187,114.9607,2259.3655,102.9732,2241.1108,108.1468" style="stroke:#181818;stroke-width:1.0;"/><path d="M2259.0921,108.967 C2480.7022,119.0754 2744.3535,137.4817 2993,174 C3044.1054,181.5058 3098.7322,192.4568 3149.497,203.91 " fill="none" style="stroke:#181818;stroke-width:1.0;"/><polygon fill="none" points="2241.0273,142.9047,2257.9122,151.5591,2259.7279,139.6972,2241.0273,142.9047" style="stroke:#181818;stroke-width:1.0;"/><path d="M2258.82,145.6281 C2317.6923,154.6395 2359.7146,162.275 2416,174 C2455.5525,182.2393 2497.6452,192.9915 2537.0868,203.9701 " fill="none" style="stroke:#181818;stroke-width:1.0;"/><text fill="#888888" font-family="sans-serif" font-size="10" lengthAdjust="spacing" textLength="2.6" x="1847.7" y="329.69">&#160;</text><a href="https://github.com/talsma-ict/umldoclet" target="_top" title="https://github.com/talsma-ict/umldoclet" xlink:actuate="onRequest" xlink:href="https://github.com/talsma-ict/umldoclet" xlink:show="new" xlink:title="https://github.com/talsma-ict/umldoclet" xlink:type="simple"><text fill="#888888" font-family="sans-serif" font-size="10" lengthAdjust="spacing" textLength="76.7199" x="1810.64" y="343.31">UMLDoclet 2.2.1</text></a><!--SRC=[pLV9Rjim4BtdAwR8eGvYIx8Ir8bW172Tj4tX0aNivEBwG4kCH5WYLP9oQwJ-zrAB5pcIlAH5eeiMSjwyUJCYEG00xw7BmXadhYT1Cf0U4N3_hGU8Ek1YYZcIs04I81SB66EVKLUa4p6WI7gC0tjCtcp6EHOXemwXBdn5KmI2HTp6GZiwWiJLO87-2uarzF4i_dZDR1zBg7LFrYYPHlD3mpJCSnWWNmG8Rhi3BKDRsPYQgJL1OVl4nbGeo8Wwc2UqEY6orQsNZjHXYhaWZ2eR8yE9GxKPbOXG0I7YKiGXVVSHbJ7NfXRxrrfGw_HxUMx6PSAj3XrEKUJ07ViPBSDz5tBaAiO-ch58WWYmH1GbGq9n5bYvGbBfPrcfWI8wKJ8hBe7cgMVpJBC9qWJcKqLU8q7eQyYMYho6mb25Yk9dU4gjuylsaH1mXrqY9ERtohAV6iDmMF1LysJWZqOA0TQkqv0pbJIHJQgj6zxXE41vOa7-QvnsWNCmnpR7AhkT5TERAQRo4-FLmDr2isoyoCCDvsn9eRQDsdnJhHvpLNfMEkNUTrCeDLc5i7W_I9LDi9VhKKBdcHB5dbRAL8xlfbHbC1N1xaszhvmcjrBo-Ha7qiz0AW9OpjWMmhK2u6nM5SEsARi5KOgoYg9Yoa4rlOFBbvVvxgIBrW12Sqi0eVkk08Jc5W123___2Vt7lpyfrM2-zzQZfWJ9hhD0GcEbknhCjEnahnyZGUXAebi5qHu0_YqnTGHaNxCuwl3mV2GbVANoeMbwwbMl02zEL8dUcPq56q3jIhdhMzQdgxphAVA94-_m5Zmi7dCpdXRIpKkJLwhB5g2A0YjBmix5Dj-M-cwIhFzQ0AKkdfV1VBtGTovmowgeDMZ_QJJsFATPLi49xDKvvKuxXx8fJSPXd2hF6M-LOtudVlMyRZigl8N2M-wnwQ_P5dBchwsXZuofdsLZFVyo2p7l4JhfCb-rJiSNnQFtSVldAwQguxGdCM4mDXQ4jhxcB_FrWmw7dfIXi7JT9TABnh40kanQpmQnfHu5lfFsd1lTvsYKTPEVbsrjt1esccR3D0VD2yjiMcUcrZfhNPoVjoxDKwDf6SRm9k8in7fVCdlYCJyO_GK0]--></g></svg>