<?xml version="1.0" encoding="UTF-8" standalone="no"?><svg xmlns="http://www.w3.org/2000/svg" xmlns:xlink="http://www.w3.org/1999/xlink" contentScriptType="application/ecmascript" contentStyleType="text/css" height="323px" preserveAspectRatio="none" style="width:3343px;height:323px;" version="1.1" viewBox="0 0 3343 323" width="3343px" zoomAndPan="magnify"><defs><filter height="300%" id="f1w0oblncfbsm3" width="300%" x="-1" y="-1"><feGaussianBlur result="blurOut" stdDeviation="2.0"/><feColorMatrix in="blurOut" result="blurOut2" type="matrix" values="0 0 0 0 0 0 0 0 0 0 0 0 0 0 0 0 0 0 .4 0"/><feOffset dx="4.0" dy="4.0" in="blurOut2" result="blurOut3"/><feBlend in="SourceGraphic" in2="blurOut3" mode="normal"/></filter></defs><g><!--cluster com.hack23.cia.service.impl.action.application--><polygon fill="#FFFFFF" filter="url(#f1w0oblncfbsm3)" points="14,162,385,162,392,184.2969,3321,184.2969,3321,283,14,283,14,162" style="stroke: #000000; stroke-width: 1.5;"/><line style="stroke: #000000; stroke-width: 1.5;" x1="14" x2="392" y1="184.2969" y2="184.2969"/><text fill="#000000" font-family="sans-serif" font-size="14" font-weight="bold" lengthAdjust="spacingAndGlyphs" textLength="365" x="18" y="176.9951">com.hack23.cia.service.impl.action.application</text><!--cluster com.hack23.cia.service.impl.action.common--><polygon fill="#FFFFFF" filter="url(#f1w0oblncfbsm3)" points="963,16,1316,16,1323,38.2969,2817,38.2969,2817,137,963,137,963,16" style="stroke: #000000; stroke-width: 1.5;"/><line style="stroke: #000000; stroke-width: 1.5;" x1="963" x2="1323" y1="38.2969" y2="38.2969"/><text fill="#000000" font-family="sans-serif" font-size="14" font-weight="bold" lengthAdjust="spacingAndGlyphs" textLength="347" x="967" y="30.9951">com.hack23.cia.service.impl.action.common</text><!--class com.hack23.cia.service.impl.action.application.CreateApplicationSessionService--><a href="CreateApplicationSessionService.html" target="_top" xlink:actuate="onRequest" xlink:show="new" xlink:title="CreateApplicationSessionService.html" xlink:type="simple"><rect fill="#FEFECE" filter="url(#f1w0oblncfbsm3)" height="60.8047" id="com.hack23.cia.service.impl.action.application.CreateApplicationSessionService" style="stroke: #A80036; stroke-width: 1.5;" width="522" x="2791" y="201.5"/><ellipse cx="2945.25" cy="217.5" fill="#ADD1B2" rx="11" ry="11" style="stroke: #A80036; stroke-width: 1.0;"/><path d="M2948.2188,223.1406 Q2947.6406,223.4375 2947,223.5781 Q2946.3594,223.7344 2945.6563,223.7344 Q2943.1563,223.7344 2941.8281,222.0938 Q2940.5156,220.4375 2940.5156,217.3125 Q2940.5156,214.1875 2941.8281,212.5313 Q2943.1563,210.875 2945.6563,210.875 Q2946.3594,210.875 2947,211.0313 Q2947.6563,211.1875 2948.2188,211.4844 L2948.2188,214.2031 Q2947.5938,213.625 2947,213.3594 Q2946.4063,213.0781 2945.7813,213.0781 Q2944.4375,213.0781 2943.75,214.1563 Q2943.0625,215.2188 2943.0625,217.3125 Q2943.0625,219.4063 2943.75,220.4844 Q2944.4375,221.5469 2945.7813,221.5469 Q2946.4063,221.5469 2947,221.2813 Q2947.5938,221 2948.2188,220.4219 L2948.2188,223.1406 Z "/><text fill="#000000" font-family="sans-serif" font-size="12" lengthAdjust="spacingAndGlyphs" textLength="205" x="2965.75" y="221.6543">CreateApplicationSessionService</text><line style="stroke: #A80036; stroke-width: 1.5;" x1="2792" x2="3312" y1="233.5" y2="233.5"/><line style="stroke: #A80036; stroke-width: 1.5;" x1="2792" x2="3312" y1="241.5" y2="241.5"/><ellipse cx="2802" cy="253.4023" fill="#84BE84" rx="3" ry="3" style="stroke: #038048; stroke-width: 1.0;"/><text fill="#000000" font-family="sans-serif" font-size="11" lengthAdjust="spacingAndGlyphs" textLength="496" x="2811" y="255.7104">processService(CreateApplicationSessionRequest): CreateApplicationSessionResponse</text></a><!--class com.hack23.cia.service.impl.action.application.CreateApplicationEventService--><a href="CreateApplicationEventService.html" target="_top" xlink:actuate="onRequest" xlink:show="new" xlink:title="CreateApplicationEventService.html" xlink:type="simple"><rect fill="#FEFECE" filter="url(#f1w0oblncfbsm3)" height="60.8047" id="com.hack23.cia.service.impl.action.application.CreateApplicationEventService" style="stroke: #A80036; stroke-width: 1.5;" width="492" x="2264" y="201.5"/><ellipse cx="2410.25" cy="217.5" fill="#ADD1B2" rx="11" ry="11" style="stroke: #A80036; stroke-width: 1.0;"/><path d="M2413.2188,223.1406 Q2412.6406,223.4375 2412,223.5781 Q2411.3594,223.7344 2410.6563,223.7344 Q2408.1563,223.7344 2406.8281,222.0938 Q2405.5156,220.4375 2405.5156,217.3125 Q2405.5156,214.1875 2406.8281,212.5313 Q2408.1563,210.875 2410.6563,210.875 Q2411.3594,210.875 2412,211.0313 Q2412.6563,211.1875 2413.2188,211.4844 L2413.2188,214.2031 Q2412.5938,213.625 2412,213.3594 Q2411.4063,213.0781 2410.7813,213.0781 Q2409.4375,213.0781 2408.75,214.1563 Q2408.0625,215.2188 2408.0625,217.3125 Q2408.0625,219.4063 2408.75,220.4844 Q2409.4375,221.5469 2410.7813,221.5469 Q2411.4063,221.5469 2412,221.2813 Q2412.5938,221 2413.2188,220.4219 L2413.2188,223.1406 Z "/><text fill="#000000" font-family="sans-serif" font-size="12" lengthAdjust="spacingAndGlyphs" textLength="191" x="2430.75" y="221.6543">CreateApplicationEventService</text><line style="stroke: #A80036; stroke-width: 1.5;" x1="2265" x2="2755" y1="233.5" y2="233.5"/><line style="stroke: #A80036; stroke-width: 1.5;" x1="2265" x2="2755" y1="241.5" y2="241.5"/><ellipse cx="2275" cy="253.4023" fill="#84BE84" rx="3" ry="3" style="stroke: #038048; stroke-width: 1.0;"/><text fill="#000000" font-family="sans-serif" font-size="11" lengthAdjust="spacingAndGlyphs" textLength="466" x="2284" y="255.7104">processService(CreateApplicationEventRequest): CreateApplicationEventResponse</text></a><!--class com.hack23.cia.service.impl.action.application.DestroyApplicationSessionService--><a href="DestroyApplicationSessionService.html" target="_top" xlink:actuate="onRequest" xlink:show="new" xlink:title="DestroyApplicationSessionService.html" xlink:type="simple"><rect fill="#FEFECE" filter="url(#f1w0oblncfbsm3)" height="86.4141" id="com.hack23.cia.service.impl.action.application.DestroyApplicationSessionService" style="stroke: #A80036; stroke-width: 1.5;" width="603" x="1625.5" y="189"/><ellipse cx="1817.25" cy="205" fill="#ADD1B2" rx="11" ry="11" style="stroke: #A80036; stroke-width: 1.0;"/><path d="M1820.2188,210.6406 Q1819.6406,210.9375 1819,211.0781 Q1818.3594,211.2344 1817.6563,211.2344 Q1815.1563,211.2344 1813.8281,209.5938 Q1812.5156,207.9375 1812.5156,204.8125 Q1812.5156,201.6875 1813.8281,200.0313 Q1815.1563,198.375 1817.6563,198.375 Q1818.3594,198.375 1819,198.5313 Q1819.6563,198.6875 1820.2188,198.9844 L1820.2188,201.7031 Q1819.5938,201.125 1819,200.8594 Q1818.4063,200.5781 1817.7813,200.5781 Q1816.4375,200.5781 1815.75,201.6563 Q1815.0625,202.7188 1815.0625,204.8125 Q1815.0625,206.9063 1815.75,207.9844 Q1816.4375,209.0469 1817.7813,209.0469 Q1818.4063,209.0469 1819,208.7813 Q1819.5938,208.5 1820.2188,207.9219 L1820.2188,210.6406 Z "/><text fill="#000000" font-family="sans-serif" font-size="12" lengthAdjust="spacingAndGlyphs" textLength="211" x="1837.75" y="209.1543">DestroyApplicationSessionService</text><line style="stroke: #A80036; stroke-width: 1.5;" x1="1626.5" x2="2227.5" y1="221" y2="221"/><line style="stroke: #A80036; stroke-width: 1.5;" x1="1626.5" x2="2227.5" y1="229" y2="229"/><ellipse cx="1636.5" cy="240.9023" fill="#84BE84" rx="3" ry="3" style="stroke: #038048; stroke-width: 1.0;"/><text fill="#000000" font-family="sans-serif" font-size="11" lengthAdjust="spacingAndGlyphs" textLength="508" x="1645.5" y="243.2104">processService(DestroyApplicationSessionRequest): DestroyApplicationSessionResponse</text><polygon fill="#FFFF44" points="1636.5,248.707,1640.5,252.707,1636.5,256.707,1632.5,252.707" style="stroke: #B38D22; stroke-width: 1.0;"/><text fill="#000000" font-family="sans-serif" font-size="11" lengthAdjust="spacingAndGlyphs" textLength="577" x="1645.5" y="256.0151">createApplicationEventForService(DestroyApplicationSessionRequest): CreateApplicationEventRequest</text><polygon fill="#FFFF44" points="1636.5,261.5117,1640.5,265.5117,1636.5,269.5117,1632.5,265.5117" style="stroke: #B38D22; stroke-width: 1.0;"/><text fill="#000000" font-family="sans-serif" font-size="11" lengthAdjust="spacingAndGlyphs" textLength="344" x="1645.5" y="268.8198">createErrorResponse(): DestroyApplicationSessionResponse</text></a><!--class com.hack23.cia.service.impl.action.application.RegisterUserService--><a href="RegisterUserService.html" target="_top" xlink:actuate="onRequest" xlink:show="new" xlink:title="RegisterUserService.html" xlink:type="simple"><rect fill="#FEFECE" filter="url(#f1w0oblncfbsm3)" height="86.4141" id="com.hack23.cia.service.impl.action.application.RegisterUserService" style="stroke: #A80036; stroke-width: 1.5;" width="526" x="1064" y="189"/><ellipse cx="1259.75" cy="205" fill="#ADD1B2" rx="11" ry="11" style="stroke: #A80036; stroke-width: 1.0;"/><path d="M1262.7188,210.6406 Q1262.1406,210.9375 1261.5,211.0781 Q1260.8594,211.2344 1260.1563,211.2344 Q1257.6563,211.2344 1256.3281,209.5938 Q1255.0156,207.9375 1255.0156,204.8125 Q1255.0156,201.6875 1256.3281,200.0313 Q1257.6563,198.375 1260.1563,198.375 Q1260.8594,198.375 1261.5,198.5313 Q1262.1563,198.6875 1262.7188,198.9844 L1262.7188,201.7031 Q1262.0938,201.125 1261.5,200.8594 Q1260.9063,200.5781 1260.2813,200.5781 Q1258.9375,200.5781 1258.25,201.6563 Q1257.5625,202.7188 1257.5625,204.8125 Q1257.5625,206.9063 1258.25,207.9844 Q1258.9375,209.0469 1260.2813,209.0469 Q1260.9063,209.0469 1261.5,208.7813 Q1262.0938,208.5 1262.7188,207.9219 L1262.7188,210.6406 Z "/><text fill="#000000" font-family="sans-serif" font-size="12" lengthAdjust="spacingAndGlyphs" textLength="126" x="1280.25" y="209.1543">RegisterUserService</text><line style="stroke: #A80036; stroke-width: 1.5;" x1="1065" x2="1589" y1="221" y2="221"/><line style="stroke: #A80036; stroke-width: 1.5;" x1="1065" x2="1589" y1="229" y2="229"/><ellipse cx="1075" cy="240.9023" fill="#84BE84" rx="3" ry="3" style="stroke: #038048; stroke-width: 1.0;"/><text fill="#000000" font-family="sans-serif" font-size="11" lengthAdjust="spacingAndGlyphs" textLength="354" x="1084" y="243.2104">processService(RegisterUserRequest): RegisterUserResponse</text><polygon fill="#FFFF44" points="1075,248.707,1079,252.707,1075,256.707,1071,252.707" style="stroke: #B38D22; stroke-width: 1.0;"/><text fill="#000000" font-family="sans-serif" font-size="11" lengthAdjust="spacingAndGlyphs" textLength="500" x="1084" y="256.0151">createApplicationEventForService(RegisterUserRequest): CreateApplicationEventRequest</text><polygon fill="#FFFF44" points="1075,261.5117,1079,265.5117,1075,269.5117,1071,265.5117" style="stroke: #B38D22; stroke-width: 1.0;"/><text fill="#000000" font-family="sans-serif" font-size="11" lengthAdjust="spacingAndGlyphs" textLength="267" x="1084" y="268.8198">createErrorResponse(): RegisterUserResponse</text></a><!--class com.hack23.cia.service.impl.action.application.LogoutService--><a href="LogoutService.html" target="_top" xlink:actuate="onRequest" xlink:show="new" xlink:title="LogoutService.html" xlink:type="simple"><rect fill="#FEFECE" filter="url(#f1w0oblncfbsm3)" height="86.4141" id="com.hack23.cia.service.impl.action.application.LogoutService" style="stroke: #A80036; stroke-width: 1.5;" width="490" x="539" y="189"/><ellipse cx="735.75" cy="205" fill="#ADD1B2" rx="11" ry="11" style="stroke: #A80036; stroke-width: 1.0;"/><path d="M738.7188,210.6406 Q738.1406,210.9375 737.5,211.0781 Q736.8594,211.2344 736.1563,211.2344 Q733.6563,211.2344 732.3281,209.5938 Q731.0156,207.9375 731.0156,204.8125 Q731.0156,201.6875 732.3281,200.0313 Q733.6563,198.375 736.1563,198.375 Q736.8594,198.375 737.5,198.5313 Q738.1563,198.6875 738.7188,198.9844 L738.7188,201.7031 Q738.0938,201.125 737.5,200.8594 Q736.9063,200.5781 736.2813,200.5781 Q734.9375,200.5781 734.25,201.6563 Q733.5625,202.7188 733.5625,204.8125 Q733.5625,206.9063 734.25,207.9844 Q734.9375,209.0469 736.2813,209.0469 Q736.9063,209.0469 737.5,208.7813 Q738.0938,208.5 738.7188,207.9219 L738.7188,210.6406 Z "/><text fill="#000000" font-family="sans-serif" font-size="12" lengthAdjust="spacingAndGlyphs" textLength="88" x="756.25" y="209.1543">LogoutService</text><line style="stroke: #A80036; stroke-width: 1.5;" x1="540" x2="1028" y1="221" y2="221"/><line style="stroke: #A80036; stroke-width: 1.5;" x1="540" x2="1028" y1="229" y2="229"/><ellipse cx="550" cy="240.9023" fill="#84BE84" rx="3" ry="3" style="stroke: #038048; stroke-width: 1.0;"/><text fill="#000000" font-family="sans-serif" font-size="11" lengthAdjust="spacingAndGlyphs" textLength="282" x="559" y="243.2104">processService(LogoutRequest): LogoutResponse</text><polygon fill="#FFFF44" points="550,248.707,554,252.707,550,256.707,546,252.707" style="stroke: #B38D22; stroke-width: 1.0;"/><text fill="#000000" font-family="sans-serif" font-size="11" lengthAdjust="spacingAndGlyphs" textLength="464" x="559" y="256.0151">createApplicationEventForService(LogoutRequest): CreateApplicationEventRequest</text><polygon fill="#FFFF44" points="550,261.5117,554,265.5117,550,269.5117,546,265.5117" style="stroke: #B38D22; stroke-width: 1.0;"/><text fill="#000000" font-family="sans-serif" font-size="11" lengthAdjust="spacingAndGlyphs" textLength="231" x="559" y="268.8198">createErrorResponse(): LogoutResponse</text></a><!--class com.hack23.cia.service.impl.action.application.LoginService--><a href="LoginService.html" target="_top" xlink:actuate="onRequest" xlink:show="new" xlink:title="LoginService.html" xlink:type="simple"><rect fill="#FEFECE" filter="url(#f1w0oblncfbsm3)" height="86.4141" id="com.hack23.cia.service.impl.action.application.LoginService" style="stroke: #A80036; stroke-width: 1.5;" width="482" x="22" y="189"/><ellipse cx="219.75" cy="205" fill="#ADD1B2" rx="11" ry="11" style="stroke: #A80036; stroke-width: 1.0;"/><path d="M222.7188,210.6406 Q222.1406,210.9375 221.5,211.0781 Q220.8594,211.2344 220.1563,211.2344 Q217.6563,211.2344 216.3281,209.5938 Q215.0156,207.9375 215.0156,204.8125 Q215.0156,201.6875 216.3281,200.0313 Q217.6563,198.375 220.1563,198.375 Q220.8594,198.375 221.5,198.5313 Q222.1563,198.6875 222.7188,198.9844 L222.7188,201.7031 Q222.0938,201.125 221.5,200.8594 Q220.9063,200.5781 220.2813,200.5781 Q218.9375,200.5781 218.25,201.6563 Q217.5625,202.7188 217.5625,204.8125 Q217.5625,206.9063 218.25,207.9844 Q218.9375,209.0469 220.2813,209.0469 Q220.9063,209.0469 221.5,208.7813 Q222.0938,208.5 222.7188,207.9219 L222.7188,210.6406 Z "/><text fill="#000000" font-family="sans-serif" font-size="12" lengthAdjust="spacingAndGlyphs" textLength="78" x="240.25" y="209.1543">LoginService</text><line style="stroke: #A80036; stroke-width: 1.5;" x1="23" x2="503" y1="221" y2="221"/><line style="stroke: #A80036; stroke-width: 1.5;" x1="23" x2="503" y1="229" y2="229"/><ellipse cx="33" cy="240.9023" fill="#84BE84" rx="3" ry="3" style="stroke: #038048; stroke-width: 1.0;"/><text fill="#000000" font-family="sans-serif" font-size="11" lengthAdjust="spacingAndGlyphs" textLength="266" x="42" y="243.2104">processService(LoginRequest): LoginResponse</text><polygon fill="#FFFF44" points="33,248.707,37,252.707,33,256.707,29,252.707" style="stroke: #B38D22; stroke-width: 1.0;"/><text fill="#000000" font-family="sans-serif" font-size="11" lengthAdjust="spacingAndGlyphs" textLength="456" x="42" y="256.0151">createApplicationEventForService(LoginRequest): CreateApplicationEventRequest</text><polygon fill="#FFFF44" points="33,261.5117,37,265.5117,33,269.5117,29,265.5117" style="stroke: #B38D22; stroke-width: 1.0;"/><text fill="#000000" font-family="sans-serif" font-size="11" lengthAdjust="spacingAndGlyphs" textLength="223" x="42" y="268.8198">createErrorResponse(): LoginResponse</text></a><!--class com.hack23.cia.service.impl.action.common.AbstractCommonBusinessServiceImpl--><a href="../common/AbstractCommonBusinessServiceImpl.html" target="_top" xlink:actuate="onRequest" xlink:show="new" xlink:title="../common/AbstractCommonBusinessServiceImpl.html" xlink:type="simple"><rect fill="#FEFECE" filter="url(#f1w0oblncfbsm3)" height="48" id="com.hack23.cia.service.impl.action.common.AbstractCommonBusinessServiceImpl" style="stroke: #A80036; stroke-width: 1.5;" width="606" x="2203" y="62"/><ellipse cx="2218" cy="78" fill="#A9DCDF" rx="11" ry="11" style="stroke: #A80036; stroke-width: 1.0;"/><path d="M2218.1094,73.3438 L2216.9531,78.4219 L2219.2813,78.4219 L2218.1094,73.3438 Z M2216.625,71.1094 L2219.6094,71.1094 L2222.9688,83.5 L2220.5156,83.5 L2219.75,80.4375 L2216.4688,80.4375 L2215.7188,83.5 L2213.2813,83.5 L2216.625,71.1094 Z "/><text fill="#000000" font-family="sans-serif" font-size="12" font-style="italic" lengthAdjust="spacingAndGlyphs" textLength="230" x="2232" y="82.1543">AbstractCommonBusinessServiceImpl</text><rect fill="#FFFFFF" height="15.9688" style="stroke: #000000; stroke-width: 1.0; stroke-dasharray: 2.0,2.0;" width="342" x="2470" y="59"/><text fill="#000000" font-family="sans-serif" font-size="12" font-style="italic" lengthAdjust="spacingAndGlyphs" textLength="340" x="2471" y="71.1387">T extends ServiceRequest, V extends ServiceResponse</text><line style="stroke: #A80036; stroke-width: 1.5;" x1="2204" x2="2808" y1="94" y2="94"/><line style="stroke: #A80036; stroke-width: 1.5;" x1="2204" x2="2808" y1="102" y2="102"/></a><!--class com.hack23.cia.service.impl.action.common.BusinessService--><a href="../common/BusinessService.html" target="_top" xlink:actuate="onRequest" xlink:show="new" xlink:title="../common/BusinessService.html" xlink:type="simple"><rect fill="#FEFECE" filter="url(#f1w0oblncfbsm3)" height="73.6094" id="com.hack23.cia.service.impl.action.common.BusinessService" style="stroke: #A80036; stroke-width: 1.5;" width="474" x="1694" y="49"/><ellipse cx="1709" cy="65" fill="#B4A7E5" rx="11" ry="11" style="stroke: #A80036; stroke-width: 1.0;"/><path d="M1704.9219,60.7656 L1704.9219,58.6094 L1712.3125,58.6094 L1712.3125,60.7656 L1709.8438,60.7656 L1709.8438,68.8438 L1712.3125,68.8438 L1712.3125,71 L1704.9219,71 L1704.9219,68.8438 L1707.3906,68.8438 L1707.3906,60.7656 L1704.9219,60.7656 Z "/><text fill="#000000" font-family="sans-serif" font-size="12" font-style="italic" lengthAdjust="spacingAndGlyphs" textLength="98" x="1723" y="69.1543">BusinessService</text><rect fill="#FFFFFF" height="15.9688" style="stroke: #000000; stroke-width: 1.0; stroke-dasharray: 2.0,2.0;" width="342" x="1829" y="46"/><text fill="#000000" font-family="sans-serif" font-size="12" font-style="italic" lengthAdjust="spacingAndGlyphs" textLength="340" x="1830" y="58.1387">T extends ServiceRequest, V extends ServiceResponse</text><line style="stroke: #A80036; stroke-width: 1.5;" x1="1695" x2="2167" y1="81" y2="81"/><line style="stroke: #A80036; stroke-width: 1.5;" x1="1695" x2="2167" y1="89" y2="89"/><ellipse cx="1705" cy="100.9023" fill="#84BE84" rx="3" ry="3" style="stroke: #038048; stroke-width: 1.0;"/><text fill="#000000" font-family="sans-serif" font-size="11" font-style="italic" lengthAdjust="spacingAndGlyphs" textLength="329" x="1714" y="103.2104">getSupportedService(): Class&lt;? extends ServiceRequest&gt;</text><ellipse cx="1705" cy="113.707" fill="#84BE84" rx="3" ry="3" style="stroke: #038048; stroke-width: 1.0;"/><text fill="#000000" font-family="sans-serif" font-size="11" font-style="italic" lengthAdjust="spacingAndGlyphs" textLength="408" x="1714" y="116.0151">processService(T extends ServiceRequest): V extends ServiceResponse</text></a><!--class com.hack23.cia.service.impl.action.common.AbstractBusinessServiceImpl--><a href="../common/AbstractBusinessServiceImpl.html" target="_top" xlink:actuate="onRequest" xlink:show="new" xlink:title="../common/AbstractBusinessServiceImpl.html" xlink:type="simple"><rect fill="#FEFECE" filter="url(#f1w0oblncfbsm3)" height="86.4141" id="com.hack23.cia.service.impl.action.common.AbstractBusinessServiceImpl" style="stroke: #A80036; stroke-width: 1.5;" width="687" x="971.5" y="43"/><ellipse cx="1050.75" cy="59" fill="#A9DCDF" rx="11" ry="11" style="stroke: #A80036; stroke-width: 1.0;"/><path d="M1050.8594,54.3438 L1049.7031,59.4219 L1052.0313,59.4219 L1050.8594,54.3438 Z M1049.375,52.1094 L1052.3594,52.1094 L1055.7188,64.5 L1053.2656,64.5 L1052.5,61.4375 L1049.2188,61.4375 L1048.4688,64.5 L1046.0313,64.5 L1049.375,52.1094 Z "/><text fill="#000000" font-family="sans-serif" font-size="12" font-style="italic" lengthAdjust="spacingAndGlyphs" textLength="176" x="1071.25" y="63.1543">AbstractBusinessServiceImpl</text><rect fill="#FFFFFF" height="15.9688" style="stroke: #000000; stroke-width: 1.0; stroke-dasharray: 2.0,2.0;" width="342" x="1319.5" y="40"/><text fill="#000000" font-family="sans-serif" font-size="12" font-style="italic" lengthAdjust="spacingAndGlyphs" textLength="340" x="1320.5" y="52.1387">T extends ServiceRequest, V extends ServiceResponse</text><line style="stroke: #A80036; stroke-width: 1.5;" x1="972.5" x2="1657.5" y1="75" y2="75"/><polygon fill="none" points="982.5,81.9023,986.5,85.9023,982.5,89.9023,978.5,85.9023" style="stroke: #B38D22; stroke-width: 1.0;"/><text fill="#000000" font-family="sans-serif" font-size="11" lengthAdjust="spacingAndGlyphs" textLength="661" x="991.5" y="89.2104">createApplicationEventService: BusinessService&lt;CreateApplicationEventRequest, CreateApplicationEventResponse&gt;</text><line style="stroke: #A80036; stroke-width: 1.5;" x1="972.5" x2="1657.5" y1="95.8047" y2="95.8047"/><polygon fill="#FFFF44" points="982.5,102.707,986.5,106.707,982.5,110.707,978.5,106.707" style="stroke: #B38D22; stroke-width: 1.0;"/><text fill="#000000" font-family="sans-serif" font-size="11" font-style="italic" lengthAdjust="spacingAndGlyphs" textLength="294" x="991.5" y="110.0151">createErrorResponse(): V extends ServiceResponse</text><polygon fill="#FFFF44" points="982.5,115.5117,986.5,119.5117,982.5,123.5117,978.5,119.5117" style="stroke: #B38D22; stroke-width: 1.0;"/><text fill="#000000" font-family="sans-serif" font-size="11" font-style="italic" lengthAdjust="spacingAndGlyphs" textLength="532" x="991.5" y="122.8198">createApplicationEventForService(T extends ServiceRequest): CreateApplicationEventRequest</text></a><!--link com.hack23.cia.service.impl.action.common.AbstractCommonBusinessServiceImpl to com.hack23.cia.service.impl.action.application.CreateApplicationSessionService--><path d="M2615.4587,115.2692 C2708.9691,140.2738 2843.0221,176.1195 2937.8555,201.4778 " fill="none" id="com.hack23.cia.service.impl.action.common.AbstractCommonBusinessServiceImpl-com.hack23.cia.service.impl.action.application.CreateApplicationSessionService" style="stroke: #A80036; stroke-width: 1.0;"/><polygon fill="none" points="2613.3678,121.9561,2595.8549,110.0271,2616.9844,108.4313,2613.3678,121.9561" style="stroke: #A80036; stroke-width: 1.0;"/><!--link com.hack23.cia.service.impl.action.common.BusinessService to com.hack23.cia.service.impl.action.application.CreateApplicationSessionService--><path d="M2116.6194,126.5958 C2139.8923,130.6596 2163.4391,134.2809 2186,137 C2445.6902,168.2984 2515.1597,124.3136 2774,162 C2833.717,170.6946 2899.2293,186.8561 2951.6511,201.4609 " fill="none" id="com.hack23.cia.service.impl.action.common.BusinessService-com.hack23.cia.service.impl.action.application.CreateApplicationSessionService" style="stroke: #A80036; stroke-width: 1.0; stroke-dasharray: 7.0,7.0;"/><polygon fill="none" points="2115.1577,133.4452,2096.7181,123.0058,2117.6431,119.6676,2115.1577,133.4452" style="stroke: #A80036; stroke-width: 1.0;"/><!--link com.hack23.cia.service.impl.action.common.AbstractCommonBusinessServiceImpl to com.hack23.cia.service.impl.action.application.CreateApplicationEventService--><path d="M2507.2149,130.3449 C2507.843,153.2684 2508.5938,180.673 2509.1575,201.249 " fill="none" id="com.hack23.cia.service.impl.action.common.AbstractCommonBusinessServiceImpl-com.hack23.cia.service.impl.action.application.CreateApplicationEventService" style="stroke: #A80036; stroke-width: 1.0;"/><polygon fill="none" points="2500.211,130.2932,2506.6605,110.1089,2514.2057,129.9097,2500.211,130.2932" style="stroke: #A80036; stroke-width: 1.0;"/><!--link com.hack23.cia.service.impl.action.common.BusinessService to com.hack23.cia.service.impl.action.application.CreateApplicationEventService--><path d="M2107.2996,127.7977 C2152.5543,138.7292 2201.1252,150.6388 2246,162 C2295.6442,174.5687 2350.3874,188.9911 2397.0917,201.4661 " fill="none" id="com.hack23.cia.service.impl.action.common.BusinessService-com.hack23.cia.service.impl.action.application.CreateApplicationEventService" style="stroke: #A80036; stroke-width: 1.0; stroke-dasharray: 7.0,7.0;"/><polygon fill="none" points="2105.5926,134.5868,2087.7895,123.0956,2108.8729,120.9765,2105.5926,134.5868" style="stroke: #A80036; stroke-width: 1.0;"/><!--link com.hack23.cia.service.impl.action.common.AbstractBusinessServiceImpl to com.hack23.cia.service.impl.action.application.DestroyApplicationSessionService--><path d="M1515.0713,133.7294 C1589.6967,151.5322 1673.9107,171.6225 1746.6577,188.9772 " fill="none" id="com.hack23.cia.service.impl.action.common.AbstractBusinessServiceImpl-com.hack23.cia.service.impl.action.application.DestroyApplicationSessionService" style="stroke: #A80036; stroke-width: 1.0;"/><polygon fill="none" points="1513.1398,140.4652,1495.3101,129.0152,1516.3885,126.8473,1513.1398,140.4652" style="stroke: #A80036; stroke-width: 1.0;"/><!--link com.hack23.cia.service.impl.action.common.BusinessService to com.hack23.cia.service.impl.action.application.DestroyApplicationSessionService--><path d="M1929.4279,143.383 C1929.0126,158.5386 1928.5716,174.6364 1928.181,188.8948 " fill="none" id="com.hack23.cia.service.impl.action.common.BusinessService-com.hack23.cia.service.impl.action.application.DestroyApplicationSessionService" style="stroke: #A80036; stroke-width: 1.0; stroke-dasharray: 7.0,7.0;"/><polygon fill="none" points="1922.4351,143.0205,1929.9803,123.2197,1936.4298,143.404,1922.4351,143.0205" style="stroke: #A80036; stroke-width: 1.0;"/><!--link com.hack23.cia.service.impl.action.common.AbstractBusinessServiceImpl to com.hack23.cia.service.impl.action.application.RegisterUserService--><path d="M1320.205,149.3278 C1321.2999,162.6494 1322.4308,176.4083 1323.4483,188.7878 " fill="none" id="com.hack23.cia.service.impl.action.common.AbstractBusinessServiceImpl-com.hack23.cia.service.impl.action.application.RegisterUserService" style="stroke: #A80036; stroke-width: 1.0;"/><polygon fill="none" points="1313.1974,149.5214,1318.5355,129.0152,1327.1504,148.3745,1313.1974,149.5214" style="stroke: #A80036; stroke-width: 1.0;"/><!--link com.hack23.cia.service.impl.action.common.BusinessService to com.hack23.cia.service.impl.action.application.RegisterUserService--><path d="M1752.0344,127.6704 C1705.1378,138.71 1654.6448,150.703 1608,162 C1572.4522,170.6094 1534.4153,179.9786 1498.1747,188.9805 " fill="none" id="com.hack23.cia.service.impl.action.common.BusinessService-com.hack23.cia.service.impl.action.application.RegisterUserService" style="stroke: #A80036; stroke-width: 1.0; stroke-dasharray: 7.0,7.0;"/><polygon fill="none" points="1750.4706,120.8472,1771.5419,123.0843,1753.6747,134.4757,1750.4706,120.8472" style="stroke: #A80036; stroke-width: 1.0;"/><!--link com.hack23.cia.service.impl.action.common.AbstractBusinessServiceImpl to com.hack23.cia.service.impl.action.application.LogoutService--><path d="M1138.9471,134.4063 C1074.8915,152.0185 1002.9704,171.7935 940.703,188.9141 " fill="none" id="com.hack23.cia.service.impl.action.common.AbstractBusinessServiceImpl-com.hack23.cia.service.impl.action.application.LogoutService" style="stroke: #A80036; stroke-width: 1.0;"/><polygon fill="none" points="1137.4143,127.568,1158.5545,129.0152,1141.126,141.067,1137.4143,127.568" style="stroke: #A80036; stroke-width: 1.0;"/><!--link com.hack23.cia.service.impl.action.common.BusinessService to com.hack23.cia.service.impl.action.application.LogoutService--><path d="M1745.6574,126.6093 C1722.2956,130.6819 1698.6517,134.3018 1676,137 C1398.1878,170.0927 1323.6377,120.211 1047,162 C1006.1206,168.1753 962.4611,178.3069 922.6977,188.969 " fill="none" id="com.hack23.cia.service.impl.action.common.BusinessService-com.hack23.cia.service.impl.action.application.LogoutService" style="stroke: #A80036; stroke-width: 1.0; stroke-dasharray: 7.0,7.0;"/><polygon fill="none" points="1744.7084,119.6676,1765.6329,123.0093,1747.1915,133.4457,1744.7084,119.6676" style="stroke: #A80036; stroke-width: 1.0;"/><!--link com.hack23.cia.service.impl.action.common.AbstractBusinessServiceImpl to com.hack23.cia.service.impl.action.application.LoginService--><path d="M950.9775,107.9568 C815.5974,119.51 661.1199,136.7196 522,162 C483.7335,168.9537 442.8754,178.8183 405.1875,188.9552 " fill="none" id="com.hack23.cia.service.impl.action.common.AbstractBusinessServiceImpl-com.hack23.cia.service.impl.action.application.LoginService" style="stroke: #A80036; stroke-width: 1.0;"/><polygon fill="none" points="950.7246,100.9536,971.2396,106.2575,951.8946,114.9046,950.7246,100.9536" style="stroke: #A80036; stroke-width: 1.0;"/><!--link com.hack23.cia.service.impl.action.common.BusinessService to com.hack23.cia.service.impl.action.application.LoginService--><path d="M1748.3126,126.5553 C1724.0968,130.7487 1699.5197,134.4136 1676,137 C1421.0324,165.0383 775.8933,125.4924 522,162 C481.0823,167.8836 437.4069,178.1008 397.8037,188.9398 " fill="none" id="com.hack23.cia.service.impl.action.common.BusinessService-com.hack23.cia.service.impl.action.application.LoginService" style="stroke: #A80036; stroke-width: 1.0; stroke-dasharray: 7.0,7.0;"/><polygon fill="none" points="1747.1587,119.6506,1768.081,123.0055,1749.6331,133.4302,1747.1587,119.6506" style="stroke: #A80036; stroke-width: 1.0;"/><text fill="#888888" font-family="sans-serif" font-size="10" lengthAdjust="spacingAndGlyphs" textLength="186" x="1580.5" y="310.2822">UMLDoclet 2.0.5, PlantUML 1.2019.08</text><!--
@startuml
    namespace com.hack23.cia.service.impl.action.application {

        class CreateApplicationSessionService [[CreateApplicationSessionService.html]] {
            +processService(CreateApplicationSessionRequest): CreateApplicationSessionResponse
        }

        class CreateApplicationEventService [[CreateApplicationEventService.html]] {
            +processService(CreateApplicationEventRequest): CreateApplicationEventResponse
        }

        class DestroyApplicationSessionService [[DestroyApplicationSessionService.html]] {
            +processService(DestroyApplicationSessionRequest): DestroyApplicationSessionResponse
            #createApplicationEventForService(DestroyApplicationSessionRequest): CreateApplicationEventRequest
            #createErrorResponse(): DestroyApplicationSessionResponse
        }

        class RegisterUserService [[RegisterUserService.html]] {
            +processService(RegisterUserRequest): RegisterUserResponse
            #createApplicationEventForService(RegisterUserRequest): CreateApplicationEventRequest
            #createErrorResponse(): RegisterUserResponse
        }

        class LogoutService [[LogoutService.html]] {
            +processService(LogoutRequest): LogoutResponse
            #createApplicationEventForService(LogoutRequest): CreateApplicationEventRequest
            #createErrorResponse(): LogoutResponse
        }

        class LoginService [[LoginService.html]] {
            +processService(LoginRequest): LoginResponse
            #createApplicationEventForService(LoginRequest): CreateApplicationEventRequest
            #createErrorResponse(): LoginResponse
        }

        com.hack23.cia.service.impl.action.common.AbstractCommonBusinessServiceImpl <|- - CreateApplicationSessionService
        com.hack23.cia.service.impl.action.common.BusinessService <|.. CreateApplicationSessionService
        com.hack23.cia.service.impl.action.common.AbstractCommonBusinessServiceImpl <|- - CreateApplicationEventService
        com.hack23.cia.service.impl.action.common.BusinessService <|.. CreateApplicationEventService
        com.hack23.cia.service.impl.action.common.AbstractBusinessServiceImpl <|- - DestroyApplicationSessionService
        com.hack23.cia.service.impl.action.common.BusinessService <|.. DestroyApplicationSessionService
        com.hack23.cia.service.impl.action.common.AbstractBusinessServiceImpl <|- - RegisterUserService
        com.hack23.cia.service.impl.action.common.BusinessService <|.. RegisterUserService
        com.hack23.cia.service.impl.action.common.AbstractBusinessServiceImpl <|- - LogoutService
        com.hack23.cia.service.impl.action.common.BusinessService <|.. LogoutService
        com.hack23.cia.service.impl.action.common.AbstractBusinessServiceImpl <|- - LoginService
        com.hack23.cia.service.impl.action.common.BusinessService <|.. LoginService
    }

    namespace com.hack23.cia.service.impl.action.common {
        abstract class AbstractCommonBusinessServiceImpl<T extends ServiceRequest, V extends ServiceResponse> [[../common/AbstractCommonBusinessServiceImpl.html]] {
        }
        interface BusinessService<T extends ServiceRequest, V extends ServiceResponse> [[../common/BusinessService.html]] {
            {abstract} +getSupportedService(): Class<? extends ServiceRequest>
            {abstract} +processService(T extends ServiceRequest): V extends ServiceResponse
        }
        abstract class AbstractBusinessServiceImpl<T extends ServiceRequest, V extends ServiceResponse> [[../common/AbstractBusinessServiceImpl.html]] {
            #createApplicationEventService: BusinessService<CreateApplicationEventRequest, CreateApplicationEventResponse>
            {abstract} #createErrorResponse(): V extends ServiceResponse
            {abstract} #createApplicationEventForService(T extends ServiceRequest): CreateApplicationEventRequest
        }
    }

    center footer UMLDoclet 2.0.5, PlantUML 1.2019.08
@enduml

PlantUML version 1.2019.08(Sat Jul 13 21:25:14 CEST 2019)
(APACHE source distribution)
Java Runtime: OpenJDK Runtime Environment
JVM: OpenJDK 64-Bit Server VM
Java Version: 11.0.4+11-post-Ubuntu-1ubuntu219.04
Operating System: Linux
OS Version: 5.0.0-27-generic
Default Encoding: UTF-8
Language: en
Country: US
--></g></svg>