<?xml version="1.0" encoding="UTF-8" standalone="no"?><svg xmlns="http://www.w3.org/2000/svg" xmlns:xlink="http://www.w3.org/1999/xlink" contentScriptType="application/ecmascript" contentStyleType="text/css" height="281px" preserveAspectRatio="none" style="width:446px;height:281px;" version="1.1" viewBox="0 0 446 281" width="446px" zoomAndPan="magnify"><defs><filter height="300%" id="f1bmxg9pm7wyb8" width="300%" x="-1" y="-1"><feGaussianBlur result="blurOut" stdDeviation="2.0"/><feColorMatrix in="blurOut" result="blurOut2" type="matrix" values="0 0 0 0 0 0 0 0 0 0 0 0 0 0 0 0 0 0 .4 0"/><feOffset dx="4.0" dy="4.0" in="blurOut2" result="blurOut3"/><feBlend in="SourceGraphic" in2="blurOut3" mode="normal"/></filter></defs><g><!--class com.hack23.cia.service.impl.task.JobContextHolderImpl--><a href="JobContextHolderImpl.html" target="_top" xlink:actuate="onRequest" xlink:show="new" xlink:title="JobContextHolderImpl.html" xlink:type="simple"><rect fill="#FEFECE" filter="url(#f1bmxg9pm7wyb8)" height="97.1563" id="com.hack23.cia.service.impl.task.JobContextHolderImpl" style="stroke: #A80036; stroke-width: 1.5;" width="429" x="6" y="152"/><ellipse cx="137.75" cy="170.9688" fill="#ADD1B2" rx="11" ry="11" style="stroke: #A80036; stroke-width: 1.0;"/><path d="M140.7188,176.6094 Q140.1406,176.9063 139.5,177.0469 Q138.8594,177.2031 138.1563,177.2031 Q135.6563,177.2031 134.3281,175.5625 Q133.0156,173.9063 133.0156,170.7813 Q133.0156,167.6563 134.3281,166 Q135.6563,164.3438 138.1563,164.3438 Q138.8594,164.3438 139.5,164.5 Q140.1563,164.6563 140.7188,164.9531 L140.7188,167.6719 Q140.0938,167.0938 139.5,166.8281 Q138.9063,166.5469 138.2813,166.5469 Q136.9375,166.5469 136.25,167.625 Q135.5625,168.6875 135.5625,170.7813 Q135.5625,172.875 136.25,173.9531 Q136.9375,175.0156 138.2813,175.0156 Q138.9063,175.0156 139.5,174.75 Q140.0938,174.4688 140.7188,173.8906 L140.7188,176.6094 Z "/><text fill="#000000" font-family="sans-serif" font-size="14" lengthAdjust="spacingAndGlyphs" textLength="148" x="162.75" y="169.9951">JobContextHolderImpl</text><text fill="#000000" font-family="sans-serif" font-size="10" lengthAdjust="spacingAndGlyphs" textLength="157" x="158.25" y="182.5791">com.hack23.cia.service.impl.task</text><line style="stroke: #A80036; stroke-width: 1.5;" x1="7" x2="434" y1="189.9375" y2="189.9375"/><ellipse cx="17" cy="201.8398" fill="#84BE84" rx="3" ry="3" style="stroke: #038048; stroke-width: 1.0;"/><text fill="#000000" font-family="sans-serif" font-size="11" lengthAdjust="spacingAndGlyphs" textLength="403" x="26" y="204.1479">JobContextHolderImpl(DataAgentApi, SearchIndexer, ViewDataManager)</text><ellipse cx="17" cy="214.6445" fill="#84BE84" rx="3" ry="3" style="stroke: #038048; stroke-width: 1.0;"/><text fill="#000000" font-family="sans-serif" font-size="11" lengthAdjust="spacingAndGlyphs" textLength="184" x="26" y="216.9526">getDataAgentApi(): DataAgentApi</text><ellipse cx="17" cy="227.4492" fill="#84BE84" rx="3" ry="3" style="stroke: #038048; stroke-width: 1.0;"/><text fill="#000000" font-family="sans-serif" font-size="11" lengthAdjust="spacingAndGlyphs" textLength="148" x="26" y="229.7573">updateSearchIndex(): void</text><ellipse cx="17" cy="240.2539" fill="#84BE84" rx="3" ry="3" style="stroke: #038048; stroke-width: 1.0;"/><text fill="#000000" font-family="sans-serif" font-size="11" lengthAdjust="spacingAndGlyphs" textLength="114" x="26" y="242.562">refreshViews(): void</text></a><!--class com.hack23.cia.service.impl.task.JobContextHolder--><a href="JobContextHolder.html" target="_top" xlink:actuate="onRequest" xlink:show="new" xlink:title="JobContextHolder.html" xlink:type="simple"><rect fill="#FEFECE" filter="url(#f1bmxg9pm7wyb8)" height="84.3516" id="com.hack23.cia.service.impl.task.JobContextHolder" style="stroke: #A80036; stroke-width: 1.5;" width="214" x="113.5" y="8"/><ellipse cx="135.25" cy="26.9688" fill="#B4A7E5" rx="11" ry="11" style="stroke: #A80036; stroke-width: 1.0;"/><path d="M131.1719,22.7344 L131.1719,20.5781 L138.5625,20.5781 L138.5625,22.7344 L136.0938,22.7344 L136.0938,30.8125 L138.5625,30.8125 L138.5625,32.9688 L131.1719,32.9688 L131.1719,30.8125 L133.6406,30.8125 L133.6406,22.7344 L131.1719,22.7344 Z "/><text fill="#000000" font-family="sans-serif" font-size="14" font-style="italic" lengthAdjust="spacingAndGlyphs" textLength="123" x="172.75" y="25.9951">JobContextHolder</text><text fill="#000000" font-family="sans-serif" font-size="10" font-style="italic" lengthAdjust="spacingAndGlyphs" textLength="167" x="150.75" y="38.5791">com.hack23.cia.service.impl.task</text><line style="stroke: #A80036; stroke-width: 1.5;" x1="114.5" x2="326.5" y1="45.9375" y2="45.9375"/><ellipse cx="124.5" cy="57.8398" fill="#84BE84" rx="3" ry="3" style="stroke: #038048; stroke-width: 1.0;"/><text fill="#000000" font-family="sans-serif" font-size="11" font-style="italic" lengthAdjust="spacingAndGlyphs" textLength="188" x="133.5" y="60.1479">getDataAgentApi(): DataAgentApi</text><ellipse cx="124.5" cy="70.6445" fill="#84BE84" rx="3" ry="3" style="stroke: #038048; stroke-width: 1.0;"/><text fill="#000000" font-family="sans-serif" font-size="11" font-style="italic" lengthAdjust="spacingAndGlyphs" textLength="149" x="133.5" y="72.9526">updateSearchIndex(): void</text><ellipse cx="124.5" cy="83.4492" fill="#84BE84" rx="3" ry="3" style="stroke: #038048; stroke-width: 1.0;"/><text fill="#000000" font-family="sans-serif" font-size="11" font-style="italic" lengthAdjust="spacingAndGlyphs" textLength="114" x="133.5" y="85.7573">refreshViews(): void</text></a><!--link com.hack23.cia.service.impl.task.JobContextHolder to com.hack23.cia.service.impl.task.JobContextHolderImpl--><path d="M220.5,112.353 C220.5,125.5387 220.5,139.2689 220.5,151.8586 " fill="none" id="com.hack23.cia.service.impl.task.JobContextHolder-com.hack23.cia.service.impl.task.JobContextHolderImpl" style="stroke: #A80036; stroke-width: 1.0; stroke-dasharray: 7.0,7.0;"/><polygon fill="none" points="213.5001,112.3232,220.5,92.3231,227.5001,112.3231,213.5001,112.3232" style="stroke: #A80036; stroke-width: 1.0;"/><text fill="#888888" font-family="sans-serif" font-size="10" lengthAdjust="spacingAndGlyphs" textLength="186" x="133.5" y="268.2822">UMLDoclet 2.0.5, PlantUML 1.2019.08</text><!--
@startuml
    set namespaceSeparator none
    hide empty fields
    hide empty methods

    class "<size:14>JobContextHolderImpl\n<size:10>com.hack23.cia.service.impl.task" as com.hack23.cia.service.impl.task.JobContextHolderImpl [[JobContextHolderImpl.html]] {
        +JobContextHolderImpl(DataAgentApi, SearchIndexer, ViewDataManager)
        +getDataAgentApi(): DataAgentApi
        +updateSearchIndex(): void
        +refreshViews(): void
    }

    interface "<size:14>JobContextHolder\n<size:10>com.hack23.cia.service.impl.task" as com.hack23.cia.service.impl.task.JobContextHolder [[JobContextHolder.html]] {
        {abstract} +getDataAgentApi(): DataAgentApi
        {abstract} +updateSearchIndex(): void
        {abstract} +refreshViews(): void
    }

    com.hack23.cia.service.impl.task.JobContextHolder <|.. com.hack23.cia.service.impl.task.JobContextHolderImpl

    center footer UMLDoclet 2.0.5, PlantUML 1.2019.08
@enduml

PlantUML version 1.2019.08(Sat Jul 13 21:25:14 CEST 2019)
(APACHE source distribution)
Java Runtime: OpenJDK Runtime Environment
JVM: OpenJDK 64-Bit Server VM
Java Version: 11.0.4+11-post-Ubuntu-1ubuntu219.04
Operating System: Linux
OS Version: 5.0.0-27-generic
Default Encoding: UTF-8
Language: en
Country: US
--></g></svg>