<?xml version="1.0" encoding="UTF-8" standalone="no"?><svg xmlns="http://www.w3.org/2000/svg" xmlns:xlink="http://www.w3.org/1999/xlink" contentScriptType="application/ecmascript" contentStyleType="text/css" height="457px" preserveAspectRatio="none" style="width:1385px;height:457px;" version="1.1" viewBox="0 0 1385 457" width="1385px" zoomAndPan="magnify"><defs><filter height="300%" id="fxkkv77l7vqog" width="300%" x="-1" y="-1"><feGaussianBlur result="blurOut" stdDeviation="2.0"/><feColorMatrix in="blurOut" result="blurOut2" type="matrix" values="0 0 0 0 0 0 0 0 0 0 0 0 0 0 0 0 0 0 .4 0"/><feOffset dx="4.0" dy="4.0" in="blurOut2" result="blurOut3"/><feBlend in="SourceGraphic" in2="blurOut3" mode="normal"/></filter></defs><g><!--cluster com.hack23.cia.service.impl.task--><polygon fill="#FFFFFF" filter="url(#fxkkv77l7vqog)" points="14,137,280,137,287,159.2969,1363,159.2969,1363,417,14,417,14,137" style="stroke: #000000; stroke-width: 1.5;"/><line style="stroke: #000000; stroke-width: 1.5;" x1="14" x2="287" y1="159.2969" y2="159.2969"/><text fill="#000000" font-family="sans-serif" font-size="14" font-weight="bold" lengthAdjust="spacingAndGlyphs" textLength="260" x="18" y="151.9951">com.hack23.cia.service.impl.task</text><!--cluster org.springframework.scheduling.quartz--><polygon fill="#FFFFFF" filter="url(#fxkkv77l7vqog)" points="163,16,484,16,491,38.2969,494,38.2969,494,112,163,112,163,16" style="stroke: #000000; stroke-width: 1.5;"/><line style="stroke: #000000; stroke-width: 1.5;" x1="163" x2="491" y1="38.2969" y2="38.2969"/><text fill="#000000" font-family="sans-serif" font-size="14" font-weight="bold" lengthAdjust="spacingAndGlyphs" textLength="315" x="167" y="30.9951">org.springframework.scheduling.quartz</text><!--cluster java.io--><polygon fill="#FFFFFF" filter="url(#fxkkv77l7vqog)" points="507,22.5,563,22.5,570,44.7969,627,44.7969,627,105.5,507,105.5,507,22.5" style="stroke: #000000; stroke-width: 1.5;"/><line style="stroke: #000000; stroke-width: 1.5;" x1="507" x2="570" y1="44.7969" y2="44.7969"/><text fill="#000000" font-family="sans-serif" font-size="14" font-weight="bold" lengthAdjust="spacingAndGlyphs" textLength="50" x="511" y="37.4951">java.io</text><!--class com.hack23.cia.service.impl.task.JobContextHolderImpl--><a href="JobContextHolderImpl.html" target="_top" xlink:actuate="onRequest" xlink:show="new" xlink:title="JobContextHolderImpl.html" xlink:type="simple"><rect fill="#FEFECE" filter="url(#fxkkv77l7vqog)" height="99.2188" id="com.hack23.cia.service.impl.task.JobContextHolderImpl" style="stroke: #A80036; stroke-width: 1.5;" width="429" x="925.5" y="310"/><ellipse cx="1069.25" cy="326" fill="#ADD1B2" rx="11" ry="11" style="stroke: #A80036; stroke-width: 1.0;"/><path d="M1072.2188,331.6406 Q1071.6406,331.9375 1071,332.0781 Q1070.3594,332.2344 1069.6563,332.2344 Q1067.1563,332.2344 1065.8281,330.5938 Q1064.5156,328.9375 1064.5156,325.8125 Q1064.5156,322.6875 1065.8281,321.0313 Q1067.1563,319.375 1069.6563,319.375 Q1070.3594,319.375 1071,319.5313 Q1071.6563,319.6875 1072.2188,319.9844 L1072.2188,322.7031 Q1071.5938,322.125 1071,321.8594 Q1070.4063,321.5781 1069.7813,321.5781 Q1068.4375,321.5781 1067.75,322.6563 Q1067.0625,323.7188 1067.0625,325.8125 Q1067.0625,327.9063 1067.75,328.9844 Q1068.4375,330.0469 1069.7813,330.0469 Q1070.4063,330.0469 1071,329.7813 Q1071.5938,329.5 1072.2188,328.9219 L1072.2188,331.6406 Z "/><text fill="#000000" font-family="sans-serif" font-size="12" lengthAdjust="spacingAndGlyphs" textLength="133" x="1089.75" y="330.1543">JobContextHolderImpl</text><line style="stroke: #A80036; stroke-width: 1.5;" x1="926.5" x2="1353.5" y1="342" y2="342"/><line style="stroke: #A80036; stroke-width: 1.5;" x1="926.5" x2="1353.5" y1="350" y2="350"/><ellipse cx="936.5" cy="361.9023" fill="#84BE84" rx="3" ry="3" style="stroke: #038048; stroke-width: 1.0;"/><text fill="#000000" font-family="sans-serif" font-size="11" lengthAdjust="spacingAndGlyphs" textLength="403" x="945.5" y="364.2104">JobContextHolderImpl(DataAgentApi, SearchIndexer, ViewDataManager)</text><ellipse cx="936.5" cy="374.707" fill="#84BE84" rx="3" ry="3" style="stroke: #038048; stroke-width: 1.0;"/><text fill="#000000" font-family="sans-serif" font-size="11" lengthAdjust="spacingAndGlyphs" textLength="184" x="945.5" y="377.0151">getDataAgentApi(): DataAgentApi</text><ellipse cx="936.5" cy="387.5117" fill="#84BE84" rx="3" ry="3" style="stroke: #038048; stroke-width: 1.0;"/><text fill="#000000" font-family="sans-serif" font-size="11" lengthAdjust="spacingAndGlyphs" textLength="148" x="945.5" y="389.8198">updateSearchIndex(): void</text><ellipse cx="936.5" cy="400.3164" fill="#84BE84" rx="3" ry="3" style="stroke: #038048; stroke-width: 1.0;"/><text fill="#000000" font-family="sans-serif" font-size="11" lengthAdjust="spacingAndGlyphs" textLength="114" x="945.5" y="402.6245">refreshViews(): void</text></a><!--class com.hack23.cia.service.impl.task.RefreshViewsJob--><a href="RefreshViewsJob.html" target="_top" xlink:actuate="onRequest" xlink:show="new" xlink:title="RefreshViewsJob.html" xlink:type="simple"><rect fill="#FEFECE" filter="url(#fxkkv77l7vqog)" height="60.8047" id="com.hack23.cia.service.impl.task.RefreshViewsJob" style="stroke: #A80036; stroke-width: 1.5;" width="266" x="22" y="329"/><ellipse cx="99.75" cy="345" fill="#ADD1B2" rx="11" ry="11" style="stroke: #A80036; stroke-width: 1.0;"/><path d="M102.7188,350.6406 Q102.1406,350.9375 101.5,351.0781 Q100.8594,351.2344 100.1563,351.2344 Q97.6563,351.2344 96.3281,349.5938 Q95.0156,347.9375 95.0156,344.8125 Q95.0156,341.6875 96.3281,340.0313 Q97.6563,338.375 100.1563,338.375 Q100.8594,338.375 101.5,338.5313 Q102.1563,338.6875 102.7188,338.9844 L102.7188,341.7031 Q102.0938,341.125 101.5,340.8594 Q100.9063,340.5781 100.2813,340.5781 Q98.9375,340.5781 98.25,341.6563 Q97.5625,342.7188 97.5625,344.8125 Q97.5625,346.9063 98.25,347.9844 Q98.9375,349.0469 100.2813,349.0469 Q100.9063,349.0469 101.5,348.7813 Q102.0938,348.5 102.7188,347.9219 L102.7188,350.6406 Z "/><text fill="#000000" font-family="sans-serif" font-size="12" lengthAdjust="spacingAndGlyphs" textLength="102" x="120.25" y="349.1543">RefreshViewsJob</text><line style="stroke: #A80036; stroke-width: 1.5;" x1="23" x2="287" y1="361" y2="361"/><line style="stroke: #A80036; stroke-width: 1.5;" x1="23" x2="287" y1="369" y2="369"/><polygon fill="#FFFF44" points="33,375.9023,37,379.9023,33,383.9023,29,379.9023" style="stroke: #B38D22; stroke-width: 1.0;"/><text fill="#000000" font-family="sans-serif" font-size="11" lengthAdjust="spacingAndGlyphs" textLength="240" x="42" y="383.2104">executeInternal(JobExecutionContext): void</text></a><!--class com.hack23.cia.service.impl.task.UpdateSearchIndexJob--><a href="UpdateSearchIndexJob.html" target="_top" xlink:actuate="onRequest" xlink:show="new" xlink:title="UpdateSearchIndexJob.html" xlink:type="simple"><rect fill="#FEFECE" filter="url(#fxkkv77l7vqog)" height="60.8047" id="com.hack23.cia.service.impl.task.UpdateSearchIndexJob" style="stroke: #A80036; stroke-width: 1.5;" width="266" x="323" y="329"/><ellipse cx="380.75" cy="345" fill="#ADD1B2" rx="11" ry="11" style="stroke: #A80036; stroke-width: 1.0;"/><path d="M383.7188,350.6406 Q383.1406,350.9375 382.5,351.0781 Q381.8594,351.2344 381.1563,351.2344 Q378.6563,351.2344 377.3281,349.5938 Q376.0156,347.9375 376.0156,344.8125 Q376.0156,341.6875 377.3281,340.0313 Q378.6563,338.375 381.1563,338.375 Q381.8594,338.375 382.5,338.5313 Q383.1563,338.6875 383.7188,338.9844 L383.7188,341.7031 Q383.0938,341.125 382.5,340.8594 Q381.9063,340.5781 381.2813,340.5781 Q379.9375,340.5781 379.25,341.6563 Q378.5625,342.7188 378.5625,344.8125 Q378.5625,346.9063 379.25,347.9844 Q379.9375,349.0469 381.2813,349.0469 Q381.9063,349.0469 382.5,348.7813 Q383.0938,348.5 383.7188,347.9219 L383.7188,350.6406 Z "/><text fill="#000000" font-family="sans-serif" font-size="12" lengthAdjust="spacingAndGlyphs" textLength="142" x="401.25" y="349.1543">UpdateSearchIndexJob</text><line style="stroke: #A80036; stroke-width: 1.5;" x1="324" x2="588" y1="361" y2="361"/><line style="stroke: #A80036; stroke-width: 1.5;" x1="324" x2="588" y1="369" y2="369"/><polygon fill="#FFFF44" points="334,375.9023,338,379.9023,334,383.9023,330,379.9023" style="stroke: #B38D22; stroke-width: 1.0;"/><text fill="#000000" font-family="sans-serif" font-size="11" lengthAdjust="spacingAndGlyphs" textLength="240" x="343" y="383.2104">executeInternal(JobExecutionContext): void</text></a><!--class com.hack23.cia.service.impl.task.JobContextHolder--><a href="JobContextHolder.html" target="_top" xlink:actuate="onRequest" xlink:show="new" xlink:title="JobContextHolder.html" xlink:type="simple"><rect fill="#FEFECE" filter="url(#fxkkv77l7vqog)" height="86.4141" id="com.hack23.cia.service.impl.task.JobContextHolder" style="stroke: #A80036; stroke-width: 1.5;" width="214" x="1033" y="164"/><ellipse cx="1080.75" cy="180" fill="#B4A7E5" rx="11" ry="11" style="stroke: #A80036; stroke-width: 1.0;"/><path d="M1076.6719,175.7656 L1076.6719,173.6094 L1084.0625,173.6094 L1084.0625,175.7656 L1081.5938,175.7656 L1081.5938,183.8438 L1084.0625,183.8438 L1084.0625,186 L1076.6719,186 L1076.6719,183.8438 L1079.1406,183.8438 L1079.1406,175.7656 L1076.6719,175.7656 Z "/><text fill="#000000" font-family="sans-serif" font-size="12" font-style="italic" lengthAdjust="spacingAndGlyphs" textLength="110" x="1101.25" y="184.1543">JobContextHolder</text><line style="stroke: #A80036; stroke-width: 1.5;" x1="1034" x2="1246" y1="196" y2="196"/><line style="stroke: #A80036; stroke-width: 1.5;" x1="1034" x2="1246" y1="204" y2="204"/><ellipse cx="1044" cy="215.9023" fill="#84BE84" rx="3" ry="3" style="stroke: #038048; stroke-width: 1.0;"/><text fill="#000000" font-family="sans-serif" font-size="11" font-style="italic" lengthAdjust="spacingAndGlyphs" textLength="188" x="1053" y="218.2104">getDataAgentApi(): DataAgentApi</text><ellipse cx="1044" cy="228.707" fill="#84BE84" rx="3" ry="3" style="stroke: #038048; stroke-width: 1.0;"/><text fill="#000000" font-family="sans-serif" font-size="11" font-style="italic" lengthAdjust="spacingAndGlyphs" textLength="149" x="1053" y="231.0151">updateSearchIndex(): void</text><ellipse cx="1044" cy="241.5117" fill="#84BE84" rx="3" ry="3" style="stroke: #038048; stroke-width: 1.0;"/><text fill="#000000" font-family="sans-serif" font-size="11" font-style="italic" lengthAdjust="spacingAndGlyphs" textLength="114" x="1053" y="243.8198">refreshViews(): void</text></a><!--class com.hack23.cia.service.impl.task.AbstractJob--><a href="AbstractJob.html" target="_top" xlink:actuate="onRequest" xlink:show="new" xlink:title="AbstractJob.html" xlink:type="simple"><rect fill="#FEFECE" filter="url(#fxkkv77l7vqog)" height="60.8047" id="com.hack23.cia.service.impl.task.AbstractJob" style="stroke: #A80036; stroke-width: 1.5;" width="368" x="272" y="176.5"/><ellipse cx="415.75" cy="192.5" fill="#A9DCDF" rx="11" ry="11" style="stroke: #A80036; stroke-width: 1.0;"/><path d="M415.8594,187.8438 L414.7031,192.9219 L417.0313,192.9219 L415.8594,187.8438 Z M414.375,185.6094 L417.3594,185.6094 L420.7188,198 L418.2656,198 L417.5,194.9375 L414.2188,194.9375 L413.4688,198 L411.0313,198 L414.375,185.6094 Z "/><text fill="#000000" font-family="sans-serif" font-size="12" font-style="italic" lengthAdjust="spacingAndGlyphs" textLength="72" x="436.25" y="196.6543">AbstractJob</text><line style="stroke: #A80036; stroke-width: 1.5;" x1="273" x2="639" y1="208.5" y2="208.5"/><line style="stroke: #A80036; stroke-width: 1.5;" x1="273" x2="639" y1="216.5" y2="216.5"/><polygon fill="#FFFF44" points="283,223.4023,287,227.4023,283,231.4023,279,227.4023" style="stroke: #B38D22; stroke-width: 1.0;"/><text fill="#000000" font-family="sans-serif" font-size="11" lengthAdjust="spacingAndGlyphs" textLength="342" x="292" y="230.7104">getJobContextHolder(JobExecutionContext): JobContextHolder</text></a><!--class com.hack23.cia.service.impl.task.AgentJob--><a href="AgentJob.html" target="_top" xlink:actuate="onRequest" xlink:show="new" xlink:title="AgentJob.html" xlink:type="simple"><rect fill="#FEFECE" filter="url(#fxkkv77l7vqog)" height="60.8047" id="com.hack23.cia.service.impl.task.AgentJob" style="stroke: #A80036; stroke-width: 1.5;" width="266" x="624" y="329"/><ellipse cx="724.75" cy="345" fill="#ADD1B2" rx="11" ry="11" style="stroke: #A80036; stroke-width: 1.0;"/><path d="M727.7188,350.6406 Q727.1406,350.9375 726.5,351.0781 Q725.8594,351.2344 725.1563,351.2344 Q722.6563,351.2344 721.3281,349.5938 Q720.0156,347.9375 720.0156,344.8125 Q720.0156,341.6875 721.3281,340.0313 Q722.6563,338.375 725.1563,338.375 Q725.8594,338.375 726.5,338.5313 Q727.1563,338.6875 727.7188,338.9844 L727.7188,341.7031 Q727.0938,341.125 726.5,340.8594 Q725.9063,340.5781 725.2813,340.5781 Q723.9375,340.5781 723.25,341.6563 Q722.5625,342.7188 722.5625,344.8125 Q722.5625,346.9063 723.25,347.9844 Q723.9375,349.0469 725.2813,349.0469 Q725.9063,349.0469 726.5,348.7813 Q727.0938,348.5 727.7188,347.9219 L727.7188,350.6406 Z "/><text fill="#000000" font-family="sans-serif" font-size="12" lengthAdjust="spacingAndGlyphs" textLength="56" x="745.25" y="349.1543">AgentJob</text><line style="stroke: #A80036; stroke-width: 1.5;" x1="625" x2="889" y1="361" y2="361"/><line style="stroke: #A80036; stroke-width: 1.5;" x1="625" x2="889" y1="369" y2="369"/><polygon fill="#FFFF44" points="635,375.9023,639,379.9023,635,383.9023,631,379.9023" style="stroke: #B38D22; stroke-width: 1.0;"/><text fill="#000000" font-family="sans-serif" font-size="11" lengthAdjust="spacingAndGlyphs" textLength="240" x="644" y="383.2104">executeInternal(JobExecutionContext): void</text></a><!--class org.springframework.scheduling.quartz.QuartzJobBean--><rect fill="#FEFECE" filter="url(#fxkkv77l7vqog)" height="60.8047" id="org.springframework.scheduling.quartz.QuartzJobBean" style="stroke: #A80036; stroke-width: 1.5;" width="270" x="210" y="43"/><ellipse cx="294.75" cy="59" fill="#A9DCDF" rx="11" ry="11" style="stroke: #A80036; stroke-width: 1.0;"/><path d="M294.8594,54.3438 L293.7031,59.4219 L296.0313,59.4219 L294.8594,54.3438 Z M293.375,52.1094 L296.3594,52.1094 L299.7188,64.5 L297.2656,64.5 L296.5,61.4375 L293.2188,61.4375 L292.4688,64.5 L290.0313,64.5 L293.375,52.1094 Z "/><text fill="#000000" font-family="sans-serif" font-size="12" font-style="italic" lengthAdjust="spacingAndGlyphs" textLength="92" x="315.25" y="63.1543">QuartzJobBean</text><line style="stroke: #A80036; stroke-width: 1.5;" x1="211" x2="479" y1="75" y2="75"/><line style="stroke: #A80036; stroke-width: 1.5;" x1="211" x2="479" y1="83" y2="83"/><polygon fill="#FFFF44" points="221,89.9023,225,93.9023,221,97.9023,217,93.9023" style="stroke: #B38D22; stroke-width: 1.0;"/><text fill="#000000" font-family="sans-serif" font-size="11" font-style="italic" lengthAdjust="spacingAndGlyphs" textLength="244" x="230" y="97.2104">executeInternal(JobExecutionContext): void</text><!--class java.io.Serializable--><rect fill="#FEFECE" filter="url(#fxkkv77l7vqog)" height="48" id="java.io.Serializable" style="stroke: #A80036; stroke-width: 1.5;" width="103" x="515.5" y="49.5"/><ellipse cx="530.5" cy="65.5" fill="#B4A7E5" rx="11" ry="11" style="stroke: #A80036; stroke-width: 1.0;"/><path d="M526.4219,61.2656 L526.4219,59.1094 L533.8125,59.1094 L533.8125,61.2656 L531.3438,61.2656 L531.3438,69.3438 L533.8125,69.3438 L533.8125,71.5 L526.4219,71.5 L526.4219,69.3438 L528.8906,69.3438 L528.8906,61.2656 L526.4219,61.2656 Z "/><text fill="#000000" font-family="sans-serif" font-size="12" font-style="italic" lengthAdjust="spacingAndGlyphs" textLength="71" x="544.5" y="69.6543">Serializable</text><line style="stroke: #A80036; stroke-width: 1.5;" x1="516.5" x2="617.5" y1="81.5" y2="81.5"/><line style="stroke: #A80036; stroke-width: 1.5;" x1="516.5" x2="617.5" y1="89.5" y2="89.5"/><!--link com.hack23.cia.service.impl.task.JobContextHolder to com.hack23.cia.service.impl.task.JobContextHolderImpl--><path d="M1140,270.363 C1140,283.5636 1140,297.2948 1140,309.9119 " fill="none" id="com.hack23.cia.service.impl.task.JobContextHolder-com.hack23.cia.service.impl.task.JobContextHolderImpl" style="stroke: #A80036; stroke-width: 1.0; stroke-dasharray: 7.0,7.0;"/><polygon fill="none" points="1133.0001,270.2925,1140,250.2925,1147.0001,270.2924,1133.0001,270.2925" style="stroke: #A80036; stroke-width: 1.0;"/><!--link com.hack23.cia.service.impl.task.AbstractJob to com.hack23.cia.service.impl.task.RefreshViewsJob--><path d="M377.5061,246.7685 C326.8917,272.412 262.0614,305.258 215.453,328.8718 " fill="none" id="com.hack23.cia.service.impl.task.AbstractJob-com.hack23.cia.service.impl.task.RefreshViewsJob" style="stroke: #A80036; stroke-width: 1.0;"/><polygon fill="none" points="374.4457,240.4719,395.4502,237.6772,380.773,252.9606,374.4457,240.4719" style="stroke: #A80036; stroke-width: 1.0;"/><!--link com.hack23.cia.service.impl.task.AbstractJob to com.hack23.cia.service.impl.task.UpdateSearchIndexJob--><path d="M456,258.1285 C456,281.619 456,308.6906 456,328.9458 " fill="none" id="com.hack23.cia.service.impl.task.AbstractJob-com.hack23.cia.service.impl.task.UpdateSearchIndexJob" style="stroke: #A80036; stroke-width: 1.0;"/><polygon fill="none" points="449.0001,257.8607,456,237.8607,463.0001,257.8606,449.0001,257.8607" style="stroke: #A80036; stroke-width: 1.0;"/><!--link org.springframework.scheduling.quartz.QuartzJobBean to com.hack23.cia.service.impl.task.AbstractJob--><path d="M383.4291,119.7188 C398.9134,138.3418 416.3618,159.327 430.2685,176.0526 " fill="none" id="org.springframework.scheduling.quartz.QuartzJobBean-com.hack23.cia.service.impl.task.AbstractJob" style="stroke: #A80036; stroke-width: 1.0;"/><polygon fill="none" points="377.8699,123.9816,370.4656,104.1276,388.6349,115.0308,377.8699,123.9816" style="stroke: #A80036; stroke-width: 1.0;"/><!--link java.io.Serializable to com.hack23.cia.service.impl.task.AbstractJob--><path d="M533.9921,113.1987 C517.1645,133.4373 497.0166,157.6693 481.4145,176.4339 " fill="none" id="java.io.Serializable-com.hack23.cia.service.impl.task.AbstractJob" style="stroke: #A80036; stroke-width: 1.0; stroke-dasharray: 7.0,7.0;"/><polygon fill="none" points="528.7295,108.5791,546.8987,97.6758,539.4945,117.5298,528.7295,108.5791" style="stroke: #A80036; stroke-width: 1.0;"/><!--link com.hack23.cia.service.impl.task.AbstractJob to com.hack23.cia.service.impl.task.AgentJob--><path d="M534.4939,246.7685 C585.1083,272.412 649.9386,305.258 696.547,328.8718 " fill="none" id="com.hack23.cia.service.impl.task.AbstractJob-com.hack23.cia.service.impl.task.AgentJob" style="stroke: #A80036; stroke-width: 1.0;"/><polygon fill="none" points="531.227,252.9606,516.5498,237.6772,537.5543,240.4719,531.227,252.9606" style="stroke: #A80036; stroke-width: 1.0;"/><text fill="#888888" font-family="sans-serif" font-size="10" lengthAdjust="spacingAndGlyphs" textLength="186" x="601.5" y="444.2822">UMLDoclet 2.0.5, PlantUML 1.2019.08</text><!--
@startuml
    namespace com.hack23.cia.service.impl.task {

        class JobContextHolderImpl [[JobContextHolderImpl.html]] {
            +JobContextHolderImpl(DataAgentApi, SearchIndexer, ViewDataManager)
            +getDataAgentApi(): DataAgentApi
            +updateSearchIndex(): void
            +refreshViews(): void
        }

        class RefreshViewsJob [[RefreshViewsJob.html]] {
            #executeInternal(JobExecutionContext): void
        }

        class UpdateSearchIndexJob [[UpdateSearchIndexJob.html]] {
            #executeInternal(JobExecutionContext): void
        }

        interface JobContextHolder [[JobContextHolder.html]] {
            {abstract} +getDataAgentApi(): DataAgentApi
            {abstract} +updateSearchIndex(): void
            {abstract} +refreshViews(): void
        }

        abstract class AbstractJob [[AbstractJob.html]] {
            #getJobContextHolder(JobExecutionContext): JobContextHolder
        }

        class AgentJob [[AgentJob.html]] {
            #executeInternal(JobExecutionContext): void
        }

        JobContextHolder <|.. JobContextHolderImpl
        AbstractJob <|- - RefreshViewsJob
        AbstractJob <|- - UpdateSearchIndexJob
        org.springframework.scheduling.quartz.QuartzJobBean <|- - AbstractJob
        java.io.Serializable <|.. AbstractJob
        AbstractJob <|- - AgentJob
    }

    namespace org.springframework.scheduling.quartz {
        abstract class QuartzJobBean {
            {abstract} #executeInternal(JobExecutionContext): void
        }
    }

    namespace java.io {
        interface Serializable
    }

    center footer UMLDoclet 2.0.5, PlantUML 1.2019.08
@enduml

PlantUML version 1.2019.08(Sat Jul 13 21:25:14 CEST 2019)
(APACHE source distribution)
Java Runtime: OpenJDK Runtime Environment
JVM: OpenJDK 64-Bit Server VM
Java Version: 11.0.4+11-post-Ubuntu-1ubuntu219.04
Operating System: Linux
OS Version: 5.0.0-27-generic
Default Encoding: UTF-8
Language: en
Country: US
--></g></svg>