<svg xmlns="http://www.w3.org/2000/svg" xmlns:xlink="http://www.w3.org/1999/xlink" contentStyleType="text/css" data-diagram-type="CLASS" height="323px" preserveAspectRatio="none" style="width:300px;height:323px;background:#FFFFFF;" version="1.1" viewBox="0 0 300 323" width="300px" zoomAndPan="magnify"><defs/><g><!--class com.hack23.cia.model.internal.application.secure.impl.EncryptedValue--><g class="entity" data-entity="com.hack23.cia.model.internal.application.secure.impl.EncryptedValue" data-source-line="13" data-uid="ent0002" id="entity_com.hack23.cia.model.internal.application.secure.impl.EncryptedValue"><a href="EncryptedValue.html" target="_top" title="EncryptedValue.html" xlink:actuate="onRequest" xlink:href="EncryptedValue.html" xlink:show="new" xlink:title="EncryptedValue.html" xlink:type="simple"><rect fill="#F1F1F1" height="203.2312" rx="2.5" ry="2.5" style="stroke:#181818;stroke-width:0.5;" width="287.3398" x="6" y="91"/><ellipse cx="21" cy="112.344" fill="#ADD1B2" rx="11" ry="11" style="stroke:#181818;stroke-width:1;"/><path d="M23.9688,117.9846 Q23.3906,118.2815 22.75,118.4221 Q22.1094,118.5783 21.4063,118.5783 Q18.9063,118.5783 17.5781,116.9377 Q16.2656,115.2815 16.2656,112.1565 Q16.2656,109.0315 17.5781,107.3752 Q18.9063,105.719 21.4063,105.719 Q22.1094,105.719 22.75,105.8752 Q23.4063,106.0315 23.9688,106.3283 L23.9688,109.0471 Q23.3438,108.469 22.75,108.2033 Q22.1563,107.9221 21.5313,107.9221 Q20.1875,107.9221 19.5,109.0002 Q18.8125,110.0627 18.8125,112.1565 Q18.8125,114.2502 19.5,115.3283 Q20.1875,116.3908 21.5313,116.3908 Q22.1563,116.3908 22.75,116.1252 Q23.3438,115.844 23.9688,115.2658 L23.9688,117.9846 Z " fill="#000000"/><text fill="#000000" font-family="sans-serif" font-size="14" lengthAdjust="spacing" textLength="102.6616" x="111.3391" y="110.9659">EncryptedValue</text><text fill="#000000" font-family="sans-serif" font-size="10" lengthAdjust="spacing" textLength="255.3398" x="35" y="125.7579">com.hack23.cia.model.internal.application.secure.impl</text><line style="stroke:#181818;stroke-width:0.5;" x1="7" x2="292.3398" y1="133.6879" y2="133.6879"/><ellipse cx="17" cy="148.7219" fill="#84BE84" rx="3" ry="3" style="stroke:#038048;stroke-width:1;"/><text fill="#000000" font-family="sans-serif" font-size="14" lengthAdjust="spacing" textLength="83.7757" x="26" y="152.6538">getId(): Long</text><ellipse cx="17" cy="167.7898" fill="#84BE84" rx="3" ry="3" style="stroke:#038048;stroke-width:1;"/><text fill="#000000" font-family="sans-serif" font-size="14" lengthAdjust="spacing" textLength="109.6756" x="26" y="171.7218">setId(Long): void</text><ellipse cx="17" cy="186.8577" fill="#84BE84" rx="3" ry="3" style="stroke:#038048;stroke-width:1;"/><text fill="#000000" font-family="sans-serif" font-size="14" lengthAdjust="spacing" textLength="128.0995" x="26" y="190.7897">getStorage(): String</text><ellipse cx="17" cy="205.9256" fill="#84BE84" rx="3" ry="3" style="stroke:#038048;stroke-width:1;"/><text fill="#000000" font-family="sans-serif" font-size="14" lengthAdjust="spacing" textLength="153.9994" x="26" y="209.8576">setStorage(String): void</text><ellipse cx="17" cy="224.9935" fill="#84BE84" rx="3" ry="3" style="stroke:#038048;stroke-width:1;"/><text fill="#000000" font-family="sans-serif" font-size="14" lengthAdjust="spacing" textLength="120.7216" x="26" y="228.9255">getUserId(): String</text><ellipse cx="17" cy="244.0614" fill="#84BE84" rx="3" ry="3" style="stroke:#038048;stroke-width:1;"/><text fill="#000000" font-family="sans-serif" font-size="14" lengthAdjust="spacing" textLength="146.6215" x="26" y="247.9934">setUserId(String): void</text><ellipse cx="17" cy="263.1294" fill="#84BE84" rx="3" ry="3" style="stroke:#038048;stroke-width:1;"/><text fill="#000000" font-family="sans-serif" font-size="14" lengthAdjust="spacing" textLength="149.7994" x="26" y="267.0613">getVaultName(): String</text><ellipse cx="17" cy="282.1973" fill="#84BE84" rx="3" ry="3" style="stroke:#038048;stroke-width:1;"/><text fill="#000000" font-family="sans-serif" font-size="14" lengthAdjust="spacing" textLength="175.6993" x="26" y="286.1293">setVaultName(String): void</text></a></g><!--class com.hack23.cia.model.common.impl.AbstractModelObjectImpl--><g class="entity" data-entity="com.hack23.cia.model.common.impl.AbstractModelObjectImpl" data-source-line="24" data-uid="ent0003" id="entity_com.hack23.cia.model.common.impl.AbstractModelObjectImpl"><rect fill="#F1F1F1" height="42.6879" rx="2.5" ry="2.5" style="stroke:#181818;stroke-width:0.5;" width="194.9898" x="52" y="12"/><ellipse cx="67" cy="33.344" fill="#A9DCDF" rx="11" ry="11" style="stroke:#181818;stroke-width:1;"/><path d="M67.1094,28.6877 L65.9531,33.7658 L68.2813,33.7658 L67.1094,28.6877 Z M65.625,26.4533 L68.6094,26.4533 L71.9688,38.844 L69.5156,38.844 L68.75,35.7815 L65.4688,35.7815 L64.7188,38.844 L62.2813,38.844 L65.625,26.4533 Z " fill="#000000"/><text fill="#000000" font-family="sans-serif" font-size="14" font-style="italic" lengthAdjust="spacing" textLength="157.8354" x="83.5772" y="31.9659">AbstractModelObjectImpl</text><text fill="#000000" font-family="sans-serif" font-size="10" font-style="italic" lengthAdjust="spacing" textLength="162.9898" x="81" y="46.7579">com.hack23.cia.model.common.impl</text></g><g class="link" data-entity-1="com.hack23.cia.model.common.impl.AbstractModelObjectImpl" data-entity-2="com.hack23.cia.model.internal.application.secure.impl.EncryptedValue" data-uid="lnk4" id="link_com.hack23.cia.model.common.impl.AbstractModelObjectImpl_com.hack23.cia.model.internal.application.secure.impl.EncryptedValue"><polygon fill="none" points="149.5,55.025,143.5,73.025,155.5,73.025,149.5,55.025" style="stroke:#181818;stroke-width:1;"/><path d="M149.5,73.025 C149.5,82.833 149.5,77.3691 149.5,90.8549" fill="none" style="stroke:#181818;stroke-width:1;"/></g><g class="footer" data-source-line="34"><text fill="#888888" font-family="sans-serif" font-size="10" lengthAdjust="spacing" textLength="2.6" x="144.7" y="298.69">&#160;</text><a href="https://github.com/talsma-ict/umldoclet" target="_top" title="https://github.com/talsma-ict/umldoclet" xlink:actuate="onRequest" xlink:href="https://github.com/talsma-ict/umldoclet" xlink:show="new" xlink:title="https://github.com/talsma-ict/umldoclet" xlink:type="simple"><text fill="#888888" font-family="sans-serif" font-size="10" lengthAdjust="spacing" textLength="76.7199" x="107.64" y="312.31">UMLDoclet 2.2.4</text></a></g><!--SRC=[hLJRJjj047tdAwRqeI38nZRXaWWXHIbggK9RDO6Na8VDUh2tMU-QtJLLslBl7Ly82PTMGlMBvJbxPiwU6Gy0m3iOc7nXPP9wy0PyAXrSd0-1wnWIr6YvnnXanXDqC4DbTEBgWmYyyAcnOAwhBs6iHPSR7KkTm2T-oy6PmWfqR6C3gbBZ- -m_k5l9FbkKmVT6AFImDTXUaHG5uK4h2g8367FbCWvdWp5hiZrm8XQn3b1k9GLgHoaB7QEjPFLpBkWrh95Tk4NhfD742PeyvLM5qPvBxI3drhloIbyLrxxK6ZAgly_20BRwe-6wkA1RYTk5ljMyYE6RkIcMztsJMvwGPCKNfl3WClHSynfpf5hpZFpY0aT8LRadAxNHME6fZ14mo_q2hYMgs3sEKhBKKBYA2yMTWyrZ9tzYB-oSd6fX5pbPUybLWLUw0O8JOJAMSZ6FzfYGd6KcHiMazaZo5UDvJWPoJ_OmXwAmo6IMgqsWRhsAoTQ5m6Io7c2fpzHq2h-gMvJFJeB-BDxQxi6G9kqXxAfm6IFeriXuZJ4YxsX0Izh8M_c8U8_Mq7Fy2uUshleClG5VPb_oGldFrCmN4ZpWJtFSrGtaC-Sj5_v99_iDS5xw_MNs7OK_8sF_rL8APjIAltTlvH1xeKupNgzam_7lLkk_J4wjuzZvXSAJfRdNnb2MbUafdu-B7ErGwld0AFgZtXuzZrwK2q99ZRIJn5mZkHuiJzxLvTehzPfQLteoIRtFNQ_TJgHFYrbfHDjNowabXMyNcOhhhVHeFqsdpRxvi5nyvUve1PrM68x3Jc-lqmlss64O7HvrzxlTdI3g1S7ajB0cnpODiPYdHcNJFm00]--></g></svg>