<?xml version="1.0" encoding="UTF-8" standalone="no"?><svg xmlns="http://www.w3.org/2000/svg" xmlns:xlink="http://www.w3.org/1999/xlink" contentStyleType="text/css" height="209px" preserveAspectRatio="none" style="width:417px;height:209px;background:#FFFFFF;" version="1.1" viewBox="0 0 417 209" width="417px" zoomAndPan="magnify"><defs/><g><!--MD5=[c17c5d1a17cf824b64b4c08c74178971]
class com.hack23.cia.web.impl.ui.application.views.common.pagelinks.impl.ExternalAttachmentDownloadLink--><a href="ExternalAttachmentDownloadLink.html" target="_top" title="ExternalAttachmentDownloadLink.html" xlink:actuate="onRequest" xlink:href="ExternalAttachmentDownloadLink.html" xlink:show="new" xlink:title="ExternalAttachmentDownloadLink.html" xlink:type="simple"><g id="elem_com.hack23.cia.web.impl.ui.application.views.common.pagelinks.impl.ExternalAttachmentDownloadLink"><rect codeLine="5" fill="#F1F1F1" height="78.5313" id="com.hack23.cia.web.impl.ui.application.views.common.pagelinks.impl.ExternalAttachmentDownloadLink" rx="2.5" ry="2.5" style="stroke:#181818;stroke-width:0.5;" width="403" x="7" y="105"/><ellipse cx="40" cy="123.9688" fill="#ADD1B2" rx="11" ry="11" style="stroke:#181818;stroke-width:1.0;"/><path d="M42.9688,129.6094 Q42.3906,129.9063 41.75,130.0469 Q41.1094,130.2031 40.4063,130.2031 Q37.9063,130.2031 36.5781,128.5625 Q35.2656,126.9063 35.2656,123.7813 Q35.2656,120.6563 36.5781,119 Q37.9063,117.3438 40.4063,117.3438 Q41.1094,117.3438 41.75,117.5 Q42.4063,117.6563 42.9688,117.9531 L42.9688,120.6719 Q42.3438,120.0938 41.75,119.8281 Q41.1563,119.5469 40.5313,119.5469 Q39.1875,119.5469 38.5,120.625 Q37.8125,121.6875 37.8125,123.7813 Q37.8125,125.875 38.5,126.9531 Q39.1875,128.0156 40.5313,128.0156 Q41.1563,128.0156 41.75,127.75 Q42.3438,127.4688 42.9688,126.8906 L42.9688,129.6094 Z " fill="#000000"/><text fill="#000000" font-family="sans-serif" font-size="14" lengthAdjust="spacing" textLength="231" x="108" y="122.9951">ExternalAttachmentDownloadLink</text><text fill="#000000" font-family="sans-serif" font-size="10" lengthAdjust="spacing" textLength="331" x="58" y="135.5791">com.hack23.cia.web.impl.ui.application.views.common.pagelinks.impl</text><line style="stroke:#181818;stroke-width:0.5;" x1="8" x2="409" y1="142.9375" y2="142.9375"/><ellipse cx="18" cy="153.9375" fill="#84BE84" rx="3" ry="3" style="stroke:#038048;stroke-width:1.0;"/><text fill="#000000" font-family="sans-serif" font-size="14" lengthAdjust="spacing" textLength="377" x="27" y="159.9326">ExternalAttachmentDownloadLink(String, String, String)</text><ellipse cx="18" cy="170.2344" fill="#84BE84" rx="3" ry="3" style="stroke:#038048;stroke-width:1.0;"/><text fill="#000000" font-family="sans-serif" font-size="14" lengthAdjust="spacing" textLength="90" x="27" y="176.2295">attach(): void</text></g></a><!--MD5=[648101d2aa1db97ee0036bcc2f83627f]
class com.vaadin.ui.Link--><g id="elem_com.vaadin.ui.Link"><rect codeLine="10" fill="#F1F1F1" height="37.9375" id="com.vaadin.ui.Link" rx="2.5" ry="2.5" style="stroke:#181818;stroke-width:0.5;" width="99" x="159" y="7"/><ellipse cx="174" cy="25.9688" fill="#ADD1B2" rx="11" ry="11" style="stroke:#181818;stroke-width:1.0;"/><path d="M176.9688,31.6094 Q176.3906,31.9063 175.75,32.0469 Q175.1094,32.2031 174.4063,32.2031 Q171.9063,32.2031 170.5781,30.5625 Q169.2656,28.9063 169.2656,25.7813 Q169.2656,22.6563 170.5781,21 Q171.9063,19.3438 174.4063,19.3438 Q175.1094,19.3438 175.75,19.5 Q176.4063,19.6563 176.9688,19.9531 L176.9688,22.6719 Q176.3438,22.0938 175.75,21.8281 Q175.1563,21.5469 174.5313,21.5469 Q173.1875,21.5469 172.5,22.625 Q171.8125,23.6875 171.8125,25.7813 Q171.8125,27.875 172.5,28.9531 Q173.1875,30.0156 174.5313,30.0156 Q175.1563,30.0156 175.75,29.75 Q176.3438,29.4688 176.9688,28.8906 L176.9688,31.6094 Z " fill="#000000"/><text fill="#000000" font-family="sans-serif" font-size="14" lengthAdjust="spacing" textLength="27" x="208" y="24.9951">Link</text><text fill="#000000" font-family="sans-serif" font-size="10" lengthAdjust="spacing" textLength="67" x="188" y="37.5791">com.vaadin.ui</text></g><!--MD5=[13fb8eb35ef7f3a85abee28b5d6c2f47]
reverse link com.vaadin.ui.Link to com.hack23.cia.web.impl.ui.application.views.common.pagelinks.impl.ExternalAttachmentDownloadLink--><g id="link_com.vaadin.ui.Link_com.hack23.cia.web.impl.ui.application.views.common.pagelinks.impl.ExternalAttachmentDownloadLink"><path codeLine="12" d="M208.5,65.24 C208.5,77.9 208.5,92 208.5,104.71 " fill="none" id="com.vaadin.ui.Link-backto-com.hack23.cia.web.impl.ui.application.views.common.pagelinks.impl.ExternalAttachmentDownloadLink" style="stroke:#181818;stroke-width:1.0;"/><polygon fill="none" points="201.5,65.2,208.5,45.2,215.5,65.2,201.5,65.2" style="stroke:#181818;stroke-width:1.0;"/></g><rect height="11.6406" style="stroke:#00000000;stroke-width:1.0;fill:none;" width="186" x="108.5" y="189.5313"/><text fill="#888888" font-family="sans-serif" font-size="10" lengthAdjust="spacing" textLength="186" x="108.5" y="198.8135">UMLDoclet 2.0.18, PlantUML 1.2022.6</text><!--MD5=[842b2c1383c7b4c600a6815e58fd15cd]
@startuml
    set namespaceSeparator none
    hide empty fields
    hide empty methods

    class "<size:14>ExternalAttachmentDownloadLink\n<size:10>com.hack23.cia.web.impl.ui.application.views.common.pagelinks.impl" as com.hack23.cia.web.impl.ui.application.views.common.pagelinks.impl.ExternalAttachmentDownloadLink [[ExternalAttachmentDownloadLink.html]] {
        +ExternalAttachmentDownloadLink(String, String, String)
        +attach(): void
    }

    class "<size:14>Link\n<size:10>com.vaadin.ui" as com.vaadin.ui.Link

    com.vaadin.ui.Link <|- - com.hack23.cia.web.impl.ui.application.views.common.pagelinks.impl.ExternalAttachmentDownloadLink

    center footer UMLDoclet 2.0.18, PlantUML 1.2022.6
@enduml

PlantUML version 1.2022.6(Tue Jun 21 19:34:49 CEST 2022)
(APACHE source distribution)
Java Runtime: OpenJDK Runtime Environment
JVM: OpenJDK 64-Bit Server VM
Default Encoding: ANSI_X3.4-1968
Language: en
Country: US
--></g></svg>