<?xml version="1.0" encoding="UTF-8" standalone="no"?><svg xmlns="http://www.w3.org/2000/svg" xmlns:xlink="http://www.w3.org/1999/xlink" contentScriptType="application/ecmascript" contentStyleType="text/css" height="486px" preserveAspectRatio="none" style="width:1444px;height:486px;" version="1.1" viewBox="0 0 1444 486" width="1444px" zoomAndPan="magnify"><defs><filter height="300%" id="f1iviowcv4wn7n" width="300%" x="-1" y="-1"><feGaussianBlur result="blurOut" stdDeviation="2.0"/><feColorMatrix in="blurOut" result="blurOut2" type="matrix" values="0 0 0 0 0 0 0 0 0 0 0 0 0 0 0 0 0 0 .4 0"/><feOffset dx="4.0" dy="4.0" in="blurOut2" result="blurOut3"/><feBlend in="SourceGraphic" in2="blurOut3" mode="normal"/></filter></defs><g><!--MD5=[a220d91611999bcd26057b458b1da1cc]
cluster com.hack23.cia.web.impl.ui.application.views.common.pagelinks.impl--><polygon fill="#FFFFFF" filter="url(#f1iviowcv4wn7n)" points="231,244,784,244,791,266.2969,1266,266.2969,1266,458,231,458,231,244" style="stroke: #000000; stroke-width: 1.5;"/><line style="stroke: #000000; stroke-width: 1.5;" x1="231" x2="791" y1="266.2969" y2="266.2969"/><text fill="#000000" font-family="sans-serif" font-size="14" font-weight="bold" lengthAdjust="spacingAndGlyphs" textLength="547" x="235" y="258.9951">com.hack23.cia.web.impl.ui.application.views.common.pagelinks.impl</text><!--MD5=[26bdb43b0a9cf407e00f3be9323df720]
cluster com.vaadin.server.StreamResource--><polygon fill="#FFFFFF" filter="url(#f1iviowcv4wn7n)" points="198,57,486,57,493,79.2969,496,79.2969,496,169,198,169,198,57" style="stroke: #000000; stroke-width: 1.5;"/><line style="stroke: #000000; stroke-width: 1.5;" x1="198" x2="493" y1="79.2969" y2="79.2969"/><text fill="#000000" font-family="sans-serif" font-size="14" font-weight="bold" lengthAdjust="spacingAndGlyphs" textLength="282" x="202" y="71.9951">com.vaadin.server.StreamResource</text><!--MD5=[99b8bc54f75e0f490d62721683ad7b11]
cluster com.vaadin.ui--><polygon fill="#FFFFFF" filter="url(#f1iviowcv4wn7n)" points="548,44.5,662,44.5,669,66.7969,832,66.7969,832,181.5,548,181.5,548,44.5" style="stroke: #000000; stroke-width: 1.5;"/><line style="stroke: #000000; stroke-width: 1.5;" x1="548" x2="669" y1="66.7969" y2="66.7969"/><text fill="#000000" font-family="sans-serif" font-size="14" font-weight="bold" lengthAdjust="spacingAndGlyphs" textLength="108" x="552" y="59.4951">com.vaadin.ui</text><!--MD5=[cbb0111ccb0741895fa998c1a69c3373]
cluster com.hack23.cia.web.impl.ui.application.views.common.pagelinks.api--><polygon fill="#FFFFFF" filter="url(#f1iviowcv4wn7n)" points="868,6,1412,6,1419,28.2969,1422,28.2969,1422,220,868,220,868,6" style="stroke: #000000; stroke-width: 1.5;"/><line style="stroke: #000000; stroke-width: 1.5;" x1="868" x2="1419" y1="28.2969" y2="28.2969"/><text fill="#000000" font-family="sans-serif" font-size="14" font-weight="bold" lengthAdjust="spacingAndGlyphs" textLength="538" x="872" y="20.9951">com.hack23.cia.web.impl.ui.application.views.common.pagelinks.api</text><!--MD5=[1fe20ab847420d7017c2eacb9727edeb]
class com.hack23.cia.web.impl.ui.application.views.common.pagelinks.impl.StreamSourceImplementation--><a href="StreamSourceImplementation.html" target="_top" title="StreamSourceImplementation.html" xlink:actuate="onRequest" xlink:href="StreamSourceImplementation.html" xlink:show="new" xlink:title="StreamSourceImplementation.html" xlink:type="simple"><rect codeLine="3" fill="#FEFECE" filter="url(#f1iviowcv4wn7n)" height="73.6094" id="com.hack23.cia.web.impl.ui.application.views.common.pagelinks.impl.StreamSourceImplementation" style="stroke: #A80036; stroke-width: 1.5;" width="238" x="247" y="323.5"/><ellipse cx="271" cy="339.5" fill="#ADD1B2" rx="11" ry="11" style="stroke: #A80036; stroke-width: 1.0;"/><path d="M273.9688,345.1406 Q273.3906,345.4375 272.75,345.5781 Q272.1094,345.7344 271.4063,345.7344 Q268.9063,345.7344 267.5781,344.0938 Q266.2656,342.4375 266.2656,339.3125 Q266.2656,336.1875 267.5781,334.5313 Q268.9063,332.875 271.4063,332.875 Q272.1094,332.875 272.75,333.0313 Q273.4063,333.1875 273.9688,333.4844 L273.9688,336.2031 Q273.3438,335.625 272.75,335.3594 Q272.1563,335.0781 271.5313,335.0781 Q270.1875,335.0781 269.5,336.1563 Q268.8125,337.2188 268.8125,339.3125 Q268.8125,341.4063 269.5,342.4844 Q270.1875,343.5469 271.5313,343.5469 Q272.1563,343.5469 272.75,343.2813 Q273.3438,343 273.9688,342.4219 L273.9688,345.1406 Z "/><text fill="#000000" font-family="sans-serif" font-size="12" lengthAdjust="spacingAndGlyphs" textLength="186" x="287" y="343.6543">StreamSourceImplementation</text><line style="stroke: #A80036; stroke-width: 1.5;" x1="248" x2="484" y1="355.5" y2="355.5"/><line style="stroke: #A80036; stroke-width: 1.5;" x1="248" x2="484" y1="363.5" y2="363.5"/><ellipse cx="258" cy="374.5" fill="#84BE84" rx="3" ry="3" style="stroke: #038048; stroke-width: 1.0;"/><text fill="#000000" font-family="sans-serif" font-size="11" lengthAdjust="spacingAndGlyphs" textLength="212" x="267" y="377.7104">StreamSourceImplementation(String)</text><ellipse cx="258" cy="387.3047" fill="#84BE84" rx="3" ry="3" style="stroke: #038048; stroke-width: 1.0;"/><text fill="#000000" font-family="sans-serif" font-size="11" lengthAdjust="spacingAndGlyphs" textLength="146" x="267" y="390.5151">getStream(): InputStream</text></a><!--MD5=[c17c5d1a17cf824b64b4c08c74178971]
class com.hack23.cia.web.impl.ui.application.views.common.pagelinks.impl.ExternalAttachmentDownloadLink--><a href="ExternalAttachmentDownloadLink.html" target="_top" title="ExternalAttachmentDownloadLink.html" xlink:actuate="onRequest" xlink:href="ExternalAttachmentDownloadLink.html" xlink:show="new" xlink:title="ExternalAttachmentDownloadLink.html" xlink:type="simple"><rect codeLine="8" fill="#FEFECE" filter="url(#f1iviowcv4wn7n)" height="73.6094" id="com.hack23.cia.web.impl.ui.application.views.common.pagelinks.impl.ExternalAttachmentDownloadLink" style="stroke: #A80036; stroke-width: 1.5;" width="339" x="520.5" y="323.5"/><ellipse cx="581.25" cy="339.5" fill="#ADD1B2" rx="11" ry="11" style="stroke: #A80036; stroke-width: 1.0;"/><path d="M584.2188,345.1406 Q583.6406,345.4375 583,345.5781 Q582.3594,345.7344 581.6563,345.7344 Q579.1563,345.7344 577.8281,344.0938 Q576.5156,342.4375 576.5156,339.3125 Q576.5156,336.1875 577.8281,334.5313 Q579.1563,332.875 581.6563,332.875 Q582.3594,332.875 583,333.0313 Q583.6563,333.1875 584.2188,333.4844 L584.2188,336.2031 Q583.5938,335.625 583,335.3594 Q582.4063,335.0781 581.7813,335.0781 Q580.4375,335.0781 579.75,336.1563 Q579.0625,337.2188 579.0625,339.3125 Q579.0625,341.4063 579.75,342.4844 Q580.4375,343.5469 581.7813,343.5469 Q582.4063,343.5469 583,343.2813 Q583.5938,343 584.2188,342.4219 L584.2188,345.1406 Z "/><text fill="#000000" font-family="sans-serif" font-size="12" lengthAdjust="spacingAndGlyphs" textLength="209" x="601.75" y="343.6543">ExternalAttachmentDownloadLink</text><line style="stroke: #A80036; stroke-width: 1.5;" x1="521.5" x2="858.5" y1="355.5" y2="355.5"/><line style="stroke: #A80036; stroke-width: 1.5;" x1="521.5" x2="858.5" y1="363.5" y2="363.5"/><ellipse cx="531.5" cy="374.5" fill="#84BE84" rx="3" ry="3" style="stroke: #038048; stroke-width: 1.0;"/><text fill="#000000" font-family="sans-serif" font-size="11" lengthAdjust="spacingAndGlyphs" textLength="313" x="540.5" y="377.7104">ExternalAttachmentDownloadLink(String, String, String)</text><ellipse cx="531.5" cy="387.3047" fill="#84BE84" rx="3" ry="3" style="stroke: #038048; stroke-width: 1.0;"/><text fill="#000000" font-family="sans-serif" font-size="11" lengthAdjust="spacingAndGlyphs" textLength="74" x="540.5" y="390.5151">attach(): void</text></a><!--MD5=[c28845fd61d180fe1fda3957e9362522]
class com.hack23.cia.web.impl.ui.application.views.common.pagelinks.impl.PageLinkFactoryImpl--><a href="PageLinkFactoryImpl.html" target="_top" title="PageLinkFactoryImpl.html" xlink:actuate="onRequest" xlink:href="PageLinkFactoryImpl.html" xlink:show="new" xlink:title="PageLinkFactoryImpl.html" xlink:type="simple"><rect codeLine="13" fill="#FEFECE" filter="url(#f1iviowcv4wn7n)" height="163.2422" id="com.hack23.cia.web.impl.ui.application.views.common.pagelinks.impl.PageLinkFactoryImpl" style="stroke: #A80036; stroke-width: 1.5;" width="355" x="894.5" y="279"/><ellipse cx="1004.25" cy="295" fill="#ADD1B2" rx="11" ry="11" style="stroke: #A80036; stroke-width: 1.0;"/><path d="M1007.2188,300.6406 Q1006.6406,300.9375 1006,301.0781 Q1005.3594,301.2344 1004.6563,301.2344 Q1002.1563,301.2344 1000.8281,299.5938 Q999.5156,297.9375 999.5156,294.8125 Q999.5156,291.6875 1000.8281,290.0313 Q1002.1563,288.375 1004.6563,288.375 Q1005.3594,288.375 1006,288.5313 Q1006.6563,288.6875 1007.2188,288.9844 L1007.2188,291.7031 Q1006.5938,291.125 1006,290.8594 Q1005.4063,290.5781 1004.7813,290.5781 Q1003.4375,290.5781 1002.75,291.6563 Q1002.0625,292.7188 1002.0625,294.8125 Q1002.0625,296.9063 1002.75,297.9844 Q1003.4375,299.0469 1004.7813,299.0469 Q1005.4063,299.0469 1006,298.7813 Q1006.5938,298.5 1007.2188,297.9219 L1007.2188,300.6406 Z "/><text fill="#000000" font-family="sans-serif" font-size="12" lengthAdjust="spacingAndGlyphs" textLength="127" x="1024.75" y="299.1543">PageLinkFactoryImpl</text><line style="stroke: #A80036; stroke-width: 1.5;" x1="895.5" x2="1248.5" y1="311" y2="311"/><line style="stroke: #A80036; stroke-width: 1.5;" x1="895.5" x2="1248.5" y1="319" y2="319"/><ellipse cx="905.5" cy="330" fill="#84BE84" rx="3" ry="3" style="stroke: #038048; stroke-width: 1.0;"/><text fill="#000000" font-family="sans-serif" font-size="11" lengthAdjust="spacingAndGlyphs" textLength="317" x="914.5" y="333.2104">addCommitteePageLink(ViewRiksdagenCommittee): Link</text><ellipse cx="905.5" cy="342.8047" fill="#84BE84" rx="3" ry="3" style="stroke: #038048; stroke-width: 1.0;"/><text fill="#000000" font-family="sans-serif" font-size="11" lengthAdjust="spacingAndGlyphs" textLength="281" x="914.5" y="346.0151">addMinistryPageLink(ViewRiksdagenMinistry): Link</text><ellipse cx="905.5" cy="355.6094" fill="#84BE84" rx="3" ry="3" style="stroke: #038048; stroke-width: 1.0;"/><text fill="#000000" font-family="sans-serif" font-size="11" lengthAdjust="spacingAndGlyphs" textLength="251" x="914.5" y="358.8198">addPartyPageLink(ViewRiksdagenParty): Link</text><ellipse cx="905.5" cy="368.4141" fill="#84BE84" rx="3" ry="3" style="stroke: #038048; stroke-width: 1.0;"/><text fill="#000000" font-family="sans-serif" font-size="11" lengthAdjust="spacingAndGlyphs" textLength="329" x="914.5" y="371.6245">createAdminPagingLink(String, String, String, String): Link</text><ellipse cx="905.5" cy="381.2188" fill="#84BE84" rx="3" ry="3" style="stroke: #038048; stroke-width: 1.0;"/><text fill="#000000" font-family="sans-serif" font-size="11" lengthAdjust="spacingAndGlyphs" textLength="154" x="914.5" y="384.4292">createLoginPageLink(): Link</text><ellipse cx="905.5" cy="394.0234" fill="#84BE84" rx="3" ry="3" style="stroke: #038048; stroke-width: 1.0;"/><text fill="#000000" font-family="sans-serif" font-size="11" lengthAdjust="spacingAndGlyphs" textLength="176" x="914.5" y="397.2339">createMainViewPageLink(): Link</text><ellipse cx="905.5" cy="406.8281" fill="#84BE84" rx="3" ry="3" style="stroke: #038048; stroke-width: 1.0;"/><text fill="#000000" font-family="sans-serif" font-size="11" lengthAdjust="spacingAndGlyphs" textLength="240" x="914.5" y="410.0386">createPoliticianPageLink(PersonData): Link</text><ellipse cx="905.5" cy="419.6328" fill="#84BE84" rx="3" ry="3" style="stroke: #038048; stroke-width: 1.0;"/><text fill="#000000" font-family="sans-serif" font-size="11" lengthAdjust="spacingAndGlyphs" textLength="171" x="914.5" y="422.8433">createRegisterPageLink(): Link</text><ellipse cx="905.5" cy="432.4375" fill="#84BE84" rx="3" ry="3" style="stroke: #038048; stroke-width: 1.0;"/><text fill="#000000" font-family="sans-serif" font-size="11" lengthAdjust="spacingAndGlyphs" textLength="210" x="914.5" y="435.6479">createUserHomeViewPageLink(): Link</text></a><!--MD5=[9c9d682053acda7b719666faffd3a7fa]
class com.vaadin.server.StreamResource.StreamSource--><rect codeLine="31" fill="#FEFECE" filter="url(#f1iviowcv4wn7n)" height="60.8047" id="com.vaadin.server.StreamResource.StreamSource" style="stroke: #A80036; stroke-width: 1.5;" width="170" x="281" y="92"/><ellipse cx="318.05" cy="108" fill="#B4A7E5" rx="11" ry="11" style="stroke: #A80036; stroke-width: 1.0;"/><path d="M313.9719,103.7656 L313.9719,101.6094 L321.3625,101.6094 L321.3625,103.7656 L318.8938,103.7656 L318.8938,111.8438 L321.3625,111.8438 L321.3625,114 L313.9719,114 L313.9719,111.8438 L316.4406,111.8438 L316.4406,103.7656 L313.9719,103.7656 Z "/><text fill="#000000" font-family="sans-serif" font-size="12" font-style="italic" lengthAdjust="spacingAndGlyphs" textLength="89" x="336.95" y="112.1543">StreamSource</text><line style="stroke: #A80036; stroke-width: 1.5;" x1="282" x2="450" y1="124" y2="124"/><line style="stroke: #A80036; stroke-width: 1.5;" x1="282" x2="450" y1="132" y2="132"/><ellipse cx="292" cy="143" fill="#84BE84" rx="3" ry="3" style="stroke: #038048; stroke-width: 1.0;"/><text fill="#000000" font-family="sans-serif" font-size="11" font-style="italic" lengthAdjust="spacingAndGlyphs" textLength="144" x="301" y="146.2104">getStream(): InputStream</text><!--MD5=[648101d2aa1db97ee0036bcc2f83627f]
class com.vaadin.ui.Link--><rect codeLine="37" fill="#FEFECE" filter="url(#f1iviowcv4wn7n)" height="86.4141" id="com.vaadin.ui.Link" style="stroke: #A80036; stroke-width: 1.5;" width="252" x="564" y="79.5"/><ellipse cx="673.75" cy="95.5" fill="#ADD1B2" rx="11" ry="11" style="stroke: #A80036; stroke-width: 1.0;"/><path d="M676.7188,101.1406 Q676.1406,101.4375 675.5,101.5781 Q674.8594,101.7344 674.1563,101.7344 Q671.6563,101.7344 670.3281,100.0938 Q669.0156,98.4375 669.0156,95.3125 Q669.0156,92.1875 670.3281,90.5313 Q671.6563,88.875 674.1563,88.875 Q674.8594,88.875 675.5,89.0313 Q676.1563,89.1875 676.7188,89.4844 L676.7188,92.2031 Q676.0938,91.625 675.5,91.3594 Q674.9063,91.0781 674.2813,91.0781 Q672.9375,91.0781 672.25,92.1563 Q671.5625,93.2188 671.5625,95.3125 Q671.5625,97.4063 672.25,98.4844 Q672.9375,99.5469 674.2813,99.5469 Q674.9063,99.5469 675.5,99.2813 Q676.0938,99 676.7188,98.4219 L676.7188,101.1406 Z "/><text fill="#000000" font-family="sans-serif" font-size="12" lengthAdjust="spacingAndGlyphs" textLength="24" x="694.25" y="99.6543">Link</text><line style="stroke: #A80036; stroke-width: 1.5;" x1="565" x2="815" y1="111.5" y2="111.5"/><ellipse cx="575" cy="122.5" fill="none" rx="3" ry="3" style="stroke: #038048; stroke-width: 1.0;"/><text fill="#000000" font-family="sans-serif" font-size="11" lengthAdjust="spacingAndGlyphs" text-decoration="underline" textLength="134" x="584" y="125.7104">TARGET_BORDER_NONE</text><text fill="#000000" font-family="sans-serif" font-size="11" lengthAdjust="spacingAndGlyphs" text-decoration="underline" textLength="75" x="718" y="125.7104">: BorderStyle</text><ellipse cx="575" cy="135.3047" fill="none" rx="3" ry="3" style="stroke: #038048; stroke-width: 1.0;"/><text fill="#000000" font-family="sans-serif" font-size="11" lengthAdjust="spacingAndGlyphs" text-decoration="underline" textLength="147" x="584" y="138.5151">TARGET_BORDER_MINIMAL</text><text fill="#000000" font-family="sans-serif" font-size="11" lengthAdjust="spacingAndGlyphs" text-decoration="underline" textLength="75" x="731" y="138.5151">: BorderStyle</text><ellipse cx="575" cy="148.1094" fill="none" rx="3" ry="3" style="stroke: #038048; stroke-width: 1.0;"/><text fill="#000000" font-family="sans-serif" font-size="11" lengthAdjust="spacingAndGlyphs" text-decoration="underline" textLength="151" x="584" y="151.3198">TARGET_BORDER_DEFAULT</text><text fill="#000000" font-family="sans-serif" font-size="11" lengthAdjust="spacingAndGlyphs" text-decoration="underline" textLength="75" x="735" y="151.3198">: BorderStyle</text><line style="stroke: #A80036; stroke-width: 1.5;" x1="565" x2="815" y1="157.9141" y2="157.9141"/><!--MD5=[914a8c46903c27a07689f22c386cc52d]
class com.hack23.cia.web.impl.ui.application.views.common.pagelinks.api.PageLinkFactory--><a href="../api/PageLinkFactory.html" target="_top" title="../api/PageLinkFactory.html" xlink:actuate="onRequest" xlink:href="../api/PageLinkFactory.html" xlink:show="new" xlink:title="../api/PageLinkFactory.html" xlink:type="simple"><rect codeLine="45" fill="#FEFECE" filter="url(#f1iviowcv4wn7n)" height="163.2422" id="com.hack23.cia.web.impl.ui.application.views.common.pagelinks.api.PageLinkFactory" style="stroke: #A80036; stroke-width: 1.5;" width="352" x="896" y="41"/><ellipse cx="1016.25" cy="57" fill="#B4A7E5" rx="11" ry="11" style="stroke: #A80036; stroke-width: 1.0;"/><path d="M1012.1719,52.7656 L1012.1719,50.6094 L1019.5625,50.6094 L1019.5625,52.7656 L1017.0938,52.7656 L1017.0938,60.8438 L1019.5625,60.8438 L1019.5625,63 L1012.1719,63 L1012.1719,60.8438 L1014.6406,60.8438 L1014.6406,52.7656 L1012.1719,52.7656 Z "/><text fill="#000000" font-family="sans-serif" font-size="12" font-style="italic" lengthAdjust="spacingAndGlyphs" textLength="103" x="1036.75" y="61.1543">PageLinkFactory</text><line style="stroke: #A80036; stroke-width: 1.5;" x1="897" x2="1247" y1="73" y2="73"/><line style="stroke: #A80036; stroke-width: 1.5;" x1="897" x2="1247" y1="81" y2="81"/><ellipse cx="907" cy="92" fill="#84BE84" rx="3" ry="3" style="stroke: #038048; stroke-width: 1.0;"/><text fill="#000000" font-family="sans-serif" font-size="11" font-style="italic" lengthAdjust="spacingAndGlyphs" textLength="318" x="916" y="95.2104">addCommitteePageLink(ViewRiksdagenCommittee): Link</text><ellipse cx="907" cy="104.8047" fill="#84BE84" rx="3" ry="3" style="stroke: #038048; stroke-width: 1.0;"/><text fill="#000000" font-family="sans-serif" font-size="11" font-style="italic" lengthAdjust="spacingAndGlyphs" textLength="282" x="916" y="108.0151">addMinistryPageLink(ViewRiksdagenMinistry): Link</text><ellipse cx="907" cy="117.6094" fill="#84BE84" rx="3" ry="3" style="stroke: #038048; stroke-width: 1.0;"/><text fill="#000000" font-family="sans-serif" font-size="11" font-style="italic" lengthAdjust="spacingAndGlyphs" textLength="254" x="916" y="120.8198">addPartyPageLink(ViewRiksdagenParty): Link</text><ellipse cx="907" cy="130.4141" fill="#84BE84" rx="3" ry="3" style="stroke: #038048; stroke-width: 1.0;"/><text fill="#000000" font-family="sans-serif" font-size="11" font-style="italic" lengthAdjust="spacingAndGlyphs" textLength="326" x="916" y="133.6245">createAdminPagingLink(String, String, String, String): Link</text><ellipse cx="907" cy="143.2188" fill="#84BE84" rx="3" ry="3" style="stroke: #038048; stroke-width: 1.0;"/><text fill="#000000" font-family="sans-serif" font-size="11" font-style="italic" lengthAdjust="spacingAndGlyphs" textLength="154" x="916" y="146.4292">createLoginPageLink(): Link</text><ellipse cx="907" cy="156.0234" fill="#84BE84" rx="3" ry="3" style="stroke: #038048; stroke-width: 1.0;"/><text fill="#000000" font-family="sans-serif" font-size="11" font-style="italic" lengthAdjust="spacingAndGlyphs" textLength="177" x="916" y="159.2339">createMainViewPageLink(): Link</text><ellipse cx="907" cy="168.8281" fill="#84BE84" rx="3" ry="3" style="stroke: #038048; stroke-width: 1.0;"/><text fill="#000000" font-family="sans-serif" font-size="11" font-style="italic" lengthAdjust="spacingAndGlyphs" textLength="239" x="916" y="172.0386">createPoliticianPageLink(PersonData): Link</text><ellipse cx="907" cy="181.6328" fill="#84BE84" rx="3" ry="3" style="stroke: #038048; stroke-width: 1.0;"/><text fill="#000000" font-family="sans-serif" font-size="11" font-style="italic" lengthAdjust="spacingAndGlyphs" textLength="171" x="916" y="184.8433">createRegisterPageLink(): Link</text><ellipse cx="907" cy="194.4375" fill="#84BE84" rx="3" ry="3" style="stroke: #038048; stroke-width: 1.0;"/><text fill="#000000" font-family="sans-serif" font-size="11" font-style="italic" lengthAdjust="spacingAndGlyphs" textLength="210" x="916" y="197.6479">createUserHomeViewPageLink(): Link</text></a><polygon fill="#FFFFFF" filter="url(#f1iviowcv4wn7n)" points="16,96,168,96,175,118.2969,182,118.2969,182,148.5938,16,148.5938,16,96" style="stroke: #000000; stroke-width: 1.5;"/><line style="stroke: #000000; stroke-width: 1.5;" x1="16" x2="175" y1="118.2969" y2="118.2969"/><text fill="#000000" font-family="sans-serif" font-size="14" font-weight="bold" lengthAdjust="spacingAndGlyphs" textLength="146" x="20" y="110.9951">com.vaadin.server</text><!--MD5=[602b8c6661711227f117fbdf44d990a7]
reverse link com.vaadin.server.StreamResource.StreamSource to com.hack23.cia.web.impl.ui.application.views.common.pagelinks.impl.StreamSourceImplementation--><path codeLine="25" d="M366,173.64 C366,218.53 366,283.27 366,323.29 " fill="none" id="com.vaadin.server.StreamResource.StreamSource-backto-com.hack23.cia.web.impl.ui.application.views.common.pagelinks.impl.StreamSourceImplementation" style="stroke: #A80036; stroke-width: 1.0; stroke-dasharray: 7.0,7.0;"/><polygon fill="none" points="359,173.39,366,153.39,373,173.39,359,173.39" style="stroke: #A80036; stroke-width: 1.0;"/><!--MD5=[13fb8eb35ef7f3a85abee28b5d6c2f47]
reverse link com.vaadin.ui.Link to com.hack23.cia.web.impl.ui.application.views.common.pagelinks.impl.ExternalAttachmentDownloadLink--><path codeLine="26" d="M690,185.72 C690,229.62 690,286.91 690,323.47 " fill="none" id="com.vaadin.ui.Link-backto-com.hack23.cia.web.impl.ui.application.views.common.pagelinks.impl.ExternalAttachmentDownloadLink" style="stroke: #A80036; stroke-width: 1.0;"/><polygon fill="none" points="683,185.69,690,165.69,697,185.69,683,185.69" style="stroke: #A80036; stroke-width: 1.0;"/><!--MD5=[599b92afe270e0c554b8b846853b6acb]
reverse link com.hack23.cia.web.impl.ui.application.views.common.pagelinks.api.PageLinkFactory to com.hack23.cia.web.impl.ui.application.views.common.pagelinks.impl.PageLinkFactoryImpl--><path codeLine="27" d="M1072,224.31 C1072,242.55 1072,261.34 1072,278.9 " fill="none" id="com.hack23.cia.web.impl.ui.application.views.common.pagelinks.api.PageLinkFactory-backto-com.hack23.cia.web.impl.ui.application.views.common.pagelinks.impl.PageLinkFactoryImpl" style="stroke: #A80036; stroke-width: 1.0; stroke-dasharray: 7.0,7.0;"/><polygon fill="none" points="1065,224.06,1072,204.06,1079,224.06,1065,224.06" style="stroke: #A80036; stroke-width: 1.0;"/><text fill="#888888" font-family="sans-serif" font-size="10" lengthAdjust="spacingAndGlyphs" textLength="192" x="617" y="473.2822">UMLDoclet 2.0.12, PlantUML 1.2020.16</text><!--MD5=[9d7f048bf4938c10f3458219a9aaeaf4]
@startuml
    namespace com.hack23.cia.web.impl.ui.application.views.common.pagelinks.impl {

        class StreamSourceImplementation [[StreamSourceImplementation.html]] {
            +StreamSourceImplementation(String)
            +getStream(): InputStream
        }

        class ExternalAttachmentDownloadLink [[ExternalAttachmentDownloadLink.html]] {
            +ExternalAttachmentDownloadLink(String, String, String)
            +attach(): void
        }

        class PageLinkFactoryImpl [[PageLinkFactoryImpl.html]] {
            +addCommitteePageLink(ViewRiksdagenCommittee): Link
            +addMinistryPageLink(ViewRiksdagenMinistry): Link
            +addPartyPageLink(ViewRiksdagenParty): Link
            +createAdminPagingLink(String, String, String, String): Link
            +createLoginPageLink(): Link
            +createMainViewPageLink(): Link
            +createPoliticianPageLink(PersonData): Link
            +createRegisterPageLink(): Link
            +createUserHomeViewPageLink(): Link
        }

        com.vaadin.server.StreamResource.StreamSource <|.. StreamSourceImplementation
        com.vaadin.ui.Link <|- - ExternalAttachmentDownloadLink
        com.hack23.cia.web.impl.ui.application.views.common.pagelinks.api.PageLinkFactory <|.. PageLinkFactoryImpl
    }

    namespace com.vaadin.server {
        interface com.vaadin.server.StreamResource.StreamSource {
            {abstract} +getStream(): InputStream
        }
    }

    namespace com.vaadin.ui {
        class Link {
            {static} +- -TARGET_BORDER_NONE- -: BorderStyle
            {static} +- -TARGET_BORDER_MINIMAL- -: BorderStyle
            {static} +- -TARGET_BORDER_DEFAULT- -: BorderStyle
        }
    }

    namespace com.hack23.cia.web.impl.ui.application.views.common.pagelinks.api {
        interface PageLinkFactory [[../api/PageLinkFactory.html]] {
            {abstract} +addCommitteePageLink(ViewRiksdagenCommittee): Link
            {abstract} +addMinistryPageLink(ViewRiksdagenMinistry): Link
            {abstract} +addPartyPageLink(ViewRiksdagenParty): Link
            {abstract} +createAdminPagingLink(String, String, String, String): Link
            {abstract} +createLoginPageLink(): Link
            {abstract} +createMainViewPageLink(): Link
            {abstract} +createPoliticianPageLink(PersonData): Link
            {abstract} +createRegisterPageLink(): Link
            {abstract} +createUserHomeViewPageLink(): Link
        }
    }

    center footer UMLDoclet 2.0.12, PlantUML 1.2020.16
@enduml

PlantUML version 1.2020.16(Sun Aug 23 22:20:43 CEST 2020)
(APACHE source distribution)
Java Runtime: OpenJDK Runtime Environment
JVM: OpenJDK 64-Bit Server VM
Default Encoding: UTF-8
Language: en
Country: US
--></g></svg>