<svg xmlns="http://www.w3.org/2000/svg" xmlns:xlink="http://www.w3.org/1999/xlink" contentStyleType="text/css" height="293px" preserveAspectRatio="none" style="width:765px;height:293px;background:#FFFFFF;" version="1.1" viewBox="0 0 765 293" width="765px" zoomAndPan="magnify"><defs/><g><!--class com.hack23.cia.web.impl.ui.application.views.common.menufactory.impl.GovernmentBodyRankingMenuItemFactoryImpl--><a href="GovernmentBodyRankingMenuItemFactoryImpl.html" target="_top" title="GovernmentBodyRankingMenuItemFactoryImpl.html" xlink:actuate="onRequest" xlink:href="GovernmentBodyRankingMenuItemFactoryImpl.html" xlink:show="new" xlink:title="GovernmentBodyRankingMenuItemFactoryImpl.html" xlink:type="simple"><g id="elem_com.hack23.cia.web.impl.ui.application.views.common.menufactory.impl.GovernmentBodyRankingMenuItemFactoryImpl"><rect codeLine="13" fill="#F1F1F1" height="107.8917" id="com.hack23.cia.web.impl.ui.application.views.common.menufactory.impl.GovernmentBodyRankingMenuItemFactoryImpl" rx="2.5" ry="2.5" style="stroke:#181818;stroke-width:0.5;" width="401.7445" x="175" y="156"/><ellipse cx="202.1207" cy="177.344" fill="#ADD1B2" rx="11" ry="11" style="stroke:#181818;stroke-width:1.0;"/><path d="M205.0894,182.9846 Q204.5113,183.2815 203.8707,183.4221 Q203.23,183.5783 202.5269,183.5783 Q200.0269,183.5783 198.6988,181.9377 Q197.3863,180.2815 197.3863,177.1565 Q197.3863,174.0315 198.6988,172.3752 Q200.0269,170.719 202.5269,170.719 Q203.23,170.719 203.8707,170.8752 Q204.5269,171.0315 205.0894,171.3283 L205.0894,174.0471 Q204.4644,173.469 203.8707,173.2033 Q203.2769,172.9221 202.6519,172.9221 Q201.3082,172.9221 200.6207,174.0002 Q199.9332,175.0627 199.9332,177.1565 Q199.9332,179.2502 200.6207,180.3283 Q201.3082,181.3908 202.6519,181.3908 Q203.2769,181.3908 203.8707,181.1252 Q204.4644,180.844 205.0894,180.2658 L205.0894,182.9846 Z " fill="#000000"/><text fill="#000000" font-family="sans-serif" font-size="14" lengthAdjust="spacing" textLength="316.7068" x="231.8656" y="175.9659">GovernmentBodyRankingMenuItemFactoryImpl</text><text fill="#000000" font-family="sans-serif" font-size="10" lengthAdjust="spacing" textLength="342.8097" x="218.8141" y="190.7579">com.hack23.cia.web.impl.ui.application.views.common.menufactory.impl</text><line style="stroke:#181818;stroke-width:0.5;" x1="176" x2="575.7445" y1="198.6879" y2="198.6879"/><ellipse cx="186" cy="213.7219" fill="#84BE84" rx="3" ry="3" style="stroke:#038048;stroke-width:1.0;"/><text fill="#000000" font-family="sans-serif" font-size="14" lengthAdjust="spacing" textLength="375.7445" x="195" y="217.6538">createGovernmentBodyRankingMenuBar(MenuBar): void</text><ellipse cx="186" cy="232.7898" fill="#84BE84" rx="3" ry="3" style="stroke:#038048;stroke-width:1.0;"/><text fill="#000000" font-family="sans-serif" font-size="14" lengthAdjust="spacing" textLength="365.0626" x="195" y="236.7218">createGovernmentBodyRankingTopics(MenuItem): void</text><ellipse cx="186" cy="251.8577" fill="#84BE84" rx="3" ry="3" style="stroke:#038048;stroke-width:1.0;"/><text fill="#000000" font-family="sans-serif" font-size="14" lengthAdjust="spacing" textLength="272.4109" x="195" y="255.7897">createOverviewPage(VerticalLayout): void</text></g></a><!--class com.hack23.cia.web.impl.ui.application.views.common.menufactory.impl.AbstractMenuItemFactoryImpl--><a href="AbstractMenuItemFactoryImpl.html" target="_top" title="AbstractMenuItemFactoryImpl.html" xlink:actuate="onRequest" xlink:href="AbstractMenuItemFactoryImpl.html" xlink:show="new" xlink:title="AbstractMenuItemFactoryImpl.html" xlink:type="simple"><g id="elem_com.hack23.cia.web.impl.ui.application.views.common.menufactory.impl.AbstractMenuItemFactoryImpl"><rect codeLine="19" fill="#F1F1F1" height="42.6879" id="com.hack23.cia.web.impl.ui.application.views.common.menufactory.impl.AbstractMenuItemFactoryImpl" rx="2.5" ry="2.5" style="stroke:#181818;stroke-width:0.5;" width="356.1796" x="6" y="44.5"/><ellipse cx="21" cy="65.844" fill="#A9DCDF" rx="11" ry="11" style="stroke:#181818;stroke-width:1.0;"/><path d="M21.1094,61.1877 L19.9531,66.2658 L22.2813,66.2658 L21.1094,61.1877 Z M19.625,58.9533 L22.6094,58.9533 L25.9688,71.344 L23.5156,71.344 L22.75,68.2815 L19.4688,68.2815 L18.7188,71.344 L16.2813,71.344 L19.625,58.9533 Z " fill="#000000"/><text fill="#000000" font-family="sans-serif" font-size="14" font-style="italic" lengthAdjust="spacing" textLength="188.6913" x="102.7442" y="64.4659">AbstractMenuItemFactoryImpl</text><text fill="#000000" font-family="sans-serif" font-size="10" font-style="italic" lengthAdjust="spacing" textLength="324.1796" x="35" y="79.2579">com.hack23.cia.web.impl.ui.application.views.common.menufactory.impl</text></g></a><!--class com.hack23.cia.web.impl.ui.application.views.common.menufactory.api.GovernmentBodyRankingMenuItemFactory--><a href="../api/GovernmentBodyRankingMenuItemFactory.html" target="_top" title="../api/GovernmentBodyRankingMenuItemFactory.html" xlink:actuate="onRequest" xlink:href="../api/GovernmentBodyRankingMenuItemFactory.html" xlink:show="new" xlink:title="../api/GovernmentBodyRankingMenuItemFactory.html" xlink:type="simple"><g id="elem_com.hack23.cia.web.impl.ui.application.views.common.menufactory.api.GovernmentBodyRankingMenuItemFactory"><rect codeLine="20" fill="#F1F1F1" height="107.8917" id="com.hack23.cia.web.impl.ui.application.views.common.menufactory.api.GovernmentBodyRankingMenuItemFactory" rx="2.5" ry="2.5" style="stroke:#181818;stroke-width:0.5;" width="378.0847" x="380" y="12"/><ellipse cx="407.3998" cy="33.344" fill="#B4A7E5" rx="11" ry="11" style="stroke:#181818;stroke-width:1.0;"/><path d="M403.3216,29.1096 L403.3216,26.9533 L410.7123,26.9533 L410.7123,29.1096 L408.2435,29.1096 L408.2435,37.1877 L410.7123,37.1877 L410.7123,39.344 L403.3216,39.344 L403.3216,37.1877 L405.7904,37.1877 L405.7904,29.1096 L403.3216,29.1096 Z " fill="#000000"/><text fill="#000000" font-family="sans-serif" font-size="14" font-style="italic" lengthAdjust="spacing" textLength="267.329" x="449.7556" y="31.9659">GovernmentBodyRankingMenuItemFactory</text><text fill="#000000" font-family="sans-serif" font-size="10" font-style="italic" lengthAdjust="spacing" textLength="318.5296" x="424.1553" y="46.7579">com.hack23.cia.web.impl.ui.application.views.common.menufactory.api</text><line style="stroke:#181818;stroke-width:0.5;" x1="381" x2="757.0847" y1="54.6879" y2="54.6879"/><ellipse cx="391" cy="69.7219" fill="#84BE84" rx="3" ry="3" style="stroke:#038048;stroke-width:1.0;"/><text fill="#000000" font-family="sans-serif" font-size="14" font-style="italic" lengthAdjust="spacing" textLength="352.0847" x="400" y="73.6538">createGovernmentBodyRankingMenuBar(MenuBar): void</text><ellipse cx="391" cy="88.7898" fill="#84BE84" rx="3" ry="3" style="stroke:#038048;stroke-width:1.0;"/><text fill="#000000" font-family="sans-serif" font-size="14" font-style="italic" lengthAdjust="spacing" textLength="340.6887" x="400" y="92.7218">createGovernmentBodyRankingTopics(MenuItem): void</text><ellipse cx="391" cy="107.8577" fill="#84BE84" rx="3" ry="3" style="stroke:#038048;stroke-width:1.0;"/><text fill="#000000" font-family="sans-serif" font-size="14" font-style="italic" lengthAdjust="spacing" textLength="255.667" x="400" y="111.7897">createOverviewPage(VerticalLayout): void</text></g></a><polygon fill="none" points="211.9184,87.648,222.8227,103.1753,229.9582,93.5273,211.9184,87.648" style="stroke:#181818;stroke-width:1.0;"/><path d="M226.3905,98.3513 C250.5197,116.1969 271.9994,132.0829 304.1052,155.8278 " fill="none" style="stroke:#181818;stroke-width:1.0;"/><polygon fill="none" points="496.8595,120.0775,478.8051,125.912,485.9167,135.5777,496.8595,120.0775" style="stroke:#181818;stroke-width:1.0;"/><path d="M482.3609,130.7448 C466.4078,142.4824 464.0028,144.2518 448.0531,155.9868 " fill="none" style="stroke:#181818;stroke-width:1.0;stroke-dasharray:7.0,7.0;"/><text fill="#888888" font-family="sans-serif" font-size="10" lengthAdjust="spacing" textLength="2.6" x="377.2" y="268.69">&#160;</text><a href="https://github.com/talsma-ict/umldoclet" target="_top" title="https://github.com/talsma-ict/umldoclet" xlink:actuate="onRequest" xlink:href="https://github.com/talsma-ict/umldoclet" xlink:show="new" xlink:title="https://github.com/talsma-ict/umldoclet" xlink:type="simple"><text fill="#888888" font-family="sans-serif" font-size="10" lengthAdjust="spacing" textLength="76.7199" x="340.14" y="282.31">UMLDoclet 2.2.1</text></a><!--SRC=[rLPHJzim47xdLzpO0qLG9scx0bM5LDZ6c8g6eEobyE0wryPgOcUsKzG1_tsND7GT35Qq3cbvYUAx- -xkky-E0G0su52dKoD7aGEdmKNImiL95xWAOOGA3NSOWapu22qCCDPgP6UE23npaJQWXyMNqCQWJRKAfHh1PpxXO7Lc15gsjWP5gjuz-ZMt2-Y3QRxuNeiO7LGEDnTAglb1irhpQqteyTWc78uFUwn4-nbJOpKM0677Kg2o19cf44rHLYVbWbxTcMKR9cYir8fY_18dRrLevRXK5b9kdCrREesvSdcj0QFy3RO3bSvvzzVQ_BsYjcte6CMp4CxqjspUxflKy15L7FEfpXpO11rNV6QpLBJY2T751PuZ9UMEc5HQOM6FP8Y0IUgcC9GOX_RXAe55cfQBTH5pQs6zRULtR0MD_IDDJQe4bJlGuVICgp5Dv0HLTkmm-SW5fPeU9sbygSeGVr_eX4LSZ6jr9YHdrpXWaZnO9XbFKwALEoADJIHUMqRE2NrGWcmuGokSru6ckWeWjcm3qEylwyeYbyHNLt1JC9O_My8WoUz9W0DkAkLximKJBSEbGdiwbS9Mxaju8lGBHUOSdDA-gdn5uuYOk5iePJ7YRZPWFh3EK2-F9jqf3V_JS9-fcURvZBKSOS68L0uDmU8BPRz2LdWgLq8AuImbU2A7CO-ylMMy7-lzvbv5TtyZ_ILH_h0B7gEyR4FySo6sRwlLrptBLjBNqbfgtpBsolqL3RQjcyQuFnV2K6lQo0igpPzFqnHDLwhneOxfh_Xsz_VMY_mV7qk5TAqGOuLqClfppxjPEcyXNvdhKlNxaNEfRNdUIBee6-IzUQwuNrIbS5wMnE7iOl7WYb4UFXjmDB-xvF__gb-h-lLUK6yrWbQZmPfxGL3VRUwys_A3bk_tFsH6f-YTEot6aOwJgny0]--></g></svg>