<svg xmlns="http://www.w3.org/2000/svg" xmlns:xlink="http://www.w3.org/1999/xlink" contentStyleType="text/css" height="255px" preserveAspectRatio="none" style="width:738px;height:255px;background:#FFFFFF;" version="1.1" viewBox="0 0 738 255" width="738px" zoomAndPan="magnify"><defs/><g><!--class com.hack23.cia.web.impl.ui.application.views.common.menufactory.impl.PartyMenuItemFactoryImpl--><a href="PartyMenuItemFactoryImpl.html" target="_top" title="PartyMenuItemFactoryImpl.html" xlink:actuate="onRequest" xlink:href="PartyMenuItemFactoryImpl.html" xlink:show="new" xlink:title="PartyMenuItemFactoryImpl.html" xlink:type="simple"><g id="elem_com.hack23.cia.web.impl.ui.application.views.common.menufactory.impl.PartyMenuItemFactoryImpl"><rect codeLine="13" fill="#F1F1F1" height="88.8237" id="com.hack23.cia.web.impl.ui.application.views.common.menufactory.impl.PartyMenuItemFactoryImpl" rx="2.5" ry="2.5" style="stroke:#181818;stroke-width:0.5;" width="374.8097" x="182.5" y="137"/><ellipse cx="197.5" cy="158.344" fill="#ADD1B2" rx="11" ry="11" style="stroke:#181818;stroke-width:1.0;"/><path d="M200.4688,163.9846 Q199.8906,164.2815 199.25,164.4221 Q198.6094,164.5783 197.9063,164.5783 Q195.4063,164.5783 194.0781,162.9377 Q192.7656,161.2815 192.7656,158.1565 Q192.7656,155.0315 194.0781,153.3752 Q195.4063,151.719 197.9063,151.719 Q198.6094,151.719 199.25,151.8752 Q199.9063,152.0315 200.4688,152.3283 L200.4688,155.0471 Q199.8438,154.469 199.25,154.2033 Q198.6563,153.9221 198.0313,153.9221 Q196.6875,153.9221 196,155.0002 Q195.3125,156.0627 195.3125,158.1565 Q195.3125,160.2502 196,161.3283 Q196.6875,162.3908 198.0313,162.3908 Q198.6563,162.3908 199.25,162.1252 Q199.8438,161.844 200.4688,161.2658 L200.4688,163.9846 Z " fill="#000000"/><text fill="#000000" font-family="sans-serif" font-size="14" lengthAdjust="spacing" textLength="181.3273" x="292.2412" y="156.9659">PartyMenuItemFactoryImpl</text><text fill="#000000" font-family="sans-serif" font-size="10" lengthAdjust="spacing" textLength="342.8097" x="211.5" y="171.7579">com.hack23.cia.web.impl.ui.application.views.common.menufactory.impl</text><line style="stroke:#181818;stroke-width:0.5;" x1="183.5" x2="556.3097" y1="179.6879" y2="179.6879"/><ellipse cx="193.5" cy="194.7219" fill="#84BE84" rx="3" ry="3" style="stroke:#038048;stroke-width:1.0;"/><text fill="#000000" font-family="sans-serif" font-size="14" lengthAdjust="spacing" textLength="319.1989" x="202.5" y="198.6538">createOverviewPage(VerticalLayout, String): void</text><ellipse cx="193.5" cy="213.7898" fill="#84BE84" rx="3" ry="3" style="stroke:#038048;stroke-width:1.0;"/><text fill="#000000" font-family="sans-serif" font-size="14" lengthAdjust="spacing" textLength="287.1529" x="202.5" y="217.7218">createPartyMenuBar(MenuBar, String): void</text></g></a><!--class com.hack23.cia.web.impl.ui.application.views.common.menufactory.impl.AbstractMenuItemFactoryImpl--><a href="AbstractMenuItemFactoryImpl.html" target="_top" title="AbstractMenuItemFactoryImpl.html" xlink:actuate="onRequest" xlink:href="AbstractMenuItemFactoryImpl.html" xlink:show="new" xlink:title="AbstractMenuItemFactoryImpl.html" xlink:type="simple"><g id="elem_com.hack23.cia.web.impl.ui.application.views.common.menufactory.impl.AbstractMenuItemFactoryImpl"><rect codeLine="18" fill="#F1F1F1" height="42.6879" id="com.hack23.cia.web.impl.ui.application.views.common.menufactory.impl.AbstractMenuItemFactoryImpl" rx="2.5" ry="2.5" style="stroke:#181818;stroke-width:0.5;" width="356.1796" x="6" y="35"/><ellipse cx="21" cy="56.344" fill="#A9DCDF" rx="11" ry="11" style="stroke:#181818;stroke-width:1.0;"/><path d="M21.1094,51.6877 L19.9531,56.7658 L22.2813,56.7658 L21.1094,51.6877 Z M19.625,49.4533 L22.6094,49.4533 L25.9688,61.844 L23.5156,61.844 L22.75,58.7815 L19.4688,58.7815 L18.7188,61.844 L16.2813,61.844 L19.625,49.4533 Z " fill="#000000"/><text fill="#000000" font-family="sans-serif" font-size="14" font-style="italic" lengthAdjust="spacing" textLength="188.6913" x="102.7442" y="54.9659">AbstractMenuItemFactoryImpl</text><text fill="#000000" font-family="sans-serif" font-size="10" font-style="italic" lengthAdjust="spacing" textLength="324.1796" x="35" y="69.7579">com.hack23.cia.web.impl.ui.application.views.common.menufactory.impl</text></g></a><!--class com.hack23.cia.web.impl.ui.application.views.common.menufactory.api.PartyMenuItemFactory--><a href="../api/PartyMenuItemFactory.html" target="_top" title="../api/PartyMenuItemFactory.html" xlink:actuate="onRequest" xlink:href="../api/PartyMenuItemFactory.html" xlink:show="new" xlink:title="../api/PartyMenuItemFactory.html" xlink:type="simple"><g id="elem_com.hack23.cia.web.impl.ui.application.views.common.menufactory.api.PartyMenuItemFactory"><rect codeLine="19" fill="#F1F1F1" height="88.8237" id="com.hack23.cia.web.impl.ui.application.views.common.menufactory.api.PartyMenuItemFactory" rx="2.5" ry="2.5" style="stroke:#181818;stroke-width:0.5;" width="350.5296" x="380.5" y="12"/><ellipse cx="395.5" cy="33.344" fill="#B4A7E5" rx="11" ry="11" style="stroke:#181818;stroke-width:1.0;"/><path d="M391.4219,29.1096 L391.4219,26.9533 L398.8125,26.9533 L398.8125,29.1096 L396.3438,29.1096 L396.3438,37.1877 L398.8125,37.1877 L398.8125,39.344 L391.4219,39.344 L391.4219,37.1877 L393.8906,37.1877 L393.8906,29.1096 L391.4219,29.1096 Z " fill="#000000"/><text fill="#000000" font-family="sans-serif" font-size="14" font-style="italic" lengthAdjust="spacing" textLength="141.6515" x="497.9391" y="31.9659">PartyMenuItemFactory</text><text fill="#000000" font-family="sans-serif" font-size="10" font-style="italic" lengthAdjust="spacing" textLength="318.5296" x="409.5" y="46.7579">com.hack23.cia.web.impl.ui.application.views.common.menufactory.api</text><line style="stroke:#181818;stroke-width:0.5;" x1="381.5" x2="730.0296" y1="54.6879" y2="54.6879"/><ellipse cx="391.5" cy="69.7219" fill="#84BE84" rx="3" ry="3" style="stroke:#038048;stroke-width:1.0;"/><text fill="#000000" font-family="sans-serif" font-size="14" font-style="italic" lengthAdjust="spacing" textLength="300.0049" x="400.5" y="73.6538">createOverviewPage(VerticalLayout, String): void</text><ellipse cx="391.5" cy="88.7898" fill="#84BE84" rx="3" ry="3" style="stroke:#038048;stroke-width:1.0;"/><text fill="#000000" font-family="sans-serif" font-size="14" font-style="italic" lengthAdjust="spacing" textLength="270.7449" x="400.5" y="92.7218">createPartyMenuBar(MenuBar, String): void</text></g></a><polygon fill="none" points="215.1322,78.0874,226.8367,93.0208,233.4558,83.0114,215.1322,78.0874" style="stroke:#181818;stroke-width:1.0;"/><path d="M230.1463,88.0161 C254.3459,104.0191 273.7599,116.8574 304.0122,136.8629 " fill="none" style="stroke:#181818;stroke-width:1.0;"/><polygon fill="none" points="490.1616,101.0383,471.838,105.9623,478.4571,115.9716,490.1616,101.0383" style="stroke:#181818;stroke-width:1.0;"/><path d="M475.1475,110.9669 C457.5908,122.5771 453.6323,125.1947 436.0635,136.8128 " fill="none" style="stroke:#181818;stroke-width:1.0;stroke-dasharray:7.0,7.0;"/><text fill="#888888" font-family="sans-serif" font-size="10" lengthAdjust="spacing" textLength="2.6" x="363.95" y="230.69">&#160;</text><a href="https://github.com/talsma-ict/umldoclet" target="_top" title="https://github.com/talsma-ict/umldoclet" xlink:actuate="onRequest" xlink:href="https://github.com/talsma-ict/umldoclet" xlink:show="new" xlink:title="https://github.com/talsma-ict/umldoclet" xlink:type="simple"><text fill="#888888" font-family="sans-serif" font-size="10" lengthAdjust="spacing" textLength="76.7199" x="326.89" y="244.31">UMLDoclet 2.2.1</text></a><!--SRC=[rLLDKzim4BtpAxRqG1Y8x3Wf7vaCCsdwHITCcIRq4ZWeyYRMn9PSIGxZ0l-zQyUaAGGwdOP3TT5OkthxTlV92m2m0psTvaPE8mTEWukaXOkpFd0LmXGL6kum19dmALeOOwpLr2uS4NZc8cr0JyeleOr1cseLIZM5ptpEmUhC2BHiQmlAKCDxz6jkLz37UN7uJeiO7THwkokK0hznK0_yu026FBO9XzFUa5Lel-u4B60D8EnO2bIM83CLeYbfTLCkQEilBFimHsEbLdJ7ht2AL8LMZajb8UN6sIAbyvWhLt1jC8hVOeTGwmxwltFpZqjk-z0rYcSXVDNVisMwhrB3fyGuvhdE7DW47LTyORD4Ml64oiK53f22SaULL5fXQOzaY819wdAOI8n3-_2Km29Dn-MvYBcriDsnyWUs6wsJSyeXFqELdJfCFd11qFbfaiQNgdBnJuHEMCJ5B6Wo8JcxnZ6JvC4ooNYQKXcveoAnkSHhoyWveO-442SBjD9v6wYBcm1YJn66qUWf4ujS4bzTmKrPWMBj2OCafo_Ku2BQEIcszWsD8mfnl-p1FWoS8N7kjc6kPVZmvZBKMsvgrRxkojsYwdnidI52ZyhVhGp_KmUUuKnDUCPQzQ6iY5GE3S7Y7xIumIhmL6wa28IpLeMKF6CUMRrrriSYlBbNnTq_wF4no5zAyyKbqRcjrr_swMyaZoUxshbbx8NvbmbqhCjZF5bsTg8rFP4LlHJhKvwYwKirw-cOXi3he_NMYsAanL8XJL4nKqZ_77_fURS8vwt4gs9Tgj4eSYwrRS-RIXTbuo8NpvNZj2w5yx8a3XTpzC54hPxr3dnSZkfYtDNzeEutXurckzLejrhiuCrnSDXi7JNt_4RRzqVlCwDJz0PEYrcau-Jg9m00]--></g></svg>