<svg xmlns="http://www.w3.org/2000/svg" xmlns:xlink="http://www.w3.org/1999/xlink" contentStyleType="text/css" data-diagram-type="CLASS" height="331px" preserveAspectRatio="none" style="width:961px;height:331px;background:#FFFFFF;" version="1.1" viewBox="0 0 961 331" width="961px" zoomAndPan="magnify"><defs/><g><!--class com.hack23.cia.model.internal.application.data.party.impl.ViewRiksdagenPartyCoalationAgainstAnnualSummary--><g class="entity" data-entity="com.hack23.cia.model.internal.application.data.party.impl.ViewRiksdagenPartyCoalationAgainstAnnualSummary" data-source-line="13" data-uid="ent0002" id="entity_com.hack23.cia.model.internal.application.data.party.impl.ViewRiksdagenPartyCoalationAgainstAnnualSummary"><a href="ViewRiksdagenPartyCoalationAgainstAnnualSummary.html" target="_top" title="ViewRiksdagenPartyCoalationAgainstAnnualSummary.html" xlink:actuate="onRequest" xlink:href="ViewRiksdagenPartyCoalationAgainstAnnualSummary.html" xlink:show="new" xlink:title="ViewRiksdagenPartyCoalationAgainstAnnualSummary.html" xlink:type="simple"><rect fill="#F1F1F1" height="211.2312" rx="2.5" ry="2.5" style="stroke:#181818;stroke-width:0.5;" width="948.7509" x="6" y="91"/><ellipse cx="298.6971" cy="112.344" fill="#ADD1B2" rx="11" ry="11" style="stroke:#181818;stroke-width:1;"/><path d="M301.6659,117.9846 Q301.0877,118.2815 300.4471,118.4221 Q299.8065,118.5783 299.1034,118.5783 Q296.6034,118.5783 295.2752,116.9377 Q293.9627,115.2815 293.9627,112.1565 Q293.9627,109.0315 295.2752,107.3752 Q296.6034,105.719 299.1034,105.719 Q299.8065,105.719 300.4471,105.8752 Q301.1034,106.0315 301.6659,106.3283 L301.6659,109.0471 Q301.0409,108.469 300.4471,108.2033 Q299.8534,107.9221 299.2284,107.9221 Q297.8846,107.9221 297.1971,109.0002 Q296.5096,110.0627 296.5096,112.1565 Q296.5096,114.2502 297.1971,115.3283 Q297.8846,116.3908 299.2284,116.3908 Q299.8534,116.3908 300.4471,116.1252 Q301.0409,115.844 301.6659,115.2658 L301.6659,117.9846 Z " fill="#000000"/><text fill="#000000" font-family="sans-serif" font-size="14" lengthAdjust="spacing" textLength="354.8567" x="319.1971" y="110.9659">ViewRiksdagenPartyCoalationAgainstAnnualSummary</text><text fill="#000000" font-family="sans-serif" font-size="10" lengthAdjust="spacing" textLength="272.4198" x="360.4156" y="125.7579">com.hack23.cia.model.internal.application.data.party.impl</text><line style="stroke:#181818;stroke-width:0.5;" x1="7" x2="953.7509" y1="133.6879" y2="133.6879"/><polygon fill="none" points="17,143.7219,21,147.7219,17,151.7219,13,147.7219" style="stroke:#B38D22;stroke-width:1;"/><text fill="#000000" font-family="sans-serif" font-size="14" lengthAdjust="spacing" textLength="531.2841" x="26" y="152.6538">embeddedId: ViewRiksdagenPartyCoalationAgainstAnnualSummaryEmbeddedId</text><polygon fill="none" points="17,162.7898,21,166.7898,17,170.7898,13,166.7898" style="stroke:#B38D22;stroke-width:1;"/><text fill="#000000" font-family="sans-serif" font-size="14" lengthAdjust="spacing" textLength="66.7798" x="26" y="171.7218">total: long</text><line style="stroke:#181818;stroke-width:0.5;" x1="7" x2="953.7509" y1="179.8237" y2="179.8237"/><ellipse cx="17" cy="194.8577" fill="#84BE84" rx="3" ry="3" style="stroke:#038048;stroke-width:1;"/><text fill="#000000" font-family="sans-serif" font-size="14" lengthAdjust="spacing" textLength="561.1321" x="26" y="198.7897">getEmbeddedId(): ViewRiksdagenPartyCoalationAgainstAnnualSummaryEmbeddedId</text><ellipse cx="17" cy="213.9256" fill="#84BE84" rx="3" ry="3" style="stroke:#038048;stroke-width:1;"/><text fill="#000000" font-family="sans-serif" font-size="14" lengthAdjust="spacing" textLength="587.0319" x="26" y="217.8576">setEmbeddedId(ViewRiksdagenPartyCoalationAgainstAnnualSummaryEmbeddedId): void</text><ellipse cx="17" cy="232.9935" fill="#84BE84" rx="3" ry="3" style="stroke:#038048;stroke-width:1;"/><text fill="#000000" font-family="sans-serif" font-size="14" lengthAdjust="spacing" textLength="99.4696" x="26" y="236.9255">getTotal(): long</text><ellipse cx="17" cy="252.0614" fill="#84BE84" rx="3" ry="3" style="stroke:#038048;stroke-width:1;"/><text fill="#000000" font-family="sans-serif" font-size="14" lengthAdjust="spacing" textLength="125.3695" x="26" y="255.9934">setTotal(long): void</text><ellipse cx="17" cy="271.1294" fill="#84BE84" rx="3" ry="3" style="stroke:#038048;stroke-width:1;"/><text fill="#000000" font-family="sans-serif" font-size="14" lengthAdjust="spacing" textLength="922.7509" x="26" y="275.0613">withEmbeddedId(ViewRiksdagenPartyCoalationAgainstAnnualSummaryEmbeddedId): ViewRiksdagenPartyCoalationAgainstAnnualSummary</text><ellipse cx="17" cy="290.1973" fill="#84BE84" rx="3" ry="3" style="stroke:#038048;stroke-width:1;"/><text fill="#000000" font-family="sans-serif" font-size="14" lengthAdjust="spacing" textLength="461.0884" x="26" y="294.1293">withTotal(long): ViewRiksdagenPartyCoalationAgainstAnnualSummary</text></a></g><!--class com.hack23.cia.model.common.api.ModelObject--><g class="entity" data-entity="com.hack23.cia.model.common.api.ModelObject" data-source-line="24" data-uid="ent0003" id="entity_com.hack23.cia.model.common.api.ModelObject"><rect fill="#F1F1F1" height="42.6879" rx="2.5" ry="2.5" style="stroke:#181818;stroke-width:0.5;" width="189.3398" x="386" y="12"/><ellipse cx="401" cy="33.344" fill="#B4A7E5" rx="11" ry="11" style="stroke:#181818;stroke-width:1;"/><path d="M396.9219,29.1096 L396.9219,26.9533 L404.3125,26.9533 L404.3125,29.1096 L401.8438,29.1096 L401.8438,37.1877 L404.3125,37.1877 L404.3125,39.344 L396.9219,39.344 L396.9219,37.1877 L399.3906,37.1877 L399.3906,29.1096 L396.9219,29.1096 Z " fill="#000000"/><text fill="#000000" font-family="sans-serif" font-size="14" font-style="italic" lengthAdjust="spacing" textLength="78.1477" x="454.596" y="31.9659">ModelObject</text><text fill="#000000" font-family="sans-serif" font-size="10" font-style="italic" lengthAdjust="spacing" textLength="157.3398" x="415" y="46.7579">com.hack23.cia.model.common.api</text></g><g class="link" data-entity-1="com.hack23.cia.model.common.api.ModelObject" data-entity-2="com.hack23.cia.model.internal.application.data.party.impl.ViewRiksdagenPartyCoalationAgainstAnnualSummary" data-uid="lnk4" id="link_com.hack23.cia.model.common.api.ModelObject_com.hack23.cia.model.internal.application.data.party.impl.ViewRiksdagenPartyCoalationAgainstAnnualSummary"><polygon fill="none" points="480.5,55.2183,474.5,73.2183,486.5,73.2183,480.5,55.2183" style="stroke:#181818;stroke-width:1;"/><path d="M480.5,73.2183 C480.5,82.9851 480.5,77.4416 480.5,90.8868" fill="none" style="stroke:#181818;stroke-width:1;stroke-dasharray:7,7;"/></g><g class="footer" data-source-line="34"><text fill="#888888" font-family="sans-serif" font-size="10" lengthAdjust="spacing" textLength="2.6" x="475.7" y="306.69">&#160;</text><a href="https://github.com/talsma-ict/umldoclet" target="_top" title="https://github.com/talsma-ict/umldoclet" xlink:actuate="onRequest" xlink:href="https://github.com/talsma-ict/umldoclet" xlink:show="new" xlink:title="https://github.com/talsma-ict/umldoclet" xlink:type="simple"><text fill="#888888" font-family="sans-serif" font-size="10" lengthAdjust="spacing" textLength="76.7199" x="438.64" y="320.31">UMLDoclet 2.2.4</text></a></g><!--SRC=[lLNVJzim47xVNt63Xu6WRfhoOrG8gUhGnbGqHCjUIX-kyJNnwjXPx82oZVzzTbBwWstQYj3oKlNEzzrtPtzt001leAUpCXTnOi5gi8amS7FP1rGSObAKeoKE8iMO34n8QXMR-Y015ZRHEUXfzI_IUKucqueB5SD7l4CmkiWZCkpLAwXI3H_Hxz6ie4zARtod8qaMTdgxAvJ2e7NK28Fm28OeJOfmqHkoETeo9cGXEm27BKL4oZZ8Gd7AArhT32Ftqwyz-t17kH5QkPXWZkDBZRIoA9I137DhV4bN4fNrN5lCvJzahG1skeF-EhdWf2At3zrSOS7XMdyj5lM-pdAC7MM9fIuic9GiAgnznh5McBf-OKG3SbdHkbOghQZo9u8JK9hP4gQ293TFhGuiqSvSsIE9ni3MgH7VgDCwEFiiwFvQp0ntjwQkN4LbJwD4w-hknhvCsrMgG3aeqXJpybRD8uEpIASimMWMjbaaaAMQasH2MNBrIOPPvZfSuJ2E5fdlLib4ciajS5Vwx6Ys8MCOZJQCO8bDvNWCtwk6-M-RqWbnJlo2Ts13jFD5w1BEQeko0ruX2-DUJ7PvTcVt9HBjcJNCPmCwCdTQy3MkGr-3fxbUXNdqUFClSVV29Yz4QCFOTGvh59-3z52hgNgmKwVB5KLT-gVyQVA58litjJXZwbuuPkBFcbYUOIl8Sp7_Um2S_c3i_wckvdTgR2dfRD7xgTOkrOgm_FUXp2Zl2pNhQUdcslRRttjl_9YMGf7R3D5CaPjYmUBaGvskkP9ldkjMZKQ9jPdfD9knk_bYuXlKjDMAQ8Z8DejKydetFDaIu_5ywhzVh1y_mHj1s0XEXi5X9mWx1orsVD9kjOFZe_PUqEe4mUYyo7L6pO7LqIpHCXt_1000]--></g></svg>