<svg xmlns="http://www.w3.org/2000/svg" xmlns:xlink="http://www.w3.org/1999/xlink" contentStyleType="text/css" height="331px" preserveAspectRatio="none" style="width:652px;height:331px;background:#FFFFFF;" version="1.1" viewBox="0 0 652 331" width="652px" zoomAndPan="magnify"><defs/><g><!--class com.hack23.cia.model.internal.application.data.party.impl.ViewRiksdagenPartyCoalationAgainstAnnualSummaryEmbeddedId--><a href="ViewRiksdagenPartyCoalationAgainstAnnualSummaryEmbeddedId.html" target="_top" title="ViewRiksdagenPartyCoalationAgainstAnnualSummaryEmbeddedId.html" xlink:actuate="onRequest" xlink:href="ViewRiksdagenPartyCoalationAgainstAnnualSummaryEmbeddedId.html" xlink:show="new" xlink:title="ViewRiksdagenPartyCoalationAgainstAnnualSummaryEmbeddedId.html" xlink:type="simple"><g id="elem_com.hack23.cia.model.internal.application.data.party.impl.ViewRiksdagenPartyCoalationAgainstAnnualSummaryEmbeddedId"><rect codeLine="13" fill="#F1F1F1" height="211.2312" id="com.hack23.cia.model.internal.application.data.party.impl.ViewRiksdagenPartyCoalationAgainstAnnualSummaryEmbeddedId" rx="2.5" ry="2.5" style="stroke:#181818;stroke-width:0.5;" width="639.9679" x="6" y="91"/><ellipse cx="102.0748" cy="112.344" fill="#ADD1B2" rx="11" ry="11" style="stroke:#181818;stroke-width:1.0;"/><path d="M105.0435,117.9846 Q104.4654,118.2815 103.8248,118.4221 Q103.1841,118.5783 102.481,118.5783 Q99.981,118.5783 98.6529,116.9377 Q97.3404,115.2815 97.3404,112.1565 Q97.3404,109.0315 98.6529,107.3752 Q99.981,105.719 102.481,105.719 Q103.1841,105.719 103.8248,105.8752 Q104.481,106.0315 105.0435,106.3283 L105.0435,109.0471 Q104.4185,108.469 103.8248,108.2033 Q103.231,107.9221 102.606,107.9221 Q101.2623,107.9221 100.5748,109.0002 Q99.8873,110.0627 99.8873,112.1565 Q99.8873,114.2502 100.5748,115.3283 Q101.2623,116.3908 102.606,116.3908 Q103.231,116.3908 103.8248,116.1252 Q104.4185,115.844 105.0435,115.2658 L105.0435,117.9846 Z " fill="#000000"/><text fill="#000000" font-family="sans-serif" font-size="14" lengthAdjust="spacing" textLength="439.3184" x="122.5748" y="110.9659">ViewRiksdagenPartyCoalationAgainstAnnualSummaryEmbeddedId</text><text fill="#000000" font-family="sans-serif" font-size="10" lengthAdjust="spacing" textLength="272.4198" x="206.024" y="125.7579">com.hack23.cia.model.internal.application.data.party.impl</text><line style="stroke:#181818;stroke-width:0.5;" x1="7" x2="644.9679" y1="133.6879" y2="133.6879"/><polygon fill="none" points="17,143.7219,21,147.7219,17,151.7219,13,147.7219" style="stroke:#B38D22;stroke-width:1.0;"/><text fill="#000000" font-family="sans-serif" font-size="14" lengthAdjust="spacing" textLength="53.3818" x="26" y="152.6538">year: int</text><polygon fill="none" points="17,162.7898,21,166.7898,17,170.7898,13,166.7898" style="stroke:#B38D22;stroke-width:1.0;"/><text fill="#000000" font-family="sans-serif" font-size="14" lengthAdjust="spacing" textLength="136.3455" x="26" y="171.7218">groupAgainst: String</text><line style="stroke:#181818;stroke-width:0.5;" x1="7" x2="644.9679" y1="179.8237" y2="179.8237"/><ellipse cx="17" cy="194.8577" fill="#84BE84" rx="3" ry="3" style="stroke:#038048;stroke-width:1.0;"/><text fill="#000000" font-family="sans-serif" font-size="14" lengthAdjust="spacing" textLength="84.1257" x="26" y="198.7897">getYear(): int</text><ellipse cx="17" cy="213.9256" fill="#84BE84" rx="3" ry="3" style="stroke:#038048;stroke-width:1.0;"/><text fill="#000000" font-family="sans-serif" font-size="14" lengthAdjust="spacing" textLength="110.0256" x="26" y="217.8576">setYear(int): void</text><ellipse cx="17" cy="232.9935" fill="#84BE84" rx="3" ry="3" style="stroke:#038048;stroke-width:1.0;"/><text fill="#000000" font-family="sans-serif" font-size="14" lengthAdjust="spacing" textLength="167.8874" x="26" y="236.9255">getGroupAgainst(): String</text><ellipse cx="17" cy="252.0614" fill="#84BE84" rx="3" ry="3" style="stroke:#038048;stroke-width:1.0;"/><text fill="#000000" font-family="sans-serif" font-size="14" lengthAdjust="spacing" textLength="193.7873" x="26" y="255.9934">setGroupAgainst(String): void</text><ellipse cx="17" cy="271.1294" fill="#84BE84" rx="3" ry="3" style="stroke:#038048;stroke-width:1.0;"/><text fill="#000000" font-family="sans-serif" font-size="14" lengthAdjust="spacing" textLength="530.2061" x="26" y="275.0613">withYear(int): ViewRiksdagenPartyCoalationAgainstAnnualSummaryEmbeddedId</text><ellipse cx="17" cy="290.1973" fill="#84BE84" rx="3" ry="3" style="stroke:#038048;stroke-width:1.0;"/><text fill="#000000" font-family="sans-serif" font-size="14" lengthAdjust="spacing" textLength="613.9679" x="26" y="294.1293">withGroupAgainst(String): ViewRiksdagenPartyCoalationAgainstAnnualSummaryEmbeddedId</text></g></a><!--class com.hack23.cia.model.common.api.ModelObject--><g id="elem_com.hack23.cia.model.common.api.ModelObject"><rect codeLine="24" fill="#F1F1F1" height="42.6879" id="com.hack23.cia.model.common.api.ModelObject" rx="2.5" ry="2.5" style="stroke:#181818;stroke-width:0.5;" width="189.3398" x="231.5" y="12"/><ellipse cx="246.5" cy="33.344" fill="#B4A7E5" rx="11" ry="11" style="stroke:#181818;stroke-width:1.0;"/><path d="M242.4219,29.1096 L242.4219,26.9533 L249.8125,26.9533 L249.8125,29.1096 L247.3438,29.1096 L247.3438,37.1877 L249.8125,37.1877 L249.8125,39.344 L242.4219,39.344 L242.4219,37.1877 L244.8906,37.1877 L244.8906,29.1096 L242.4219,29.1096 Z " fill="#000000"/><text fill="#000000" font-family="sans-serif" font-size="14" font-style="italic" lengthAdjust="spacing" textLength="78.1477" x="300.096" y="31.9659">ModelObject</text><text fill="#000000" font-family="sans-serif" font-size="10" font-style="italic" lengthAdjust="spacing" textLength="157.3398" x="260.5" y="46.7579">com.hack23.cia.model.common.api</text></g><polygon fill="none" points="326,55.2183,320,73.2183,332,73.2183,326,55.2183" style="stroke:#181818;stroke-width:1.0;"/><path d="M326,73.2183 C326,82.9851 326,77.4416 326,90.8868 " fill="none" style="stroke:#181818;stroke-width:1.0;stroke-dasharray:7.0,7.0;"/><text fill="#888888" font-family="sans-serif" font-size="10" lengthAdjust="spacing" textLength="2.6" x="321.2" y="306.69">&#160;</text><a href="https://github.com/talsma-ict/umldoclet" target="_top" title="https://github.com/talsma-ict/umldoclet" xlink:actuate="onRequest" xlink:href="https://github.com/talsma-ict/umldoclet" xlink:show="new" xlink:title="https://github.com/talsma-ict/umldoclet" xlink:type="simple"><text fill="#888888" font-family="sans-serif" font-size="10" lengthAdjust="spacing" textLength="76.7199" x="284.14" y="320.31">UMLDoclet 2.2.1</text></a><!--SRC=[nLHDJzj04BtpAwPmA0YoiGsb426aA4KjLL0H2PMgaCF4djZRh7VTtJN8RVdlNNyqE2bLg_HGNopFxBnvC_ly001Uma1bXUPnOi4gi0atS7ir19GHn2H9ewK8U8en6PYHK38szK42p6sYDAXvzHKghSbaIaPSnl0Uxn6CodL8XcrjGTLg_1Fz0KqBVLQKmJSg56HXTx3NeXHu_d4dy88Z6ACmASBbOCmQjAUQW0NC1uSjU4ZIECXSHgGhMlqCG_SQrfa3k2Tjk9Akncjmob539IroQI13RKqvqhL0QKkkFYlxizUmsnyDLxbvfnMt0-XhYNa4D-fBlXptHQOnTem55YgtO5AoAB7E6KTQOkhMXI6Do3L5wpOfbQGgd_28WDBC5Z3d92Ap7dLWYNBXAXuAD0Qspmp_IZt_wFmZfuSRlZ2HkpHvxGOg1We5MZTsFowdj7qfSnIZF4rH5nVfZAA8eileJZOOtdceKfPWk0WEMSYHfIeYmRYqv2OL3BFChRf2P15QPENQ2iRJJ6o3kzkDgzd6t64osRYM9JOLqobygzPPFZi5eUw1e_mKYhNAimQe1oEhdSwNsVsOx2TNixktMhLlchWBkjIzuj5ApTiMQ5cx3clMZjJvNv0Uk4rQRJRUn2hYyvt_3VonrcmbXhbJVqktLwLCFim-KsZ_f4GNJ9rwCEE_rzlJ6TP2RdwPlo-0i- -C_Gz5rqpFZ2q4dIylPgwKQzgIQlcyApBIGouN0oMSZ-oSF9-zBLrHS4dEYCE59ESQtlBaOzsks-hNzBgJaqbYRMPwtMxiP97FobLrRUN87HxQRfwAgBRYDLEUJXkJVRjq-z8nEtxG2Kx6_d4lEEpv0Jlr0pzuTHGSxtj-p_Cc5xbM6NL7LeMBH8bq-WC0]--></g></svg>