<svg xmlns="http://www.w3.org/2000/svg" xmlns:xlink="http://www.w3.org/1999/xlink" contentStyleType="text/css" data-diagram-type="CLASS" height="331px" preserveAspectRatio="none" style="width:476px;height:331px;background:#FFFFFF;" version="1.1" viewBox="0 0 476 331" width="476px" zoomAndPan="magnify"><defs/><g><!--class com.hack23.cia.model.internal.application.data.committee.impl.ViewRiksdagenCommitteeRolesEmbeddedId--><g class="entity" data-entity="com.hack23.cia.model.internal.application.data.committee.impl.ViewRiksdagenCommitteeRolesEmbeddedId" data-source-line="13" data-uid="ent0002" id="entity_com.hack23.cia.model.internal.application.data.committee.impl.ViewRiksdagenCommitteeRolesEmbeddedId"><a href="ViewRiksdagenCommitteeRolesEmbeddedId.html" target="_top" title="ViewRiksdagenCommitteeRolesEmbeddedId.html" xlink:actuate="onRequest" xlink:href="ViewRiksdagenCommitteeRolesEmbeddedId.html" xlink:show="new" xlink:title="ViewRiksdagenCommitteeRolesEmbeddedId.html" xlink:type="simple"><rect fill="#F1F1F1" height="211.2312" rx="2.5" ry="2.5" style="stroke:#181818;stroke-width:0.5;" width="463.9183" x="6" y="91"/><ellipse cx="84.4842" cy="112.344" fill="#ADD1B2" rx="11" ry="11" style="stroke:#181818;stroke-width:1;"/><path d="M87.453,117.9846 Q86.8748,118.2815 86.2342,118.4221 Q85.5936,118.5783 84.8905,118.5783 Q82.3905,118.5783 81.0623,116.9377 Q79.7498,115.2815 79.7498,112.1565 Q79.7498,109.0315 81.0623,107.3752 Q82.3905,105.719 84.8905,105.719 Q85.5936,105.719 86.2342,105.8752 Q86.8905,106.0315 87.453,106.3283 L87.453,109.0471 Q86.828,108.469 86.2342,108.2033 Q85.6405,107.9221 85.0155,107.9221 Q83.6717,107.9221 82.9842,109.0002 Q82.2967,110.0627 82.2967,112.1565 Q82.2967,114.2502 82.9842,115.3283 Q83.6717,116.3908 85.0155,116.3908 Q85.6405,116.3908 86.2342,116.1252 Q86.828,115.844 87.453,115.2658 L87.453,117.9846 Z " fill="#000000"/><text fill="#000000" font-family="sans-serif" font-size="14" lengthAdjust="spacing" textLength="291.8989" x="108.2597" y="110.9659">ViewRiksdagenCommitteeRolesEmbeddedId</text><text fill="#000000" font-family="sans-serif" font-size="10" lengthAdjust="spacing" textLength="298.4498" x="104.9842" y="125.7579">com.hack23.cia.model.internal.application.data.committee.impl</text><line style="stroke:#181818;stroke-width:0.5;" x1="7" x2="468.9183" y1="133.6879" y2="133.6879"/><polygon fill="none" points="17,143.7219,21,147.7219,17,151.7219,13,147.7219" style="stroke:#B38D22;stroke-width:1;"/><text fill="#000000" font-family="sans-serif" font-size="14" lengthAdjust="spacing" textLength="83.4257" x="26" y="152.6538">detail: String</text><polygon fill="none" points="17,162.7898,21,166.7898,17,170.7898,13,166.7898" style="stroke:#B38D22;stroke-width:1;"/><text fill="#000000" font-family="sans-serif" font-size="14" lengthAdjust="spacing" textLength="106.3716" x="26" y="171.7218">roleCode: String</text><line style="stroke:#181818;stroke-width:0.5;" x1="7" x2="468.9183" y1="179.8237" y2="179.8237"/><ellipse cx="17" cy="194.8577" fill="#84BE84" rx="3" ry="3" style="stroke:#038048;stroke-width:1;"/><text fill="#000000" font-family="sans-serif" font-size="14" lengthAdjust="spacing" textLength="114.9956" x="26" y="198.7897">getDetail(): String</text><ellipse cx="17" cy="213.9256" fill="#84BE84" rx="3" ry="3" style="stroke:#038048;stroke-width:1;"/><text fill="#000000" font-family="sans-serif" font-size="14" lengthAdjust="spacing" textLength="140.8955" x="26" y="217.8576">setDetail(String): void</text><ellipse cx="17" cy="232.9935" fill="#84BE84" rx="3" ry="3" style="stroke:#038048;stroke-width:1;"/><text fill="#000000" font-family="sans-serif" font-size="14" lengthAdjust="spacing" textLength="139.2575" x="26" y="236.9255">getRoleCode(): String</text><ellipse cx="17" cy="252.0614" fill="#84BE84" rx="3" ry="3" style="stroke:#038048;stroke-width:1;"/><text fill="#000000" font-family="sans-serif" font-size="14" lengthAdjust="spacing" textLength="165.1574" x="26" y="255.9934">setRoleCode(String): void</text><ellipse cx="17" cy="271.1294" fill="#84BE84" rx="3" ry="3" style="stroke:#038048;stroke-width:1;"/><text fill="#000000" font-family="sans-serif" font-size="14" lengthAdjust="spacing" textLength="413.6564" x="26" y="275.0613">withDetail(String): ViewRiksdagenCommitteeRolesEmbeddedId</text><ellipse cx="17" cy="290.1973" fill="#84BE84" rx="3" ry="3" style="stroke:#038048;stroke-width:1;"/><text fill="#000000" font-family="sans-serif" font-size="14" lengthAdjust="spacing" textLength="437.9183" x="26" y="294.1293">withRoleCode(String): ViewRiksdagenCommitteeRolesEmbeddedId</text></a></g><!--class com.hack23.cia.model.common.api.ModelObject--><g class="entity" data-entity="com.hack23.cia.model.common.api.ModelObject" data-source-line="24" data-uid="ent0003" id="entity_com.hack23.cia.model.common.api.ModelObject"><rect fill="#F1F1F1" height="42.6879" rx="2.5" ry="2.5" style="stroke:#181818;stroke-width:0.5;" width="189.3398" x="143.5" y="12"/><ellipse cx="158.5" cy="33.344" fill="#B4A7E5" rx="11" ry="11" style="stroke:#181818;stroke-width:1;"/><path d="M154.4219,29.1096 L154.4219,26.9533 L161.8125,26.9533 L161.8125,29.1096 L159.3438,29.1096 L159.3438,37.1877 L161.8125,37.1877 L161.8125,39.344 L154.4219,39.344 L154.4219,37.1877 L156.8906,37.1877 L156.8906,29.1096 L154.4219,29.1096 Z " fill="#000000"/><text fill="#000000" font-family="sans-serif" font-size="14" font-style="italic" lengthAdjust="spacing" textLength="78.1477" x="212.096" y="31.9659">ModelObject</text><text fill="#000000" font-family="sans-serif" font-size="10" font-style="italic" lengthAdjust="spacing" textLength="157.3398" x="172.5" y="46.7579">com.hack23.cia.model.common.api</text></g><g class="link" data-entity-1="com.hack23.cia.model.common.api.ModelObject" data-entity-2="com.hack23.cia.model.internal.application.data.committee.impl.ViewRiksdagenCommitteeRolesEmbeddedId" data-uid="lnk4" id="link_com.hack23.cia.model.common.api.ModelObject_com.hack23.cia.model.internal.application.data.committee.impl.ViewRiksdagenCommitteeRolesEmbeddedId"><polygon fill="none" points="238,55.2183,232,73.2183,244,73.2183,238,55.2183" style="stroke:#181818;stroke-width:1;"/><path d="M238,73.2183 C238,82.9851 238,77.4416 238,90.8868" fill="none" style="stroke:#181818;stroke-width:1;stroke-dasharray:7,7;"/></g><g class="footer" data-source-line="34"><text fill="#888888" font-family="sans-serif" font-size="10" lengthAdjust="spacing" textLength="2.6" x="233.2" y="306.69">&#160;</text><a href="https://github.com/talsma-ict/umldoclet" target="_top" title="https://github.com/talsma-ict/umldoclet" xlink:actuate="onRequest" xlink:href="https://github.com/talsma-ict/umldoclet" xlink:show="new" xlink:title="https://github.com/talsma-ict/umldoclet" xlink:type="simple"><text fill="#888888" font-family="sans-serif" font-size="10" lengthAdjust="spacing" textLength="76.7199" x="196.14" y="320.31">UMLDoclet 2.2.4</text></a></g><!--SRC=[lLHDJzj04BtpAwPmA0YoiKqA9K98AA2MAgXL0hs473Qx4tkRzQwxEmQbBV-zQpk404MDLAc-M9wFzzvyU000taBF5dEdqeo0B52cF5nVze4R2IaQT9nGWifvYXucgAr9VHE8m4lAh0CxhR-4TGvzOOrK9eLF_9Q3jwKJwDd61jHKLm_eTzole4_cbV7C2eq4sxsT5Kb951-qaYWvW2kkVSxXedV55cYFEGbBM0S2jbO2ZG-GfP7eQbcd1HVXrMyyUt2BpYjhGawqmAbA5TOGLyP3mHtvggGlcXkgjCOiyBzZSGJRfyF-Kt7HKIrk3qwTuQM4WVrUBkjzKpYU1icQpsr9u7CaRdZZyq6ruNde5nSunC3AARJIM8ErFrCI0VE2vZ1LgAL_RWrWcGtcsYuqznusZxtwWTsuS_9LuTr0pRmCKpCzc-UA275WDVhpV89IehoGDsOH7vq8cxECYrcopuJYBBSIDLE6C5Ib6I-Aq5TEeMjCSk9CF20obHTw4y8m_mc1hQKNHgErubX6kHwFuMVTckhPag7pIdTXI2xivgFTXSnUaFh2iviYdTL9spildNxfR3mXvDOg-IHxi81-9N_fVWNXJb7sd6Ejwfz2lAHP7-I-sQrwYDEmfIlxTLcDz_Fa6mhwsnPLamvJvuLwVKyUOzWAycArrq-0ur-C_OzDR9GTUvfhF5asV6fj85bPk-hvE2_GzPMPzQmE__VM-pzxhwjpfPN1S275p63ucwDbv7r3rrxXMt3TcD4e8ofyjzrEmxZBILLFc-fJsLA2scMkPNCZdrtByNXn_Juipt1roLfHfnN7Lt6dkz_fnZ4xEjm_E3oCucGtIhfHD3eldIsmFIGhPfdL-VWt]--></g></svg>