<svg xmlns="http://www.w3.org/2000/svg" xmlns:xlink="http://www.w3.org/1999/xlink" contentStyleType="text/css" data-diagram-type="CLASS" height="2467px" preserveAspectRatio="none" style="width:846px;height:2467px;background:#FFFFFF;" version="1.1" viewBox="0 0 846 2467" width="846px" zoomAndPan="magnify"><defs/><g><!--class com.hack23.cia.model.internal.application.data.committee.impl.ViewRiksdagenCommitteeBallotDecisionSummary--><g class="entity" data-entity="com.hack23.cia.model.internal.application.data.committee.impl.ViewRiksdagenCommitteeBallotDecisionSummary" data-source-line="13" data-uid="ent0002" id="entity_com.hack23.cia.model.internal.application.data.committee.impl.ViewRiksdagenCommitteeBallotDecisionSummary"><a href="ViewRiksdagenCommitteeBallotDecisionSummary.html" target="_top" title="ViewRiksdagenCommitteeBallotDecisionSummary.html" xlink:actuate="onRequest" xlink:href="ViewRiksdagenCommitteeBallotDecisionSummary.html" xlink:show="new" xlink:title="ViewRiksdagenCommitteeBallotDecisionSummary.html" xlink:type="simple"><rect fill="#F1F1F1" height="2346.8379" rx="2.5" ry="2.5" style="stroke:#181818;stroke-width:0.5;" width="833.6011" x="6" y="91"/><ellipse cx="254.0862" cy="112.344" fill="#ADD1B2" rx="11" ry="11" style="stroke:#181818;stroke-width:1;"/><path d="M257.0549,117.9846 Q256.4768,118.2815 255.8362,118.4221 Q255.1956,118.5783 254.4924,118.5783 Q251.9924,118.5783 250.6643,116.9377 Q249.3518,115.2815 249.3518,112.1565 Q249.3518,109.0315 250.6643,107.3752 Q251.9924,105.719 254.4924,105.719 Q255.1956,105.719 255.8362,105.8752 Q256.4924,106.0315 257.0549,106.3283 L257.0549,109.0471 Q256.4299,108.469 255.8362,108.2033 Q255.2424,107.9221 254.6174,107.9221 Q253.2737,107.9221 252.5862,109.0002 Q251.8987,110.0627 251.8987,112.1565 Q251.8987,114.2502 252.5862,115.3283 Q253.2737,116.3908 254.6174,116.3908 Q255.2424,116.3908 255.8362,116.1252 Q256.4299,115.844 257.0549,115.2658 L257.0549,117.9846 Z " fill="#000000"/><text fill="#000000" font-family="sans-serif" font-size="14" lengthAdjust="spacing" textLength="328.9288" x="274.5862" y="110.9659">ViewRiksdagenCommitteeBallotDecisionSummary</text><text fill="#000000" font-family="sans-serif" font-size="10" lengthAdjust="spacing" textLength="298.4498" x="289.8257" y="125.7579">com.hack23.cia.model.internal.application.data.committee.impl</text><line style="stroke:#181818;stroke-width:0.5;" x1="7" x2="838.6011" y1="133.6879" y2="133.6879"/><polygon fill="none" points="17,143.7219,21,147.7219,17,151.7219,13,147.7219" style="stroke:#B38D22;stroke-width:1;"/><text fill="#000000" font-family="sans-serif" font-size="14" lengthAdjust="spacing" textLength="442.0623" x="26" y="152.6538">embeddedId: ViewRiksdagenCommitteeBallotDecisionEmbeddedId</text><polygon fill="none" points="17,162.7898,21,166.7898,17,170.7898,13,166.7898" style="stroke:#B38D22;stroke-width:1;"/><text fill="#000000" font-family="sans-serif" font-size="14" lengthAdjust="spacing" textLength="162.1894" x="26" y="171.7218">committeeReport: String</text><polygon fill="none" points="17,181.8577,21,185.8577,17,189.8577,13,185.8577" style="stroke:#B38D22;stroke-width:1;"/><text fill="#000000" font-family="sans-serif" font-size="14" lengthAdjust="spacing" textLength="65.6598" x="26" y="190.7897">rm: String</text><polygon fill="none" points="17,200.9256,21,204.9256,17,208.9256,13,204.9256" style="stroke:#B38D22;stroke-width:1;"/><text fill="#000000" font-family="sans-serif" font-size="14" lengthAdjust="spacing" textLength="72.0157" x="26" y="209.8576">title: String</text><polygon fill="none" points="17,219.9935,21,223.9935,17,227.9935,13,223.9935" style="stroke:#B38D22;stroke-width:1;"/><text fill="#000000" font-family="sans-serif" font-size="14" lengthAdjust="spacing" textLength="98.7136" x="26" y="228.9255">subTitle: String</text><polygon fill="none" points="17,239.0614,21,243.0614,17,247.0614,13,243.0614" style="stroke:#B38D22;stroke-width:1;"/><text fill="#000000" font-family="sans-serif" font-size="14" lengthAdjust="spacing" textLength="161.5453" x="26" y="247.9934">endNumber: BigDecimal</text><polygon fill="none" points="17,258.1294,21,262.1294,17,266.1294,13,262.1294" style="stroke:#B38D22;stroke-width:1;"/><text fill="#000000" font-family="sans-serif" font-size="14" lengthAdjust="spacing" textLength="69.6497" x="26" y="267.0613">org: String</text><polygon fill="none" points="17,277.1973,21,281.1973,17,285.1973,13,281.1973" style="stroke:#B38D22;stroke-width:1;"/><text fill="#000000" font-family="sans-serif" font-size="14" lengthAdjust="spacing" textLength="119.2515" x="26" y="286.1293">createdDate: Date</text><polygon fill="none" points="17,296.2652,21,300.2652,17,304.2652,13,300.2652" style="stroke:#B38D22;stroke-width:1;"/><text fill="#000000" font-family="sans-serif" font-size="14" lengthAdjust="spacing" textLength="109.2556" x="26" y="305.1972">publicDate: Date</text><polygon fill="none" points="17,315.3331,21,319.3331,17,323.3331,13,319.3331" style="stroke:#B38D22;stroke-width:1;"/><text fill="#000000" font-family="sans-serif" font-size="14" lengthAdjust="spacing" textLength="97.3557" x="26" y="324.2651">ballotId: String</text><polygon fill="none" points="17,334.401,21,338.401,17,342.401,13,338.401" style="stroke:#B38D22;stroke-width:1;"/><text fill="#000000" font-family="sans-serif" font-size="14" lengthAdjust="spacing" textLength="132.4955" x="26" y="343.333">decisionType: String</text><polygon fill="none" points="17,353.4689,21,357.4689,17,361.4689,13,357.4689" style="stroke:#B38D22;stroke-width:1;"/><text fill="#000000" font-family="sans-serif" font-size="14" lengthAdjust="spacing" textLength="198.4773" x="26" y="362.4009">againstProposalParties: String</text><polygon fill="none" points="17,372.5369,21,376.5369,17,380.5369,13,376.5369" style="stroke:#B38D22;stroke-width:1;"/><text fill="#000000" font-family="sans-serif" font-size="14" lengthAdjust="spacing" textLength="242.7031" x="26" y="381.4688">againstProposalNumber: BigDecimal</text><polygon fill="none" points="17,391.6048,21,395.6048,17,399.6048,13,395.6048" style="stroke:#B38D22;stroke-width:1;"/><text fill="#000000" font-family="sans-serif" font-size="14" lengthAdjust="spacing" textLength="92.3856" x="26" y="400.5368">winner: String</text><polygon fill="none" points="17,410.6727,21,414.6727,17,418.6727,13,414.6727" style="stroke:#B38D22;stroke-width:1;"/><text fill="#000000" font-family="sans-serif" font-size="14" lengthAdjust="spacing" textLength="115.4296" x="26" y="419.6047">ballotType: String</text><polygon fill="none" points="17,429.7406,21,433.7406,17,437.7406,13,433.7406" style="stroke:#B38D22;stroke-width:1;"/><text fill="#000000" font-family="sans-serif" font-size="14" lengthAdjust="spacing" textLength="78.3717" x="26" y="438.6726">label: String</text><polygon fill="none" points="17,448.8085,21,452.8085,17,456.8085,13,452.8085" style="stroke:#B38D22;stroke-width:1;"/><text fill="#000000" font-family="sans-serif" font-size="14" lengthAdjust="spacing" textLength="97.9716" x="26" y="457.7405">voteDate: Date</text><polygon fill="none" points="17,467.8764,21,471.8764,17,475.8764,13,471.8764" style="stroke:#B38D22;stroke-width:1;"/><text fill="#000000" font-family="sans-serif" font-size="14" lengthAdjust="spacing" textLength="166.7533" x="26" y="476.8084">avgBornYear: BigDecimal</text><polygon fill="none" points="17,486.9444,21,490.9444,17,494.9444,13,490.9444" style="stroke:#B38D22;stroke-width:1;"/><text fill="#000000" font-family="sans-serif" font-size="14" lengthAdjust="spacing" textLength="103.3056" x="26" y="495.8763">totalVotes: long</text><polygon fill="none" points="17,506.0123,21,510.0123,17,514.0123,13,510.0123" style="stroke:#B38D22;stroke-width:1;"/><text fill="#000000" font-family="sans-serif" font-size="14" lengthAdjust="spacing" textLength="95.0036" x="26" y="514.9443">yesVotes: long</text><polygon fill="none" points="17,525.0802,21,529.0802,17,533.0802,13,529.0802" style="stroke:#B38D22;stroke-width:1;"/><text fill="#000000" font-family="sans-serif" font-size="14" lengthAdjust="spacing" textLength="90.3837" x="26" y="534.0122">noVotes: long</text><polygon fill="none" points="17,544.1481,21,548.1481,17,552.1481,13,548.1481" style="stroke:#B38D22;stroke-width:1;"/><text fill="#000000" font-family="sans-serif" font-size="14" lengthAdjust="spacing" textLength="121.6035" x="26" y="553.0801">abstainVotes: long</text><polygon fill="none" points="17,563.216,21,567.216,17,571.216,13,567.216" style="stroke:#B38D22;stroke-width:1;"/><text fill="#000000" font-family="sans-serif" font-size="14" lengthAdjust="spacing" textLength="118.0336" x="26" y="572.148">absentVotes: long</text><polygon fill="none" points="17,582.284,21,586.284,17,590.284,13,586.284" style="stroke:#B38D22;stroke-width:1;"/><text fill="#000000" font-family="sans-serif" font-size="14" lengthAdjust="spacing" textLength="123.8995" x="26" y="591.2159">approved: boolean</text><polygon fill="none" points="17,601.3519,21,605.3519,17,609.3519,13,605.3519" style="stroke:#B38D22;stroke-width:1;"/><text fill="#000000" font-family="sans-serif" font-size="14" lengthAdjust="spacing" textLength="125.6915" x="26" y="610.2838">noWinner: boolean</text><polygon fill="none" points="17,620.4198,21,624.4198,17,628.4198,13,624.4198" style="stroke:#B38D22;stroke-width:1;"/><text fill="#000000" font-family="sans-serif" font-size="14" lengthAdjust="spacing" textLength="179.2133" x="26" y="629.3518">percentageYes: BigDecimal</text><polygon fill="none" points="17,639.4877,21,643.4877,17,647.4877,13,643.4877" style="stroke:#B38D22;stroke-width:1;"/><text fill="#000000" font-family="sans-serif" font-size="14" lengthAdjust="spacing" textLength="175.7973" x="26" y="648.4197">percentageNo: BigDecimal</text><polygon fill="none" points="17,658.5556,21,662.5556,17,666.5556,13,662.5556" style="stroke:#B38D22;stroke-width:1;"/><text fill="#000000" font-family="sans-serif" font-size="14" lengthAdjust="spacing" textLength="202.5512" x="26" y="667.4876">percentageAbsent: BigDecimal</text><polygon fill="none" points="17,677.6235,21,681.6235,17,685.6235,13,681.6235" style="stroke:#B38D22;stroke-width:1;"/><text fill="#000000" font-family="sans-serif" font-size="14" lengthAdjust="spacing" textLength="206.1212" x="26" y="686.5555">percentageAbstain: BigDecimal</text><polygon fill="none" points="17,696.6915,21,700.6915,17,704.6915,13,700.6915" style="stroke:#B38D22;stroke-width:1;"/><text fill="#000000" font-family="sans-serif" font-size="14" lengthAdjust="spacing" textLength="188.7473" x="26" y="705.6234">percentageMale: BigDecimal</text><line style="stroke:#181818;stroke-width:0.5;" x1="7" x2="838.6011" y1="713.7254" y2="713.7254"/><ellipse cx="17" cy="728.7594" fill="#84BE84" rx="3" ry="3" style="stroke:#038048;stroke-width:1;"/><text fill="#000000" font-family="sans-serif" font-size="14" lengthAdjust="spacing" textLength="471.9102" x="26" y="732.6913">getEmbeddedId(): ViewRiksdagenCommitteeBallotDecisionEmbeddedId</text><ellipse cx="17" cy="747.8273" fill="#84BE84" rx="3" ry="3" style="stroke:#038048;stroke-width:1;"/><text fill="#000000" font-family="sans-serif" font-size="14" lengthAdjust="spacing" textLength="497.8101" x="26" y="751.7593">setEmbeddedId(ViewRiksdagenCommitteeBallotDecisionEmbeddedId): void</text><ellipse cx="17" cy="766.8952" fill="#84BE84" rx="3" ry="3" style="stroke:#038048;stroke-width:1;"/><text fill="#000000" font-family="sans-serif" font-size="14" lengthAdjust="spacing" textLength="194.2773" x="26" y="770.8272">getCommitteeReport(): String</text><ellipse cx="17" cy="785.9631" fill="#84BE84" rx="3" ry="3" style="stroke:#038048;stroke-width:1;"/><text fill="#000000" font-family="sans-serif" font-size="14" lengthAdjust="spacing" textLength="220.1772" x="26" y="789.8951">setCommitteeReport(String): void</text><ellipse cx="17" cy="805.031" fill="#84BE84" rx="3" ry="3" style="stroke:#038048;stroke-width:1;"/><text fill="#000000" font-family="sans-serif" font-size="14" lengthAdjust="spacing" textLength="98.5456" x="26" y="808.963">getRm(): String</text><ellipse cx="17" cy="824.099" fill="#84BE84" rx="3" ry="3" style="stroke:#038048;stroke-width:1;"/><text fill="#000000" font-family="sans-serif" font-size="14" lengthAdjust="spacing" textLength="124.4455" x="26" y="828.0309">setRm(String): void</text><ellipse cx="17" cy="843.1669" fill="#84BE84" rx="3" ry="3" style="stroke:#038048;stroke-width:1;"/><text fill="#000000" font-family="sans-serif" font-size="14" lengthAdjust="spacing" textLength="104.7056" x="26" y="847.0988">getTitle(): String</text><ellipse cx="17" cy="862.2348" fill="#84BE84" rx="3" ry="3" style="stroke:#038048;stroke-width:1;"/><text fill="#000000" font-family="sans-serif" font-size="14" lengthAdjust="spacing" textLength="130.6055" x="26" y="866.1668">setTitle(String): void</text><ellipse cx="17" cy="881.3027" fill="#84BE84" rx="3" ry="3" style="stroke:#038048;stroke-width:1;"/><text fill="#000000" font-family="sans-serif" font-size="14" lengthAdjust="spacing" textLength="129.6535" x="26" y="885.2347">getSubTitle(): String</text><ellipse cx="17" cy="900.3706" fill="#84BE84" rx="3" ry="3" style="stroke:#038048;stroke-width:1;"/><text fill="#000000" font-family="sans-serif" font-size="14" lengthAdjust="spacing" textLength="155.5534" x="26" y="904.3026">setSubTitle(String): void</text><ellipse cx="17" cy="919.4385" fill="#84BE84" rx="3" ry="3" style="stroke:#038048;stroke-width:1;"/><text fill="#000000" font-family="sans-serif" font-size="14" lengthAdjust="spacing" textLength="191.3932" x="26" y="923.3705">getEndNumber(): BigDecimal</text><ellipse cx="17" cy="938.5065" fill="#84BE84" rx="3" ry="3" style="stroke:#038048;stroke-width:1;"/><text fill="#000000" font-family="sans-serif" font-size="14" lengthAdjust="spacing" textLength="217.2931" x="26" y="942.4384">setEndNumber(BigDecimal): void</text><ellipse cx="17" cy="957.5744" fill="#84BE84" rx="3" ry="3" style="stroke:#038048;stroke-width:1;"/><text fill="#000000" font-family="sans-serif" font-size="14" lengthAdjust="spacing" textLength="102.0736" x="26" y="961.5063">getOrg(): String</text><ellipse cx="17" cy="976.6423" fill="#84BE84" rx="3" ry="3" style="stroke:#038048;stroke-width:1;"/><text fill="#000000" font-family="sans-serif" font-size="14" lengthAdjust="spacing" textLength="127.9735" x="26" y="980.5743">setOrg(String): void</text><ellipse cx="17" cy="995.7102" fill="#84BE84" rx="3" ry="3" style="stroke:#038048;stroke-width:1;"/><text fill="#000000" font-family="sans-serif" font-size="14" lengthAdjust="spacing" textLength="151.3394" x="26" y="999.6422">getCreatedDate(): Date</text><ellipse cx="17" cy="1014.7781" fill="#84BE84" rx="3" ry="3" style="stroke:#038048;stroke-width:1;"/><text fill="#000000" font-family="sans-serif" font-size="14" lengthAdjust="spacing" textLength="177.2393" x="26" y="1018.7101">setCreatedDate(Date): void</text><ellipse cx="17" cy="1033.846" fill="#84BE84" rx="3" ry="3" style="stroke:#038048;stroke-width:1;"/><text fill="#000000" font-family="sans-serif" font-size="14" lengthAdjust="spacing" textLength="139.0755" x="26" y="1037.778">getPublicDate(): Date</text><ellipse cx="17" cy="1052.914" fill="#84BE84" rx="3" ry="3" style="stroke:#038048;stroke-width:1;"/><text fill="#000000" font-family="sans-serif" font-size="14" lengthAdjust="spacing" textLength="164.9754" x="26" y="1056.8459">setPublicDate(Date): void</text><ellipse cx="17" cy="1071.9819" fill="#84BE84" rx="3" ry="3" style="stroke:#038048;stroke-width:1;"/><text fill="#000000" font-family="sans-serif" font-size="14" lengthAdjust="spacing" textLength="127.8055" x="26" y="1075.9138">getBallotId(): String</text><ellipse cx="17" cy="1091.0498" fill="#84BE84" rx="3" ry="3" style="stroke:#038048;stroke-width:1;"/><text fill="#000000" font-family="sans-serif" font-size="14" lengthAdjust="spacing" textLength="153.7054" x="26" y="1094.9818">setBallotId(String): void</text><ellipse cx="17" cy="1110.1177" fill="#84BE84" rx="3" ry="3" style="stroke:#038048;stroke-width:1;"/><text fill="#000000" font-family="sans-serif" font-size="14" lengthAdjust="spacing" textLength="164.0654" x="26" y="1114.0497">getDecisionType(): String</text><ellipse cx="17" cy="1129.1856" fill="#84BE84" rx="3" ry="3" style="stroke:#038048;stroke-width:1;"/><text fill="#000000" font-family="sans-serif" font-size="14" lengthAdjust="spacing" textLength="189.9653" x="26" y="1133.1176">setDecisionType(String): void</text><ellipse cx="17" cy="1148.2535" fill="#84BE84" rx="3" ry="3" style="stroke:#038048;stroke-width:1;"/><text fill="#000000" font-family="sans-serif" font-size="14" lengthAdjust="spacing" textLength="229.5292" x="26" y="1152.1855">getAgainstProposalParties(): String</text><ellipse cx="17" cy="1167.3215" fill="#84BE84" rx="3" ry="3" style="stroke:#038048;stroke-width:1;"/><text fill="#000000" font-family="sans-serif" font-size="14" lengthAdjust="spacing" textLength="255.4291" x="26" y="1171.2534">setAgainstProposalParties(String): void</text><ellipse cx="17" cy="1186.3894" fill="#84BE84" rx="3" ry="3" style="stroke:#038048;stroke-width:1;"/><text fill="#000000" font-family="sans-serif" font-size="14" lengthAdjust="spacing" textLength="273.7549" x="26" y="1190.3214">getAgainstProposalNumber(): BigDecimal</text><ellipse cx="17" cy="1205.4573" fill="#84BE84" rx="3" ry="3" style="stroke:#038048;stroke-width:1;"/><text fill="#000000" font-family="sans-serif" font-size="14" lengthAdjust="spacing" textLength="299.6549" x="26" y="1209.3893">setAgainstProposalNumber(BigDecimal): void</text><ellipse cx="17" cy="1224.5252" fill="#84BE84" rx="3" ry="3" style="stroke:#038048;stroke-width:1;"/><text fill="#000000" font-family="sans-serif" font-size="14" lengthAdjust="spacing" textLength="124.3615" x="26" y="1228.4572">getWinner(): String</text><ellipse cx="17" cy="1243.5931" fill="#84BE84" rx="3" ry="3" style="stroke:#038048;stroke-width:1;"/><text fill="#000000" font-family="sans-serif" font-size="14" lengthAdjust="spacing" textLength="150.2614" x="26" y="1247.5251">setWinner(String): void</text><ellipse cx="17" cy="1262.661" fill="#84BE84" rx="3" ry="3" style="stroke:#038048;stroke-width:1;"/><text fill="#000000" font-family="sans-serif" font-size="14" lengthAdjust="spacing" textLength="145.8794" x="26" y="1266.593">getBallotType(): String</text><ellipse cx="17" cy="1281.729" fill="#84BE84" rx="3" ry="3" style="stroke:#038048;stroke-width:1;"/><text fill="#000000" font-family="sans-serif" font-size="14" lengthAdjust="spacing" textLength="171.7793" x="26" y="1285.6609">setBallotType(String): void</text><ellipse cx="17" cy="1300.7969" fill="#84BE84" rx="3" ry="3" style="stroke:#038048;stroke-width:1;"/><text fill="#000000" font-family="sans-serif" font-size="14" lengthAdjust="spacing" textLength="112.0556" x="26" y="1304.7289">getLabel(): String</text><ellipse cx="17" cy="1319.8648" fill="#84BE84" rx="3" ry="3" style="stroke:#038048;stroke-width:1;"/><text fill="#000000" font-family="sans-serif" font-size="14" lengthAdjust="spacing" textLength="137.9555" x="26" y="1323.7968">setLabel(String): void</text><ellipse cx="17" cy="1338.9327" fill="#84BE84" rx="3" ry="3" style="stroke:#038048;stroke-width:1;"/><text fill="#000000" font-family="sans-serif" font-size="14" lengthAdjust="spacing" textLength="129.2195" x="26" y="1342.8647">getVoteDate(): Date</text><ellipse cx="17" cy="1358.0006" fill="#84BE84" rx="3" ry="3" style="stroke:#038048;stroke-width:1;"/><text fill="#000000" font-family="sans-serif" font-size="14" lengthAdjust="spacing" textLength="155.1194" x="26" y="1361.9326">setVoteDate(Date): void</text><ellipse cx="17" cy="1377.0685" fill="#84BE84" rx="3" ry="3" style="stroke:#038048;stroke-width:1;"/><text fill="#000000" font-family="sans-serif" font-size="14" lengthAdjust="spacing" textLength="197.8052" x="26" y="1381.0005">getAvgBornYear(): BigDecimal</text><ellipse cx="17" cy="1396.1365" fill="#84BE84" rx="3" ry="3" style="stroke:#038048;stroke-width:1;"/><text fill="#000000" font-family="sans-serif" font-size="14" lengthAdjust="spacing" textLength="223.7051" x="26" y="1400.0684">setAvgBornYear(BigDecimal): void</text><ellipse cx="17" cy="1415.2044" fill="#84BE84" rx="3" ry="3" style="stroke:#038048;stroke-width:1;"/><text fill="#000000" font-family="sans-serif" font-size="14" lengthAdjust="spacing" textLength="135.9955" x="26" y="1419.1364">getTotalVotes(): long</text><ellipse cx="17" cy="1434.2723" fill="#84BE84" rx="3" ry="3" style="stroke:#038048;stroke-width:1;"/><text fill="#000000" font-family="sans-serif" font-size="14" lengthAdjust="spacing" textLength="161.8954" x="26" y="1438.2043">setTotalVotes(long): void</text><ellipse cx="17" cy="1453.3402" fill="#84BE84" rx="3" ry="3" style="stroke:#038048;stroke-width:1;"/><text fill="#000000" font-family="sans-serif" font-size="14" lengthAdjust="spacing" textLength="125.7475" x="26" y="1457.2722">getYesVotes(): long</text><ellipse cx="17" cy="1472.4081" fill="#84BE84" rx="3" ry="3" style="stroke:#038048;stroke-width:1;"/><text fill="#000000" font-family="sans-serif" font-size="14" lengthAdjust="spacing" textLength="151.6474" x="26" y="1476.3401">setYesVotes(long): void</text><ellipse cx="17" cy="1491.476" fill="#84BE84" rx="3" ry="3" style="stroke:#038048;stroke-width:1;"/><text fill="#000000" font-family="sans-serif" font-size="14" lengthAdjust="spacing" textLength="122.3315" x="26" y="1495.408">getNoVotes(): long</text><ellipse cx="17" cy="1510.544" fill="#84BE84" rx="3" ry="3" style="stroke:#038048;stroke-width:1;"/><text fill="#000000" font-family="sans-serif" font-size="14" lengthAdjust="spacing" textLength="148.2314" x="26" y="1514.4759">setNoVotes(long): void</text><ellipse cx="17" cy="1529.6119" fill="#84BE84" rx="3" ry="3" style="stroke:#038048;stroke-width:1;"/><text fill="#000000" font-family="sans-serif" font-size="14" lengthAdjust="spacing" textLength="152.6554" x="26" y="1533.5439">getAbstainVotes(): long</text><ellipse cx="17" cy="1548.6798" fill="#84BE84" rx="3" ry="3" style="stroke:#038048;stroke-width:1;"/><text fill="#000000" font-family="sans-serif" font-size="14" lengthAdjust="spacing" textLength="178.5553" x="26" y="1552.6118">setAbstainVotes(long): void</text><ellipse cx="17" cy="1567.7477" fill="#84BE84" rx="3" ry="3" style="stroke:#038048;stroke-width:1;"/><text fill="#000000" font-family="sans-serif" font-size="14" lengthAdjust="spacing" textLength="149.0854" x="26" y="1571.6797">getAbsentVotes(): long</text><ellipse cx="17" cy="1586.8156" fill="#84BE84" rx="3" ry="3" style="stroke:#038048;stroke-width:1;"/><text fill="#000000" font-family="sans-serif" font-size="14" lengthAdjust="spacing" textLength="174.9853" x="26" y="1590.7476">setAbsentVotes(long): void</text><ellipse cx="17" cy="1605.8835" fill="#84BE84" rx="3" ry="3" style="stroke:#038048;stroke-width:1;"/><text fill="#000000" font-family="sans-serif" font-size="14" lengthAdjust="spacing" textLength="143.7095" x="26" y="1609.8155">isApproved(): boolean</text><ellipse cx="17" cy="1624.9515" fill="#84BE84" rx="3" ry="3" style="stroke:#038048;stroke-width:1;"/><text fill="#000000" font-family="sans-serif" font-size="14" lengthAdjust="spacing" textLength="180.8513" x="26" y="1628.8834">setApproved(boolean): void</text><ellipse cx="17" cy="1644.0194" fill="#84BE84" rx="3" ry="3" style="stroke:#038048;stroke-width:1;"/><text fill="#000000" font-family="sans-serif" font-size="14" lengthAdjust="spacing" textLength="146.3974" x="26" y="1647.9514">isNoWinner(): boolean</text><ellipse cx="17" cy="1663.0873" fill="#84BE84" rx="3" ry="3" style="stroke:#038048;stroke-width:1;"/><text fill="#000000" font-family="sans-serif" font-size="14" lengthAdjust="spacing" textLength="183.5393" x="26" y="1667.0193">setNoWinner(boolean): void</text><ellipse cx="17" cy="1682.1552" fill="#84BE84" rx="3" ry="3" style="stroke:#038048;stroke-width:1;"/><text fill="#000000" font-family="sans-serif" font-size="14" lengthAdjust="spacing" textLength="209.0332" x="26" y="1686.0872">getPercentageYes(): BigDecimal</text><ellipse cx="17" cy="1701.2231" fill="#84BE84" rx="3" ry="3" style="stroke:#038048;stroke-width:1;"/><text fill="#000000" font-family="sans-serif" font-size="14" lengthAdjust="spacing" textLength="234.9331" x="26" y="1705.1551">setPercentageYes(BigDecimal): void</text><ellipse cx="17" cy="1720.291" fill="#84BE84" rx="3" ry="3" style="stroke:#038048;stroke-width:1;"/><text fill="#000000" font-family="sans-serif" font-size="14" lengthAdjust="spacing" textLength="205.6172" x="26" y="1724.223">getPercentageNo(): BigDecimal</text><ellipse cx="17" cy="1739.359" fill="#84BE84" rx="3" ry="3" style="stroke:#038048;stroke-width:1;"/><text fill="#000000" font-family="sans-serif" font-size="14" lengthAdjust="spacing" textLength="231.5171" x="26" y="1743.2909">setPercentageNo(BigDecimal): void</text><ellipse cx="17" cy="1758.4269" fill="#84BE84" rx="3" ry="3" style="stroke:#038048;stroke-width:1;"/><text fill="#000000" font-family="sans-serif" font-size="14" lengthAdjust="spacing" textLength="232.3711" x="26" y="1762.3589">getPercentageAbsent(): BigDecimal</text><ellipse cx="17" cy="1777.4948" fill="#84BE84" rx="3" ry="3" style="stroke:#038048;stroke-width:1;"/><text fill="#000000" font-family="sans-serif" font-size="14" lengthAdjust="spacing" textLength="258.271" x="26" y="1781.4268">setPercentageAbsent(BigDecimal): void</text><ellipse cx="17" cy="1796.5627" fill="#84BE84" rx="3" ry="3" style="stroke:#038048;stroke-width:1;"/><text fill="#000000" font-family="sans-serif" font-size="14" lengthAdjust="spacing" textLength="235.9411" x="26" y="1800.4947">getPercentageAbstain(): BigDecimal</text><ellipse cx="17" cy="1815.6306" fill="#84BE84" rx="3" ry="3" style="stroke:#038048;stroke-width:1;"/><text fill="#000000" font-family="sans-serif" font-size="14" lengthAdjust="spacing" textLength="261.841" x="26" y="1819.5626">setPercentageAbstain(BigDecimal): void</text><ellipse cx="17" cy="1834.6985" fill="#84BE84" rx="3" ry="3" style="stroke:#038048;stroke-width:1;"/><text fill="#000000" font-family="sans-serif" font-size="14" lengthAdjust="spacing" textLength="218.5671" x="26" y="1838.6305">getPercentageMale(): BigDecimal</text><ellipse cx="17" cy="1853.7665" fill="#84BE84" rx="3" ry="3" style="stroke:#038048;stroke-width:1;"/><text fill="#000000" font-family="sans-serif" font-size="14" lengthAdjust="spacing" textLength="244.467" x="26" y="1857.6984">setPercentageMale(BigDecimal): void</text><ellipse cx="17" cy="1872.8344" fill="#84BE84" rx="3" ry="3" style="stroke:#038048;stroke-width:1;"/><text fill="#000000" font-family="sans-serif" font-size="14" lengthAdjust="spacing" textLength="807.6011" x="26" y="1876.7664">withEmbeddedId(ViewRiksdagenCommitteeBallotDecisionEmbeddedId): ViewRiksdagenCommitteeBallotDecisionSummary</text><ellipse cx="17" cy="1891.9023" fill="#84BE84" rx="3" ry="3" style="stroke:#038048;stroke-width:1;"/><text fill="#000000" font-family="sans-serif" font-size="14" lengthAdjust="spacing" textLength="529.9681" x="26" y="1895.8343">withCommitteeReport(String): ViewRiksdagenCommitteeBallotDecisionSummary</text><ellipse cx="17" cy="1910.9702" fill="#84BE84" rx="3" ry="3" style="stroke:#038048;stroke-width:1;"/><text fill="#000000" font-family="sans-serif" font-size="14" lengthAdjust="spacing" textLength="434.2364" x="26" y="1914.9022">withRm(String): ViewRiksdagenCommitteeBallotDecisionSummary</text><ellipse cx="17" cy="1930.0381" fill="#84BE84" rx="3" ry="3" style="stroke:#038048;stroke-width:1;"/><text fill="#000000" font-family="sans-serif" font-size="14" lengthAdjust="spacing" textLength="440.3964" x="26" y="1933.9701">withTitle(String): ViewRiksdagenCommitteeBallotDecisionSummary</text><ellipse cx="17" cy="1949.106" fill="#84BE84" rx="3" ry="3" style="stroke:#038048;stroke-width:1;"/><text fill="#000000" font-family="sans-serif" font-size="14" lengthAdjust="spacing" textLength="465.3443" x="26" y="1953.038">withSubTitle(String): ViewRiksdagenCommitteeBallotDecisionSummary</text><ellipse cx="17" cy="1968.174" fill="#84BE84" rx="3" ry="3" style="stroke:#038048;stroke-width:1;"/><text fill="#000000" font-family="sans-serif" font-size="14" lengthAdjust="spacing" textLength="527.084" x="26" y="1972.1059">withEndNumber(BigDecimal): ViewRiksdagenCommitteeBallotDecisionSummary</text><ellipse cx="17" cy="1987.2419" fill="#84BE84" rx="3" ry="3" style="stroke:#038048;stroke-width:1;"/><text fill="#000000" font-family="sans-serif" font-size="14" lengthAdjust="spacing" textLength="437.7643" x="26" y="1991.1739">withOrg(String): ViewRiksdagenCommitteeBallotDecisionSummary</text><ellipse cx="17" cy="2006.3098" fill="#84BE84" rx="3" ry="3" style="stroke:#038048;stroke-width:1;"/><text fill="#000000" font-family="sans-serif" font-size="14" lengthAdjust="spacing" textLength="487.0302" x="26" y="2010.2418">withCreatedDate(Date): ViewRiksdagenCommitteeBallotDecisionSummary</text><ellipse cx="17" cy="2025.3777" fill="#84BE84" rx="3" ry="3" style="stroke:#038048;stroke-width:1;"/><text fill="#000000" font-family="sans-serif" font-size="14" lengthAdjust="spacing" textLength="474.7662" x="26" y="2029.3097">withPublicDate(Date): ViewRiksdagenCommitteeBallotDecisionSummary</text><ellipse cx="17" cy="2044.4456" fill="#84BE84" rx="3" ry="3" style="stroke:#038048;stroke-width:1;"/><text fill="#000000" font-family="sans-serif" font-size="14" lengthAdjust="spacing" textLength="463.4963" x="26" y="2048.3776">withBallotId(String): ViewRiksdagenCommitteeBallotDecisionSummary</text><ellipse cx="17" cy="2063.5135" fill="#84BE84" rx="3" ry="3" style="stroke:#038048;stroke-width:1;"/><text fill="#000000" font-family="sans-serif" font-size="14" lengthAdjust="spacing" textLength="499.7562" x="26" y="2067.4455">withDecisionType(String): ViewRiksdagenCommitteeBallotDecisionSummary</text><ellipse cx="17" cy="2082.5815" fill="#84BE84" rx="3" ry="3" style="stroke:#038048;stroke-width:1;"/><text fill="#000000" font-family="sans-serif" font-size="14" lengthAdjust="spacing" textLength="565.2199" x="26" y="2086.5134">withAgainstProposalParties(String): ViewRiksdagenCommitteeBallotDecisionSummary</text><ellipse cx="17" cy="2101.6494" fill="#84BE84" rx="3" ry="3" style="stroke:#038048;stroke-width:1;"/><text fill="#000000" font-family="sans-serif" font-size="14" lengthAdjust="spacing" textLength="609.4457" x="26" y="2105.5814">withAgainstProposalNumber(BigDecimal): ViewRiksdagenCommitteeBallotDecisionSummary</text><ellipse cx="17" cy="2120.7173" fill="#84BE84" rx="3" ry="3" style="stroke:#038048;stroke-width:1;"/><text fill="#000000" font-family="sans-serif" font-size="14" lengthAdjust="spacing" textLength="460.0523" x="26" y="2124.6493">withWinner(String): ViewRiksdagenCommitteeBallotDecisionSummary</text><ellipse cx="17" cy="2139.7852" fill="#84BE84" rx="3" ry="3" style="stroke:#038048;stroke-width:1;"/><text fill="#000000" font-family="sans-serif" font-size="14" lengthAdjust="spacing" textLength="481.5703" x="26" y="2143.7172">withBallotType(String): ViewRiksdagenCommitteeBallotDecisionSummary</text><ellipse cx="17" cy="2158.8531" fill="#84BE84" rx="3" ry="3" style="stroke:#038048;stroke-width:1;"/><text fill="#000000" font-family="sans-serif" font-size="14" lengthAdjust="spacing" textLength="447.7463" x="26" y="2162.7851">withLabel(String): ViewRiksdagenCommitteeBallotDecisionSummary</text><ellipse cx="17" cy="2177.9211" fill="#84BE84" rx="3" ry="3" style="stroke:#038048;stroke-width:1;"/><text fill="#000000" font-family="sans-serif" font-size="14" lengthAdjust="spacing" textLength="464.9103" x="26" y="2181.853">withVoteDate(Date): ViewRiksdagenCommitteeBallotDecisionSummary</text><ellipse cx="17" cy="2196.989" fill="#84BE84" rx="3" ry="3" style="stroke:#038048;stroke-width:1;"/><text fill="#000000" font-family="sans-serif" font-size="14" lengthAdjust="spacing" textLength="533.496" x="26" y="2200.9209">withAvgBornYear(BigDecimal): ViewRiksdagenCommitteeBallotDecisionSummary</text><ellipse cx="17" cy="2216.0569" fill="#84BE84" rx="3" ry="3" style="stroke:#038048;stroke-width:1;"/><text fill="#000000" font-family="sans-serif" font-size="14" lengthAdjust="spacing" textLength="471.6863" x="26" y="2219.9889">withTotalVotes(long): ViewRiksdagenCommitteeBallotDecisionSummary</text><ellipse cx="17" cy="2235.1248" fill="#84BE84" rx="3" ry="3" style="stroke:#038048;stroke-width:1;"/><text fill="#000000" font-family="sans-serif" font-size="14" lengthAdjust="spacing" textLength="461.4383" x="26" y="2239.0568">withYesVotes(long): ViewRiksdagenCommitteeBallotDecisionSummary</text><ellipse cx="17" cy="2254.1927" fill="#84BE84" rx="3" ry="3" style="stroke:#038048;stroke-width:1;"/><text fill="#000000" font-family="sans-serif" font-size="14" lengthAdjust="spacing" textLength="458.0223" x="26" y="2258.1247">withNoVotes(long): ViewRiksdagenCommitteeBallotDecisionSummary</text><ellipse cx="17" cy="2273.2606" fill="#84BE84" rx="3" ry="3" style="stroke:#038048;stroke-width:1;"/><text fill="#000000" font-family="sans-serif" font-size="14" lengthAdjust="spacing" textLength="488.3463" x="26" y="2277.1926">withAbstainVotes(long): ViewRiksdagenCommitteeBallotDecisionSummary</text><ellipse cx="17" cy="2292.3286" fill="#84BE84" rx="3" ry="3" style="stroke:#038048;stroke-width:1;"/><text fill="#000000" font-family="sans-serif" font-size="14" lengthAdjust="spacing" textLength="484.7762" x="26" y="2296.2605">withAbsentVotes(long): ViewRiksdagenCommitteeBallotDecisionSummary</text><ellipse cx="17" cy="2311.3965" fill="#84BE84" rx="3" ry="3" style="stroke:#038048;stroke-width:1;"/><text fill="#000000" font-family="sans-serif" font-size="14" lengthAdjust="spacing" textLength="490.6422" x="26" y="2315.3284">withApproved(boolean): ViewRiksdagenCommitteeBallotDecisionSummary</text><ellipse cx="17" cy="2330.4644" fill="#84BE84" rx="3" ry="3" style="stroke:#038048;stroke-width:1;"/><text fill="#000000" font-family="sans-serif" font-size="14" lengthAdjust="spacing" textLength="493.3302" x="26" y="2334.3964">withNoWinner(boolean): ViewRiksdagenCommitteeBallotDecisionSummary</text><ellipse cx="17" cy="2349.5323" fill="#84BE84" rx="3" ry="3" style="stroke:#038048;stroke-width:1;"/><text fill="#000000" font-family="sans-serif" font-size="14" lengthAdjust="spacing" textLength="544.7239" x="26" y="2353.4643">withPercentageYes(BigDecimal): ViewRiksdagenCommitteeBallotDecisionSummary</text><ellipse cx="17" cy="2368.6002" fill="#84BE84" rx="3" ry="3" style="stroke:#038048;stroke-width:1;"/><text fill="#000000" font-family="sans-serif" font-size="14" lengthAdjust="spacing" textLength="541.3079" x="26" y="2372.5322">withPercentageNo(BigDecimal): ViewRiksdagenCommitteeBallotDecisionSummary</text><ellipse cx="17" cy="2387.6681" fill="#84BE84" rx="3" ry="3" style="stroke:#038048;stroke-width:1;"/><text fill="#000000" font-family="sans-serif" font-size="14" lengthAdjust="spacing" textLength="568.0618" x="26" y="2391.6001">withPercentageAbsent(BigDecimal): ViewRiksdagenCommitteeBallotDecisionSummary</text><ellipse cx="17" cy="2406.7361" fill="#84BE84" rx="3" ry="3" style="stroke:#038048;stroke-width:1;"/><text fill="#000000" font-family="sans-serif" font-size="14" lengthAdjust="spacing" textLength="571.6319" x="26" y="2410.668">withPercentageAbstain(BigDecimal): ViewRiksdagenCommitteeBallotDecisionSummary</text><ellipse cx="17" cy="2425.804" fill="#84BE84" rx="3" ry="3" style="stroke:#038048;stroke-width:1;"/><text fill="#000000" font-family="sans-serif" font-size="14" lengthAdjust="spacing" textLength="554.2579" x="26" y="2429.7359">withPercentageMale(BigDecimal): ViewRiksdagenCommitteeBallotDecisionSummary</text></a></g><!--class com.hack23.cia.model.common.api.ModelObject--><g class="entity" data-entity="com.hack23.cia.model.common.api.ModelObject" data-source-line="136" data-uid="ent0003" id="entity_com.hack23.cia.model.common.api.ModelObject"><rect fill="#F1F1F1" height="42.6879" rx="2.5" ry="2.5" style="stroke:#181818;stroke-width:0.5;" width="189.3398" x="328.5" y="12"/><ellipse cx="343.5" cy="33.344" fill="#B4A7E5" rx="11" ry="11" style="stroke:#181818;stroke-width:1;"/><path d="M339.4219,29.1096 L339.4219,26.9533 L346.8125,26.9533 L346.8125,29.1096 L344.3438,29.1096 L344.3438,37.1877 L346.8125,37.1877 L346.8125,39.344 L339.4219,39.344 L339.4219,37.1877 L341.8906,37.1877 L341.8906,29.1096 L339.4219,29.1096 Z " fill="#000000"/><text fill="#000000" font-family="sans-serif" font-size="14" font-style="italic" lengthAdjust="spacing" textLength="78.1477" x="397.096" y="31.9659">ModelObject</text><text fill="#000000" font-family="sans-serif" font-size="10" font-style="italic" lengthAdjust="spacing" textLength="157.3398" x="357.5" y="46.7579">com.hack23.cia.model.common.api</text></g><g class="link" data-entity-1="com.hack23.cia.model.common.api.ModelObject" data-entity-2="com.hack23.cia.model.internal.application.data.committee.impl.ViewRiksdagenCommitteeBallotDecisionSummary" data-uid="lnk4" id="link_com.hack23.cia.model.common.api.ModelObject_com.hack23.cia.model.internal.application.data.committee.impl.ViewRiksdagenCommitteeBallotDecisionSummary"><polygon fill="none" points="423,55.0603,417,73.0603,429,73.0603,423,55.0603" style="stroke:#181818;stroke-width:1;"/><path d="M423,73.0603 C423,82.238 423,76.311 423,90.9186" fill="none" style="stroke:#181818;stroke-width:1;stroke-dasharray:7,7;"/></g><g class="footer" data-source-line="146"><text fill="#888888" font-family="sans-serif" font-size="10" lengthAdjust="spacing" textLength="2.6" x="418.2" y="2442.69">&#160;</text><a href="https://github.com/talsma-ict/umldoclet" target="_top" title="https://github.com/talsma-ict/umldoclet" xlink:actuate="onRequest" xlink:href="https://github.com/talsma-ict/umldoclet" xlink:show="new" xlink:title="https://github.com/talsma-ict/umldoclet" xlink:type="simple"><text fill="#888888" font-family="sans-serif" font-size="10" lengthAdjust="spacing" textLength="76.7199" x="381.14" y="2456.31">UMLDoclet 2.2.4</text></a></g><!--SRC=[lPdVK-Cs4CVVxwzGxnxA3OTnKc2E3CDC24nx7U0OoD5XE1uKUt5KPCcLv31fU_zx9TlOZYqbmMIQXp3HT_UZrG-l5XaXX7v68vxC1Occ2YcEr9H8zEtY764MeWWO2AmWH2J64KWq0SfP97D3G3XLKouGVyn-1Lm8a0bd8M4H-XtFC98y5G58xzqxb7KrVg4_OrcZJ-QcyPG751JQ6dsiXTJtUmSxVRz_WCQOoXYZBwEnLz0gdxxNz_QGPbCI09CQcR8GH1RMCC61_dEUAv_G38Gad6aVl-2OeGQSAKoOH0aMIfeXNL7Cb8crv-d-zxsUZxQ6D-UBmVc7MN2Vq50md8Recl-LbkFzAH4uqY5JFEUfGZ86XHdEDQcZPZZMyuK3k07TArPwAXbdaEbJ4WA2E55pz4Y0XhBPgc5Jhfkpze1YAT7x8qd-Xa5lx_YMmFCrUPAXNZKsud5Cb08umPHoTGe1CHDmayOn5lFlhF3oZmCUUrCSFFL_yGA2lPY7G3t25EYnKGydYPvThBIh5sA5lU25wv4ueU-HNj8t4RnNH8tkxrzXxKrLJ1yUq3_PP9dF1uWd48OGVWa7Q1tIMMbVCShmho7XGWtGZH9wwrS68cwtAQ8ej9jbEXdR5M3XPQfx5mDqGY8JJunf9NCHjNq20UR1EjLV0sI-Aob99teHRCea6x2Pa2OkB2PXF4yi0UB8F3ZgIl24Iqolz0D4GAwqMpQePyAOqPg8F4Hx61JhxDHkdd45jj7YMNJ21Ri3x8X1SONfhVRMGp5PhrBc8AtjZ5kRyKIQrEBIW2cxb2I2pq0lnuHp2fZLE_gZcA2Mb81Ek3gLHN1daBQ1LIQNV9N5C8jl3IipmbLc5zZiRulDTWIgUi2sFdP-9BVb0kXr5DtjZ9Dm8QhHuYDkGcjiCDDbqoetiV6kOmT22swlB3Cu77FDxNjJ91Q7Uocx2MSl2SWWRAidwpQLWOtrLKIEG8pYZc5K9JJZl_0ePojGqysNZN5LPZuheYQx22T5XdGCePJTupYjPL87PS74JHfQiww3wJ1Ucxvo_Utso_T2diCS4HUYEyAJyYXOkXehPl7S71eEGAwvVM-BayMwcqhHjPU6rVcpR5vhLijdSrmULmQtS9HaQQAIZMOZt1N7cjM_55tUbzpj_AAvV8Ur4z8AM31OGdavIrsGKhSoY1mMPwxnRnwj6U95BqGBuf9N-zg6A7KNmcIg-Y6-P7SisYtV7rUrKtyjf3PRbvZFx5hKmlGLPBFmww8pstNPfXnP2vmPBg4-4pLzIzNnYlza5ZjrrXsTYVKof3EaKL1qvhHhayueHttIcRTGhNHVltRLqfdLBbywezfrJ6UKlPZfZ5jLnsmAlD6zqYnbthWk6vhAHdNJcTCiTBelWQlKwPw7MZLFPrIp_EaCQfH2tMVBKX6z1TQiZBgpsYNI6oQhLIjrpu_kMca3p6Qnj06ahLBQ3BPT9Ms0sowINWlzaTzbPzV5ZpY0sdtsXRb8_Zhv4mArwhxQNCfovk64k6-aAnklHYwkqjTtG4V_Ujx_T-UTntSarPp2SRaCZrm_jg9sjMq-l-apGfmJzZJYb0lquRDT_MPUab32O3mbmHC3AP5VMlx8kzkjzLVqzPtTtq-LIkHWTpVIco2Tc57jgkm5pGu9r6uQqp1_CzDuH_FmKBnp-RLy-MFUd-pu_Ht_SEpl3_p-OE-pTzWxx1ti-_t3RRytyFtxirGVpB1xetZmDEKqVlWF]--></g></svg>