<svg xmlns="http://www.w3.org/2000/svg" xmlns:xlink="http://www.w3.org/1999/xlink" contentStyleType="text/css" height="236px" preserveAspectRatio="none" style="width:543px;height:236px;background:#FFFFFF;" version="1.1" viewBox="0 0 543 236" width="543px" zoomAndPan="magnify"><defs/><g><!--class com.hack23.cia.web.impl.ui.application.views.user.party.pagemode.PartyRankingCurrentPartiesLeaderScoreboardPageModContentFactoryImpl--><a href="PartyRankingCurrentPartiesLeaderScoreboardPageModContentFactoryImpl.html" target="_top" title="PartyRankingCurrentPartiesLeaderScoreboardPageModContentFactoryImpl.html" xlink:actuate="onRequest" xlink:href="PartyRankingCurrentPartiesLeaderScoreboardPageModContentFactoryImpl.html" xlink:show="new" xlink:title="PartyRankingCurrentPartiesLeaderScoreboardPageModContentFactoryImpl.html" xlink:type="simple"><g id="elem_com.hack23.cia.web.impl.ui.application.views.user.party.pagemode.PartyRankingCurrentPartiesLeaderScoreboardPageModContentFactoryImpl"><rect codeLine="13" fill="#F1F1F1" height="115.8917" id="com.hack23.cia.web.impl.ui.application.views.user.party.pagemode.PartyRankingCurrentPartiesLeaderScoreboardPageModContentFactoryImpl" rx="2.5" ry="2.5" style="stroke:#181818;stroke-width:0.5;" width="530.7342" x="6" y="91"/><ellipse cx="21" cy="112.344" fill="#ADD1B2" rx="11" ry="11" style="stroke:#181818;stroke-width:1.0;"/><path d="M23.9688,117.9846 Q23.3906,118.2815 22.75,118.4221 Q22.1094,118.5783 21.4063,118.5783 Q18.9063,118.5783 17.5781,116.9377 Q16.2656,115.2815 16.2656,112.1565 Q16.2656,109.0315 17.5781,107.3752 Q18.9063,105.719 21.4063,105.719 Q22.1094,105.719 22.75,105.8752 Q23.4063,106.0315 23.9688,106.3283 L23.9688,109.0471 Q23.3438,108.469 22.75,108.2033 Q22.1563,107.9221 21.5313,107.9221 Q20.1875,107.9221 19.5,109.0002 Q18.8125,110.0627 18.8125,112.1565 Q18.8125,114.2502 19.5,115.3283 Q20.1875,116.3908 21.5313,116.3908 Q22.1563,116.3908 22.75,116.1252 Q23.3438,115.844 23.9688,115.2658 L23.9688,117.9846 Z " fill="#000000"/><text fill="#000000" font-family="sans-serif" font-size="14" lengthAdjust="spacing" textLength="498.7342" x="35" y="110.9659">PartyRankingCurrentPartiesLeaderScoreboardPageModContentFactoryImpl</text><text fill="#000000" font-family="sans-serif" font-size="10" lengthAdjust="spacing" textLength="316.3597" x="126.1873" y="125.7579">com.hack23.cia.web.impl.ui.application.views.user.party.pagemode</text><line style="stroke:#181818;stroke-width:0.5;" x1="7" x2="535.7342" y1="133.6879" y2="133.6879"/><ellipse cx="17" cy="148.7219" fill="none" rx="3" ry="3" style="stroke:#038048;stroke-width:1.0;"/><text fill="#000000" font-family="sans-serif" font-size="14" lengthAdjust="spacing" text-decoration="underline" textLength="86.8557" x="26" y="152.6538">NAME: String</text><line style="stroke:#181818;stroke-width:0.5;" x1="7" x2="535.7342" y1="160.7558" y2="160.7558"/><ellipse cx="17" cy="175.7898" fill="#84BE84" rx="3" ry="3" style="stroke:#038048;stroke-width:1.0;"/><text fill="#000000" font-family="sans-serif" font-size="14" lengthAdjust="spacing" textLength="305.4228" x="26" y="179.7218">createContent(String, MenuBar, Panel): Layout</text><ellipse cx="17" cy="194.8577" fill="#84BE84" rx="3" ry="3" style="stroke:#038048;stroke-width:1.0;"/><text fill="#000000" font-family="sans-serif" font-size="14" lengthAdjust="spacing" textLength="211.5112" x="26" y="198.7897">matches(String, String): boolean</text></g></a><!--class com.hack23.cia.web.impl.ui.application.views.common.pagemode.AbstractBasicPageModContentFactoryImpl--><a href="../../../common/pagemode/AbstractBasicPageModContentFactoryImpl.html" target="_top" title="../../../common/pagemode/AbstractBasicPageModContentFactoryImpl.html" xlink:actuate="onRequest" xlink:href="../../../common/pagemode/AbstractBasicPageModContentFactoryImpl.html" xlink:show="new" xlink:title="../../../common/pagemode/AbstractBasicPageModContentFactoryImpl.html" xlink:type="simple"><g id="elem_com.hack23.cia.web.impl.ui.application.views.common.pagemode.AbstractBasicPageModContentFactoryImpl"><rect codeLine="19" fill="#F1F1F1" height="42.6879" id="com.hack23.cia.web.impl.ui.application.views.common.pagemode.AbstractBasicPageModContentFactoryImpl" rx="2.5" ry="2.5" style="stroke:#181818;stroke-width:0.5;" width="325.0197" x="109" y="12"/><ellipse cx="124" cy="33.344" fill="#A9DCDF" rx="11" ry="11" style="stroke:#181818;stroke-width:1.0;"/><path d="M124.1094,28.6877 L122.9531,33.7658 L125.2813,33.7658 L124.1094,28.6877 Z M122.625,26.4533 L125.6094,26.4533 L128.9688,38.844 L126.5156,38.844 L125.75,35.7815 L122.4688,35.7815 L121.7188,38.844 L119.2813,38.844 L122.625,26.4533 Z " fill="#000000"/><text fill="#000000" font-family="sans-serif" font-size="14" font-style="italic" lengthAdjust="spacing" textLength="264.991" x="152.0143" y="31.9659">AbstractBasicPageModContentFactoryImpl</text><text fill="#000000" font-family="sans-serif" font-size="10" font-style="italic" lengthAdjust="spacing" textLength="293.0197" x="138" y="46.7579">com.hack23.cia.web.impl.ui.application.views.common.pagemode</text></g></a><polygon fill="none" points="271.5,55.054,265.5,73.054,277.5,73.054,271.5,55.054" style="stroke:#181818;stroke-width:1.0;"/><path d="M271.5,73.054 C271.5,83.1473 271.5,77.8625 271.5,90.62 " fill="none" style="stroke:#181818;stroke-width:1.0;"/><text fill="#888888" font-family="sans-serif" font-size="10" lengthAdjust="spacing" textLength="2.6" x="266.7" y="211.69">&#160;</text><a href="https://github.com/talsma-ict/umldoclet" target="_top" title="https://github.com/talsma-ict/umldoclet" xlink:actuate="onRequest" xlink:href="https://github.com/talsma-ict/umldoclet" xlink:show="new" xlink:title="https://github.com/talsma-ict/umldoclet" xlink:type="simple"><text fill="#888888" font-family="sans-serif" font-size="10" lengthAdjust="spacing" textLength="76.7199" x="229.64" y="225.31">UMLDoclet 2.2.1</text></a><!--SRC=[pLLHJzj037xdLtZiOI3QIve1WmeXbOvjJ6L259uA3-x5DATUxhAx2oXZ_FSvIIcCxG5jQ5fKDOhj-_pPd-C00Bo1eIqgfsPPW60XPCh3-V48qAGm8qCE0wMWSfoHXobfQsQ-3IJ0CcJMWRrgdgHrZdnXJQhC33xZDOAtfPFanSeADAdExj5lq3z2drQryRsLcWAi3TSVKKhYtdOtYPDDE4FjSuIZuPbOe3sSIKGYUi3OMaaodY5Bav9hQ0qAb7mRjPuEN9FpoXe-4ozmwbAbDG6LyL2W2xukwKIZ2JNNdgZpYtUmDXYFVkOMxpRSEZ1m1iiKJktNSbdkgyBXZ1bhh6mPmESKq63hyqpQOCxjGabZugGOk9F66chycKe9A2z21LUATEgVMXaiisnkx5AZzx2wvzKtwlSszq-uXkeKpPo569QiYWcrIP4V4N9VnYmLJIswz8HbFRRfaAlde0yecKLrb1VwmYpGudrfSv6Xd2TlXLGeRcWg54U8KWai2kuu1kwdk5PquqNfoOcwXnN_poYtAQq2Y_st8E85QeB9v0LGH1PoVNa9jqthw-lM1sOlxs3Zo-3ui0_Zu1X-wTwGZdZC5qXhhRS3nsJA0tGTE453UhqFesPE7exb67Xm_V90U-V0gRMQq3IHT-q4uDG7nnn_6ON1md60NiaNLvk3StxuSwMV08ZdqMKXXOZQNuiGtID4pqDOYBXuVVu1uxtltUv_yHAq9U_vK6dQNmxRbRM1z-N3JDVNfweWDr9cFhIQbzFhdTzxp-jLgvKXtkvoReZdBrv6thNfeaVv5hakp6IIXL3uVXJDLCZAQTtRA3HhlgjaYCfSf-r-VxBfMRXsStzSVaBgDTpj9TravwotrT_Qxc_kYhYtasnl9xlnHjphn_7ai7Ise6WSh9ndLkUNFm00]--></g></svg>