<svg xmlns="http://www.w3.org/2000/svg" xmlns:xlink="http://www.w3.org/1999/xlink" contentStyleType="text/css" height="236px" preserveAspectRatio="none" style="width:453px;height:236px;background:#FFFFFF;" version="1.1" viewBox="0 0 453 236" width="453px" zoomAndPan="magnify"><defs/><g><!--class com.hack23.cia.web.impl.ui.application.views.user.party.pagemode.PartyWonDailySummaryChartPageModContentFactoryImpl--><a href="PartyWonDailySummaryChartPageModContentFactoryImpl.html" target="_top" title="PartyWonDailySummaryChartPageModContentFactoryImpl.html" xlink:actuate="onRequest" xlink:href="PartyWonDailySummaryChartPageModContentFactoryImpl.html" xlink:show="new" xlink:title="PartyWonDailySummaryChartPageModContentFactoryImpl.html" xlink:type="simple"><g id="elem_com.hack23.cia.web.impl.ui.application.views.user.party.pagemode.PartyWonDailySummaryChartPageModContentFactoryImpl"><rect codeLine="13" fill="#F1F1F1" height="88.8237" id="com.hack23.cia.web.impl.ui.application.views.user.party.pagemode.PartyWonDailySummaryChartPageModContentFactoryImpl" rx="2.5" ry="2.5" style="stroke:#181818;stroke-width:0.5;" width="421.9406" x="13" y="118"/><ellipse cx="28" cy="139.344" fill="#ADD1B2" rx="11" ry="11" style="stroke:#181818;stroke-width:1.0;"/><path d="M30.9688,144.9846 Q30.3906,145.2815 29.75,145.4221 Q29.1094,145.5783 28.4063,145.5783 Q25.9063,145.5783 24.5781,143.9377 Q23.2656,142.2815 23.2656,139.1565 Q23.2656,136.0315 24.5781,134.3752 Q25.9063,132.719 28.4063,132.719 Q29.1094,132.719 29.75,132.8752 Q30.4063,133.0315 30.9688,133.3283 L30.9688,136.0471 Q30.3438,135.469 29.75,135.2033 Q29.1563,134.9221 28.5313,134.9221 Q27.1875,134.9221 26.5,136.0002 Q25.8125,137.0627 25.8125,139.1565 Q25.8125,141.2502 26.5,142.3283 Q27.1875,143.3908 28.5313,143.3908 Q29.1563,143.3908 29.75,143.1252 Q30.3438,142.844 30.9688,142.2658 L30.9688,144.9846 Z " fill="#000000"/><text fill="#000000" font-family="sans-serif" font-size="14" lengthAdjust="spacing" textLength="389.9406" x="42" y="137.9659">PartyWonDailySummaryChartPageModContentFactoryImpl</text><text fill="#000000" font-family="sans-serif" font-size="10" lengthAdjust="spacing" textLength="316.3597" x="78.7904" y="152.7579">com.hack23.cia.web.impl.ui.application.views.user.party.pagemode</text><line style="stroke:#181818;stroke-width:0.5;" x1="14" x2="433.9406" y1="160.6879" y2="160.6879"/><ellipse cx="24" cy="175.7219" fill="#84BE84" rx="3" ry="3" style="stroke:#038048;stroke-width:1.0;"/><text fill="#000000" font-family="sans-serif" font-size="14" lengthAdjust="spacing" textLength="305.4228" x="33" y="179.6538">createContent(String, MenuBar, Panel): Layout</text><ellipse cx="24" cy="194.7898" fill="#84BE84" rx="3" ry="3" style="stroke:#038048;stroke-width:1.0;"/><text fill="#000000" font-family="sans-serif" font-size="14" lengthAdjust="spacing" textLength="211.5112" x="33" y="198.7218">matches(String, String): boolean</text></g></a><!--class com.hack23.cia.web.impl.ui.application.views.common.pagemode.AbstractItemPageModContentFactoryImpl--><a href="../../../common/pagemode/AbstractItemPageModContentFactoryImpl.html" target="_top" title="../../../common/pagemode/AbstractItemPageModContentFactoryImpl.html" xlink:actuate="onRequest" xlink:href="../../../common/pagemode/AbstractItemPageModContentFactoryImpl.html" xlink:show="new" xlink:title="../../../common/pagemode/AbstractItemPageModContentFactoryImpl.html" xlink:type="simple"><g id="elem_com.hack23.cia.web.impl.ui.application.views.common.pagemode.AbstractItemPageModContentFactoryImpl"><rect codeLine="18" fill="#F1F1F1" height="69.7558" id="com.hack23.cia.web.impl.ui.application.views.common.pagemode.AbstractItemPageModContentFactoryImpl" rx="2.5" ry="2.5" style="stroke:#181818;stroke-width:0.5;" width="436.1324" x="6" y="12"/><ellipse cx="21" cy="33.344" fill="#A9DCDF" rx="11" ry="11" style="stroke:#181818;stroke-width:1.0;"/><path d="M21.1094,28.6877 L19.9531,33.7658 L22.2813,33.7658 L21.1094,28.6877 Z M19.625,26.4533 L22.6094,26.4533 L25.9688,38.844 L23.5156,38.844 L22.75,35.7815 L19.4688,35.7815 L18.7188,38.844 L16.2813,38.844 L19.625,26.4533 Z " fill="#000000"/><text fill="#000000" font-family="sans-serif" font-size="14" font-style="italic" lengthAdjust="spacing" textLength="261.057" x="50.9813" y="31.9659">AbstractItemPageModContentFactoryImpl</text><text fill="#000000" font-family="sans-serif" font-size="10" font-style="italic" lengthAdjust="spacing" textLength="293.0197" x="35" y="46.7579">com.hack23.cia.web.impl.ui.application.views.common.pagemode</text><rect fill="#FFFFFF" height="18.3441" style="stroke:#181818;stroke-width:1.0;stroke-dasharray:2.0,2.0;" width="109.1127" x="336.0197" y="9"/><text fill="#000000" font-family="sans-serif" font-size="12" font-style="italic" lengthAdjust="spacing" textLength="107.1127" x="337.0197" y="22.8281">ViewRiksdagenParty</text><line style="stroke:#181818;stroke-width:0.5;" x1="7" x2="441.1324" y1="54.6879" y2="54.6879"/><polygon fill="#FFFF44" points="17,64.7219,21,68.7219,17,72.7219,13,68.7219" style="stroke:#B38D22;stroke-width:1.0;"/><text fill="#000000" font-family="sans-serif" font-size="14" font-style="italic" lengthAdjust="spacing" textLength="225.5811" x="26" y="73.6538">getItem(String): ViewRiksdagenParty</text></g></a><polygon fill="none" points="224,82.0537,218,100.0537,230,100.0537,224,82.0537" style="stroke:#181818;stroke-width:1.0;"/><path d="M224,100.0537 C224,111.2849 224,105.9359 224,117.7854 " fill="none" style="stroke:#181818;stroke-width:1.0;"/><text fill="#888888" font-family="sans-serif" font-size="10" lengthAdjust="spacing" textLength="2.6" x="219.2" y="211.69">&#160;</text><a href="https://github.com/talsma-ict/umldoclet" target="_top" title="https://github.com/talsma-ict/umldoclet" xlink:actuate="onRequest" xlink:href="https://github.com/talsma-ict/umldoclet" xlink:show="new" xlink:title="https://github.com/talsma-ict/umldoclet" xlink:type="simple"><text fill="#888888" font-family="sans-serif" font-size="10" lengthAdjust="spacing" textLength="76.7199" x="182.14" y="225.31">UMLDoclet 2.2.1</text></a><!--SRC=[nLNRJjj047tdAwRmK139sWdGG1GXqT0BLP0GWVOXv65Y3_OgwrrtTmroAV_UiHq2XJv0BweLnV9SpioSinu30Bo6eSbBAvFKWpVWK-dW_7W4g6D8I9D5Jp7831DoC2DbTEAQG08iV6eicClwAJBMaikDZgLEu1DU8JXJs8YSM5c1kjJP7VerkWVeix8o7ff8aOVruSQ3bhfXvqsx6tPtu0oLon2EXcTYWNQVqnLTqG76LZ8YxHYoq37Pkgs372E-ZHfF2wx8EcaqvuGBd6hKo6YFKZl8qNfNZNIYKFkgruxW-jkY1-i7uz7FlOLxTMyjEB0QYnXEpTTYEUwht6B27IiiJU71PUHHO-DptBJ6ZEd2YCR4HT4pazfeglsfZ0aeotq9bv9Kx1vR6ImrRAxjaKBdO7NWv3VgTxRtJtY6yelHXoXLEIwo36qvJDbumYeUctZ8mvBsxp7YekLHbgiBlKWEzoEJYHIZUNTBH1B5DSs4v0XHI85vpWIZP_h4bQHh9mf7LbIKbVoVK6PYMWNMzaz1nCj7WCdavKaYzPcQJk6cvh6wDYDBV2WNeUjZR_aqj-2OTF4MRGjEK9FQwCEeLlK-BKFFnymj4vex1ywCKOIwZhnjzCAPyvQRU2BSmS9nv2dxwrfnSCOFlw_J8m3nh6u7dpdtLCvTp16wLcYVfH8YQ7uDQ7076ZmBzAbiDtUSti9QGdNs-bA2foqyLEFVSm23x-ts_tWdcW47pfUAzfTSNHhZUJdUarTT7ykSx4Zg-T0etaHhkx_sdbTxLKbDlCgZkIO-lk4oyhOf5poejwXreIUJrFlSzOCWaJujPXMJWQztUbj6FYWo5JVB_D5QdquNQ_h3ydjHxTnss6jtjiuw8Ry7_N2NT_HEhxVNxMnjXjr-64xU5TRa58ozYUQfKTdq1m00]--></g></svg>