<svg xmlns="http://www.w3.org/2000/svg" xmlns:xlink="http://www.w3.org/1999/xlink" contentStyleType="text/css" height="236px" preserveAspectRatio="none" style="width:453px;height:236px;background:#FFFFFF;" version="1.1" viewBox="0 0 453 236" width="453px" zoomAndPan="magnify"><defs/><g><!--class com.hack23.cia.web.impl.ui.application.views.user.party.pagemode.PartyOverviewPageModContentFactoryImpl--><a href="PartyOverviewPageModContentFactoryImpl.html" target="_top" title="PartyOverviewPageModContentFactoryImpl.html" xlink:actuate="onRequest" xlink:href="PartyOverviewPageModContentFactoryImpl.html" xlink:show="new" xlink:title="PartyOverviewPageModContentFactoryImpl.html" xlink:type="simple"><g id="elem_com.hack23.cia.web.impl.ui.application.views.user.party.pagemode.PartyOverviewPageModContentFactoryImpl"><rect codeLine="13" fill="#F1F1F1" height="88.8237" id="com.hack23.cia.web.impl.ui.application.views.user.party.pagemode.PartyOverviewPageModContentFactoryImpl" rx="2.5" ry="2.5" style="stroke:#181818;stroke-width:0.5;" width="348.3597" x="50" y="118"/><ellipse cx="65" cy="139.344" fill="#ADD1B2" rx="11" ry="11" style="stroke:#181818;stroke-width:1.0;"/><path d="M67.9688,144.9846 Q67.3906,145.2815 66.75,145.4221 Q66.1094,145.5783 65.4063,145.5783 Q62.9063,145.5783 61.5781,143.9377 Q60.2656,142.2815 60.2656,139.1565 Q60.2656,136.0315 61.5781,134.3752 Q62.9063,132.719 65.4063,132.719 Q66.1094,132.719 66.75,132.8752 Q67.4063,133.0315 67.9688,133.3283 L67.9688,136.0471 Q67.3438,135.469 66.75,135.2033 Q66.1563,134.9221 65.5313,134.9221 Q64.1875,134.9221 63.5,136.0002 Q62.8125,137.0627 62.8125,139.1565 Q62.8125,141.2502 63.5,142.3283 Q64.1875,143.3908 65.5313,143.3908 Q66.1563,143.3908 66.75,143.1252 Q67.3438,142.844 67.9688,142.2658 L67.9688,144.9846 Z " fill="#000000"/><text fill="#000000" font-family="sans-serif" font-size="14" lengthAdjust="spacing" textLength="289.225" x="92.5674" y="137.9659">PartyOverviewPageModContentFactoryImpl</text><text fill="#000000" font-family="sans-serif" font-size="10" lengthAdjust="spacing" textLength="316.3597" x="79" y="152.7579">com.hack23.cia.web.impl.ui.application.views.user.party.pagemode</text><line style="stroke:#181818;stroke-width:0.5;" x1="51" x2="397.3597" y1="160.6879" y2="160.6879"/><ellipse cx="61" cy="175.7219" fill="#84BE84" rx="3" ry="3" style="stroke:#038048;stroke-width:1.0;"/><text fill="#000000" font-family="sans-serif" font-size="14" lengthAdjust="spacing" textLength="305.4228" x="70" y="179.6538">createContent(String, MenuBar, Panel): Layout</text><ellipse cx="61" cy="194.7898" fill="#84BE84" rx="3" ry="3" style="stroke:#038048;stroke-width:1.0;"/><text fill="#000000" font-family="sans-serif" font-size="14" lengthAdjust="spacing" textLength="211.5112" x="70" y="198.7218">matches(String, String): boolean</text></g></a><!--class com.hack23.cia.web.impl.ui.application.views.common.pagemode.AbstractItemPageModContentFactoryImpl--><a href="../../../common/pagemode/AbstractItemPageModContentFactoryImpl.html" target="_top" title="../../../common/pagemode/AbstractItemPageModContentFactoryImpl.html" xlink:actuate="onRequest" xlink:href="../../../common/pagemode/AbstractItemPageModContentFactoryImpl.html" xlink:show="new" xlink:title="../../../common/pagemode/AbstractItemPageModContentFactoryImpl.html" xlink:type="simple"><g id="elem_com.hack23.cia.web.impl.ui.application.views.common.pagemode.AbstractItemPageModContentFactoryImpl"><rect codeLine="18" fill="#F1F1F1" height="69.7558" id="com.hack23.cia.web.impl.ui.application.views.common.pagemode.AbstractItemPageModContentFactoryImpl" rx="2.5" ry="2.5" style="stroke:#181818;stroke-width:0.5;" width="436.1324" x="6" y="12"/><ellipse cx="21" cy="33.344" fill="#A9DCDF" rx="11" ry="11" style="stroke:#181818;stroke-width:1.0;"/><path d="M21.1094,28.6877 L19.9531,33.7658 L22.2813,33.7658 L21.1094,28.6877 Z M19.625,26.4533 L22.6094,26.4533 L25.9688,38.844 L23.5156,38.844 L22.75,35.7815 L19.4688,35.7815 L18.7188,38.844 L16.2813,38.844 L19.625,26.4533 Z " fill="#000000"/><text fill="#000000" font-family="sans-serif" font-size="14" font-style="italic" lengthAdjust="spacing" textLength="261.057" x="50.9813" y="31.9659">AbstractItemPageModContentFactoryImpl</text><text fill="#000000" font-family="sans-serif" font-size="10" font-style="italic" lengthAdjust="spacing" textLength="293.0197" x="35" y="46.7579">com.hack23.cia.web.impl.ui.application.views.common.pagemode</text><rect fill="#FFFFFF" height="18.3441" style="stroke:#181818;stroke-width:1.0;stroke-dasharray:2.0,2.0;" width="109.1127" x="336.0197" y="9"/><text fill="#000000" font-family="sans-serif" font-size="12" font-style="italic" lengthAdjust="spacing" textLength="107.1127" x="337.0197" y="22.8281">ViewRiksdagenParty</text><line style="stroke:#181818;stroke-width:0.5;" x1="7" x2="441.1324" y1="54.6879" y2="54.6879"/><polygon fill="#FFFF44" points="17,64.7219,21,68.7219,17,72.7219,13,68.7219" style="stroke:#B38D22;stroke-width:1.0;"/><text fill="#000000" font-family="sans-serif" font-size="14" font-style="italic" lengthAdjust="spacing" textLength="225.5811" x="26" y="73.6538">getItem(String): ViewRiksdagenParty</text></g></a><polygon fill="none" points="224,82.0537,218,100.0537,230,100.0537,224,82.0537" style="stroke:#181818;stroke-width:1.0;"/><path d="M224,100.0537 C224,111.2849 224,105.9359 224,117.7854 " fill="none" style="stroke:#181818;stroke-width:1.0;"/><text fill="#888888" font-family="sans-serif" font-size="10" lengthAdjust="spacing" textLength="2.6" x="219.2" y="211.69">&#160;</text><a href="https://github.com/talsma-ict/umldoclet" target="_top" title="https://github.com/talsma-ict/umldoclet" xlink:actuate="onRequest" xlink:href="https://github.com/talsma-ict/umldoclet" xlink:show="new" xlink:title="https://github.com/talsma-ict/umldoclet" xlink:type="simple"><text fill="#888888" font-family="sans-serif" font-size="10" lengthAdjust="spacing" textLength="76.7199" x="182.14" y="225.31">UMLDoclet 2.2.1</text></a><!--SRC=[lLHDRzf04BttLqoJGua2QsCGJH12elGh5L5H8BqG3eiziLUiTztTTI8tpN_ls2Q49ZsWVba8oxipRzwyDne0W5SmrbbXH9muS1fS8YnSda-0gmXYL6YummX4ocEqi4AfLMphG0IUkqGRqDVLLwYDGPjf5GaLmoT-my7gt8HesOiNK9MQFw3VShk3lYhAmxSwbEYWCJxQeHJuxLuhy8CUpBcqAOUpyPnjq1vp0XQmDX2s524gIv2vYj1Kj4OP3-argM-QS8F62gqenz_WbAs6MZakb8MC6sVBbgQIArToRJEgtsMleJ6QJNxcvfzMt9emCehd4Lpeh_cstPUPuJ4nbhpGkGERekEArtUMI2kUabmyn1bIKUv8IQKLLlU9Y10mpLm1rm9bP9-U4bYYwRWw3oMt5Wu6Ldp3Vhixd58FnMTgz4RWxPISEzVHc1f4vTxpa0eLPsachzGcmH-6EcK93zT1XuM2irjSCK4HB1UCPnc9oXr9naeuotABXfKo5VGVOweZF03oyqz1s7wqOR7OBv0bBfNB9TnL6fNFSMYG1cuJsfWvGvFQX7DK-HjkcZ3b2kLH7oQLOuzfANSqGdQRKByfSAMrHAwgoFlQ2xwopX29PwQCDXTd3jE_xWa5f_Jn-tuy0M1xiHryeTmBiROHHQZAbI7PmvXN_sfGxm7KsmlqkMrt3vhUms6CLNPZQy5p2hjk_7iDOF2zrVfVirytDR2ka3ZSwdEjjQDbzoXO-NmiCZGJeTPZBMcp79xy-lQot9DIAAJL7AuLqiZwsyZxkfotKszJwqej5ebpcUrxNYnSagzAzJnNxUYM29sNfpAgb_EJDRrSRjRkX-t-BtTeomzQVcVUxlIxGTzli-v9h-FtEgVjOx_Tz_t5kzpe3BsPq-4wqJ9T_W00]--></g></svg>