<svg xmlns="http://www.w3.org/2000/svg" xmlns:xlink="http://www.w3.org/1999/xlink" contentStyleType="text/css" height="236px" preserveAspectRatio="none" style="width:453px;height:236px;background:#FFFFFF;" version="1.1" viewBox="0 0 453 236" width="453px" zoomAndPan="magnify"><defs/><g><!--class com.hack23.cia.web.impl.ui.application.views.user.party.pagemode.PartyRoleGhantPageModContentFactoryImpl--><a href="PartyRoleGhantPageModContentFactoryImpl.html" target="_top" title="PartyRoleGhantPageModContentFactoryImpl.html" xlink:actuate="onRequest" xlink:href="PartyRoleGhantPageModContentFactoryImpl.html" xlink:show="new" xlink:title="PartyRoleGhantPageModContentFactoryImpl.html" xlink:type="simple"><g id="elem_com.hack23.cia.web.impl.ui.application.views.user.party.pagemode.PartyRoleGhantPageModContentFactoryImpl"><rect codeLine="13" fill="#F1F1F1" height="88.8237" id="com.hack23.cia.web.impl.ui.application.views.user.party.pagemode.PartyRoleGhantPageModContentFactoryImpl" rx="2.5" ry="2.5" style="stroke:#181818;stroke-width:0.5;" width="348.3597" x="50" y="118"/><ellipse cx="65" cy="139.344" fill="#ADD1B2" rx="11" ry="11" style="stroke:#181818;stroke-width:1.0;"/><path d="M67.9688,144.9846 Q67.3906,145.2815 66.75,145.4221 Q66.1094,145.5783 65.4063,145.5783 Q62.9063,145.5783 61.5781,143.9377 Q60.2656,142.2815 60.2656,139.1565 Q60.2656,136.0315 61.5781,134.3752 Q62.9063,132.719 65.4063,132.719 Q66.1094,132.719 66.75,132.8752 Q67.4063,133.0315 67.9688,133.3283 L67.9688,136.0471 Q67.3438,135.469 66.75,135.2033 Q66.1563,134.9221 65.5313,134.9221 Q64.1875,134.9221 63.5,136.0002 Q62.8125,137.0627 62.8125,139.1565 Q62.8125,141.2502 63.5,142.3283 Q64.1875,143.3908 65.5313,143.3908 Q66.1563,143.3908 66.75,143.1252 Q67.3438,142.844 67.9688,142.2658 L67.9688,144.9846 Z " fill="#000000"/><text fill="#000000" font-family="sans-serif" font-size="14" lengthAdjust="spacing" textLength="296.9669" x="88.6964" y="137.9659">PartyRoleGhantPageModContentFactoryImpl</text><text fill="#000000" font-family="sans-serif" font-size="10" lengthAdjust="spacing" textLength="316.3597" x="79" y="152.7579">com.hack23.cia.web.impl.ui.application.views.user.party.pagemode</text><line style="stroke:#181818;stroke-width:0.5;" x1="51" x2="397.3597" y1="160.6879" y2="160.6879"/><ellipse cx="61" cy="175.7219" fill="#84BE84" rx="3" ry="3" style="stroke:#038048;stroke-width:1.0;"/><text fill="#000000" font-family="sans-serif" font-size="14" lengthAdjust="spacing" textLength="305.4228" x="70" y="179.6538">createContent(String, MenuBar, Panel): Layout</text><ellipse cx="61" cy="194.7898" fill="#84BE84" rx="3" ry="3" style="stroke:#038048;stroke-width:1.0;"/><text fill="#000000" font-family="sans-serif" font-size="14" lengthAdjust="spacing" textLength="211.5112" x="70" y="198.7218">matches(String, String): boolean</text></g></a><!--class com.hack23.cia.web.impl.ui.application.views.common.pagemode.AbstractItemPageModContentFactoryImpl--><a href="../../../common/pagemode/AbstractItemPageModContentFactoryImpl.html" target="_top" title="../../../common/pagemode/AbstractItemPageModContentFactoryImpl.html" xlink:actuate="onRequest" xlink:href="../../../common/pagemode/AbstractItemPageModContentFactoryImpl.html" xlink:show="new" xlink:title="../../../common/pagemode/AbstractItemPageModContentFactoryImpl.html" xlink:type="simple"><g id="elem_com.hack23.cia.web.impl.ui.application.views.common.pagemode.AbstractItemPageModContentFactoryImpl"><rect codeLine="18" fill="#F1F1F1" height="69.7558" id="com.hack23.cia.web.impl.ui.application.views.common.pagemode.AbstractItemPageModContentFactoryImpl" rx="2.5" ry="2.5" style="stroke:#181818;stroke-width:0.5;" width="436.1324" x="6" y="12"/><ellipse cx="21" cy="33.344" fill="#A9DCDF" rx="11" ry="11" style="stroke:#181818;stroke-width:1.0;"/><path d="M21.1094,28.6877 L19.9531,33.7658 L22.2813,33.7658 L21.1094,28.6877 Z M19.625,26.4533 L22.6094,26.4533 L25.9688,38.844 L23.5156,38.844 L22.75,35.7815 L19.4688,35.7815 L18.7188,38.844 L16.2813,38.844 L19.625,26.4533 Z " fill="#000000"/><text fill="#000000" font-family="sans-serif" font-size="14" font-style="italic" lengthAdjust="spacing" textLength="261.057" x="50.9813" y="31.9659">AbstractItemPageModContentFactoryImpl</text><text fill="#000000" font-family="sans-serif" font-size="10" font-style="italic" lengthAdjust="spacing" textLength="293.0197" x="35" y="46.7579">com.hack23.cia.web.impl.ui.application.views.common.pagemode</text><rect fill="#FFFFFF" height="18.3441" style="stroke:#181818;stroke-width:1.0;stroke-dasharray:2.0,2.0;" width="109.1127" x="336.0197" y="9"/><text fill="#000000" font-family="sans-serif" font-size="12" font-style="italic" lengthAdjust="spacing" textLength="107.1127" x="337.0197" y="22.8281">ViewRiksdagenParty</text><line style="stroke:#181818;stroke-width:0.5;" x1="7" x2="441.1324" y1="54.6879" y2="54.6879"/><polygon fill="#FFFF44" points="17,64.7219,21,68.7219,17,72.7219,13,68.7219" style="stroke:#B38D22;stroke-width:1.0;"/><text fill="#000000" font-family="sans-serif" font-size="14" font-style="italic" lengthAdjust="spacing" textLength="225.5811" x="26" y="73.6538">getItem(String): ViewRiksdagenParty</text></g></a><polygon fill="none" points="224,82.0537,218,100.0537,230,100.0537,224,82.0537" style="stroke:#181818;stroke-width:1.0;"/><path d="M224,100.0537 C224,111.2849 224,105.9359 224,117.7854 " fill="none" style="stroke:#181818;stroke-width:1.0;"/><text fill="#888888" font-family="sans-serif" font-size="10" lengthAdjust="spacing" textLength="2.6" x="219.2" y="211.69">&#160;</text><a href="https://github.com/talsma-ict/umldoclet" target="_top" title="https://github.com/talsma-ict/umldoclet" xlink:actuate="onRequest" xlink:href="https://github.com/talsma-ict/umldoclet" xlink:show="new" xlink:title="https://github.com/talsma-ict/umldoclet" xlink:type="simple"><text fill="#888888" font-family="sans-serif" font-size="10" lengthAdjust="spacing" textLength="76.7199" x="182.14" y="225.31">UMLDoclet 2.2.1</text></a><!--SRC=[lLLDRzf04BttLqoJGua2QqDeFX12ehHDKn491T8BuR2i9_QAzQwxkqxafldl7Tk4f4aFg5-MPSkxCs_UlBSQ0m2yWP792YlZn8Ctu1FfuF9y35n74AD6opr685CUeuCbAgDZLmSYyDmdneAvhhw4iHPTPdGaTGoV-Gq7Pt8hqB5Nhw0gDNj0l-Nk2VgoA1VV6w7GGsEqzuHI9smVjZfXvn1cNBcKmzbenjPeZpaTrc5j86mb1Mf7aBcEq5QqXXaNz1hNEqsuGUkaqPGJhd7ALeNHdalj8EFMkxAbYUBQbrpRZEftsH4qXjFnpzp2aufR4uPMypo22_CrtxJxEhCy9iQA5oRtu5BqNFDwpn5fpLEIYmkS8XNbdfJKHcErdyW80TFC5t0jKKNk-Ig19OQMgtMXk7EmqtVo6_RQtS64UYWkZCBJX7gOa7Nd9XfHXwZzHoweKd6MPkfAhpF2WJ0fIxXOTGwOa9pTuf99Yc2vP3pBI5NkIJDs8_7MiToXPQLE1JrZJ4s4Eq26_Ya8sv8tpETRHhB4fsgnWBjAflBQ5nRfpAr36rDlwR0suHnr_exR9aouHhNNWt5bscDQoZsT8hT9gDyKk3J4WkigyhwsWo-TjqJYXI_3zSQPn_IlkqB1ANtylYFF0DXMRFjVAFT2hbn44RgoPK3-C1RKTmqQF806Mu6-jEtkGTDxs8snocviB7X9uQaR_ru3w7zljVxRwQ-xwZjVA1ni1BesnjF0UrIil3uL6TgnrAkHKJHTTez_lNjPpaebDT9u5YkDT6R3JUHzNIvuKczTwqhFvudtcUi5GInzaYzB-G9VpUcM53x8KnNL0_hPg5uirgFtTFCFAETeA-oqmeDP-w3NxVJ2DkjsJuuFJuxU7ks7xLuOpZ_arcGOJBqHgyIeTF43]--></g></svg>