<?xml version="1.0" encoding="UTF-8" standalone="no"?><svg xmlns="http://www.w3.org/2000/svg" xmlns:xlink="http://www.w3.org/1999/xlink" contentScriptType="application/ecmascript" contentStyleType="text/css" height="218px" preserveAspectRatio="none" style="width:501px;height:218px;" version="1.1" viewBox="0 0 501 218" width="501px" zoomAndPan="magnify"><defs><filter height="300%" id="f1ggu98x4zmabt" width="300%" x="-1" y="-1"><feGaussianBlur result="blurOut" stdDeviation="2.0"/><feColorMatrix in="blurOut" result="blurOut2" type="matrix" values="0 0 0 0 0 0 0 0 0 0 0 0 0 0 0 0 0 0 .4 0"/><feOffset dx="4.0" dy="4.0" in="blurOut2" result="blurOut3"/><feBlend in="SourceGraphic" in2="blurOut3" mode="normal"/></filter></defs><g><!--class com.hack23.cia.web.impl.ui.application.action.PageActionEventHelperImpl--><a href="PageActionEventHelperImpl.html" target="_top" xlink:actuate="onRequest" xlink:show="new" xlink:title="PageActionEventHelperImpl.html" xlink:type="simple"><rect fill="#FEFECE" filter="url(#f1ggu98x4zmabt)" height="58.7422" id="com.hack23.cia.web.impl.ui.application.action.PageActionEventHelperImpl" style="stroke: #A80036; stroke-width: 1.5;" width="481" x="7.5" y="127"/><ellipse cx="135.25" cy="145.9688" fill="#ADD1B2" rx="11" ry="11" style="stroke: #A80036; stroke-width: 1.0;"/><path d="M138.2188,151.6094 Q137.6406,151.9063 137,152.0469 Q136.3594,152.2031 135.6563,152.2031 Q133.1563,152.2031 131.8281,150.5625 Q130.5156,148.9063 130.5156,145.7813 Q130.5156,142.6563 131.8281,141 Q133.1563,139.3438 135.6563,139.3438 Q136.3594,139.3438 137,139.5 Q137.6563,139.6563 138.2188,139.9531 L138.2188,142.6719 Q137.5938,142.0938 137,141.8281 Q136.4063,141.5469 135.7813,141.5469 Q134.4375,141.5469 133.75,142.625 Q133.0625,143.6875 133.0625,145.7813 Q133.0625,147.875 133.75,148.9531 Q134.4375,150.0156 135.7813,150.0156 Q136.4063,150.0156 137,149.75 Q137.5938,149.4688 138.2188,148.8906 L138.2188,151.6094 Z "/><text fill="#000000" font-family="sans-serif" font-size="14" lengthAdjust="spacingAndGlyphs" textLength="190" x="169.25" y="144.9951">PageActionEventHelperImpl</text><text fill="#000000" font-family="sans-serif" font-size="10" lengthAdjust="spacingAndGlyphs" textLength="217" x="155.75" y="157.5791">com.hack23.cia.web.impl.ui.application.action</text><line style="stroke: #A80036; stroke-width: 1.5;" x1="8.5" x2="487.5" y1="164.9375" y2="164.9375"/><ellipse cx="18.5" cy="176.8398" fill="#84BE84" rx="3" ry="3" style="stroke: #038048; stroke-width: 1.0;"/><text fill="#000000" font-family="sans-serif" font-size="11" lengthAdjust="spacingAndGlyphs" textLength="455" x="27.5" y="179.1479">createPageEvent(ViewAction, ApplicationEventGroup, String, String, String): void</text></a><!--class com.hack23.cia.web.impl.ui.application.action.PageActionEventHelper--><a href="PageActionEventHelper.html" target="_top" xlink:actuate="onRequest" xlink:show="new" xlink:title="PageActionEventHelper.html" xlink:type="simple"><rect fill="#FEFECE" filter="url(#f1ggu98x4zmabt)" height="58.7422" id="com.hack23.cia.web.impl.ui.application.action.PageActionEventHelper" style="stroke: #A80036; stroke-width: 1.5;" width="484" x="6" y="8"/><ellipse cx="128.25" cy="26.9688" fill="#B4A7E5" rx="11" ry="11" style="stroke: #A80036; stroke-width: 1.0;"/><path d="M124.1719,22.7344 L124.1719,20.5781 L131.5625,20.5781 L131.5625,22.7344 L129.0938,22.7344 L129.0938,30.8125 L131.5625,30.8125 L131.5625,32.9688 L124.1719,32.9688 L124.1719,30.8125 L126.6406,30.8125 L126.6406,22.7344 L124.1719,22.7344 Z "/><text fill="#000000" font-family="sans-serif" font-size="14" font-style="italic" lengthAdjust="spacingAndGlyphs" textLength="164" x="182.25" y="25.9951">PageActionEventHelper</text><text fill="#000000" font-family="sans-serif" font-size="10" font-style="italic" lengthAdjust="spacingAndGlyphs" textLength="231" x="148.75" y="38.5791">com.hack23.cia.web.impl.ui.application.action</text><line style="stroke: #A80036; stroke-width: 1.5;" x1="7" x2="489" y1="45.9375" y2="45.9375"/><ellipse cx="17" cy="57.8398" fill="#84BE84" rx="3" ry="3" style="stroke: #038048; stroke-width: 1.0;"/><text fill="#000000" font-family="sans-serif" font-size="11" font-style="italic" lengthAdjust="spacingAndGlyphs" textLength="458" x="26" y="60.1479">createPageEvent(ViewAction, ApplicationEventGroup, String, String, String): void</text></a><!--link com.hack23.cia.web.impl.ui.application.action.PageActionEventHelper to com.hack23.cia.web.impl.ui.application.action.PageActionEventHelperImpl--><path d="M248,87.3288 C248,100.7348 248,114.8139 248,126.7447 " fill="none" id="com.hack23.cia.web.impl.ui.application.action.PageActionEventHelper-com.hack23.cia.web.impl.ui.application.action.PageActionEventHelperImpl" style="stroke: #A80036; stroke-width: 1.0; stroke-dasharray: 7.0,7.0;"/><polygon fill="none" points="241.0001,87.2218,248,67.2218,255.0001,87.2217,241.0001,87.2218" style="stroke: #A80036; stroke-width: 1.0;"/><text fill="#888888" font-family="sans-serif" font-size="10" lengthAdjust="spacingAndGlyphs" textLength="186" x="161" y="205.2822">UMLDoclet 2.0.5, PlantUML 1.2019.08</text><!--
@startuml
    set namespaceSeparator none
    hide empty fields
    hide empty methods

    class "<size:14>PageActionEventHelperImpl\n<size:10>com.hack23.cia.web.impl.ui.application.action" as com.hack23.cia.web.impl.ui.application.action.PageActionEventHelperImpl [[PageActionEventHelperImpl.html]] {
        +createPageEvent(ViewAction, ApplicationEventGroup, String, String, String): void
    }

    interface "<size:14>PageActionEventHelper\n<size:10>com.hack23.cia.web.impl.ui.application.action" as com.hack23.cia.web.impl.ui.application.action.PageActionEventHelper [[PageActionEventHelper.html]] {
        {abstract} +createPageEvent(ViewAction, ApplicationEventGroup, String, String, String): void
    }

    com.hack23.cia.web.impl.ui.application.action.PageActionEventHelper <|.. com.hack23.cia.web.impl.ui.application.action.PageActionEventHelperImpl

    center footer UMLDoclet 2.0.5, PlantUML 1.2019.08
@enduml

PlantUML version 1.2019.08(Sat Jul 13 21:25:14 CEST 2019)
(APACHE source distribution)
Java Runtime: OpenJDK Runtime Environment
JVM: OpenJDK 64-Bit Server VM
Java Version: 11.0.5-ea+10-post-Ubuntu-0ubuntu1
Operating System: Linux
OS Version: 5.3.0-13-generic
Default Encoding: UTF-8
Language: en
Country: US
--></g></svg>