<?xml version="1.0" encoding="UTF-8" standalone="no"?><svg xmlns="http://www.w3.org/2000/svg" xmlns:xlink="http://www.w3.org/1999/xlink" contentScriptType="application/ecmascript" contentStyleType="text/css" height="359px" preserveAspectRatio="none" style="width:381px;height:359px;" version="1.1" viewBox="0 0 381 359" width="381px" zoomAndPan="magnify"><defs><filter height="300%" id="f1e57s428wh53x" width="300%" x="-1" y="-1"><feGaussianBlur result="blurOut" stdDeviation="2.0"/><feColorMatrix in="blurOut" result="blurOut2" type="matrix" values="0 0 0 0 0 0 0 0 0 0 0 0 0 0 0 0 0 0 .4 0"/><feOffset dx="4.0" dy="4.0" in="blurOut2" result="blurOut3"/><feBlend in="SourceGraphic" in2="blurOut3" mode="normal"/></filter></defs><g><!--class com.hack23.cia.service.api.action.admin.ManageUserAccountRequest--><a href="ManageUserAccountRequest.html" target="_top" xlink:actuate="onRequest" xlink:show="new" xlink:title="ManageUserAccountRequest.html" xlink:type="simple"><rect fill="#FEFECE" filter="url(#f1e57s428wh53x)" height="122.7656" id="com.hack23.cia.service.api.action.admin.ManageUserAccountRequest" style="stroke: #A80036; stroke-width: 1.5;" width="283" x="46.5" y="106"/><ellipse cx="83.1" cy="124.9688" fill="#ADD1B2" rx="11" ry="11" style="stroke: #A80036; stroke-width: 1.0;"/><path d="M86.0688,130.6094 Q85.4906,130.9063 84.85,131.0469 Q84.2094,131.2031 83.5063,131.2031 Q81.0063,131.2031 79.6781,129.5625 Q78.3656,127.9063 78.3656,124.7813 Q78.3656,121.6563 79.6781,120 Q81.0063,118.3438 83.5063,118.3438 Q84.2094,118.3438 84.85,118.5 Q85.5063,118.6563 86.0688,118.9531 L86.0688,121.6719 Q85.4438,121.0938 84.85,120.8281 Q84.2563,120.5469 83.6313,120.5469 Q82.2875,120.5469 81.6,121.625 Q80.9125,122.6875 80.9125,124.7813 Q80.9125,126.875 81.6,127.9531 Q82.2875,129.0156 83.6313,129.0156 Q84.2563,129.0156 84.85,128.75 Q85.4438,128.4688 86.0688,127.8906 L86.0688,130.6094 Z "/><text fill="#000000" font-family="sans-serif" font-size="14" lengthAdjust="spacingAndGlyphs" textLength="203" x="101.9" y="123.9951">ManageUserAccountRequest</text><text fill="#000000" font-family="sans-serif" font-size="10" lengthAdjust="spacingAndGlyphs" textLength="193" x="106.9" y="136.5791">com.hack23.cia.service.api.action.admin</text><line style="stroke: #A80036; stroke-width: 1.5;" x1="47.5" x2="328.5" y1="143.9375" y2="143.9375"/><ellipse cx="57.5" cy="155.8398" fill="#84BE84" rx="3" ry="3" style="stroke: #038048; stroke-width: 1.0;"/><text fill="#000000" font-family="sans-serif" font-size="11" lengthAdjust="spacingAndGlyphs" textLength="124" x="66.5" y="158.1479">getSessionId(): String</text><ellipse cx="57.5" cy="168.6445" fill="#84BE84" rx="3" ry="3" style="stroke: #038048; stroke-width: 1.0;"/><text fill="#000000" font-family="sans-serif" font-size="11" lengthAdjust="spacingAndGlyphs" textLength="147" x="66.5" y="170.9526">setSessionId(String): void</text><ellipse cx="57.5" cy="181.4492" fill="#84BE84" rx="3" ry="3" style="stroke: #038048; stroke-width: 1.0;"/><text fill="#000000" font-family="sans-serif" font-size="11" lengthAdjust="spacingAndGlyphs" textLength="143" x="66.5" y="183.7573">getUserAcountId(): String</text><ellipse cx="57.5" cy="194.2539" fill="#84BE84" rx="3" ry="3" style="stroke: #038048; stroke-width: 1.0;"/><text fill="#000000" font-family="sans-serif" font-size="11" lengthAdjust="spacingAndGlyphs" textLength="166" x="66.5" y="196.562">setUserAcountId(String): void</text><ellipse cx="57.5" cy="207.0586" fill="#84BE84" rx="3" ry="3" style="stroke: #038048; stroke-width: 1.0;"/><text fill="#000000" font-family="sans-serif" font-size="11" lengthAdjust="spacingAndGlyphs" textLength="234" x="66.5" y="209.3667">getAccountOperation(): AccountOperation</text><ellipse cx="57.5" cy="219.8633" fill="#84BE84" rx="3" ry="3" style="stroke: #038048; stroke-width: 1.0;"/><text fill="#000000" font-family="sans-serif" font-size="11" lengthAdjust="spacingAndGlyphs" textLength="257" x="66.5" y="222.1714">setAccountOperation(AccountOperation): void</text></a><!--class com.hack23.cia.service.api.action.common.AbstractRequest--><a href="../common/AbstractRequest.html" target="_top" xlink:actuate="onRequest" xlink:show="new" xlink:title="../common/AbstractRequest.html" xlink:type="simple"><rect fill="#FEFECE" filter="url(#f1e57s428wh53x)" height="37.9375" id="com.hack23.cia.service.api.action.common.AbstractRequest" style="stroke: #A80036; stroke-width: 1.5;" width="249" x="63.5" y="8"/><ellipse cx="78.5" cy="26.9688" fill="#A9DCDF" rx="11" ry="11" style="stroke: #A80036; stroke-width: 1.0;"/><path d="M78.6094,22.3125 L77.4531,27.3906 L79.7813,27.3906 L78.6094,22.3125 Z M77.125,20.0781 L80.1094,20.0781 L83.4688,32.4688 L81.0156,32.4688 L80.25,29.4063 L76.9688,29.4063 L76.2188,32.4688 L73.7813,32.4688 L77.125,20.0781 Z "/><text fill="#000000" font-family="sans-serif" font-size="14" font-style="italic" lengthAdjust="spacingAndGlyphs" textLength="115" x="143.5" y="25.9951">AbstractRequest</text><text fill="#000000" font-family="sans-serif" font-size="10" font-style="italic" lengthAdjust="spacingAndGlyphs" textLength="217" x="92.5" y="38.5791">com.hack23.cia.service.api.action.common</text></a><!--class com.hack23.cia.service.api.action.admin.ManageUserAccountRequest.AccountOperation--><a href="ManageUserAccountRequest.AccountOperation.html" target="_top" xlink:actuate="onRequest" xlink:show="new" xlink:title="ManageUserAccountRequest.AccountOperation.html" xlink:type="simple"><rect fill="#FEFECE" filter="url(#f1e57s428wh53x)" height="37.9375" id="com.hack23.cia.service.api.action.admin.ManageUserAccountRequest.AccountOperation" style="stroke: #A80036; stroke-width: 1.5;" width="364" x="6" y="289"/><ellipse cx="21" cy="307.9688" fill="#EB937F" rx="11" ry="11" style="stroke: #A80036; stroke-width: 1.0;"/><path d="M25.1094,313.9688 L17.3906,313.9688 L17.3906,301.5781 L25.1094,301.5781 L25.1094,303.7344 L19.8438,303.7344 L19.8438,306.4063 L24.6094,306.4063 L24.6094,308.5625 L19.8438,308.5625 L19.8438,311.8125 L25.1094,311.8125 L25.1094,313.9688 Z "/><text fill="#000000" font-family="sans-serif" font-size="14" lengthAdjust="spacingAndGlyphs" textLength="332" x="35" y="306.9951">ManageUserAccountRequest.AccountOperation</text><text fill="#000000" font-family="sans-serif" font-size="10" lengthAdjust="spacingAndGlyphs" textLength="193" x="104.5" y="319.5791">com.hack23.cia.service.api.action.admin</text></a><!--link com.hack23.cia.service.api.action.common.AbstractRequest to com.hack23.cia.service.api.action.admin.ManageUserAccountRequest--><path d="M188,66.2474 C188,78.5577 188,92.4569 188,105.9242 " fill="none" id="com.hack23.cia.service.api.action.common.AbstractRequest-com.hack23.cia.service.api.action.admin.ManageUserAccountRequest" style="stroke: #A80036; stroke-width: 1.0;"/><polygon fill="none" points="181.0001,66.2414,188,46.2413,195.0001,66.2413,181.0001,66.2414" style="stroke: #A80036; stroke-width: 1.0;"/><!--link com.hack23.cia.service.api.action.admin.ManageUserAccountRequest to com.hack23.cia.service.api.action.admin.ManageUserAccountRequest.AccountOperation--><path d="M188,244.3379 C188,260.8682 188,276.9076 188,288.7518 " fill="none" id="com.hack23.cia.service.api.action.admin.ManageUserAccountRequest-com.hack23.cia.service.api.action.admin.ManageUserAccountRequest.AccountOperation" style="stroke: #A80036; stroke-width: 1.0;"/><ellipse cx="188.0001" cy="237.1253" fill="#FFFFFF" rx="8" ry="8" style="stroke: #A80036; stroke-width: 1.0;"/><line style="stroke: #A80036; stroke-width: 1.0;" x1="188.0002" x2="188" y1="245.1253" y2="229.1253"/><line style="stroke: #A80036; stroke-width: 1.0;" x1="180.0001" x2="196.0001" y1="237.1254" y2="237.1252"/><text fill="#888888" font-family="sans-serif" font-size="10" lengthAdjust="spacingAndGlyphs" textLength="186" x="101" y="346.2822">UMLDoclet 2.0.5, PlantUML 1.2019.08</text><!--
@startuml
    set namespaceSeparator none
    hide empty fields
    hide empty methods

    class "<size:14>ManageUserAccountRequest\n<size:10>com.hack23.cia.service.api.action.admin" as com.hack23.cia.service.api.action.admin.ManageUserAccountRequest [[ManageUserAccountRequest.html]] {
        +getSessionId(): String
        +setSessionId(String): void
        +getUserAcountId(): String
        +setUserAcountId(String): void
        +getAccountOperation(): AccountOperation
        +setAccountOperation(AccountOperation): void
    }

    abstract class "<size:14>AbstractRequest\n<size:10>com.hack23.cia.service.api.action.common" as com.hack23.cia.service.api.action.common.AbstractRequest [[../common/AbstractRequest.html]]
    enum "<size:14>ManageUserAccountRequest.AccountOperation\n<size:10>com.hack23.cia.service.api.action.admin" as com.hack23.cia.service.api.action.admin.ManageUserAccountRequest.AccountOperation [[ManageUserAccountRequest.AccountOperation.html]]

    com.hack23.cia.service.api.action.common.AbstractRequest <|- - com.hack23.cia.service.api.action.admin.ManageUserAccountRequest
    com.hack23.cia.service.api.action.admin.ManageUserAccountRequest +- - com.hack23.cia.service.api.action.admin.ManageUserAccountRequest.AccountOperation

    center footer UMLDoclet 2.0.5, PlantUML 1.2019.08
@enduml

PlantUML version 1.2019.08(Sat Jul 13 21:25:14 CEST 2019)
(APACHE source distribution)
Java Runtime: OpenJDK Runtime Environment
JVM: OpenJDK 64-Bit Server VM
Java Version: 11.0.4+11-post-Ubuntu-1ubuntu219.04
Operating System: Linux
OS Version: 5.0.0-27-generic
Default Encoding: UTF-8
Language: en
Country: US
--></g></svg>