<?xml version="1.0" encoding="UTF-8" standalone="no"?><svg xmlns="http://www.w3.org/2000/svg" xmlns:xlink="http://www.w3.org/1999/xlink" contentScriptType="application/ecmascript" contentStyleType="text/css" height="222px" preserveAspectRatio="none" style="width:267px;height:222px;" version="1.1" viewBox="0 0 267 222" width="267px" zoomAndPan="magnify"><defs><filter height="300%" id="fvp348u76b2m2" width="300%" x="-1" y="-1"><feGaussianBlur result="blurOut" stdDeviation="2.0"/><feColorMatrix in="blurOut" result="blurOut2" type="matrix" values="0 0 0 0 0 0 0 0 0 0 0 0 0 0 0 0 0 0 .4 0"/><feOffset dx="4.0" dy="4.0" in="blurOut2" result="blurOut3"/><feBlend in="SourceGraphic" in2="blurOut3" mode="normal"/></filter></defs><g><!--class com.hack23.cia.service.api.action.admin.RemoveDataRequest.DataType--><a href="RemoveDataRequest.DataType.html" target="_top" xlink:actuate="onRequest" xlink:show="new" xlink:title="RemoveDataRequest.DataType.html" xlink:type="simple"><rect fill="#FEFECE" filter="url(#fvp348u76b2m2)" height="84.3516" id="com.hack23.cia.service.api.action.admin.RemoveDataRequest.DataType" style="stroke: #A80036; stroke-width: 1.5;" width="250" x="6" y="106"/><ellipse cx="21" cy="124.9688" fill="#EB937F" rx="11" ry="11" style="stroke: #A80036; stroke-width: 1.0;"/><path d="M25.1094,130.9688 L17.3906,130.9688 L17.3906,118.5781 L25.1094,118.5781 L25.1094,120.7344 L19.8438,120.7344 L19.8438,123.4063 L24.6094,123.4063 L24.6094,125.5625 L19.8438,125.5625 L19.8438,128.8125 L25.1094,128.8125 L25.1094,130.9688 Z "/><text fill="#000000" font-family="sans-serif" font-size="14" lengthAdjust="spacingAndGlyphs" textLength="218" x="35" y="123.9951">RemoveDataRequest.DataType</text><text fill="#000000" font-family="sans-serif" font-size="10" lengthAdjust="spacingAndGlyphs" textLength="193" x="47.5" y="136.5791">com.hack23.cia.service.api.action.admin</text><line style="stroke: #A80036; stroke-width: 1.5;" x1="7" x2="255" y1="143.9375" y2="143.9375"/><ellipse cx="17" cy="155.8398" fill="none" rx="3" ry="3" style="stroke: #038048; stroke-width: 1.0;"/><text fill="#000000" font-family="sans-serif" font-size="11" lengthAdjust="spacingAndGlyphs" text-decoration="underline" textLength="61" x="26" y="158.1479">POLITICIAN</text><ellipse cx="17" cy="168.6445" fill="none" rx="3" ry="3" style="stroke: #038048; stroke-width: 1.0;"/><text fill="#000000" font-family="sans-serif" font-size="11" lengthAdjust="spacingAndGlyphs" text-decoration="underline" textLength="72" x="26" y="170.9526">DOCUMENTS</text><ellipse cx="17" cy="181.4492" fill="none" rx="3" ry="3" style="stroke: #038048; stroke-width: 1.0;"/><text fill="#000000" font-family="sans-serif" font-size="11" lengthAdjust="spacingAndGlyphs" text-decoration="underline" textLength="127" x="26" y="183.7573">APPLICATION_HISTORY</text></a><!--class com.hack23.cia.service.api.action.admin.RemoveDataRequest--><a href="RemoveDataRequest.html" target="_top" xlink:actuate="onRequest" xlink:show="new" xlink:title="RemoveDataRequest.html" xlink:type="simple"><rect fill="#FEFECE" filter="url(#fvp348u76b2m2)" height="37.9375" id="com.hack23.cia.service.api.action.admin.RemoveDataRequest" style="stroke: #A80036; stroke-width: 1.5;" width="225" x="18.5" y="8"/><ellipse cx="33.5" cy="26.9688" fill="#ADD1B2" rx="11" ry="11" style="stroke: #A80036; stroke-width: 1.0;"/><path d="M36.4688,32.6094 Q35.8906,32.9063 35.25,33.0469 Q34.6094,33.2031 33.9063,33.2031 Q31.4063,33.2031 30.0781,31.5625 Q28.7656,29.9063 28.7656,26.7813 Q28.7656,23.6563 30.0781,22 Q31.4063,20.3438 33.9063,20.3438 Q34.6094,20.3438 35.25,20.5 Q35.9063,20.6563 36.4688,20.9531 L36.4688,23.6719 Q35.8438,23.0938 35.25,22.8281 Q34.6563,22.5469 34.0313,22.5469 Q32.6875,22.5469 32,23.625 Q31.3125,24.6875 31.3125,26.7813 Q31.3125,28.875 32,29.9531 Q32.6875,31.0156 34.0313,31.0156 Q34.6563,31.0156 35.25,30.75 Q35.8438,30.4688 36.4688,29.8906 L36.4688,32.6094 Z "/><text fill="#000000" font-family="sans-serif" font-size="14" lengthAdjust="spacingAndGlyphs" textLength="148" x="70" y="25.9951">RemoveDataRequest</text><text fill="#000000" font-family="sans-serif" font-size="10" lengthAdjust="spacingAndGlyphs" textLength="193" x="47.5" y="38.5791">com.hack23.cia.service.api.action.admin</text></a><!--link com.hack23.cia.service.api.action.admin.RemoveDataRequest to com.hack23.cia.service.api.action.admin.RemoveDataRequest.DataType--><path d="M131,61.1864 C131,75.0722 131,91.2549 131,105.8605 " fill="none" id="com.hack23.cia.service.api.action.admin.RemoveDataRequest-com.hack23.cia.service.api.action.admin.RemoveDataRequest.DataType" style="stroke: #A80036; stroke-width: 1.0;"/><ellipse cx="131" cy="54.1728" fill="#FFFFFF" rx="8" ry="8" style="stroke: #A80036; stroke-width: 1.0;"/><line style="stroke: #A80036; stroke-width: 1.0;" x1="131" x2="131" y1="62.1728" y2="46.1728"/><line style="stroke: #A80036; stroke-width: 1.0;" x1="123" x2="139" y1="54.1728" y2="54.1728"/><text fill="#888888" font-family="sans-serif" font-size="10" lengthAdjust="spacingAndGlyphs" textLength="186" x="44" y="209.2822">UMLDoclet 2.0.5, PlantUML 1.2019.08</text><!--
@startuml
    set namespaceSeparator none
    hide empty fields
    hide empty methods

    enum "<size:14>RemoveDataRequest.DataType\n<size:10>com.hack23.cia.service.api.action.admin" as com.hack23.cia.service.api.action.admin.RemoveDataRequest.DataType [[RemoveDataRequest.DataType.html]] {
        {static} +POLITICIAN
        {static} +DOCUMENTS
        {static} +APPLICATION_HISTORY
    }

    class "<size:14>RemoveDataRequest\n<size:10>com.hack23.cia.service.api.action.admin" as com.hack23.cia.service.api.action.admin.RemoveDataRequest [[RemoveDataRequest.html]]

    com.hack23.cia.service.api.action.admin.RemoveDataRequest +- - com.hack23.cia.service.api.action.admin.RemoveDataRequest.DataType

    center footer UMLDoclet 2.0.5, PlantUML 1.2019.08
@enduml

PlantUML version 1.2019.08(Sat Jul 13 21:25:14 CEST 2019)
(APACHE source distribution)
Java Runtime: OpenJDK Runtime Environment
JVM: OpenJDK 64-Bit Server VM
Java Version: 11.0.4+11-post-Ubuntu-1ubuntu219.04
Operating System: Linux
OS Version: 5.0.0-27-generic
Default Encoding: UTF-8
Language: en
Country: US
--></g></svg>