<svg xmlns="http://www.w3.org/2000/svg" xmlns:xlink="http://www.w3.org/1999/xlink" contentStyleType="text/css" height="419px" preserveAspectRatio="none" style="width:1841px;height:419px;background:#FFFFFF;" version="1.1" viewBox="0 0 1841 419" width="1841px" zoomAndPan="magnify"><defs/><g><!--cluster com.hack23.cia.web.impl.ui.application.views.common.gridfactory.impl--><g id="cluster_com.hack23.cia.web.impl.ui.application.views.common.gridfactory.impl"><path d="M264.5,136 L767.1039,136 A3.75,3.75 0 0 1 769.6039,138.5 L776.6039,161.0679 L1831.5,161.0679 A2.5,2.5 0 0 1 1834,163.5679 L1834,379.5 A2.5,2.5 0 0 1 1831.5,382 L264.5,382 A2.5,2.5 0 0 1 262,379.5 L262,138.5 A2.5,2.5 0 0 1 264.5,136 " fill="none" style="stroke:#000000;stroke-width:1.5;"/><line style="stroke:#000000;stroke-width:1.5;" x1="262" x2="776.6039" y1="161.0679" y2="161.0679"/><text fill="#000000" font-family="sans-serif" font-size="14" font-weight="bold" lengthAdjust="spacing" textLength="501.6039" x="266" y="152.9659">com.hack23.cia.web.impl.ui.application.views.common.gridfactory.impl</text></g><!--cluster com.hack23.cia.web.impl.ui.application.views.common.gridfactory.api--><g id="cluster_com.hack23.cia.web.impl.ui.application.views.common.gridfactory.api"><path d="M312.5,4 L805.542,4 A3.75,3.75 0 0 1 808.042,6.5 L815.042,29.0679 L1783.5,29.0679 A2.5,2.5 0 0 1 1786,31.5679 L1786,125.5 A2.5,2.5 0 0 1 1783.5,128 L312.5,128 A2.5,2.5 0 0 1 310,125.5 L310,6.5 A2.5,2.5 0 0 1 312.5,4 " fill="none" style="stroke:#000000;stroke-width:1.5;"/><line style="stroke:#000000;stroke-width:1.5;" x1="310" x2="815.042" y1="29.0679" y2="29.0679"/><text fill="#000000" font-family="sans-serif" font-size="14" font-weight="bold" lengthAdjust="spacing" textLength="492.042" x="314" y="20.9659">com.hack23.cia.web.impl.ui.application.views.common.gridfactory.api</text></g><!--cluster com.vaadin.data--><g id="cluster_com.vaadin.data"><path d="M16.5,136 L134.1476,136 A3.75,3.75 0 0 1 136.6476,138.5 L143.6476,161.0679 L251.5,161.0679 A2.5,2.5 0 0 1 254,163.5679 L254,257.5 A2.5,2.5 0 0 1 251.5,260 L16.5,260 A2.5,2.5 0 0 1 14,257.5 L14,138.5 A2.5,2.5 0 0 1 16.5,136 " fill="none" style="stroke:#000000;stroke-width:1.5;"/><line style="stroke:#000000;stroke-width:1.5;" x1="14" x2="143.6476" y1="161.0679" y2="161.0679"/><text fill="#000000" font-family="sans-serif" font-size="14" font-weight="bold" lengthAdjust="spacing" textLength="116.6476" x="18" y="152.9659">com.vaadin.data</text></g><!--class GridFactoryImpl--><a href="GridFactoryImpl.html" target="_top" title="GridFactoryImpl.html" xlink:actuate="onRequest" xlink:href="GridFactoryImpl.html" xlink:show="new" xlink:title="GridFactoryImpl.html" xlink:type="simple"><g id="elem_GridFactoryImpl"><rect codeLine="12" fill="#F1F1F1" height="86.1358" id="GridFactoryImpl" rx="2.5" ry="2.5" style="stroke:#181818;stroke-width:0.5;" width="1555.228" x="270.5" y="166"/><ellipse cx="990.5942" cy="182" fill="#ADD1B2" rx="11" ry="11" style="stroke:#181818;stroke-width:1.0;"/><path d="M993.563,187.6406 Q992.9848,187.9375 992.3442,188.0781 Q991.7036,188.2344 991.0005,188.2344 Q988.5005,188.2344 987.1723,186.5938 Q985.8598,184.9375 985.8598,181.8125 Q985.8598,178.6875 987.1723,177.0313 Q988.5005,175.375 991.0005,175.375 Q991.7036,175.375 992.3442,175.5313 Q993.0005,175.6875 993.563,175.9844 L993.563,178.7031 Q992.938,178.125 992.3442,177.8594 Q991.7505,177.5781 991.1255,177.5781 Q989.7817,177.5781 989.0942,178.6563 Q988.4067,179.7188 988.4067,181.8125 Q988.4067,183.9063 989.0942,184.9844 Q989.7817,186.0469 991.1255,186.0469 Q991.7505,186.0469 992.3442,185.7813 Q992.938,185.5 993.563,184.9219 L993.563,187.6406 Z " fill="#000000"/><text fill="#000000" font-family="sans-serif" font-size="14" lengthAdjust="spacing" textLength="106.5396" x="1011.0942" y="187.432">GridFactoryImpl</text><line style="stroke:#181818;stroke-width:0.5;" x1="271.5" x2="1824.728" y1="198" y2="198"/><line style="stroke:#181818;stroke-width:0.5;" x1="271.5" x2="1824.728" y1="206" y2="206"/><ellipse cx="281.5" cy="221.034" fill="#84BE84" rx="3" ry="3" style="stroke:#038048;stroke-width:1.0;"/><text fill="#000000" font-family="sans-serif" font-size="14" lengthAdjust="spacing" textLength="1358.1487" x="290.5" y="224.9659">createBasicBeanItemGrid(AbstractOrderedLayout, Class&lt;T extends Serializable&gt;, List&lt;T extends Serializable&gt;, String, String[], String[], PageItemRendererClickListener&lt;?&gt;, String, ListPropertyConverter[]): void</text><ellipse cx="281.5" cy="240.1019" fill="#84BE84" rx="3" ry="3" style="stroke:#038048;stroke-width:1.0;"/><text fill="#000000" font-family="sans-serif" font-size="14" lengthAdjust="spacing" textLength="1529.228" x="290.5" y="244.0339">createBasicBeanItemNestedPropertiesGrid(AbstractOrderedLayout, Class&lt;T extends Serializable&gt;, List&lt;T extends Serializable&gt;, String, String[], String[], String[], PageItemRendererClickListener&lt;?&gt;, String, ListPropertyConverter[]): void</text></g></a><!--class GridFactoryImpl.BeanNestedPropertyValueProvider--><a href="GridFactoryImpl.BeanNestedPropertyValueProvider.html" target="_top" title="GridFactoryImpl.BeanNestedPropertyValueProvider.html" xlink:actuate="onRequest" xlink:href="GridFactoryImpl.BeanNestedPropertyValueProvider.html" xlink:show="new" xlink:title="GridFactoryImpl.BeanNestedPropertyValueProvider.html" xlink:type="simple"><g id="elem_GridFactoryImpl.BeanNestedPropertyValueProvider"><rect codeLine="17" fill="#F1F1F1" height="86.1358" id="GridFactoryImpl.BeanNestedPropertyValueProvider" rx="2.5" ry="2.5" style="stroke:#181818;stroke-width:0.5;" width="381.9588" x="563" y="288"/><ellipse cx="578" cy="304" fill="#ADD1B2" rx="11" ry="11" style="stroke:#181818;stroke-width:1.0;"/><path d="M580.9688,309.6406 Q580.3906,309.9375 579.75,310.0781 Q579.1094,310.2344 578.4063,310.2344 Q575.9063,310.2344 574.5781,308.5938 Q573.2656,306.9375 573.2656,303.8125 Q573.2656,300.6875 574.5781,299.0313 Q575.9063,297.375 578.4063,297.375 Q579.1094,297.375 579.75,297.5313 Q580.4063,297.6875 580.9688,297.9844 L580.9688,300.7031 Q580.3438,300.125 579.75,299.8594 Q579.1563,299.5781 578.5313,299.5781 Q577.1875,299.5781 576.5,300.6563 Q575.8125,301.7188 575.8125,303.8125 Q575.8125,305.9063 576.5,306.9844 Q577.1875,308.0469 578.5313,308.0469 Q579.1563,308.0469 579.75,307.7813 Q580.3438,307.5 580.9688,306.9219 L580.9688,309.6406 Z " fill="#000000"/><text fill="#000000" font-family="sans-serif" font-size="14" lengthAdjust="spacing" textLength="339.9467" x="592" y="309.432">GridFactoryImpl.BeanNestedPropertyValueProvider</text><rect fill="#FFFFFF" height="18.3441" style="stroke:#181818;stroke-width:1.0;stroke-dasharray:2.0,2.0;" width="8.012" x="939.9467" y="285"/><text fill="#000000" font-family="sans-serif" font-size="12" font-style="italic" lengthAdjust="spacing" textLength="6.012" x="940.9467" y="298.8281">T</text><line style="stroke:#181818;stroke-width:0.5;" x1="564" x2="943.9588" y1="320" y2="320"/><line style="stroke:#181818;stroke-width:0.5;" x1="564" x2="943.9588" y1="328" y2="328"/><ellipse cx="574" cy="343.034" fill="#84BE84" rx="3" ry="3" style="stroke:#038048;stroke-width:1.0;"/><text fill="#000000" font-family="sans-serif" font-size="14" lengthAdjust="spacing" textLength="277.451" x="583" y="346.9659">BeanNestedPropertyValueProvider(String)</text><ellipse cx="574" cy="362.1019" fill="#84BE84" rx="3" ry="3" style="stroke:#038048;stroke-width:1.0;"/><text fill="#000000" font-family="sans-serif" font-size="14" lengthAdjust="spacing" textLength="98.7976" x="583" y="366.0339">apply(T): String</text></g></a><!--class GridFactory--><a href="../api/GridFactory.html" target="_top" title="../api/GridFactory.html" xlink:actuate="onRequest" xlink:href="../api/GridFactory.html" xlink:show="new" xlink:title="../api/GridFactory.html" xlink:type="simple"><g id="elem_GridFactory"><rect codeLine="25" fill="#F1F1F1" height="86.1358" id="GridFactory" rx="2.5" ry="2.5" style="stroke:#181818;stroke-width:0.5;" width="1459.7476" x="318" y="34"/><ellipse cx="1007.4269" cy="50" fill="#B4A7E5" rx="11" ry="11" style="stroke:#181818;stroke-width:1.0;"/><path d="M1003.3488,45.7656 L1003.3488,43.6094 L1010.7394,43.6094 L1010.7394,45.7656 L1008.2707,45.7656 L1008.2707,53.8438 L1010.7394,53.8438 L1010.7394,56 L1003.3488,56 L1003.3488,53.8438 L1005.8175,53.8438 L1005.8175,45.7656 L1003.3488,45.7656 Z " fill="#000000"/><text fill="#000000" font-family="sans-serif" font-size="14" font-style="italic" lengthAdjust="spacing" textLength="72.3937" x="1027.9269" y="55.432">GridFactory</text><line style="stroke:#181818;stroke-width:0.5;" x1="319" x2="1776.7476" y1="66" y2="66"/><line style="stroke:#181818;stroke-width:0.5;" x1="319" x2="1776.7476" y1="74" y2="74"/><ellipse cx="329" cy="89.034" fill="#84BE84" rx="3" ry="3" style="stroke:#038048;stroke-width:1.0;"/><text fill="#000000" font-family="sans-serif" font-size="14" font-style="italic" lengthAdjust="spacing" textLength="1275.2683" x="338" y="92.9659">createBasicBeanItemGrid(AbstractOrderedLayout, Class&lt;T extends Serializable&gt;, List&lt;T extends Serializable&gt;, String, String[], String[], PageItemRendererClickListener&lt;?&gt;, String, ListPropertyConverter[]): void</text><ellipse cx="329" cy="108.1019" fill="#84BE84" rx="3" ry="3" style="stroke:#038048;stroke-width:1.0;"/><text fill="#000000" font-family="sans-serif" font-size="14" font-style="italic" lengthAdjust="spacing" textLength="1433.7476" x="338" y="112.0339">createBasicBeanItemNestedPropertiesGrid(AbstractOrderedLayout, Class&lt;T extends Serializable&gt;, List&lt;T extends Serializable&gt;, String, String[], String[], String[], PageItemRendererClickListener&lt;?&gt;, String, ListPropertyConverter[]): void</text></g></a><!--class ValueProvider--><g id="elem_ValueProvider"><rect codeLine="32" fill="#F1F1F1" height="86.1358" id="ValueProvider" rx="2.5" ry="2.5" style="stroke:#181818;stroke-width:0.5;" width="222.5452" x="22.5" y="166"/><ellipse cx="42.4009" cy="182" fill="#B4A7E5" rx="11" ry="11" style="stroke:#181818;stroke-width:1.0;"/><path d="M38.3228,177.7656 L38.3228,175.6094 L45.7134,175.6094 L45.7134,177.7656 L43.2447,177.7656 L43.2447,185.8438 L45.7134,185.8438 L45.7134,188 L38.3228,188 L38.3228,185.8438 L40.7915,185.8438 L40.7915,177.7656 L38.3228,177.7656 Z " fill="#000000"/><text fill="#000000" font-family="sans-serif" font-size="14" font-style="italic" lengthAdjust="spacing" textLength="86.5897" x="57.49" y="187.432">ValueProvider</text><rect fill="#FFFFFF" height="18.3441" style="stroke:#181818;stroke-width:1.0;stroke-dasharray:2.0,2.0;" width="91.0646" x="156.9806" y="163"/><text fill="#000000" font-family="sans-serif" font-size="12" font-style="italic" lengthAdjust="spacing" textLength="89.0646" x="157.9806" y="176.8281">SOURCE, TARGET</text><line style="stroke:#181818;stroke-width:0.5;" x1="23.5" x2="244.0452" y1="198" y2="198"/><line style="stroke:#181818;stroke-width:0.5;" x1="23.5" x2="244.0452" y1="206" y2="206"/><ellipse cx="33.5" cy="221.034" fill="#84BE84" rx="3" ry="3" style="stroke:#038048;stroke-width:1.0;"/><text fill="#000000" font-family="sans-serif" font-size="14" lengthAdjust="spacing" text-decoration="underline" textLength="196.5452" x="42.5" y="224.9659">identity(): ValueProvider&lt;T, T&gt;</text><ellipse cx="33.5" cy="240.1019" fill="#84BE84" rx="3" ry="3" style="stroke:#038048;stroke-width:1.0;"/><text fill="#000000" font-family="sans-serif" font-size="14" font-style="italic" lengthAdjust="spacing" textLength="146.3414" x="42.5" y="244.0339">apply(SOURCE): TARGET</text></g><polygon fill="none" points="1048,120.2073,1042,138.2073,1054,138.2073,1048,120.2073" style="stroke:#181818;stroke-width:1.0;"/><path d="M1048,138.2073 C1048,152.7385 1048,151.0099 1048,165.5596 " fill="none" style="stroke:#181818;stroke-width:1.0;stroke-dasharray:7.0,7.0;"/><polygon fill="none" points="232.0792,252.0566,247.185,263.5377,251.0525,252.178,232.0792,252.0566" style="stroke:#181818;stroke-width:1.0;"/><path d="M249.1187,257.8579 C257.7965,260.8123 249.4799,257.7175 258,260 C356.9129,286.4977 469.7694,303.4291 562.8161,313.9884 " fill="none" style="stroke:#181818;stroke-width:1.0;stroke-dasharray:7.0,7.0;"/><ellipse cx="937.3532" cy="255.162" fill="#FFFFFF" rx="8" ry="8" style="stroke:#181818;stroke-width:1.0;"/><line style="stroke:#181818;stroke-width:1.0;" x1="929.9464" x2="944.76" y1="258.1851" y2="252.1388"/><line style="stroke:#181818;stroke-width:1.0;" x1="934.33" x2="940.3764" y1="247.7552" y2="262.5687"/><path d="M929.9464,258.1851 C901.4881,269.8008 885.4357,276.3528 856.9915,287.9627 " fill="none" style="stroke:#181818;stroke-width:1.0;"/><text fill="#888888" font-family="sans-serif" font-size="10" lengthAdjust="spacing" textLength="2.6" x="911.2" y="394.69">&#160;</text><a href="https://github.com/talsma-ict/umldoclet" target="_top" title="https://github.com/talsma-ict/umldoclet" xlink:actuate="onRequest" xlink:href="https://github.com/talsma-ict/umldoclet" xlink:show="new" xlink:title="https://github.com/talsma-ict/umldoclet" xlink:type="simple"><text fill="#888888" font-family="sans-serif" font-size="10" lengthAdjust="spacing" textLength="76.7199" x="874.14" y="408.31">UMLDoclet 2.2.1</text></a><!--SRC=[tLPDRzj64BtdLqpGGsLOMb6qupY4u41HNDU5sXYMt8kYmuWSImkHk-pkKYwR-hztbbHSIf2XYuC0uONaxdozjs_80G3u6OOwBurSB1qu3MufBTpzFW9K2In8aK572SWC5sHXJgbM2riR4c3Xbjg0lg_UOcqCsLohHAe5_8Ph1AiB4vCLhrv1bMhoDVe3saRqUUaNF-eu9GUjuL6Zf33edNN283o52QOsGxWUJiGcsly-eGX53pXsAcDIbaCMAY5JbJN8CURRgDvfmvgCbLgnJx29uw76MZcKoaAEnbaFwIP5vNojFU7pYxVG6en7sxK5xwhQsZ0m2ei4RlLVnHFSrxd11LUSOgaB1pOZXmghBSirM-9Kw9Y_AAeTkD0LqyorP6B9p-69Y2MA1veBcUMfAAJ0F6U8w1Y0M4jwi8ADCtvP69dSOypXoieOljGn_HMdQ2rSiSKljSMrDvXETrR4qcNfRCQUqBYEOqDyI1_GolW3eRfsb7d7rc1kdM7lJuQPfcHKeMp3q2VhJu3-TgGI2sCo4bFv3yvJkcZpCLZt_ExO6TREr_jqrdowOMfyybloHqjco4IiV3Wle_xxXhTVl34w9-FAeLPyu8xCT7OKmLhBv22wFuXZ9fi0akntGViDSJyUK8RmH6oHKFw9QK7yifPSGdzoiKSy1voU4TS1hrODxMZRoJT1sPemhdfx5zdZoxOJvh9HjbHCAczHapRcGuWk6tORY_iXVy6DaXv_yDOw0FJ7xx9dfBX6v1-aID3XNbbjzzhuqztjyB8Day7jrIKttewOh6Fnnimm6oidNTdYEdQwbPqldZsPkfVgBEnQfzaFuWNwA8gQJTF_LuWN-TbjXVLVewTw6sH7qHOltp3xeM_XYx2vDpCSTphV2LC5gczToKttf9zxhLdMEwBzjMJtaLIheKvv-ldfVF_kdM_4L2hYeJ5UAU8VLR0Zp7wtaM-JwxEQJfVEvJRgTXVIBOkvnzXrrVJOaR7h5bcQr6FZpW0vcsq6mgkdoTHFTvrUs0dF9xqtqPkpwFHCl3iDtfwSXoVXST2BWc1wMNX2kcEduzLIfzdiFm00]--></g></svg>