<svg xmlns="http://www.w3.org/2000/svg" xmlns:xlink="http://www.w3.org/1999/xlink" contentStyleType="text/css" height="259px" preserveAspectRatio="none" style="width:567px;height:259px;background:#FFFFFF;" version="1.1" viewBox="0 0 567 259" width="567px" zoomAndPan="magnify"><defs/><g><!--cluster com.hack23.cia.web.impl.ui.application.views.admin.datasummary--><g id="cluster_com.hack23.cia.web.impl.ui.application.views.admin.datasummary"><path d="M16.5,98 L487.0722,98 A3.75,3.75 0 0 1 489.5722,100.5 L496.5722,123.0679 L496.5,123.0679 A2.5,2.5 0 0 1 499,125.5679 L499,219.5 A2.5,2.5 0 0 1 496.5,222 L16.5,222 A2.5,2.5 0 0 1 14,219.5 L14,100.5 A2.5,2.5 0 0 1 16.5,98 " fill="none" style="stroke:#000000;stroke-width:1.5;"/><line style="stroke:#000000;stroke-width:1.5;" x1="14" x2="496.5722" y1="123.0679" y2="123.0679"/><text fill="#000000" font-family="sans-serif" font-size="14" font-weight="bold" lengthAdjust="spacing" textLength="469.5722" x="18" y="114.9659">com.hack23.cia.web.impl.ui.application.views.admin.datasummary</text></g><!--cluster com.hack23.cia.web.impl.ui.application.views.admin.common--><g id="cluster_com.hack23.cia.web.impl.ui.application.views.admin.common"><path d="M114.5,4 L548.0143,4 A3.75,3.75 0 0 1 550.5143,6.5 L557.5143,29.0679 L557.5,29.0679 A2.5,2.5 0 0 1 560,31.5679 L560,87.5 A2.5,2.5 0 0 1 557.5,90 L114.5,90 A2.5,2.5 0 0 1 112,87.5 L112,6.5 A2.5,2.5 0 0 1 114.5,4 " fill="none" style="stroke:#000000;stroke-width:1.5;"/><line style="stroke:#000000;stroke-width:1.5;" x1="112" x2="557.5143" y1="29.0679" y2="29.0679"/><text fill="#000000" font-family="sans-serif" font-size="14" font-weight="bold" lengthAdjust="spacing" textLength="432.5143" x="116" y="20.9659">com.hack23.cia.web.impl.ui.application.views.admin.common</text></g><!--class AdminDataSummaryView--><a href="AdminDataSummaryView.html" target="_top" title="AdminDataSummaryView.html" xlink:actuate="onRequest" xlink:href="AdminDataSummaryView.html" xlink:show="new" xlink:title="AdminDataSummaryView.html" xlink:type="simple"><g id="elem_AdminDataSummaryView"><rect codeLine="12" fill="#F1F1F1" height="86.1358" id="AdminDataSummaryView" rx="2.5" ry="2.5" style="stroke:#181818;stroke-width:0.5;" width="327.6289" x="92" y="128"/><ellipse cx="167.5158" cy="144" fill="#ADD1B2" rx="11" ry="11" style="stroke:#181818;stroke-width:1.0;"/><path d="M170.4845,149.6406 Q169.9064,149.9375 169.2658,150.0781 Q168.6251,150.2344 167.922,150.2344 Q165.422,150.2344 164.0939,148.5938 Q162.7814,146.9375 162.7814,143.8125 Q162.7814,140.6875 164.0939,139.0313 Q165.422,137.375 167.922,137.375 Q168.6251,137.375 169.2658,137.5313 Q169.922,137.6875 170.4845,137.9844 L170.4845,140.7031 Q169.8595,140.125 169.2658,139.8594 Q168.672,139.5781 168.047,139.5781 Q166.7033,139.5781 166.0158,140.6563 Q165.3283,141.7188 165.3283,143.8125 Q165.3283,145.9063 166.0158,146.9844 Q166.7033,148.0469 168.047,148.0469 Q168.672,148.0469 169.2658,147.7813 Q169.8595,147.5 170.4845,146.9219 L170.4845,149.6406 Z " fill="#000000"/><text fill="#000000" font-family="sans-serif" font-size="14" lengthAdjust="spacing" textLength="168.0974" x="188.0158" y="149.432">AdminDataSummaryView</text><line style="stroke:#181818;stroke-width:0.5;" x1="93" x2="418.6289" y1="160" y2="160"/><ellipse cx="103" cy="175.034" fill="none" rx="3" ry="3" style="stroke:#038048;stroke-width:1.0;"/><text fill="#000000" font-family="sans-serif" font-size="14" lengthAdjust="spacing" text-decoration="underline" textLength="86.8557" x="112" y="178.9659">NAME: String</text><line style="stroke:#181818;stroke-width:0.5;" x1="93" x2="418.6289" y1="187.0679" y2="187.0679"/><ellipse cx="103" cy="202.1019" fill="#84BE84" rx="3" ry="3" style="stroke:#038048;stroke-width:1.0;"/><text fill="#000000" font-family="sans-serif" font-size="14" lengthAdjust="spacing" textLength="301.6289" x="112" y="206.0339">AdminDataSummaryView(ApplicationContext)</text></g></a><!--class AbstractAdminView--><a href="../common/AbstractAdminView.html" target="_top" title="../common/AbstractAdminView.html" xlink:actuate="onRequest" xlink:href="../common/AbstractAdminView.html" xlink:show="new" xlink:title="../common/AbstractAdminView.html" xlink:type="simple"><g id="elem_AbstractAdminView"><rect codeLine="20" fill="#F1F1F1" height="48" id="AbstractAdminView" rx="2.5" ry="2.5" style="stroke:#181818;stroke-width:0.5;" width="151.5735" x="180" y="34"/><ellipse cx="195" cy="50" fill="#A9DCDF" rx="11" ry="11" style="stroke:#181818;stroke-width:1.0;"/><path d="M195.1094,45.3438 L193.9531,50.4219 L196.2813,50.4219 L195.1094,45.3438 Z M193.625,43.1094 L196.6094,43.1094 L199.9688,55.5 L197.5156,55.5 L196.75,52.4375 L193.4688,52.4375 L192.7188,55.5 L190.2813,55.5 L193.625,43.1094 Z " fill="#000000"/><text fill="#000000" font-family="sans-serif" font-size="14" font-style="italic" lengthAdjust="spacing" textLength="119.5735" x="209" y="55.432">AbstractAdminView</text><line style="stroke:#181818;stroke-width:0.5;" x1="181" x2="330.5735" y1="66" y2="66"/><line style="stroke:#181818;stroke-width:0.5;" x1="181" x2="330.5735" y1="74" y2="74"/></g></a><polygon fill="none" points="256,82.2692,250,100.2692,262,100.2692,256,82.2692" style="stroke:#181818;stroke-width:1.0;"/><path d="M256,100.2692 C256,113.4922 256,112.4505 256,127.9269 " fill="none" style="stroke:#181818;stroke-width:1.0;"/><text fill="#888888" font-family="sans-serif" font-size="10" lengthAdjust="spacing" textLength="2.6" x="274.2" y="234.69">&#160;</text><a href="https://github.com/talsma-ict/umldoclet" target="_top" title="https://github.com/talsma-ict/umldoclet" xlink:actuate="onRequest" xlink:href="https://github.com/talsma-ict/umldoclet" xlink:show="new" xlink:title="https://github.com/talsma-ict/umldoclet" xlink:type="simple"><text fill="#888888" font-family="sans-serif" font-size="10" lengthAdjust="spacing" textLength="76.7199" x="237.14" y="248.31">UMLDoclet 2.2.1</text></a><!--SRC=[fPHDJzj048Rl_8gfUYW8idQS4gY5AaK1zKEXgfhGIvh3n5xiLTQxxkuuDABvxntR8GJ8gVXYhtVcdUUTzHW0u1qCRRboAii9o0BboiFDzGZGf9198nsIJ44Lc4aFSwcjoNmRA04hogq3Uzki4kkSzAKrgJ8PVCKbWhULIwGN1mVGb9eygD-Xtr6Vh-gNbpRHak1mUBI358NTVYSAe_SmGUqBX2_3YTYeFUP48X9TO6sj4cayIrOcbQx16fIOy6tKxfp0KZglhE6SSADJMqsi8LJ6GucEV6tfkqP3DMjNrFN56HmEngEdRE67Xkq41ivWbS8F-xlQsdrJEioOMEFALWI-a8G6cotFp5voAIJkNnot2Gowu3OpIo5oVevw8b4exkHSgABKeb82ov8j8h41iLJopWjC2sL4YeI-AWfqAxXlrUehqUWz3EgGIuuOjn4_EH6cqtslHKw5dirO0tQkUqzSCbd3yRV1zLKCOt9yn4z2ZlUf7GuUSOVSOFc7ZhPPwnPp_Mhld5BmUJuYuzoJmuGUx6-M3U76kn11cnQys7tPWlKkw7y3nl5Ba8k_dSuhZvjbztI-PRtmjDBouzR8hRN4K_7qS3-lIkb6oYo6LlF7-FPy_-vDFL1Q6Sapd2oCvCQ6ppfq4UpKszJwPQRJdAZqSH1aYl9gNhSZe6QOEogXe2fqsaxnitcUpJRp-MdxewY7hTEDEj7vf7iQd_RZNa-SdVRE-sVzVdWSTkCmd5vLpfOo69DD5hdLnUmV]--></g></svg>