<?xml version="1.0" encoding="UTF-8" standalone="no"?><svg xmlns="http://www.w3.org/2000/svg" xmlns:xlink="http://www.w3.org/1999/xlink" contentStyleType="text/css" height="432px" preserveAspectRatio="none" style="width:638px;height:432px;background:#FFFFFF;" version="1.1" viewBox="0 0 638 432" width="638px" zoomAndPan="magnify"><defs/><g><!--MD5=[3860a0b74022ea9b98c2587cbc4719d3]
cluster com.hack23.cia.web.impl.ui.application.views.user.parliament.pagemode.risk--><g id="cluster_com.hack23.cia.web.impl.ui.application.views.user.parliament.pagemode.risk"><path d="M8.5,194 L618.5,194 A3.75,3.75 0 0 1 621,196.5 L628,216.2969 L628.5,216.2969 A2.5,2.5 0 0 1 631,218.7969 L631,404.5 A2.5,2.5 0 0 1 628.5,407 L8.5,407 A2.5,2.5 0 0 1 6,404.5 L6,196.5 A2.5,2.5 0 0 1 8.5,194 " style="stroke:#000000;stroke-width:1.5;fill:none;"/><line style="stroke:#000000;stroke-width:1.5;fill:none;" x1="6" x2="628" y1="216.2969" y2="216.2969"/><text fill="#000000" font-family="sans-serif" font-size="14" font-weight="bold" lengthAdjust="spacing" textLength="609" x="10" y="208.9951">com.hack23.cia.web.impl.ui.application.views.user.parliament.pagemode.risk</text></g><!--MD5=[09277d9ed5671aa28a7e95e01d21d1de]
cluster com.hack23.cia.service.api.action.kpi--><g id="cluster_com.hack23.cia.service.api.action.kpi"><path d="M153.5,6 L448.5,6 A3.75,3.75 0 0 1 451,8.5 L458,28.2969 L482.5,28.2969 A2.5,2.5 0 0 1 485,30.7969 L485,167.5 A2.5,2.5 0 0 1 482.5,170 L153.5,170 A2.5,2.5 0 0 1 151,167.5 L151,8.5 A2.5,2.5 0 0 1 153.5,6 " style="stroke:#000000;stroke-width:1.5;fill:none;"/><line style="stroke:#000000;stroke-width:1.5;fill:none;" x1="151" x2="458" y1="28.2969" y2="28.2969"/><text fill="#000000" font-family="sans-serif" font-size="14" font-weight="bold" lengthAdjust="spacing" textLength="294" x="155" y="20.9951">com.hack23.cia.service.api.action.kpi</text></g><!--MD5=[7379f9d7b7b9ae83cc182ace6176aa7b]
class com.hack23.cia.web.impl.ui.application.views.user.parliament.pagemode.risk.ComplianceCheckImpl--><a href="ComplianceCheckImpl.html" target="_top" title="ComplianceCheckImpl.html" xlink:actuate="onRequest" xlink:href="ComplianceCheckImpl.html" xlink:show="new" xlink:title="ComplianceCheckImpl.html" xlink:type="simple"><g id="elem_com.hack23.cia.web.impl.ui.application.views.user.parliament.pagemode.risk.ComplianceCheckImpl"><rect codeLine="3" fill="#F1F1F1" height="162.0781" id="com.hack23.cia.web.impl.ui.application.views.user.parliament.pagemode.risk.ComplianceCheckImpl" rx="2.5" ry="2.5" style="stroke:#181818;stroke-width:0.5;" width="325" x="155.5" y="229"/><ellipse cx="237.25" cy="245" fill="#ADD1B2" rx="11" ry="11" style="stroke:#181818;stroke-width:1.0;"/><path d="M240.2188,250.6406 Q239.6406,250.9375 239,251.0781 Q238.3594,251.2344 237.6563,251.2344 Q235.1563,251.2344 233.8281,249.5938 Q232.5156,247.9375 232.5156,244.8125 Q232.5156,241.6875 233.8281,240.0313 Q235.1563,238.375 237.6563,238.375 Q238.3594,238.375 239,238.5313 Q239.6563,238.6875 240.2188,238.9844 L240.2188,241.7031 Q239.5938,241.125 239,240.8594 Q238.4063,240.5781 237.7813,240.5781 Q236.4375,240.5781 235.75,241.6563 Q235.0625,242.7188 235.0625,244.8125 Q235.0625,246.9063 235.75,247.9844 Q236.4375,249.0469 237.7813,249.0469 Q238.4063,249.0469 239,248.7813 Q239.5938,248.5 240.2188,247.9219 L240.2188,250.6406 Z " fill="#000000"/><text fill="#000000" font-family="sans-serif" font-size="14" lengthAdjust="spacing" textLength="153" x="257.75" y="249.8467">ComplianceCheckImpl</text><line style="stroke:#181818;stroke-width:0.5;" x1="156.5" x2="479.5" y1="261" y2="261"/><line style="stroke:#181818;stroke-width:0.5;" x1="156.5" x2="479.5" y1="269" y2="269"/><ellipse cx="166.5" cy="280" fill="#84BE84" rx="3" ry="3" style="stroke:#038048;stroke-width:1.0;"/><text fill="#000000" font-family="sans-serif" font-size="14" lengthAdjust="spacing" textLength="299" x="175.5" y="285.9951">ComplianceCheckImpl(List&lt;RuleViolation&gt;)</text><ellipse cx="166.5" cy="296.2969" fill="#84BE84" rx="3" ry="3" style="stroke:#038048;stroke-width:1.0;"/><text fill="#000000" font-family="sans-serif" font-size="14" lengthAdjust="spacing" textLength="244" x="175.5" y="302.292">getResourceType(): ResourceType</text><ellipse cx="166.5" cy="312.5938" fill="#84BE84" rx="3" ry="3" style="stroke:#038048;stroke-width:1.0;"/><text fill="#000000" font-family="sans-serif" font-size="14" lengthAdjust="spacing" textLength="275" x="175.5" y="318.5889">getRuleViolations(): List&lt;RuleViolation&gt;</text><ellipse cx="166.5" cy="328.8906" fill="#84BE84" rx="3" ry="3" style="stroke:#038048;stroke-width:1.0;"/><text fill="#000000" font-family="sans-serif" font-size="14" lengthAdjust="spacing" textLength="211" x="175.5" y="334.8857">getNumberRuleViolations(): int</text><ellipse cx="166.5" cy="345.1875" fill="#84BE84" rx="3" ry="3" style="stroke:#038048;stroke-width:1.0;"/><text fill="#000000" font-family="sans-serif" font-size="14" lengthAdjust="spacing" textLength="177" x="175.5" y="351.1826">getRuleSummary(): String</text><ellipse cx="166.5" cy="361.4844" fill="#84BE84" rx="3" ry="3" style="stroke:#038048;stroke-width:1.0;"/><text fill="#000000" font-family="sans-serif" font-size="14" lengthAdjust="spacing" textLength="94" x="175.5" y="367.4795">getId(): String</text><ellipse cx="166.5" cy="377.7813" fill="#84BE84" rx="3" ry="3" style="stroke:#038048;stroke-width:1.0;"/><text fill="#000000" font-family="sans-serif" font-size="14" lengthAdjust="spacing" textLength="122" x="175.5" y="383.7764">getName(): String</text></g></a><!--MD5=[064d03dd072a68cc96510ce0d9e7d089]
class com.hack23.cia.service.api.action.kpi.ComplianceCheck--><g id="elem_com.hack23.cia.service.api.action.kpi.ComplianceCheck"><rect codeLine="17" fill="#F1F1F1" height="113.1875" id="com.hack23.cia.service.api.action.kpi.ComplianceCheck" rx="2.5" ry="2.5" style="stroke:#181818;stroke-width:0.5;" width="302" x="167" y="41"/><ellipse cx="251.25" cy="57" fill="#B4A7E5" rx="11" ry="11" style="stroke:#181818;stroke-width:1.0;"/><path d="M247.1719,52.7656 L247.1719,50.6094 L254.5625,50.6094 L254.5625,52.7656 L252.0938,52.7656 L252.0938,60.8438 L254.5625,60.8438 L254.5625,63 L247.1719,63 L247.1719,60.8438 L249.6406,60.8438 L249.6406,52.7656 L247.1719,52.7656 Z " fill="#000000"/><text fill="#000000" font-family="sans-serif" font-size="14" font-style="italic" lengthAdjust="spacing" textLength="125" x="271.75" y="61.8467">ComplianceCheck</text><line style="stroke:#181818;stroke-width:0.5;" x1="168" x2="468" y1="73" y2="73"/><line style="stroke:#181818;stroke-width:0.5;" x1="168" x2="468" y1="81" y2="81"/><ellipse cx="178" cy="92" fill="#84BE84" rx="3" ry="3" style="stroke:#038048;stroke-width:1.0;"/><text fill="#000000" font-family="sans-serif" font-size="14" font-style="italic" lengthAdjust="spacing" textLength="244" x="187" y="97.9951">getResourceType(): ResourceType</text><ellipse cx="178" cy="108.2969" fill="#84BE84" rx="3" ry="3" style="stroke:#038048;stroke-width:1.0;"/><text fill="#000000" font-family="sans-serif" font-size="14" font-style="italic" lengthAdjust="spacing" textLength="276" x="187" y="114.292">getRuleViolations(): List&lt;RuleViolation&gt;</text><ellipse cx="178" cy="124.5938" fill="#84BE84" rx="3" ry="3" style="stroke:#038048;stroke-width:1.0;"/><text fill="#000000" font-family="sans-serif" font-size="14" font-style="italic" lengthAdjust="spacing" textLength="95" x="187" y="130.5889">getId(): String</text><ellipse cx="178" cy="140.8906" fill="#84BE84" rx="3" ry="3" style="stroke:#038048;stroke-width:1.0;"/><text fill="#000000" font-family="sans-serif" font-size="14" font-style="italic" lengthAdjust="spacing" textLength="123" x="187" y="146.8857">getName(): String</text></g><!--MD5=[65232125f5f931e8a4ef5c9340ccc48e]
reverse link com.hack23.cia.service.api.action.kpi.ComplianceCheck to com.hack23.cia.web.impl.ui.application.views.user.parliament.pagemode.risk.ComplianceCheckImpl--><g id="link_com.hack23.cia.service.api.action.kpi.ComplianceCheck_com.hack23.cia.web.impl.ui.application.views.user.parliament.pagemode.risk.ComplianceCheckImpl"><path codeLine="13" d="M318,174.23 C318,191.99 318,210.97 318,228.91 " fill="none" id="com.hack23.cia.service.api.action.kpi.ComplianceCheck-backto-com.hack23.cia.web.impl.ui.application.views.user.parliament.pagemode.risk.ComplianceCheckImpl" style="stroke:#181818;stroke-width:1.0;stroke-dasharray:7.0,7.0;"/><polygon fill="none" points="311,174.08,318,154.08,325,174.08,311,174.08" style="stroke:#181818;stroke-width:1.0;"/></g><rect height="11.6406" style="stroke:#00000000;stroke-width:1.0;fill:none;" width="186" x="219" y="413"/><text fill="#888888" font-family="sans-serif" font-size="10" lengthAdjust="spacing" textLength="186" x="219" y="422.2822">UMLDoclet 2.0.18, PlantUML 1.2022.6</text><!--MD5=[754e4eccb441f7baad85c6b551a7d62f]
@startuml
    namespace com.hack23.cia.web.impl.ui.application.views.user.parliament.pagemode.risk {

        class ComplianceCheckImpl [[ComplianceCheckImpl.html]] {
            +ComplianceCheckImpl(List<RuleViolation>)
            +getResourceType(): ResourceType
            +getRuleViolations(): List<RuleViolation>
            +getNumberRuleViolations(): int
            +getRuleSummary(): String
            +getId(): String
            +getName(): String
        }

        com.hack23.cia.service.api.action.kpi.ComplianceCheck <|.. ComplianceCheckImpl
    }

    namespace com.hack23.cia.service.api.action.kpi {
        interface ComplianceCheck {
            {abstract} +getResourceType(): ResourceType
            {abstract} +getRuleViolations(): List<RuleViolation>
            {abstract} +getId(): String
            {abstract} +getName(): String
        }
    }

    center footer UMLDoclet 2.0.18, PlantUML 1.2022.6
@enduml

PlantUML version 1.2022.6(Tue Jun 21 19:34:49 CEST 2022)
(APACHE source distribution)
Java Runtime: OpenJDK Runtime Environment
JVM: OpenJDK 64-Bit Server VM
Default Encoding: ANSI_X3.4-1968
Language: en
Country: US
--></g></svg>