<?xml version="1.0" encoding="UTF-8" standalone="no"?><svg xmlns="http://www.w3.org/2000/svg" xmlns:xlink="http://www.w3.org/1999/xlink" contentScriptType="application/ecmascript" contentStyleType="text/css" height="295px" preserveAspectRatio="none" style="width:695px;height:295px;" version="1.1" viewBox="0 0 695 295" width="695px" zoomAndPan="magnify"><defs><filter height="300%" id="f15acgntf7rljp" width="300%" x="-1" y="-1"><feGaussianBlur result="blurOut" stdDeviation="2.0"/><feColorMatrix in="blurOut" result="blurOut2" type="matrix" values="0 0 0 0 0 0 0 0 0 0 0 0 0 0 0 0 0 0 .4 0"/><feOffset dx="4.0" dy="4.0" in="blurOut2" result="blurOut3"/><feBlend in="SourceGraphic" in2="blurOut3" mode="normal"/></filter></defs><g><!--MD5=[7eacec73e9fe254a57aaf3928be395cd]
cluster com.hack23.cia.web.impl.ui.application.views.user.ballot.pagemode--><polygon fill="#FFFFFF" filter="url(#f15acgntf7rljp)" points="16,142,557,142,564,164.2969,673,164.2969,673,267,16,267,16,142" style="stroke: #000000; stroke-width: 1.5;"/><line style="stroke: #000000; stroke-width: 1.5;" x1="16" x2="564" y1="164.2969" y2="164.2969"/><text fill="#000000" font-family="sans-serif" font-size="14" font-weight="bold" lengthAdjust="spacingAndGlyphs" textLength="535" x="20" y="156.9951">com.hack23.cia.web.impl.ui.application.views.user.ballot.pagemode</text><!--MD5=[5aa94c924e9848adf3a3e7e8e30b1801]
cluster com.hack23.cia.web.impl.ui.application.views.common.pagemode--><polygon fill="#FFFFFF" filter="url(#f15acgntf7rljp)" points="77,6,601,6,608,28.2969,611,28.2969,611,118,77,118,77,6" style="stroke: #000000; stroke-width: 1.5;"/><line style="stroke: #000000; stroke-width: 1.5;" x1="77" x2="608" y1="28.2969" y2="28.2969"/><text fill="#000000" font-family="sans-serif" font-size="14" font-weight="bold" lengthAdjust="spacingAndGlyphs" textLength="518" x="81" y="20.9951">com.hack23.cia.web.impl.ui.application.views.common.pagemode</text><!--MD5=[f526084a82a267eb1468958a02288fec]
class com.hack23.cia.web.impl.ui.application.views.user.ballot.pagemode.BallotChartsPageModContentFactoryImpl--><a href="BallotChartsPageModContentFactoryImpl.html" target="_top" title="BallotChartsPageModContentFactoryImpl.html" xlink:actuate="onRequest" xlink:href="BallotChartsPageModContentFactoryImpl.html" xlink:show="new" xlink:title="BallotChartsPageModContentFactoryImpl.html" xlink:type="simple"><rect codeLine="3" fill="#FEFECE" filter="url(#f15acgntf7rljp)" height="73.6094" id="com.hack23.cia.web.impl.ui.application.views.user.ballot.pagemode.BallotChartsPageModContentFactoryImpl" style="stroke: #A80036; stroke-width: 1.5;" width="290" x="367" y="177"/><ellipse cx="383.35" cy="193" fill="#ADD1B2" rx="11" ry="11" style="stroke: #A80036; stroke-width: 1.0;"/><path d="M386.3188,198.6406 Q385.7406,198.9375 385.1,199.0781 Q384.4594,199.2344 383.7563,199.2344 Q381.2563,199.2344 379.9281,197.5938 Q378.6156,195.9375 378.6156,192.8125 Q378.6156,189.6875 379.9281,188.0313 Q381.2563,186.375 383.7563,186.375 Q384.4594,186.375 385.1,186.5313 Q385.7563,186.6875 386.3188,186.9844 L386.3188,189.7031 Q385.6938,189.125 385.1,188.8594 Q384.5063,188.5781 383.8813,188.5781 Q382.5375,188.5781 381.85,189.6563 Q381.1625,190.7188 381.1625,192.8125 Q381.1625,194.9063 381.85,195.9844 Q382.5375,197.0469 383.8813,197.0469 Q384.5063,197.0469 385.1,196.7813 Q385.6938,196.5 386.3188,195.9219 L386.3188,198.6406 Z "/><text fill="#000000" font-family="sans-serif" font-size="12" lengthAdjust="spacingAndGlyphs" textLength="255" x="397.65" y="197.1543">BallotChartsPageModContentFactoryImpl</text><line style="stroke: #A80036; stroke-width: 1.5;" x1="368" x2="656" y1="209" y2="209"/><line style="stroke: #A80036; stroke-width: 1.5;" x1="368" x2="656" y1="217" y2="217"/><ellipse cx="378" cy="228" fill="#84BE84" rx="3" ry="3" style="stroke: #038048; stroke-width: 1.0;"/><text fill="#000000" font-family="sans-serif" font-size="11" lengthAdjust="spacingAndGlyphs" textLength="264" x="387" y="231.2104">createContent(String, MenuBar, Panel): Layout</text><ellipse cx="378" cy="240.8047" fill="#84BE84" rx="3" ry="3" style="stroke: #038048; stroke-width: 1.0;"/><text fill="#000000" font-family="sans-serif" font-size="11" lengthAdjust="spacingAndGlyphs" textLength="186" x="387" y="244.0151">matches(String, String): boolean</text></a><!--MD5=[6eea0a65355a656993964ca59854b1d1]
class com.hack23.cia.web.impl.ui.application.views.user.ballot.pagemode.BallotOverviewPageModContentFactoryImpl--><a href="BallotOverviewPageModContentFactoryImpl.html" target="_top" title="BallotOverviewPageModContentFactoryImpl.html" xlink:actuate="onRequest" xlink:href="BallotOverviewPageModContentFactoryImpl.html" xlink:show="new" xlink:title="BallotOverviewPageModContentFactoryImpl.html" xlink:type="simple"><rect codeLine="8" fill="#FEFECE" filter="url(#f15acgntf7rljp)" height="73.6094" id="com.hack23.cia.web.impl.ui.application.views.user.ballot.pagemode.BallotOverviewPageModContentFactoryImpl" style="stroke: #A80036; stroke-width: 1.5;" width="300" x="32" y="177"/><ellipse cx="47" cy="193" fill="#ADD1B2" rx="11" ry="11" style="stroke: #A80036; stroke-width: 1.0;"/><path d="M49.9688,198.6406 Q49.3906,198.9375 48.75,199.0781 Q48.1094,199.2344 47.4063,199.2344 Q44.9063,199.2344 43.5781,197.5938 Q42.2656,195.9375 42.2656,192.8125 Q42.2656,189.6875 43.5781,188.0313 Q44.9063,186.375 47.4063,186.375 Q48.1094,186.375 48.75,186.5313 Q49.4063,186.6875 49.9688,186.9844 L49.9688,189.7031 Q49.3438,189.125 48.75,188.8594 Q48.1563,188.5781 47.5313,188.5781 Q46.1875,188.5781 45.5,189.6563 Q44.8125,190.7188 44.8125,192.8125 Q44.8125,194.9063 45.5,195.9844 Q46.1875,197.0469 47.5313,197.0469 Q48.1563,197.0469 48.75,196.7813 Q49.3438,196.5 49.9688,195.9219 L49.9688,198.6406 Z "/><text fill="#000000" font-family="sans-serif" font-size="12" lengthAdjust="spacingAndGlyphs" textLength="268" x="61" y="197.1543">BallotOverviewPageModContentFactoryImpl</text><line style="stroke: #A80036; stroke-width: 1.5;" x1="33" x2="331" y1="209" y2="209"/><line style="stroke: #A80036; stroke-width: 1.5;" x1="33" x2="331" y1="217" y2="217"/><ellipse cx="43" cy="228" fill="#84BE84" rx="3" ry="3" style="stroke: #038048; stroke-width: 1.0;"/><text fill="#000000" font-family="sans-serif" font-size="11" lengthAdjust="spacingAndGlyphs" textLength="264" x="52" y="231.2104">createContent(String, MenuBar, Panel): Layout</text><ellipse cx="43" cy="240.8047" fill="#84BE84" rx="3" ry="3" style="stroke: #038048; stroke-width: 1.0;"/><text fill="#000000" font-family="sans-serif" font-size="11" lengthAdjust="spacingAndGlyphs" textLength="186" x="52" y="244.0151">matches(String, String): boolean</text></a><!--MD5=[910b05f7a71c4b637000f0152433e223]
class com.hack23.cia.web.impl.ui.application.views.common.pagemode.AbstractItemPageModContentFactoryImpl--><a href="../../../common/pagemode/AbstractItemPageModContentFactoryImpl.html" target="_top" title="../../../common/pagemode/AbstractItemPageModContentFactoryImpl.html" xlink:actuate="onRequest" xlink:href="../../../common/pagemode/AbstractItemPageModContentFactoryImpl.html" xlink:show="new" xlink:title="../../../common/pagemode/AbstractItemPageModContentFactoryImpl.html" xlink:type="simple"><rect codeLine="18" fill="#FEFECE" filter="url(#f15acgntf7rljp)" height="60.8047" id="com.hack23.cia.web.impl.ui.application.views.common.pagemode.AbstractItemPageModContentFactoryImpl" style="stroke: #A80036; stroke-width: 1.5;" width="303" x="192.5" y="41"/><ellipse cx="207.5" cy="57" fill="#A9DCDF" rx="11" ry="11" style="stroke: #A80036; stroke-width: 1.0;"/><path d="M207.6094,52.3438 L206.4531,57.4219 L208.7813,57.4219 L207.6094,52.3438 Z M206.125,50.1094 L209.1094,50.1094 L212.4688,62.5 L210.0156,62.5 L209.25,59.4375 L205.9688,59.4375 L205.2188,62.5 L202.7813,62.5 L206.125,50.1094 Z "/><text fill="#000000" font-family="sans-serif" font-size="12" font-style="italic" lengthAdjust="spacingAndGlyphs" textLength="260" x="221.5" y="61.1543">AbstractItemPageModContentFactoryImpl</text><rect fill="#FFFFFF" height="15.9688" style="stroke: #000000; stroke-width: 1.0; stroke-dasharray: 2.0,2.0;" width="9" x="489.5" y="38"/><text fill="#000000" font-family="sans-serif" font-size="12" font-style="italic" lengthAdjust="spacingAndGlyphs" textLength="7" x="490.5" y="50.1387">T</text><line style="stroke: #A80036; stroke-width: 1.5;" x1="193.5" x2="494.5" y1="73" y2="73"/><line style="stroke: #A80036; stroke-width: 1.5;" x1="193.5" x2="494.5" y1="81" y2="81"/><polygon fill="#FFFF44" points="203.5,87,207.5,91,203.5,95,199.5,91" style="stroke: #B38D22; stroke-width: 1.0;"/><text fill="#000000" font-family="sans-serif" font-size="11" font-style="italic" lengthAdjust="spacingAndGlyphs" textLength="99" x="212.5" y="95.2104">getItem(String): T</text></a><!--MD5=[c3344b560335d3f8849729ad99f7b238]
reverse link com.hack23.cia.web.impl.ui.application.views.common.pagemode.AbstractItemPageModContentFactoryImpl to com.hack23.cia.web.impl.ui.application.views.user.ballot.pagemode.BallotChartsPageModContentFactoryImpl--><path codeLine="13" d="M395.13,115.26 C418.63,134.92 446.21,157.98 468.67,176.76 " fill="none" id="com.hack23.cia.web.impl.ui.application.views.common.pagemode.AbstractItemPageModContentFactoryImpl-backto-com.hack23.cia.web.impl.ui.application.views.user.ballot.pagemode.BallotChartsPageModContentFactoryImpl" style="stroke: #A80036; stroke-width: 1.0;"/><polygon fill="none" points="390.48,120.5,379.63,102.3,399.46,109.76,390.48,120.5" style="stroke: #A80036; stroke-width: 1.0;"/><!--MD5=[4fe0fde02707c7283bda804d5f072e2f]
reverse link com.hack23.cia.web.impl.ui.application.views.common.pagemode.AbstractItemPageModContentFactoryImpl to com.hack23.cia.web.impl.ui.application.views.user.ballot.pagemode.BallotOverviewPageModContentFactoryImpl--><path codeLine="14" d="M294.37,115.55 C271.78,135.14 245.34,158.07 223.78,176.76 " fill="none" id="com.hack23.cia.web.impl.ui.application.views.common.pagemode.AbstractItemPageModContentFactoryImpl-backto-com.hack23.cia.web.impl.ui.application.views.user.ballot.pagemode.BallotOverviewPageModContentFactoryImpl" style="stroke: #A80036; stroke-width: 1.0;"/><polygon fill="none" points="289.95,110.11,309.64,102.3,299.12,120.69,289.95,110.11" style="stroke: #A80036; stroke-width: 1.0;"/><text fill="#888888" font-family="sans-serif" font-size="10" lengthAdjust="spacingAndGlyphs" textLength="192" x="242.5" y="282.2822">UMLDoclet 2.0.12, PlantUML 1.2020.16</text><!--MD5=[e98934dcdad3537027b5a9d5abc77893]
@startuml
    namespace com.hack23.cia.web.impl.ui.application.views.user.ballot.pagemode {

        class BallotChartsPageModContentFactoryImpl [[BallotChartsPageModContentFactoryImpl.html]] {
            +createContent(String, MenuBar, Panel): Layout
            +matches(String, String): boolean
        }

        class BallotOverviewPageModContentFactoryImpl [[BallotOverviewPageModContentFactoryImpl.html]] {
            +createContent(String, MenuBar, Panel): Layout
            +matches(String, String): boolean
        }

        com.hack23.cia.web.impl.ui.application.views.common.pagemode.AbstractItemPageModContentFactoryImpl <|- - BallotChartsPageModContentFactoryImpl
        com.hack23.cia.web.impl.ui.application.views.common.pagemode.AbstractItemPageModContentFactoryImpl <|- - BallotOverviewPageModContentFactoryImpl
    }

    namespace com.hack23.cia.web.impl.ui.application.views.common.pagemode {
        abstract class AbstractItemPageModContentFactoryImpl<T> [[../../../common/pagemode/AbstractItemPageModContentFactoryImpl.html]] {
            {abstract} #getItem(String): T
        }
    }

    center footer UMLDoclet 2.0.12, PlantUML 1.2020.16
@enduml

PlantUML version 1.2020.16(Sun Aug 23 22:20:43 CEST 2020)
(APACHE source distribution)
Java Runtime: OpenJDK Runtime Environment
JVM: OpenJDK 64-Bit Server VM
Default Encoding: UTF-8
Language: en
Country: US
--></g></svg>