<svg xmlns="http://www.w3.org/2000/svg" xmlns:xlink="http://www.w3.org/1999/xlink" contentStyleType="text/css" data-diagram-type="CLASS" height="190px" preserveAspectRatio="none" style="width:255px;height:190px;background:#FFFFFF;" version="1.1" viewBox="0 0 255 190" width="255px" zoomAndPan="magnify"><defs/><g><!--class com.hack23.cia.service.api.action.application.LogoutResponse--><g class="entity" data-entity="com.hack23.cia.service.api.action.application.LogoutResponse" data-source-line="13" data-uid="ent0002" id="entity_com.hack23.cia.service.api.action.application.LogoutResponse"><a href="LogoutResponse.html" target="_top" title="LogoutResponse.html" xlink:actuate="onRequest" xlink:href="LogoutResponse.html" xlink:show="new" xlink:title="LogoutResponse.html" xlink:type="simple"><rect fill="#F1F1F1" height="69.7558" rx="2.5" ry="2.5" style="stroke:#181818;stroke-width:0.5;" width="242.3699" x="6" y="91"/><ellipse cx="21" cy="112.344" fill="#ADD1B2" rx="11" ry="11" style="stroke:#181818;stroke-width:1;"/><path d="M23.9688,117.9846 Q23.3906,118.2815 22.75,118.4221 Q22.1094,118.5783 21.4063,118.5783 Q18.9063,118.5783 17.5781,116.9377 Q16.2656,115.2815 16.2656,112.1565 Q16.2656,109.0315 17.5781,107.3752 Q18.9063,105.719 21.4063,105.719 Q22.1094,105.719 22.75,105.8752 Q23.4063,106.0315 23.9688,106.3283 L23.9688,109.0471 Q23.3438,108.469 22.75,108.2033 Q22.1563,107.9221 21.5313,107.9221 Q20.1875,107.9221 19.5,109.0002 Q18.8125,110.0627 18.8125,112.1565 Q18.8125,114.2502 19.5,115.3283 Q20.1875,116.3908 21.5313,116.3908 Q22.1563,116.3908 22.75,116.1252 Q23.3438,115.844 23.9688,115.2658 L23.9688,117.9846 Z " fill="#000000"/><text fill="#000000" font-family="sans-serif" font-size="14" lengthAdjust="spacing" textLength="110.2356" x="85.0672" y="110.9659">LogoutResponse</text><text fill="#000000" font-family="sans-serif" font-size="10" lengthAdjust="spacing" textLength="210.3699" x="35" y="125.7579">com.hack23.cia.service.api.action.application</text><line style="stroke:#181818;stroke-width:0.5;" x1="7" x2="247.3699" y1="133.6879" y2="133.6879"/><ellipse cx="17" cy="148.7219" fill="#84BE84" rx="3" ry="3" style="stroke:#038048;stroke-width:1;"/><text fill="#000000" font-family="sans-serif" font-size="14" lengthAdjust="spacing" textLength="205.9672" x="26" y="152.6538">LogoutResponse(ServiceResult)</text></a></g><!--class com.hack23.cia.service.api.action.common.AbstractResponse--><g class="entity" data-entity="com.hack23.cia.service.api.action.common.AbstractResponse" data-source-line="17" data-uid="ent0003" id="entity_com.hack23.cia.service.api.action.common.AbstractResponse"><a href="../common/AbstractResponse.html" target="_top" title="../common/AbstractResponse.html" xlink:actuate="onRequest" xlink:href="../common/AbstractResponse.html" xlink:show="new" xlink:title="../common/AbstractResponse.html" xlink:type="simple"><rect fill="#F1F1F1" height="42.6879" rx="2.5" ry="2.5" style="stroke:#181818;stroke-width:0.5;" width="221.7498" x="16" y="12"/><ellipse cx="31" cy="33.344" fill="#A9DCDF" rx="11" ry="11" style="stroke:#181818;stroke-width:1;"/><path d="M31.1094,28.6877 L29.9531,33.7658 L32.2813,33.7658 L31.1094,28.6877 Z M29.625,26.4533 L32.6094,26.4533 L35.9688,38.844 L33.5156,38.844 L32.75,35.7815 L29.4688,35.7815 L28.7188,38.844 L26.2813,38.844 L29.625,26.4533 Z " fill="#000000"/><text fill="#000000" font-family="sans-serif" font-size="14" font-style="italic" lengthAdjust="spacing" textLength="109.3676" x="85.1911" y="31.9659">AbstractResponse</text><text fill="#000000" font-family="sans-serif" font-size="10" font-style="italic" lengthAdjust="spacing" textLength="189.7498" x="45" y="46.7579">com.hack23.cia.service.api.action.common</text></a></g><g class="link" data-entity-1="com.hack23.cia.service.api.action.common.AbstractResponse" data-entity-2="com.hack23.cia.service.api.action.application.LogoutResponse" data-uid="lnk4" id="link_com.hack23.cia.service.api.action.common.AbstractResponse_com.hack23.cia.service.api.action.application.LogoutResponse"><polygon fill="none" points="127,55.0359,121,73.0359,133,73.0359,127,55.0359" style="stroke:#181818;stroke-width:1;"/><path d="M127,73.0359 C127,83.5703 127,78.6827 127,90.6991" fill="none" style="stroke:#181818;stroke-width:1;"/></g><g class="footer" data-source-line="27"><text fill="#888888" font-family="sans-serif" font-size="10" lengthAdjust="spacing" textLength="2.6" x="122.2" y="165.69">&#160;</text><a href="https://github.com/talsma-ict/umldoclet" target="_top" title="https://github.com/talsma-ict/umldoclet" xlink:actuate="onRequest" xlink:href="https://github.com/talsma-ict/umldoclet" xlink:show="new" xlink:title="https://github.com/talsma-ict/umldoclet" xlink:type="simple"><text fill="#888888" font-family="sans-serif" font-size="10" lengthAdjust="spacing" textLength="76.7199" x="85.14" y="179.31">UMLDoclet 2.2.4</text></a></g><!--SRC=[fLHDJzj04BtpAwRqK11a_T4G8498KLhrGwbKaN0A72RhmLvblUlkhgdIbl_UiPq6alRGKbzipypEUs_6pm00hs1igvLJUH4WM0Y5yd3zQG9eCiZ9aCD06QWIS_Am86rDxhj20gn3OHtOk_PDMkV8LzPaokJm4UyHlAsT92_szg25cltg_XNza-wBLHDyOwMc00VZmoUKqZWPzD8u7S0CjIyHFendOjtjyKmgKj47xgsL9EEvPMqoSYsjKOMIRvCkSmptvBooXi_4wpwDL6bDG6KyLEY2RoHzrcX2mpKHZ7yYaXWEHjF9Dhdul2Lt32DdiCxWodwfDtfVL0vpfgnnPUi0lgI01hkSPzO6IvuNIfeIesBWKHfhgCqNAYEWiWehk5EaCxyRvMQ5vN0RbngzX_qBhxxHCEbVJcpEY5VjDZpTc7KYlfIs50NAPVfQI8N2axldkGYib40PU2pyMF4GiNdU1zxIFvqGsy0mdsy7H15AVNiBtrlMpNMqNN0mxVhpUwt3OLlsq6d4XG-E8NyJEreddYMNAyg_LjeLYrr0bYb4r2MZtUHQydfFpuQu-D7h_TSkEW8NFgmqNMx6VsTjO9yyxgEvtgygSXDbbcEh-PjyUVRdx7LZCQqCiQlbqX0l9TvKFdHmqHEyDTQDcS-B42e_ZA9SXQ9UDAAZqDgxfsI8wb9ddQzt7CvZx1pxRlFhQDpNY_kz99ab_M5_C4m6ukHiaFRFJq_xHt4wZEFvszhPYg9fi79PM5tU_WG0]--></g></svg>