<svg xmlns="http://www.w3.org/2000/svg" xmlns:xlink="http://www.w3.org/1999/xlink" contentStyleType="text/css" data-diagram-type="CLASS" height="190px" preserveAspectRatio="none" style="width:263px;height:190px;background:#FFFFFF;" version="1.1" viewBox="0 0 263 190" width="263px" zoomAndPan="magnify"><defs/><g><!--class com.hack23.cia.service.external.worldbank.api.DataFailureException--><g class="entity" data-entity="com.hack23.cia.service.external.worldbank.api.DataFailureException" data-source-line="13" data-uid="ent0002" id="entity_com.hack23.cia.service.external.worldbank.api.DataFailureException"><a href="DataFailureException.html" target="_top" title="DataFailureException.html" xlink:actuate="onRequest" xlink:href="DataFailureException.html" xlink:show="new" xlink:title="DataFailureException.html" xlink:type="simple"><rect fill="#F1F1F1" height="69.7558" rx="2.5" ry="2.5" style="stroke:#181818;stroke-width:0.5;" width="250.3698" x="6" y="91"/><ellipse cx="21" cy="112.344" fill="#ADD1B2" rx="11" ry="11" style="stroke:#181818;stroke-width:1;"/><path d="M23.9688,117.9846 Q23.3906,118.2815 22.75,118.4221 Q22.1094,118.5783 21.4063,118.5783 Q18.9063,118.5783 17.5781,116.9377 Q16.2656,115.2815 16.2656,112.1565 Q16.2656,109.0315 17.5781,107.3752 Q18.9063,105.719 21.4063,105.719 Q22.1094,105.719 22.75,105.8752 Q23.4063,106.0315 23.9688,106.3283 L23.9688,109.0471 Q23.3438,108.469 22.75,108.2033 Q22.1563,107.9221 21.5313,107.9221 Q20.1875,107.9221 19.5,109.0002 Q18.8125,110.0627 18.8125,112.1565 Q18.8125,114.2502 19.5,115.3283 Q20.1875,116.3908 21.5313,116.3908 Q22.1563,116.3908 22.75,116.1252 Q23.3438,115.844 23.9688,115.2658 L23.9688,117.9846 Z " fill="#000000"/><text fill="#000000" font-family="sans-serif" font-size="14" lengthAdjust="spacing" textLength="139.8595" x="74.2552" y="110.9659">DataFailureException</text><text fill="#000000" font-family="sans-serif" font-size="10" lengthAdjust="spacing" textLength="218.3698" x="35" y="125.7579">com.hack23.cia.service.external.worldbank.api</text><line style="stroke:#181818;stroke-width:0.5;" x1="7" x2="255.3698" y1="133.6879" y2="133.6879"/><ellipse cx="17" cy="148.7219" fill="#84BE84" rx="3" ry="3" style="stroke:#038048;stroke-width:1;"/><text fill="#000000" font-family="sans-serif" font-size="14" lengthAdjust="spacing" textLength="212.4632" x="26" y="152.6538">DataFailureException(Exception)</text></a></g><!--class java.lang.Exception--><g class="entity" data-entity="java.lang.Exception" data-source-line="17" data-uid="ent0003" id="entity_java.lang.Exception"><rect fill="#F1F1F1" height="42.6879" rx="2.5" ry="2.5" style="stroke:#181818;stroke-width:0.5;" width="96.2038" x="83" y="12"/><ellipse cx="98" cy="33.344" fill="#ADD1B2" rx="11" ry="11" style="stroke:#181818;stroke-width:1;"/><path d="M100.9688,38.9846 Q100.3906,39.2815 99.75,39.4221 Q99.1094,39.5783 98.4063,39.5783 Q95.9063,39.5783 94.5781,37.9377 Q93.2656,36.2815 93.2656,33.1565 Q93.2656,30.0315 94.5781,28.3752 Q95.9063,26.719 98.4063,26.719 Q99.1094,26.719 99.75,26.8752 Q100.4063,27.0315 100.9688,27.3283 L100.9688,30.0471 Q100.3438,29.469 99.75,29.2033 Q99.1563,28.9221 98.5313,28.9221 Q97.1875,28.9221 96.5,30.0002 Q95.8125,31.0627 95.8125,33.1565 Q95.8125,35.2502 96.5,36.3283 Q97.1875,37.3908 98.5313,37.3908 Q99.1563,37.3908 99.75,37.1252 Q100.3438,36.844 100.9688,36.2658 L100.9688,38.9846 Z " fill="#000000"/><text fill="#000000" font-family="sans-serif" font-size="14" lengthAdjust="spacing" textLength="64.2038" x="112" y="31.9659">Exception</text><text fill="#000000" font-family="sans-serif" font-size="10" lengthAdjust="spacing" textLength="42.08" x="123.0619" y="46.7579">java.lang</text></g><g class="link" data-entity-1="java.lang.Exception" data-entity-2="com.hack23.cia.service.external.worldbank.api.DataFailureException" data-uid="lnk4" id="link_java.lang.Exception_com.hack23.cia.service.external.worldbank.api.DataFailureException"><polygon fill="none" points="131,55.0359,125,73.0359,137,73.0359,131,55.0359" style="stroke:#181818;stroke-width:1;"/><path d="M131,73.0359 C131,83.5703 131,78.6827 131,90.6991" fill="none" style="stroke:#181818;stroke-width:1;"/></g><g class="footer" data-source-line="27"><text fill="#888888" font-family="sans-serif" font-size="10" lengthAdjust="spacing" textLength="2.6" x="126.2" y="165.69">&#160;</text><a href="https://github.com/talsma-ict/umldoclet" target="_top" title="https://github.com/talsma-ict/umldoclet" xlink:actuate="onRequest" xlink:href="https://github.com/talsma-ict/umldoclet" xlink:show="new" xlink:title="https://github.com/talsma-ict/umldoclet" xlink:type="simple"><text fill="#888888" font-family="sans-serif" font-size="10" lengthAdjust="spacing" textLength="76.7199" x="89.14" y="179.31">UMLDoclet 2.2.4</text></a></g><!--SRC=[hLFVRzCm47xVNt6C1pfjTPEq6rjLLQgwCK15GhHxwlfmTQw9gMC7szbMOFyxJb92cVA2X5yItu_lk-zy1m3m1gOwtncHf0wS1fSA2tUVPe0gXeGK6NGKWyWm8GjhabebjWuamCAbse3UL3UkZI6RQnKBbS17V42mkZ2SB3iwWefgyHlz4Uq1-dfN6gyrb-IWCpqvA2aAmejk54GNi41fCuGFqmNRe_t9YLZ41k2nfU2ah8SiL4ocAckI8_UVMUqvWmSoLcZbSu8zJYcLQ-LGA0iv6cTBIPybAbVM6ZBFVyx203gJ-UplueAhghWpc1Y5HGnVzBUYqVigDvZuaYNkTE70PkHGOUsplcg5cUyNSfgJPqNdMwcqeigVYfY0ijpjO2D8nlQbrOEbsfihEvTeBHoFhFXEmt0mlaQ7xr38mj3D4wVSUS7tQkyEnbndB4M-ZVgC2sIMp8Fl3gCdHrw6P8_Qo7YDQiim5yVWt-gVCbWRFIoNRMQMkaokLl2Zqb6UqxQmJlDtKWK-j-jk4_lL3oBpRvbKGfeRQs9hg1O7Z7vsk_z1UaqmicudQTpet6Zj4Gw4b-VzBYSp4sexrTAFm-lBTkzTETrIAF8BnRUAV1E29lAvfkiTyEsvxjLocJgNss6lbmYN5clcrVLSjLbTmLslo6HShzIBvLgjzijossnjEVZTOD0DmqKu60xU3WVbflJxL-Vzo_FJ81e6mVAcC3gdtjnflasrp5Q_0000]--></g></svg>