<svg xmlns="http://www.w3.org/2000/svg" xmlns:xlink="http://www.w3.org/1999/xlink" contentStyleType="text/css" height="411px" preserveAspectRatio="none" style="width:2834px;height:411px;background:#FFFFFF;" version="1.1" viewBox="0 0 2834 411" width="2834px" zoomAndPan="magnify"><defs/><g><!--cluster com.hack23.cia.service.data.impl--><g id="cluster_com.hack23.cia.service.data.impl"><path d="M16.5,193 L248.8211,193 A3.75,3.75 0 0 1 251.3211,195.5 L258.3211,218.0679 L2824.5,218.0679 A2.5,2.5 0 0 1 2827,220.5679 L2827,371.5 A2.5,2.5 0 0 1 2824.5,374 L16.5,374 A2.5,2.5 0 0 1 14,371.5 L14,195.5 A2.5,2.5 0 0 1 16.5,193 " fill="none" style="stroke:#000000;stroke-width:1.5;"/><line style="stroke:#000000;stroke-width:1.5;" x1="14" x2="258.3211" y1="218.0679" y2="218.0679"/><text fill="#000000" font-family="sans-serif" font-size="14" font-weight="bold" lengthAdjust="spacing" textLength="231.3211" x="18" y="209.9659">com.hack23.cia.service.data.impl</text></g><!--cluster org.hibernate.boot.model.naming--><g id="cluster_org.hibernate.boot.model.naming"><path d="M30.5,4 L270.1291,4 A3.75,3.75 0 0 1 272.6291,6.5 L279.6291,29.0679 L467.5,29.0679 A2.5,2.5 0 0 1 470,31.5679 L470,182.5 A2.5,2.5 0 0 1 467.5,185 L30.5,185 A2.5,2.5 0 0 1 28,182.5 L28,6.5 A2.5,2.5 0 0 1 30.5,4 " fill="none" style="stroke:#000000;stroke-width:1.5;"/><line style="stroke:#000000;stroke-width:1.5;" x1="28" x2="279.6291" y1="29.0679" y2="29.0679"/><text fill="#000000" font-family="sans-serif" font-size="14" font-weight="bold" lengthAdjust="spacing" textLength="238.6291" x="32" y="20.9659">org.hibernate.boot.model.naming</text></g><!--cluster org.hibernate.search.mapper.orm.mapping--><g id="cluster_org.hibernate.search.mapper.orm.mapping"><path d="M499.5,42 L805.3209,42 A3.75,3.75 0 0 1 807.8209,44.5 L814.8209,67.0679 L916.5,67.0679 A2.5,2.5 0 0 1 919,69.5679 L919,144.5 A2.5,2.5 0 0 1 916.5,147 L499.5,147 A2.5,2.5 0 0 1 497,144.5 L497,44.5 A2.5,2.5 0 0 1 499.5,42 " fill="none" style="stroke:#000000;stroke-width:1.5;"/><line style="stroke:#000000;stroke-width:1.5;" x1="497" x2="814.8209" y1="67.0679" y2="67.0679"/><text fill="#000000" font-family="sans-serif" font-size="14" font-weight="bold" lengthAdjust="spacing" textLength="304.8209" x="501" y="58.9659">org.hibernate.search.mapper.orm.mapping</text></g><!--cluster org.hibernate.search.backend.lucene.analysis--><g id="cluster_org.hibernate.search.backend.lucene.analysis"><path d="M2448.5,42 L2771.2048,42 A3.75,3.75 0 0 1 2773.7048,44.5 L2780.7048,67.0679 L2813.5,67.0679 A2.5,2.5 0 0 1 2816,69.5679 L2816,144.5 A2.5,2.5 0 0 1 2813.5,147 L2448.5,147 A2.5,2.5 0 0 1 2446,144.5 L2446,44.5 A2.5,2.5 0 0 1 2448.5,42 " fill="none" style="stroke:#000000;stroke-width:1.5;"/><line style="stroke:#000000;stroke-width:1.5;" x1="2446" x2="2780.7048" y1="67.0679" y2="67.0679"/><text fill="#000000" font-family="sans-serif" font-size="14" font-weight="bold" lengthAdjust="spacing" textLength="321.7048" x="2450" y="58.9659">org.hibernate.search.backend.lucene.analysis</text></g><!--class LegacyNamingStrategy--><a href="LegacyNamingStrategy.html" target="_top" title="LegacyNamingStrategy.html" xlink:actuate="onRequest" xlink:href="LegacyNamingStrategy.html" xlink:show="new" xlink:title="LegacyNamingStrategy.html" xlink:type="simple"><g id="elem_LegacyNamingStrategy"><rect codeLine="12" fill="#F1F1F1" height="143.3396" id="LegacyNamingStrategy" rx="2.5" ry="2.5" style="stroke:#181818;stroke-width:0.5;" width="452.8303" x="22.5" y="223"/><ellipse cx="168.1204" cy="239" fill="#ADD1B2" rx="11" ry="11" style="stroke:#181818;stroke-width:1.0;"/><path d="M171.0892,244.6406 Q170.5111,244.9375 169.8704,245.0781 Q169.2298,245.2344 168.5267,245.2344 Q166.0267,245.2344 164.6986,243.5938 Q163.3861,241.9375 163.3861,238.8125 Q163.3861,235.6875 164.6986,234.0313 Q166.0267,232.375 168.5267,232.375 Q169.2298,232.375 169.8704,232.5313 Q170.5267,232.6875 171.0892,232.9844 L171.0892,235.7031 Q170.4642,235.125 169.8704,234.8594 Q169.2767,234.5781 168.6517,234.5781 Q167.3079,234.5781 166.6204,235.6563 Q165.9329,236.7188 165.9329,238.8125 Q165.9329,240.9063 166.6204,241.9844 Q167.3079,243.0469 168.6517,243.0469 Q169.2767,243.0469 169.8704,242.7813 Q170.4642,242.5 171.0892,241.9219 L171.0892,244.6406 Z " fill="#000000"/><text fill="#000000" font-family="sans-serif" font-size="14" lengthAdjust="spacing" textLength="153.0894" x="188.6204" y="244.432">LegacyNamingStrategy</text><line style="stroke:#181818;stroke-width:0.5;" x1="23.5" x2="474.3303" y1="255" y2="255"/><line style="stroke:#181818;stroke-width:0.5;" x1="23.5" x2="474.3303" y1="263" y2="263"/><ellipse cx="33.5" cy="278.034" fill="#84BE84" rx="3" ry="3" style="stroke:#038048;stroke-width:1.0;"/><text fill="#000000" font-family="sans-serif" font-size="14" lengthAdjust="spacing" textLength="413.1244" x="42.5" y="281.9659">toPhysicalCatalogName(Identifier, JdbcEnvironment): Identifier</text><ellipse cx="33.5" cy="297.1019" fill="#84BE84" rx="3" ry="3" style="stroke:#038048;stroke-width:1.0;"/><text fill="#000000" font-family="sans-serif" font-size="14" lengthAdjust="spacing" textLength="414.1463" x="42.5" y="301.0339">toPhysicalColumnName(Identifier, JdbcEnvironment): Identifier</text><ellipse cx="33.5" cy="316.1698" fill="#84BE84" rx="3" ry="3" style="stroke:#038048;stroke-width:1.0;"/><text fill="#000000" font-family="sans-serif" font-size="14" lengthAdjust="spacing" textLength="414.7204" x="42.5" y="320.1018">toPhysicalSchemaName(Identifier, JdbcEnvironment): Identifier</text><ellipse cx="33.5" cy="335.2377" fill="#84BE84" rx="3" ry="3" style="stroke:#038048;stroke-width:1.0;"/><text fill="#000000" font-family="sans-serif" font-size="14" lengthAdjust="spacing" textLength="426.8303" x="42.5" y="339.1697">toPhysicalSequenceName(Identifier, JdbcEnvironment): Identifier</text><ellipse cx="33.5" cy="354.3056" fill="#84BE84" rx="3" ry="3" style="stroke:#038048;stroke-width:1.0;"/><text fill="#000000" font-family="sans-serif" font-size="14" lengthAdjust="spacing" textLength="398.5785" x="42.5" y="358.2376">toPhysicalTableName(Identifier, JdbcEnvironment): Identifier</text></g></a><!--class QueryHelper--><a href="QueryHelper.html" target="_top" title="QueryHelper.html" xlink:actuate="onRequest" xlink:href="QueryHelper.html" xlink:show="new" xlink:title="QueryHelper.html" xlink:type="simple"><g id="elem_QueryHelper"><rect codeLine="20" fill="#F1F1F1" height="67.0679" id="QueryHelper" rx="2.5" ry="2.5" style="stroke:#181818;stroke-width:0.5;" width="800.5751" x="1623.5" y="261"/><ellipse cx="1977.2507" cy="277" fill="#ADD1B2" rx="11" ry="11" style="stroke:#181818;stroke-width:1.0;"/><path d="M1980.2195,282.6406 Q1979.6413,282.9375 1979.0007,283.0781 Q1978.3601,283.2344 1977.657,283.2344 Q1975.157,283.2344 1973.8288,281.5938 Q1972.5163,279.9375 1972.5163,276.8125 Q1972.5163,273.6875 1973.8288,272.0313 Q1975.157,270.375 1977.657,270.375 Q1978.3601,270.375 1979.0007,270.5313 Q1979.657,270.6875 1980.2195,270.9844 L1980.2195,273.7031 Q1979.5945,273.125 1979.0007,272.8594 Q1978.407,272.5781 1977.782,272.5781 Q1976.4382,272.5781 1975.7507,273.6563 Q1975.0632,274.7188 1975.0632,276.8125 Q1975.0632,278.9063 1975.7507,279.9844 Q1976.4382,281.0469 1977.782,281.0469 Q1978.407,281.0469 1979.0007,280.7813 Q1979.5945,280.5 1980.2195,279.9219 L1980.2195,282.6406 Z " fill="#000000"/><text fill="#000000" font-family="sans-serif" font-size="14" lengthAdjust="spacing" textLength="84.5737" x="1997.7507" y="282.432">QueryHelper</text><line style="stroke:#181818;stroke-width:0.5;" x1="1624.5" x2="2423.0751" y1="293" y2="293"/><line style="stroke:#181818;stroke-width:0.5;" x1="1624.5" x2="2423.0751" y1="301" y2="301"/><ellipse cx="1634.5" cy="316.034" fill="#84BE84" rx="3" ry="3" style="stroke:#038048;stroke-width:1.0;"/><text fill="#000000" font-family="sans-serif" font-size="14" lengthAdjust="spacing" text-decoration="underline" textLength="774.5751" x="1643.5" y="319.9659">equalsIgnoreCaseIfStringPredicate(CriteriaBuilder, Path&lt;T&gt;, Object, SingularAttribute&lt;T, ? extends Object&gt;): Predicate</text></g></a><!--class AuditableAspectConfiguration--><a href="AuditableAspectConfiguration.html" target="_top" title="AuditableAspectConfiguration.html" xlink:actuate="onRequest" xlink:href="AuditableAspectConfiguration.html" xlink:show="new" xlink:title="AuditableAspectConfiguration.html" xlink:type="simple"><g id="elem_AuditableAspectConfiguration"><rect codeLine="24" fill="#F1F1F1" height="124.2717" id="AuditableAspectConfiguration" rx="2.5" ry="2.5" style="stroke:#181818;stroke-width:0.5;" width="664.9017" x="940.5" y="232.5"/><ellipse cx="1169.7702" cy="248.5" fill="#ADD1B2" rx="11" ry="11" style="stroke:#181818;stroke-width:1.0;"/><path d="M1172.739,254.1406 Q1172.1609,254.4375 1171.5202,254.5781 Q1170.8796,254.7344 1170.1765,254.7344 Q1167.6765,254.7344 1166.3484,253.0938 Q1165.0359,251.4375 1165.0359,248.3125 Q1165.0359,245.1875 1166.3484,243.5313 Q1167.6765,241.875 1170.1765,241.875 Q1170.8796,241.875 1171.5202,242.0313 Q1172.1765,242.1875 1172.739,242.4844 L1172.739,245.2031 Q1172.114,244.625 1171.5202,244.3594 Q1170.9265,244.0781 1170.3015,244.0781 Q1168.9577,244.0781 1168.2702,245.1563 Q1167.5827,246.2188 1167.5827,248.3125 Q1167.5827,250.4063 1168.2702,251.4844 Q1168.9577,252.5469 1170.3015,252.5469 Q1170.9265,252.5469 1171.5202,252.2813 Q1172.114,252 1172.739,251.4219 L1172.739,254.1406 Z " fill="#000000"/><text fill="#000000" font-family="sans-serif" font-size="14" lengthAdjust="spacing" textLength="197.8613" x="1190.2702" y="253.932">AuditableAspectConfiguration</text><line style="stroke:#181818;stroke-width:0.5;" x1="941.5" x2="1604.4017" y1="264.5" y2="264.5"/><line style="stroke:#181818;stroke-width:0.5;" x1="941.5" x2="1604.4017" y1="272.5" y2="272.5"/><ellipse cx="951.5" cy="287.534" fill="#84BE84" rx="3" ry="3" style="stroke:#038048;stroke-width:1.0;"/><text fill="#000000" font-family="sans-serif" font-size="14" lengthAdjust="spacing" textLength="309.3289" x="960.5" y="291.4659">getJavers(PlatformTransactionManager): Javers</text><ellipse cx="951.5" cy="306.6019" fill="#84BE84" rx="3" ry="3" style="stroke:#038048;stroke-width:1.0;"/><text fill="#000000" font-family="sans-serif" font-size="14" lengthAdjust="spacing" textLength="638.9017" x="960.5" y="310.5339">javersAuditableAspect(Javers, AuthorProvider, CommitPropertiesProvider): JaversAuditableAspect</text><ellipse cx="951.5" cy="325.6698" fill="#84BE84" rx="3" ry="3" style="stroke:#038048;stroke-width:1.0;"/><text fill="#000000" font-family="sans-serif" font-size="14" lengthAdjust="spacing" textLength="217.2792" x="960.5" y="329.6018">authorProvider(): AuthorProvider</text><ellipse cx="951.5" cy="344.7377" fill="#84BE84" rx="3" ry="3" style="stroke:#038048;stroke-width:1.0;"/><text fill="#000000" font-family="sans-serif" font-size="14" lengthAdjust="spacing" textLength="366.0147" x="960.5" y="348.6697">commitPropertiesProvider(): CommitPropertiesProvider</text></g></a><!--class DataSearchMapping--><a href="DataSearchMapping.html" target="_top" title="DataSearchMapping.html" xlink:actuate="onRequest" xlink:href="DataSearchMapping.html" xlink:show="new" xlink:title="DataSearchMapping.html" xlink:type="simple"><g id="elem_DataSearchMapping"><rect codeLine="31" fill="#F1F1F1" height="67.0679" id="DataSearchMapping" rx="2.5" ry="2.5" style="stroke:#181818;stroke-width:0.5;" width="429.4506" x="493.5" y="261"/><ellipse cx="636.8665" cy="277" fill="#ADD1B2" rx="11" ry="11" style="stroke:#181818;stroke-width:1.0;"/><path d="M639.8353,282.6406 Q639.2572,282.9375 638.6165,283.0781 Q637.9759,283.2344 637.2728,283.2344 Q634.7728,283.2344 633.4447,281.5938 Q632.1322,279.9375 632.1322,276.8125 Q632.1322,273.6875 633.4447,272.0313 Q634.7728,270.375 637.2728,270.375 Q637.9759,270.375 638.6165,270.5313 Q639.2728,270.6875 639.8353,270.9844 L639.8353,273.7031 Q639.2103,273.125 638.6165,272.8594 Q638.0228,272.5781 637.3978,272.5781 Q636.054,272.5781 635.3665,273.6563 Q634.679,274.7188 634.679,276.8125 Q634.679,278.9063 635.3665,279.9844 Q636.054,281.0469 637.3978,281.0469 Q638.0228,281.0469 638.6165,280.7813 Q639.2103,280.5 639.8353,279.9219 L639.8353,282.6406 Z " fill="#000000"/><text fill="#000000" font-family="sans-serif" font-size="14" lengthAdjust="spacing" textLength="134.2175" x="657.3665" y="282.432">DataSearchMapping</text><line style="stroke:#181818;stroke-width:0.5;" x1="494.5" x2="921.9506" y1="293" y2="293"/><line style="stroke:#181818;stroke-width:0.5;" x1="494.5" x2="921.9506" y1="301" y2="301"/><ellipse cx="504.5" cy="316.034" fill="#84BE84" rx="3" ry="3" style="stroke:#038048;stroke-width:1.0;"/><text fill="#000000" font-family="sans-serif" font-size="14" lengthAdjust="spacing" textLength="403.4506" x="513.5" y="319.9659">configure(HibernateOrmMappingConfigurationContext): void</text></g></a><!--class DataSearchAnalysisConfigurer--><a href="DataSearchAnalysisConfigurer.html" target="_top" title="DataSearchAnalysisConfigurer.html" xlink:actuate="onRequest" xlink:href="DataSearchAnalysisConfigurer.html" xlink:show="new" xlink:title="DataSearchAnalysisConfigurer.html" xlink:type="simple"><g id="elem_DataSearchAnalysisConfigurer"><rect codeLine="35" fill="#F1F1F1" height="67.0679" id="DataSearchAnalysisConfigurer" rx="2.5" ry="2.5" style="stroke:#181818;stroke-width:0.5;" width="375.6487" x="2443" y="261"/><ellipse cx="2526.6147" cy="277" fill="#ADD1B2" rx="11" ry="11" style="stroke:#181818;stroke-width:1.0;"/><path d="M2529.5835,282.6406 Q2529.0053,282.9375 2528.3647,283.0781 Q2527.7241,283.2344 2527.021,283.2344 Q2524.521,283.2344 2523.1928,281.5938 Q2521.8803,279.9375 2521.8803,276.8125 Q2521.8803,273.6875 2523.1928,272.0313 Q2524.521,270.375 2527.021,270.375 Q2527.7241,270.375 2528.3647,270.5313 Q2529.021,270.6875 2529.5835,270.9844 L2529.5835,273.7031 Q2528.9585,273.125 2528.3647,272.8594 Q2527.771,272.5781 2527.146,272.5781 Q2525.8022,272.5781 2525.1147,273.6563 Q2524.4272,274.7188 2524.4272,276.8125 Q2524.4272,278.9063 2525.1147,279.9844 Q2525.8022,281.0469 2527.146,281.0469 Q2527.771,281.0469 2528.3647,280.7813 Q2528.9585,280.5 2529.5835,279.9219 L2529.5835,282.6406 Z " fill="#000000"/><text fill="#000000" font-family="sans-serif" font-size="14" lengthAdjust="spacing" textLength="199.9192" x="2547.1147" y="282.432">DataSearchAnalysisConfigurer</text><line style="stroke:#181818;stroke-width:0.5;" x1="2444" x2="2817.6487" y1="293" y2="293"/><line style="stroke:#181818;stroke-width:0.5;" x1="2444" x2="2817.6487" y1="301" y2="301"/><ellipse cx="2454" cy="316.034" fill="#84BE84" rx="3" ry="3" style="stroke:#038048;stroke-width:1.0;"/><text fill="#000000" font-family="sans-serif" font-size="14" lengthAdjust="spacing" textLength="349.6487" x="2463" y="319.9659">configure(LuceneAnalysisConfigurationContext): void</text></g></a><!--class PhysicalNamingStrategy--><g id="elem_PhysicalNamingStrategy"><rect codeLine="42" fill="#F1F1F1" height="143.3396" id="PhysicalNamingStrategy" rx="2.5" ry="2.5" style="stroke:#181818;stroke-width:0.5;" width="425.6283" x="36" y="34"/><ellipse cx="168.7684" cy="50" fill="#B4A7E5" rx="11" ry="11" style="stroke:#181818;stroke-width:1.0;"/><path d="M164.6903,45.7656 L164.6903,43.6094 L172.0809,43.6094 L172.0809,45.7656 L169.6122,45.7656 L169.6122,53.8438 L172.0809,53.8438 L172.0809,56 L164.6903,56 L164.6903,53.8438 L167.1591,53.8438 L167.1591,45.7656 L164.6903,45.7656 Z " fill="#000000"/><text fill="#000000" font-family="sans-serif" font-size="14" font-style="italic" lengthAdjust="spacing" textLength="151.5914" x="189.2684" y="55.432">PhysicalNamingStrategy</text><line style="stroke:#181818;stroke-width:0.5;" x1="37" x2="460.6283" y1="66" y2="66"/><line style="stroke:#181818;stroke-width:0.5;" x1="37" x2="460.6283" y1="74" y2="74"/><ellipse cx="47" cy="89.034" fill="#84BE84" rx="3" ry="3" style="stroke:#038048;stroke-width:1.0;"/><text fill="#000000" font-family="sans-serif" font-size="14" font-style="italic" lengthAdjust="spacing" textLength="389.3104" x="56" y="92.9659">toPhysicalCatalogName(Identifier, JdbcEnvironment): Identifier</text><ellipse cx="47" cy="108.1019" fill="#84BE84" rx="3" ry="3" style="stroke:#038048;stroke-width:1.0;"/><text fill="#000000" font-family="sans-serif" font-size="14" font-style="italic" lengthAdjust="spacing" textLength="389.6464" x="56" y="112.0339">toPhysicalSchemaName(Identifier, JdbcEnvironment): Identifier</text><ellipse cx="47" cy="127.1698" fill="#84BE84" rx="3" ry="3" style="stroke:#038048;stroke-width:1.0;"/><text fill="#000000" font-family="sans-serif" font-size="14" font-style="italic" lengthAdjust="spacing" textLength="374.6104" x="56" y="131.1018">toPhysicalTableName(Identifier, JdbcEnvironment): Identifier</text><ellipse cx="47" cy="146.2377" fill="#84BE84" rx="3" ry="3" style="stroke:#038048;stroke-width:1.0;"/><text fill="#000000" font-family="sans-serif" font-size="14" font-style="italic" lengthAdjust="spacing" textLength="399.6283" x="56" y="150.1697">toPhysicalSequenceName(Identifier, JdbcEnvironment): Identifier</text><ellipse cx="47" cy="165.3056" fill="#84BE84" rx="3" ry="3" style="stroke:#038048;stroke-width:1.0;"/><text fill="#000000" font-family="sans-serif" font-size="14" font-style="italic" lengthAdjust="spacing" textLength="389.1144" x="56" y="169.2376">toPhysicalColumnName(Identifier, JdbcEnvironment): Identifier</text></g><!--class HibernateOrmSearchMappingConfigurer--><g id="elem_HibernateOrmSearchMappingConfigurer"><rect codeLine="52" fill="#F1F1F1" height="67.0679" id="HibernateOrmSearchMappingConfigurer" rx="2.5" ry="2.5" style="stroke:#181818;stroke-width:0.5;" width="405.3145" x="505.5" y="72"/><ellipse cx="577.0047" cy="88" fill="#B4A7E5" rx="11" ry="11" style="stroke:#181818;stroke-width:1.0;"/><path d="M572.9266,83.7656 L572.9266,81.6094 L580.3172,81.6094 L580.3172,83.7656 L577.8484,83.7656 L577.8484,91.8438 L580.3172,91.8438 L580.3172,94 L572.9266,94 L572.9266,91.8438 L575.3953,91.8438 L575.3953,83.7656 L572.9266,83.7656 Z " fill="#000000"/><text fill="#000000" font-family="sans-serif" font-size="14" font-style="italic" lengthAdjust="spacing" textLength="253.8051" x="597.5047" y="93.432">HibernateOrmSearchMappingConfigurer</text><line style="stroke:#181818;stroke-width:0.5;" x1="506.5" x2="909.8145" y1="104" y2="104"/><line style="stroke:#181818;stroke-width:0.5;" x1="506.5" x2="909.8145" y1="112" y2="112"/><ellipse cx="516.5" cy="127.034" fill="#84BE84" rx="3" ry="3" style="stroke:#038048;stroke-width:1.0;"/><text fill="#000000" font-family="sans-serif" font-size="14" font-style="italic" lengthAdjust="spacing" textLength="379.3145" x="525.5" y="130.9659">configure(HibernateOrmMappingConfigurationContext): void</text></g><!--class LuceneAnalysisConfigurer--><g id="elem_LuceneAnalysisConfigurer"><rect codeLine="58" fill="#F1F1F1" height="67.0679" id="LuceneAnalysisConfigurer" rx="2.5" ry="2.5" style="stroke:#181818;stroke-width:0.5;" width="353.1508" x="2454.5" y="72"/><ellipse cx="2547.0187" cy="88" fill="#B4A7E5" rx="11" ry="11" style="stroke:#181818;stroke-width:1.0;"/><path d="M2542.9406,83.7656 L2542.9406,81.6094 L2550.3312,81.6094 L2550.3312,83.7656 L2547.8624,83.7656 L2547.8624,91.8438 L2550.3312,91.8438 L2550.3312,94 L2542.9406,94 L2542.9406,91.8438 L2545.4093,91.8438 L2545.4093,83.7656 L2542.9406,83.7656 Z " fill="#000000"/><text fill="#000000" font-family="sans-serif" font-size="14" font-style="italic" lengthAdjust="spacing" textLength="159.6134" x="2567.5187" y="93.432">LuceneAnalysisConfigurer</text><line style="stroke:#181818;stroke-width:0.5;" x1="2455.5" x2="2806.6508" y1="104" y2="104"/><line style="stroke:#181818;stroke-width:0.5;" x1="2455.5" x2="2806.6508" y1="112" y2="112"/><ellipse cx="2465.5" cy="127.034" fill="#84BE84" rx="3" ry="3" style="stroke:#038048;stroke-width:1.0;"/><text fill="#000000" font-family="sans-serif" font-size="14" font-style="italic" lengthAdjust="spacing" textLength="327.1508" x="2474.5" y="130.9659">configure(LuceneAnalysisConfigurationContext): void</text></g><polygon fill="none" points="249,177.1967,243,195.1967,255,195.1967,249,177.1967" style="stroke:#181818;stroke-width:1.0;"/><path d="M249,195.1967 C249,210.0903 249,207.806 249,222.7033 " fill="none" style="stroke:#181818;stroke-width:1.0;stroke-dasharray:7.0,7.0;"/><polygon fill="none" points="708,139.0729,702,157.0729,714,157.0729,708,139.0729" style="stroke:#181818;stroke-width:1.0;"/><path d="M708,157.0729 C708,191.2909 708,226.7918 708,260.9872 " fill="none" style="stroke:#181818;stroke-width:1.0;stroke-dasharray:7.0,7.0;"/><polygon fill="none" points="2631,139.0729,2625,157.0729,2637,157.0729,2631,139.0729" style="stroke:#181818;stroke-width:1.0;"/><path d="M2631,157.0729 C2631,191.2909 2631,226.7918 2631,260.9872 " fill="none" style="stroke:#181818;stroke-width:1.0;stroke-dasharray:7.0,7.0;"/><text fill="#888888" font-family="sans-serif" font-size="10" lengthAdjust="spacing" textLength="2.6" x="1407.7" y="386.69">&#160;</text><a href="https://github.com/talsma-ict/umldoclet" target="_top" title="https://github.com/talsma-ict/umldoclet" xlink:actuate="onRequest" xlink:href="https://github.com/talsma-ict/umldoclet" xlink:show="new" xlink:title="https://github.com/talsma-ict/umldoclet" xlink:type="simple"><text fill="#888888" font-family="sans-serif" font-size="10" lengthAdjust="spacing" textLength="76.7199" x="1370.64" y="400.31">UMLDoclet 2.2.1</text></a><!--SRC=[hLTDSzis4BtdLw3JGvMn34bq9hKv6dTK9LCx8pTkfPnO7PRWYaGC0Wm0gjMa_kzTKX-HPD5MO_CY4S0-lFruIu0nndvYGrCih4mppxnXFfEEVRePCT09Ir6Z1Oy9apcaw5YCokZKBHSYWz9dnZ8pgz-4iHPTONGYTSe-m1oOCwKLwFYhLwpUQh96_nlS5dgyg0RV6Q7GizRmzHQbeDjxUnfqWpTi0ihbmAw74xv2-sOJy83t664hAL0xWYnrWhQcDIX0qCzeETDcSxHE6aqstHLEvQemseFKZXLWlQjSkbMWVSMrnwlz-S-iDHYFThbrBsfkRJQm6ig4_Mc-b1jtVoWifCHOmSAKdhaSFMYefnnnTaXRWQVuXU7IW8ZUKPY9Iyup-X-SSI61ExHp8iyJyC1bNYZsTRc-UeG2vzW8Kn2Bto6do8zz5THqmQBeq33FVAwcKy9WMy-9DxVPmaa1QaZRA9EI5RQk4zHUpYJQDlkGnEAzdajhT4wZhqFsRROHowWoroy2DQOavl0oK4XPqW9V16m2iVfEfFlzDFvHebrSeIgeTADew-rmqhuw3rwAUtP23f4whbDjB0x1uVMCqar9lxMO44cFhQ6L7gs4NqkfaehXBVYiFxbiiu_nPnI-pSQqlbHW1vvCuz9ZVz9clp3ynwDEt6hP9Nco0MrsP50cqbU16RY2h8P6psHQKW5MmekYnwORwZD5Jns5fDiYNVgPiVd4WdOWAfiRqbMAbhWjr-oQVgx7zlPiBLUISkiUTclDNDPn6PeybvxUAUnUeblFRC3tW7RtWXsq5Xdjuk-k5WrxLNPDF9g3_ew4EqQm8hk1egXwS1Gz66i8hrYb05jNCaPgPXu_sdnbivCVUl5K4yHmRcHo39k11aLQSMkOkhWVctwIuwYaNexxXaVGkzzjjCPIFDR-yjWOptEJeEAwRfbR12IXsXa8P6lTxpNRFML2x6X6-FiNxQo7OP_R6G-ZFgElFKBrsPst8RBF-CxSFrqPhYvKdfCSg3gfzzH_cofaMq4xsjiIG7Evl80IZ_KdfadgxLpLSkAmqjD1fmvBxaXFlaUlMquy8TCmRD1a_r_EdpnCXU6XKzA1VHkB80oFoVYHP1uqx6Oc3UaZXvfozRyvFCHOPgJl_4BXvIPTCyh9WrguMb2WHbBVaJhfbFlZ-U7PJzL9NKcDT3aGTnhfsz7TguD-Psk_rLv_wIZAl2zSsEcaqcTbpCcpZgzl2QTI-4wPgsHvFTYxA4odguF_RviRI7MAF-q5fy7vfFSs37hXcnu_2oxEBuBWh7VIxONTRlI-h3x6dR4tuYupAf_-1m00]--></g></svg>