<?xml version="1.0" encoding="UTF-8" standalone="no"?>
<!DOCTYPE svg PUBLIC "-//W3C//DTD SVG 1.1//EN"
 "http://www.w3.org/Graphics/SVG/1.1/DTD/svg11.dtd">
<!-- Generated by graphviz version 2.40.1 (20161225.0304)
 -->
<!-- Title: TableGraph Pages: 1 -->
<svg width="299pt" height="302pt"
 viewBox="0.00 0.00 298.50 302.00" xmlns="http://www.w3.org/2000/svg" xmlns:xlink="http://www.w3.org/1999/xlink">
<g id="graph0" class="graph" transform="scale(1 1) rotate(0) translate(4 298)">
<title>TableGraph</title>
<g id="a_graph0"><a xlink:href="http://tools.hibernate.org" xlink:title="Table Graph">
<polygon fill="#ffffff" stroke="transparent" points="-4,4 -4,-298 294.5,-298 294.5,4 -4,4"/>
<text text-anchor="middle" x="145.25" y="-7" font-family="Helvetica,sans-Serif" font-size="10.00" fill="#000000">Table Graph</text>
</a>
</g>
<!-- TOPIC_ELEMENT -->
<g id="node1" class="node">
<title>TOPIC_ELEMENT</title>
<polygon fill="#ffff00" stroke="#000000" points="0,-179.5 0,-293.5 171,-293.5 171,-179.5 0,-179.5"/>
<text text-anchor="middle" x="85.5" y="-281.5" font-family="Helvetica,sans-Serif" font-size="10.00" fill="#000000">TOPIC_ELEMENT</text>
<polyline fill="none" stroke="#000000" points="0,-274.5 171,-274.5 "/>
<text text-anchor="start" x="8" y="-262.5" font-family="Helvetica,sans-Serif" font-size="10.00" fill="#000000">HJID</text>
<polyline fill="none" stroke="#000000" points="0,-255.5 171,-255.5 "/>
<text text-anchor="start" x="8" y="-243.5" font-family="Helvetica,sans-Serif" font-size="10.00" fill="#000000">ID</text>
<polyline fill="none" stroke="#000000" points="0,-236.5 171,-236.5 "/>
<text text-anchor="start" x="8" y="-224.5" font-family="Helvetica,sans-Serif" font-size="10.00" fill="#000000">SOURCE_NOTE</text>
<polyline fill="none" stroke="#000000" points="0,-217.5 171,-217.5 "/>
<text text-anchor="start" x="8" y="-205.5" font-family="Helvetica,sans-Serif" font-size="10.00" fill="#000000">TOPIC_VALUE</text>
<polyline fill="none" stroke="#000000" points="0,-198.5 171,-198.5 "/>
<text text-anchor="start" x="8" y="-186.5" font-family="Helvetica,sans-Serif" font-size="10.00" fill="#000000">TOPIC_TOPICS_ELEMENT_HJID</text>
</g>
<!-- TOPICS_ELEMENT -->
<g id="node2" class="node">
<title>TOPICS_ELEMENT</title>
<polygon fill="#ffff00" stroke="#000000" points="172,-19.5 172,-133.5 279,-133.5 279,-19.5 172,-19.5"/>
<text text-anchor="middle" x="225.5" y="-121.5" font-family="Helvetica,sans-Serif" font-size="10.00" fill="#000000">TOPICS_ELEMENT</text>
<polyline fill="none" stroke="#000000" points="172,-114.5 279,-114.5 "/>
<text text-anchor="start" x="180" y="-102.5" font-family="Helvetica,sans-Serif" font-size="10.00" fill="#000000">HJID</text>
<polyline fill="none" stroke="#000000" points="172,-95.5 279,-95.5 "/>
<text text-anchor="start" x="180" y="-83.5" font-family="Helvetica,sans-Serif" font-size="10.00" fill="#000000">PAGE</text>
<polyline fill="none" stroke="#000000" points="172,-76.5 279,-76.5 "/>
<text text-anchor="start" x="180" y="-64.5" font-family="Helvetica,sans-Serif" font-size="10.00" fill="#000000">PAGES</text>
<polyline fill="none" stroke="#000000" points="172,-57.5 279,-57.5 "/>
<text text-anchor="start" x="180" y="-45.5" font-family="Helvetica,sans-Serif" font-size="10.00" fill="#000000">PER_PAGE</text>
<polyline fill="none" stroke="#000000" points="172,-38.5 279,-38.5 "/>
<text text-anchor="start" x="180" y="-26.5" font-family="Helvetica,sans-Serif" font-size="10.00" fill="#000000">TOTAL</text>
</g>
<!-- TOPIC_ELEMENT&#45;&gt;TOPICS_ELEMENT -->
<g id="edge1" class="edge">
<title>TOPIC_ELEMENT:se&#45;&gt;TOPICS_ELEMENT:nw</title>
<path fill="none" stroke="#d3d3d3" d="M171.5,-179.5C183.0199,-167.9801 167,-154.7895 167.3319,-142.5909"/>
<polygon fill="#d3d3d3" stroke="#d3d3d3" points="170.5137,-144.0488 171.5,-133.5 164.1507,-141.1314 170.5137,-144.0488"/>
<text text-anchor="middle" x="231.5" y="-154.6" font-family="Helvetica,sans-Serif" font-size="8.00" fill="#000000">FKjuh8kkjbn5gwoag249hkpw0ax</text>
</g>
</g>
</svg>
