<?xml version="1.0" encoding="UTF-8" standalone="no"?><svg xmlns="http://www.w3.org/2000/svg" xmlns:xlink="http://www.w3.org/1999/xlink" contentScriptType="application/ecmascript" contentStyleType="text/css" height="323px" preserveAspectRatio="none" style="width:1249px;height:323px;" version="1.1" viewBox="0 0 1249 323" width="1249px" zoomAndPan="magnify"><defs><filter height="300%" id="fllyg4xljdbx2" width="300%" x="-1" y="-1"><feGaussianBlur result="blurOut" stdDeviation="2.0"/><feColorMatrix in="blurOut" result="blurOut2" type="matrix" values="0 0 0 0 0 0 0 0 0 0 0 0 0 0 0 0 0 0 .4 0"/><feOffset dx="4.0" dy="4.0" in="blurOut2" result="blurOut3"/><feBlend in="SourceGraphic" in2="blurOut3" mode="normal"/></filter></defs><g><!--cluster com.hack23.cia.service.impl.action.kpi--><polygon fill="#FFFFFF" filter="url(#fllyg4xljdbx2)" points="293,162,602,162,609,184.2969,861,184.2969,861,283,293,283,293,162" style="stroke: #000000; stroke-width: 1.5;"/><line style="stroke: #000000; stroke-width: 1.5;" x1="293" x2="609" y1="184.2969" y2="184.2969"/><text fill="#000000" font-family="sans-serif" font-size="14" font-weight="bold" lengthAdjust="spacingAndGlyphs" textLength="303" x="297" y="176.9951">com.hack23.cia.service.impl.action.kpi</text><!--cluster com.hack23.cia.service.impl.action.common--><polygon fill="#FFFFFF" filter="url(#fllyg4xljdbx2)" points="14,16,367,16,374,38.2969,1227,38.2969,1227,137,14,137,14,16" style="stroke: #000000; stroke-width: 1.5;"/><line style="stroke: #000000; stroke-width: 1.5;" x1="14" x2="374" y1="38.2969" y2="38.2969"/><text fill="#000000" font-family="sans-serif" font-size="14" font-weight="bold" lengthAdjust="spacingAndGlyphs" textLength="347" x="18" y="30.9951">com.hack23.cia.service.impl.action.common</text><!--class com.hack23.cia.service.impl.action.kpi.ComplianceCheckServiceImpl--><a href="ComplianceCheckServiceImpl.html" target="_top" xlink:actuate="onRequest" xlink:show="new" xlink:title="ComplianceCheckServiceImpl.html" xlink:type="simple"><rect fill="#FEFECE" filter="url(#fllyg4xljdbx2)" height="86.4141" id="com.hack23.cia.service.impl.action.kpi.ComplianceCheckServiceImpl" style="stroke: #A80036; stroke-width: 1.5;" width="552" x="301" y="189"/><ellipse cx="482.75" cy="205" fill="#ADD1B2" rx="11" ry="11" style="stroke: #A80036; stroke-width: 1.0;"/><path d="M485.7188,210.6406 Q485.1406,210.9375 484.5,211.0781 Q483.8594,211.2344 483.1563,211.2344 Q480.6563,211.2344 479.3281,209.5938 Q478.0156,207.9375 478.0156,204.8125 Q478.0156,201.6875 479.3281,200.0313 Q480.6563,198.375 483.1563,198.375 Q483.8594,198.375 484.5,198.5313 Q485.1563,198.6875 485.7188,198.9844 L485.7188,201.7031 Q485.0938,201.125 484.5,200.8594 Q483.9063,200.5781 483.2813,200.5781 Q481.9375,200.5781 481.25,201.6563 Q480.5625,202.7188 480.5625,204.8125 Q480.5625,206.9063 481.25,207.9844 Q481.9375,209.0469 483.2813,209.0469 Q483.9063,209.0469 484.5,208.7813 Q485.0938,208.5 485.7188,207.9219 L485.7188,210.6406 Z "/><text fill="#000000" font-family="sans-serif" font-size="12" lengthAdjust="spacingAndGlyphs" textLength="180" x="503.25" y="209.1543">ComplianceCheckServiceImpl</text><line style="stroke: #A80036; stroke-width: 1.5;" x1="302" x2="852" y1="221" y2="221"/><line style="stroke: #A80036; stroke-width: 1.5;" x1="302" x2="852" y1="229" y2="229"/><ellipse cx="312" cy="240.9023" fill="#84BE84" rx="3" ry="3" style="stroke: #038048; stroke-width: 1.0;"/><text fill="#000000" font-family="sans-serif" font-size="11" lengthAdjust="spacingAndGlyphs" textLength="406" x="321" y="243.2104">processService(ComplianceCheckRequest): ComplianceCheckResponse</text><polygon fill="#FFFF44" points="312,248.707,316,252.707,312,256.707,308,252.707" style="stroke: #B38D22; stroke-width: 1.0;"/><text fill="#000000" font-family="sans-serif" font-size="11" lengthAdjust="spacingAndGlyphs" textLength="526" x="321" y="256.0151">createApplicationEventForService(ComplianceCheckRequest): CreateApplicationEventRequest</text><polygon fill="#FFFF44" points="312,261.5117,316,265.5117,312,269.5117,308,265.5117" style="stroke: #B38D22; stroke-width: 1.0;"/><text fill="#000000" font-family="sans-serif" font-size="11" lengthAdjust="spacingAndGlyphs" textLength="293" x="321" y="268.8198">createErrorResponse(): ComplianceCheckResponse</text></a><!--class com.hack23.cia.service.impl.action.common.AbstractBusinessServiceImpl--><a href="../common/AbstractBusinessServiceImpl.html" target="_top" xlink:actuate="onRequest" xlink:show="new" xlink:title="../common/AbstractBusinessServiceImpl.html" xlink:type="simple"><rect fill="#FEFECE" filter="url(#fllyg4xljdbx2)" height="86.4141" id="com.hack23.cia.service.impl.action.common.AbstractBusinessServiceImpl" style="stroke: #A80036; stroke-width: 1.5;" width="687" x="531.5" y="43"/><ellipse cx="610.75" cy="59" fill="#A9DCDF" rx="11" ry="11" style="stroke: #A80036; stroke-width: 1.0;"/><path d="M610.8594,54.3438 L609.7031,59.4219 L612.0313,59.4219 L610.8594,54.3438 Z M609.375,52.1094 L612.3594,52.1094 L615.7188,64.5 L613.2656,64.5 L612.5,61.4375 L609.2188,61.4375 L608.4688,64.5 L606.0313,64.5 L609.375,52.1094 Z "/><text fill="#000000" font-family="sans-serif" font-size="12" font-style="italic" lengthAdjust="spacingAndGlyphs" textLength="176" x="631.25" y="63.1543">AbstractBusinessServiceImpl</text><rect fill="#FFFFFF" height="15.9688" style="stroke: #000000; stroke-width: 1.0; stroke-dasharray: 2.0,2.0;" width="342" x="879.5" y="40"/><text fill="#000000" font-family="sans-serif" font-size="12" font-style="italic" lengthAdjust="spacingAndGlyphs" textLength="340" x="880.5" y="52.1387">T extends ServiceRequest, V extends ServiceResponse</text><line style="stroke: #A80036; stroke-width: 1.5;" x1="532.5" x2="1217.5" y1="75" y2="75"/><polygon fill="none" points="542.5,81.9023,546.5,85.9023,542.5,89.9023,538.5,85.9023" style="stroke: #B38D22; stroke-width: 1.0;"/><text fill="#000000" font-family="sans-serif" font-size="11" lengthAdjust="spacingAndGlyphs" textLength="661" x="551.5" y="89.2104">createApplicationEventService: BusinessService&lt;CreateApplicationEventRequest, CreateApplicationEventResponse&gt;</text><line style="stroke: #A80036; stroke-width: 1.5;" x1="532.5" x2="1217.5" y1="95.8047" y2="95.8047"/><polygon fill="#FFFF44" points="542.5,102.707,546.5,106.707,542.5,110.707,538.5,106.707" style="stroke: #B38D22; stroke-width: 1.0;"/><text fill="#000000" font-family="sans-serif" font-size="11" font-style="italic" lengthAdjust="spacingAndGlyphs" textLength="294" x="551.5" y="110.0151">createErrorResponse(): V extends ServiceResponse</text><polygon fill="#FFFF44" points="542.5,115.5117,546.5,119.5117,542.5,123.5117,538.5,119.5117" style="stroke: #B38D22; stroke-width: 1.0;"/><text fill="#000000" font-family="sans-serif" font-size="11" font-style="italic" lengthAdjust="spacingAndGlyphs" textLength="532" x="551.5" y="122.8198">createApplicationEventForService(T extends ServiceRequest): CreateApplicationEventRequest</text></a><!--class com.hack23.cia.service.impl.action.common.BusinessService--><a href="../common/BusinessService.html" target="_top" xlink:actuate="onRequest" xlink:show="new" xlink:title="../common/BusinessService.html" xlink:type="simple"><rect fill="#FEFECE" filter="url(#fllyg4xljdbx2)" height="73.6094" id="com.hack23.cia.service.impl.action.common.BusinessService" style="stroke: #A80036; stroke-width: 1.5;" width="474" x="22" y="49"/><ellipse cx="37" cy="65" fill="#B4A7E5" rx="11" ry="11" style="stroke: #A80036; stroke-width: 1.0;"/><path d="M32.9219,60.7656 L32.9219,58.6094 L40.3125,58.6094 L40.3125,60.7656 L37.8438,60.7656 L37.8438,68.8438 L40.3125,68.8438 L40.3125,71 L32.9219,71 L32.9219,68.8438 L35.3906,68.8438 L35.3906,60.7656 L32.9219,60.7656 Z "/><text fill="#000000" font-family="sans-serif" font-size="12" font-style="italic" lengthAdjust="spacingAndGlyphs" textLength="98" x="51" y="69.1543">BusinessService</text><rect fill="#FFFFFF" height="15.9688" style="stroke: #000000; stroke-width: 1.0; stroke-dasharray: 2.0,2.0;" width="342" x="157" y="46"/><text fill="#000000" font-family="sans-serif" font-size="12" font-style="italic" lengthAdjust="spacingAndGlyphs" textLength="340" x="158" y="58.1387">T extends ServiceRequest, V extends ServiceResponse</text><line style="stroke: #A80036; stroke-width: 1.5;" x1="23" x2="495" y1="81" y2="81"/><line style="stroke: #A80036; stroke-width: 1.5;" x1="23" x2="495" y1="89" y2="89"/><ellipse cx="33" cy="100.9023" fill="#84BE84" rx="3" ry="3" style="stroke: #038048; stroke-width: 1.0;"/><text fill="#000000" font-family="sans-serif" font-size="11" font-style="italic" lengthAdjust="spacingAndGlyphs" textLength="329" x="42" y="103.2104">getSupportedService(): Class&lt;? extends ServiceRequest&gt;</text><ellipse cx="33" cy="113.707" fill="#84BE84" rx="3" ry="3" style="stroke: #038048; stroke-width: 1.0;"/><text fill="#000000" font-family="sans-serif" font-size="11" font-style="italic" lengthAdjust="spacingAndGlyphs" textLength="408" x="42" y="116.0151">processService(T extends ServiceRequest): V extends ServiceResponse</text></a><!--link com.hack23.cia.service.impl.action.common.AbstractBusinessServiceImpl to com.hack23.cia.service.impl.action.kpi.ComplianceCheckServiceImpl--><path d="M769.1727,137.8483 C735.0532,154.5645 697.628,172.9004 664.9425,188.9141 " fill="none" id="com.hack23.cia.service.impl.action.common.AbstractBusinessServiceImpl-com.hack23.cia.service.impl.action.kpi.ComplianceCheckServiceImpl" style="stroke: #A80036; stroke-width: 1.0;"/><polygon fill="none" points="766.1619,131.5284,787.202,129.0152,772.3214,144.1006,766.1619,131.5284" style="stroke: #A80036; stroke-width: 1.0;"/><!--link com.hack23.cia.service.impl.action.common.BusinessService to com.hack23.cia.service.impl.action.kpi.ComplianceCheckServiceImpl--><path d="M357.8508,131.3844 C397.8164,149.7333 443.7286,170.8125 483.1708,188.9212 " fill="none" id="com.hack23.cia.service.impl.action.common.BusinessService-com.hack23.cia.service.impl.action.kpi.ComplianceCheckServiceImpl" style="stroke: #A80036; stroke-width: 1.0; stroke-dasharray: 7.0,7.0;"/><polygon fill="none" points="354.9111,137.7372,339.6559,123.0307,360.7525,125.0141,354.9111,137.7372" style="stroke: #A80036; stroke-width: 1.0;"/><text fill="#888888" font-family="sans-serif" font-size="10" lengthAdjust="spacingAndGlyphs" textLength="186" x="533.5" y="310.2822">UMLDoclet 2.0.5, PlantUML 1.2019.08</text><!--
@startuml
    namespace com.hack23.cia.service.impl.action.kpi {

        class ComplianceCheckServiceImpl [[ComplianceCheckServiceImpl.html]] {
            +processService(ComplianceCheckRequest): ComplianceCheckResponse
            #createApplicationEventForService(ComplianceCheckRequest): CreateApplicationEventRequest
            #createErrorResponse(): ComplianceCheckResponse
        }

        com.hack23.cia.service.impl.action.common.AbstractBusinessServiceImpl <|- - ComplianceCheckServiceImpl
        com.hack23.cia.service.impl.action.common.BusinessService <|.. ComplianceCheckServiceImpl
    }

    namespace com.hack23.cia.service.impl.action.common {
        abstract class AbstractBusinessServiceImpl<T extends ServiceRequest, V extends ServiceResponse> [[../common/AbstractBusinessServiceImpl.html]] {
            #createApplicationEventService: BusinessService<CreateApplicationEventRequest, CreateApplicationEventResponse>
            {abstract} #createErrorResponse(): V extends ServiceResponse
            {abstract} #createApplicationEventForService(T extends ServiceRequest): CreateApplicationEventRequest
        }
        interface BusinessService<T extends ServiceRequest, V extends ServiceResponse> [[../common/BusinessService.html]] {
            {abstract} +getSupportedService(): Class<? extends ServiceRequest>
            {abstract} +processService(T extends ServiceRequest): V extends ServiceResponse
        }
    }

    center footer UMLDoclet 2.0.5, PlantUML 1.2019.08
@enduml

PlantUML version 1.2019.08(Sat Jul 13 21:25:14 CEST 2019)
(APACHE source distribution)
Java Runtime: OpenJDK Runtime Environment
JVM: OpenJDK 64-Bit Server VM
Java Version: 11.0.4+11-post-Ubuntu-1ubuntu219.04
Operating System: Linux
OS Version: 5.0.0-27-generic
Default Encoding: UTF-8
Language: en
Country: US
--></g></svg>