<?xml version="1.0" encoding="UTF-8" standalone="no"?><svg xmlns="http://www.w3.org/2000/svg" xmlns:xlink="http://www.w3.org/1999/xlink" contentScriptType="application/ecmascript" contentStyleType="text/css" height="210px" preserveAspectRatio="none" style="width:363px;height:210px;" version="1.1" viewBox="0 0 363 210" width="363px" zoomAndPan="magnify"><defs><filter height="300%" id="f1eupw5exph28o" width="300%" x="-1" y="-1"><feGaussianBlur result="blurOut" stdDeviation="2.0"/><feColorMatrix in="blurOut" result="blurOut2" type="matrix" values="0 0 0 0 0 0 0 0 0 0 0 0 0 0 0 0 0 0 .4 0"/><feOffset dx="4.0" dy="4.0" in="blurOut2" result="blurOut3"/><feBlend in="SourceGraphic" in2="blurOut3" mode="normal"/></filter></defs><g><!--MD5=[af3c1668f9c39786b5599e6d01fc7eeb]
class com.hack23.cia.web.impl.ui.application.CitizenIntelligenceAgencySpringVaadinServlet--><a href="CitizenIntelligenceAgencySpringVaadinServlet.html" target="_top" title="CitizenIntelligenceAgencySpringVaadinServlet.html" xlink:actuate="onRequest" xlink:href="CitizenIntelligenceAgencySpringVaadinServlet.html" xlink:show="new" xlink:title="CitizenIntelligenceAgencySpringVaadinServlet.html" xlink:type="simple"><rect fill="#FEFECE" filter="url(#f1eupw5exph28o)" height="71.5469" id="com.hack23.cia.web.impl.ui.application.CitizenIntelligenceAgencySpringVaadinServlet" style="stroke: #A80036; stroke-width: 1.5;" width="346" x="6" y="106"/><ellipse cx="21" cy="124.9688" fill="#ADD1B2" rx="11" ry="11" style="stroke: #A80036; stroke-width: 1.0;"/><path d="M23.9688,130.6094 Q23.3906,130.9063 22.75,131.0469 Q22.1094,131.2031 21.4063,131.2031 Q18.9063,131.2031 17.5781,129.5625 Q16.2656,127.9063 16.2656,124.7813 Q16.2656,121.6563 17.5781,120 Q18.9063,118.3438 21.4063,118.3438 Q22.1094,118.3438 22.75,118.5 Q23.4063,118.6563 23.9688,118.9531 L23.9688,121.6719 Q23.3438,121.0938 22.75,120.8281 Q22.1563,120.5469 21.5313,120.5469 Q20.1875,120.5469 19.5,121.625 Q18.8125,122.6875 18.8125,124.7813 Q18.8125,126.875 19.5,127.9531 Q20.1875,129.0156 21.5313,129.0156 Q22.1563,129.0156 22.75,128.75 Q23.3438,128.4688 23.9688,127.8906 L23.9688,130.6094 Z "/><text fill="#000000" font-family="sans-serif" font-size="14" lengthAdjust="spacingAndGlyphs" textLength="314" x="35" y="123.9951">CitizenIntelligenceAgencySpringVaadinServlet</text><text fill="#000000" font-family="sans-serif" font-size="10" lengthAdjust="spacingAndGlyphs" textLength="185" x="99.5" y="136.5791">com.hack23.cia.web.impl.ui.application</text><line style="stroke: #A80036; stroke-width: 1.5;" x1="7" x2="351" y1="143.9375" y2="143.9375"/><polygon fill="#FFFF44" points="17,149.9375,21,153.9375,17,157.9375,13,153.9375" style="stroke: #B38D22; stroke-width: 1.0;"/><text fill="#000000" font-family="sans-serif" font-size="11" lengthAdjust="spacingAndGlyphs" textLength="316" x="26" y="158.1479">service(HttpServletRequest, HttpServletResponse): void</text><polygon fill="#FFFF44" points="17,162.7422,21,166.7422,17,170.7422,13,166.7422" style="stroke: #B38D22; stroke-width: 1.0;"/><text fill="#000000" font-family="sans-serif" font-size="11" lengthAdjust="spacingAndGlyphs" textLength="130" x="26" y="170.9526">servletInitialized(): void</text></a><!--MD5=[3a225e31eb196bb3e53b2f701149af9a]
class com.vaadin.spring.server.SpringVaadinServlet--><rect fill="#FEFECE" filter="url(#f1eupw5exph28o)" height="37.9375" id="com.vaadin.spring.server.SpringVaadinServlet" style="stroke: #A80036; stroke-width: 1.5;" width="169" x="94.5" y="8"/><ellipse cx="109.5" cy="26.9688" fill="#ADD1B2" rx="11" ry="11" style="stroke: #A80036; stroke-width: 1.0;"/><path d="M112.4688,32.6094 Q111.8906,32.9063 111.25,33.0469 Q110.6094,33.2031 109.9063,33.2031 Q107.4063,33.2031 106.0781,31.5625 Q104.7656,29.9063 104.7656,26.7813 Q104.7656,23.6563 106.0781,22 Q107.4063,20.3438 109.9063,20.3438 Q110.6094,20.3438 111.25,20.5 Q111.9063,20.6563 112.4688,20.9531 L112.4688,23.6719 Q111.8438,23.0938 111.25,22.8281 Q110.6563,22.5469 110.0313,22.5469 Q108.6875,22.5469 108,23.625 Q107.3125,24.6875 107.3125,26.7813 Q107.3125,28.875 108,29.9531 Q108.6875,31.0156 110.0313,31.0156 Q110.6563,31.0156 111.25,30.75 Q111.8438,30.4688 112.4688,29.8906 L112.4688,32.6094 Z "/><text fill="#000000" font-family="sans-serif" font-size="14" lengthAdjust="spacingAndGlyphs" textLength="137" x="123.5" y="25.9951">SpringVaadinServlet</text><text fill="#000000" font-family="sans-serif" font-size="10" lengthAdjust="spacingAndGlyphs" textLength="122" x="131" y="38.5791">com.vaadin.spring.server</text><!--MD5=[3cbd752d428f94b5f79a6542eb4a7556]
reverse link com.vaadin.spring.server.SpringVaadinServlet to com.hack23.cia.web.impl.ui.application.CitizenIntelligenceAgencySpringVaadinServlet--><path d="M179,66.5888 C179,79.3573 179,93.4348 179,105.935 " fill="none" id="com.vaadin.spring.server.SpringVaadinServlet&lt;-com.hack23.cia.web.impl.ui.application.CitizenIntelligenceAgencySpringVaadinServlet" style="stroke: #A80036; stroke-width: 1.0;"/><polygon fill="none" points="172.0001,66.2484,179,46.2484,186.0001,66.2484,172.0001,66.2484" style="stroke: #A80036; stroke-width: 1.0;"/><text fill="#888888" font-family="sans-serif" font-size="10" lengthAdjust="spacingAndGlyphs" textLength="186" x="92" y="197.2822">UMLDoclet 2.0.7, PlantUML 1.2019.12</text><!--MD5=[765bd2c98097d6633a7e8b04c1bc388d]
@startuml
    set namespaceSeparator none
    hide empty fields
    hide empty methods

    class "<size:14>CitizenIntelligenceAgencySpringVaadinServlet\n<size:10>com.hack23.cia.web.impl.ui.application" as com.hack23.cia.web.impl.ui.application.CitizenIntelligenceAgencySpringVaadinServlet [[CitizenIntelligenceAgencySpringVaadinServlet.html]] {
        #service(HttpServletRequest, HttpServletResponse): void
        #servletInitialized(): void
    }

    class "<size:14>SpringVaadinServlet\n<size:10>com.vaadin.spring.server" as com.vaadin.spring.server.SpringVaadinServlet

    com.vaadin.spring.server.SpringVaadinServlet <|- - com.hack23.cia.web.impl.ui.application.CitizenIntelligenceAgencySpringVaadinServlet

    center footer UMLDoclet 2.0.7, PlantUML 1.2019.12
@enduml

PlantUML version 1.2019.12(Sun Nov 03 11:24:54 CET 2019)
(APACHE source distribution)
Java Runtime: OpenJDK Runtime Environment
JVM: OpenJDK 64-Bit Server VM
Java Version: 11.0.6+10-post-Ubuntu-1ubuntu119.10.1
Operating System: Linux
Default Encoding: UTF-8
Language: en
Country: US
--></g></svg>