<?xml version="1.0" encoding="UTF-8" standalone="no"?><svg xmlns="http://www.w3.org/2000/svg" xmlns:xlink="http://www.w3.org/1999/xlink" contentScriptType="application/ecmascript" contentStyleType="text/css" height="220px" preserveAspectRatio="none" style="width:280px;height:220px;background:#FFFFFF;" version="1.1" viewBox="0 0 280 220" width="280px" zoomAndPan="magnify"><defs><filter height="300%" id="f1k7blazf07kvg" width="300%" x="-1" y="-1"><feGaussianBlur result="blurOut" stdDeviation="2.0"/><feColorMatrix in="blurOut" result="blurOut2" type="matrix" values="0 0 0 0 0 0 0 0 0 0 0 0 0 0 0 0 0 0 .4 0"/><feOffset dx="4.0" dy="4.0" in="blurOut2" result="blurOut3"/><feBlend in="SourceGraphic" in2="blurOut3" mode="normal"/></filter></defs><g><!--MD5=[049b9fac63e15678bcfac1501c8b1bdf]
class com.hack23.cia.web.impl.ui.application.CustomSpringUIProvider--><a href="CustomSpringUIProvider.html" target="_top" title="CustomSpringUIProvider.html" xlink:actuate="onRequest" xlink:href="CustomSpringUIProvider.html" xlink:show="new" xlink:title="CustomSpringUIProvider.html" xlink:type="simple"><rect codeLine="5" fill="#FEFECE" filter="url(#f1k7blazf07kvg)" height="84.3516" id="com.hack23.cia.web.impl.ui.application.CustomSpringUIProvider" style="stroke:#A80036;stroke-width:1.5;" width="257" x="9" y="105"/><ellipse cx="42" cy="123.9688" fill="#ADD1B2" rx="11" ry="11" style="stroke:#A80036;stroke-width:1.0;"/><path d="M44.9688,129.6094 Q44.3906,129.9063 43.75,130.0469 Q43.1094,130.2031 42.4063,130.2031 Q39.9063,130.2031 38.5781,128.5625 Q37.2656,126.9063 37.2656,123.7813 Q37.2656,120.6563 38.5781,119 Q39.9063,117.3438 42.4063,117.3438 Q43.1094,117.3438 43.75,117.5 Q44.4063,117.6563 44.9688,117.9531 L44.9688,120.6719 Q44.3438,120.0938 43.75,119.8281 Q43.1563,119.5469 42.5313,119.5469 Q41.1875,119.5469 40.5,120.625 Q39.8125,121.6875 39.8125,123.7813 Q39.8125,125.875 40.5,126.9531 Q41.1875,128.0156 42.5313,128.0156 Q43.1563,128.0156 43.75,127.75 Q44.3438,127.4688 44.9688,126.8906 L44.9688,129.6094 Z " fill="#000000"/><text fill="#000000" font-family="sans-serif" font-size="14" lengthAdjust="spacing" textLength="167" x="69" y="122.9951">CustomSpringUIProvider</text><text fill="#000000" font-family="sans-serif" font-size="10" lengthAdjust="spacing" textLength="185" x="60" y="135.5791">com.hack23.cia.web.impl.ui.application</text><line style="stroke:#A80036;stroke-width:1.5;" x1="10" x2="265" y1="142.9375" y2="142.9375"/><ellipse cx="20" cy="153.9375" fill="#84BE84" rx="3" ry="3" style="stroke:#038048;stroke-width:1.0;"/><text fill="#000000" font-family="sans-serif" font-size="11" lengthAdjust="spacing" textLength="231" x="29" y="157.1479">CustomSpringUIProvider(VaadinSession)</text><ellipse cx="20" cy="166.7422" fill="#84BE84" rx="3" ry="3" style="stroke:#038048;stroke-width:1.0;"/><text fill="#000000" font-family="sans-serif" font-size="11" lengthAdjust="spacing" textLength="191" x="29" y="169.9526">createInstance(UICreateEvent): UI</text><polygon fill="#FFFF44" points="20,174.5469,24,178.5469,20,182.5469,16,178.5469" style="stroke:#B38D22;stroke-width:1.0;"/><text fill="#000000" font-family="sans-serif" font-size="11" lengthAdjust="spacing" textLength="188" x="29" y="182.7573">findSpringViewDisplay(UI): Object</text></a><!--MD5=[2b77741785b7573f35f8abd8ca891912]
class com.vaadin.spring.server.SpringUIProvider--><rect codeLine="11" fill="#FEFECE" filter="url(#f1k7blazf07kvg)" height="37.9375" id="com.vaadin.spring.server.SpringUIProvider" style="stroke:#A80036;stroke-width:1.5;" width="154" x="60.5" y="7"/><ellipse cx="75.5" cy="25.9688" fill="#ADD1B2" rx="11" ry="11" style="stroke:#A80036;stroke-width:1.0;"/><path d="M78.4688,31.6094 Q77.8906,31.9063 77.25,32.0469 Q76.6094,32.2031 75.9063,32.2031 Q73.4063,32.2031 72.0781,30.5625 Q70.7656,28.9063 70.7656,25.7813 Q70.7656,22.6563 72.0781,21 Q73.4063,19.3438 75.9063,19.3438 Q76.6094,19.3438 77.25,19.5 Q77.9063,19.6563 78.4688,19.9531 L78.4688,22.6719 Q77.8438,22.0938 77.25,21.8281 Q76.6563,21.5469 76.0313,21.5469 Q74.6875,21.5469 74,22.625 Q73.3125,23.6875 73.3125,25.7813 Q73.3125,27.875 74,28.9531 Q74.6875,30.0156 76.0313,30.0156 Q76.6563,30.0156 77.25,29.75 Q77.8438,29.4688 78.4688,28.8906 L78.4688,31.6094 Z " fill="#000000"/><text fill="#000000" font-family="sans-serif" font-size="14" lengthAdjust="spacing" textLength="113" x="94" y="24.9951">SpringUIProvider</text><text fill="#000000" font-family="sans-serif" font-size="10" lengthAdjust="spacing" textLength="122" x="89.5" y="37.5791">com.vaadin.spring.server</text><!--MD5=[722b7e33811bf704cd88809d21657da7]
reverse link com.vaadin.spring.server.SpringUIProvider to com.hack23.cia.web.impl.ui.application.CustomSpringUIProvider--><path codeLine="13" d="M137.5,65.54 C137.5,78.08 137.5,92.05 137.5,104.78 " fill="none" id="com.vaadin.spring.server.SpringUIProvider-backto-com.hack23.cia.web.impl.ui.application.CustomSpringUIProvider" style="stroke:#A80036;stroke-width:1.0;"/><polygon fill="none" points="130.5,65.07,137.5,45.07,144.5,65.07,130.5,65.07" style="stroke:#A80036;stroke-width:1.0;"/><text fill="#888888" font-family="sans-serif" font-size="10" lengthAdjust="spacing" textLength="192" x="37.5" y="211.6338">UMLDoclet 2.0.15, PlantUML 1.2021.13</text><!--MD5=[b9331dbb5f8de959a3abcd32f0405fa7]
@startuml
    set namespaceSeparator none
    hide empty fields
    hide empty methods

    class "<size:14>CustomSpringUIProvider\n<size:10>com.hack23.cia.web.impl.ui.application" as com.hack23.cia.web.impl.ui.application.CustomSpringUIProvider [[CustomSpringUIProvider.html]] {
        +CustomSpringUIProvider(VaadinSession)
        +createInstance(UICreateEvent): UI
        #findSpringViewDisplay(UI): Object
    }

    class "<size:14>SpringUIProvider\n<size:10>com.vaadin.spring.server" as com.vaadin.spring.server.SpringUIProvider

    com.vaadin.spring.server.SpringUIProvider <|- - com.hack23.cia.web.impl.ui.application.CustomSpringUIProvider

    center footer UMLDoclet 2.0.15, PlantUML 1.2021.13
@enduml

PlantUML version 1.2021.13(Mon Nov 01 12:38:45 CET 2021)
(APACHE source distribution)
Java Runtime: OpenJDK Runtime Environment
JVM: OpenJDK 64-Bit Server VM
Default Encoding: UTF-8
Language: en
Country: US
--></g></svg>