<?xml version="1.0" encoding="UTF-8" standalone="no"?><svg xmlns="http://www.w3.org/2000/svg" xmlns:xlink="http://www.w3.org/1999/xlink" contentScriptType="application/ecmascript" contentStyleType="text/css" height="152px" preserveAspectRatio="none" style="width:580px;height:152px;" version="1.1" viewBox="0 0 580 152" width="580px" zoomAndPan="magnify"><defs><filter height="300%" id="f1x5sblnlar5zf" width="300%" x="-1" y="-1"><feGaussianBlur result="blurOut" stdDeviation="2.0"/><feColorMatrix in="blurOut" result="blurOut2" type="matrix" values="0 0 0 0 0 0 0 0 0 0 0 0 0 0 0 0 0 0 .4 0"/><feOffset dx="4.0" dy="4.0" in="blurOut2" result="blurOut3"/><feBlend in="SourceGraphic" in2="blurOut3" mode="normal"/></filter></defs><g><!--cluster com.hack23.cia.web.impl.ui.application.views.common.labelfactory--><polygon fill="#FFFFFF" filter="url(#f1x5sblnlar5zf)" points="14,16,548,16,555,38.2969,558,38.2969,558,112,14,112,14,16" style="stroke: #000000; stroke-width: 1.5;"/><line style="stroke: #000000; stroke-width: 1.5;" x1="14" x2="555" y1="38.2969" y2="38.2969"/><text fill="#000000" font-family="sans-serif" font-size="14" font-weight="bold" lengthAdjust="spacingAndGlyphs" textLength="528" x="18" y="30.9951">com.hack23.cia.web.impl.ui.application.views.common.labelfactory</text><!--class com.hack23.cia.web.impl.ui.application.views.common.labelfactory.LabelFactory--><a href="LabelFactory.html" target="_top" xlink:actuate="onRequest" xlink:show="new" xlink:title="LabelFactory.html" xlink:type="simple"><rect fill="#FEFECE" filter="url(#f1x5sblnlar5zf)" height="60.8047" id="com.hack23.cia.web.impl.ui.application.views.common.labelfactory.LabelFactory" style="stroke: #A80036; stroke-width: 1.5;" width="352" x="110" y="43"/><ellipse cx="242.25" cy="59" fill="#ADD1B2" rx="11" ry="11" style="stroke: #A80036; stroke-width: 1.0;"/><path d="M245.2188,64.6406 Q244.6406,64.9375 244,65.0781 Q243.3594,65.2344 242.6563,65.2344 Q240.1563,65.2344 238.8281,63.5938 Q237.5156,61.9375 237.5156,58.8125 Q237.5156,55.6875 238.8281,54.0313 Q240.1563,52.375 242.6563,52.375 Q243.3594,52.375 244,52.5313 Q244.6563,52.6875 245.2188,52.9844 L245.2188,55.7031 Q244.5938,55.125 244,54.8594 Q243.4063,54.5781 242.7813,54.5781 Q241.4375,54.5781 240.75,55.6563 Q240.0625,56.7188 240.0625,58.8125 Q240.0625,60.9063 240.75,61.9844 Q241.4375,63.0469 242.7813,63.0469 Q243.4063,63.0469 244,62.7813 Q244.5938,62.5 245.2188,61.9219 L245.2188,64.6406 Z "/><text fill="#000000" font-family="sans-serif" font-size="12" lengthAdjust="spacingAndGlyphs" textLength="79" x="262.75" y="63.1543">LabelFactory</text><line style="stroke: #A80036; stroke-width: 1.5;" x1="111" x2="461" y1="75" y2="75"/><line style="stroke: #A80036; stroke-width: 1.5;" x1="111" x2="461" y1="83" y2="83"/><ellipse cx="121" cy="94.9023" fill="#84BE84" rx="3" ry="3" style="stroke: #038048; stroke-width: 1.0;"/><text fill="#000000" font-family="sans-serif" font-size="11" lengthAdjust="spacingAndGlyphs" text-decoration="underline" textLength="326" x="130" y="97.2104">createHeader2Label(AbstractOrderedLayout, String): void</text></a><text fill="#888888" font-family="sans-serif" font-size="10" lengthAdjust="spacingAndGlyphs" textLength="186" x="199" y="139.2822">UMLDoclet 2.0.5, PlantUML 1.2019.08</text><!--
@startuml
    namespace com.hack23.cia.web.impl.ui.application.views.common.labelfactory {

        class LabelFactory [[LabelFactory.html]] {
            {static} +createHeader2Label(AbstractOrderedLayout, String): void
        }

    }

    center footer UMLDoclet 2.0.5, PlantUML 1.2019.08
@enduml

PlantUML version 1.2019.08(Sat Jul 13 21:25:14 CEST 2019)
(APACHE source distribution)
Java Runtime: OpenJDK Runtime Environment
JVM: OpenJDK 64-Bit Server VM
Java Version: 11.0.4+11-post-Ubuntu-1ubuntu219.04
Operating System: Linux
OS Version: 5.0.0-25-generic
Default Encoding: UTF-8
Language: en
Country: US
--></g></svg>