<svg xmlns="http://www.w3.org/2000/svg" xmlns:xlink="http://www.w3.org/1999/xlink" contentStyleType="text/css" data-diagram-type="CLASS" height="400px" preserveAspectRatio="none" style="width:236px;height:400px;background:#FFFFFF;" version="1.1" viewBox="0 0 236 400" width="236px" zoomAndPan="magnify"><defs/><g><!--class com.hack23.cia.service.data.impl.export.ExportMetadata--><g class="entity" data-entity="com.hack23.cia.service.data.impl.export.ExportMetadata" data-source-line="13" data-uid="ent0002" id="entity_com.hack23.cia.service.data.impl.export.ExportMetadata"><a href="ExportMetadata.html" target="_top" title="ExportMetadata.html" xlink:actuate="onRequest" xlink:href="ExportMetadata.html" xlink:show="new" xlink:title="ExportMetadata.html" xlink:type="simple"><rect fill="#F1F1F1" height="279.5029" rx="2.5" ry="2.5" style="stroke:#181818;stroke-width:0.5;" width="223.7492" x="6" y="91"/><ellipse cx="22.7727" cy="112.344" fill="#ADD1B2" rx="11" ry="11" style="stroke:#181818;stroke-width:1;"/><path d="M25.7415,117.9846 Q25.1633,118.2815 24.5227,118.4221 Q23.8821,118.5783 23.179,118.5783 Q20.679,118.5783 19.3508,116.9377 Q18.0383,115.2815 18.0383,112.1565 Q18.0383,109.0315 19.3508,107.3752 Q20.679,105.719 23.179,105.719 Q23.8821,105.719 24.5227,105.8752 Q25.179,106.0315 25.7415,106.3283 L25.7415,109.0471 Q25.1165,108.469 24.5227,108.2033 Q23.929,107.9221 23.304,107.9221 Q21.9602,107.9221 21.2727,109.0002 Q20.5852,110.0627 20.5852,112.1565 Q20.5852,114.2502 21.2727,115.3283 Q21.9602,116.3908 23.304,116.3908 Q23.929,116.3908 24.5227,116.1252 Q25.1165,115.844 25.7415,115.2658 L25.7415,117.9846 Z " fill="#000000"/><text fill="#000000" font-family="sans-serif" font-size="14" lengthAdjust="spacing" textLength="105.9796" x="78.0818" y="110.9659">ExportMetadata</text><text fill="#000000" font-family="sans-serif" font-size="10" lengthAdjust="spacing" textLength="187.8099" x="37.1666" y="125.7579">com.hack23.cia.service.data.impl.export</text><line style="stroke:#181818;stroke-width:0.5;" x1="7" x2="228.7492" y1="133.6879" y2="133.6879"/><ellipse cx="17" cy="148.7219" fill="#84BE84" rx="3" ry="3" style="stroke:#038048;stroke-width:1;"/><text fill="#000000" font-family="sans-serif" font-size="14" lengthAdjust="spacing" textLength="126.2655" x="26" y="152.6538">getVersion(): String</text><ellipse cx="17" cy="167.7898" fill="#84BE84" rx="3" ry="3" style="stroke:#038048;stroke-width:1;"/><text fill="#000000" font-family="sans-serif" font-size="14" lengthAdjust="spacing" textLength="152.1654" x="26" y="171.7218">setVersion(String): void</text><ellipse cx="17" cy="186.8577" fill="#84BE84" rx="3" ry="3" style="stroke:#038048;stroke-width:1;"/><text fill="#000000" font-family="sans-serif" font-size="14" lengthAdjust="spacing" textLength="138.2075" x="26" y="190.7897">getGenerated(): Date</text><ellipse cx="17" cy="205.9256" fill="#84BE84" rx="3" ry="3" style="stroke:#038048;stroke-width:1;"/><text fill="#000000" font-family="sans-serif" font-size="14" lengthAdjust="spacing" textLength="164.1074" x="26" y="209.8576">setGenerated(Date): void</text><ellipse cx="17" cy="224.9935" fill="#84BE84" rx="3" ry="3" style="stroke:#038048;stroke-width:1;"/><text fill="#000000" font-family="sans-serif" font-size="14" lengthAdjust="spacing" textLength="121.9535" x="26" y="228.9255">getSource(): String</text><ellipse cx="17" cy="244.0614" fill="#84BE84" rx="3" ry="3" style="stroke:#038048;stroke-width:1;"/><text fill="#000000" font-family="sans-serif" font-size="14" lengthAdjust="spacing" textLength="147.8534" x="26" y="247.9934">setSource(String): void</text><ellipse cx="17" cy="263.1294" fill="#84BE84" rx="3" ry="3" style="stroke:#038048;stroke-width:1;"/><text fill="#000000" font-family="sans-serif" font-size="14" lengthAdjust="spacing" textLength="128.6455" x="26" y="267.0613">getSchema(): String</text><ellipse cx="17" cy="282.1973" fill="#84BE84" rx="3" ry="3" style="stroke:#038048;stroke-width:1;"/><text fill="#000000" font-family="sans-serif" font-size="14" lengthAdjust="spacing" textLength="154.5454" x="26" y="286.1293">setSchema(String): void</text><ellipse cx="17" cy="301.2652" fill="#84BE84" rx="3" ry="3" style="stroke:#038048;stroke-width:1;"/><text fill="#000000" font-family="sans-serif" font-size="14" lengthAdjust="spacing" textLength="171.8493" x="26" y="305.1972">getRecordCount(): Integer</text><ellipse cx="17" cy="320.3331" fill="#84BE84" rx="3" ry="3" style="stroke:#038048;stroke-width:1;"/><text fill="#000000" font-family="sans-serif" font-size="14" lengthAdjust="spacing" textLength="197.7492" x="26" y="324.2651">setRecordCount(Integer): void</text><ellipse cx="17" cy="339.401" fill="#84BE84" rx="3" ry="3" style="stroke:#038048;stroke-width:1;"/><text fill="#000000" font-family="sans-serif" font-size="14" lengthAdjust="spacing" textLength="130.3815" x="26" y="343.333">getDataDate(): Date</text><ellipse cx="17" cy="358.4689" fill="#84BE84" rx="3" ry="3" style="stroke:#038048;stroke-width:1;"/><text fill="#000000" font-family="sans-serif" font-size="14" lengthAdjust="spacing" textLength="156.2814" x="26" y="362.4009">setDataDate(Date): void</text></a></g><!--class java.io.Serializable--><g class="entity" data-entity="java.io.Serializable" data-source-line="28" data-uid="ent0003" id="entity_java.io.Serializable"><rect fill="#F1F1F1" height="42.6879" rx="2.5" ry="2.5" style="stroke:#181818;stroke-width:0.5;" width="103.3017" x="66.5" y="12"/><ellipse cx="81.5" cy="33.344" fill="#B4A7E5" rx="11" ry="11" style="stroke:#181818;stroke-width:1;"/><path d="M77.4219,29.1096 L77.4219,26.9533 L84.8125,26.9533 L84.8125,29.1096 L82.3438,29.1096 L82.3438,37.1877 L84.8125,37.1877 L84.8125,39.344 L77.4219,39.344 L77.4219,37.1877 L79.8906,37.1877 L79.8906,29.1096 L77.4219,29.1096 Z " fill="#000000"/><text fill="#000000" font-family="sans-serif" font-size="14" font-style="italic" lengthAdjust="spacing" textLength="71.3017" x="95.5" y="31.9659">Serializable</text><text fill="#000000" font-family="sans-serif" font-size="10" font-style="italic" lengthAdjust="spacing" textLength="29.38" x="116.4609" y="46.7579">java.io</text></g><g class="link" data-entity-1="java.io.Serializable" data-entity-2="com.hack23.cia.service.data.impl.export.ExportMetadata" data-uid="lnk4" id="link_java.io.Serializable_com.hack23.cia.service.data.impl.export.ExportMetadata"><polygon fill="none" points="118,55.0524,112,73.0524,124,73.0524,118,55.0524" style="stroke:#181818;stroke-width:1;"/><path d="M118,73.0524 C118,82.6598 118,76.9989 118,90.6718" fill="none" style="stroke:#181818;stroke-width:1;stroke-dasharray:7,7;"/></g><g class="footer" data-source-line="38"><text fill="#888888" font-family="sans-serif" font-size="10" lengthAdjust="spacing" textLength="2.6" x="113.2" y="375.69">&#160;</text><a href="https://github.com/talsma-ict/umldoclet" target="_top" title="https://github.com/talsma-ict/umldoclet" xlink:actuate="onRequest" xlink:href="https://github.com/talsma-ict/umldoclet" xlink:show="new" xlink:title="https://github.com/talsma-ict/umldoclet" xlink:type="simple"><text fill="#888888" font-family="sans-serif" font-size="10" lengthAdjust="spacing" textLength="76.7199" x="76.14" y="389.31">UMLDoclet 2.2.4</text></a></g><!--SRC=[dLHDJzj04BtpAwRqK11aOvi08K98AA125QIAX5v23XDxOc-ptdLtrsb3ot_l-eF4GObKrPSuysRUcrc_7G20Jz1NsLBpEB5W5TY46tXw603A26AIfD5I13p5c0nCIIWPcogH07ERA0rgLluBbTPaCYKZBcFuWWi4et8Tac5xUr1AZTxOVw9fi4-NHV16XO8i7FGF6oq5dd_M2hpW34OeJ8fmtn-nccrT4x20TS1n2nwID8uobn7figth34FtCwYGOrYGDbn9L-FLFCMeeP8MkJIGeRQc6EchG6cBNdtcz4-Pxy71zN2msPntKJPt3DTQOXx1e_gHh-Rza6cCNSi2bogtO5AoAB72ZEjQOkhE2qCQabD5wuvIAaabdl28WDBCBc76IKJcVTIH9Sg5otWeq1ZOlpJyXNf-v-hsLwQqVN1w4LfybZNWNOKgPGc6y-24XHoP8RrmvyAABCRJJ30gA_V1VPz_p6MROZ0URmPOObCncS3lijFYEOh9Vgk-mi5X3uPMEyEiKRD6AyZbB1IFDke_lvcdOBXnBnlrQxI0jjKFIsVkaA_1tUf3vwWKTrLNuExgHt9N9UghNDg2ubvQYablS3HJQdmRaviEYmct7i8AV7y6hvLfkEFLCsU_Xd66f3aA_e9JGGtRV7UNcN5Lsg9-PytKYd0R0fT_6FjFArMibyOk1LsjHfifvVfksAbuxfOPwG6NyxuIxXfzx6v7dugj8BWajuZ2kIHtQRnLvcibrsxerLhFSZnEhCrChzsEkKtoANCJjMsvaLeyjEqy5L6rYjujfScaNZ8hIqAnC5fUf-Nx8x_JEptl-HVCwtQxPoVTS-_82tgUDxxDjSgeFRGgd2TAf9E_]--></g></svg>