<svg xmlns="http://www.w3.org/2000/svg" xmlns:xlink="http://www.w3.org/1999/xlink" contentStyleType="text/css" data-diagram-type="CLASS" height="552px" preserveAspectRatio="none" style="width:361px;height:552px;background:#FFFFFF;" version="1.1" viewBox="0 0 361 552" width="361px" zoomAndPan="magnify"><defs/><g><!--class com.hack23.cia.service.data.impl.export.RiskAssessmentExportDTO.RiskViolation--><g class="entity" data-entity="com.hack23.cia.service.data.impl.export.RiskAssessmentExportDTO.RiskViolation" data-source-line="13" data-uid="ent0002" id="entity_com.hack23.cia.service.data.impl.export.RiskAssessmentExportDTO.RiskViolation"><a href="RiskAssessmentExportDTO.RiskViolation.html" target="_top" title="RiskAssessmentExportDTO.RiskViolation.html" xlink:actuate="onRequest" xlink:href="RiskAssessmentExportDTO.RiskViolation.html" xlink:show="new" xlink:title="RiskAssessmentExportDTO.RiskViolation.html" xlink:type="simple"><rect fill="#F1F1F1" height="432.0462" rx="2.5" ry="2.5" style="stroke:#181818;stroke-width:0.5;" width="296.893" x="6" y="91"/><ellipse cx="21" cy="112.344" fill="#ADD1B2" rx="11" ry="11" style="stroke:#181818;stroke-width:1;"/><path d="M23.9688,117.9846 Q23.3906,118.2815 22.75,118.4221 Q22.1094,118.5783 21.4063,118.5783 Q18.9063,118.5783 17.5781,116.9377 Q16.2656,115.2815 16.2656,112.1565 Q16.2656,109.0315 17.5781,107.3752 Q18.9063,105.719 21.4063,105.719 Q22.1094,105.719 22.75,105.8752 Q23.4063,106.0315 23.9688,106.3283 L23.9688,109.0471 Q23.3438,108.469 22.75,108.2033 Q22.1563,107.9221 21.5313,107.9221 Q20.1875,107.9221 19.5,109.0002 Q18.8125,110.0627 18.8125,112.1565 Q18.8125,114.2502 19.5,115.3283 Q20.1875,116.3908 21.5313,116.3908 Q22.1563,116.3908 22.75,116.1252 Q23.3438,115.844 23.9688,115.2658 L23.9688,117.9846 Z " fill="#000000"/><text fill="#000000" font-family="sans-serif" font-size="14" lengthAdjust="spacing" textLength="264.893" x="35" y="110.9659">RiskAssessmentExportDTO.RiskViolation</text><text fill="#000000" font-family="sans-serif" font-size="10" lengthAdjust="spacing" textLength="187.8099" x="73.5416" y="125.7579">com.hack23.cia.service.data.impl.export</text><line style="stroke:#181818;stroke-width:0.5;" x1="7" x2="301.893" y1="133.6879" y2="133.6879"/><ellipse cx="17" cy="148.7219" fill="#84BE84" rx="3" ry="3" style="stroke:#038048;stroke-width:1;"/><text fill="#000000" font-family="sans-serif" font-size="14" lengthAdjust="spacing" textLength="83.7757" x="26" y="152.6538">getId(): Long</text><ellipse cx="17" cy="167.7898" fill="#84BE84" rx="3" ry="3" style="stroke:#038048;stroke-width:1;"/><text fill="#000000" font-family="sans-serif" font-size="14" lengthAdjust="spacing" textLength="109.6756" x="26" y="171.7218">setId(Long): void</text><ellipse cx="17" cy="186.8577" fill="#84BE84" rx="3" ry="3" style="stroke:#038048;stroke-width:1;"/><text fill="#000000" font-family="sans-serif" font-size="14" lengthAdjust="spacing" textLength="158.7454" x="26" y="190.7897">getDetectedDate(): Date</text><ellipse cx="17" cy="205.9256" fill="#84BE84" rx="3" ry="3" style="stroke:#038048;stroke-width:1;"/><text fill="#000000" font-family="sans-serif" font-size="14" lengthAdjust="spacing" textLength="184.6453" x="26" y="209.8576">setDetectedDate(Date): void</text><ellipse cx="17" cy="224.9935" fill="#84BE84" rx="3" ry="3" style="stroke:#038048;stroke-width:1;"/><text fill="#000000" font-family="sans-serif" font-size="14" lengthAdjust="spacing" textLength="156.3654" x="26" y="228.9255">getReferenceId(): String</text><ellipse cx="17" cy="244.0614" fill="#84BE84" rx="3" ry="3" style="stroke:#038048;stroke-width:1;"/><text fill="#000000" font-family="sans-serif" font-size="14" lengthAdjust="spacing" textLength="182.2653" x="26" y="247.9934">setReferenceId(String): void</text><ellipse cx="17" cy="263.1294" fill="#84BE84" rx="3" ry="3" style="stroke:#038048;stroke-width:1;"/><text fill="#000000" font-family="sans-serif" font-size="14" lengthAdjust="spacing" textLength="116.2276" x="26" y="267.0613">getName(): String</text><ellipse cx="17" cy="282.1973" fill="#84BE84" rx="3" ry="3" style="stroke:#038048;stroke-width:1;"/><text fill="#000000" font-family="sans-serif" font-size="14" lengthAdjust="spacing" textLength="142.1275" x="26" y="286.1293">setName(String): void</text><ellipse cx="17" cy="301.2652" fill="#84BE84" rx="3" ry="3" style="stroke:#038048;stroke-width:1;"/><text fill="#000000" font-family="sans-serif" font-size="14" lengthAdjust="spacing" textLength="169.0073" x="26" y="305.1972">getResourceType(): String</text><ellipse cx="17" cy="320.3331" fill="#84BE84" rx="3" ry="3" style="stroke:#038048;stroke-width:1;"/><text fill="#000000" font-family="sans-serif" font-size="14" lengthAdjust="spacing" textLength="194.9072" x="26" y="324.2651">setResourceType(String): void</text><ellipse cx="17" cy="339.401" fill="#84BE84" rx="3" ry="3" style="stroke:#038048;stroke-width:1;"/><text fill="#000000" font-family="sans-serif" font-size="14" lengthAdjust="spacing" textLength="145.0954" x="26" y="343.333">getRuleName(): String</text><ellipse cx="17" cy="358.4689" fill="#84BE84" rx="3" ry="3" style="stroke:#038048;stroke-width:1;"/><text fill="#000000" font-family="sans-serif" font-size="14" lengthAdjust="spacing" textLength="170.9953" x="26" y="362.4009">setRuleName(String): void</text><ellipse cx="17" cy="377.5369" fill="#84BE84" rx="3" ry="3" style="stroke:#038048;stroke-width:1;"/><text fill="#000000" font-family="sans-serif" font-size="14" lengthAdjust="spacing" textLength="180.9493" x="26" y="381.4688">getRuleDescription(): String</text><ellipse cx="17" cy="396.6048" fill="#84BE84" rx="3" ry="3" style="stroke:#038048;stroke-width:1;"/><text fill="#000000" font-family="sans-serif" font-size="14" lengthAdjust="spacing" textLength="206.8492" x="26" y="400.5368">setRuleDescription(String): void</text><ellipse cx="17" cy="415.6727" fill="#84BE84" rx="3" ry="3" style="stroke:#038048;stroke-width:1;"/><text fill="#000000" font-family="sans-serif" font-size="14" lengthAdjust="spacing" textLength="147.3214" x="26" y="419.6047">getRuleGroup(): String</text><ellipse cx="17" cy="434.7406" fill="#84BE84" rx="3" ry="3" style="stroke:#038048;stroke-width:1;"/><text fill="#000000" font-family="sans-serif" font-size="14" lengthAdjust="spacing" textLength="173.2213" x="26" y="438.6726">setRuleGroup(String): void</text><ellipse cx="17" cy="453.8085" fill="#84BE84" rx="3" ry="3" style="stroke:#038048;stroke-width:1;"/><text fill="#000000" font-family="sans-serif" font-size="14" lengthAdjust="spacing" textLength="117.7536" x="26" y="457.7405">getStatus(): String</text><ellipse cx="17" cy="472.8764" fill="#84BE84" rx="3" ry="3" style="stroke:#038048;stroke-width:1;"/><text fill="#000000" font-family="sans-serif" font-size="14" lengthAdjust="spacing" textLength="143.6535" x="26" y="476.8084">setStatus(String): void</text><ellipse cx="17" cy="491.9444" fill="#84BE84" rx="3" ry="3" style="stroke:#038048;stroke-width:1;"/><text fill="#000000" font-family="sans-serif" font-size="14" lengthAdjust="spacing" textLength="127.6795" x="26" y="495.8763">getPositive(): String</text><ellipse cx="17" cy="511.0123" fill="#84BE84" rx="3" ry="3" style="stroke:#038048;stroke-width:1;"/><text fill="#000000" font-family="sans-serif" font-size="14" lengthAdjust="spacing" textLength="153.5794" x="26" y="514.9443">setPositive(String): void</text></a></g><!--class java.io.Serializable--><g class="entity" data-entity="java.io.Serializable" data-source-line="36" data-uid="ent0003" id="entity_java.io.Serializable"><rect fill="#F1F1F1" height="42.6879" rx="2.5" ry="2.5" style="stroke:#181818;stroke-width:0.5;" width="103.3017" x="13" y="12"/><ellipse cx="28" cy="33.344" fill="#B4A7E5" rx="11" ry="11" style="stroke:#181818;stroke-width:1;"/><path d="M23.9219,29.1096 L23.9219,26.9533 L31.3125,26.9533 L31.3125,29.1096 L28.8438,29.1096 L28.8438,37.1877 L31.3125,37.1877 L31.3125,39.344 L23.9219,39.344 L23.9219,37.1877 L26.3906,37.1877 L26.3906,29.1096 L23.9219,29.1096 Z " fill="#000000"/><text fill="#000000" font-family="sans-serif" font-size="14" font-style="italic" lengthAdjust="spacing" textLength="71.3017" x="42" y="31.9659">Serializable</text><text fill="#000000" font-family="sans-serif" font-size="10" font-style="italic" lengthAdjust="spacing" textLength="29.38" x="62.9609" y="46.7579">java.io</text></g><!--class com.hack23.cia.service.data.impl.export.RiskAssessmentExportDTO--><g class="entity" data-entity="com.hack23.cia.service.data.impl.export.RiskAssessmentExportDTO" data-source-line="37" data-uid="ent0004" id="entity_com.hack23.cia.service.data.impl.export.RiskAssessmentExportDTO"><a href="RiskAssessmentExportDTO.html" target="_top" title="RiskAssessmentExportDTO.html" xlink:actuate="onRequest" xlink:href="RiskAssessmentExportDTO.html" xlink:show="new" xlink:title="RiskAssessmentExportDTO.html" xlink:type="simple"><rect fill="#F1F1F1" height="42.6879" rx="2.5" ry="2.5" style="stroke:#181818;stroke-width:0.5;" width="219.8099" x="134.5" y="12"/><ellipse cx="149.5" cy="33.344" fill="#ADD1B2" rx="11" ry="11" style="stroke:#181818;stroke-width:1;"/><path d="M152.4688,38.9846 Q151.8906,39.2815 151.25,39.4221 Q150.6094,39.5783 149.9063,39.5783 Q147.4063,39.5783 146.0781,37.9377 Q144.7656,36.2815 144.7656,33.1565 Q144.7656,30.0315 146.0781,28.3752 Q147.4063,26.719 149.9063,26.719 Q150.6094,26.719 151.25,26.8752 Q151.9063,27.0315 152.4688,27.3283 L152.4688,30.0471 Q151.8438,29.469 151.25,29.2033 Q150.6563,28.9221 150.0313,28.9221 Q148.6875,28.9221 148,30.0002 Q147.3125,31.0627 147.3125,33.1565 Q147.3125,35.2502 148,36.3283 Q148.6875,37.3908 150.0313,37.3908 Q150.6563,37.3908 151.25,37.1252 Q151.8438,36.844 152.4688,36.2658 L152.4688,38.9846 Z " fill="#000000"/><text fill="#000000" font-family="sans-serif" font-size="14" lengthAdjust="spacing" textLength="176.9033" x="168.9533" y="31.9659">RiskAssessmentExportDTO</text><text fill="#000000" font-family="sans-serif" font-size="10" lengthAdjust="spacing" textLength="187.8099" x="163.5" y="46.7579">com.hack23.cia.service.data.impl.export</text></a></g><g class="link" data-entity-1="java.io.Serializable" data-entity-2="com.hack23.cia.service.data.impl.export.RiskAssessmentExportDTO.RiskViolation" data-uid="lnk5" id="link_java.io.Serializable_com.hack23.cia.service.data.impl.export.RiskAssessmentExportDTO.RiskViolation"><polygon fill="none" points="71.4127,55.3533,71.3812,74.327,82.7717,70.5511,71.4127,55.3533" style="stroke:#181818;stroke-width:1;"/><path d="M77.0765,72.4391 C80.2047,81.876 78.5713,76.9483 83.1668,90.8116" fill="none" style="stroke:#181818;stroke-width:1;stroke-dasharray:7,7;"/></g><g class="link" data-entity-1="com.hack23.cia.service.data.impl.export.RiskAssessmentExportDTO" data-entity-2="com.hack23.cia.service.data.impl.export.RiskAssessmentExportDTO.RiskViolation" data-uid="lnk6" id="link_com.hack23.cia.service.data.impl.export.RiskAssessmentExportDTO_com.hack23.cia.service.data.impl.export.RiskAssessmentExportDTO.RiskViolation"><ellipse cx="235.0701" cy="62.947" fill="#FFFFFF" rx="8" ry="8" style="stroke:#181818;stroke-width:1;"/><line style="stroke:#181818;stroke-width:1;" x1="232.5528" x2="237.5873" y1="70.5406" y2="55.3533"/><line style="stroke:#181818;stroke-width:1;" x1="227.4764" x2="242.6637" y1="60.4298" y2="65.4642"/><path d="M232.5528,70.5406 C229.4246,79.9776 230.4287,76.9483 225.8332,90.8116" fill="none" style="stroke:#181818;stroke-width:1;"/></g><g class="footer" data-source-line="48"><text fill="#888888" font-family="sans-serif" font-size="10" lengthAdjust="spacing" textLength="2.6" x="175.45" y="527.69">&#160;</text><a href="https://github.com/talsma-ict/umldoclet" target="_top" title="https://github.com/talsma-ict/umldoclet" xlink:actuate="onRequest" xlink:href="https://github.com/talsma-ict/umldoclet" xlink:show="new" xlink:title="https://github.com/talsma-ict/umldoclet" xlink:type="simple"><text fill="#888888" font-family="sans-serif" font-size="10" lengthAdjust="spacing" textLength="76.7199" x="138.39" y="541.31">UMLDoclet 2.2.4</text></a></g><!--SRC=[nLNTJzim47_dhxYnXu6WRbA-HeMGAeeOKxSXMlPIU72TQ-FLiJFxqgri_EzpagwahAsOXhGyDEbz_EvtvpiV0C0RE3FfrCfHJ406A9OERZvqWEi8HgZHSi88PC97w620okYHAmqHU4QniM26nJzXh4MN6Xr9FOBtVCB1cSmAT6nZ0ufGlT_etxYhe0-ckR1jX4A2hRFj2gL641xM6a7Z47fSkOJ3vLcFpT0UVHgimVR1OoifK3iFcUa8RK6hbNBXNvrIimiJj4uQxNs26KwUgZ2QkDGEKcx9vIbTAQufvneo7_-0XG5ijRgTHNB1SK5k5rfMyoo2Q_Crc-VxAhLyv2ahFZKPWKkGkEQbpddMcYU-NbnW5trKJhwKscWizB6C4319QGf3YIfoJwKUB3PUNCY5uix1vecJzzWCzq-lfHktd4FdOsew_vuQI-tU9vRBFqkZEFaAtEgPVN0gJC9YBiQDFIOaPmxjn9UBHPmuaqcg61OGc-2FxPcsx5aSeDz_bXsBAL5tT_2ZI3T_TaP8bz7MTXCwlYKVnQuGvpAlcXWPBNYqaL3ubclxlijzy_U2xu91_hCCvHg7Q54BB0bqoSed5AeMfNePpaVV02i02jLgpsiiHwitJN4bXOh96gHCuHeUS_LwX3OwOMMQ7zKQeAhLUhmBQx9q3LAfNutH9KwPMm4mKwxslZ9EafoigibS_IV2GpcFKXFQeP_ioansqKgkv3qVAAoCtXT_Jp9fYj6QVREgwT_Cz_-Pw3KpN4vjMPDboS79JyPUzaOfw_MF6UtKQY_Cgg1rucYgy7JUJ4DZV9zKBhNyUUVdrNQa7fyPvJV2wxVBjJVvWbDIez-fOgnzU0ZcbWzbk7ebtYpMhUxtOwBKDUlraQGu6p2VQ9sAvLgJWkfPeg9ogpxPh_uWotrvCL_S-Uwh1VkrCEo5-ys3esPupCA3u6Zly2WCTu96CmZwvvarATQxPCGuDYgv-mK0]--></g></svg>