<svg xmlns="http://www.w3.org/2000/svg" xmlns:xlink="http://www.w3.org/1999/xlink" contentStyleType="text/css" data-diagram-type="CLASS" height="857px" preserveAspectRatio="none" style="width:372px;height:857px;background:#FFFFFF;" version="1.1" viewBox="0 0 372 857" width="372px" zoomAndPan="magnify"><defs/><g><!--class com.hack23.cia.service.data.impl.export.TemporalTrendsExportDTO.TrendDataPoint--><g class="entity" data-entity="com.hack23.cia.service.data.impl.export.TemporalTrendsExportDTO.TrendDataPoint" data-source-line="13" data-uid="ent0002" id="entity_com.hack23.cia.service.data.impl.export.TemporalTrendsExportDTO.TrendDataPoint"><a href="TemporalTrendsExportDTO.TrendDataPoint.html" target="_top" title="TemporalTrendsExportDTO.TrendDataPoint.html" xlink:actuate="onRequest" xlink:href="TemporalTrendsExportDTO.TrendDataPoint.html" xlink:show="new" xlink:title="TemporalTrendsExportDTO.TrendDataPoint.html" xlink:type="simple"><rect fill="#F1F1F1" height="737.1329" rx="2.5" ry="2.5" style="stroke:#181818;stroke-width:0.5;" width="320.4608" x="6" y="91"/><ellipse cx="21.0782" cy="112.344" fill="#ADD1B2" rx="11" ry="11" style="stroke:#181818;stroke-width:1;"/><path d="M24.047,117.9846 Q23.4689,118.2815 22.8282,118.4221 Q22.1876,118.5783 21.4845,118.5783 Q18.9845,118.5783 17.6564,116.9377 Q16.3439,115.2815 16.3439,112.1565 Q16.3439,109.0315 17.6564,107.3752 Q18.9845,105.719 21.4845,105.719 Q22.1876,105.719 22.8282,105.8752 Q23.4845,106.0315 24.047,106.3283 L24.047,109.0471 Q23.422,108.469 22.8282,108.2033 Q22.2345,107.9221 21.6095,107.9221 Q20.2657,107.9221 19.5782,109.0002 Q18.8907,110.0627 18.8907,112.1565 Q18.8907,114.2502 19.5782,115.3283 Q20.2657,116.3908 21.6095,116.3908 Q22.2345,116.3908 22.8282,116.1252 Q23.422,115.844 24.047,115.2658 L24.047,117.9846 Z " fill="#000000"/><text fill="#000000" font-family="sans-serif" font-size="14" lengthAdjust="spacing" textLength="288.287" x="35.0956" y="110.9659">TemporalTrendsExportDTO.TrendDataPoint</text><text fill="#000000" font-family="sans-serif" font-size="10" lengthAdjust="spacing" textLength="187.8099" x="85.3342" y="125.7579">com.hack23.cia.service.data.impl.export</text><line style="stroke:#181818;stroke-width:0.5;" x1="7" x2="325.4608" y1="133.6879" y2="133.6879"/><ellipse cx="17" cy="148.7219" fill="#84BE84" rx="3" ry="3" style="stroke:#038048;stroke-width:1;"/><text fill="#000000" font-family="sans-serif" font-size="14" lengthAdjust="spacing" textLength="149.4774" x="26" y="152.6538">getDecisionDay(): Date</text><ellipse cx="17" cy="167.7898" fill="#84BE84" rx="3" ry="3" style="stroke:#038048;stroke-width:1;"/><text fill="#000000" font-family="sans-serif" font-size="14" lengthAdjust="spacing" textLength="175.3773" x="26" y="171.7218">setDecisionDay(Date): void</text><ellipse cx="17" cy="186.8577" fill="#84BE84" rx="3" ry="3" style="stroke:#038048;stroke-width:1;"/><text fill="#000000" font-family="sans-serif" font-size="14" lengthAdjust="spacing" textLength="165.4513" x="26" y="190.7897">getDailyDecisions(): Long</text><ellipse cx="17" cy="205.9256" fill="#84BE84" rx="3" ry="3" style="stroke:#038048;stroke-width:1;"/><text fill="#000000" font-family="sans-serif" font-size="14" lengthAdjust="spacing" textLength="191.3512" x="26" y="209.8576">setDailyDecisions(Long): void</text><ellipse cx="17" cy="224.9935" fill="#84BE84" rx="3" ry="3" style="stroke:#038048;stroke-width:1;"/><text fill="#000000" font-family="sans-serif" font-size="14" lengthAdjust="spacing" textLength="232.6231" x="26" y="228.9255">getDailyApprovalRate(): BigDecimal</text><ellipse cx="17" cy="244.0614" fill="#84BE84" rx="3" ry="3" style="stroke:#038048;stroke-width:1;"/><text fill="#000000" font-family="sans-serif" font-size="14" lengthAdjust="spacing" textLength="258.523" x="26" y="247.9934">setDailyApprovalRate(BigDecimal): void</text><ellipse cx="17" cy="263.1294" fill="#84BE84" rx="3" ry="3" style="stroke:#038048;stroke-width:1;"/><text fill="#000000" font-family="sans-serif" font-size="14" lengthAdjust="spacing" textLength="197.0492" x="26" y="267.0613">getApprovedDecisions(): Long</text><ellipse cx="17" cy="282.1973" fill="#84BE84" rx="3" ry="3" style="stroke:#038048;stroke-width:1;"/><text fill="#000000" font-family="sans-serif" font-size="14" lengthAdjust="spacing" textLength="222.9491" x="26" y="286.1293">setApprovedDecisions(Long): void</text><ellipse cx="17" cy="301.2652" fill="#84BE84" rx="3" ry="3" style="stroke:#038048;stroke-width:1;"/><text fill="#000000" font-family="sans-serif" font-size="14" lengthAdjust="spacing" textLength="189.4052" x="26" y="305.1972">getRejectedDecisions(): Long</text><ellipse cx="17" cy="320.3331" fill="#84BE84" rx="3" ry="3" style="stroke:#038048;stroke-width:1;"/><text fill="#000000" font-family="sans-serif" font-size="14" lengthAdjust="spacing" textLength="215.3051" x="26" y="324.2651">setRejectedDecisions(Long): void</text><ellipse cx="17" cy="339.401" fill="#84BE84" rx="3" ry="3" style="stroke:#038048;stroke-width:1;"/><text fill="#000000" font-family="sans-serif" font-size="14" lengthAdjust="spacing" textLength="221.5491" x="26" y="343.333">getReferredBackDecisions(): Long</text><ellipse cx="17" cy="358.4689" fill="#84BE84" rx="3" ry="3" style="stroke:#038048;stroke-width:1;"/><text fill="#000000" font-family="sans-serif" font-size="14" lengthAdjust="spacing" textLength="247.449" x="26" y="362.4009">setReferredBackDecisions(Long): void</text><ellipse cx="17" cy="377.5369" fill="#84BE84" rx="3" ry="3" style="stroke:#038048;stroke-width:1;"/><text fill="#000000" font-family="sans-serif" font-size="14" lengthAdjust="spacing" textLength="258.369" x="26" y="381.4688">getCommitteeReferralDecisions(): Long</text><ellipse cx="17" cy="396.6048" fill="#84BE84" rx="3" ry="3" style="stroke:#038048;stroke-width:1;"/><text fill="#000000" font-family="sans-serif" font-size="14" lengthAdjust="spacing" textLength="284.2689" x="26" y="400.5368">setCommitteeReferralDecisions(Long): void</text><ellipse cx="17" cy="415.6727" fill="#84BE84" rx="3" ry="3" style="stroke:#038048;stroke-width:1;"/><text fill="#000000" font-family="sans-serif" font-size="14" lengthAdjust="spacing" textLength="226.4351" x="26" y="419.6047">getMa7dayDecisions(): BigDecimal</text><ellipse cx="17" cy="434.7406" fill="#84BE84" rx="3" ry="3" style="stroke:#038048;stroke-width:1;"/><text fill="#000000" font-family="sans-serif" font-size="14" lengthAdjust="spacing" textLength="252.335" x="26" y="438.6726">setMa7dayDecisions(BigDecimal): void</text><ellipse cx="17" cy="453.8085" fill="#84BE84" rx="3" ry="3" style="stroke:#038048;stroke-width:1;"/><text fill="#000000" font-family="sans-serif" font-size="14" lengthAdjust="spacing" textLength="234.4431" x="26" y="457.7405">getMa30dayDecisions(): BigDecimal</text><ellipse cx="17" cy="472.8764" fill="#84BE84" rx="3" ry="3" style="stroke:#038048;stroke-width:1;"/><text fill="#000000" font-family="sans-serif" font-size="14" lengthAdjust="spacing" textLength="260.343" x="26" y="476.8084">setMa30dayDecisions(BigDecimal): void</text><ellipse cx="17" cy="491.9444" fill="#84BE84" rx="3" ry="3" style="stroke:#038048;stroke-width:1;"/><text fill="#000000" font-family="sans-serif" font-size="14" lengthAdjust="spacing" textLength="234.4431" x="26" y="495.8763">getMa90dayDecisions(): BigDecimal</text><ellipse cx="17" cy="511.0123" fill="#84BE84" rx="3" ry="3" style="stroke:#038048;stroke-width:1;"/><text fill="#000000" font-family="sans-serif" font-size="14" lengthAdjust="spacing" textLength="260.343" x="26" y="514.9443">setMa90dayDecisions(BigDecimal): void</text><ellipse cx="17" cy="530.0802" fill="#84BE84" rx="3" ry="3" style="stroke:#038048;stroke-width:1;"/><text fill="#000000" font-family="sans-serif" font-size="14" lengthAdjust="spacing" textLength="260.357" x="26" y="534.0122">getMa30dayApprovalRate(): BigDecimal</text><ellipse cx="17" cy="549.1481" fill="#84BE84" rx="3" ry="3" style="stroke:#038048;stroke-width:1;"/><text fill="#000000" font-family="sans-serif" font-size="14" lengthAdjust="spacing" textLength="286.2569" x="26" y="553.0801">setMa30dayApprovalRate(BigDecimal): void</text><ellipse cx="17" cy="568.216" fill="#84BE84" rx="3" ry="3" style="stroke:#038048;stroke-width:1;"/><text fill="#000000" font-family="sans-serif" font-size="14" lengthAdjust="spacing" textLength="189.4193" x="26" y="572.148">getDecisionsLastYear(): Long</text><ellipse cx="17" cy="587.284" fill="#84BE84" rx="3" ry="3" style="stroke:#038048;stroke-width:1;"/><text fill="#000000" font-family="sans-serif" font-size="14" lengthAdjust="spacing" textLength="215.3192" x="26" y="591.2159">setDecisionsLastYear(Long): void</text><ellipse cx="17" cy="606.3519" fill="#84BE84" rx="3" ry="3" style="stroke:#038048;stroke-width:1;"/><text fill="#000000" font-family="sans-serif" font-size="14" lengthAdjust="spacing" textLength="207.0592" x="26" y="610.2838">getYoyDecisionsChange(): Long</text><ellipse cx="17" cy="625.4198" fill="#84BE84" rx="3" ry="3" style="stroke:#038048;stroke-width:1;"/><text fill="#000000" font-family="sans-serif" font-size="14" lengthAdjust="spacing" textLength="232.9591" x="26" y="629.3518">setYoyDecisionsChange(Long): void</text><ellipse cx="17" cy="644.4877" fill="#84BE84" rx="3" ry="3" style="stroke:#038048;stroke-width:1;"/><text fill="#000000" font-family="sans-serif" font-size="14" lengthAdjust="spacing" textLength="268.5609" x="26" y="648.4197">getYoyDecisionsChangePct(): BigDecimal</text><ellipse cx="17" cy="663.5556" fill="#84BE84" rx="3" ry="3" style="stroke:#038048;stroke-width:1;"/><text fill="#000000" font-family="sans-serif" font-size="14" lengthAdjust="spacing" textLength="294.4608" x="26" y="667.4876">setYoyDecisionsChangePct(BigDecimal): void</text><ellipse cx="17" cy="682.6235" fill="#84BE84" rx="3" ry="3" style="stroke:#038048;stroke-width:1;"/><text fill="#000000" font-family="sans-serif" font-size="14" lengthAdjust="spacing" textLength="171.3313" x="26" y="686.5555">getDecisionYear(): Integer</text><ellipse cx="17" cy="701.6915" fill="#84BE84" rx="3" ry="3" style="stroke:#038048;stroke-width:1;"/><text fill="#000000" font-family="sans-serif" font-size="14" lengthAdjust="spacing" textLength="197.2312" x="26" y="705.6234">setDecisionYear(Integer): void</text><ellipse cx="17" cy="720.7594" fill="#84BE84" rx="3" ry="3" style="stroke:#038048;stroke-width:1;"/><text fill="#000000" font-family="sans-serif" font-size="14" lengthAdjust="spacing" textLength="185.4013" x="26" y="724.6913">getDecisionMonth(): Integer</text><ellipse cx="17" cy="739.8273" fill="#84BE84" rx="3" ry="3" style="stroke:#038048;stroke-width:1;"/><text fill="#000000" font-family="sans-serif" font-size="14" lengthAdjust="spacing" textLength="211.3012" x="26" y="743.7593">setDecisionMonth(Integer): void</text><ellipse cx="17" cy="758.8952" fill="#84BE84" rx="3" ry="3" style="stroke:#038048;stroke-width:1;"/><text fill="#000000" font-family="sans-serif" font-size="14" lengthAdjust="spacing" textLength="178.1633" x="26" y="762.8272">getDecisionWeek(): Integer</text><ellipse cx="17" cy="777.9631" fill="#84BE84" rx="3" ry="3" style="stroke:#038048;stroke-width:1;"/><text fill="#000000" font-family="sans-serif" font-size="14" lengthAdjust="spacing" textLength="204.0632" x="26" y="781.8951">setDecisionWeek(Integer): void</text><ellipse cx="17" cy="797.031" fill="#84BE84" rx="3" ry="3" style="stroke:#038048;stroke-width:1;"/><text fill="#000000" font-family="sans-serif" font-size="14" lengthAdjust="spacing" textLength="163.2393" x="26" y="800.963">getDayOfWeek(): Integer</text><ellipse cx="17" cy="816.099" fill="#84BE84" rx="3" ry="3" style="stroke:#038048;stroke-width:1;"/><text fill="#000000" font-family="sans-serif" font-size="14" lengthAdjust="spacing" textLength="189.1393" x="26" y="820.0309">setDayOfWeek(Integer): void</text></a></g><!--class java.io.Serializable--><g class="entity" data-entity="java.io.Serializable" data-source-line="52" data-uid="ent0003" id="entity_java.io.Serializable"><rect fill="#F1F1F1" height="42.6879" rx="2.5" ry="2.5" style="stroke:#181818;stroke-width:0.5;" width="103.3017" x="24.5" y="12"/><ellipse cx="39.5" cy="33.344" fill="#B4A7E5" rx="11" ry="11" style="stroke:#181818;stroke-width:1;"/><path d="M35.4219,29.1096 L35.4219,26.9533 L42.8125,26.9533 L42.8125,29.1096 L40.3438,29.1096 L40.3438,37.1877 L42.8125,37.1877 L42.8125,39.344 L35.4219,39.344 L35.4219,37.1877 L37.8906,37.1877 L37.8906,29.1096 L35.4219,29.1096 Z " fill="#000000"/><text fill="#000000" font-family="sans-serif" font-size="14" font-style="italic" lengthAdjust="spacing" textLength="71.3017" x="53.5" y="31.9659">Serializable</text><text fill="#000000" font-family="sans-serif" font-size="10" font-style="italic" lengthAdjust="spacing" textLength="29.38" x="74.4609" y="46.7579">java.io</text></g><!--class com.hack23.cia.service.data.impl.export.TemporalTrendsExportDTO--><g class="entity" data-entity="com.hack23.cia.service.data.impl.export.TemporalTrendsExportDTO" data-source-line="53" data-uid="ent0004" id="entity_com.hack23.cia.service.data.impl.export.TemporalTrendsExportDTO"><a href="TemporalTrendsExportDTO.html" target="_top" title="TemporalTrendsExportDTO.html" xlink:actuate="onRequest" xlink:href="TemporalTrendsExportDTO.html" xlink:show="new" xlink:title="TemporalTrendsExportDTO.html" xlink:type="simple"><rect fill="#F1F1F1" height="42.6879" rx="2.5" ry="2.5" style="stroke:#181818;stroke-width:0.5;" width="219.8099" x="146" y="12"/><ellipse cx="161" cy="33.344" fill="#ADD1B2" rx="11" ry="11" style="stroke:#181818;stroke-width:1;"/><path d="M163.9688,38.9846 Q163.3906,39.2815 162.75,39.4221 Q162.1094,39.5783 161.4063,39.5783 Q158.9063,39.5783 157.5781,37.9377 Q156.2656,36.2815 156.2656,33.1565 Q156.2656,30.0315 157.5781,28.3752 Q158.9063,26.719 161.4063,26.719 Q162.1094,26.719 162.75,26.8752 Q163.4063,27.0315 163.9688,27.3283 L163.9688,30.0471 Q163.3438,29.469 162.75,29.2033 Q162.1563,28.9221 161.5313,28.9221 Q160.1875,28.9221 159.5,30.0002 Q158.8125,31.0627 158.8125,33.1565 Q158.8125,35.2502 159.5,36.3283 Q160.1875,37.3908 161.5313,37.3908 Q162.1563,37.3908 162.75,37.1252 Q163.3438,36.844 163.9688,36.2658 L163.9688,38.9846 Z " fill="#000000"/><text fill="#000000" font-family="sans-serif" font-size="14" lengthAdjust="spacing" textLength="180.5713" x="178.6193" y="31.9659">TemporalTrendsExportDTO</text><text fill="#000000" font-family="sans-serif" font-size="10" lengthAdjust="spacing" textLength="187.8099" x="175" y="46.7579">com.hack23.cia.service.data.impl.export</text></a></g><g class="link" data-entity-1="java.io.Serializable" data-entity-2="com.hack23.cia.service.data.impl.export.TemporalTrendsExportDTO.TrendDataPoint" data-uid="lnk5" id="link_java.io.Serializable_com.hack23.cia.service.data.impl.export.TemporalTrendsExportDTO.TrendDataPoint"><polygon fill="none" points="80.4018,55.2374,78.2701,74.091,90.0085,71.5993,80.4018,55.2374" style="stroke:#181818;stroke-width:1;"/><path d="M84.1393,72.8451 C86.1156,82.1558 84.9461,76.6463 87.9528,90.8108" fill="none" style="stroke:#181818;stroke-width:1;stroke-dasharray:7,7;"/></g><g class="link" data-entity-1="com.hack23.cia.service.data.impl.export.TemporalTrendsExportDTO" data-entity-2="com.hack23.cia.service.data.impl.export.TemporalTrendsExportDTO.TrendDataPoint" data-uid="lnk6" id="link_com.hack23.cia.service.data.impl.export.TemporalTrendsExportDTO_com.hack23.cia.service.data.impl.export.TemporalTrendsExportDTO.TrendDataPoint"><ellipse cx="249.9371" cy="63.0631" fill="#FFFFFF" rx="8" ry="8" style="stroke:#181818;stroke-width:1;"/><line style="stroke:#181818;stroke-width:1;" x1="248.276" x2="251.5982" y1="70.8887" y2="55.2374"/><line style="stroke:#181818;stroke-width:1;" x1="242.1114" x2="257.7627" y1="61.402" y2="64.7242"/><path d="M248.276,70.8887 C246.2997,80.1994 247.0539,76.6463 244.0472,90.8108" fill="none" style="stroke:#181818;stroke-width:1;"/></g><g class="footer" data-source-line="64"><text fill="#888888" font-family="sans-serif" font-size="10" lengthAdjust="spacing" textLength="2.6" x="181.2" y="832.69">&#160;</text><a href="https://github.com/talsma-ict/umldoclet" target="_top" title="https://github.com/talsma-ict/umldoclet" xlink:actuate="onRequest" xlink:href="https://github.com/talsma-ict/umldoclet" xlink:show="new" xlink:title="https://github.com/talsma-ict/umldoclet" xlink:type="simple"><text fill="#888888" font-family="sans-serif" font-size="10" lengthAdjust="spacing" textLength="76.7199" x="144.14" y="846.31">UMLDoclet 2.2.4</text></a></g><!--SRC=[nPRVRzD84CVV-Ii6xe6YaeqTKagYgb99471AHTK6dL3emzIUs4lMksPtdSDm_E-tjjCqQHt7w90kBubtllkP7xln3030KnYfDDSyYYrO1JRc1ZwUJm1b2159qcWf19vWH0PkI2WPcKf8W9cDbGOrBvy2fJMPLCcGomZ-n2M2KPaEoB17Zw1qDRsb_urcWtwJ5ujZ5GYoS31wjX5Ip_DVTdfUxoLCKPW4uVreobQqkpqzrcDzS6p10vB68JCPaYx3EainS5-Jol8SbgGDLzBjyLQS8jL0IOjS6aXHMrEaT25GsY9Mdpd_HyptuE3iQh8Td3SeWtiEPrfY5iAb-fgjytsSQenSo09pbLam2LcKMDcCYrfYukg50LsHyuhMbL8gIQKzvY419QdDOSv9XER-geF5oYsNwu50O-39YU7VQUZtJwTEepIAgIOPcZVVt8CTJp-mydcC5YyKb_QpN6tmJWELi1Y3HUy52pWoGthfwiL29sKyIGMZal44tBcrrB9sGS1irax8Ofk8wsluKMPSV0uZicCAU76SOymFdWt1gUdERhRjXT5fbeg7smpa8hyLcW8pSRTy6xCjAUmxIMTfgjKInQLpLy1UywZOcQ1uYDpItWdhs9MKmkP07wfsnNf9NoYm-tWFLRjvSt8lWF2rknhxc7NANToHIX9kBL6r3KKpl46-oyCv7eUuVG5sdDbzPVE9dUCBhpNuddGVUT2UFF1-FUQMTxXEtSnVnp51OpyHwlg_smFLhhFxfEvI6yKe8we5riZQ4oy2sr23UdsxAjmMuBsq596khK6fMGcQMEUkWyNxO9Me1UqleiK-MAbfOc7-OTu8MWjgA3-hrkRU_AJdhabkjBShqXm5_uutWZQQs1StSZ2koYQr-iqsfR_IAl-VtjZG3AlkLzMaBZau-OUntzoRguBznvGEEvtV7LOPrucnkQ3JzOMQA-LkoiPuK7pUvIdf2PUBaH9klFhZLRtrOp4j2Yx93QZ1GfAx8TvQ-RDorztmj_BrMSvciRMf6NQx4RTnTiDSfbrRJgeT7jXkbeYm6b7l3QlkAAlXy-rw2Yu6oOxNx_Z-rEyFZuw7_e3vlLVzmQ1_T7pezOQUDtkJQPLIzyggO14haLp_2m00]--></g></svg>