<?xml version="1.0" encoding="UTF-8" standalone="no"?><svg xmlns="http://www.w3.org/2000/svg" xmlns:xlink="http://www.w3.org/1999/xlink" contentStyleType="text/css" height="308px" preserveAspectRatio="none" style="width:454px;height:308px;background:#FFFFFF;" version="1.1" viewBox="0 0 454 308" width="454px" zoomAndPan="magnify"><defs/><g><!--MD5=[3fa20f13a09303ef6c29d56b900ef731]
cluster com.hack23.cia.web.impl.ui.application.views.common.sizing--><g id="cluster_com.hack23.cia.web.impl.ui.application.views.common.sizing"><path d="M8.5,6.602 L434.5,6.602 A3.75,3.75 0 0 1 437,9.102 L444,31.6699 L444.5,31.6699 A2.5,2.5 0 0 1 447,34.1699 L447,278.102 A2.5,2.5 0 0 1 444.5,280.602 L8.5,280.602 A2.5,2.5 0 0 1 6,278.102 L6,9.102 A2.5,2.5 0 0 1 8.5,6.602 " fill="none" style="stroke:#000000;stroke-width:1.5;"/><line style="stroke:#000000;stroke-width:1.5;" x1="6" x2="444" y1="31.6699" y2="31.6699"/><text fill="#000000" font-family="sans-serif" font-size="14" font-weight="bold" lengthAdjust="spacing" textLength="425" x="10" y="23.5679">com.hack23.cia.web.impl.ui.application.views.common.sizing</text></g><!--MD5=[61eb1ead03bd05011d30ddfbdb6256eb]
class com.hack23.cia.web.impl.ui.application.views.common.sizing.ContentRatio--><a href="ContentRatio.html" target="_top" title="ContentRatio.html" xlink:actuate="onRequest" xlink:href="ContentRatio.html" xlink:show="new" xlink:title="ContentRatio.html" xlink:type="simple"><g id="elem_com.hack23.cia.web.impl.ui.application.views.common.sizing.ContentRatio"><rect codeLine="3" fill="#F1F1F1" height="219.6113" id="com.hack23.cia.web.impl.ui.application.views.common.sizing.ContentRatio" rx="2.5" ry="2.5" style="stroke:#181818;stroke-width:0.5;" width="153" x="238.5" y="44.602"/><ellipse cx="268.8" cy="60.602" fill="#ADD1B2" rx="11" ry="11" style="stroke:#181818;stroke-width:1.0;"/><path d="M271.7688,66.2426 Q271.1906,66.5395 270.55,66.6801 Q269.9094,66.8364 269.2063,66.8364 Q266.7063,66.8364 265.3781,65.1957 Q264.0656,63.5395 264.0656,60.4145 Q264.0656,57.2895 265.3781,55.6332 Q266.7063,53.977 269.2063,53.977 Q269.9094,53.977 270.55,54.1332 Q271.2063,54.2895 271.7688,54.5864 L271.7688,57.3051 Q271.1438,56.727 270.55,56.4614 Q269.9563,56.1801 269.3313,56.1801 Q267.9875,56.1801 267.3,57.2582 Q266.6125,58.3207 266.6125,60.4145 Q266.6125,62.5082 267.3,63.5864 Q267.9875,64.6489 269.3313,64.6489 Q269.9563,64.6489 270.55,64.3832 Q271.1438,64.102 271.7688,63.5239 L271.7688,66.2426 Z " fill="#000000"/><text fill="#000000" font-family="sans-serif" font-size="14" lengthAdjust="spacing" textLength="87" x="286.2" y="66.034">ContentRatio</text><line style="stroke:#181818;stroke-width:0.5;" x1="239.5" x2="390.5" y1="76.602" y2="76.602"/><ellipse cx="249.5" cy="91.6359" fill="none" rx="3" ry="3" style="stroke:#038048;stroke-width:1.0;"/><text fill="#000000" font-family="sans-serif" font-size="14" lengthAdjust="spacing" text-decoration="underline" textLength="83" x="258.5" y="95.5679">CHART: float</text><ellipse cx="249.5" cy="110.7039" fill="none" rx="3" ry="3" style="stroke:#038048;stroke-width:1.0;"/><text fill="#000000" font-family="sans-serif" font-size="14" lengthAdjust="spacing" text-decoration="underline" textLength="104" x="258.5" y="114.6358">FULL_SIZE: float</text><ellipse cx="249.5" cy="129.7718" fill="none" rx="3" ry="3" style="stroke:#038048;stroke-width:1.0;"/><text fill="#000000" font-family="sans-serif" font-size="14" lengthAdjust="spacing" text-decoration="underline" textLength="72" x="258.5" y="133.7038">GRID: float</text><ellipse cx="249.5" cy="148.8397" fill="none" rx="3" ry="3" style="stroke:#038048;stroke-width:1.0;"/><text fill="#000000" font-family="sans-serif" font-size="14" lengthAdjust="spacing" text-decoration="underline" textLength="81" x="258.5" y="152.7717">LARGE: float</text><ellipse cx="249.5" cy="167.9076" fill="none" rx="3" ry="3" style="stroke:#038048;stroke-width:1.0;"/><text fill="#000000" font-family="sans-serif" font-size="14" lengthAdjust="spacing" text-decoration="underline" textLength="127" x="258.5" y="171.8396">LARGE_FORM: float</text><ellipse cx="249.5" cy="186.9755" fill="none" rx="3" ry="3" style="stroke:#038048;stroke-width:1.0;"/><text fill="#000000" font-family="sans-serif" font-size="14" lengthAdjust="spacing" text-decoration="underline" textLength="82" x="258.5" y="190.9075">SMALL: float</text><ellipse cx="249.5" cy="206.0434" fill="none" rx="3" ry="3" style="stroke:#038048;stroke-width:1.0;"/><text fill="#000000" font-family="sans-serif" font-size="14" lengthAdjust="spacing" text-decoration="underline" textLength="122" x="258.5" y="209.9754">SMALL_GRID: float</text><ellipse cx="249.5" cy="225.1114" fill="none" rx="3" ry="3" style="stroke:#038048;stroke-width:1.0;"/><text fill="#000000" font-family="sans-serif" font-size="14" lengthAdjust="spacing" text-decoration="underline" textLength="90" x="258.5" y="229.0433">SMALL2: float</text><ellipse cx="249.5" cy="244.1793" fill="none" rx="3" ry="3" style="stroke:#038048;stroke-width:1.0;"/><text fill="#000000" font-family="sans-serif" font-size="14" lengthAdjust="spacing" text-decoration="underline" textLength="90" x="258.5" y="248.1113">SMALL3: float</text><line style="stroke:#181818;stroke-width:0.5;" x1="239.5" x2="390.5" y1="256.2132" y2="256.2132"/></g></a><!--MD5=[3133dfeb79c608cf5bf10fb9598e7c9c]
class com.hack23.cia.web.impl.ui.application.views.common.sizing.ContentSize--><a href="ContentSize.html" target="_top" title="ContentSize.html" xlink:actuate="onRequest" xlink:href="ContentSize.html" xlink:show="new" xlink:title="ContentSize.html" xlink:type="simple"><g id="elem_com.hack23.cia.web.impl.ui.application.views.common.sizing.ContentSize"><rect codeLine="15" fill="#F1F1F1" height="86.1358" id="com.hack23.cia.web.impl.ui.application.views.common.sizing.ContentSize" rx="2.5" ry="2.5" style="stroke:#181818;stroke-width:0.5;" width="143" x="60.5" y="111.602"/><ellipse cx="89.45" cy="127.602" fill="#ADD1B2" rx="11" ry="11" style="stroke:#181818;stroke-width:1.0;"/><path d="M92.4188,133.2426 Q91.8406,133.5395 91.2,133.6801 Q90.5594,133.8364 89.8563,133.8364 Q87.3563,133.8364 86.0281,132.1957 Q84.7156,130.5395 84.7156,127.4145 Q84.7156,124.2895 86.0281,122.6332 Q87.3563,120.977 89.8563,120.977 Q90.5594,120.977 91.2,121.1332 Q91.8563,121.2895 92.4188,121.5864 L92.4188,124.3051 Q91.7938,123.727 91.2,123.4614 Q90.6063,123.1801 89.9813,123.1801 Q88.6375,123.1801 87.95,124.2582 Q87.2625,125.3207 87.2625,127.4145 Q87.2625,129.5082 87.95,130.5864 Q88.6375,131.6489 89.9813,131.6489 Q90.6063,131.6489 91.2,131.3832 Q91.7938,131.102 92.4188,130.5239 L92.4188,133.2426 Z " fill="#000000"/><text fill="#000000" font-family="sans-serif" font-size="14" lengthAdjust="spacing" textLength="80" x="106.55" y="133.034">ContentSize</text><line style="stroke:#181818;stroke-width:0.5;" x1="61.5" x2="202.5" y1="143.602" y2="143.602"/><ellipse cx="71.5" cy="158.6359" fill="none" rx="3" ry="3" style="stroke:#038048;stroke-width:1.0;"/><text fill="#000000" font-family="sans-serif" font-size="14" lengthAdjust="spacing" text-decoration="underline" textLength="115" x="80.5" y="162.5679">FULL_SIZE: String</text><ellipse cx="71.5" cy="177.7039" fill="none" rx="3" ry="3" style="stroke:#038048;stroke-width:1.0;"/><text fill="#000000" font-family="sans-serif" font-size="14" lengthAdjust="spacing" text-decoration="underline" textLength="117" x="80.5" y="181.6358">HALF_SIZE: String</text><line style="stroke:#181818;stroke-width:0.5;" x1="61.5" x2="202.5" y1="189.7378" y2="189.7378"/></g></a><rect fill="none" height="13.62" style="stroke:none;stroke-width:1.0;" width="188" x="126" y="286.602"/><text fill="#888888" font-family="sans-serif" font-size="10" lengthAdjust="spacing" textLength="188" x="126" y="297.292">UMLDoclet 2.0.20, PlantUML 1.2022.12</text><!--MD5=[835eacc3c5471ed6c079b895c19981a7]
@startuml
    namespace com.hack23.cia.web.impl.ui.application.views.common.sizing {

        class ContentRatio [[ContentRatio.html]] {
            {static} +CHART: float
            {static} +FULL_SIZE: float
            {static} +GRID: float
            {static} +LARGE: float
            {static} +LARGE_FORM: float
            {static} +SMALL: float
            {static} +SMALL_GRID: float
            {static} +SMALL2: float
            {static} +SMALL3: float
        }

        class ContentSize [[ContentSize.html]] {
            {static} +FULL_SIZE: String
            {static} +HALF_SIZE: String
        }

    }

    center footer UMLDoclet 2.0.20, PlantUML 1.2022.12
@enduml

PlantUML version 1.2022.12(Sun Oct 23 20:12:26 CEST 2022)
(APACHE source distribution)
Java Runtime: OpenJDK Runtime Environment
JVM: OpenJDK 64-Bit Server VM
Default Encoding: UTF-8
Language: 
Country: 
--></g></svg>