<svg xmlns="http://www.w3.org/2000/svg" xmlns:xlink="http://www.w3.org/1999/xlink" contentStyleType="text/css" height="813px" preserveAspectRatio="none" style="width:579px;height:813px;background:#FFFFFF;" version="1.1" viewBox="0 0 579 813" width="579px" zoomAndPan="magnify"><defs/><g><!--cluster com.hack23.cia.model.internal.application.data.rules.impl--><g id="cluster_com.hack23.cia.model.internal.application.data.rules.impl"><path d="M16.5,109 L425.0525,109 A3.75,3.75 0 0 1 427.5525,111.5 L434.5525,134.0679 L569.5,134.0679 A2.5,2.5 0 0 1 572,136.5679 L572,773.5 A2.5,2.5 0 0 1 569.5,776 L16.5,776 A2.5,2.5 0 0 1 14,773.5 L14,111.5 A2.5,2.5 0 0 1 16.5,109 " fill="none" style="stroke:#000000;stroke-width:1.5;"/><line style="stroke:#000000;stroke-width:1.5;" x1="14" x2="434.5525" y1="134.0679" y2="134.0679"/><text fill="#000000" font-family="sans-serif" font-size="14" font-weight="bold" lengthAdjust="spacing" textLength="407.5525" x="18" y="125.9659">com.hack23.cia.model.internal.application.data.rules.impl</text></g><!--cluster java.io--><g id="cluster_java.io"><path d="M235.5,4 L282.5738,4 A3.75,3.75 0 0 1 285.0738,6.5 L292.0738,29.0679 L350.5,29.0679 A2.5,2.5 0 0 1 353,31.5679 L353,87.5 A2.5,2.5 0 0 1 350.5,90 L235.5,90 A2.5,2.5 0 0 1 233,87.5 L233,6.5 A2.5,2.5 0 0 1 235.5,4 " fill="none" style="stroke:#000000;stroke-width:1.5;"/><line style="stroke:#000000;stroke-width:1.5;" x1="233" x2="292.0738" y1="29.0679" y2="29.0679"/><text fill="#000000" font-family="sans-serif" font-size="14" font-weight="bold" lengthAdjust="spacing" textLength="46.0738" x="237" y="20.9659">java.io</text></g><!--class Status--><a href="Status.html" target="_top" title="Status.html" xlink:actuate="onRequest" xlink:href="Status.html" xlink:show="new" xlink:title="Status.html" xlink:type="simple"><g id="elem_Status"><rect codeLine="12" fill="#F1F1F1" height="143.3396" id="Status" rx="2.5" ry="2.5" style="stroke:#181818;stroke-width:0.5;" width="85.9618" x="203" y="606"/><ellipse cx="223.8302" cy="622" fill="#EB937F" rx="11" ry="11" style="stroke:#181818;stroke-width:1.0;"/><path d="M227.9395,628 L220.2208,628 L220.2208,615.6094 L227.9395,615.6094 L227.9395,617.7656 L222.6739,617.7656 L222.6739,620.4375 L227.4395,620.4375 L227.4395,622.5938 L222.6739,622.5938 L222.6739,625.8438 L227.9395,625.8438 L227.9395,628 Z " fill="#000000"/><text fill="#000000" font-family="sans-serif" font-size="14" lengthAdjust="spacing" textLength="41.0059" x="239.1257" y="627.432">Status</text><line style="stroke:#181818;stroke-width:0.5;" x1="204" x2="287.9618" y1="638" y2="638"/><ellipse cx="214" cy="653.034" fill="none" rx="3" ry="3" style="stroke:#038048;stroke-width:1.0;"/><text fill="#000000" font-family="sans-serif" font-size="14" lengthAdjust="spacing" text-decoration="underline" textLength="19.5999" x="223" y="656.9659">OK</text><ellipse cx="214" cy="672.1019" fill="none" rx="3" ry="3" style="stroke:#038048;stroke-width:1.0;"/><text fill="#000000" font-family="sans-serif" font-size="14" lengthAdjust="spacing" text-decoration="underline" textLength="47.7258" x="223" y="676.0339">MINOR</text><ellipse cx="214" cy="691.1698" fill="none" rx="3" ry="3" style="stroke:#038048;stroke-width:1.0;"/><text fill="#000000" font-family="sans-serif" font-size="14" lengthAdjust="spacing" text-decoration="underline" textLength="45.1078" x="223" y="695.1018">MAJOR</text><ellipse cx="214" cy="710.2377" fill="none" rx="3" ry="3" style="stroke:#038048;stroke-width:1.0;"/><text fill="#000000" font-family="sans-serif" font-size="14" lengthAdjust="spacing" text-decoration="underline" textLength="59.9618" x="223" y="714.1697">CRITICAL</text><ellipse cx="214" cy="729.3056" fill="none" rx="3" ry="3" style="stroke:#038048;stroke-width:1.0;"/><text fill="#000000" font-family="sans-serif" font-size="14" lengthAdjust="spacing" text-decoration="underline" textLength="19.5859" x="223" y="733.2376">NA</text><line style="stroke:#181818;stroke-width:0.5;" x1="204" x2="287.9618" y1="741.3396" y2="741.3396"/></g></a><!--class RuleViolation--><a href="RuleViolation.html" target="_top" title="RuleViolation.html" xlink:actuate="onRequest" xlink:href="RuleViolation.html" xlink:show="new" xlink:title="RuleViolation.html" xlink:type="simple"><g id="elem_RuleViolation"><rect codeLine="20" fill="#F1F1F1" height="391.2225" id="RuleViolation" rx="2.5" ry="2.5" style="stroke:#181818;stroke-width:0.5;" width="542.3882" x="22" y="139"/><ellipse cx="245.6423" cy="155" fill="#ADD1B2" rx="11" ry="11" style="stroke:#181818;stroke-width:1.0;"/><path d="M248.611,160.6406 Q248.0329,160.9375 247.3923,161.0781 Q246.7516,161.2344 246.0485,161.2344 Q243.5485,161.2344 242.2204,159.5938 Q240.9079,157.9375 240.9079,154.8125 Q240.9079,151.6875 242.2204,150.0313 Q243.5485,148.375 246.0485,148.375 Q246.7516,148.375 247.3923,148.5313 Q248.0485,148.6875 248.611,148.9844 L248.611,151.7031 Q247.986,151.125 247.3923,150.8594 Q246.7985,150.5781 246.1735,150.5781 Q244.8298,150.5781 244.1423,151.6563 Q243.4548,152.7188 243.4548,154.8125 Q243.4548,156.9063 244.1423,157.9844 Q244.8298,159.0469 246.1735,159.0469 Q246.7985,159.0469 247.3923,158.7813 Q247.986,158.5 248.611,157.9219 L248.611,160.6406 Z " fill="#000000"/><text fill="#000000" font-family="sans-serif" font-size="14" lengthAdjust="spacing" textLength="86.6037" x="266.1423" y="160.432">RuleViolation</text><line style="stroke:#181818;stroke-width:0.5;" x1="23" x2="563.3882" y1="171" y2="171"/><line style="stroke:#181818;stroke-width:0.5;" x1="23" x2="563.3882" y1="179" y2="179"/><ellipse cx="33" cy="194.034" fill="#84BE84" rx="3" ry="3" style="stroke:#038048;stroke-width:1.0;"/><text fill="#000000" font-family="sans-serif" font-size="14" lengthAdjust="spacing" textLength="95.0036" x="42" y="197.9659">RuleViolation()</text><ellipse cx="33" cy="213.1019" fill="#84BE84" rx="3" ry="3" style="stroke:#038048;stroke-width:1.0;"/><text fill="#000000" font-family="sans-serif" font-size="14" lengthAdjust="spacing" textLength="516.3882" x="42" y="217.0339">RuleViolation(String, String, ResourceType, String, String, String, Status, String)</text><ellipse cx="33" cy="232.1698" fill="#84BE84" rx="3" ry="3" style="stroke:#038048;stroke-width:1.0;"/><text fill="#000000" font-family="sans-serif" font-size="14" lengthAdjust="spacing" textLength="83.7757" x="42" y="236.1018">getId(): Long</text><ellipse cx="33" cy="251.2377" fill="#84BE84" rx="3" ry="3" style="stroke:#038048;stroke-width:1.0;"/><text fill="#000000" font-family="sans-serif" font-size="14" lengthAdjust="spacing" textLength="109.6756" x="42" y="255.1697">setId(Long): void</text><ellipse cx="33" cy="270.3056" fill="#84BE84" rx="3" ry="3" style="stroke:#038048;stroke-width:1.0;"/><text fill="#000000" font-family="sans-serif" font-size="14" lengthAdjust="spacing" textLength="158.7454" x="42" y="274.2376">getDetectedDate(): Date</text><ellipse cx="33" cy="289.3735" fill="#84BE84" rx="3" ry="3" style="stroke:#038048;stroke-width:1.0;"/><text fill="#000000" font-family="sans-serif" font-size="14" lengthAdjust="spacing" textLength="184.6453" x="42" y="293.3055">setDetectedDate(Date): void</text><ellipse cx="33" cy="308.4415" fill="#84BE84" rx="3" ry="3" style="stroke:#038048;stroke-width:1.0;"/><text fill="#000000" font-family="sans-serif" font-size="14" lengthAdjust="spacing" textLength="156.3654" x="42" y="312.3734">getReferenceId(): String</text><ellipse cx="33" cy="327.5094" fill="#84BE84" rx="3" ry="3" style="stroke:#038048;stroke-width:1.0;"/><text fill="#000000" font-family="sans-serif" font-size="14" lengthAdjust="spacing" textLength="182.2653" x="42" y="331.4414">setReferenceId(String): void</text><ellipse cx="33" cy="346.5773" fill="#84BE84" rx="3" ry="3" style="stroke:#038048;stroke-width:1.0;"/><text fill="#000000" font-family="sans-serif" font-size="14" lengthAdjust="spacing" textLength="116.2276" x="42" y="350.5093">getName(): String</text><ellipse cx="33" cy="365.6452" fill="#84BE84" rx="3" ry="3" style="stroke:#038048;stroke-width:1.0;"/><text fill="#000000" font-family="sans-serif" font-size="14" lengthAdjust="spacing" textLength="142.1275" x="42" y="369.5772">setName(String): void</text><ellipse cx="33" cy="384.7131" fill="#84BE84" rx="3" ry="3" style="stroke:#038048;stroke-width:1.0;"/><text fill="#000000" font-family="sans-serif" font-size="14" lengthAdjust="spacing" textLength="145.0954" x="42" y="388.6451">getRuleName(): String</text><ellipse cx="33" cy="403.781" fill="#84BE84" rx="3" ry="3" style="stroke:#038048;stroke-width:1.0;"/><text fill="#000000" font-family="sans-serif" font-size="14" lengthAdjust="spacing" textLength="170.9953" x="42" y="407.713">setRuleName(String): void</text><ellipse cx="33" cy="422.849" fill="#84BE84" rx="3" ry="3" style="stroke:#038048;stroke-width:1.0;"/><text fill="#000000" font-family="sans-serif" font-size="14" lengthAdjust="spacing" textLength="180.9493" x="42" y="426.7809">getRuleDescription(): String</text><ellipse cx="33" cy="441.9169" fill="#84BE84" rx="3" ry="3" style="stroke:#038048;stroke-width:1.0;"/><text fill="#000000" font-family="sans-serif" font-size="14" lengthAdjust="spacing" textLength="206.8492" x="42" y="445.8489">setRuleDescription(String): void</text><ellipse cx="33" cy="460.9848" fill="#84BE84" rx="3" ry="3" style="stroke:#038048;stroke-width:1.0;"/><text fill="#000000" font-family="sans-serif" font-size="14" lengthAdjust="spacing" textLength="147.3214" x="42" y="464.9168">getRuleGroup(): String</text><ellipse cx="33" cy="480.0527" fill="#84BE84" rx="3" ry="3" style="stroke:#038048;stroke-width:1.0;"/><text fill="#000000" font-family="sans-serif" font-size="14" lengthAdjust="spacing" textLength="173.2213" x="42" y="483.9847">setRuleGroup(String): void</text><ellipse cx="33" cy="499.1206" fill="#84BE84" rx="3" ry="3" style="stroke:#038048;stroke-width:1.0;"/><text fill="#000000" font-family="sans-serif" font-size="14" lengthAdjust="spacing" textLength="127.6795" x="42" y="503.0526">getPositive(): String</text><ellipse cx="33" cy="518.1885" fill="#84BE84" rx="3" ry="3" style="stroke:#038048;stroke-width:1.0;"/><text fill="#000000" font-family="sans-serif" font-size="14" lengthAdjust="spacing" textLength="153.5794" x="42" y="522.1205">setPositive(String): void</text></g></a><!--class ResourceType--><a href="ResourceType.html" target="_top" title="ResourceType.html" xlink:actuate="onRequest" xlink:href="ResourceType.html" xlink:show="new" xlink:title="ResourceType.html" xlink:type="simple"><g id="elem_ResourceType"><rect codeLine="41" fill="#F1F1F1" height="181.4754" id="ResourceType" rx="2.5" ry="2.5" style="stroke:#181818;stroke-width:0.5;" width="124.8256" x="307.5" y="587"/><ellipse cx="322.7547" cy="603" fill="#EB937F" rx="11" ry="11" style="stroke:#181818;stroke-width:1.0;"/><path d="M326.8641,609 L319.1453,609 L319.1453,596.6094 L326.8641,596.6094 L326.8641,598.7656 L321.5984,598.7656 L321.5984,601.4375 L326.3641,601.4375 L326.3641,603.5938 L321.5984,603.5938 L321.5984,606.8438 L326.8641,606.8438 L326.8641,609 Z " fill="#000000"/><text fill="#000000" font-family="sans-serif" font-size="14" lengthAdjust="spacing" textLength="92.2596" x="336.8113" y="608.432">ResourceType</text><line style="stroke:#181818;stroke-width:0.5;" x1="308.5" x2="431.3256" y1="619" y2="619"/><ellipse cx="318.5" cy="634.034" fill="none" rx="3" ry="3" style="stroke:#038048;stroke-width:1.0;"/><text fill="#000000" font-family="sans-serif" font-size="14" lengthAdjust="spacing" text-decoration="underline" textLength="77.1957" x="327.5" y="637.9659">POLITICIAN</text><ellipse cx="318.5" cy="653.1019" fill="none" rx="3" ry="3" style="stroke:#038048;stroke-width:1.0;"/><text fill="#000000" font-family="sans-serif" font-size="14" lengthAdjust="spacing" text-decoration="underline" textLength="41.8318" x="327.5" y="657.0339">PARTY</text><ellipse cx="318.5" cy="672.1698" fill="none" rx="3" ry="3" style="stroke:#038048;stroke-width:1.0;"/><text fill="#000000" font-family="sans-serif" font-size="14" lengthAdjust="spacing" text-decoration="underline" textLength="98.8256" x="327.5" y="676.1018">PARTY_LEADER</text><ellipse cx="318.5" cy="691.2377" fill="none" rx="3" ry="3" style="stroke:#038048;stroke-width:1.0;"/><text fill="#000000" font-family="sans-serif" font-size="14" lengthAdjust="spacing" text-decoration="underline" textLength="81.0597" x="327.5" y="695.1697">COMMITTEE</text><ellipse cx="318.5" cy="710.3056" fill="none" rx="3" ry="3" style="stroke:#038048;stroke-width:1.0;"/><text fill="#000000" font-family="sans-serif" font-size="14" lengthAdjust="spacing" text-decoration="underline" textLength="64.9317" x="327.5" y="714.2376">MINISTRY</text><ellipse cx="318.5" cy="729.3735" fill="none" rx="3" ry="3" style="stroke:#038048;stroke-width:1.0;"/><text fill="#000000" font-family="sans-serif" font-size="14" lengthAdjust="spacing" text-decoration="underline" textLength="95.5636" x="327.5" y="733.3055">GOVERNMENT</text><ellipse cx="318.5" cy="748.4415" fill="none" rx="3" ry="3" style="stroke:#038048;stroke-width:1.0;"/><text fill="#000000" font-family="sans-serif" font-size="14" lengthAdjust="spacing" text-decoration="underline" textLength="64.7917" x="327.5" y="752.3734">MINISTER</text><line style="stroke:#181818;stroke-width:0.5;" x1="308.5" x2="431.3256" y1="760.4754" y2="760.4754"/></g></a><!--class Serializable--><g id="elem_Serializable"><rect codeLine="54" fill="#F1F1F1" height="48" id="Serializable" rx="2.5" ry="2.5" style="stroke:#181818;stroke-width:0.5;" width="103.3017" x="241.5" y="34"/><ellipse cx="256.5" cy="50" fill="#B4A7E5" rx="11" ry="11" style="stroke:#181818;stroke-width:1.0;"/><path d="M252.4219,45.7656 L252.4219,43.6094 L259.8125,43.6094 L259.8125,45.7656 L257.3438,45.7656 L257.3438,53.8438 L259.8125,53.8438 L259.8125,56 L252.4219,56 L252.4219,53.8438 L254.8906,53.8438 L254.8906,45.7656 L252.4219,45.7656 Z " fill="#000000"/><text fill="#000000" font-family="sans-serif" font-size="14" font-style="italic" lengthAdjust="spacing" textLength="71.3017" x="270.5" y="55.432">Serializable</text><line style="stroke:#181818;stroke-width:0.5;" x1="242.5" x2="343.8017" y1="66" y2="66"/><line style="stroke:#181818;stroke-width:0.5;" x1="242.5" x2="343.8017" y1="74" y2="74"/></g><polygon fill="none" points="293,82.4037,287,100.4037,299,100.4037,293,82.4037" style="stroke:#181818;stroke-width:1.0;"/><path d="M293,100.4037 C293,114.7303 293,116.5685 293,138.8722 " fill="none" style="stroke:#181818;stroke-width:1.0;stroke-dasharray:7.0,7.0;"/><polygon fill="#181818" points="349.7151,586.6668,351.6345,577.0068,348.6138,581.7896,343.831,578.7688,349.7151,586.6668" style="stroke:#181818;stroke-width:1.0;"/><path d="M337.01,530.4013 C341.4231,549.9452 344.4161,563.1997 348.3935,580.8141 " fill="none" style="stroke:#181818;stroke-width:1.0;"/><text fill="#000000" font-family="sans-serif" font-size="13" lengthAdjust="spacing" textLength="82.9531" x="347" y="563.897">resourceType</text><polygon fill="#181818" points="255.7514,605.7508,260.9427,597.3812,256.4341,600.7976,253.0177,596.2889,255.7514,605.7508" style="stroke:#181818;stroke-width:1.0;"/><path d="M266.1368,530.4013 C262.4355,557.2555 259.667,577.3413 256.5706,599.807 " fill="none" style="stroke:#181818;stroke-width:1.0;"/><text fill="#000000" font-family="sans-serif" font-size="13" lengthAdjust="spacing" textLength="37.167" x="264" y="563.897">status</text><text fill="#888888" font-family="sans-serif" font-size="10" lengthAdjust="spacing" textLength="2.6" x="280.2" y="788.69">&#160;</text><a href="https://github.com/talsma-ict/umldoclet" target="_top" title="https://github.com/talsma-ict/umldoclet" xlink:actuate="onRequest" xlink:href="https://github.com/talsma-ict/umldoclet" xlink:show="new" xlink:title="https://github.com/talsma-ict/umldoclet" xlink:type="simple"><text fill="#888888" font-family="sans-serif" font-size="10" lengthAdjust="spacing" textLength="76.7199" x="243.14" y="802.31">UMLDoclet 2.2.1</text></a><!--SRC=[pLPDR-Cs4BtlhvYYXoP8J5jATviL5Wi8jf5wwuz0rYvGk4R1I1ER3KMg99N2tUQ_ToGvZfn4Dj3sK1r4KM_cpHkAGmq0m7VGr_d6YDNQWTFWriB2vyaOk4fXXGeDTvY2oFWABToWr6fbQqC4NhYrDg1lgrcYZK6RQvKAjO9F_9w3rOL9qB8tRw0A5J-o_y5jW_rcKxuSw4IYWvF-QKEIt_FUTVoU_pt4NDgCmwWViotRau_FVEO1SKkHeB94MQWKJIKhp7b2mxX6pk4UZHLQaKzlorEcccZbk50MScwSBLEwbbovKgl7olZi1pW9v-DzRRttbRPp28tYHGgH_htOfVjDRlYA54k-qOK3cw7ZYbUG9SqMAHHtj7v1K3kGq3jQPjAIiJKz-nSi4PnbEaN9X798GIJZUKvPSaSvi9GxpamXAQR8SWbVQwBoGbLaC7VS5HOMY_g1hLqcbqioWyRrrH8eaWSuc_tK0an6qrdKXeMVMh5-D8f7_N3S0a_37V3mf3oHt5g8AAilGiigKSfWR_vw8cTxDYUdXy2vCxHBp-5nZB3Ug_4cnwUtByTo6H_dpmAiq8tIazC0nbGZ-v2jeF8zmVTQf2yy1-WmeLeOK46K7ENuWcFFgBoriKLuYmPLWhMWMkuBkgRLDgCMlYdFy01H1HzcA5V_2ClEv3ZJ06rYH5v_veE4JSlZl5T65_aHnjhcCDUrjiA9-qFPxanUPtfuLidD_LbMGsDwhAglP-Eo2aVXjCqWZEAV3s6_ZeVXODXQvBF9P1J7ms7xuJ6Qnr5RXAlPbs4qdGodyK7_HlZjsZpidvg_qG-72TrOXkh8lEK9mXoDu5ByoMyaDdstFa7GD80FVp7spm_X8DWxQQeu_nKPT3eV_nLPOzi4O1gp_vNC-fWDm5PZ_Qa-MBUH-77tSM-r9gfdc_v7oiICXRhhQqa_rcylNqS_bys150gf7qdk5DBlfjVONLMuRYFUDjOlQh5OEvVReDjT2RSkRXWbsNLLOz8HYUiMcKphZkHPRx9SRdkDgrtJKpOE7S_l-9UnzoxmBmBFOsylBhttr5MyFUjvGQ-t61P6vzYTEvtShRNCbdy3]--></g></svg>