<svg xmlns="http://www.w3.org/2000/svg" xmlns:xlink="http://www.w3.org/1999/xlink" contentStyleType="text/css" data-diagram-type="CLASS" height="408px" preserveAspectRatio="none" style="width:344px;height:408px;background:#FFFFFF;" version="1.1" viewBox="0 0 344 408" width="344px" zoomAndPan="magnify"><defs/><g><!--class com.hack23.cia.model.internal.application.data.audit.impl.ViewAuditDataSummary--><g class="entity" data-entity="com.hack23.cia.model.internal.application.data.audit.impl.ViewAuditDataSummary" data-source-line="13" data-uid="ent0002" id="entity_com.hack23.cia.model.internal.application.data.audit.impl.ViewAuditDataSummary"><a href="ViewAuditDataSummary.html" target="_top" title="ViewAuditDataSummary.html" xlink:actuate="onRequest" xlink:href="ViewAuditDataSummary.html" xlink:show="new" xlink:title="ViewAuditDataSummary.html" xlink:type="simple"><rect fill="#F1F1F1" height="287.5029" rx="2.5" ry="2.5" style="stroke:#181818;stroke-width:0.5;" width="331.9828" x="6" y="91"/><ellipse cx="33.6149" cy="112.344" fill="#ADD1B2" rx="11" ry="11" style="stroke:#181818;stroke-width:1;"/><path d="M36.5836,117.9846 Q36.0055,118.2815 35.3649,118.4221 Q34.7242,118.5783 34.0211,118.5783 Q31.5211,118.5783 30.193,116.9377 Q28.8805,115.2815 28.8805,112.1565 Q28.8805,109.0315 30.193,107.3752 Q31.5211,105.719 34.0211,105.719 Q34.7242,105.719 35.3649,105.8752 Q36.0211,106.0315 36.5836,106.3283 L36.5836,109.0471 Q35.9586,108.469 35.3649,108.2033 Q34.7711,107.9221 34.1461,107.9221 Q32.8024,107.9221 32.1149,109.0002 Q31.4274,110.0627 31.4274,112.1565 Q31.4274,114.2502 32.1149,115.3283 Q32.8024,116.3908 34.1461,116.3908 Q34.7711,116.3908 35.3649,116.1252 Q35.9586,115.844 36.5836,115.2658 L36.5836,117.9846 Z " fill="#000000"/><text fill="#000000" font-family="sans-serif" font-size="14" lengthAdjust="spacing" textLength="160.0614" x="106.3624" y="110.9659">ViewAuditDataSummary</text><text fill="#000000" font-family="sans-serif" font-size="10" lengthAdjust="spacing" textLength="271.9498" x="50.4182" y="125.7579">com.hack23.cia.model.internal.application.data.audit.impl</text><line style="stroke:#181818;stroke-width:0.5;" x1="7" x2="336.9828" y1="133.6879" y2="133.6879"/><polygon fill="none" points="17,143.7219,21,147.7219,17,151.7219,13,147.7219" style="stroke:#B38D22;stroke-width:1;"/><text fill="#000000" font-family="sans-serif" font-size="14" lengthAdjust="spacing" textLength="48.9578" x="26" y="152.6538">id: long</text><polygon fill="none" points="17,162.7898,21,166.7898,17,170.7898,13,166.7898" style="stroke:#B38D22;stroke-width:1;"/><text fill="#000000" font-family="sans-serif" font-size="14" lengthAdjust="spacing" textLength="107.5896" x="26" y="171.7218">dataType: String</text><polygon fill="none" points="17,181.8577,21,185.8577,17,189.8577,13,185.8577" style="stroke:#B38D22;stroke-width:1;"/><text fill="#000000" font-family="sans-serif" font-size="14" lengthAdjust="spacing" textLength="91.8817" x="26" y="190.7897">dataSize: long</text><line style="stroke:#181818;stroke-width:0.5;" x1="7" x2="336.9828" y1="198.8917" y2="198.8917"/><ellipse cx="17" cy="213.9256" fill="#84BE84" rx="3" ry="3" style="stroke:#038048;stroke-width:1;"/><text fill="#000000" font-family="sans-serif" font-size="14" lengthAdjust="spacing" textLength="80.0517" x="26" y="217.8576">getId(): long</text><ellipse cx="17" cy="232.9935" fill="#84BE84" rx="3" ry="3" style="stroke:#038048;stroke-width:1;"/><text fill="#000000" font-family="sans-serif" font-size="14" lengthAdjust="spacing" textLength="105.9516" x="26" y="236.9255">setId(long): void</text><ellipse cx="17" cy="252.0614" fill="#84BE84" rx="3" ry="3" style="stroke:#038048;stroke-width:1;"/><text fill="#000000" font-family="sans-serif" font-size="14" lengthAdjust="spacing" textLength="139.1595" x="26" y="255.9934">getDataType(): String</text><ellipse cx="17" cy="271.1294" fill="#84BE84" rx="3" ry="3" style="stroke:#038048;stroke-width:1;"/><text fill="#000000" font-family="sans-serif" font-size="14" lengthAdjust="spacing" textLength="165.0594" x="26" y="275.0613">setDataType(String): void</text><ellipse cx="17" cy="290.1973" fill="#84BE84" rx="3" ry="3" style="stroke:#038048;stroke-width:1;"/><text fill="#000000" font-family="sans-serif" font-size="14" lengthAdjust="spacing" textLength="123.4515" x="26" y="294.1293">getDataSize(): long</text><ellipse cx="17" cy="309.2652" fill="#84BE84" rx="3" ry="3" style="stroke:#038048;stroke-width:1;"/><text fill="#000000" font-family="sans-serif" font-size="14" lengthAdjust="spacing" textLength="149.3514" x="26" y="313.1972">setDataSize(long): void</text><ellipse cx="17" cy="328.3331" fill="#84BE84" rx="3" ry="3" style="stroke:#038048;stroke-width:1;"/><text fill="#000000" font-family="sans-serif" font-size="14" lengthAdjust="spacing" textLength="246.875" x="26" y="332.2651">withId(long): ViewAuditDataSummary</text><ellipse cx="17" cy="347.401" fill="#84BE84" rx="3" ry="3" style="stroke:#038048;stroke-width:1;"/><text fill="#000000" font-family="sans-serif" font-size="14" lengthAdjust="spacing" textLength="305.9828" x="26" y="351.333">withDataType(String): ViewAuditDataSummary</text><ellipse cx="17" cy="366.4689" fill="#84BE84" rx="3" ry="3" style="stroke:#038048;stroke-width:1;"/><text fill="#000000" font-family="sans-serif" font-size="14" lengthAdjust="spacing" textLength="290.2749" x="26" y="370.4009">withDataSize(long): ViewAuditDataSummary</text></a></g><!--class com.hack23.cia.model.common.api.ModelObject--><g class="entity" data-entity="com.hack23.cia.model.common.api.ModelObject" data-source-line="28" data-uid="ent0003" id="entity_com.hack23.cia.model.common.api.ModelObject"><rect fill="#F1F1F1" height="42.6879" rx="2.5" ry="2.5" style="stroke:#181818;stroke-width:0.5;" width="189.3398" x="77.5" y="12"/><ellipse cx="92.5" cy="33.344" fill="#B4A7E5" rx="11" ry="11" style="stroke:#181818;stroke-width:1;"/><path d="M88.4219,29.1096 L88.4219,26.9533 L95.8125,26.9533 L95.8125,29.1096 L93.3438,29.1096 L93.3438,37.1877 L95.8125,37.1877 L95.8125,39.344 L88.4219,39.344 L88.4219,37.1877 L90.8906,37.1877 L90.8906,29.1096 L88.4219,29.1096 Z " fill="#000000"/><text fill="#000000" font-family="sans-serif" font-size="14" font-style="italic" lengthAdjust="spacing" textLength="78.1477" x="146.096" y="31.9659">ModelObject</text><text fill="#000000" font-family="sans-serif" font-size="10" font-style="italic" lengthAdjust="spacing" textLength="157.3398" x="106.5" y="46.7579">com.hack23.cia.model.common.api</text></g><g class="link" data-entity-1="com.hack23.cia.model.common.api.ModelObject" data-entity-2="com.hack23.cia.model.internal.application.data.audit.impl.ViewAuditDataSummary" data-uid="lnk4" id="link_com.hack23.cia.model.common.api.ModelObject_com.hack23.cia.model.internal.application.data.audit.impl.ViewAuditDataSummary"><polygon fill="none" points="172,55.0986,166,73.0986,178,73.0986,172,55.0986" style="stroke:#181818;stroke-width:1;"/><path d="M172,73.0986 C172,82.7554 172,77.1744 172,90.9623" fill="none" style="stroke:#181818;stroke-width:1;stroke-dasharray:7,7;"/></g><g class="footer" data-source-line="38"><text fill="#888888" font-family="sans-serif" font-size="10" lengthAdjust="spacing" textLength="2.6" x="167.2" y="383.69">&#160;</text><a href="https://github.com/talsma-ict/umldoclet" target="_top" title="https://github.com/talsma-ict/umldoclet" xlink:actuate="onRequest" xlink:href="https://github.com/talsma-ict/umldoclet" xlink:show="new" xlink:title="https://github.com/talsma-ict/umldoclet" xlink:type="simple"><text fill="#888888" font-family="sans-serif" font-size="10" lengthAdjust="spacing" textLength="76.7199" x="130.14" y="397.31">UMLDoclet 2.2.4</text></a></g><!--SRC=[hLJVRzCm47xdhpYs1pPjSztGZQwQ9bKTWg5E8DhnqlNXwbmJKySEiREfmFvtxAJq5vsO47c9SkVlk-_ENmu0u1NqJ3ulP98wS0PSAYtStlG1TGm9QIhGKGmomuGiJ4WPdTZw806MBZK5c6dr9KnHaCsDZgLEu0FU8rXJ5e8iU_42gbB3t-mFQDVO9_CGl392aOE3tk6Qf8WtpquY7ft149ND4AvxGxPWMs4Y5h4MU6ub1MdhAKiTKr79wkOe_AjVPuxXdWehZVOOlk09hGgZ7Kfj8SV2sT3I9uNQ1QrDvkkViYQ7W-wWlocEdrVYZg5RQ2nZ-6o-bSj-N-O59bwomhaf7TYC76giSzQhrfZvUQ6W0VcgwFmejT5KvLCP4r2MkpbC9QdORaSzMMfyk8eBXTR2teMLtwdJR5r-aVJGBMFfhj3XeCmoBEPtUf7cby9aB4KnYrup8P5b9YR5f7Racr0CyzoF4PqV4eizdc5WOZBBrHxuU_jdDDib2qQZNM6MkaoDn_2ZwYyy-pBkGB3VAXBuX_ESEZ1mXTpE34AtcuYZXDnrV72u7RPLECHywjx8U0DnjIWJS5k50dAPhdDFCGGvEoilaplhFqYNhhJj6jNcsJ_LF0-phk19n6Djj-gofzwuQvQx2JRuEFbAmltDQJwOUNTWBf_sq-eCMsDUkFtv0BZuoTX_TcmjuiAwkQBBvI2dndY-DR-6vxs_YA8lzQndbF-xzzkxixTXMIcfoUz7CTFa_sM-FFbObskirLlKkjEZKUfSRZkDHkAliPo4AJHSjIXFf72DCbDnlI6tTkLulDXzxvPBEEon4nwTyFCXF-tmgDDgCzvkjTlDrflM4MzsE1-zBGkJKsFWZ9YbHcNZNm00]--></g></svg>