<?xml version="1.0" encoding="UTF-8" standalone="no"?><svg xmlns="http://www.w3.org/2000/svg" xmlns:xlink="http://www.w3.org/1999/xlink" contentScriptType="application/ecmascript" contentStyleType="text/css" height="330px" preserveAspectRatio="none" style="width:688px;height:330px;background:#FFFFFF;" version="1.1" viewBox="0 0 688 330" width="688px" zoomAndPan="magnify"><defs><filter height="300%" id="f154v8pliydaln" width="300%" x="-1" y="-1"><feGaussianBlur result="blurOut" stdDeviation="2.0"/><feColorMatrix in="blurOut" result="blurOut2" type="matrix" values="0 0 0 0 0 0 0 0 0 0 0 0 0 0 0 0 0 0 .4 0"/><feOffset dx="4.0" dy="4.0" in="blurOut2" result="blurOut3"/><feBlend in="SourceGraphic" in2="blurOut3" mode="normal"/></filter></defs><g><!--MD5=[062d719d80a65ffc09c856249989b626]
class com.hack23.cia.web.impl.ui.application.views.user.parliament.pagemode.ParliamentRiskPageModContentFactoryImpl.ComplianceCheckImpl--><a href="ParliamentRiskPageModContentFactoryImpl.ComplianceCheckImpl.html" target="_top" title="ParliamentRiskPageModContentFactoryImpl.ComplianceCheckImpl.html" xlink:actuate="onRequest" xlink:href="ParliamentRiskPageModContentFactoryImpl.ComplianceCheckImpl.html" xlink:show="new" xlink:title="ParliamentRiskPageModContentFactoryImpl.ComplianceCheckImpl.html" xlink:type="simple"><rect codeLine="5" fill="#FEFECE" filter="url(#f154v8pliydaln)" height="135.5703" id="com.hack23.cia.web.impl.ui.application.views.user.parliament.pagemode.ParliamentRiskPageModContentFactoryImpl.ComplianceCheckImpl" style="stroke:#A80036;stroke-width:1.5;" width="489" x="63" y="164"/><ellipse cx="78" cy="182.9688" fill="#ADD1B2" rx="11" ry="11" style="stroke:#A80036;stroke-width:1.0;"/><path d="M80.9688,188.6094 Q80.3906,188.9063 79.75,189.0469 Q79.1094,189.2031 78.4063,189.2031 Q75.9063,189.2031 74.5781,187.5625 Q73.2656,185.9063 73.2656,182.7813 Q73.2656,179.6563 74.5781,178 Q75.9063,176.3438 78.4063,176.3438 Q79.1094,176.3438 79.75,176.5 Q80.4063,176.6563 80.9688,176.9531 L80.9688,179.6719 Q80.3438,179.0938 79.75,178.8281 Q79.1563,178.5469 78.5313,178.5469 Q77.1875,178.5469 76.5,179.625 Q75.8125,180.6875 75.8125,182.7813 Q75.8125,184.875 76.5,185.9531 Q77.1875,187.0156 78.5313,187.0156 Q79.1563,187.0156 79.75,186.75 Q80.3438,186.4688 80.9688,185.8906 L80.9688,188.6094 Z " fill="#000000"/><text fill="#000000" font-family="sans-serif" font-size="14" lengthAdjust="spacing" textLength="457" x="92" y="181.9951">ParliamentRiskPageModContentFactoryImpl.ComplianceCheckImpl</text><text fill="#000000" font-family="sans-serif" font-size="10" lengthAdjust="spacing" textLength="349" x="146" y="194.5791">com.hack23.cia.web.impl.ui.application.views.user.parliament.pagemode</text><line style="stroke:#A80036;stroke-width:1.5;" x1="64" x2="551" y1="201.9375" y2="201.9375"/><ellipse cx="74" cy="212.9375" fill="#84BE84" rx="3" ry="3" style="stroke:#038048;stroke-width:1.0;"/><text fill="#000000" font-family="sans-serif" font-size="11" lengthAdjust="spacing" textLength="242" x="83" y="216.1479">ComplianceCheckImpl(List&lt;RuleViolation&gt;)</text><ellipse cx="74" cy="225.7422" fill="#84BE84" rx="3" ry="3" style="stroke:#038048;stroke-width:1.0;"/><text fill="#000000" font-family="sans-serif" font-size="11" lengthAdjust="spacing" textLength="194" x="83" y="228.9526">getResourceType(): ResourceType</text><ellipse cx="74" cy="238.5469" fill="#84BE84" rx="3" ry="3" style="stroke:#038048;stroke-width:1.0;"/><text fill="#000000" font-family="sans-serif" font-size="11" lengthAdjust="spacing" textLength="223" x="83" y="241.7573">getRuleViolations(): List&lt;RuleViolation&gt;</text><ellipse cx="74" cy="251.3516" fill="#84BE84" rx="3" ry="3" style="stroke:#038048;stroke-width:1.0;"/><text fill="#000000" font-family="sans-serif" font-size="11" lengthAdjust="spacing" textLength="172" x="83" y="254.562">getNumberRuleViolations(): int</text><ellipse cx="74" cy="264.1563" fill="#84BE84" rx="3" ry="3" style="stroke:#038048;stroke-width:1.0;"/><text fill="#000000" font-family="sans-serif" font-size="11" lengthAdjust="spacing" textLength="147" x="83" y="267.3667">getRuleSummary(): String</text><ellipse cx="74" cy="276.9609" fill="#84BE84" rx="3" ry="3" style="stroke:#038048;stroke-width:1.0;"/><text fill="#000000" font-family="sans-serif" font-size="11" lengthAdjust="spacing" textLength="78" x="83" y="280.1714">getId(): String</text><ellipse cx="74" cy="289.7656" fill="#84BE84" rx="3" ry="3" style="stroke:#038048;stroke-width:1.0;"/><text fill="#000000" font-family="sans-serif" font-size="11" lengthAdjust="spacing" textLength="101" x="83" y="292.9761">getName(): String</text></a><!--MD5=[064d03dd072a68cc96510ce0d9e7d089]
class com.hack23.cia.service.api.action.kpi.ComplianceCheck--><rect codeLine="15" fill="#FEFECE" filter="url(#f154v8pliydaln)" height="97.1563" id="com.hack23.cia.service.api.action.kpi.ComplianceCheck" style="stroke:#A80036;stroke-width:1.5;" width="251" x="7" y="7"/><ellipse cx="35.95" cy="25.9688" fill="#B4A7E5" rx="11" ry="11" style="stroke:#A80036;stroke-width:1.0;"/><path d="M31.8719,21.7344 L31.8719,19.5781 L39.2625,19.5781 L39.2625,21.7344 L36.7938,21.7344 L36.7938,29.8125 L39.2625,29.8125 L39.2625,31.9688 L31.8719,31.9688 L31.8719,29.8125 L34.3406,29.8125 L34.3406,21.7344 L31.8719,21.7344 Z " fill="#000000"/><text fill="#000000" font-family="sans-serif" font-size="14" font-style="italic" lengthAdjust="spacing" textLength="125" x="84.55" y="24.9951">ComplianceCheck</text><text fill="#000000" font-family="sans-serif" font-size="10" font-style="italic" lengthAdjust="spacing" textLength="188" x="53.05" y="37.5791">com.hack23.cia.service.api.action.kpi</text><line style="stroke:#A80036;stroke-width:1.5;" x1="8" x2="257" y1="44.9375" y2="44.9375"/><ellipse cx="18" cy="55.9375" fill="#84BE84" rx="3" ry="3" style="stroke:#038048;stroke-width:1.0;"/><text fill="#000000" font-family="sans-serif" font-size="11" font-style="italic" lengthAdjust="spacing" textLength="196" x="27" y="59.1479">getResourceType(): ResourceType</text><ellipse cx="18" cy="68.7422" fill="#84BE84" rx="3" ry="3" style="stroke:#038048;stroke-width:1.0;"/><text fill="#000000" font-family="sans-serif" font-size="11" font-style="italic" lengthAdjust="spacing" textLength="225" x="27" y="71.9526">getRuleViolations(): List&lt;RuleViolation&gt;</text><ellipse cx="18" cy="81.5469" fill="#84BE84" rx="3" ry="3" style="stroke:#038048;stroke-width:1.0;"/><text fill="#000000" font-family="sans-serif" font-size="11" font-style="italic" lengthAdjust="spacing" textLength="77" x="27" y="84.7573">getId(): String</text><ellipse cx="18" cy="94.3516" fill="#84BE84" rx="3" ry="3" style="stroke:#038048;stroke-width:1.0;"/><text fill="#000000" font-family="sans-serif" font-size="11" font-style="italic" lengthAdjust="spacing" textLength="100" x="27" y="97.562">getName(): String</text><!--MD5=[e772349d84eb5dcf9ebbed25d104d93a]
class com.hack23.cia.web.impl.ui.application.views.user.parliament.pagemode.ParliamentRiskPageModContentFactoryImpl--><a href="ParliamentRiskPageModContentFactoryImpl.html" target="_top" title="ParliamentRiskPageModContentFactoryImpl.html" xlink:actuate="onRequest" xlink:href="ParliamentRiskPageModContentFactoryImpl.html" xlink:show="new" xlink:title="ParliamentRiskPageModContentFactoryImpl.html" xlink:type="simple"><rect codeLine="21" fill="#FEFECE" filter="url(#f154v8pliydaln)" height="37.9375" id="com.hack23.cia.web.impl.ui.application.views.user.parliament.pagemode.ParliamentRiskPageModContentFactoryImpl" style="stroke:#A80036;stroke-width:1.5;" width="381" x="293" y="36.5"/><ellipse cx="308" cy="55.4688" fill="#ADD1B2" rx="11" ry="11" style="stroke:#A80036;stroke-width:1.0;"/><path d="M310.9688,61.1094 Q310.3906,61.4063 309.75,61.5469 Q309.1094,61.7031 308.4063,61.7031 Q305.9063,61.7031 304.5781,60.0625 Q303.2656,58.4063 303.2656,55.2813 Q303.2656,52.1563 304.5781,50.5 Q305.9063,48.8438 308.4063,48.8438 Q309.1094,48.8438 309.75,49 Q310.4063,49.1563 310.9688,49.4531 L310.9688,52.1719 Q310.3438,51.5938 309.75,51.3281 Q309.1563,51.0469 308.5313,51.0469 Q307.1875,51.0469 306.5,52.125 Q305.8125,53.1875 305.8125,55.2813 Q305.8125,57.375 306.5,58.4531 Q307.1875,59.5156 308.5313,59.5156 Q309.1563,59.5156 309.75,59.25 Q310.3438,58.9688 310.9688,58.3906 L310.9688,61.1094 Z " fill="#000000"/><text fill="#000000" font-family="sans-serif" font-size="14" lengthAdjust="spacing" textLength="300" x="346.5" y="54.4951">ParliamentRiskPageModContentFactoryImpl</text><text fill="#000000" font-family="sans-serif" font-size="10" lengthAdjust="spacing" textLength="349" x="322" y="67.0791">com.hack23.cia.web.impl.ui.application.views.user.parliament.pagemode</text></a><!--MD5=[08d42c57204d6eb1b3890dbaa0dfc6ec]
reverse link com.hack23.cia.service.api.action.kpi.ComplianceCheck to com.hack23.cia.web.impl.ui.application.views.user.parliament.pagemode.ParliamentRiskPageModContentFactoryImpl.ComplianceCheckImpl--><path codeLine="23" d="M194.62,118.44 C209.34,133.12 225.11,148.85 240.06,163.75 " fill="none" id="com.hack23.cia.service.api.action.kpi.ComplianceCheck-backto-com.hack23.cia.web.impl.ui.application.views.user.parliament.pagemode.ParliamentRiskPageModContentFactoryImpl.ComplianceCheckImpl" style="stroke:#A80036;stroke-width:1.0;stroke-dasharray:7.0,7.0;"/><polygon fill="none" points="189.54,123.26,180.32,104.18,199.42,113.35,189.54,123.26" style="stroke:#A80036;stroke-width:1.0;"/><!--MD5=[3ad117da858da6ad6e3ffd531f3d468c]
reverse link com.hack23.cia.web.impl.ui.application.views.user.parliament.pagemode.ParliamentRiskPageModContentFactoryImpl to com.hack23.cia.web.impl.ui.application.views.user.parliament.pagemode.ParliamentRiskPageModContentFactoryImpl.ComplianceCheckImpl--><path codeLine="24" d="M454.63,85.13 C433.07,106.5 402.7,136.61 375.15,163.93 " fill="none" id="com.hack23.cia.web.impl.ui.application.views.user.parliament.pagemode.ParliamentRiskPageModContentFactoryImpl-backto-com.hack23.cia.web.impl.ui.application.views.user.parliament.pagemode.ParliamentRiskPageModContentFactoryImpl.ComplianceCheckImpl" style="stroke:#A80036;stroke-width:1.0;"/><ellipse cx="459.6465" cy="80.1501" fill="#FFFFFF" rx="8" ry="8" style="stroke:#A80036;stroke-width:1.0;"/><line style="stroke:#A80036;stroke-width:1.0;" x1="453.9631" x2="465.33" y1="85.7803" y2="74.52"/><line style="stroke:#A80036;stroke-width:1.0;" x1="454.0164" x2="465.2767" y1="74.4667" y2="85.8336"/><text fill="#888888" font-family="sans-serif" font-size="10" lengthAdjust="spacing" textLength="186" x="244.5" y="321.8525">UMLDoclet 2.0.14, PlantUML 1.2021.9</text><!--MD5=[333c6a7a7e3f3417b1dffb07c3aee4a0]
@startuml
    set namespaceSeparator none
    hide empty fields
    hide empty methods

    class "<size:14>ParliamentRiskPageModContentFactoryImpl.ComplianceCheckImpl\n<size:10>com.hack23.cia.web.impl.ui.application.views.user.parliament.pagemode" as com.hack23.cia.web.impl.ui.application.views.user.parliament.pagemode.ParliamentRiskPageModContentFactoryImpl.ComplianceCheckImpl [[ParliamentRiskPageModContentFactoryImpl.ComplianceCheckImpl.html]] {
        +ComplianceCheckImpl(List<RuleViolation>)
        +getResourceType(): ResourceType
        +getRuleViolations(): List<RuleViolation>
        +getNumberRuleViolations(): int
        +getRuleSummary(): String
        +getId(): String
        +getName(): String
    }

    interface "<size:14>ComplianceCheck\n<size:10>com.hack23.cia.service.api.action.kpi" as com.hack23.cia.service.api.action.kpi.ComplianceCheck {
        {abstract} +getResourceType(): ResourceType
        {abstract} +getRuleViolations(): List<RuleViolation>
        {abstract} +getId(): String
        {abstract} +getName(): String
    }
    class "<size:14>ParliamentRiskPageModContentFactoryImpl\n<size:10>com.hack23.cia.web.impl.ui.application.views.user.parliament.pagemode" as com.hack23.cia.web.impl.ui.application.views.user.parliament.pagemode.ParliamentRiskPageModContentFactoryImpl [[ParliamentRiskPageModContentFactoryImpl.html]]

    com.hack23.cia.service.api.action.kpi.ComplianceCheck <|.. com.hack23.cia.web.impl.ui.application.views.user.parliament.pagemode.ParliamentRiskPageModContentFactoryImpl.ComplianceCheckImpl
    com.hack23.cia.web.impl.ui.application.views.user.parliament.pagemode.ParliamentRiskPageModContentFactoryImpl +- - com.hack23.cia.web.impl.ui.application.views.user.parliament.pagemode.ParliamentRiskPageModContentFactoryImpl.ComplianceCheckImpl

    center footer UMLDoclet 2.0.14, PlantUML 1.2021.9
@enduml

PlantUML version 1.2021.9(Sun Jul 25 12:13:56 CEST 2021)
(APACHE source distribution)
Java Runtime: OpenJDK Runtime Environment
JVM: OpenJDK 64-Bit Server VM
Default Encoding: UTF-8
Language: en
Country: US
--></g></svg>