<?xml version="1.0" encoding="UTF-8" standalone="no"?>
<!DOCTYPE svg PUBLIC "-//W3C//DTD SVG 1.1//EN"
 "http://www.w3.org/Graphics/SVG/1.1/DTD/svg11.dtd">
<!-- Generated by graphviz version 2.40.1 (20161225.0304)
 -->
<!-- Title: TableGraph Pages: 1 -->
<svg width="750pt" height="814pt"
 viewBox="0.00 0.00 750.00 813.50" xmlns="http://www.w3.org/2000/svg" xmlns:xlink="http://www.w3.org/1999/xlink">
<g id="graph0" class="graph" transform="scale(1 1) rotate(0) translate(4 809.5)">
<title>TableGraph</title>
<g id="a_graph0"><a xlink:href="http://tools.hibernate.org" xlink:title="Table Graph">
<polygon fill="#ffffff" stroke="transparent" points="-4,4 -4,-809.5 746,-809.5 746,4 -4,4"/>
<text text-anchor="middle" x="371" y="-7" font-family="Helvetica,sans-Serif" font-size="10.00" fill="#000000">Table Graph</text>
</a>
</g>
<!-- ASSIGNMENT_DATA -->
<g id="node1" class="node">
<title>ASSIGNMENT_DATA</title>
<polygon fill="#ffff00" stroke="#000000" points="0,-293.5 0,-521.5 204,-521.5 204,-293.5 0,-293.5"/>
<text text-anchor="middle" x="102" y="-509.5" font-family="Helvetica,sans-Serif" font-size="10.00" fill="#000000">ASSIGNMENT_DATA</text>
<polyline fill="none" stroke="#000000" points="0,-502.5 204,-502.5 "/>
<text text-anchor="start" x="8" y="-490.5" font-family="Helvetica,sans-Serif" font-size="10.00" fill="#000000">HJID</text>
<polyline fill="none" stroke="#000000" points="0,-483.5 204,-483.5 "/>
<text text-anchor="start" x="8" y="-471.5" font-family="Helvetica,sans-Serif" font-size="10.00" fill="#000000">ASSIGNMENT_TYPE</text>
<polyline fill="none" stroke="#000000" points="0,-464.5 204,-464.5 "/>
<text text-anchor="start" x="8" y="-452.5" font-family="Helvetica,sans-Serif" font-size="10.00" fill="#000000">DETAIL</text>
<polyline fill="none" stroke="#000000" points="0,-445.5 204,-445.5 "/>
<text text-anchor="start" x="8" y="-433.5" font-family="Helvetica,sans-Serif" font-size="10.00" fill="#000000">FROM_DATE</text>
<polyline fill="none" stroke="#000000" points="0,-426.5 204,-426.5 "/>
<text text-anchor="start" x="8" y="-414.5" font-family="Helvetica,sans-Serif" font-size="10.00" fill="#000000">INTRESSENT_ID</text>
<polyline fill="none" stroke="#000000" points="0,-407.5 204,-407.5 "/>
<text text-anchor="start" x="8" y="-395.5" font-family="Helvetica,sans-Serif" font-size="10.00" fill="#000000">ORDER_NUMBER</text>
<polyline fill="none" stroke="#000000" points="0,-388.5 204,-388.5 "/>
<text text-anchor="start" x="8" y="-376.5" font-family="Helvetica,sans-Serif" font-size="10.00" fill="#000000">ORG_CODE</text>
<polyline fill="none" stroke="#000000" points="0,-369.5 204,-369.5 "/>
<text text-anchor="start" x="8" y="-357.5" font-family="Helvetica,sans-Serif" font-size="10.00" fill="#000000">ROLE_CODE</text>
<polyline fill="none" stroke="#000000" points="0,-350.5 204,-350.5 "/>
<text text-anchor="start" x="8" y="-338.5" font-family="Helvetica,sans-Serif" font-size="10.00" fill="#000000">STATUS</text>
<polyline fill="none" stroke="#000000" points="0,-331.5 204,-331.5 "/>
<text text-anchor="start" x="8" y="-319.5" font-family="Helvetica,sans-Serif" font-size="10.00" fill="#000000">TO_DATE</text>
<polyline fill="none" stroke="#000000" points="0,-312.5 204,-312.5 "/>
<text text-anchor="start" x="8" y="-300.5" font-family="Helvetica,sans-Serif" font-size="10.00" fill="#000000">ASSIGNMENT_LIST_PERSON_ASSIG_0</text>
</g>
<!-- PERSON_ASSIGNMENT_DATA -->
<g id="node2" class="node">
<title>PERSON_ASSIGNMENT_DATA</title>
<polygon fill="#ffff00" stroke="#000000" points="310,-19.5 310,-57.5 474,-57.5 474,-19.5 310,-19.5"/>
<text text-anchor="middle" x="392" y="-45.5" font-family="Helvetica,sans-Serif" font-size="10.00" fill="#000000">PERSON_ASSIGNMENT_DATA</text>
<polyline fill="none" stroke="#000000" points="310,-38.5 474,-38.5 "/>
<text text-anchor="start" x="318" y="-26.5" font-family="Helvetica,sans-Serif" font-size="10.00" fill="#000000">HJID</text>
</g>
<!-- ASSIGNMENT_DATA&#45;&gt;PERSON_ASSIGNMENT_DATA -->
<g id="edge1" class="edge">
<title>ASSIGNMENT_DATA:se&#45;&gt;PERSON_ASSIGNMENT_DATA:nw</title>
<path fill="none" stroke="#d3d3d3" d="M204,-293.5C219.3478,-278.1522 205.9494,-266.028 213,-245.5 242.4084,-159.8769 243.4763,-126.4801 302.8683,-64.7661"/>
<polygon fill="#d3d3d3" stroke="#d3d3d3" points="305.4931,-67.0885 310,-57.5 300.4973,-62.1851 305.4931,-67.0885"/>
<text text-anchor="middle" x="280" y="-221.1" font-family="Helvetica,sans-Serif" font-size="8.00" fill="#000000">FKaa59o8elny2vn9ssiq2pakmmy</text>
</g>
<!-- DETAIL_DATA -->
<g id="node3" class="node">
<title>DETAIL_DATA</title>
<polygon fill="#ffff00" stroke="#000000" points="455.5,-341 455.5,-474 652.5,-474 652.5,-341 455.5,-341"/>
<text text-anchor="middle" x="554" y="-462" font-family="Helvetica,sans-Serif" font-size="10.00" fill="#000000">DETAIL_DATA</text>
<polyline fill="none" stroke="#000000" points="455.5,-455 652.5,-455 "/>
<text text-anchor="start" x="463.5" y="-443" font-family="Helvetica,sans-Serif" font-size="10.00" fill="#000000">HJID</text>
<polyline fill="none" stroke="#000000" points="455.5,-436 652.5,-436 "/>
<text text-anchor="start" x="463.5" y="-424" font-family="Helvetica,sans-Serif" font-size="10.00" fill="#000000">CODE</text>
<polyline fill="none" stroke="#000000" points="455.5,-417 652.5,-417 "/>
<text text-anchor="start" x="463.5" y="-405" font-family="Helvetica,sans-Serif" font-size="10.00" fill="#000000">DETAIL</text>
<polyline fill="none" stroke="#000000" points="455.5,-398 652.5,-398 "/>
<text text-anchor="start" x="463.5" y="-386" font-family="Helvetica,sans-Serif" font-size="10.00" fill="#000000">DETAIL_TYPE</text>
<polyline fill="none" stroke="#000000" points="455.5,-379 652.5,-379 "/>
<text text-anchor="start" x="463.5" y="-367" font-family="Helvetica,sans-Serif" font-size="10.00" fill="#000000">INTRESSENT_ID</text>
<polyline fill="none" stroke="#000000" points="455.5,-360 652.5,-360 "/>
<text text-anchor="start" x="463.5" y="-348" font-family="Helvetica,sans-Serif" font-size="10.00" fill="#000000">DETAIL_LIST_PERSON_DETAIL_DA_0</text>
</g>
<!-- PERSON_DETAIL_DATA -->
<g id="node4" class="node">
<title>PERSON_DETAIL_DATA</title>
<polygon fill="#ffff00" stroke="#000000" points="562,-19.5 562,-57.5 694,-57.5 694,-19.5 562,-19.5"/>
<text text-anchor="middle" x="628" y="-45.5" font-family="Helvetica,sans-Serif" font-size="10.00" fill="#000000">PERSON_DETAIL_DATA</text>
<polyline fill="none" stroke="#000000" points="562,-38.5 694,-38.5 "/>
<text text-anchor="start" x="570" y="-26.5" font-family="Helvetica,sans-Serif" font-size="10.00" fill="#000000">HJID</text>
</g>
<!-- DETAIL_DATA&#45;&gt;PERSON_DETAIL_DATA -->
<g id="edge2" class="edge">
<title>DETAIL_DATA:se&#45;&gt;PERSON_DETAIL_DATA:nw</title>
<path fill="none" stroke="#d3d3d3" d="M653,-340.5C743.8687,-249.6313 483.4939,-156.1796 555.154,-65.1696"/>
<polygon fill="#d3d3d3" stroke="#d3d3d3" points="557.9519,-67.291 562,-57.5 552.7297,-62.6296 557.9519,-67.291"/>
<text text-anchor="middle" x="688" y="-221.1" font-family="Helvetica,sans-Serif" font-size="8.00" fill="#000000">FKjpf91ucj529qyt15gs7r0yx2p</text>
</g>
<!-- PERSON_CONTAINER_DATA -->
<g id="node5" class="node">
<title>PERSON_CONTAINER_DATA</title>
<polygon fill="#ffff00" stroke="#000000" points="6.5,-748 6.5,-805 221.5,-805 221.5,-748 6.5,-748"/>
<text text-anchor="middle" x="114" y="-793" font-family="Helvetica,sans-Serif" font-size="10.00" fill="#000000">PERSON_CONTAINER_DATA</text>
<polyline fill="none" stroke="#000000" points="6.5,-786 221.5,-786 "/>
<text text-anchor="start" x="14.5" y="-774" font-family="Helvetica,sans-Serif" font-size="10.00" fill="#000000">HJID</text>
<polyline fill="none" stroke="#000000" points="6.5,-767 221.5,-767 "/>
<text text-anchor="start" x="14.5" y="-755" font-family="Helvetica,sans-Serif" font-size="10.00" fill="#000000">PERSON_PERSON_CONTAINER_DATA_0</text>
</g>
<!-- PERSON_DATA -->
<g id="node6" class="node">
<title>PERSON_DATA</title>
<polygon fill="#ffff00" stroke="#000000" points="222.5,-246 222.5,-569 437.5,-569 437.5,-246 222.5,-246"/>
<text text-anchor="middle" x="330" y="-557" font-family="Helvetica,sans-Serif" font-size="10.00" fill="#000000">PERSON_DATA</text>
<polyline fill="none" stroke="#000000" points="222.5,-550 437.5,-550 "/>
<text text-anchor="start" x="230.5" y="-538" font-family="Helvetica,sans-Serif" font-size="10.00" fill="#000000">ID</text>
<polyline fill="none" stroke="#000000" points="222.5,-531 437.5,-531 "/>
<text text-anchor="start" x="230.5" y="-519" font-family="Helvetica,sans-Serif" font-size="10.00" fill="#000000">BORN_YEAR</text>
<polyline fill="none" stroke="#000000" points="222.5,-512 437.5,-512 "/>
<text text-anchor="start" x="230.5" y="-500" font-family="Helvetica,sans-Serif" font-size="10.00" fill="#000000">ELECTION_REGION</text>
<polyline fill="none" stroke="#000000" points="222.5,-493 437.5,-493 "/>
<text text-anchor="start" x="230.5" y="-481" font-family="Helvetica,sans-Serif" font-size="10.00" fill="#000000">FIRST_NAME</text>
<polyline fill="none" stroke="#000000" points="222.5,-474 437.5,-474 "/>
<text text-anchor="start" x="230.5" y="-462" font-family="Helvetica,sans-Serif" font-size="10.00" fill="#000000">GENDER</text>
<polyline fill="none" stroke="#000000" points="222.5,-455 437.5,-455 "/>
<text text-anchor="start" x="230.5" y="-443" font-family="Helvetica,sans-Serif" font-size="10.00" fill="#000000">HANGAR_GUID</text>
<polyline fill="none" stroke="#000000" points="222.5,-436 437.5,-436 "/>
<text text-anchor="start" x="230.5" y="-424" font-family="Helvetica,sans-Serif" font-size="10.00" fill="#000000">IMAGE_URL_192</text>
<polyline fill="none" stroke="#000000" points="222.5,-417 437.5,-417 "/>
<text text-anchor="start" x="230.5" y="-405" font-family="Helvetica,sans-Serif" font-size="10.00" fill="#000000">IMAGE_URL_80</text>
<polyline fill="none" stroke="#000000" points="222.5,-398 437.5,-398 "/>
<text text-anchor="start" x="230.5" y="-386" font-family="Helvetica,sans-Serif" font-size="10.00" fill="#000000">IMAGE_URL_MAX</text>
<polyline fill="none" stroke="#000000" points="222.5,-379 437.5,-379 "/>
<text text-anchor="start" x="230.5" y="-367" font-family="Helvetica,sans-Serif" font-size="10.00" fill="#000000">LAST_NAME</text>
<polyline fill="none" stroke="#000000" points="222.5,-360 437.5,-360 "/>
<text text-anchor="start" x="230.5" y="-348" font-family="Helvetica,sans-Serif" font-size="10.00" fill="#000000">PARTY</text>
<polyline fill="none" stroke="#000000" points="222.5,-341 437.5,-341 "/>
<text text-anchor="start" x="230.5" y="-329" font-family="Helvetica,sans-Serif" font-size="10.00" fill="#000000">PERSON_URL_XML</text>
<polyline fill="none" stroke="#000000" points="222.5,-322 437.5,-322 "/>
<text text-anchor="start" x="230.5" y="-310" font-family="Helvetica,sans-Serif" font-size="10.00" fill="#000000">PLACE</text>
<polyline fill="none" stroke="#000000" points="222.5,-303 437.5,-303 "/>
<text text-anchor="start" x="230.5" y="-291" font-family="Helvetica,sans-Serif" font-size="10.00" fill="#000000">STATUS</text>
<polyline fill="none" stroke="#000000" points="222.5,-284 437.5,-284 "/>
<text text-anchor="start" x="230.5" y="-272" font-family="Helvetica,sans-Serif" font-size="10.00" fill="#000000">PERSON_ASSIGNMENT_DATA_PERSO_0</text>
<polyline fill="none" stroke="#000000" points="222.5,-265 437.5,-265 "/>
<text text-anchor="start" x="230.5" y="-253" font-family="Helvetica,sans-Serif" font-size="10.00" fill="#000000">PERSON_DETAIL_DATA_PERSON_DA_0</text>
</g>
<!-- PERSON_CONTAINER_DATA&#45;&gt;PERSON_DATA -->
<g id="edge3" class="edge">
<title>PERSON_CONTAINER_DATA:se&#45;&gt;PERSON_DATA:nw</title>
<path fill="none" stroke="#d3d3d3" d="M222,-747.5C275.4271,-694.0729 175.7731,-631.3599 215.4468,-577.0986"/>
<polygon fill="#d3d3d3" stroke="#d3d3d3" points="218.1195,-579.3586 222,-569.5 212.8185,-574.7869 218.1195,-579.3586"/>
<text text-anchor="middle" x="264.5" y="-590.1" font-family="Helvetica,sans-Serif" font-size="8.00" fill="#000000">FK74yxgghu58va5py1jfh1hsi9c</text>
</g>
<!-- PERSON_DATA&#45;&gt;PERSON_ASSIGNMENT_DATA -->
<g id="edge4" class="edge">
<title>PERSON_DATA:se&#45;&gt;PERSON_ASSIGNMENT_DATA:nw</title>
<path fill="none" stroke="#d3d3d3" d="M438,-245.5C458.8936,-224.6064 395.7714,-247.4773 374,-227.5 317.1875,-175.369 258.4438,-119.8195 303.0143,-65.2004"/>
<polygon fill="#d3d3d3" stroke="#d3d3d3" points="305.8732,-67.2581 310,-57.5 300.6887,-62.5548 305.8732,-67.2581"/>
<text text-anchor="middle" x="434.5" y="-221.1" font-family="Helvetica,sans-Serif" font-size="8.00" fill="#000000">FK74f0qofwn444t8smjgwemunoa</text>
</g>
<!-- PERSON_DATA&#45;&gt;PERSON_DETAIL_DATA -->
<g id="edge5" class="edge">
<title>PERSON_DATA:se&#45;&gt;PERSON_DETAIL_DATA:nw</title>
<path fill="none" stroke="#d3d3d3" d="M438,-245.5C456.7853,-226.7147 475.5729,-245.6209 495,-227.5 551.8354,-174.486 508.6537,-119.8361 555.1743,-64.901"/>
<polygon fill="#d3d3d3" stroke="#d3d3d3" points="557.7933,-67.2239 562,-57.5 552.6475,-62.4782 557.7933,-67.2239"/>
<text text-anchor="middle" x="553" y="-221.1" font-family="Helvetica,sans-Serif" font-size="8.00" fill="#000000">FKshlddrbyxj7xi9ux61l6d6t17</text>
</g>
</g>
</svg>
