<svg xmlns="http://www.w3.org/2000/svg" xmlns:xlink="http://www.w3.org/1999/xlink" contentStyleType="text/css" data-diagram-type="CLASS" height="259px" preserveAspectRatio="none" style="width:510px;height:259px;background:#FFFFFF;" version="1.1" viewBox="0 0 510 259" width="510px" zoomAndPan="magnify"><defs/><g><!--cluster com.hack23.cia.web.impl.ui.application.views.admin.dataquality--><g class="cluster" data-entity="com.hack23.cia.web.impl.ui.application.views.admin.dataquality" data-source-line="10" data-uid="ent0002" id="cluster_com.hack23.cia.web.impl.ui.application.views.admin.dataquality"><path d="M16.5,98 L469.7403,98 A3.75,3.75 0 0 1 472.2403,100.5 L479.2403,123.0679 L479.5,123.0679 A2.5,2.5 0 0 1 482,125.5679 L482,219.5 A2.5,2.5 0 0 1 479.5,222 L16.5,222 A2.5,2.5 0 0 1 14,219.5 L14,100.5 A2.5,2.5 0 0 1 16.5,98" fill="none" style="stroke:#000000;stroke-width:1.5;"/><line style="stroke:#000000;stroke-width:1.5;" x1="14" x2="479.2403" y1="123.0679" y2="123.0679"/><text fill="#000000" font-family="sans-serif" font-size="14" font-weight="bold" lengthAdjust="spacing" textLength="452.2403" x="18" y="114.9659">com.hack23.cia.web.impl.ui.application.views.admin.dataquality</text></g><!--cluster com.hack23.cia.web.impl.ui.application.views.common.abstracts--><g class="cluster" data-entity="com.hack23.cia.web.impl.ui.application.views.common.abstracts" data-source-line="19" data-uid="ent0004" id="cluster_com.hack23.cia.web.impl.ui.application.views.common.abstracts"><path d="M36.5,4 L490.8742,4 A3.75,3.75 0 0 1 493.3742,6.5 L500.3742,29.0679 L500.5,29.0679 A2.5,2.5 0 0 1 503,31.5679 L503,87.5 A2.5,2.5 0 0 1 500.5,90 L36.5,90 A2.5,2.5 0 0 1 34,87.5 L34,6.5 A2.5,2.5 0 0 1 36.5,4" fill="none" style="stroke:#000000;stroke-width:1.5;"/><line style="stroke:#000000;stroke-width:1.5;" x1="34" x2="500.3742" y1="29.0679" y2="29.0679"/><text fill="#000000" font-family="sans-serif" font-size="14" font-weight="bold" lengthAdjust="spacing" textLength="453.3742" x="38" y="20.9659">com.hack23.cia.web.impl.ui.application.views.common.abstracts</text></g><!--class AdminDataQualityView--><g class="entity" data-entity="AdminDataQualityView" data-source-line="12" data-uid="ent0003" id="entity_AdminDataQualityView"><a href="AdminDataQualityView.html" target="_top" title="AdminDataQualityView.html" xlink:actuate="onRequest" xlink:href="AdminDataQualityView.html" xlink:show="new" xlink:title="AdminDataQualityView.html" xlink:type="simple"><rect fill="#F1F1F1" height="86.1358" rx="2.5" ry="2.5" style="stroke:#181818;stroke-width:0.5;" width="311.1929" x="92.5" y="128"/><ellipse cx="168.0157" cy="144" fill="#ADD1B2" rx="11" ry="11" style="stroke:#181818;stroke-width:1;"/><path d="M170.9845,149.6406 Q170.4064,149.9375 169.7657,150.0781 Q169.1251,150.2344 168.422,150.2344 Q165.922,150.2344 164.5939,148.5938 Q163.2814,146.9375 163.2814,143.8125 Q163.2814,140.6875 164.5939,139.0313 Q165.922,137.375 168.422,137.375 Q169.1251,137.375 169.7657,137.5313 Q170.422,137.6875 170.9845,137.9844 L170.9845,140.7031 Q170.3595,140.125 169.7657,139.8594 Q169.172,139.5781 168.547,139.5781 Q167.2032,139.5781 166.5157,140.6563 Q165.8282,141.7188 165.8282,143.8125 Q165.8282,145.9063 166.5157,146.9844 Q167.2032,148.0469 168.547,148.0469 Q169.172,148.0469 169.7657,147.7813 Q170.3595,147.5 170.9845,146.9219 L170.9845,149.6406 Z " fill="#000000"/><text fill="#000000" font-family="sans-serif" font-size="14" lengthAdjust="spacing" textLength="151.6614" x="188.5157" y="149.432">AdminDataQualityView</text><line style="stroke:#181818;stroke-width:0.5;" x1="93.5" x2="402.6929" y1="160" y2="160"/><ellipse cx="103.5" cy="175.034" fill="none" rx="3" ry="3" style="stroke:#038048;stroke-width:1;"/><text fill="#000000" font-family="sans-serif" font-size="14" lengthAdjust="spacing" text-decoration="underline" textLength="86.8557" x="112.5" y="178.9659">NAME: String</text><line style="stroke:#181818;stroke-width:0.5;" x1="93.5" x2="402.6929" y1="187.0679" y2="187.0679"/><ellipse cx="103.5" cy="202.1019" fill="#84BE84" rx="3" ry="3" style="stroke:#038048;stroke-width:1;"/><text fill="#000000" font-family="sans-serif" font-size="14" lengthAdjust="spacing" textLength="285.1929" x="112.5" y="206.0339">AdminDataQualityView(ApplicationContext)</text></a></g><!--class AbstractAdminView--><g class="entity" data-entity="AbstractAdminView" data-source-line="20" data-uid="ent0005" id="entity_AbstractAdminView"><a href="../../common/abstracts/AbstractAdminView.html" target="_top" title="../../common/abstracts/AbstractAdminView.html" xlink:actuate="onRequest" xlink:href="../../common/abstracts/AbstractAdminView.html" xlink:show="new" xlink:title="../../common/abstracts/AbstractAdminView.html" xlink:type="simple"><rect fill="#F1F1F1" height="48" rx="2.5" ry="2.5" style="stroke:#181818;stroke-width:0.5;" width="151.5735" x="172" y="34"/><ellipse cx="187" cy="50" fill="#A9DCDF" rx="11" ry="11" style="stroke:#181818;stroke-width:1;"/><path d="M187.1094,45.3438 L185.9531,50.4219 L188.2813,50.4219 L187.1094,45.3438 Z M185.625,43.1094 L188.6094,43.1094 L191.9688,55.5 L189.5156,55.5 L188.75,52.4375 L185.4688,52.4375 L184.7188,55.5 L182.2813,55.5 L185.625,43.1094 Z " fill="#000000"/><text fill="#000000" font-family="sans-serif" font-size="14" font-style="italic" lengthAdjust="spacing" textLength="119.5735" x="201" y="55.432">AbstractAdminView</text><line style="stroke:#181818;stroke-width:0.5;" x1="173" x2="322.5735" y1="66" y2="66"/><line style="stroke:#181818;stroke-width:0.5;" x1="173" x2="322.5735" y1="74" y2="74"/></a></g><g class="link" data-entity-1="AbstractAdminView" data-entity-2="AdminDataQualityView" data-uid="lnk6" id="link_AbstractAdminView_AdminDataQualityView"><polygon fill="none" points="248,82.2692,242,100.2692,254,100.2692,248,82.2692" style="stroke:#181818;stroke-width:1;"/><path d="M248,100.2692 C248,113.4922 248,112.4505 248,127.9269" fill="none" style="stroke:#181818;stroke-width:1;"/></g><g class="footer" data-source-line="32"><text fill="#888888" font-family="sans-serif" font-size="10" lengthAdjust="spacing" textLength="2.6" x="245.7" y="234.69">&#160;</text><a href="https://github.com/talsma-ict/umldoclet" target="_top" title="https://github.com/talsma-ict/umldoclet" xlink:actuate="onRequest" xlink:href="https://github.com/talsma-ict/umldoclet" xlink:show="new" xlink:title="https://github.com/talsma-ict/umldoclet" xlink:type="simple"><text fill="#888888" font-family="sans-serif" font-size="10" lengthAdjust="spacing" textLength="76.7199" x="208.64" y="248.31">UMLDoclet 2.2.4</text></a></g><!--SRC=[fPJVJzim4CVV-IjksiD0KES7hB08JQeAsfZAj8sobwuFryGaLXqxs1TOnVg_xvAKKg1lM94IstVV-zpP5m203p2qrSAfl20W2rGe3zUN8q2JGIwDT4Wo0rLYBZtCfBOczvsX1Aofi0xiJJjBhNFILzPaokJm3UyGlArTAhtOsO4srFXH_HxzXlfiqIoUsLHBWjtXtWPI74RzNXp6VHYZzYN2nN0iLcfFFh68nH6mjbQfD9ubQvD9rs8DAapvDUfs3k1EEg-iOPzmfTEacbf3g8o72Xtv9gKV6Wqrh97W-1z55CBku6hq72xyrC8TmC0Ph3FuPM_hTRxlAeSv8sjSs9h0bvBGOBlb6TfBZeN41KoIpe59vrndXYb5mT_neKWLYdiv4wgijAYLmAhY794u0t6dvBqNc9NAY0m9RslKYXRmqAar8zNeFGmQapEs-DbP_6P7c4osBOk2IZsTiWPiZ0TF739TmlxtmULv0bVa-8oVcUnlKziTFE4EkSBoB-sjlPOTvl8DkRDnoHESUNAOyhazOJ-kFPPWDMqfL_aB4V3JQGHhZU2LwUkQB3V9tqIS9A_9Jl_rUc-y0ooxvJWwtbDF2oq_hvEviPQuLvwV-DT59Tr8cVdGQhwXxq-sxrutRQQLaTpPwTn8hdJueagdmKQyLQm_PZ8fY2gV146kgAXdJM42Qbkyfr8Awb9dNM-_wFBfTDMrNzQ_ZwO3U-5HBuh6qL4I7IVnYUWVdlJZuxX_k1_6IHXEpcjdAnbSaKtdXTNbz3y0]--></g></svg>