<?xml version="1.0" encoding="UTF-8" standalone="no"?><svg xmlns="http://www.w3.org/2000/svg" xmlns:xlink="http://www.w3.org/1999/xlink" contentScriptType="application/ecmascript" contentStyleType="text/css" height="218px" preserveAspectRatio="none" style="width:239px;height:218px;" version="1.1" viewBox="0 0 239 218" width="239px" zoomAndPan="magnify"><defs><filter height="300%" id="fcz8mn50izrvw" width="300%" x="-1" y="-1"><feGaussianBlur result="blurOut" stdDeviation="2.0"/><feColorMatrix in="blurOut" result="blurOut2" type="matrix" values="0 0 0 0 0 0 0 0 0 0 0 0 0 0 0 0 0 0 .4 0"/><feOffset dx="4.0" dy="4.0" in="blurOut2" result="blurOut3"/><feBlend in="SourceGraphic" in2="blurOut3" mode="normal"/></filter></defs><g><!--MD5=[ea5c3d9f874f5320e472d2ec1770437d]
class com.hack23.cia.web.impl.ui.application.CitizenIntelligenceAgencyUI--><a href="CitizenIntelligenceAgencyUI.html" target="_top" title="CitizenIntelligenceAgencyUI.html" xlink:actuate="onRequest" xlink:href="CitizenIntelligenceAgencyUI.html" xlink:show="new" xlink:title="CitizenIntelligenceAgencyUI.html" xlink:type="simple"><rect fill="#FEFECE" filter="url(#fcz8mn50izrvw)" height="58.7422" id="com.hack23.cia.web.impl.ui.application.CitizenIntelligenceAgencyUI" style="stroke: #A80036; stroke-width: 1.5;" width="222" x="6" y="127"/><ellipse cx="21" cy="145.9688" fill="#ADD1B2" rx="11" ry="11" style="stroke: #A80036; stroke-width: 1.0;"/><path d="M23.9688,151.6094 Q23.3906,151.9063 22.75,152.0469 Q22.1094,152.2031 21.4063,152.2031 Q18.9063,152.2031 17.5781,150.5625 Q16.2656,148.9063 16.2656,145.7813 Q16.2656,142.6563 17.5781,141 Q18.9063,139.3438 21.4063,139.3438 Q22.1094,139.3438 22.75,139.5 Q23.4063,139.6563 23.9688,139.9531 L23.9688,142.6719 Q23.3438,142.0938 22.75,141.8281 Q22.1563,141.5469 21.5313,141.5469 Q20.1875,141.5469 19.5,142.625 Q18.8125,143.6875 18.8125,145.7813 Q18.8125,147.875 19.5,148.9531 Q20.1875,150.0156 21.5313,150.0156 Q22.1563,150.0156 22.75,149.75 Q23.3438,149.4688 23.9688,148.8906 L23.9688,151.6094 Z "/><text fill="#000000" font-family="sans-serif" font-size="14" lengthAdjust="spacingAndGlyphs" textLength="190" x="35" y="144.9951">CitizenIntelligenceAgencyUI</text><text fill="#000000" font-family="sans-serif" font-size="10" lengthAdjust="spacingAndGlyphs" textLength="185" x="37.5" y="157.5791">com.hack23.cia.web.impl.ui.application</text><line style="stroke: #A80036; stroke-width: 1.5;" x1="7" x2="227" y1="164.9375" y2="164.9375"/><polygon fill="#FFFF44" points="17,170.9375,21,174.9375,17,178.9375,13,174.9375" style="stroke: #B38D22; stroke-width: 1.0;"/><text fill="#000000" font-family="sans-serif" font-size="11" lengthAdjust="spacingAndGlyphs" textLength="140" x="26" y="179.1479">init(VaadinRequest): void</text></a><!--MD5=[840dd112a41cfe4bec5c339caee9c691]
class com.vaadin.ui.UI--><rect fill="#FEFECE" filter="url(#fcz8mn50izrvw)" height="58.7422" id="com.vaadin.ui.UI" style="stroke: #A80036; stroke-width: 1.5;" width="168" x="33" y="8"/><ellipse cx="77.75" cy="26.9688" fill="#A9DCDF" rx="11" ry="11" style="stroke: #A80036; stroke-width: 1.0;"/><path d="M77.8594,22.3125 L76.7031,27.3906 L79.0313,27.3906 L77.8594,22.3125 Z M76.375,20.0781 L79.3594,20.0781 L82.7188,32.4688 L80.2656,32.4688 L79.5,29.4063 L76.2188,29.4063 L75.4688,32.4688 L73.0313,32.4688 L76.375,20.0781 Z "/><text fill="#000000" font-family="sans-serif" font-size="14" font-style="italic" lengthAdjust="spacingAndGlyphs" textLength="14" x="126.25" y="25.9951">UI</text><text fill="#000000" font-family="sans-serif" font-size="10" font-style="italic" lengthAdjust="spacingAndGlyphs" textLength="70" x="98.25" y="38.5791">com.vaadin.ui</text><line style="stroke: #A80036; stroke-width: 1.5;" x1="34" x2="200" y1="45.9375" y2="45.9375"/><polygon fill="#FFFF44" points="44,51.9375,48,55.9375,44,59.9375,40,55.9375" style="stroke: #B38D22; stroke-width: 1.0;"/><text fill="#000000" font-family="sans-serif" font-size="11" font-style="italic" lengthAdjust="spacingAndGlyphs" textLength="142" x="53" y="60.1479">init(VaadinRequest): void</text><!--MD5=[edd4a2dd49baea3bc1a6d4a5079a4080]
reverse link com.vaadin.ui.UI to com.hack23.cia.web.impl.ui.application.CitizenIntelligenceAgencyUI--><path d="M117,87.3288 C117,100.7348 117,114.8139 117,126.7447 " fill="none" id="com.vaadin.ui.UI&lt;-com.hack23.cia.web.impl.ui.application.CitizenIntelligenceAgencyUI" style="stroke: #A80036; stroke-width: 1.0;"/><polygon fill="none" points="110.0001,87.2218,117,67.2218,124.0001,87.2217,110.0001,87.2218" style="stroke: #A80036; stroke-width: 1.0;"/><text fill="#888888" font-family="sans-serif" font-size="10" lengthAdjust="spacingAndGlyphs" textLength="186" x="30" y="205.2822">UMLDoclet 2.0.7, PlantUML 1.2019.12</text><!--MD5=[77afc375208582b9d1fda21e2182ab94]
@startuml
    set namespaceSeparator none
    hide empty fields
    hide empty methods

    class "<size:14>CitizenIntelligenceAgencyUI\n<size:10>com.hack23.cia.web.impl.ui.application" as com.hack23.cia.web.impl.ui.application.CitizenIntelligenceAgencyUI [[CitizenIntelligenceAgencyUI.html]] {
        #init(VaadinRequest): void
    }

    abstract class "<size:14>UI\n<size:10>com.vaadin.ui" as com.vaadin.ui.UI {
        {abstract} #init(VaadinRequest): void
    }

    com.vaadin.ui.UI <|- - com.hack23.cia.web.impl.ui.application.CitizenIntelligenceAgencyUI

    center footer UMLDoclet 2.0.7, PlantUML 1.2019.12
@enduml

PlantUML version 1.2019.12(Sun Nov 03 11:24:54 CET 2019)
(APACHE source distribution)
Java Runtime: OpenJDK Runtime Environment
JVM: OpenJDK 64-Bit Server VM
Java Version: 11.0.5-ea+10-post-Ubuntu-0ubuntu1
Operating System: Linux
Default Encoding: UTF-8
Language: en
Country: US
--></g></svg>