<?xml version="1.0" encoding="UTF-8" standalone="no"?><svg xmlns="http://www.w3.org/2000/svg" xmlns:xlink="http://www.w3.org/1999/xlink" contentStyleType="text/css" height="216px" preserveAspectRatio="none" style="width:238px;height:216px;background:#FFFFFF;" version="1.1" viewBox="0 0 238 216" width="238px" zoomAndPan="magnify"><defs/><g><!--MD5=[ea5c3d9f874f5320e472d2ec1770437d]
class com.hack23.cia.web.impl.ui.application.CitizenIntelligenceAgencyUI--><a href="CitizenIntelligenceAgencyUI.html" target="_top" title="CitizenIntelligenceAgencyUI.html" xlink:actuate="onRequest" xlink:href="CitizenIntelligenceAgencyUI.html" xlink:show="new" xlink:title="CitizenIntelligenceAgencyUI.html" xlink:type="simple"><g id="elem_com.hack23.cia.web.impl.ui.application.CitizenIntelligenceAgencyUI"><rect codeLine="5" fill="#F1F1F1" height="62.2344" id="com.hack23.cia.web.impl.ui.application.CitizenIntelligenceAgencyUI" rx="2.5" ry="2.5" style="stroke:#181818;stroke-width:0.5;" width="222" x="9" y="129"/><ellipse cx="24" cy="147.9688" fill="#ADD1B2" rx="11" ry="11" style="stroke:#181818;stroke-width:1.0;"/><path d="M26.9688,153.6094 Q26.3906,153.9063 25.75,154.0469 Q25.1094,154.2031 24.4063,154.2031 Q21.9063,154.2031 20.5781,152.5625 Q19.2656,150.9063 19.2656,147.7813 Q19.2656,144.6563 20.5781,143 Q21.9063,141.3438 24.4063,141.3438 Q25.1094,141.3438 25.75,141.5 Q26.4063,141.6563 26.9688,141.9531 L26.9688,144.6719 Q26.3438,144.0938 25.75,143.8281 Q25.1563,143.5469 24.5313,143.5469 Q23.1875,143.5469 22.5,144.625 Q21.8125,145.6875 21.8125,147.7813 Q21.8125,149.875 22.5,150.9531 Q23.1875,152.0156 24.5313,152.0156 Q25.1563,152.0156 25.75,151.75 Q26.3438,151.4688 26.9688,150.8906 L26.9688,153.6094 Z " fill="#000000"/><text fill="#000000" font-family="sans-serif" font-size="14" lengthAdjust="spacing" textLength="190" x="38" y="146.9951">CitizenIntelligenceAgencyUI</text><text fill="#000000" font-family="sans-serif" font-size="10" lengthAdjust="spacing" textLength="185" x="40.5" y="159.5791">com.hack23.cia.web.impl.ui.application</text><line style="stroke:#181818;stroke-width:0.5;" x1="10" x2="230" y1="166.9375" y2="166.9375"/><polygon fill="#FFFF44" points="20,172.9375,24,176.9375,20,180.9375,16,176.9375" style="stroke:#B38D22;stroke-width:1.0;"/><text fill="#000000" font-family="sans-serif" font-size="14" lengthAdjust="spacing" textLength="172" x="29" y="183.9326">init(VaadinRequest): void</text></g></a><!--MD5=[840dd112a41cfe4bec5c339caee9c691]
class com.vaadin.ui.UI--><g id="elem_com.vaadin.ui.UI"><rect codeLine="9" fill="#F1F1F1" height="62.2344" id="com.vaadin.ui.UI" rx="2.5" ry="2.5" style="stroke:#181818;stroke-width:0.5;" width="199" x="20.5" y="7"/><ellipse cx="80.75" cy="25.9688" fill="#A9DCDF" rx="11" ry="11" style="stroke:#181818;stroke-width:1.0;"/><path d="M80.8594,21.3125 L79.7031,26.3906 L82.0313,26.3906 L80.8594,21.3125 Z M79.375,19.0781 L82.3594,19.0781 L85.7188,31.4688 L83.2656,31.4688 L82.5,28.4063 L79.2188,28.4063 L78.4688,31.4688 L76.0313,31.4688 L79.375,19.0781 Z " fill="#000000"/><text fill="#000000" font-family="sans-serif" font-size="14" font-style="italic" lengthAdjust="spacing" textLength="14" x="129.25" y="24.9951">UI</text><text fill="#000000" font-family="sans-serif" font-size="10" font-style="italic" lengthAdjust="spacing" textLength="70" x="101.25" y="37.5791">com.vaadin.ui</text><line style="stroke:#181818;stroke-width:0.5;" x1="21.5" x2="218.5" y1="44.9375" y2="44.9375"/><polygon fill="#FFFF44" points="31.5,50.9375,35.5,54.9375,31.5,58.9375,27.5,54.9375" style="stroke:#B38D22;stroke-width:1.0;"/><text fill="#000000" font-family="sans-serif" font-size="14" font-style="italic" lengthAdjust="spacing" textLength="173" x="40.5" y="61.9326">init(VaadinRequest): void</text></g><!--MD5=[edd4a2dd49baea3bc1a6d4a5079a4080]
reverse link com.vaadin.ui.UI to com.hack23.cia.web.impl.ui.application.CitizenIntelligenceAgencyUI--><g id="link_com.vaadin.ui.UI_com.hack23.cia.web.impl.ui.application.CitizenIntelligenceAgencyUI"><path codeLine="13" d="M120,89.37 C120,102.75 120,116.79 120,128.73 " fill="none" id="com.vaadin.ui.UI-backto-com.hack23.cia.web.impl.ui.application.CitizenIntelligenceAgencyUI" style="stroke:#181818;stroke-width:1.0;"/><polygon fill="none" points="113,89.28,120,69.28,127,89.28,113,89.28" style="stroke:#181818;stroke-width:1.0;"/></g><rect height="11.6406" style="stroke:#00000000;stroke-width:1.0;fill:none;" width="186" x="19" y="197.2344"/><text fill="#888888" font-family="sans-serif" font-size="10" lengthAdjust="spacing" textLength="186" x="19" y="206.5166">UMLDoclet 2.0.18, PlantUML 1.2022.6</text><!--MD5=[bdefacc4971e09c649b3dc8c8da20cfc]
@startuml
    set namespaceSeparator none
    hide empty fields
    hide empty methods

    class "<size:14>CitizenIntelligenceAgencyUI\n<size:10>com.hack23.cia.web.impl.ui.application" as com.hack23.cia.web.impl.ui.application.CitizenIntelligenceAgencyUI [[CitizenIntelligenceAgencyUI.html]] {
        #init(VaadinRequest): void
    }

    abstract class "<size:14>UI\n<size:10>com.vaadin.ui" as com.vaadin.ui.UI {
        {abstract} #init(VaadinRequest): void
    }

    com.vaadin.ui.UI <|- - com.hack23.cia.web.impl.ui.application.CitizenIntelligenceAgencyUI

    center footer UMLDoclet 2.0.18, PlantUML 1.2022.6
@enduml

PlantUML version 1.2022.6(Tue Jun 21 19:34:49 CEST 2022)
(APACHE source distribution)
Java Runtime: OpenJDK Runtime Environment
JVM: OpenJDK 64-Bit Server VM
Default Encoding: ANSI_X3.4-1968
Language: en
Country: US
--></g></svg>