<?xml version="1.0" encoding="UTF-8" standalone="no"?><svg xmlns="http://www.w3.org/2000/svg" xmlns:xlink="http://www.w3.org/1999/xlink" contentScriptType="application/ecmascript" contentStyleType="text/css" height="311px" preserveAspectRatio="none" style="width:2073px;height:311px;" version="1.1" viewBox="0 0 2073 311" width="2073px" zoomAndPan="magnify"><defs><filter height="300%" id="f9enfu4vii7uy" width="300%" x="-1" y="-1"><feGaussianBlur result="blurOut" stdDeviation="2.0"/><feColorMatrix in="blurOut" result="blurOut2" type="matrix" values="0 0 0 0 0 0 0 0 0 0 0 0 0 0 0 0 0 0 .4 0"/><feOffset dx="4.0" dy="4.0" in="blurOut2" result="blurOut3"/><feBlend in="SourceGraphic" in2="blurOut3" mode="normal"/></filter></defs><g><!--MD5=[166d74c971a3ef77357dc06e0837b409]
cluster com.hack23.cia.web.impl.ui.application--><polygon fill="#FFFFFF" filter="url(#f9enfu4vii7uy)" points="14,150,327,150,334,172.2969,2051,172.2969,2051,271,14,271,14,150" style="stroke: #000000; stroke-width: 1.5;"/><line style="stroke: #000000; stroke-width: 1.5;" x1="14" x2="334" y1="172.2969" y2="172.2969"/><text fill="#000000" font-family="sans-serif" font-size="14" font-weight="bold" lengthAdjust="spacingAndGlyphs" textLength="307" x="18" y="164.9951">com.hack23.cia.web.impl.ui.application</text><!--MD5=[8c4c1bae3b23190d97df7ee81e077265]
cluster com.vaadin.server--><polygon fill="#FFFFFF" filter="url(#f9enfu4vii7uy)" points="25,22.5,177,22.5,184,44.7969,197,44.7969,197,118.5,25,118.5,25,22.5" style="stroke: #000000; stroke-width: 1.5;"/><line style="stroke: #000000; stroke-width: 1.5;" x1="25" x2="184" y1="44.7969" y2="44.7969"/><text fill="#000000" font-family="sans-serif" font-size="14" font-weight="bold" lengthAdjust="spacingAndGlyphs" textLength="146" x="29" y="37.4951">com.vaadin.server</text><!--MD5=[d0cab32c82549b0e23dbb729869ce491]
cluster com.vaadin.spring.server--><polygon fill="#FFFFFF" filter="url(#f9enfu4vii7uy)" points="364,22.5,571,22.5,578,44.7969,709,44.7969,709,118.5,364,118.5,364,22.5" style="stroke: #000000; stroke-width: 1.5;"/><line style="stroke: #000000; stroke-width: 1.5;" x1="364" x2="578" y1="44.7969" y2="44.7969"/><text fill="#000000" font-family="sans-serif" font-size="14" font-weight="bold" lengthAdjust="spacingAndGlyphs" textLength="201" x="368" y="37.4951">com.vaadin.spring.server</text><!--MD5=[99b8bc54f75e0f490d62721683ad7b11]
cluster com.vaadin.ui--><polygon fill="#FFFFFF" filter="url(#f9enfu4vii7uy)" points="898,16,1012,16,1019,38.2969,1114,38.2969,1114,125,898,125,898,16" style="stroke: #000000; stroke-width: 1.5;"/><line style="stroke: #000000; stroke-width: 1.5;" x1="898" x2="1019" y1="38.2969" y2="38.2969"/><text fill="#000000" font-family="sans-serif" font-size="14" font-weight="bold" lengthAdjust="spacingAndGlyphs" textLength="108" x="902" y="30.9951">com.vaadin.ui</text><!--MD5=[737c6b32201ecf86b9d7c6a8bb692317]
cluster javax.servlet.http--><polygon fill="#FFFFFF" filter="url(#f9enfu4vii7uy)" points="1233,29,1376,29,1383,51.2969,1386,51.2969,1386,112,1233,112,1233,29" style="stroke: #000000; stroke-width: 1.5;"/><line style="stroke: #000000; stroke-width: 1.5;" x1="1233" x2="1383" y1="51.2969" y2="51.2969"/><text fill="#000000" font-family="sans-serif" font-size="14" font-weight="bold" lengthAdjust="spacingAndGlyphs" textLength="137" x="1237" y="43.9951">javax.servlet.http</text><!--MD5=[1d022896c9bf24b66c2ea3d6ea7edc8f]
cluster org.eclipse.jetty.servlet--><polygon fill="#FFFFFF" filter="url(#f9enfu4vii7uy)" points="1581,22.5,1775,22.5,1782,44.7969,1785,44.7969,1785,118.5,1581,118.5,1581,22.5" style="stroke: #000000; stroke-width: 1.5;"/><line style="stroke: #000000; stroke-width: 1.5;" x1="1581" x2="1782" y1="44.7969" y2="44.7969"/><text fill="#000000" font-family="sans-serif" font-size="14" font-weight="bold" lengthAdjust="spacingAndGlyphs" textLength="188" x="1585" y="37.4951">org.eclipse.jetty.servlet</text><!--MD5=[1816b21b47313503d533beedb9d75dcb]
class com.hack23.cia.web.impl.ui.application.VaadinSpringConfig--><a href="VaadinSpringConfig.html" target="_top" title="VaadinSpringConfig.html" xlink:actuate="onRequest" xlink:href="VaadinSpringConfig.html" xlink:show="new" xlink:title="VaadinSpringConfig.html" xlink:type="simple"><rect fill="#FEFECE" filter="url(#f9enfu4vii7uy)" height="48" id="com.hack23.cia.web.impl.ui.application.VaadinSpringConfig" style="stroke: #A80036; stroke-width: 1.5;" width="154" x="1889" y="196"/><ellipse cx="1904" cy="212" fill="#ADD1B2" rx="11" ry="11" style="stroke: #A80036; stroke-width: 1.0;"/><path d="M1906.9688,217.6406 Q1906.3906,217.9375 1905.75,218.0781 Q1905.1094,218.2344 1904.4063,218.2344 Q1901.9063,218.2344 1900.5781,216.5938 Q1899.2656,214.9375 1899.2656,211.8125 Q1899.2656,208.6875 1900.5781,207.0313 Q1901.9063,205.375 1904.4063,205.375 Q1905.1094,205.375 1905.75,205.5313 Q1906.4063,205.6875 1906.9688,205.9844 L1906.9688,208.7031 Q1906.3438,208.125 1905.75,207.8594 Q1905.1563,207.5781 1904.5313,207.5781 Q1903.1875,207.5781 1902.5,208.6563 Q1901.8125,209.7188 1901.8125,211.8125 Q1901.8125,213.9063 1902.5,214.9844 Q1903.1875,216.0469 1904.5313,216.0469 Q1905.1563,216.0469 1905.75,215.7813 Q1906.3438,215.5 1906.9688,214.9219 L1906.9688,217.6406 Z "/><text fill="#000000" font-family="sans-serif" font-size="12" lengthAdjust="spacingAndGlyphs" textLength="122" x="1918" y="216.1543">VaadinSpringConfig</text><line style="stroke: #A80036; stroke-width: 1.5;" x1="1890" x2="2042" y1="228" y2="228"/><line style="stroke: #A80036; stroke-width: 1.5;" x1="1890" x2="2042" y1="236" y2="236"/></a><!--MD5=[3ada79fb622825c22a743b3457af5544]
class com.hack23.cia.web.impl.ui.application.UiInstanceErrorHandler--><a href="UiInstanceErrorHandler.html" target="_top" title="UiInstanceErrorHandler.html" xlink:actuate="onRequest" xlink:href="UiInstanceErrorHandler.html" xlink:show="new" xlink:title="UiInstanceErrorHandler.html" xlink:type="simple"><rect fill="#FEFECE" filter="url(#f9enfu4vii7uy)" height="73.6094" id="com.hack23.cia.web.impl.ui.application.UiInstanceErrorHandler" style="stroke: #A80036; stroke-width: 1.5;" width="178" x="22" y="183"/><ellipse cx="37" cy="199" fill="#ADD1B2" rx="11" ry="11" style="stroke: #A80036; stroke-width: 1.0;"/><path d="M39.9688,204.6406 Q39.3906,204.9375 38.75,205.0781 Q38.1094,205.2344 37.4063,205.2344 Q34.9063,205.2344 33.5781,203.5938 Q32.2656,201.9375 32.2656,198.8125 Q32.2656,195.6875 33.5781,194.0313 Q34.9063,192.375 37.4063,192.375 Q38.1094,192.375 38.75,192.5313 Q39.4063,192.6875 39.9688,192.9844 L39.9688,195.7031 Q39.3438,195.125 38.75,194.8594 Q38.1563,194.5781 37.5313,194.5781 Q36.1875,194.5781 35.5,195.6563 Q34.8125,196.7188 34.8125,198.8125 Q34.8125,200.9063 35.5,201.9844 Q36.1875,203.0469 37.5313,203.0469 Q38.1563,203.0469 38.75,202.7813 Q39.3438,202.5 39.9688,201.9219 L39.9688,204.6406 Z "/><text fill="#000000" font-family="sans-serif" font-size="12" lengthAdjust="spacingAndGlyphs" textLength="146" x="51" y="203.1543">UiInstanceErrorHandler</text><line style="stroke: #A80036; stroke-width: 1.5;" x1="23" x2="199" y1="215" y2="215"/><line style="stroke: #A80036; stroke-width: 1.5;" x1="23" x2="199" y1="223" y2="223"/><ellipse cx="33" cy="234" fill="#84BE84" rx="3" ry="3" style="stroke: #038048; stroke-width: 1.0;"/><text fill="#000000" font-family="sans-serif" font-size="11" lengthAdjust="spacingAndGlyphs" textLength="151" x="42" y="237.2104">UiInstanceErrorHandler(UI)</text><ellipse cx="33" cy="246.8047" fill="#84BE84" rx="3" ry="3" style="stroke: #038048; stroke-width: 1.0;"/><text fill="#000000" font-family="sans-serif" font-size="11" lengthAdjust="spacingAndGlyphs" textLength="128" x="42" y="250.0151">error(ErrorEvent): void</text></a><!--MD5=[af3c1668f9c39786b5599e6d01fc7eeb]
class com.hack23.cia.web.impl.ui.application.CitizenIntelligenceAgencySpringVaadinServlet--><a href="CitizenIntelligenceAgencySpringVaadinServlet.html" target="_top" title="CitizenIntelligenceAgencySpringVaadinServlet.html" xlink:actuate="onRequest" xlink:href="CitizenIntelligenceAgencySpringVaadinServlet.html" xlink:show="new" xlink:title="CitizenIntelligenceAgencySpringVaadinServlet.html" xlink:type="simple"><rect fill="#FEFECE" filter="url(#f9enfu4vii7uy)" height="73.6094" id="com.hack23.cia.web.impl.ui.application.CitizenIntelligenceAgencySpringVaadinServlet" style="stroke: #A80036; stroke-width: 1.5;" width="342" x="528" y="183"/><ellipse cx="555.15" cy="199" fill="#ADD1B2" rx="11" ry="11" style="stroke: #A80036; stroke-width: 1.0;"/><path d="M558.1188,204.6406 Q557.5406,204.9375 556.9,205.0781 Q556.2594,205.2344 555.5563,205.2344 Q553.0563,205.2344 551.7281,203.5938 Q550.4156,201.9375 550.4156,198.8125 Q550.4156,195.6875 551.7281,194.0313 Q553.0563,192.375 555.5563,192.375 Q556.2594,192.375 556.9,192.5313 Q557.5563,192.6875 558.1188,192.9844 L558.1188,195.7031 Q557.4938,195.125 556.9,194.8594 Q556.3063,194.5781 555.6813,194.5781 Q554.3375,194.5781 553.65,195.6563 Q552.9625,196.7188 552.9625,198.8125 Q552.9625,200.9063 553.65,201.9844 Q554.3375,203.0469 555.6813,203.0469 Q556.3063,203.0469 556.9,202.7813 Q557.4938,202.5 558.1188,201.9219 L558.1188,204.6406 Z "/><text fill="#000000" font-family="sans-serif" font-size="12" lengthAdjust="spacingAndGlyphs" textLength="283" x="571.85" y="203.1543">CitizenIntelligenceAgencySpringVaadinServlet</text><line style="stroke: #A80036; stroke-width: 1.5;" x1="529" x2="869" y1="215" y2="215"/><line style="stroke: #A80036; stroke-width: 1.5;" x1="529" x2="869" y1="223" y2="223"/><polygon fill="#FFFF44" points="539,229,543,233,539,237,535,233" style="stroke: #B38D22; stroke-width: 1.0;"/><text fill="#000000" font-family="sans-serif" font-size="11" lengthAdjust="spacingAndGlyphs" textLength="316" x="548" y="237.2104">service(HttpServletRequest, HttpServletResponse): void</text><polygon fill="#FFFF44" points="539,241.8047,543,245.8047,539,249.8047,535,245.8047" style="stroke: #B38D22; stroke-width: 1.0;"/><text fill="#000000" font-family="sans-serif" font-size="11" lengthAdjust="spacingAndGlyphs" textLength="130" x="548" y="250.0151">servletInitialized(): void</text></a><!--MD5=[ea5c3d9f874f5320e472d2ec1770437d]
class com.hack23.cia.web.impl.ui.application.CitizenIntelligenceAgencyUI--><a href="CitizenIntelligenceAgencyUI.html" target="_top" title="CitizenIntelligenceAgencyUI.html" xlink:actuate="onRequest" xlink:href="CitizenIntelligenceAgencyUI.html" xlink:show="new" xlink:title="CitizenIntelligenceAgencyUI.html" xlink:type="simple"><rect fill="#FEFECE" filter="url(#f9enfu4vii7uy)" height="60.8047" id="com.hack23.cia.web.impl.ui.application.CitizenIntelligenceAgencyUI" style="stroke: #A80036; stroke-width: 1.5;" width="201" x="905.5" y="189.5"/><ellipse cx="920.5" cy="205.5" fill="#ADD1B2" rx="11" ry="11" style="stroke: #A80036; stroke-width: 1.0;"/><path d="M923.4688,211.1406 Q922.8906,211.4375 922.25,211.5781 Q921.6094,211.7344 920.9063,211.7344 Q918.4063,211.7344 917.0781,210.0938 Q915.7656,208.4375 915.7656,205.3125 Q915.7656,202.1875 917.0781,200.5313 Q918.4063,198.875 920.9063,198.875 Q921.6094,198.875 922.25,199.0313 Q922.9063,199.1875 923.4688,199.4844 L923.4688,202.2031 Q922.8438,201.625 922.25,201.3594 Q921.6563,201.0781 921.0313,201.0781 Q919.6875,201.0781 919,202.1563 Q918.3125,203.2188 918.3125,205.3125 Q918.3125,207.4063 919,208.4844 Q919.6875,209.5469 921.0313,209.5469 Q921.6563,209.5469 922.25,209.2813 Q922.8438,209 923.4688,208.4219 L923.4688,211.1406 Z "/><text fill="#000000" font-family="sans-serif" font-size="12" lengthAdjust="spacingAndGlyphs" textLength="169" x="934.5" y="209.6543">CitizenIntelligenceAgencyUI</text><line style="stroke: #A80036; stroke-width: 1.5;" x1="906.5" x2="1105.5" y1="221.5" y2="221.5"/><line style="stroke: #A80036; stroke-width: 1.5;" x1="906.5" x2="1105.5" y1="229.5" y2="229.5"/><polygon fill="#FFFF44" points="916.5,235.5,920.5,239.5,916.5,243.5,912.5,239.5" style="stroke: #B38D22; stroke-width: 1.0;"/><text fill="#000000" font-family="sans-serif" font-size="11" lengthAdjust="spacingAndGlyphs" textLength="140" x="925.5" y="243.7104">init(VaadinRequest): void</text></a><!--MD5=[0841465547beff364b127ca086ff3a8f]
class com.hack23.cia.web.impl.ui.application.CitizenIntelligenceAgencyHealthCheckServlet--><a href="CitizenIntelligenceAgencyHealthCheckServlet.html" target="_top" title="CitizenIntelligenceAgencyHealthCheckServlet.html" xlink:actuate="onRequest" xlink:href="CitizenIntelligenceAgencyHealthCheckServlet.html" xlink:show="new" xlink:title="CitizenIntelligenceAgencyHealthCheckServlet.html" xlink:type="simple"><rect fill="#FEFECE" filter="url(#f9enfu4vii7uy)" height="60.8047" id="com.hack23.cia.web.impl.ui.application.CitizenIntelligenceAgencyHealthCheckServlet" style="stroke: #A80036; stroke-width: 1.5;" width="335" x="1141.5" y="189.5"/><ellipse cx="1167.3" cy="205.5" fill="#ADD1B2" rx="11" ry="11" style="stroke: #A80036; stroke-width: 1.0;"/><path d="M1170.2688,211.1406 Q1169.6906,211.4375 1169.05,211.5781 Q1168.4094,211.7344 1167.7063,211.7344 Q1165.2063,211.7344 1163.8781,210.0938 Q1162.5656,208.4375 1162.5656,205.3125 Q1162.5656,202.1875 1163.8781,200.5313 Q1165.2063,198.875 1167.7063,198.875 Q1168.4094,198.875 1169.05,199.0313 Q1169.7063,199.1875 1170.2688,199.4844 L1170.2688,202.2031 Q1169.6438,201.625 1169.05,201.3594 Q1168.4563,201.0781 1167.8313,201.0781 Q1166.4875,201.0781 1165.8,202.1563 Q1165.1125,203.2188 1165.1125,205.3125 Q1165.1125,207.4063 1165.8,208.4844 Q1166.4875,209.5469 1167.8313,209.5469 Q1168.4563,209.5469 1169.05,209.2813 Q1169.6438,209 1170.2688,208.4219 L1170.2688,211.1406 Z "/><text fill="#000000" font-family="sans-serif" font-size="12" lengthAdjust="spacingAndGlyphs" textLength="279" x="1183.7" y="209.6543">CitizenIntelligenceAgencyHealthCheckServlet</text><line style="stroke: #A80036; stroke-width: 1.5;" x1="1142.5" x2="1475.5" y1="221.5" y2="221.5"/><line style="stroke: #A80036; stroke-width: 1.5;" x1="1142.5" x2="1475.5" y1="229.5" y2="229.5"/><ellipse cx="1152.5" cy="240.5" fill="#84BE84" rx="3" ry="3" style="stroke: #038048; stroke-width: 1.0;"/><text fill="#000000" font-family="sans-serif" font-size="11" lengthAdjust="spacingAndGlyphs" textLength="309" x="1161.5" y="243.7104">doGet(HttpServletRequest, HttpServletResponse): void</text></a><!--MD5=[049b9fac63e15678bcfac1501c8b1bdf]
class com.hack23.cia.web.impl.ui.application.CustomSpringUIProvider--><a href="CustomSpringUIProvider.html" target="_top" title="CustomSpringUIProvider.html" xlink:actuate="onRequest" xlink:href="CustomSpringUIProvider.html" xlink:show="new" xlink:title="CustomSpringUIProvider.html" xlink:type="simple"><rect fill="#FEFECE" filter="url(#f9enfu4vii7uy)" height="86.4141" id="com.hack23.cia.web.impl.ui.application.CustomSpringUIProvider" style="stroke: #A80036; stroke-width: 1.5;" width="257" x="235.5" y="177"/><ellipse cx="284.75" cy="193" fill="#ADD1B2" rx="11" ry="11" style="stroke: #A80036; stroke-width: 1.0;"/><path d="M287.7188,198.6406 Q287.1406,198.9375 286.5,199.0781 Q285.8594,199.2344 285.1563,199.2344 Q282.6563,199.2344 281.3281,197.5938 Q280.0156,195.9375 280.0156,192.8125 Q280.0156,189.6875 281.3281,188.0313 Q282.6563,186.375 285.1563,186.375 Q285.8594,186.375 286.5,186.5313 Q287.1563,186.6875 287.7188,186.9844 L287.7188,189.7031 Q287.0938,189.125 286.5,188.8594 Q285.9063,188.5781 285.2813,188.5781 Q283.9375,188.5781 283.25,189.6563 Q282.5625,190.7188 282.5625,192.8125 Q282.5625,194.9063 283.25,195.9844 Q283.9375,197.0469 285.2813,197.0469 Q285.9063,197.0469 286.5,196.7813 Q287.0938,196.5 287.7188,195.9219 L287.7188,198.6406 Z "/><text fill="#000000" font-family="sans-serif" font-size="12" lengthAdjust="spacingAndGlyphs" textLength="150" x="305.25" y="197.1543">CustomSpringUIProvider</text><line style="stroke: #A80036; stroke-width: 1.5;" x1="236.5" x2="491.5" y1="209" y2="209"/><line style="stroke: #A80036; stroke-width: 1.5;" x1="236.5" x2="491.5" y1="217" y2="217"/><ellipse cx="246.5" cy="228" fill="#84BE84" rx="3" ry="3" style="stroke: #038048; stroke-width: 1.0;"/><text fill="#000000" font-family="sans-serif" font-size="11" lengthAdjust="spacingAndGlyphs" textLength="231" x="255.5" y="231.2104">CustomSpringUIProvider(VaadinSession)</text><ellipse cx="246.5" cy="240.8047" fill="#84BE84" rx="3" ry="3" style="stroke: #038048; stroke-width: 1.0;"/><text fill="#000000" font-family="sans-serif" font-size="11" lengthAdjust="spacingAndGlyphs" textLength="191" x="255.5" y="244.0151">createInstance(UICreateEvent): UI</text><polygon fill="#FFFF44" points="246.5,248.6094,250.5,252.6094,246.5,256.6094,242.5,252.6094" style="stroke: #B38D22; stroke-width: 1.0;"/><text fill="#000000" font-family="sans-serif" font-size="11" lengthAdjust="spacingAndGlyphs" textLength="188" x="255.5" y="256.8198">findSpringViewDisplay(UI): Object</text></a><!--MD5=[4e4345d80c4b814124669d6a73979309]
class com.hack23.cia.web.impl.ui.application.ResourceServlet--><a href="ResourceServlet.html" target="_top" title="ResourceServlet.html" xlink:actuate="onRequest" xlink:href="ResourceServlet.html" xlink:show="new" xlink:title="ResourceServlet.html" xlink:type="simple"><rect fill="#FEFECE" filter="url(#f9enfu4vii7uy)" height="60.8047" id="com.hack23.cia.web.impl.ui.application.ResourceServlet" style="stroke: #A80036; stroke-width: 1.5;" width="342" x="1512" y="189.5"/><ellipse cx="1627.75" cy="205.5" fill="#ADD1B2" rx="11" ry="11" style="stroke: #A80036; stroke-width: 1.0;"/><path d="M1630.7188,211.1406 Q1630.1406,211.4375 1629.5,211.5781 Q1628.8594,211.7344 1628.1563,211.7344 Q1625.6563,211.7344 1624.3281,210.0938 Q1623.0156,208.4375 1623.0156,205.3125 Q1623.0156,202.1875 1624.3281,200.5313 Q1625.6563,198.875 1628.1563,198.875 Q1628.8594,198.875 1629.5,199.0313 Q1630.1563,199.1875 1630.7188,199.4844 L1630.7188,202.2031 Q1630.0938,201.625 1629.5,201.3594 Q1628.9063,201.0781 1628.2813,201.0781 Q1626.9375,201.0781 1626.25,202.1563 Q1625.5625,203.2188 1625.5625,205.3125 Q1625.5625,207.4063 1626.25,208.4844 Q1626.9375,209.5469 1628.2813,209.5469 Q1628.9063,209.5469 1629.5,209.2813 Q1630.0938,209 1630.7188,208.4219 L1630.7188,211.1406 Z "/><text fill="#000000" font-family="sans-serif" font-size="12" lengthAdjust="spacingAndGlyphs" textLength="102" x="1648.25" y="209.6543">ResourceServlet</text><line style="stroke: #A80036; stroke-width: 1.5;" x1="1513" x2="1853" y1="221.5" y2="221.5"/><line style="stroke: #A80036; stroke-width: 1.5;" x1="1513" x2="1853" y1="229.5" y2="229.5"/><polygon fill="#FFFF44" points="1523,235.5,1527,239.5,1523,243.5,1519,239.5" style="stroke: #B38D22; stroke-width: 1.0;"/><text fill="#000000" font-family="sans-serif" font-size="11" lengthAdjust="spacingAndGlyphs" textLength="316" x="1532" y="243.7104">service(HttpServletRequest, HttpServletResponse): void</text></a><!--MD5=[f92eaa16cf8cf5fce7eae279c1e90897]
class com.vaadin.server.ErrorHandler--><rect fill="#FEFECE" filter="url(#f9enfu4vii7uy)" height="60.8047" id="com.vaadin.server.ErrorHandler" style="stroke: #A80036; stroke-width: 1.5;" width="156" x="33" y="49.5"/><ellipse cx="67.8" cy="65.5" fill="#B4A7E5" rx="11" ry="11" style="stroke: #A80036; stroke-width: 1.0;"/><path d="M63.7219,61.2656 L63.7219,59.1094 L71.1125,59.1094 L71.1125,61.2656 L68.6438,61.2656 L68.6438,69.3438 L71.1125,69.3438 L71.1125,71.5 L63.7219,71.5 L63.7219,69.3438 L66.1906,69.3438 L66.1906,61.2656 L63.7219,61.2656 Z "/><text fill="#000000" font-family="sans-serif" font-size="12" font-style="italic" lengthAdjust="spacingAndGlyphs" textLength="80" x="86.2" y="69.6543">ErrorHandler</text><line style="stroke: #A80036; stroke-width: 1.5;" x1="34" x2="188" y1="81.5" y2="81.5"/><line style="stroke: #A80036; stroke-width: 1.5;" x1="34" x2="188" y1="89.5" y2="89.5"/><ellipse cx="44" cy="100.5" fill="#84BE84" rx="3" ry="3" style="stroke: #038048; stroke-width: 1.0;"/><text fill="#000000" font-family="sans-serif" font-size="11" font-style="italic" lengthAdjust="spacingAndGlyphs" textLength="130" x="53" y="103.7104">error(ErrorEvent): void</text><!--MD5=[3a225e31eb196bb3e53b2f701149af9a]
class com.vaadin.spring.server.SpringVaadinServlet--><rect fill="#FEFECE" filter="url(#f9enfu4vii7uy)" height="48" id="com.vaadin.spring.server.SpringVaadinServlet" style="stroke: #A80036; stroke-width: 1.5;" width="158" x="543" y="56"/><ellipse cx="558" cy="72" fill="#ADD1B2" rx="11" ry="11" style="stroke: #A80036; stroke-width: 1.0;"/><path d="M560.9688,77.6406 Q560.3906,77.9375 559.75,78.0781 Q559.1094,78.2344 558.4063,78.2344 Q555.9063,78.2344 554.5781,76.5938 Q553.2656,74.9375 553.2656,71.8125 Q553.2656,68.6875 554.5781,67.0313 Q555.9063,65.375 558.4063,65.375 Q559.1094,65.375 559.75,65.5313 Q560.4063,65.6875 560.9688,65.9844 L560.9688,68.7031 Q560.3438,68.125 559.75,67.8594 Q559.1563,67.5781 558.5313,67.5781 Q557.1875,67.5781 556.5,68.6563 Q555.8125,69.7188 555.8125,71.8125 Q555.8125,73.9063 556.5,74.9844 Q557.1875,76.0469 558.5313,76.0469 Q559.1563,76.0469 559.75,75.7813 Q560.3438,75.5 560.9688,74.9219 L560.9688,77.6406 Z "/><text fill="#000000" font-family="sans-serif" font-size="12" lengthAdjust="spacingAndGlyphs" textLength="126" x="572" y="76.1543">SpringVaadinServlet</text><line style="stroke: #A80036; stroke-width: 1.5;" x1="544" x2="700" y1="88" y2="88"/><line style="stroke: #A80036; stroke-width: 1.5;" x1="544" x2="700" y1="96" y2="96"/><!--MD5=[2b77741785b7573f35f8abd8ca891912]
class com.vaadin.spring.server.SpringUIProvider--><rect fill="#FEFECE" filter="url(#f9enfu4vii7uy)" height="60.8047" id="com.vaadin.spring.server.SpringUIProvider" style="stroke: #A80036; stroke-width: 1.5;" width="135" x="372.5" y="49.5"/><ellipse cx="387.5" cy="65.5" fill="#ADD1B2" rx="11" ry="11" style="stroke: #A80036; stroke-width: 1.0;"/><path d="M390.4688,71.1406 Q389.8906,71.4375 389.25,71.5781 Q388.6094,71.7344 387.9063,71.7344 Q385.4063,71.7344 384.0781,70.0938 Q382.7656,68.4375 382.7656,65.3125 Q382.7656,62.1875 384.0781,60.5313 Q385.4063,58.875 387.9063,58.875 Q388.6094,58.875 389.25,59.0313 Q389.9063,59.1875 390.4688,59.4844 L390.4688,62.2031 Q389.8438,61.625 389.25,61.3594 Q388.6563,61.0781 388.0313,61.0781 Q386.6875,61.0781 386,62.1563 Q385.3125,63.2188 385.3125,65.3125 Q385.3125,67.4063 386,68.4844 Q386.6875,69.5469 388.0313,69.5469 Q388.6563,69.5469 389.25,69.2813 Q389.8438,69 390.4688,68.4219 L390.4688,71.1406 Z "/><text fill="#000000" font-family="sans-serif" font-size="12" lengthAdjust="spacingAndGlyphs" textLength="103" x="401.5" y="69.6543">SpringUIProvider</text><line style="stroke: #A80036; stroke-width: 1.5;" x1="373.5" x2="506.5" y1="81.5" y2="81.5"/><polygon fill="none" points="383.5,87.5,387.5,91.5,383.5,95.5,379.5,91.5" style="stroke: #B38D22; stroke-width: 1.0;"/><text fill="#000000" font-family="sans-serif" font-size="11" lengthAdjust="spacingAndGlyphs" textLength="83" x="392.5" y="95.7104">logger: Logger</text><line style="stroke: #A80036; stroke-width: 1.5;" x1="373.5" x2="506.5" y1="102.3047" y2="102.3047"/><!--MD5=[840dd112a41cfe4bec5c339caee9c691]
class com.vaadin.ui.UI--><rect fill="#FEFECE" filter="url(#f9enfu4vii7uy)" height="73.6094" id="com.vaadin.ui.UI" style="stroke: #A80036; stroke-width: 1.5;" width="200" x="906" y="43"/><ellipse cx="995.25" cy="59" fill="#A9DCDF" rx="11" ry="11" style="stroke: #A80036; stroke-width: 1.0;"/><path d="M995.3594,54.3438 L994.2031,59.4219 L996.5313,59.4219 L995.3594,54.3438 Z M993.875,52.1094 L996.8594,52.1094 L1000.2188,64.5 L997.7656,64.5 L997,61.4375 L993.7188,61.4375 L992.9688,64.5 L990.5313,64.5 L993.875,52.1094 Z "/><text fill="#000000" font-family="sans-serif" font-size="12" font-style="italic" lengthAdjust="spacingAndGlyphs" textLength="13" x="1015.75" y="63.1543">UI</text><line style="stroke: #A80036; stroke-width: 1.5;" x1="907" x2="1105" y1="75" y2="75"/><polygon fill="none" points="917,81,921,85,917,89,913,85" style="stroke: #B38D22; stroke-width: 1.0;"/><text fill="#000000" font-family="sans-serif" font-size="11" lengthAdjust="spacingAndGlyphs" textLength="174" x="926" y="89.2104">actionManager: ActionManager</text><line style="stroke: #A80036; stroke-width: 1.5;" x1="907" x2="1105" y1="95.8047" y2="95.8047"/><polygon fill="#FFFF44" points="917,101.8047,921,105.8047,917,109.8047,913,105.8047" style="stroke: #B38D22; stroke-width: 1.0;"/><text fill="#000000" font-family="sans-serif" font-size="11" font-style="italic" lengthAdjust="spacingAndGlyphs" textLength="142" x="926" y="110.0151">init(VaadinRequest): void</text><!--MD5=[f416d4ad4711b5ddf00f6f9e1e57970b]
class javax.servlet.http.HttpServlet--><rect fill="#FEFECE" filter="url(#f9enfu4vii7uy)" height="48" id="javax.servlet.http.HttpServlet" style="stroke: #A80036; stroke-width: 1.5;" width="102" x="1258" y="56"/><ellipse cx="1273" cy="72" fill="#A9DCDF" rx="11" ry="11" style="stroke: #A80036; stroke-width: 1.0;"/><path d="M1273.1094,67.3438 L1271.9531,72.4219 L1274.2813,72.4219 L1273.1094,67.3438 Z M1271.625,65.1094 L1274.6094,65.1094 L1277.9688,77.5 L1275.5156,77.5 L1274.75,74.4375 L1271.4688,74.4375 L1270.7188,77.5 L1268.2813,77.5 L1271.625,65.1094 Z "/><text fill="#000000" font-family="sans-serif" font-size="12" font-style="italic" lengthAdjust="spacingAndGlyphs" textLength="70" x="1287" y="76.1543">HttpServlet</text><line style="stroke: #A80036; stroke-width: 1.5;" x1="1259" x2="1359" y1="88" y2="88"/><line style="stroke: #A80036; stroke-width: 1.5;" x1="1259" x2="1359" y1="96" y2="96"/><!--MD5=[36c6637e4b5809e0f3c006bf8b958017]
class org.eclipse.jetty.servlet.DefaultServlet--><rect fill="#FEFECE" filter="url(#f9enfu4vii7uy)" height="60.8047" id="org.eclipse.jetty.servlet.DefaultServlet" style="stroke: #A80036; stroke-width: 1.5;" width="148" x="1609" y="49.5"/><ellipse cx="1636.6" cy="65.5" fill="#ADD1B2" rx="11" ry="11" style="stroke: #A80036; stroke-width: 1.0;"/><path d="M1639.5688,71.1406 Q1638.9906,71.4375 1638.35,71.5781 Q1637.7094,71.7344 1637.0063,71.7344 Q1634.5063,71.7344 1633.1781,70.0938 Q1631.8656,68.4375 1631.8656,65.3125 Q1631.8656,62.1875 1633.1781,60.5313 Q1634.5063,58.875 1637.0063,58.875 Q1637.7094,58.875 1638.35,59.0313 Q1639.0063,59.1875 1639.5688,59.4844 L1639.5688,62.2031 Q1638.9438,61.625 1638.35,61.3594 Q1637.7563,61.0781 1637.1313,61.0781 Q1635.7875,61.0781 1635.1,62.1563 Q1634.4125,63.2188 1634.4125,65.3125 Q1634.4125,67.4063 1635.1,68.4844 Q1635.7875,69.5469 1637.1313,69.5469 Q1637.7563,69.5469 1638.35,69.2813 Q1638.9438,69 1639.5688,68.4219 L1639.5688,71.1406 Z "/><text fill="#000000" font-family="sans-serif" font-size="12" lengthAdjust="spacingAndGlyphs" textLength="88" x="1653.4" y="69.6543">DefaultServlet</text><line style="stroke: #A80036; stroke-width: 1.5;" x1="1610" x2="1756" y1="81.5" y2="81.5"/><ellipse cx="1620" cy="92.5" fill="none" rx="3" ry="3" style="stroke: #038048; stroke-width: 1.0;"/><text fill="#000000" font-family="sans-serif" font-size="11" lengthAdjust="spacingAndGlyphs" text-decoration="underline" textLength="122" x="1629" y="95.7104">CONTEXT_INIT: String</text><line style="stroke: #A80036; stroke-width: 1.5;" x1="1610" x2="1756" y1="102.3047" y2="102.3047"/><!--MD5=[1345d62e229863e08483588a07f82c81]
reverse link com.vaadin.server.ErrorHandler to com.hack23.cia.web.impl.ui.application.UiInstanceErrorHandler--><path d="M111,130.9112 C111,148.1034 111,166.959 111,182.8788 " fill="none" id="com.vaadin.server.ErrorHandler&lt;-com.hack23.cia.web.impl.ui.application.UiInstanceErrorHandler" style="stroke: #A80036; stroke-width: 1.0; stroke-dasharray: 7.0,7.0;"/><polygon fill="none" points="104.0001,130.7236,111,110.7236,118.0001,130.7236,104.0001,130.7236" style="stroke: #A80036; stroke-width: 1.0;"/><!--MD5=[3cbd752d428f94b5f79a6542eb4a7556]
reverse link com.vaadin.spring.server.SpringVaadinServlet to com.hack23.cia.web.impl.ui.application.CitizenIntelligenceAgencySpringVaadinServlet--><path d="M644.9345,121.699 C655.6126,141.1139 668.2117,164.0213 678.5601,182.8365 " fill="none" id="com.vaadin.spring.server.SpringVaadinServlet&lt;-com.hack23.cia.web.impl.ui.application.CitizenIntelligenceAgencySpringVaadinServlet" style="stroke: #A80036; stroke-width: 1.0;"/><polygon fill="none" points="638.7417,124.9646,635.2368,104.0669,651.0087,118.2177,638.7417,124.9646" style="stroke: #A80036; stroke-width: 1.0;"/><!--MD5=[edd4a2dd49baea3bc1a6d4a5079a4080]
reverse link com.vaadin.ui.UI to com.hack23.cia.web.impl.ui.application.CitizenIntelligenceAgencyUI--><path d="M1006,137.2538 C1006,155.0722 1006,174.0309 1006,189.2994 " fill="none" id="com.vaadin.ui.UI&lt;-com.hack23.cia.web.impl.ui.application.CitizenIntelligenceAgencyUI" style="stroke: #A80036; stroke-width: 1.0;"/><polygon fill="none" points="999.0001,137.1499,1006,117.1499,1013.0001,137.1498,999.0001,137.1499" style="stroke: #A80036; stroke-width: 1.0;"/><!--MD5=[2a1c52cfd4cd63ac57f2f117ad64a53e]
reverse link javax.servlet.http.HttpServlet to com.hack23.cia.web.impl.ui.application.CitizenIntelligenceAgencyHealthCheckServlet--><path d="M1309,124.0899 C1309,145.3312 1309,170.2786 1309,189.4048 " fill="none" id="javax.servlet.http.HttpServlet&lt;-com.hack23.cia.web.impl.ui.application.CitizenIntelligenceAgencyHealthCheckServlet" style="stroke: #A80036; stroke-width: 1.0;"/><polygon fill="none" points="1302.0001,124.0669,1309,104.0669,1316.0001,124.0668,1302.0001,124.0669" style="stroke: #A80036; stroke-width: 1.0;"/><!--MD5=[722b7e33811bf704cd88809d21657da7]
reverse link com.vaadin.spring.server.SpringUIProvider to com.hack23.cia.web.impl.ui.application.CustomSpringUIProvider--><path d="M413.6497,128.5401 C405.1176,144.2571 395.7181,161.5719 387.4141,176.8687 " fill="none" id="com.vaadin.spring.server.SpringUIProvider&lt;-com.hack23.cia.web.impl.ui.application.CustomSpringUIProvider" style="stroke: #A80036; stroke-width: 1.0;"/><polygon fill="none" points="407.6276,124.961,423.3215,110.7236,419.9316,131.6403,407.6276,124.961" style="stroke: #A80036; stroke-width: 1.0;"/><!--MD5=[02aeccac4594fb0f96c6f84b3ddb7cc7]
reverse link org.eclipse.jetty.servlet.DefaultServlet to com.hack23.cia.web.impl.ui.application.ResourceServlet--><path d="M1683,130.8248 C1683,150.4342 1683,172.219 1683,189.3481 " fill="none" id="org.eclipse.jetty.servlet.DefaultServlet&lt;-com.hack23.cia.web.impl.ui.application.ResourceServlet" style="stroke: #A80036; stroke-width: 1.0;"/><polygon fill="none" points="1676.0001,130.7236,1683,110.7236,1690.0001,130.7236,1676.0001,130.7236" style="stroke: #A80036; stroke-width: 1.0;"/><text fill="#888888" font-family="sans-serif" font-size="10" lengthAdjust="spacingAndGlyphs" textLength="186" x="945.5" y="298.2822">UMLDoclet 2.0.6, PlantUML 1.2019.12</text><!--MD5=[7f46bfb255e1336e6d9fff5a1da68169]
@startuml
    namespace com.hack23.cia.web.impl.ui.application {

        class VaadinSpringConfig [[VaadinSpringConfig.html]]

        class UiInstanceErrorHandler [[UiInstanceErrorHandler.html]] {
            +UiInstanceErrorHandler(UI)
            +error(ErrorEvent): void
        }

        class CitizenIntelligenceAgencySpringVaadinServlet [[CitizenIntelligenceAgencySpringVaadinServlet.html]] {
            #service(HttpServletRequest, HttpServletResponse): void
            #servletInitialized(): void
        }

        class CitizenIntelligenceAgencyUI [[CitizenIntelligenceAgencyUI.html]] {
            #init(VaadinRequest): void
        }

        class CitizenIntelligenceAgencyHealthCheckServlet [[CitizenIntelligenceAgencyHealthCheckServlet.html]] {
            +doGet(HttpServletRequest, HttpServletResponse): void
        }

        class CustomSpringUIProvider [[CustomSpringUIProvider.html]] {
            +CustomSpringUIProvider(VaadinSession)
            +createInstance(UICreateEvent): UI
            #findSpringViewDisplay(UI): Object
        }

        class ResourceServlet [[ResourceServlet.html]] {
            #service(HttpServletRequest, HttpServletResponse): void
        }

        com.vaadin.server.ErrorHandler <|.. UiInstanceErrorHandler
        com.vaadin.spring.server.SpringVaadinServlet <|- - CitizenIntelligenceAgencySpringVaadinServlet
        com.vaadin.ui.UI <|- - CitizenIntelligenceAgencyUI
        javax.servlet.http.HttpServlet <|- - CitizenIntelligenceAgencyHealthCheckServlet
        com.vaadin.spring.server.SpringUIProvider <|- - CustomSpringUIProvider
        org.eclipse.jetty.servlet.DefaultServlet <|- - ResourceServlet
    }

    namespace com.vaadin.server {
        interface ErrorHandler {
            {abstract} +error(ErrorEvent): void
        }
    }

    namespace com.vaadin.spring.server {
        class SpringVaadinServlet {
        }
        class SpringUIProvider {
            #logger: Logger
        }
    }

    namespace com.vaadin.ui {
        abstract class UI {
            #actionManager: ActionManager
            {abstract} #init(VaadinRequest): void
        }
    }

    namespace javax.servlet.http {
        abstract class HttpServlet {
        }
    }

    namespace org.eclipse.jetty.servlet {
        class DefaultServlet {
            {static} +CONTEXT_INIT: String
        }
    }

    center footer UMLDoclet 2.0.6, PlantUML 1.2019.12
@enduml

PlantUML version 1.2019.12(Sun Nov 03 11:24:54 CET 2019)
(APACHE source distribution)
Java Runtime: OpenJDK Runtime Environment
JVM: OpenJDK 64-Bit Server VM
Java Version: 11.0.5-ea+10-post-Ubuntu-0ubuntu1
Operating System: Linux
Default Encoding: UTF-8
Language: en
Country: US
--></g></svg>