<?xml version="1.0" encoding="UTF-8" standalone="no"?><svg xmlns="http://www.w3.org/2000/svg" xmlns:xlink="http://www.w3.org/1999/xlink" contentStyleType="text/css" height="286px" preserveAspectRatio="none" style="width:768px;height:286px;background:#FFFFFF;" version="1.1" viewBox="0 0 768 286" width="768px" zoomAndPan="magnify"><defs/><g><!--MD5=[25b8d044015bf3630d6e6ce3b0dbb38b]
cluster com.hack23.cia.web.impl.ui.application.views.user.govermentbody--><g id="cluster_com.hack23.cia.web.impl.ui.application.views.user.govermentbody"><path d="M8.5,129 L538.5,129 A3.75,3.75 0 0 1 541,131.5 L548,151.2969 L758.5,151.2969 A2.5,2.5 0 0 1 761,153.7969 L761,258.5 A2.5,2.5 0 0 1 758.5,261 L8.5,261 A2.5,2.5 0 0 1 6,258.5 L6,131.5 A2.5,2.5 0 0 1 8.5,129 " style="stroke:#000000;stroke-width:1.5;fill:none;"/><line style="stroke:#000000;stroke-width:1.5;fill:none;" x1="6" x2="548" y1="151.2969" y2="151.2969"/><text fill="#000000" font-family="sans-serif" font-size="14" font-weight="bold" lengthAdjust="spacing" textLength="529" x="10" y="143.9951">com.hack23.cia.web.impl.ui.application.views.user.govermentbody</text></g><!--MD5=[b6f7de69fe91c8bcc3328c73a6375d62]
cluster com.hack23.cia.web.impl.ui.application.views.user.common--><g id="cluster_com.hack23.cia.web.impl.ui.application.views.user.common"><path d="M131.5,6 L603.5,6 A3.75,3.75 0 0 1 606,8.5 L613,28.2969 L613.5,28.2969 A2.5,2.5 0 0 1 616,30.7969 L616,102.5 A2.5,2.5 0 0 1 613.5,105 L131.5,105 A2.5,2.5 0 0 1 129,102.5 L129,8.5 A2.5,2.5 0 0 1 131.5,6 " style="stroke:#000000;stroke-width:1.5;fill:none;"/><line style="stroke:#000000;stroke-width:1.5;fill:none;" x1="129" x2="613" y1="28.2969" y2="28.2969"/><text fill="#000000" font-family="sans-serif" font-size="14" font-weight="bold" lengthAdjust="spacing" textLength="471" x="133" y="20.9951">com.hack23.cia.web.impl.ui.application.views.user.common</text></g><!--MD5=[278919c15bcf07e98b1c4240d34ca198]
class com.hack23.cia.web.impl.ui.application.views.user.govermentbody.GovernmentBodyRankingView--><a href="GovernmentBodyRankingView.html" target="_top" title="GovernmentBodyRankingView.html" xlink:actuate="onRequest" xlink:href="GovernmentBodyRankingView.html" xlink:show="new" xlink:title="GovernmentBodyRankingView.html" xlink:type="simple"><g id="elem_com.hack23.cia.web.impl.ui.application.views.user.govermentbody.GovernmentBodyRankingView"><rect codeLine="3" fill="#F1F1F1" height="80.5938" id="com.hack23.cia.web.impl.ui.application.views.user.govermentbody.GovernmentBodyRankingView" rx="2.5" ry="2.5" style="stroke:#181818;stroke-width:0.5;" width="374" x="371" y="164"/><ellipse cx="449.25" cy="180" fill="#ADD1B2" rx="11" ry="11" style="stroke:#181818;stroke-width:1.0;"/><path d="M452.2188,185.6406 Q451.6406,185.9375 451,186.0781 Q450.3594,186.2344 449.6563,186.2344 Q447.1563,186.2344 445.8281,184.5938 Q444.5156,182.9375 444.5156,179.8125 Q444.5156,176.6875 445.8281,175.0313 Q447.1563,173.375 449.6563,173.375 Q450.3594,173.375 451,173.5313 Q451.6563,173.6875 452.2188,173.9844 L452.2188,176.7031 Q451.5938,176.125 451,175.8594 Q450.4063,175.5781 449.7813,175.5781 Q448.4375,175.5781 447.75,176.6563 Q447.0625,177.7188 447.0625,179.8125 Q447.0625,181.9063 447.75,182.9844 Q448.4375,184.0469 449.7813,184.0469 Q450.4063,184.0469 451,183.7813 Q451.5938,183.5 452.2188,182.9219 L452.2188,185.6406 Z " fill="#000000"/><text fill="#000000" font-family="sans-serif" font-size="14" lengthAdjust="spacing" textLength="209" x="469.75" y="184.8467">GovernmentBodyRankingView</text><line style="stroke:#181818;stroke-width:0.5;" x1="372" x2="744" y1="196" y2="196"/><ellipse cx="382" cy="207" fill="none" rx="3" ry="3" style="stroke:#038048;stroke-width:1.0;"/><text fill="#000000" font-family="sans-serif" font-size="14" lengthAdjust="spacing" text-decoration="underline" textLength="89" x="391" y="212.9951">NAME: String</text><line style="stroke:#181818;stroke-width:0.5;" x1="372" x2="744" y1="220.2969" y2="220.2969"/><ellipse cx="382" cy="231.2969" fill="#84BE84" rx="3" ry="3" style="stroke:#038048;stroke-width:1.0;"/><text fill="#000000" font-family="sans-serif" font-size="14" lengthAdjust="spacing" textLength="348" x="391" y="237.292">GovernmentBodyRankingView(ApplicationContext)</text></g></a><!--MD5=[a1d459cd20c0171c85c2e4dbc6e6f746]
class com.hack23.cia.web.impl.ui.application.views.user.govermentbody.GovernmenBodyView--><a href="GovernmenBodyView.html" target="_top" title="GovernmenBodyView.html" xlink:actuate="onRequest" xlink:href="GovernmenBodyView.html" xlink:show="new" xlink:title="GovernmenBodyView.html" xlink:type="simple"><g id="elem_com.hack23.cia.web.impl.ui.application.views.user.govermentbody.GovernmenBodyView"><rect codeLine="8" fill="#F1F1F1" height="80.5938" id="com.hack23.cia.web.impl.ui.application.views.user.govermentbody.GovernmenBodyView" rx="2.5" ry="2.5" style="stroke:#181818;stroke-width:0.5;" width="313" x="22.5" y="164"/><ellipse cx="100.75" cy="180" fill="#ADD1B2" rx="11" ry="11" style="stroke:#181818;stroke-width:1.0;"/><path d="M103.7188,185.6406 Q103.1406,185.9375 102.5,186.0781 Q101.8594,186.2344 101.1563,186.2344 Q98.6563,186.2344 97.3281,184.5938 Q96.0156,182.9375 96.0156,179.8125 Q96.0156,176.6875 97.3281,175.0313 Q98.6563,173.375 101.1563,173.375 Q101.8594,173.375 102.5,173.5313 Q103.1563,173.6875 103.7188,173.9844 L103.7188,176.7031 Q103.0938,176.125 102.5,175.8594 Q101.9063,175.5781 101.2813,175.5781 Q99.9375,175.5781 99.25,176.6563 Q98.5625,177.7188 98.5625,179.8125 Q98.5625,181.9063 99.25,182.9844 Q99.9375,184.0469 101.2813,184.0469 Q101.9063,184.0469 102.5,183.7813 Q103.0938,183.5 103.7188,182.9219 L103.7188,185.6406 Z " fill="#000000"/><text fill="#000000" font-family="sans-serif" font-size="14" lengthAdjust="spacing" textLength="148" x="121.25" y="184.8467">GovernmenBodyView</text><line style="stroke:#181818;stroke-width:0.5;" x1="23.5" x2="334.5" y1="196" y2="196"/><ellipse cx="33.5" cy="207" fill="none" rx="3" ry="3" style="stroke:#038048;stroke-width:1.0;"/><text fill="#000000" font-family="sans-serif" font-size="14" lengthAdjust="spacing" text-decoration="underline" textLength="89" x="42.5" y="212.9951">NAME: String</text><line style="stroke:#181818;stroke-width:0.5;" x1="23.5" x2="334.5" y1="220.2969" y2="220.2969"/><ellipse cx="33.5" cy="231.2969" fill="#84BE84" rx="3" ry="3" style="stroke:#038048;stroke-width:1.0;"/><text fill="#000000" font-family="sans-serif" font-size="14" lengthAdjust="spacing" textLength="287" x="42.5" y="237.292">GovernmenBodyView(ApplicationContext)</text></g></a><!--MD5=[391696cd44669b86b1fc88d08221bc08]
class com.hack23.cia.web.impl.ui.application.views.user.common.AbstractRankingView--><a href="../common/AbstractRankingView.html" target="_top" title="../common/AbstractRankingView.html" xlink:actuate="onRequest" xlink:href="../common/AbstractRankingView.html" xlink:show="new" xlink:title="../common/AbstractRankingView.html" xlink:type="simple"><g id="elem_com.hack23.cia.web.impl.ui.application.views.user.common.AbstractRankingView"><rect codeLine="18" fill="#F1F1F1" height="48" id="com.hack23.cia.web.impl.ui.application.views.user.common.AbstractRankingView" rx="2.5" ry="2.5" style="stroke:#181818;stroke-width:0.5;" width="178" x="383" y="41"/><ellipse cx="398" cy="57" fill="#A9DCDF" rx="11" ry="11" style="stroke:#181818;stroke-width:1.0;"/><path d="M398.1094,52.3438 L396.9531,57.4219 L399.2813,57.4219 L398.1094,52.3438 Z M396.625,50.1094 L399.6094,50.1094 L402.9688,62.5 L400.5156,62.5 L399.75,59.4375 L396.4688,59.4375 L395.7188,62.5 L393.2813,62.5 L396.625,50.1094 Z " fill="#000000"/><text fill="#000000" font-family="sans-serif" font-size="14" font-style="italic" lengthAdjust="spacing" textLength="146" x="412" y="61.8467">AbstractRankingView</text><line style="stroke:#181818;stroke-width:0.5;" x1="384" x2="560" y1="73" y2="73"/><line style="stroke:#181818;stroke-width:0.5;" x1="384" x2="560" y1="81" y2="81"/></g></a><!--MD5=[4d95a43774ca7342273458fa929c2e89]
class com.hack23.cia.web.impl.ui.application.views.user.common.AbstractGroupView--><a href="../common/AbstractGroupView.html" target="_top" title="../common/AbstractGroupView.html" xlink:actuate="onRequest" xlink:href="../common/AbstractGroupView.html" xlink:show="new" xlink:title="../common/AbstractGroupView.html" xlink:type="simple"><g id="elem_com.hack23.cia.web.impl.ui.application.views.user.common.AbstractGroupView"><rect codeLine="20" fill="#F1F1F1" height="48" id="com.hack23.cia.web.impl.ui.application.views.user.common.AbstractGroupView" rx="2.5" ry="2.5" style="stroke:#181818;stroke-width:0.5;" width="165" x="182.5" y="41"/><ellipse cx="197.5" cy="57" fill="#A9DCDF" rx="11" ry="11" style="stroke:#181818;stroke-width:1.0;"/><path d="M197.6094,52.3438 L196.4531,57.4219 L198.7813,57.4219 L197.6094,52.3438 Z M196.125,50.1094 L199.1094,50.1094 L202.4688,62.5 L200.0156,62.5 L199.25,59.4375 L195.9688,59.4375 L195.2188,62.5 L192.7813,62.5 L196.125,50.1094 Z " fill="#000000"/><text fill="#000000" font-family="sans-serif" font-size="14" font-style="italic" lengthAdjust="spacing" textLength="133" x="211.5" y="61.8467">AbstractGroupView</text><line style="stroke:#181818;stroke-width:0.5;" x1="183.5" x2="346.5" y1="73" y2="73"/><line style="stroke:#181818;stroke-width:0.5;" x1="183.5" x2="346.5" y1="81" y2="81"/></g></a><!--MD5=[2809ad78e3930f349728a956412d6630]
reverse link com.hack23.cia.web.impl.ui.application.views.user.common.AbstractRankingView to com.hack23.cia.web.impl.ui.application.views.user.govermentbody.GovernmentBodyRankingView--><g id="link_com.hack23.cia.web.impl.ui.application.views.user.common.AbstractRankingView_com.hack23.cia.web.impl.ui.application.views.user.govermentbody.GovernmentBodyRankingView"><path codeLine="13" d="M497.15,106.21 C508.53,124.41 521.94,145.85 533.27,163.97 " fill="none" id="com.hack23.cia.web.impl.ui.application.views.user.common.AbstractRankingView-backto-com.hack23.cia.web.impl.ui.application.views.user.govermentbody.GovernmentBodyRankingView" style="stroke:#181818;stroke-width:1.0;"/><polygon fill="none" points="491.07,109.68,486.39,89.01,502.93,102.26,491.07,109.68" style="stroke:#181818;stroke-width:1.0;"/></g><!--MD5=[2c61621b362ed9b14964581b5361ed39]
reverse link com.hack23.cia.web.impl.ui.application.views.user.common.AbstractGroupView to com.hack23.cia.web.impl.ui.application.views.user.govermentbody.GovernmenBodyView--><g id="link_com.hack23.cia.web.impl.ui.application.views.user.common.AbstractGroupView_com.hack23.cia.web.impl.ui.application.views.user.govermentbody.GovernmenBodyView"><path codeLine="14" d="M239.85,106.21 C228.47,124.41 215.06,145.85 203.73,163.97 " fill="none" id="com.hack23.cia.web.impl.ui.application.views.user.common.AbstractGroupView-backto-com.hack23.cia.web.impl.ui.application.views.user.govermentbody.GovernmenBodyView" style="stroke:#181818;stroke-width:1.0;"/><polygon fill="none" points="234.07,102.26,250.61,89.01,245.93,109.68,234.07,102.26" style="stroke:#181818;stroke-width:1.0;"/></g><rect height="11.6406" style="stroke:#00000000;stroke-width:1.0;fill:none;" width="186" x="284" y="267"/><text fill="#888888" font-family="sans-serif" font-size="10" lengthAdjust="spacing" textLength="186" x="284" y="276.2822">UMLDoclet 2.0.18, PlantUML 1.2022.6</text><!--MD5=[4e35c5f789969618670c939c037ddb03]
@startuml
    namespace com.hack23.cia.web.impl.ui.application.views.user.govermentbody {

        class GovernmentBodyRankingView [[GovernmentBodyRankingView.html]] {
            {static} +NAME: String
            +GovernmentBodyRankingView(ApplicationContext)
        }

        class GovernmenBodyView [[GovernmenBodyView.html]] {
            {static} +NAME: String
            +GovernmenBodyView(ApplicationContext)
        }

        com.hack23.cia.web.impl.ui.application.views.user.common.AbstractRankingView <|- - GovernmentBodyRankingView
        com.hack23.cia.web.impl.ui.application.views.user.common.AbstractGroupView <|- - GovernmenBodyView
    }

    namespace com.hack23.cia.web.impl.ui.application.views.user.common {
        abstract class AbstractRankingView [[../common/AbstractRankingView.html]] {
        }
        abstract class AbstractGroupView [[../common/AbstractGroupView.html]] {
        }
    }

    center footer UMLDoclet 2.0.18, PlantUML 1.2022.6
@enduml

PlantUML version 1.2022.6(Tue Jun 21 19:34:49 CEST 2022)
(APACHE source distribution)
Java Runtime: OpenJDK Runtime Environment
JVM: OpenJDK 64-Bit Server VM
Default Encoding: ANSI_X3.4-1968
Language: en
Country: US
--></g></svg>