<?xml version="1.0" encoding="UTF-8" standalone="no"?><svg xmlns="http://www.w3.org/2000/svg" xmlns:xlink="http://www.w3.org/1999/xlink" contentScriptType="application/ecmascript" contentStyleType="text/css" height="273px" preserveAspectRatio="none" style="width:651px;height:273px;" version="1.1" viewBox="0 0 651 273" width="651px" zoomAndPan="magnify"><defs><filter height="300%" id="fxqs6s9xoizy0" width="300%" x="-1" y="-1"><feGaussianBlur result="blurOut" stdDeviation="2.0"/><feColorMatrix in="blurOut" result="blurOut2" type="matrix" values="0 0 0 0 0 0 0 0 0 0 0 0 0 0 0 0 0 0 .4 0"/><feOffset dx="4.0" dy="4.0" in="blurOut2" result="blurOut3"/><feBlend in="SourceGraphic" in2="blurOut3" mode="normal"/></filter></defs><g><!--MD5=[25b8d044015bf3630d6e6ce3b0dbb38b]
cluster com.hack23.cia.web.impl.ui.application.views.user.govermentbody--><polygon fill="#FFFFFF" filter="url(#fxqs6s9xoizy0)" points="14,124,549,124,556,146.2969,629,146.2969,629,233,14,233,14,124" style="stroke: #000000; stroke-width: 1.5;"/><line style="stroke: #000000; stroke-width: 1.5;" x1="14" x2="556" y1="146.2969" y2="146.2969"/><text fill="#000000" font-family="sans-serif" font-size="14" font-weight="bold" lengthAdjust="spacingAndGlyphs" textLength="529" x="18" y="138.9951">com.hack23.cia.web.impl.ui.application.views.user.govermentbody</text><!--MD5=[b6f7de69fe91c8bcc3328c73a6375d62]
cluster com.hack23.cia.web.impl.ui.application.views.user.common--><polygon fill="#FFFFFF" filter="url(#fxqs6s9xoizy0)" points="87,16,564,16,571,38.2969,574,38.2969,574,99,87,99,87,16" style="stroke: #000000; stroke-width: 1.5;"/><line style="stroke: #000000; stroke-width: 1.5;" x1="87" x2="571" y1="38.2969" y2="38.2969"/><text fill="#000000" font-family="sans-serif" font-size="14" font-weight="bold" lengthAdjust="spacingAndGlyphs" textLength="471" x="91" y="30.9951">com.hack23.cia.web.impl.ui.application.views.user.common</text><!--MD5=[a1d459cd20c0171c85c2e4dbc6e6f746]
class com.hack23.cia.web.impl.ui.application.views.user.govermentbody.GovernmenBodyView--><a href="GovernmenBodyView.html" target="_top" title="GovernmenBodyView.html" xlink:actuate="onRequest" xlink:href="GovernmenBodyView.html" xlink:show="new" xlink:title="GovernmenBodyView.html" xlink:type="simple"><rect fill="#FEFECE" filter="url(#fxqs6s9xoizy0)" height="73.6094" id="com.hack23.cia.web.impl.ui.application.views.user.govermentbody.GovernmenBodyView" style="stroke: #A80036; stroke-width: 1.5;" width="258" x="363" y="151"/><ellipse cx="423.25" cy="167" fill="#ADD1B2" rx="11" ry="11" style="stroke: #A80036; stroke-width: 1.0;"/><path d="M426.2188,172.6406 Q425.6406,172.9375 425,173.0781 Q424.3594,173.2344 423.6563,173.2344 Q421.1563,173.2344 419.8281,171.5938 Q418.5156,169.9375 418.5156,166.8125 Q418.5156,163.6875 419.8281,162.0313 Q421.1563,160.375 423.6563,160.375 Q424.3594,160.375 425,160.5313 Q425.6563,160.6875 426.2188,160.9844 L426.2188,163.7031 Q425.5938,163.125 425,162.8594 Q424.4063,162.5781 423.7813,162.5781 Q422.4375,162.5781 421.75,163.6563 Q421.0625,164.7188 421.0625,166.8125 Q421.0625,168.9063 421.75,169.9844 Q422.4375,171.0469 423.7813,171.0469 Q424.4063,171.0469 425,170.7813 Q425.5938,170.5 426.2188,169.9219 L426.2188,172.6406 Z "/><text fill="#000000" font-family="sans-serif" font-size="12" lengthAdjust="spacingAndGlyphs" textLength="129" x="443.75" y="171.1543">GovernmenBodyView</text><line style="stroke: #A80036; stroke-width: 1.5;" x1="364" x2="620" y1="183" y2="183"/><ellipse cx="374" cy="194" fill="none" rx="3" ry="3" style="stroke: #038048; stroke-width: 1.0;"/><text fill="#000000" font-family="sans-serif" font-size="11" lengthAdjust="spacingAndGlyphs" text-decoration="underline" textLength="73" x="383" y="197.2104">NAME: String</text><line style="stroke: #A80036; stroke-width: 1.5;" x1="364" x2="620" y1="203.8047" y2="203.8047"/><ellipse cx="374" cy="214.8047" fill="#84BE84" rx="3" ry="3" style="stroke: #038048; stroke-width: 1.0;"/><text fill="#000000" font-family="sans-serif" font-size="11" lengthAdjust="spacingAndGlyphs" textLength="232" x="383" y="218.0151">GovernmenBodyView(ApplicationContext)</text></a><!--MD5=[278919c15bcf07e98b1c4240d34ca198]
class com.hack23.cia.web.impl.ui.application.views.user.govermentbody.GovernmentBodyRankingView--><a href="GovernmentBodyRankingView.html" target="_top" title="GovernmentBodyRankingView.html" xlink:actuate="onRequest" xlink:href="GovernmentBodyRankingView.html" xlink:show="new" xlink:title="GovernmentBodyRankingView.html" xlink:type="simple"><rect fill="#FEFECE" filter="url(#fxqs6s9xoizy0)" height="73.6094" id="com.hack23.cia.web.impl.ui.application.views.user.govermentbody.GovernmentBodyRankingView" style="stroke: #A80036; stroke-width: 1.5;" width="306" x="22" y="151"/><ellipse cx="78.75" cy="167" fill="#ADD1B2" rx="11" ry="11" style="stroke: #A80036; stroke-width: 1.0;"/><path d="M81.7188,172.6406 Q81.1406,172.9375 80.5,173.0781 Q79.8594,173.2344 79.1563,173.2344 Q76.6563,173.2344 75.3281,171.5938 Q74.0156,169.9375 74.0156,166.8125 Q74.0156,163.6875 75.3281,162.0313 Q76.6563,160.375 79.1563,160.375 Q79.8594,160.375 80.5,160.5313 Q81.1563,160.6875 81.7188,160.9844 L81.7188,163.7031 Q81.0938,163.125 80.5,162.8594 Q79.9063,162.5781 79.2813,162.5781 Q77.9375,162.5781 77.25,163.6563 Q76.5625,164.7188 76.5625,166.8125 Q76.5625,168.9063 77.25,169.9844 Q77.9375,171.0469 79.2813,171.0469 Q79.9063,171.0469 80.5,170.7813 Q81.0938,170.5 81.7188,169.9219 L81.7188,172.6406 Z "/><text fill="#000000" font-family="sans-serif" font-size="12" lengthAdjust="spacingAndGlyphs" textLength="184" x="99.25" y="171.1543">GovernmentBodyRankingView</text><line style="stroke: #A80036; stroke-width: 1.5;" x1="23" x2="327" y1="183" y2="183"/><ellipse cx="33" cy="194" fill="none" rx="3" ry="3" style="stroke: #038048; stroke-width: 1.0;"/><text fill="#000000" font-family="sans-serif" font-size="11" lengthAdjust="spacingAndGlyphs" text-decoration="underline" textLength="73" x="42" y="197.2104">NAME: String</text><line style="stroke: #A80036; stroke-width: 1.5;" x1="23" x2="327" y1="203.8047" y2="203.8047"/><ellipse cx="33" cy="214.8047" fill="#84BE84" rx="3" ry="3" style="stroke: #038048; stroke-width: 1.0;"/><text fill="#000000" font-family="sans-serif" font-size="11" lengthAdjust="spacingAndGlyphs" textLength="280" x="42" y="218.0151">GovernmentBodyRankingView(ApplicationContext)</text></a><!--MD5=[4d95a43774ca7342273458fa929c2e89]
class com.hack23.cia.web.impl.ui.application.views.user.common.AbstractGroupView--><a href="../common/AbstractGroupView.html" target="_top" title="../common/AbstractGroupView.html" xlink:actuate="onRequest" xlink:href="../common/AbstractGroupView.html" xlink:show="new" xlink:title="../common/AbstractGroupView.html" xlink:type="simple"><rect fill="#FEFECE" filter="url(#fxqs6s9xoizy0)" height="48" id="com.hack23.cia.web.impl.ui.application.views.user.common.AbstractGroupView" style="stroke: #A80036; stroke-width: 1.5;" width="151" x="414.5" y="43"/><ellipse cx="429.5" cy="59" fill="#A9DCDF" rx="11" ry="11" style="stroke: #A80036; stroke-width: 1.0;"/><path d="M429.6094,54.3438 L428.4531,59.4219 L430.7813,59.4219 L429.6094,54.3438 Z M428.125,52.1094 L431.1094,52.1094 L434.4688,64.5 L432.0156,64.5 L431.25,61.4375 L427.9688,61.4375 L427.2188,64.5 L424.7813,64.5 L428.125,52.1094 Z "/><text fill="#000000" font-family="sans-serif" font-size="12" font-style="italic" lengthAdjust="spacingAndGlyphs" textLength="119" x="443.5" y="63.1543">AbstractGroupView</text><line style="stroke: #A80036; stroke-width: 1.5;" x1="415.5" x2="564.5" y1="75" y2="75"/><line style="stroke: #A80036; stroke-width: 1.5;" x1="415.5" x2="564.5" y1="83" y2="83"/></a><!--MD5=[391696cd44669b86b1fc88d08221bc08]
class com.hack23.cia.web.impl.ui.application.views.user.common.AbstractRankingView--><a href="../common/AbstractRankingView.html" target="_top" title="../common/AbstractRankingView.html" xlink:actuate="onRequest" xlink:href="../common/AbstractRankingView.html" xlink:show="new" xlink:title="../common/AbstractRankingView.html" xlink:type="simple"><rect fill="#FEFECE" filter="url(#fxqs6s9xoizy0)" height="48" id="com.hack23.cia.web.impl.ui.application.views.user.common.AbstractRankingView" style="stroke: #A80036; stroke-width: 1.5;" width="163" x="95.5" y="43"/><ellipse cx="110.5" cy="59" fill="#A9DCDF" rx="11" ry="11" style="stroke: #A80036; stroke-width: 1.0;"/><path d="M110.6094,54.3438 L109.4531,59.4219 L111.7813,59.4219 L110.6094,54.3438 Z M109.125,52.1094 L112.1094,52.1094 L115.4688,64.5 L113.0156,64.5 L112.25,61.4375 L108.9688,61.4375 L108.2188,64.5 L105.7813,64.5 L109.125,52.1094 Z "/><text fill="#000000" font-family="sans-serif" font-size="12" font-style="italic" lengthAdjust="spacingAndGlyphs" textLength="131" x="124.5" y="63.1543">AbstractRankingView</text><line style="stroke: #A80036; stroke-width: 1.5;" x1="96.5" x2="257.5" y1="75" y2="75"/><line style="stroke: #A80036; stroke-width: 1.5;" x1="96.5" x2="257.5" y1="83" y2="83"/></a><!--MD5=[2c61621b362ed9b14964581b5361ed39]
reverse link com.hack23.cia.web.impl.ui.application.views.user.common.AbstractGroupView to com.hack23.cia.web.impl.ui.application.views.user.govermentbody.GovernmenBodyView--><path d="M490.7364,111.5529 C490.9506,124.5142 491.1823,138.5269 491.388,150.9716 " fill="none" id="com.hack23.cia.web.impl.ui.application.views.user.common.AbstractGroupView&lt;-com.hack23.cia.web.impl.ui.application.views.user.govermentbody.GovernmenBodyView" style="stroke: #A80036; stroke-width: 1.0;"/><polygon fill="none" points="483.7315,111.3083,490.3999,91.1953,497.7296,111.0769,483.7315,111.3083" style="stroke: #A80036; stroke-width: 1.0;"/><!--MD5=[2809ad78e3930f349728a956412d6630]
reverse link com.hack23.cia.web.impl.ui.application.views.user.common.AbstractRankingView to com.hack23.cia.web.impl.ui.application.views.user.govermentbody.GovernmentBodyRankingView--><path d="M176.2636,111.5529 C176.0494,124.5142 175.8177,138.5269 175.612,150.9716 " fill="none" id="com.hack23.cia.web.impl.ui.application.views.user.common.AbstractRankingView&lt;-com.hack23.cia.web.impl.ui.application.views.user.govermentbody.GovernmentBodyRankingView" style="stroke: #A80036; stroke-width: 1.0;"/><polygon fill="none" points="169.2704,111.0769,176.6001,91.1953,183.2685,111.3083,169.2704,111.0769" style="stroke: #A80036; stroke-width: 1.0;"/><text fill="#888888" font-family="sans-serif" font-size="10" lengthAdjust="spacingAndGlyphs" textLength="186" x="234.5" y="260.2822">UMLDoclet 2.0.7, PlantUML 1.2019.12</text><!--MD5=[c5a0dbd765b848c9be58b09db56a2d68]
@startuml
    namespace com.hack23.cia.web.impl.ui.application.views.user.govermentbody {

        class GovernmenBodyView [[GovernmenBodyView.html]] {
            {static} +NAME: String
            +GovernmenBodyView(ApplicationContext)
        }

        class GovernmentBodyRankingView [[GovernmentBodyRankingView.html]] {
            {static} +NAME: String
            +GovernmentBodyRankingView(ApplicationContext)
        }

        com.hack23.cia.web.impl.ui.application.views.user.common.AbstractGroupView <|- - GovernmenBodyView
        com.hack23.cia.web.impl.ui.application.views.user.common.AbstractRankingView <|- - GovernmentBodyRankingView
    }

    namespace com.hack23.cia.web.impl.ui.application.views.user.common {
        abstract class AbstractGroupView [[../common/AbstractGroupView.html]] {
        }
        abstract class AbstractRankingView [[../common/AbstractRankingView.html]] {
        }
    }

    center footer UMLDoclet 2.0.7, PlantUML 1.2019.12
@enduml

PlantUML version 1.2019.12(Sun Nov 03 11:24:54 CET 2019)
(APACHE source distribution)
Java Runtime: OpenJDK Runtime Environment
JVM: OpenJDK 64-Bit Server VM
Java Version: 11.0.6+10-post-Ubuntu-1ubuntu119.10.1
Operating System: Linux
Default Encoding: UTF-8
Language: en
Country: US
--></g></svg>