<svg xmlns="http://www.w3.org/2000/svg" xmlns:xlink="http://www.w3.org/1999/xlink" contentStyleType="text/css" height="236px" preserveAspectRatio="none" style="width:443px;height:236px;background:#FFFFFF;" version="1.1" viewBox="0 0 443 236" width="443px" zoomAndPan="magnify"><defs/><g><!--class com.hack23.cia.web.impl.ui.application.views.user.document.pagemode.DocumentDetailsPageModContentFactoryImpl--><a href="DocumentDetailsPageModContentFactoryImpl.html" target="_top" title="DocumentDetailsPageModContentFactoryImpl.html" xlink:actuate="onRequest" xlink:href="DocumentDetailsPageModContentFactoryImpl.html" xlink:show="new" xlink:title="DocumentDetailsPageModContentFactoryImpl.html" xlink:type="simple"><g id="elem_com.hack23.cia.web.impl.ui.application.views.user.document.pagemode.DocumentDetailsPageModContentFactoryImpl"><rect codeLine="13" fill="#F1F1F1" height="88.8237" id="com.hack23.cia.web.impl.ui.application.views.user.document.pagemode.DocumentDetailsPageModContentFactoryImpl" rx="2.5" ry="2.5" style="stroke:#181818;stroke-width:0.5;" width="371.7197" x="33" y="118"/><ellipse cx="48" cy="139.344" fill="#ADD1B2" rx="11" ry="11" style="stroke:#181818;stroke-width:1.0;"/><path d="M50.9688,144.9846 Q50.3906,145.2815 49.75,145.4221 Q49.1094,145.5783 48.4063,145.5783 Q45.9063,145.5783 44.5781,143.9377 Q43.2656,142.2815 43.2656,139.1565 Q43.2656,136.0315 44.5781,134.3752 Q45.9063,132.719 48.4063,132.719 Q49.1094,132.719 49.75,132.8752 Q50.4063,133.0315 50.9688,133.3283 L50.9688,136.0471 Q50.3438,135.469 49.75,135.2033 Q49.1563,134.9221 48.5313,134.9221 Q47.1875,134.9221 46.5,136.0002 Q45.8125,137.0627 45.8125,139.1565 Q45.8125,141.2502 46.5,142.3283 Q47.1875,143.3908 48.5313,143.3908 Q49.1563,143.3908 49.75,143.1252 Q50.3438,142.844 50.9688,142.2658 L50.9688,144.9846 Z " fill="#000000"/><text fill="#000000" font-family="sans-serif" font-size="14" lengthAdjust="spacing" textLength="307.2849" x="78.2174" y="137.9659">DocumentDetailsPageModContentFactoryImpl</text><text fill="#000000" font-family="sans-serif" font-size="10" lengthAdjust="spacing" textLength="339.7197" x="62" y="152.7579">com.hack23.cia.web.impl.ui.application.views.user.document.pagemode</text><line style="stroke:#181818;stroke-width:0.5;" x1="34" x2="403.7197" y1="160.6879" y2="160.6879"/><ellipse cx="44" cy="175.7219" fill="#84BE84" rx="3" ry="3" style="stroke:#038048;stroke-width:1.0;"/><text fill="#000000" font-family="sans-serif" font-size="14" lengthAdjust="spacing" textLength="305.4228" x="53" y="179.6538">createContent(String, MenuBar, Panel): Layout</text><ellipse cx="44" cy="194.7898" fill="#84BE84" rx="3" ry="3" style="stroke:#038048;stroke-width:1.0;"/><text fill="#000000" font-family="sans-serif" font-size="14" lengthAdjust="spacing" textLength="211.5112" x="53" y="198.7218">matches(String, String): boolean</text></g></a><!--class com.hack23.cia.web.impl.ui.application.views.common.pagemode.AbstractItemPageModContentFactoryImpl--><a href="../../../common/pagemode/AbstractItemPageModContentFactoryImpl.html" target="_top" title="../../../common/pagemode/AbstractItemPageModContentFactoryImpl.html" xlink:actuate="onRequest" xlink:href="../../../common/pagemode/AbstractItemPageModContentFactoryImpl.html" xlink:show="new" xlink:title="../../../common/pagemode/AbstractItemPageModContentFactoryImpl.html" xlink:type="simple"><g id="elem_com.hack23.cia.web.impl.ui.application.views.common.pagemode.AbstractItemPageModContentFactoryImpl"><rect codeLine="18" fill="#F1F1F1" height="69.7558" id="com.hack23.cia.web.impl.ui.application.views.common.pagemode.AbstractItemPageModContentFactoryImpl" rx="2.5" ry="2.5" style="stroke:#181818;stroke-width:0.5;" width="426.2563" x="6" y="12"/><ellipse cx="21" cy="33.344" fill="#A9DCDF" rx="11" ry="11" style="stroke:#181818;stroke-width:1.0;"/><path d="M21.1094,28.6877 L19.9531,33.7658 L22.2813,33.7658 L21.1094,28.6877 Z M19.625,26.4533 L22.6094,26.4533 L25.9688,38.844 L23.5156,38.844 L22.75,35.7815 L19.4688,35.7815 L18.7188,38.844 L16.2813,38.844 L19.625,26.4533 Z " fill="#000000"/><text fill="#000000" font-family="sans-serif" font-size="14" font-style="italic" lengthAdjust="spacing" textLength="261.057" x="50.9813" y="31.9659">AbstractItemPageModContentFactoryImpl</text><text fill="#000000" font-family="sans-serif" font-size="10" font-style="italic" lengthAdjust="spacing" textLength="293.0197" x="35" y="46.7579">com.hack23.cia.web.impl.ui.application.views.common.pagemode</text><rect fill="#FFFFFF" height="18.3441" style="stroke:#181818;stroke-width:1.0;stroke-dasharray:2.0,2.0;" width="99.2366" x="336.0197" y="9"/><text fill="#000000" font-family="sans-serif" font-size="12" font-style="italic" lengthAdjust="spacing" textLength="97.2366" x="337.0197" y="22.8281">DocumentElement</text><line style="stroke:#181818;stroke-width:0.5;" x1="7" x2="431.2563" y1="54.6879" y2="54.6879"/><polygon fill="#FFFF44" points="17,64.7219,21,68.7219,17,72.7219,13,68.7219" style="stroke:#B38D22;stroke-width:1.0;"/><text fill="#000000" font-family="sans-serif" font-size="14" font-style="italic" lengthAdjust="spacing" textLength="214.0592" x="26" y="73.6538">getItem(String): DocumentElement</text></g></a><polygon fill="none" points="219,82.0537,213,100.0537,225,100.0537,219,82.0537" style="stroke:#181818;stroke-width:1.0;"/><path d="M219,100.0537 C219,111.2849 219,105.9359 219,117.7854 " fill="none" style="stroke:#181818;stroke-width:1.0;"/><text fill="#888888" font-family="sans-serif" font-size="10" lengthAdjust="spacing" textLength="2.6" x="214.2" y="211.69">&#160;</text><a href="https://github.com/talsma-ict/umldoclet" target="_top" title="https://github.com/talsma-ict/umldoclet" xlink:actuate="onRequest" xlink:href="https://github.com/talsma-ict/umldoclet" xlink:show="new" xlink:title="https://github.com/talsma-ict/umldoclet" xlink:type="simple"><text fill="#888888" font-family="sans-serif" font-size="10" lengthAdjust="spacing" textLength="76.7199" x="177.14" y="225.31">UMLDoclet 2.2.1</text></a><!--SRC=[lLLDJzj04BtpAwPmQ139sWcqG1H5IaC_g8A4cd0AEMpMWxtAUjVTNODIod_l-2CX3Jr45QrbQUNPcJSpxut6001lOMYofPLnui4Ry8bqS7Cr0guZY56ZvHuZa2cFqS4SbT6ngnmHUEuJOy7SbL_2M8ikCpgIEeQl_9w3CxaLwDZU7fIf9Ylq1-usqEVBmdXXX48FZU7XHacTiFs-rGaxxs32bKivN0udh4PxZkcm3ci3OIifK3k2p7M4jYnha751nwYwQS8zMYUDffYmnYbQ5KPxBhM3Z5llYfQk5TU-gBNDAFy9EuN6O3pwlRRmlAoj2GEhUHx1D_CzNxVx9hCyfeeLNvhSWqlHSyshEqT5QvuINLpW62afzyIaDXhB-qH629XcVWbt4bNajgq4bXWobtQXk7EmttFo1tRR9trY9KzH-mlAA9Mx9kskJ3Ia5iduYGjAjRnCCtMhwv2mBqpA4YuMdMCc96SFE6UIF5Wk6SyoefLx8etTItnmB7TeMLGdOHd1foR2VI1HNm67xLe-JAUxkhB4fsesWyUIh-8v4XPf-6hNnjXRcjecNA7EFt3RX6kkKHrsOLIgznoMSa_ZvDO1rKcESsCKSbrwFbMwyBdpbefu8T2WlhZqcBwwEkISqiVVox85m7QgjhUIugF2ukYJEem5rLiX1Yl4O2V4bvezhWXzWeCOo-Z6cl-j_9iw_FlkeVUprVglmrzrrdD-gR2_PkZE64zxxvcoulcopD2Ef5uCZQ8bSt3svzkROcKggP6sj5Xef8aDrvvFLRfW8r-TwrPFfudtcUi6GInzaiyB2WDVhkkM53x8KnLLUtfhOyzczGR-lFuL5Ekq5PwssiUJTaYZtmtFMJiy2K_fFt1s57QwOJZzc5kJOJ3sHYmIezBPBm00]--></g></svg>