<svg xmlns="http://www.w3.org/2000/svg" xmlns:xlink="http://www.w3.org/1999/xlink" contentStyleType="text/css" data-diagram-type="CLASS" height="278px" preserveAspectRatio="none" style="width:3470px;height:278px;background:#FFFFFF;" version="1.1" viewBox="0 0 3470 278" width="3470px" zoomAndPan="magnify"><defs/><g><!--cluster com.hack23.cia.web.impl.ui.application.views.user.document.pagemode--><g class="cluster" data-entity="com.hack23.cia.web.impl.ui.application.views.user.document.pagemode" data-source-line="10" data-uid="ent0002" id="cluster_com.hack23.cia.web.impl.ui.application.views.user.document.pagemode"><path d="M16.5,117 L524.256,117 A3.75,3.75 0 0 1 526.756,119.5 L533.756,142.0679 L3460.5,142.0679 A2.5,2.5 0 0 1 3463,144.5679 L3463,238.5 A2.5,2.5 0 0 1 3460.5,241 L16.5,241 A2.5,2.5 0 0 1 14,238.5 L14,119.5 A2.5,2.5 0 0 1 16.5,117" fill="none" style="stroke:#000000;stroke-width:1.5;"/><line style="stroke:#000000;stroke-width:1.5;" x1="14" x2="533.756" y1="142.0679" y2="142.0679"/><text fill="#000000" font-family="sans-serif" font-size="14" font-weight="bold" lengthAdjust="spacing" textLength="506.756" x="18" y="133.9659">com.hack23.cia.web.impl.ui.application.views.user.document.pagemode</text></g><!--cluster com.hack23.cia.web.impl.ui.application.views.common.pagemode--><g class="cluster" data-entity="com.hack23.cia.web.impl.ui.application.views.common.pagemode" data-source-line="59" data-uid="ent0012" id="cluster_com.hack23.cia.web.impl.ui.application.views.common.pagemode"><path d="M1426.5,4 L1889.4841,4 A3.75,3.75 0 0 1 1891.9841,6.5 L1898.9841,29.0679 L1898.5,29.0679 A2.5,2.5 0 0 1 1901,31.5679 L1901,106.5 A2.5,2.5 0 0 1 1898.5,109 L1426.5,109 A2.5,2.5 0 0 1 1424,106.5 L1424,6.5 A2.5,2.5 0 0 1 1426.5,4" fill="none" style="stroke:#000000;stroke-width:1.5;"/><line style="stroke:#000000;stroke-width:1.5;" x1="1424" x2="1898.9841" y1="29.0679" y2="29.0679"/><text fill="#000000" font-family="sans-serif" font-size="14" font-weight="bold" lengthAdjust="spacing" textLength="461.9841" x="1428" y="20.9659">com.hack23.cia.web.impl.ui.application.views.common.pagemode</text></g><!--class DocumentDecisionPageModContentFactoryImpl--><g class="entity" data-entity="DocumentDecisionPageModContentFactoryImpl" data-source-line="12" data-uid="ent0003" id="entity_DocumentDecisionPageModContentFactoryImpl"><a href="DocumentDecisionPageModContentFactoryImpl.html" target="_top" title="DocumentDecisionPageModContentFactoryImpl.html" xlink:actuate="onRequest" xlink:href="DocumentDecisionPageModContentFactoryImpl.html" xlink:show="new" xlink:title="DocumentDecisionPageModContentFactoryImpl.html" xlink:type="simple"><rect fill="#F1F1F1" height="86.1358" rx="2.5" ry="2.5" style="stroke:#181818;stroke-width:0.5;" width="350.2188" x="3105" y="147"/><ellipse cx="3120" cy="163" fill="#ADD1B2" rx="11" ry="11" style="stroke:#181818;stroke-width:1;"/><path d="M3122.9688,168.6406 Q3122.3906,168.9375 3121.75,169.0781 Q3121.1094,169.2344 3120.4063,169.2344 Q3117.9063,169.2344 3116.5781,167.5938 Q3115.2656,165.9375 3115.2656,162.8125 Q3115.2656,159.6875 3116.5781,158.0313 Q3117.9063,156.375 3120.4063,156.375 Q3121.1094,156.375 3121.75,156.5313 Q3122.4063,156.6875 3122.9688,156.9844 L3122.9688,159.7031 Q3122.3438,159.125 3121.75,158.8594 Q3121.1563,158.5781 3120.5313,158.5781 Q3119.1875,158.5781 3118.5,159.6563 Q3117.8125,160.7188 3117.8125,162.8125 Q3117.8125,164.9063 3118.5,165.9844 Q3119.1875,167.0469 3120.5313,167.0469 Q3121.1563,167.0469 3121.75,166.7813 Q3122.3438,166.5 3122.9688,165.9219 L3122.9688,168.6406 Z " fill="#000000"/><text fill="#000000" font-family="sans-serif" font-size="14" lengthAdjust="spacing" textLength="318.2188" x="3134" y="168.432">DocumentDecisionPageModContentFactoryImpl</text><line style="stroke:#181818;stroke-width:0.5;" x1="3106" x2="3454.2188" y1="179" y2="179"/><line style="stroke:#181818;stroke-width:0.5;" x1="3106" x2="3454.2188" y1="187" y2="187"/><ellipse cx="3116" cy="202.034" fill="#84BE84" rx="3" ry="3" style="stroke:#038048;stroke-width:1;"/><text fill="#000000" font-family="sans-serif" font-size="14" lengthAdjust="spacing" textLength="305.4228" x="3125" y="205.9659">createContent(String, MenuBar, Panel): Layout</text><ellipse cx="3116" cy="221.1019" fill="#84BE84" rx="3" ry="3" style="stroke:#038048;stroke-width:1;"/><text fill="#000000" font-family="sans-serif" font-size="14" lengthAdjust="spacing" textLength="211.5112" x="3125" y="225.0339">matches(String, String): boolean</text></a></g><!--class DocumentPageVisitHistoryPageModContentFactoryImpl--><g class="entity" data-entity="DocumentPageVisitHistoryPageModContentFactoryImpl" data-source-line="17" data-uid="ent0004" id="entity_DocumentPageVisitHistoryPageModContentFactoryImpl"><a href="DocumentPageVisitHistoryPageModContentFactoryImpl.html" target="_top" title="DocumentPageVisitHistoryPageModContentFactoryImpl.html" xlink:actuate="onRequest" xlink:href="DocumentPageVisitHistoryPageModContentFactoryImpl.html" xlink:show="new" xlink:title="DocumentPageVisitHistoryPageModContentFactoryImpl.html" xlink:type="simple"><rect fill="#F1F1F1" height="86.1358" rx="2.5" ry="2.5" style="stroke:#181818;stroke-width:0.5;" width="401.6826" x="2685" y="147"/><ellipse cx="2700" cy="163" fill="#ADD1B2" rx="11" ry="11" style="stroke:#181818;stroke-width:1;"/><path d="M2702.9688,168.6406 Q2702.3906,168.9375 2701.75,169.0781 Q2701.1094,169.2344 2700.4063,169.2344 Q2697.9063,169.2344 2696.5781,167.5938 Q2695.2656,165.9375 2695.2656,162.8125 Q2695.2656,159.6875 2696.5781,158.0313 Q2697.9063,156.375 2700.4063,156.375 Q2701.1094,156.375 2701.75,156.5313 Q2702.4063,156.6875 2702.9688,156.9844 L2702.9688,159.7031 Q2702.3438,159.125 2701.75,158.8594 Q2701.1563,158.5781 2700.5313,158.5781 Q2699.1875,158.5781 2698.5,159.6563 Q2697.8125,160.7188 2697.8125,162.8125 Q2697.8125,164.9063 2698.5,165.9844 Q2699.1875,167.0469 2700.5313,167.0469 Q2701.1563,167.0469 2701.75,166.7813 Q2702.3438,166.5 2702.9688,165.9219 L2702.9688,168.6406 Z " fill="#000000"/><text fill="#000000" font-family="sans-serif" font-size="14" lengthAdjust="spacing" textLength="369.6826" x="2714" y="168.432">DocumentPageVisitHistoryPageModContentFactoryImpl</text><line style="stroke:#181818;stroke-width:0.5;" x1="2686" x2="3085.6826" y1="179" y2="179"/><line style="stroke:#181818;stroke-width:0.5;" x1="2686" x2="3085.6826" y1="187" y2="187"/><ellipse cx="2696" cy="202.034" fill="#84BE84" rx="3" ry="3" style="stroke:#038048;stroke-width:1;"/><text fill="#000000" font-family="sans-serif" font-size="14" lengthAdjust="spacing" textLength="305.4228" x="2705" y="205.9659">createContent(String, MenuBar, Panel): Layout</text><ellipse cx="2696" cy="221.1019" fill="#84BE84" rx="3" ry="3" style="stroke:#038048;stroke-width:1;"/><text fill="#000000" font-family="sans-serif" font-size="14" lengthAdjust="spacing" textLength="211.5112" x="2705" y="225.0339">matches(String, String): boolean</text></a></g><!--class DocumentAttachementsPageModContentFactoryImpl--><g class="entity" data-entity="DocumentAttachementsPageModContentFactoryImpl" data-source-line="22" data-uid="ent0005" id="entity_DocumentAttachementsPageModContentFactoryImpl"><a href="DocumentAttachementsPageModContentFactoryImpl.html" target="_top" title="DocumentAttachementsPageModContentFactoryImpl.html" xlink:actuate="onRequest" xlink:href="DocumentAttachementsPageModContentFactoryImpl.html" xlink:show="new" xlink:title="DocumentAttachementsPageModContentFactoryImpl.html" xlink:type="simple"><rect fill="#F1F1F1" height="86.1358" rx="2.5" ry="2.5" style="stroke:#181818;stroke-width:0.5;" width="385.9047" x="2281" y="147"/><ellipse cx="2296" cy="163" fill="#ADD1B2" rx="11" ry="11" style="stroke:#181818;stroke-width:1;"/><path d="M2298.9688,168.6406 Q2298.3906,168.9375 2297.75,169.0781 Q2297.1094,169.2344 2296.4063,169.2344 Q2293.9063,169.2344 2292.5781,167.5938 Q2291.2656,165.9375 2291.2656,162.8125 Q2291.2656,159.6875 2292.5781,158.0313 Q2293.9063,156.375 2296.4063,156.375 Q2297.1094,156.375 2297.75,156.5313 Q2298.4063,156.6875 2298.9688,156.9844 L2298.9688,159.7031 Q2298.3438,159.125 2297.75,158.8594 Q2297.1563,158.5781 2296.5313,158.5781 Q2295.1875,158.5781 2294.5,159.6563 Q2293.8125,160.7188 2293.8125,162.8125 Q2293.8125,164.9063 2294.5,165.9844 Q2295.1875,167.0469 2296.5313,167.0469 Q2297.1563,167.0469 2297.75,166.7813 Q2298.3438,166.5 2298.9688,165.9219 L2298.9688,168.6406 Z " fill="#000000"/><text fill="#000000" font-family="sans-serif" font-size="14" lengthAdjust="spacing" textLength="353.9047" x="2310" y="168.432">DocumentAttachementsPageModContentFactoryImpl</text><line style="stroke:#181818;stroke-width:0.5;" x1="2282" x2="2665.9047" y1="179" y2="179"/><line style="stroke:#181818;stroke-width:0.5;" x1="2282" x2="2665.9047" y1="187" y2="187"/><ellipse cx="2292" cy="202.034" fill="#84BE84" rx="3" ry="3" style="stroke:#038048;stroke-width:1;"/><text fill="#000000" font-family="sans-serif" font-size="14" lengthAdjust="spacing" textLength="305.4228" x="2301" y="205.9659">createContent(String, MenuBar, Panel): Layout</text><ellipse cx="2292" cy="221.1019" fill="#84BE84" rx="3" ry="3" style="stroke:#038048;stroke-width:1;"/><text fill="#000000" font-family="sans-serif" font-size="14" lengthAdjust="spacing" textLength="211.5112" x="2301" y="225.0339">matches(String, String): boolean</text></a></g><!--class DocumentPersonReferencesPageModContentFactoryImpl--><g class="entity" data-entity="DocumentPersonReferencesPageModContentFactoryImpl" data-source-line="27" data-uid="ent0006" id="entity_DocumentPersonReferencesPageModContentFactoryImpl"><a href="DocumentPersonReferencesPageModContentFactoryImpl.html" target="_top" title="DocumentPersonReferencesPageModContentFactoryImpl.html" xlink:actuate="onRequest" xlink:href="DocumentPersonReferencesPageModContentFactoryImpl.html" xlink:show="new" xlink:title="DocumentPersonReferencesPageModContentFactoryImpl.html" xlink:type="simple"><rect fill="#F1F1F1" height="86.1358" rx="2.5" ry="2.5" style="stroke:#181818;stroke-width:0.5;" width="413.2745" x="1849.5" y="147"/><ellipse cx="1864.5" cy="163" fill="#ADD1B2" rx="11" ry="11" style="stroke:#181818;stroke-width:1;"/><path d="M1867.4688,168.6406 Q1866.8906,168.9375 1866.25,169.0781 Q1865.6094,169.2344 1864.9063,169.2344 Q1862.4063,169.2344 1861.0781,167.5938 Q1859.7656,165.9375 1859.7656,162.8125 Q1859.7656,159.6875 1861.0781,158.0313 Q1862.4063,156.375 1864.9063,156.375 Q1865.6094,156.375 1866.25,156.5313 Q1866.9063,156.6875 1867.4688,156.9844 L1867.4688,159.7031 Q1866.8438,159.125 1866.25,158.8594 Q1865.6563,158.5781 1865.0313,158.5781 Q1863.6875,158.5781 1863,159.6563 Q1862.3125,160.7188 1862.3125,162.8125 Q1862.3125,164.9063 1863,165.9844 Q1863.6875,167.0469 1865.0313,167.0469 Q1865.6563,167.0469 1866.25,166.7813 Q1866.8438,166.5 1867.4688,165.9219 L1867.4688,168.6406 Z " fill="#000000"/><text fill="#000000" font-family="sans-serif" font-size="14" lengthAdjust="spacing" textLength="381.2745" x="1878.5" y="168.432">DocumentPersonReferencesPageModContentFactoryImpl</text><line style="stroke:#181818;stroke-width:0.5;" x1="1850.5" x2="2261.7745" y1="179" y2="179"/><line style="stroke:#181818;stroke-width:0.5;" x1="1850.5" x2="2261.7745" y1="187" y2="187"/><ellipse cx="1860.5" cy="202.034" fill="#84BE84" rx="3" ry="3" style="stroke:#038048;stroke-width:1;"/><text fill="#000000" font-family="sans-serif" font-size="14" lengthAdjust="spacing" textLength="305.4228" x="1869.5" y="205.9659">createContent(String, MenuBar, Panel): Layout</text><ellipse cx="1860.5" cy="221.1019" fill="#84BE84" rx="3" ry="3" style="stroke:#038048;stroke-width:1;"/><text fill="#000000" font-family="sans-serif" font-size="14" lengthAdjust="spacing" textLength="211.5112" x="1869.5" y="225.0339">matches(String, String): boolean</text></a></g><!--class DocumentDetailsPageModContentFactoryImpl--><g class="entity" data-entity="DocumentDetailsPageModContentFactoryImpl" data-source-line="32" data-uid="ent0007" id="entity_DocumentDetailsPageModContentFactoryImpl"><a href="DocumentDetailsPageModContentFactoryImpl.html" target="_top" title="DocumentDetailsPageModContentFactoryImpl.html" xlink:actuate="onRequest" xlink:href="DocumentDetailsPageModContentFactoryImpl.html" xlink:show="new" xlink:title="DocumentDetailsPageModContentFactoryImpl.html" xlink:type="simple"><rect fill="#F1F1F1" height="86.1358" rx="2.5" ry="2.5" style="stroke:#181818;stroke-width:0.5;" width="339.2849" x="1492.5" y="147"/><ellipse cx="1507.5" cy="163" fill="#ADD1B2" rx="11" ry="11" style="stroke:#181818;stroke-width:1;"/><path d="M1510.4688,168.6406 Q1509.8906,168.9375 1509.25,169.0781 Q1508.6094,169.2344 1507.9063,169.2344 Q1505.4063,169.2344 1504.0781,167.5938 Q1502.7656,165.9375 1502.7656,162.8125 Q1502.7656,159.6875 1504.0781,158.0313 Q1505.4063,156.375 1507.9063,156.375 Q1508.6094,156.375 1509.25,156.5313 Q1509.9063,156.6875 1510.4688,156.9844 L1510.4688,159.7031 Q1509.8438,159.125 1509.25,158.8594 Q1508.6563,158.5781 1508.0313,158.5781 Q1506.6875,158.5781 1506,159.6563 Q1505.3125,160.7188 1505.3125,162.8125 Q1505.3125,164.9063 1506,165.9844 Q1506.6875,167.0469 1508.0313,167.0469 Q1508.6563,167.0469 1509.25,166.7813 Q1509.8438,166.5 1510.4688,165.9219 L1510.4688,168.6406 Z " fill="#000000"/><text fill="#000000" font-family="sans-serif" font-size="14" lengthAdjust="spacing" textLength="307.2849" x="1521.5" y="168.432">DocumentDetailsPageModContentFactoryImpl</text><line style="stroke:#181818;stroke-width:0.5;" x1="1493.5" x2="1830.7849" y1="179" y2="179"/><line style="stroke:#181818;stroke-width:0.5;" x1="1493.5" x2="1830.7849" y1="187" y2="187"/><ellipse cx="1503.5" cy="202.034" fill="#84BE84" rx="3" ry="3" style="stroke:#038048;stroke-width:1;"/><text fill="#000000" font-family="sans-serif" font-size="14" lengthAdjust="spacing" textLength="305.4228" x="1512.5" y="205.9659">createContent(String, MenuBar, Panel): Layout</text><ellipse cx="1503.5" cy="221.1019" fill="#84BE84" rx="3" ry="3" style="stroke:#038048;stroke-width:1;"/><text fill="#000000" font-family="sans-serif" font-size="14" lengthAdjust="spacing" textLength="211.5112" x="1512.5" y="225.0339">matches(String, String): boolean</text></a></g><!--class DocumentOverviewPageModContentFactoryImpl--><g class="entity" data-entity="DocumentOverviewPageModContentFactoryImpl" data-source-line="37" data-uid="ent0008" id="entity_DocumentOverviewPageModContentFactoryImpl"><a href="DocumentOverviewPageModContentFactoryImpl.html" target="_top" title="DocumentOverviewPageModContentFactoryImpl.html" xlink:actuate="onRequest" xlink:href="DocumentOverviewPageModContentFactoryImpl.html" xlink:show="new" xlink:title="DocumentOverviewPageModContentFactoryImpl.html" xlink:type="simple"><rect fill="#F1F1F1" height="86.1358" rx="2.5" ry="2.5" style="stroke:#181818;stroke-width:0.5;" width="355.6788" x="1118" y="147"/><ellipse cx="1133" cy="163" fill="#ADD1B2" rx="11" ry="11" style="stroke:#181818;stroke-width:1;"/><path d="M1135.9688,168.6406 Q1135.3906,168.9375 1134.75,169.0781 Q1134.1094,169.2344 1133.4063,169.2344 Q1130.9063,169.2344 1129.5781,167.5938 Q1128.2656,165.9375 1128.2656,162.8125 Q1128.2656,159.6875 1129.5781,158.0313 Q1130.9063,156.375 1133.4063,156.375 Q1134.1094,156.375 1134.75,156.5313 Q1135.4063,156.6875 1135.9688,156.9844 L1135.9688,159.7031 Q1135.3438,159.125 1134.75,158.8594 Q1134.1563,158.5781 1133.5313,158.5781 Q1132.1875,158.5781 1131.5,159.6563 Q1130.8125,160.7188 1130.8125,162.8125 Q1130.8125,164.9063 1131.5,165.9844 Q1132.1875,167.0469 1133.5313,167.0469 Q1134.1563,167.0469 1134.75,166.7813 Q1135.3438,166.5 1135.9688,165.9219 L1135.9688,168.6406 Z " fill="#000000"/><text fill="#000000" font-family="sans-serif" font-size="14" lengthAdjust="spacing" textLength="323.6788" x="1147" y="168.432">DocumentOverviewPageModContentFactoryImpl</text><line style="stroke:#181818;stroke-width:0.5;" x1="1119" x2="1472.6788" y1="179" y2="179"/><line style="stroke:#181818;stroke-width:0.5;" x1="1119" x2="1472.6788" y1="187" y2="187"/><ellipse cx="1129" cy="202.034" fill="#84BE84" rx="3" ry="3" style="stroke:#038048;stroke-width:1;"/><text fill="#000000" font-family="sans-serif" font-size="14" lengthAdjust="spacing" textLength="305.4228" x="1138" y="205.9659">createContent(String, MenuBar, Panel): Layout</text><ellipse cx="1129" cy="221.1019" fill="#84BE84" rx="3" ry="3" style="stroke:#038048;stroke-width:1;"/><text fill="#000000" font-family="sans-serif" font-size="14" lengthAdjust="spacing" textLength="211.5112" x="1138" y="225.0339">matches(String, String): boolean</text></a></g><!--class DocumentDataPageModContentFactoryImpl--><g class="entity" data-entity="DocumentDataPageModContentFactoryImpl" data-source-line="42" data-uid="ent0009" id="entity_DocumentDataPageModContentFactoryImpl"><a href="DocumentDataPageModContentFactoryImpl.html" target="_top" title="DocumentDataPageModContentFactoryImpl.html" xlink:actuate="onRequest" xlink:href="DocumentDataPageModContentFactoryImpl.html" xlink:show="new" xlink:title="DocumentDataPageModContentFactoryImpl.html" xlink:type="simple"><rect fill="#F1F1F1" height="86.1358" rx="2.5" ry="2.5" style="stroke:#181818;stroke-width:0.5;" width="331.4228" x="768.5" y="147"/><ellipse cx="786.2495" cy="163" fill="#ADD1B2" rx="11" ry="11" style="stroke:#181818;stroke-width:1;"/><path d="M789.2182,168.6406 Q788.6401,168.9375 787.9995,169.0781 Q787.3588,169.2344 786.6557,169.2344 Q784.1557,169.2344 782.8276,167.5938 Q781.5151,165.9375 781.5151,162.8125 Q781.5151,159.6875 782.8276,158.0313 Q784.1557,156.375 786.6557,156.375 Q787.3588,156.375 787.9995,156.5313 Q788.6557,156.6875 789.2182,156.9844 L789.2182,159.7031 Q788.5932,159.125 787.9995,158.8594 Q787.4057,158.5781 786.7807,158.5781 Q785.437,158.5781 784.7495,159.6563 Q784.062,160.7188 784.062,162.8125 Q784.062,164.9063 784.7495,165.9844 Q785.437,167.0469 786.7807,167.0469 Q787.4057,167.0469 787.9995,166.7813 Q788.5932,166.5 789.2182,165.9219 L789.2182,168.6406 Z " fill="#000000"/><text fill="#000000" font-family="sans-serif" font-size="14" lengthAdjust="spacing" textLength="293.3129" x="800.8604" y="168.432">DocumentDataPageModContentFactoryImpl</text><line style="stroke:#181818;stroke-width:0.5;" x1="769.5" x2="1098.9228" y1="179" y2="179"/><line style="stroke:#181818;stroke-width:0.5;" x1="769.5" x2="1098.9228" y1="187" y2="187"/><ellipse cx="779.5" cy="202.034" fill="#84BE84" rx="3" ry="3" style="stroke:#038048;stroke-width:1;"/><text fill="#000000" font-family="sans-serif" font-size="14" lengthAdjust="spacing" textLength="305.4228" x="788.5" y="205.9659">createContent(String, MenuBar, Panel): Layout</text><ellipse cx="779.5" cy="221.1019" fill="#84BE84" rx="3" ry="3" style="stroke:#038048;stroke-width:1;"/><text fill="#000000" font-family="sans-serif" font-size="14" lengthAdjust="spacing" textLength="211.5112" x="788.5" y="225.0339">matches(String, String): boolean</text></a></g><!--class DocumentActivityPageModContentFactoryImpl--><g class="entity" data-entity="DocumentActivityPageModContentFactoryImpl" data-source-line="47" data-uid="ent0010" id="entity_DocumentActivityPageModContentFactoryImpl"><a href="DocumentActivityPageModContentFactoryImpl.html" target="_top" title="DocumentActivityPageModContentFactoryImpl.html" xlink:actuate="onRequest" xlink:href="DocumentActivityPageModContentFactoryImpl.html" xlink:show="new" xlink:title="DocumentActivityPageModContentFactoryImpl.html" xlink:type="simple"><rect fill="#F1F1F1" height="86.1358" rx="2.5" ry="2.5" style="stroke:#181818;stroke-width:0.5;" width="341.5809" x="408" y="147"/><ellipse cx="423" cy="163" fill="#ADD1B2" rx="11" ry="11" style="stroke:#181818;stroke-width:1;"/><path d="M425.9688,168.6406 Q425.3906,168.9375 424.75,169.0781 Q424.1094,169.2344 423.4063,169.2344 Q420.9063,169.2344 419.5781,167.5938 Q418.2656,165.9375 418.2656,162.8125 Q418.2656,159.6875 419.5781,158.0313 Q420.9063,156.375 423.4063,156.375 Q424.1094,156.375 424.75,156.5313 Q425.4063,156.6875 425.9688,156.9844 L425.9688,159.7031 Q425.3438,159.125 424.75,158.8594 Q424.1563,158.5781 423.5313,158.5781 Q422.1875,158.5781 421.5,159.6563 Q420.8125,160.7188 420.8125,162.8125 Q420.8125,164.9063 421.5,165.9844 Q422.1875,167.0469 423.5313,167.0469 Q424.1563,167.0469 424.75,166.7813 Q425.3438,166.5 425.9688,165.9219 L425.9688,168.6406 Z " fill="#000000"/><text fill="#000000" font-family="sans-serif" font-size="14" lengthAdjust="spacing" textLength="309.5809" x="437" y="168.432">DocumentActivityPageModContentFactoryImpl</text><line style="stroke:#181818;stroke-width:0.5;" x1="409" x2="748.5809" y1="179" y2="179"/><line style="stroke:#181818;stroke-width:0.5;" x1="409" x2="748.5809" y1="187" y2="187"/><ellipse cx="419" cy="202.034" fill="#84BE84" rx="3" ry="3" style="stroke:#038048;stroke-width:1;"/><text fill="#000000" font-family="sans-serif" font-size="14" lengthAdjust="spacing" textLength="305.4228" x="428" y="205.9659">createContent(String, MenuBar, Panel): Layout</text><ellipse cx="419" cy="221.1019" fill="#84BE84" rx="3" ry="3" style="stroke:#038048;stroke-width:1;"/><text fill="#000000" font-family="sans-serif" font-size="14" lengthAdjust="spacing" textLength="211.5112" x="428" y="225.0339">matches(String, String): boolean</text></a></g><!--class DocumentReferencesPageModContentFactoryImpl--><g class="entity" data-entity="DocumentReferencesPageModContentFactoryImpl" data-source-line="52" data-uid="ent0011" id="entity_DocumentReferencesPageModContentFactoryImpl"><a href="DocumentReferencesPageModContentFactoryImpl.html" target="_top" title="DocumentReferencesPageModContentFactoryImpl.html" xlink:actuate="onRequest" xlink:href="DocumentReferencesPageModContentFactoryImpl.html" xlink:show="new" xlink:title="DocumentReferencesPageModContentFactoryImpl.html" xlink:type="simple"><rect fill="#F1F1F1" height="86.1358" rx="2.5" ry="2.5" style="stroke:#181818;stroke-width:0.5;" width="367.2987" x="22.5" y="147"/><ellipse cx="37.5" cy="163" fill="#ADD1B2" rx="11" ry="11" style="stroke:#181818;stroke-width:1;"/><path d="M40.4688,168.6406 Q39.8906,168.9375 39.25,169.0781 Q38.6094,169.2344 37.9063,169.2344 Q35.4063,169.2344 34.0781,167.5938 Q32.7656,165.9375 32.7656,162.8125 Q32.7656,159.6875 34.0781,158.0313 Q35.4063,156.375 37.9063,156.375 Q38.6094,156.375 39.25,156.5313 Q39.9063,156.6875 40.4688,156.9844 L40.4688,159.7031 Q39.8438,159.125 39.25,158.8594 Q38.6563,158.5781 38.0313,158.5781 Q36.6875,158.5781 36,159.6563 Q35.3125,160.7188 35.3125,162.8125 Q35.3125,164.9063 36,165.9844 Q36.6875,167.0469 38.0313,167.0469 Q38.6563,167.0469 39.25,166.7813 Q39.8438,166.5 40.4688,165.9219 L40.4688,168.6406 Z " fill="#000000"/><text fill="#000000" font-family="sans-serif" font-size="14" lengthAdjust="spacing" textLength="335.2987" x="51.5" y="168.432">DocumentReferencesPageModContentFactoryImpl</text><line style="stroke:#181818;stroke-width:0.5;" x1="23.5" x2="388.7987" y1="179" y2="179"/><line style="stroke:#181818;stroke-width:0.5;" x1="23.5" x2="388.7987" y1="187" y2="187"/><ellipse cx="33.5" cy="202.034" fill="#84BE84" rx="3" ry="3" style="stroke:#038048;stroke-width:1;"/><text fill="#000000" font-family="sans-serif" font-size="14" lengthAdjust="spacing" textLength="305.4228" x="42.5" y="205.9659">createContent(String, MenuBar, Panel): Layout</text><ellipse cx="33.5" cy="221.1019" fill="#84BE84" rx="3" ry="3" style="stroke:#038048;stroke-width:1;"/><text fill="#000000" font-family="sans-serif" font-size="14" lengthAdjust="spacing" textLength="211.5112" x="42.5" y="225.0339">matches(String, String): boolean</text></a></g><!--class AbstractItemPageModContentFactoryImpl--><g class="entity" data-entity="AbstractItemPageModContentFactoryImpl" data-source-line="60" data-uid="ent0013" id="entity_AbstractItemPageModContentFactoryImpl"><a href="../../../common/pagemode/AbstractItemPageModContentFactoryImpl.html" target="_top" title="../../../common/pagemode/AbstractItemPageModContentFactoryImpl.html" xlink:actuate="onRequest" xlink:href="../../../common/pagemode/AbstractItemPageModContentFactoryImpl.html" xlink:show="new" xlink:title="../../../common/pagemode/AbstractItemPageModContentFactoryImpl.html" xlink:type="simple"><rect fill="#F1F1F1" height="67.0679" rx="2.5" ry="2.5" style="stroke:#181818;stroke-width:0.5;" width="303.069" x="1510.5" y="34"/><ellipse cx="1525.5" cy="50" fill="#A9DCDF" rx="11" ry="11" style="stroke:#181818;stroke-width:1;"/><path d="M1525.6094,45.3438 L1524.4531,50.4219 L1526.7813,50.4219 L1525.6094,45.3438 Z M1524.125,43.1094 L1527.1094,43.1094 L1530.4688,55.5 L1528.0156,55.5 L1527.25,52.4375 L1523.9688,52.4375 L1523.2188,55.5 L1520.7813,55.5 L1524.125,43.1094 Z " fill="#000000"/><text fill="#000000" font-family="sans-serif" font-size="14" font-style="italic" lengthAdjust="spacing" textLength="261.057" x="1539.5" y="55.432">AbstractItemPageModContentFactoryImpl</text><rect fill="#FFFFFF" height="18.3441" style="stroke:#181818;stroke-width:1;stroke-dasharray:2,2;" width="8.012" x="1808.557" y="31"/><text fill="#000000" font-family="sans-serif" font-size="12" font-style="italic" lengthAdjust="spacing" textLength="6.012" x="1809.557" y="44.8281">T</text><line style="stroke:#181818;stroke-width:0.5;" x1="1511.5" x2="1812.569" y1="66" y2="66"/><line style="stroke:#181818;stroke-width:0.5;" x1="1511.5" x2="1812.569" y1="74" y2="74"/><polygon fill="#FFFF44" points="1521.5,84.034,1525.5,88.034,1521.5,92.034,1517.5,88.034" style="stroke:#B38D22;stroke-width:1;"/><text fill="#000000" font-family="sans-serif" font-size="14" font-style="italic" lengthAdjust="spacing" textLength="107.6316" x="1530.5" y="92.9659">getItem(String): T</text></a></g><g class="link" data-entity-1="AbstractItemPageModContentFactoryImpl" data-entity-2="DocumentDecisionPageModContentFactoryImpl" data-uid="lnk14" id="link_AbstractItemPageModContentFactoryImpl_DocumentDecisionPageModContentFactoryImpl"><polygon fill="none" points="1813.5522,70.7273,1831.4545,77.0129,1831.6454,65.0144,1813.5522,70.7273" style="stroke:#181818;stroke-width:1;"/><path d="M1831.55,71.0136 C2174.7696,76.4749 2973.2167,91.6759 3096,117 C3127.5801,123.5134 3160.7767,134.9511 3190.1448,146.8185" fill="none" style="stroke:#181818;stroke-width:1;"/></g><g class="link" data-entity-1="AbstractItemPageModContentFactoryImpl" data-entity-2="DocumentPageVisitHistoryPageModContentFactoryImpl" data-uid="lnk15" id="link_AbstractItemPageModContentFactoryImpl_DocumentPageVisitHistoryPageModContentFactoryImpl"><polygon fill="none" points="1813.8202,70.5197,1831.7158,76.8243,1831.9194,64.826,1813.8202,70.5197" style="stroke:#181818;stroke-width:1;"/><path d="M1831.8176,70.8251 C2073.1582,74.9208 2515.447,86.2813 2676,117 C2711.3944,123.772 2748.9475,135.2018 2782.361,146.9837" fill="none" style="stroke:#181818;stroke-width:1;"/></g><g class="link" data-entity-1="AbstractItemPageModContentFactoryImpl" data-entity-2="DocumentAttachementsPageModContentFactoryImpl" data-uid="lnk16" id="link_AbstractItemPageModContentFactoryImpl_DocumentAttachementsPageModContentFactoryImpl"><polygon fill="none" points="1813.6908,69.5321,1831.5164,76.0318,1831.8512,64.0365,1813.6908,69.5321" style="stroke:#181818;stroke-width:1;"/><path d="M1831.6838,70.0342 C1956.0849,73.5056 2118.1222,84.0623 2272,117 C2305.4024,124.1498 2340.8089,135.423 2372.4924,146.9456" fill="none" style="stroke:#181818;stroke-width:1;"/></g><g class="link" data-entity-1="AbstractItemPageModContentFactoryImpl" data-entity-2="DocumentPersonReferencesPageModContentFactoryImpl" data-uid="lnk17" id="link_AbstractItemPageModContentFactoryImpl_DocumentPersonReferencesPageModContentFactoryImpl"><polygon fill="none" points="1786.0047,101.0864,1801.7338,111.6976,1804.9547,100.1379,1786.0047,101.0864" style="stroke:#181818;stroke-width:1;"/><path d="M1803.3442,105.9177 C1821.8299,111.0684 1823.2804,111.6375 1841,117 C1871.4236,126.2072 1904.0458,136.7696 1934.4526,146.9163" fill="none" style="stroke:#181818;stroke-width:1;"/></g><g class="link" data-entity-1="AbstractItemPageModContentFactoryImpl" data-entity-2="DocumentDetailsPageModContentFactoryImpl" data-uid="lnk18" id="link_AbstractItemPageModContentFactoryImpl_DocumentDetailsPageModContentFactoryImpl"><polygon fill="none" points="1662,101.109,1656,119.109,1668,119.109,1662,101.109" style="stroke:#181818;stroke-width:1;"/><path d="M1662,119.109 C1662,133.1885 1662,131.8391 1662,146.8404" fill="none" style="stroke:#181818;stroke-width:1;"/></g><g class="link" data-entity-1="AbstractItemPageModContentFactoryImpl" data-entity-2="DocumentOverviewPageModContentFactoryImpl" data-uid="lnk19" id="link_AbstractItemPageModContentFactoryImpl_DocumentOverviewPageModContentFactoryImpl"><polygon fill="none" points="1536.0855,101.125,1517.1288,100.322,1520.4384,111.8566,1536.0855,101.125" style="stroke:#181818;stroke-width:1;"/><path d="M1518.7836,106.0893 C1501.2084,111.1321 1500.7446,111.5275 1484,117 C1456.5924,125.9575 1427.325,136.6192 1400.2431,146.9563" fill="none" style="stroke:#181818;stroke-width:1;"/></g><g class="link" data-entity-1="AbstractItemPageModContentFactoryImpl" data-entity-2="DocumentDataPageModContentFactoryImpl" data-uid="lnk20" id="link_AbstractItemPageModContentFactoryImpl_DocumentDataPageModContentFactoryImpl"><polygon fill="none" points="1510.3777,69.5022,1492.1901,64.0973,1492.5847,76.0908,1510.3777,69.5022" style="stroke:#181818;stroke-width:1;"/><path d="M1492.3874,70.0941 C1380.127,73.7874 1242.2005,84.5589 1109,117 C1079.7934,124.1133 1049.1086,135.3397 1021.7335,146.8303" fill="none" style="stroke:#181818;stroke-width:1;"/></g><g class="link" data-entity-1="AbstractItemPageModContentFactoryImpl" data-entity-2="DocumentActivityPageModContentFactoryImpl" data-uid="lnk21" id="link_AbstractItemPageModContentFactoryImpl_DocumentActivityPageModContentFactoryImpl"><polygon fill="none" points="1510.3459,70.7199,1492.2336,65.0678,1492.4648,77.0656,1510.3459,70.7199" style="stroke:#181818;stroke-width:1;"/><path d="M1492.3492,71.0667 C1273.5877,75.2821 898.5267,86.581 760,117 C729.1155,123.7819 696.6465,135.2144 667.8702,146.9956" fill="none" style="stroke:#181818;stroke-width:1;"/></g><g class="link" data-entity-1="AbstractItemPageModContentFactoryImpl" data-entity-2="DocumentReferencesPageModContentFactoryImpl" data-uid="lnk22" id="link_AbstractItemPageModContentFactoryImpl_DocumentReferencesPageModContentFactoryImpl"><polygon fill="none" points="1510.4177,68.3031,1492.4048,62.3419,1492.4307,74.3419,1510.4177,68.3031" style="stroke:#181818;stroke-width:1;"/><path d="M1492.4178,68.3419 C1204.6217,68.9622 607.2317,75.2825 399,117 C366.0381,123.6036 331.2611,135.0652 300.446,146.9269" fill="none" style="stroke:#181818;stroke-width:1;"/></g><g class="footer" data-source-line="81"><text fill="#888888" font-family="sans-serif" font-size="10" lengthAdjust="spacing" textLength="2.6" x="1725.7" y="253.69">&#160;</text><a href="https://github.com/talsma-ict/umldoclet" target="_top" title="https://github.com/talsma-ict/umldoclet" xlink:actuate="onRequest" xlink:href="https://github.com/talsma-ict/umldoclet" xlink:show="new" xlink:title="https://github.com/talsma-ict/umldoclet" xlink:type="simple"><text fill="#888888" font-family="sans-serif" font-size="10" lengthAdjust="spacing" textLength="76.7199" x="1688.64" y="267.31">UMLDoclet 2.2.4</text></a></g><!--SRC=[rLXDRzD04BtpAmPne8XcxQIXKAj22YaVHQceQE0ISjZOqtZLzQxP7RUAeF-TiPE6K46x20wn5SbVCxFlpNWdJmC0y1Y6jbmuDSy9o0BboiEdan58ay4S3Jf9c84gv1mzp51RC_TBGmHPKMuTsFFcBhNEeI-joPIPmtjvAS7RogNenOC7q2mrleb-9Vr6zDcYVdXaKuq4EyCd6v1wSNU_qujx-p2MsXSIZeTZiOhsqwSdUg8F75kh58tda9N9q3Mm1gLC-JHQljc5ItHUMSC-yIfEJJMrXgGo7ahfoDUKJhKqL6Fj2bx_cUZ6i3Cu6_qABZvemEt2m1bPPV3HVgtMV1-MJiuPifOBMn7u0aaQsRpo3DeZhoM94vWaImT6Ui5vPZ25oFcwjoTI9SKLpeGgIYqg9MHPCaT9p41SAhpoelBeH6RJga13ecJ_mcO8tvOXwoFLqdiuMfaSOQhg19oovOdDXaoSdxwHAIDP7FCoC9a4sugS2ZsTycgmSJnD7N9XL-OxP-JuYzY54pJLA-bsuLGQr4yI63M9-TMraCJbyckdvPcDPzPgb6PjVVqdWZNOpmoRtYbVummX6kopZOG7HFKdNb_w4B91zbjPMTwwrdp4StHekAy4LJRKPni97t77KDg7RTMxJRUHtWVknNKJ2-5th-rMra-I32hUNNPRsN9IKfUAWdhhlRRRIF3lcamhsilrFuWCDYxuPaDTt0INCq-EQQxoDrZT7XCMVyp5uVWb9q-8QFbR1ezkWaT1CNwVpsytSAxXqHoR23lhl8mtChAHa7z9H984WON3xvtE_v1rIH8ipLhCBLYDjPXZa0XhSmr3TLUhz-3Tcgl5rEwLMsqksrrggyqjvJwXrM9k8OsaeNVeQQ7nvVgl_jnQGdTB9hnRbEX6obmChROE7htu_TjFzH19AuFZNAKN1bdVnBSqn66qiTvghIzcCic9Ifz4qLnHNitgF4RK3B0wAgMeAdIsd5pTcc5DfwkPrDlrSAoUBtNYVgVR7NVxIVTvqk-BWuDdyVFz_lxUqxYNnF7aTULiYT4PsVGYjxgO_W00]--></g></svg>