<?xml version="1.0" encoding="UTF-8" standalone="no"?><svg xmlns="http://www.w3.org/2000/svg" xmlns:xlink="http://www.w3.org/1999/xlink" contentScriptType="application/ecmascript" contentStyleType="text/css" height="273px" preserveAspectRatio="none" style="width:599px;height:273px;" version="1.1" viewBox="0 0 599 273" width="599px" zoomAndPan="magnify"><defs><filter height="300%" id="fwovyovslght4" width="300%" x="-1" y="-1"><feGaussianBlur result="blurOut" stdDeviation="2.0"/><feColorMatrix in="blurOut" result="blurOut2" type="matrix" values="0 0 0 0 0 0 0 0 0 0 0 0 0 0 0 0 0 0 .4 0"/><feOffset dx="4.0" dy="4.0" in="blurOut2" result="blurOut3"/><feBlend in="SourceGraphic" in2="blurOut3" mode="normal"/></filter></defs><g><!--MD5=[a7ccce3c0e6bdfbcddfb7284efbdc281]
cluster com.hack23.cia.web.impl.ui.application.views.user.ballot--><polygon fill="#FFFFFF" filter="url(#fwovyovslght4)" points="14,124,467,124,474,146.2969,477,146.2969,477,233,14,233,14,124" style="stroke: #000000; stroke-width: 1.5;"/><line style="stroke: #000000; stroke-width: 1.5;" x1="14" x2="474" y1="146.2969" y2="146.2969"/><text fill="#000000" font-family="sans-serif" font-size="14" font-weight="bold" lengthAdjust="spacingAndGlyphs" textLength="447" x="18" y="138.9951">com.hack23.cia.web.impl.ui.application.views.user.ballot</text><!--MD5=[b6f7de69fe91c8bcc3328c73a6375d62]
cluster com.hack23.cia.web.impl.ui.application.views.user.common--><polygon fill="#FFFFFF" filter="url(#fwovyovslght4)" points="90,16,567,16,574,38.2969,577,38.2969,577,99,90,99,90,16" style="stroke: #000000; stroke-width: 1.5;"/><line style="stroke: #000000; stroke-width: 1.5;" x1="90" x2="574" y1="38.2969" y2="38.2969"/><text fill="#000000" font-family="sans-serif" font-size="14" font-weight="bold" lengthAdjust="spacingAndGlyphs" textLength="471" x="94" y="30.9951">com.hack23.cia.web.impl.ui.application.views.user.common</text><!--MD5=[21adadebaae5c3a90ee1b0b98655ab1e]
class com.hack23.cia.web.impl.ui.application.views.user.ballot.BallotView--><a href="BallotView.html" target="_top" title="BallotView.html" xlink:actuate="onRequest" xlink:href="BallotView.html" xlink:show="new" xlink:title="BallotView.html" xlink:type="simple"><rect fill="#FEFECE" filter="url(#fwovyovslght4)" height="73.6094" id="com.hack23.cia.web.impl.ui.application.views.user.ballot.BallotView" style="stroke: #A80036; stroke-width: 1.5;" width="196" x="147" y="151"/><ellipse cx="209.25" cy="167" fill="#ADD1B2" rx="11" ry="11" style="stroke: #A80036; stroke-width: 1.0;"/><path d="M212.2188,172.6406 Q211.6406,172.9375 211,173.0781 Q210.3594,173.2344 209.6563,173.2344 Q207.1563,173.2344 205.8281,171.5938 Q204.5156,169.9375 204.5156,166.8125 Q204.5156,163.6875 205.8281,162.0313 Q207.1563,160.375 209.6563,160.375 Q210.3594,160.375 211,160.5313 Q211.6563,160.6875 212.2188,160.9844 L212.2188,163.7031 Q211.5938,163.125 211,162.8594 Q210.4063,162.5781 209.7813,162.5781 Q208.4375,162.5781 207.75,163.6563 Q207.0625,164.7188 207.0625,166.8125 Q207.0625,168.9063 207.75,169.9844 Q208.4375,171.0469 209.7813,171.0469 Q210.4063,171.0469 211,170.7813 Q211.5938,170.5 212.2188,169.9219 L212.2188,172.6406 Z "/><text fill="#000000" font-family="sans-serif" font-size="12" lengthAdjust="spacingAndGlyphs" textLength="63" x="229.75" y="171.1543">BallotView</text><line style="stroke: #A80036; stroke-width: 1.5;" x1="148" x2="342" y1="183" y2="183"/><ellipse cx="158" cy="194" fill="none" rx="3" ry="3" style="stroke: #038048; stroke-width: 1.0;"/><text fill="#000000" font-family="sans-serif" font-size="11" lengthAdjust="spacingAndGlyphs" text-decoration="underline" textLength="73" x="167" y="197.2104">NAME: String</text><line style="stroke: #A80036; stroke-width: 1.5;" x1="148" x2="342" y1="203.8047" y2="203.8047"/><ellipse cx="158" cy="214.8047" fill="#84BE84" rx="3" ry="3" style="stroke: #038048; stroke-width: 1.0;"/><text fill="#000000" font-family="sans-serif" font-size="11" lengthAdjust="spacingAndGlyphs" textLength="170" x="167" y="218.0151">BallotView(ApplicationContext)</text></a><!--MD5=[968b4da468365d2329577b3d306a41ed]
class com.hack23.cia.web.impl.ui.application.views.user.common.AbstractUserView--><a href="../common/AbstractUserView.html" target="_top" title="../common/AbstractUserView.html" xlink:actuate="onRequest" xlink:href="../common/AbstractUserView.html" xlink:show="new" xlink:title="../common/AbstractUserView.html" xlink:type="simple"><rect fill="#FEFECE" filter="url(#fwovyovslght4)" height="48" id="com.hack23.cia.web.impl.ui.application.views.user.common.AbstractUserView" style="stroke: #A80036; stroke-width: 1.5;" width="141" x="174.5" y="43"/><ellipse cx="189.5" cy="59" fill="#A9DCDF" rx="11" ry="11" style="stroke: #A80036; stroke-width: 1.0;"/><path d="M189.6094,54.3438 L188.4531,59.4219 L190.7813,59.4219 L189.6094,54.3438 Z M188.125,52.1094 L191.1094,52.1094 L194.4688,64.5 L192.0156,64.5 L191.25,61.4375 L187.9688,61.4375 L187.2188,64.5 L184.7813,64.5 L188.125,52.1094 Z "/><text fill="#000000" font-family="sans-serif" font-size="12" font-style="italic" lengthAdjust="spacingAndGlyphs" textLength="109" x="203.5" y="63.1543">AbstractUserView</text><line style="stroke: #A80036; stroke-width: 1.5;" x1="175.5" x2="314.5" y1="75" y2="75"/><line style="stroke: #A80036; stroke-width: 1.5;" x1="175.5" x2="314.5" y1="83" y2="83"/></a><!--MD5=[74a274dd9e410a38ad979aed8e35d2cf]
reverse link com.hack23.cia.web.impl.ui.application.views.user.common.AbstractUserView to com.hack23.cia.web.impl.ui.application.views.user.ballot.BallotView--><path d="M245,111.5529 C245,124.5142 245,138.5269 245,150.9716 " fill="none" id="com.hack23.cia.web.impl.ui.application.views.user.common.AbstractUserView&lt;-com.hack23.cia.web.impl.ui.application.views.user.ballot.BallotView" style="stroke: #A80036; stroke-width: 1.0;"/><polygon fill="none" points="238.0001,111.1954,245,91.1953,252.0001,111.1953,238.0001,111.1954" style="stroke: #A80036; stroke-width: 1.0;"/><text fill="#888888" font-family="sans-serif" font-size="10" lengthAdjust="spacingAndGlyphs" textLength="186" x="208.5" y="260.2822">UMLDoclet 2.0.6, PlantUML 1.2019.12</text><!--MD5=[f9ae20d5be356353d93ee760e339652f]
@startuml
    namespace com.hack23.cia.web.impl.ui.application.views.user.ballot {

        class BallotView [[BallotView.html]] {
            {static} +NAME: String
            +BallotView(ApplicationContext)
        }

        com.hack23.cia.web.impl.ui.application.views.user.common.AbstractUserView <|- - BallotView
    }

    namespace com.hack23.cia.web.impl.ui.application.views.user.common {
        abstract class AbstractUserView [[../common/AbstractUserView.html]] {
        }
    }

    center footer UMLDoclet 2.0.6, PlantUML 1.2019.12
@enduml

PlantUML version 1.2019.12(Sun Nov 03 11:24:54 CET 2019)
(APACHE source distribution)
Java Runtime: OpenJDK Runtime Environment
JVM: OpenJDK 64-Bit Server VM
Java Version: 11.0.5-ea+10-post-Ubuntu-0ubuntu1
Operating System: Linux
Default Encoding: UTF-8
Language: en
Country: US
--></g></svg>