<svg xmlns="http://www.w3.org/2000/svg" xmlns:xlink="http://www.w3.org/1999/xlink" contentStyleType="text/css" height="135px" preserveAspectRatio="none" style="width:3599px;height:135px;" version="1.1" viewBox="0 0 3599 135" width="3599px" zoomAndPan="magnify"><defs/><g><!--class com.hack23.cia.service.data.impl--><a href="com/hack23/cia/service/data/impl/package-summary.html" target="_top" title="com/hack23/cia/service/data/impl/package-summary.html" xlink:actuate="onRequest" xlink:href="com/hack23/cia/service/data/impl/package-summary.html" xlink:show="new" xlink:title="com/hack23/cia/service/data/impl/package-summary.html" xlink:type="simple"><g id="elem_com.hack23.cia.service.data.impl"><rect codeLine="33" fill="#F1F1F1" height="29.0679" id="com.hack23.cia.service.data.impl" rx="2.5" ry="2.5" style="stroke:#181818;stroke-width:0.5;" width="221.9632" x="2012.5" y="12"/><text fill="#000000" font-family="sans-serif" font-size="14" lengthAdjust="spacing" textLength="215.9632" x="2015.5" y="31.9659">com.hack23.cia.service.data.impl</text></g></a><!--class com.hack23.cia.service.data.api--><g id="elem_com.hack23.cia.service.data.api"><rect fill="#F1F1F1" height="29.0679" id="com.hack23.cia.service.data.api" rx="2.5" ry="2.5" style="stroke:#181818;stroke-width:0.5;" width="213.1152" x="3379" y="77"/><text fill="#000000" font-family="sans-serif" font-size="14" lengthAdjust="spacing" textLength="207.1152" x="3382" y="96.9659">com.hack23.cia.service.data.api</text></g><!--class com.hack23.cia.model.internal.application.system.impl--><g id="elem_com.hack23.cia.model.internal.application.system.impl"><rect fill="#F1F1F1" height="29.0679" id="com.hack23.cia.model.internal.application.system.impl" rx="2.5" ry="2.5" style="stroke:#181818;stroke-width:0.5;" width="366.4147" x="749.5" y="77"/><text fill="#000000" font-family="sans-serif" font-size="14" lengthAdjust="spacing" textLength="360.4147" x="752.5" y="96.9659">com.hack23.cia.model.internal.application.system.impl</text></g><!--class org.hibernate.search.backend.lucene.analysis--><g id="elem_org.hibernate.search.backend.lucene.analysis"><rect fill="#F1F1F1" height="29.0679" id="org.hibernate.search.backend.lucene.analysis" rx="2.5" ry="2.5" style="stroke:#181818;stroke-width:0.5;" width="306.6208" x="1134" y="77"/><text fill="#000000" font-family="sans-serif" font-size="14" lengthAdjust="spacing" textLength="300.6208" x="1137" y="96.9659">org.hibernate.search.backend.lucene.analysis</text></g><!--class org.slf4j--><g id="elem_org.slf4j"><rect fill="#F1F1F1" height="29.0679" id="org.slf4j" rx="2.5" ry="2.5" style="stroke:#181818;stroke-width:0.5;" width="59.3678" x="672" y="77"/><text fill="#000000" font-family="sans-serif" font-size="14" lengthAdjust="spacing" textLength="53.3678" x="675" y="96.9659">org.slf4j</text></g><!--class org.hibernate.search.mapper.orm.mapping--><g id="elem_org.hibernate.search.mapper.orm.mapping"><rect fill="#F1F1F1" height="29.0679" id="org.hibernate.search.mapper.orm.mapping" rx="2.5" ry="2.5" style="stroke:#181818;stroke-width:0.5;" width="293.461" x="1459" y="77"/><text fill="#000000" font-family="sans-serif" font-size="14" lengthAdjust="spacing" textLength="287.461" x="1462" y="96.9659">org.hibernate.search.mapper.orm.mapping</text></g><!--class org.hibernate.search.mapper.orm.session--><g id="elem_org.hibernate.search.mapper.orm.session"><rect fill="#F1F1F1" height="29.0679" id="org.hibernate.search.mapper.orm.session" rx="2.5" ry="2.5" style="stroke:#181818;stroke-width:0.5;" width="283.171" x="1770" y="77"/><text fill="#000000" font-family="sans-serif" font-size="14" lengthAdjust="spacing" textLength="277.171" x="1773" y="96.9659">org.hibernate.search.mapper.orm.session</text></g><!--class org.javers.core--><g id="elem_org.javers.core"><rect fill="#F1F1F1" height="29.0679" id="org.javers.core" rx="2.5" ry="2.5" style="stroke:#181818;stroke-width:0.5;" width="104.1956" x="2071.5" y="77"/><text fill="#000000" font-family="sans-serif" font-size="14" lengthAdjust="spacing" textLength="98.1956" x="2074.5" y="96.9659">org.javers.core</text></g><!--class org.springframework.transaction--><g id="elem_org.springframework.transaction"><rect fill="#F1F1F1" height="29.0679" id="org.springframework.transaction" rx="2.5" ry="2.5" style="stroke:#181818;stroke-width:0.5;" width="224.9172" x="2194" y="77"/><text fill="#000000" font-family="sans-serif" font-size="14" lengthAdjust="spacing" textLength="218.9172" x="2197" y="96.9659">org.springframework.transaction</text></g><!--class org.javers.spring.auditable.aspect--><g id="elem_org.javers.spring.auditable.aspect"><rect fill="#F1F1F1" height="29.0679" id="org.javers.spring.auditable.aspect" rx="2.5" ry="2.5" style="stroke:#181818;stroke-width:0.5;" width="229.3972" x="2437" y="77"/><text fill="#000000" font-family="sans-serif" font-size="14" lengthAdjust="spacing" textLength="223.3972" x="2440" y="96.9659">org.javers.spring.auditable.aspect</text></g><!--class org.javers.spring.auditable--><g id="elem_org.javers.spring.auditable"><rect fill="#F1F1F1" height="29.0679" id="org.javers.spring.auditable" rx="2.5" ry="2.5" style="stroke:#181818;stroke-width:0.5;" width="182.8053" x="2684" y="77"/><text fill="#000000" font-family="sans-serif" font-size="14" lengthAdjust="spacing" textLength="176.8053" x="2687" y="96.9659">org.javers.spring.auditable</text></g><!--class org.hibernate.boot.model.naming--><g id="elem_org.hibernate.boot.model.naming"><rect fill="#F1F1F1" height="29.0679" id="org.hibernate.boot.model.naming" rx="2.5" ry="2.5" style="stroke:#181818;stroke-width:0.5;" width="230.6292" x="2885" y="77"/><text fill="#000000" font-family="sans-serif" font-size="14" lengthAdjust="spacing" textLength="224.6292" x="2888" y="96.9659">org.hibernate.boot.model.naming</text></g><!--class org.hibernate.engine.jdbc.env.spi--><g id="elem_org.hibernate.engine.jdbc.env.spi"><rect fill="#F1F1F1" height="29.0679" id="org.hibernate.engine.jdbc.env.spi" rx="2.5" ry="2.5" style="stroke:#181818;stroke-width:0.5;" width="227.0871" x="3134" y="77"/><text fill="#000000" font-family="sans-serif" font-size="14" lengthAdjust="spacing" textLength="221.0871" x="3137" y="96.9659">org.hibernate.engine.jdbc.env.spi</text></g><!--class com.hack23.cia.testfoundation--><g id="elem_com.hack23.cia.testfoundation"><rect fill="#F1F1F1" height="29.0679" id="com.hack23.cia.testfoundation" rx="2.5" ry="2.5" style="stroke:#181818;stroke-width:0.5;" width="207.9912" x="445.5" y="77"/><text fill="#000000" font-family="sans-serif" font-size="14" lengthAdjust="spacing" textLength="201.9912" x="448.5" y="96.9659">com.hack23.cia.testfoundation</text></g><!--class com.hack23.cia.service.data.impl.util--><a href="com/hack23/cia/service/data/impl/util/package-summary.html" target="_top" title="com/hack23/cia/service/data/impl/util/package-summary.html" xlink:actuate="onRequest" xlink:href="com/hack23/cia/service/data/impl/util/package-summary.html" xlink:show="new" xlink:title="com/hack23/cia/service/data/impl/util/package-summary.html" xlink:type="simple"><g id="elem_com.hack23.cia.service.data.impl.util"><rect codeLine="35" fill="#F1F1F1" height="29.0679" id="com.hack23.cia.service.data.impl.util" rx="2.5" ry="2.5" style="stroke:#181818;stroke-width:0.5;" width="246.6451" x="334" y="12"/><text fill="#000000" font-family="sans-serif" font-size="14" lengthAdjust="spacing" textLength="240.6451" x="337" y="31.9659">com.hack23.cia.service.data.impl.util</text></g></a><!--class org.postgresql.xa--><g id="elem_org.postgresql.xa"><rect fill="#F1F1F1" height="29.0679" id="org.postgresql.xa" rx="2.5" ry="2.5" style="stroke:#181818;stroke-width:0.5;" width="121.6816" x="305.5" y="77"/><text fill="#000000" font-family="sans-serif" font-size="14" lengthAdjust="spacing" textLength="115.6816" x="308.5" y="96.9659">org.postgresql.xa</text></g><!--class com.amazonaws.secretsmanager.caching--><g id="elem_com.amazonaws.secretsmanager.caching"><rect fill="#F1F1F1" height="29.0679" id="com.amazonaws.secretsmanager.caching" rx="2.5" ry="2.5" style="stroke:#181818;stroke-width:0.5;" width="280.917" x="6" y="77"/><text fill="#000000" font-family="sans-serif" font-size="14" lengthAdjust="spacing" textLength="274.917" x="9" y="96.9659">com.amazonaws.secretsmanager.caching</text></g><polygon fill="#181818" points="3378.7088,77.6798,3370.0892,72.9151,3373.7276,77.2466,3369.396,80.885,3378.7088,77.6798" style="stroke:#181818;stroke-width:1.0;"/><path d="M2234.6057,29.0352 C2452.689,32.6845 2951.9994,44.1788 3370.5,77 C3373.2055,77.2122 3369.968,76.9197 3372.7313,77.16 " fill="none" style="stroke:#181818;stroke-width:1.0;"/><polygon fill="#181818" points="1115.607,77.5996,1124.8353,81.0404,1120.5976,77.2931,1124.3449,73.0554,1115.607,77.5996" style="stroke:#181818;stroke-width:1.0;"/><path d="M2012.3264,32.2774 C1827.9695,40.365 1447.3758,57.7623 1125.5,77 C1122.2309,77.1954 1124.9196,77.0277 1121.5958,77.2318 " fill="none" style="stroke:#181818;stroke-width:1.0;"/><polygon fill="#181818" points="1441.0666,77.7416,1450.3537,81.0202,1446.051,77.3477,1449.7235,73.045,1441.0666,77.7416" style="stroke:#181818;stroke-width:1.0;"/><path d="M2012.4284,35.3546 C1878.983,44.8642 1648.3291,61.5327 1450.5,77 C1447.386,77.2435 1450.22,77.0182 1447.0479,77.2689 " fill="none" style="stroke:#181818;stroke-width:1.0;"/><polygon fill="#181818" points="731.0637,79.2493,740.8132,80.6453,735.8745,77.8868,738.6331,72.9481,731.0637,79.2493" style="stroke:#181818;stroke-width:1.0;"/><path d="M2012.3866,27.2314 C1728.7823,27.2262 983.3962,31.6675 740.5,77 C737.4009,77.5784 739.988,76.7217 736.8367,77.6143 " fill="none" style="stroke:#181818;stroke-width:1.0;"/><polygon fill="#181818" points="1716.8862,76.953,1726.3033,79.8372,1721.8496,76.3494,1725.3374,71.8957,1716.8862,76.953" style="stroke:#181818;stroke-width:1.0;"/><path d="M2012.376,41.0151 C1925.1254,51.6266 1810.1602,65.6089 1722.8423,76.2286 " fill="none" style="stroke:#181818;stroke-width:1.0;"/><polygon fill="#181818" points="1957.2694,76.8987,1967.0359,78.1693,1962.0622,75.4744,1964.7571,70.5007,1957.2694,76.8987" style="stroke:#181818;stroke-width:1.0;"/><path d="M2078.0207,41.0151 C2042.3728,51.6086 1998.7429,64.574 1963.0208,75.1896 " fill="none" style="stroke:#181818;stroke-width:1.0;"/><polygon fill="#181818" points="2123.5,76.8566,2127.5,67.8566,2123.5,71.8566,2119.5,67.8566,2123.5,76.8566" style="stroke:#181818;stroke-width:1.0;"/><path d="M2123.5,41.1701 C2123.5,51.7373 2123.5,60.2961 2123.5,70.8566 " fill="none" style="stroke:#181818;stroke-width:1.0;"/><polygon fill="#181818" points="2266.9915,76.8987,2259.7837,70.187,2262.2638,75.2712,2257.1796,77.7513,2266.9915,76.8987" style="stroke:#181818;stroke-width:1.0;"/><path d="M2162.7581,41.0151 C2193.5296,51.6086 2230.4827,64.3301 2261.3183,74.9456 " fill="none" style="stroke:#181818;stroke-width:1.0;"/><polygon fill="#181818" points="2459.4666,76.953,2451.1451,71.685,2454.5199,76.2249,2449.9801,79.5997,2459.4666,76.953" style="stroke:#181818;stroke-width:1.0;"/><path d="M2215.3167,41.0151 C2287.408,51.6266 2381.3837,65.4595 2453.5306,76.0793 " fill="none" style="stroke:#181818;stroke-width:1.0;"/><polygon fill="#181818" points="2683.9676,77.9763,2675.4989,72.9482,2679.0021,77.3898,2674.5605,80.893,2683.9676,77.9763" style="stroke:#181818;stroke-width:1.0;"/><path d="M2234.6622,35.9987 C2346.2429,44.875 2522.9908,59.8763 2675.5,77 C2678.2855,77.3128 2675.1548,76.9354 2678.009,77.2725 " fill="none" style="stroke:#181818;stroke-width:1.0;"/><polygon fill="#181818" points="2884.6772,77.7321,2876.08,72.9271,2879.6981,77.2756,2875.3496,80.8937,2884.6772,77.7321" style="stroke:#181818;stroke-width:1.0;"/><path d="M2234.6133,33.3136 C2381.6184,41.3463 2648.7507,57.1258 2876.5,77 C2879.1966,77.2353 2875.9506,76.9321 2878.7022,77.1843 " fill="none" style="stroke:#181818;stroke-width:1.0;"/><polygon fill="#181818" points="3133.8762,77.6977,3125.2542,72.9373,3128.8948,77.267,3124.5651,80.9076,3133.8762,77.6977" style="stroke:#181818;stroke-width:1.0;"/><path d="M2234.8485,30.7877 C2419.9507,36.7494 2802.5734,51.1807 3125.5,77 C3128.2615,77.2208 3125.0794,76.9371 3127.8985,77.1809 " fill="none" style="stroke:#181818;stroke-width:1.0;"/><polygon fill="#181818" points="653.5305,77.8156,662.844,81.0186,658.5116,77.3812,662.149,73.0488,653.5305,77.8156" style="stroke:#181818;stroke-width:1.0;"/><path d="M2012.0556,28.09 C1767.5541,30.0839 1165.7989,38.8114 663.5,77 C660.221,77.2493 662.8685,77.0013 659.5079,77.2943 " fill="none" style="stroke:#181818;stroke-width:1.0;"/><polygon fill="#181818" points="386.2071,76.8566,395.8837,75.0225,390.3181,74.0106,391.33,68.445,386.2071,76.8566" style="stroke:#181818;stroke-width:1.0;"/><path d="M437.7544,41.1701 C422.4906,51.7373 406.3943,62.8809 391.1403,73.4414 " fill="none" style="stroke:#181818;stroke-width:1.0;"/><polygon fill="#181818" points="671.7846,79.8835,664.4647,73.2941,667.0301,78.3358,661.9884,80.9012,671.7846,79.8835" style="stroke:#181818;stroke-width:1.0;"/><path d="M520.2646,41.0073 C561.0555,50.19 615.243,63.1504 662.5,77 C665.5254,77.8866 662.9575,77.0101 666.0792,78.0263 " fill="none" style="stroke:#181818;stroke-width:1.0;"/><polygon fill="#181818" points="213.3747,76.953,222.9897,79.0865,218.2752,75.9603,221.4014,71.2458,213.3747,76.953" style="stroke:#181818;stroke-width:1.0;"/><path d="M390.7827,41.0151 C338.3987,51.6266 271.6798,65.142 219.2553,75.7618 " fill="none" style="stroke:#181818;stroke-width:1.0;"/><polygon fill="#181818" points="529.5763,76.8566,524.4106,68.4712,525.4509,74.0316,519.8905,75.0719,529.5763,76.8566" style="stroke:#181818;stroke-width:1.0;"/><path d="M477.4626,41.1701 C492.8941,51.7373 509.2041,62.9061 524.6258,73.4666 " fill="none" style="stroke:#181818;stroke-width:1.0;"/><text fill="#888888" font-family="sans-serif" font-size="10" lengthAdjust="spacing" textLength="2.6" x="1794.2" y="110.69">&#160;</text><a href="https://github.com/talsma-ict/umldoclet" target="_top" title="https://github.com/talsma-ict/umldoclet" xlink:actuate="onRequest" xlink:href="https://github.com/talsma-ict/umldoclet" xlink:show="new" xlink:title="https://github.com/talsma-ict/umldoclet" xlink:type="simple"><text fill="#888888" font-family="sans-serif" font-size="10" lengthAdjust="spacing" textLength="76.7199" x="1757.14" y="124.31">UMLDoclet 2.2.1</text></a><!--SRC=[hLRVRzD847xdhnYuXmD1reufFreXfAeWE5GaT2rFkJnCrXDxc_rXTiVj6SJ_pgoJQmk28mtanVRkjzzyCxCp4m20F-4eT4CqJSl00RWr2Tw_FGRqDJJaAI9J3SPXGmaMP8DlqXf8W3st8K9OZbywn4Yf2xusle4tU8wGGXyr9NNh5eocJlzZly1qZNqnvCKNGLjYk7jqxvgagfm-dbHbjGUdQ9D3-EleL6tOhivKgb9J46vhDFaabBslAOwo3ZlKyZXUxpo0Suh912zdoWrFTbK7psXyWWuZf-pIEukUizQfolRL4xXxU7ByjRPoVzJs00wZnxw6lyE7_jBTsrt4HXHR74BFa1mnUXotqifuCOGE5gXNJGmYLmShiUI8FiaMULuZnJkFJkAAcaue7sA1-U1ft6zDBP4tKS9mzKskum6MXcoTlbqL5MsGvN5T1wTQKL0zLDgWIXJF9KogHaPbN6TXCdd-lo3ipCv4BjHabV5C4ZmhL9ra3rboezAGcDnuSdlw41lLcaLcOn8CHjsg75_ojRAzf9-K9C0EoQIRiIQxt3lxHI5E_AEeGdJZgvJ8xoDCbFALlXdX6UPAK5ArTCDeT57KB-NsqaM8ApLUMTIygu8rdvBwCOmBAqbA7Md-BLoxndWH0cykg5JVBoIBV6FatftL2otlvo9mzu9XIhpChGAtZhNgsLp9waBYHdhq1wl-nHtERry7L-So4Xr-31ul93-a8x7qSI_p92ejhNdRu7vD-UEmR9hwEm683Pa8VhKfTuifmPsVsRa3ivbWYZMc44onmHGPKsHCqQtP9wbt3kEWMdPsFeTFew7FDp4tkhMLpGpycU7nyIpnOEdv-9v_IxdCCWm_NIxat-j1kiUn1ETed3j_FFt-xliyHoM69ADRhxmq6YWlaMj7dnNNx6ri_UDdivQvImT5qHXk-uNA_l4umoT6Sz4xMw-7zpTZV3xVPF3LvV-3F6CdqsfILQVJfmVJwk3Hdjehzwjo__6JX_VBwK5PpbxsCNHKd73GgpPOD_y2]--></g></svg>