<?xml version="1.0" encoding="UTF-8" standalone="no"?><svg xmlns="http://www.w3.org/2000/svg" xmlns:xlink="http://www.w3.org/1999/xlink" contentScriptType="application/ecmascript" contentStyleType="text/css" height="148px" preserveAspectRatio="none" style="width:3692px;height:148px;" version="1.1" viewBox="0 0 3692 148" width="3692px" zoomAndPan="magnify"><defs><filter height="300%" id="f165i3okdjkoo2" width="300%" x="-1" y="-1"><feGaussianBlur result="blurOut" stdDeviation="2.0"/><feColorMatrix in="blurOut" result="blurOut2" type="matrix" values="0 0 0 0 0 0 0 0 0 0 0 0 0 0 0 0 0 0 .4 0"/><feOffset dx="4.0" dy="4.0" in="blurOut2" result="blurOut3"/><feBlend in="SourceGraphic" in2="blurOut3" mode="normal"/></filter></defs><g><!--class com.hack23.cia.service.data.impl--><a href="com/hack23/cia/service/data/impl/package-summary.html" target="_top" xlink:actuate="onRequest" xlink:show="new" xlink:title="com/hack23/cia/service/data/impl/package-summary.html" xlink:type="simple"><rect fill="#FEFECE" filter="url(#f165i3okdjkoo2)" height="23.9688" id="com.hack23.cia.service.data.impl" style="stroke: #A80036; stroke-width: 1.5;" width="214" x="1544" y="8"/><text fill="#000000" font-family="sans-serif" font-size="12" lengthAdjust="spacingAndGlyphs" textLength="208" x="1547" y="24.1387">com.hack23.cia.service.data.impl</text></a><!--class com.hack23.cia.service.data.api--><rect fill="#FEFECE" filter="url(#f165i3okdjkoo2)" height="23.9688" id="com.hack23.cia.service.data.api" style="stroke: #A80036; stroke-width: 1.5;" width="208" x="2691" y="92"/><text fill="#000000" font-family="sans-serif" font-size="12" lengthAdjust="spacingAndGlyphs" textLength="202" x="2694" y="108.1387">com.hack23.cia.service.data.api</text><!--class org.javers.core--><rect fill="#FEFECE" filter="url(#f165i3okdjkoo2)" height="23.9688" id="org.javers.core" style="stroke: #A80036; stroke-width: 1.5;" width="100" x="6" y="92"/><text fill="#000000" font-family="sans-serif" font-size="12" lengthAdjust="spacingAndGlyphs" textLength="94" x="9" y="108.1387">org.javers.core</text><!--class org.springframework.transaction--><rect fill="#FEFECE" filter="url(#f165i3okdjkoo2)" height="23.9688" id="org.springframework.transaction" style="stroke: #A80036; stroke-width: 1.5;" width="211" x="141.5" y="92"/><text fill="#000000" font-family="sans-serif" font-size="12" lengthAdjust="spacingAndGlyphs" textLength="205" x="144.5" y="108.1387">org.springframework.transaction</text><!--class org.javers.spring.auditable.aspect--><rect fill="#FEFECE" filter="url(#f165i3okdjkoo2)" height="23.9688" id="org.javers.spring.auditable.aspect" style="stroke: #A80036; stroke-width: 1.5;" width="221" x="387.5" y="92"/><text fill="#000000" font-family="sans-serif" font-size="12" lengthAdjust="spacingAndGlyphs" textLength="215" x="390.5" y="108.1387">org.javers.spring.auditable.aspect</text><!--class org.javers.spring.auditable--><rect fill="#FEFECE" filter="url(#f165i3okdjkoo2)" height="23.9688" id="org.javers.spring.auditable" style="stroke: #A80036; stroke-width: 1.5;" width="174" x="644" y="92"/><text fill="#000000" font-family="sans-serif" font-size="12" lengthAdjust="spacingAndGlyphs" textLength="168" x="647" y="108.1387">org.javers.spring.auditable</text><!--class com.hack23.cia.model.internal.application.system.impl--><rect fill="#FEFECE" filter="url(#f165i3okdjkoo2)" height="23.9688" id="com.hack23.cia.model.internal.application.system.impl" style="stroke: #A80036; stroke-width: 1.5;" width="348" x="853" y="92"/><text fill="#000000" font-family="sans-serif" font-size="12" lengthAdjust="spacingAndGlyphs" textLength="342" x="856" y="108.1387">com.hack23.cia.model.internal.application.system.impl</text><!--class org.hibernate.search.mapper.orm.session--><rect fill="#FEFECE" filter="url(#f165i3okdjkoo2)" height="23.9688" id="org.hibernate.search.mapper.orm.session" style="stroke: #A80036; stroke-width: 1.5;" width="271" x="1236.5" y="92"/><text fill="#000000" font-family="sans-serif" font-size="12" lengthAdjust="spacingAndGlyphs" textLength="265" x="1239.5" y="108.1387">org.hibernate.search.mapper.orm.session</text><!--class org.slf4j--><rect fill="#FEFECE" filter="url(#f165i3okdjkoo2)" height="23.9688" id="org.slf4j" style="stroke: #A80036; stroke-width: 1.5;" width="56" x="3171" y="92"/><text fill="#000000" font-family="sans-serif" font-size="12" lengthAdjust="spacingAndGlyphs" textLength="50" x="3174" y="108.1387">org.slf4j</text><!--class org.hibernate.boot.model.naming--><rect fill="#FEFECE" filter="url(#f165i3okdjkoo2)" height="23.9688" id="org.hibernate.boot.model.naming" style="stroke: #A80036; stroke-width: 1.5;" width="217" x="1542.5" y="92"/><text fill="#000000" font-family="sans-serif" font-size="12" lengthAdjust="spacingAndGlyphs" textLength="211" x="1545.5" y="108.1387">org.hibernate.boot.model.naming</text><!--class org.hibernate.engine.jdbc.env.spi--><rect fill="#FEFECE" filter="url(#f165i3okdjkoo2)" height="23.9688" id="org.hibernate.engine.jdbc.env.spi" style="stroke: #A80036; stroke-width: 1.5;" width="217" x="1794.5" y="92"/><text fill="#000000" font-family="sans-serif" font-size="12" lengthAdjust="spacingAndGlyphs" textLength="211" x="1797.5" y="108.1387">org.hibernate.engine.jdbc.env.spi</text><!--class org.hibernate.search.backend.lucene.analysis--><rect fill="#FEFECE" filter="url(#f165i3okdjkoo2)" height="23.9688" id="org.hibernate.search.backend.lucene.analysis" style="stroke: #A80036; stroke-width: 1.5;" width="297" x="2046.5" y="92"/><text fill="#000000" font-family="sans-serif" font-size="12" lengthAdjust="spacingAndGlyphs" textLength="291" x="2049.5" y="108.1387">org.hibernate.search.backend.lucene.analysis</text><!--class org.hibernate.search.mapper.orm.mapping--><rect fill="#FEFECE" filter="url(#f165i3okdjkoo2)" height="23.9688" id="org.hibernate.search.mapper.orm.mapping" style="stroke: #A80036; stroke-width: 1.5;" width="277" x="2378.5" y="92"/><text fill="#000000" font-family="sans-serif" font-size="12" lengthAdjust="spacingAndGlyphs" textLength="271" x="2381.5" y="108.1387">org.hibernate.search.mapper.orm.mapping</text><!--class com.hack23.cia.testfoundation--><rect fill="#FEFECE" filter="url(#f165i3okdjkoo2)" height="23.9688" id="com.hack23.cia.testfoundation" style="stroke: #A80036; stroke-width: 1.5;" width="201" x="2934.5" y="92"/><text fill="#000000" font-family="sans-serif" font-size="12" lengthAdjust="spacingAndGlyphs" textLength="195" x="2937.5" y="108.1387">com.hack23.cia.testfoundation</text><!--class com.hack23.cia.service.data.impl.util--><a href="com/hack23/cia/service/data/impl/util/package-summary.html" target="_top" xlink:actuate="onRequest" xlink:show="new" xlink:title="com/hack23/cia/service/data/impl/util/package-summary.html" xlink:type="simple"><rect fill="#FEFECE" filter="url(#f165i3okdjkoo2)" height="23.9688" id="com.hack23.cia.service.data.impl.util" style="stroke: #A80036; stroke-width: 1.5;" width="237" x="3140.5" y="8"/><text fill="#000000" font-family="sans-serif" font-size="12" lengthAdjust="spacingAndGlyphs" textLength="231" x="3143.5" y="24.1387">com.hack23.cia.service.data.impl.util</text></a><!--class com.amazonaws.secretsmanager.caching--><rect fill="#FEFECE" filter="url(#f165i3okdjkoo2)" height="23.9688" id="com.amazonaws.secretsmanager.caching" style="stroke: #A80036; stroke-width: 1.5;" width="268" x="3413" y="92"/><text fill="#000000" font-family="sans-serif" font-size="12" lengthAdjust="spacingAndGlyphs" textLength="262" x="3416" y="108.1387">com.amazonaws.secretsmanager.caching</text><!--class org.postgresql.xa--><rect fill="#FEFECE" filter="url(#f165i3okdjkoo2)" height="23.9688" id="org.postgresql.xa" style="stroke: #A80036; stroke-width: 1.5;" width="116" x="3262" y="92"/><text fill="#000000" font-family="sans-serif" font-size="12" lengthAdjust="spacingAndGlyphs" textLength="110" x="3265" y="108.1387">org.postgresql.xa</text><!--link com.hack23.cia.service.data.impl to com.hack23.cia.service.data.api--><path d="M1758.1165,26.5662 C1944.2846,38.1974 2339.5666,63.8619 2673,92 C2677.1918,92.3537 2681.4635,92.7244 2685.7779,93.1072 " fill="none" id="com.hack23.cia.service.data.impl-com.hack23.cia.service.data.api" style="stroke: #A80036; stroke-width: 1.0;"/><polygon fill="#A80036" points="2690.86,93.562,2682.2524,88.7756,2685.8799,93.1163,2681.5393,96.7438,2690.86,93.562" style="stroke: #A80036; stroke-width: 1.0;"/><!--link com.hack23.cia.service.data.impl to org.javers.core--><path d="M1543.8998,23.2689 C1243.9946,32.7065 399.8029,61.289 124,92 C119.8039,92.4672 115.4754,93.033 111.1302,93.6614 " fill="none" id="com.hack23.cia.service.data.impl-org.javers.core" style="stroke: #A80036; stroke-width: 1.0;"/><polygon fill="#A80036" points="106.0288,94.4257,115.5221,97.048,110.9736,93.6848,114.3368,89.1363,106.0288,94.4257" style="stroke: #A80036; stroke-width: 1.0;"/><!--link com.hack23.cia.service.data.impl to org.springframework.transaction--><path d="M1543.7757,24.5352 C1323.6202,34.1761 804.745,58.5895 370,92 C366.014,92.3063 361.9566,92.6316 357.8594,92.9715 " fill="none" id="com.hack23.cia.service.data.impl-org.springframework.transaction" style="stroke: #A80036; stroke-width: 1.0;"/><polygon fill="#A80036" points="352.6506,93.4096,361.9542,96.6411,357.633,92.9905,361.2836,88.6692,352.6506,93.4096" style="stroke: #A80036; stroke-width: 1.0;"/><!--link com.hack23.cia.service.data.impl to org.javers.spring.auditable.aspect--><path d="M1543.9539,26.6936 C1357.414,38.5425 960.696,64.5597 626,92 C622.0115,92.327 617.9539,92.6671 613.8563,93.0167 " fill="none" id="com.hack23.cia.service.data.impl-org.javers.spring.auditable.aspect" style="stroke: #A80036; stroke-width: 1.0;"/><polygon fill="#A80036" points="608.6469,93.4646,617.9565,96.679,613.6285,93.0363,617.2712,88.7084,608.6469,93.4646" style="stroke: #A80036; stroke-width: 1.0;"/><!--link com.hack23.cia.service.data.impl to org.javers.spring.auditable--><path d="M1543.984,28.5203 C1387.965,41.1514 1088.9673,66.1483 835,92 C831.1223,92.3947 827.1644,92.8075 823.167,93.2326 " fill="none" id="com.hack23.cia.service.data.impl-org.javers.spring.auditable" style="stroke: #A80036; stroke-width: 1.0;"/><polygon fill="#A80036" points="818.0856,93.7772,827.4606,96.7953,823.0571,93.2443,826.6081,88.8408,818.0856,93.7772" style="stroke: #A80036; stroke-width: 1.0;"/><!--link com.hack23.cia.service.data.impl to com.hack23.cia.model.internal.application.system.impl--><path d="M1561.596,32.0352 C1444.7113,47.7696 1240.8572,75.2115 1121.5045,91.2782 " fill="none" id="com.hack23.cia.service.data.impl-com.hack23.cia.model.internal.application.system.impl" style="stroke: #A80036; stroke-width: 1.0;"/><polygon fill="#A80036" points="1116.2381,91.9872,1125.6913,94.7506,1121.1934,91.3201,1124.6239,86.8221,1116.2381,91.9872" style="stroke: #A80036; stroke-width: 1.0;"/><!--link com.hack23.cia.service.data.impl to org.hibernate.search.mapper.orm.session--><path d="M1611.0261,32.0352 C1559.6457,47.5045 1470.6791,74.2902 1416.9835,90.4566 " fill="none" id="com.hack23.cia.service.data.impl-org.hibernate.search.mapper.orm.session" style="stroke: #A80036; stroke-width: 1.0;"/><polygon fill="#A80036" points="1411.8997,91.9872,1421.6708,93.2225,1416.6874,90.5456,1419.3643,85.5622,1411.8997,91.9872" style="stroke: #A80036; stroke-width: 1.0;"/><!--link com.hack23.cia.service.data.impl to org.slf4j--><path d="M1758.0859,22.249 C2054.8493,28.9409 2883.6379,50.8653 3153,92 C3157.2222,92.6448 3161.6171,93.5192 3165.9423,94.5042 " fill="none" id="com.hack23.cia.service.data.impl-org.slf4j" style="stroke: #A80036; stroke-width: 1.0;"/><polygon fill="#A80036" points="3170.9733,95.704,3163.1469,89.7251,3166.1097,94.544,3161.2909,97.5069,3170.9733,95.704" style="stroke: #A80036; stroke-width: 1.0;"/><!--link com.hack23.cia.service.data.impl to org.hibernate.boot.model.naming--><path d="M1651,32.0352 C1651,46.3818 1651,70.4615 1651,86.777 " fill="none" id="com.hack23.cia.service.data.impl-org.hibernate.boot.model.naming" style="stroke: #A80036; stroke-width: 1.0;"/><polygon fill="#A80036" points="1651,91.9872,1655,82.9872,1651,86.9872,1647,82.9872,1651,91.9872" style="stroke: #A80036; stroke-width: 1.0;"/><!--link com.hack23.cia.service.data.impl to org.hibernate.engine.jdbc.env.spi--><path d="M1687.1055,32.0352 C1733.42,47.4733 1813.5466,74.1822 1862.076,90.3587 " fill="none" id="com.hack23.cia.service.data.impl-org.hibernate.engine.jdbc.env.spi" style="stroke: #A80036; stroke-width: 1.0;"/><polygon fill="#A80036" points="1866.9615,91.9872,1859.6883,85.3464,1862.2181,90.4061,1857.1584,92.9359,1866.9615,91.9872" style="stroke: #A80036; stroke-width: 1.0;"/><!--link com.hack23.cia.service.data.impl to org.hibernate.search.backend.lucene.analysis--><path d="M1728.9419,32.0352 C1830.6394,47.7384 2007.8561,75.1028 2111.9918,91.1826 " fill="none" id="com.hack23.cia.service.data.impl-org.hibernate.search.backend.lucene.analysis" style="stroke: #A80036; stroke-width: 1.0;"/><polygon fill="#A80036" points="2117.2026,91.9872,2108.9186,86.6604,2112.2612,91.2241,2107.6975,94.5667,2117.2026,91.9872" style="stroke: #A80036; stroke-width: 1.0;"/><!--link com.hack23.cia.service.data.impl to org.hibernate.search.mapper.orm.mapping--><path d="M1758.0572,30.3843 C1917.4751,45.8475 2216.8031,74.8816 2388.0461,91.4918 " fill="none" id="com.hack23.cia.service.data.impl-org.hibernate.search.mapper.orm.mapping" style="stroke: #A80036; stroke-width: 1.0;"/><polygon fill="#A80036" points="2393.0748,91.9795,2384.5031,87.1291,2388.0982,91.4967,2383.7306,95.0917,2393.0748,91.9795" style="stroke: #A80036; stroke-width: 1.0;"/><!--link com.hack23.cia.service.data.impl to com.hack23.cia.testfoundation--><path d="M1758.146,24.5181 C1976.2768,34.0649 2487.5563,58.2211 2916,92 C2920.3147,92.3402 2924.7157,92.7045 2929.1603,93.0868 " fill="none" id="com.hack23.cia.service.data.impl-com.hack23.cia.testfoundation" style="stroke: #A80036; stroke-width: 1.0;"/><polygon fill="#A80036" points="2934.3954,93.5435,2925.7771,88.7764,2929.4143,93.1089,2925.0818,96.7461,2934.3954,93.5435" style="stroke: #A80036; stroke-width: 1.0;"/><!--link com.hack23.cia.service.data.impl.util to org.slf4j--><path d="M3250.4035,32.0352 C3239.9777,46.6313 3222.3557,71.302 3210.6992,87.6211 " fill="none" id="com.hack23.cia.service.data.impl.util-org.slf4j" style="stroke: #A80036; stroke-width: 1.0;"/><polygon fill="#A80036" points="3207.5806,91.9872,3216.0667,86.9886,3210.4868,87.9186,3209.5569,82.3387,3207.5806,91.9872" style="stroke: #A80036; stroke-width: 1.0;"/><!--link com.hack23.cia.service.data.impl.util to com.amazonaws.secretsmanager.caching--><path d="M3300.2634,32.0352 C3353.4082,47.5357 3445.5081,74.3982 3500.9002,90.5542 " fill="none" id="com.hack23.cia.service.data.impl.util-com.amazonaws.secretsmanager.caching" style="stroke: #A80036; stroke-width: 1.0;"/><polygon fill="#A80036" points="3505.8132,91.9872,3498.2934,85.627,3501.0132,90.5871,3496.0532,93.3069,3505.8132,91.9872" style="stroke: #A80036; stroke-width: 1.0;"/><!--link com.hack23.cia.service.data.impl.util to org.postgresql.xa--><path d="M3267.7398,32.0352 C3278.3394,46.6313 3296.255,71.302 3308.1058,87.6211 " fill="none" id="com.hack23.cia.service.data.impl.util-org.postgresql.xa" style="stroke: #A80036; stroke-width: 1.0;"/><polygon fill="#A80036" points="3311.2764,91.9872,3309.2247,82.3544,3308.3384,87.9414,3302.7515,87.0551,3311.2764,91.9872" style="stroke: #A80036; stroke-width: 1.0;"/><!--link com.hack23.cia.service.data.impl.util to com.hack23.cia.testfoundation--><path d="M3226.9063,32.0352 C3185.9041,47.411 3115.0892,73.9665 3071.9012,90.1621 " fill="none" id="com.hack23.cia.service.data.impl.util-com.hack23.cia.testfoundation" style="stroke: #A80036; stroke-width: 1.0;"/><polygon fill="#A80036" points="3067.0342,91.9872,3076.8656,92.5725,3071.7159,90.2316,3074.0568,85.0819,3067.0342,91.9872" style="stroke: #A80036; stroke-width: 1.0;"/><text fill="#888888" font-family="sans-serif" font-size="10" lengthAdjust="spacingAndGlyphs" textLength="186" x="1756.5" y="135.2822">UMLDoclet 2.0.5, PlantUML 1.2019.08</text><!--
@startuml
    set namespaceSeparator none
    hide circle
    hide empty fields
    hide empty methods

    com.hack23.cia.service.data.impl - -> com.hack23.cia.service.data.api
    com.hack23.cia.service.data.impl - -> org.javers.core
    com.hack23.cia.service.data.impl - -> org.springframework.transaction
    com.hack23.cia.service.data.impl - -> org.javers.spring.auditable.aspect
    com.hack23.cia.service.data.impl - -> org.javers.spring.auditable
    com.hack23.cia.service.data.impl - -> com.hack23.cia.model.internal.application.system.impl
    com.hack23.cia.service.data.impl - -> org.hibernate.search.mapper.orm.session
    com.hack23.cia.service.data.impl - -> org.slf4j
    com.hack23.cia.service.data.impl - -> org.hibernate.boot.model.naming
    com.hack23.cia.service.data.impl - -> org.hibernate.engine.jdbc.env.spi
    com.hack23.cia.service.data.impl - -> org.hibernate.search.backend.lucene.analysis
    com.hack23.cia.service.data.impl - -> org.hibernate.search.mapper.orm.mapping
    com.hack23.cia.service.data.impl - -> com.hack23.cia.testfoundation
    com.hack23.cia.service.data.impl.util - -> org.slf4j
    com.hack23.cia.service.data.impl.util - -> com.amazonaws.secretsmanager.caching
    com.hack23.cia.service.data.impl.util - -> org.postgresql.xa
    com.hack23.cia.service.data.impl.util - -> com.hack23.cia.testfoundation

    class "com.hack23.cia.service.data.impl" [[com/hack23/cia/service/data/impl/package-summary.html]] {
    }
    class "com.hack23.cia.service.data.impl.util" [[com/hack23/cia/service/data/impl/util/package-summary.html]] {
    }

    center footer UMLDoclet 2.0.5, PlantUML 1.2019.08
@enduml

PlantUML version 1.2019.08(Sat Jul 13 21:25:14 CEST 2019)
(APACHE source distribution)
Java Runtime: OpenJDK Runtime Environment
JVM: OpenJDK 64-Bit Server VM
Java Version: 11.0.4+11-post-Ubuntu-1ubuntu219.04
Operating System: Linux
OS Version: 5.0.0-27-generic
Default Encoding: UTF-8
Language: en
Country: US
--></g></svg>