<svg xmlns="http://www.w3.org/2000/svg" xmlns:xlink="http://www.w3.org/1999/xlink" contentStyleType="text/css" height="331px" preserveAspectRatio="none" style="width:898px;height:331px;background:#FFFFFF;" version="1.1" viewBox="0 0 898 331" width="898px" zoomAndPan="magnify"><defs/><g><!--class com.hack23.cia.model.internal.application.data.committee.impl.ViewRiksdagenCommitteeDecisionTypeDailySummary--><a href="ViewRiksdagenCommitteeDecisionTypeDailySummary.html" target="_top" title="ViewRiksdagenCommitteeDecisionTypeDailySummary.html" xlink:actuate="onRequest" xlink:href="ViewRiksdagenCommitteeDecisionTypeDailySummary.html" xlink:show="new" xlink:title="ViewRiksdagenCommitteeDecisionTypeDailySummary.html" xlink:type="simple"><g id="elem_com.hack23.cia.model.internal.application.data.committee.impl.ViewRiksdagenCommitteeDecisionTypeDailySummary"><rect codeLine="13" fill="#F1F1F1" height="211.2312" id="com.hack23.cia.model.internal.application.data.committee.impl.ViewRiksdagenCommitteeDecisionTypeDailySummary" rx="2.5" ry="2.5" style="stroke:#181818;stroke-width:0.5;" width="885.8771" x="6" y="91"/><ellipse cx="267.1412" cy="112.344" fill="#ADD1B2" rx="11" ry="11" style="stroke:#181818;stroke-width:1.0;"/><path d="M270.11,117.9846 Q269.5319,118.2815 268.8912,118.4221 Q268.2506,118.5783 267.5475,118.5783 Q265.0475,118.5783 263.7194,116.9377 Q262.4069,115.2815 262.4069,112.1565 Q262.4069,109.0315 263.7194,107.3752 Q265.0475,105.719 267.5475,105.719 Q268.2506,105.719 268.8912,105.8752 Q269.5475,106.0315 270.11,106.3283 L270.11,109.0471 Q269.485,108.469 268.8912,108.2033 Q268.2975,107.9221 267.6725,107.9221 Q266.3287,107.9221 265.6412,109.0002 Q264.9537,110.0627 264.9537,112.1565 Q264.9537,114.2502 265.6412,115.3283 Q266.3287,116.3908 267.6725,116.3908 Q268.2975,116.3908 268.8912,116.1252 Q269.485,115.844 270.11,115.2658 L270.11,117.9846 Z " fill="#000000"/><text fill="#000000" font-family="sans-serif" font-size="14" lengthAdjust="spacing" textLength="355.0947" x="287.6412" y="110.9659">ViewRiksdagenCommitteeDecisionTypeDailySummary</text><text fill="#000000" font-family="sans-serif" font-size="10" lengthAdjust="spacing" textLength="298.4498" x="315.9637" y="125.7579">com.hack23.cia.model.internal.application.data.committee.impl</text><line style="stroke:#181818;stroke-width:0.5;" x1="7" x2="890.8771" y1="133.6879" y2="133.6879"/><polygon fill="none" points="17,143.7219,21,147.7219,17,151.7219,13,147.7219" style="stroke:#B38D22;stroke-width:1.0;"/><text fill="#000000" font-family="sans-serif" font-size="14" lengthAdjust="spacing" textLength="468.1723" x="26" y="152.6538">embeddedId: RiksdagenCommitteeDecisionTypeSummaryEmbeddedId</text><polygon fill="none" points="17,162.7898,21,166.7898,17,170.7898,13,166.7898" style="stroke:#B38D22;stroke-width:1.0;"/><text fill="#000000" font-family="sans-serif" font-size="14" lengthAdjust="spacing" textLength="66.7798" x="26" y="171.7218">total: long</text><line style="stroke:#181818;stroke-width:0.5;" x1="7" x2="890.8771" y1="179.8237" y2="179.8237"/><ellipse cx="17" cy="194.8577" fill="#84BE84" rx="3" ry="3" style="stroke:#038048;stroke-width:1.0;"/><text fill="#000000" font-family="sans-serif" font-size="14" lengthAdjust="spacing" textLength="498.0201" x="26" y="198.7897">getEmbeddedId(): RiksdagenCommitteeDecisionTypeSummaryEmbeddedId</text><ellipse cx="17" cy="213.9256" fill="#84BE84" rx="3" ry="3" style="stroke:#038048;stroke-width:1.0;"/><text fill="#000000" font-family="sans-serif" font-size="14" lengthAdjust="spacing" textLength="523.9201" x="26" y="217.8576">setEmbeddedId(RiksdagenCommitteeDecisionTypeSummaryEmbeddedId): void</text><ellipse cx="17" cy="232.9935" fill="#84BE84" rx="3" ry="3" style="stroke:#038048;stroke-width:1.0;"/><text fill="#000000" font-family="sans-serif" font-size="14" lengthAdjust="spacing" textLength="99.4696" x="26" y="236.9255">getTotal(): long</text><ellipse cx="17" cy="252.0614" fill="#84BE84" rx="3" ry="3" style="stroke:#038048;stroke-width:1.0;"/><text fill="#000000" font-family="sans-serif" font-size="14" lengthAdjust="spacing" textLength="125.3695" x="26" y="255.9934">setTotal(long): void</text><ellipse cx="17" cy="271.1294" fill="#84BE84" rx="3" ry="3" style="stroke:#038048;stroke-width:1.0;"/><text fill="#000000" font-family="sans-serif" font-size="14" lengthAdjust="spacing" textLength="859.8771" x="26" y="275.0613">withEmbeddedId(RiksdagenCommitteeDecisionTypeSummaryEmbeddedId): ViewRiksdagenCommitteeDecisionTypeDailySummary</text><ellipse cx="17" cy="290.1973" fill="#84BE84" rx="3" ry="3" style="stroke:#038048;stroke-width:1.0;"/><text fill="#000000" font-family="sans-serif" font-size="14" lengthAdjust="spacing" textLength="461.3262" x="26" y="294.1293">withTotal(long): ViewRiksdagenCommitteeDecisionTypeDailySummary</text></g></a><!--class com.hack23.cia.model.common.api.ModelObject--><g id="elem_com.hack23.cia.model.common.api.ModelObject"><rect codeLine="24" fill="#F1F1F1" height="42.6879" id="com.hack23.cia.model.common.api.ModelObject" rx="2.5" ry="2.5" style="stroke:#181818;stroke-width:0.5;" width="189.3398" x="354.5" y="12"/><ellipse cx="369.5" cy="33.344" fill="#B4A7E5" rx="11" ry="11" style="stroke:#181818;stroke-width:1.0;"/><path d="M365.4219,29.1096 L365.4219,26.9533 L372.8125,26.9533 L372.8125,29.1096 L370.3438,29.1096 L370.3438,37.1877 L372.8125,37.1877 L372.8125,39.344 L365.4219,39.344 L365.4219,37.1877 L367.8906,37.1877 L367.8906,29.1096 L365.4219,29.1096 Z " fill="#000000"/><text fill="#000000" font-family="sans-serif" font-size="14" font-style="italic" lengthAdjust="spacing" textLength="78.1477" x="423.096" y="31.9659">ModelObject</text><text fill="#000000" font-family="sans-serif" font-size="10" font-style="italic" lengthAdjust="spacing" textLength="157.3398" x="383.5" y="46.7579">com.hack23.cia.model.common.api</text></g><polygon fill="none" points="449,55.2183,443,73.2183,455,73.2183,449,55.2183" style="stroke:#181818;stroke-width:1.0;"/><path d="M449,73.2183 C449,82.9851 449,77.4416 449,90.8868 " fill="none" style="stroke:#181818;stroke-width:1.0;stroke-dasharray:7.0,7.0;"/><text fill="#888888" font-family="sans-serif" font-size="10" lengthAdjust="spacing" textLength="2.6" x="444.2" y="306.69">&#160;</text><a href="https://github.com/talsma-ict/umldoclet" target="_top" title="https://github.com/talsma-ict/umldoclet" xlink:actuate="onRequest" xlink:href="https://github.com/talsma-ict/umldoclet" xlink:show="new" xlink:title="https://github.com/talsma-ict/umldoclet" xlink:type="simple"><text fill="#888888" font-family="sans-serif" font-size="10" lengthAdjust="spacing" textLength="76.7199" x="407.14" y="320.31">UMLDoclet 2.2.1</text></a><!--SRC=[lLNVJzim47xdhxZ1mq1GDmdGiGeXeO8sfg9DjEobzE5g7ubNnyvY1zHj_E-pqz8Vx6U7jBn4kVDzttVdkmi0m4lec69IoZHpu0ouJ5gulkm2QW4fQIhHaG2POqeMHgICJktq805MBZCbcDlwYvko95iOBQHEuHtU8LXJbPmiszY0cgh_Y7wFTWbzD0d6CyCLETZkx2n9IgAurKYYv03wg6oESD7findQ8YPX2Ol1Ool9ILiFMMb1PIthj43kNzsfPm_kgBJIQ1yJpN12gjneXr9RAB1qDgJqGQ5sGMlC0Zzx1TkdlUwgjkXrhMqFJakDbO0hyxcQf_kYA37rYXLEJEN0vkHGuzHdlMYDkIyNSkgH9qNdAwcDfjgVIK50UU4cS2j92VlKwi4ouysrdIkq5ZQFhVn2xVZWvAEa-oivji9VckwOF9VE4PqHbo7p_gIWCvHgqglo7Cl9ZPu5HYVSv2n3Faxs6PV8SYD8CQaT-VGKmwBmzKNdCPX0Xum_GZEP5seJ_AK-2u6j9nm6W_K2MEPoDHp2rxfguTcYV4H2aBWGRVWzq0pZV1wm0776eMf3c8svSJSbjpYxlVFlyBjs1MbD64zyPwHOqTKFUeEaLSNsqHFCFyJTIvSzIyPwTxLAlABh7u0UfeDID-Aj7xcbORaCBVf-z8cu-zCaX6xrdOk5_7MlBywm9UJPdFvz01n_O-o_JjDKuh5r4qKdy-hV6kFPbYOcF6zzQDcLUjmnoc-jhQEVUw_33bPIar_xVAp9xwXeVl9XIjTSufjntUZ187EkiErcC_LtNur2OarNx_-6vAvPvKfC5_-JNy1mE5lfR-R_bh2V6t7II8xwSQkTxBUZ5Zji7IQj-6Z_S3UAsr4qEAzAKr2pvmmVPqRbm-y0]--></g></svg>