<svg xmlns="http://www.w3.org/2000/svg" xmlns:xlink="http://www.w3.org/1999/xlink" contentStyleType="text/css" data-diagram-type="CLASS" height="285px" preserveAspectRatio="none" style="width:365px;height:285px;background:#FFFFFF;" version="1.1" viewBox="0 0 365 285" width="365px" zoomAndPan="magnify"><defs/><g><!--class com.hack23.cia.model.internal.application.data.party.impl.ViewRiksdagenPartyElectoralTrendsEmbeddedId--><g class="entity" data-entity="com.hack23.cia.model.internal.application.data.party.impl.ViewRiksdagenPartyElectoralTrendsEmbeddedId" data-source-line="13" data-uid="ent0002" id="entity_com.hack23.cia.model.internal.application.data.party.impl.ViewRiksdagenPartyElectoralTrendsEmbeddedId"><a href="ViewRiksdagenPartyElectoralTrendsEmbeddedId.html" target="_top" title="ViewRiksdagenPartyElectoralTrendsEmbeddedId.html" xlink:actuate="onRequest" xlink:href="ViewRiksdagenPartyElectoralTrendsEmbeddedId.html" xlink:show="new" xlink:title="ViewRiksdagenPartyElectoralTrendsEmbeddedId.html" xlink:type="simple"><rect fill="#F1F1F1" height="165.0954" rx="2.5" ry="2.5" style="stroke:#181818;stroke-width:0.5;" width="352.0107" x="6" y="91"/><ellipse cx="21" cy="112.344" fill="#ADD1B2" rx="11" ry="11" style="stroke:#181818;stroke-width:1;"/><path d="M23.9688,117.9846 Q23.3906,118.2815 22.75,118.4221 Q22.1094,118.5783 21.4063,118.5783 Q18.9063,118.5783 17.5781,116.9377 Q16.2656,115.2815 16.2656,112.1565 Q16.2656,109.0315 17.5781,107.3752 Q18.9063,105.719 21.4063,105.719 Q22.1094,105.719 22.75,105.8752 Q23.4063,106.0315 23.9688,106.3283 L23.9688,109.0471 Q23.3438,108.469 22.75,108.2033 Q22.1563,107.9221 21.5313,107.9221 Q20.1875,107.9221 19.5,109.0002 Q18.8125,110.0627 18.8125,112.1565 Q18.8125,114.2502 19.5,115.3283 Q20.1875,116.3908 21.5313,116.3908 Q22.1563,116.3908 22.75,116.1252 Q23.3438,115.844 23.9688,115.2658 L23.9688,117.9846 Z " fill="#000000"/><text fill="#000000" font-family="sans-serif" font-size="14" lengthAdjust="spacing" textLength="320.0107" x="35" y="110.9659">ViewRiksdagenPartyElectoralTrendsEmbeddedId</text><text fill="#000000" font-family="sans-serif" font-size="10" lengthAdjust="spacing" textLength="272.4198" x="58.7955" y="125.7579">com.hack23.cia.model.internal.application.data.party.impl</text><line style="stroke:#181818;stroke-width:0.5;" x1="7" x2="357.0107" y1="133.6879" y2="133.6879"/><ellipse cx="17" cy="148.7219" fill="#84BE84" rx="3" ry="3" style="stroke:#038048;stroke-width:1;"/><text fill="#000000" font-family="sans-serif" font-size="14" lengthAdjust="spacing" textLength="111.0476" x="26" y="152.6538">getParty(): String</text><ellipse cx="17" cy="167.7898" fill="#84BE84" rx="3" ry="3" style="stroke:#038048;stroke-width:1;"/><text fill="#000000" font-family="sans-serif" font-size="14" lengthAdjust="spacing" textLength="136.9475" x="26" y="171.7218">setParty(String): void</text><ellipse cx="17" cy="186.8577" fill="#84BE84" rx="3" ry="3" style="stroke:#038048;stroke-width:1;"/><text fill="#000000" font-family="sans-serif" font-size="14" lengthAdjust="spacing" textLength="176.1193" x="26" y="190.7897">getElectionCycleId(): String</text><ellipse cx="17" cy="205.9256" fill="#84BE84" rx="3" ry="3" style="stroke:#038048;stroke-width:1;"/><text fill="#000000" font-family="sans-serif" font-size="14" lengthAdjust="spacing" textLength="202.0192" x="26" y="209.8576">setElectionCycleId(String): void</text><ellipse cx="17" cy="224.9935" fill="#84BE84" rx="3" ry="3" style="stroke:#038048;stroke-width:1;"/><text fill="#000000" font-family="sans-serif" font-size="14" lengthAdjust="spacing" textLength="138.7535" x="26" y="228.9255">getSemester(): String</text><ellipse cx="17" cy="244.0614" fill="#84BE84" rx="3" ry="3" style="stroke:#038048;stroke-width:1;"/><text fill="#000000" font-family="sans-serif" font-size="14" lengthAdjust="spacing" textLength="164.6534" x="26" y="247.9934">setSemester(String): void</text></a></g><!--class java.io.Serializable--><g class="entity" data-entity="java.io.Serializable" data-source-line="22" data-uid="ent0003" id="entity_java.io.Serializable"><rect fill="#F1F1F1" height="42.6879" rx="2.5" ry="2.5" style="stroke:#181818;stroke-width:0.5;" width="103.3017" x="130.5" y="12"/><ellipse cx="145.5" cy="33.344" fill="#B4A7E5" rx="11" ry="11" style="stroke:#181818;stroke-width:1;"/><path d="M141.4219,29.1096 L141.4219,26.9533 L148.8125,26.9533 L148.8125,29.1096 L146.3438,29.1096 L146.3438,37.1877 L148.8125,37.1877 L148.8125,39.344 L141.4219,39.344 L141.4219,37.1877 L143.8906,37.1877 L143.8906,29.1096 L141.4219,29.1096 Z " fill="#000000"/><text fill="#000000" font-family="sans-serif" font-size="14" font-style="italic" lengthAdjust="spacing" textLength="71.3017" x="159.5" y="31.9659">Serializable</text><text fill="#000000" font-family="sans-serif" font-size="10" font-style="italic" lengthAdjust="spacing" textLength="29.38" x="180.4609" y="46.7579">java.io</text></g><g class="link" data-entity-1="java.io.Serializable" data-entity-2="com.hack23.cia.model.internal.application.data.party.impl.ViewRiksdagenPartyElectoralTrendsEmbeddedId" data-uid="lnk4" id="link_java.io.Serializable_com.hack23.cia.model.internal.application.data.party.impl.ViewRiksdagenPartyElectoralTrendsEmbeddedId"><polygon fill="none" points="182,55.16,176,73.16,188,73.16,182,55.16" style="stroke:#181818;stroke-width:1;"/><path d="M182,73.16 C182,83.0851 182,77.6918 182,90.9378" fill="none" style="stroke:#181818;stroke-width:1;stroke-dasharray:7,7;"/></g><g class="footer" data-source-line="32"><text fill="#888888" font-family="sans-serif" font-size="10" lengthAdjust="spacing" textLength="2.6" x="177.2" y="260.69">&#160;</text><a href="https://github.com/talsma-ict/umldoclet" target="_top" title="https://github.com/talsma-ict/umldoclet" xlink:actuate="onRequest" xlink:href="https://github.com/talsma-ict/umldoclet" xlink:show="new" xlink:title="https://github.com/talsma-ict/umldoclet" xlink:type="simple"><text fill="#888888" font-family="sans-serif" font-size="10" lengthAdjust="spacing" textLength="76.7199" x="140.14" y="274.31">UMLDoclet 2.2.4</text></a></g><!--SRC=[lLHDJzj04BtpAwRqK11auvX08K98A4KjLIeX4de9EKoyatYRzQwxkmQPbl_UiHr2e72WX_fYUpxUl7cpEm007w1lyzAfUHeWM0Yfyd3rRG1e9Cp9aCD04bI6S_8m9MtDt3U115Y4r3gmi_eliSwHpwsHoipXAzuWU5kuXBpOs82wrEW1_HRz6lgqh8oVRA8fm5P_UurI77KEMd4K7y08jSyGpliZiKHxp8b5BBh0s5ebP3n35aQIgscTvfZmQz1uTk66d5VMS4wqnAbQJQm9g8o775tmLKiN6asek7O4rzyNdGYsJeU3f-IYevhSBfmwWuM4I_kpMFNxBdSuPyeQIri4y1a5DDZuFBCscB5UcD2Gk2e6bj9OGxK_LPA0iZoKC5EafNzkPR3Kihcs9ngzXyrZh-wer-cUV5TqUwaMNlBKp0LtL9vfIhW0wf4Z8_rPDYKfIPxBQxFCYauIcuaKaqMy9nA58hEIj50c4FUc1UOvguk1jHCI0ufAgLAeBDURmEFyvspn1hOm7hyXMgGXqvC9_Af5gfwTEOKwPskx1yFW-AG- -lo3ht5mn8rLyabkNOfxw9TyxixbAoZFerx76n8V0PRe5Q2L-s-4-sRojS0pFaDhqn-IKwZL7KurhOtt1zz8eMmzhEMtM0zj05_omF5l8VxFW1iInpwKcavMMioivJ9hSwoUBsLERg3CecyrNvttXozxhwfDe9KXNZx9mX1Vb6WLUT-KQw_LMzQwDkDn6aBkU-tsN8Mqc0eMe1tgBTHIIMWNcPRD-dcsY2QJvMBvlDfmrP9eHN4hEXf5-xqexdKFHNourzqxwdmyt8awlIWQdnNEvjGU1fiiKgkpoHy0]--></g></svg>