<svg xmlns="http://www.w3.org/2000/svg" xmlns:xlink="http://www.w3.org/1999/xlink" contentStyleType="text/css" data-diagram-type="CLASS" height="274px" preserveAspectRatio="none" style="width:709px;height:274px;background:#FFFFFF;" version="1.1" viewBox="0 0 709 274" width="709px" zoomAndPan="magnify"><defs/><g><!--class com.hack23.cia.service.impl.action.application.DestroyApplicationSessionService--><g class="entity" data-entity="com.hack23.cia.service.impl.action.application.DestroyApplicationSessionService" data-source-line="13" data-uid="ent0002" id="entity_com.hack23.cia.service.impl.action.application.DestroyApplicationSessionService"><a href="DestroyApplicationSessionService.html" target="_top" title="DestroyApplicationSessionService.html" xlink:actuate="onRequest" xlink:href="DestroyApplicationSessionService.html" xlink:show="new" xlink:title="DestroyApplicationSessionService.html" xlink:type="simple"><rect fill="#F1F1F1" height="107.8917" rx="2.5" ry="2.5" style="stroke:#181818;stroke-width:0.5;" width="696.8357" x="6" y="137"/><ellipse cx="239.4423" cy="158.344" fill="#ADD1B2" rx="11" ry="11" style="stroke:#181818;stroke-width:1;"/><path d="M242.411,163.9846 Q241.8329,164.2815 241.1923,164.4221 Q240.5516,164.5783 239.8485,164.5783 Q237.3485,164.5783 236.0204,162.9377 Q234.7079,161.2815 234.7079,158.1565 Q234.7079,155.0315 236.0204,153.3752 Q237.3485,151.719 239.8485,151.719 Q240.5516,151.719 241.1923,151.8752 Q241.8485,152.0315 242.411,152.3283 L242.411,155.0471 Q241.786,154.469 241.1923,154.2033 Q240.5985,153.9221 239.9735,153.9221 Q238.6298,153.9221 237.9423,155.0002 Q237.2548,156.0627 237.2548,158.1565 Q237.2548,160.2502 237.9423,161.3283 Q238.6298,162.3908 239.9735,162.3908 Q240.5985,162.3908 241.1923,162.1252 Q241.786,161.844 242.411,161.2658 L242.411,163.9846 Z " fill="#000000"/><text fill="#000000" font-family="sans-serif" font-size="14" lengthAdjust="spacing" textLength="221.4512" x="259.9423" y="156.9659">DestroyApplicationSessionService</text><text fill="#000000" font-family="sans-serif" font-size="10" lengthAdjust="spacing" textLength="216.6899" x="262.3229" y="171.7579">com.hack23.cia.service.impl.action.application</text><line style="stroke:#181818;stroke-width:0.5;" x1="7" x2="701.8357" y1="179.6879" y2="179.6879"/><ellipse cx="17" cy="194.7219" fill="#84BE84" rx="3" ry="3" style="stroke:#038048;stroke-width:1;"/><text fill="#000000" font-family="sans-serif" font-size="14" lengthAdjust="spacing" textLength="580.046" x="26" y="198.6538">processService(DestroyApplicationSessionRequest): DestroyApplicationSessionResponse</text><polygon fill="#FFFF44" points="17,208.7898,21,212.7898,17,216.7898,13,212.7898" style="stroke:#B38D22;stroke-width:1;"/><text fill="#000000" font-family="sans-serif" font-size="14" lengthAdjust="spacing" textLength="670.8357" x="26" y="217.7218">createApplicationEventForService(DestroyApplicationSessionRequest): CreateApplicationEventRequest</text><polygon fill="#FFFF44" points="17,227.8577,21,231.8577,17,235.8577,13,231.8577" style="stroke:#B38D22;stroke-width:1;"/><text fill="#000000" font-family="sans-serif" font-size="14" lengthAdjust="spacing" textLength="392.6286" x="26" y="236.7897">createErrorResponse(): DestroyApplicationSessionResponse</text></a></g><!--class com.hack23.cia.service.impl.action.common.AbstractBusinessServiceImpl--><g class="entity" data-entity="com.hack23.cia.service.impl.action.common.AbstractBusinessServiceImpl" data-source-line="19" data-uid="ent0003" id="entity_com.hack23.cia.service.impl.action.common.AbstractBusinessServiceImpl"><a href="../common/AbstractBusinessServiceImpl.html" target="_top" title="../common/AbstractBusinessServiceImpl.html" xlink:actuate="onRequest" xlink:href="../common/AbstractBusinessServiceImpl.html" xlink:show="new" xlink:title="../common/AbstractBusinessServiceImpl.html" xlink:type="simple"><rect fill="#F1F1F1" height="88.8237" rx="2.5" ry="2.5" style="stroke:#181818;stroke-width:0.5;" width="650.4814" x="29.5" y="12"/><ellipse cx="63.5526" cy="33.344" fill="#A9DCDF" rx="11" ry="11" style="stroke:#181818;stroke-width:1;"/><path d="M63.662,28.6877 L62.5058,33.7658 L64.8339,33.7658 L63.662,28.6877 Z M62.1776,26.4533 L65.162,26.4533 L68.5214,38.844 L66.0683,38.844 L65.3026,35.7815 L62.0214,35.7815 L61.2714,38.844 L58.8339,38.844 L62.1776,26.4533 Z " fill="#000000"/><text fill="#000000" font-family="sans-serif" font-size="14" font-style="italic" lengthAdjust="spacing" textLength="176.1473" x="91.4128" y="31.9659">AbstractBusinessServiceImpl</text><text fill="#000000" font-family="sans-serif" font-size="10" font-style="italic" lengthAdjust="spacing" textLength="195.3998" x="81.7865" y="46.7579">com.hack23.cia.service.impl.action.common</text><rect fill="#FFFFFF" height="18.3441" style="stroke:#181818;stroke-width:1;stroke-dasharray:2,2;" width="378.7425" x="304.239" y="9"/><text fill="#000000" font-family="sans-serif" font-size="12" font-style="italic" lengthAdjust="spacing" textLength="376.7425" x="305.239" y="22.8281">DestroyApplicationSessionRequest, DestroyApplicationSessionResponse</text><line style="stroke:#181818;stroke-width:0.5;" x1="30.5" x2="678.9814" y1="54.6879" y2="54.6879"/><polygon fill="#FFFF44" points="40.5,64.7219,44.5,68.7219,40.5,72.7219,36.5,68.7219" style="stroke:#B38D22;stroke-width:1;"/><text fill="#000000" font-family="sans-serif" font-size="14" font-style="italic" lengthAdjust="spacing" textLength="364.6005" x="49.5" y="73.6538">createErrorResponse(): DestroyApplicationSessionResponse</text><polygon fill="#FFFF44" points="40.5,83.7898,44.5,87.7898,40.5,91.7898,36.5,87.7898" style="stroke:#B38D22;stroke-width:1;"/><text fill="#000000" font-family="sans-serif" font-size="14" font-style="italic" lengthAdjust="spacing" textLength="624.4814" x="49.5" y="92.7218">createApplicationEventForService(DestroyApplicationSessionRequest): CreateApplicationEventRequest</text></a></g><g class="link" data-entity-1="com.hack23.cia.service.impl.action.common.AbstractBusinessServiceImpl" data-entity-2="com.hack23.cia.service.impl.action.application.DestroyApplicationSessionService" data-uid="lnk4" id="link_com.hack23.cia.service.impl.action.common.AbstractBusinessServiceImpl_com.hack23.cia.service.impl.action.application.DestroyApplicationSessionService"><polygon fill="none" points="354.5,101.2527,348.5,119.2527,360.5,119.2527,354.5,101.2527" style="stroke:#181818;stroke-width:1;"/><path d="M354.5,119.2527 C354.5,130.5596 354.5,124.8586 354.5,136.5979" fill="none" style="stroke:#181818;stroke-width:1;"/></g><g class="footer" data-source-line="32"><text fill="#888888" font-family="sans-serif" font-size="10" lengthAdjust="spacing" textLength="2.6" x="349.7" y="249.69">&#160;</text><a href="https://github.com/talsma-ict/umldoclet" target="_top" title="https://github.com/talsma-ict/umldoclet" xlink:actuate="onRequest" xlink:href="https://github.com/talsma-ict/umldoclet" xlink:show="new" xlink:title="https://github.com/talsma-ict/umldoclet" xlink:type="simple"><text fill="#888888" font-family="sans-serif" font-size="10" lengthAdjust="spacing" textLength="76.7199" x="312.64" y="263.31">UMLDoclet 2.2.4</text></a></g><!--SRC=[jLLTJzim57tdLzp1mugWpWU5ZQggr1MsCNNIHCjJwOFhN1ghZftPJgUCyT_dVD1sq57GM5GfgdryphaVyGK0U0jzbUQQps8BLe6DkO6hhmEWCe8PIjJKOWGyeJCqC4MXvCnKG0IQsLXfK3VbFwQqHfCg6N4vWozqGS6eJ3CqP6S7IgdHFViFQjROftcnUAQOG0kD_lwQfT0FJfgX7vx0Y0gJKBZeZqZDjZeJaf2qm74Bpb0QHvd927LfgvTIvbw3QkSG5gWDLzATyMkU8bIcfALS6aYfjgO8wPkWqXPU0-BqZqdWGwCt7FnfpZyjpHr2JqkQHN2flcVBUD-aciwSPK5pbLam2LegQRLdd6j94vSlod28JfLQbqgf99RxCOyGC4bj3ZSSHMGUhZgoMBdbSfq9QWpiTWp_YUsWrJr3OxNAUsdg4aAj2tU8nfGllN29k9OrrEyobP2OidbuH1Ydn5G0mfDK4CgAeuIkQ7R15UvbHyWsCp0URuEGs2PYCe7RCjhYEKYrSfrbQa3ZhmoNM5J4xhVX2KZHjGQNv7jCeslCDUJv0gNzgFGBvFeREUhzXrBdMYjzxwFnRBDtLVdfr85TvX_rGQ_U-90PBbVPkd2LUbaBE4Zo_EfNQFA4UcTR0W-tPw3h6eSGhnBpdX1xt3stzncx-yS2R2RxturJb_rLAW6TNytcQt_IbR-EiRd0xZ9HDqfPToclob0yd_CKzO3BULy9Tm7klT-yUrNSvyAPToE4pOiOm5yYxoevRqslrhgMut5iRMhQdZVZDiwcHKeyMywI9cVMon8HLKFamJYPJEhny6avfughlkctca4m2exR_f7xaTFmvDrfq3fk7VXXs_V7vvbMANf3gzWyLYAP_0O0]--></g></svg>