<?xml version="1.0" encoding="UTF-8" standalone="no"?><svg xmlns="http://www.w3.org/2000/svg" xmlns:xlink="http://www.w3.org/1999/xlink" contentScriptType="application/ecmascript" contentStyleType="text/css" height="277px" preserveAspectRatio="none" style="width:593px;height:277px;background:#FFFFFF;" version="1.1" viewBox="0 0 593 277" width="593px" zoomAndPan="magnify"><defs><filter height="300%" id="fs2mor80cq2t9" width="300%" x="-1" y="-1"><feGaussianBlur result="blurOut" stdDeviation="2.0"/><feColorMatrix in="blurOut" result="blurOut2" type="matrix" values="0 0 0 0 0 0 0 0 0 0 0 0 0 0 0 0 0 0 .4 0"/><feOffset dx="4.0" dy="4.0" in="blurOut2" result="blurOut3"/><feBlend in="SourceGraphic" in2="blurOut3" mode="normal"/></filter></defs><g><!--MD5=[1ce7a8c16b4cfdace688a3b18a3c374e]
cluster com.hack23.cia.web.impl.ui.application.views.user.home--><polygon fill="#FFFFFF" filter="url(#fs2mor80cq2t9)" points="16,129,470,129,477,151.2969,480,151.2969,480,254,16,254,16,129" style="stroke:#000000;stroke-width:1.5;"/><line style="stroke:#000000;stroke-width:1.5;" x1="16" x2="477" y1="151.2969" y2="151.2969"/><text fill="#000000" font-family="sans-serif" font-size="14" font-weight="bold" lengthAdjust="spacing" textLength="448" x="20" y="143.9951">com.hack23.cia.web.impl.ui.application.views.user.home</text><!--MD5=[b6f7de69fe91c8bcc3328c73a6375d62]
cluster com.hack23.cia.web.impl.ui.application.views.user.common--><polygon fill="#FFFFFF" filter="url(#fs2mor80cq2t9)" points="89,6,566,6,573,28.2969,576,28.2969,576,105,89,105,89,6" style="stroke:#000000;stroke-width:1.5;"/><line style="stroke:#000000;stroke-width:1.5;" x1="89" x2="573" y1="28.2969" y2="28.2969"/><text fill="#000000" font-family="sans-serif" font-size="14" font-weight="bold" lengthAdjust="spacing" textLength="471" x="93" y="20.9951">com.hack23.cia.web.impl.ui.application.views.user.common</text><!--MD5=[b3e66bcf1527c6ba86dfa3e172acd529]
class com.hack23.cia.web.impl.ui.application.views.user.home.UserHomeView--><a href="UserHomeView.html" target="_top" title="UserHomeView.html" xlink:actuate="onRequest" xlink:href="UserHomeView.html" xlink:show="new" xlink:title="UserHomeView.html" xlink:type="simple"><rect codeLine="3" fill="#FEFECE" filter="url(#fs2mor80cq2t9)" height="73.6094" id="com.hack23.cia.web.impl.ui.application.views.user.home.UserHomeView" style="stroke:#A80036;stroke-width:1.5;" width="224" x="136" y="164"/><ellipse cx="197.25" cy="180" fill="#ADD1B2" rx="11" ry="11" style="stroke:#A80036;stroke-width:1.0;"/><path d="M200.2188,185.6406 Q199.6406,185.9375 199,186.0781 Q198.3594,186.2344 197.6563,186.2344 Q195.1563,186.2344 193.8281,184.5938 Q192.5156,182.9375 192.5156,179.8125 Q192.5156,176.6875 193.8281,175.0313 Q195.1563,173.375 197.6563,173.375 Q198.3594,173.375 199,173.5313 Q199.6563,173.6875 200.2188,173.9844 L200.2188,176.7031 Q199.5938,176.125 199,175.8594 Q198.4063,175.5781 197.7813,175.5781 Q196.4375,175.5781 195.75,176.6563 Q195.0625,177.7188 195.0625,179.8125 Q195.0625,181.9063 195.75,182.9844 Q196.4375,184.0469 197.7813,184.0469 Q198.4063,184.0469 199,183.7813 Q199.5938,183.5 200.2188,182.9219 L200.2188,185.6406 Z " fill="#000000"/><text fill="#000000" font-family="sans-serif" font-size="12" lengthAdjust="spacing" textLength="93" x="217.75" y="184.1543">UserHomeView</text><line style="stroke:#A80036;stroke-width:1.5;" x1="137" x2="359" y1="196" y2="196"/><ellipse cx="147" cy="207" rx="3" ry="3" style="stroke:#038048;stroke-width:1.0;fill:none;"/><text fill="#000000" font-family="sans-serif" font-size="11" lengthAdjust="spacing" text-decoration="underline" textLength="73" x="156" y="210.2104">NAME: String</text><line style="stroke:#A80036;stroke-width:1.5;" x1="137" x2="359" y1="216.8047" y2="216.8047"/><ellipse cx="147" cy="227.8047" fill="#84BE84" rx="3" ry="3" style="stroke:#038048;stroke-width:1.0;"/><text fill="#000000" font-family="sans-serif" font-size="11" lengthAdjust="spacing" textLength="198" x="156" y="231.0151">UserHomeView(ApplicationContext)</text></a><!--MD5=[968b4da468365d2329577b3d306a41ed]
class com.hack23.cia.web.impl.ui.application.views.user.common.AbstractUserView--><a href="../common/AbstractUserView.html" target="_top" title="../common/AbstractUserView.html" xlink:actuate="onRequest" xlink:href="../common/AbstractUserView.html" xlink:show="new" xlink:title="../common/AbstractUserView.html" xlink:type="simple"><rect codeLine="12" fill="#FEFECE" filter="url(#fs2mor80cq2t9)" height="48" id="com.hack23.cia.web.impl.ui.application.views.user.common.AbstractUserView" style="stroke:#A80036;stroke-width:1.5;" width="141" x="177.5" y="41"/><ellipse cx="192.5" cy="57" fill="#A9DCDF" rx="11" ry="11" style="stroke:#A80036;stroke-width:1.0;"/><path d="M192.6094,52.3438 L191.4531,57.4219 L193.7813,57.4219 L192.6094,52.3438 Z M191.125,50.1094 L194.1094,50.1094 L197.4688,62.5 L195.0156,62.5 L194.25,59.4375 L190.9688,59.4375 L190.2188,62.5 L187.7813,62.5 L191.125,50.1094 Z " fill="#000000"/><text fill="#000000" font-family="sans-serif" font-size="12" font-style="italic" lengthAdjust="spacing" textLength="109" x="206.5" y="61.1543">AbstractUserView</text><line style="stroke:#A80036;stroke-width:1.5;" x1="178.5" x2="317.5" y1="73" y2="73"/><line style="stroke:#A80036;stroke-width:1.5;" x1="178.5" x2="317.5" y1="81" y2="81"/></a><!--MD5=[306d01d9b9f9d18fcc361b409f01b334]
reverse link com.hack23.cia.web.impl.ui.application.views.user.common.AbstractUserView to com.hack23.cia.web.impl.ui.application.views.user.home.UserHomeView--><path codeLine="8" d="M248,109.26 C248,126.9 248,147.07 248,163.91 " fill="none" id="com.hack23.cia.web.impl.ui.application.views.user.common.AbstractUserView-backto-com.hack23.cia.web.impl.ui.application.views.user.home.UserHomeView" style="stroke:#A80036;stroke-width:1.0;"/><polygon fill="none" points="241,109.04,248,89.04,255,109.04,241,109.04" style="stroke:#A80036;stroke-width:1.0;"/><text fill="#888888" font-family="sans-serif" font-size="10" lengthAdjust="spacing" textLength="192" x="194" y="269.2822">UMLDoclet 2.0.15, PlantUML 1.2021.13</text><!--MD5=[c25957ce5891b508e43f0bb568c104aa]
@startuml
    namespace com.hack23.cia.web.impl.ui.application.views.user.home {

        class UserHomeView [[UserHomeView.html]] {
            {static} +NAME: String
            +UserHomeView(ApplicationContext)
        }

        com.hack23.cia.web.impl.ui.application.views.user.common.AbstractUserView <|- - UserHomeView
    }

    namespace com.hack23.cia.web.impl.ui.application.views.user.common {
        abstract class AbstractUserView [[../common/AbstractUserView.html]] {
        }
    }

    center footer UMLDoclet 2.0.15, PlantUML 1.2021.13
@enduml

PlantUML version 1.2021.13(Mon Nov 01 12:38:45 CET 2021)
(APACHE source distribution)
Java Runtime: OpenJDK Runtime Environment
JVM: OpenJDK 64-Bit Server VM
Default Encoding: UTF-8
Language: en
Country: US
--></g></svg>