<?xml version="1.0" encoding="UTF-8" standalone="no"?><svg xmlns="http://www.w3.org/2000/svg" xmlns:xlink="http://www.w3.org/1999/xlink" contentScriptType="application/ecmascript" contentStyleType="text/css" height="218px" preserveAspectRatio="none" style="width:348px;height:218px;" version="1.1" viewBox="0 0 348 218" width="348px" zoomAndPan="magnify"><defs><filter height="300%" id="f1bugxf2h48gt7" width="300%" x="-1" y="-1"><feGaussianBlur result="blurOut" stdDeviation="2.0"/><feColorMatrix in="blurOut" result="blurOut2" type="matrix" values="0 0 0 0 0 0 0 0 0 0 0 0 0 0 0 0 0 0 .4 0"/><feOffset dx="4.0" dy="4.0" in="blurOut2" result="blurOut3"/><feBlend in="SourceGraphic" in2="blurOut3" mode="normal"/></filter></defs><g><!--MD5=[b3e66bcf1527c6ba86dfa3e172acd529]
class com.hack23.cia.web.impl.ui.application.views.user.home.UserHomeView--><a href="UserHomeView.html" target="_top" title="UserHomeView.html" xlink:actuate="onRequest" xlink:href="UserHomeView.html" xlink:show="new" xlink:title="UserHomeView.html" xlink:type="simple"><rect fill="#FEFECE" filter="url(#f1bugxf2h48gt7)" height="79.5469" id="com.hack23.cia.web.impl.ui.application.views.user.home.UserHomeView" style="stroke: #A80036; stroke-width: 1.5;" width="302" x="20.5" y="106"/><ellipse cx="35.5" cy="124.9688" fill="#ADD1B2" rx="11" ry="11" style="stroke: #A80036; stroke-width: 1.0;"/><path d="M38.4688,130.6094 Q37.8906,130.9063 37.25,131.0469 Q36.6094,131.2031 35.9063,131.2031 Q33.4063,131.2031 32.0781,129.5625 Q30.7656,127.9063 30.7656,124.7813 Q30.7656,121.6563 32.0781,120 Q33.4063,118.3438 35.9063,118.3438 Q36.6094,118.3438 37.25,118.5 Q37.9063,118.6563 38.4688,118.9531 L38.4688,121.6719 Q37.8438,121.0938 37.25,120.8281 Q36.6563,120.5469 36.0313,120.5469 Q34.6875,120.5469 34,121.625 Q33.3125,122.6875 33.3125,124.7813 Q33.3125,126.875 34,127.9531 Q34.6875,129.0156 36.0313,129.0156 Q36.6563,129.0156 37.25,128.75 Q37.8438,128.4688 38.4688,127.8906 L38.4688,130.6094 Z "/><text fill="#000000" font-family="sans-serif" font-size="14" lengthAdjust="spacingAndGlyphs" textLength="105" x="132" y="123.9951">UserHomeView</text><text fill="#000000" font-family="sans-serif" font-size="10" lengthAdjust="spacingAndGlyphs" textLength="270" x="49.5" y="136.5791">com.hack23.cia.web.impl.ui.application.views.user.home</text><line style="stroke: #A80036; stroke-width: 1.5;" x1="21.5" x2="321.5" y1="143.9375" y2="143.9375"/><ellipse cx="31.5" cy="154.9375" fill="none" rx="3" ry="3" style="stroke: #038048; stroke-width: 1.0;"/><text fill="#000000" font-family="sans-serif" font-size="11" lengthAdjust="spacingAndGlyphs" text-decoration="underline" textLength="73" x="40.5" y="158.1479">NAME: String</text><line style="stroke: #A80036; stroke-width: 1.5;" x1="21.5" x2="321.5" y1="164.7422" y2="164.7422"/><ellipse cx="31.5" cy="175.7422" fill="#84BE84" rx="3" ry="3" style="stroke: #038048; stroke-width: 1.0;"/><text fill="#000000" font-family="sans-serif" font-size="11" lengthAdjust="spacingAndGlyphs" textLength="198" x="40.5" y="178.9526">UserHomeView(ApplicationContext)</text></a><!--MD5=[968b4da468365d2329577b3d306a41ed]
class com.hack23.cia.web.impl.ui.application.views.user.common.AbstractUserView--><a href="../common/AbstractUserView.html" target="_top" title="../common/AbstractUserView.html" xlink:actuate="onRequest" xlink:href="../common/AbstractUserView.html" xlink:show="new" xlink:title="../common/AbstractUserView.html" xlink:type="simple"><rect fill="#FEFECE" filter="url(#f1bugxf2h48gt7)" height="37.9375" id="com.hack23.cia.web.impl.ui.application.views.user.common.AbstractUserView" style="stroke: #A80036; stroke-width: 1.5;" width="331" x="6" y="8"/><ellipse cx="21" cy="26.9688" fill="#A9DCDF" rx="11" ry="11" style="stroke: #A80036; stroke-width: 1.0;"/><path d="M21.1094,22.3125 L19.9531,27.3906 L22.2813,27.3906 L21.1094,22.3125 Z M19.625,20.0781 L22.6094,20.0781 L25.9688,32.4688 L23.5156,32.4688 L22.75,29.4063 L19.4688,29.4063 L18.7188,32.4688 L16.2813,32.4688 L19.625,20.0781 Z "/><text fill="#000000" font-family="sans-serif" font-size="14" font-style="italic" lengthAdjust="spacingAndGlyphs" textLength="121" x="124" y="25.9951">AbstractUserView</text><text fill="#000000" font-family="sans-serif" font-size="10" font-style="italic" lengthAdjust="spacingAndGlyphs" textLength="299" x="35" y="38.5791">com.hack23.cia.web.impl.ui.application.views.user.common</text></a><!--MD5=[306d01d9b9f9d18fcc361b409f01b334]
reverse link com.hack23.cia.web.impl.ui.application.views.user.common.AbstractUserView to com.hack23.cia.web.impl.ui.application.views.user.home.UserHomeView--><path d="M171.5,66.2438 C171.5,78.9166 171.5,92.9816 171.5,105.7276 " fill="none" id="com.hack23.cia.web.impl.ui.application.views.user.common.AbstractUserView&lt;-com.hack23.cia.web.impl.ui.application.views.user.home.UserHomeView" style="stroke: #A80036; stroke-width: 1.0;"/><polygon fill="none" points="164.5001,66.1194,171.5,46.1194,178.5001,66.1194,164.5001,66.1194" style="stroke: #A80036; stroke-width: 1.0;"/><text fill="#888888" font-family="sans-serif" font-size="10" lengthAdjust="spacingAndGlyphs" textLength="186" x="84.5" y="205.2822">UMLDoclet 2.0.6, PlantUML 1.2019.12</text><!--MD5=[1c59ae6b671ed2750ae9d0dc369e3ec6]
@startuml
    set namespaceSeparator none
    hide empty fields
    hide empty methods

    class "<size:14>UserHomeView\n<size:10>com.hack23.cia.web.impl.ui.application.views.user.home" as com.hack23.cia.web.impl.ui.application.views.user.home.UserHomeView [[UserHomeView.html]] {
        {static} +NAME: String
        +UserHomeView(ApplicationContext)
    }

    abstract class "<size:14>AbstractUserView\n<size:10>com.hack23.cia.web.impl.ui.application.views.user.common" as com.hack23.cia.web.impl.ui.application.views.user.common.AbstractUserView [[../common/AbstractUserView.html]]

    com.hack23.cia.web.impl.ui.application.views.user.common.AbstractUserView <|- - com.hack23.cia.web.impl.ui.application.views.user.home.UserHomeView

    center footer UMLDoclet 2.0.6, PlantUML 1.2019.12
@enduml

PlantUML version 1.2019.12(Sun Nov 03 11:24:54 CET 2019)
(APACHE source distribution)
Java Runtime: OpenJDK Runtime Environment
JVM: OpenJDK 64-Bit Server VM
Java Version: 11.0.5-ea+10-post-Ubuntu-0ubuntu1
Operating System: Linux
Default Encoding: UTF-8
Language: en
Country: US
--></g></svg>