<?xml version="1.0" encoding="UTF-8" standalone="no"?><svg xmlns="http://www.w3.org/2000/svg" xmlns:xlink="http://www.w3.org/1999/xlink" contentStyleType="text/css" height="286px" preserveAspectRatio="none" style="width:651px;height:286px;background:#FFFFFF;" version="1.1" viewBox="0 0 651 286" width="651px" zoomAndPan="magnify"><defs/><g><!--MD5=[d7a3d9003a71a97f39bc55b5eb61e77d]
cluster com.hack23.cia.web.impl.ui.application.views.user.politician--><g id="cluster_com.hack23.cia.web.impl.ui.application.views.user.politician"><path d="M8.5,129 L483.5,129 A3.75,3.75 0 0 1 486,131.5 L493,151.2969 L641.5,151.2969 A2.5,2.5 0 0 1 644,153.7969 L644,258.5 A2.5,2.5 0 0 1 641.5,261 L8.5,261 A2.5,2.5 0 0 1 6,258.5 L6,131.5 A2.5,2.5 0 0 1 8.5,129 " style="stroke:#000000;stroke-width:1.5;fill:none;"/><line style="stroke:#000000;stroke-width:1.5;fill:none;" x1="6" x2="493" y1="151.2969" y2="151.2969"/><text fill="#000000" font-family="sans-serif" font-size="14" font-weight="bold" lengthAdjust="spacing" textLength="474" x="10" y="143.9951">com.hack23.cia.web.impl.ui.application.views.user.politician</text></g><!--MD5=[b6f7de69fe91c8bcc3328c73a6375d62]
cluster com.hack23.cia.web.impl.ui.application.views.user.common--><g id="cluster_com.hack23.cia.web.impl.ui.application.views.user.common"><path d="M98.5,6 L570.5,6 A3.75,3.75 0 0 1 573,8.5 L580,28.2969 L580.5,28.2969 A2.5,2.5 0 0 1 583,30.7969 L583,102.5 A2.5,2.5 0 0 1 580.5,105 L98.5,105 A2.5,2.5 0 0 1 96,102.5 L96,8.5 A2.5,2.5 0 0 1 98.5,6 " style="stroke:#000000;stroke-width:1.5;fill:none;"/><line style="stroke:#000000;stroke-width:1.5;fill:none;" x1="96" x2="580" y1="28.2969" y2="28.2969"/><text fill="#000000" font-family="sans-serif" font-size="14" font-weight="bold" lengthAdjust="spacing" textLength="471" x="100" y="20.9951">com.hack23.cia.web.impl.ui.application.views.user.common</text></g><!--MD5=[0acc8722546daf1cb4bef74d7eae210a]
class com.hack23.cia.web.impl.ui.application.views.user.politician.PoliticianView--><a href="PoliticianView.html" target="_top" title="PoliticianView.html" xlink:actuate="onRequest" xlink:href="PoliticianView.html" xlink:show="new" xlink:title="PoliticianView.html" xlink:type="simple"><g id="elem_com.hack23.cia.web.impl.ui.application.views.user.politician.PoliticianView"><rect codeLine="3" fill="#F1F1F1" height="80.5938" id="com.hack23.cia.web.impl.ui.application.views.user.politician.PoliticianView" rx="2.5" ry="2.5" style="stroke:#181818;stroke-width:0.5;" width="257" x="370.5" y="164"/><ellipse cx="448.75" cy="180" fill="#ADD1B2" rx="11" ry="11" style="stroke:#181818;stroke-width:1.0;"/><path d="M451.7188,185.6406 Q451.1406,185.9375 450.5,186.0781 Q449.8594,186.2344 449.1563,186.2344 Q446.6563,186.2344 445.3281,184.5938 Q444.0156,182.9375 444.0156,179.8125 Q444.0156,176.6875 445.3281,175.0313 Q446.6563,173.375 449.1563,173.375 Q449.8594,173.375 450.5,173.5313 Q451.1563,173.6875 451.7188,173.9844 L451.7188,176.7031 Q451.0938,176.125 450.5,175.8594 Q449.9063,175.5781 449.2813,175.5781 Q447.9375,175.5781 447.25,176.6563 Q446.5625,177.7188 446.5625,179.8125 Q446.5625,181.9063 447.25,182.9844 Q447.9375,184.0469 449.2813,184.0469 Q449.9063,184.0469 450.5,183.7813 Q451.0938,183.5 451.7188,182.9219 L451.7188,185.6406 Z " fill="#000000"/><text fill="#000000" font-family="sans-serif" font-size="14" lengthAdjust="spacing" textLength="92" x="469.25" y="184.8467">PoliticianView</text><line style="stroke:#181818;stroke-width:0.5;" x1="371.5" x2="626.5" y1="196" y2="196"/><ellipse cx="381.5" cy="207" fill="none" rx="3" ry="3" style="stroke:#038048;stroke-width:1.0;"/><text fill="#000000" font-family="sans-serif" font-size="14" lengthAdjust="spacing" text-decoration="underline" textLength="89" x="390.5" y="212.9951">NAME: String</text><line style="stroke:#181818;stroke-width:0.5;" x1="371.5" x2="626.5" y1="220.2969" y2="220.2969"/><ellipse cx="381.5" cy="231.2969" fill="#84BE84" rx="3" ry="3" style="stroke:#038048;stroke-width:1.0;"/><text fill="#000000" font-family="sans-serif" font-size="14" lengthAdjust="spacing" textLength="231" x="390.5" y="237.292">PoliticianView(ApplicationContext)</text></g></a><!--MD5=[cde2d707e8eb29cde05eacbf8814135d]
class com.hack23.cia.web.impl.ui.application.views.user.politician.PoliticianRankingView--><a href="PoliticianRankingView.html" target="_top" title="PoliticianRankingView.html" xlink:actuate="onRequest" xlink:href="PoliticianRankingView.html" xlink:show="new" xlink:title="PoliticianRankingView.html" xlink:type="simple"><g id="elem_com.hack23.cia.web.impl.ui.application.views.user.politician.PoliticianRankingView"><rect codeLine="8" fill="#F1F1F1" height="80.5938" id="com.hack23.cia.web.impl.ui.application.views.user.politician.PoliticianRankingView" rx="2.5" ry="2.5" style="stroke:#181818;stroke-width:0.5;" width="313" x="22.5" y="164"/><ellipse cx="100.75" cy="180" fill="#ADD1B2" rx="11" ry="11" style="stroke:#181818;stroke-width:1.0;"/><path d="M103.7188,185.6406 Q103.1406,185.9375 102.5,186.0781 Q101.8594,186.2344 101.1563,186.2344 Q98.6563,186.2344 97.3281,184.5938 Q96.0156,182.9375 96.0156,179.8125 Q96.0156,176.6875 97.3281,175.0313 Q98.6563,173.375 101.1563,173.375 Q101.8594,173.375 102.5,173.5313 Q103.1563,173.6875 103.7188,173.9844 L103.7188,176.7031 Q103.0938,176.125 102.5,175.8594 Q101.9063,175.5781 101.2813,175.5781 Q99.9375,175.5781 99.25,176.6563 Q98.5625,177.7188 98.5625,179.8125 Q98.5625,181.9063 99.25,182.9844 Q99.9375,184.0469 101.2813,184.0469 Q101.9063,184.0469 102.5,183.7813 Q103.0938,183.5 103.7188,182.9219 L103.7188,185.6406 Z " fill="#000000"/><text fill="#000000" font-family="sans-serif" font-size="14" lengthAdjust="spacing" textLength="148" x="121.25" y="184.8467">PoliticianRankingView</text><line style="stroke:#181818;stroke-width:0.5;" x1="23.5" x2="334.5" y1="196" y2="196"/><ellipse cx="33.5" cy="207" fill="none" rx="3" ry="3" style="stroke:#038048;stroke-width:1.0;"/><text fill="#000000" font-family="sans-serif" font-size="14" lengthAdjust="spacing" text-decoration="underline" textLength="89" x="42.5" y="212.9951">NAME: String</text><line style="stroke:#181818;stroke-width:0.5;" x1="23.5" x2="334.5" y1="220.2969" y2="220.2969"/><ellipse cx="33.5" cy="231.2969" fill="#84BE84" rx="3" ry="3" style="stroke:#038048;stroke-width:1.0;"/><text fill="#000000" font-family="sans-serif" font-size="14" lengthAdjust="spacing" textLength="287" x="42.5" y="237.292">PoliticianRankingView(ApplicationContext)</text></g></a><!--MD5=[00a1846810b414438ee6460487108842]
class com.hack23.cia.web.impl.ui.application.views.user.common.AbstractPersonView--><a href="../common/AbstractPersonView.html" target="_top" title="../common/AbstractPersonView.html" xlink:actuate="onRequest" xlink:href="../common/AbstractPersonView.html" xlink:show="new" xlink:title="../common/AbstractPersonView.html" xlink:type="simple"><g id="elem_com.hack23.cia.web.impl.ui.application.views.user.common.AbstractPersonView"><rect codeLine="18" fill="#F1F1F1" height="48" id="com.hack23.cia.web.impl.ui.application.views.user.common.AbstractPersonView" rx="2.5" ry="2.5" style="stroke:#181818;stroke-width:0.5;" width="169" x="358.5" y="41"/><ellipse cx="373.5" cy="57" fill="#A9DCDF" rx="11" ry="11" style="stroke:#181818;stroke-width:1.0;"/><path d="M373.6094,52.3438 L372.4531,57.4219 L374.7813,57.4219 L373.6094,52.3438 Z M372.125,50.1094 L375.1094,50.1094 L378.4688,62.5 L376.0156,62.5 L375.25,59.4375 L371.9688,59.4375 L371.2188,62.5 L368.7813,62.5 L372.125,50.1094 Z " fill="#000000"/><text fill="#000000" font-family="sans-serif" font-size="14" font-style="italic" lengthAdjust="spacing" textLength="137" x="387.5" y="61.8467">AbstractPersonView</text><line style="stroke:#181818;stroke-width:0.5;" x1="359.5" x2="526.5" y1="73" y2="73"/><line style="stroke:#181818;stroke-width:0.5;" x1="359.5" x2="526.5" y1="81" y2="81"/></g></a><!--MD5=[391696cd44669b86b1fc88d08221bc08]
class com.hack23.cia.web.impl.ui.application.views.user.common.AbstractRankingView--><a href="../common/AbstractRankingView.html" target="_top" title="../common/AbstractRankingView.html" xlink:actuate="onRequest" xlink:href="../common/AbstractRankingView.html" xlink:show="new" xlink:title="../common/AbstractRankingView.html" xlink:type="simple"><g id="elem_com.hack23.cia.web.impl.ui.application.views.user.common.AbstractRankingView"><rect codeLine="20" fill="#F1F1F1" height="48" id="com.hack23.cia.web.impl.ui.application.views.user.common.AbstractRankingView" rx="2.5" ry="2.5" style="stroke:#181818;stroke-width:0.5;" width="178" x="146" y="41"/><ellipse cx="161" cy="57" fill="#A9DCDF" rx="11" ry="11" style="stroke:#181818;stroke-width:1.0;"/><path d="M161.1094,52.3438 L159.9531,57.4219 L162.2813,57.4219 L161.1094,52.3438 Z M159.625,50.1094 L162.6094,50.1094 L165.9688,62.5 L163.5156,62.5 L162.75,59.4375 L159.4688,59.4375 L158.7188,62.5 L156.2813,62.5 L159.625,50.1094 Z " fill="#000000"/><text fill="#000000" font-family="sans-serif" font-size="14" font-style="italic" lengthAdjust="spacing" textLength="146" x="175" y="61.8467">AbstractRankingView</text><line style="stroke:#181818;stroke-width:0.5;" x1="147" x2="323" y1="73" y2="73"/><line style="stroke:#181818;stroke-width:0.5;" x1="147" x2="323" y1="81" y2="81"/></g></a><!--MD5=[5ac20839c98351509830a071ba344d61]
reverse link com.hack23.cia.web.impl.ui.application.views.user.common.AbstractPersonView to com.hack23.cia.web.impl.ui.application.views.user.politician.PoliticianView--><g id="link_com.hack23.cia.web.impl.ui.application.views.user.common.AbstractPersonView_com.hack23.cia.web.impl.ui.application.views.user.politician.PoliticianView"><path codeLine="13" d="M459.96,107.64 C467.24,125.53 475.71,146.32 482.9,163.97 " fill="none" id="com.hack23.cia.web.impl.ui.application.views.user.common.AbstractPersonView-backto-com.hack23.cia.web.impl.ui.application.views.user.politician.PoliticianView" style="stroke:#181818;stroke-width:1.0;"/><polygon fill="none" points="453.43,110.18,452.37,89.01,466.4,104.9,453.43,110.18" style="stroke:#181818;stroke-width:1.0;"/></g><!--MD5=[7c100966b555e0773e19bf9789d5f201]
reverse link com.hack23.cia.web.impl.ui.application.views.user.common.AbstractRankingView to com.hack23.cia.web.impl.ui.application.views.user.politician.PoliticianRankingView--><g id="link_com.hack23.cia.web.impl.ui.application.views.user.common.AbstractRankingView_com.hack23.cia.web.impl.ui.application.views.user.politician.PoliticianRankingView"><path codeLine="14" d="M218.04,107.64 C210.76,125.53 202.29,146.32 195.1,163.97 " fill="none" id="com.hack23.cia.web.impl.ui.application.views.user.common.AbstractRankingView-backto-com.hack23.cia.web.impl.ui.application.views.user.politician.PoliticianRankingView" style="stroke:#181818;stroke-width:1.0;"/><polygon fill="none" points="211.6,104.9,225.63,89.01,224.57,110.18,211.6,104.9" style="stroke:#181818;stroke-width:1.0;"/></g><rect height="11.6406" style="stroke:#00000000;stroke-width:1.0;fill:none;" width="186" x="225.5" y="267"/><text fill="#888888" font-family="sans-serif" font-size="10" lengthAdjust="spacing" textLength="186" x="225.5" y="276.2822">UMLDoclet 2.0.18, PlantUML 1.2022.6</text><!--MD5=[5ed885f6ed88a18d8a4099bc2b159d76]
@startuml
    namespace com.hack23.cia.web.impl.ui.application.views.user.politician {

        class PoliticianView [[PoliticianView.html]] {
            {static} +NAME: String
            +PoliticianView(ApplicationContext)
        }

        class PoliticianRankingView [[PoliticianRankingView.html]] {
            {static} +NAME: String
            +PoliticianRankingView(ApplicationContext)
        }

        com.hack23.cia.web.impl.ui.application.views.user.common.AbstractPersonView <|- - PoliticianView
        com.hack23.cia.web.impl.ui.application.views.user.common.AbstractRankingView <|- - PoliticianRankingView
    }

    namespace com.hack23.cia.web.impl.ui.application.views.user.common {
        abstract class AbstractPersonView [[../common/AbstractPersonView.html]] {
        }
        abstract class AbstractRankingView [[../common/AbstractRankingView.html]] {
        }
    }

    center footer UMLDoclet 2.0.18, PlantUML 1.2022.6
@enduml

PlantUML version 1.2022.6(Tue Jun 21 19:34:49 CEST 2022)
(APACHE source distribution)
Java Runtime: OpenJDK Runtime Environment
JVM: OpenJDK 64-Bit Server VM
Default Encoding: ANSI_X3.4-1968
Language: en
Country: US
--></g></svg>