<?xml version="1.0" encoding="UTF-8" standalone="no"?><svg xmlns="http://www.w3.org/2000/svg" xmlns:xlink="http://www.w3.org/1999/xlink" contentScriptType="application/ecmascript" contentStyleType="text/css" height="218px" preserveAspectRatio="none" style="width:348px;height:218px;" version="1.1" viewBox="0 0 348 218" width="348px" zoomAndPan="magnify"><defs><filter height="300%" id="f9zz37f6xolyy" width="300%" x="-1" y="-1"><feGaussianBlur result="blurOut" stdDeviation="2.0"/><feColorMatrix in="blurOut" result="blurOut2" type="matrix" values="0 0 0 0 0 0 0 0 0 0 0 0 0 0 0 0 0 0 .4 0"/><feOffset dx="4.0" dy="4.0" in="blurOut2" result="blurOut3"/><feBlend in="SourceGraphic" in2="blurOut3" mode="normal"/></filter></defs><g><!--class com.hack23.cia.web.impl.ui.application.views.user.politician.PoliticianView--><a href="PoliticianView.html" target="_top" xlink:actuate="onRequest" xlink:show="new" xlink:title="PoliticianView.html" xlink:type="simple"><rect fill="#FEFECE" filter="url(#f9zz37f6xolyy)" height="79.5469" id="com.hack23.cia.web.impl.ui.application.views.user.politician.PoliticianView" style="stroke: #A80036; stroke-width: 1.5;" width="315" x="14" y="106"/><ellipse cx="29" cy="124.9688" fill="#ADD1B2" rx="11" ry="11" style="stroke: #A80036; stroke-width: 1.0;"/><path d="M31.9688,130.6094 Q31.3906,130.9063 30.75,131.0469 Q30.1094,131.2031 29.4063,131.2031 Q26.9063,131.2031 25.5781,129.5625 Q24.2656,127.9063 24.2656,124.7813 Q24.2656,121.6563 25.5781,120 Q26.9063,118.3438 29.4063,118.3438 Q30.1094,118.3438 30.75,118.5 Q31.4063,118.6563 31.9688,118.9531 L31.9688,121.6719 Q31.3438,121.0938 30.75,120.8281 Q30.1563,120.5469 29.5313,120.5469 Q28.1875,120.5469 27.5,121.625 Q26.8125,122.6875 26.8125,124.7813 Q26.8125,126.875 27.5,127.9531 Q28.1875,129.0156 29.5313,129.0156 Q30.1563,129.0156 30.75,128.75 Q31.3438,128.4688 31.9688,127.8906 L31.9688,130.6094 Z "/><text fill="#000000" font-family="sans-serif" font-size="14" lengthAdjust="spacingAndGlyphs" textLength="92" x="138.5" y="123.9951">PoliticianView</text><text fill="#000000" font-family="sans-serif" font-size="10" lengthAdjust="spacingAndGlyphs" textLength="283" x="43" y="136.5791">com.hack23.cia.web.impl.ui.application.views.user.politician</text><line style="stroke: #A80036; stroke-width: 1.5;" x1="15" x2="328" y1="143.9375" y2="143.9375"/><ellipse cx="25" cy="155.8398" fill="none" rx="3" ry="3" style="stroke: #038048; stroke-width: 1.0;"/><text fill="#000000" font-family="sans-serif" font-size="11" lengthAdjust="spacingAndGlyphs" text-decoration="underline" textLength="73" x="34" y="158.1479">NAME: String</text><line style="stroke: #A80036; stroke-width: 1.5;" x1="15" x2="328" y1="164.7422" y2="164.7422"/><ellipse cx="25" cy="176.6445" fill="#84BE84" rx="3" ry="3" style="stroke: #038048; stroke-width: 1.0;"/><text fill="#000000" font-family="sans-serif" font-size="11" lengthAdjust="spacingAndGlyphs" textLength="188" x="34" y="178.9526">PoliticianView(ApplicationContext)</text></a><!--class com.hack23.cia.web.impl.ui.application.views.user.common.AbstractPersonView--><a href="../common/AbstractPersonView.html" target="_top" xlink:actuate="onRequest" xlink:show="new" xlink:title="../common/AbstractPersonView.html" xlink:type="simple"><rect fill="#FEFECE" filter="url(#f9zz37f6xolyy)" height="37.9375" id="com.hack23.cia.web.impl.ui.application.views.user.common.AbstractPersonView" style="stroke: #A80036; stroke-width: 1.5;" width="331" x="6" y="8"/><ellipse cx="21" cy="26.9688" fill="#A9DCDF" rx="11" ry="11" style="stroke: #A80036; stroke-width: 1.0;"/><path d="M21.1094,22.3125 L19.9531,27.3906 L22.2813,27.3906 L21.1094,22.3125 Z M19.625,20.0781 L22.6094,20.0781 L25.9688,32.4688 L23.5156,32.4688 L22.75,29.4063 L19.4688,29.4063 L18.7188,32.4688 L16.2813,32.4688 L19.625,20.0781 Z "/><text fill="#000000" font-family="sans-serif" font-size="14" font-style="italic" lengthAdjust="spacingAndGlyphs" textLength="137" x="116" y="25.9951">AbstractPersonView</text><text fill="#000000" font-family="sans-serif" font-size="10" font-style="italic" lengthAdjust="spacingAndGlyphs" textLength="299" x="35" y="38.5791">com.hack23.cia.web.impl.ui.application.views.user.common</text></a><!--link com.hack23.cia.web.impl.ui.application.views.user.common.AbstractPersonView to com.hack23.cia.web.impl.ui.application.views.user.politician.PoliticianView--><path d="M171.5,66.2438 C171.5,78.9166 171.5,92.9816 171.5,105.7276 " fill="none" id="com.hack23.cia.web.impl.ui.application.views.user.common.AbstractPersonView-com.hack23.cia.web.impl.ui.application.views.user.politician.PoliticianView" style="stroke: #A80036; stroke-width: 1.0;"/><polygon fill="none" points="164.5001,66.1194,171.5,46.1194,178.5001,66.1194,164.5001,66.1194" style="stroke: #A80036; stroke-width: 1.0;"/><text fill="#888888" font-family="sans-serif" font-size="10" lengthAdjust="spacingAndGlyphs" textLength="186" x="84.5" y="205.2822">UMLDoclet 2.0.3, PlantUML 1.2019.06</text><!--
@startuml
    set namespaceSeparator none
    hide empty fields
    hide empty methods

    class "<size:14>PoliticianView\n<size:10>com.hack23.cia.web.impl.ui.application.views.user.politician" as com.hack23.cia.web.impl.ui.application.views.user.politician.PoliticianView [[PoliticianView.html]] {
        {static} +NAME: String
        +PoliticianView(ApplicationContext)
    }

    abstract class "<size:14>AbstractPersonView\n<size:10>com.hack23.cia.web.impl.ui.application.views.user.common" as com.hack23.cia.web.impl.ui.application.views.user.common.AbstractPersonView [[../common/AbstractPersonView.html]]

    com.hack23.cia.web.impl.ui.application.views.user.common.AbstractPersonView <|- - com.hack23.cia.web.impl.ui.application.views.user.politician.PoliticianView

    center footer UMLDoclet 2.0.3, PlantUML 1.2019.06
@enduml

PlantUML version 1.2019.06(Fri May 24 19:10:25 CEST 2019)
(APACHE source distribution)
Java Runtime: OpenJDK Runtime Environment
JVM: OpenJDK 64-Bit Server VM
Java Version: 11.0.3+7-Ubuntu-1ubuntu219.04.1
Operating System: Linux
OS Version: 5.0.0-16-generic
Default Encoding: UTF-8
Language: en
Country: US
--></g></svg>