<?xml version="1.0" encoding="UTF-8" standalone="no"?>
<!DOCTYPE svg PUBLIC "-//W3C//DTD SVG 1.1//EN"
 "http://www.w3.org/Graphics/SVG/1.1/DTD/svg11.dtd">
<!-- Generated by graphviz version 14.1.2 (0)
 -->
<!-- Title: TableGraph Pages: 1 -->
<svg width="515pt" height="436pt"
 viewBox="0.00 0.00 515.00 436.00" xmlns="http://www.w3.org/2000/svg" xmlns:xlink="http://www.w3.org/1999/xlink">
<g id="graph0" class="graph" transform="scale(1 1) rotate(0) translate(4 431.75)">
<title>TableGraph</title>
<g id="a_graph0"><a xlink:href="http://tools.hibernate.org" xlink:title="Table Graph">
<polygon fill="white" stroke="none" points="-4,4 -4,-431.75 511.44,-431.75 511.44,4 -4,4"/>
<text xml:space="preserve" text-anchor="middle" x="253.72" y="-6.5" font-family="Helvetica,sans-Serif" font-size="10.00">Table Graph</text>
</a>
</g>
<!-- INDICATOR_ELEMENT -->
<g id="node1" class="node">
<title>INDICATOR_ELEMENT</title>
<polygon fill="yellow" stroke="black" points="0,-227.25 0,-427.25 201.25,-427.25 201.25,-227.25 0,-227.25"/>
<text xml:space="preserve" text-anchor="middle" x="100.62" y="-413.75" font-family="Helvetica,sans-Serif" font-size="10.00">INDICATOR_ELEMENT</text>
<polyline fill="none" stroke="black" points="0,-407.25 201.25,-407.25"/>
<text xml:space="preserve" text-anchor="start" x="8" y="-393.75" font-family="Helvetica,sans-Serif" font-size="10.00">HJID</text>
<polyline fill="none" stroke="black" points="0,-387.25 201.25,-387.25"/>
<text xml:space="preserve" text-anchor="start" x="8" y="-373.75" font-family="Helvetica,sans-Serif" font-size="10.00">ID</text>
<polyline fill="none" stroke="black" points="0,-367.25 201.25,-367.25"/>
<text xml:space="preserve" text-anchor="start" x="8" y="-353.75" font-family="Helvetica,sans-Serif" font-size="10.00">INDICATOR_NAME</text>
<polyline fill="none" stroke="black" points="0,-347.25 201.25,-347.25"/>
<text xml:space="preserve" text-anchor="start" x="8" y="-333.75" font-family="Helvetica,sans-Serif" font-size="10.00">SOURCE_ID</text>
<polyline fill="none" stroke="black" points="0,-327.25 201.25,-327.25"/>
<text xml:space="preserve" text-anchor="start" x="8" y="-313.75" font-family="Helvetica,sans-Serif" font-size="10.00">SOURCE_VALUE</text>
<polyline fill="none" stroke="black" points="0,-307.25 201.25,-307.25"/>
<text xml:space="preserve" text-anchor="start" x="8" y="-293.75" font-family="Helvetica,sans-Serif" font-size="10.00">SOURCE_NOTE</text>
<polyline fill="none" stroke="black" points="0,-287.25 201.25,-287.25"/>
<text xml:space="preserve" text-anchor="start" x="8" y="-273.75" font-family="Helvetica,sans-Serif" font-size="10.00">SOURCE_ORGANIZATION</text>
<polyline fill="none" stroke="black" points="0,-267.25 201.25,-267.25"/>
<text xml:space="preserve" text-anchor="start" x="8" y="-253.75" font-family="Helvetica,sans-Serif" font-size="10.00">TOPICS_INDICATOR_ELEMENT_HJID</text>
<polyline fill="none" stroke="black" points="0,-247.25 201.25,-247.25"/>
<text xml:space="preserve" text-anchor="start" x="8" y="-233.75" font-family="Helvetica,sans-Serif" font-size="10.00">INDICATOR__INDICATORS_ELEMEN_0</text>
</g>
<!-- TOPICS -->
<g id="node2" class="node">
<title>TOPICS</title>
<polygon fill="yellow" stroke="black" points="342.62,-60.5 342.62,-100.5 396.62,-100.5 396.62,-60.5 342.62,-60.5"/>
<text xml:space="preserve" text-anchor="middle" x="369.38" y="-87" font-family="Helvetica,sans-Serif" font-size="10.00">TOPICS</text>
<polyline fill="none" stroke="black" points="342.62,-80.5 396.12,-80.5"/>
<text xml:space="preserve" text-anchor="start" x="350.62" y="-67" font-family="Helvetica,sans-Serif" font-size="10.00">HJID</text>
</g>
<!-- INDICATOR_ELEMENT&#45;&gt;TOPICS -->
<g id="edge1" class="edge">
<title>INDICATOR_ELEMENT:se&#45;&gt;TOPICS:nw</title>
<path fill="none" stroke="lightgrey" d="M201.25,-226.75C217.18,-210.82 230.13,-221.6 248.62,-208.75 297.43,-174.85 297.95,-149.64 334.76,-109.69"/>
<polygon fill="lightgrey" stroke="lightgrey" points="337.17,-112.23 341.58,-102.59 332.13,-107.38 337.17,-112.23"/>
<text xml:space="preserve" text-anchor="middle" x="315.62" y="-201.15" font-family="Helvetica,sans-Serif" font-size="8.00">FKqo83tlolpfpvu6ggml3648437</text>
</g>
<!-- INDICATORS_ELEMENT -->
<g id="node3" class="node">
<title>INDICATORS_ELEMENT</title>
<polygon fill="yellow" stroke="black" points="133.25,-20.5 133.25,-140.5 264,-140.5 264,-20.5 133.25,-20.5"/>
<text xml:space="preserve" text-anchor="middle" x="198.62" y="-127" font-family="Helvetica,sans-Serif" font-size="10.00">INDICATORS_ELEMENT</text>
<polyline fill="none" stroke="black" points="133.25,-120.5 264,-120.5"/>
<text xml:space="preserve" text-anchor="start" x="141.25" y="-107" font-family="Helvetica,sans-Serif" font-size="10.00">HJID</text>
<polyline fill="none" stroke="black" points="133.25,-100.5 264,-100.5"/>
<text xml:space="preserve" text-anchor="start" x="141.25" y="-87" font-family="Helvetica,sans-Serif" font-size="10.00">PAGE</text>
<polyline fill="none" stroke="black" points="133.25,-80.5 264,-80.5"/>
<text xml:space="preserve" text-anchor="start" x="141.25" y="-67" font-family="Helvetica,sans-Serif" font-size="10.00">PAGES</text>
<polyline fill="none" stroke="black" points="133.25,-60.5 264,-60.5"/>
<text xml:space="preserve" text-anchor="start" x="141.25" y="-47" font-family="Helvetica,sans-Serif" font-size="10.00">PER_PAGE</text>
<polyline fill="none" stroke="black" points="133.25,-40.5 264,-40.5"/>
<text xml:space="preserve" text-anchor="start" x="141.25" y="-27" font-family="Helvetica,sans-Serif" font-size="10.00">TOTAL</text>
</g>
<!-- INDICATOR_ELEMENT&#45;&gt;INDICATORS_ELEMENT -->
<g id="edge2" class="edge">
<title>INDICATOR_ELEMENT:se&#45;&gt;INDICATORS_ELEMENT:nw</title>
<path fill="none" stroke="lightgrey" d="M201.25,-226.75C222.94,-205.06 153.52,-232.91 134.62,-208.75 118.61,-188.27 113.35,-168.53 125.91,-149.81"/>
<polygon fill="lightgrey" stroke="lightgrey" points="128.57,-152.09 132.28,-142.16 123.19,-147.61 128.57,-152.09"/>
<text xml:space="preserve" text-anchor="middle" x="191.62" y="-201.15" font-family="Helvetica,sans-Serif" font-size="8.00">FKjajuw0y63aarlsdcb8gn9medq</text>
</g>
<!-- TOPIC -->
<g id="node4" class="node">
<title>TOPIC</title>
<polygon fill="yellow" stroke="black" points="286.62,-277.25 286.62,-377.25 404.62,-377.25 404.62,-277.25 286.62,-277.25"/>
<text xml:space="preserve" text-anchor="middle" x="345.62" y="-363.75" font-family="Helvetica,sans-Serif" font-size="10.00">TOPIC</text>
<polyline fill="none" stroke="black" points="286.62,-357.25 404.62,-357.25"/>
<text xml:space="preserve" text-anchor="start" x="294.62" y="-343.75" font-family="Helvetica,sans-Serif" font-size="10.00">HJID</text>
<polyline fill="none" stroke="black" points="286.62,-337.25 404.62,-337.25"/>
<text xml:space="preserve" text-anchor="start" x="294.62" y="-323.75" font-family="Helvetica,sans-Serif" font-size="10.00">ID</text>
<polyline fill="none" stroke="black" points="286.62,-317.25 404.62,-317.25"/>
<text xml:space="preserve" text-anchor="start" x="294.62" y="-303.75" font-family="Helvetica,sans-Serif" font-size="10.00">VALUE_</text>
<polyline fill="none" stroke="black" points="286.62,-297.25 404.62,-297.25"/>
<text xml:space="preserve" text-anchor="start" x="294.62" y="-283.75" font-family="Helvetica,sans-Serif" font-size="10.00">TOPIC_TOPICS_HJID</text>
</g>
<!-- TOPIC&#45;&gt;TOPICS -->
<g id="edge3" class="edge">
<title>TOPIC:se&#45;&gt;TOPICS:nw</title>
<path fill="none" stroke="lightgrey" d="M404.62,-276.25C459.94,-220.94 301.88,-165.68 335.52,-110.38"/>
<polygon fill="lightgrey" stroke="lightgrey" points="338.16,-112.68 341.68,-102.68 332.7,-108.3 338.16,-112.68"/>
<text xml:space="preserve" text-anchor="middle" x="449.32" y="-201.15" font-family="Helvetica,sans-Serif" font-size="8.00">FK1smjtptx0bfyq3m2w8hv28669</text>
</g>
</g>
</svg>
