<?xml version="1.0" encoding="UTF-8" standalone="no"?><svg xmlns="http://www.w3.org/2000/svg" xmlns:xlink="http://www.w3.org/1999/xlink" contentScriptType="application/ecmascript" contentStyleType="text/css" height="215px" preserveAspectRatio="none" style="width:328px;height:215px;background:#FFFFFF;" version="1.1" viewBox="0 0 328 215" width="328px" zoomAndPan="magnify"><defs><filter height="300%" id="fth1vu6lzsq8j" width="300%" x="-1" y="-1"><feGaussianBlur result="blurOut" stdDeviation="2.0"/><feColorMatrix in="blurOut" result="blurOut2" type="matrix" values="0 0 0 0 0 0 0 0 0 0 0 0 0 0 0 0 0 0 .4 0"/><feOffset dx="4.0" dy="4.0" in="blurOut2" result="blurOut3"/><feBlend in="SourceGraphic" in2="blurOut3" mode="normal"/></filter></defs><g><!--MD5=[81f5737fe54682a1989df5f0eaac6c93]
class com.hack23.cia.web.impl.ui.application.views.common.MainView--><a href="MainView.html" target="_top" title="MainView.html" xlink:actuate="onRequest" xlink:href="MainView.html" xlink:show="new" xlink:title="MainView.html" xlink:type="simple"><rect codeLine="5" fill="#FEFECE" filter="url(#fth1vu6lzsq8j)" height="79.5469" id="com.hack23.cia.web.impl.ui.application.views.common.MainView" style="stroke:#A80036;stroke-width:1.5;" width="293" x="14" y="105"/><ellipse cx="29" cy="123.9688" fill="#ADD1B2" rx="11" ry="11" style="stroke:#A80036;stroke-width:1.0;"/><path d="M31.9688,129.6094 Q31.3906,129.9063 30.75,130.0469 Q30.1094,130.2031 29.4063,130.2031 Q26.9063,130.2031 25.5781,128.5625 Q24.2656,126.9063 24.2656,123.7813 Q24.2656,120.6563 25.5781,119 Q26.9063,117.3438 29.4063,117.3438 Q30.1094,117.3438 30.75,117.5 Q31.4063,117.6563 31.9688,117.9531 L31.9688,120.6719 Q31.3438,120.0938 30.75,119.8281 Q30.1563,119.5469 29.5313,119.5469 Q28.1875,119.5469 27.5,120.625 Q26.8125,121.6875 26.8125,123.7813 Q26.8125,125.875 27.5,126.9531 Q28.1875,128.0156 29.5313,128.0156 Q30.1563,128.0156 30.75,127.75 Q31.3438,127.4688 31.9688,126.8906 L31.9688,129.6094 Z " fill="#000000"/><text fill="#000000" font-family="sans-serif" font-size="14" lengthAdjust="spacing" textLength="64" x="141.5" y="122.9951">MainView</text><text fill="#000000" font-family="sans-serif" font-size="10" lengthAdjust="spacing" textLength="261" x="43" y="135.5791">com.hack23.cia.web.impl.ui.application.views.common</text><line style="stroke:#A80036;stroke-width:1.5;" x1="15" x2="306" y1="142.9375" y2="142.9375"/><ellipse cx="25" cy="153.9375" rx="3" ry="3" style="stroke:#038048;stroke-width:1.0;fill:none;"/><text fill="#000000" font-family="sans-serif" font-size="11" lengthAdjust="spacing" text-decoration="underline" textLength="73" x="34" y="157.1479">NAME: String</text><line style="stroke:#A80036;stroke-width:1.5;" x1="15" x2="306" y1="163.7422" y2="163.7422"/><ellipse cx="25" cy="174.7422" fill="#84BE84" rx="3" ry="3" style="stroke:#038048;stroke-width:1.0;"/><text fill="#000000" font-family="sans-serif" font-size="11" lengthAdjust="spacing" textLength="164" x="34" y="177.9526">MainView(ApplicationContext)</text></a><!--MD5=[39d9067b85bbf212528c68bdcb9daa3e]
class com.hack23.cia.web.impl.ui.application.views.common.AbstractView--><a href="AbstractView.html" target="_top" title="AbstractView.html" xlink:actuate="onRequest" xlink:href="AbstractView.html" xlink:show="new" xlink:title="AbstractView.html" xlink:type="simple"><rect codeLine="10" fill="#FEFECE" filter="url(#fth1vu6lzsq8j)" height="37.9375" id="com.hack23.cia.web.impl.ui.application.views.common.AbstractView" style="stroke:#A80036;stroke-width:1.5;" width="307" x="7" y="7"/><ellipse cx="22" cy="25.9688" fill="#A9DCDF" rx="11" ry="11" style="stroke:#A80036;stroke-width:1.0;"/><path d="M22.1094,21.3125 L20.9531,26.3906 L23.2813,26.3906 L22.1094,21.3125 Z M20.625,19.0781 L23.6094,19.0781 L26.9688,31.4688 L24.5156,31.4688 L23.75,28.4063 L20.4688,28.4063 L19.7188,31.4688 L17.2813,31.4688 L20.625,19.0781 Z " fill="#000000"/><text fill="#000000" font-family="sans-serif" font-size="14" font-style="italic" lengthAdjust="spacing" textLength="90" x="128.5" y="24.9951">AbstractView</text><text fill="#000000" font-family="sans-serif" font-size="10" font-style="italic" lengthAdjust="spacing" textLength="275" x="36" y="37.5791">com.hack23.cia.web.impl.ui.application.views.common</text></a><!--MD5=[7e49f234e317d9f67edf5880b9a87284]
reverse link com.hack23.cia.web.impl.ui.application.views.common.AbstractView to com.hack23.cia.web.impl.ui.application.views.common.MainView--><path codeLine="12" d="M160.5,65.14 C160.5,77.87 160.5,92.07 160.5,104.87 " fill="none" id="com.hack23.cia.web.impl.ui.application.views.common.AbstractView-backto-com.hack23.cia.web.impl.ui.application.views.common.MainView" style="stroke:#A80036;stroke-width:1.0;"/><polygon fill="none" points="153.5,65.02,160.5,45.02,167.5,65.02,153.5,65.02" style="stroke:#A80036;stroke-width:1.0;"/><text fill="#888888" font-family="sans-serif" font-size="10" lengthAdjust="spacing" textLength="192" x="61.5" y="206.8291">UMLDoclet 2.0.15, PlantUML 1.2021.13</text><!--MD5=[070f371eb4fd0148dac5d31131a64306]
@startuml
    set namespaceSeparator none
    hide empty fields
    hide empty methods

    class "<size:14>MainView\n<size:10>com.hack23.cia.web.impl.ui.application.views.common" as com.hack23.cia.web.impl.ui.application.views.common.MainView [[MainView.html]] {
        {static} +NAME: String
        +MainView(ApplicationContext)
    }

    abstract class "<size:14>AbstractView\n<size:10>com.hack23.cia.web.impl.ui.application.views.common" as com.hack23.cia.web.impl.ui.application.views.common.AbstractView [[AbstractView.html]]

    com.hack23.cia.web.impl.ui.application.views.common.AbstractView <|- - com.hack23.cia.web.impl.ui.application.views.common.MainView

    center footer UMLDoclet 2.0.15, PlantUML 1.2021.13
@enduml

PlantUML version 1.2021.13(Mon Nov 01 12:38:45 CET 2021)
(APACHE source distribution)
Java Runtime: OpenJDK Runtime Environment
JVM: OpenJDK 64-Bit Server VM
Default Encoding: UTF-8
Language: en
Country: US
--></g></svg>