<?xml version="1.0" encoding="UTF-8" standalone="no"?><svg xmlns="http://www.w3.org/2000/svg" xmlns:xlink="http://www.w3.org/1999/xlink" contentScriptType="application/ecmascript" contentStyleType="text/css" height="547px" preserveAspectRatio="none" style="width:1057px;height:547px;background:#FFFFFF;" version="1.1" viewBox="0 0 1057 547" width="1057px" zoomAndPan="magnify"><defs><filter height="300%" id="f1sfz6eb4q3k5a" width="300%" x="-1" y="-1"><feGaussianBlur result="blurOut" stdDeviation="2.0"/><feColorMatrix in="blurOut" result="blurOut2" type="matrix" values="0 0 0 0 0 0 0 0 0 0 0 0 0 0 0 0 0 0 .4 0"/><feOffset dx="4.0" dy="4.0" in="blurOut2" result="blurOut3"/><feBlend in="SourceGraphic" in2="blurOut3" mode="normal"/></filter></defs><g><!--MD5=[ca7137a5cb5dd6a4f240bec724ad43a0]
cluster com.hack23.cia.web.impl.ui.application.views.common--><polygon fill="#FFFFFF" filter="url(#f1sfz6eb4q3k5a)" points="16,176,452,176,459,198.2969,462,198.2969,462,524,16,524,16,176" style="stroke:#000000;stroke-width:1.5;"/><line style="stroke:#000000;stroke-width:1.5;" x1="16" x2="459" y1="198.2969" y2="198.2969"/><text fill="#000000" font-family="sans-serif" font-size="14" font-weight="bold" lengthAdjust="spacing" textLength="430" x="20" y="190.9951">com.hack23.cia.web.impl.ui.application.views.common</text><!--MD5=[99b8bc54f75e0f490d62721683ad7b11]
cluster com.vaadin.ui--><polygon fill="#FFFFFF" filter="url(#f1sfz6eb4q3k5a)" points="69,18.5,183,18.5,190,40.7969,301,40.7969,301,130.5,69,130.5,69,18.5" style="stroke:#000000;stroke-width:1.5;"/><line style="stroke:#000000;stroke-width:1.5;" x1="69" x2="190" y1="40.7969" y2="40.7969"/><text fill="#000000" font-family="sans-serif" font-size="14" font-weight="bold" lengthAdjust="spacing" textLength="108" x="73" y="33.4951">com.vaadin.ui</text><!--MD5=[d1fa7e8ced12f2318f4abf074a0846a8]
cluster com.vaadin.navigator--><polygon fill="#FFFFFF" filter="url(#f1sfz6eb4q3k5a)" points="325,6,499,6,506,28.2969,621,28.2969,621,143,325,143,325,6" style="stroke:#000000;stroke-width:1.5;"/><line style="stroke:#000000;stroke-width:1.5;" x1="325" x2="506" y1="28.2969" y2="28.2969"/><text fill="#000000" font-family="sans-serif" font-size="14" font-weight="bold" lengthAdjust="spacing" textLength="168" x="329" y="20.9951">com.vaadin.navigator</text><!--MD5=[cbb0111ccb0741895fa998c1a69c3373]
cluster com.hack23.cia.web.impl.ui.application.views.common.pagelinks.api--><polygon fill="#FFFFFF" filter="url(#f1sfz6eb4q3k5a)" points="486,412,1030,412,1037,434.2969,1040,434.2969,1040,511,486,511,486,412" style="stroke:#000000;stroke-width:1.5;"/><line style="stroke:#000000;stroke-width:1.5;" x1="486" x2="1037" y1="434.2969" y2="434.2969"/><text fill="#000000" font-family="sans-serif" font-size="14" font-weight="bold" lengthAdjust="spacing" textLength="538" x="490" y="426.9951">com.hack23.cia.web.impl.ui.application.views.common.pagelinks.api</text><!--MD5=[81f5737fe54682a1989df5f0eaac6c93]
class com.hack23.cia.web.impl.ui.application.views.common.MainView--><a href="MainView.html" target="_top" title="MainView.html" xlink:actuate="onRequest" xlink:href="MainView.html" xlink:show="new" xlink:title="MainView.html" xlink:type="simple"><rect codeLine="3" fill="#FEFECE" filter="url(#f1sfz6eb4q3k5a)" height="73.6094" id="com.hack23.cia.web.impl.ui.application.views.common.MainView" style="stroke:#A80036;stroke-width:1.5;" width="190" x="163" y="434"/><ellipse cx="225.25" cy="450" fill="#ADD1B2" rx="11" ry="11" style="stroke:#A80036;stroke-width:1.0;"/><path d="M228.2188,455.6406 Q227.6406,455.9375 227,456.0781 Q226.3594,456.2344 225.6563,456.2344 Q223.1563,456.2344 221.8281,454.5938 Q220.5156,452.9375 220.5156,449.8125 Q220.5156,446.6875 221.8281,445.0313 Q223.1563,443.375 225.6563,443.375 Q226.3594,443.375 227,443.5313 Q227.6563,443.6875 228.2188,443.9844 L228.2188,446.7031 Q227.5938,446.125 227,445.8594 Q226.4063,445.5781 225.7813,445.5781 Q224.4375,445.5781 223.75,446.6563 Q223.0625,447.7188 223.0625,449.8125 Q223.0625,451.9063 223.75,452.9844 Q224.4375,454.0469 225.7813,454.0469 Q226.4063,454.0469 227,453.7813 Q227.5938,453.5 228.2188,452.9219 L228.2188,455.6406 Z " fill="#000000"/><text fill="#000000" font-family="sans-serif" font-size="12" lengthAdjust="spacing" textLength="57" x="245.75" y="454.1543">MainView</text><line style="stroke:#A80036;stroke-width:1.5;" x1="164" x2="352" y1="466" y2="466"/><ellipse cx="174" cy="477" rx="3" ry="3" style="stroke:#038048;stroke-width:1.0;fill:none;"/><text fill="#000000" font-family="sans-serif" font-size="11" lengthAdjust="spacing" text-decoration="underline" textLength="73" x="183" y="480.2104">NAME: String</text><line style="stroke:#A80036;stroke-width:1.5;" x1="164" x2="352" y1="486.8047" y2="486.8047"/><ellipse cx="174" cy="497.8047" fill="#84BE84" rx="3" ry="3" style="stroke:#038048;stroke-width:1.0;"/><text fill="#000000" font-family="sans-serif" font-size="11" lengthAdjust="spacing" textLength="164" x="183" y="501.0151">MainView(ApplicationContext)</text></a><!--MD5=[39d9067b85bbf212528c68bdcb9daa3e]
class com.hack23.cia.web.impl.ui.application.views.common.AbstractView--><a href="AbstractView.html" target="_top" title="AbstractView.html" xlink:actuate="onRequest" xlink:href="AbstractView.html" xlink:show="new" xlink:title="AbstractView.html" xlink:type="simple"><rect codeLine="8" fill="#FEFECE" filter="url(#f1sfz6eb4q3k5a)" height="137.6328" id="com.hack23.cia.web.impl.ui.application.views.common.AbstractView" style="stroke:#A80036;stroke-width:1.5;" width="375" x="70.5" y="211"/><ellipse cx="213.25" cy="227" fill="#A9DCDF" rx="11" ry="11" style="stroke:#A80036;stroke-width:1.0;"/><path d="M213.3594,222.3438 L212.2031,227.4219 L214.5313,227.4219 L213.3594,222.3438 Z M211.875,220.1094 L214.8594,220.1094 L218.2188,232.5 L215.7656,232.5 L215,229.4375 L211.7188,229.4375 L210.9688,232.5 L208.5313,232.5 L211.875,220.1094 Z " fill="#000000"/><text fill="#000000" font-family="sans-serif" font-size="12" font-style="italic" lengthAdjust="spacing" textLength="81" x="233.75" y="231.1543">AbstractView</text><line style="stroke:#A80036;stroke-width:1.5;" x1="71.5" x2="444.5" y1="243" y2="243"/><polygon fill="none" points="81.5,249,85.5,253,81.5,257,77.5,253" style="stroke:#B38D22;stroke-width:1.0;"/><text fill="#000000" font-family="sans-serif" font-size="11" lengthAdjust="spacing" textLength="268" x="90.5" y="257.2104">pageActionEventHelper: PageActionEventHelper</text><line style="stroke:#A80036;stroke-width:1.5;" x1="71.5" x2="444.5" y1="263.8047" y2="263.8047"/><polygon fill="#FFFF44" points="81.5,269.8047,85.5,273.8047,81.5,277.8047,77.5,273.8047" style="stroke:#B38D22;stroke-width:1.0;"/><text fill="#000000" font-family="sans-serif" font-size="11" lengthAdjust="spacing" textLength="349" x="90.5" y="278.0151">AbstractView(Map&lt;String, PageModeContentFactory&gt;, String)</text><polygon fill="#FFFF44" points="81.5,282.6094,85.5,286.6094,81.5,290.6094,77.5,286.6094" style="stroke:#B38D22;stroke-width:1.0;"/><text fill="#000000" font-family="sans-serif" font-size="11" lengthAdjust="spacing" textLength="288" x="90.5" y="290.8198">createBasicLayoutWithPanelAndFooter(String): void</text><ellipse cx="81.5" cy="300.4141" fill="#84BE84" rx="3" ry="3" style="stroke:#038048;stroke-width:1.0;"/><text fill="#000000" font-family="sans-serif" font-size="11" lengthAdjust="spacing" textLength="169" x="90.5" y="303.6245">enter(ViewChangeEvent): void</text><ellipse cx="81.5" cy="313.2188" fill="#84BE84" rx="3" ry="3" style="stroke:#038048;stroke-width:1.0;"/><text fill="#000000" font-family="sans-serif" font-size="11" lengthAdjust="spacing" textLength="136" x="90.5" y="316.4292">getBarmenu(): MenuBar</text><polygon fill="#FFFF44" points="81.5,321.0234,85.5,325.0234,81.5,329.0234,77.5,325.0234" style="stroke:#B38D22;stroke-width:1.0;"/><text fill="#000000" font-family="sans-serif" font-size="11" lengthAdjust="spacing" textLength="96" x="90.5" y="329.2339">getPanel(): Panel</text><ellipse cx="81.5" cy="338.8281" fill="#84BE84" rx="3" ry="3" style="stroke:#038048;stroke-width:1.0;"/><text fill="#000000" font-family="sans-serif" font-size="11" lengthAdjust="spacing" textLength="119" x="90.5" y="342.0386">postConstruct(): void</text></a><!--MD5=[4e99dcfe5e78108e6e90b389320a4b28]
class com.vaadin.ui.Panel--><rect codeLine="25" fill="#FEFECE" filter="url(#f1sfz6eb4q3k5a)" height="60.8047" id="com.vaadin.ui.Panel" style="stroke:#A80036;stroke-width:1.5;" width="200" x="85" y="53.5"/><ellipse cx="163.25" cy="69.5" fill="#ADD1B2" rx="11" ry="11" style="stroke:#A80036;stroke-width:1.0;"/><path d="M166.2188,75.1406 Q165.6406,75.4375 165,75.5781 Q164.3594,75.7344 163.6563,75.7344 Q161.1563,75.7344 159.8281,74.0938 Q158.5156,72.4375 158.5156,69.3125 Q158.5156,66.1875 159.8281,64.5313 Q161.1563,62.875 163.6563,62.875 Q164.3594,62.875 165,63.0313 Q165.6563,63.1875 166.2188,63.4844 L166.2188,66.2031 Q165.5938,65.625 165,65.3594 Q164.4063,65.0781 163.7813,65.0781 Q162.4375,65.0781 161.75,66.1563 Q161.0625,67.2188 161.0625,69.3125 Q161.0625,71.4063 161.75,72.4844 Q162.4375,73.5469 163.7813,73.5469 Q164.4063,73.5469 165,73.2813 Q165.5938,73 166.2188,72.4219 L166.2188,75.1406 Z " fill="#000000"/><text fill="#000000" font-family="sans-serif" font-size="12" lengthAdjust="spacing" textLength="35" x="183.75" y="73.6543">Panel</text><line style="stroke:#A80036;stroke-width:1.5;" x1="86" x2="284" y1="85.5" y2="85.5"/><polygon fill="none" points="96,91.5,100,95.5,96,99.5,92,95.5" style="stroke:#B38D22;stroke-width:1.0;"/><text fill="#000000" font-family="sans-serif" font-size="11" lengthAdjust="spacing" textLength="174" x="105" y="99.7104">actionManager: ActionManager</text><line style="stroke:#A80036;stroke-width:1.5;" x1="86" x2="284" y1="106.3047" y2="106.3047"/><!--MD5=[c5680bbed40b7bef261af4cf8b2d52c9]
class com.vaadin.navigator.View--><rect codeLine="31" fill="#FEFECE" filter="url(#f1sfz6eb4q3k5a)" height="86.4141" id="com.vaadin.navigator.View" style="stroke:#A80036;stroke-width:1.5;" width="263" x="341.5" y="41"/><ellipse cx="454.25" cy="57" fill="#B4A7E5" rx="11" ry="11" style="stroke:#A80036;stroke-width:1.0;"/><path d="M450.1719,52.7656 L450.1719,50.6094 L457.5625,50.6094 L457.5625,52.7656 L455.0938,52.7656 L455.0938,60.8438 L457.5625,60.8438 L457.5625,63 L450.1719,63 L450.1719,60.8438 L452.6406,60.8438 L452.6406,52.7656 L450.1719,52.7656 Z " fill="#000000"/><text fill="#000000" font-family="sans-serif" font-size="12" font-style="italic" lengthAdjust="spacing" textLength="29" x="474.75" y="61.1543">View</text><line style="stroke:#A80036;stroke-width:1.5;" x1="342.5" x2="603.5" y1="73" y2="73"/><line style="stroke:#A80036;stroke-width:1.5;" x1="342.5" x2="603.5" y1="81" y2="81"/><ellipse cx="352.5" cy="92" fill="#84BE84" rx="3" ry="3" style="stroke:#038048;stroke-width:1.0;"/><text fill="#000000" font-family="sans-serif" font-size="11" lengthAdjust="spacing" textLength="169" x="361.5" y="95.2104">enter(ViewChangeEvent): void</text><ellipse cx="352.5" cy="104.8047" fill="#84BE84" rx="3" ry="3" style="stroke:#038048;stroke-width:1.0;"/><text fill="#000000" font-family="sans-serif" font-size="11" lengthAdjust="spacing" textLength="237" x="361.5" y="108.0151">beforeLeave(ViewBeforeLeaveEvent): void</text><ellipse cx="352.5" cy="117.6094" fill="#84BE84" rx="3" ry="3" style="stroke:#038048;stroke-width:1.0;"/><text fill="#000000" font-family="sans-serif" font-size="11" lengthAdjust="spacing" textLength="190" x="361.5" y="120.8198">getViewComponent(): Component</text><!--MD5=[914a8c46903c27a07689f22c386cc52d]
class com.hack23.cia.web.impl.ui.application.views.common.pagelinks.api.PageLinkFactory--><rect fill="#FEFECE" filter="url(#f1sfz6eb4q3k5a)" height="48" id="com.hack23.cia.web.impl.ui.application.views.common.pagelinks.api.PageLinkFactory" style="stroke:#A80036;stroke-width:1.5;" width="134" x="502" y="447"/><ellipse cx="517" cy="463" fill="#ADD1B2" rx="11" ry="11" style="stroke:#A80036;stroke-width:1.0;"/><path d="M519.9688,468.6406 Q519.3906,468.9375 518.75,469.0781 Q518.1094,469.2344 517.4063,469.2344 Q514.9063,469.2344 513.5781,467.5938 Q512.2656,465.9375 512.2656,462.8125 Q512.2656,459.6875 513.5781,458.0313 Q514.9063,456.375 517.4063,456.375 Q518.1094,456.375 518.75,456.5313 Q519.4063,456.6875 519.9688,456.9844 L519.9688,459.7031 Q519.3438,459.125 518.75,458.8594 Q518.1563,458.5781 517.5313,458.5781 Q516.1875,458.5781 515.5,459.6563 Q514.8125,460.7188 514.8125,462.8125 Q514.8125,464.9063 515.5,465.9844 Q516.1875,467.0469 517.5313,467.0469 Q518.1563,467.0469 518.75,466.7813 Q519.3438,466.5 519.9688,465.9219 L519.9688,468.6406 Z " fill="#000000"/><text fill="#000000" font-family="sans-serif" font-size="12" lengthAdjust="spacing" textLength="102" x="531" y="467.1543">PageLinkFactory</text><line style="stroke:#A80036;stroke-width:1.5;" x1="503" x2="635" y1="479" y2="479"/><line style="stroke:#A80036;stroke-width:1.5;" x1="503" x2="635" y1="487" y2="487"/><!--MD5=[7e49f234e317d9f67edf5880b9a87284]
reverse link com.hack23.cia.web.impl.ui.application.views.common.AbstractView to com.hack23.cia.web.impl.ui.application.views.common.MainView--><path codeLine="18" d="M258,369.46 C258,392.27 258,415.56 258,433.96 " fill="none" id="com.hack23.cia.web.impl.ui.application.views.common.AbstractView-backto-com.hack23.cia.web.impl.ui.application.views.common.MainView" style="stroke:#A80036;stroke-width:1.0;"/><polygon fill="none" points="251,369.23,258,349.23,265,369.23,251,369.23" style="stroke:#A80036;stroke-width:1.0;"/><!--MD5=[095bd9fda1575c1c3960a36863ddea23]
reverse link com.vaadin.ui.Panel to com.hack23.cia.web.impl.ui.application.views.common.AbstractView--><path codeLine="19" d="M203.4,133.9 C212.17,157.21 222.81,185.48 232.36,210.86 " fill="none" id="com.vaadin.ui.Panel-backto-com.hack23.cia.web.impl.ui.application.views.common.AbstractView" style="stroke:#A80036;stroke-width:1.0;"/><polygon fill="none" points="196.74,136.07,196.25,114.89,209.84,131.14,196.74,136.07" style="stroke:#A80036;stroke-width:1.0;"/><!--MD5=[3a20fc5b1e0e0bda97e60ff842e0a14b]
reverse link com.vaadin.navigator.View to com.hack23.cia.web.impl.ui.application.views.common.AbstractView--><path codeLine="20" d="M411.44,140.55 C387.22,162.4 359.17,187.72 333.72,210.67 " fill="none" id="com.vaadin.navigator.View-backto-com.hack23.cia.web.impl.ui.application.views.common.AbstractView" style="stroke:#A80036;stroke-width:1.0;stroke-dasharray:7.0,7.0;"/><polygon fill="none" points="406.81,135.3,426.35,127.1,416.19,145.69,406.81,135.3" style="stroke:#A80036;stroke-width:1.0;"/><!--MD5=[1cda9127644b26cdaa777b2e31c8edc5]
link com.hack23.cia.web.impl.ui.application.views.common.AbstractView to com.hack23.cia.web.impl.ui.application.views.common.pagelinks.api.PageLinkFactory--><path codeLine="21" d="M371.42,349.11 C400.95,366.91 432.69,386.13 462,404 C483.65,417.21 507.7,432.02 527.5,444.27 " fill="none" id="com.hack23.cia.web.impl.ui.application.views.common.AbstractView-to-com.hack23.cia.web.impl.ui.application.views.common.pagelinks.api.PageLinkFactory" style="stroke:#A80036;stroke-width:1.0;"/><polygon fill="#A80036" points="531.92,447,526.3834,438.8547,527.672,444.3628,522.1639,445.6515,531.92,447" style="stroke:#A80036;stroke-width:1.0;"/><text fill="#000000" font-family="sans-serif" font-size="13" lengthAdjust="spacing" textLength="104" x="446" y="392.0669">pageLinkFactory</text><text fill="#888888" font-family="sans-serif" font-size="10" lengthAdjust="spacing" textLength="192" x="426" y="539.2822">UMLDoclet 2.0.15, PlantUML 1.2021.13</text><!--MD5=[432aa6648b234455868499115386ba10]
@startuml
    namespace com.hack23.cia.web.impl.ui.application.views.common {

        class MainView [[MainView.html]] {
            {static} +NAME: String
            +MainView(ApplicationContext)
        }

        abstract class AbstractView [[AbstractView.html]] {
            #pageActionEventHelper: PageActionEventHelper
            #AbstractView(Map<String, PageModeContentFactory>, String)
            #createBasicLayoutWithPanelAndFooter(String): void
            +enter(ViewChangeEvent): void
            +getBarmenu(): MenuBar
            #getPanel(): Panel
            +postConstruct(): void
        }

        AbstractView <|- - MainView
        com.vaadin.ui.Panel <|- - AbstractView
        com.vaadin.navigator.View <|.. AbstractView
        AbstractView - -> com.hack23.cia.web.impl.ui.application.views.common.pagelinks.api.PageLinkFactory: pageLinkFactory
    }

    namespace com.vaadin.ui {
        class Panel {
            #actionManager: ActionManager
        }
    }

    namespace com.vaadin.navigator {
        interface View {
            +enter(ViewChangeEvent): void
            +beforeLeave(ViewBeforeLeaveEvent): void
            +getViewComponent(): Component
        }
    }

    center footer UMLDoclet 2.0.15, PlantUML 1.2021.13
@enduml

PlantUML version 1.2021.13(Mon Nov 01 12:38:45 CET 2021)
(APACHE source distribution)
Java Runtime: OpenJDK Runtime Environment
JVM: OpenJDK 64-Bit Server VM
Default Encoding: UTF-8
Language: en
Country: US
--></g></svg>