<?xml version="1.0" encoding="UTF-8" standalone="no"?><svg xmlns="http://www.w3.org/2000/svg" xmlns:xlink="http://www.w3.org/1999/xlink" contentScriptType="application/ecmascript" contentStyleType="text/css" height="646px" preserveAspectRatio="none" style="width:1044px;height:646px;" version="1.1" viewBox="0 0 1044 646" width="1044px" zoomAndPan="magnify"><defs><filter height="300%" id="f35xqms2l1p9j" width="300%" x="-1" y="-1"><feGaussianBlur result="blurOut" stdDeviation="2.0"/><feColorMatrix in="blurOut" result="blurOut2" type="matrix" values="0 0 0 0 0 0 0 0 0 0 0 0 0 0 0 0 0 0 .4 0"/><feOffset dx="4.0" dy="4.0" in="blurOut2" result="blurOut3"/><feBlend in="SourceGraphic" in2="blurOut3" mode="normal"/></filter></defs><g><!--MD5=[ca7137a5cb5dd6a4f240bec724ad43a0]
cluster com.hack23.cia.web.impl.ui.application.views.common--><polygon fill="#FFFFFF" filter="url(#f35xqms2l1p9j)" points="14,168,450,168,457,190.2969,460,190.2969,460,606,14,606,14,168" style="stroke: #000000; stroke-width: 1.5;"/><line style="stroke: #000000; stroke-width: 1.5;" x1="14" x2="457" y1="190.2969" y2="190.2969"/><text fill="#000000" font-family="sans-serif" font-size="14" font-weight="bold" lengthAdjust="spacingAndGlyphs" textLength="430" x="18" y="182.9951">com.hack23.cia.web.impl.ui.application.views.common</text><!--MD5=[99b8bc54f75e0f490d62721683ad7b11]
cluster com.vaadin.ui--><polygon fill="#FFFFFF" filter="url(#f35xqms2l1p9j)" points="73,28.5,187,28.5,194,50.7969,289,50.7969,289,124.5,73,124.5,73,28.5" style="stroke: #000000; stroke-width: 1.5;"/><line style="stroke: #000000; stroke-width: 1.5;" x1="73" x2="194" y1="50.7969" y2="50.7969"/><text fill="#000000" font-family="sans-serif" font-size="14" font-weight="bold" lengthAdjust="spacingAndGlyphs" textLength="108" x="77" y="43.4951">com.vaadin.ui</text><!--MD5=[d1fa7e8ced12f2318f4abf074a0846a8]
cluster com.vaadin.navigator--><polygon fill="#FFFFFF" filter="url(#f35xqms2l1p9j)" points="308,16,482,16,489,38.2969,588,38.2969,588,137,308,137,308,16" style="stroke: #000000; stroke-width: 1.5;"/><line style="stroke: #000000; stroke-width: 1.5;" x1="308" x2="489" y1="38.2969" y2="38.2969"/><text fill="#000000" font-family="sans-serif" font-size="14" font-weight="bold" lengthAdjust="spacingAndGlyphs" textLength="168" x="312" y="30.9951">com.vaadin.navigator</text><!--MD5=[cbb0111ccb0741895fa998c1a69c3373]
cluster com.hack23.cia.web.impl.ui.application.views.common.pagelinks.api--><polygon fill="#FFFFFF" filter="url(#f35xqms2l1p9j)" points="468,388,1012,388,1019,410.2969,1022,410.2969,1022,471,468,471,468,388" style="stroke: #000000; stroke-width: 1.5;"/><line style="stroke: #000000; stroke-width: 1.5;" x1="468" x2="1019" y1="410.2969" y2="410.2969"/><text fill="#000000" font-family="sans-serif" font-size="14" font-weight="bold" lengthAdjust="spacingAndGlyphs" textLength="538" x="472" y="402.9951">com.hack23.cia.web.impl.ui.application.views.common.pagelinks.api</text><!--MD5=[39d9067b85bbf212528c68bdcb9daa3e]
class com.hack23.cia.web.impl.ui.application.views.common.AbstractView--><a href="AbstractView.html" target="_top" title="AbstractView.html" xlink:actuate="onRequest" xlink:href="AbstractView.html" xlink:show="new" xlink:title="AbstractView.html" xlink:type="simple"><rect fill="#FEFECE" filter="url(#f35xqms2l1p9j)" height="137.6328" id="com.hack23.cia.web.impl.ui.application.views.common.AbstractView" style="stroke: #A80036; stroke-width: 1.5;" width="375" x="76.5" y="195"/><ellipse cx="219.25" cy="211" fill="#A9DCDF" rx="11" ry="11" style="stroke: #A80036; stroke-width: 1.0;"/><path d="M219.3594,206.3438 L218.2031,211.4219 L220.5313,211.4219 L219.3594,206.3438 Z M217.875,204.1094 L220.8594,204.1094 L224.2188,216.5 L221.7656,216.5 L221,213.4375 L217.7188,213.4375 L216.9688,216.5 L214.5313,216.5 L217.875,204.1094 Z "/><text fill="#000000" font-family="sans-serif" font-size="12" font-style="italic" lengthAdjust="spacingAndGlyphs" textLength="81" x="239.75" y="215.1543">AbstractView</text><line style="stroke: #A80036; stroke-width: 1.5;" x1="77.5" x2="450.5" y1="227" y2="227"/><polygon fill="none" points="87.5,233,91.5,237,87.5,241,83.5,237" style="stroke: #B38D22; stroke-width: 1.0;"/><text fill="#000000" font-family="sans-serif" font-size="11" lengthAdjust="spacingAndGlyphs" textLength="268" x="96.5" y="241.2104">pageActionEventHelper: PageActionEventHelper</text><line style="stroke: #A80036; stroke-width: 1.5;" x1="77.5" x2="450.5" y1="247.8047" y2="247.8047"/><polygon fill="#FFFF44" points="87.5,253.8047,91.5,257.8047,87.5,261.8047,83.5,257.8047" style="stroke: #B38D22; stroke-width: 1.0;"/><text fill="#000000" font-family="sans-serif" font-size="11" lengthAdjust="spacingAndGlyphs" textLength="349" x="96.5" y="262.0151">AbstractView(Map&lt;String, PageModeContentFactory&gt;, String)</text><polygon fill="#FFFF44" points="87.5,266.6094,91.5,270.6094,87.5,274.6094,83.5,270.6094" style="stroke: #B38D22; stroke-width: 1.0;"/><text fill="#000000" font-family="sans-serif" font-size="11" lengthAdjust="spacingAndGlyphs" textLength="288" x="96.5" y="274.8198">createBasicLayoutWithPanelAndFooter(String): void</text><ellipse cx="87.5" cy="284.4141" fill="#84BE84" rx="3" ry="3" style="stroke: #038048; stroke-width: 1.0;"/><text fill="#000000" font-family="sans-serif" font-size="11" lengthAdjust="spacingAndGlyphs" textLength="169" x="96.5" y="287.6245">enter(ViewChangeEvent): void</text><ellipse cx="87.5" cy="297.2188" fill="#84BE84" rx="3" ry="3" style="stroke: #038048; stroke-width: 1.0;"/><text fill="#000000" font-family="sans-serif" font-size="11" lengthAdjust="spacingAndGlyphs" textLength="136" x="96.5" y="300.4292">getBarmenu(): MenuBar</text><polygon fill="#FFFF44" points="87.5,305.0234,91.5,309.0234,87.5,313.0234,83.5,309.0234" style="stroke: #B38D22; stroke-width: 1.0;"/><text fill="#000000" font-family="sans-serif" font-size="11" lengthAdjust="spacingAndGlyphs" textLength="96" x="96.5" y="313.2339">getPanel(): Panel</text><ellipse cx="87.5" cy="322.8281" fill="#84BE84" rx="3" ry="3" style="stroke: #038048; stroke-width: 1.0;"/><text fill="#000000" font-family="sans-serif" font-size="11" lengthAdjust="spacingAndGlyphs" textLength="119" x="96.5" y="326.0386">postConstruct(): void</text></a><!--MD5=[81f5737fe54682a1989df5f0eaac6c93]
class com.hack23.cia.web.impl.ui.application.views.common.MainView--><a href="MainView.html" target="_top" title="MainView.html" xlink:actuate="onRequest" xlink:href="MainView.html" xlink:show="new" xlink:title="MainView.html" xlink:type="simple"><rect fill="#FEFECE" filter="url(#f35xqms2l1p9j)" height="73.6094" id="com.hack23.cia.web.impl.ui.application.views.common.MainView" style="stroke: #A80036; stroke-width: 1.5;" width="190" x="169" y="524"/><ellipse cx="231.25" cy="540" fill="#ADD1B2" rx="11" ry="11" style="stroke: #A80036; stroke-width: 1.0;"/><path d="M234.2188,545.6406 Q233.6406,545.9375 233,546.0781 Q232.3594,546.2344 231.6563,546.2344 Q229.1563,546.2344 227.8281,544.5938 Q226.5156,542.9375 226.5156,539.8125 Q226.5156,536.6875 227.8281,535.0313 Q229.1563,533.375 231.6563,533.375 Q232.3594,533.375 233,533.5313 Q233.6563,533.6875 234.2188,533.9844 L234.2188,536.7031 Q233.5938,536.125 233,535.8594 Q232.4063,535.5781 231.7813,535.5781 Q230.4375,535.5781 229.75,536.6563 Q229.0625,537.7188 229.0625,539.8125 Q229.0625,541.9063 229.75,542.9844 Q230.4375,544.0469 231.7813,544.0469 Q232.4063,544.0469 233,543.7813 Q233.5938,543.5 234.2188,542.9219 L234.2188,545.6406 Z "/><text fill="#000000" font-family="sans-serif" font-size="12" lengthAdjust="spacingAndGlyphs" textLength="57" x="251.75" y="544.1543">MainView</text><line style="stroke: #A80036; stroke-width: 1.5;" x1="170" x2="358" y1="556" y2="556"/><ellipse cx="180" cy="567" fill="none" rx="3" ry="3" style="stroke: #038048; stroke-width: 1.0;"/><text fill="#000000" font-family="sans-serif" font-size="11" lengthAdjust="spacingAndGlyphs" text-decoration="underline" textLength="73" x="189" y="570.2104">NAME: String</text><line style="stroke: #A80036; stroke-width: 1.5;" x1="170" x2="358" y1="576.8047" y2="576.8047"/><ellipse cx="180" cy="587.8047" fill="#84BE84" rx="3" ry="3" style="stroke: #038048; stroke-width: 1.0;"/><text fill="#000000" font-family="sans-serif" font-size="11" lengthAdjust="spacingAndGlyphs" textLength="164" x="189" y="591.0151">MainView(ApplicationContext)</text></a><!--MD5=[4e99dcfe5e78108e6e90b389320a4b28]
class com.vaadin.ui.Panel--><rect fill="#FEFECE" filter="url(#f35xqms2l1p9j)" height="60.8047" id="com.vaadin.ui.Panel" style="stroke: #A80036; stroke-width: 1.5;" width="200" x="81" y="55.5"/><ellipse cx="159.25" cy="71.5" fill="#ADD1B2" rx="11" ry="11" style="stroke: #A80036; stroke-width: 1.0;"/><path d="M162.2188,77.1406 Q161.6406,77.4375 161,77.5781 Q160.3594,77.7344 159.6563,77.7344 Q157.1563,77.7344 155.8281,76.0938 Q154.5156,74.4375 154.5156,71.3125 Q154.5156,68.1875 155.8281,66.5313 Q157.1563,64.875 159.6563,64.875 Q160.3594,64.875 161,65.0313 Q161.6563,65.1875 162.2188,65.4844 L162.2188,68.2031 Q161.5938,67.625 161,67.3594 Q160.4063,67.0781 159.7813,67.0781 Q158.4375,67.0781 157.75,68.1563 Q157.0625,69.2188 157.0625,71.3125 Q157.0625,73.4063 157.75,74.4844 Q158.4375,75.5469 159.7813,75.5469 Q160.4063,75.5469 161,75.2813 Q161.5938,75 162.2188,74.4219 L162.2188,77.1406 Z "/><text fill="#000000" font-family="sans-serif" font-size="12" lengthAdjust="spacingAndGlyphs" textLength="35" x="179.75" y="75.6543">Panel</text><line style="stroke: #A80036; stroke-width: 1.5;" x1="82" x2="280" y1="87.5" y2="87.5"/><polygon fill="none" points="92,93.5,96,97.5,92,101.5,88,97.5" style="stroke: #B38D22; stroke-width: 1.0;"/><text fill="#000000" font-family="sans-serif" font-size="11" lengthAdjust="spacingAndGlyphs" textLength="174" x="101" y="101.7104">actionManager: ActionManager</text><line style="stroke: #A80036; stroke-width: 1.5;" x1="82" x2="280" y1="108.3047" y2="108.3047"/><!--MD5=[c5680bbed40b7bef261af4cf8b2d52c9]
class com.vaadin.navigator.View--><rect fill="#FEFECE" filter="url(#f35xqms2l1p9j)" height="86.4141" id="com.vaadin.navigator.View" style="stroke: #A80036; stroke-width: 1.5;" width="263" x="316.5" y="43"/><ellipse cx="429.25" cy="59" fill="#B4A7E5" rx="11" ry="11" style="stroke: #A80036; stroke-width: 1.0;"/><path d="M425.1719,54.7656 L425.1719,52.6094 L432.5625,52.6094 L432.5625,54.7656 L430.0938,54.7656 L430.0938,62.8438 L432.5625,62.8438 L432.5625,65 L425.1719,65 L425.1719,62.8438 L427.6406,62.8438 L427.6406,54.7656 L425.1719,54.7656 Z "/><text fill="#000000" font-family="sans-serif" font-size="12" font-style="italic" lengthAdjust="spacingAndGlyphs" textLength="29" x="449.75" y="63.1543">View</text><line style="stroke: #A80036; stroke-width: 1.5;" x1="317.5" x2="578.5" y1="75" y2="75"/><line style="stroke: #A80036; stroke-width: 1.5;" x1="317.5" x2="578.5" y1="83" y2="83"/><ellipse cx="327.5" cy="94" fill="#84BE84" rx="3" ry="3" style="stroke: #038048; stroke-width: 1.0;"/><text fill="#000000" font-family="sans-serif" font-size="11" lengthAdjust="spacingAndGlyphs" textLength="169" x="336.5" y="97.2104">enter(ViewChangeEvent): void</text><ellipse cx="327.5" cy="106.8047" fill="#84BE84" rx="3" ry="3" style="stroke: #038048; stroke-width: 1.0;"/><text fill="#000000" font-family="sans-serif" font-size="11" lengthAdjust="spacingAndGlyphs" textLength="237" x="336.5" y="110.0151">beforeLeave(ViewBeforeLeaveEvent): void</text><ellipse cx="327.5" cy="119.6094" fill="#84BE84" rx="3" ry="3" style="stroke: #038048; stroke-width: 1.0;"/><text fill="#000000" font-family="sans-serif" font-size="11" lengthAdjust="spacingAndGlyphs" textLength="190" x="336.5" y="122.8198">getViewComponent(): Component</text><!--MD5=[914a8c46903c27a07689f22c386cc52d]
class com.hack23.cia.web.impl.ui.application.views.common.pagelinks.api.PageLinkFactory--><rect fill="#FEFECE" filter="url(#f35xqms2l1p9j)" height="48" id="com.hack23.cia.web.impl.ui.application.views.common.pagelinks.api.PageLinkFactory" style="stroke: #A80036; stroke-width: 1.5;" width="134" x="476" y="415"/><ellipse cx="491" cy="431" fill="#ADD1B2" rx="11" ry="11" style="stroke: #A80036; stroke-width: 1.0;"/><path d="M493.9688,436.6406 Q493.3906,436.9375 492.75,437.0781 Q492.1094,437.2344 491.4063,437.2344 Q488.9063,437.2344 487.5781,435.5938 Q486.2656,433.9375 486.2656,430.8125 Q486.2656,427.6875 487.5781,426.0313 Q488.9063,424.375 491.4063,424.375 Q492.1094,424.375 492.75,424.5313 Q493.4063,424.6875 493.9688,424.9844 L493.9688,427.7031 Q493.3438,427.125 492.75,426.8594 Q492.1563,426.5781 491.5313,426.5781 Q490.1875,426.5781 489.5,427.6563 Q488.8125,428.7188 488.8125,430.8125 Q488.8125,432.9063 489.5,433.9844 Q490.1875,435.0469 491.5313,435.0469 Q492.1563,435.0469 492.75,434.7813 Q493.3438,434.5 493.9688,433.9219 L493.9688,436.6406 Z "/><text fill="#000000" font-family="sans-serif" font-size="12" lengthAdjust="spacingAndGlyphs" textLength="102" x="505" y="435.1543">PageLinkFactory</text><line style="stroke: #A80036; stroke-width: 1.5;" x1="477" x2="609" y1="447" y2="447"/><line style="stroke: #A80036; stroke-width: 1.5;" x1="477" x2="609" y1="455" y2="455"/><!--MD5=[095bd9fda1575c1c3960a36863ddea23]
reverse link com.vaadin.ui.Panel to com.hack23.cia.web.impl.ui.application.views.common.AbstractView--><path d="M203.8175,134.9339 C212.4201,153.3828 222.3762,174.7345 231.6835,194.6948 " fill="none" id="com.vaadin.ui.Panel&lt;-com.hack23.cia.web.impl.ui.application.views.common.AbstractView" style="stroke: #A80036; stroke-width: 1.0;"/><polygon fill="none" points="197.3762,137.6838,195.2682,116.5993,210.0646,131.7673,197.3762,137.6838" style="stroke: #A80036; stroke-width: 1.0;"/><!--MD5=[3a20fc5b1e0e0bda97e60ff842e0a14b]
reverse link com.vaadin.navigator.View to com.hack23.cia.web.impl.ui.application.views.common.AbstractView--><path d="M388.9884,143.0874 C371.9306,159.5889 353.1289,177.7775 335.4026,194.9258 " fill="none" id="com.vaadin.navigator.View&lt;-com.hack23.cia.web.impl.ui.application.views.common.AbstractView" style="stroke: #A80036; stroke-width: 1.0; stroke-dasharray: 7.0,7.0;"/><polygon fill="none" points="384.2171,137.9636,403.4587,129.0888,393.9512,148.0258,384.2171,137.9636" style="stroke: #A80036; stroke-width: 1.0;"/><!--MD5=[1cda9127644b26cdaa777b2e31c8edc5]
link com.hack23.cia.web.impl.ui.application.views.common.AbstractView to com.hack23.cia.web.impl.ui.application.views.common.pagelinks.api.PageLinkFactory--><path d="M380.0743,333.1504 C408.9765,350.7532 439.7665,369.8366 468,388 C479.794,395.5874 492.4593,404.0683 503.9622,411.9026 " fill="none" id="com.hack23.cia.web.impl.ui.application.views.common.AbstractView-&gt;com.hack23.cia.web.impl.ui.application.views.common.pagelinks.api.PageLinkFactory" style="stroke: #A80036; stroke-width: 1.0;"/><polygon fill="#A80036" points="508.1438,414.7568,502.9656,406.3791,504.0142,411.9379,498.4554,412.9865,508.1438,414.7568" style="stroke: #A80036; stroke-width: 1.0;"/><text fill="#000000" font-family="sans-serif" font-size="13" lengthAdjust="spacingAndGlyphs" textLength="104" x="452" y="376.0669">pageLinkFactory</text><!--MD5=[7e49f234e317d9f67edf5880b9a87284]
reverse link com.hack23.cia.web.impl.ui.application.views.common.AbstractView to com.hack23.cia.web.impl.ui.application.views.common.MainView--><path d="M264,353.5575 C264,410.5662 264,481.4097 264,523.8197 " fill="none" id="com.hack23.cia.web.impl.ui.application.views.common.AbstractView&lt;-com.hack23.cia.web.impl.ui.application.views.common.MainView" style="stroke: #A80036; stroke-width: 1.0;"/><polygon fill="none" points="257.0001,353.2585,264,333.2585,271.0001,353.2584,257.0001,353.2585" style="stroke: #A80036; stroke-width: 1.0;"/><text fill="#888888" font-family="sans-serif" font-size="10" lengthAdjust="spacingAndGlyphs" textLength="186" x="431" y="633.2822">UMLDoclet 2.0.7, PlantUML 1.2019.12</text><!--MD5=[9591ac1d00f9ed349c3031e4481673c5]
@startuml
    namespace com.hack23.cia.web.impl.ui.application.views.common {

        abstract class AbstractView [[AbstractView.html]] {
            #pageActionEventHelper: PageActionEventHelper
            #AbstractView(Map<String, PageModeContentFactory>, String)
            #createBasicLayoutWithPanelAndFooter(String): void
            +enter(ViewChangeEvent): void
            +getBarmenu(): MenuBar
            #getPanel(): Panel
            +postConstruct(): void
        }

        class MainView [[MainView.html]] {
            {static} +NAME: String
            +MainView(ApplicationContext)
        }

        com.vaadin.ui.Panel <|- - AbstractView
        com.vaadin.navigator.View <|.. AbstractView
        AbstractView - -> com.hack23.cia.web.impl.ui.application.views.common.pagelinks.api.PageLinkFactory: pageLinkFactory
        AbstractView <|- - MainView
    }

    namespace com.vaadin.ui {
        class Panel {
            #actionManager: ActionManager
        }
    }

    namespace com.vaadin.navigator {
        interface View {
            +enter(ViewChangeEvent): void
            +beforeLeave(ViewBeforeLeaveEvent): void
            +getViewComponent(): Component
        }
    }

    center footer UMLDoclet 2.0.7, PlantUML 1.2019.12
@enduml

PlantUML version 1.2019.12(Sun Nov 03 11:24:54 CET 2019)
(APACHE source distribution)
Java Runtime: OpenJDK Runtime Environment
JVM: OpenJDK 64-Bit Server VM
Java Version: 11.0.5-ea+10-post-Ubuntu-0ubuntu1
Operating System: Linux
Default Encoding: UTF-8
Language: en
Country: US
--></g></svg>