<svg xmlns="http://www.w3.org/2000/svg" xmlns:xlink="http://www.w3.org/1999/xlink" contentStyleType="text/css" height="544px" preserveAspectRatio="none" style="width:853px;height:544px;background:#FFFFFF;" version="1.1" viewBox="0 0 853 544" width="853px" zoomAndPan="magnify"><defs/><g><!--cluster com.hack23.cia.service.impl.action.common--><g id="cluster_com.hack23.cia.service.impl.action.common"><path d="M16.5,4 L326.0448,4 A3.75,3.75 0 0 1 328.5448,6.5 L335.5448,29.0679 L843.5,29.0679 A2.5,2.5 0 0 1 846,31.5679 L846,504.5 A2.5,2.5 0 0 1 843.5,507 L16.5,507 A2.5,2.5 0 0 1 14,504.5 L14,6.5 A2.5,2.5 0 0 1 16.5,4 " fill="none" style="stroke:#000000;stroke-width:1.5;"/><line style="stroke:#000000;stroke-width:1.5;" x1="14" x2="335.5448" y1="29.0679" y2="29.0679"/><text fill="#000000" font-family="sans-serif" font-size="14" font-weight="bold" lengthAdjust="spacing" textLength="308.5448" x="18" y="20.9659">com.hack23.cia.service.impl.action.common</text></g><!--class BusinessService--><a href="BusinessService.html" target="_top" title="BusinessService.html" xlink:actuate="onRequest" xlink:href="BusinessService.html" xlink:show="new" xlink:title="BusinessService.html" xlink:type="simple"><g id="elem_BusinessService"><rect codeLine="12" fill="#F1F1F1" height="86.1358" id="BusinessService" rx="2.5" ry="2.5" style="stroke:#181818;stroke-width:0.5;" width="449.3163" x="248.5" y="34"/><ellipse cx="280.6859" cy="50" fill="#B4A7E5" rx="11" ry="11" style="stroke:#181818;stroke-width:1.0;"/><path d="M276.6078,45.7656 L276.6078,43.6094 L283.9984,43.6094 L283.9984,45.7656 L281.5296,45.7656 L281.5296,53.8438 L283.9984,53.8438 L283.9984,56 L276.6078,56 L276.6078,53.8438 L279.0765,53.8438 L279.0765,45.7656 L276.6078,45.7656 Z " fill="#000000"/><text fill="#000000" font-family="sans-serif" font-size="14" font-style="italic" lengthAdjust="spacing" textLength="96.4596" x="298.505" y="55.432">BusinessService</text><rect fill="#FFFFFF" height="18.3441" style="stroke:#181818;stroke-width:1.0;stroke-dasharray:2.0,2.0;" width="280.6658" x="420.1505" y="31"/><text fill="#000000" font-family="sans-serif" font-size="12" font-style="italic" lengthAdjust="spacing" textLength="278.6658" x="421.1505" y="44.8281">T extends ServiceRequest, V extends ServiceResponse</text><line style="stroke:#181818;stroke-width:0.5;" x1="249.5" x2="696.8163" y1="66" y2="66"/><line style="stroke:#181818;stroke-width:0.5;" x1="249.5" x2="696.8163" y1="74" y2="74"/><ellipse cx="259.5" cy="89.034" fill="#84BE84" rx="3" ry="3" style="stroke:#038048;stroke-width:1.0;"/><text fill="#000000" font-family="sans-serif" font-size="14" font-style="italic" lengthAdjust="spacing" textLength="343.6146" x="268.5" y="92.9659">getSupportedService(): Class&lt;? extends ServiceRequest&gt;</text><ellipse cx="259.5" cy="108.1019" fill="#84BE84" rx="3" ry="3" style="stroke:#038048;stroke-width:1.0;"/><text fill="#000000" font-family="sans-serif" font-size="14" font-style="italic" lengthAdjust="spacing" textLength="423.3163" x="268.5" y="112.0339">processService(T extends ServiceRequest): V extends ServiceResponse</text></g></a><!--class AbstractBusinessServiceImpl--><a href="AbstractBusinessServiceImpl.html" target="_top" title="AbstractBusinessServiceImpl.html" xlink:actuate="onRequest" xlink:href="AbstractBusinessServiceImpl.html" xlink:show="new" xlink:title="AbstractBusinessServiceImpl.html" xlink:type="simple"><g id="elem_AbstractBusinessServiceImpl"><rect codeLine="17" fill="#F1F1F1" height="181.4754" id="AbstractBusinessServiceImpl" rx="2.5" ry="2.5" style="stroke:#181818;stroke-width:0.5;" width="816.1012" x="22" y="318"/><ellipse cx="196.394" cy="334" fill="#A9DCDF" rx="11" ry="11" style="stroke:#181818;stroke-width:1.0;"/><path d="M196.5034,329.3438 L195.3471,334.4219 L197.6753,334.4219 L196.5034,329.3438 Z M195.019,327.1094 L198.0034,327.1094 L201.3628,339.5 L198.9096,339.5 L198.144,336.4375 L194.8628,336.4375 L194.1128,339.5 L191.6753,339.5 L195.019,327.1094 Z " fill="#000000"/><text fill="#000000" font-family="sans-serif" font-size="14" font-style="italic" lengthAdjust="spacing" textLength="176.1473" x="216.894" y="339.432">AbstractBusinessServiceImpl</text><rect fill="#FFFFFF" height="18.3441" style="stroke:#181818;stroke-width:1.0;stroke-dasharray:2.0,2.0;" width="280.6658" x="560.4354" y="315"/><text fill="#000000" font-family="sans-serif" font-size="12" font-style="italic" lengthAdjust="spacing" textLength="278.6658" x="561.4354" y="328.8281">T extends ServiceRequest, V extends ServiceResponse</text><line style="stroke:#181818;stroke-width:0.5;" x1="23" x2="837.1012" y1="350" y2="350"/><polygon fill="none" points="33,360.034,37,364.034,33,368.034,29,364.034" style="stroke:#B38D22;stroke-width:1.0;"/><text fill="#000000" font-family="sans-serif" font-size="14" lengthAdjust="spacing" textLength="124.5995" x="42" y="368.9659">validator: Validator</text><line style="stroke:#181818;stroke-width:0.5;" x1="23" x2="837.1012" y1="377.0679" y2="377.0679"/><ellipse cx="33" cy="392.1019" fill="#84BE84" rx="3" ry="3" style="stroke:#038048;stroke-width:1.0;"/><text fill="#000000" font-family="sans-serif" font-size="14" lengthAdjust="spacing" textLength="415.1684" x="42" y="396.0339">AbstractBusinessServiceImpl(Class&lt;T extends ServiceRequest&gt;)</text><polygon fill="#FFFF44" points="33,406.1698,37,410.1698,33,414.1698,29,410.1698" style="stroke:#B38D22;stroke-width:1.0;"/><text fill="#000000" font-family="sans-serif" font-size="14" lengthAdjust="spacing" textLength="790.1012" x="42" y="415.1018">getCreateApplicationEventService(): BusinessService&lt;CreateApplicationEventRequest, CreateApplicationEventResponse&gt;</text><polygon fill="#FFFF44" points="33,425.2377,37,429.2377,33,433.2377,29,429.2377" style="stroke:#B38D22;stroke-width:1.0;"/><text fill="#000000" font-family="sans-serif" font-size="14" font-style="italic" lengthAdjust="spacing" textLength="307.7468" x="42" y="434.1697">createErrorResponse(): V extends ServiceResponse</text><polygon fill="#FFFF44" points="33,444.3056,37,448.3056,33,452.3056,29,448.3056" style="stroke:#B38D22;stroke-width:1.0;"/><text fill="#000000" font-family="sans-serif" font-size="14" lengthAdjust="spacing" textLength="461.8582" x="42" y="453.2376">inputValidation(T extends ServiceRequest): V extends ServiceResponse</text><polygon fill="#FFFF44" points="33,463.3735,37,467.3735,33,471.3735,29,467.3735" style="stroke:#B38D22;stroke-width:1.0;"/><text fill="#000000" font-family="sans-serif" font-size="14" lengthAdjust="spacing" textLength="459.4223" x="42" y="472.3055">createBaseApplicationEventRequest(): CreateApplicationEventRequest</text><polygon fill="#FFFF44" points="33,482.4415,37,486.4415,33,490.4415,29,486.4415" style="stroke:#B38D22;stroke-width:1.0;"/><text fill="#000000" font-family="sans-serif" font-size="14" font-style="italic" lengthAdjust="spacing" textLength="566.9137" x="42" y="491.3734">createApplicationEventForService(T extends ServiceRequest): CreateApplicationEventRequest</text></g></a><!--class AbstractCommonBusinessServiceImpl--><a href="AbstractCommonBusinessServiceImpl.html" target="_top" title="AbstractCommonBusinessServiceImpl.html" xlink:actuate="onRequest" xlink:href="AbstractCommonBusinessServiceImpl.html" xlink:show="new" xlink:title="AbstractCommonBusinessServiceImpl.html" xlink:type="simple"><g id="elem_AbstractCommonBusinessServiceImpl"><rect codeLine="27" fill="#F1F1F1" height="124.2717" id="AbstractCommonBusinessServiceImpl" rx="2.5" ry="2.5" style="stroke:#181818;stroke-width:0.5;" width="547.401" x="44.5" y="157"/><ellipse cx="59.5" cy="173" fill="#A9DCDF" rx="11" ry="11" style="stroke:#181818;stroke-width:1.0;"/><path d="M59.6094,168.3438 L58.4531,173.4219 L60.7813,173.4219 L59.6094,168.3438 Z M58.125,166.1094 L61.1094,166.1094 L64.4688,178.5 L62.0156,178.5 L61.25,175.4375 L57.9688,175.4375 L57.2188,178.5 L54.7813,178.5 L58.125,166.1094 Z " fill="#000000"/><text fill="#000000" font-family="sans-serif" font-size="14" font-style="italic" lengthAdjust="spacing" textLength="232.7351" x="73.5" y="178.432">AbstractCommonBusinessServiceImpl</text><rect fill="#FFFFFF" height="18.3441" style="stroke:#181818;stroke-width:1.0;stroke-dasharray:2.0,2.0;" width="280.6658" x="314.2351" y="154"/><text fill="#000000" font-family="sans-serif" font-size="12" font-style="italic" lengthAdjust="spacing" textLength="278.6658" x="315.2351" y="167.8281">T extends ServiceRequest, V extends ServiceResponse</text><line style="stroke:#181818;stroke-width:0.5;" x1="45.5" x2="590.901" y1="189" y2="189"/><line style="stroke:#181818;stroke-width:0.5;" x1="45.5" x2="590.901" y1="197" y2="197"/><ellipse cx="55.5" cy="212.034" fill="#84BE84" rx="3" ry="3" style="stroke:#038048;stroke-width:1.0;"/><text fill="#000000" font-family="sans-serif" font-size="14" lengthAdjust="spacing" textLength="475.7882" x="64.5" y="215.9659">AbstractCommonBusinessServiceImpl(Class&lt;T extends ServiceRequest&gt;)</text><ellipse cx="55.5" cy="231.1019" fill="#84BE84" rx="3" ry="3" style="stroke:#038048;stroke-width:1.0;"/><text fill="#000000" font-family="sans-serif" font-size="14" lengthAdjust="spacing" textLength="368.9686" x="64.5" y="235.0339">getSupportedService(): Class&lt;? extends ServiceRequest&gt;</text><polygon fill="#FFFF44" points="55.5,245.1698,59.5,249.1698,55.5,253.1698,51.5,249.1698" style="stroke:#B38D22;stroke-width:1.0;"/><text fill="#000000" font-family="sans-serif" font-size="14" lengthAdjust="spacing" textLength="343.5447" x="64.5" y="254.1018">getUserAccountFromSecurityContext(): UserAccount</text><polygon fill="#FFFF44" points="55.5,264.2377,59.5,268.2377,55.5,272.2377,51.5,268.2377" style="stroke:#B38D22;stroke-width:1.0;"/><text fill="#000000" font-family="sans-serif" font-size="14" lengthAdjust="spacing" textLength="158.7874" x="64.5" y="273.1697">getUserDAO(): UserDAO</text></g></a><polygon fill="none" points="354.518,281.1351,358.5976,299.665,368.8996,293.5112,354.518,281.1351" style="stroke:#181818;stroke-width:1.0;"/><path d="M363.7486,296.5881 C370.7705,308.3435 369.0287,305.4275 376.4596,317.8676 " fill="none" style="stroke:#181818;stroke-width:1.0;"/><polygon fill="#181818" points="567.2586,120.0273,572.0595,128.6268,571.2589,123.0269,576.8588,122.2263,567.2586,120.0273" style="stroke:#181818;stroke-width:1.0;"/><path d="M575.2025,317.8869 C585.3855,306.6501 594.2676,294.3548 601,281 C625.8085,231.7885 627.8519,205.127 601,157 C592.8569,142.4051 585.5858,133.7696 572.059,123.6268 " fill="none" style="stroke:#181818;stroke-width:1.0;"/><text fill="#000000" font-family="sans-serif" font-size="13" lengthAdjust="spacing" textLength="184.0022" x="622" y="224.397">createApplicationEventService</text><polygon fill="none" points="426.4949,120.0046,409.1153,127.6172,417.1588,136.5224,426.4949,120.0046" style="stroke:#181818;stroke-width:1.0;"/><path d="M413.137,132.0698 C400.2962,143.6679 399.4541,144.4285 385.6752,156.874 " fill="none" style="stroke:#181818;stroke-width:1.0;stroke-dasharray:7.0,7.0;"/><text fill="#888888" font-family="sans-serif" font-size="10" lengthAdjust="spacing" textLength="2.6" x="417.2" y="519.69">&#160;</text><a href="https://github.com/talsma-ict/umldoclet" target="_top" title="https://github.com/talsma-ict/umldoclet" xlink:actuate="onRequest" xlink:href="https://github.com/talsma-ict/umldoclet" xlink:show="new" xlink:title="https://github.com/talsma-ict/umldoclet" xlink:type="simple"><text fill="#888888" font-family="sans-serif" font-size="10" lengthAdjust="spacing" textLength="76.7199" x="380.14" y="533.31">UMLDoclet 2.2.1</text></a><!--SRC=[jLPDSzem4BtdLsmdXv8X6EEq-V0mT0X9stJej1D8BvI340fei2LNaccPDF-zAziGnyL0qjGNovRslRSVaXO0u3LqPBHGV38rO2IOATTmyxaBH8nXmWHJnB0ny91Cc8OH2wIOw7GX0nARgLGWRvClAfLYEf9YpCK4Ff4v0IrZHPbszlOWeUelqNyIdKCVBUpF2qa3Pg3IESX9yjp6SSrplJVG9u4E2Lnr-aw6zc3ZEPxJ0CGEE6L28sGinambijeHeVZgfZE7C6TASodGnirmhAjK2aEuq10HPRHrwMj0XB5Q6uxbTqwWqkvr7sjppn9jXz1MWiHZk9O_ufMxho959gWu80iP6z0XCqIGP4gZPisGYXYCd- -d1YXqXc56BQ4pnR5tv51E7CtK7CKxF8m2Xr23uXrS4g8FTwcXVRWmJDqIok0yrbmmhNkfNRCFx9TXOgmX-tFDh4fp2D_-dh7vqwm5Wq41nfcQC1WEaH9opnqPQQDGr3rK9ypquYYI2bEQ6LKEVEW4HElckn8HhLAuI4dwG5yfym8PIjrOOTy_n6d90DJgWdRsMV3s2cFztC1jW5mVnFqv2VZObWBwiXm-Mb7TW5b90rmcjdNmc0kpr54CjrqxYd2t45jEbtCcJ2vbnGfQRx2AHjbq5fAo3E_JnEvIAQcMYoixfJDnX8ieDbcuaFFV2YH1JFMS4rtcQbBEcsAnnTMYrNkfTYZltHYtbtWdEJF-Gw6N0gylz-fMkwULz4iSF7PRtE11swPKnfWO9SCUex7YPj71cm4XB69knLhhY_QNvJ8S5bEJlNO-tNr_Qw2W-RjMUmxY6gpdYbidgrPhFGMg0E43tNH2FLLe0HrZvZWlceKqhqrj5a7kjBkL4c_aGkr_N4HCTRcOTMI0D__-wVhP6zkz1CY33HETMJfmS-MKqDLpV1dNTp4OJ8s9j5-lJxYPnYFhHDqadLEDKrEFms2Sjao5vcaup9gX3wkkp7OsjOPNyxn-uzJt6lwHwxZOZxqzFJuvgxeDttK7bx6I4QltZAIpgGp2uHy0]--></g></svg>