<?xml version="1.0" encoding="UTF-8" standalone="no"?><svg xmlns="http://www.w3.org/2000/svg" xmlns:xlink="http://www.w3.org/1999/xlink" contentScriptType="application/ecmascript" contentStyleType="text/css" height="294px" preserveAspectRatio="none" style="width:494px;height:294px;" version="1.1" viewBox="0 0 494 294" width="494px" zoomAndPan="magnify"><defs><filter height="300%" id="fh5p6qy2g45qd" width="300%" x="-1" y="-1"><feGaussianBlur result="blurOut" stdDeviation="2.0"/><feColorMatrix in="blurOut" result="blurOut2" type="matrix" values="0 0 0 0 0 0 0 0 0 0 0 0 0 0 0 0 0 0 .4 0"/><feOffset dx="4.0" dy="4.0" in="blurOut2" result="blurOut3"/><feBlend in="SourceGraphic" in2="blurOut3" mode="normal"/></filter></defs><g><!--class com.hack23.cia.model.internal.application.data.impl.ApplicationActionEventPagePeriodSummaryEmbeddedId--><a href="ApplicationActionEventPagePeriodSummaryEmbeddedId.html" target="_top" xlink:actuate="onRequest" xlink:show="new" xlink:title="ApplicationActionEventPagePeriodSummaryEmbeddedId.html" xlink:type="simple"><rect fill="#FEFECE" filter="url(#fh5p6qy2g45qd)" height="156.375" id="com.hack23.cia.model.internal.application.data.impl.ApplicationActionEventPagePeriodSummaryEmbeddedId" style="stroke: #A80036; stroke-width: 1.5;" width="477" x="6" y="106"/><ellipse cx="46.65" cy="124.9688" fill="#ADD1B2" rx="11" ry="11" style="stroke: #A80036; stroke-width: 1.0;"/><path d="M49.6188,130.6094 Q49.0406,130.9063 48.4,131.0469 Q47.7594,131.2031 47.0563,131.2031 Q44.5563,131.2031 43.2281,129.5625 Q41.9156,127.9063 41.9156,124.7813 Q41.9156,121.6563 43.2281,120 Q44.5563,118.3438 47.0563,118.3438 Q47.7594,118.3438 48.4,118.5 Q49.0563,118.6563 49.6188,118.9531 L49.6188,121.6719 Q48.9938,121.0938 48.4,120.8281 Q47.8063,120.5469 47.1813,120.5469 Q45.8375,120.5469 45.15,121.625 Q44.4625,122.6875 44.4625,124.7813 Q44.4625,126.875 45.15,127.9531 Q45.8375,129.0156 47.1813,129.0156 Q47.8063,129.0156 48.4,128.75 Q48.9938,128.4688 49.6188,127.8906 L49.6188,130.6094 Z "/><text fill="#000000" font-family="sans-serif" font-size="14" lengthAdjust="spacingAndGlyphs" textLength="388" x="66.35" y="123.9951">ApplicationActionEventPagePeriodSummaryEmbeddedId</text><text fill="#000000" font-family="sans-serif" font-size="10" lengthAdjust="spacingAndGlyphs" textLength="248" x="136.35" y="136.5791">com.hack23.cia.model.internal.application.data.impl</text><line style="stroke: #A80036; stroke-width: 1.5;" x1="7" x2="482" y1="143.9375" y2="143.9375"/><polygon fill="none" points="17,150.8398,21,154.8398,17,158.8398,13,154.8398" style="stroke: #B38D22; stroke-width: 1.0;"/><text fill="#000000" font-family="sans-serif" font-size="11" lengthAdjust="spacingAndGlyphs" textLength="103" x="26" y="158.1479">createdDate: Date</text><polygon fill="none" points="17,163.6445,21,167.6445,17,171.6445,13,167.6445" style="stroke: #B38D22; stroke-width: 1.0;"/><text fill="#000000" font-family="sans-serif" font-size="11" lengthAdjust="spacingAndGlyphs" textLength="70" x="26" y="170.9526">page: String</text><line style="stroke: #A80036; stroke-width: 1.5;" x1="7" x2="482" y1="177.5469" y2="177.5469"/><ellipse cx="17" cy="189.4492" fill="#84BE84" rx="3" ry="3" style="stroke: #038048; stroke-width: 1.0;"/><text fill="#000000" font-family="sans-serif" font-size="11" lengthAdjust="spacingAndGlyphs" textLength="131" x="26" y="191.7573">getCreatedDate(): Date</text><ellipse cx="17" cy="202.2539" fill="#84BE84" rx="3" ry="3" style="stroke: #038048; stroke-width: 1.0;"/><text fill="#000000" font-family="sans-serif" font-size="11" lengthAdjust="spacingAndGlyphs" textLength="154" x="26" y="204.562">setCreatedDate(Date): void</text><ellipse cx="17" cy="215.0586" fill="#84BE84" rx="3" ry="3" style="stroke: #038048; stroke-width: 1.0;"/><text fill="#000000" font-family="sans-serif" font-size="11" lengthAdjust="spacingAndGlyphs" textLength="96" x="26" y="217.3667">getPage(): String</text><ellipse cx="17" cy="227.8633" fill="#84BE84" rx="3" ry="3" style="stroke: #038048; stroke-width: 1.0;"/><text fill="#000000" font-family="sans-serif" font-size="11" lengthAdjust="spacingAndGlyphs" textLength="119" x="26" y="230.1714">setPage(String): void</text><ellipse cx="17" cy="240.668" fill="#84BE84" rx="3" ry="3" style="stroke: #038048; stroke-width: 1.0;"/><text fill="#000000" font-family="sans-serif" font-size="11" lengthAdjust="spacingAndGlyphs" textLength="451" x="26" y="242.9761">withCreatedDate(Date): ApplicationActionEventPagePeriodSummaryEmbeddedId</text><ellipse cx="17" cy="253.4727" fill="#84BE84" rx="3" ry="3" style="stroke: #038048; stroke-width: 1.0;"/><text fill="#000000" font-family="sans-serif" font-size="11" lengthAdjust="spacingAndGlyphs" textLength="416" x="26" y="255.7808">withPage(String): ApplicationActionEventPagePeriodSummaryEmbeddedId</text></a><!--class com.hack23.cia.model.common.api.ModelObject--><rect fill="#FEFECE" filter="url(#fh5p6qy2g45qd)" height="37.9375" id="com.hack23.cia.model.common.api.ModelObject" style="stroke: #A80036; stroke-width: 1.5;" width="210" x="139.5" y="8"/><ellipse cx="154.5" cy="26.9688" fill="#B4A7E5" rx="11" ry="11" style="stroke: #A80036; stroke-width: 1.0;"/><path d="M150.4219,22.7344 L150.4219,20.5781 L157.8125,20.5781 L157.8125,22.7344 L155.3438,22.7344 L155.3438,30.8125 L157.8125,30.8125 L157.8125,32.9688 L150.4219,32.9688 L150.4219,30.8125 L152.8906,30.8125 L152.8906,22.7344 L150.4219,22.7344 Z "/><text fill="#000000" font-family="sans-serif" font-size="14" font-style="italic" lengthAdjust="spacingAndGlyphs" textLength="87" x="214" y="25.9951">ModelObject</text><text fill="#000000" font-family="sans-serif" font-size="10" font-style="italic" lengthAdjust="spacingAndGlyphs" textLength="178" x="168.5" y="38.5791">com.hack23.cia.model.common.api</text><!--link com.hack23.cia.model.common.api.ModelObject to com.hack23.cia.model.internal.application.data.impl.ApplicationActionEventPagePeriodSummaryEmbeddedId--><path d="M244.5,66.3456 C244.5,78.3814 244.5,92.0678 244.5,105.7444 " fill="none" id="com.hack23.cia.model.common.api.ModelObject-com.hack23.cia.model.internal.application.data.impl.ApplicationActionEventPagePeriodSummaryEmbeddedId" style="stroke: #A80036; stroke-width: 1.0; stroke-dasharray: 7.0,7.0;"/><polygon fill="none" points="237.5001,66.2513,244.5,46.2513,251.5001,66.2512,237.5001,66.2513" style="stroke: #A80036; stroke-width: 1.0;"/><text fill="#888888" font-family="sans-serif" font-size="10" lengthAdjust="spacingAndGlyphs" textLength="186" x="157.5" y="281.2822">UMLDoclet 2.0.5, PlantUML 1.2019.08</text><!--
@startuml
    set namespaceSeparator none
    hide empty fields
    hide empty methods

    class "<size:14>ApplicationActionEventPagePeriodSummaryEmbeddedId\n<size:10>com.hack23.cia.model.internal.application.data.impl" as com.hack23.cia.model.internal.application.data.impl.ApplicationActionEventPagePeriodSummaryEmbeddedId [[ApplicationActionEventPagePeriodSummaryEmbeddedId.html]] {
        #createdDate: Date
        #page: String
        +getCreatedDate(): Date
        +setCreatedDate(Date): void
        +getPage(): String
        +setPage(String): void
        +withCreatedDate(Date): ApplicationActionEventPagePeriodSummaryEmbeddedId
        +withPage(String): ApplicationActionEventPagePeriodSummaryEmbeddedId
    }

    interface "<size:14>ModelObject\n<size:10>com.hack23.cia.model.common.api" as com.hack23.cia.model.common.api.ModelObject

    com.hack23.cia.model.common.api.ModelObject <|.. com.hack23.cia.model.internal.application.data.impl.ApplicationActionEventPagePeriodSummaryEmbeddedId

    center footer UMLDoclet 2.0.5, PlantUML 1.2019.08
@enduml

PlantUML version 1.2019.08(Sat Jul 13 21:25:14 CEST 2019)
(APACHE source distribution)
Java Runtime: OpenJDK Runtime Environment
JVM: OpenJDK 64-Bit Server VM
Java Version: 11.0.4+11-post-Ubuntu-1ubuntu219.04
Operating System: Linux
OS Version: 5.0.0-27-generic
Default Encoding: UTF-8
Language: en
Country: US
--></g></svg>