<svg xmlns="http://www.w3.org/2000/svg" xmlns:xlink="http://www.w3.org/1999/xlink" contentStyleType="text/css" height="408px" preserveAspectRatio="none" style="width:626px;height:408px;background:#FFFFFF;" version="1.1" viewBox="0 0 626 408" width="626px" zoomAndPan="magnify"><defs/><g><!--class com.hack23.cia.model.internal.application.data.impl.ApplicationActionEventPageElementPeriodSummaryEmbeddedId--><a href="ApplicationActionEventPageElementPeriodSummaryEmbeddedId.html" target="_top" title="ApplicationActionEventPageElementPeriodSummaryEmbeddedId.html" xlink:actuate="onRequest" xlink:href="ApplicationActionEventPageElementPeriodSummaryEmbeddedId.html" xlink:show="new" xlink:title="ApplicationActionEventPageElementPeriodSummaryEmbeddedId.html" xlink:type="simple"><g id="elem_com.hack23.cia.model.internal.application.data.impl.ApplicationActionEventPageElementPeriodSummaryEmbeddedId"><rect codeLine="13" fill="#F1F1F1" height="287.5029" id="com.hack23.cia.model.internal.application.data.impl.ApplicationActionEventPageElementPeriodSummaryEmbeddedId" rx="2.5" ry="2.5" style="stroke:#181818;stroke-width:0.5;" width="613.2139" x="6" y="91"/><ellipse cx="93.8007" cy="112.344" fill="#ADD1B2" rx="11" ry="11" style="stroke:#181818;stroke-width:1.0;"/><path d="M96.7695,117.9846 Q96.1913,118.2815 95.5507,118.4221 Q94.9101,118.5783 94.207,118.5783 Q91.707,118.5783 90.3788,116.9377 Q89.0663,115.2815 89.0663,112.1565 Q89.0663,109.0315 90.3788,107.3752 Q91.707,105.719 94.207,105.719 Q94.9101,105.719 95.5507,105.8752 Q96.207,106.0315 96.7695,106.3283 L96.7695,109.0471 Q96.1445,108.469 95.5507,108.2033 Q94.957,107.9221 94.332,107.9221 Q92.9882,107.9221 92.3007,109.0002 Q91.6132,110.0627 91.6132,112.1565 Q91.6132,114.2502 92.3007,115.3283 Q92.9882,116.3908 94.332,116.3908 Q94.957,116.3908 95.5507,116.1252 Q96.1445,115.844 96.7695,115.2658 L96.7695,117.9846 Z " fill="#000000"/><text fill="#000000" font-family="sans-serif" font-size="14" lengthAdjust="spacing" textLength="429.1124" x="114.3007" y="110.9659">ApplicationActionEventPageElementPeriodSummaryEmbeddedId</text><text fill="#000000" font-family="sans-serif" font-size="10" lengthAdjust="spacing" textLength="245.1398" x="206.287" y="125.7579">com.hack23.cia.model.internal.application.data.impl</text><line style="stroke:#181818;stroke-width:0.5;" x1="7" x2="618.2139" y1="133.6879" y2="133.6879"/><polygon fill="none" points="17,143.7219,21,147.7219,17,151.7219,13,147.7219" style="stroke:#B38D22;stroke-width:1.0;"/><text fill="#000000" font-family="sans-serif" font-size="14" lengthAdjust="spacing" textLength="119.2515" x="26" y="152.6538">createdDate: Date</text><polygon fill="none" points="17,162.7898,21,166.7898,17,170.7898,13,166.7898" style="stroke:#B38D22;stroke-width:1.0;"/><text fill="#000000" font-family="sans-serif" font-size="14" lengthAdjust="spacing" textLength="79.7577" x="26" y="171.7218">page: String</text><polygon fill="none" points="17,181.8577,21,185.8577,17,189.8577,13,185.8577" style="stroke:#B38D22;stroke-width:1.0;"/><text fill="#000000" font-family="sans-serif" font-size="14" lengthAdjust="spacing" textLength="114.2396" x="26" y="190.7897">elementId: String</text><line style="stroke:#181818;stroke-width:0.5;" x1="7" x2="618.2139" y1="198.8917" y2="198.8917"/><ellipse cx="17" cy="213.9256" fill="#84BE84" rx="3" ry="3" style="stroke:#038048;stroke-width:1.0;"/><text fill="#000000" font-family="sans-serif" font-size="14" lengthAdjust="spacing" textLength="151.3394" x="26" y="217.8576">getCreatedDate(): Date</text><ellipse cx="17" cy="232.9935" fill="#84BE84" rx="3" ry="3" style="stroke:#038048;stroke-width:1.0;"/><text fill="#000000" font-family="sans-serif" font-size="14" lengthAdjust="spacing" textLength="177.2393" x="26" y="236.9255">setCreatedDate(Date): void</text><ellipse cx="17" cy="252.0614" fill="#84BE84" rx="3" ry="3" style="stroke:#038048;stroke-width:1.0;"/><text fill="#000000" font-family="sans-serif" font-size="14" lengthAdjust="spacing" textLength="109.5776" x="26" y="255.9934">getPage(): String</text><ellipse cx="17" cy="271.1294" fill="#84BE84" rx="3" ry="3" style="stroke:#038048;stroke-width:1.0;"/><text fill="#000000" font-family="sans-serif" font-size="14" lengthAdjust="spacing" textLength="135.4775" x="26" y="275.0613">setPage(String): void</text><ellipse cx="17" cy="290.1973" fill="#84BE84" rx="3" ry="3" style="stroke:#038048;stroke-width:1.0;"/><text fill="#000000" font-family="sans-serif" font-size="14" lengthAdjust="spacing" textLength="144.0874" x="26" y="294.1293">getElementId(): String</text><ellipse cx="17" cy="309.2652" fill="#84BE84" rx="3" ry="3" style="stroke:#038048;stroke-width:1.0;"/><text fill="#000000" font-family="sans-serif" font-size="14" lengthAdjust="spacing" textLength="169.9874" x="26" y="313.1972">setElementId(String): void</text><ellipse cx="17" cy="328.3331" fill="#84BE84" rx="3" ry="3" style="stroke:#038048;stroke-width:1.0;"/><text fill="#000000" font-family="sans-serif" font-size="14" lengthAdjust="spacing" textLength="587.2139" x="26" y="332.2651">withCreatedDate(Date): ApplicationActionEventPageElementPeriodSummaryEmbeddedId</text><ellipse cx="17" cy="347.401" fill="#84BE84" rx="3" ry="3" style="stroke:#038048;stroke-width:1.0;"/><text fill="#000000" font-family="sans-serif" font-size="14" lengthAdjust="spacing" textLength="545.452" x="26" y="351.333">withPage(String): ApplicationActionEventPageElementPeriodSummaryEmbeddedId</text><ellipse cx="17" cy="366.4689" fill="#84BE84" rx="3" ry="3" style="stroke:#038048;stroke-width:1.0;"/><text fill="#000000" font-family="sans-serif" font-size="14" lengthAdjust="spacing" textLength="579.9619" x="26" y="370.4009">withElementId(String): ApplicationActionEventPageElementPeriodSummaryEmbeddedId</text></g></a><!--class com.hack23.cia.model.common.api.ModelObject--><g id="elem_com.hack23.cia.model.common.api.ModelObject"><rect codeLine="28" fill="#F1F1F1" height="42.6879" id="com.hack23.cia.model.common.api.ModelObject" rx="2.5" ry="2.5" style="stroke:#181818;stroke-width:0.5;" width="189.3398" x="218" y="12"/><ellipse cx="233" cy="33.344" fill="#B4A7E5" rx="11" ry="11" style="stroke:#181818;stroke-width:1.0;"/><path d="M228.9219,29.1096 L228.9219,26.9533 L236.3125,26.9533 L236.3125,29.1096 L233.8438,29.1096 L233.8438,37.1877 L236.3125,37.1877 L236.3125,39.344 L228.9219,39.344 L228.9219,37.1877 L231.3906,37.1877 L231.3906,29.1096 L228.9219,29.1096 Z " fill="#000000"/><text fill="#000000" font-family="sans-serif" font-size="14" font-style="italic" lengthAdjust="spacing" textLength="78.1477" x="286.596" y="31.9659">ModelObject</text><text fill="#000000" font-family="sans-serif" font-size="10" font-style="italic" lengthAdjust="spacing" textLength="157.3398" x="247" y="46.7579">com.hack23.cia.model.common.api</text></g><polygon fill="none" points="312.5,55.0986,306.5,73.0986,318.5,73.0986,312.5,55.0986" style="stroke:#181818;stroke-width:1.0;"/><path d="M312.5,73.0986 C312.5,82.7554 312.5,77.1744 312.5,90.9623 " fill="none" style="stroke:#181818;stroke-width:1.0;stroke-dasharray:7.0,7.0;"/><text fill="#888888" font-family="sans-serif" font-size="10" lengthAdjust="spacing" textLength="2.6" x="307.7" y="383.69">&#160;</text><a href="https://github.com/talsma-ict/umldoclet" target="_top" title="https://github.com/talsma-ict/umldoclet" xlink:actuate="onRequest" xlink:href="https://github.com/talsma-ict/umldoclet" xlink:show="new" xlink:title="https://github.com/talsma-ict/umldoclet" xlink:type="simple"><text fill="#888888" font-family="sans-serif" font-size="10" lengthAdjust="spacing" textLength="76.7199" x="270.64" y="397.31">UMLDoclet 2.2.1</text></a><!--SRC=[lLNVRzem47xlNt5h7zQgnOIqAWnLbH15MoUgLOC-KHwCVH0FnyviXufj_Tzd9vHVezh4fkN1IUvyttrtllC10Bo5jixcHamI1qw3IuI5XxikKCLXWWeDTSX1f7I25aOejPhOSYC2pLsY3UXnySUqCMWphRXG4_X8PnIipWr3ImuEe73LVq5_edODVJGFmXlD93euRf-iKOgZscKbZk8Bw5DfKmgtxJvPeAriOXAJ6dXiAHWgwo5pnT4Kj5ePPVxLBJLdC4DZXLRU9bhWX52PLeuAPI6ZnjaGqhsaoWMkDHByapeSjthTJMxHkuBR6RICeZc7p_fhlWptJMRen3EMTAvp1pP5HnKjTTQJLZJrwQ8CU-YTKkSpgRJ2Gfy8Ze1fvkOm5YYvtPPwi4HxSI5dabeBXrTMVCDcxUAwbMK-4TJvC5iih9qPAdVlZx0ZCGsVQ8JclJnDgPbtqX5oZloMFwe5H7JDT4eIogRnEM62abHpb4GeXpvGIUZA0U7KKIBIJ1w2FzGzxCY-T64msDUK92wLmo5yB_8NdYDcC1JZZL-Q4DQLAlDuJUWvumjx9SNImot_HNKwGTTUmHsVR06UsarzMFoUcHPy0oF44OotuUr2LSftMNPUkBrYljA_Wl4aNBA3uhxvtWJU9FzlC7T4z5V0psLh5QKxzaswrbvteQW_ZRuWSx_h62zCVQtJJBpU7QizP0rvqTb_RW1NFmZvh_rNKhooRYxnUdaQOwszjxNE2i-7UOQcAzIqhQM_vuuQkxKFuTQMGg4V56ogqDzgqNBdS-ckkkPluUjH3GQ9SvbjLgiJNmlvAEIeweg9KH7CLVDKyd9KR0sDuN0n1Dulfr6uqIkrk18t-hNBPdpUZ2v9rBYer-gDy_ffL6j6qQ2J6vrXjUSqcoPQfiEV]--></g></svg>