<svg xmlns="http://www.w3.org/2000/svg" xmlns:xlink="http://www.w3.org/1999/xlink" contentStyleType="text/css" height="331px" preserveAspectRatio="none" style="width:572px;height:331px;background:#FFFFFF;" version="1.1" viewBox="0 0 572 331" width="572px" zoomAndPan="magnify"><defs/><g><!--class com.hack23.cia.model.internal.application.data.impl.ApplicationActionEventPagePeriodSummaryEmbeddedId--><a href="ApplicationActionEventPagePeriodSummaryEmbeddedId.html" target="_top" title="ApplicationActionEventPagePeriodSummaryEmbeddedId.html" xlink:actuate="onRequest" xlink:href="ApplicationActionEventPagePeriodSummaryEmbeddedId.html" xlink:show="new" xlink:title="ApplicationActionEventPagePeriodSummaryEmbeddedId.html" xlink:type="simple"><g id="elem_com.hack23.cia.model.internal.application.data.impl.ApplicationActionEventPagePeriodSummaryEmbeddedId"><rect codeLine="13" fill="#F1F1F1" height="211.2312" id="com.hack23.cia.model.internal.application.data.impl.ApplicationActionEventPagePeriodSummaryEmbeddedId" rx="2.5" ry="2.5" style="stroke:#181818;stroke-width:0.5;" width="559.23" x="6" y="91"/><ellipse cx="93.8007" cy="112.344" fill="#ADD1B2" rx="11" ry="11" style="stroke:#181818;stroke-width:1.0;"/><path d="M96.7695,117.9846 Q96.1913,118.2815 95.5507,118.4221 Q94.9101,118.5783 94.207,118.5783 Q91.707,118.5783 90.3788,116.9377 Q89.0663,115.2815 89.0663,112.1565 Q89.0663,109.0315 90.3788,107.3752 Q91.707,105.719 94.207,105.719 Q94.9101,105.719 95.5507,105.8752 Q96.207,106.0315 96.7695,106.3283 L96.7695,109.0471 Q96.1445,108.469 95.5507,108.2033 Q94.957,107.9221 94.332,107.9221 Q92.9882,107.9221 92.3007,109.0002 Q91.6132,110.0627 91.6132,112.1565 Q91.6132,114.2502 92.3007,115.3283 Q92.9882,116.3908 94.332,116.3908 Q94.957,116.3908 95.5507,116.1252 Q96.1445,115.844 96.7695,115.2658 L96.7695,117.9846 Z " fill="#000000"/><text fill="#000000" font-family="sans-serif" font-size="14" lengthAdjust="spacing" textLength="375.1286" x="114.3007" y="110.9659">ApplicationActionEventPagePeriodSummaryEmbeddedId</text><text fill="#000000" font-family="sans-serif" font-size="10" lengthAdjust="spacing" textLength="245.1398" x="179.2951" y="125.7579">com.hack23.cia.model.internal.application.data.impl</text><line style="stroke:#181818;stroke-width:0.5;" x1="7" x2="564.23" y1="133.6879" y2="133.6879"/><polygon fill="none" points="17,143.7219,21,147.7219,17,151.7219,13,147.7219" style="stroke:#B38D22;stroke-width:1.0;"/><text fill="#000000" font-family="sans-serif" font-size="14" lengthAdjust="spacing" textLength="119.2515" x="26" y="152.6538">createdDate: Date</text><polygon fill="none" points="17,162.7898,21,166.7898,17,170.7898,13,166.7898" style="stroke:#B38D22;stroke-width:1.0;"/><text fill="#000000" font-family="sans-serif" font-size="14" lengthAdjust="spacing" textLength="79.7577" x="26" y="171.7218">page: String</text><line style="stroke:#181818;stroke-width:0.5;" x1="7" x2="564.23" y1="179.8237" y2="179.8237"/><ellipse cx="17" cy="194.8577" fill="#84BE84" rx="3" ry="3" style="stroke:#038048;stroke-width:1.0;"/><text fill="#000000" font-family="sans-serif" font-size="14" lengthAdjust="spacing" textLength="151.3394" x="26" y="198.7897">getCreatedDate(): Date</text><ellipse cx="17" cy="213.9256" fill="#84BE84" rx="3" ry="3" style="stroke:#038048;stroke-width:1.0;"/><text fill="#000000" font-family="sans-serif" font-size="14" lengthAdjust="spacing" textLength="177.2393" x="26" y="217.8576">setCreatedDate(Date): void</text><ellipse cx="17" cy="232.9935" fill="#84BE84" rx="3" ry="3" style="stroke:#038048;stroke-width:1.0;"/><text fill="#000000" font-family="sans-serif" font-size="14" lengthAdjust="spacing" textLength="109.5776" x="26" y="236.9255">getPage(): String</text><ellipse cx="17" cy="252.0614" fill="#84BE84" rx="3" ry="3" style="stroke:#038048;stroke-width:1.0;"/><text fill="#000000" font-family="sans-serif" font-size="14" lengthAdjust="spacing" textLength="135.4775" x="26" y="255.9934">setPage(String): void</text><ellipse cx="17" cy="271.1294" fill="#84BE84" rx="3" ry="3" style="stroke:#038048;stroke-width:1.0;"/><text fill="#000000" font-family="sans-serif" font-size="14" lengthAdjust="spacing" textLength="533.23" x="26" y="275.0613">withCreatedDate(Date): ApplicationActionEventPagePeriodSummaryEmbeddedId</text><ellipse cx="17" cy="290.1973" fill="#84BE84" rx="3" ry="3" style="stroke:#038048;stroke-width:1.0;"/><text fill="#000000" font-family="sans-serif" font-size="14" lengthAdjust="spacing" textLength="491.4682" x="26" y="294.1293">withPage(String): ApplicationActionEventPagePeriodSummaryEmbeddedId</text></g></a><!--class com.hack23.cia.model.common.api.ModelObject--><g id="elem_com.hack23.cia.model.common.api.ModelObject"><rect codeLine="24" fill="#F1F1F1" height="42.6879" id="com.hack23.cia.model.common.api.ModelObject" rx="2.5" ry="2.5" style="stroke:#181818;stroke-width:0.5;" width="189.3398" x="191" y="12"/><ellipse cx="206" cy="33.344" fill="#B4A7E5" rx="11" ry="11" style="stroke:#181818;stroke-width:1.0;"/><path d="M201.9219,29.1096 L201.9219,26.9533 L209.3125,26.9533 L209.3125,29.1096 L206.8438,29.1096 L206.8438,37.1877 L209.3125,37.1877 L209.3125,39.344 L201.9219,39.344 L201.9219,37.1877 L204.3906,37.1877 L204.3906,29.1096 L201.9219,29.1096 Z " fill="#000000"/><text fill="#000000" font-family="sans-serif" font-size="14" font-style="italic" lengthAdjust="spacing" textLength="78.1477" x="259.596" y="31.9659">ModelObject</text><text fill="#000000" font-family="sans-serif" font-size="10" font-style="italic" lengthAdjust="spacing" textLength="157.3398" x="220" y="46.7579">com.hack23.cia.model.common.api</text></g><polygon fill="none" points="285.5,55.2183,279.5,73.2183,291.5,73.2183,285.5,55.2183" style="stroke:#181818;stroke-width:1.0;"/><path d="M285.5,73.2183 C285.5,82.9851 285.5,77.4416 285.5,90.8868 " fill="none" style="stroke:#181818;stroke-width:1.0;stroke-dasharray:7.0,7.0;"/><text fill="#888888" font-family="sans-serif" font-size="10" lengthAdjust="spacing" textLength="2.6" x="280.7" y="306.69">&#160;</text><a href="https://github.com/talsma-ict/umldoclet" target="_top" title="https://github.com/talsma-ict/umldoclet" xlink:actuate="onRequest" xlink:href="https://github.com/talsma-ict/umldoclet" xlink:show="new" xlink:title="https://github.com/talsma-ict/umldoclet" xlink:type="simple"><text fill="#888888" font-family="sans-serif" font-size="10" lengthAdjust="spacing" textLength="76.7199" x="243.64" y="320.31">UMLDoclet 2.2.1</text></a><!--SRC=[lLHTJzim57tdLzp1mq1GDmceG8MGge8sKD7GMfvA7rpxDl7gs9dj57KR_trsqlLhJ1iyB0-ESg_FkSVN9nS0u3rqTJ4t8iqSE0qk4nOUxdf05OSK5Hhga8F8QOeMnYYrIcsz4O6MBjC6zAJwOjeOj8LMNAWKRkcCWjMbOMZ9pWvKfGQ_s9-eNMCVpqFmIZE93lQx1skIaYXkDP8eEO41bJQdSDCTa0NR2fEGXCJWkQLWgAodB1L7Kydg59JvLw_E7C4CZHLQUKoqu0b7PLevAfI5WXfdmv7k9LKkQ8r9g4zEOR_JxsrgYyuhRKVGCOgM73xhh-NokEyAGrElMDAvBXtO71rLjCvPBrhHtBUBCkoZBqgTxwJI2gjy9ZW2veMRmqIWv7OxwiaoxSDLd4bgBUnUMF4Ds_79PQSeV2EeyyViiB1Upr2vUt-5zsY4vlqopwcPN-TZv1pv3NzK2snqoNHECigcoJ5XWf9SSvH4A8V-X9BG5JFXr54YyaBkWh_DD-38gtN2SFXg3CbSBaSZ-5wrAZnxp63mtPLVsX3MLQhmH6teE-Czl8mUfkYwAyp-mHRgq6xcm-BtpBJW6nn1PG1lqzj5gex_XdmIBdk1_jMTs6JShFWsikVQVzKrJxoJrpnu5mpmQVm5cVkRktmmzxwWXVYparPxo1hpmlx_3e2B7uJy7w_MsYwicqkyNBP-ehKlisR6y7oS5sXwGasxMlefi7VsSlOXp3Gf5FenogOA_JyVBNS-r-MQQ_KMjHxLS9WvLzXsivdwYo_7eJbDLytJXc2kMUQIruDqQwIEHeiH-M4vgyEyQyH98paRnArsSjoEMYG-FqwYyzPfV1Z5xIWQNfT65zZiEysccPRvw2S0]--></g></svg>