<svg xmlns="http://www.w3.org/2000/svg" xmlns:xlink="http://www.w3.org/1999/xlink" contentStyleType="text/css" data-diagram-type="CLASS" height="381px" preserveAspectRatio="none" style="width:425px;height:381px;background:#FFFFFF;" version="1.1" viewBox="0 0 425 381" width="425px" zoomAndPan="magnify"><defs/><g><!--cluster com.hack23.cia.web.impl.ui.application.views.contracts--><g class="cluster" data-entity="com.hack23.cia.web.impl.ui.application.views.contracts" data-source-line="10" data-uid="ent0002" id="cluster_com.hack23.cia.web.impl.ui.application.views.contracts"><path d="M16.5,155 L406.4464,155 A3.75,3.75 0 0 1 408.9464,157.5 L415.9464,180.0679 L415.5,180.0679 A2.5,2.5 0 0 1 418,182.5679 L418,341.5 A2.5,2.5 0 0 1 415.5,344 L16.5,344 A2.5,2.5 0 0 1 14,341.5 L14,157.5 A2.5,2.5 0 0 1 16.5,155" fill="none" style="stroke:#000000;stroke-width:1.5;"/><line style="stroke:#000000;stroke-width:1.5;" x1="14" x2="415.9464" y1="180.0679" y2="180.0679"/><text fill="#000000" font-family="sans-serif" font-size="14" font-weight="bold" lengthAdjust="spacing" textLength="388.9464" x="18" y="171.9659">com.hack23.cia.web.impl.ui.application.views.contracts</text></g><!--cluster com.vaadin.navigator--><g class="cluster" data-entity="com.vaadin.navigator" data-source-line="22" data-uid="ent0006" id="cluster_com.vaadin.navigator"><path d="M38.5,4 L192.6034,4 A3.75,3.75 0 0 1 195.1034,6.5 L202.1034,29.0679 L351.5,29.0679 A2.5,2.5 0 0 1 354,31.5679 L354,144.5 A2.5,2.5 0 0 1 351.5,147 L38.5,147 A2.5,2.5 0 0 1 36,144.5 L36,6.5 A2.5,2.5 0 0 1 38.5,4" fill="none" style="stroke:#000000;stroke-width:1.5;"/><line style="stroke:#000000;stroke-width:1.5;" x1="36" x2="202.1034" y1="29.0679" y2="29.0679"/><text fill="#000000" font-family="sans-serif" font-size="14" font-weight="bold" lengthAdjust="spacing" textLength="153.1034" x="40" y="20.9659">com.vaadin.navigator</text></g><!--class IAdminView--><g class="entity" data-entity="IAdminView" data-source-line="12" data-uid="ent0003" id="entity_IAdminView"><a href="IAdminView.html" target="_top" title="IAdminView.html" xlink:actuate="onRequest" xlink:href="IAdminView.html" xlink:show="new" xlink:title="IAdminView.html" xlink:type="simple"><rect fill="#F1F1F1" height="48" rx="2.5" ry="2.5" style="stroke:#181818;stroke-width:0.5;" width="104.9257" x="71.5" y="288"/><ellipse cx="86.5" cy="304" fill="#B4A7E5" rx="11" ry="11" style="stroke:#181818;stroke-width:1;"/><path d="M82.4219,299.7656 L82.4219,297.6094 L89.8125,297.6094 L89.8125,299.7656 L87.3438,299.7656 L87.3438,307.8438 L89.8125,307.8438 L89.8125,310 L82.4219,310 L82.4219,307.8438 L84.8906,307.8438 L84.8906,299.7656 L82.4219,299.7656 Z " fill="#000000"/><text fill="#000000" font-family="sans-serif" font-size="14" font-style="italic" lengthAdjust="spacing" textLength="72.9257" x="100.5" y="309.432">IAdminView</text><line style="stroke:#181818;stroke-width:0.5;" x1="72.5" x2="175.4257" y1="320" y2="320"/><line style="stroke:#181818;stroke-width:0.5;" x1="72.5" x2="175.4257" y1="328" y2="328"/></a></g><!--class IUserView--><g class="entity" data-entity="IUserView" data-source-line="14" data-uid="ent0004" id="entity_IUserView"><a href="IUserView.html" target="_top" title="IUserView.html" xlink:actuate="onRequest" xlink:href="IUserView.html" xlink:show="new" xlink:title="IUserView.html" xlink:type="simple"><rect fill="#F1F1F1" height="48" rx="2.5" ry="2.5" style="stroke:#181818;stroke-width:0.5;" width="93.0678" x="194.5" y="288"/><ellipse cx="209.5" cy="304" fill="#B4A7E5" rx="11" ry="11" style="stroke:#181818;stroke-width:1;"/><path d="M205.4219,299.7656 L205.4219,297.6094 L212.8125,297.6094 L212.8125,299.7656 L210.3438,299.7656 L210.3438,307.8438 L212.8125,307.8438 L212.8125,310 L205.4219,310 L205.4219,307.8438 L207.8906,307.8438 L207.8906,299.7656 L205.4219,299.7656 Z " fill="#000000"/><text fill="#000000" font-family="sans-serif" font-size="14" font-style="italic" lengthAdjust="spacing" textLength="61.0678" x="223.5" y="309.432">IUserView</text><line style="stroke:#181818;stroke-width:0.5;" x1="195.5" x2="286.5678" y1="320" y2="320"/><line style="stroke:#181818;stroke-width:0.5;" x1="195.5" x2="286.5678" y1="328" y2="328"/></a></g><!--class IView--><g class="entity" data-entity="IView" data-source-line="16" data-uid="ent0005" id="entity_IView"><a href="IView.html" target="_top" title="IView.html" xlink:actuate="onRequest" xlink:href="IView.html" xlink:show="new" xlink:title="IView.html" xlink:type="simple"><rect fill="#F1F1F1" height="67.0679" rx="2.5" ry="2.5" style="stroke:#181818;stroke-width:0.5;" width="163.7315" x="113" y="185"/><ellipse cx="174.1238" cy="201" fill="#B4A7E5" rx="11" ry="11" style="stroke:#181818;stroke-width:1;"/><path d="M170.0457,196.7656 L170.0457,194.6094 L177.4363,194.6094 L177.4363,196.7656 L174.9676,196.7656 L174.9676,204.8438 L177.4363,204.8438 L177.4363,207 L170.0457,207 L170.0457,204.8438 L172.5144,204.8438 L172.5144,196.7656 L170.0457,196.7656 Z " fill="#000000"/><text fill="#000000" font-family="sans-serif" font-size="14" font-style="italic" lengthAdjust="spacing" textLength="32.9839" x="194.6238" y="206.432">IView</text><line style="stroke:#181818;stroke-width:0.5;" x1="114" x2="275.7315" y1="217" y2="217"/><line style="stroke:#181818;stroke-width:0.5;" x1="114" x2="275.7315" y1="225" y2="225"/><ellipse cx="124" cy="240.034" fill="#84BE84" rx="3" ry="3" style="stroke:#038048;stroke-width:1;"/><text fill="#000000" font-family="sans-serif" font-size="14" font-style="italic" lengthAdjust="spacing" textLength="137.7315" x="133" y="243.9659">getViewName(): String</text></a></g><!--class View--><g class="entity" data-entity="View" data-source-line="23" data-uid="ent0007" id="entity_View"><rect fill="#F1F1F1" height="105.2038" rx="2.5" ry="2.5" style="stroke:#181818;stroke-width:0.5;" width="300.6229" x="44.5" y="34"/><ellipse cx="176.3375" cy="50" fill="#B4A7E5" rx="11" ry="11" style="stroke:#181818;stroke-width:1;"/><path d="M172.2594,45.7656 L172.2594,43.6094 L179.65,43.6094 L179.65,45.7656 L177.1813,45.7656 L177.1813,53.8438 L179.65,53.8438 L179.65,56 L172.2594,56 L172.2594,53.8438 L174.7281,53.8438 L174.7281,45.7656 L172.2594,45.7656 Z " fill="#000000"/><text fill="#000000" font-family="sans-serif" font-size="14" font-style="italic" lengthAdjust="spacing" textLength="28.4479" x="196.8375" y="55.432">View</text><line style="stroke:#181818;stroke-width:0.5;" x1="45.5" x2="344.1229" y1="66" y2="66"/><line style="stroke:#181818;stroke-width:0.5;" x1="45.5" x2="344.1229" y1="74" y2="74"/><ellipse cx="55.5" cy="89.034" fill="#84BE84" rx="3" ry="3" style="stroke:#038048;stroke-width:1;"/><text fill="#000000" font-family="sans-serif" font-size="14" lengthAdjust="spacing" textLength="196.7972" x="64.5" y="92.9659">enter(ViewChangeEvent): void</text><ellipse cx="55.5" cy="108.1019" fill="#84BE84" rx="3" ry="3" style="stroke:#038048;stroke-width:1;"/><text fill="#000000" font-family="sans-serif" font-size="14" lengthAdjust="spacing" textLength="274.6229" x="64.5" y="112.0339">beforeLeave(ViewBeforeLeaveEvent): void</text><ellipse cx="55.5" cy="127.1698" fill="#84BE84" rx="3" ry="3" style="stroke:#038048;stroke-width:1;"/><text fill="#000000" font-family="sans-serif" font-size="14" lengthAdjust="spacing" textLength="223.7471" x="64.5" y="131.1018">getViewComponent(): Component</text></g><g class="link" data-entity-1="IView" data-entity-2="IAdminView" data-uid="lnk8" id="link_IView_IAdminView"><polygon fill="none" points="169.7681,252.0171,153.9931,262.5597,163.4737,269.9163,169.7681,252.0171" style="stroke:#181818;stroke-width:1;"/><path d="M158.7334,266.238 C149.566,278.0523 150.4338,276.9339 142.0153,287.7832" fill="none" style="stroke:#181818;stroke-width:1;"/></g><g class="link" data-entity-1="IView" data-entity-2="IUserView" data-uid="lnk9" id="link_IView_IUserView"><polygon fill="none" points="211.3474,252.0171,214.0717,270.7942,224.7931,265.4042,211.3474,252.0171" style="stroke:#181818;stroke-width:1;"/><path d="M219.4324,268.0992 C225.3718,279.9135 223.8739,276.9339 229.3281,287.7832" fill="none" style="stroke:#181818;stroke-width:1;"/></g><g class="link" data-entity-1="View" data-entity-2="IView" data-uid="lnk10" id="link_View_IView"><polygon fill="none" points="195,139.253,189,157.253,201,157.253,195,139.253" style="stroke:#181818;stroke-width:1;"/><path d="M195,157.253 C195,172.6887 195,171.1654 195,184.9982" fill="none" style="stroke:#181818;stroke-width:1;"/></g><g class="footer" data-source-line="40"><text fill="#888888" font-family="sans-serif" font-size="10" lengthAdjust="spacing" textLength="2.6" x="203.2" y="356.69">&#160;</text><a href="https://github.com/talsma-ict/umldoclet" target="_top" title="https://github.com/talsma-ict/umldoclet" xlink:actuate="onRequest" xlink:href="https://github.com/talsma-ict/umldoclet" xlink:show="new" xlink:title="https://github.com/talsma-ict/umldoclet" xlink:type="simple"><text fill="#888888" font-family="sans-serif" font-size="10" lengthAdjust="spacing" textLength="76.7199" x="166.14" y="370.31">UMLDoclet 2.2.4</text></a></g><!--SRC=[nLJ1RjD04BttAmPn85MRZUEcfRKgf10gA0e8qPHBw65YJ-nLx5spktOLbVuxOpjntL0uL4Zu4g_dpRptPYS30F0A9ZfV6nad3fm6bqWBrv-cW2g2c1GPT1I1p30c2mjAjOfj0oJ0mYNQW5xMfr0RGpRNAf8gXezO8bXTc92isDk3ccgshNwBjbDziQu-ljDXIWvwa_sE9DyRdlHzpp-16QOsGxYSpCIcsaEEBtmn0gwTof2KvPA5YiZKiiOvXlmpRIA7K9AnKYlEyJPrAgkXLWwbif2ZSRQoz2L5vIgjGy7ynsBeGMzyDNqipZkhnHt2s2Wi8lYgVnIjtnUvmPWbfxZMXGERaKE5TSYoQ4lCXOuR60HD0YjTSPzPJ2OIVlUFH2XHtD92o2nFHI45vZbxHCSEH2dfrefAkS6GHTyrLQf7AaTcYI71vJZAfFh6K9ZF7muYSLbwS_DanhKbiqtOllyDlyLsSAm5EiyTBcmjyXuEOd8Ly3DcrDiFuCeP7fSMVTymtF_Ua1AH1qieB6LST-tk2IsrbCVS1rH5UrLaag2AwQBaBynSQXazHYvegGrD2KkgyMyVpdzEslYPw8n7dq6LgVRGyTMnzRpx3OAcq-S_-_tdbsWduByhsOvMAsJtXeFW7x3K33N5kNNhbDwqLxBKcWTZPre-h7CoKwbM4vtoZBqyVJfwNQsNL2hYZHQk55aBtivTdmywV1kkxse-JvpBRJ0OnD8bnOArPWDNhxQ-3DsWoDAesMaxsut_UyssUj-kpMhpzBrHVpYS3KV1y7KmEXRUyUdPwCWVUGUU7tZU_A8mEgV1bTFXAj5fTlCB]--></g></svg>