<?xml version="1.0" encoding="UTF-8" standalone="no"?><svg xmlns="http://www.w3.org/2000/svg" xmlns:xlink="http://www.w3.org/1999/xlink" contentScriptType="application/ecmascript" contentStyleType="text/css" height="273px" preserveAspectRatio="none" style="width:758px;height:273px;" version="1.1" viewBox="0 0 758 273" width="758px" zoomAndPan="magnify"><defs><filter height="300%" id="f17lo6ahyps7fu" width="300%" x="-1" y="-1"><feGaussianBlur result="blurOut" stdDeviation="2.0"/><feColorMatrix in="blurOut" result="blurOut2" type="matrix" values="0 0 0 0 0 0 0 0 0 0 0 0 0 0 0 0 0 0 .4 0"/><feOffset dx="4.0" dy="4.0" in="blurOut2" result="blurOut3"/><feBlend in="SourceGraphic" in2="blurOut3" mode="normal"/></filter></defs><g><!--MD5=[70525f3fb5c46ca1f91904a06cd9b413]
cluster com.hack23.cia.web.impl.ui.application.views.user.country.pagemode--><polygon fill="#FFFFFF" filter="url(#f17lo6ahyps7fu)" points="14,124,573,124,580,146.2969,736,146.2969,736,233,14,233,14,124" style="stroke: #000000; stroke-width: 1.5;"/><line style="stroke: #000000; stroke-width: 1.5;" x1="14" x2="580" y1="146.2969" y2="146.2969"/><text fill="#000000" font-family="sans-serif" font-size="14" font-weight="bold" lengthAdjust="spacingAndGlyphs" textLength="553" x="18" y="138.9951">com.hack23.cia.web.impl.ui.application.views.user.country.pagemode</text><!--MD5=[5aa94c924e9848adf3a3e7e8e30b1801]
cluster com.hack23.cia.web.impl.ui.application.views.common.pagemode--><polygon fill="#FFFFFF" filter="url(#f17lo6ahyps7fu)" points="116,16,640,16,647,38.2969,650,38.2969,650,99,116,99,116,16" style="stroke: #000000; stroke-width: 1.5;"/><line style="stroke: #000000; stroke-width: 1.5;" x1="116" x2="647" y1="38.2969" y2="38.2969"/><text fill="#000000" font-family="sans-serif" font-size="14" font-weight="bold" lengthAdjust="spacingAndGlyphs" textLength="518" x="120" y="30.9951">com.hack23.cia.web.impl.ui.application.views.common.pagemode</text><!--MD5=[c06d4a728672968b81e94ae050cba60b]
class com.hack23.cia.web.impl.ui.application.views.user.country.pagemode.WorldIndicatorsPageModContentFactoryImpl--><a href="WorldIndicatorsPageModContentFactoryImpl.html" target="_top" title="WorldIndicatorsPageModContentFactoryImpl.html" xlink:actuate="onRequest" xlink:href="WorldIndicatorsPageModContentFactoryImpl.html" xlink:show="new" xlink:title="WorldIndicatorsPageModContentFactoryImpl.html" xlink:type="simple"><rect fill="#FEFECE" filter="url(#f17lo6ahyps7fu)" height="73.6094" id="com.hack23.cia.web.impl.ui.application.views.user.country.pagemode.WorldIndicatorsPageModContentFactoryImpl" style="stroke: #A80036; stroke-width: 1.5;" width="308" x="420" y="151"/><ellipse cx="435" cy="167" fill="#ADD1B2" rx="11" ry="11" style="stroke: #A80036; stroke-width: 1.0;"/><path d="M437.9688,172.6406 Q437.3906,172.9375 436.75,173.0781 Q436.1094,173.2344 435.4063,173.2344 Q432.9063,173.2344 431.5781,171.5938 Q430.2656,169.9375 430.2656,166.8125 Q430.2656,163.6875 431.5781,162.0313 Q432.9063,160.375 435.4063,160.375 Q436.1094,160.375 436.75,160.5313 Q437.4063,160.6875 437.9688,160.9844 L437.9688,163.7031 Q437.3438,163.125 436.75,162.8594 Q436.1563,162.5781 435.5313,162.5781 Q434.1875,162.5781 433.5,163.6563 Q432.8125,164.7188 432.8125,166.8125 Q432.8125,168.9063 433.5,169.9844 Q434.1875,171.0469 435.5313,171.0469 Q436.1563,171.0469 436.75,170.7813 Q437.3438,170.5 437.9688,169.9219 L437.9688,172.6406 Z "/><text fill="#000000" font-family="sans-serif" font-size="12" lengthAdjust="spacingAndGlyphs" textLength="276" x="449" y="171.1543">WorldIndicatorsPageModContentFactoryImpl</text><line style="stroke: #A80036; stroke-width: 1.5;" x1="421" x2="727" y1="183" y2="183"/><line style="stroke: #A80036; stroke-width: 1.5;" x1="421" x2="727" y1="191" y2="191"/><ellipse cx="431" cy="202" fill="#84BE84" rx="3" ry="3" style="stroke: #038048; stroke-width: 1.0;"/><text fill="#000000" font-family="sans-serif" font-size="11" lengthAdjust="spacingAndGlyphs" textLength="264" x="440" y="205.2104">createContent(String, MenuBar, Panel): Layout</text><ellipse cx="431" cy="214.8047" fill="#84BE84" rx="3" ry="3" style="stroke: #038048; stroke-width: 1.0;"/><text fill="#000000" font-family="sans-serif" font-size="11" lengthAdjust="spacingAndGlyphs" textLength="186" x="440" y="218.0151">matches(String, String): boolean</text></a><!--MD5=[a72ac5dd1c60bad4af53a96e689f7ce2]
class com.hack23.cia.web.impl.ui.application.views.user.country.pagemode.CountryRankingOverviewPageModContentFactoryImpl--><a href="CountryRankingOverviewPageModContentFactoryImpl.html" target="_top" title="CountryRankingOverviewPageModContentFactoryImpl.html" xlink:actuate="onRequest" xlink:href="CountryRankingOverviewPageModContentFactoryImpl.html" xlink:show="new" xlink:title="CountryRankingOverviewPageModContentFactoryImpl.html" xlink:type="simple"><rect fill="#FEFECE" filter="url(#f17lo6ahyps7fu)" height="73.6094" id="com.hack23.cia.web.impl.ui.application.views.user.country.pagemode.CountryRankingOverviewPageModContentFactoryImpl" style="stroke: #A80036; stroke-width: 1.5;" width="363" x="21.5" y="151"/><ellipse cx="36.5" cy="167" fill="#ADD1B2" rx="11" ry="11" style="stroke: #A80036; stroke-width: 1.0;"/><path d="M39.4688,172.6406 Q38.8906,172.9375 38.25,173.0781 Q37.6094,173.2344 36.9063,173.2344 Q34.4063,173.2344 33.0781,171.5938 Q31.7656,169.9375 31.7656,166.8125 Q31.7656,163.6875 33.0781,162.0313 Q34.4063,160.375 36.9063,160.375 Q37.6094,160.375 38.25,160.5313 Q38.9063,160.6875 39.4688,160.9844 L39.4688,163.7031 Q38.8438,163.125 38.25,162.8594 Q37.6563,162.5781 37.0313,162.5781 Q35.6875,162.5781 35,163.6563 Q34.3125,164.7188 34.3125,166.8125 Q34.3125,168.9063 35,169.9844 Q35.6875,171.0469 37.0313,171.0469 Q37.6563,171.0469 38.25,170.7813 Q38.8438,170.5 39.4688,169.9219 L39.4688,172.6406 Z "/><text fill="#000000" font-family="sans-serif" font-size="12" lengthAdjust="spacingAndGlyphs" textLength="331" x="50.5" y="171.1543">CountryRankingOverviewPageModContentFactoryImpl</text><line style="stroke: #A80036; stroke-width: 1.5;" x1="22.5" x2="383.5" y1="183" y2="183"/><line style="stroke: #A80036; stroke-width: 1.5;" x1="22.5" x2="383.5" y1="191" y2="191"/><ellipse cx="32.5" cy="202" fill="#84BE84" rx="3" ry="3" style="stroke: #038048; stroke-width: 1.0;"/><text fill="#000000" font-family="sans-serif" font-size="11" lengthAdjust="spacingAndGlyphs" textLength="264" x="41.5" y="205.2104">createContent(String, MenuBar, Panel): Layout</text><ellipse cx="32.5" cy="214.8047" fill="#84BE84" rx="3" ry="3" style="stroke: #038048; stroke-width: 1.0;"/><text fill="#000000" font-family="sans-serif" font-size="11" lengthAdjust="spacingAndGlyphs" textLength="186" x="41.5" y="218.0151">matches(String, String): boolean</text></a><!--MD5=[db981ccff2a6c8db469b3bc4ac975bd4]
class com.hack23.cia.web.impl.ui.application.views.common.pagemode.AbstractBasicPageModContentFactoryImpl--><a href="../../../common/pagemode/AbstractBasicPageModContentFactoryImpl.html" target="_top" title="../../../common/pagemode/AbstractBasicPageModContentFactoryImpl.html" xlink:actuate="onRequest" xlink:href="../../../common/pagemode/AbstractBasicPageModContentFactoryImpl.html" xlink:show="new" xlink:title="../../../common/pagemode/AbstractBasicPageModContentFactoryImpl.html" xlink:type="simple"><rect fill="#FEFECE" filter="url(#f17lo6ahyps7fu)" height="48" id="com.hack23.cia.web.impl.ui.application.views.common.pagemode.AbstractBasicPageModContentFactoryImpl" style="stroke: #A80036; stroke-width: 1.5;" width="296" x="140" y="43"/><ellipse cx="155" cy="59" fill="#A9DCDF" rx="11" ry="11" style="stroke: #A80036; stroke-width: 1.0;"/><path d="M155.1094,54.3438 L153.9531,59.4219 L156.2813,59.4219 L155.1094,54.3438 Z M153.625,52.1094 L156.6094,52.1094 L159.9688,64.5 L157.5156,64.5 L156.75,61.4375 L153.4688,61.4375 L152.7188,64.5 L150.2813,64.5 L153.625,52.1094 Z "/><text fill="#000000" font-family="sans-serif" font-size="12" font-style="italic" lengthAdjust="spacingAndGlyphs" textLength="264" x="169" y="63.1543">AbstractBasicPageModContentFactoryImpl</text><line style="stroke: #A80036; stroke-width: 1.5;" x1="141" x2="435" y1="75" y2="75"/><line style="stroke: #A80036; stroke-width: 1.5;" x1="141" x2="435" y1="83" y2="83"/></a><!--MD5=[998d174331e19c15d0583eba56463faf]
reverse link com.hack23.cia.web.impl.ui.application.views.common.pagemode.AbstractBasicPageModContentFactoryImpl to com.hack23.cia.web.impl.ui.application.views.user.country.pagemode.WorldIndicatorsPageModContentFactoryImpl--><path d="M363.4674,98.9285 C401.1737,114.8812 447.0116,134.2741 486.2774,150.8866 " fill="none" id="com.hack23.cia.web.impl.ui.application.views.common.pagemode.AbstractBasicPageModContentFactoryImpl&lt;-com.hack23.cia.web.impl.ui.application.views.user.country.pagemode.WorldIndicatorsPageModContentFactoryImpl" style="stroke: #A80036; stroke-width: 1.0;"/><polygon fill="none" points="360.5382,105.29,344.8463,91.0504,365.9932,92.3965,360.5382,105.29" style="stroke: #A80036; stroke-width: 1.0;"/><!--MD5=[2fec8a528492dd63fe26a0d5944241f7]
reverse link com.hack23.cia.web.impl.ui.application.views.common.pagemode.AbstractBasicPageModContentFactoryImpl to com.hack23.cia.web.impl.ui.application.views.user.country.pagemode.CountryRankingOverviewPageModContentFactoryImpl--><path d="M259.3446,107.7919 C249.5287,121.765 238.6067,137.3128 229.0117,150.9716 " fill="none" id="com.hack23.cia.web.impl.ui.application.views.common.pagemode.AbstractBasicPageModContentFactoryImpl&lt;-com.hack23.cia.web.impl.ui.application.views.user.country.pagemode.CountryRankingOverviewPageModContentFactoryImpl" style="stroke: #A80036; stroke-width: 1.0;"/><polygon fill="none" points="253.7788,103.5371,271.0033,91.1953,265.2347,111.5847,253.7788,103.5371" style="stroke: #A80036; stroke-width: 1.0;"/><text fill="#888888" font-family="sans-serif" font-size="10" lengthAdjust="spacingAndGlyphs" textLength="186" x="288" y="260.2822">UMLDoclet 2.0.7, PlantUML 1.2019.12</text><!--MD5=[eb68b3c95392ad6fc5965f20ee8b07cc]
@startuml
    namespace com.hack23.cia.web.impl.ui.application.views.user.country.pagemode {

        class WorldIndicatorsPageModContentFactoryImpl [[WorldIndicatorsPageModContentFactoryImpl.html]] {
            +createContent(String, MenuBar, Panel): Layout
            +matches(String, String): boolean
        }

        class CountryRankingOverviewPageModContentFactoryImpl [[CountryRankingOverviewPageModContentFactoryImpl.html]] {
            +createContent(String, MenuBar, Panel): Layout
            +matches(String, String): boolean
        }

        com.hack23.cia.web.impl.ui.application.views.common.pagemode.AbstractBasicPageModContentFactoryImpl <|- - WorldIndicatorsPageModContentFactoryImpl
        com.hack23.cia.web.impl.ui.application.views.common.pagemode.AbstractBasicPageModContentFactoryImpl <|- - CountryRankingOverviewPageModContentFactoryImpl
    }

    namespace com.hack23.cia.web.impl.ui.application.views.common.pagemode {
        abstract class AbstractBasicPageModContentFactoryImpl [[../../../common/pagemode/AbstractBasicPageModContentFactoryImpl.html]]
    }

    center footer UMLDoclet 2.0.7, PlantUML 1.2019.12
@enduml

PlantUML version 1.2019.12(Sun Nov 03 11:24:54 CET 2019)
(APACHE source distribution)
Java Runtime: OpenJDK Runtime Environment
JVM: OpenJDK 64-Bit Server VM
Java Version: 11.0.6+10-post-Ubuntu-1ubuntu119.10.1
Operating System: Linux
Default Encoding: UTF-8
Language: en
Country: US
--></g></svg>