<svg xmlns="http://www.w3.org/2000/svg" xmlns:xlink="http://www.w3.org/1999/xlink" contentStyleType="text/css" data-diagram-type="CLASS" height="259px" preserveAspectRatio="none" style="width:497px;height:259px;background:#FFFFFF;" version="1.1" viewBox="0 0 497 259" width="497px" zoomAndPan="magnify"><defs/><g><!--cluster com.hack23.cia.web.impl.ui.application.views.user.documents--><g class="cluster" data-entity="com.hack23.cia.web.impl.ui.application.views.user.documents" data-source-line="10" data-uid="ent0002" id="cluster_com.hack23.cia.web.impl.ui.application.views.user.documents"><path d="M16.5,98 L453.2204,98 A3.75,3.75 0 0 1 455.7204,100.5 L462.7204,123.0679 L462.5,123.0679 A2.5,2.5 0 0 1 465,125.5679 L465,219.5 A2.5,2.5 0 0 1 462.5,222 L16.5,222 A2.5,2.5 0 0 1 14,219.5 L14,100.5 A2.5,2.5 0 0 1 16.5,98" fill="none" style="stroke:#000000;stroke-width:1.5;"/><line style="stroke:#000000;stroke-width:1.5;" x1="14" x2="462.7204" y1="123.0679" y2="123.0679"/><text fill="#000000" font-family="sans-serif" font-size="14" font-weight="bold" lengthAdjust="spacing" textLength="435.7204" x="18" y="114.9659">com.hack23.cia.web.impl.ui.application.views.user.documents</text></g><!--cluster com.hack23.cia.web.impl.ui.application.views.common.abstracts--><g class="cluster" data-entity="com.hack23.cia.web.impl.ui.application.views.common.abstracts" data-source-line="19" data-uid="ent0004" id="cluster_com.hack23.cia.web.impl.ui.application.views.common.abstracts"><path d="M23.5,4 L477.8742,4 A3.75,3.75 0 0 1 480.3742,6.5 L487.3742,29.0679 L487.5,29.0679 A2.5,2.5 0 0 1 490,31.5679 L490,87.5 A2.5,2.5 0 0 1 487.5,90 L23.5,90 A2.5,2.5 0 0 1 21,87.5 L21,6.5 A2.5,2.5 0 0 1 23.5,4" fill="none" style="stroke:#000000;stroke-width:1.5;"/><line style="stroke:#000000;stroke-width:1.5;" x1="21" x2="487.3742" y1="29.0679" y2="29.0679"/><text fill="#000000" font-family="sans-serif" font-size="14" font-weight="bold" lengthAdjust="spacing" textLength="453.3742" x="25" y="20.9659">com.hack23.cia.web.impl.ui.application.views.common.abstracts</text></g><!--class DocumentsView--><g class="entity" data-entity="DocumentsView" data-source-line="12" data-uid="ent0003" id="entity_DocumentsView"><a href="DocumentsView.html" target="_top" title="DocumentsView.html" xlink:actuate="onRequest" xlink:href="DocumentsView.html" xlink:show="new" xlink:title="DocumentsView.html" xlink:type="simple"><rect fill="#F1F1F1" height="86.1358" rx="2.5" ry="2.5" style="stroke:#181818;stroke-width:0.5;" width="265.9031" x="106" y="128"/><ellipse cx="181.5157" cy="144" fill="#ADD1B2" rx="11" ry="11" style="stroke:#181818;stroke-width:1;"/><path d="M184.4845,149.6406 Q183.9064,149.9375 183.2657,150.0781 Q182.6251,150.2344 181.922,150.2344 Q179.422,150.2344 178.0939,148.5938 Q176.7814,146.9375 176.7814,143.8125 Q176.7814,140.6875 178.0939,139.0313 Q179.422,137.375 181.922,137.375 Q182.6251,137.375 183.2657,137.5313 Q183.922,137.6875 184.4845,137.9844 L184.4845,140.7031 Q183.8595,140.125 183.2657,139.8594 Q182.672,139.5781 182.047,139.5781 Q180.7032,139.5781 180.0157,140.6563 Q179.3282,141.7188 179.3282,143.8125 Q179.3282,145.9063 180.0157,146.9844 Q180.7032,148.0469 182.047,148.0469 Q182.672,148.0469 183.2657,147.7813 Q183.8595,147.5 184.4845,146.9219 L184.4845,149.6406 Z " fill="#000000"/><text fill="#000000" font-family="sans-serif" font-size="14" lengthAdjust="spacing" textLength="106.3716" x="202.0157" y="149.432">DocumentsView</text><line style="stroke:#181818;stroke-width:0.5;" x1="107" x2="370.9031" y1="160" y2="160"/><ellipse cx="117" cy="175.034" fill="none" rx="3" ry="3" style="stroke:#038048;stroke-width:1;"/><text fill="#000000" font-family="sans-serif" font-size="14" lengthAdjust="spacing" text-decoration="underline" textLength="86.8557" x="126" y="178.9659">NAME: String</text><line style="stroke:#181818;stroke-width:0.5;" x1="107" x2="370.9031" y1="187.0679" y2="187.0679"/><ellipse cx="117" cy="202.1019" fill="#84BE84" rx="3" ry="3" style="stroke:#038048;stroke-width:1;"/><text fill="#000000" font-family="sans-serif" font-size="14" lengthAdjust="spacing" textLength="239.9031" x="126" y="206.0339">DocumentsView(ApplicationContext)</text></a></g><!--class AbstractUserView--><g class="entity" data-entity="AbstractUserView" data-source-line="20" data-uid="ent0005" id="entity_AbstractUserView"><a href="../../common/abstracts/AbstractUserView.html" target="_top" title="../../common/abstracts/AbstractUserView.html" xlink:actuate="onRequest" xlink:href="../../common/abstracts/AbstractUserView.html" xlink:show="new" xlink:title="../../common/abstracts/AbstractUserView.html" xlink:type="simple"><rect fill="#F1F1F1" height="48" rx="2.5" ry="2.5" style="stroke:#181818;stroke-width:0.5;" width="139.7156" x="169" y="34"/><ellipse cx="184" cy="50" fill="#A9DCDF" rx="11" ry="11" style="stroke:#181818;stroke-width:1;"/><path d="M184.1094,45.3438 L182.9531,50.4219 L185.2813,50.4219 L184.1094,45.3438 Z M182.625,43.1094 L185.6094,43.1094 L188.9688,55.5 L186.5156,55.5 L185.75,52.4375 L182.4688,52.4375 L181.7188,55.5 L179.2813,55.5 L182.625,43.1094 Z " fill="#000000"/><text fill="#000000" font-family="sans-serif" font-size="14" font-style="italic" lengthAdjust="spacing" textLength="107.7156" x="198" y="55.432">AbstractUserView</text><line style="stroke:#181818;stroke-width:0.5;" x1="170" x2="307.7156" y1="66" y2="66"/><line style="stroke:#181818;stroke-width:0.5;" x1="170" x2="307.7156" y1="74" y2="74"/></a></g><g class="link" data-entity-1="AbstractUserView" data-entity-2="DocumentsView" data-uid="lnk6" id="link_AbstractUserView_DocumentsView"><polygon fill="none" points="239,82.2692,233,100.2692,245,100.2692,239,82.2692" style="stroke:#181818;stroke-width:1;"/><path d="M239,100.2692 C239,113.4922 239,112.4505 239,127.9269" fill="none" style="stroke:#181818;stroke-width:1;"/></g><g class="footer" data-source-line="32"><text fill="#888888" font-family="sans-serif" font-size="10" lengthAdjust="spacing" textLength="2.6" x="239.2" y="234.69">&#160;</text><a href="https://github.com/talsma-ict/umldoclet" target="_top" title="https://github.com/talsma-ict/umldoclet" xlink:actuate="onRequest" xlink:href="https://github.com/talsma-ict/umldoclet" xlink:show="new" xlink:title="https://github.com/talsma-ict/umldoclet" xlink:type="simple"><text fill="#888888" font-family="sans-serif" font-size="10" lengthAdjust="spacing" textLength="76.7199" x="202.14" y="248.31">UMLDoclet 2.2.4</text></a></g><!--SRC=[fLJRRjim37tlLt3OmrgqaIzBkzOe1WHfiGlIOLYIlMHvK6JL5Y9BdaId2xhy- -XBqgJTMmq3DaNoy1pID030EnZQSkrKbYEW1SoLX-dT2BX98PD6Eeuo1LNmJ7fOI6rDvjj02Rp2t3gmzuqbh7FIbzQaocJmbQyuU5iv8JqxEeAcr6IB_i3z7lfYNH_UMA4bml7mP8zI74ONlJYCBs32jIyuV1bEM8Vsb1EpcFM1iBKIqdY2h4mgNKDhK791Zr7hEOELT5vPGpbXXrDB5TOWLyP3oHtwMj9tpGtMN2D6zSzP5CBnO3mw91TUDUJEOE0ChrBuONzNExrlIiSpegpvsbO8lf383MzSdaXxIRKuKWEJf4qWfalgCv4fM4xlyNic56SFSi5KKMfMASRBaZHo90LifUI3PvMNZgLML8KqnFonXQeleRdtSBDr_QHmcCqER9PZeUTpoeAzwz4ZLH0REFqskBjDO8oEHdeGSde0SpnueZMaJie_UB8BtxICDg_GIC456NpXqN7HgDoYRyywjOFEd59NEi6C1NIt4C4E8dWU-R8LcttUh-AR92zuNV_jzLupw2Gvc41ByjhZMikFEmNtrYAjmU5qFwzBwKRAB8TMqyVtzlB_tcczGLePIKihbaPISyDdhRaEzkfrjNwPsIn7B7qI19d2l5hKtGYmsTwU4XXKXKxRjNssmFDvjv2VTd-6UhbwORyNHPEedqGVadwVNOQNvrTNvnVXQHWdOJYxhPmjPJ16AvQvrSNy7m00]--></g></svg>