<svg xmlns="http://www.w3.org/2000/svg" xmlns:xlink="http://www.w3.org/1999/xlink" contentStyleType="text/css" height="388px" preserveAspectRatio="none" style="width:407px;height:388px;background:#FFFFFF;" version="1.1" viewBox="0 0 407 388" width="407px" zoomAndPan="magnify"><defs/><g><!--class com.hack23.cia.web.impl.ui.application.views.user.parliament.pagemode.risk.ComplianceCheckImpl--><a href="ComplianceCheckImpl.html" target="_top" title="ComplianceCheckImpl.html" xlink:actuate="onRequest" xlink:href="ComplianceCheckImpl.html" xlink:show="new" xlink:title="ComplianceCheckImpl.html" xlink:type="simple"><g id="elem_com.hack23.cia.web.impl.ui.application.views.user.parliament.pagemode.risk.ComplianceCheckImpl"><rect codeLine="13" fill="#F1F1F1" height="184.1633" id="com.hack23.cia.web.impl.ui.application.views.user.parliament.pagemode.risk.ComplianceCheckImpl" rx="2.5" ry="2.5" style="stroke:#181818;stroke-width:0.5;" width="394.7197" x="6" y="175"/><ellipse cx="21" cy="196.344" fill="#ADD1B2" rx="11" ry="11" style="stroke:#181818;stroke-width:1.0;"/><path d="M23.9688,201.9846 Q23.3906,202.2815 22.75,202.4221 Q22.1094,202.5783 21.4063,202.5783 Q18.9063,202.5783 17.5781,200.9377 Q16.2656,199.2815 16.2656,196.1565 Q16.2656,193.0315 17.5781,191.3752 Q18.9063,189.719 21.4063,189.719 Q22.1094,189.719 22.75,189.8752 Q23.4063,190.0315 23.9688,190.3283 L23.9688,193.0471 Q23.3438,192.469 22.75,192.2033 Q22.1563,191.9221 21.5313,191.9221 Q20.1875,191.9221 19.5,193.0002 Q18.8125,194.0627 18.8125,196.1565 Q18.8125,198.2502 19.5,199.3283 Q20.1875,200.3908 21.5313,200.3908 Q22.1563,200.3908 22.75,200.1252 Q23.3438,199.844 23.9688,199.2658 L23.9688,201.9846 Z " fill="#000000"/><text fill="#000000" font-family="sans-serif" font-size="14" lengthAdjust="spacing" textLength="147.0134" x="142.8531" y="194.9659">ComplianceCheckImpl</text><text fill="#000000" font-family="sans-serif" font-size="10" lengthAdjust="spacing" textLength="362.7197" x="35" y="209.7579">com.hack23.cia.web.impl.ui.application.views.user.parliament.pagemode.risk</text><line style="stroke:#181818;stroke-width:0.5;" x1="7" x2="399.7197" y1="217.6879" y2="217.6879"/><ellipse cx="17" cy="232.7219" fill="#84BE84" rx="3" ry="3" style="stroke:#038048;stroke-width:1.0;"/><text fill="#000000" font-family="sans-serif" font-size="14" lengthAdjust="spacing" textLength="280.7409" x="26" y="236.6538">ComplianceCheckImpl(List&lt;RuleViolation&gt;)</text><ellipse cx="17" cy="251.7898" fill="#84BE84" rx="3" ry="3" style="stroke:#038048;stroke-width:1.0;"/><text fill="#000000" font-family="sans-serif" font-size="14" lengthAdjust="spacing" textLength="221.8711" x="26" y="255.7218">getResourceType(): ResourceType</text><ellipse cx="17" cy="270.8577" fill="#84BE84" rx="3" ry="3" style="stroke:#038048;stroke-width:1.0;"/><text fill="#000000" font-family="sans-serif" font-size="14" lengthAdjust="spacing" textLength="255.989" x="26" y="274.7897">getRuleViolations(): List&lt;RuleViolation&gt;</text><ellipse cx="17" cy="289.9256" fill="#84BE84" rx="3" ry="3" style="stroke:#038048;stroke-width:1.0;"/><text fill="#000000" font-family="sans-serif" font-size="14" lengthAdjust="spacing" textLength="202.6492" x="26" y="293.8576">getNumberRuleViolations(): int</text><ellipse cx="17" cy="308.9935" fill="#84BE84" rx="3" ry="3" style="stroke:#038048;stroke-width:1.0;"/><text fill="#000000" font-family="sans-serif" font-size="14" lengthAdjust="spacing" textLength="168.9093" x="26" y="312.9255">getRuleSummary(): String</text><ellipse cx="17" cy="328.0614" fill="#84BE84" rx="3" ry="3" style="stroke:#038048;stroke-width:1.0;"/><text fill="#000000" font-family="sans-serif" font-size="14" lengthAdjust="spacing" textLength="90.1037" x="26" y="331.9934">getId(): String</text><ellipse cx="17" cy="347.1294" fill="#84BE84" rx="3" ry="3" style="stroke:#038048;stroke-width:1.0;"/><text fill="#000000" font-family="sans-serif" font-size="14" lengthAdjust="spacing" textLength="116.2276" x="26" y="351.0613">getName(): String</text></g></a><!--class com.hack23.cia.service.api.action.kpi.ComplianceCheck--><g id="elem_com.hack23.cia.service.api.action.kpi.ComplianceCheck"><rect codeLine="23" fill="#F1F1F1" height="126.9596" id="com.hack23.cia.service.api.action.kpi.ComplianceCheck" rx="2.5" ry="2.5" style="stroke:#181818;stroke-width:0.5;" width="267.6671" x="69.5" y="12"/><ellipse cx="117.0886" cy="33.344" fill="#B4A7E5" rx="11" ry="11" style="stroke:#181818;stroke-width:1.0;"/><path d="M113.0105,29.1096 L113.0105,26.9533 L120.4011,26.9533 L120.4011,29.1096 L117.9324,29.1096 L117.9324,37.1877 L120.4011,37.1877 L120.4011,39.344 L113.0105,39.344 L113.0105,37.1877 L115.4792,37.1877 L115.4792,29.1096 L113.0105,29.1096 Z " fill="#000000"/><text fill="#000000" font-family="sans-serif" font-size="14" font-style="italic" lengthAdjust="spacing" textLength="109.6476" x="164.7597" y="31.9659">ComplianceCheck</text><text fill="#000000" font-family="sans-serif" font-size="10" font-style="italic" lengthAdjust="spacing" textLength="163.9898" x="137.5886" y="46.7579">com.hack23.cia.service.api.action.kpi</text><line style="stroke:#181818;stroke-width:0.5;" x1="70.5" x2="336.1671" y1="54.6879" y2="54.6879"/><ellipse cx="80.5" cy="69.7219" fill="#84BE84" rx="3" ry="3" style="stroke:#038048;stroke-width:1.0;"/><text fill="#000000" font-family="sans-serif" font-size="14" font-style="italic" lengthAdjust="spacing" textLength="204.2593" x="89.5" y="73.6538">getResourceType(): ResourceType</text><ellipse cx="80.5" cy="88.7898" fill="#84BE84" rx="3" ry="3" style="stroke:#038048;stroke-width:1.0;"/><text fill="#000000" font-family="sans-serif" font-size="14" font-style="italic" lengthAdjust="spacing" textLength="241.6671" x="89.5" y="92.7218">getRuleViolations(): List&lt;RuleViolation&gt;</text><ellipse cx="80.5" cy="107.8577" fill="#84BE84" rx="3" ry="3" style="stroke:#038048;stroke-width:1.0;"/><text fill="#000000" font-family="sans-serif" font-size="14" font-style="italic" lengthAdjust="spacing" textLength="84.8397" x="89.5" y="111.7897">getId(): String</text><ellipse cx="80.5" cy="126.9256" fill="#84BE84" rx="3" ry="3" style="stroke:#038048;stroke-width:1.0;"/><text fill="#000000" font-family="sans-serif" font-size="14" font-style="italic" lengthAdjust="spacing" textLength="109.2836" x="89.5" y="130.8576">getName(): String</text></g><polygon fill="none" points="203.5,139.0746,197.5,157.0746,209.5,157.0746,203.5,139.0746" style="stroke:#181818;stroke-width:1.0;"/><path d="M203.5,157.0746 C203.5,168.5021 203.5,162.6382 203.5,174.6997 " fill="none" style="stroke:#181818;stroke-width:1.0;stroke-dasharray:7.0,7.0;"/><text fill="#888888" font-family="sans-serif" font-size="10" lengthAdjust="spacing" textLength="2.6" x="198.7" y="363.69">&#160;</text><a href="https://github.com/talsma-ict/umldoclet" target="_top" title="https://github.com/talsma-ict/umldoclet" xlink:actuate="onRequest" xlink:href="https://github.com/talsma-ict/umldoclet" xlink:show="new" xlink:title="https://github.com/talsma-ict/umldoclet" xlink:type="simple"><text fill="#888888" font-family="sans-serif" font-size="10" lengthAdjust="spacing" textLength="76.7199" x="161.64" y="377.31">UMLDoclet 2.2.1</text></a><!--SRC=[jLNTJzim47_dhxYnXnL1tJHq3AeA2NNJOEhGHCjUIXzSvvfOTUpCTeewnl- -Iz91Mr9fcxQy9BwFt_tkmnS0W3VGDzdIoZZnu0tuH3gu_Jm0hYE8KQFb7YEGAO_HmHILqR6h315uxXDZmSpAap3MeikCZgIEuHDVS70cjm8Tszk3CjJe5_ezTsleqsKXV6-4GW-D_i4QfJ1edpJ383o14LSkvN3L7x4LshDFo4BM1i9MKg1s19dh26r9woBZWbw3IdC42xHE6aq-mGgdI5KOxRdK3Z9klIjI-gAuzWNNDgFu7VOE6XV3mIQtuApaTWGNLlCyWXlpBNzAzrLcUKoC5L-Qt8DBqNFDAvqZqfgdL2ukS8WKb7kgf3OQItqY8mHCCx-4cKGLkMqfWIM6nALSAEuSxFUS_8xTTkUyRz9CIQu5zXCKyoiwtUcLDZWN9cK95_Fmc0d9sJrEcIGBbal6C_8Jt5Dzs4BYlMEvGyk87i6bg3rznfYQ29cLRhuFrCP_1yTgUCDuN2DbYK_LP08FPVh5SrXZrHX8vtitkSAlqgYInld1iqUC_WQh2HqjCsmST67zl6cu3k8Aqnhi3O_hF9sYVUadjN-1FCpJbDjbeHvwIxTdm-8gsg6ufXfkgHwhWQ0WQ6SqMhk7OlT0K8iMT5ceUzH1KJPldicwNjTRRhTnhKiFVEgy9TF7to__jiyVTMBBkRQKMpQxg_ftsVT-CFQVBqb5h-VyKk5pxZDZQ0hMgbyybrHQEv1wtZUA5ixhqthjRR4-bTH86rlCDT9w2Pui7wjmhRLugrXtUZnElCzSjzMAfK_oAQFCMxvStKqfV2jFLLJjxAtjFPcijl77fzz2iLgRGTWCZaVjuswdtUsyPPqJsiNXsUdPOT3k1i7uGsvDXgsXDsAU69LEVW80]--></g></svg>