<?xml version="1.0" encoding="UTF-8" standalone="no"?><svg xmlns="http://www.w3.org/2000/svg" xmlns:xlink="http://www.w3.org/1999/xlink" contentStyleType="text/css" height="471px" preserveAspectRatio="none" style="width:566px;height:471px;background:#FFFFFF;" version="1.1" viewBox="0 0 566 471" width="566px" zoomAndPan="magnify"><defs/><g><!--MD5=[3860a0b74022ea9b98c2587cbc4719d3]
cluster com.hack23.cia.web.impl.ui.application.views.user.parliament.pagemode.risk--><g id="cluster_com.hack23.cia.web.impl.ui.application.views.user.parliament.pagemode.risk"><path d="M8.5,208.602 L546.5,208.602 A3.75,3.75 0 0 1 549,211.102 L556,233.6699 L556.5,233.6699 A2.5,2.5 0 0 1 559,236.1699 L559,441.102 A2.5,2.5 0 0 1 556.5,443.602 L8.5,443.602 A2.5,2.5 0 0 1 6,441.102 L6,211.102 A2.5,2.5 0 0 1 8.5,208.602 " fill="none" style="stroke:#000000;stroke-width:1.5;"/><line style="stroke:#000000;stroke-width:1.5;" x1="6" x2="556" y1="233.6699" y2="233.6699"/><text fill="#000000" font-family="sans-serif" font-size="14" font-weight="bold" lengthAdjust="spacing" textLength="537" x="10" y="225.5679">com.hack23.cia.web.impl.ui.application.views.user.parliament.pagemode.risk</text></g><!--MD5=[09277d9ed5671aa28a7e95e01d21d1de]
cluster com.hack23.cia.service.api.action.kpi--><g id="cluster_com.hack23.cia.service.api.action.kpi"><path d="M131.5,6.602 L388.5,6.602 A3.75,3.75 0 0 1 391,9.102 L398,31.6699 L432.5,31.6699 A2.5,2.5 0 0 1 435,34.1699 L435,182.102 A2.5,2.5 0 0 1 432.5,184.602 L131.5,184.602 A2.5,2.5 0 0 1 129,182.102 L129,9.102 A2.5,2.5 0 0 1 131.5,6.602 " fill="none" style="stroke:#000000;stroke-width:1.5;"/><line style="stroke:#000000;stroke-width:1.5;" x1="129" x2="398" y1="31.6699" y2="31.6699"/><text fill="#000000" font-family="sans-serif" font-size="14" font-weight="bold" lengthAdjust="spacing" textLength="256" x="133" y="23.5679">com.hack23.cia.service.api.action.kpi</text></g><!--MD5=[7379f9d7b7b9ae83cc182ace6176aa7b]
class com.hack23.cia.web.impl.ui.application.views.user.parliament.pagemode.risk.ComplianceCheckImpl--><a href="ComplianceCheckImpl.html" target="_top" title="ComplianceCheckImpl.html" xlink:actuate="onRequest" xlink:href="ComplianceCheckImpl.html" xlink:show="new" xlink:title="ComplianceCheckImpl.html" xlink:type="simple"><g id="elem_com.hack23.cia.web.impl.ui.application.views.user.parliament.pagemode.risk.ComplianceCheckImpl"><rect codeLine="3" fill="#F1F1F1" height="181.4754" id="com.hack23.cia.web.impl.ui.application.views.user.parliament.pagemode.risk.ComplianceCheckImpl" rx="2.5" ry="2.5" style="stroke:#181818;stroke-width:0.5;" width="311" x="126.5" y="246.602"/><ellipse cx="202.75" cy="262.602" fill="#ADD1B2" rx="11" ry="11" style="stroke:#181818;stroke-width:1.0;"/><path d="M205.7188,268.2426 Q205.1406,268.5395 204.5,268.6801 Q203.8594,268.8364 203.1563,268.8364 Q200.6563,268.8364 199.3281,267.1957 Q198.0156,265.5395 198.0156,262.4145 Q198.0156,259.2895 199.3281,257.6332 Q200.6563,255.977 203.1563,255.977 Q203.8594,255.977 204.5,256.1332 Q205.1563,256.2895 205.7188,256.5864 L205.7188,259.3051 Q205.0938,258.727 204.5,258.4614 Q203.9063,258.1801 203.2813,258.1801 Q201.9375,258.1801 201.25,259.2582 Q200.5625,260.3207 200.5625,262.4145 Q200.5625,264.5082 201.25,265.5864 Q201.9375,266.6489 203.2813,266.6489 Q203.9063,266.6489 204.5,266.3832 Q205.0938,266.102 205.7188,265.5239 L205.7188,268.2426 Z " fill="#000000"/><text fill="#000000" font-family="sans-serif" font-size="14" lengthAdjust="spacing" textLength="150" x="223.25" y="268.034">ComplianceCheckImpl</text><line style="stroke:#181818;stroke-width:0.5;" x1="127.5" x2="436.5" y1="278.602" y2="278.602"/><line style="stroke:#181818;stroke-width:0.5;" x1="127.5" x2="436.5" y1="286.602" y2="286.602"/><ellipse cx="137.5" cy="301.6359" fill="#84BE84" rx="3" ry="3" style="stroke:#038048;stroke-width:1.0;"/><text fill="#000000" font-family="sans-serif" font-size="14" lengthAdjust="spacing" textLength="285" x="146.5" y="305.5679">ComplianceCheckImpl(List&lt;RuleViolation&gt;)</text><ellipse cx="137.5" cy="320.7039" fill="#84BE84" rx="3" ry="3" style="stroke:#038048;stroke-width:1.0;"/><text fill="#000000" font-family="sans-serif" font-size="14" lengthAdjust="spacing" textLength="226" x="146.5" y="324.6358">getResourceType(): ResourceType</text><ellipse cx="137.5" cy="339.7718" fill="#84BE84" rx="3" ry="3" style="stroke:#038048;stroke-width:1.0;"/><text fill="#000000" font-family="sans-serif" font-size="14" lengthAdjust="spacing" textLength="260" x="146.5" y="343.7038">getRuleViolations(): List&lt;RuleViolation&gt;</text><ellipse cx="137.5" cy="358.8397" fill="#84BE84" rx="3" ry="3" style="stroke:#038048;stroke-width:1.0;"/><text fill="#000000" font-family="sans-serif" font-size="14" lengthAdjust="spacing" textLength="207" x="146.5" y="362.7717">getNumberRuleViolations(): int</text><ellipse cx="137.5" cy="377.9076" fill="#84BE84" rx="3" ry="3" style="stroke:#038048;stroke-width:1.0;"/><text fill="#000000" font-family="sans-serif" font-size="14" lengthAdjust="spacing" textLength="173" x="146.5" y="381.8396">getRuleSummary(): String</text><ellipse cx="137.5" cy="396.9755" fill="#84BE84" rx="3" ry="3" style="stroke:#038048;stroke-width:1.0;"/><text fill="#000000" font-family="sans-serif" font-size="14" lengthAdjust="spacing" textLength="93" x="146.5" y="400.9075">getId(): String</text><ellipse cx="137.5" cy="416.0434" fill="#84BE84" rx="3" ry="3" style="stroke:#038048;stroke-width:1.0;"/><text fill="#000000" font-family="sans-serif" font-size="14" lengthAdjust="spacing" textLength="119" x="146.5" y="419.9754">getName(): String</text></g></a><!--MD5=[064d03dd072a68cc96510ce0d9e7d089]
class com.hack23.cia.service.api.action.kpi.ComplianceCheck--><g id="elem_com.hack23.cia.service.api.action.kpi.ComplianceCheck"><rect codeLine="17" fill="#F1F1F1" height="124.2717" id="com.hack23.cia.service.api.action.kpi.ComplianceCheck" rx="2.5" ry="2.5" style="stroke:#181818;stroke-width:0.5;" width="274" x="145" y="44.602"/><ellipse cx="223.25" cy="60.602" fill="#B4A7E5" rx="11" ry="11" style="stroke:#181818;stroke-width:1.0;"/><path d="M219.1719,56.3676 L219.1719,54.2114 L226.5625,54.2114 L226.5625,56.3676 L224.0938,56.3676 L224.0938,64.4457 L226.5625,64.4457 L226.5625,66.602 L219.1719,66.602 L219.1719,64.4457 L221.6406,64.4457 L221.6406,56.3676 L219.1719,56.3676 Z " fill="#000000"/><text fill="#000000" font-family="sans-serif" font-size="14" font-style="italic" lengthAdjust="spacing" textLength="109" x="243.75" y="66.034">ComplianceCheck</text><line style="stroke:#181818;stroke-width:0.5;" x1="146" x2="418" y1="76.602" y2="76.602"/><line style="stroke:#181818;stroke-width:0.5;" x1="146" x2="418" y1="84.602" y2="84.602"/><ellipse cx="156" cy="99.6359" fill="#84BE84" rx="3" ry="3" style="stroke:#038048;stroke-width:1.0;"/><text fill="#000000" font-family="sans-serif" font-size="14" font-style="italic" lengthAdjust="spacing" textLength="206" x="165" y="103.5679">getResourceType(): ResourceType</text><ellipse cx="156" cy="118.7039" fill="#84BE84" rx="3" ry="3" style="stroke:#038048;stroke-width:1.0;"/><text fill="#000000" font-family="sans-serif" font-size="14" font-style="italic" lengthAdjust="spacing" textLength="248" x="165" y="122.6358">getRuleViolations(): List&lt;RuleViolation&gt;</text><ellipse cx="156" cy="137.7718" fill="#84BE84" rx="3" ry="3" style="stroke:#038048;stroke-width:1.0;"/><text fill="#000000" font-family="sans-serif" font-size="14" font-style="italic" lengthAdjust="spacing" textLength="87" x="165" y="141.7038">getId(): String</text><ellipse cx="156" cy="156.8397" fill="#84BE84" rx="3" ry="3" style="stroke:#038048;stroke-width:1.0;"/><text fill="#000000" font-family="sans-serif" font-size="14" font-style="italic" lengthAdjust="spacing" textLength="111" x="165" y="160.7717">getName(): String</text></g><!--MD5=[65232125f5f931e8a4ef5c9340ccc48e]
reverse link com.hack23.cia.service.api.action.kpi.ComplianceCheck to com.hack23.cia.web.impl.ui.application.views.user.parliament.pagemode.risk.ComplianceCheckImpl--><g id="link_com.hack23.cia.service.api.action.kpi.ComplianceCheck_com.hack23.cia.web.impl.ui.application.views.user.parliament.pagemode.risk.ComplianceCheckImpl"><path codeLine="13" d="M282,189.122 C282,207.672 282,227.472 282,246.332 " fill="none" id="com.hack23.cia.service.api.action.kpi.ComplianceCheck-backto-com.hack23.cia.web.impl.ui.application.views.user.parliament.pagemode.risk.ComplianceCheckImpl" style="stroke:#181818;stroke-width:1.0;stroke-dasharray:7.0,7.0;"/><polygon fill="none" points="275,188.832,282,168.832,289,188.832,275,188.832" style="stroke:#181818;stroke-width:1.0;"/></g><rect fill="none" height="13.62" style="stroke:none;stroke-width:1.0;" width="188" x="182" y="449.602"/><text fill="#888888" font-family="sans-serif" font-size="10" lengthAdjust="spacing" textLength="188" x="182" y="460.292">UMLDoclet 2.0.20, PlantUML 1.2022.12</text><!--MD5=[1a8a399acd363750a28331a7043580b9]
@startuml
    namespace com.hack23.cia.web.impl.ui.application.views.user.parliament.pagemode.risk {

        class ComplianceCheckImpl [[ComplianceCheckImpl.html]] {
            +ComplianceCheckImpl(List<RuleViolation>)
            +getResourceType(): ResourceType
            +getRuleViolations(): List<RuleViolation>
            +getNumberRuleViolations(): int
            +getRuleSummary(): String
            +getId(): String
            +getName(): String
        }

        com.hack23.cia.service.api.action.kpi.ComplianceCheck <|.. ComplianceCheckImpl
    }

    namespace com.hack23.cia.service.api.action.kpi {
        interface ComplianceCheck {
            {abstract} +getResourceType(): ResourceType
            {abstract} +getRuleViolations(): List<RuleViolation>
            {abstract} +getId(): String
            {abstract} +getName(): String
        }
    }

    center footer UMLDoclet 2.0.20, PlantUML 1.2022.12
@enduml

PlantUML version 1.2022.12(Sun Oct 23 20:12:26 CEST 2022)
(APACHE source distribution)
Java Runtime: OpenJDK Runtime Environment
JVM: OpenJDK 64-Bit Server VM
Default Encoding: UTF-8
Language: 
Country: 
--></g></svg>