<svg xmlns="http://www.w3.org/2000/svg" xmlns:xlink="http://www.w3.org/1999/xlink" contentStyleType="text/css" height="667px" preserveAspectRatio="none" style="width:3577px;height:667px;background:#FFFFFF;" version="1.1" viewBox="0 0 3577 667" width="3577px" zoomAndPan="magnify"><defs/><g><!--cluster com.hack23.cia.service.impl.rules--><g id="cluster_com.hack23.cia.service.impl.rules"><path d="M16.5,174 L252.0271,174 A3.75,3.75 0 0 1 254.5271,176.5 L261.5271,199.0679 L3567.5,199.0679 A2.5,2.5 0 0 1 3570,201.5679 L3570,627.5 A2.5,2.5 0 0 1 3567.5,630 L16.5,630 A2.5,2.5 0 0 1 14,627.5 L14,176.5 A2.5,2.5 0 0 1 16.5,174 " fill="none" style="stroke:#000000;stroke-width:1.5;"/><line style="stroke:#000000;stroke-width:1.5;" x1="14" x2="261.5271" y1="199.0679" y2="199.0679"/><text fill="#000000" font-family="sans-serif" font-size="14" font-weight="bold" lengthAdjust="spacing" textLength="234.5271" x="18" y="190.9659">com.hack23.cia.service.impl.rules</text></g><!--cluster com.hack23.cia.service.api.action.kpi--><g id="cluster_com.hack23.cia.service.api.action.kpi"><path d="M1545.5,4 L1806.073,4 A3.75,3.75 0 0 1 1808.573,6.5 L1815.573,29.0679 L1824.5,29.0679 A2.5,2.5 0 0 1 1827,31.5679 L1827,163.5 A2.5,2.5 0 0 1 1824.5,166 L1545.5,166 A2.5,2.5 0 0 1 1543,163.5 L1543,6.5 A2.5,2.5 0 0 1 1545.5,4 " fill="none" style="stroke:#000000;stroke-width:1.5;"/><line style="stroke:#000000;stroke-width:1.5;" x1="1543" x2="1815.573" y1="29.0679" y2="29.0679"/><text fill="#000000" font-family="sans-serif" font-size="14" font-weight="bold" lengthAdjust="spacing" textLength="259.573" x="1547" y="20.9659">com.hack23.cia.service.api.action.kpi</text></g><!--class RulesManagerImpl--><a href="RulesManagerImpl.html" target="_top" title="RulesManagerImpl.html" xlink:actuate="onRequest" xlink:href="RulesManagerImpl.html" xlink:show="new" xlink:title="RulesManagerImpl.html" xlink:type="simple"><g id="elem_RulesManagerImpl"><rect codeLine="12" fill="#F1F1F1" height="67.0679" id="RulesManagerImpl" rx="2.5" ry="2.5" style="stroke:#181818;stroke-width:0.5;" width="167.1895" x="22.5" y="459.5"/><ellipse cx="42.0954" cy="475.5" fill="#ADD1B2" rx="11" ry="11" style="stroke:#181818;stroke-width:1.0;"/><path d="M45.0641,481.1406 Q44.486,481.4375 43.8454,481.5781 Q43.2047,481.7344 42.5016,481.7344 Q40.0016,481.7344 38.6735,480.0938 Q37.361,478.4375 37.361,475.3125 Q37.361,472.1875 38.6735,470.5313 Q40.0016,468.875 42.5016,468.875 Q43.2047,468.875 43.8454,469.0313 Q44.5016,469.1875 45.0641,469.4844 L45.0641,472.2031 Q44.4391,471.625 43.8454,471.3594 Q43.2516,471.0781 42.6266,471.0781 Q41.2829,471.0781 40.5954,472.1563 Q39.9079,473.2188 39.9079,475.3125 Q39.9079,477.4063 40.5954,478.4844 Q41.2829,479.5469 42.6266,479.5469 Q43.2516,479.5469 43.8454,479.2813 Q44.4391,479 45.0641,478.4219 L45.0641,481.1406 Z " fill="#000000"/><text fill="#000000" font-family="sans-serif" font-size="14" lengthAdjust="spacing" textLength="124.9775" x="57.1166" y="480.932">RulesManagerImpl</text><line style="stroke:#181818;stroke-width:0.5;" x1="23.5" x2="188.6895" y1="491.5" y2="491.5"/><line style="stroke:#181818;stroke-width:0.5;" x1="23.5" x2="188.6895" y1="499.5" y2="499.5"/><ellipse cx="33.5" cy="514.534" fill="#84BE84" rx="3" ry="3" style="stroke:#038048;stroke-width:1.0;"/><text fill="#000000" font-family="sans-serif" font-size="14" lengthAdjust="spacing" textLength="141.1895" x="42.5" y="518.4659">processService(): void</text></g></a><!--class RulesEngine--><a href="RulesEngine.html" target="_top" title="RulesEngine.html" xlink:actuate="onRequest" xlink:href="RulesEngine.html" xlink:show="new" xlink:title="RulesEngine.html" xlink:type="simple"><g id="elem_RulesEngine"><rect codeLine="16" fill="#F1F1F1" height="67.0679" id="RulesEngine" rx="2.5" ry="2.5" style="stroke:#181818;stroke-width:0.5;" width="328.5529" x="3223.5" y="232.5"/><ellipse cx="3346.0836" cy="248.5" fill="#B4A7E5" rx="11" ry="11" style="stroke:#181818;stroke-width:1.0;"/><path d="M3342.0055,244.2656 L3342.0055,242.1094 L3349.3961,242.1094 L3349.3961,244.2656 L3346.9273,244.2656 L3346.9273,252.3438 L3349.3961,252.3438 L3349.3961,254.5 L3342.0055,254.5 L3342.0055,252.3438 L3344.4742,252.3438 L3344.4742,244.2656 L3342.0055,244.2656 Z " fill="#000000"/><text fill="#000000" font-family="sans-serif" font-size="14" font-style="italic" lengthAdjust="spacing" textLength="74.8857" x="3366.5836" y="253.932">RulesEngine</text><line style="stroke:#181818;stroke-width:0.5;" x1="3224.5" x2="3551.0529" y1="264.5" y2="264.5"/><line style="stroke:#181818;stroke-width:0.5;" x1="3224.5" x2="3551.0529" y1="272.5" y2="272.5"/><ellipse cx="3234.5" cy="287.534" fill="#84BE84" rx="3" ry="3" style="stroke:#038048;stroke-width:1.0;"/><text fill="#000000" font-family="sans-serif" font-size="14" font-style="italic" lengthAdjust="spacing" textLength="302.5529" x="3243.5" y="291.4659">checkRulesCompliance(): List&lt;ComplianceCheck&gt;</text></g></a><!--class RulesEngineImpl--><a href="RulesEngineImpl.html" target="_top" title="RulesEngineImpl.html" xlink:actuate="onRequest" xlink:href="RulesEngineImpl.html" xlink:show="new" xlink:title="RulesEngineImpl.html" xlink:type="simple"><g id="elem_RulesEngineImpl"><rect codeLine="20" fill="#F1F1F1" height="67.0679" id="RulesEngineImpl" rx="2.5" ry="2.5" style="stroke:#181818;stroke-width:0.5;" width="347.8727" x="3214" y="459.5"/><ellipse cx="3328.2676" cy="475.5" fill="#ADD1B2" rx="11" ry="11" style="stroke:#181818;stroke-width:1.0;"/><path d="M3331.2363,481.1406 Q3330.6582,481.4375 3330.0176,481.5781 Q3329.377,481.7344 3328.6738,481.7344 Q3326.1738,481.7344 3324.8457,480.0938 Q3323.5332,478.4375 3323.5332,475.3125 Q3323.5332,472.1875 3324.8457,470.5313 Q3326.1738,468.875 3328.6738,468.875 Q3329.377,468.875 3330.0176,469.0313 Q3330.6738,469.1875 3331.2363,469.4844 L3331.2363,472.2031 Q3330.6113,471.625 3330.0176,471.3594 Q3329.4238,471.0781 3328.7988,471.0781 Q3327.4551,471.0781 3326.7676,472.1563 Q3326.0801,473.2188 3326.0801,475.3125 Q3326.0801,477.4063 3326.7676,478.4844 Q3327.4551,479.5469 3328.7988,479.5469 Q3329.4238,479.5469 3330.0176,479.2813 Q3330.6113,479 3331.2363,478.4219 L3331.2363,481.1406 Z " fill="#000000"/><text fill="#000000" font-family="sans-serif" font-size="14" lengthAdjust="spacing" textLength="110.8376" x="3348.7676" y="480.932">RulesEngineImpl</text><line style="stroke:#181818;stroke-width:0.5;" x1="3215" x2="3560.8727" y1="491.5" y2="491.5"/><line style="stroke:#181818;stroke-width:0.5;" x1="3215" x2="3560.8727" y1="499.5" y2="499.5"/><ellipse cx="3225" cy="514.534" fill="#84BE84" rx="3" ry="3" style="stroke:#038048;stroke-width:1.0;"/><text fill="#000000" font-family="sans-serif" font-size="14" lengthAdjust="spacing" textLength="321.8727" x="3234" y="518.4659">checkRulesCompliance(): List&lt;ComplianceCheck&gt;</text></g></a><!--class AbstractComplianceCheckImpl--><a href="AbstractComplianceCheckImpl.html" target="_top" title="AbstractComplianceCheckImpl.html" xlink:actuate="onRequest" xlink:href="AbstractComplianceCheckImpl.html" xlink:show="new" xlink:title="AbstractComplianceCheckImpl.html" xlink:type="simple"><g id="elem_AbstractComplianceCheckImpl"><rect codeLine="24" fill="#F1F1F1" height="124.2717" id="AbstractComplianceCheckImpl" rx="2.5" ry="2.5" style="stroke:#181818;stroke-width:0.5;" width="380.5627" x="1494.5" y="204"/><ellipse cx="1585.8637" cy="220" fill="#A9DCDF" rx="11" ry="11" style="stroke:#181818;stroke-width:1.0;"/><path d="M1585.9731,215.3438 L1584.8168,220.4219 L1587.145,220.4219 L1585.9731,215.3438 Z M1584.4887,213.1094 L1587.4731,213.1094 L1590.8325,225.5 L1588.3793,225.5 L1587.6137,222.4375 L1584.3325,222.4375 L1583.5825,225.5 L1581.145,225.5 L1584.4887,213.1094 Z " fill="#000000"/><text fill="#000000" font-family="sans-serif" font-size="14" font-style="italic" lengthAdjust="spacing" textLength="189.3353" x="1606.3637" y="225.432">AbstractComplianceCheckImpl</text><line style="stroke:#181818;stroke-width:0.5;" x1="1495.5" x2="1874.0627" y1="236" y2="236"/><line style="stroke:#181818;stroke-width:0.5;" x1="1495.5" x2="1874.0627" y1="244" y2="244"/><ellipse cx="1505.5" cy="259.034" fill="#84BE84" rx="3" ry="3" style="stroke:#038048;stroke-width:1.0;"/><text fill="#000000" font-family="sans-serif" font-size="14" lengthAdjust="spacing" textLength="302.3988" x="1514.5" y="262.9659">AbstractComplianceCheckImpl(ResourceType)</text><ellipse cx="1505.5" cy="278.1019" fill="#84BE84" rx="3" ry="3" style="stroke:#038048;stroke-width:1.0;"/><text fill="#000000" font-family="sans-serif" font-size="14" lengthAdjust="spacing" textLength="221.8711" x="1514.5" y="282.0339">getResourceType(): ResourceType</text><ellipse cx="1505.5" cy="297.1698" fill="#84BE84" rx="3" ry="3" style="stroke:#038048;stroke-width:1.0;"/><text fill="#000000" font-family="sans-serif" font-size="14" lengthAdjust="spacing" textLength="255.989" x="1514.5" y="301.1018">getRuleViolations(): List&lt;RuleViolation&gt;</text><ellipse cx="1505.5" cy="316.2377" fill="#84BE84" rx="3" ry="3" style="stroke:#038048;stroke-width:1.0;"/><text fill="#000000" font-family="sans-serif" font-size="14" lengthAdjust="spacing" textLength="354.5627" x="1514.5" y="320.1697">addViolation(Status, String, String, String, String): void</text></g></a><!--class PartyComplianceCheckImpl--><a href="PartyComplianceCheckImpl.html" target="_top" title="PartyComplianceCheckImpl.html" xlink:actuate="onRequest" xlink:href="PartyComplianceCheckImpl.html" xlink:show="new" xlink:title="PartyComplianceCheckImpl.html" xlink:type="simple"><g id="elem_PartyComplianceCheckImpl"><rect codeLine="31" fill="#F1F1F1" height="181.4754" id="PartyComplianceCheckImpl" rx="2.5" ry="2.5" style="stroke:#181818;stroke-width:0.5;" width="1453.0016" x="207.5" y="402.5"/><ellipse cx="839.0941" cy="418.5" fill="#ADD1B2" rx="11" ry="11" style="stroke:#181818;stroke-width:1.0;"/><path d="M842.0629,424.1406 Q841.4848,424.4375 840.8441,424.5781 Q840.2035,424.7344 839.5004,424.7344 Q837.0004,424.7344 835.6723,423.0938 Q834.3598,421.4375 834.3598,418.3125 Q834.3598,415.1875 835.6723,413.5313 Q837.0004,411.875 839.5004,411.875 Q840.2035,411.875 840.8441,412.0313 Q841.5004,412.1875 842.0629,412.4844 L842.0629,415.2031 Q841.4379,414.625 840.8441,414.3594 Q840.2504,414.0781 839.6254,414.0781 Q838.2816,414.0781 837.5941,415.1563 Q836.9066,416.2188 836.9066,418.3125 Q836.9066,420.4063 837.5941,421.4844 Q838.2816,422.5469 839.6254,422.5469 Q840.2504,422.5469 840.8441,422.2813 Q841.4379,422 842.0629,421.4219 L842.0629,424.1406 Z " fill="#000000"/><text fill="#000000" font-family="sans-serif" font-size="14" lengthAdjust="spacing" textLength="181.3133" x="859.5941" y="423.932">PartyComplianceCheckImpl</text><line style="stroke:#181818;stroke-width:0.5;" x1="208.5" x2="1659.5016" y1="434.5" y2="434.5"/><line style="stroke:#181818;stroke-width:0.5;" x1="208.5" x2="1659.5016" y1="442.5" y2="442.5"/><ellipse cx="218.5" cy="457.534" fill="#84BE84" rx="3" ry="3" style="stroke:#038048;stroke-width:1.0;"/><text fill="#000000" font-family="sans-serif" font-size="14" lengthAdjust="spacing" textLength="1427.0016" x="227.5" y="461.4659">PartyComplianceCheckImpl(ViewRiksdagenPartySummary, ViewRiksdagenVoteDataBallotPartySummaryAnnual, ViewRiksdagenVoteDataBallotPartySummaryMonthly, ViewRiksdagenVoteDataBallotPartySummaryDaily)</text><ellipse cx="218.5" cy="476.6019" fill="#84BE84" rx="3" ry="3" style="stroke:#038048;stroke-width:1.0;"/><text fill="#000000" font-family="sans-serif" font-size="14" lengthAdjust="spacing" textLength="268.2809" x="227.5" y="480.5339">getParty(): ViewRiksdagenPartySummary</text><ellipse cx="218.5" cy="495.6698" fill="#84BE84" rx="3" ry="3" style="stroke:#038048;stroke-width:1.0;"/><text fill="#000000" font-family="sans-serif" font-size="14" lengthAdjust="spacing" textLength="116.2276" x="227.5" y="499.6018">getName(): String</text><ellipse cx="218.5" cy="514.7377" fill="#84BE84" rx="3" ry="3" style="stroke:#038048;stroke-width:1.0;"/><text fill="#000000" font-family="sans-serif" font-size="14" lengthAdjust="spacing" textLength="90.1037" x="227.5" y="518.6697">getId(): String</text><ellipse cx="218.5" cy="533.8056" fill="#84BE84" rx="3" ry="3" style="stroke:#038048;stroke-width:1.0;"/><text fill="#000000" font-family="sans-serif" font-size="14" lengthAdjust="spacing" textLength="460.6543" x="227.5" y="537.7376">getDailySummary(): ViewRiksdagenVoteDataBallotPartySummaryDaily</text><ellipse cx="218.5" cy="552.8735" fill="#84BE84" rx="3" ry="3" style="stroke:#038048;stroke-width:1.0;"/><text fill="#000000" font-family="sans-serif" font-size="14" lengthAdjust="spacing" textLength="504.3341" x="227.5" y="556.8055">getMonthlySummary(): ViewRiksdagenVoteDataBallotPartySummaryMonthly</text><ellipse cx="218.5" cy="571.9415" fill="#84BE84" rx="3" ry="3" style="stroke:#038048;stroke-width:1.0;"/><text fill="#000000" font-family="sans-serif" font-size="14" lengthAdjust="spacing" textLength="488.5142" x="227.5" y="575.8734">getAnnualSummary(): ViewRiksdagenVoteDataBallotPartySummaryAnnual</text></g></a><!--class RulesConfiguration--><a href="RulesConfiguration.html" target="_top" title="RulesConfiguration.html" xlink:actuate="onRequest" xlink:href="RulesConfiguration.html" xlink:show="new" xlink:title="RulesConfiguration.html" xlink:type="simple"><g id="elem_RulesConfiguration"><rect codeLine="41" fill="#F1F1F1" height="67.0679" id="RulesConfiguration" rx="2.5" ry="2.5" style="stroke:#181818;stroke-width:0.5;" width="210.5893" x="1110.5" y="232.5"/><ellipse cx="1148.8693" cy="248.5" fill="#ADD1B2" rx="11" ry="11" style="stroke:#181818;stroke-width:1.0;"/><path d="M1151.838,254.1406 Q1151.2599,254.4375 1150.6193,254.5781 Q1149.9787,254.7344 1149.2755,254.7344 Q1146.7755,254.7344 1145.4474,253.0938 Q1144.1349,251.4375 1144.1349,248.3125 Q1144.1349,245.1875 1145.4474,243.5313 Q1146.7755,241.875 1149.2755,241.875 Q1149.9787,241.875 1150.6193,242.0313 Q1151.2755,242.1875 1151.838,242.4844 L1151.838,245.2031 Q1151.213,244.625 1150.6193,244.3594 Q1150.0255,244.0781 1149.4005,244.0781 Q1148.0568,244.0781 1147.3693,245.1563 Q1146.6818,246.2188 1146.6818,248.3125 Q1146.6818,250.4063 1147.3693,251.4844 Q1148.0568,252.5469 1149.4005,252.5469 Q1150.0255,252.5469 1150.6193,252.2813 Q1151.213,252 1151.838,251.4219 L1151.838,254.1406 Z " fill="#000000"/><text fill="#000000" font-family="sans-serif" font-size="14" lengthAdjust="spacing" textLength="126.6575" x="1168.0625" y="253.932">RulesConfiguration</text><line style="stroke:#181818;stroke-width:0.5;" x1="1111.5" x2="1320.0893" y1="264.5" y2="264.5"/><line style="stroke:#181818;stroke-width:0.5;" x1="1111.5" x2="1320.0893" y1="272.5" y2="272.5"/><ellipse cx="1121.5" cy="287.534" fill="#84BE84" rx="3" ry="3" style="stroke:#038048;stroke-width:1.0;"/><text fill="#000000" font-family="sans-serif" font-size="14" lengthAdjust="spacing" textLength="184.5893" x="1130.5" y="291.4659">kieContainer(): KieContainer</text></g></a><!--class RulesManager--><a href="RulesManager.html" target="_top" title="RulesManager.html" xlink:actuate="onRequest" xlink:href="RulesManager.html" xlink:show="new" xlink:title="RulesManager.html" xlink:type="simple"><g id="elem_RulesManager"><rect codeLine="45" fill="#F1F1F1" height="67.0679" id="RulesManager" rx="2.5" ry="2.5" style="stroke:#181818;stroke-width:0.5;" width="157.5715" x="27" y="232.5"/><ellipse cx="58.3574" cy="248.5" fill="#B4A7E5" rx="11" ry="11" style="stroke:#181818;stroke-width:1.0;"/><path d="M54.2793,244.2656 L54.2793,242.1094 L61.6699,242.1094 L61.6699,244.2656 L59.2012,244.2656 L59.2012,252.3438 L61.6699,252.3438 L61.6699,254.5 L54.2793,254.5 L54.2793,252.3438 L56.7481,252.3438 L56.7481,244.2656 L54.2793,244.2656 Z " fill="#000000"/><text fill="#000000" font-family="sans-serif" font-size="14" font-style="italic" lengthAdjust="spacing" textLength="89.2217" x="75.9924" y="253.932">RulesManager</text><line style="stroke:#181818;stroke-width:0.5;" x1="28" x2="183.5715" y1="264.5" y2="264.5"/><line style="stroke:#181818;stroke-width:0.5;" x1="28" x2="183.5715" y1="272.5" y2="272.5"/><ellipse cx="38" cy="287.534" fill="#84BE84" rx="3" ry="3" style="stroke:#038048;stroke-width:1.0;"/><text fill="#000000" font-family="sans-serif" font-size="14" font-style="italic" lengthAdjust="spacing" textLength="131.5715" x="47" y="291.4659">processService(): void</text></g></a><!--class PoliticianComplianceCheckImpl--><a href="PoliticianComplianceCheckImpl.html" target="_top" title="PoliticianComplianceCheckImpl.html" xlink:actuate="onRequest" xlink:href="PoliticianComplianceCheckImpl.html" xlink:show="new" xlink:title="PoliticianComplianceCheckImpl.html" xlink:type="simple"><g id="elem_PoliticianComplianceCheckImpl"><rect codeLine="49" fill="#F1F1F1" height="257.7471" id="PoliticianComplianceCheckImpl" rx="2.5" ry="2.5" style="stroke:#181818;stroke-width:0.5;" width="1516.5468" x="1678.5" y="364"/><ellipse cx="2329.1828" cy="380" fill="#ADD1B2" rx="11" ry="11" style="stroke:#181818;stroke-width:1.0;"/><path d="M2332.1515,385.6406 Q2331.5734,385.9375 2330.9328,386.0781 Q2330.2922,386.2344 2329.589,386.2344 Q2327.089,386.2344 2325.7609,384.5938 Q2324.4484,382.9375 2324.4484,379.8125 Q2324.4484,376.6875 2325.7609,375.0313 Q2327.089,373.375 2329.589,373.375 Q2330.2922,373.375 2330.9328,373.5313 Q2331.589,373.6875 2332.1515,373.9844 L2332.1515,376.7031 Q2331.5265,376.125 2330.9328,375.8594 Q2330.339,375.5781 2329.714,375.5781 Q2328.3703,375.5781 2327.6828,376.6563 Q2326.9953,377.7188 2326.9953,379.8125 Q2326.9953,381.9063 2327.6828,382.9844 Q2328.3703,384.0469 2329.714,384.0469 Q2330.339,384.0469 2330.9328,383.7813 Q2331.5265,383.5 2332.1515,382.9219 L2332.1515,385.6406 Z " fill="#000000"/><text fill="#000000" font-family="sans-serif" font-size="14" lengthAdjust="spacing" textLength="206.6812" x="2349.6828" y="385.432">PoliticianComplianceCheckImpl</text><line style="stroke:#181818;stroke-width:0.5;" x1="1679.5" x2="3194.0468" y1="396" y2="396"/><line style="stroke:#181818;stroke-width:0.5;" x1="1679.5" x2="3194.0468" y1="404" y2="404"/><ellipse cx="1689.5" cy="419.034" fill="#84BE84" rx="3" ry="3" style="stroke:#038048;stroke-width:1.0;"/><text fill="#000000" font-family="sans-serif" font-size="14" lengthAdjust="spacing" textLength="1490.5468" x="1698.5" y="422.9659">PoliticianComplianceCheckImpl(ViewRiksdagenPolitician, ViewRiksdagenVoteDataBallotPoliticianSummaryDaily, ViewRiksdagenVoteDataBallotPoliticianSummaryMonthly, ViewRiksdagenVoteDataBallotPoliticianSummaryAnnual)</text><ellipse cx="1689.5" cy="438.1019" fill="#84BE84" rx="3" ry="3" style="stroke:#038048;stroke-width:1.0;"/><text fill="#000000" font-family="sans-serif" font-size="14" lengthAdjust="spacing" textLength="255.723" x="1698.5" y="442.0339">getPolitician(): ViewRiksdagenPolitician</text><ellipse cx="1689.5" cy="457.1698" fill="#84BE84" rx="3" ry="3" style="stroke:#038048;stroke-width:1.0;"/><text fill="#000000" font-family="sans-serif" font-size="14" lengthAdjust="spacing" textLength="116.2276" x="1698.5" y="461.1018">getName(): String</text><ellipse cx="1689.5" cy="476.2377" fill="#84BE84" rx="3" ry="3" style="stroke:#038048;stroke-width:1.0;"/><text fill="#000000" font-family="sans-serif" font-size="14" lengthAdjust="spacing" textLength="90.1037" x="1698.5" y="480.1697">getId(): String</text><ellipse cx="1689.5" cy="495.3056" fill="#84BE84" rx="3" ry="3" style="stroke:#038048;stroke-width:1.0;"/><text fill="#000000" font-family="sans-serif" font-size="14" lengthAdjust="spacing" textLength="486.0222" x="1698.5" y="499.2376">getDailySummary(): ViewRiksdagenVoteDataBallotPoliticianSummaryDaily</text><ellipse cx="1689.5" cy="514.3735" fill="#84BE84" rx="3" ry="3" style="stroke:#038048;stroke-width:1.0;"/><text fill="#000000" font-family="sans-serif" font-size="14" lengthAdjust="spacing" textLength="529.702" x="1698.5" y="518.3055">getMonthlySummary(): ViewRiksdagenVoteDataBallotPoliticianSummaryMonthly</text><ellipse cx="1689.5" cy="533.4415" fill="#84BE84" rx="3" ry="3" style="stroke:#038048;stroke-width:1.0;"/><text fill="#000000" font-family="sans-serif" font-size="14" lengthAdjust="spacing" textLength="513.8821" x="1698.5" y="537.3734">getAnnualSummary(): ViewRiksdagenVoteDataBallotPoliticianSummaryAnnual</text><ellipse cx="1689.5" cy="552.5094" fill="#84BE84" rx="3" ry="3" style="stroke:#038048;stroke-width:1.0;"/><text fill="#000000" font-family="sans-serif" font-size="14" lengthAdjust="spacing" text-decoration="underline" textLength="84.1257" x="1698.5" y="556.4414">getYear(): int</text><ellipse cx="1689.5" cy="571.5773" fill="#84BE84" rx="3" ry="3" style="stroke:#038048;stroke-width:1.0;"/><text fill="#000000" font-family="sans-serif" font-size="14" lengthAdjust="spacing" textLength="80.1217" x="1698.5" y="575.5093">getAge(): int</text><ellipse cx="1689.5" cy="590.6452" fill="#84BE84" rx="3" ry="3" style="stroke:#038048;stroke-width:1.0;"/><text fill="#000000" font-family="sans-serif" font-size="14" lengthAdjust="spacing" textLength="262.863" x="1698.5" y="594.5772">getCommitteeLeadershipRatio(): double</text><ellipse cx="1689.5" cy="609.7131" fill="#84BE84" rx="3" ry="3" style="stroke:#038048;stroke-width:1.0;"/><text fill="#000000" font-family="sans-serif" font-size="14" lengthAdjust="spacing" textLength="256.885" x="1698.5" y="613.6451">getCommitteeSubstituteRatio(): double</text></g></a><!--class ComplianceCheck--><g id="elem_ComplianceCheck"><rect codeLine="66" fill="#F1F1F1" height="124.2717" id="ComplianceCheck" rx="2.5" ry="2.5" style="stroke:#181818;stroke-width:0.5;" width="267.6671" x="1551" y="34"/><ellipse cx="1625.7597" cy="50" fill="#B4A7E5" rx="11" ry="11" style="stroke:#181818;stroke-width:1.0;"/><path d="M1621.6816,45.7656 L1621.6816,43.6094 L1629.0722,43.6094 L1629.0722,45.7656 L1626.6035,45.7656 L1626.6035,53.8438 L1629.0722,53.8438 L1629.0722,56 L1621.6816,56 L1621.6816,53.8438 L1624.1503,53.8438 L1624.1503,45.7656 L1621.6816,45.7656 Z " fill="#000000"/><text fill="#000000" font-family="sans-serif" font-size="14" font-style="italic" lengthAdjust="spacing" textLength="109.6476" x="1646.2597" y="55.432">ComplianceCheck</text><line style="stroke:#181818;stroke-width:0.5;" x1="1552" x2="1817.6671" y1="66" y2="66"/><line style="stroke:#181818;stroke-width:0.5;" x1="1552" x2="1817.6671" y1="74" y2="74"/><ellipse cx="1562" cy="89.034" fill="#84BE84" rx="3" ry="3" style="stroke:#038048;stroke-width:1.0;"/><text fill="#000000" font-family="sans-serif" font-size="14" font-style="italic" lengthAdjust="spacing" textLength="204.2593" x="1571" y="92.9659">getResourceType(): ResourceType</text><ellipse cx="1562" cy="108.1019" fill="#84BE84" rx="3" ry="3" style="stroke:#038048;stroke-width:1.0;"/><text fill="#000000" font-family="sans-serif" font-size="14" font-style="italic" lengthAdjust="spacing" textLength="241.6671" x="1571" y="112.0339">getRuleViolations(): List&lt;RuleViolation&gt;</text><ellipse cx="1562" cy="127.1698" fill="#84BE84" rx="3" ry="3" style="stroke:#038048;stroke-width:1.0;"/><text fill="#000000" font-family="sans-serif" font-size="14" font-style="italic" lengthAdjust="spacing" textLength="84.8397" x="1571" y="131.1018">getId(): String</text><ellipse cx="1562" cy="146.2377" fill="#84BE84" rx="3" ry="3" style="stroke:#038048;stroke-width:1.0;"/><text fill="#000000" font-family="sans-serif" font-size="14" font-style="italic" lengthAdjust="spacing" textLength="109.2836" x="1571" y="150.1697">getName(): String</text></g><polygon fill="none" points="106,299.7169,100,317.7169,112,317.7169,106,299.7169" style="stroke:#181818;stroke-width:1.0;"/><path d="M106,317.7169 C106,360.3754 106,416.5657 106,459.2436 " fill="none" style="stroke:#181818;stroke-width:1.0;stroke-dasharray:7.0,7.0;"/><polygon fill="none" points="3388,299.7169,3382,317.7169,3394,317.7169,3388,299.7169" style="stroke:#181818;stroke-width:1.0;"/><path d="M3388,317.7169 C3388,360.3754 3388,416.5657 3388,459.2436 " fill="none" style="stroke:#181818;stroke-width:1.0;stroke-dasharray:7.0,7.0;"/><polygon fill="none" points="1685,158.1271,1679,176.1271,1691,176.1271,1685,158.1271" style="stroke:#181818;stroke-width:1.0;"/><path d="M1685,176.1271 C1685,191.0443 1685,189.0033 1685,203.9184 " fill="none" style="stroke:#181818;stroke-width:1.0;stroke-dasharray:7.0,7.0;"/><polygon fill="none" points="1494.0342,324.2135,1475.0694,323.6318,1478.5134,335.127,1494.0342,324.2135" style="stroke:#181818;stroke-width:1.0;"/><path d="M1476.7914,329.3794 C1397.4833,353.1402 1320.8017,376.114 1232.7574,402.4921 " fill="none" style="stroke:#181818;stroke-width:1.0;"/><polygon fill="none" points="1875.7335,324.0679,1891.2583,334.9757,1894.698,323.4793,1875.7335,324.0679" style="stroke:#181818;stroke-width:1.0;"/><path d="M1892.9781,329.2275 C1934.4245,341.6283 1962.6302,350.0675 2009.1603,363.9894 " fill="none" style="stroke:#181818;stroke-width:1.0;"/><text fill="#888888" font-family="sans-serif" font-size="10" lengthAdjust="spacing" textLength="2.6" x="1779.2" y="642.69">&#160;</text><a href="https://github.com/talsma-ict/umldoclet" target="_top" title="https://github.com/talsma-ict/umldoclet" xlink:actuate="onRequest" xlink:href="https://github.com/talsma-ict/umldoclet" xlink:show="new" xlink:title="https://github.com/talsma-ict/umldoclet" xlink:type="simple"><text fill="#888888" font-family="sans-serif" font-size="10" lengthAdjust="spacing" textLength="76.7199" x="1742.14" y="656.31">UMLDoclet 2.2.1</text></a><!--SRC=[nLTjRzf84FxUNx6d-r2Y16ESKyjPg18brLrwfAg0HZfnV1ZiZRrYlUlRNQT2BV-zuvU0iR43YjJc2_7EFFEsyypk4aB8QpAMyKQn83J4I692ficNkma1uPE02gh0K9-m20AgoOfoAGATAr82YGcb8l8X-_AaKbJ7KlXC1EGZF0BHCb4UrTQhLoHpDN-o_XLqoVfgaoxUI8zJGphZYr98Zjr_qtLivmyo1wuZ8BVZkLLOssCSox7w16rpvb6XqMGYVAgoi4OnUFWpoILNv94gpQH0Z5tOILFrf330X2OnAAFJb3vp42QDjM-b_gstf3EQJGvZi__COhiY8oKWySbK_f_iqlqjLX1Wn1msCZ54HzI0W4oaCMPDqHKOh9_hvW0CT8rbnbWYAyJ_dMlBOs1fgXunU8j5CRTKmd4VlkM0zC_Ze3MPfijtQ3wWwXRro69HNR924_7b4h6az7SPAuaxf6Uvayw5InubytSwsxqd9WnL3-3HtDi74J11dnpbNyTzV8ELDWeyioMNk1NUEaEC9GR5GEHE9qoRuNvfdAgzEnP5AT_SPpdT_Kf3jYzs_vHA4SUe-An0YvXQf0tnjI0wKvhJQRw9wSKXBA2cB4qpAd_NbR42zqnoCCW4lIl0mVAxGnJu_axKcHamYRuYCwEGwqs_BRsKL-ypScrpl7HDeeQwDQbtxXdzEcLhxICDHAOrIw88rEQA78ZkfQ4tOE0zS2vDMN4aH0ByPFKx72GXFzty3J2-gMzdff9kJ6C2DSWdYBATpujV4z_wBS8iYi9mpUipmTUC5IKutrm1h1dCj-1yUpdkcIaobkA11OdAEljfa1miDlJScj5nVcfGbGRrJ-dxXFbPZERAf7v-Wfu-i0kIISuCmuD4D32jJTv4jpPCXNCxrNPAxDJAhNKUv2JgLK5vZnmXu4wnpiATw9Tny6YrNaZ4XdA-Z8t7ottOt1fF4-PjC-F_KiZ8X6IfEmveamZRC6B6K3gXW1S_7R9ucd8trVTbikAq6J9Ba5pC98OsGGfERK-wfa7CB6HgEZVMCIinPy__2cbQo7xEmLx5dNt6LmmqDcj5hw7dj-MQFNkbTTs3eJZyRbddWjBPSvQpuWPxbg_z3RFDrM4Fk6vrmqzrsN8TF3NJjXlgy7ktUugDfjlLJusXxSZ9csoepORJVKy_I9n5giAklv4sQiB4UYmvlhr-7noNVadVZnot6f-itbhWWKliIciFUoL_XQ__n68H6XDhjzSBc0cJbOMvzKpsTkqop_IIYFlvexNoV5qkY-VeNxjtSVgsxFQThkFC-mFNwRlNZZLmthvn1lRW-jBkkxQz-90e6TFUp4Xl7KeUBNy0]--></g></svg>