<?xml version="1.0" encoding="UTF-8" standalone="no"?><svg xmlns="http://www.w3.org/2000/svg" xmlns:xlink="http://www.w3.org/1999/xlink" contentScriptType="application/ecmascript" contentStyleType="text/css" height="290px" preserveAspectRatio="none" style="width:562px;height:290px;background:#FFFFFF;" version="1.1" viewBox="0 0 562 290" width="562px" zoomAndPan="magnify"><defs><filter height="300%" id="f2xzkpyzecdkx" width="300%" x="-1" y="-1"><feGaussianBlur result="blurOut" stdDeviation="2.0"/><feColorMatrix in="blurOut" result="blurOut2" type="matrix" values="0 0 0 0 0 0 0 0 0 0 0 0 0 0 0 0 0 0 .4 0"/><feOffset dx="4.0" dy="4.0" in="blurOut2" result="blurOut3"/><feBlend in="SourceGraphic" in2="blurOut3" mode="normal"/></filter></defs><g><!--MD5=[2fc79fc02b824a2bdf1da9a2a440a5c2]
cluster com.hack23.cia.web.impl.ui.application.views.admin.common--><polygon fill="#FFFFFF" filter="url(#f2xzkpyzecdkx)" points="16,155,504,155,511,177.2969,514,177.2969,514,267,16,267,16,155" style="stroke:#000000;stroke-width:1.5;"/><line style="stroke:#000000;stroke-width:1.5;" x1="16" x2="511" y1="177.2969" y2="177.2969"/><text fill="#000000" font-family="sans-serif" font-size="14" font-weight="bold" lengthAdjust="spacing" textLength="482" x="20" y="169.9951">com.hack23.cia.web.impl.ui.application.views.admin.common</text><!--MD5=[ca7137a5cb5dd6a4f240bec724ad43a0]
cluster com.hack23.cia.web.impl.ui.application.views.common--><polygon fill="#FFFFFF" filter="url(#f2xzkpyzecdkx)" points="99,6,535,6,542,28.2969,545,28.2969,545,131,99,131,99,6" style="stroke:#000000;stroke-width:1.5;"/><line style="stroke:#000000;stroke-width:1.5;" x1="99" x2="542" y1="28.2969" y2="28.2969"/><text fill="#000000" font-family="sans-serif" font-size="14" font-weight="bold" lengthAdjust="spacing" textLength="430" x="103" y="20.9951">com.hack23.cia.web.impl.ui.application.views.common</text><!--MD5=[b628d671c4eff2c1215f9ca2bed664d9]
class com.hack23.cia.web.impl.ui.application.views.admin.common.AbstractAdminView--><a href="AbstractAdminView.html" target="_top" title="AbstractAdminView.html" xlink:actuate="onRequest" xlink:href="AbstractAdminView.html" xlink:show="new" xlink:title="AbstractAdminView.html" xlink:type="simple"><rect codeLine="3" fill="#FEFECE" filter="url(#f2xzkpyzecdkx)" height="60.8047" id="com.hack23.cia.web.impl.ui.application.views.admin.common.AbstractAdminView" style="stroke:#A80036;stroke-width:1.5;" width="410" x="60" y="190"/><ellipse cx="201.25" cy="206" fill="#A9DCDF" rx="11" ry="11" style="stroke:#A80036;stroke-width:1.0;"/><path d="M201.3594,201.3438 L200.2031,206.4219 L202.5313,206.4219 L201.3594,201.3438 Z M199.875,199.1094 L202.8594,199.1094 L206.2188,211.5 L203.7656,211.5 L203,208.4375 L199.7188,208.4375 L198.9688,211.5 L196.5313,211.5 L199.875,199.1094 Z " fill="#000000"/><text fill="#000000" font-family="sans-serif" font-size="12" font-style="italic" lengthAdjust="spacing" textLength="119" x="221.75" y="210.1543">AbstractAdminView</text><line style="stroke:#A80036;stroke-width:1.5;" x1="61" x2="469" y1="222" y2="222"/><line style="stroke:#A80036;stroke-width:1.5;" x1="61" x2="469" y1="230" y2="230"/><polygon fill="#FFFF44" points="71,236,75,240,71,244,67,240" style="stroke:#B38D22;stroke-width:1.0;"/><text fill="#000000" font-family="sans-serif" font-size="11" lengthAdjust="spacing" textLength="384" x="80" y="244.2104">AbstractAdminView(Map&lt;String, PageModeContentFactory&gt;, String)</text></a><!--MD5=[39d9067b85bbf212528c68bdcb9daa3e]
class com.hack23.cia.web.impl.ui.application.views.common.AbstractView--><a href="../../common/AbstractView.html" target="_top" title="../../common/AbstractView.html" xlink:actuate="onRequest" xlink:href="../../common/AbstractView.html" xlink:show="new" xlink:title="../../common/AbstractView.html" xlink:type="simple"><rect codeLine="11" fill="#FEFECE" filter="url(#f2xzkpyzecdkx)" height="73.6094" id="com.hack23.cia.web.impl.ui.application.views.common.AbstractView" style="stroke:#A80036;stroke-width:1.5;" width="294" x="118" y="41"/><ellipse cx="220.25" cy="57" fill="#A9DCDF" rx="11" ry="11" style="stroke:#A80036;stroke-width:1.0;"/><path d="M220.3594,52.3438 L219.2031,57.4219 L221.5313,57.4219 L220.3594,52.3438 Z M218.875,50.1094 L221.8594,50.1094 L225.2188,62.5 L222.7656,62.5 L222,59.4375 L218.7188,59.4375 L217.9688,62.5 L215.5313,62.5 L218.875,50.1094 Z " fill="#000000"/><text fill="#000000" font-family="sans-serif" font-size="12" font-style="italic" lengthAdjust="spacing" textLength="81" x="240.75" y="61.1543">AbstractView</text><line style="stroke:#A80036;stroke-width:1.5;" x1="119" x2="411" y1="73" y2="73"/><polygon fill="none" points="129,79,133,83,129,87,125,83" style="stroke:#B38D22;stroke-width:1.0;"/><text fill="#000000" font-family="sans-serif" font-size="11" lengthAdjust="spacing" textLength="268" x="138" y="87.2104">pageActionEventHelper: PageActionEventHelper</text><polygon fill="none" points="129,91.8047,133,95.8047,129,99.8047,125,95.8047" style="stroke:#B38D22;stroke-width:1.0;"/><text fill="#000000" font-family="sans-serif" font-size="11" lengthAdjust="spacing" textLength="190" x="138" y="100.0151">pageLinkFactory: PageLinkFactory</text><line style="stroke:#A80036;stroke-width:1.5;" x1="119" x2="411" y1="106.6094" y2="106.6094"/></a><!--MD5=[a2a1d745cf0b18f59754781b770103ab]
reverse link com.hack23.cia.web.impl.ui.application.views.common.AbstractView to com.hack23.cia.web.impl.ui.application.views.admin.common.AbstractAdminView--><path codeLine="7" d="M265,135.29 C265,153.86 265,173.79 265,189.6 " fill="none" id="com.hack23.cia.web.impl.ui.application.views.common.AbstractView-backto-com.hack23.cia.web.impl.ui.application.views.admin.common.AbstractAdminView" style="stroke:#A80036;stroke-width:1.0;"/><polygon fill="none" points="258,135.18,265,115.18,272,135.18,258,135.18" style="stroke:#A80036;stroke-width:1.0;"/><text fill="#888888" font-family="sans-serif" font-size="10" lengthAdjust="spacing" textLength="186" x="181.5" y="282.2822">UMLDoclet 2.0.14, PlantUML 1.2021.9</text><!--MD5=[f8ad272b203c33a023d2cb8699da255f]
@startuml
    namespace com.hack23.cia.web.impl.ui.application.views.admin.common {

        abstract class AbstractAdminView [[AbstractAdminView.html]] {
            #AbstractAdminView(Map<String, PageModeContentFactory>, String)
        }

        com.hack23.cia.web.impl.ui.application.views.common.AbstractView <|- - AbstractAdminView
    }

    namespace com.hack23.cia.web.impl.ui.application.views.common {
        abstract class AbstractView [[../../common/AbstractView.html]] {
            #pageActionEventHelper: PageActionEventHelper
            #pageLinkFactory: PageLinkFactory
        }
    }

    center footer UMLDoclet 2.0.14, PlantUML 1.2021.9
@enduml

PlantUML version 1.2021.9(Sun Jul 25 12:13:56 CEST 2021)
(APACHE source distribution)
Java Runtime: OpenJDK Runtime Environment
JVM: OpenJDK 64-Bit Server VM
Default Encoding: UTF-8
Language: en
Country: US
--></g></svg>