<svg xmlns="http://www.w3.org/2000/svg" xmlns:xlink="http://www.w3.org/1999/xlink" contentStyleType="text/css" height="331px" preserveAspectRatio="none" style="width:1072px;height:331px;background:#FFFFFF;" version="1.1" viewBox="0 0 1072 331" width="1072px" zoomAndPan="magnify"><defs/><g><!--class com.hack23.cia.web.impl.ui.application.views.common.chartfactory.impl.AdminChartDataManagerImpl--><a href="AdminChartDataManagerImpl.html" target="_top" title="AdminChartDataManagerImpl.html" xlink:actuate="onRequest" xlink:href="AdminChartDataManagerImpl.html" xlink:show="new" xlink:title="AdminChartDataManagerImpl.html" xlink:type="simple"><g id="elem_com.hack23.cia.web.impl.ui.application.views.common.chartfactory.impl.AdminChartDataManagerImpl"><rect codeLine="13" fill="#F1F1F1" height="126.9596" id="com.hack23.cia.web.impl.ui.application.views.common.chartfactory.impl.AdminChartDataManagerImpl" rx="2.5" ry="2.5" style="stroke:#181818;stroke-width:0.5;" width="729.5536" x="87" y="175"/><ellipse cx="277.632" cy="196.344" fill="#ADD1B2" rx="11" ry="11" style="stroke:#181818;stroke-width:1.0;"/><path d="M280.6007,201.9846 Q280.0226,202.2815 279.382,202.4221 Q278.7414,202.5783 278.0382,202.5783 Q275.5382,202.5783 274.2101,200.9377 Q272.8976,199.2815 272.8976,196.1565 Q272.8976,193.0315 274.2101,191.3752 Q275.5382,189.719 278.0382,189.719 Q278.7414,189.719 279.382,189.8752 Q280.0382,190.0315 280.6007,190.3283 L280.6007,193.0471 Q279.9757,192.469 279.382,192.2033 Q278.7882,191.9221 278.1632,191.9221 Q276.8195,191.9221 276.132,193.0002 Q275.4445,194.0627 275.4445,196.1565 Q275.4445,198.2502 276.132,199.3283 Q276.8195,200.3908 278.1632,200.3908 Q278.7882,200.3908 279.382,200.1252 Q279.9757,199.844 280.6007,199.2658 L280.6007,201.9846 Z " fill="#000000"/><text fill="#000000" font-family="sans-serif" font-size="14" lengthAdjust="spacing" textLength="199.4853" x="368.2842" y="194.9659">AdminChartDataManagerImpl</text><text fill="#000000" font-family="sans-serif" font-size="10" lengthAdjust="spacing" textLength="339.7897" x="298.132" y="209.7579">com.hack23.cia.web.impl.ui.application.views.common.chartfactory.impl</text><line style="stroke:#181818;stroke-width:0.5;" x1="88" x2="815.5536" y1="217.6879" y2="217.6879"/><ellipse cx="98" cy="232.7219" fill="#84BE84" rx="3" ry="3" style="stroke:#038048;stroke-width:1.0;"/><text fill="#000000" font-family="sans-serif" font-size="14" lengthAdjust="spacing" textLength="555.994" x="107" y="236.6538">createApplicationActionEventPageDailySummaryChart(AbstractOrderedLayout): void</text><ellipse cx="98" cy="251.7898" fill="#84BE84" rx="3" ry="3" style="stroke:#038048;stroke-width:1.0;"/><text fill="#000000" font-family="sans-serif" font-size="14" lengthAdjust="spacing" textLength="703.5536" x="107" y="255.7218">createApplicationActionEventPageElementDailySummaryChart(AbstractOrderedLayout, String, String): void</text><ellipse cx="98" cy="270.8577" fill="#84BE84" rx="3" ry="3" style="stroke:#038048;stroke-width:1.0;"/><text fill="#000000" font-family="sans-serif" font-size="14" lengthAdjust="spacing" textLength="640.4559" x="107" y="274.7897">createApplicationActionEventPageModeDailySummaryChart(AbstractOrderedLayout, String): void</text><ellipse cx="98" cy="289.9256" fill="#84BE84" rx="3" ry="3" style="stroke:#038048;stroke-width:1.0;"/><text fill="#000000" font-family="sans-serif" font-size="14" lengthAdjust="spacing" textLength="466.4642" x="107" y="293.8576">createApplicationSessionPageDailySummaryChart(VerticalLayout): void</text></g></a><!--class com.hack23.cia.web.impl.ui.application.views.common.chartfactory.impl.AbstractChartDataManagerImpl--><a href="AbstractChartDataManagerImpl.html" target="_top" title="AbstractChartDataManagerImpl.html" xlink:actuate="onRequest" xlink:href="AbstractChartDataManagerImpl.html" xlink:show="new" xlink:title="AbstractChartDataManagerImpl.html" xlink:type="simple"><g id="elem_com.hack23.cia.web.impl.ui.application.views.common.chartfactory.impl.AbstractChartDataManagerImpl"><rect codeLine="20" fill="#F1F1F1" height="42.6879" id="com.hack23.cia.web.impl.ui.application.views.common.chartfactory.impl.AbstractChartDataManagerImpl" rx="2.5" ry="2.5" style="stroke:#181818;stroke-width:0.5;" width="354.1597" x="6" y="54"/><ellipse cx="21" cy="75.344" fill="#A9DCDF" rx="11" ry="11" style="stroke:#181818;stroke-width:1.0;"/><path d="M21.1094,70.6877 L19.9531,75.7658 L22.2813,75.7658 L21.1094,70.6877 Z M19.625,68.4533 L22.6094,68.4533 L25.9688,80.844 L23.5156,80.844 L22.75,77.7815 L19.4688,77.7815 L18.7188,80.844 L16.2813,80.844 L19.625,68.4533 Z " fill="#000000"/><text fill="#000000" font-family="sans-serif" font-size="14" font-style="italic" lengthAdjust="spacing" textLength="200.5212" x="95.8192" y="73.9659">AbstractChartDataManagerImpl</text><text fill="#000000" font-family="sans-serif" font-size="10" font-style="italic" lengthAdjust="spacing" textLength="322.1597" x="35" y="88.7579">com.hack23.cia.web.impl.ui.application.views.common.chartfactory.impl</text></g></a><!--class com.hack23.cia.web.impl.ui.application.views.common.chartfactory.api.AdminChartDataManager--><a href="../api/AdminChartDataManager.html" target="_top" title="../api/AdminChartDataManager.html" xlink:actuate="onRequest" xlink:href="../api/AdminChartDataManager.html" xlink:show="new" xlink:title="../api/AdminChartDataManager.html" xlink:type="simple"><g id="elem_com.hack23.cia.web.impl.ui.application.views.common.chartfactory.api.AdminChartDataManager"><rect codeLine="21" fill="#F1F1F1" height="126.9596" id="com.hack23.cia.web.impl.ui.application.views.common.chartfactory.api.AdminChartDataManager" rx="2.5" ry="2.5" style="stroke:#181818;stroke-width:0.5;" width="686.8951" x="378.5" y="12"/><ellipse cx="559.4427" cy="33.344" fill="#B4A7E5" rx="11" ry="11" style="stroke:#181818;stroke-width:1.0;"/><path d="M555.3646,29.1096 L555.3646,26.9533 L562.7552,26.9533 L562.7552,29.1096 L560.2865,29.1096 L560.2865,37.1877 L562.7552,37.1877 L562.7552,39.344 L555.3646,39.344 L555.3646,37.1877 L557.8333,37.1877 L557.8333,29.1096 L555.3646,29.1096 Z " fill="#000000"/><text fill="#000000" font-family="sans-serif" font-size="14" font-style="italic" lengthAdjust="spacing" textLength="160.7754" x="657.8099" y="31.9659">AdminChartDataManager</text><text fill="#000000" font-family="sans-serif" font-size="10" font-style="italic" lengthAdjust="spacing" textLength="316.5096" x="579.9427" y="46.7579">com.hack23.cia.web.impl.ui.application.views.common.chartfactory.api</text><line style="stroke:#181818;stroke-width:0.5;" x1="379.5" x2="1064.3951" y1="54.6879" y2="54.6879"/><ellipse cx="389.5" cy="69.7219" fill="#84BE84" rx="3" ry="3" style="stroke:#038048;stroke-width:1.0;"/><text fill="#000000" font-family="sans-serif" font-size="14" font-style="italic" lengthAdjust="spacing" textLength="522.4357" x="398.5" y="73.6538">createApplicationActionEventPageDailySummaryChart(AbstractOrderedLayout): void</text><ellipse cx="389.5" cy="88.7898" fill="#84BE84" rx="3" ry="3" style="stroke:#038048;stroke-width:1.0;"/><text fill="#000000" font-family="sans-serif" font-size="14" font-style="italic" lengthAdjust="spacing" textLength="660.8951" x="398.5" y="92.7218">createApplicationActionEventPageElementDailySummaryChart(AbstractOrderedLayout, String, String): void</text><ellipse cx="389.5" cy="107.8577" fill="#84BE84" rx="3" ry="3" style="stroke:#038048;stroke-width:1.0;"/><text fill="#000000" font-family="sans-serif" font-size="14" font-style="italic" lengthAdjust="spacing" textLength="601.5214" x="398.5" y="111.7897">createApplicationActionEventPageModeDailySummaryChart(AbstractOrderedLayout, String): void</text><ellipse cx="389.5" cy="126.9256" fill="#84BE84" rx="3" ry="3" style="stroke:#038048;stroke-width:1.0;"/><text fill="#000000" font-family="sans-serif" font-size="14" font-style="italic" lengthAdjust="spacing" textLength="440.1021" x="398.5" y="130.8576">createApplicationSessionPageDailySummaryChart(VerticalLayout): void</text></g></a><polygon fill="none" points="217.3423,97.0543,229.7059,111.4467,235.8686,101.15,217.3423,97.0543" style="stroke:#181818;stroke-width:1.0;"/><path d="M232.7873,106.2983 C265.5766,125.9232 301.2427,147.2698 347.4038,174.8978 " fill="none" style="stroke:#181818;stroke-width:1.0;"/><polygon fill="none" points="616.8378,139.2078,598.3048,143.2732,604.4507,153.58,616.8378,139.2078" style="stroke:#181818;stroke-width:1.0;"/><path d="M601.3777,148.4266 C581.6845,160.1696 576.5597,163.2255 556.8752,174.9633 " fill="none" style="stroke:#181818;stroke-width:1.0;stroke-dasharray:7.0,7.0;"/><text fill="#888888" font-family="sans-serif" font-size="10" lengthAdjust="spacing" textLength="2.6" x="530.95" y="306.69">&#160;</text><a href="https://github.com/talsma-ict/umldoclet" target="_top" title="https://github.com/talsma-ict/umldoclet" xlink:actuate="onRequest" xlink:href="https://github.com/talsma-ict/umldoclet" xlink:show="new" xlink:title="https://github.com/talsma-ict/umldoclet" xlink:type="simple"><text fill="#888888" font-family="sans-serif" font-size="10" lengthAdjust="spacing" textLength="76.7199" x="493.89" y="320.31">UMLDoclet 2.2.1</text></a><!--SRC=[rLPDJzj04BtpAwRq00YoSG8b426aAA2MAgYeWLu2XybwY5UiTztTTP0B_FUEdV1Hlb53fVeGnpkpxyqypwm70601kZOhd1eb0OA5a2WFH_izG1F3Y0mv31I3Id547eQahHdvYIC1vY6n3knfzIIjS-GpQs9bHl0LnmZUvawI5tDpK54TNgEVex-3FYpAnHqhDGLOx2xT2QaPDTPhpQZv2GvH-nHXhtiefcYtUvgYAHh0s5f9CfuXSnEJgyBgP2ZvrfjOLc1CpYjhU4yqnIbJbTO4LCP3XYxuCgK3ZIQKiJO4yw-95Yns-hq_OuisgzXMeECCvZ5yjp_pctG_P0v77B76mkO1V4e13KvideCscB9SAAbFJ8g1bJJMK6LFL4n0QHOAE5MaOtz_bS4IoylLkjJeFSnlUVMBsesrxKwSAjDDE9CT3BZFh2DoUsccZytK9zgMDXK9ohFcgf0AnJaDXM8FaIk1MSOwOc2Ln5ZHkHVidFA3B25FKNAeHUKz3_mUPu8ademP1eCdRI89gJuvWOjAXl9QbewufZgtn1rP_kwEoOG3thU3IXVzF4tH5HNaOcVeW-DGlZak6OfxrUjQQiFOglZrkBkQKlxxIlWLw0V7RN9zVpFTletfZLmlS_J9bwtnk4m_o0Nsqm_rkPfK8Kx97vRZrF2_LUGpOPT5-OnvMfULBCe4SWnCBpNeBAN0JCr62GPwl3LP0I7gRAu_QdxOcHVNzN7rRatw5ehPzkjRc6VGki_I_LqN_uFUsRgirTxxgp6RN9wk_grB8TuzXog9BHyAJTitx_xKMZvGxZHMUNqfCd8zPSwwLlCSyN7ZSUjHEHLfPOW7CNbck50Wkl6ycj3Lx_1DkOxDO924aFbslJvI8Sc7PJRrK4raDIL3FKzrF1d5xWrbqqDm0JxVJ7lbn5IBMhN6wc4ZujEk7RN4vdgZ5MrihhMMesOxYWQxkRCPrVl1ohF4wlJaDm00]--></g></svg>