<svg xmlns="http://www.w3.org/2000/svg" xmlns:xlink="http://www.w3.org/1999/xlink" contentStyleType="text/css" height="217px" preserveAspectRatio="none" style="width:746px;height:217px;background:#FFFFFF;" version="1.1" viewBox="0 0 746 217" width="746px" zoomAndPan="magnify"><defs/><g><!--class com.hack23.cia.web.impl.ui.application.views.common.chartfactory.impl.PartyCoalationChartDataManagerImpl--><a href="PartyCoalationChartDataManagerImpl.html" target="_top" title="PartyCoalationChartDataManagerImpl.html" xlink:actuate="onRequest" xlink:href="PartyCoalationChartDataManagerImpl.html" xlink:show="new" xlink:title="PartyCoalationChartDataManagerImpl.html" xlink:type="simple"><g id="elem_com.hack23.cia.web.impl.ui.application.views.common.chartfactory.impl.PartyCoalationChartDataManagerImpl"><rect codeLine="13" fill="#F1F1F1" height="69.7558" id="com.hack23.cia.web.impl.ui.application.views.common.chartfactory.impl.PartyCoalationChartDataManagerImpl" rx="2.5" ry="2.5" style="stroke:#181818;stroke-width:0.5;" width="382.8168" x="179.5" y="118"/><ellipse cx="199.4622" cy="139.344" fill="#ADD1B2" rx="11" ry="11" style="stroke:#181818;stroke-width:1.0;"/><path d="M202.4309,144.9846 Q201.8528,145.2815 201.2122,145.4221 Q200.5716,145.5783 199.8684,145.5783 Q197.3684,145.5783 196.0403,143.9377 Q194.7278,142.2815 194.7278,139.1565 Q194.7278,136.0315 196.0403,134.3752 Q197.3684,132.719 199.8684,132.719 Q200.5716,132.719 201.2122,132.8752 Q201.8684,133.0315 202.4309,133.3283 L202.4309,136.0471 Q201.8059,135.469 201.2122,135.2033 Q200.6184,134.9221 199.9934,134.9221 Q198.6497,134.9221 197.9622,136.0002 Q197.2747,137.0627 197.2747,139.1565 Q197.2747,141.2502 197.9622,142.3283 Q198.6497,143.3908 199.9934,143.3908 Q200.6184,143.3908 201.2122,143.1252 Q201.8059,142.844 202.4309,142.2658 L202.4309,144.9846 Z " fill="#000000"/><text fill="#000000" font-family="sans-serif" font-size="14" lengthAdjust="spacing" textLength="253.3011" x="257.8092" y="137.9659">PartyCoalationChartDataManagerImpl</text><text fill="#000000" font-family="sans-serif" font-size="10" lengthAdjust="spacing" textLength="339.7897" x="214.5649" y="152.7579">com.hack23.cia.web.impl.ui.application.views.common.chartfactory.impl</text><line style="stroke:#181818;stroke-width:0.5;" x1="180.5" x2="561.3168" y1="160.6879" y2="160.6879"/><ellipse cx="190.5" cy="175.7219" fill="#84BE84" rx="3" ry="3" style="stroke:#038048;stroke-width:1.0;"/><text fill="#000000" font-family="sans-serif" font-size="14" lengthAdjust="spacing" textLength="356.8168" x="199.5" y="179.6538">createPartyChart(AbstractOrderedLayout, String): void</text></g></a><!--class com.hack23.cia.web.impl.ui.application.views.common.chartfactory.impl.AbstractChartDataManagerImpl--><a href="AbstractChartDataManagerImpl.html" target="_top" title="AbstractChartDataManagerImpl.html" xlink:actuate="onRequest" xlink:href="AbstractChartDataManagerImpl.html" xlink:show="new" xlink:title="AbstractChartDataManagerImpl.html" xlink:type="simple"><g id="elem_com.hack23.cia.web.impl.ui.application.views.common.chartfactory.impl.AbstractChartDataManagerImpl"><rect codeLine="17" fill="#F1F1F1" height="42.6879" id="com.hack23.cia.web.impl.ui.application.views.common.chartfactory.impl.AbstractChartDataManagerImpl" rx="2.5" ry="2.5" style="stroke:#181818;stroke-width:0.5;" width="354.1597" x="6" y="25.5"/><ellipse cx="21" cy="46.844" fill="#A9DCDF" rx="11" ry="11" style="stroke:#181818;stroke-width:1.0;"/><path d="M21.1094,42.1877 L19.9531,47.2658 L22.2813,47.2658 L21.1094,42.1877 Z M19.625,39.9533 L22.6094,39.9533 L25.9688,52.344 L23.5156,52.344 L22.75,49.2815 L19.4688,49.2815 L18.7188,52.344 L16.2813,52.344 L19.625,39.9533 Z " fill="#000000"/><text fill="#000000" font-family="sans-serif" font-size="14" font-style="italic" lengthAdjust="spacing" textLength="200.5212" x="95.8192" y="45.4659">AbstractChartDataManagerImpl</text><text fill="#000000" font-family="sans-serif" font-size="10" font-style="italic" lengthAdjust="spacing" textLength="322.1597" x="35" y="60.2579">com.hack23.cia.web.impl.ui.application.views.common.chartfactory.impl</text></g></a><!--class com.hack23.cia.web.impl.ui.application.views.common.chartfactory.api.PartyCoalationChartDataManager--><a href="../api/PartyCoalationChartDataManager.html" target="_top" title="../api/PartyCoalationChartDataManager.html" xlink:actuate="onRequest" xlink:href="../api/PartyCoalationChartDataManager.html" xlink:show="new" xlink:title="../api/PartyCoalationChartDataManager.html" xlink:type="simple"><g id="elem_com.hack23.cia.web.impl.ui.application.views.common.chartfactory.api.PartyCoalationChartDataManager"><rect codeLine="18" fill="#F1F1F1" height="69.7558" id="com.hack23.cia.web.impl.ui.application.views.common.chartfactory.api.PartyCoalationChartDataManager" rx="2.5" ry="2.5" style="stroke:#181818;stroke-width:0.5;" width="361.8727" x="378" y="12"/><ellipse cx="399.0134" cy="33.344" fill="#B4A7E5" rx="11" ry="11" style="stroke:#181818;stroke-width:1.0;"/><path d="M394.9353,29.1096 L394.9353,26.9533 L402.3259,26.9533 L402.3259,29.1096 L399.8571,29.1096 L399.8571,37.1877 L402.3259,37.1877 L402.3259,39.344 L394.9353,39.344 L394.9353,37.1877 L397.404,37.1877 L397.404,29.1096 L394.9353,29.1096 Z " fill="#000000"/><text fill="#000000" font-family="sans-serif" font-size="14" font-style="italic" lengthAdjust="spacing" textLength="213.3452" x="465.9319" y="31.9659">PartyCoalationChartDataManager</text><text fill="#000000" font-family="sans-serif" font-size="10" font-style="italic" lengthAdjust="spacing" textLength="316.5096" x="414.3497" y="46.7579">com.hack23.cia.web.impl.ui.application.views.common.chartfactory.api</text><line style="stroke:#181818;stroke-width:0.5;" x1="379" x2="738.8727" y1="54.6879" y2="54.6879"/><ellipse cx="389" cy="69.7219" fill="#84BE84" rx="3" ry="3" style="stroke:#038048;stroke-width:1.0;"/><text fill="#000000" font-family="sans-serif" font-size="14" font-style="italic" lengthAdjust="spacing" textLength="335.8727" x="398" y="73.6538">createPartyChart(AbstractOrderedLayout, String): void</text></g></a><polygon fill="none" points="220.1428,68.5471,232.989,82.5104,238.7977,72.01,220.1428,68.5471" style="stroke:#181818;stroke-width:1.0;"/><path d="M235.8934,77.2602 C261.3617,91.349 279.999,101.659 309.5109,117.9847 " fill="none" style="stroke:#181818;stroke-width:1.0;"/><polygon fill="none" points="497.4418,82.0535,478.7868,85.5164,484.5955,96.0168,497.4418,82.0535" style="stroke:#181818;stroke-width:1.0;"/><path d="M481.6912,90.7666 C460.9162,102.2591 453.4821,106.3716 432.6965,117.87 " fill="none" style="stroke:#181818;stroke-width:1.0;stroke-dasharray:7.0,7.0;"/><text fill="#888888" font-family="sans-serif" font-size="10" lengthAdjust="spacing" textLength="2.6" x="368.2" y="192.69">&#160;</text><a href="https://github.com/talsma-ict/umldoclet" target="_top" title="https://github.com/talsma-ict/umldoclet" xlink:actuate="onRequest" xlink:href="https://github.com/talsma-ict/umldoclet" xlink:show="new" xlink:title="https://github.com/talsma-ict/umldoclet" xlink:type="simple"><text fill="#888888" font-family="sans-serif" font-size="10" lengthAdjust="spacing" textLength="76.7199" x="331.14" y="206.31">UMLDoclet 2.2.1</text></a><!--SRC=[rLLHJzim47xVhxYn1q1GDmriXQf2gigqCHKDhUMfy71rhedLnCvifoW3_likQUawc8272cbvgUmxV_VTvyyz081jw9kyj2fEF7W3Fb4EBiy7W3g2c3HPz1I1oZ0c1nDAZOxT8f402vyO2sPQhwInbbnkTAHq3DzmZk1COIKvyUuTrAL63-WtwDRG9sMrUMfaIXvs-hjhbCAWzQaH1k57667gCeIp_aWiqVwS2KKeMi3OgPAa7KCMEY9Rq-hbAFbdi8ZimvoiKqRpcM29KxKgZVQej8CShNTLInSfQbznRGckVoZQiDCR3lxc5XpNtFQXPpKM4VmmFujLk-zpYp4pJh4qXGUNaKUDYvXZqXepbWib3OcBecSbjT5KnnCL4L2M-nAcYjB8FTvbiCJmThqlKtGEjhfE_Q9Ew_3aWdie-mPJzDnfF-7bANeyv_8nsRCiJw_qCZauaIOJ2SfPU22aGd534w4uGnHAO9wpe3M8c2kwSOAJCrx82dAAaZcNTVOMy8Lk14cyJ1x6uvUJHEApzFeQRck5gczFMcAxBOvM9tPw4-Sjr_vksImK3UgBseUXj-pWtGxCZOhgu_SBdN6P_qJm1w3_JEhdQBF8puMNyjQoAEt9CZ2zseARr0HpjHb96EW5yx4cGZGvh_bytbFltJvOvtu3Ddo3o-_UDHflzfutqzGhhgzx9yJRTLMtrNM-JEbaPOIfCVnOrfnHVL_BdEn0wLdVf3m5FXpzEtfPpRHKQU8nAcUQ-2yeM6NUByerr-ejQrtfyJZnFdUTPZDMFYacLLjDNy_JXfA-MMHfj1YaZqRgye5lmvVLhAxcNIDeDre7erR03xWJjCLn6BIF3evQXtj1s0c2yUV2cfoQGs_aB35fTlqR]--></g></svg>