<svg xmlns="http://www.w3.org/2000/svg" xmlns:xlink="http://www.w3.org/1999/xlink" contentStyleType="text/css" height="217px" preserveAspectRatio="none" style="width:782px;height:217px;background:#FFFFFF;" version="1.1" viewBox="0 0 782 217" width="782px" zoomAndPan="magnify"><defs/><g><!--class com.hack23.cia.web.impl.ui.application.views.common.chartfactory.impl.PoliticianDataManagerImpl--><a href="PoliticianDataManagerImpl.html" target="_top" title="PoliticianDataManagerImpl.html" xlink:actuate="onRequest" xlink:href="PoliticianDataManagerImpl.html" xlink:show="new" xlink:title="PoliticianDataManagerImpl.html" xlink:type="simple"><g id="elem_com.hack23.cia.web.impl.ui.application.views.common.chartfactory.impl.PoliticianDataManagerImpl"><rect codeLine="13" fill="#F1F1F1" height="69.7558" id="com.hack23.cia.web.impl.ui.application.views.common.chartfactory.impl.PoliticianDataManagerImpl" rx="2.5" ry="2.5" style="stroke:#181818;stroke-width:0.5;" width="421.9886" x="169" y="118"/><ellipse cx="206.5895" cy="139.344" fill="#ADD1B2" rx="11" ry="11" style="stroke:#181818;stroke-width:1.0;"/><path d="M209.5583,144.9846 Q208.9801,145.2815 208.3395,145.4221 Q207.6989,145.5783 206.9958,145.5783 Q204.4958,145.5783 203.1676,143.9377 Q201.8551,142.2815 201.8551,139.1565 Q201.8551,136.0315 203.1676,134.3752 Q204.4958,132.719 206.9958,132.719 Q207.6989,132.719 208.3395,132.8752 Q208.9958,133.0315 209.5583,133.3283 L209.5583,136.0471 Q208.9333,135.469 208.3395,135.2033 Q207.7458,134.9221 207.1208,134.9221 Q205.777,134.9221 205.0895,136.0002 Q204.402,137.0627 204.402,139.1565 Q204.402,141.2502 205.0895,142.3283 Q205.777,143.3908 207.1208,143.3908 Q207.7458,143.3908 208.3395,143.1252 Q208.9333,142.844 209.5583,142.2658 L209.5583,144.9846 Z " fill="#000000"/><text fill="#000000" font-family="sans-serif" font-size="14" lengthAdjust="spacing" textLength="180.0533" x="305.4776" y="137.9659">PoliticianDataManagerImpl</text><text fill="#000000" font-family="sans-serif" font-size="10" lengthAdjust="spacing" textLength="339.7897" x="225.6094" y="152.7579">com.hack23.cia.web.impl.ui.application.views.common.chartfactory.impl</text><line style="stroke:#181818;stroke-width:0.5;" x1="170" x2="589.9886" y1="160.6879" y2="160.6879"/><ellipse cx="180" cy="175.7219" fill="#84BE84" rx="3" ry="3" style="stroke:#038048;stroke-width:1.0;"/><text fill="#000000" font-family="sans-serif" font-size="14" lengthAdjust="spacing" textLength="395.9886" x="189" y="179.6538">createPersonLineChart(AbstractOrderedLayout, String): void</text></g></a><!--class com.hack23.cia.web.impl.ui.application.views.common.chartfactory.impl.AbstractChartDataManagerImpl--><a href="AbstractChartDataManagerImpl.html" target="_top" title="AbstractChartDataManagerImpl.html" xlink:actuate="onRequest" xlink:href="AbstractChartDataManagerImpl.html" xlink:show="new" xlink:title="AbstractChartDataManagerImpl.html" xlink:type="simple"><g id="elem_com.hack23.cia.web.impl.ui.application.views.common.chartfactory.impl.AbstractChartDataManagerImpl"><rect codeLine="17" fill="#F1F1F1" height="42.6879" id="com.hack23.cia.web.impl.ui.application.views.common.chartfactory.impl.AbstractChartDataManagerImpl" rx="2.5" ry="2.5" style="stroke:#181818;stroke-width:0.5;" width="354.1597" x="6" y="25.5"/><ellipse cx="21" cy="46.844" fill="#A9DCDF" rx="11" ry="11" style="stroke:#181818;stroke-width:1.0;"/><path d="M21.1094,42.1877 L19.9531,47.2658 L22.2813,47.2658 L21.1094,42.1877 Z M19.625,39.9533 L22.6094,39.9533 L25.9688,52.344 L23.5156,52.344 L22.75,49.2815 L19.4688,49.2815 L18.7188,52.344 L16.2813,52.344 L19.625,39.9533 Z " fill="#000000"/><text fill="#000000" font-family="sans-serif" font-size="14" font-style="italic" lengthAdjust="spacing" textLength="200.5212" x="95.8192" y="45.4659">AbstractChartDataManagerImpl</text><text fill="#000000" font-family="sans-serif" font-size="10" font-style="italic" lengthAdjust="spacing" textLength="322.1597" x="35" y="60.2579">com.hack23.cia.web.impl.ui.application.views.common.chartfactory.impl</text></g></a><!--class com.hack23.cia.web.impl.ui.application.views.common.chartfactory.api.PoliticianChartDataManager--><a href="../api/PoliticianChartDataManager.html" target="_top" title="../api/PoliticianChartDataManager.html" xlink:actuate="onRequest" xlink:href="../api/PoliticianChartDataManager.html" xlink:show="new" xlink:title="../api/PoliticianChartDataManager.html" xlink:type="simple"><g id="elem_com.hack23.cia.web.impl.ui.application.views.common.chartfactory.api.PoliticianChartDataManager"><rect codeLine="18" fill="#F1F1F1" height="69.7558" id="com.hack23.cia.web.impl.ui.application.views.common.chartfactory.api.PoliticianChartDataManager" rx="2.5" ry="2.5" style="stroke:#181818;stroke-width:0.5;" width="397.1525" x="378.5" y="12"/><ellipse cx="415.3893" cy="33.344" fill="#B4A7E5" rx="11" ry="11" style="stroke:#181818;stroke-width:1.0;"/><path d="M411.3112,29.1096 L411.3112,26.9533 L418.7018,26.9533 L418.7018,29.1096 L416.233,29.1096 L416.233,37.1877 L418.7018,37.1877 L418.7018,39.344 L411.3112,39.344 L411.3112,37.1877 L413.7799,37.1877 L413.7799,29.1096 L411.3112,29.1096 Z " fill="#000000"/><text fill="#000000" font-family="sans-serif" font-size="14" font-style="italic" lengthAdjust="spacing" textLength="178.1493" x="503.4338" y="31.9659">PoliticianChartDataManager</text><text fill="#000000" font-family="sans-serif" font-size="10" font-style="italic" lengthAdjust="spacing" textLength="316.5096" x="434.2536" y="46.7579">com.hack23.cia.web.impl.ui.application.views.common.chartfactory.api</text><line style="stroke:#181818;stroke-width:0.5;" x1="379.5" x2="774.6525" y1="54.6879" y2="54.6879"/><ellipse cx="389.5" cy="69.7219" fill="#84BE84" rx="3" ry="3" style="stroke:#038048;stroke-width:1.0;"/><text fill="#000000" font-family="sans-serif" font-size="14" font-style="italic" lengthAdjust="spacing" textLength="371.1525" x="398.5" y="73.6538">createPersonLineChart(AbstractOrderedLayout, String): void</text></g></a><polygon fill="none" points="221.9209,68.5471,235.0377,82.2565,240.64,71.6445,221.9209,68.5471" style="stroke:#181818;stroke-width:1.0;"/><path d="M237.8389,76.9505 C264.5264,91.0393 284.6426,101.659 315.5673,117.9847 " fill="none" style="stroke:#181818;stroke-width:1.0;"/><polygon fill="none" points="512.4948,82.0535,493.7757,85.1509,499.378,95.7629,512.4948,82.0535" style="stroke:#181818;stroke-width:1.0;"/><path d="M496.5768,90.4569 C474.8073,101.9494 466.4308,106.3716 444.6501,117.87 " fill="none" style="stroke:#181818;stroke-width:1.0;stroke-dasharray:7.0,7.0;"/><text fill="#888888" font-family="sans-serif" font-size="10" lengthAdjust="spacing" textLength="2.6" x="385.95" y="192.69">&#160;</text><a href="https://github.com/talsma-ict/umldoclet" target="_top" title="https://github.com/talsma-ict/umldoclet" xlink:actuate="onRequest" xlink:href="https://github.com/talsma-ict/umldoclet" xlink:show="new" xlink:title="https://github.com/talsma-ict/umldoclet" xlink:type="simple"><text fill="#888888" font-family="sans-serif" font-size="10" lengthAdjust="spacing" textLength="76.7199" x="348.89" y="206.31">UMLDoclet 2.2.1</text></a><!--SRC=[rLLHJzim47xVhxYn1q1G9qsXsweAgIhJnbGqj9QdmeFhN1EhZftPJb46_FTTqj9rGDbBcJI_HF6Tl_lkkxCF060N-YOlhKnI3zw0JwM3o_C1S1r3WXejznY3p7Y23YQeZ4xSmX615pur5ioq_XF6MdIvqR7K2NpbSmxE55QWOs_UG1rgz81-mzqQ-gIiDa-DKEXXhx-_HYaAc-r654Pj677bCWvd_H5Relq-4x68DO6mbHIe7K4MEaPRq-hbND1diB0SmXojaqRJcN29KwKgZFPSQWSvjzvLALqehdt5jSae_X5x3tkzuU1FRk77cjiXzApcHGpVpOzYbUxRtFA462jUciA3oz1ppHSsHwGrpqWkBd2859HxKb8RZRKzbJ42PhalOIfHnUxnBe6bXhRhVQ6uSx3JTV8dTff79nT6II-5vFgKUtvEKHEqPrckhlJI9pmH9cCf5xEenSYHtU24IV9WXMGypqb7xaabDfTuunWvP_GZKX9doWLHBMll7Q0wRWM9RUGCu_566qjzfgwluRQMeLe7mYBrr0KLsUY1rDYl8ktr9ivR2lVDKbjWFAXBSWX3RwbNzpimDpAkCUuNYlAb_nDf7u1gsFz7tPTeay0lcPSQrx98xT4IC3xRR8zFRrCFdiljo450R3DbqeAnW7o2pJvFc-xseLtkjzL__w3gtRj6uxNlxdPo-Kl9kdUClNeYTIPTvqk59wkwJusX-x3M2DNwKkPegVAplb7qfB_xyBpriXfGYXg4PgAOQQHN9bnvtY_21Mlnbh6kz7YSUf-xJX0aqgV5fCecyFLmR4ZXWo9JyM8gFfgFopky2vzNWxSQNeqmQeIjKRFLEOewOSJQhUYu5ONjuuEmsGd3yQV2cXo3eJTYbXgLNVy2]--></g></svg>