<svg xmlns="http://www.w3.org/2000/svg" xmlns:xlink="http://www.w3.org/1999/xlink" contentStyleType="text/css" height="293px" preserveAspectRatio="none" style="width:977px;height:293px;background:#FFFFFF;" version="1.1" viewBox="0 0 977 293" width="977px" zoomAndPan="magnify"><defs/><g><!--class com.hack23.cia.web.impl.ui.application.views.common.chartfactory.impl.PoliticianGhantChartManagerImpl--><a href="PoliticianGhantChartManagerImpl.html" target="_top" title="PoliticianGhantChartManagerImpl.html" xlink:actuate="onRequest" xlink:href="PoliticianGhantChartManagerImpl.html" xlink:show="new" xlink:title="PoliticianGhantChartManagerImpl.html" xlink:type="simple"><g id="elem_com.hack23.cia.web.impl.ui.application.views.common.chartfactory.impl.PoliticianGhantChartManagerImpl"><rect codeLine="13" fill="#F1F1F1" height="107.8917" id="com.hack23.cia.web.impl.ui.application.views.common.chartfactory.impl.PoliticianGhantChartManagerImpl" rx="2.5" ry="2.5" style="stroke:#181818;stroke-width:0.5;" width="379.4707" x="284" y="156"/><ellipse cx="302.4564" cy="177.344" fill="#ADD1B2" rx="11" ry="11" style="stroke:#181818;stroke-width:1.0;"/><path d="M305.4252,182.9846 Q304.8471,183.2815 304.2064,183.4221 Q303.5658,183.5783 302.8627,183.5783 Q300.3627,183.5783 299.0346,181.9377 Q297.7221,180.2815 297.7221,177.1565 Q297.7221,174.0315 299.0346,172.3752 Q300.3627,170.719 302.8627,170.719 Q303.5658,170.719 304.2064,170.8752 Q304.8627,171.0315 305.4252,171.3283 L305.4252,174.0471 Q304.8002,173.469 304.2064,173.2033 Q303.6127,172.9221 302.9877,172.9221 Q301.6439,172.9221 300.9564,174.0002 Q300.2689,175.0627 300.2689,177.1565 Q300.2689,179.2502 300.9564,180.3283 Q301.6439,181.3908 302.9877,181.3908 Q303.6127,181.3908 304.2064,181.1252 Q304.8002,180.844 305.4252,180.2658 L305.4252,182.9846 Z " fill="#000000"/><text fill="#000000" font-family="sans-serif" font-size="14" lengthAdjust="spacing" textLength="225.6651" x="374.2868" y="175.9659">PoliticianGhantChartManagerImpl</text><text fill="#000000" font-family="sans-serif" font-size="10" lengthAdjust="spacing" textLength="339.7897" x="317.2245" y="190.7579">com.hack23.cia.web.impl.ui.application.views.common.chartfactory.impl</text><line style="stroke:#181818;stroke-width:0.5;" x1="285" x2="662.4707" y1="198.6879" y2="198.6879"/><polygon fill="#FFFF44" points="295,208.7219,299,212.7219,295,216.7219,291,212.7219" style="stroke:#B38D22;stroke-width:1.0;"/><text fill="#000000" font-family="sans-serif" font-size="14" lengthAdjust="spacing" textLength="321.9008" x="304" y="217.6538">getComparator(): Comparator&lt;AssignmentData&gt;</text><polygon fill="#FFFF44" points="295,227.7898,299,231.7898,295,235.7898,291,231.7898" style="stroke:#B38D22;stroke-width:1.0;"/><text fill="#000000" font-family="sans-serif" font-size="14" lengthAdjust="spacing" textLength="353.4707" x="304" y="236.7218">getRoleMapping(): Function&lt;AssignmentData, String&gt;</text><polygon fill="#FFFF44" points="295,246.8577,299,250.8577,295,254.8577,291,250.8577" style="stroke:#B38D22;stroke-width:1.0;"/><text fill="#000000" font-family="sans-serif" font-size="14" lengthAdjust="spacing" textLength="338.0567" x="304" y="255.7897">getStepMapping(): StepMapping&lt;AssignmentData&gt;</text></g></a><!--class com.hack23.cia.web.impl.ui.application.views.common.chartfactory.impl.AbstractGhantChartManagerImpl--><a href="AbstractGhantChartManagerImpl.html" target="_top" title="AbstractGhantChartManagerImpl.html" xlink:actuate="onRequest" xlink:href="AbstractGhantChartManagerImpl.html" xlink:show="new" xlink:title="AbstractGhantChartManagerImpl.html" xlink:type="simple"><g id="elem_com.hack23.cia.web.impl.ui.application.views.common.chartfactory.impl.AbstractGhantChartManagerImpl"><rect codeLine="19" fill="#F1F1F1" height="107.8917" id="com.hack23.cia.web.impl.ui.application.views.common.chartfactory.impl.AbstractGhantChartManagerImpl" rx="2.5" ry="2.5" style="stroke:#181818;stroke-width:0.5;" width="445.3043" x="6" y="12"/><ellipse cx="21" cy="33.344" fill="#A9DCDF" rx="11" ry="11" style="stroke:#181818;stroke-width:1.0;"/><path d="M21.1094,28.6877 L19.9531,33.7658 L22.2813,33.7658 L21.1094,28.6877 Z M19.625,26.4533 L22.6094,26.4533 L25.9688,38.844 L23.5156,38.844 L22.75,35.7815 L19.4688,35.7815 L18.7188,38.844 L16.2813,38.844 L19.625,26.4533 Z " fill="#000000"/><text fill="#000000" font-family="sans-serif" font-size="14" font-style="italic" lengthAdjust="spacing" textLength="208.9352" x="91.6122" y="31.9659">AbstractGhantChartManagerImpl</text><text fill="#000000" font-family="sans-serif" font-size="10" font-style="italic" lengthAdjust="spacing" textLength="322.1597" x="35" y="46.7579">com.hack23.cia.web.impl.ui.application.views.common.chartfactory.impl</text><rect fill="#FFFFFF" height="18.3441" style="stroke:#181818;stroke-width:1.0;stroke-dasharray:2.0,2.0;" width="89.1446" x="365.1597" y="9"/><text fill="#000000" font-family="sans-serif" font-size="12" font-style="italic" lengthAdjust="spacing" textLength="87.1446" x="366.1597" y="22.8281">AssignmentData</text><line style="stroke:#181818;stroke-width:0.5;" x1="7" x2="450.3043" y1="54.6879" y2="54.6879"/><polygon fill="#FFFF44" points="17,64.7219,21,68.7219,17,72.7219,13,68.7219" style="stroke:#B38D22;stroke-width:1.0;"/><text fill="#000000" font-family="sans-serif" font-size="14" font-style="italic" lengthAdjust="spacing" textLength="210.1812" x="26" y="73.6538">getComparator(): Comparator&lt;T&gt;</text><polygon fill="#FFFF44" points="17,83.7898,21,87.7898,17,91.7898,13,87.7898" style="stroke:#B38D22;stroke-width:1.0;"/><text fill="#000000" font-family="sans-serif" font-size="14" font-style="italic" lengthAdjust="spacing" textLength="238.1951" x="26" y="92.7218">getRoleMapping(): Function&lt;T, String&gt;</text><polygon fill="#FFFF44" points="17,102.8577,21,106.8577,17,110.8577,13,106.8577" style="stroke:#B38D22;stroke-width:1.0;"/><text fill="#000000" font-family="sans-serif" font-size="14" font-style="italic" lengthAdjust="spacing" textLength="223.2572" x="26" y="111.7897">getStepMapping(): StepMapping&lt;T&gt;</text></g></a><!--class com.hack23.cia.web.impl.ui.application.views.common.chartfactory.api.PoliticianGhantChartManager--><a href="../api/PoliticianGhantChartManager.html" target="_top" title="../api/PoliticianGhantChartManager.html" xlink:actuate="onRequest" xlink:href="../api/PoliticianGhantChartManager.html" xlink:show="new" xlink:title="../api/PoliticianGhantChartManager.html" xlink:type="simple"><g id="elem_com.hack23.cia.web.impl.ui.application.views.common.chartfactory.api.PoliticianGhantChartManager"><rect codeLine="24" fill="#F1F1F1" height="69.7558" id="com.hack23.cia.web.impl.ui.application.views.common.chartfactory.api.PoliticianGhantChartManager" rx="2.5" ry="2.5" style="stroke:#181818;stroke-width:0.5;" width="501.0041" x="469" y="31"/><ellipse cx="556.9972" cy="52.344" fill="#B4A7E5" rx="11" ry="11" style="stroke:#181818;stroke-width:1.0;"/><path d="M552.9191,48.1096 L552.9191,45.9533 L560.3097,45.9533 L560.3097,48.1096 L557.841,48.1096 L557.841,56.1877 L560.3097,56.1877 L560.3097,58.344 L552.9191,58.344 L552.9191,56.1877 L555.3878,56.1877 L555.3878,48.1096 L552.9191,48.1096 Z " fill="#000000"/><text fill="#000000" font-family="sans-serif" font-size="14" font-style="italic" lengthAdjust="spacing" textLength="186.5633" x="642.4704" y="50.9659">PoliticianGhantChartManager</text><text fill="#000000" font-family="sans-serif" font-size="10" font-style="italic" lengthAdjust="spacing" textLength="316.5096" x="577.4972" y="65.7579">com.hack23.cia.web.impl.ui.application.views.common.chartfactory.api</text><line style="stroke:#181818;stroke-width:0.5;" x1="470" x2="969.0041" y1="73.6879" y2="73.6879"/><ellipse cx="480" cy="88.7219" fill="#84BE84" rx="3" ry="3" style="stroke:#038048;stroke-width:1.0;"/><text fill="#000000" font-family="sans-serif" font-size="14" font-style="italic" lengthAdjust="spacing" textLength="475.0041" x="489" y="92.6538">createRoleGhant(AbstractOrderedLayout, Collection&lt;AssignmentData&gt;): void</text></g></a><polygon fill="none" points="320.0774,120.0775,332.642,134.2948,338.6594,123.9126,320.0774,120.0775" style="stroke:#181818;stroke-width:1.0;"/><path d="M335.6507,129.1037 C355.9021,140.8412 361.7866,144.2518 382.0336,155.9868 " fill="none" style="stroke:#181818;stroke-width:1.0;"/><polygon fill="none" points="660.5769,101.0125,641.9881,104.8148,647.9872,115.2076,660.5769,101.0125" style="stroke:#181818;stroke-width:1.0;"/><path d="M644.9876,110.0112 C616.5592,126.4211 597.384,137.4897 565.5715,155.8531 " fill="none" style="stroke:#181818;stroke-width:1.0;stroke-dasharray:7.0,7.0;"/><text fill="#888888" font-family="sans-serif" font-size="10" lengthAdjust="spacing" textLength="2.6" x="483.2" y="268.69">&#160;</text><a href="https://github.com/talsma-ict/umldoclet" target="_top" title="https://github.com/talsma-ict/umldoclet" xlink:actuate="onRequest" xlink:href="https://github.com/talsma-ict/umldoclet" xlink:show="new" xlink:title="https://github.com/talsma-ict/umldoclet" xlink:type="simple"><text fill="#888888" font-family="sans-serif" font-size="10" lengthAdjust="spacing" textLength="76.7199" x="446.14" y="282.31">UMLDoclet 2.2.1</text></a><!--SRC=[rLRVJo8n47xthvZJXzCePTb3vGWX8NZdUS6S4Nn27afts6tijdjjLyEf__lDBgY8YlT0J6uV8Eryy_Fhj0C0y1cw9fjQ6ISUl06VI0SNfptWEe8ODLhkCGAPyXWTZ54P7RiP487dFZ4MpAHS2MCjkipeIEeOVl9h3ixaLg1Z6njGkXeyMB_XRi7wU5fi7XcXqCDsTsSXf32e7LJ28Ap3W2kNSZZf3jZSsfDEo49M0xAjf43jo6Ik8xHbM9sC2_hhpIHxS8tMIQD99vZRAL8LHdikjOECM- -AbCuKrxw8jSOA_-mGjZlztlFOWgzbR7lGiPhd4PoRt_bZkfyoosEAMF6foJsu53tNV2Pp5BJcAPMB2-mZEUMUAgcDnbAUo0W1qynFOI9HHMvvbumbXhRBVQ6uSx3PSl8FDclrzfbHqaiXkJvEA8bkGZcTakyOxKcQgKizHmPjOLAMS74LVc44PpSuPf8GB9UCPnbLatkg5RkMUECOWLDQYCBSX0iAU5gYDu7ON8ibzaxaC1o-Ws29JzLe1BTbOOflAqRVDUcynDixJNXQjJhEoLYdgFqHzxpzJEdSA3obsEaq5rhVSosA59Pqzg3lBK6Uw_OzPWkw2yjNNTxFUEHZvosLumMXdRdWVwDpPTpBbI1oL-9VKdlxKB3xrImFsc-flCNnu2MjIveh61uya5hyIktHKb7mt_fpdMJoJAw7IpAqgZE9ECQg1Agk0AraRrTOf9UWOADKt7uu2ByiNUCOzSehT8yuLGfVwy8sKN1jPBJOJHzmXA5rLwbypDMtdfJUOx9rnzW7vLCcr79-gl2foIR6KBii79BY-p7DqFQalYBwwP7SQhmklIYUV2KrqfGXhZJI3Hey8cVDsAek-9lxkjJ3OU9zvfhLQYnzae-BdAg-73SgKlXgdgfeDcSiJHoZqNo2E7uSPOfne58BAs5ZKDjlxXyqwmrsMDyF3u96exuRr9f1CFoMMvDXjU-Dk4gCIaT_0G00]--></g></svg>