<svg xmlns="http://www.w3.org/2000/svg" xmlns:xlink="http://www.w3.org/1999/xlink" contentStyleType="text/css" height="217px" preserveAspectRatio="none" style="width:1168px;height:217px;background:#FFFFFF;" version="1.1" viewBox="0 0 1168 217" width="1168px" zoomAndPan="magnify"><defs/><g><!--class com.hack23.cia.web.impl.ui.application.views.common.chartfactory.impl.WorldIndicatorChartDataManagerImpl--><a href="WorldIndicatorChartDataManagerImpl.html" target="_top" title="WorldIndicatorChartDataManagerImpl.html" xlink:actuate="onRequest" xlink:href="WorldIndicatorChartDataManagerImpl.html" xlink:show="new" xlink:title="WorldIndicatorChartDataManagerImpl.html" xlink:type="simple"><g id="elem_com.hack23.cia.web.impl.ui.application.views.common.chartfactory.impl.WorldIndicatorChartDataManagerImpl"><rect codeLine="13" fill="#F1F1F1" height="69.7558" id="com.hack23.cia.web.impl.ui.application.views.common.chartfactory.impl.WorldIndicatorChartDataManagerImpl" rx="2.5" ry="2.5" style="stroke:#181818;stroke-width:0.5;" width="827.6652" x="62" y="118"/><ellipse cx="301.6878" cy="139.344" fill="#ADD1B2" rx="11" ry="11" style="stroke:#181818;stroke-width:1.0;"/><path d="M304.6565,144.9846 Q304.0784,145.2815 303.4378,145.4221 Q302.7971,145.5783 302.094,145.5783 Q299.594,145.5783 298.2659,143.9377 Q296.9534,142.2815 296.9534,139.1565 Q296.9534,136.0315 298.2659,134.3752 Q299.594,132.719 302.094,132.719 Q302.7971,132.719 303.4378,132.8752 Q304.094,133.0315 304.6565,133.3283 L304.6565,136.0471 Q304.0315,135.469 303.4378,135.2033 Q302.844,134.9221 302.219,134.9221 Q300.8753,134.9221 300.1878,136.0002 Q299.5003,137.0627 299.5003,139.1565 Q299.5003,141.2502 300.1878,142.3283 Q300.8753,143.3908 302.219,143.3908 Q302.844,143.3908 303.4378,143.1252 Q304.0315,142.844 304.6565,142.2658 L304.6565,144.9846 Z " fill="#000000"/><text fill="#000000" font-family="sans-serif" font-size="14" lengthAdjust="spacing" textLength="255.5691" x="364.2981" y="137.9659">WorldIndicatorChartDataManagerImpl</text><text fill="#000000" font-family="sans-serif" font-size="10" lengthAdjust="spacing" textLength="339.7897" x="322.1878" y="152.7579">com.hack23.cia.web.impl.ui.application.views.common.chartfactory.impl</text><line style="stroke:#181818;stroke-width:0.5;" x1="63" x2="888.6652" y1="160.6879" y2="160.6879"/><ellipse cx="73" cy="175.7219" fill="#84BE84" rx="3" ry="3" style="stroke:#038048;stroke-width:1.0;"/><text fill="#000000" font-family="sans-serif" font-size="14" lengthAdjust="spacing" textLength="801.6652" x="82" y="179.6538">createIndicatorChart(AbstractOrderedLayout, List&lt;WorldBankData&gt;, ViewWorldbankIndicatorDataCountrySummary): void</text></g></a><!--class com.hack23.cia.web.impl.ui.application.views.common.chartfactory.impl.AbstractChartDataManagerImpl--><a href="AbstractChartDataManagerImpl.html" target="_top" title="AbstractChartDataManagerImpl.html" xlink:actuate="onRequest" xlink:href="AbstractChartDataManagerImpl.html" xlink:show="new" xlink:title="AbstractChartDataManagerImpl.html" xlink:type="simple"><g id="elem_com.hack23.cia.web.impl.ui.application.views.common.chartfactory.impl.AbstractChartDataManagerImpl"><rect codeLine="17" fill="#F1F1F1" height="42.6879" id="com.hack23.cia.web.impl.ui.application.views.common.chartfactory.impl.AbstractChartDataManagerImpl" rx="2.5" ry="2.5" style="stroke:#181818;stroke-width:0.5;" width="354.1597" x="6" y="25.5"/><ellipse cx="21" cy="46.844" fill="#A9DCDF" rx="11" ry="11" style="stroke:#181818;stroke-width:1.0;"/><path d="M21.1094,42.1877 L19.9531,47.2658 L22.2813,47.2658 L21.1094,42.1877 Z M19.625,39.9533 L22.6094,39.9533 L25.9688,52.344 L23.5156,52.344 L22.75,49.2815 L19.4688,49.2815 L18.7188,52.344 L16.2813,52.344 L19.625,39.9533 Z " fill="#000000"/><text fill="#000000" font-family="sans-serif" font-size="14" font-style="italic" lengthAdjust="spacing" textLength="200.5212" x="95.8192" y="45.4659">AbstractChartDataManagerImpl</text><text fill="#000000" font-family="sans-serif" font-size="10" font-style="italic" lengthAdjust="spacing" textLength="322.1597" x="35" y="60.2579">com.hack23.cia.web.impl.ui.application.views.common.chartfactory.impl</text></g></a><!--class com.hack23.cia.web.impl.ui.application.views.common.chartfactory.api.WorldIndicatorChartDataManager--><a href="../api/WorldIndicatorChartDataManager.html" target="_top" title="../api/WorldIndicatorChartDataManager.html" xlink:actuate="onRequest" xlink:href="../api/WorldIndicatorChartDataManager.html" xlink:show="new" xlink:title="../api/WorldIndicatorChartDataManager.html" xlink:type="simple"><g id="elem_com.hack23.cia.web.impl.ui.application.views.common.chartfactory.api.WorldIndicatorChartDataManager"><rect codeLine="18" fill="#F1F1F1" height="69.7558" id="com.hack23.cia.web.impl.ui.application.views.common.chartfactory.api.WorldIndicatorChartDataManager" rx="2.5" ry="2.5" style="stroke:#181818;stroke-width:0.5;" width="783.6907" x="378" y="12"/><ellipse cx="607.3405" cy="33.344" fill="#B4A7E5" rx="11" ry="11" style="stroke:#181818;stroke-width:1.0;"/><path d="M603.2624,29.1096 L603.2624,26.9533 L610.653,26.9533 L610.653,29.1096 L608.1843,29.1096 L608.1843,37.1877 L610.653,37.1877 L610.653,39.344 L603.2624,39.344 L603.2624,37.1877 L605.7312,37.1877 L605.7312,29.1096 L603.2624,29.1096 Z " fill="#000000"/><text fill="#000000" font-family="sans-serif" font-size="14" font-style="italic" lengthAdjust="spacing" textLength="214.7452" x="678.7228" y="31.9659">WorldIndicatorChartDataManager</text><text fill="#000000" font-family="sans-serif" font-size="10" font-style="italic" lengthAdjust="spacing" textLength="316.5096" x="627.8405" y="46.7579">com.hack23.cia.web.impl.ui.application.views.common.chartfactory.api</text><line style="stroke:#181818;stroke-width:0.5;" x1="379" x2="1160.6907" y1="54.6879" y2="54.6879"/><ellipse cx="389" cy="69.7219" fill="#84BE84" rx="3" ry="3" style="stroke:#038048;stroke-width:1.0;"/><text fill="#000000" font-family="sans-serif" font-size="14" font-style="italic" lengthAdjust="spacing" textLength="757.6907" x="398" y="73.6538">createIndicatorChart(AbstractOrderedLayout, List&lt;WorldBankData&gt;, ViewWorldbankIndicatorDataCountrySummary): void</text></g></a><polygon fill="none" points="240.8874,68.5471,255.8435,80.2225,259.8575,68.9137,240.8874,68.5471" style="stroke:#181818;stroke-width:1.0;"/><path d="M257.8505,74.5681 C297.5431,88.6569 334.1739,101.659 380.1686,117.9847 " fill="none" style="stroke:#181818;stroke-width:1.0;"/><polygon fill="none" points="673.7334,82.0535,654.7629,82.3998,658.7648,93.7128,673.7334,82.0535" style="stroke:#181818;stroke-width:1.0;"/><path d="M656.7638,88.0563 C624.1916,99.5785 604.8011,106.4377 572.2316,117.9589 " fill="none" style="stroke:#181818;stroke-width:1.0;stroke-dasharray:7.0,7.0;"/><text fill="#888888" font-family="sans-serif" font-size="10" lengthAdjust="spacing" textLength="2.6" x="579.2" y="192.69">&#160;</text><a href="https://github.com/talsma-ict/umldoclet" target="_top" title="https://github.com/talsma-ict/umldoclet" xlink:actuate="onRequest" xlink:href="https://github.com/talsma-ict/umldoclet" xlink:show="new" xlink:title="https://github.com/talsma-ict/umldoclet" xlink:type="simple"><text fill="#888888" font-family="sans-serif" font-size="10" lengthAdjust="spacing" textLength="76.7199" x="542.14" y="206.31">UMLDoclet 2.2.1</text></a><!--SRC=[rLPDJzj04BtpAwRq00YoTinNYA98QLgrL46jcj0U0eV9UXElijvrTzT1Bl3VEtP26g023X5LVOayC_lUVBpi601W2xecAwoS91wy0Pz81-TdFK0TmqHeOT6B66IA4-5W99JH4pSF582vJum5CwxUkB5MkCpeMEe9VCOPWZEvvSAnZGseg0Ptw5VeLj17HMbyRxWI7hQxEoifHM7zg1Q5qG4CKBaKuRGxO0kqFsSY5h4w4BQIN6X7aBcEXQtIwcJ8wQStz-p1J5WdZQOpuGAdB9KRxL5g1nbQxygIlYhKliorpaf-TWpRdNxlVcxXIPNR7dIinZo6R-PdlYptJMPnGXahB4pkmQN2eyQvpr7I6bDg5tBH5qIAdZgfZHQLFv6n095cle2n52fs3wq4bXWoLtQkq3dOR3dvIpJh1-qVnghubER0IzHkGYMzHuzdH3yHzZJDr8LU18TjRbAM89z6-unBP5TYn2H5i5mop39LOb2xs4oAAySeEAKNNaAEaHDwKKLl0WrqBKZi-UHXE7m-Y2K-LPUNS5rrg7nskHKaj_kdjZiZvotnVx4a617tgc7jaLoSRrKixr1FI-ps7dodp2lRY6nBdDBPDRdsjkZdQOgss6d2pCYuOhwTZmWND8zcTSV_dqtfgRHfFa-v5vEfsYAr5vQ0nOlLkywUO2RNqn82UaQtr1F60eeBdevxBDlhE-dS_bi5lu9kMZUrsglT8kifwWMJRzqmzdfLLMMrd2-KQ2yrD3Q6_cSheYgVJqKcR4_gQTSesZrl6t_tdfURL4ajQ7dpgHPqUuNBoDivNR32j-2wqCDXudtcca4maJx9HsLPWQ-sU4ro7-IfYkVh-y4YNzmDM_1n-OLGRjbQFQf5ZK7zi7bur3neiEEJuqOOHVidks6z6OR33xarcGZwtl1fObHw-Hi0]--></g></svg>