<svg xmlns="http://www.w3.org/2000/svg" xmlns:xlink="http://www.w3.org/1999/xlink" contentStyleType="text/css" height="228px" preserveAspectRatio="none" style="width:1072px;height:228px;background:#FFFFFF;" version="1.1" viewBox="0 0 1072 228" width="1072px" zoomAndPan="magnify"><defs/><g><!--class com.hack23.cia.web.impl.ui.application.views.user.country.pagemode.CountryViewConstants--><a href="CountryViewConstants.html" target="_top" title="CountryViewConstants.html" xlink:actuate="onRequest" xlink:href="CountryViewConstants.html" xlink:show="new" xlink:title="CountryViewConstants.html" xlink:type="simple"><g id="elem_com.hack23.cia.web.impl.ui.application.views.user.country.pagemode.CountryViewConstants"><rect codeLine="13" fill="#F1F1F1" height="107.8917" id="com.hack23.cia.web.impl.ui.application.views.user.country.pagemode.CountryViewConstants" rx="2.5" ry="2.5" style="stroke:#181818;stroke-width:0.5;" width="341.2897" x="365" y="91"/><ellipse cx="380" cy="112.344" fill="#B4A7E5" rx="11" ry="11" style="stroke:#181818;stroke-width:1.0;"/><path d="M375.9219,108.1096 L375.9219,105.9533 L383.3125,105.9533 L383.3125,108.1096 L380.8438,108.1096 L380.8438,116.1877 L383.3125,116.1877 L383.3125,118.344 L375.9219,118.344 L375.9219,116.1877 L378.3906,116.1877 L378.3906,108.1096 L375.9219,108.1096 Z " fill="#000000"/><text fill="#000000" font-family="sans-serif" font-size="14" font-style="italic" lengthAdjust="spacing" textLength="139.1735" x="479.0581" y="110.9659">CountryViewConstants</text><text fill="#000000" font-family="sans-serif" font-size="10" font-style="italic" lengthAdjust="spacing" textLength="309.2897" x="394" y="125.7579">com.hack23.cia.web.impl.ui.application.views.user.country.pagemode</text><line style="stroke:#181818;stroke-width:0.5;" x1="366" x2="705.2897" y1="133.6879" y2="133.6879"/><ellipse cx="376" cy="148.7219" fill="none" rx="3" ry="3" style="stroke:#038048;stroke-width:1.0;"/><text fill="#000000" font-family="sans-serif" font-size="14" lengthAdjust="spacing" text-decoration="underline" textLength="226.9671" x="385" y="152.6538">RANKING_OVERVIEW_TITLE: String</text><ellipse cx="376" cy="167.7898" fill="none" rx="3" ry="3" style="stroke:#038048;stroke-width:1.0;"/><text fill="#000000" font-family="sans-serif" font-size="14" lengthAdjust="spacing" text-decoration="underline" textLength="253.987" x="385" y="171.7218">RANKING_OVERVIEW_SUBTITLE: String</text><ellipse cx="376" cy="186.8577" fill="none" rx="3" ry="3" style="stroke:#038048;stroke-width:1.0;"/><text fill="#000000" font-family="sans-serif" font-size="14" lengthAdjust="spacing" text-decoration="underline" textLength="226.0711" x="385" y="190.7897">RANKING_OVERVIEW_DESC: String</text></g></a><!--class com.hack23.cia.web.impl.ui.application.views.user.country.pagemode.CountryPageTitleConstants--><a href="CountryPageTitleConstants.html" target="_top" title="CountryPageTitleConstants.html" xlink:actuate="onRequest" xlink:href="CountryPageTitleConstants.html" xlink:show="new" xlink:title="CountryPageTitleConstants.html" xlink:type="simple"><g id="elem_com.hack23.cia.web.impl.ui.application.views.user.country.pagemode.CountryPageTitleConstants"><rect codeLine="19" fill="#F1F1F1" height="42.6879" id="com.hack23.cia.web.impl.ui.application.views.user.country.pagemode.CountryPageTitleConstants" rx="2.5" ry="2.5" style="stroke:#181818;stroke-width:0.5;" width="341.2897" x="6" y="12"/><ellipse cx="21" cy="33.344" fill="#B4A7E5" rx="11" ry="11" style="stroke:#181818;stroke-width:1.0;"/><path d="M16.9219,29.1096 L16.9219,26.9533 L24.3125,26.9533 L24.3125,29.1096 L21.8438,29.1096 L21.8438,37.1877 L24.3125,37.1877 L24.3125,39.344 L16.9219,39.344 L16.9219,37.1877 L19.3906,37.1877 L19.3906,29.1096 L16.9219,29.1096 Z " fill="#000000"/><text fill="#000000" font-family="sans-serif" font-size="14" font-style="italic" lengthAdjust="spacing" textLength="167.5794" x="105.8551" y="31.9659">CountryPageTitleConstants</text><text fill="#000000" font-family="sans-serif" font-size="10" font-style="italic" lengthAdjust="spacing" textLength="309.2897" x="35" y="46.7579">com.hack23.cia.web.impl.ui.application.views.user.country.pagemode</text></g></a><!--class com.hack23.cia.web.impl.ui.application.views.user.country.pagemode.CountryIndicatorConstants--><a href="CountryIndicatorConstants.html" target="_top" title="CountryIndicatorConstants.html" xlink:actuate="onRequest" xlink:href="CountryIndicatorConstants.html" xlink:show="new" xlink:title="CountryIndicatorConstants.html" xlink:type="simple"><g id="elem_com.hack23.cia.web.impl.ui.application.views.user.country.pagemode.CountryIndicatorConstants"><rect codeLine="20" fill="#F1F1F1" height="42.6879" id="com.hack23.cia.web.impl.ui.application.views.user.country.pagemode.CountryIndicatorConstants" rx="2.5" ry="2.5" style="stroke:#181818;stroke-width:0.5;" width="341.2897" x="365" y="12"/><ellipse cx="380" cy="33.344" fill="#B4A7E5" rx="11" ry="11" style="stroke:#181818;stroke-width:1.0;"/><path d="M375.9219,29.1096 L375.9219,26.9533 L383.3125,26.9533 L383.3125,29.1096 L380.8438,29.1096 L380.8438,37.1877 L383.3125,37.1877 L383.3125,39.344 L375.9219,39.344 L375.9219,37.1877 L378.3906,37.1877 L378.3906,29.1096 L375.9219,29.1096 Z " fill="#000000"/><text fill="#000000" font-family="sans-serif" font-size="14" font-style="italic" lengthAdjust="spacing" textLength="167.4814" x="464.9042" y="31.9659">CountryIndicatorConstants</text><text fill="#000000" font-family="sans-serif" font-size="10" font-style="italic" lengthAdjust="spacing" textLength="309.2897" x="394" y="46.7579">com.hack23.cia.web.impl.ui.application.views.user.country.pagemode</text></g></a><!--class com.hack23.cia.web.impl.ui.application.views.user.country.pagemode.CountryRankingConstants--><a href="CountryRankingConstants.html" target="_top" title="CountryRankingConstants.html" xlink:actuate="onRequest" xlink:href="CountryRankingConstants.html" xlink:show="new" xlink:title="CountryRankingConstants.html" xlink:type="simple"><g id="elem_com.hack23.cia.web.impl.ui.application.views.user.country.pagemode.CountryRankingConstants"><rect codeLine="21" fill="#F1F1F1" height="42.6879" id="com.hack23.cia.web.impl.ui.application.views.user.country.pagemode.CountryRankingConstants" rx="2.5" ry="2.5" style="stroke:#181818;stroke-width:0.5;" width="341.2897" x="724" y="12"/><ellipse cx="739" cy="33.344" fill="#B4A7E5" rx="11" ry="11" style="stroke:#181818;stroke-width:1.0;"/><path d="M734.9219,29.1096 L734.9219,26.9533 L742.3125,26.9533 L742.3125,29.1096 L739.8438,29.1096 L739.8438,37.1877 L742.3125,37.1877 L742.3125,39.344 L734.9219,39.344 L734.9219,37.1877 L737.3906,37.1877 L737.3906,29.1096 L734.9219,29.1096 Z " fill="#000000"/><text fill="#000000" font-family="sans-serif" font-size="14" font-style="italic" lengthAdjust="spacing" textLength="161.5594" x="826.8651" y="31.9659">CountryRankingConstants</text><text fill="#000000" font-family="sans-serif" font-size="10" font-style="italic" lengthAdjust="spacing" textLength="309.2897" x="753" y="46.7579">com.hack23.cia.web.impl.ui.application.views.user.country.pagemode</text></g></a><polygon fill="none" points="244.0252,55.0961,259.4916,66.0865,262.9926,54.6085,244.0252,55.0961" style="stroke:#181818;stroke-width:1.0;"/><path d="M261.2421,60.3475 C295.6696,70.8484 322.0303,78.8888 364.9264,91.9727 " fill="none" style="stroke:#181818;stroke-width:1.0;"/><polygon fill="none" points="535.5,55.0961,529.5,73.0961,541.5,73.0961,535.5,55.0961" style="stroke:#181818;stroke-width:1.0;"/><path d="M535.5,73.0961 C535.5,83.2563 535.5,78.0291 535.5,90.6985 " fill="none" style="stroke:#181818;stroke-width:1.0;"/><polygon fill="none" points="826.9748,55.0961,808.0074,54.6085,811.5084,66.0865,826.9748,55.0961" style="stroke:#181818;stroke-width:1.0;"/><path d="M809.7579,60.3475 C775.3304,70.8484 748.9697,78.8888 706.0736,91.9727 " fill="none" style="stroke:#181818;stroke-width:1.0;"/><text fill="#888888" font-family="sans-serif" font-size="10" lengthAdjust="spacing" textLength="2.6" x="530.7" y="203.69">&#160;</text><a href="https://github.com/talsma-ict/umldoclet" target="_top" title="https://github.com/talsma-ict/umldoclet" xlink:actuate="onRequest" xlink:href="https://github.com/talsma-ict/umldoclet" xlink:show="new" xlink:title="https://github.com/talsma-ict/umldoclet" xlink:type="simple"><text fill="#888888" font-family="sans-serif" font-size="10" lengthAdjust="spacing" textLength="76.7199" x="493.64" y="217.31">UMLDoclet 2.2.1</text></a><!--SRC=[rLRVJnf147xthvZQ1ssKPJbiLM9CA19BIwq1j0zepB8tS1lsTi_TFGsr_k_TEn0GIBHfVU1UBZUpyyqtFtPk002seAQJaH63o87Ju29XuU9x4vWAOO0A3NCOWeZP02tqK6eriEE322nraJQW-_aNryQWJRGAXHh0LtR7mEhKSBHaOmDoLvqdz7jcvz1xeqnuehb41zkr3tEK0bhwL0Xey14wJDgOGQFM8HEqcKr00b82Zoq5HsKzPAf2D3cjQiAuVpN7cbsuGsE5Ljw6Jd2oKBbMZWbb8M76sIoaSycKoxYMYFU_H_PXkzfkFkT63tDkkr0rYgKXjFHjEWttNMBOm3EMRAHJ1pP6nnGRwwmdhLZiqyKujj4xPSvdKcc5kJuI8GB6YHj1Nw0CxQBKWqNQYtEvK0vDtoF1vf4Llx1IsZkkwLGvCxeKU5_JodhNpbwfYPeUSnsJYF5XK2PSC7AFFIBYH99K49OaFetC-IIHEszkIMhH43u698dlX5Y7k0c-XlyEGrOHXMvtbPX4BfRNr_2GHvqz3rxX17-4dLRrx5lZxFJcnsMzTTce_xpfD3hDUWNQplXsV8r1- -BpNzkSrDkrP-SVNwp8kG-y8vp4jIZBCjjPRPPramAzb8A67n4yQ_YrIC4osraAbdMlJ46BgQ7lcRL8m2BNMVYBcgVWy-ZVj0cFVXSARpLz_ZFx5VspHkoNYl-ct7FoHzQD91vFvszVQt-FvgP-zdmP9MYQGWrhMle_v_k3rTgBR0-GGg5VFVXGeRL0foSVn-wAS_uclgvKjnivbzXAiJWGBafxFe2uwF8Tf22uAwQn3CVBny8QChdxMt0wtM-o7Q50zmkbSgT4_HMlq4DIfWTqxs2_J7TeKA6qMq-DJh3OTfeF8otZwpy0]--></g></svg>