<svg xmlns="http://www.w3.org/2000/svg" xmlns:xlink="http://www.w3.org/1999/xlink" contentStyleType="text/css" height="228px" preserveAspectRatio="none" style="width:1072px;height:228px;background:#FFFFFF;" version="1.1" viewBox="0 0 1072 228" width="1072px" zoomAndPan="magnify"><defs/><g><!--class com.hack23.cia.web.impl.ui.application.views.user.country.pagemode.CountryViewConstants--><a href="CountryViewConstants.html" target="_top" title="CountryViewConstants.html" xlink:actuate="onRequest" xlink:href="CountryViewConstants.html" xlink:show="new" xlink:title="CountryViewConstants.html" xlink:type="simple"><g id="elem_com.hack23.cia.web.impl.ui.application.views.user.country.pagemode.CountryViewConstants"><rect codeLine="13" fill="#F1F1F1" height="107.8917" id="com.hack23.cia.web.impl.ui.application.views.user.country.pagemode.CountryViewConstants" rx="2.5" ry="2.5" style="stroke:#181818;stroke-width:0.5;" width="341.2897" x="365" y="91"/><ellipse cx="380" cy="112.344" fill="#B4A7E5" rx="11" ry="11" style="stroke:#181818;stroke-width:1.0;"/><path d="M375.9219,108.1096 L375.9219,105.9533 L383.3125,105.9533 L383.3125,108.1096 L380.8438,108.1096 L380.8438,116.1877 L383.3125,116.1877 L383.3125,118.344 L375.9219,118.344 L375.9219,116.1877 L378.3906,116.1877 L378.3906,108.1096 L375.9219,108.1096 Z " fill="#000000"/><text fill="#000000" font-family="sans-serif" font-size="14" font-style="italic" lengthAdjust="spacing" textLength="139.1735" x="479.0581" y="110.9659">CountryViewConstants</text><text fill="#000000" font-family="sans-serif" font-size="10" font-style="italic" lengthAdjust="spacing" textLength="309.2897" x="394" y="125.7579">com.hack23.cia.web.impl.ui.application.views.user.country.pagemode</text><line style="stroke:#181818;stroke-width:0.5;" x1="366" x2="705.2897" y1="133.6879" y2="133.6879"/><ellipse cx="376" cy="148.7219" fill="none" rx="3" ry="3" style="stroke:#038048;stroke-width:1.0;"/><text fill="#000000" font-family="sans-serif" font-size="14" lengthAdjust="spacing" text-decoration="underline" textLength="226.9671" x="385" y="152.6538">RANKING_OVERVIEW_TITLE: String</text><ellipse cx="376" cy="167.7898" fill="none" rx="3" ry="3" style="stroke:#038048;stroke-width:1.0;"/><text fill="#000000" font-family="sans-serif" font-size="14" lengthAdjust="spacing" text-decoration="underline" textLength="253.987" x="385" y="171.7218">RANKING_OVERVIEW_SUBTITLE: String</text><ellipse cx="376" cy="186.8577" fill="none" rx="3" ry="3" style="stroke:#038048;stroke-width:1.0;"/><text fill="#000000" font-family="sans-serif" font-size="14" lengthAdjust="spacing" text-decoration="underline" textLength="226.0711" x="385" y="190.7897">RANKING_OVERVIEW_DESC: String</text></g></a><!--class com.hack23.cia.web.impl.ui.application.views.user.country.pagemode.CountryPageTitleConstants--><a href="CountryPageTitleConstants.html" target="_top" title="CountryPageTitleConstants.html" xlink:actuate="onRequest" xlink:href="CountryPageTitleConstants.html" xlink:show="new" xlink:title="CountryPageTitleConstants.html" xlink:type="simple"><g id="elem_com.hack23.cia.web.impl.ui.application.views.user.country.pagemode.CountryPageTitleConstants"><rect codeLine="19" fill="#F1F1F1" height="42.6879" id="com.hack23.cia.web.impl.ui.application.views.user.country.pagemode.CountryPageTitleConstants" rx="2.5" ry="2.5" style="stroke:#181818;stroke-width:0.5;" width="341.2897" x="6" y="12"/><ellipse cx="21" cy="33.344" fill="#B4A7E5" rx="11" ry="11" style="stroke:#181818;stroke-width:1.0;"/><path d="M16.9219,29.1096 L16.9219,26.9533 L24.3125,26.9533 L24.3125,29.1096 L21.8438,29.1096 L21.8438,37.1877 L24.3125,37.1877 L24.3125,39.344 L16.9219,39.344 L16.9219,37.1877 L19.3906,37.1877 L19.3906,29.1096 L16.9219,29.1096 Z " fill="#000000"/><text fill="#000000" font-family="sans-serif" font-size="14" font-style="italic" lengthAdjust="spacing" textLength="167.5794" x="105.8551" y="31.9659">CountryPageTitleConstants</text><text fill="#000000" font-family="sans-serif" font-size="10" font-style="italic" lengthAdjust="spacing" textLength="309.2897" x="35" y="46.7579">com.hack23.cia.web.impl.ui.application.views.user.country.pagemode</text></g></a><!--class com.hack23.cia.web.impl.ui.application.views.user.country.pagemode.CountryIndicatorConstants--><a href="CountryIndicatorConstants.html" target="_top" title="CountryIndicatorConstants.html" xlink:actuate="onRequest" xlink:href="CountryIndicatorConstants.html" xlink:show="new" xlink:title="CountryIndicatorConstants.html" xlink:type="simple"><g id="elem_com.hack23.cia.web.impl.ui.application.views.user.country.pagemode.CountryIndicatorConstants"><rect codeLine="20" fill="#F1F1F1" height="42.6879" id="com.hack23.cia.web.impl.ui.application.views.user.country.pagemode.CountryIndicatorConstants" rx="2.5" ry="2.5" style="stroke:#181818;stroke-width:0.5;" width="341.2897" x="365" y="12"/><ellipse cx="380" cy="33.344" fill="#B4A7E5" rx="11" ry="11" style="stroke:#181818;stroke-width:1.0;"/><path d="M375.9219,29.1096 L375.9219,26.9533 L383.3125,26.9533 L383.3125,29.1096 L380.8438,29.1096 L380.8438,37.1877 L383.3125,37.1877 L383.3125,39.344 L375.9219,39.344 L375.9219,37.1877 L378.3906,37.1877 L378.3906,29.1096 L375.9219,29.1096 Z " fill="#000000"/><text fill="#000000" font-family="sans-serif" font-size="14" font-style="italic" lengthAdjust="spacing" textLength="167.4814" x="464.9042" y="31.9659">CountryIndicatorConstants</text><text fill="#000000" font-family="sans-serif" font-size="10" font-style="italic" lengthAdjust="spacing" textLength="309.2897" x="394" y="46.7579">com.hack23.cia.web.impl.ui.application.views.user.country.pagemode</text></g></a><!--class com.hack23.cia.web.impl.ui.application.views.user.country.pagemode.CountryRankingConstants--><a href="CountryRankingConstants.html" target="_top" title="CountryRankingConstants.html" xlink:actuate="onRequest" xlink:href="CountryRankingConstants.html" xlink:show="new" xlink:title="CountryRankingConstants.html" xlink:type="simple"><g id="elem_com.hack23.cia.web.impl.ui.application.views.user.country.pagemode.CountryRankingConstants"><rect codeLine="21" fill="#F1F1F1" height="42.6879" id="com.hack23.cia.web.impl.ui.application.views.user.country.pagemode.CountryRankingConstants" rx="2.5" ry="2.5" style="stroke:#181818;stroke-width:0.5;" width="341.2897" x="724" y="12"/><ellipse cx="739" cy="33.344" fill="#B4A7E5" rx="11" ry="11" style="stroke:#181818;stroke-width:1.0;"/><path d="M734.9219,29.1096 L734.9219,26.9533 L742.3125,26.9533 L742.3125,29.1096 L739.8438,29.1096 L739.8438,37.1877 L742.3125,37.1877 L742.3125,39.344 L734.9219,39.344 L734.9219,37.1877 L737.3906,37.1877 L737.3906,29.1096 L734.9219,29.1096 Z " fill="#000000"/><text fill="#000000" font-family="sans-serif" font-size="14" font-style="italic" lengthAdjust="spacing" textLength="161.5594" x="826.8651" y="31.9659">CountryRankingConstants</text><text fill="#000000" font-family="sans-serif" font-size="10" font-style="italic" lengthAdjust="spacing" textLength="309.2897" x="753" y="46.7579">com.hack23.cia.web.impl.ui.application.views.user.country.pagemode</text></g></a><polygon fill="none" points="244.0252,55.0961,259.4916,66.0865,262.9926,54.6085,244.0252,55.0961" style="stroke:#181818;stroke-width:1.0;"/><path d="M261.2421,60.3475 C295.6696,70.8484 322.0303,78.8888 364.9264,91.9727 " fill="none" style="stroke:#181818;stroke-width:1.0;"/><polygon fill="none" points="535.5,55.0961,529.5,73.0961,541.5,73.0961,535.5,55.0961" style="stroke:#181818;stroke-width:1.0;"/><path d="M535.5,73.0961 C535.5,83.2563 535.5,78.0291 535.5,90.6985 " fill="none" style="stroke:#181818;stroke-width:1.0;"/><polygon fill="none" points="826.9748,55.0961,808.0074,54.6085,811.5084,66.0865,826.9748,55.0961" style="stroke:#181818;stroke-width:1.0;"/><path d="M809.7579,60.3475 C775.3304,70.8484 748.9697,78.8888 706.0736,91.9727 " fill="none" style="stroke:#181818;stroke-width:1.0;"/><text fill="#888888" font-family="sans-serif" font-size="10" lengthAdjust="spacing" textLength="2.6" x="530.7" y="203.69">&#160;</text><a href="https://github.com/talsma-ict/umldoclet" target="_top" title="https://github.com/talsma-ict/umldoclet" xlink:actuate="onRequest" xlink:href="https://github.com/talsma-ict/umldoclet" xlink:show="new" xlink:title="https://github.com/talsma-ict/umldoclet" xlink:type="simple"><text fill="#888888" font-family="sans-serif" font-size="10" lengthAdjust="spacing" textLength="76.7199" x="493.64" y="217.31">UMLDoclet 2.2.1</text></a><!--SRC=[rLRVJnf147xthvZQ1ssKvUwa_Y36X2AnjDGQGFk0nYnx0xTXR_UwkwUvMl_txXq822JQj3vmBuIPdM- -RsPkRm00jg2kaappOMJ1Ah0HDt3vhGLKXZ14YPfQ3877T8W6-YYK79hnGGIQsaXfK8FY7rDQeqcK3BaSmXTwHy6eL3CqP6C3YbJT9_HxQkRG-rbkF5LCe8Nj-eSvIe7dxvS2BzY7BXKcfj2iTya4RHOJa83uuB05PoYDWqnbYBgWLKieSp-jiMSNxb0RhgIByIOukLIcfALS6aYejYQNT26ej3bNdxZy5N80sxLEwpatxwZWjWirBMaQGblzJATotoMQ3XrZGJELMZ0nMYhfs6SSQKbZLoxAi8CkARMkab99BFmH3n4mJcm60uuYD8jM1nOfPoxiN5hK0uS4cyU6_yAgNpcfgrHQdLrnlAyhQLngQwxbnEsTC1MJYB9Hi4SOf-GU-uJ7YI0f9pH9N1cfTKKYToxSaDIW9cmCI18t2R4ASHDS3_yTXgmY2htUAZE9R2nkRk2XK9q_3yvXENk4dNRj_6lp_Eps-rMZVTLi_BZjDhkjHXKwLhjnV4r0v_BJNyUSDZhrP-SVN-p8XHFUvLRWMhHbcUsiDyk-IODUAa7JNH4i7_YrAC4osra9bdslB46Rof6RcRKem2BNcVn5pvFuGlsR3k7nxrBfhMwV_yn-nVoi4VkbvhyfzuByiR6Pm9Ff_JjGohr7SxT-_dpE4jGjBaTr9ToNy_tXQkzblWS8Bj6j7cmaqHZmfYSVn-dAS_ackQvbhnTPcvXgkJpaDahxJa1SjiKEKkBCbjDOXEFbOs4DcRpxMt0stM_o7Q7a1ILlh-llLIj1rVF9no0uy2k7HqSxdb_rl5uZrIh1SiSgDegKY6_-0000]--></g></svg>