<svg xmlns="http://www.w3.org/2000/svg" xmlns:xlink="http://www.w3.org/1999/xlink" contentStyleType="text/css" data-diagram-type="CLASS" height="408px" preserveAspectRatio="none" style="width:545px;height:408px;background:#FFFFFF;" version="1.1" viewBox="0 0 545 408" width="545px" zoomAndPan="magnify"><defs/><g><!--class com.hack23.cia.model.internal.application.data.document.impl.RiksdagenDocumentPartySummaryEmbeddedId--><g class="entity" data-entity="com.hack23.cia.model.internal.application.data.document.impl.RiksdagenDocumentPartySummaryEmbeddedId" data-source-line="13" data-uid="ent0002" id="entity_com.hack23.cia.model.internal.application.data.document.impl.RiksdagenDocumentPartySummaryEmbeddedId"><a href="RiksdagenDocumentPartySummaryEmbeddedId.html" target="_top" title="RiksdagenDocumentPartySummaryEmbeddedId.html" xlink:actuate="onRequest" xlink:href="RiksdagenDocumentPartySummaryEmbeddedId.html" xlink:show="new" xlink:title="RiksdagenDocumentPartySummaryEmbeddedId.html" xlink:type="simple"><rect fill="#F1F1F1" height="287.5029" rx="2.5" ry="2.5" style="stroke:#181818;stroke-width:0.5;" width="532.2101" x="6" y="91"/><ellipse cx="108.3887" cy="112.344" fill="#ADD1B2" rx="11" ry="11" style="stroke:#181818;stroke-width:1;"/><path d="M111.3574,117.9846 Q110.7793,118.2815 110.1387,118.4221 Q109.498,118.5783 108.7949,118.5783 Q106.2949,118.5783 104.9668,116.9377 Q103.6543,115.2815 103.6543,112.1565 Q103.6543,109.0315 104.9668,107.3752 Q106.2949,105.719 108.7949,105.719 Q109.498,105.719 110.1387,105.8752 Q110.7949,106.0315 111.3574,106.3283 L111.3574,109.0471 Q110.7324,108.469 110.1387,108.2033 Q109.5449,107.9221 108.9199,107.9221 Q107.5762,107.9221 106.8887,109.0002 Q106.2012,110.0627 106.2012,112.1565 Q106.2012,114.2502 106.8887,115.3283 Q107.5762,116.3908 108.9199,116.3908 Q109.5449,116.3908 110.1387,116.1252 Q110.7324,115.844 111.3574,115.2658 L111.3574,117.9846 Z " fill="#000000"/><text fill="#000000" font-family="sans-serif" font-size="14" lengthAdjust="spacing" textLength="318.9328" x="128.8887" y="110.9659">RiksdagenDocumentPartySummaryEmbeddedId</text><text fill="#000000" font-family="sans-serif" font-size="10" lengthAdjust="spacing" textLength="295.7798" x="140.4652" y="125.7579">com.hack23.cia.model.internal.application.data.document.impl</text><line style="stroke:#181818;stroke-width:0.5;" x1="7" x2="537.2101" y1="133.6879" y2="133.6879"/><polygon fill="none" points="17,143.7219,21,147.7219,17,151.7219,13,147.7219" style="stroke:#B38D22;stroke-width:1;"/><text fill="#000000" font-family="sans-serif" font-size="14" lengthAdjust="spacing" textLength="109.2556" x="26" y="152.6538">publicDate: Date</text><polygon fill="none" points="17,162.7898,21,166.7898,17,170.7898,13,166.7898" style="stroke:#B38D22;stroke-width:1;"/><text fill="#000000" font-family="sans-serif" font-size="14" lengthAdjust="spacing" textLength="150.6954" x="26" y="171.7218">partyShortCode: String</text><polygon fill="none" points="17,181.8577,21,185.8577,17,189.8577,13,185.8577" style="stroke:#B38D22;stroke-width:1;"/><text fill="#000000" font-family="sans-serif" font-size="14" lengthAdjust="spacing" textLength="145.3614" x="26" y="190.7897">documentType: String</text><line style="stroke:#181818;stroke-width:0.5;" x1="7" x2="537.2101" y1="198.8917" y2="198.8917"/><ellipse cx="17" cy="213.9256" fill="#84BE84" rx="3" ry="3" style="stroke:#038048;stroke-width:1;"/><text fill="#000000" font-family="sans-serif" font-size="14" lengthAdjust="spacing" textLength="139.0755" x="26" y="217.8576">getPublicDate(): Date</text><ellipse cx="17" cy="232.9935" fill="#84BE84" rx="3" ry="3" style="stroke:#038048;stroke-width:1;"/><text fill="#000000" font-family="sans-serif" font-size="14" lengthAdjust="spacing" textLength="164.9754" x="26" y="236.9255">setPublicDate(Date): void</text><ellipse cx="17" cy="252.0614" fill="#84BE84" rx="3" ry="3" style="stroke:#038048;stroke-width:1;"/><text fill="#000000" font-family="sans-serif" font-size="14" lengthAdjust="spacing" textLength="180.5153" x="26" y="255.9934">getPartyShortCode(): String</text><ellipse cx="17" cy="271.1294" fill="#84BE84" rx="3" ry="3" style="stroke:#038048;stroke-width:1;"/><text fill="#000000" font-family="sans-serif" font-size="14" lengthAdjust="spacing" textLength="206.4152" x="26" y="275.0613">setPartyShortCode(String): void</text><ellipse cx="17" cy="290.1973" fill="#84BE84" rx="3" ry="3" style="stroke:#038048;stroke-width:1;"/><text fill="#000000" font-family="sans-serif" font-size="14" lengthAdjust="spacing" textLength="176.9313" x="26" y="294.1293">getDocumentType(): String</text><ellipse cx="17" cy="309.2652" fill="#84BE84" rx="3" ry="3" style="stroke:#038048;stroke-width:1;"/><text fill="#000000" font-family="sans-serif" font-size="14" lengthAdjust="spacing" textLength="202.8312" x="26" y="313.1972">setDocumentType(String): void</text><ellipse cx="17" cy="328.3331" fill="#84BE84" rx="3" ry="3" style="stroke:#038048;stroke-width:1;"/><text fill="#000000" font-family="sans-serif" font-size="14" lengthAdjust="spacing" textLength="464.7703" x="26" y="332.2651">withPublicDate(Date): RiksdagenDocumentPartySummaryEmbeddedId</text><ellipse cx="17" cy="347.401" fill="#84BE84" rx="3" ry="3" style="stroke:#038048;stroke-width:1;"/><text fill="#000000" font-family="sans-serif" font-size="14" lengthAdjust="spacing" textLength="506.2101" x="26" y="351.333">withPartyShortCode(String): RiksdagenDocumentPartySummaryEmbeddedId</text><ellipse cx="17" cy="366.4689" fill="#84BE84" rx="3" ry="3" style="stroke:#038048;stroke-width:1;"/><text fill="#000000" font-family="sans-serif" font-size="14" lengthAdjust="spacing" textLength="502.6261" x="26" y="370.4009">withDocumentType(String): RiksdagenDocumentPartySummaryEmbeddedId</text></a></g><!--class com.hack23.cia.model.common.api.ModelObject--><g class="entity" data-entity="com.hack23.cia.model.common.api.ModelObject" data-source-line="28" data-uid="ent0003" id="entity_com.hack23.cia.model.common.api.ModelObject"><rect fill="#F1F1F1" height="42.6879" rx="2.5" ry="2.5" style="stroke:#181818;stroke-width:0.5;" width="189.3398" x="177.5" y="12"/><ellipse cx="192.5" cy="33.344" fill="#B4A7E5" rx="11" ry="11" style="stroke:#181818;stroke-width:1;"/><path d="M188.4219,29.1096 L188.4219,26.9533 L195.8125,26.9533 L195.8125,29.1096 L193.3438,29.1096 L193.3438,37.1877 L195.8125,37.1877 L195.8125,39.344 L188.4219,39.344 L188.4219,37.1877 L190.8906,37.1877 L190.8906,29.1096 L188.4219,29.1096 Z " fill="#000000"/><text fill="#000000" font-family="sans-serif" font-size="14" font-style="italic" lengthAdjust="spacing" textLength="78.1477" x="246.096" y="31.9659">ModelObject</text><text fill="#000000" font-family="sans-serif" font-size="10" font-style="italic" lengthAdjust="spacing" textLength="157.3398" x="206.5" y="46.7579">com.hack23.cia.model.common.api</text></g><g class="link" data-entity-1="com.hack23.cia.model.common.api.ModelObject" data-entity-2="com.hack23.cia.model.internal.application.data.document.impl.RiksdagenDocumentPartySummaryEmbeddedId" data-uid="lnk4" id="link_com.hack23.cia.model.common.api.ModelObject_com.hack23.cia.model.internal.application.data.document.impl.RiksdagenDocumentPartySummaryEmbeddedId"><polygon fill="none" points="272,55.0986,266,73.0986,278,73.0986,272,55.0986" style="stroke:#181818;stroke-width:1;"/><path d="M272,73.0986 C272,82.7554 272,77.1744 272,90.9623" fill="none" style="stroke:#181818;stroke-width:1;stroke-dasharray:7,7;"/></g><g class="footer" data-source-line="38"><text fill="#888888" font-family="sans-serif" font-size="10" lengthAdjust="spacing" textLength="2.6" x="267.2" y="383.69">&#160;</text><a href="https://github.com/talsma-ict/umldoclet" target="_top" title="https://github.com/talsma-ict/umldoclet" xlink:actuate="onRequest" xlink:href="https://github.com/talsma-ict/umldoclet" xlink:show="new" xlink:title="https://github.com/talsma-ict/umldoclet" xlink:type="simple"><text fill="#888888" font-family="sans-serif" font-size="10" lengthAdjust="spacing" textLength="76.7199" x="230.14" y="397.31">UMLDoclet 2.2.4</text></a></g><!--SRC=[lPNVJzim4CVVzrVSu64Wg9kMbeqA8Q62DgQY8LgUIX_S-4Yy-aSMEw1iut_V9IabBLJhDcbvI5NV-NDVd-yk003le6-JF9LHxC5RyB5qS7Cv06u4H6WmvHu5ICqZT315PKtaAaS4dldOfc3lod-XJLDqYJL2cWW-ytiEpcPfY8wzUGDbgD4J_O6x6dsQ5ujdDbJeOQU_MvFK3bg7ZNRGFeGHLqvpkEYFs9pslAVDsgm3n5OoHEC8cHc1QIdhDE4X_GmgopxSO-gaDRGdc7EAeuRMU2wDWuIdtXL7kbBS-49hYr7yBci5i7Cw72oB2uvASVjmcXgU2RYstxB5UTycAOz8ikAvpJmuZPuRNjaSgJPSKxvuY4EagDnJAeqrMDfZAH1G9pw7EubAkDLLWiMMbilrK77dOElOoU_OQtLEhkNC2RenG_d9D1f_HQVAXvdMFCtFzHI5G74XRiryHt0IMirY7ixQ1ooKd6ahK35fFDAv5ED9GfdbdlB61FUSYJcNIPseBQ3R_1S0sr0lZCSRUhBOQpMPm8yoFSMpdMHJad161TU3ubspb0YgPDydrJqO-fGg-Dd-f7MK9o-jUn7wgmLwPtS5lkUMpCMBNEwj5Ck49Ga5PJMCU-5KURn6Ewi9NiDQSbb3Uf0-VgbzmnjOmQoH_bUmrxN_2UgnQfkoFE-e0MkjSraKxfVfLmpzxzg35ZNLCq_a-Wvuzc4ryhnhDzy0npyP-oyzLaaxTZvNUBB8-vsr5ANMJiNpYVAV3gIPzQsYsRNzuNNhJJ6AbJH8qp-S6QH95Imy7wjmpLgyUQnRCnx7tYUkrsn6TElPjCXDqvUVWOOCVJFJIbJpV-LBC9dC9_l7nIUccDADeDDejKQjJk-WqmiwhFE-4nm5tMvtBsZtWc1ydgKsmURGst0MMwKdlm00]--></g></svg>