<svg xmlns="http://www.w3.org/2000/svg" xmlns:xlink="http://www.w3.org/1999/xlink" contentStyleType="text/css" data-diagram-type="CLASS" height="331px" preserveAspectRatio="none" style="width:538px;height:331px;background:#FFFFFF;" version="1.1" viewBox="0 0 538 331" width="538px" zoomAndPan="magnify"><defs/><g><!--class com.hack23.cia.model.internal.application.data.document.impl.RiksdagenDocumentTypeSummaryEmbeddedId--><g class="entity" data-entity="com.hack23.cia.model.internal.application.data.document.impl.RiksdagenDocumentTypeSummaryEmbeddedId" data-source-line="13" data-uid="ent0002" id="entity_com.hack23.cia.model.internal.application.data.document.impl.RiksdagenDocumentTypeSummaryEmbeddedId"><a href="RiksdagenDocumentTypeSummaryEmbeddedId.html" target="_top" title="RiksdagenDocumentTypeSummaryEmbeddedId.html" xlink:actuate="onRequest" xlink:href="RiksdagenDocumentTypeSummaryEmbeddedId.html" xlink:show="new" xlink:title="RiksdagenDocumentTypeSummaryEmbeddedId.html" xlink:type="simple"><rect fill="#F1F1F1" height="211.2312" rx="2.5" ry="2.5" style="stroke:#181818;stroke-width:0.5;" width="525.756" x="6" y="91"/><ellipse cx="106.5966" cy="112.344" fill="#ADD1B2" rx="11" ry="11" style="stroke:#181818;stroke-width:1;"/><path d="M109.5654,117.9846 Q108.9873,118.2815 108.3466,118.4221 Q107.706,118.5783 107.0029,118.5783 Q104.5029,118.5783 103.1748,116.9377 Q101.8623,115.2815 101.8623,112.1565 Q101.8623,109.0315 103.1748,107.3752 Q104.5029,105.719 107.0029,105.719 Q107.706,105.719 108.3466,105.8752 Q109.0029,106.0315 109.5654,106.3283 L109.5654,109.0471 Q108.9404,108.469 108.3466,108.2033 Q107.7529,107.9221 107.1279,107.9221 Q105.7841,107.9221 105.0966,109.0002 Q104.4091,110.0627 104.4091,112.1565 Q104.4091,114.2502 105.0966,115.3283 Q105.7841,116.3908 107.1279,116.3908 Q107.7529,116.3908 108.3466,116.1252 Q108.9404,115.844 109.5654,115.2658 L109.5654,117.9846 Z " fill="#000000"/><text fill="#000000" font-family="sans-serif" font-size="14" lengthAdjust="spacing" textLength="316.0627" x="127.0966" y="110.9659">RiksdagenDocumentTypeSummaryEmbeddedId</text><text fill="#000000" font-family="sans-serif" font-size="10" lengthAdjust="spacing" textLength="295.7798" x="137.2381" y="125.7579">com.hack23.cia.model.internal.application.data.document.impl</text><line style="stroke:#181818;stroke-width:0.5;" x1="7" x2="530.756" y1="133.6879" y2="133.6879"/><polygon fill="none" points="17,143.7219,21,147.7219,17,151.7219,13,147.7219" style="stroke:#B38D22;stroke-width:1;"/><text fill="#000000" font-family="sans-serif" font-size="14" lengthAdjust="spacing" textLength="117.6275" x="26" y="152.6538">publicDate: String</text><polygon fill="none" points="17,162.7898,21,166.7898,17,170.7898,13,166.7898" style="stroke:#B38D22;stroke-width:1;"/><text fill="#000000" font-family="sans-serif" font-size="14" lengthAdjust="spacing" textLength="145.3614" x="26" y="171.7218">documentType: String</text><line style="stroke:#181818;stroke-width:0.5;" x1="7" x2="530.756" y1="179.8237" y2="179.8237"/><ellipse cx="17" cy="194.8577" fill="#84BE84" rx="3" ry="3" style="stroke:#038048;stroke-width:1;"/><text fill="#000000" font-family="sans-serif" font-size="14" lengthAdjust="spacing" textLength="147.4474" x="26" y="198.7897">getPublicDate(): String</text><ellipse cx="17" cy="213.9256" fill="#84BE84" rx="3" ry="3" style="stroke:#038048;stroke-width:1;"/><text fill="#000000" font-family="sans-serif" font-size="14" lengthAdjust="spacing" textLength="173.3473" x="26" y="217.8576">setPublicDate(String): void</text><ellipse cx="17" cy="232.9935" fill="#84BE84" rx="3" ry="3" style="stroke:#038048;stroke-width:1;"/><text fill="#000000" font-family="sans-serif" font-size="14" lengthAdjust="spacing" textLength="176.9313" x="26" y="236.9255">getDocumentType(): String</text><ellipse cx="17" cy="252.0614" fill="#84BE84" rx="3" ry="3" style="stroke:#038048;stroke-width:1;"/><text fill="#000000" font-family="sans-serif" font-size="14" lengthAdjust="spacing" textLength="202.8312" x="26" y="255.9934">setDocumentType(String): void</text><ellipse cx="17" cy="271.1294" fill="#84BE84" rx="3" ry="3" style="stroke:#038048;stroke-width:1;"/><text fill="#000000" font-family="sans-serif" font-size="14" lengthAdjust="spacing" textLength="470.2722" x="26" y="275.0613">withPublicDate(String): RiksdagenDocumentTypeSummaryEmbeddedId</text><ellipse cx="17" cy="290.1973" fill="#84BE84" rx="3" ry="3" style="stroke:#038048;stroke-width:1;"/><text fill="#000000" font-family="sans-serif" font-size="14" lengthAdjust="spacing" textLength="499.756" x="26" y="294.1293">withDocumentType(String): RiksdagenDocumentTypeSummaryEmbeddedId</text></a></g><!--class com.hack23.cia.model.common.api.ModelObject--><g class="entity" data-entity="com.hack23.cia.model.common.api.ModelObject" data-source-line="24" data-uid="ent0003" id="entity_com.hack23.cia.model.common.api.ModelObject"><rect fill="#F1F1F1" height="42.6879" rx="2.5" ry="2.5" style="stroke:#181818;stroke-width:0.5;" width="189.3398" x="174.5" y="12"/><ellipse cx="189.5" cy="33.344" fill="#B4A7E5" rx="11" ry="11" style="stroke:#181818;stroke-width:1;"/><path d="M185.4219,29.1096 L185.4219,26.9533 L192.8125,26.9533 L192.8125,29.1096 L190.3438,29.1096 L190.3438,37.1877 L192.8125,37.1877 L192.8125,39.344 L185.4219,39.344 L185.4219,37.1877 L187.8906,37.1877 L187.8906,29.1096 L185.4219,29.1096 Z " fill="#000000"/><text fill="#000000" font-family="sans-serif" font-size="14" font-style="italic" lengthAdjust="spacing" textLength="78.1477" x="243.096" y="31.9659">ModelObject</text><text fill="#000000" font-family="sans-serif" font-size="10" font-style="italic" lengthAdjust="spacing" textLength="157.3398" x="203.5" y="46.7579">com.hack23.cia.model.common.api</text></g><g class="link" data-entity-1="com.hack23.cia.model.common.api.ModelObject" data-entity-2="com.hack23.cia.model.internal.application.data.document.impl.RiksdagenDocumentTypeSummaryEmbeddedId" data-uid="lnk4" id="link_com.hack23.cia.model.common.api.ModelObject_com.hack23.cia.model.internal.application.data.document.impl.RiksdagenDocumentTypeSummaryEmbeddedId"><polygon fill="none" points="269,55.2183,263,73.2183,275,73.2183,269,55.2183" style="stroke:#181818;stroke-width:1;"/><path d="M269,73.2183 C269,82.9851 269,77.4416 269,90.8868" fill="none" style="stroke:#181818;stroke-width:1;stroke-dasharray:7,7;"/></g><g class="footer" data-source-line="34"><text fill="#888888" font-family="sans-serif" font-size="10" lengthAdjust="spacing" textLength="2.6" x="264.2" y="306.69">&#160;</text><a href="https://github.com/talsma-ict/umldoclet" target="_top" title="https://github.com/talsma-ict/umldoclet" xlink:actuate="onRequest" xlink:href="https://github.com/talsma-ict/umldoclet" xlink:show="new" xlink:title="https://github.com/talsma-ict/umldoclet" xlink:type="simple"><text fill="#888888" font-family="sans-serif" font-size="10" lengthAdjust="spacing" textLength="76.7199" x="227.14" y="320.31">UMLDoclet 2.2.4</text></a></g><!--SRC=[lLJRJjj047tlLqpXeI38nd439H52GW6rL45593o5F6oy4tkRlRZUDIXj-VUEBmqE5pLLfVh5ybpEd9qzFW00xs1WqsKcuyI3j-0JwU3cSWZS28ZHOCOz2f2Qn-XWXigQs5M523ptYSt0piklo6OPkjGQ8KqCd_aT1sVpB4B7tho1SjJuD_ezTmtqsR88djb8eOUTmMw3KXXq3bjX41x2c2kdELmCngn6U-m9MSYwGDXAHcWSGUP6O5RIEarvHAzXbTc7EyoSj8PwWXgdE6faZUVIE4Xvvbrnf2l5ZI-uTXZDFs2T07PEHyDrSa6l9BSFfvdXkO1h-orVdVTjcl6OA2k-jBa7fz5pmwkS8zQ6QzeNZt24D9LxMgMn1ijy8WK2wjGlOIvH2VSqIc29fN0PZnHt3hQEdVoE_Kxtv5ekdA0RCxIVNAFnusMAernhdYtFzGo5G74XRatT49n4LhE4HulmFOiaPzeAL4mQZtGinNYQqcAvfxKnmJrdeePbKgTg2-Wo_mM0RKON9fFD2bdYjPfEuKUvc-BPJlCP4JWZjVLXv3CIw6DEDB2UPVTYz5UhvftTvmLkhQ3AKjcTbM8DfKdv5PorabUGxgLFNfgtsMhMSLwUznT83vNyodkUav0R4hmi5F1bzXKZ_oUTKL2JC7WgNvVIOmrh8DVgtxm1ZdyozZ_4MZ4xTdwfy6IrzRcrDAGXpEBvHFtPK9h5m2goWEsZbxCtXQCfQP1CD5eOf1y-M5K-LEFQZNdrh5ipcIJUfwxVRiTqv_ciM4tRbsxQaf5lvrg9oaQV6EfqMXlanvLJ5sRN2i9Mq1i71_qWx7Ufyh1trElrkX_sWau_22RdUMPJR8-yZHQ9LNhw2m00]--></g></svg>