<svg xmlns="http://www.w3.org/2000/svg" xmlns:xlink="http://www.w3.org/1999/xlink" contentStyleType="text/css" data-diagram-type="CLASS" height="331px" preserveAspectRatio="none" style="width:503px;height:331px;background:#FFFFFF;" version="1.1" viewBox="0 0 503 331" width="503px" zoomAndPan="magnify"><defs/><g><!--class com.hack23.cia.model.internal.application.data.document.impl.RiksdagenDocumentOrgSummaryEmbeddedId--><g class="entity" data-entity="com.hack23.cia.model.internal.application.data.document.impl.RiksdagenDocumentOrgSummaryEmbeddedId" data-source-line="13" data-uid="ent0002" id="entity_com.hack23.cia.model.internal.application.data.document.impl.RiksdagenDocumentOrgSummaryEmbeddedId"><a href="RiksdagenDocumentOrgSummaryEmbeddedId.html" target="_top" title="RiksdagenDocumentOrgSummaryEmbeddedId.html" xlink:actuate="onRequest" xlink:href="RiksdagenDocumentOrgSummaryEmbeddedId.html" xlink:show="new" xlink:title="RiksdagenDocumentOrgSummaryEmbeddedId.html" xlink:type="simple"><rect fill="#F1F1F1" height="211.2312" rx="2.5" ry="2.5" style="stroke:#181818;stroke-width:0.5;" width="490.1682" x="6" y="91"/><ellipse cx="91.8547" cy="112.344" fill="#ADD1B2" rx="11" ry="11" style="stroke:#181818;stroke-width:1;"/><path d="M94.8235,117.9846 Q94.2453,118.2815 93.6047,118.4221 Q92.9641,118.5783 92.261,118.5783 Q89.761,118.5783 88.4328,116.9377 Q87.1203,115.2815 87.1203,112.1565 Q87.1203,109.0315 88.4328,107.3752 Q89.761,105.719 92.261,105.719 Q92.9641,105.719 93.6047,105.8752 Q94.261,106.0315 94.8235,106.3283 L94.8235,109.0471 Q94.1985,108.469 93.6047,108.2033 Q93.011,107.9221 92.386,107.9221 Q91.0422,107.9221 90.3547,109.0002 Q89.6672,110.0627 89.6672,112.1565 Q89.6672,114.2502 90.3547,115.3283 Q91.0422,116.3908 92.386,116.3908 Q93.011,116.3908 93.6047,116.1252 Q94.1985,115.844 94.8235,115.2658 L94.8235,117.9846 Z " fill="#000000"/><text fill="#000000" font-family="sans-serif" font-size="14" lengthAdjust="spacing" textLength="309.9588" x="112.3547" y="110.9659">RiksdagenDocumentOrgSummaryEmbeddedId</text><text fill="#000000" font-family="sans-serif" font-size="10" lengthAdjust="spacing" textLength="295.7798" x="119.4442" y="125.7579">com.hack23.cia.model.internal.application.data.document.impl</text><line style="stroke:#181818;stroke-width:0.5;" x1="7" x2="495.1682" y1="133.6879" y2="133.6879"/><polygon fill="none" points="17,143.7219,21,147.7219,17,151.7219,13,147.7219" style="stroke:#B38D22;stroke-width:1;"/><text fill="#000000" font-family="sans-serif" font-size="14" lengthAdjust="spacing" textLength="117.6275" x="26" y="152.6538">publicDate: String</text><polygon fill="none" points="17,162.7898,21,166.7898,17,170.7898,13,166.7898" style="stroke:#B38D22;stroke-width:1;"/><text fill="#000000" font-family="sans-serif" font-size="14" lengthAdjust="spacing" textLength="69.6497" x="26" y="171.7218">org: String</text><line style="stroke:#181818;stroke-width:0.5;" x1="7" x2="495.1682" y1="179.8237" y2="179.8237"/><ellipse cx="17" cy="194.8577" fill="#84BE84" rx="3" ry="3" style="stroke:#038048;stroke-width:1;"/><text fill="#000000" font-family="sans-serif" font-size="14" lengthAdjust="spacing" textLength="147.4474" x="26" y="198.7897">getPublicDate(): String</text><ellipse cx="17" cy="213.9256" fill="#84BE84" rx="3" ry="3" style="stroke:#038048;stroke-width:1;"/><text fill="#000000" font-family="sans-serif" font-size="14" lengthAdjust="spacing" textLength="173.3473" x="26" y="217.8576">setPublicDate(String): void</text><ellipse cx="17" cy="232.9935" fill="#84BE84" rx="3" ry="3" style="stroke:#038048;stroke-width:1;"/><text fill="#000000" font-family="sans-serif" font-size="14" lengthAdjust="spacing" textLength="102.0736" x="26" y="236.9255">getOrg(): String</text><ellipse cx="17" cy="252.0614" fill="#84BE84" rx="3" ry="3" style="stroke:#038048;stroke-width:1;"/><text fill="#000000" font-family="sans-serif" font-size="14" lengthAdjust="spacing" textLength="127.9735" x="26" y="255.9934">setOrg(String): void</text><ellipse cx="17" cy="271.1294" fill="#84BE84" rx="3" ry="3" style="stroke:#038048;stroke-width:1;"/><text fill="#000000" font-family="sans-serif" font-size="14" lengthAdjust="spacing" textLength="464.1682" x="26" y="275.0613">withPublicDate(String): RiksdagenDocumentOrgSummaryEmbeddedId</text><ellipse cx="17" cy="290.1973" fill="#84BE84" rx="3" ry="3" style="stroke:#038048;stroke-width:1;"/><text fill="#000000" font-family="sans-serif" font-size="14" lengthAdjust="spacing" textLength="418.7944" x="26" y="294.1293">withOrg(String): RiksdagenDocumentOrgSummaryEmbeddedId</text></a></g><!--class com.hack23.cia.model.common.api.ModelObject--><g class="entity" data-entity="com.hack23.cia.model.common.api.ModelObject" data-source-line="24" data-uid="ent0003" id="entity_com.hack23.cia.model.common.api.ModelObject"><rect fill="#F1F1F1" height="42.6879" rx="2.5" ry="2.5" style="stroke:#181818;stroke-width:0.5;" width="189.3398" x="156.5" y="12"/><ellipse cx="171.5" cy="33.344" fill="#B4A7E5" rx="11" ry="11" style="stroke:#181818;stroke-width:1;"/><path d="M167.4219,29.1096 L167.4219,26.9533 L174.8125,26.9533 L174.8125,29.1096 L172.3438,29.1096 L172.3438,37.1877 L174.8125,37.1877 L174.8125,39.344 L167.4219,39.344 L167.4219,37.1877 L169.8906,37.1877 L169.8906,29.1096 L167.4219,29.1096 Z " fill="#000000"/><text fill="#000000" font-family="sans-serif" font-size="14" font-style="italic" lengthAdjust="spacing" textLength="78.1477" x="225.096" y="31.9659">ModelObject</text><text fill="#000000" font-family="sans-serif" font-size="10" font-style="italic" lengthAdjust="spacing" textLength="157.3398" x="185.5" y="46.7579">com.hack23.cia.model.common.api</text></g><g class="link" data-entity-1="com.hack23.cia.model.common.api.ModelObject" data-entity-2="com.hack23.cia.model.internal.application.data.document.impl.RiksdagenDocumentOrgSummaryEmbeddedId" data-uid="lnk4" id="link_com.hack23.cia.model.common.api.ModelObject_com.hack23.cia.model.internal.application.data.document.impl.RiksdagenDocumentOrgSummaryEmbeddedId"><polygon fill="none" points="251,55.2183,245,73.2183,257,73.2183,251,55.2183" style="stroke:#181818;stroke-width:1;"/><path d="M251,73.2183 C251,82.9851 251,77.4416 251,90.8868" fill="none" style="stroke:#181818;stroke-width:1;stroke-dasharray:7,7;"/></g><g class="footer" data-source-line="34"><text fill="#888888" font-family="sans-serif" font-size="10" lengthAdjust="spacing" textLength="2.6" x="246.2" y="306.69">&#160;</text><a href="https://github.com/talsma-ict/umldoclet" target="_top" title="https://github.com/talsma-ict/umldoclet" xlink:actuate="onRequest" xlink:href="https://github.com/talsma-ict/umldoclet" xlink:show="new" xlink:title="https://github.com/talsma-ict/umldoclet" xlink:type="simple"><text fill="#888888" font-family="sans-serif" font-size="10" lengthAdjust="spacing" textLength="76.7199" x="209.14" y="320.31">UMLDoclet 2.2.4</text></a></g><!--SRC=[lLJRJjj047tdAwRmK11aOoS1bGWXeO1QgY0G2KyX3nllnDvcB-xk6fIs_7l7TXeIBcgaIlMBvRcSEJDpF0007w5dyxcJQHOWM0YPz71trGTk1AHeqF600gJcANgOeB8czNKW0Yz2PXtOQVMLMEVGvzO8QLBuoXyuU5ku13tRseAgrF0F-YFtA-YJUMayjud20BkzlHLAhIW-QhIYrX4CkVAQmsLlo1Peppajrc8T86mb4pIU80iZq5MqpdAUqAjVUmxW0PsNrb1EjC0fMqsi2LmQ3pbtmPSjtIXkGiarPbJ_aCKHx9uD-klaekEAt06SESCB0RVsUx7izqFkU4gK5P_R8e3N6BZXjSyJQyCrpOidE42goWEDqbY3bJ-J0W5r7kOmbQY4VsabiCoIkR8dYdiFsoTU_i1kt3czbJClQ6E6vbDeDE7QfOD2Q-xc5tg2Gg2u5FTc4H-T9bQpZ2UpLfibaZDj1IecJK3gIZ6UvpHN7cXgJF30cLYWCgbpjGsqoty1O1knXT5eepYM1Qt6O_XP3QPyTl9YGkNFIMfT60H7wdpsMPU-Ckwd66wMERjxhmFyMa3jfR07AyKQ2X5y9xtql9FtA4Fs5lf6xQ_3h5NPFF-fLbMrlodfSqLPL-LchoVVC0b_qmyPDIsSv_9zYJp7i1NaXQWtJu2JNupz1n7Mn4vyc2iyNOvwQYtLM55S-NoPv-ZwqinwLj6FlVFfRUzTUQUKD4YdCPaPfDyuMaO-rUMQA_KMjUxDQ9I5aFjkivdIeej9EPbcg6vaGoQXMMWbwkFuuaoEnukpztbvVyiJreWwZJWUnfrkkzEDEgnpV1Z7xNOKxqUjRXIDBWfdSsmEWarccLLw_1i0]--></g></svg>