<?xml version="1.0" encoding="UTF-8" standalone="no"?><svg xmlns="http://www.w3.org/2000/svg" xmlns:xlink="http://www.w3.org/1999/xlink" contentStyleType="text/css" height="179px" preserveAspectRatio="none" style="width:523px;height:179px;background:#FFFFFF;" version="1.1" viewBox="0 0 523 179" width="523px" zoomAndPan="magnify"><defs/><g><!--MD5=[3761615e59acda566dacf6222b6a1da1]
cluster com.hack23.cia.web.impl.ui.application.views.common.rows--><g id="cluster_com.hack23.cia.web.impl.ui.application.views.common.rows"><path d="M8.5,6 L484.5,6 A3.75,3.75 0 0 1 487,8.5 L494,28.2969 L513.5,28.2969 A2.5,2.5 0 0 1 516,30.7969 L516,151.5 A2.5,2.5 0 0 1 513.5,154 L8.5,154 A2.5,2.5 0 0 1 6,151.5 L6,8.5 A2.5,2.5 0 0 1 8.5,6 " style="stroke:#000000;stroke-width:1.5;fill:none;"/><line style="stroke:#000000;stroke-width:1.5;fill:none;" x1="6" x2="494" y1="28.2969" y2="28.2969"/><text fill="#000000" font-family="sans-serif" font-size="14" font-weight="bold" lengthAdjust="spacing" textLength="475" x="10" y="20.9951">com.hack23.cia.web.impl.ui.application.views.common.rows</text></g><!--MD5=[00c5c3caeae7790fe63da54e64a83876]
class com.hack23.cia.web.impl.ui.application.views.common.rows.RowUtil--><a href="RowUtil.html" target="_top" title="RowUtil.html" xlink:actuate="onRequest" xlink:href="RowUtil.html" xlink:show="new" xlink:title="RowUtil.html" xlink:type="simple"><g id="elem_com.hack23.cia.web.impl.ui.application.views.common.rows.RowUtil"><rect codeLine="3" fill="#F1F1F1" height="96.8906" id="com.hack23.cia.web.impl.ui.application.views.common.rows.RowUtil" rx="2.5" ry="2.5" style="stroke:#181818;stroke-width:0.5;" width="478" x="22" y="41"/><ellipse cx="231.25" cy="57" fill="#ADD1B2" rx="11" ry="11" style="stroke:#181818;stroke-width:1.0;"/><path d="M234.2188,62.6406 Q233.6406,62.9375 233,63.0781 Q232.3594,63.2344 231.6563,63.2344 Q229.1563,63.2344 227.8281,61.5938 Q226.5156,59.9375 226.5156,56.8125 Q226.5156,53.6875 227.8281,52.0313 Q229.1563,50.375 231.6563,50.375 Q232.3594,50.375 233,50.5313 Q233.6563,50.6875 234.2188,50.9844 L234.2188,53.7031 Q233.5938,53.125 233,52.8594 Q232.4063,52.5781 231.7813,52.5781 Q230.4375,52.5781 229.75,53.6563 Q229.0625,54.7188 229.0625,56.8125 Q229.0625,58.9063 229.75,59.9844 Q230.4375,61.0469 231.7813,61.0469 Q232.4063,61.0469 233,60.7813 Q233.5938,60.5 234.2188,59.9219 L234.2188,62.6406 Z " fill="#000000"/><text fill="#000000" font-family="sans-serif" font-size="14" lengthAdjust="spacing" textLength="51" x="251.75" y="61.8467">RowUtil</text><line style="stroke:#181818;stroke-width:0.5;" x1="23" x2="499" y1="73" y2="73"/><line style="stroke:#181818;stroke-width:0.5;" x1="23" x2="499" y1="81" y2="81"/><ellipse cx="33" cy="92" fill="#84BE84" rx="3" ry="3" style="stroke:#038048;stroke-width:1.0;"/><text fill="#000000" font-family="sans-serif" font-size="14" lengthAdjust="spacing" text-decoration="underline" textLength="406" x="42" y="97.9951">createGridLayout(AbstractOrderedLayout): ResponsiveRow</text><ellipse cx="33" cy="108.2969" fill="#84BE84" rx="3" ry="3" style="stroke:#038048;stroke-width:1.0;"/><text fill="#000000" font-family="sans-serif" font-size="14" lengthAdjust="spacing" text-decoration="underline" textLength="452" x="42" y="114.292">createRowComponent(ResponsiveRow, Component, String): void</text><ellipse cx="33" cy="124.5938" fill="#84BE84" rx="3" ry="3" style="stroke:#038048;stroke-width:1.0;"/><text fill="#000000" font-family="sans-serif" font-size="14" lengthAdjust="spacing" text-decoration="underline" textLength="365" x="42" y="130.5889">createRowItem(ResponsiveRow, Button, String): void</text></g></a><rect height="11.6406" style="stroke:#00000000;stroke-width:1.0;fill:none;" width="186" x="161.5" y="160"/><text fill="#888888" font-family="sans-serif" font-size="10" lengthAdjust="spacing" textLength="186" x="161.5" y="169.2822">UMLDoclet 2.0.18, PlantUML 1.2022.6</text><!--MD5=[4df0ebeaacb039f32146c2eff6826a3f]
@startuml
    namespace com.hack23.cia.web.impl.ui.application.views.common.rows {

        class RowUtil [[RowUtil.html]] {
            {static} +createGridLayout(AbstractOrderedLayout): ResponsiveRow
            {static} +createRowComponent(ResponsiveRow, Component, String): void
            {static} +createRowItem(ResponsiveRow, Button, String): void
        }

    }

    center footer UMLDoclet 2.0.18, PlantUML 1.2022.6
@enduml

PlantUML version 1.2022.6(Tue Jun 21 19:34:49 CEST 2022)
(APACHE source distribution)
Java Runtime: OpenJDK Runtime Environment
JVM: OpenJDK 64-Bit Server VM
Default Encoding: ANSI_X3.4-1968
Language: en
Country: US
--></g></svg>