<?xml version="1.0" encoding="UTF-8" standalone="no"?><svg xmlns="http://www.w3.org/2000/svg" xmlns:xlink="http://www.w3.org/1999/xlink" contentStyleType="text/css" height="128px" preserveAspectRatio="none" style="width:499px;height:128px;background:#FFFFFF;" version="1.1" viewBox="0 0 499 128" width="499px" zoomAndPan="magnify"><defs/><g><!--MD5=[00c5c3caeae7790fe63da54e64a83876]
class com.hack23.cia.web.impl.ui.application.views.common.rows.RowUtil--><a href="RowUtil.html" target="_top" title="RowUtil.html" xlink:actuate="onRequest" xlink:href="RowUtil.html" xlink:show="new" xlink:title="RowUtil.html" xlink:type="simple"><g id="elem_com.hack23.cia.web.impl.ui.application.views.common.rows.RowUtil"><rect codeLine="5" fill="#F1F1F1" height="94.8281" id="com.hack23.cia.web.impl.ui.application.views.common.rows.RowUtil" rx="2.5" ry="2.5" style="stroke:#181818;stroke-width:0.5;" width="478" x="7" y="7"/><ellipse cx="98.25" cy="25.9688" fill="#ADD1B2" rx="11" ry="11" style="stroke:#181818;stroke-width:1.0;"/><path d="M101.2188,31.6094 Q100.6406,31.9063 100,32.0469 Q99.3594,32.2031 98.6563,32.2031 Q96.1563,32.2031 94.8281,30.5625 Q93.5156,28.9063 93.5156,25.7813 Q93.5156,22.6563 94.8281,21 Q96.1563,19.3438 98.6563,19.3438 Q99.3594,19.3438 100,19.5 Q100.6563,19.6563 101.2188,19.9531 L101.2188,22.6719 Q100.5938,22.0938 100,21.8281 Q99.4063,21.5469 98.7813,21.5469 Q97.4375,21.5469 96.75,22.625 Q96.0625,23.6875 96.0625,25.7813 Q96.0625,27.875 96.75,28.9531 Q97.4375,30.0156 98.7813,30.0156 Q99.4063,30.0156 100,29.75 Q100.5938,29.4688 101.2188,28.8906 L101.2188,31.6094 Z " fill="#000000"/><text fill="#000000" font-family="sans-serif" font-size="14" lengthAdjust="spacing" textLength="51" x="236.75" y="24.9951">RowUtil</text><text fill="#000000" font-family="sans-serif" font-size="10" lengthAdjust="spacing" textLength="287" x="118.75" y="37.5791">com.hack23.cia.web.impl.ui.application.views.common.rows</text><line style="stroke:#181818;stroke-width:0.5;" x1="8" x2="484" y1="44.9375" y2="44.9375"/><ellipse cx="18" cy="55.9375" fill="#84BE84" rx="3" ry="3" style="stroke:#038048;stroke-width:1.0;"/><text fill="#000000" font-family="sans-serif" font-size="14" lengthAdjust="spacing" text-decoration="underline" textLength="406" x="27" y="61.9326">createGridLayout(AbstractOrderedLayout): ResponsiveRow</text><ellipse cx="18" cy="72.2344" fill="#84BE84" rx="3" ry="3" style="stroke:#038048;stroke-width:1.0;"/><text fill="#000000" font-family="sans-serif" font-size="14" lengthAdjust="spacing" text-decoration="underline" textLength="452" x="27" y="78.2295">createRowComponent(ResponsiveRow, Component, String): void</text><ellipse cx="18" cy="88.5313" fill="#84BE84" rx="3" ry="3" style="stroke:#038048;stroke-width:1.0;"/><text fill="#000000" font-family="sans-serif" font-size="14" lengthAdjust="spacing" text-decoration="underline" textLength="365" x="27" y="94.5264">createRowItem(ResponsiveRow, Button, String): void</text></g></a><rect height="11.6406" style="stroke:#00000000;stroke-width:1.0;fill:none;" width="186" x="152.5" y="108.8281"/><text fill="#888888" font-family="sans-serif" font-size="10" lengthAdjust="spacing" textLength="186" x="152.5" y="118.1104">UMLDoclet 2.0.18, PlantUML 1.2022.6</text><!--MD5=[9c8444c2905cc3e97ce7f6143798d50b]
@startuml
    set namespaceSeparator none
    hide empty fields
    hide empty methods

    class "<size:14>RowUtil\n<size:10>com.hack23.cia.web.impl.ui.application.views.common.rows" as com.hack23.cia.web.impl.ui.application.views.common.rows.RowUtil [[RowUtil.html]] {
        {static} +createGridLayout(AbstractOrderedLayout): ResponsiveRow
        {static} +createRowComponent(ResponsiveRow, Component, String): void
        {static} +createRowItem(ResponsiveRow, Button, String): void
    }

    center footer UMLDoclet 2.0.18, PlantUML 1.2022.6
@enduml

PlantUML version 1.2022.6(Tue Jun 21 19:34:49 CEST 2022)
(APACHE source distribution)
Java Runtime: OpenJDK Runtime Environment
JVM: OpenJDK 64-Bit Server VM
Default Encoding: ANSI_X3.4-1968
Language: en
Country: US
--></g></svg>