<svg xmlns="http://www.w3.org/2000/svg" xmlns:xlink="http://www.w3.org/1999/xlink" contentStyleType="text/css" data-diagram-type="CLASS" height="364px" preserveAspectRatio="none" style="width:359px;height:364px;background:#FFFFFF;" version="1.1" viewBox="0 0 359 364" width="359px" zoomAndPan="magnify"><defs/><g><!--class com.hack23.cia.service.api.action.admin.ManageUserAccountRequest--><g class="entity" data-entity="com.hack23.cia.service.api.action.admin.ManageUserAccountRequest" data-source-line="13" data-uid="ent0002" id="entity_com.hack23.cia.service.api.action.admin.ManageUserAccountRequest"><a href="ManageUserAccountRequest.html" target="_top" title="ManageUserAccountRequest.html" xlink:actuate="onRequest" xlink:href="ManageUserAccountRequest.html" xlink:show="new" xlink:title="ManageUserAccountRequest.html" xlink:type="simple"><rect fill="#F1F1F1" height="165.0954" rx="2.5" ry="2.5" style="stroke:#181818;stroke-width:0.5;" width="329.4069" x="15" y="91"/><ellipse cx="79.9948" cy="112.344" fill="#ADD1B2" rx="11" ry="11" style="stroke:#181818;stroke-width:1;"/><path d="M82.9635,117.9846 Q82.3854,118.2815 81.7448,118.4221 Q81.1042,118.5783 80.401,118.5783 Q77.901,118.5783 76.5729,116.9377 Q75.2604,115.2815 75.2604,112.1565 Q75.2604,109.0315 76.5729,107.3752 Q77.901,105.719 80.401,105.719 Q81.1042,105.719 81.7448,105.8752 Q82.401,106.0315 82.9635,106.3283 L82.9635,109.0471 Q82.3385,108.469 81.7448,108.2033 Q81.151,107.9221 80.526,107.9221 Q79.1823,107.9221 78.4948,109.0002 Q77.8073,110.0627 77.8073,112.1565 Q77.8073,114.2502 78.4948,115.3283 Q79.1823,116.3908 80.526,116.3908 Q81.151,116.3908 81.7448,116.1252 Q82.3385,115.844 82.9635,115.2658 L82.9635,117.9846 Z " fill="#000000"/><text fill="#000000" font-family="sans-serif" font-size="14" lengthAdjust="spacing" textLength="190.9173" x="100.4948" y="110.9659">ManageUserAccountRequest</text><text fill="#000000" font-family="sans-serif" font-size="10" lengthAdjust="spacing" textLength="188.3399" x="101.7835" y="125.7579">com.hack23.cia.service.api.action.admin</text><line style="stroke:#181818;stroke-width:0.5;" x1="16" x2="343.4069" y1="133.6879" y2="133.6879"/><ellipse cx="26" cy="148.7219" fill="#84BE84" rx="3" ry="3" style="stroke:#038048;stroke-width:1;"/><text fill="#000000" font-family="sans-serif" font-size="14" lengthAdjust="spacing" textLength="139.8315" x="35" y="152.6538">getSessionId(): String</text><ellipse cx="26" cy="167.7898" fill="#84BE84" rx="3" ry="3" style="stroke:#038048;stroke-width:1;"/><text fill="#000000" font-family="sans-serif" font-size="14" lengthAdjust="spacing" textLength="165.7314" x="35" y="171.7218">setSessionId(String): void</text><ellipse cx="26" cy="186.8577" fill="#84BE84" rx="3" ry="3" style="stroke:#038048;stroke-width:1;"/><text fill="#000000" font-family="sans-serif" font-size="14" lengthAdjust="spacing" textLength="167.2154" x="35" y="190.7897">getUserAcountId(): String</text><ellipse cx="26" cy="205.9256" fill="#84BE84" rx="3" ry="3" style="stroke:#038048;stroke-width:1;"/><text fill="#000000" font-family="sans-serif" font-size="14" lengthAdjust="spacing" textLength="193.1153" x="35" y="209.8576">setUserAcountId(String): void</text><ellipse cx="26" cy="224.9935" fill="#84BE84" rx="3" ry="3" style="stroke:#038048;stroke-width:1;"/><text fill="#000000" font-family="sans-serif" font-size="14" lengthAdjust="spacing" textLength="277.507" x="35" y="228.9255">getAccountOperation(): AccountOperation</text><ellipse cx="26" cy="244.0614" fill="#84BE84" rx="3" ry="3" style="stroke:#038048;stroke-width:1;"/><text fill="#000000" font-family="sans-serif" font-size="14" lengthAdjust="spacing" textLength="303.4069" x="35" y="247.9934">setAccountOperation(AccountOperation): void</text></a></g><!--class com.hack23.cia.service.api.action.common.AbstractRequest--><g class="entity" data-entity="com.hack23.cia.service.api.action.common.AbstractRequest" data-source-line="22" data-uid="ent0003" id="entity_com.hack23.cia.service.api.action.common.AbstractRequest"><a href="../common/AbstractRequest.html" target="_top" title="../common/AbstractRequest.html" xlink:actuate="onRequest" xlink:href="../common/AbstractRequest.html" xlink:show="new" xlink:title="../common/AbstractRequest.html" xlink:type="simple"><rect fill="#F1F1F1" height="42.6879" rx="2.5" ry="2.5" style="stroke:#181818;stroke-width:0.5;" width="221.7498" x="68.5" y="12"/><ellipse cx="83.5" cy="33.344" fill="#A9DCDF" rx="11" ry="11" style="stroke:#181818;stroke-width:1;"/><path d="M83.6094,28.6877 L82.4531,33.7658 L84.7813,33.7658 L83.6094,28.6877 Z M82.125,26.4533 L85.1094,26.4533 L88.4688,38.844 L86.0156,38.844 L85.25,35.7815 L81.9688,35.7815 L81.2188,38.844 L78.7813,38.844 L82.125,26.4533 Z " fill="#000000"/><text fill="#000000" font-family="sans-serif" font-size="14" font-style="italic" lengthAdjust="spacing" textLength="100.0856" x="142.3321" y="31.9659">AbstractRequest</text><text fill="#000000" font-family="sans-serif" font-size="10" font-style="italic" lengthAdjust="spacing" textLength="189.7498" x="97.5" y="46.7579">com.hack23.cia.service.api.action.common</text></a></g><!--class com.hack23.cia.service.api.action.admin.ManageUserAccountRequest.AccountOperation--><g class="entity" data-entity="com.hack23.cia.service.api.action.admin.ManageUserAccountRequest.AccountOperation" data-source-line="23" data-uid="ent0004" id="entity_com.hack23.cia.service.api.action.admin.ManageUserAccountRequest.AccountOperation"><a href="ManageUserAccountRequest.AccountOperation.html" target="_top" title="ManageUserAccountRequest.AccountOperation.html" xlink:actuate="onRequest" xlink:href="ManageUserAccountRequest.AccountOperation.html" xlink:show="new" xlink:title="ManageUserAccountRequest.AccountOperation.html" xlink:type="simple"><rect fill="#F1F1F1" height="42.6879" rx="2.5" ry="2.5" style="stroke:#181818;stroke-width:0.5;" width="346.7468" x="6" y="292"/><ellipse cx="21" cy="313.344" fill="#EB937F" rx="11" ry="11" style="stroke:#181818;stroke-width:1;"/><path d="M25.1094,319.344 L17.3906,319.344 L17.3906,306.9533 L25.1094,306.9533 L25.1094,309.1096 L19.8438,309.1096 L19.8438,311.7815 L24.6094,311.7815 L24.6094,313.9377 L19.8438,313.9377 L19.8438,317.1877 L25.1094,317.1877 L25.1094,319.344 Z " fill="#000000"/><text fill="#000000" font-family="sans-serif" font-size="14" lengthAdjust="spacing" textLength="314.7468" x="35" y="311.9659">ManageUserAccountRequest.AccountOperation</text><text fill="#000000" font-family="sans-serif" font-size="10" lengthAdjust="spacing" textLength="188.3399" x="98.2035" y="326.7579">com.hack23.cia.service.api.action.admin</text></a></g><g class="link" data-entity-1="com.hack23.cia.service.api.action.common.AbstractRequest" data-entity-2="com.hack23.cia.service.api.action.admin.ManageUserAccountRequest" data-uid="lnk5" id="link_com.hack23.cia.service.api.action.common.AbstractRequest_com.hack23.cia.service.api.action.admin.ManageUserAccountRequest"><polygon fill="none" points="179.5,55.16,173.5,73.16,185.5,73.16,179.5,55.16" style="stroke:#181818;stroke-width:1;"/><path d="M179.5,73.16 C179.5,83.0851 179.5,77.6918 179.5,90.9378" fill="none" style="stroke:#181818;stroke-width:1;"/></g><g class="link" data-entity-1="com.hack23.cia.service.api.action.admin.ManageUserAccountRequest" data-entity-2="com.hack23.cia.service.api.action.admin.ManageUserAccountRequest.AccountOperation" data-uid="lnk6" id="link_com.hack23.cia.service.api.action.admin.ManageUserAccountRequest_com.hack23.cia.service.api.action.admin.ManageUserAccountRequest.AccountOperation"><ellipse cx="179.5" cy="264.3701" fill="#FFFFFF" rx="8" ry="8" style="stroke:#181818;stroke-width:1;"/><line style="stroke:#181818;stroke-width:1;" x1="179.5" x2="179.5" y1="272.3701" y2="256.3701"/><line style="stroke:#181818;stroke-width:1;" x1="171.5" x2="187.5" y1="264.3701" y2="264.3701"/><path d="M179.5,272.3701 C179.5,285.4869 179.5,281.9603 179.5,291.8027" fill="none" style="stroke:#181818;stroke-width:1;"/></g><g class="footer" data-source-line="34"><text fill="#888888" font-family="sans-serif" font-size="10" lengthAdjust="spacing" textLength="2.6" x="174.7" y="339.69">&#160;</text><a href="https://github.com/talsma-ict/umldoclet" target="_top" title="https://github.com/talsma-ict/umldoclet" xlink:actuate="onRequest" xlink:href="https://github.com/talsma-ict/umldoclet" xlink:show="new" xlink:title="https://github.com/talsma-ict/umldoclet" xlink:type="simple"><text fill="#888888" font-family="sans-serif" font-size="10" lengthAdjust="spacing" textLength="76.7199" x="137.64" y="353.31">UMLDoclet 2.2.4</text></a></g><!--SRC=[nLLDJzj04BtpAwRq00YoTfo0Q8IGehHggO9QaN0A73RhmLx5tdLtrwdIbl_UyGSXSPesefNgIvIPsVVUVEmi0C0137IsC3AA7JWDBfOMRg-7m5K84Ieqt648CkKHMfXYebLagq04dhjO6z0FvJ-XZK6RQHLA5S57FkTWTMu4MhQt1oNL-0dzAxShwDD5ONohHO8E3WT7Av82lttM2lpW3COyiIc7gy6OrMZFPm8Mi2uGTY85AakGkGhHbBBw6HVqCwmy9p17OwLMTCQlSOfKXLQEIsKXuyRP8gNF2LUkqDfcn7_AsZuSzaV3TN7-crBS2VIDuda8D_fBliptLMPuH98Jlj2v0vkYuufNFakg5K-fNbpW28cLEogbqWfBVon314mpju07YKbecrO2YpMPIxj8kBMmVs7bD-orkvVNn1FXhKNJ5qBdojrWeSlTgJh4lnGwPJ4Niw33XEICGkTK8SOpoRXmL236mrIgVQ1ExHZBjj72PBBDnMAN9lVtyBtCe_YE8tGZj4MFhiB3enwCdA61UlRRLN_bfAYvbk4QHiLLK6s5MGlPZbGh_fGLuqgq1LhJjeQxSQ1fM6Lvh5h8fzOPgkP6B_kruoKjf8XKxzh3AfWr-AXtZ7cLpsluwkQL-b7bwGuJo9gb-4yZkQ7ZTpFQZ7tAkxfxBotinOzMww_ps5727-xdyJzGib6bgZmNrYqIl5pUZmUj7Mtcv_jUV1yMT6WerMoW4zg2hyz_xRqjbdeY5T8x8cQAbW3uoyZ7YivRuQkvxjHa4ZkNsPxdHTB5-RHeYUVA1wKbXVFoD0chbwJnfjJ3VG3lbuzLiUzRVhVLRe_RtLxtZAQTTVsWSzhj1EV7Vj3p_ScxtEWClP7JOXRh9Bt_2G00]--></g></svg>