<svg xmlns="http://www.w3.org/2000/svg" xmlns:xlink="http://www.w3.org/1999/xlink" contentStyleType="text/css" data-diagram-type="CLASS" height="326px" preserveAspectRatio="none" style="width:248px;height:326px;background:#FFFFFF;" version="1.1" viewBox="0 0 248 326" width="248px" zoomAndPan="magnify"><defs/><g><!--class com.hack23.cia.service.api.action.admin.RemoveDataRequest--><g class="entity" data-entity="com.hack23.cia.service.api.action.admin.RemoveDataRequest" data-source-line="13" data-uid="ent0002" id="entity_com.hack23.cia.service.api.action.admin.RemoveDataRequest"><a href="RemoveDataRequest.html" target="_top" title="RemoveDataRequest.html" xlink:actuate="onRequest" xlink:href="RemoveDataRequest.html" xlink:show="new" xlink:title="RemoveDataRequest.html" xlink:type="simple"><rect fill="#F1F1F1" height="126.9596" rx="2.5" ry="2.5" style="stroke:#181818;stroke-width:0.5;" width="220.3399" x="14" y="91"/><ellipse cx="29" cy="112.344" fill="#ADD1B2" rx="11" ry="11" style="stroke:#181818;stroke-width:1;"/><path d="M31.9688,117.9846 Q31.3906,118.2815 30.75,118.4221 Q30.1094,118.5783 29.4063,118.5783 Q26.9063,118.5783 25.5781,116.9377 Q24.2656,115.2815 24.2656,112.1565 Q24.2656,109.0315 25.5781,107.3752 Q26.9063,105.719 29.4063,105.719 Q30.1094,105.719 30.75,105.8752 Q31.4063,106.0315 31.9688,106.3283 L31.9688,109.0471 Q31.3438,108.469 30.75,108.2033 Q30.1563,107.9221 29.5313,107.9221 Q28.1875,107.9221 27.5,109.0002 Q26.8125,110.0627 26.8125,112.1565 Q26.8125,114.2502 27.5,115.3283 Q28.1875,116.3908 29.5313,116.3908 Q30.1563,116.3908 30.75,116.1252 Q31.3438,115.844 31.9688,115.2658 L31.9688,117.9846 Z " fill="#000000"/><text fill="#000000" font-family="sans-serif" font-size="14" lengthAdjust="spacing" textLength="137.6755" x="68.3322" y="110.9659">RemoveDataRequest</text><text fill="#000000" font-family="sans-serif" font-size="10" lengthAdjust="spacing" textLength="188.3399" x="43" y="125.7579">com.hack23.cia.service.api.action.admin</text><line style="stroke:#181818;stroke-width:0.5;" x1="15" x2="233.3399" y1="133.6879" y2="133.6879"/><ellipse cx="25" cy="148.7219" fill="#84BE84" rx="3" ry="3" style="stroke:#038048;stroke-width:1;"/><text fill="#000000" font-family="sans-serif" font-size="14" lengthAdjust="spacing" textLength="162.1754" x="34" y="152.6538">getDataType(): DataType</text><ellipse cx="25" cy="167.7898" fill="#84BE84" rx="3" ry="3" style="stroke:#038048;stroke-width:1;"/><text fill="#000000" font-family="sans-serif" font-size="14" lengthAdjust="spacing" textLength="188.0753" x="34" y="171.7218">setDataType(DataType): void</text><ellipse cx="25" cy="186.8577" fill="#84BE84" rx="3" ry="3" style="stroke:#038048;stroke-width:1;"/><text fill="#000000" font-family="sans-serif" font-size="14" lengthAdjust="spacing" textLength="139.8315" x="34" y="190.7897">getSessionId(): String</text><ellipse cx="25" cy="205.9256" fill="#84BE84" rx="3" ry="3" style="stroke:#038048;stroke-width:1;"/><text fill="#000000" font-family="sans-serif" font-size="14" lengthAdjust="spacing" textLength="165.7314" x="34" y="209.8576">setSessionId(String): void</text></a></g><!--class com.hack23.cia.service.api.action.common.AbstractRequest--><g class="entity" data-entity="com.hack23.cia.service.api.action.common.AbstractRequest" data-source-line="20" data-uid="ent0003" id="entity_com.hack23.cia.service.api.action.common.AbstractRequest"><a href="../common/AbstractRequest.html" target="_top" title="../common/AbstractRequest.html" xlink:actuate="onRequest" xlink:href="../common/AbstractRequest.html" xlink:show="new" xlink:title="../common/AbstractRequest.html" xlink:type="simple"><rect fill="#F1F1F1" height="42.6879" rx="2.5" ry="2.5" style="stroke:#181818;stroke-width:0.5;" width="221.7498" x="13" y="12"/><ellipse cx="28" cy="33.344" fill="#A9DCDF" rx="11" ry="11" style="stroke:#181818;stroke-width:1;"/><path d="M28.1094,28.6877 L26.9531,33.7658 L29.2813,33.7658 L28.1094,28.6877 Z M26.625,26.4533 L29.6094,26.4533 L32.9688,38.844 L30.5156,38.844 L29.75,35.7815 L26.4688,35.7815 L25.7188,38.844 L23.2813,38.844 L26.625,26.4533 Z " fill="#000000"/><text fill="#000000" font-family="sans-serif" font-size="14" font-style="italic" lengthAdjust="spacing" textLength="100.0856" x="86.8321" y="31.9659">AbstractRequest</text><text fill="#000000" font-family="sans-serif" font-size="10" font-style="italic" lengthAdjust="spacing" textLength="189.7498" x="42" y="46.7579">com.hack23.cia.service.api.action.common</text></a></g><!--class com.hack23.cia.service.api.action.admin.RemoveDataRequest.DataType--><g class="entity" data-entity="com.hack23.cia.service.api.action.admin.RemoveDataRequest.DataType" data-source-line="21" data-uid="ent0004" id="entity_com.hack23.cia.service.api.action.admin.RemoveDataRequest.DataType"><a href="RemoveDataRequest.DataType.html" target="_top" title="RemoveDataRequest.DataType.html" xlink:actuate="onRequest" xlink:href="RemoveDataRequest.DataType.html" xlink:show="new" xlink:title="RemoveDataRequest.DataType.html" xlink:type="simple"><rect fill="#F1F1F1" height="42.6879" rx="2.5" ry="2.5" style="stroke:#181818;stroke-width:0.5;" width="235.8392" x="6" y="254"/><ellipse cx="21" cy="275.344" fill="#EB937F" rx="11" ry="11" style="stroke:#181818;stroke-width:1;"/><path d="M25.1094,281.344 L17.3906,281.344 L17.3906,268.9533 L25.1094,268.9533 L25.1094,271.1096 L19.8438,271.1096 L19.8438,273.7815 L24.6094,273.7815 L24.6094,275.9377 L19.8438,275.9377 L19.8438,279.1877 L25.1094,279.1877 L25.1094,281.344 Z " fill="#000000"/><text fill="#000000" font-family="sans-serif" font-size="14" lengthAdjust="spacing" textLength="203.8392" x="35" y="273.9659">RemoveDataRequest.DataType</text><text fill="#000000" font-family="sans-serif" font-size="10" lengthAdjust="spacing" textLength="188.3399" x="42.7497" y="288.7579">com.hack23.cia.service.api.action.admin</text></a></g><g class="link" data-entity-1="com.hack23.cia.service.api.action.common.AbstractRequest" data-entity-2="com.hack23.cia.service.api.action.admin.RemoveDataRequest" data-uid="lnk5" id="link_com.hack23.cia.service.api.action.common.AbstractRequest_com.hack23.cia.service.api.action.admin.RemoveDataRequest"><polygon fill="none" points="124,55.2282,118,73.2282,130,73.2282,124,55.2282" style="stroke:#181818;stroke-width:1;"/><path d="M124,73.2282 C124,83.2834 124,77.9551 124,90.8255" fill="none" style="stroke:#181818;stroke-width:1;"/></g><g class="link" data-entity-1="com.hack23.cia.service.api.action.admin.RemoveDataRequest" data-entity-2="com.hack23.cia.service.api.action.admin.RemoveDataRequest.DataType" data-uid="lnk6" id="link_com.hack23.cia.service.api.action.admin.RemoveDataRequest_com.hack23.cia.service.api.action.admin.RemoveDataRequest.DataType"><ellipse cx="124" cy="226.1364" fill="#FFFFFF" rx="8" ry="8" style="stroke:#181818;stroke-width:1;"/><line style="stroke:#181818;stroke-width:1;" x1="124" x2="124" y1="234.1364" y2="218.1364"/><line style="stroke:#181818;stroke-width:1;" x1="116" x2="132" y1="226.1364" y2="226.1364"/><path d="M124,234.1364 C124,247.0149 124,243.6969 124,253.7601" fill="none" style="stroke:#181818;stroke-width:1;"/></g><g class="footer" data-source-line="32"><text fill="#888888" font-family="sans-serif" font-size="10" lengthAdjust="spacing" textLength="2.6" x="119.2" y="301.69">&#160;</text><a href="https://github.com/talsma-ict/umldoclet" target="_top" title="https://github.com/talsma-ict/umldoclet" xlink:actuate="onRequest" xlink:href="https://github.com/talsma-ict/umldoclet" xlink:show="new" xlink:title="https://github.com/talsma-ict/umldoclet" xlink:type="simple"><text fill="#888888" font-family="sans-serif" font-size="10" lengthAdjust="spacing" textLength="76.7199" x="82.14" y="315.31">UMLDoclet 2.2.4</text></a></g><!--SRC=[lLJRJjj047tlLqpf0o38-aAuD498KQXQgbIgI7WAF4pMWxtAUjVTNQTAM_wzwqik15eXAjKlSUQCppbxF1u0W5qOw69XH9evS1fS9YpSV1a2gWHIKcJGKG8YnvGiJ4bgbTgcaG1Bbsa3-hx-nxKnP0kj4g5I-8np1AjBmycoDs-WbXelsR-ZtM2VBghYfUQI7EmDzZSinM5qqed3-0J6A6sES3KOivPj_KpCOjO5poq59sKzPQaIChMjVe7S_mmRv13cPApGoZyJjZpLKRbM3eMoKA1njZhILudALLuZvlMFMHJ2NdyqV6mkV5-REuI-KLWcSAs_bQlplYqCfjwon8Kk7TYS72fiCEjTAynzNiXfH5uLdOzIQKKrdec4WFB2BU1Ua4piTjMJPTgNwpgNQ2tid5lnWtfHz-AQSZsdItHuJPKXTwjQBBpWEcSPybbynBX0PidCVJGC2y6GEvyCmoGNQWVyAtfXBtkY1vF9anhBN2xlxk1dRRcw3b9oLSDuKT3UVW-Mz-i6kz6mlF6DSosIHomZijLBlKegcf4pVW8VaQpn1jpaU6WonAbrnf_gIPZz5dXDbBuZro_DicbcMte-IiQ21Wksi3RIsZ-fCl_R2B1bVlzx5bR2pmx54bmUfPddrsPr_glJURtJ5sh_QUOF_aLx5KIJmBbr2qaNgo6-rzhvXRR-TghhasytGw5c0otzydXtzZnwK-r2AHJvzSjdodyA4Auw7ngvO4ElrRfLaqdcN65xGP0AbvNJAlN0rNku8xWBobmcpGBUMiNjIEx2nzMEhzPa9-nsecWSTNlT4p-ZxEZqB8h3q-xnGHZtmd3oeJIwe63aD9zbMkPtlm40]--></g></svg>