<?xml version="1.0" encoding="UTF-8" standalone="no"?><svg xmlns="http://www.w3.org/2000/svg" xmlns:xlink="http://www.w3.org/1999/xlink" contentScriptType="application/ecmascript" contentStyleType="text/css" height="215px" preserveAspectRatio="none" style="width:352px;height:215px;background:#FFFFFF;" version="1.1" viewBox="0 0 352 215" width="352px" zoomAndPan="magnify"><defs><filter height="300%" id="f1aa7dzqw8pplk" width="300%" x="-1" y="-1"><feGaussianBlur result="blurOut" stdDeviation="2.0"/><feColorMatrix in="blurOut" result="blurOut2" type="matrix" values="0 0 0 0 0 0 0 0 0 0 0 0 0 0 0 0 0 0 .4 0"/><feOffset dx="4.0" dy="4.0" in="blurOut2" result="blurOut3"/><feBlend in="SourceGraphic" in2="blurOut3" mode="normal"/></filter></defs><g><!--MD5=[162e59ad641490da7707172546b10c9b]
class com.hack23.cia.web.impl.ui.application.views.user.committee.CommitteeView--><a href="CommitteeView.html" target="_top" title="CommitteeView.html" xlink:actuate="onRequest" xlink:href="CommitteeView.html" xlink:show="new" xlink:title="CommitteeView.html" xlink:type="simple"><rect codeLine="5" fill="#FEFECE" filter="url(#f1aa7dzqw8pplk)" height="79.5469" id="com.hack23.cia.web.impl.ui.application.views.user.committee.CommitteeView" style="stroke:#A80036;stroke-width:1.5;" width="327" x="9" y="105"/><ellipse cx="24" cy="123.9688" fill="#ADD1B2" rx="11" ry="11" style="stroke:#A80036;stroke-width:1.0;"/><path d="M26.9688,129.6094 Q26.3906,129.9063 25.75,130.0469 Q25.1094,130.2031 24.4063,130.2031 Q21.9063,130.2031 20.5781,128.5625 Q19.2656,126.9063 19.2656,123.7813 Q19.2656,120.6563 20.5781,119 Q21.9063,117.3438 24.4063,117.3438 Q25.1094,117.3438 25.75,117.5 Q26.4063,117.6563 26.9688,117.9531 L26.9688,120.6719 Q26.3438,120.0938 25.75,119.8281 Q25.1563,119.5469 24.5313,119.5469 Q23.1875,119.5469 22.5,120.625 Q21.8125,121.6875 21.8125,123.7813 Q21.8125,125.875 22.5,126.9531 Q23.1875,128.0156 24.5313,128.0156 Q25.1563,128.0156 25.75,127.75 Q26.3438,127.4688 26.9688,126.8906 L26.9688,129.6094 Z " fill="#000000"/><text fill="#000000" font-family="sans-serif" font-size="14" lengthAdjust="spacing" textLength="108" x="131.5" y="122.9951">CommitteeView</text><text fill="#000000" font-family="sans-serif" font-size="10" lengthAdjust="spacing" textLength="295" x="38" y="135.5791">com.hack23.cia.web.impl.ui.application.views.user.committee</text><line style="stroke:#A80036;stroke-width:1.5;" x1="10" x2="335" y1="142.9375" y2="142.9375"/><ellipse cx="20" cy="153.9375" rx="3" ry="3" style="stroke:#038048;stroke-width:1.0;fill:none;"/><text fill="#000000" font-family="sans-serif" font-size="11" lengthAdjust="spacing" text-decoration="underline" textLength="73" x="29" y="157.1479">NAME: String</text><line style="stroke:#A80036;stroke-width:1.5;" x1="10" x2="335" y1="163.7422" y2="163.7422"/><ellipse cx="20" cy="174.7422" fill="#84BE84" rx="3" ry="3" style="stroke:#038048;stroke-width:1.0;"/><text fill="#000000" font-family="sans-serif" font-size="11" lengthAdjust="spacing" textLength="200" x="29" y="177.9526">CommitteeView(ApplicationContext)</text></a><!--MD5=[4d95a43774ca7342273458fa929c2e89]
class com.hack23.cia.web.impl.ui.application.views.user.common.AbstractGroupView--><a href="../common/AbstractGroupView.html" target="_top" title="../common/AbstractGroupView.html" xlink:actuate="onRequest" xlink:href="../common/AbstractGroupView.html" xlink:show="new" xlink:title="../common/AbstractGroupView.html" xlink:type="simple"><rect codeLine="10" fill="#FEFECE" filter="url(#f1aa7dzqw8pplk)" height="37.9375" id="com.hack23.cia.web.impl.ui.application.views.user.common.AbstractGroupView" style="stroke:#A80036;stroke-width:1.5;" width="331" x="7" y="7"/><ellipse cx="22" cy="25.9688" fill="#A9DCDF" rx="11" ry="11" style="stroke:#A80036;stroke-width:1.0;"/><path d="M22.1094,21.3125 L20.9531,26.3906 L23.2813,26.3906 L22.1094,21.3125 Z M20.625,19.0781 L23.6094,19.0781 L26.9688,31.4688 L24.5156,31.4688 L23.75,28.4063 L20.4688,28.4063 L19.7188,31.4688 L17.2813,31.4688 L20.625,19.0781 Z " fill="#000000"/><text fill="#000000" font-family="sans-serif" font-size="14" font-style="italic" lengthAdjust="spacing" textLength="133" x="119" y="24.9951">AbstractGroupView</text><text fill="#000000" font-family="sans-serif" font-size="10" font-style="italic" lengthAdjust="spacing" textLength="299" x="36" y="37.5791">com.hack23.cia.web.impl.ui.application.views.user.common</text></a><!--MD5=[4db06c3bba4de708a9b750f7552b4f03]
reverse link com.hack23.cia.web.impl.ui.application.views.user.common.AbstractGroupView to com.hack23.cia.web.impl.ui.application.views.user.committee.CommitteeView--><path codeLine="12" d="M172.5,65.14 C172.5,77.87 172.5,92.07 172.5,104.87 " fill="none" id="com.hack23.cia.web.impl.ui.application.views.user.common.AbstractGroupView-backto-com.hack23.cia.web.impl.ui.application.views.user.committee.CommitteeView" style="stroke:#A80036;stroke-width:1.0;"/><polygon fill="none" points="165.5,65.02,172.5,45.02,179.5,65.02,165.5,65.02" style="stroke:#A80036;stroke-width:1.0;"/><text fill="#888888" font-family="sans-serif" font-size="10" lengthAdjust="spacing" textLength="186" x="76.5" y="206.8291">UMLDoclet 2.0.14, PlantUML 1.2021.9</text><!--MD5=[2c3904bd444faea9857dd00cfe546c42]
@startuml
    set namespaceSeparator none
    hide empty fields
    hide empty methods

    class "<size:14>CommitteeView\n<size:10>com.hack23.cia.web.impl.ui.application.views.user.committee" as com.hack23.cia.web.impl.ui.application.views.user.committee.CommitteeView [[CommitteeView.html]] {
        {static} +NAME: String
        +CommitteeView(ApplicationContext)
    }

    abstract class "<size:14>AbstractGroupView\n<size:10>com.hack23.cia.web.impl.ui.application.views.user.common" as com.hack23.cia.web.impl.ui.application.views.user.common.AbstractGroupView [[../common/AbstractGroupView.html]]

    com.hack23.cia.web.impl.ui.application.views.user.common.AbstractGroupView <|- - com.hack23.cia.web.impl.ui.application.views.user.committee.CommitteeView

    center footer UMLDoclet 2.0.14, PlantUML 1.2021.9
@enduml

PlantUML version 1.2021.9(Sun Jul 25 12:13:56 CEST 2021)
(APACHE source distribution)
Java Runtime: OpenJDK Runtime Environment
JVM: OpenJDK 64-Bit Server VM
Default Encoding: UTF-8
Language: en
Country: US
--></g></svg>