<?xml version="1.0" encoding="UTF-8" standalone="no"?><svg xmlns="http://www.w3.org/2000/svg" xmlns:xlink="http://www.w3.org/1999/xlink" contentStyleType="text/css" height="282px" preserveAspectRatio="none" style="width:609px;height:282px;background:#FFFFFF;" version="1.1" viewBox="0 0 609 282" width="609px" zoomAndPan="magnify"><defs/><g><!--MD5=[0ab87921166f66f34f3772607b7f2386]
cluster com.hack23.cia.web.impl.ui.application.views.common.paging--><g id="cluster_com.hack23.cia.web.impl.ui.application.views.common.paging"><path d="M8.5,6.602 L442.5,6.602 A3.75,3.75 0 0 1 445,9.102 L452,31.6699 L599.5,31.6699 A2.5,2.5 0 0 1 602,34.1699 L602,252.102 A2.5,2.5 0 0 1 599.5,254.602 L8.5,254.602 A2.5,2.5 0 0 1 6,252.102 L6,9.102 A2.5,2.5 0 0 1 8.5,6.602 " fill="none" style="stroke:#000000;stroke-width:1.5;"/><line style="stroke:#000000;stroke-width:1.5;" x1="6" x2="452" y1="31.6699" y2="31.6699"/><text fill="#000000" font-family="sans-serif" font-size="14" font-weight="bold" lengthAdjust="spacing" textLength="433" x="10" y="23.5679">com.hack23.cia.web.impl.ui.application.views.common.paging</text></g><!--MD5=[82d061c55311ddee752ee1c428362f5d]
class com.hack23.cia.web.impl.ui.application.views.common.paging.PagingUtil--><a href="PagingUtil.html" target="_top" title="PagingUtil.html" xlink:actuate="onRequest" xlink:href="PagingUtil.html" xlink:show="new" xlink:title="PagingUtil.html" xlink:type="simple"><g id="elem_com.hack23.cia.web.impl.ui.application.views.common.paging.PagingUtil"><rect codeLine="3" fill="#F1F1F1" height="67.0679" id="com.hack23.cia.web.impl.ui.application.views.common.paging.PagingUtil" rx="2.5" ry="2.5" style="stroke:#181818;stroke-width:0.5;" width="533" x="37.5" y="44.602"/><ellipse cx="266.75" cy="60.602" fill="#B4A7E5" rx="11" ry="11" style="stroke:#181818;stroke-width:1.0;"/><path d="M262.6719,56.3676 L262.6719,54.2114 L270.0625,54.2114 L270.0625,56.3676 L267.5938,56.3676 L267.5938,64.4457 L270.0625,64.4457 L270.0625,66.602 L262.6719,66.602 L262.6719,64.4457 L265.1406,64.4457 L265.1406,56.3676 L262.6719,56.3676 Z " fill="#000000"/><text fill="#000000" font-family="sans-serif" font-size="14" font-style="italic" lengthAdjust="spacing" textLength="66" x="287.25" y="66.034">PagingUtil</text><line style="stroke:#181818;stroke-width:0.5;" x1="38.5" x2="569.5" y1="76.602" y2="76.602"/><line style="stroke:#181818;stroke-width:0.5;" x1="38.5" x2="569.5" y1="84.602" y2="84.602"/><ellipse cx="48.5" cy="99.6359" fill="#84BE84" rx="3" ry="3" style="stroke:#038048;stroke-width:1.0;"/><text fill="#000000" font-family="sans-serif" font-size="14" font-style="italic" lengthAdjust="spacing" textLength="507" x="57.5" y="103.5679">createPagingControls(AbstractOrderedLayout, String, String, Long, int, int): void</text></g></a><!--MD5=[0b35c5000c23366be665d94fc2466729]
class com.hack23.cia.web.impl.ui.application.views.common.paging.PagingUtilImpl--><a href="PagingUtilImpl.html" target="_top" title="PagingUtilImpl.html" xlink:actuate="onRequest" xlink:href="PagingUtilImpl.html" xlink:show="new" xlink:title="PagingUtilImpl.html" xlink:type="simple"><g id="elem_com.hack23.cia.web.impl.ui.application.views.common.paging.PagingUtilImpl"><rect codeLine="7" fill="#F1F1F1" height="67.0679" id="com.hack23.cia.web.impl.ui.application.views.common.paging.PagingUtilImpl" rx="2.5" ry="2.5" style="stroke:#181818;stroke-width:0.5;" width="563" x="22.5" y="171.602"/><ellipse cx="249.25" cy="187.602" fill="#ADD1B2" rx="11" ry="11" style="stroke:#181818;stroke-width:1.0;"/><path d="M252.2188,193.2426 Q251.6406,193.5395 251,193.6801 Q250.3594,193.8364 249.6563,193.8364 Q247.1563,193.8364 245.8281,192.1957 Q244.5156,190.5395 244.5156,187.4145 Q244.5156,184.2895 245.8281,182.6332 Q247.1563,180.977 249.6563,180.977 Q250.3594,180.977 251,181.1332 Q251.6563,181.2895 252.2188,181.5864 L252.2188,184.3051 Q251.5938,183.727 251,183.4614 Q250.4063,183.1801 249.7813,183.1801 Q248.4375,183.1801 247.75,184.2582 Q247.0625,185.3207 247.0625,187.4145 Q247.0625,189.5082 247.75,190.5864 Q248.4375,191.6489 249.7813,191.6489 Q250.4063,191.6489 251,191.3832 Q251.5938,191.102 252.2188,190.5239 L252.2188,193.2426 Z " fill="#000000"/><text fill="#000000" font-family="sans-serif" font-size="14" lengthAdjust="spacing" textLength="101" x="269.75" y="193.034">PagingUtilImpl</text><line style="stroke:#181818;stroke-width:0.5;" x1="23.5" x2="584.5" y1="203.602" y2="203.602"/><line style="stroke:#181818;stroke-width:0.5;" x1="23.5" x2="584.5" y1="211.602" y2="211.602"/><ellipse cx="33.5" cy="226.6359" fill="#84BE84" rx="3" ry="3" style="stroke:#038048;stroke-width:1.0;"/><text fill="#000000" font-family="sans-serif" font-size="14" lengthAdjust="spacing" textLength="537" x="42.5" y="230.5679">createPagingControls(AbstractOrderedLayout, String, String, Long, int, int): void</text></g></a><!--MD5=[114e43b7bd98db47a83981669fb62bf0]
reverse link com.hack23.cia.web.impl.ui.application.views.common.paging.PagingUtil to com.hack23.cia.web.impl.ui.application.views.common.paging.PagingUtilImpl--><g id="link_com.hack23.cia.web.impl.ui.application.views.common.paging.PagingUtil_com.hack23.cia.web.impl.ui.application.views.common.paging.PagingUtilImpl"><path codeLine="11" d="M304,131.802 C304,145.212 304,159.232 304,171.312 " fill="none" id="com.hack23.cia.web.impl.ui.application.views.common.paging.PagingUtil-backto-com.hack23.cia.web.impl.ui.application.views.common.paging.PagingUtilImpl" style="stroke:#181818;stroke-width:1.0;stroke-dasharray:7.0,7.0;"/><polygon fill="none" points="297,131.622,304,111.622,311,131.622,297,131.622" style="stroke:#181818;stroke-width:1.0;"/></g><rect fill="none" height="13.62" style="stroke:none;stroke-width:1.0;" width="188" x="203.5" y="260.602"/><text fill="#888888" font-family="sans-serif" font-size="10" lengthAdjust="spacing" textLength="188" x="203.5" y="271.292">UMLDoclet 2.0.20, PlantUML 1.2022.12</text><!--MD5=[4d14ebd4e03f5194d493e1a8e7782b88]
@startuml
    namespace com.hack23.cia.web.impl.ui.application.views.common.paging {

        interface PagingUtil [[PagingUtil.html]] {
            {abstract} +createPagingControls(AbstractOrderedLayout, String, String, Long, int, int): void
        }

        class PagingUtilImpl [[PagingUtilImpl.html]] {
            +createPagingControls(AbstractOrderedLayout, String, String, Long, int, int): void
        }

        PagingUtil <|.. PagingUtilImpl
    }

    center footer UMLDoclet 2.0.20, PlantUML 1.2022.12
@enduml

PlantUML version 1.2022.12(Sun Oct 23 20:12:26 CEST 2022)
(APACHE source distribution)
Java Runtime: OpenJDK Runtime Environment
JVM: OpenJDK 64-Bit Server VM
Default Encoding: UTF-8
Language: 
Country: 
--></g></svg>