<?xml version="1.0" encoding="UTF-8" standalone="no"?><svg xmlns="http://www.w3.org/2000/svg" xmlns:xlink="http://www.w3.org/1999/xlink" contentScriptType="application/ecmascript" contentStyleType="text/css" height="285px" preserveAspectRatio="none" style="width:698px;height:285px;" version="1.1" viewBox="0 0 698 285" width="698px" zoomAndPan="magnify"><defs><filter height="300%" id="f1h2lycgjw3jkn" width="300%" x="-1" y="-1"><feGaussianBlur result="blurOut" stdDeviation="2.0"/><feColorMatrix in="blurOut" result="blurOut2" type="matrix" values="0 0 0 0 0 0 0 0 0 0 0 0 0 0 0 0 0 0 .4 0"/><feOffset dx="4.0" dy="4.0" in="blurOut2" result="blurOut3"/><feBlend in="SourceGraphic" in2="blurOut3" mode="normal"/></filter></defs><g><!--cluster com.hack23.cia.service.impl.action.user.wordcount--><polygon fill="#FFFFFF" filter="url(#f1h2lycgjw3jkn)" points="14,124,427,124,434,146.2969,669,146.2969,669,245,14,245,14,124" style="stroke: #000000; stroke-width: 1.5;"/><line style="stroke: #000000; stroke-width: 1.5;" x1="14" x2="434" y1="146.2969" y2="146.2969"/><text fill="#000000" font-family="sans-serif" font-size="14" font-weight="bold" lengthAdjust="spacingAndGlyphs" textLength="407" x="18" y="138.9951">com.hack23.cia.service.impl.action.user.wordcount</text><!--cluster smile.nlp.dictionary--><polygon fill="#FFFFFF" filter="url(#f1h2lycgjw3jkn)" points="507,16,666,16,673,38.2969,676,38.2969,676,99,507,99,507,16" style="stroke: #000000; stroke-width: 1.5;"/><line style="stroke: #000000; stroke-width: 1.5;" x1="507" x2="673" y1="38.2969" y2="38.2969"/><text fill="#000000" font-family="sans-serif" font-size="14" font-weight="bold" lengthAdjust="spacingAndGlyphs" textLength="153" x="511" y="30.9951">smile.nlp.dictionary</text><!--class com.hack23.cia.service.impl.action.user.wordcount.SwedishStopWords--><a href="SwedishStopWords.html" target="_top" xlink:actuate="onRequest" xlink:show="new" xlink:title="SwedishStopWords.html" xlink:type="simple"><rect fill="#FEFECE" filter="url(#f1h2lycgjw3jkn)" height="86.4141" id="com.hack23.cia.service.impl.action.user.wordcount.SwedishStopWords" style="stroke: #A80036; stroke-width: 1.5;" width="178" x="483" y="151"/><ellipse cx="510.15" cy="167" fill="#ADD1B2" rx="11" ry="11" style="stroke: #A80036; stroke-width: 1.0;"/><path d="M513.1188,172.6406 Q512.5406,172.9375 511.9,173.0781 Q511.2594,173.2344 510.5563,173.2344 Q508.0563,173.2344 506.7281,171.5938 Q505.4156,169.9375 505.4156,166.8125 Q505.4156,163.6875 506.7281,162.0313 Q508.0563,160.375 510.5563,160.375 Q511.2594,160.375 511.9,160.5313 Q512.5563,160.6875 513.1188,160.9844 L513.1188,163.7031 Q512.4938,163.125 511.9,162.8594 Q511.3063,162.5781 510.6813,162.5781 Q509.3375,162.5781 508.65,163.6563 Q507.9625,164.7188 507.9625,166.8125 Q507.9625,168.9063 508.65,169.9844 Q509.3375,171.0469 510.6813,171.0469 Q511.3063,171.0469 511.9,170.7813 Q512.4938,170.5 513.1188,169.9219 L513.1188,172.6406 Z "/><text fill="#000000" font-family="sans-serif" font-size="12" lengthAdjust="spacingAndGlyphs" textLength="119" x="526.85" y="171.1543">SwedishStopWords</text><line style="stroke: #A80036; stroke-width: 1.5;" x1="484" x2="660" y1="183" y2="183"/><line style="stroke: #A80036; stroke-width: 1.5;" x1="484" x2="660" y1="191" y2="191"/><ellipse cx="494" cy="202.9023" fill="#84BE84" rx="3" ry="3" style="stroke: #038048; stroke-width: 1.0;"/><text fill="#000000" font-family="sans-serif" font-size="11" lengthAdjust="spacingAndGlyphs" textLength="143" x="503" y="205.2104">contains(String): boolean</text><ellipse cx="494" cy="215.707" fill="#84BE84" rx="3" ry="3" style="stroke: #038048; stroke-width: 1.0;"/><text fill="#000000" font-family="sans-serif" font-size="11" lengthAdjust="spacingAndGlyphs" textLength="52" x="503" y="218.0151">size(): int</text><ellipse cx="494" cy="228.5117" fill="#84BE84" rx="3" ry="3" style="stroke: #038048; stroke-width: 1.0;"/><text fill="#000000" font-family="sans-serif" font-size="11" lengthAdjust="spacingAndGlyphs" textLength="152" x="503" y="230.8198">iterator(): Iterator&lt;String&gt;</text></a><!--class com.hack23.cia.service.impl.action.user.wordcount.WordCounter--><a href="WordCounter.html" target="_top" xlink:actuate="onRequest" xlink:show="new" xlink:title="WordCounter.html" xlink:type="simple"><rect fill="#FEFECE" filter="url(#f1h2lycgjw3jkn)" height="60.8047" id="com.hack23.cia.service.impl.action.user.wordcount.WordCounter" style="stroke: #A80036; stroke-width: 1.5;" width="426" x="22" y="163.5"/><ellipse cx="189.25" cy="179.5" fill="#B4A7E5" rx="11" ry="11" style="stroke: #A80036; stroke-width: 1.0;"/><path d="M185.1719,175.2656 L185.1719,173.1094 L192.5625,173.1094 L192.5625,175.2656 L190.0938,175.2656 L190.0938,183.3438 L192.5625,183.3438 L192.5625,185.5 L185.1719,185.5 L185.1719,183.3438 L187.6406,183.3438 L187.6406,175.2656 L185.1719,175.2656 Z "/><text fill="#000000" font-family="sans-serif" font-size="12" font-style="italic" lengthAdjust="spacingAndGlyphs" textLength="83" x="209.75" y="183.6543">WordCounter</text><line style="stroke: #A80036; stroke-width: 1.5;" x1="23" x2="447" y1="195.5" y2="195.5"/><line style="stroke: #A80036; stroke-width: 1.5;" x1="23" x2="447" y1="203.5" y2="203.5"/><ellipse cx="33" cy="215.4023" fill="#84BE84" rx="3" ry="3" style="stroke: #038048; stroke-width: 1.0;"/><text fill="#000000" font-family="sans-serif" font-size="11" font-style="italic" lengthAdjust="spacingAndGlyphs" textLength="400" x="42" y="217.7104">calculateWordCount(DocumentContentData, int): Map&lt;String, Integer&gt;</text></a><!--class smile.nlp.dictionary.StopWords--><rect fill="#FEFECE" filter="url(#f1h2lycgjw3jkn)" height="48" id="smile.nlp.dictionary.StopWords" style="stroke: #A80036; stroke-width: 1.5;" width="100" x="522" y="43"/><ellipse cx="537" cy="59" fill="#B4A7E5" rx="11" ry="11" style="stroke: #A80036; stroke-width: 1.0;"/><path d="M532.9219,54.7656 L532.9219,52.6094 L540.3125,52.6094 L540.3125,54.7656 L537.8438,54.7656 L537.8438,62.8438 L540.3125,62.8438 L540.3125,65 L532.9219,65 L532.9219,62.8438 L535.3906,62.8438 L535.3906,54.7656 L532.9219,54.7656 Z "/><text fill="#000000" font-family="sans-serif" font-size="12" font-style="italic" lengthAdjust="spacingAndGlyphs" textLength="68" x="551" y="63.1543">StopWords</text><line style="stroke: #A80036; stroke-width: 1.5;" x1="523" x2="621" y1="75" y2="75"/><line style="stroke: #A80036; stroke-width: 1.5;" x1="523" x2="621" y1="83" y2="83"/><!--link smile.nlp.dictionary.StopWords to com.hack23.cia.service.impl.action.user.wordcount.SwedishStopWords--><path d="M572,111.2782 C572,124.1161 572,138.1115 572,150.8776 " fill="none" id="smile.nlp.dictionary.StopWords-com.hack23.cia.service.impl.action.user.wordcount.SwedishStopWords" style="stroke: #A80036; stroke-width: 1.0; stroke-dasharray: 7.0,7.0;"/><polygon fill="none" points="565.0001,111.1867,572,91.1867,579.0001,111.1866,565.0001,111.1867" style="stroke: #A80036; stroke-width: 1.0;"/><text fill="#888888" font-family="sans-serif" font-size="10" lengthAdjust="spacingAndGlyphs" textLength="186" x="258" y="272.2822">UMLDoclet 2.0.5, PlantUML 1.2019.08</text><!--
@startuml
    namespace com.hack23.cia.service.impl.action.user.wordcount {

        class SwedishStopWords [[SwedishStopWords.html]] {
            +contains(String): boolean
            +size(): int
            +iterator(): Iterator<String>
        }

        interface WordCounter [[WordCounter.html]] {
            {abstract} +calculateWordCount(DocumentContentData, int): Map<String, Integer>
        }

        smile.nlp.dictionary.StopWords <|.. SwedishStopWords
    }

    namespace smile.nlp.dictionary {
        interface StopWords
    }

    center footer UMLDoclet 2.0.5, PlantUML 1.2019.08
@enduml

PlantUML version 1.2019.08(Sat Jul 13 21:25:14 CEST 2019)
(APACHE source distribution)
Java Runtime: OpenJDK Runtime Environment
JVM: OpenJDK 64-Bit Server VM
Java Version: 11.0.4+11-post-Ubuntu-1ubuntu219.04
Operating System: Linux
OS Version: 5.0.0-27-generic
Default Encoding: UTF-8
Language: en
Country: US
--></g></svg>