<?xml version="1.0" encoding="UTF-8" standalone="no"?><svg xmlns="http://www.w3.org/2000/svg" xmlns:xlink="http://www.w3.org/1999/xlink" contentScriptType="application/ecmascript" contentStyleType="text/css" height="289px" preserveAspectRatio="none" style="width:792px;height:289px;background:#FFFFFF;" version="1.1" viewBox="0 0 792 289" width="792px" zoomAndPan="magnify"><defs><filter height="300%" id="fc5yc6vrkyna" width="300%" x="-1" y="-1"><feGaussianBlur result="blurOut" stdDeviation="2.0"/><feColorMatrix in="blurOut" result="blurOut2" type="matrix" values="0 0 0 0 0 0 0 0 0 0 0 0 0 0 0 0 0 0 .4 0"/><feOffset dx="4.0" dy="4.0" in="blurOut2" result="blurOut3"/><feBlend in="SourceGraphic" in2="blurOut3" mode="normal"/></filter></defs><g><!--MD5=[c7d58dbc246dba0b39b7d051080cbc0f]
cluster com.hack23.cia.web.impl.ui.application.views.admin.datasummary.pagemode--><polygon fill="#FFFFFF" filter="url(#fc5yc6vrkyna)" points="16,129,631,129,638,151.2969,775,151.2969,775,266,16,266,16,129" style="stroke:#000000;stroke-width:1.5;"/><line style="stroke:#000000;stroke-width:1.5;" x1="16" x2="638" y1="151.2969" y2="151.2969"/><text fill="#000000" font-family="sans-serif" font-size="14" font-weight="bold" lengthAdjust="spacing" textLength="609" x="20" y="143.9951">com.hack23.cia.web.impl.ui.application.views.admin.datasummary.pagemode</text><!--MD5=[5aa94c924e9848adf3a3e7e8e30b1801]
cluster com.hack23.cia.web.impl.ui.application.views.common.pagemode--><polygon fill="#FFFFFF" filter="url(#fc5yc6vrkyna)" points="135,6,659,6,666,28.2969,669,28.2969,669,105,135,105,135,6" style="stroke:#000000;stroke-width:1.5;"/><line style="stroke:#000000;stroke-width:1.5;" x1="135" x2="666" y1="28.2969" y2="28.2969"/><text fill="#000000" font-family="sans-serif" font-size="14" font-weight="bold" lengthAdjust="spacing" textLength="518" x="139" y="20.9951">com.hack23.cia.web.impl.ui.application.views.common.pagemode</text><!--MD5=[7a40c43714c03437d6cd110023ae66a4]
class com.hack23.cia.web.impl.ui.application.views.admin.datasummary.pagemode.DataSummaryAuthorPageModContentFactoryImpl--><a href="DataSummaryAuthorPageModContentFactoryImpl.html" target="_top" title="DataSummaryAuthorPageModContentFactoryImpl.html" xlink:actuate="onRequest" xlink:href="DataSummaryAuthorPageModContentFactoryImpl.html" xlink:show="new" xlink:title="DataSummaryAuthorPageModContentFactoryImpl.html" xlink:type="simple"><rect codeLine="3" fill="#FEFECE" filter="url(#fc5yc6vrkyna)" height="86.4141" id="com.hack23.cia.web.impl.ui.application.views.admin.datasummary.pagemode.DataSummaryAuthorPageModContentFactoryImpl" style="stroke:#A80036;stroke-width:1.5;" width="340" x="419" y="164"/><ellipse cx="434" cy="180" fill="#ADD1B2" rx="11" ry="11" style="stroke:#A80036;stroke-width:1.0;"/><path d="M436.9688,185.6406 Q436.3906,185.9375 435.75,186.0781 Q435.1094,186.2344 434.4063,186.2344 Q431.9063,186.2344 430.5781,184.5938 Q429.2656,182.9375 429.2656,179.8125 Q429.2656,176.6875 430.5781,175.0313 Q431.9063,173.375 434.4063,173.375 Q435.1094,173.375 435.75,173.5313 Q436.4063,173.6875 436.9688,173.9844 L436.9688,176.7031 Q436.3438,176.125 435.75,175.8594 Q435.1563,175.5781 434.5313,175.5781 Q433.1875,175.5781 432.5,176.6563 Q431.8125,177.7188 431.8125,179.8125 Q431.8125,181.9063 432.5,182.9844 Q433.1875,184.0469 434.5313,184.0469 Q435.1563,184.0469 435.75,183.7813 Q436.3438,183.5 436.9688,182.9219 L436.9688,185.6406 Z " fill="#000000"/><text fill="#000000" font-family="sans-serif" font-size="12" lengthAdjust="spacing" textLength="308" x="448" y="184.1543">DataSummaryAuthorPageModContentFactoryImpl</text><line style="stroke:#A80036;stroke-width:1.5;" x1="420" x2="758" y1="196" y2="196"/><ellipse cx="430" cy="207" rx="3" ry="3" style="stroke:#038048;stroke-width:1.0;fill:none;"/><text fill="#000000" font-family="sans-serif" font-size="11" lengthAdjust="spacing" text-decoration="underline" textLength="73" x="439" y="210.2104">NAME: String</text><line style="stroke:#A80036;stroke-width:1.5;" x1="420" x2="758" y1="216.8047" y2="216.8047"/><ellipse cx="430" cy="227.8047" fill="#84BE84" rx="3" ry="3" style="stroke:#038048;stroke-width:1.0;"/><text fill="#000000" font-family="sans-serif" font-size="11" lengthAdjust="spacing" textLength="264" x="439" y="231.0151">createContent(String, MenuBar, Panel): Layout</text><ellipse cx="430" cy="240.6094" fill="#84BE84" rx="3" ry="3" style="stroke:#038048;stroke-width:1.0;"/><text fill="#000000" font-family="sans-serif" font-size="11" lengthAdjust="spacing" textLength="186" x="439" y="243.8198">matches(String, String): boolean</text></a><!--MD5=[a65c3f7e01ffd2f4344922bc59e40c6d]
class com.hack23.cia.web.impl.ui.application.views.admin.datasummary.pagemode.DataSummaryOverviewPageModContentFactoryImpl--><a href="DataSummaryOverviewPageModContentFactoryImpl.html" target="_top" title="DataSummaryOverviewPageModContentFactoryImpl.html" xlink:actuate="onRequest" xlink:href="DataSummaryOverviewPageModContentFactoryImpl.html" xlink:show="new" xlink:title="DataSummaryOverviewPageModContentFactoryImpl.html" xlink:type="simple"><rect codeLine="9" fill="#FEFECE" filter="url(#fc5yc6vrkyna)" height="86.4141" id="com.hack23.cia.web.impl.ui.application.views.admin.datasummary.pagemode.DataSummaryOverviewPageModContentFactoryImpl" style="stroke:#A80036;stroke-width:1.5;" width="352" x="32" y="164"/><ellipse cx="47" cy="180" fill="#ADD1B2" rx="11" ry="11" style="stroke:#A80036;stroke-width:1.0;"/><path d="M49.9688,185.6406 Q49.3906,185.9375 48.75,186.0781 Q48.1094,186.2344 47.4063,186.2344 Q44.9063,186.2344 43.5781,184.5938 Q42.2656,182.9375 42.2656,179.8125 Q42.2656,176.6875 43.5781,175.0313 Q44.9063,173.375 47.4063,173.375 Q48.1094,173.375 48.75,173.5313 Q49.4063,173.6875 49.9688,173.9844 L49.9688,176.7031 Q49.3438,176.125 48.75,175.8594 Q48.1563,175.5781 47.5313,175.5781 Q46.1875,175.5781 45.5,176.6563 Q44.8125,177.7188 44.8125,179.8125 Q44.8125,181.9063 45.5,182.9844 Q46.1875,184.0469 47.5313,184.0469 Q48.1563,184.0469 48.75,183.7813 Q49.3438,183.5 49.9688,182.9219 L49.9688,185.6406 Z " fill="#000000"/><text fill="#000000" font-family="sans-serif" font-size="12" lengthAdjust="spacing" textLength="320" x="61" y="184.1543">DataSummaryOverviewPageModContentFactoryImpl</text><line style="stroke:#A80036;stroke-width:1.5;" x1="33" x2="383" y1="196" y2="196"/><ellipse cx="43" cy="207" rx="3" ry="3" style="stroke:#038048;stroke-width:1.0;fill:none;"/><text fill="#000000" font-family="sans-serif" font-size="11" lengthAdjust="spacing" text-decoration="underline" textLength="73" x="52" y="210.2104">NAME: String</text><line style="stroke:#A80036;stroke-width:1.5;" x1="33" x2="383" y1="216.8047" y2="216.8047"/><ellipse cx="43" cy="227.8047" fill="#84BE84" rx="3" ry="3" style="stroke:#038048;stroke-width:1.0;"/><text fill="#000000" font-family="sans-serif" font-size="11" lengthAdjust="spacing" textLength="264" x="52" y="231.0151">createContent(String, MenuBar, Panel): Layout</text><ellipse cx="43" cy="240.6094" fill="#84BE84" rx="3" ry="3" style="stroke:#038048;stroke-width:1.0;"/><text fill="#000000" font-family="sans-serif" font-size="11" lengthAdjust="spacing" textLength="186" x="52" y="243.8198">matches(String, String): boolean</text></a><!--MD5=[db981ccff2a6c8db469b3bc4ac975bd4]
class com.hack23.cia.web.impl.ui.application.views.common.pagemode.AbstractBasicPageModContentFactoryImpl--><a href="../../../common/pagemode/AbstractBasicPageModContentFactoryImpl.html" target="_top" title="../../../common/pagemode/AbstractBasicPageModContentFactoryImpl.html" xlink:actuate="onRequest" xlink:href="../../../common/pagemode/AbstractBasicPageModContentFactoryImpl.html" xlink:show="new" xlink:title="../../../common/pagemode/AbstractBasicPageModContentFactoryImpl.html" xlink:type="simple"><rect codeLine="20" fill="#FEFECE" filter="url(#fc5yc6vrkyna)" height="48" id="com.hack23.cia.web.impl.ui.application.views.common.pagemode.AbstractBasicPageModContentFactoryImpl" style="stroke:#A80036;stroke-width:1.5;" width="296" x="165" y="41"/><ellipse cx="180" cy="57" fill="#A9DCDF" rx="11" ry="11" style="stroke:#A80036;stroke-width:1.0;"/><path d="M180.1094,52.3438 L178.9531,57.4219 L181.2813,57.4219 L180.1094,52.3438 Z M178.625,50.1094 L181.6094,50.1094 L184.9688,62.5 L182.5156,62.5 L181.75,59.4375 L178.4688,59.4375 L177.7188,62.5 L175.2813,62.5 L178.625,50.1094 Z " fill="#000000"/><text fill="#000000" font-family="sans-serif" font-size="12" font-style="italic" lengthAdjust="spacing" textLength="264" x="194" y="61.1543">AbstractBasicPageModContentFactoryImpl</text><line style="stroke:#A80036;stroke-width:1.5;" x1="166" x2="460" y1="73" y2="73"/><line style="stroke:#A80036;stroke-width:1.5;" x1="166" x2="460" y1="81" y2="81"/></a><!--MD5=[62e8f7b1e4857dda11d637cab43bf562]
reverse link com.hack23.cia.web.impl.ui.application.views.common.pagemode.AbstractBasicPageModContentFactoryImpl to com.hack23.cia.web.impl.ui.application.views.admin.datasummary.pagemode.DataSummaryAuthorPageModContentFactoryImpl--><path codeLine="15" d="M376.49,98.2 C414.95,117.71 464.43,142.81 505.97,163.89 " fill="none" id="com.hack23.cia.web.impl.ui.application.views.common.pagemode.AbstractBasicPageModContentFactoryImpl-backto-com.hack23.cia.web.impl.ui.application.views.admin.datasummary.pagemode.DataSummaryAuthorPageModContentFactoryImpl" style="stroke:#A80036;stroke-width:1.0;"/><polygon fill="none" points="373.25,104.41,358.58,89.12,379.58,91.92,373.25,104.41" style="stroke:#A80036;stroke-width:1.0;"/><!--MD5=[017792f9d6068c46e48d5d5b454d501c]
reverse link com.hack23.cia.web.impl.ui.application.views.common.pagemode.AbstractBasicPageModContentFactoryImpl to com.hack23.cia.web.impl.ui.application.views.admin.datasummary.pagemode.DataSummaryOverviewPageModContentFactoryImpl--><path codeLine="16" d="M283.5,105.34 C269.81,123.59 253.52,145.3 239.59,163.89 " fill="none" id="com.hack23.cia.web.impl.ui.application.views.common.pagemode.AbstractBasicPageModContentFactoryImpl-backto-com.hack23.cia.web.impl.ui.application.views.admin.datasummary.pagemode.DataSummaryOverviewPageModContentFactoryImpl" style="stroke:#A80036;stroke-width:1.0;"/><polygon fill="none" points="278.06,100.92,295.66,89.12,289.26,109.32,278.06,100.92" style="stroke:#A80036;stroke-width:1.0;"/><text fill="#888888" font-family="sans-serif" font-size="10" lengthAdjust="spacing" textLength="192" x="293.5" y="281.2822">UMLDoclet 2.0.15, PlantUML 1.2021.13</text><!--MD5=[9c5ac60a3921bc70a0ff884dc0a16220]
@startuml
    namespace com.hack23.cia.web.impl.ui.application.views.admin.datasummary.pagemode {

        class DataSummaryAuthorPageModContentFactoryImpl [[DataSummaryAuthorPageModContentFactoryImpl.html]] {
            {static} +NAME: String
            +createContent(String, MenuBar, Panel): Layout
            +matches(String, String): boolean
        }

        class DataSummaryOverviewPageModContentFactoryImpl [[DataSummaryOverviewPageModContentFactoryImpl.html]] {
            {static} +NAME: String
            +createContent(String, MenuBar, Panel): Layout
            +matches(String, String): boolean
        }

        com.hack23.cia.web.impl.ui.application.views.common.pagemode.AbstractBasicPageModContentFactoryImpl <|- - DataSummaryAuthorPageModContentFactoryImpl
        com.hack23.cia.web.impl.ui.application.views.common.pagemode.AbstractBasicPageModContentFactoryImpl <|- - DataSummaryOverviewPageModContentFactoryImpl
    }

    namespace com.hack23.cia.web.impl.ui.application.views.common.pagemode {
        abstract class AbstractBasicPageModContentFactoryImpl [[../../../common/pagemode/AbstractBasicPageModContentFactoryImpl.html]]
    }

    center footer UMLDoclet 2.0.15, PlantUML 1.2021.13
@enduml

PlantUML version 1.2021.13(Mon Nov 01 12:38:45 CET 2021)
(APACHE source distribution)
Java Runtime: OpenJDK Runtime Environment
JVM: OpenJDK 64-Bit Server VM
Default Encoding: UTF-8
Language: en
Country: US
--></g></svg>