<?xml version="1.0" encoding="UTF-8" standalone="no"?><svg xmlns="http://www.w3.org/2000/svg" xmlns:xlink="http://www.w3.org/1999/xlink" contentStyleType="text/css" height="226px" preserveAspectRatio="none" style="width:411px;height:226px;background:#FFFFFF;" version="1.1" viewBox="0 0 411 226" width="411px" zoomAndPan="magnify"><defs/><g><!--MD5=[af3c1668f9c39786b5599e6d01fc7eeb]
class com.hack23.cia.web.impl.ui.application.CitizenIntelligenceAgencySpringVaadinServlet--><a href="CitizenIntelligenceAgencySpringVaadinServlet.html" target="_top" title="CitizenIntelligenceAgencySpringVaadinServlet.html" xlink:actuate="onRequest" xlink:href="CitizenIntelligenceAgencySpringVaadinServlet.html" xlink:show="new" xlink:title="CitizenIntelligenceAgencySpringVaadinServlet.html" xlink:type="simple"><g id="elem_com.hack23.cia.web.impl.ui.application.CitizenIntelligenceAgencySpringVaadinServlet"><rect codeLine="5" fill="#F1F1F1" height="88.8237" id="com.hack23.cia.web.impl.ui.application.CitizenIntelligenceAgencySpringVaadinServlet" rx="2.5" ry="2.5" style="stroke:#181818;stroke-width:0.5;" width="395" x="9" y="110"/><ellipse cx="46.95" cy="131.344" fill="#ADD1B2" rx="11" ry="11" style="stroke:#181818;stroke-width:1.0;"/><path d="M49.9188,136.9846 Q49.3406,137.2815 48.7,137.4221 Q48.0594,137.5783 47.3563,137.5783 Q44.8563,137.5783 43.5281,135.9377 Q42.2156,134.2815 42.2156,131.1565 Q42.2156,128.0315 43.5281,126.3752 Q44.8563,124.719 47.3563,124.719 Q48.0594,124.719 48.7,124.8752 Q49.3563,125.0315 49.9188,125.3283 L49.9188,128.0471 Q49.2938,127.469 48.7,127.2033 Q48.1063,126.9221 47.4813,126.9221 Q46.1375,126.9221 45.45,128.0002 Q44.7625,129.0627 44.7625,131.1565 Q44.7625,133.2502 45.45,134.3283 Q46.1375,135.3908 47.4813,135.3908 Q48.1063,135.3908 48.7,135.1252 Q49.2938,134.844 49.9188,134.2658 L49.9188,136.9846 Z " fill="#000000"/><text fill="#000000" font-family="sans-serif" font-size="14" lengthAdjust="spacing" textLength="312" x="66.05" y="129.9659">CitizenIntelligenceAgencySpringVaadinServlet</text><text fill="#000000" font-family="sans-serif" font-size="10" lengthAdjust="spacing" textLength="190" x="127.05" y="144.7579">com.hack23.cia.web.impl.ui.application</text><line style="stroke:#181818;stroke-width:0.5;" x1="10" x2="403" y1="152.6879" y2="152.6879"/><polygon fill="#FFFF44" points="20,162.7219,24,166.7219,20,170.7219,16,166.7219" style="stroke:#B38D22;stroke-width:1.0;"/><text fill="#000000" font-family="sans-serif" font-size="14" lengthAdjust="spacing" textLength="369" x="29" y="171.6538">service(HttpServletRequest, HttpServletResponse): void</text><polygon fill="#FFFF44" points="20,181.7898,24,185.7898,20,189.7898,16,185.7898" style="stroke:#B38D22;stroke-width:1.0;"/><text fill="#000000" font-family="sans-serif" font-size="14" lengthAdjust="spacing" textLength="156" x="29" y="190.7218">servletInitialized(): void</text></g></a><!--MD5=[3a225e31eb196bb3e53b2f701149af9a]
class com.vaadin.spring.server.SpringVaadinServlet--><g id="elem_com.vaadin.spring.server.SpringVaadinServlet"><rect codeLine="10" fill="#F1F1F1" height="42.6879" id="com.vaadin.spring.server.SpringVaadinServlet" rx="2.5" ry="2.5" style="stroke:#181818;stroke-width:0.5;" width="169" x="122" y="7"/><ellipse cx="137" cy="28.344" fill="#ADD1B2" rx="11" ry="11" style="stroke:#181818;stroke-width:1.0;"/><path d="M139.9688,33.9846 Q139.3906,34.2815 138.75,34.4221 Q138.1094,34.5783 137.4063,34.5783 Q134.9063,34.5783 133.5781,32.9377 Q132.2656,31.2815 132.2656,28.1565 Q132.2656,25.0315 133.5781,23.3752 Q134.9063,21.719 137.4063,21.719 Q138.1094,21.719 138.75,21.8752 Q139.4063,22.0315 139.9688,22.3283 L139.9688,25.0471 Q139.3438,24.469 138.75,24.2033 Q138.1563,23.9221 137.5313,23.9221 Q136.1875,23.9221 135.5,25.0002 Q134.8125,26.0627 134.8125,28.1565 Q134.8125,30.2502 135.5,31.3283 Q136.1875,32.3908 137.5313,32.3908 Q138.1563,32.3908 138.75,32.1252 Q139.3438,31.844 139.9688,31.2658 L139.9688,33.9846 Z " fill="#000000"/><text fill="#000000" font-family="sans-serif" font-size="14" lengthAdjust="spacing" textLength="137" x="151" y="26.9659">SpringVaadinServlet</text><text fill="#000000" font-family="sans-serif" font-size="10" lengthAdjust="spacing" textLength="121" x="159" y="41.7579">com.vaadin.spring.server</text></g><!--MD5=[3cbd752d428f94b5f79a6542eb4a7556]
reverse link com.vaadin.spring.server.SpringVaadinServlet to com.hack23.cia.web.impl.ui.application.CitizenIntelligenceAgencySpringVaadinServlet--><g id="link_com.vaadin.spring.server.SpringVaadinServlet_com.hack23.cia.web.impl.ui.application.CitizenIntelligenceAgencySpringVaadinServlet"><path codeLine="12" d="M206.5,70.4 C206.5,83.02 206.5,96.96 206.5,109.77 " fill="none" id="com.vaadin.spring.server.SpringVaadinServlet-backto-com.hack23.cia.web.impl.ui.application.CitizenIntelligenceAgencySpringVaadinServlet" style="stroke:#181818;stroke-width:1.0;"/><polygon fill="none" points="199.5,70.25,206.5,50.25,213.5,70.25,199.5,70.25" style="stroke:#181818;stroke-width:1.0;"/></g><rect fill="none" height="13.62" style="stroke:none;stroke-width:1.0;" width="188" x="104.5" y="204.8237"/><text fill="#888888" font-family="sans-serif" font-size="10" lengthAdjust="spacing" textLength="188" x="104.5" y="215.5137">UMLDoclet 2.0.20, PlantUML 1.2022.12</text><!--MD5=[7512d7efbe864c582b2be8f6b2702ddd]
@startuml
    set namespaceSeparator none
    hide empty fields
    hide empty methods

    class "<size:14>CitizenIntelligenceAgencySpringVaadinServlet\n<size:10>com.hack23.cia.web.impl.ui.application" as com.hack23.cia.web.impl.ui.application.CitizenIntelligenceAgencySpringVaadinServlet [[CitizenIntelligenceAgencySpringVaadinServlet.html]] {
        #service(HttpServletRequest, HttpServletResponse): void
        #servletInitialized(): void
    }

    class "<size:14>SpringVaadinServlet\n<size:10>com.vaadin.spring.server" as com.vaadin.spring.server.SpringVaadinServlet

    com.vaadin.spring.server.SpringVaadinServlet <|- - com.hack23.cia.web.impl.ui.application.CitizenIntelligenceAgencySpringVaadinServlet

    center footer UMLDoclet 2.0.20, PlantUML 1.2022.12
@enduml

PlantUML version 1.2022.12(Sun Oct 23 20:12:26 CEST 2022)
(APACHE source distribution)
Java Runtime: OpenJDK Runtime Environment
JVM: OpenJDK 64-Bit Server VM
Default Encoding: UTF-8
Language: 
Country: 
--></g></svg>