<svg xmlns="http://www.w3.org/2000/svg" xmlns:xlink="http://www.w3.org/1999/xlink" contentStyleType="text/css" data-diagram-type="CLASS" height="259px" preserveAspectRatio="none" style="width:490px;height:259px;background:#FFFFFF;" version="1.1" viewBox="0 0 490 259" width="490px" zoomAndPan="magnify"><defs/><g><!--cluster com.hack23.cia.web.impl.ui.application.views.user.home--><g class="cluster" data-entity="com.hack23.cia.web.impl.ui.application.views.user.home" data-source-line="10" data-uid="ent0002" id="cluster_com.hack23.cia.web.impl.ui.application.views.user.home"><path d="M29.5,98 L427.9305,98 A3.75,3.75 0 0 1 430.4305,100.5 L437.4305,123.0679 L437.5,123.0679 A2.5,2.5 0 0 1 440,125.5679 L440,219.5 A2.5,2.5 0 0 1 437.5,222 L29.5,222 A2.5,2.5 0 0 1 27,219.5 L27,100.5 A2.5,2.5 0 0 1 29.5,98" fill="none" style="stroke:#000000;stroke-width:1.5;"/><line style="stroke:#000000;stroke-width:1.5;" x1="27" x2="437.4305" y1="123.0679" y2="123.0679"/><text fill="#000000" font-family="sans-serif" font-size="14" font-weight="bold" lengthAdjust="spacing" textLength="397.4305" x="31" y="114.9659">com.hack23.cia.web.impl.ui.application.views.user.home</text></g><!--cluster com.hack23.cia.web.impl.ui.application.views.common.abstracts--><g class="cluster" data-entity="com.hack23.cia.web.impl.ui.application.views.common.abstracts" data-source-line="19" data-uid="ent0004" id="cluster_com.hack23.cia.web.impl.ui.application.views.common.abstracts"><path d="M16.5,4 L470.8742,4 A3.75,3.75 0 0 1 473.3742,6.5 L480.3742,29.0679 L480.5,29.0679 A2.5,2.5 0 0 1 483,31.5679 L483,87.5 A2.5,2.5 0 0 1 480.5,90 L16.5,90 A2.5,2.5 0 0 1 14,87.5 L14,6.5 A2.5,2.5 0 0 1 16.5,4" fill="none" style="stroke:#000000;stroke-width:1.5;"/><line style="stroke:#000000;stroke-width:1.5;" x1="14" x2="480.3742" y1="29.0679" y2="29.0679"/><text fill="#000000" font-family="sans-serif" font-size="14" font-weight="bold" lengthAdjust="spacing" textLength="453.3742" x="18" y="20.9659">com.hack23.cia.web.impl.ui.application.views.common.abstracts</text></g><!--class UserHomeView--><g class="entity" data-entity="UserHomeView" data-source-line="12" data-uid="ent0003" id="entity_UserHomeView"><a href="UserHomeView.html" target="_top" title="UserHomeView.html" xlink:actuate="onRequest" xlink:href="UserHomeView.html" xlink:show="new" xlink:title="UserHomeView.html" xlink:type="simple"><rect fill="#F1F1F1" height="86.1358" rx="2.5" ry="2.5" style="stroke:#181818;stroke-width:0.5;" width="260.8911" x="102.5" y="128"/><ellipse cx="178.0157" cy="144" fill="#ADD1B2" rx="11" ry="11" style="stroke:#181818;stroke-width:1;"/><path d="M180.9845,149.6406 Q180.4064,149.9375 179.7657,150.0781 Q179.1251,150.2344 178.422,150.2344 Q175.922,150.2344 174.5939,148.5938 Q173.2814,146.9375 173.2814,143.8125 Q173.2814,140.6875 174.5939,139.0313 Q175.922,137.375 178.422,137.375 Q179.1251,137.375 179.7657,137.5313 Q180.422,137.6875 180.9845,137.9844 L180.9845,140.7031 Q180.3595,140.125 179.7657,139.8594 Q179.172,139.5781 178.547,139.5781 Q177.2032,139.5781 176.5157,140.6563 Q175.8282,141.7188 175.8282,143.8125 Q175.8282,145.9063 176.5157,146.9844 Q177.2032,148.0469 178.547,148.0469 Q179.172,148.0469 179.7657,147.7813 Q180.3595,147.5 180.9845,146.9219 L180.9845,149.6406 Z " fill="#000000"/><text fill="#000000" font-family="sans-serif" font-size="14" lengthAdjust="spacing" textLength="101.3596" x="198.5157" y="149.432">UserHomeView</text><line style="stroke:#181818;stroke-width:0.5;" x1="103.5" x2="362.3911" y1="160" y2="160"/><ellipse cx="113.5" cy="175.034" fill="none" rx="3" ry="3" style="stroke:#038048;stroke-width:1;"/><text fill="#000000" font-family="sans-serif" font-size="14" lengthAdjust="spacing" text-decoration="underline" textLength="86.8557" x="122.5" y="178.9659">NAME: String</text><line style="stroke:#181818;stroke-width:0.5;" x1="103.5" x2="362.3911" y1="187.0679" y2="187.0679"/><ellipse cx="113.5" cy="202.1019" fill="#84BE84" rx="3" ry="3" style="stroke:#038048;stroke-width:1;"/><text fill="#000000" font-family="sans-serif" font-size="14" lengthAdjust="spacing" textLength="234.8911" x="122.5" y="206.0339">UserHomeView(ApplicationContext)</text></a></g><!--class AbstractUserView--><g class="entity" data-entity="AbstractUserView" data-source-line="20" data-uid="ent0005" id="entity_AbstractUserView"><a href="../../common/abstracts/AbstractUserView.html" target="_top" title="../../common/abstracts/AbstractUserView.html" xlink:actuate="onRequest" xlink:href="../../common/abstracts/AbstractUserView.html" xlink:show="new" xlink:title="../../common/abstracts/AbstractUserView.html" xlink:type="simple"><rect fill="#F1F1F1" height="48" rx="2.5" ry="2.5" style="stroke:#181818;stroke-width:0.5;" width="139.7156" x="163" y="34"/><ellipse cx="178" cy="50" fill="#A9DCDF" rx="11" ry="11" style="stroke:#181818;stroke-width:1;"/><path d="M178.1094,45.3438 L176.9531,50.4219 L179.2813,50.4219 L178.1094,45.3438 Z M176.625,43.1094 L179.6094,43.1094 L182.9688,55.5 L180.5156,55.5 L179.75,52.4375 L176.4688,52.4375 L175.7188,55.5 L173.2813,55.5 L176.625,43.1094 Z " fill="#000000"/><text fill="#000000" font-family="sans-serif" font-size="14" font-style="italic" lengthAdjust="spacing" textLength="107.7156" x="192" y="55.432">AbstractUserView</text><line style="stroke:#181818;stroke-width:0.5;" x1="164" x2="301.7156" y1="66" y2="66"/><line style="stroke:#181818;stroke-width:0.5;" x1="164" x2="301.7156" y1="74" y2="74"/></a></g><g class="link" data-entity-1="AbstractUserView" data-entity-2="UserHomeView" data-uid="lnk6" id="link_AbstractUserView_UserHomeView"><polygon fill="none" points="233,82.2692,227,100.2692,239,100.2692,233,82.2692" style="stroke:#181818;stroke-width:1;"/><path d="M233,100.2692 C233,113.4922 233,112.4505 233,127.9269" fill="none" style="stroke:#181818;stroke-width:1;"/></g><g class="footer" data-source-line="32"><text fill="#888888" font-family="sans-serif" font-size="10" lengthAdjust="spacing" textLength="2.6" x="235.7" y="234.69">&#160;</text><a href="https://github.com/talsma-ict/umldoclet" target="_top" title="https://github.com/talsma-ict/umldoclet" xlink:actuate="onRequest" xlink:href="https://github.com/talsma-ict/umldoclet" xlink:show="new" xlink:title="https://github.com/talsma-ict/umldoclet" xlink:type="simple"><text fill="#888888" font-family="sans-serif" font-size="10" lengthAdjust="spacing" textLength="76.7199" x="198.64" y="248.31">UMLDoclet 2.2.4</text></a></g><!--SRC=[fPJVRzem4CVV-rVSj8THjJW_oleZGfCGgzPDT9e6tGlZmHWtiN3ipBx0KCV_lWj98Mttj4QHWdFdxttkwnm00EzWQ8kDKsc6W1OmKnxkRaV0pG9IQQJZA1UWSfvA3tEfhKbzdIY1bvXP1_P-jnBMEUaBQnRAfF25hpXuMpeXFJiwWbsfoQFwclkM-dnJlVneXPO8dU5n2oaEe_Dk7CRdCE7Qvnm-3oUiKJliYLdCUa3QMWbfF4cMPY7T3cjGS46FKHqvXPLqNbb3Uy96fsfLM8DS6Gy5T-YhbhvfRh1YZHZLVy-Y43g3yUWfN7YrWpk5WJEyNC1t-wlSz_kcS3mbPCqtjaJmkKHk-2xa2TfBgiMH34oIUWEHBibdWibPHh_ZCoOKPsivPoelD2iLuqL1FNAa3jXAoRLdfPUEPJQNy52hL9VGt9FJ5BgXo0zAXEcqlMGPvdeseptGkXuyahJOmidNmUrr0cDqT9PFKaxQAft10MT83ihVUBpFtjOusrVqHiavBVZSe-E2pkM0-_YkQNNGB2kwfbt60hfhYM0l4JpFVEd4jitzAjuaUS7L_zFj_kS19qdR-nglxt6ZvOSz-xsrI1_-qsEzsHJIZPHP3gscp-tjvR-ZTzNCQ6KaZQbO6acsXizCwGUjUasjdsOwpH0BdmH1gZ0hvvKF0UxcjQi41cMk5_MWFXlPsQmPmK_x_u9gdBfXhnj5awYNH1T9VCLwlSlmBBgu2a_2E0d3wNNfR263CLgnpApEPty1]--></g></svg>