<?xml version="1.0" encoding="UTF-8" standalone="no"?><svg xmlns="http://www.w3.org/2000/svg" xmlns:xlink="http://www.w3.org/1999/xlink" contentStyleType="text/css" height="234px" preserveAspectRatio="none" style="width:326px;height:234px;background:#FFFFFF;" version="1.1" viewBox="0 0 326 234" width="326px" zoomAndPan="magnify"><defs/><g><!--MD5=[b3e66bcf1527c6ba86dfa3e172acd529]
class com.hack23.cia.web.impl.ui.application.views.user.home.UserHomeView--><a href="UserHomeView.html" target="_top" title="UserHomeView.html" xlink:actuate="onRequest" xlink:href="UserHomeView.html" xlink:show="new" xlink:title="UserHomeView.html" xlink:type="simple"><g id="elem_com.hack23.cia.web.impl.ui.application.views.user.home.UserHomeView"><rect codeLine="5" fill="#F1F1F1" height="96.8237" id="com.hack23.cia.web.impl.ui.application.views.user.home.UserHomeView" rx="2.5" ry="2.5" style="stroke:#181818;stroke-width:0.5;" width="306" x="10" y="110"/><ellipse cx="25" cy="131.344" fill="#ADD1B2" rx="11" ry="11" style="stroke:#181818;stroke-width:1.0;"/><path d="M27.9688,136.9846 Q27.3906,137.2815 26.75,137.4221 Q26.1094,137.5783 25.4063,137.5783 Q22.9063,137.5783 21.5781,135.9377 Q20.2656,134.2815 20.2656,131.1565 Q20.2656,128.0315 21.5781,126.3752 Q22.9063,124.719 25.4063,124.719 Q26.1094,124.719 26.75,124.8752 Q27.4063,125.0315 27.9688,125.3283 L27.9688,128.0471 Q27.3438,127.469 26.75,127.2033 Q26.1563,126.9221 25.5313,126.9221 Q24.1875,126.9221 23.5,128.0002 Q22.8125,129.0627 22.8125,131.1565 Q22.8125,133.2502 23.5,134.3283 Q24.1875,135.3908 25.5313,135.3908 Q26.1563,135.3908 26.75,135.1252 Q27.3438,134.844 27.9688,134.2658 L27.9688,136.9846 Z " fill="#000000"/><text fill="#000000" font-family="sans-serif" font-size="14" lengthAdjust="spacing" textLength="101" x="125.5" y="129.9659">UserHomeView</text><text fill="#000000" font-family="sans-serif" font-size="10" lengthAdjust="spacing" textLength="274" x="39" y="144.7579">com.hack23.cia.web.impl.ui.application.views.user.home</text><line style="stroke:#181818;stroke-width:0.5;" x1="11" x2="315" y1="152.6879" y2="152.6879"/><ellipse cx="21" cy="167.7219" fill="none" rx="3" ry="3" style="stroke:#038048;stroke-width:1.0;"/><text fill="#000000" font-family="sans-serif" font-size="14" lengthAdjust="spacing" text-decoration="underline" textLength="90" x="30" y="171.6538">NAME: String</text><line style="stroke:#181818;stroke-width:0.5;" x1="11" x2="315" y1="179.7558" y2="179.7558"/><ellipse cx="21" cy="194.7898" fill="#84BE84" rx="3" ry="3" style="stroke:#038048;stroke-width:1.0;"/><text fill="#000000" font-family="sans-serif" font-size="14" lengthAdjust="spacing" textLength="236" x="30" y="198.7218">UserHomeView(ApplicationContext)</text></g></a><!--MD5=[968b4da468365d2329577b3d306a41ed]
class com.hack23.cia.web.impl.ui.application.views.user.common.AbstractUserView--><a href="../common/AbstractUserView.html" target="_top" title="../common/AbstractUserView.html" xlink:actuate="onRequest" xlink:href="../common/AbstractUserView.html" xlink:show="new" xlink:title="../common/AbstractUserView.html" xlink:type="simple"><g id="elem_com.hack23.cia.web.impl.ui.application.views.user.common.AbstractUserView"><rect codeLine="10" fill="#F1F1F1" height="42.6879" id="com.hack23.cia.web.impl.ui.application.views.user.common.AbstractUserView" rx="2.5" ry="2.5" style="stroke:#181818;stroke-width:0.5;" width="312" x="7" y="7"/><ellipse cx="22" cy="28.344" fill="#A9DCDF" rx="11" ry="11" style="stroke:#181818;stroke-width:1.0;"/><path d="M22.1094,23.6877 L20.9531,28.7658 L23.2813,28.7658 L22.1094,23.6877 Z M20.625,21.4533 L23.6094,21.4533 L26.9688,33.844 L24.5156,33.844 L23.75,30.7815 L20.4688,30.7815 L19.7188,33.844 L17.2813,33.844 L20.625,21.4533 Z " fill="#000000"/><text fill="#000000" font-family="sans-serif" font-size="14" font-style="italic" lengthAdjust="spacing" textLength="109" x="121.5" y="26.9659">AbstractUserView</text><text fill="#000000" font-family="sans-serif" font-size="10" font-style="italic" lengthAdjust="spacing" textLength="280" x="36" y="41.7579">com.hack23.cia.web.impl.ui.application.views.user.common</text></g></a><!--MD5=[306d01d9b9f9d18fcc361b409f01b334]
reverse link com.hack23.cia.web.impl.ui.application.views.user.common.AbstractUserView to com.hack23.cia.web.impl.ui.application.views.user.home.UserHomeView--><g id="link_com.hack23.cia.web.impl.ui.application.views.user.common.AbstractUserView_com.hack23.cia.web.impl.ui.application.views.user.home.UserHomeView"><path codeLine="12" d="M163,70.16 C163,82.79 163,96.82 163,109.88 " fill="none" id="com.hack23.cia.web.impl.ui.application.views.user.common.AbstractUserView-backto-com.hack23.cia.web.impl.ui.application.views.user.home.UserHomeView" style="stroke:#181818;stroke-width:1.0;"/><polygon fill="none" points="156,70.07,163,50.07,170,70.07,156,70.07" style="stroke:#181818;stroke-width:1.0;"/></g><rect fill="none" height="13.62" style="stroke:none;stroke-width:1.0;" width="188" x="62" y="212.8237"/><text fill="#888888" font-family="sans-serif" font-size="10" lengthAdjust="spacing" textLength="188" x="62" y="223.5137">UMLDoclet 2.0.20, PlantUML 1.2022.12</text><!--MD5=[38db96fb96f8c8e09a5e3f977f5d3003]
@startuml
    set namespaceSeparator none
    hide empty fields
    hide empty methods

    class "<size:14>UserHomeView\n<size:10>com.hack23.cia.web.impl.ui.application.views.user.home" as com.hack23.cia.web.impl.ui.application.views.user.home.UserHomeView [[UserHomeView.html]] {
        {static} +NAME: String
        +UserHomeView(ApplicationContext)
    }

    abstract class "<size:14>AbstractUserView\n<size:10>com.hack23.cia.web.impl.ui.application.views.user.common" as com.hack23.cia.web.impl.ui.application.views.user.common.AbstractUserView [[../common/AbstractUserView.html]]

    com.hack23.cia.web.impl.ui.application.views.user.common.AbstractUserView <|- - com.hack23.cia.web.impl.ui.application.views.user.home.UserHomeView

    center footer UMLDoclet 2.0.20, PlantUML 1.2022.12
@enduml

PlantUML version 1.2022.12(Sun Oct 23 20:12:26 CEST 2022)
(APACHE source distribution)
Java Runtime: OpenJDK Runtime Environment
JVM: OpenJDK 64-Bit Server VM
Default Encoding: UTF-8
Language: 
Country: 
--></g></svg>