<svg xmlns="http://www.w3.org/2000/svg" xmlns:xlink="http://www.w3.org/1999/xlink" contentStyleType="text/css" data-diagram-type="CLASS" height="190px" preserveAspectRatio="none" style="width:411px;height:190px;background:#FFFFFF;" version="1.1" viewBox="0 0 411 190" width="411px" zoomAndPan="magnify"><defs/><g><!--class com.hack23.cia.service.api.action.admin.UpdateApplicationConfigurationResponse--><g class="entity" data-entity="com.hack23.cia.service.api.action.admin.UpdateApplicationConfigurationResponse" data-source-line="13" data-uid="ent0002" id="entity_com.hack23.cia.service.api.action.admin.UpdateApplicationConfigurationResponse"><a href="UpdateApplicationConfigurationResponse.html" target="_top" title="UpdateApplicationConfigurationResponse.html" xlink:actuate="onRequest" xlink:href="UpdateApplicationConfigurationResponse.html" xlink:show="new" xlink:title="UpdateApplicationConfigurationResponse.html" xlink:type="simple"><rect fill="#F1F1F1" height="69.7558" rx="2.5" ry="2.5" style="stroke:#181818;stroke-width:0.5;" width="398.4686" x="6" y="91"/><ellipse cx="62.6158" cy="112.344" fill="#ADD1B2" rx="11" ry="11" style="stroke:#181818;stroke-width:1;"/><path d="M65.5846,117.9846 Q65.0065,118.2815 64.3658,118.4221 Q63.7252,118.5783 63.0221,118.5783 Q60.5221,118.5783 59.194,116.9377 Q57.8815,115.2815 57.8815,112.1565 Q57.8815,109.0315 59.194,107.3752 Q60.5221,105.719 63.0221,105.719 Q63.7252,105.719 64.3658,105.8752 Q65.0221,106.0315 65.5846,106.3283 L65.5846,109.0471 Q64.9596,108.469 64.3658,108.2033 Q63.7721,107.9221 63.1471,107.9221 Q61.8033,107.9221 61.1158,109.0002 Q60.4283,110.0627 60.4283,112.1565 Q60.4283,114.2502 61.1158,115.3283 Q61.8033,116.3908 63.1471,116.3908 Q63.7721,116.3908 64.3658,116.1252 Q64.9596,115.844 65.5846,115.2658 L65.5846,117.9846 Z " fill="#000000"/><text fill="#000000" font-family="sans-serif" font-size="14" lengthAdjust="spacing" textLength="276.737" x="83.1158" y="110.9659">UpdateApplicationConfigurationResponse</text><text fill="#000000" font-family="sans-serif" font-size="10" lengthAdjust="spacing" textLength="188.3399" x="127.3144" y="125.7579">com.hack23.cia.service.api.action.admin</text><line style="stroke:#181818;stroke-width:0.5;" x1="7" x2="403.4686" y1="133.6879" y2="133.6879"/><ellipse cx="17" cy="148.7219" fill="#84BE84" rx="3" ry="3" style="stroke:#038048;stroke-width:1;"/><text fill="#000000" font-family="sans-serif" font-size="14" lengthAdjust="spacing" textLength="372.4686" x="26" y="152.6538">UpdateApplicationConfigurationResponse(ServiceResult)</text></a></g><!--class com.hack23.cia.service.api.action.common.AbstractResponse--><g class="entity" data-entity="com.hack23.cia.service.api.action.common.AbstractResponse" data-source-line="17" data-uid="ent0003" id="entity_com.hack23.cia.service.api.action.common.AbstractResponse"><a href="../common/AbstractResponse.html" target="_top" title="../common/AbstractResponse.html" xlink:actuate="onRequest" xlink:href="../common/AbstractResponse.html" xlink:show="new" xlink:title="../common/AbstractResponse.html" xlink:type="simple"><rect fill="#F1F1F1" height="42.6879" rx="2.5" ry="2.5" style="stroke:#181818;stroke-width:0.5;" width="221.7498" x="94" y="12"/><ellipse cx="109" cy="33.344" fill="#A9DCDF" rx="11" ry="11" style="stroke:#181818;stroke-width:1;"/><path d="M109.1094,28.6877 L107.9531,33.7658 L110.2813,33.7658 L109.1094,28.6877 Z M107.625,26.4533 L110.6094,26.4533 L113.9688,38.844 L111.5156,38.844 L110.75,35.7815 L107.4688,35.7815 L106.7188,38.844 L104.2813,38.844 L107.625,26.4533 Z " fill="#000000"/><text fill="#000000" font-family="sans-serif" font-size="14" font-style="italic" lengthAdjust="spacing" textLength="109.3676" x="163.1911" y="31.9659">AbstractResponse</text><text fill="#000000" font-family="sans-serif" font-size="10" font-style="italic" lengthAdjust="spacing" textLength="189.7498" x="123" y="46.7579">com.hack23.cia.service.api.action.common</text></a></g><g class="link" data-entity-1="com.hack23.cia.service.api.action.common.AbstractResponse" data-entity-2="com.hack23.cia.service.api.action.admin.UpdateApplicationConfigurationResponse" data-uid="lnk4" id="link_com.hack23.cia.service.api.action.common.AbstractResponse_com.hack23.cia.service.api.action.admin.UpdateApplicationConfigurationResponse"><polygon fill="none" points="205,55.0359,199,73.0359,211,73.0359,205,55.0359" style="stroke:#181818;stroke-width:1;"/><path d="M205,73.0359 C205,83.5703 205,78.6827 205,90.6991" fill="none" style="stroke:#181818;stroke-width:1;"/></g><g class="footer" data-source-line="27"><text fill="#888888" font-family="sans-serif" font-size="10" lengthAdjust="spacing" textLength="2.6" x="200.2" y="165.69">&#160;</text><a href="https://github.com/talsma-ict/umldoclet" target="_top" title="https://github.com/talsma-ict/umldoclet" xlink:actuate="onRequest" xlink:href="https://github.com/talsma-ict/umldoclet" xlink:show="new" xlink:title="https://github.com/talsma-ict/umldoclet" xlink:type="simple"><text fill="#888888" font-family="sans-serif" font-size="10" lengthAdjust="spacing" textLength="76.7199" x="163.14" y="179.31">UMLDoclet 2.2.4</text></a></g><!--SRC=[hLHBRnCn4BxtLmpbGAistWVRg4HLfIWW7WeIQj9JsiF4EzcruhMDxGqAqF-Ezq5Q0eUemfULv_Lzyyrw001UmKIRhHL5wS5hyALmSFjv2gXoA4YHHKyvY0eBSh0agLNXka02h7sfBUXLU-FQMd96groe0ZxX1i7fsd9oxEW8MgZvx-hVq3sfljmsnhUQI_9mCZbzGYcDa-4WZTCXp56w2k7ZPCxwQeyvAKjP1g6s59oK2oLhbPDjQOqDyl2PTfvps91rGgkG4_TrcbQvLXw5Sc3GUjUqz4MYyWtNX0Ny2vR4S3AUJVya5xzfoPt3s2giSxZHN-jTlo-CnI9GbhZLjGTNaKU5dSy5rWghe1Tocb50HH-aL5fHwoz5Ja2LyLjO2PAvsxU6OgKEvjRE9Je7nrTEVATHabtVcZm8EpOcw84-T3lHQYMAshQNctPAZkvKdn1VSrsn4lawVSsuGER8Re9U38rWo9iSXdabr364kHqOomuZ0Ol5OO6iz9MyluSVRSVDEJiiyMJMCGptMlhJDlsXqmsNpjj0-Yy1nxtZMLA5Y4eVgbKNpFO1WooCHPqpsdVsKlIpVpR4rS_1u3zFiwDqvVnMqlLkK2kjVNYDZvDhpeUj8JiLQZtHClpvBo__xRrj7h8KYiBku6j5OKpnBlAXWukUuFLOTsgnABqtRXH5XV1blMnaY7oxH0Q2-wYkPDvjZxqz4eJjziBxtO9gtlWWpWP9Ca-oKJOS9KEMPUdby28PPcTnEehZnRlQQaFHp6k-BhMixdy1]--></g></svg>