<?xml version="1.0" encoding="UTF-8" standalone="no"?><svg xmlns="http://www.w3.org/2000/svg" xmlns:xlink="http://www.w3.org/1999/xlink" contentStyleType="text/css" height="234px" preserveAspectRatio="none" style="width:345px;height:234px;background:#FFFFFF;" version="1.1" viewBox="0 0 345 234" width="345px" zoomAndPan="magnify"><defs/><g><!--MD5=[c850c15a91dd06492b47899e9d8ee4a6]
class com.hack23.cia.web.impl.ui.application.views.user.committee.CommitteeRankingView--><a href="CommitteeRankingView.html" target="_top" title="CommitteeRankingView.html" xlink:actuate="onRequest" xlink:href="CommitteeRankingView.html" xlink:show="new" xlink:title="CommitteeRankingView.html" xlink:type="simple"><g id="elem_com.hack23.cia.web.impl.ui.application.views.user.committee.CommitteeRankingView"><rect codeLine="5" fill="#F1F1F1" height="96.8237" id="com.hack23.cia.web.impl.ui.application.views.user.committee.CommitteeRankingView" rx="2.5" ry="2.5" style="stroke:#181818;stroke-width:0.5;" width="331" x="7" y="110"/><ellipse cx="22" cy="131.344" fill="#ADD1B2" rx="11" ry="11" style="stroke:#181818;stroke-width:1.0;"/><path d="M24.9688,136.9846 Q24.3906,137.2815 23.75,137.4221 Q23.1094,137.5783 22.4063,137.5783 Q19.9063,137.5783 18.5781,135.9377 Q17.2656,134.2815 17.2656,131.1565 Q17.2656,128.0315 18.5781,126.3752 Q19.9063,124.719 22.4063,124.719 Q23.1094,124.719 23.75,124.8752 Q24.4063,125.0315 24.9688,125.3283 L24.9688,128.0471 Q24.3438,127.469 23.75,127.2033 Q23.1563,126.9221 22.5313,126.9221 Q21.1875,126.9221 20.5,128.0002 Q19.8125,129.0627 19.8125,131.1565 Q19.8125,133.2502 20.5,134.3283 Q21.1875,135.3908 22.5313,135.3908 Q23.1563,135.3908 23.75,135.1252 Q24.3438,134.844 24.9688,134.2658 L24.9688,136.9846 Z " fill="#000000"/><text fill="#000000" font-family="sans-serif" font-size="14" lengthAdjust="spacing" textLength="159" x="106" y="129.9659">CommitteeRankingView</text><text fill="#000000" font-family="sans-serif" font-size="10" lengthAdjust="spacing" textLength="299" x="36" y="144.7579">com.hack23.cia.web.impl.ui.application.views.user.committee</text><line style="stroke:#181818;stroke-width:0.5;" x1="8" x2="337" y1="152.6879" y2="152.6879"/><ellipse cx="18" cy="167.7219" fill="none" rx="3" ry="3" style="stroke:#038048;stroke-width:1.0;"/><text fill="#000000" font-family="sans-serif" font-size="14" lengthAdjust="spacing" text-decoration="underline" textLength="90" x="27" y="171.6538">NAME: String</text><line style="stroke:#181818;stroke-width:0.5;" x1="8" x2="337" y1="179.7558" y2="179.7558"/><ellipse cx="18" cy="194.7898" fill="#84BE84" rx="3" ry="3" style="stroke:#038048;stroke-width:1.0;"/><text fill="#000000" font-family="sans-serif" font-size="14" lengthAdjust="spacing" textLength="294" x="27" y="198.7218">CommitteeRankingView(ApplicationContext)</text></g></a><!--MD5=[391696cd44669b86b1fc88d08221bc08]
class com.hack23.cia.web.impl.ui.application.views.user.common.AbstractRankingView--><a href="../common/AbstractRankingView.html" target="_top" title="../common/AbstractRankingView.html" xlink:actuate="onRequest" xlink:href="../common/AbstractRankingView.html" xlink:show="new" xlink:title="../common/AbstractRankingView.html" xlink:type="simple"><g id="elem_com.hack23.cia.web.impl.ui.application.views.user.common.AbstractRankingView"><rect codeLine="10" fill="#F1F1F1" height="42.6879" id="com.hack23.cia.web.impl.ui.application.views.user.common.AbstractRankingView" rx="2.5" ry="2.5" style="stroke:#181818;stroke-width:0.5;" width="312" x="16.5" y="7"/><ellipse cx="31.5" cy="28.344" fill="#A9DCDF" rx="11" ry="11" style="stroke:#181818;stroke-width:1.0;"/><path d="M31.6094,23.6877 L30.4531,28.7658 L32.7813,28.7658 L31.6094,23.6877 Z M30.125,21.4533 L33.1094,21.4533 L36.4688,33.844 L34.0156,33.844 L33.25,30.7815 L29.9688,30.7815 L29.2188,33.844 L26.7813,33.844 L30.125,21.4533 Z " fill="#000000"/><text fill="#000000" font-family="sans-serif" font-size="14" font-style="italic" lengthAdjust="spacing" textLength="132" x="119.5" y="26.9659">AbstractRankingView</text><text fill="#000000" font-family="sans-serif" font-size="10" font-style="italic" lengthAdjust="spacing" textLength="280" x="45.5" y="41.7579">com.hack23.cia.web.impl.ui.application.views.user.common</text></g></a><!--MD5=[0fcef1333cac04f396676500802421b5]
reverse link com.hack23.cia.web.impl.ui.application.views.user.common.AbstractRankingView to com.hack23.cia.web.impl.ui.application.views.user.committee.CommitteeRankingView--><g id="link_com.hack23.cia.web.impl.ui.application.views.user.common.AbstractRankingView_com.hack23.cia.web.impl.ui.application.views.user.committee.CommitteeRankingView"><path codeLine="12" d="M172.5,70.16 C172.5,82.79 172.5,96.82 172.5,109.88 " fill="none" id="com.hack23.cia.web.impl.ui.application.views.user.common.AbstractRankingView-backto-com.hack23.cia.web.impl.ui.application.views.user.committee.CommitteeRankingView" style="stroke:#181818;stroke-width:1.0;"/><polygon fill="none" points="165.5,70.07,172.5,50.07,179.5,70.07,165.5,70.07" style="stroke:#181818;stroke-width:1.0;"/></g><rect fill="none" height="13.62" style="stroke:none;stroke-width:1.0;" width="188" x="71.5" y="212.8237"/><text fill="#888888" font-family="sans-serif" font-size="10" lengthAdjust="spacing" textLength="188" x="71.5" y="223.5137">UMLDoclet 2.0.20, PlantUML 1.2022.12</text><!--MD5=[6f6898156cab7767006a322313929ae5]
@startuml
    set namespaceSeparator none
    hide empty fields
    hide empty methods

    class "<size:14>CommitteeRankingView\n<size:10>com.hack23.cia.web.impl.ui.application.views.user.committee" as com.hack23.cia.web.impl.ui.application.views.user.committee.CommitteeRankingView [[CommitteeRankingView.html]] {
        {static} +NAME: String
        +CommitteeRankingView(ApplicationContext)
    }

    abstract class "<size:14>AbstractRankingView\n<size:10>com.hack23.cia.web.impl.ui.application.views.user.common" as com.hack23.cia.web.impl.ui.application.views.user.common.AbstractRankingView [[../common/AbstractRankingView.html]]

    com.hack23.cia.web.impl.ui.application.views.user.common.AbstractRankingView <|- - com.hack23.cia.web.impl.ui.application.views.user.committee.CommitteeRankingView

    center footer UMLDoclet 2.0.20, PlantUML 1.2022.12
@enduml

PlantUML version 1.2022.12(Sun Oct 23 20:12:26 CEST 2022)
(APACHE source distribution)
Java Runtime: OpenJDK Runtime Environment
JVM: OpenJDK 64-Bit Server VM
Default Encoding: UTF-8
Language: 
Country: 
--></g></svg>