<svg xmlns="http://www.w3.org/2000/svg" xmlns:xlink="http://www.w3.org/1999/xlink" contentStyleType="text/css" data-diagram-type="CLASS" height="343px" preserveAspectRatio="none" style="width:1005px;height:343px;background:#FFFFFF;" version="1.1" viewBox="0 0 1005 343" width="1005px" zoomAndPan="magnify"><defs/><g><!--cluster com.hack23.cia.web.impl.ui.application.views.user.common--><g class="cluster" data-entity="com.hack23.cia.web.impl.ui.application.views.user.common" data-source-line="10" data-uid="ent0002" id="cluster_com.hack23.cia.web.impl.ui.application.views.user.common"><path d="M16.5,98 L436.2663,98 A3.75,3.75 0 0 1 438.7663,100.5 L445.7663,123.0679 L995.5,123.0679 A2.5,2.5 0 0 1 998,125.5679 L998,303.5 A2.5,2.5 0 0 1 995.5,306 L16.5,306 A2.5,2.5 0 0 1 14,303.5 L14,100.5 A2.5,2.5 0 0 1 16.5,98" fill="none" style="stroke:#000000;stroke-width:1.5;"/><line style="stroke:#000000;stroke-width:1.5;" x1="14" x2="445.7663" y1="123.0679" y2="123.0679"/><text fill="#000000" font-family="sans-serif" font-size="14" font-weight="bold" lengthAdjust="spacing" textLength="418.7663" x="18" y="114.9659">com.hack23.cia.web.impl.ui.application.views.user.common</text></g><!--cluster com.hack23.cia.web.impl.ui.application.views.common.abstracts--><g class="cluster" data-entity="com.hack23.cia.web.impl.ui.application.views.common.abstracts" data-source-line="30" data-uid="ent0007" id="cluster_com.hack23.cia.web.impl.ui.application.views.common.abstracts"><path d="M314.5,4 L768.8742,4 A3.75,3.75 0 0 1 771.3742,6.5 L778.3742,29.0679 L778.5,29.0679 A2.5,2.5 0 0 1 781,31.5679 L781,87.5 A2.5,2.5 0 0 1 778.5,90 L314.5,90 A2.5,2.5 0 0 1 312,87.5 L312,6.5 A2.5,2.5 0 0 1 314.5,4" fill="none" style="stroke:#000000;stroke-width:1.5;"/><line style="stroke:#000000;stroke-width:1.5;" x1="312" x2="778.3742" y1="29.0679" y2="29.0679"/><text fill="#000000" font-family="sans-serif" font-size="14" font-weight="bold" lengthAdjust="spacing" textLength="453.3742" x="316" y="20.9659">com.hack23.cia.web.impl.ui.application.views.common.abstracts</text></g><!--class AbstractPersonView--><g class="entity" data-entity="AbstractPersonView" data-source-line="12" data-uid="ent0003" id="entity_AbstractPersonView"><a href="AbstractPersonView.html" target="_top" title="AbstractPersonView.html" xlink:actuate="onRequest" xlink:href="AbstractPersonView.html" xlink:show="new" xlink:title="AbstractPersonView.html" xlink:type="simple"><rect fill="#F1F1F1" height="67.0679" rx="2.5" ry="2.5" style="stroke:#181818;stroke-width:0.5;" width="476.1823" x="22" y="231"/><ellipse cx="194.7594" cy="247" fill="#A9DCDF" rx="11" ry="11" style="stroke:#181818;stroke-width:1;"/><path d="M194.8688,242.3438 L193.7125,247.4219 L196.0407,247.4219 L194.8688,242.3438 Z M193.3844,240.1094 L196.3688,240.1094 L199.7282,252.5 L197.275,252.5 L196.5094,249.4375 L193.2282,249.4375 L192.4782,252.5 L190.0407,252.5 L193.3844,240.1094 Z " fill="#000000"/><text fill="#000000" font-family="sans-serif" font-size="14" font-style="italic" lengthAdjust="spacing" textLength="122.1635" x="215.2594" y="252.432">AbstractPersonView</text><line style="stroke:#181818;stroke-width:0.5;" x1="23" x2="497.1823" y1="263" y2="263"/><line style="stroke:#181818;stroke-width:0.5;" x1="23" x2="497.1823" y1="271" y2="271"/><ellipse cx="33" cy="286.034" fill="#84BE84" rx="3" ry="3" style="stroke:#038048;stroke-width:1;"/><text fill="#000000" font-family="sans-serif" font-size="14" lengthAdjust="spacing" textLength="450.1823" x="42" y="289.9659">AbstractPersonView(Map&lt;String, PageModeContentFactory&gt;, String)</text></a></g><!--class AbstractRankingView--><g class="entity" data-entity="AbstractRankingView" data-source-line="16" data-uid="ent0004" id="entity_AbstractRankingView"><a href="AbstractRankingView.html" target="_top" title="AbstractRankingView.html" xlink:actuate="onRequest" xlink:href="AbstractRankingView.html" xlink:show="new" xlink:title="AbstractRankingView.html" xlink:type="simple"><rect fill="#F1F1F1" height="67.0679" rx="2.5" ry="2.5" style="stroke:#181818;stroke-width:0.5;" width="483.7703" x="506" y="128"/><ellipse cx="678.4024" cy="144" fill="#A9DCDF" rx="11" ry="11" style="stroke:#181818;stroke-width:1;"/><path d="M678.5118,139.3438 L677.3555,144.4219 L679.6836,144.4219 L678.5118,139.3438 Z M677.0274,137.1094 L680.0118,137.1094 L683.3711,149.5 L680.918,149.5 L680.1524,146.4375 L676.8711,146.4375 L676.1211,149.5 L673.6836,149.5 L677.0274,137.1094 Z " fill="#000000"/><text fill="#000000" font-family="sans-serif" font-size="14" font-style="italic" lengthAdjust="spacing" textLength="130.4655" x="698.9024" y="149.432">AbstractRankingView</text><line style="stroke:#181818;stroke-width:0.5;" x1="507" x2="988.7703" y1="160" y2="160"/><line style="stroke:#181818;stroke-width:0.5;" x1="507" x2="988.7703" y1="168" y2="168"/><polygon fill="#FFFF44" points="517,178.034,521,182.034,517,186.034,513,182.034" style="stroke:#B38D22;stroke-width:1;"/><text fill="#000000" font-family="sans-serif" font-size="14" lengthAdjust="spacing" textLength="457.7703" x="526" y="186.9659">AbstractRankingView(Map&lt;String, PageModeContentFactory&gt;, String)</text></a></g><!--class AbstractGroupView--><g class="entity" data-entity="AbstractGroupView" data-source-line="20" data-uid="ent0005" id="entity_AbstractGroupView"><a href="AbstractGroupView.html" target="_top" title="AbstractGroupView.html" xlink:actuate="onRequest" xlink:href="AbstractGroupView.html" xlink:show="new" xlink:title="AbstractGroupView.html" xlink:type="simple"><rect fill="#F1F1F1" height="67.0679" rx="2.5" ry="2.5" style="stroke:#181818;stroke-width:0.5;" width="471.9123" x="516" y="231"/><ellipse cx="688.3114" cy="247" fill="#A9DCDF" rx="11" ry="11" style="stroke:#181818;stroke-width:1;"/><path d="M688.4208,242.3438 L687.2645,247.4219 L689.5926,247.4219 L688.4208,242.3438 Z M686.9364,240.1094 L689.9208,240.1094 L693.2801,252.5 L690.827,252.5 L690.0614,249.4375 L686.7801,249.4375 L686.0301,252.5 L683.5926,252.5 L686.9364,240.1094 Z " fill="#000000"/><text fill="#000000" font-family="sans-serif" font-size="14" font-style="italic" lengthAdjust="spacing" textLength="118.7895" x="708.8114" y="252.432">AbstractGroupView</text><line style="stroke:#181818;stroke-width:0.5;" x1="517" x2="986.9123" y1="263" y2="263"/><line style="stroke:#181818;stroke-width:0.5;" x1="517" x2="986.9123" y1="271" y2="271"/><ellipse cx="527" cy="286.034" fill="#84BE84" rx="3" ry="3" style="stroke:#038048;stroke-width:1;"/><text fill="#000000" font-family="sans-serif" font-size="14" lengthAdjust="spacing" textLength="445.9123" x="536" y="289.9659">AbstractGroupView(Map&lt;String, PageModeContentFactory&gt;, String)</text></a></g><!--class AbstractActorView--><g class="entity" data-entity="AbstractActorView" data-source-line="24" data-uid="ent0006" id="entity_AbstractActorView"><a href="AbstractActorView.html" target="_top" title="AbstractActorView.html" xlink:actuate="onRequest" xlink:href="AbstractActorView.html" xlink:show="new" xlink:title="AbstractActorView.html" xlink:type="simple"><rect fill="#F1F1F1" height="67.0679" rx="2.5" ry="2.5" style="stroke:#181818;stroke-width:0.5;" width="465.1784" x="22.5" y="128"/><ellipse cx="194.8674" cy="144" fill="#A9DCDF" rx="11" ry="11" style="stroke:#181818;stroke-width:1;"/><path d="M194.9768,139.3438 L193.8205,144.4219 L196.1487,144.4219 L194.9768,139.3438 Z M193.4924,137.1094 L196.4768,137.1094 L199.8362,149.5 L197.383,149.5 L196.6174,146.4375 L193.3362,146.4375 L192.5862,149.5 L190.1487,149.5 L193.4924,137.1094 Z " fill="#000000"/><text fill="#000000" font-family="sans-serif" font-size="14" font-style="italic" lengthAdjust="spacing" textLength="111.9436" x="215.3674" y="149.432">AbstractActorView</text><line style="stroke:#181818;stroke-width:0.5;" x1="23.5" x2="486.6784" y1="160" y2="160"/><line style="stroke:#181818;stroke-width:0.5;" x1="23.5" x2="486.6784" y1="168" y2="168"/><ellipse cx="33.5" cy="183.034" fill="#84BE84" rx="3" ry="3" style="stroke:#038048;stroke-width:1;"/><text fill="#000000" font-family="sans-serif" font-size="14" lengthAdjust="spacing" textLength="439.1784" x="42.5" y="186.9659">AbstractActorView(Map&lt;String, PageModeContentFactory&gt;, String)</text></a></g><!--class AbstractUserView--><g class="entity" data-entity="AbstractUserView" data-source-line="31" data-uid="ent0008" id="entity_AbstractUserView"><a href="../../common/abstracts/AbstractUserView.html" target="_top" title="../../common/abstracts/AbstractUserView.html" xlink:actuate="onRequest" xlink:href="../../common/abstracts/AbstractUserView.html" xlink:show="new" xlink:title="../../common/abstracts/AbstractUserView.html" xlink:type="simple"><rect fill="#F1F1F1" height="48" rx="2.5" ry="2.5" style="stroke:#181818;stroke-width:0.5;" width="139.7156" x="401" y="34"/><ellipse cx="416" cy="50" fill="#A9DCDF" rx="11" ry="11" style="stroke:#181818;stroke-width:1;"/><path d="M416.1094,45.3438 L414.9531,50.4219 L417.2813,50.4219 L416.1094,45.3438 Z M414.625,43.1094 L417.6094,43.1094 L420.9688,55.5 L418.5156,55.5 L417.75,52.4375 L414.4688,52.4375 L413.7188,55.5 L411.2813,55.5 L414.625,43.1094 Z " fill="#000000"/><text fill="#000000" font-family="sans-serif" font-size="14" font-style="italic" lengthAdjust="spacing" textLength="107.7156" x="430" y="55.432">AbstractUserView</text><line style="stroke:#181818;stroke-width:0.5;" x1="402" x2="539.7156" y1="66" y2="66"/><line style="stroke:#181818;stroke-width:0.5;" x1="402" x2="539.7156" y1="74" y2="74"/></a></g><g class="link" data-entity-1="AbstractActorView" data-entity-2="AbstractPersonView" data-uid="lnk9" id="link_AbstractActorView_AbstractPersonView"><polygon fill="none" points="256.6096,195.013,251.5069,213.2876,263.4922,212.6943,256.6096,195.013" style="stroke:#181818;stroke-width:1;"/><path d="M257.4996,212.991 C258.0648,224.409 257.8099,219.2603 258.3763,230.7017" fill="none" style="stroke:#181818;stroke-width:1;"/></g><g class="link" data-entity-1="AbstractUserView" data-entity-2="AbstractRankingView" data-uid="lnk10" id="link_AbstractUserView_AbstractRankingView"><polygon fill="none" points="533.8556,82.0319,548.6923,93.8586,552.821,82.5912,533.8556,82.0319" style="stroke:#181818;stroke-width:1;"/><path d="M550.7567,88.2249 C587.789,101.7945 618.3284,112.9849 659.1409,127.9397" fill="none" style="stroke:#181818;stroke-width:1;"/></g><g class="link" data-entity-1="AbstractActorView" data-entity-2="AbstractGroupView" data-uid="lnk11" id="link_AbstractActorView_AbstractGroupView"><polygon fill="none" points="414.9896,195.013,431.4342,204.4775,433.824,192.7178,414.9896,195.013" style="stroke:#181818;stroke-width:1;"/><path d="M432.6291,198.5977 C489.2407,210.1022 535.2625,219.4548 591.8845,230.9614" fill="none" style="stroke:#181818;stroke-width:1;"/></g><g class="link" data-entity-1="AbstractUserView" data-entity-2="AbstractActorView" data-uid="lnk12" id="link_AbstractUserView_AbstractActorView"><polygon fill="none" points="421.9863,82.0319,403.1435,84.2569,408.247,95.1175,421.9863,82.0319" style="stroke:#181818;stroke-width:1;"/><path d="M405.6952,89.6872 C376.818,103.2568 356.1158,112.9849 324.2908,127.9397" fill="none" style="stroke:#181818;stroke-width:1;"/></g><g class="footer" data-source-line="46"><text fill="#888888" font-family="sans-serif" font-size="10" lengthAdjust="spacing" textLength="2.6" x="493.2" y="318.69">&#160;</text><a href="https://github.com/talsma-ict/umldoclet" target="_top" title="https://github.com/talsma-ict/umldoclet" xlink:actuate="onRequest" xlink:href="https://github.com/talsma-ict/umldoclet" xlink:show="new" xlink:title="https://github.com/talsma-ict/umldoclet" xlink:type="simple"><text fill="#888888" font-family="sans-serif" font-size="10" lengthAdjust="spacing" textLength="76.7199" x="456.14" y="332.31">UMLDoclet 2.2.4</text></a></g><!--SRC=[pPLlJzim4CRVyobkuiL0jCuVkWwY2gdgDjXK90HbRxg-S1EJM7LiptP0rSPttwKf8QHCQ0CaeafDdBl7l-VYqm40l8UHqal3qyo1K-0oRk7oT0nK9f0ooGnrB06UqvHPc3EXP6ghG0QqS9aoeAvMJx4oXbcjPC9b2j_eDGMh2XCpIxQsOBNLv4xzXjg6-dnPBdvIiM0ETaQx3QJG3_hTq0_xCA72vXI-ZYPahNQV4vAGz02r1O-Pj2XPo8IP5TPGqnZ_njMR3bmpOxcIcEElTKghiPAEScb1K-DiQUbCKEbAre3W_Xz8uCFEy6By4Cu_NC5rO6WaBH8uLp-BskyxRMYAo88kLU70vinHILUlB49RXdjHXmMCeYe1IHTOPuJ9IORtuJw9EIKtR4vuhWKfEA5QeqVgq06vvkp6ai8oGp0ZHq-_AftoedFh38qTn89Q2yFruncwL_8xPi9qkhb8CfUBsGo5e77jRGRkd58zk706FtK7pX3wL2LiX4Laqdt1I6MMHnse0dPhiTid-SwfN61A2x2n-ZZXzYEHhuLuR5IXMu3rsXC5hEDU2svOfhRWwhKduEguPy7TFkCiLyUOt7cp3TA_-Bt4qx-sIuY7lqh2goMyTkHc4MwRtF_RUr6q-Ga6lxlT5n2yxxf_9snNz5wrhjmBKJOwxwqMikw-jrp7sdLr7WVMBGKxgW_hbL8E9zl35ZvPQcR6N2v6Ik0ysJvu_ErbEHG5bmpdSBoG3Fl8RtN1m6lijzxhXvnEC-UqZJmlvIuhvYMqvrO3kSjZvnMvIAf9t9h9izbwnXxNmxwSbrs_rms2IT2BWezHU4XwVk0VzFVx1tj-6Fd-z7DXb6RUXLFn8bCYd_q1]--></g></svg>