<svg xmlns="http://www.w3.org/2000/svg" xmlns:xlink="http://www.w3.org/1999/xlink" contentStyleType="text/css" data-diagram-type="CLASS" height="293px" preserveAspectRatio="none" style="width:290px;height:293px;background:#FFFFFF;" version="1.1" viewBox="0 0 290 293" width="290px" zoomAndPan="magnify"><defs/><g><!--class com.hack23.cia.model.internal.application.data.impl.ViewElectionCycleEmbeddedId--><g class="entity" data-entity="com.hack23.cia.model.internal.application.data.impl.ViewElectionCycleEmbeddedId" data-source-line="13" data-uid="ent0002" id="entity_com.hack23.cia.model.internal.application.data.impl.ViewElectionCycleEmbeddedId"><a href="ViewElectionCycleEmbeddedId.html" target="_top" title="ViewElectionCycleEmbeddedId.html" xlink:actuate="onRequest" xlink:href="ViewElectionCycleEmbeddedId.html" xlink:show="new" xlink:title="ViewElectionCycleEmbeddedId.html" xlink:type="simple"><rect fill="#F1F1F1" height="173.0954" rx="2.5" ry="2.5" style="stroke:#181818;stroke-width:0.5;" width="277.1398" x="6" y="91"/><ellipse cx="21" cy="112.344" fill="#ADD1B2" rx="11" ry="11" style="stroke:#181818;stroke-width:1;"/><path d="M23.9688,117.9846 Q23.3906,118.2815 22.75,118.4221 Q22.1094,118.5783 21.4063,118.5783 Q18.9063,118.5783 17.5781,116.9377 Q16.2656,115.2815 16.2656,112.1565 Q16.2656,109.0315 17.5781,107.3752 Q18.9063,105.719 21.4063,105.719 Q22.1094,105.719 22.75,105.8752 Q23.4063,106.0315 23.9688,106.3283 L23.9688,109.0471 Q23.3438,108.469 22.75,108.2033 Q22.1563,107.9221 21.5313,107.9221 Q20.1875,107.9221 19.5,109.0002 Q18.8125,110.0627 18.8125,112.1565 Q18.8125,114.2502 19.5,115.3283 Q20.1875,116.3908 21.5313,116.3908 Q22.1563,116.3908 22.75,116.1252 Q23.3438,115.844 23.9688,115.2658 L23.9688,117.9846 Z " fill="#000000"/><text fill="#000000" font-family="sans-serif" font-size="14" lengthAdjust="spacing" textLength="201.3892" x="56.8753" y="110.9659">ViewElectionCycleEmbeddedId</text><text fill="#000000" font-family="sans-serif" font-size="10" lengthAdjust="spacing" textLength="245.1398" x="35" y="125.7579">com.hack23.cia.model.internal.application.data.impl</text><line style="stroke:#181818;stroke-width:0.5;" x1="7" x2="282.1398" y1="133.6879" y2="133.6879"/><polygon fill="none" points="17,143.7219,21,147.7219,17,151.7219,13,147.7219" style="stroke:#B38D22;stroke-width:1;"/><text fill="#000000" font-family="sans-serif" font-size="14" lengthAdjust="spacing" textLength="146.2714" x="26" y="152.6538">electionCycleId: String</text><polygon fill="none" points="17,162.7898,21,166.7898,17,170.7898,13,166.7898" style="stroke:#B38D22;stroke-width:1;"/><text fill="#000000" font-family="sans-serif" font-size="14" lengthAdjust="spacing" textLength="107.8136" x="26" y="171.7218">semester: String</text><line style="stroke:#181818;stroke-width:0.5;" x1="7" x2="282.1398" y1="179.8237" y2="179.8237"/><ellipse cx="17" cy="194.8577" fill="#84BE84" rx="3" ry="3" style="stroke:#038048;stroke-width:1;"/><text fill="#000000" font-family="sans-serif" font-size="14" lengthAdjust="spacing" textLength="176.1193" x="26" y="198.7897">getElectionCycleId(): String</text><ellipse cx="17" cy="213.9256" fill="#84BE84" rx="3" ry="3" style="stroke:#038048;stroke-width:1;"/><text fill="#000000" font-family="sans-serif" font-size="14" lengthAdjust="spacing" textLength="202.0192" x="26" y="217.8576">setElectionCycleId(String): void</text><ellipse cx="17" cy="232.9935" fill="#84BE84" rx="3" ry="3" style="stroke:#038048;stroke-width:1;"/><text fill="#000000" font-family="sans-serif" font-size="14" lengthAdjust="spacing" textLength="138.7535" x="26" y="236.9255">getSemester(): String</text><ellipse cx="17" cy="252.0614" fill="#84BE84" rx="3" ry="3" style="stroke:#038048;stroke-width:1;"/><text fill="#000000" font-family="sans-serif" font-size="14" lengthAdjust="spacing" textLength="164.6534" x="26" y="255.9934">setSemester(String): void</text></a></g><!--class com.hack23.cia.model.common.api.ModelObject--><g class="entity" data-entity="com.hack23.cia.model.common.api.ModelObject" data-source-line="22" data-uid="ent0003" id="entity_com.hack23.cia.model.common.api.ModelObject"><rect fill="#F1F1F1" height="42.6879" rx="2.5" ry="2.5" style="stroke:#181818;stroke-width:0.5;" width="189.3398" x="50" y="12"/><ellipse cx="65" cy="33.344" fill="#B4A7E5" rx="11" ry="11" style="stroke:#181818;stroke-width:1;"/><path d="M60.9219,29.1096 L60.9219,26.9533 L68.3125,26.9533 L68.3125,29.1096 L65.8438,29.1096 L65.8438,37.1877 L68.3125,37.1877 L68.3125,39.344 L60.9219,39.344 L60.9219,37.1877 L63.3906,37.1877 L63.3906,29.1096 L60.9219,29.1096 Z " fill="#000000"/><text fill="#000000" font-family="sans-serif" font-size="14" font-style="italic" lengthAdjust="spacing" textLength="78.1477" x="118.596" y="31.9659">ModelObject</text><text fill="#000000" font-family="sans-serif" font-size="10" font-style="italic" lengthAdjust="spacing" textLength="157.3398" x="79" y="46.7579">com.hack23.cia.model.common.api</text></g><g class="link" data-entity-1="com.hack23.cia.model.common.api.ModelObject" data-entity-2="com.hack23.cia.model.internal.application.data.impl.ViewElectionCycleEmbeddedId" data-uid="lnk4" id="link_com.hack23.cia.model.common.api.ModelObject_com.hack23.cia.model.internal.application.data.impl.ViewElectionCycleEmbeddedId"><polygon fill="none" points="144.5,55.148,138.5,73.148,150.5,73.148,144.5,55.148" style="stroke:#181818;stroke-width:1;"/><path d="M144.5,73.148 C144.5,82.9939 144.5,77.5013 144.5,90.7241" fill="none" style="stroke:#181818;stroke-width:1;stroke-dasharray:7,7;"/></g><g class="footer" data-source-line="32"><text fill="#888888" font-family="sans-serif" font-size="10" lengthAdjust="spacing" textLength="2.6" x="139.7" y="268.69">&#160;</text><a href="https://github.com/talsma-ict/umldoclet" target="_top" title="https://github.com/talsma-ict/umldoclet" xlink:actuate="onRequest" xlink:href="https://github.com/talsma-ict/umldoclet" xlink:show="new" xlink:title="https://github.com/talsma-ict/umldoclet" xlink:type="simple"><text fill="#888888" font-family="sans-serif" font-size="10" lengthAdjust="spacing" textLength="76.7199" x="102.64" y="282.31">UMLDoclet 2.2.4</text></a></g><!--SRC=[hLHDRnCn4BttLmpjWLPjdDqa3H1LbQeGqQ9K899oINDmxCckYTTUrjvM2_I_C_j1cZQq8CHUeimyltdpnXu0W9Smj6cHgIZsu2tuM3cukXm3Dn8YD9XnZn9KmYDqi41jJUHg80BFVMmpiClgdx1PXYwrHYeJmNj-my7PF1FesCuELAMclzXlkTjWNnHbyAqL6Zti3mys97M2iD_g19q-JBbs2OUBuPGrRFTdEgp3Ua3SMWaqZYXp8p6hP9sbND3FkCuSmGrcJbb3PuA6fsnLMEEvCWvIddbNjlHHS-DBhI6Z-iSi363_R39-A2vuKuaxWhFCy5p29_irN_Vx8iruH98rBspkmINekU5rpf5gmnFoYmkS85Nbdgmqrc2LZvL4m2Jr1ImLQkaUHuaijXIkua9pvs3tnAblE0XxfvyLteuq2a-D3WkoQ9GiK4gK5_BQDAZWLDY4nLoiEbqc56U9bQYPCXwf5yrucfARlAHWadlEL9BgNQ31_SCvzemYcCsUoRBO9te-X-zLe-MtXvl82pc0YS_eojq379An96ShSnYX7pqylN-mZNBRg1f2s1khv0E-ILFi2Q9rUflXhXvUvToIhi7602zBJpyilf28FmsCWWbPpLFrz73kCMo3kRaxVty0Jdumzh_7NwiuSRxGUBgsRcaj4MvClVpEYnIpiJAheTNqMFPU_pvxLRvzhGpIkX4hW_GqWZNohYxNtgZNrBesirdiVUe6xNQaV9mlIXlQljexBILyEq-qh1VEezKpdpUhvDrwfvLheHNqMc4u3Nk3RcyGXgmRzFklkhtkyM7G6GJ1R9HdDiNsn5knYgrEvZy1]--></g></svg>