<svg xmlns="http://www.w3.org/2000/svg" xmlns:xlink="http://www.w3.org/1999/xlink" contentStyleType="text/css" data-diagram-type="CLASS" height="484px" preserveAspectRatio="none" style="width:975px;height:484px;background:#FFFFFF;" version="1.1" viewBox="0 0 975 484" width="975px" zoomAndPan="magnify"><defs/><g><!--class com.hack23.cia.model.internal.application.data.impl.ViewApplicationActionEventPageElementAnnualSummary--><g class="entity" data-entity="com.hack23.cia.model.internal.application.data.impl.ViewApplicationActionEventPageElementAnnualSummary" data-source-line="13" data-uid="ent0002" id="entity_com.hack23.cia.model.internal.application.data.impl.ViewApplicationActionEventPageElementAnnualSummary"><a href="ViewApplicationActionEventPageElementAnnualSummary.html" target="_top" title="ViewApplicationActionEventPageElementAnnualSummary.html" xlink:actuate="onRequest" xlink:href="ViewApplicationActionEventPageElementAnnualSummary.html" xlink:show="new" xlink:title="ViewApplicationActionEventPageElementAnnualSummary.html" xlink:type="simple"><rect fill="#F1F1F1" height="363.7746" rx="2.5" ry="2.5" style="stroke:#181818;stroke-width:0.5;" width="962.7789" x="6" y="91"/><ellipse cx="293.5941" cy="112.344" fill="#ADD1B2" rx="11" ry="11" style="stroke:#181818;stroke-width:1;"/><path d="M296.5629,117.9846 Q295.9848,118.2815 295.3441,118.4221 Q294.7035,118.5783 294.0004,118.5783 Q291.5004,118.5783 290.1723,116.9377 Q288.8598,115.2815 288.8598,112.1565 Q288.8598,109.0315 290.1723,107.3752 Q291.5004,105.719 294.0004,105.719 Q294.7035,105.719 295.3441,105.8752 Q296.0004,106.0315 296.5629,106.3283 L296.5629,109.0471 Q295.9379,108.469 295.3441,108.2033 Q294.7504,107.9221 294.1254,107.9221 Q292.7816,107.9221 292.0941,109.0002 Q291.4066,110.0627 291.4066,112.1565 Q291.4066,114.2502 292.0941,115.3283 Q292.7816,116.3908 294.1254,116.3908 Q294.7504,116.3908 295.3441,116.1252 Q295.9379,115.844 296.5629,115.2658 L296.5629,117.9846 Z " fill="#000000"/><text fill="#000000" font-family="sans-serif" font-size="14" lengthAdjust="spacing" textLength="379.0906" x="314.0941" y="110.9659">ViewApplicationActionEventPageElementAnnualSummary</text><text fill="#000000" font-family="sans-serif" font-size="10" lengthAdjust="spacing" textLength="245.1398" x="381.0695" y="125.7579">com.hack23.cia.model.internal.application.data.impl</text><line style="stroke:#181818;stroke-width:0.5;" x1="7" x2="967.7789" y1="133.6879" y2="133.6879"/><polygon fill="none" points="17,143.7219,21,147.7219,17,151.7219,13,147.7219" style="stroke:#B38D22;stroke-width:1;"/><text fill="#000000" font-family="sans-serif" font-size="14" lengthAdjust="spacing" textLength="521.0781" x="26" y="152.6538">embeddedId: ApplicationActionEventPageElementPeriodSummaryEmbeddedId</text><polygon fill="none" points="17,162.7898,21,166.7898,17,170.7898,13,166.7898" style="stroke:#B38D22;stroke-width:1;"/><text fill="#000000" font-family="sans-serif" font-size="14" lengthAdjust="spacing" textLength="60.7598" x="26" y="171.7218">hits: long</text><polygon fill="none" points="17,181.8577,21,185.8577,17,189.8577,13,185.8577" style="stroke:#B38D22;stroke-width:1;"/><text fill="#000000" font-family="sans-serif" font-size="14" lengthAdjust="spacing" textLength="66.4997" x="26" y="190.7897">rank: long</text><polygon fill="none" points="17,200.9256,21,204.9256,17,208.9256,13,204.9256" style="stroke:#B38D22;stroke-width:1;"/><text fill="#000000" font-family="sans-serif" font-size="14" lengthAdjust="spacing" textLength="186.3113" x="26" y="209.8576">rankPercentage: BigDecimal</text><line style="stroke:#181818;stroke-width:0.5;" x1="7" x2="967.7789" y1="217.9596" y2="217.9596"/><ellipse cx="17" cy="232.9935" fill="#84BE84" rx="3" ry="3" style="stroke:#038048;stroke-width:1;"/><text fill="#000000" font-family="sans-serif" font-size="14" lengthAdjust="spacing" textLength="550.926" x="26" y="236.9255">getEmbeddedId(): ApplicationActionEventPageElementPeriodSummaryEmbeddedId</text><ellipse cx="17" cy="252.0614" fill="#84BE84" rx="3" ry="3" style="stroke:#038048;stroke-width:1;"/><text fill="#000000" font-family="sans-serif" font-size="14" lengthAdjust="spacing" textLength="576.8259" x="26" y="255.9934">setEmbeddedId(ApplicationActionEventPageElementPeriodSummaryEmbeddedId): void</text><ellipse cx="17" cy="271.1294" fill="#84BE84" rx="3" ry="3" style="stroke:#038048;stroke-width:1;"/><text fill="#000000" font-family="sans-serif" font-size="14" lengthAdjust="spacing" textLength="92.4417" x="26" y="275.0613">getHits(): long</text><ellipse cx="17" cy="290.1973" fill="#84BE84" rx="3" ry="3" style="stroke:#038048;stroke-width:1;"/><text fill="#000000" font-family="sans-serif" font-size="14" lengthAdjust="spacing" textLength="118.3416" x="26" y="294.1293">setHits(long): void</text><ellipse cx="17" cy="309.2652" fill="#84BE84" rx="3" ry="3" style="stroke:#038048;stroke-width:1;"/><text fill="#000000" font-family="sans-serif" font-size="14" lengthAdjust="spacing" textLength="99.3856" x="26" y="313.1972">getRank(): long</text><ellipse cx="17" cy="328.3331" fill="#84BE84" rx="3" ry="3" style="stroke:#038048;stroke-width:1;"/><text fill="#000000" font-family="sans-serif" font-size="14" lengthAdjust="spacing" textLength="125.2855" x="26" y="332.2651">setRank(long): void</text><ellipse cx="17" cy="347.401" fill="#84BE84" rx="3" ry="3" style="stroke:#038048;stroke-width:1;"/><text fill="#000000" font-family="sans-serif" font-size="14" lengthAdjust="spacing" textLength="219.1971" x="26" y="351.333">getRankPercentage(): BigDecimal</text><ellipse cx="17" cy="366.4689" fill="#84BE84" rx="3" ry="3" style="stroke:#038048;stroke-width:1;"/><text fill="#000000" font-family="sans-serif" font-size="14" lengthAdjust="spacing" textLength="245.097" x="26" y="370.4009">setRankPercentage(BigDecimal): void</text><ellipse cx="17" cy="385.5369" fill="#84BE84" rx="3" ry="3" style="stroke:#038048;stroke-width:1;"/><text fill="#000000" font-family="sans-serif" font-size="14" lengthAdjust="spacing" textLength="936.7789" x="26" y="389.4688">withEmbeddedId(ApplicationActionEventPageElementPeriodSummaryEmbeddedId): ViewApplicationActionEventPageElementAnnualSummary</text><ellipse cx="17" cy="404.6048" fill="#84BE84" rx="3" ry="3" style="stroke:#038048;stroke-width:1;"/><text fill="#000000" font-family="sans-serif" font-size="14" lengthAdjust="spacing" textLength="478.2942" x="26" y="408.5368">withHits(long): ViewApplicationActionEventPageElementAnnualSummary</text><ellipse cx="17" cy="423.6727" fill="#84BE84" rx="3" ry="3" style="stroke:#038048;stroke-width:1;"/><text fill="#000000" font-family="sans-serif" font-size="14" lengthAdjust="spacing" textLength="485.2382" x="26" y="427.6047">withRank(long): ViewApplicationActionEventPageElementAnnualSummary</text><ellipse cx="17" cy="442.7406" fill="#84BE84" rx="3" ry="3" style="stroke:#038048;stroke-width:1;"/><text fill="#000000" font-family="sans-serif" font-size="14" lengthAdjust="spacing" textLength="605.0499" x="26" y="446.6726">withRankPercentage(BigDecimal): ViewApplicationActionEventPageElementAnnualSummary</text></a></g><!--class com.hack23.cia.model.common.api.ModelObject--><g class="entity" data-entity="com.hack23.cia.model.common.api.ModelObject" data-source-line="32" data-uid="ent0003" id="entity_com.hack23.cia.model.common.api.ModelObject"><rect fill="#F1F1F1" height="42.6879" rx="2.5" ry="2.5" style="stroke:#181818;stroke-width:0.5;" width="189.3398" x="393" y="12"/><ellipse cx="408" cy="33.344" fill="#B4A7E5" rx="11" ry="11" style="stroke:#181818;stroke-width:1;"/><path d="M403.9219,29.1096 L403.9219,26.9533 L411.3125,26.9533 L411.3125,29.1096 L408.8438,29.1096 L408.8438,37.1877 L411.3125,37.1877 L411.3125,39.344 L403.9219,39.344 L403.9219,37.1877 L406.3906,37.1877 L406.3906,29.1096 L403.9219,29.1096 Z " fill="#000000"/><text fill="#000000" font-family="sans-serif" font-size="14" font-style="italic" lengthAdjust="spacing" textLength="78.1477" x="461.596" y="31.9659">ModelObject</text><text fill="#000000" font-family="sans-serif" font-size="10" font-style="italic" lengthAdjust="spacing" textLength="157.3398" x="422" y="46.7579">com.hack23.cia.model.common.api</text></g><g class="link" data-entity-1="com.hack23.cia.model.common.api.ModelObject" data-entity-2="com.hack23.cia.model.internal.application.data.impl.ViewApplicationActionEventPageElementAnnualSummary" data-uid="lnk4" id="link_com.hack23.cia.model.common.api.ModelObject_com.hack23.cia.model.internal.application.data.impl.ViewApplicationActionEventPageElementAnnualSummary"><polygon fill="none" points="487.5,55.1611,481.5,73.1611,493.5,73.1611,487.5,55.1611" style="stroke:#181818;stroke-width:1;"/><path d="M487.5,73.1611 C487.5,82.641 487.5,76.8469 487.5,90.6291" fill="none" style="stroke:#181818;stroke-width:1;stroke-dasharray:7,7;"/></g><g class="footer" data-source-line="42"><text fill="#888888" font-family="sans-serif" font-size="10" lengthAdjust="spacing" textLength="2.6" x="482.7" y="459.69">&#160;</text><a href="https://github.com/talsma-ict/umldoclet" target="_top" title="https://github.com/talsma-ict/umldoclet" xlink:actuate="onRequest" xlink:href="https://github.com/talsma-ict/umldoclet" xlink:show="new" xlink:title="https://github.com/talsma-ict/umldoclet" xlink:type="simple"><text fill="#888888" font-family="sans-serif" font-size="10" lengthAdjust="spacing" textLength="76.7199" x="445.64" y="473.31">UMLDoclet 2.2.4</text></a></g><!--SRC=[lLNVKzf047xthzZgGtMK8o2YCeup59bg1wUEO5-GX-Eo95SkTsdkWaDR__Tk0eMWMAjrcWT-x8zll_tkiWi0y1vQ9fucCWWTE0Ckb1PkBZl0jGy1QaouGnzan0EqC4HbT61dWGWyTQ59m8poVy8a2ThOQ5_g03xn2GThqaIWPHiRa9Vg_KQ_uxQ0FfncnZCZ53hORkqKA5MzIhrKzQfrw75b8muNhHwReorpggpAQa3OIWhKbY1JxMEIqsh6ND1NP-RPWmacLXfDETuS9sjL6Esur1PYdZYRjNIbk7OPrmgZ-WUiui5sizjP9USTv-Jse9bedlfmRRwbYtxVnGaFYBBYKvCwi14whldCPucrvX7fnGLsaQfoHr9gep7tXz97m2XsKnX9LBvzQ2Mmq90vjml5hOND4ok_OwDIE_qYyQuPnwG6TzHhKsIVxGbgTqNds5OOqS-crYbNtJIAU3AzrVDaxrIOY8LSZAlxJ4ZE8kEZOb8xf1OLuqjOvdF7cOnYjGbqdg_8Ooyd2lt-ovDOw28r6C2FNAtisS9eYBwF_eNVW6V1hZ2Hnf-3jHUPIxHGEjk0xELOsXAkn-ji14PNqH5w0px8u0m5lLrg4RCRe5kMsDvv0tgxTWNojNX4PMAalyBqd1hFEAwqcTNB7PbrNTOroR0sAtVyAMifNfQ_JZxxA70PzGZrJhhmRPHv-QLSPL7Kwr-nYYg-1TPJMhuI-tusjFBHCABnLnXSbzdG-3pyYi8zDv786D4iuR5yUleiOrW1UJup_pu1Jduozf_csupSYNLJXQUBenWPGtKAyojxpgSn9XsfnosZQ7Ti7QtttcIhK4cDj7t5M2Dj2cyHUJyhLoxKczUwrVr-w5ni6-LoG1SX7MRgb5s-XajIk78QAN-sVnziui5Wlba_BbPyjYLBNgrKgVGgjSP-hL6XjNfyK3yyFAeVxNhLXkVrssbYOYntdH7ZqAXey0i0]--></g></svg>