<svg xmlns="http://www.w3.org/2000/svg" xmlns:xlink="http://www.w3.org/1999/xlink" contentStyleType="text/css" data-diagram-type="CLASS" height="484px" preserveAspectRatio="none" style="width:976px;height:484px;background:#FFFFFF;" version="1.1" viewBox="0 0 976 484" width="976px" zoomAndPan="magnify"><defs/><g><!--class com.hack23.cia.model.internal.application.data.impl.ViewApplicationActionEventPageElementWeeklySummary--><g class="entity" data-entity="com.hack23.cia.model.internal.application.data.impl.ViewApplicationActionEventPageElementWeeklySummary" data-source-line="13" data-uid="ent0002" id="entity_com.hack23.cia.model.internal.application.data.impl.ViewApplicationActionEventPageElementWeeklySummary"><a href="ViewApplicationActionEventPageElementWeeklySummary.html" target="_top" title="ViewApplicationActionEventPageElementWeeklySummary.html" xlink:actuate="onRequest" xlink:href="ViewApplicationActionEventPageElementWeeklySummary.html" xlink:show="new" xlink:title="ViewApplicationActionEventPageElementWeeklySummary.html" xlink:type="simple"><rect fill="#F1F1F1" height="363.7746" rx="2.5" ry="2.5" style="stroke:#181818;stroke-width:0.5;" width="963.4507" x="6" y="91"/><ellipse cx="293.5941" cy="112.344" fill="#ADD1B2" rx="11" ry="11" style="stroke:#181818;stroke-width:1;"/><path d="M296.5629,117.9846 Q295.9847,118.2815 295.3441,118.4221 Q294.7035,118.5783 294.0004,118.5783 Q291.5004,118.5783 290.1722,116.9377 Q288.8597,115.2815 288.8597,112.1565 Q288.8597,109.0315 290.1722,107.3752 Q291.5004,105.719 294.0004,105.719 Q294.7035,105.719 295.3441,105.8752 Q296.0004,106.0315 296.5629,106.3283 L296.5629,109.0471 Q295.9379,108.469 295.3441,108.2033 Q294.7504,107.9221 294.1254,107.9221 Q292.7816,107.9221 292.0941,109.0002 Q291.4066,110.0627 291.4066,112.1565 Q291.4066,114.2502 292.0941,115.3283 Q292.7816,116.3908 294.1254,116.3908 Q294.7504,116.3908 295.3441,116.1252 Q295.9379,115.844 296.5629,115.2658 L296.5629,117.9846 Z " fill="#000000"/><text fill="#000000" font-family="sans-serif" font-size="14" lengthAdjust="spacing" textLength="379.7625" x="314.0941" y="110.9659">ViewApplicationActionEventPageElementWeeklySummary</text><text fill="#000000" font-family="sans-serif" font-size="10" lengthAdjust="spacing" textLength="245.1398" x="381.4054" y="125.7579">com.hack23.cia.model.internal.application.data.impl</text><line style="stroke:#181818;stroke-width:0.5;" x1="7" x2="968.4507" y1="133.6879" y2="133.6879"/><polygon fill="none" points="17,143.7219,21,147.7219,17,151.7219,13,147.7219" style="stroke:#B38D22;stroke-width:1;"/><text fill="#000000" font-family="sans-serif" font-size="14" lengthAdjust="spacing" textLength="521.0781" x="26" y="152.6538">embeddedId: ApplicationActionEventPageElementPeriodSummaryEmbeddedId</text><polygon fill="none" points="17,162.7898,21,166.7898,17,170.7898,13,166.7898" style="stroke:#B38D22;stroke-width:1;"/><text fill="#000000" font-family="sans-serif" font-size="14" lengthAdjust="spacing" textLength="60.7598" x="26" y="171.7218">hits: long</text><polygon fill="none" points="17,181.8577,21,185.8577,17,189.8577,13,185.8577" style="stroke:#B38D22;stroke-width:1;"/><text fill="#000000" font-family="sans-serif" font-size="14" lengthAdjust="spacing" textLength="66.4997" x="26" y="190.7897">rank: long</text><polygon fill="none" points="17,200.9256,21,204.9256,17,208.9256,13,204.9256" style="stroke:#B38D22;stroke-width:1;"/><text fill="#000000" font-family="sans-serif" font-size="14" lengthAdjust="spacing" textLength="186.3113" x="26" y="209.8576">rankPercentage: BigDecimal</text><line style="stroke:#181818;stroke-width:0.5;" x1="7" x2="968.4507" y1="217.9596" y2="217.9596"/><ellipse cx="17" cy="232.9935" fill="#84BE84" rx="3" ry="3" style="stroke:#038048;stroke-width:1;"/><text fill="#000000" font-family="sans-serif" font-size="14" lengthAdjust="spacing" textLength="550.926" x="26" y="236.9255">getEmbeddedId(): ApplicationActionEventPageElementPeriodSummaryEmbeddedId</text><ellipse cx="17" cy="252.0614" fill="#84BE84" rx="3" ry="3" style="stroke:#038048;stroke-width:1;"/><text fill="#000000" font-family="sans-serif" font-size="14" lengthAdjust="spacing" textLength="576.8259" x="26" y="255.9934">setEmbeddedId(ApplicationActionEventPageElementPeriodSummaryEmbeddedId): void</text><ellipse cx="17" cy="271.1294" fill="#84BE84" rx="3" ry="3" style="stroke:#038048;stroke-width:1;"/><text fill="#000000" font-family="sans-serif" font-size="14" lengthAdjust="spacing" textLength="92.4417" x="26" y="275.0613">getHits(): long</text><ellipse cx="17" cy="290.1973" fill="#84BE84" rx="3" ry="3" style="stroke:#038048;stroke-width:1;"/><text fill="#000000" font-family="sans-serif" font-size="14" lengthAdjust="spacing" textLength="118.3416" x="26" y="294.1293">setHits(long): void</text><ellipse cx="17" cy="309.2652" fill="#84BE84" rx="3" ry="3" style="stroke:#038048;stroke-width:1;"/><text fill="#000000" font-family="sans-serif" font-size="14" lengthAdjust="spacing" textLength="99.3856" x="26" y="313.1972">getRank(): long</text><ellipse cx="17" cy="328.3331" fill="#84BE84" rx="3" ry="3" style="stroke:#038048;stroke-width:1;"/><text fill="#000000" font-family="sans-serif" font-size="14" lengthAdjust="spacing" textLength="125.2855" x="26" y="332.2651">setRank(long): void</text><ellipse cx="17" cy="347.401" fill="#84BE84" rx="3" ry="3" style="stroke:#038048;stroke-width:1;"/><text fill="#000000" font-family="sans-serif" font-size="14" lengthAdjust="spacing" textLength="219.1971" x="26" y="351.333">getRankPercentage(): BigDecimal</text><ellipse cx="17" cy="366.4689" fill="#84BE84" rx="3" ry="3" style="stroke:#038048;stroke-width:1;"/><text fill="#000000" font-family="sans-serif" font-size="14" lengthAdjust="spacing" textLength="245.097" x="26" y="370.4009">setRankPercentage(BigDecimal): void</text><ellipse cx="17" cy="385.5369" fill="#84BE84" rx="3" ry="3" style="stroke:#038048;stroke-width:1;"/><text fill="#000000" font-family="sans-serif" font-size="14" lengthAdjust="spacing" textLength="937.4507" x="26" y="389.4688">withEmbeddedId(ApplicationActionEventPageElementPeriodSummaryEmbeddedId): ViewApplicationActionEventPageElementWeeklySummary</text><ellipse cx="17" cy="404.6048" fill="#84BE84" rx="3" ry="3" style="stroke:#038048;stroke-width:1;"/><text fill="#000000" font-family="sans-serif" font-size="14" lengthAdjust="spacing" textLength="478.9661" x="26" y="408.5368">withHits(long): ViewApplicationActionEventPageElementWeeklySummary</text><ellipse cx="17" cy="423.6727" fill="#84BE84" rx="3" ry="3" style="stroke:#038048;stroke-width:1;"/><text fill="#000000" font-family="sans-serif" font-size="14" lengthAdjust="spacing" textLength="485.9101" x="26" y="427.6047">withRank(long): ViewApplicationActionEventPageElementWeeklySummary</text><ellipse cx="17" cy="442.7406" fill="#84BE84" rx="3" ry="3" style="stroke:#038048;stroke-width:1;"/><text fill="#000000" font-family="sans-serif" font-size="14" lengthAdjust="spacing" textLength="605.7217" x="26" y="446.6726">withRankPercentage(BigDecimal): ViewApplicationActionEventPageElementWeeklySummary</text></a></g><!--class com.hack23.cia.model.common.api.ModelObject--><g class="entity" data-entity="com.hack23.cia.model.common.api.ModelObject" data-source-line="32" data-uid="ent0003" id="entity_com.hack23.cia.model.common.api.ModelObject"><rect fill="#F1F1F1" height="42.6879" rx="2.5" ry="2.5" style="stroke:#181818;stroke-width:0.5;" width="189.3398" x="393" y="12"/><ellipse cx="408" cy="33.344" fill="#B4A7E5" rx="11" ry="11" style="stroke:#181818;stroke-width:1;"/><path d="M403.9219,29.1096 L403.9219,26.9533 L411.3125,26.9533 L411.3125,29.1096 L408.8438,29.1096 L408.8438,37.1877 L411.3125,37.1877 L411.3125,39.344 L403.9219,39.344 L403.9219,37.1877 L406.3906,37.1877 L406.3906,29.1096 L403.9219,29.1096 Z " fill="#000000"/><text fill="#000000" font-family="sans-serif" font-size="14" font-style="italic" lengthAdjust="spacing" textLength="78.1477" x="461.596" y="31.9659">ModelObject</text><text fill="#000000" font-family="sans-serif" font-size="10" font-style="italic" lengthAdjust="spacing" textLength="157.3398" x="422" y="46.7579">com.hack23.cia.model.common.api</text></g><g class="link" data-entity-1="com.hack23.cia.model.common.api.ModelObject" data-entity-2="com.hack23.cia.model.internal.application.data.impl.ViewApplicationActionEventPageElementWeeklySummary" data-uid="lnk4" id="link_com.hack23.cia.model.common.api.ModelObject_com.hack23.cia.model.internal.application.data.impl.ViewApplicationActionEventPageElementWeeklySummary"><polygon fill="none" points="487.5,55.1611,481.5,73.1611,493.5,73.1611,487.5,55.1611" style="stroke:#181818;stroke-width:1;"/><path d="M487.5,73.1611 C487.5,82.641 487.5,76.8469 487.5,90.6291" fill="none" style="stroke:#181818;stroke-width:1;stroke-dasharray:7,7;"/></g><g class="footer" data-source-line="42"><text fill="#888888" font-family="sans-serif" font-size="10" lengthAdjust="spacing" textLength="2.6" x="482.7" y="459.69">&#160;</text><a href="https://github.com/talsma-ict/umldoclet" target="_top" title="https://github.com/talsma-ict/umldoclet" xlink:actuate="onRequest" xlink:href="https://github.com/talsma-ict/umldoclet" xlink:show="new" xlink:title="https://github.com/talsma-ict/umldoclet" xlink:type="simple"><text fill="#888888" font-family="sans-serif" font-size="10" lengthAdjust="spacing" textLength="76.7199" x="445.64" y="473.31">UMLDoclet 2.2.4</text></a></g><!--SRC=[lLNRJXin47tlLqpXeI28uuI08498QOWALL0H2Ur3o8FZdUowyThRjJSeRVdtpcxIN22KGb7t8PUvd3bpx9q107W7JPjCKXL67hm57oa7rnTj42Q040scmcC0AXOXEXYWjYPqqq04aVd8fc27nJzfqnHTOasWJ0WVnLY0iragqR4tRw0erVsDVYlS4lfWaXjFhTJeOQkvlKIfoYi7fIgl7a1NQ1SBE6zssGnjaLDbLLO3mjPAed44cPa0qu9M8n6IljfJpowCCNNA6ihXCvoyLMcD5yeuI4JgNTxIfHR6vrmhZEhlimg7hKQdlKgE7nNaTg6H6f45S6M_PVD-toQf28co5XERUN0nUc74rEU8jH4nwIKaTf2g2azI6ckmy4SgGC0uyHCOAjI1ksybiCYIkR1BBPo3ZMEdlcEzKZlvhF2saIIaXl3KQqFcdwqn6dz9vzZI6DFFBuWZFUbaSIpIoOsP9VCJQMCM2JcgxZ6f18jjW9efuv5Qr4miO5aWl60gJlG6q7c-88yzdoZqUizFOf6FTRyFFmgrycSJum460GRdGHsU1Bl4LDbW1jQQPoxG8kLT7VANOs5BXHcjin4ONKLFw7Luhy9JbFHswNdCJeX-KM9h-nNexRWLo9VY4PMnLS4AqpDgFEUuqcPUht3ardLPLoJ3sgp2yQUiXNXv_Zhvt8F0HTG3r5lbezTHvlcNSfN5ibx_YhMiucjWFQRb2x7lfaEh60r36dzBW-iY7ngV1bzH-gSc4XbZcYKYKOzFdqKCMqAUpSo_Ju3Zdupzf_as9NVi_4JZoVmeXjPIdQNvbJzdamJJjZAZfjMqEpOFrtklyrMebK7Qld9aa3O5dqVUJSkLb-hDQjsONY_oFd7rSZcaYv0DSdNAlbZ39ILzEOjrCDs_zpPnlp_Rh1_cApxVaYLUBV6ZBj-lysgzTiZszlX1vP3psWwlr3dljRBK9bZkU2j7aTLn_nS0]--></g></svg>