<svg xmlns="http://www.w3.org/2000/svg" xmlns:xlink="http://www.w3.org/1999/xlink" contentStyleType="text/css" height="274px" preserveAspectRatio="none" style="width:571px;height:274px;background:#FFFFFF;" version="1.1" viewBox="0 0 571 274" width="571px" zoomAndPan="magnify"><defs/><g><!--class com.hack23.cia.service.impl.action.application.LoginService--><a href="LoginService.html" target="_top" title="LoginService.html" xlink:actuate="onRequest" xlink:href="LoginService.html" xlink:show="new" xlink:title="LoginService.html" xlink:type="simple"><g id="elem_com.hack23.cia.service.impl.action.application.LoginService"><rect codeLine="13" fill="#F1F1F1" height="107.8917" id="com.hack23.cia.service.impl.action.application.LoginService" rx="2.5" ry="2.5" style="stroke:#181818;stroke-width:0.5;" width="558.7681" x="6" y="137"/><ellipse cx="172.7891" cy="158.344" fill="#ADD1B2" rx="11" ry="11" style="stroke:#181818;stroke-width:1.0;"/><path d="M175.7578,163.9846 Q175.1797,164.2815 174.5391,164.4221 Q173.8985,164.5783 173.1953,164.5783 Q170.6953,164.5783 169.3672,162.9377 Q168.0547,161.2815 168.0547,158.1565 Q168.0547,155.0315 169.3672,153.3752 Q170.6953,151.719 173.1953,151.719 Q173.8985,151.719 174.5391,151.8752 Q175.1953,152.0315 175.7578,152.3283 L175.7578,155.0471 Q175.1328,154.469 174.5391,154.2033 Q173.9453,153.9221 173.3203,153.9221 Q171.9766,153.9221 171.2891,155.0002 Q170.6016,156.0627 170.6016,158.1565 Q170.6016,160.2502 171.2891,161.3283 Q171.9766,162.3908 173.3203,162.3908 Q173.9453,162.3908 174.5391,162.1252 Q175.1328,161.844 175.7578,161.2658 L175.7578,163.9846 Z " fill="#000000"/><text fill="#000000" font-family="sans-serif" font-size="14" lengthAdjust="spacing" textLength="83.3837" x="259.9422" y="156.9659">LoginService</text><text fill="#000000" font-family="sans-serif" font-size="10" lengthAdjust="spacing" textLength="216.6899" x="193.2891" y="171.7579">com.hack23.cia.service.impl.action.application</text><line style="stroke:#181818;stroke-width:0.5;" x1="7" x2="563.7681" y1="179.6879" y2="179.6879"/><ellipse cx="17" cy="194.7219" fill="#84BE84" rx="3" ry="3" style="stroke:#038048;stroke-width:1.0;"/><text fill="#000000" font-family="sans-serif" font-size="14" lengthAdjust="spacing" textLength="303.9109" x="26" y="198.6538">processService(LoginRequest): LoginResponse</text><polygon fill="#FFFF44" points="17,208.7898,21,212.7898,17,216.7898,13,212.7898" style="stroke:#B38D22;stroke-width:1.0;"/><text fill="#000000" font-family="sans-serif" font-size="14" lengthAdjust="spacing" textLength="532.7681" x="26" y="217.7218">createApplicationEventForService(LoginRequest): CreateApplicationEventRequest</text><polygon fill="#FFFF44" points="17,227.8577,21,231.8577,17,235.8577,13,231.8577" style="stroke:#B38D22;stroke-width:1.0;"/><text fill="#000000" font-family="sans-serif" font-size="14" lengthAdjust="spacing" textLength="254.561" x="26" y="236.7897">createErrorResponse(): LoginResponse</text></g></a><!--class com.hack23.cia.service.impl.action.common.AbstractBusinessServiceImpl--><a href="../common/AbstractBusinessServiceImpl.html" target="_top" title="../common/AbstractBusinessServiceImpl.html" xlink:actuate="onRequest" xlink:href="../common/AbstractBusinessServiceImpl.html" xlink:show="new" xlink:title="../common/AbstractBusinessServiceImpl.html" xlink:type="simple"><g id="elem_com.hack23.cia.service.impl.action.common.AbstractBusinessServiceImpl"><rect codeLine="19" fill="#F1F1F1" height="88.8237" id="com.hack23.cia.service.impl.action.common.AbstractBusinessServiceImpl" rx="2.5" ry="2.5" style="stroke:#181818;stroke-width:0.5;" width="522.27" x="24.5" y="12"/><ellipse cx="103.2106" cy="33.344" fill="#A9DCDF" rx="11" ry="11" style="stroke:#181818;stroke-width:1.0;"/><path d="M103.32,28.6877 L102.1637,33.7658 L104.4918,33.7658 L103.32,28.6877 Z M101.8356,26.4533 L104.82,26.4533 L108.1793,38.844 L105.7262,38.844 L104.9606,35.7815 L101.6793,35.7815 L100.9293,38.844 L98.4918,38.844 L101.8356,26.4533 Z " fill="#000000"/><text fill="#000000" font-family="sans-serif" font-size="14" font-style="italic" lengthAdjust="spacing" textLength="176.1473" x="133.3368" y="31.9659">AbstractBusinessServiceImpl</text><text fill="#000000" font-family="sans-serif" font-size="10" font-style="italic" lengthAdjust="spacing" textLength="195.3998" x="123.7106" y="46.7579">com.hack23.cia.service.impl.action.common</text><rect fill="#FFFFFF" height="18.3441" style="stroke:#181818;stroke-width:1.0;stroke-dasharray:2.0,2.0;" width="158.949" x="390.821" y="9"/><text fill="#000000" font-family="sans-serif" font-size="12" font-style="italic" lengthAdjust="spacing" textLength="156.949" x="391.821" y="22.8281">LoginRequest, LoginResponse</text><line style="stroke:#181818;stroke-width:0.5;" x1="25.5" x2="545.77" y1="54.6879" y2="54.6879"/><polygon fill="#FFFF44" points="35.5,64.7219,39.5,68.7219,35.5,72.7219,31.5,68.7219" style="stroke:#B38D22;stroke-width:1.0;"/><text fill="#000000" font-family="sans-serif" font-size="14" font-style="italic" lengthAdjust="spacing" textLength="236.3891" x="44.5" y="73.6538">createErrorResponse(): LoginResponse</text><polygon fill="#FFFF44" points="35.5,83.7898,39.5,87.7898,35.5,91.7898,31.5,87.7898" style="stroke:#B38D22;stroke-width:1.0;"/><text fill="#000000" font-family="sans-serif" font-size="14" font-style="italic" lengthAdjust="spacing" textLength="496.27" x="44.5" y="92.7218">createApplicationEventForService(LoginRequest): CreateApplicationEventRequest</text></g></a><polygon fill="none" points="285.5,101.2527,279.5,119.2527,291.5,119.2527,285.5,101.2527" style="stroke:#181818;stroke-width:1.0;"/><path d="M285.5,119.2527 C285.5,130.5596 285.5,124.8586 285.5,136.5979 " fill="none" style="stroke:#181818;stroke-width:1.0;"/><text fill="#888888" font-family="sans-serif" font-size="10" lengthAdjust="spacing" textLength="2.6" x="280.7" y="249.69">&#160;</text><a href="https://github.com/talsma-ict/umldoclet" target="_top" title="https://github.com/talsma-ict/umldoclet" xlink:actuate="onRequest" xlink:href="https://github.com/talsma-ict/umldoclet" xlink:show="new" xlink:title="https://github.com/talsma-ict/umldoclet" xlink:type="simple"><text fill="#888888" font-family="sans-serif" font-size="10" lengthAdjust="spacing" textLength="76.7199" x="243.64" y="263.31">UMLDoclet 2.2.1</text></a><!--SRC=[hLJRJXin47tdAwRmq20IxuMqX2YAbAQqfKgbYeIda0V7E-nQyTfRsvigfVnxlPTSW1GLbNtPzLpEd3dZ7G20jp1KsKhpEB5W5TY46xZ-DW8g8uXHegOM8-0fZT7078MIiQa24MXk4wL1tPOdfhH6aoaPSHd3LxgaO5Ik6HfoS01bgSaQ_ISrE-ZpLM7yg9X02utXyGwbq0_Ujq8_RCE42fDIk1nEI8sspGb9I09ms88pbCP1vZ92NT8QP9IvrwZoD669sd0bNOvVunIjCYKjvT90HhKrHKlV1PMsu1gGeZuvWyPWF7h8pJylkJLXe2ND8xXIF_9DksyoJMF7MD2LoYsO52sLjF8PHrhIrCb56OxH5QNMAIcLnDAVy0W1qyoku9QZYCnZgmDBb3ENTYQeCN3OC_mNTeDsVwHYBiUebwxd6rcR_JvJAKaeMuIdX75AJ1L0U9e9GfbreX2QPKv2MdmVWflHorB8Rc6OJdUF9B6fcCtWhcHSF2UPLkvoc3gWKKPVOQ6WFUv2VImkbC5DqX7JwExCO5lqOedIVbBwBp33lV6r_p7iXTPAhsiszfAuhoIdSsErK-29zeFQyI4tN6wxktIAlMmKBYJzzobKqUIPwhrTOPeFE-kxOH7YLI3UCo1FftYtLkB-1IBkJtpDeTPZUXNbeFUxrVgVNw7YqZDs9R2_4U1MAUjsr5RAulcoob2Fk5mCbN0BuQYpttjTh3VXYBgDoXO5N_0taVTLEM-dNbthHawdYRMPwNfUp6sIpulsFLkkrXPdrijJ4LKxzT5sdStgRVbvixQBrTSAmbOOJe9EDmowfpvfdmNlpZkTjd_Y1rtVdrxaMcNeZQrYYqI9TFO7]--></g></svg>