<?xml version="1.0" encoding="UTF-8" standalone="no"?><svg xmlns="http://www.w3.org/2000/svg" xmlns:xlink="http://www.w3.org/1999/xlink" contentScriptType="application/ecmascript" contentStyleType="text/css" height="218px" preserveAspectRatio="none" style="width:361px;height:218px;background:#FFFFFF;" version="1.1" viewBox="0 0 361 218" width="361px" zoomAndPan="magnify"><defs><filter height="300%" id="ft6zl1ak1bje1" width="300%" x="-1" y="-1"><feGaussianBlur result="blurOut" stdDeviation="2.0"/><feColorMatrix in="blurOut" result="blurOut2" type="matrix" values="0 0 0 0 0 0 0 0 0 0 0 0 0 0 0 0 0 0 .4 0"/><feOffset dx="4.0" dy="4.0" in="blurOut2" result="blurOut3"/><feBlend in="SourceGraphic" in2="blurOut3" mode="normal"/></filter></defs><g><!--MD5=[79fcab2a0f0069b7ae27475aeff82a8e]
class com.hack23.cia.web.impl.ui.application.web.listener.AuthorizationFailureEventListener--><a href="AuthorizationFailureEventListener.html" target="_top" title="AuthorizationFailureEventListener.html" xlink:actuate="onRequest" xlink:href="AuthorizationFailureEventListener.html" xlink:show="new" xlink:title="AuthorizationFailureEventListener.html" xlink:type="simple"><rect codeLine="5" fill="#FEFECE" filter="url(#ft6zl1ak1bje1)" height="58.7422" id="com.hack23.cia.web.impl.ui.application.web.listener.AuthorizationFailureEventListener" style="stroke:#A80036;stroke-width:1.5;" width="313" x="20.5" y="129"/><ellipse cx="51.25" cy="147.9688" fill="#ADD1B2" rx="11" ry="11" style="stroke:#A80036;stroke-width:1.0;"/><path d="M54.2188,153.6094 Q53.6406,153.9063 53,154.0469 Q52.3594,154.2031 51.6563,154.2031 Q49.1563,154.2031 47.8281,152.5625 Q46.5156,150.9063 46.5156,147.7813 Q46.5156,144.6563 47.8281,143 Q49.1563,141.3438 51.6563,141.3438 Q52.3594,141.3438 53,141.5 Q53.6563,141.6563 54.2188,141.9531 L54.2188,144.6719 Q53.5938,144.0938 53,143.8281 Q52.4063,143.5469 51.7813,143.5469 Q50.4375,143.5469 49.75,144.625 Q49.0625,145.6875 49.0625,147.7813 Q49.0625,149.875 49.75,150.9531 Q50.4375,152.0156 51.7813,152.0156 Q52.4063,152.0156 53,151.75 Q53.5938,151.4688 54.2188,150.8906 L54.2188,153.6094 Z " fill="#000000"/><text fill="#000000" font-family="sans-serif" font-size="14" lengthAdjust="spacing" textLength="230" x="76.75" y="146.9951">AuthorizationFailureEventListener</text><text fill="#000000" font-family="sans-serif" font-size="10" lengthAdjust="spacing" textLength="246" x="68.75" y="159.5791">com.hack23.cia.web.impl.ui.application.web.listener</text><line style="stroke:#A80036;stroke-width:1.5;" x1="21.5" x2="332.5" y1="166.9375" y2="166.9375"/><ellipse cx="31.5" cy="177.9375" fill="#84BE84" rx="3" ry="3" style="stroke:#038048;stroke-width:1.0;"/><text fill="#000000" font-family="sans-serif" font-size="11" lengthAdjust="spacing" textLength="287" x="40.5" y="181.1479">onApplicationEvent(AuthorizationFailureEvent): void</text></a><!--MD5=[c0fb8348a6dea4e4beae186b0fa320dc]
class org.springframework.context.ApplicationListener--><rect codeLine="9" fill="#FEFECE" filter="url(#ft6zl1ak1bje1)" height="58.7422" id="org.springframework.context.ApplicationListener" style="stroke:#A80036;stroke-width:1.5;" width="340" x="7" y="10"/><ellipse cx="22" cy="28.9688" fill="#B4A7E5" rx="11" ry="11" style="stroke:#A80036;stroke-width:1.0;"/><path d="M17.9219,24.7344 L17.9219,22.5781 L25.3125,22.5781 L25.3125,24.7344 L22.8438,24.7344 L22.8438,32.8125 L25.3125,32.8125 L25.3125,34.9688 L17.9219,34.9688 L17.9219,32.8125 L20.3906,32.8125 L20.3906,24.7344 L17.9219,24.7344 Z " fill="#000000"/><text fill="#000000" font-family="sans-serif" font-size="14" font-style="italic" lengthAdjust="spacing" textLength="131" x="42.5" y="27.9951">ApplicationListener</text><text fill="#000000" font-family="sans-serif" font-size="10" font-style="italic" lengthAdjust="spacing" textLength="144" x="36" y="40.5791">org.springframework.context</text><rect fill="#FFFFFF" height="15.9688" style="stroke:#000000;stroke-width:1.0;stroke-dasharray:2.0,2.0;" width="162" x="188" y="7"/><text fill="#000000" font-family="sans-serif" font-size="12" font-style="italic" lengthAdjust="spacing" textLength="160" x="189" y="19.1387">AuthorizationFailureEvent</text><line style="stroke:#A80036;stroke-width:1.5;" x1="8" x2="346" y1="47.9375" y2="47.9375"/><ellipse cx="18" cy="58.9375" fill="#84BE84" rx="3" ry="3" style="stroke:#038048;stroke-width:1.0;"/><text fill="#000000" font-family="sans-serif" font-size="11" font-style="italic" lengthAdjust="spacing" textLength="293" x="27" y="62.1479">onApplicationEvent(AuthorizationFailureEvent): void</text><!--MD5=[9a3c8d9a0669452faadea237ea1fb005]
reverse link org.springframework.context.ApplicationListener to com.hack23.cia.web.impl.ui.application.web.listener.AuthorizationFailureEventListener--><path codeLine="13" d="M177,89.25 C177,102.7 177,116.86 177,128.77 " fill="none" id="org.springframework.context.ApplicationListener-backto-com.hack23.cia.web.impl.ui.application.web.listener.AuthorizationFailureEventListener" style="stroke:#A80036;stroke-width:1.0;stroke-dasharray:7.0,7.0;"/><polygon fill="none" points="170,89.12,177,69.12,184,89.12,170,89.12" style="stroke:#A80036;stroke-width:1.0;"/><text fill="#888888" font-family="sans-serif" font-size="10" lengthAdjust="spacing" textLength="186" x="81" y="210.0244">UMLDoclet 2.0.14, PlantUML 1.2021.9</text><!--MD5=[a3b5af837ca85d5cc3a12374b1c311b3]
@startuml
    set namespaceSeparator none
    hide empty fields
    hide empty methods

    class "<size:14>AuthorizationFailureEventListener\n<size:10>com.hack23.cia.web.impl.ui.application.web.listener" as com.hack23.cia.web.impl.ui.application.web.listener.AuthorizationFailureEventListener [[AuthorizationFailureEventListener.html]] {
        +onApplicationEvent(AuthorizationFailureEvent): void
    }

    interface "<size:14>ApplicationListener\n<size:10>org.springframework.context" as org.springframework.context.ApplicationListener<AuthorizationFailureEvent> {
        {abstract} +onApplicationEvent(AuthorizationFailureEvent): void
    }

    org.springframework.context.ApplicationListener <|.. com.hack23.cia.web.impl.ui.application.web.listener.AuthorizationFailureEventListener

    center footer UMLDoclet 2.0.14, PlantUML 1.2021.9
@enduml

PlantUML version 1.2021.9(Sun Jul 25 12:13:56 CEST 2021)
(APACHE source distribution)
Java Runtime: OpenJDK Runtime Environment
JVM: OpenJDK 64-Bit Server VM
Default Encoding: UTF-8
Language: en
Country: US
--></g></svg>