<?xml version="1.0" encoding="UTF-8" standalone="no"?><svg xmlns="http://www.w3.org/2000/svg" xmlns:xlink="http://www.w3.org/1999/xlink" contentScriptType="application/ecmascript" contentStyleType="text/css" height="218px" preserveAspectRatio="none" style="width:373px;height:218px;" version="1.1" viewBox="0 0 373 218" width="373px" zoomAndPan="magnify"><defs><filter height="300%" id="f10p2evjtxx1hn" width="300%" x="-1" y="-1"><feGaussianBlur result="blurOut" stdDeviation="2.0"/><feColorMatrix in="blurOut" result="blurOut2" type="matrix" values="0 0 0 0 0 0 0 0 0 0 0 0 0 0 0 0 0 0 .4 0"/><feOffset dx="4.0" dy="4.0" in="blurOut2" result="blurOut3"/><feBlend in="SourceGraphic" in2="blurOut3" mode="normal"/></filter></defs><g><!--class com.hack23.cia.web.impl.ui.application.web.listener.HttpSessionDestroyedEventListener--><a href="HttpSessionDestroyedEventListener.html" target="_top" xlink:actuate="onRequest" xlink:show="new" xlink:title="HttpSessionDestroyedEventListener.html" xlink:type="simple"><rect fill="#FEFECE" filter="url(#f10p2evjtxx1hn)" height="58.7422" id="com.hack23.cia.web.impl.ui.application.web.listener.HttpSessionDestroyedEventListener" style="stroke: #A80036; stroke-width: 1.5;" width="329" x="18" y="127"/><ellipse cx="54.15" cy="145.9688" fill="#ADD1B2" rx="11" ry="11" style="stroke: #A80036; stroke-width: 1.0;"/><path d="M57.1188,151.6094 Q56.5406,151.9063 55.9,152.0469 Q55.2594,152.2031 54.5563,152.2031 Q52.0563,152.2031 50.7281,150.5625 Q49.4156,148.9063 49.4156,145.7813 Q49.4156,142.6563 50.7281,141 Q52.0563,139.3438 54.5563,139.3438 Q55.2594,139.3438 55.9,139.5 Q56.5563,139.6563 57.1188,139.9531 L57.1188,142.6719 Q56.4938,142.0938 55.9,141.8281 Q55.3063,141.5469 54.6813,141.5469 Q53.3375,141.5469 52.65,142.625 Q51.9625,143.6875 51.9625,145.7813 Q51.9625,147.875 52.65,148.9531 Q53.3375,150.0156 54.6813,150.0156 Q55.3063,150.0156 55.9,149.75 Q56.4938,149.4688 57.1188,148.8906 L57.1188,151.6094 Z "/><text fill="#000000" font-family="sans-serif" font-size="14" lengthAdjust="spacingAndGlyphs" textLength="250" x="72.85" y="144.9951">HttpSessionDestroyedEventListener</text><text fill="#000000" font-family="sans-serif" font-size="10" lengthAdjust="spacingAndGlyphs" textLength="246" x="74.85" y="157.5791">com.hack23.cia.web.impl.ui.application.web.listener</text><line style="stroke: #A80036; stroke-width: 1.5;" x1="19" x2="346" y1="164.9375" y2="164.9375"/><ellipse cx="29" cy="176.8398" fill="#84BE84" rx="3" ry="3" style="stroke: #038048; stroke-width: 1.0;"/><text fill="#000000" font-family="sans-serif" font-size="11" lengthAdjust="spacingAndGlyphs" textLength="303" x="38" y="179.1479">onApplicationEvent(HttpSessionDestroyedEvent): void</text></a><!--class org.springframework.context.ApplicationListener--><rect fill="#FEFECE" filter="url(#f10p2evjtxx1hn)" height="58.7422" id="org.springframework.context.ApplicationListener" style="stroke: #A80036; stroke-width: 1.5;" width="353" x="6" y="8"/><ellipse cx="21" cy="26.9688" fill="#B4A7E5" rx="11" ry="11" style="stroke: #A80036; stroke-width: 1.0;"/><path d="M16.9219,22.7344 L16.9219,20.5781 L24.3125,20.5781 L24.3125,22.7344 L21.8438,22.7344 L21.8438,30.8125 L24.3125,30.8125 L24.3125,32.9688 L16.9219,32.9688 L16.9219,30.8125 L19.3906,30.8125 L19.3906,22.7344 L16.9219,22.7344 Z "/><text fill="#000000" font-family="sans-serif" font-size="14" font-style="italic" lengthAdjust="spacingAndGlyphs" textLength="131" x="41.5" y="25.9951">ApplicationListener</text><text fill="#000000" font-family="sans-serif" font-size="10" font-style="italic" lengthAdjust="spacingAndGlyphs" textLength="144" x="35" y="38.5791">org.springframework.context</text><rect fill="#FFFFFF" height="15.9688" style="stroke: #000000; stroke-width: 1.0; stroke-dasharray: 2.0,2.0;" width="175" x="187" y="5"/><text fill="#000000" font-family="sans-serif" font-size="12" font-style="italic" lengthAdjust="spacingAndGlyphs" textLength="173" x="188" y="17.1387">HttpSessionDestroyedEvent</text><line style="stroke: #A80036; stroke-width: 1.5;" x1="7" x2="358" y1="45.9375" y2="45.9375"/><ellipse cx="17" cy="57.8398" fill="#84BE84" rx="3" ry="3" style="stroke: #038048; stroke-width: 1.0;"/><text fill="#000000" font-family="sans-serif" font-size="11" font-style="italic" lengthAdjust="spacingAndGlyphs" textLength="304" x="26" y="60.1479">onApplicationEvent(HttpSessionDestroyedEvent): void</text><!--link org.springframework.context.ApplicationListener to com.hack23.cia.web.impl.ui.application.web.listener.HttpSessionDestroyedEventListener--><path d="M182.5,87.3288 C182.5,100.7348 182.5,114.8139 182.5,126.7447 " fill="none" id="org.springframework.context.ApplicationListener-com.hack23.cia.web.impl.ui.application.web.listener.HttpSessionDestroyedEventListener" style="stroke: #A80036; stroke-width: 1.0; stroke-dasharray: 7.0,7.0;"/><polygon fill="none" points="175.5001,87.2218,182.5,67.2218,189.5001,87.2217,175.5001,87.2218" style="stroke: #A80036; stroke-width: 1.0;"/><text fill="#888888" font-family="sans-serif" font-size="10" lengthAdjust="spacingAndGlyphs" textLength="186" x="95.5" y="205.2822">UMLDoclet 2.0.5, PlantUML 1.2019.08</text><!--
@startuml
    set namespaceSeparator none
    hide empty fields
    hide empty methods

    class "<size:14>HttpSessionDestroyedEventListener\n<size:10>com.hack23.cia.web.impl.ui.application.web.listener" as com.hack23.cia.web.impl.ui.application.web.listener.HttpSessionDestroyedEventListener [[HttpSessionDestroyedEventListener.html]] {
        +onApplicationEvent(HttpSessionDestroyedEvent): void
    }

    interface "<size:14>ApplicationListener\n<size:10>org.springframework.context" as org.springframework.context.ApplicationListener<HttpSessionDestroyedEvent> {
        {abstract} +onApplicationEvent(HttpSessionDestroyedEvent): void
    }

    org.springframework.context.ApplicationListener <|.. com.hack23.cia.web.impl.ui.application.web.listener.HttpSessionDestroyedEventListener

    center footer UMLDoclet 2.0.5, PlantUML 1.2019.08
@enduml

PlantUML version 1.2019.08(Sat Jul 13 21:25:14 CEST 2019)
(APACHE source distribution)
Java Runtime: OpenJDK Runtime Environment
JVM: OpenJDK 64-Bit Server VM
Java Version: 11.0.4+11-post-Ubuntu-1ubuntu219.04
Operating System: Linux
OS Version: 5.0.0-25-generic
Default Encoding: UTF-8
Language: en
Country: US
--></g></svg>