<?xml version="1.0" encoding="UTF-8" standalone="no"?><svg xmlns="http://www.w3.org/2000/svg" xmlns:xlink="http://www.w3.org/1999/xlink" contentScriptType="application/ecmascript" contentStyleType="text/css" height="273px" preserveAspectRatio="none" style="width:1080px;height:273px;" version="1.1" viewBox="0 0 1080 273" width="1080px" zoomAndPan="magnify"><defs><filter height="300%" id="fpneag1kkrys4" width="300%" x="-1" y="-1"><feGaussianBlur result="blurOut" stdDeviation="2.0"/><feColorMatrix in="blurOut" result="blurOut2" type="matrix" values="0 0 0 0 0 0 0 0 0 0 0 0 0 0 0 0 0 0 .4 0"/><feOffset dx="4.0" dy="4.0" in="blurOut2" result="blurOut3"/><feBlend in="SourceGraphic" in2="blurOut3" mode="normal"/></filter></defs><g><!--cluster com.hack23.cia.web.impl.ui.application.web.listener--><polygon fill="#FFFFFF" filter="url(#fpneag1kkrys4)" points="14,137,431,137,438,159.2969,1058,159.2969,1058,233,14,233,14,137" style="stroke: #000000; stroke-width: 1.5;"/><line style="stroke: #000000; stroke-width: 1.5;" x1="14" x2="438" y1="159.2969" y2="159.2969"/><text fill="#000000" font-family="sans-serif" font-size="14" font-weight="bold" lengthAdjust="spacingAndGlyphs" textLength="411" x="18" y="151.9951">com.hack23.cia.web.impl.ui.application.web.listener</text><!--cluster org.springframework.context--><polygon fill="#FFFFFF" filter="url(#fpneag1kkrys4)" points="371,16,610,16,617,38.2969,715,38.2969,715,112,371,112,371,16" style="stroke: #000000; stroke-width: 1.5;"/><line style="stroke: #000000; stroke-width: 1.5;" x1="371" x2="617" y1="38.2969" y2="38.2969"/><text fill="#000000" font-family="sans-serif" font-size="14" font-weight="bold" lengthAdjust="spacingAndGlyphs" textLength="233" x="375" y="30.9951">org.springframework.context</text><!--class com.hack23.cia.web.impl.ui.application.web.listener.AuthorizationFailureEventListener--><a href="AuthorizationFailureEventListener.html" target="_top" xlink:actuate="onRequest" xlink:show="new" xlink:title="AuthorizationFailureEventListener.html" xlink:type="simple"><rect fill="#FEFECE" filter="url(#fpneag1kkrys4)" height="60.8047" id="com.hack23.cia.web.impl.ui.application.web.listener.AuthorizationFailureEventListener" style="stroke: #A80036; stroke-width: 1.5;" width="313" x="736.5" y="164"/><ellipse cx="784.25" cy="180" fill="#ADD1B2" rx="11" ry="11" style="stroke: #A80036; stroke-width: 1.0;"/><path d="M787.2188,185.6406 Q786.6406,185.9375 786,186.0781 Q785.3594,186.2344 784.6563,186.2344 Q782.1563,186.2344 780.8281,184.5938 Q779.5156,182.9375 779.5156,179.8125 Q779.5156,176.6875 780.8281,175.0313 Q782.1563,173.375 784.6563,173.375 Q785.3594,173.375 786,173.5313 Q786.6563,173.6875 787.2188,173.9844 L787.2188,176.7031 Q786.5938,176.125 786,175.8594 Q785.4063,175.5781 784.7813,175.5781 Q783.4375,175.5781 782.75,176.6563 Q782.0625,177.7188 782.0625,179.8125 Q782.0625,181.9063 782.75,182.9844 Q783.4375,184.0469 784.7813,184.0469 Q785.4063,184.0469 786,183.7813 Q786.5938,183.5 787.2188,182.9219 L787.2188,185.6406 Z "/><text fill="#000000" font-family="sans-serif" font-size="12" lengthAdjust="spacingAndGlyphs" textLength="209" x="804.75" y="184.1543">AuthorizationFailureEventListener</text><line style="stroke: #A80036; stroke-width: 1.5;" x1="737.5" x2="1048.5" y1="196" y2="196"/><line style="stroke: #A80036; stroke-width: 1.5;" x1="737.5" x2="1048.5" y1="204" y2="204"/><ellipse cx="747.5" cy="215.9023" fill="#84BE84" rx="3" ry="3" style="stroke: #038048; stroke-width: 1.0;"/><text fill="#000000" font-family="sans-serif" font-size="11" lengthAdjust="spacingAndGlyphs" textLength="287" x="756.5" y="218.2104">onApplicationEvent(AuthorizationFailureEvent): void</text></a><!--class com.hack23.cia.web.impl.ui.application.web.listener.HttpSessionCreatedEventListener--><a href="HttpSessionCreatedEventListener.html" target="_top" xlink:actuate="onRequest" xlink:show="new" xlink:title="HttpSessionCreatedEventListener.html" xlink:type="simple"><rect fill="#FEFECE" filter="url(#fpneag1kkrys4)" height="60.8047" id="com.hack23.cia.web.impl.ui.application.web.listener.HttpSessionCreatedEventListener" style="stroke: #A80036; stroke-width: 1.5;" width="316" x="385" y="164"/><ellipse cx="433.25" cy="180" fill="#ADD1B2" rx="11" ry="11" style="stroke: #A80036; stroke-width: 1.0;"/><path d="M436.2188,185.6406 Q435.6406,185.9375 435,186.0781 Q434.3594,186.2344 433.6563,186.2344 Q431.1563,186.2344 429.8281,184.5938 Q428.5156,182.9375 428.5156,179.8125 Q428.5156,176.6875 429.8281,175.0313 Q431.1563,173.375 433.6563,173.375 Q434.3594,173.375 435,173.5313 Q435.6563,173.6875 436.2188,173.9844 L436.2188,176.7031 Q435.5938,176.125 435,175.8594 Q434.4063,175.5781 433.7813,175.5781 Q432.4375,175.5781 431.75,176.6563 Q431.0625,177.7188 431.0625,179.8125 Q431.0625,181.9063 431.75,182.9844 Q432.4375,184.0469 433.7813,184.0469 Q434.4063,184.0469 435,183.7813 Q435.5938,183.5 436.2188,182.9219 L436.2188,185.6406 Z "/><text fill="#000000" font-family="sans-serif" font-size="12" lengthAdjust="spacingAndGlyphs" textLength="211" x="453.75" y="184.1543">HttpSessionCreatedEventListener</text><line style="stroke: #A80036; stroke-width: 1.5;" x1="386" x2="700" y1="196" y2="196"/><line style="stroke: #A80036; stroke-width: 1.5;" x1="386" x2="700" y1="204" y2="204"/><ellipse cx="396" cy="215.9023" fill="#84BE84" rx="3" ry="3" style="stroke: #038048; stroke-width: 1.0;"/><text fill="#000000" font-family="sans-serif" font-size="11" lengthAdjust="spacingAndGlyphs" textLength="290" x="405" y="218.2104">onApplicationEvent(HttpSessionCreatedEvent): void</text></a><!--class com.hack23.cia.web.impl.ui.application.web.listener.HttpSessionDestroyedEventListener--><a href="HttpSessionDestroyedEventListener.html" target="_top" xlink:actuate="onRequest" xlink:show="new" xlink:title="HttpSessionDestroyedEventListener.html" xlink:type="simple"><rect fill="#FEFECE" filter="url(#fpneag1kkrys4)" height="60.8047" id="com.hack23.cia.web.impl.ui.application.web.listener.HttpSessionDestroyedEventListener" style="stroke: #A80036; stroke-width: 1.5;" width="329" x="21.5" y="164"/><ellipse cx="69.25" cy="180" fill="#ADD1B2" rx="11" ry="11" style="stroke: #A80036; stroke-width: 1.0;"/><path d="M72.2188,185.6406 Q71.6406,185.9375 71,186.0781 Q70.3594,186.2344 69.6563,186.2344 Q67.1563,186.2344 65.8281,184.5938 Q64.5156,182.9375 64.5156,179.8125 Q64.5156,176.6875 65.8281,175.0313 Q67.1563,173.375 69.6563,173.375 Q70.3594,173.375 71,173.5313 Q71.6563,173.6875 72.2188,173.9844 L72.2188,176.7031 Q71.5938,176.125 71,175.8594 Q70.4063,175.5781 69.7813,175.5781 Q68.4375,175.5781 67.75,176.6563 Q67.0625,177.7188 67.0625,179.8125 Q67.0625,181.9063 67.75,182.9844 Q68.4375,184.0469 69.7813,184.0469 Q70.4063,184.0469 71,183.7813 Q71.5938,183.5 72.2188,182.9219 L72.2188,185.6406 Z "/><text fill="#000000" font-family="sans-serif" font-size="12" lengthAdjust="spacingAndGlyphs" textLength="225" x="89.75" y="184.1543">HttpSessionDestroyedEventListener</text><line style="stroke: #A80036; stroke-width: 1.5;" x1="22.5" x2="349.5" y1="196" y2="196"/><line style="stroke: #A80036; stroke-width: 1.5;" x1="22.5" x2="349.5" y1="204" y2="204"/><ellipse cx="32.5" cy="215.9023" fill="#84BE84" rx="3" ry="3" style="stroke: #038048; stroke-width: 1.0;"/><text fill="#000000" font-family="sans-serif" font-size="11" lengthAdjust="spacingAndGlyphs" textLength="303" x="41.5" y="218.2104">onApplicationEvent(HttpSessionDestroyedEvent): void</text></a><!--class org.springframework.context.ApplicationListener--><rect fill="#FEFECE" filter="url(#fpneag1kkrys4)" height="60.8047" id="org.springframework.context.ApplicationListener" style="stroke: #A80036; stroke-width: 1.5;" width="328" x="379" y="43"/><ellipse cx="395.35" cy="59" fill="#B4A7E5" rx="11" ry="11" style="stroke: #A80036; stroke-width: 1.0;"/><path d="M391.2719,54.7656 L391.2719,52.6094 L398.6625,52.6094 L398.6625,54.7656 L396.1938,54.7656 L396.1938,62.8438 L398.6625,62.8438 L398.6625,65 L391.2719,65 L391.2719,62.8438 L393.7406,62.8438 L393.7406,54.7656 L391.2719,54.7656 Z "/><text fill="#000000" font-family="sans-serif" font-size="12" font-style="italic" lengthAdjust="spacingAndGlyphs" textLength="119" x="409.65" y="63.1543">ApplicationListener</text><rect fill="#FFFFFF" height="15.9688" style="stroke: #000000; stroke-width: 1.0; stroke-dasharray: 2.0,2.0;" width="172" x="538" y="40"/><text fill="#000000" font-family="sans-serif" font-size="12" font-style="italic" lengthAdjust="spacingAndGlyphs" textLength="170" x="539" y="52.1387">E extends ApplicationEvent</text><line style="stroke: #A80036; stroke-width: 1.5;" x1="380" x2="706" y1="75" y2="75"/><line style="stroke: #A80036; stroke-width: 1.5;" x1="380" x2="706" y1="83" y2="83"/><ellipse cx="390" cy="94.9023" fill="#84BE84" rx="3" ry="3" style="stroke: #038048; stroke-width: 1.0;"/><text fill="#000000" font-family="sans-serif" font-size="11" font-style="italic" lengthAdjust="spacingAndGlyphs" textLength="302" x="399" y="97.2104">onApplicationEvent(E extends ApplicationEvent): void</text><!--link org.springframework.context.ApplicationListener to com.hack23.cia.web.impl.ui.application.web.listener.AuthorizationFailureEventListener--><path d="M650.5129,110.6687 C699.9503,127.76 757.8732,147.7847 804.7085,163.9764 " fill="none" id="org.springframework.context.ApplicationListener-com.hack23.cia.web.impl.ui.application.web.listener.AuthorizationFailureEventListener" style="stroke: #A80036; stroke-width: 1.0; stroke-dasharray: 7.0,7.0;"/><polygon fill="none" points="647.9349,117.1841,631.3198,104.0334,652.5093,103.9525,647.9349,117.1841" style="stroke: #A80036; stroke-width: 1.0;"/><!--link org.springframework.context.ApplicationListener to com.hack23.cia.web.impl.ui.application.web.listener.HttpSessionCreatedEventListener--><path d="M543,124.2927 C543,137.7857 543,151.9401 543,163.9764 " fill="none" id="org.springframework.context.ApplicationListener-com.hack23.cia.web.impl.ui.application.web.listener.HttpSessionCreatedEventListener" style="stroke: #A80036; stroke-width: 1.0; stroke-dasharray: 7.0,7.0;"/><polygon fill="none" points="536.0001,124.0334,543,104.0334,550.0001,124.0334,536.0001,124.0334" style="stroke: #A80036; stroke-width: 1.0;"/><!--link org.springframework.context.ApplicationListener to com.hack23.cia.web.impl.ui.application.web.listener.HttpSessionDestroyedEventListener--><path d="M433.6714,110.5553 C383.1722,127.6713 323.935,147.7489 276.0574,163.9764 " fill="none" id="org.springframework.context.ApplicationListener-com.hack23.cia.web.impl.ui.application.web.listener.HttpSessionDestroyedEventListener" style="stroke: #A80036; stroke-width: 1.0; stroke-dasharray: 7.0,7.0;"/><polygon fill="none" points="431.7252,103.8239,452.9138,104.0334,436.2192,117.083,431.7252,103.8239" style="stroke: #A80036; stroke-width: 1.0;"/><text fill="#888888" font-family="sans-serif" font-size="10" lengthAdjust="spacingAndGlyphs" textLength="186" x="449" y="260.2822">UMLDoclet 2.0.5, PlantUML 1.2019.08</text><!--
@startuml
    namespace com.hack23.cia.web.impl.ui.application.web.listener {

        class AuthorizationFailureEventListener [[AuthorizationFailureEventListener.html]] {
            +onApplicationEvent(AuthorizationFailureEvent): void
        }

        class HttpSessionCreatedEventListener [[HttpSessionCreatedEventListener.html]] {
            +onApplicationEvent(HttpSessionCreatedEvent): void
        }

        class HttpSessionDestroyedEventListener [[HttpSessionDestroyedEventListener.html]] {
            +onApplicationEvent(HttpSessionDestroyedEvent): void
        }

        org.springframework.context.ApplicationListener <|.. AuthorizationFailureEventListener
        org.springframework.context.ApplicationListener <|.. HttpSessionCreatedEventListener
        org.springframework.context.ApplicationListener <|.. HttpSessionDestroyedEventListener
    }

    namespace org.springframework.context {
        interface ApplicationListener<E extends ApplicationEvent> {
            {abstract} +onApplicationEvent(E extends ApplicationEvent): void
        }
    }

    center footer UMLDoclet 2.0.5, PlantUML 1.2019.08
@enduml

PlantUML version 1.2019.08(Sat Jul 13 21:25:14 CEST 2019)
(APACHE source distribution)
Java Runtime: OpenJDK Runtime Environment
JVM: OpenJDK 64-Bit Server VM
Java Version: 11.0.4+11-post-Ubuntu-1ubuntu219.04
Operating System: Linux
OS Version: 5.0.0-27-generic
Default Encoding: UTF-8
Language: en
Country: US
--></g></svg>