<svg xmlns="http://www.w3.org/2000/svg" xmlns:xlink="http://www.w3.org/1999/xlink" contentStyleType="text/css" data-diagram-type="CLASS" height="217px" preserveAspectRatio="none" style="width:482px;height:217px;background:#FFFFFF;" version="1.1" viewBox="0 0 482 217" width="482px" zoomAndPan="magnify"><defs/><g><!--class com.hack23.cia.service.impl.task.AbstractJob--><g class="entity" data-entity="com.hack23.cia.service.impl.task.AbstractJob" data-source-line="13" data-uid="ent0002" id="entity_com.hack23.cia.service.impl.task.AbstractJob"><a href="AbstractJob.html" target="_top" title="AbstractJob.html" xlink:actuate="onRequest" xlink:href="AbstractJob.html" xlink:show="new" xlink:title="AbstractJob.html" xlink:type="simple"><rect fill="#F1F1F1" height="69.7558" rx="2.5" ry="2.5" style="stroke:#181818;stroke-width:0.5;" width="433.9305" x="41.5" y="118"/><ellipse cx="181.9653" cy="139.344" fill="#A9DCDF" rx="11" ry="11" style="stroke:#181818;stroke-width:1;"/><path d="M182.0747,134.6877 L180.9185,139.7658 L183.2466,139.7658 L182.0747,134.6877 Z M180.5903,132.4533 L183.5747,132.4533 L186.9341,144.844 L184.481,144.844 L183.7153,141.7815 L180.4341,141.7815 L179.6841,144.844 L177.2466,144.844 L180.5903,132.4533 Z " fill="#000000"/><text fill="#000000" font-family="sans-serif" font-size="14" font-style="italic" lengthAdjust="spacing" textLength="70.9937" x="239.2184" y="137.9659">AbstractJob</text><text fill="#000000" font-family="sans-serif" font-size="10" font-style="italic" lengthAdjust="spacing" textLength="144.4998" x="202.4653" y="152.7579">com.hack23.cia.service.impl.task</text><line style="stroke:#181818;stroke-width:0.5;" x1="42.5" x2="474.4305" y1="160.6879" y2="160.6879"/><polygon fill="#FFFF44" points="52.5,170.7219,56.5,174.7219,52.5,178.7219,48.5,174.7219" style="stroke:#B38D22;stroke-width:1;"/><text fill="#000000" font-family="sans-serif" font-size="14" lengthAdjust="spacing" text-decoration="underline" textLength="407.9305" x="61.5" y="179.6538">getJobContextHolder(JobExecutionContext): JobContextHolder</text></a></g><!--class org.springframework.scheduling.quartz.QuartzJobBean--><g class="entity" data-entity="org.springframework.scheduling.quartz.QuartzJobBean" data-source-line="17" data-uid="ent0003" id="entity_org.springframework.scheduling.quartz.QuartzJobBean"><rect fill="#F1F1F1" height="69.7558" rx="2.5" ry="2.5" style="stroke:#181818;stroke-width:0.5;" width="290.515" x="6" y="12"/><ellipse cx="58.6776" cy="33.344" fill="#A9DCDF" rx="11" ry="11" style="stroke:#181818;stroke-width:1;"/><path d="M58.787,28.6877 L57.6307,33.7658 L59.9589,33.7658 L58.787,28.6877 Z M57.3026,26.4533 L60.287,26.4533 L63.6464,38.844 L61.1932,38.844 L60.4276,35.7815 L57.1464,35.7815 L56.3964,38.844 L53.9589,38.844 L57.3026,26.4533 Z " fill="#000000"/><text fill="#000000" font-family="sans-serif" font-size="14" font-style="italic" lengthAdjust="spacing" textLength="93.8557" x="120.5797" y="31.9659">QuartzJobBean</text><text fill="#000000" font-family="sans-serif" font-size="10" font-style="italic" lengthAdjust="spacing" textLength="176.6598" x="79.1776" y="46.7579">org.springframework.scheduling.quartz</text><line style="stroke:#181818;stroke-width:0.5;" x1="7" x2="295.515" y1="54.6879" y2="54.6879"/><polygon fill="#FFFF44" points="17,64.7219,21,68.7219,17,72.7219,13,68.7219" style="stroke:#B38D22;stroke-width:1;"/><text fill="#000000" font-family="sans-serif" font-size="14" font-style="italic" lengthAdjust="spacing" textLength="264.515" x="26" y="73.6538">executeInternal(JobExecutionContext): void</text></g><!--class java.io.Serializable--><g class="entity" data-entity="java.io.Serializable" data-source-line="20" data-uid="ent0004" id="entity_java.io.Serializable"><rect fill="#F1F1F1" height="42.6879" rx="2.5" ry="2.5" style="stroke:#181818;stroke-width:0.5;" width="103.3017" x="315" y="25.5"/><ellipse cx="330" cy="46.844" fill="#B4A7E5" rx="11" ry="11" style="stroke:#181818;stroke-width:1;"/><path d="M325.9219,42.6096 L325.9219,40.4533 L333.3125,40.4533 L333.3125,42.6096 L330.8438,42.6096 L330.8438,50.6877 L333.3125,50.6877 L333.3125,52.844 L325.9219,52.844 L325.9219,50.6877 L328.3906,50.6877 L328.3906,42.6096 L325.9219,42.6096 Z " fill="#000000"/><text fill="#000000" font-family="sans-serif" font-size="14" font-style="italic" lengthAdjust="spacing" textLength="71.3017" x="344" y="45.4659">Serializable</text><text fill="#000000" font-family="sans-serif" font-size="10" font-style="italic" lengthAdjust="spacing" textLength="29.38" x="364.9609" y="60.2579">java.io</text></g><g class="link" data-entity-1="org.springframework.scheduling.quartz.QuartzJobBean" data-entity-2="com.hack23.cia.service.impl.task.AbstractJob" data-uid="lnk5" id="link_org.springframework.scheduling.quartz.QuartzJobBean_com.hack23.cia.service.impl.task.AbstractJob"><polygon fill="none" points="186.5358,82.0535,195.2615,98.9017,203.6253,90.2967,186.5358,82.0535" style="stroke:#181818;stroke-width:1;"/><path d="M199.4434,94.5992 C211.2674,106.0917 211.5554,106.3716 223.3855,117.87" fill="none" style="stroke:#181818;stroke-width:1;"/></g><g class="link" data-entity-1="java.io.Serializable" data-entity-2="com.hack23.cia.service.impl.task.AbstractJob" data-uid="lnk6" id="link_java.io.Serializable_com.hack23.cia.service.impl.task.AbstractJob"><polygon fill="none" points="345.1627,68.5471,328.0351,76.7107,336.3588,85.3545,345.1627,68.5471" style="stroke:#181818;stroke-width:1;"/><path d="M332.1969,81.0326 C317.5662,95.1215 310.7772,101.659 293.8235,117.9847" fill="none" style="stroke:#181818;stroke-width:1;stroke-dasharray:7,7;"/></g><g class="footer" data-source-line="31"><text fill="#888888" font-family="sans-serif" font-size="10" lengthAdjust="spacing" textLength="2.6" x="235.95" y="192.69">&#160;</text><a href="https://github.com/talsma-ict/umldoclet" target="_top" title="https://github.com/talsma-ict/umldoclet" xlink:actuate="onRequest" xlink:href="https://github.com/talsma-ict/umldoclet" xlink:show="new" xlink:title="https://github.com/talsma-ict/umldoclet" xlink:type="simple"><text fill="#888888" font-family="sans-serif" font-size="10" lengthAdjust="spacing" textLength="76.7199" x="198.89" y="206.31">UMLDoclet 2.2.4</text></a></g><!--SRC=[dLJVJzim47xdhxZ1mq2ZRX9-ZQf2wZeqG9sqhUMfzC5rhebNnmwsKoYC_tsND7G1CJ4MHMbpT_xk- -uk1m3m7lecNrgPf1wy0PzA1vTV1y1r30bgjDnZ33BZ2JgOeZ8wSQj015xur5Wmi-fD66lHvKR7KYTmmHSSd2ciGCSsDg1ADNf4l-6kWJvTbiRFHYZqiDtVQL2AWl2m5GNH8OouSXc7y_w8rMX_paGiOlj0s4eAr8uW2nsZhMZrSYxePx3oxC82hPD6qvcWnYcb2gCzbzf1pgrtfQHlYcjVSWqPvJzWOG3RlU7WARdWk2At2pshUH733tDThFM-oorFYBBYIrDuS1bwhldAvuYrvXdLYmiS8cNbdagfZSRAdyeO0RFSBs4cKSNkkPN0KaFcoiwdpbikF0Z5dOFDhfDts0dtJtgruy9ChtHj3Kw4oLZAnJpQOq9ovj0kg3fCPhbYdhlv9b1xNWjY3MmOZnjlBFMPcapWlk9MNlVESo_50smbM4RqgTfuwy-CeYvja-7q5aNXgIsrPwS3pyCgi8TNz7ulg7rtTFGJSjrGR6p2N6vfC6UMgdvZx9mv6ekuK6HZrzMnIlO_HR8dUPf27vcHLAmquJbfeE5GVv6vC3AkfPLFMKRFQ2OQeePe9LVoZayLDZJzf2-CILEnhl-pPkYgLF-Zf_khrNfJ_wjCBt4WACRU1bLXTPrVAZnPrtLc3DMbKUZoEblcQ0TIp_j6qRUpzV5bxsMv2aWiqlOHSuqqCC4wSbNrRhkHhyvrfSVZrFlSTThjHFgqc3BIqVRL6cf9uTj5fkBL_dcsYIQJUhDyMQ-uSakqWlrM68x2WqwmHpSxEeeEWkF3AFmGH9qW69yMrkJO7deZvgbHsUGt]--></g></svg>