<?xml version="1.0" encoding="UTF-8" standalone="no"?><svg xmlns="http://www.w3.org/2000/svg" xmlns:xlink="http://www.w3.org/1999/xlink" contentScriptType="application/ecmascript" contentStyleType="text/css" height="810px" preserveAspectRatio="none" style="width:817px;height:810px;" version="1.1" viewBox="0 0 817 810" width="817px" zoomAndPan="magnify"><defs><filter height="300%" id="fxg9mdoi1lfsf" width="300%" x="-1" y="-1"><feGaussianBlur result="blurOut" stdDeviation="2.0"/><feColorMatrix in="blurOut" result="blurOut2" type="matrix" values="0 0 0 0 0 0 0 0 0 0 0 0 0 0 0 0 0 0 .4 0"/><feOffset dx="4.0" dy="4.0" in="blurOut2" result="blurOut3"/><feBlend in="SourceGraphic" in2="blurOut3" mode="normal"/></filter></defs><g><!--cluster com.hack23.cia.model.internal.application.data.ministry.impl--><polygon fill="#FFFFFF" filter="url(#fxg9mdoi1lfsf)" points="14,124,494,124,501,146.2969,795,146.2969,795,770,14,770,14,124" style="stroke: #000000; stroke-width: 1.5;"/><line style="stroke: #000000; stroke-width: 1.5;" x1="14" x2="501" y1="146.2969" y2="146.2969"/><text fill="#000000" font-family="sans-serif" font-size="14" font-weight="bold" lengthAdjust="spacingAndGlyphs" textLength="474" x="18" y="138.9951">com.hack23.cia.model.internal.application.data.ministry.impl</text><!--cluster com.hack23.cia.model.common.api--><polygon fill="#FFFFFF" filter="url(#fxg9mdoi1lfsf)" points="272,16,553,16,560,38.2969,563,38.2969,563,99,272,99,272,16" style="stroke: #000000; stroke-width: 1.5;"/><line style="stroke: #000000; stroke-width: 1.5;" x1="272" x2="560" y1="38.2969" y2="38.2969"/><text fill="#000000" font-family="sans-serif" font-size="14" font-weight="bold" lengthAdjust="spacingAndGlyphs" textLength="275" x="276" y="30.9951">com.hack23.cia.model.common.api</text><!--class com.hack23.cia.model.internal.application.data.ministry.impl.ViewRiksdagenGovermentRoleMember--><a href="ViewRiksdagenGovermentRoleMember.html" target="_top" xlink:actuate="onRequest" xlink:show="new" xlink:title="ViewRiksdagenGovermentRoleMember.html" xlink:type="simple"><rect fill="#FEFECE" filter="url(#fxg9mdoi1lfsf)" height="611.4063" id="com.hack23.cia.model.internal.application.data.ministry.impl.ViewRiksdagenGovermentRoleMember" style="stroke: #A80036; stroke-width: 1.5;" width="392" x="395" y="151"/><ellipse cx="467.75" cy="167" fill="#ADD1B2" rx="11" ry="11" style="stroke: #A80036; stroke-width: 1.0;"/><path d="M470.7188,172.6406 Q470.1406,172.9375 469.5,173.0781 Q468.8594,173.2344 468.1563,173.2344 Q465.6563,173.2344 464.3281,171.5938 Q463.0156,169.9375 463.0156,166.8125 Q463.0156,163.6875 464.3281,162.0313 Q465.6563,160.375 468.1563,160.375 Q468.8594,160.375 469.5,160.5313 Q470.1563,160.6875 470.7188,160.9844 L470.7188,163.7031 Q470.0938,163.125 469.5,162.8594 Q468.9063,162.5781 468.2813,162.5781 Q466.9375,162.5781 466.25,163.6563 Q465.5625,164.7188 465.5625,166.8125 Q465.5625,168.9063 466.25,169.9844 Q466.9375,171.0469 468.2813,171.0469 Q468.9063,171.0469 469.5,170.7813 Q470.0938,170.5 470.7188,169.9219 L470.7188,172.6406 Z "/><text fill="#000000" font-family="sans-serif" font-size="12" lengthAdjust="spacingAndGlyphs" textLength="238" x="488.25" y="171.1543">ViewRiksdagenGovermentRoleMember</text><line style="stroke: #A80036; stroke-width: 1.5;" x1="396" x2="786" y1="183" y2="183"/><polygon fill="none" points="406,189.9023,410,193.9023,406,197.9023,402,193.9023" style="stroke: #B38D22; stroke-width: 1.0;"/><text fill="#000000" font-family="sans-serif" font-size="11" lengthAdjust="spacingAndGlyphs" textLength="64" x="415" y="197.2104">roleId: long</text><polygon fill="none" points="406,202.707,410,206.707,406,210.707,402,206.707" style="stroke: #B38D22; stroke-width: 1.0;"/><text fill="#000000" font-family="sans-serif" font-size="11" lengthAdjust="spacingAndGlyphs" textLength="73" x="415" y="210.0151">detail: String</text><polygon fill="none" points="406,215.5117,410,219.5117,406,223.5117,402,219.5117" style="stroke: #B38D22; stroke-width: 1.0;"/><text fill="#000000" font-family="sans-serif" font-size="11" lengthAdjust="spacingAndGlyphs" textLength="93" x="415" y="222.8198">roleCode: String</text><polygon fill="none" points="406,228.3164,410,232.3164,406,236.3164,402,232.3164" style="stroke: #B38D22; stroke-width: 1.0;"/><text fill="#000000" font-family="sans-serif" font-size="11" lengthAdjust="spacingAndGlyphs" textLength="98" x="415" y="235.6245">firstName: String</text><polygon fill="none" points="406,241.1211,410,245.1211,406,249.1211,402,245.1211" style="stroke: #B38D22; stroke-width: 1.0;"/><text fill="#000000" font-family="sans-serif" font-size="11" lengthAdjust="spacingAndGlyphs" textLength="96" x="415" y="248.4292">lastName: String</text><polygon fill="none" points="406,253.9258,410,257.9258,406,261.9258,402,257.9258" style="stroke: #B38D22; stroke-width: 1.0;"/><text fill="#000000" font-family="sans-serif" font-size="11" lengthAdjust="spacingAndGlyphs" textLength="87" x="415" y="261.2339">fromDate: Date</text><polygon fill="none" points="406,266.7305,410,270.7305,406,274.7305,402,270.7305" style="stroke: #B38D22; stroke-width: 1.0;"/><text fill="#000000" font-family="sans-serif" font-size="11" lengthAdjust="spacingAndGlyphs" textLength="71" x="415" y="274.0386">toDate: Date</text><polygon fill="none" points="406,279.5352,410,283.5352,406,287.5352,402,283.5352" style="stroke: #B38D22; stroke-width: 1.0;"/><text fill="#000000" font-family="sans-serif" font-size="11" lengthAdjust="spacingAndGlyphs" textLength="92" x="415" y="286.8433">personId: String</text><polygon fill="none" points="406,292.3398,410,296.3398,406,300.3398,402,296.3398" style="stroke: #B38D22; stroke-width: 1.0;"/><text fill="#000000" font-family="sans-serif" font-size="11" lengthAdjust="spacingAndGlyphs" textLength="71" x="415" y="299.6479">party: String</text><polygon fill="none" points="406,305.1445,410,309.1445,406,313.1445,402,309.1445" style="stroke: #B38D22; stroke-width: 1.0;"/><text fill="#000000" font-family="sans-serif" font-size="11" lengthAdjust="spacingAndGlyphs" textLength="115" x="415" y="312.4526">totalDaysServed: int</text><polygon fill="none" points="406,317.9492,410,321.9492,406,325.9492,402,321.9492" style="stroke: #B38D22; stroke-width: 1.0;"/><text fill="#000000" font-family="sans-serif" font-size="11" lengthAdjust="spacingAndGlyphs" textLength="86" x="415" y="325.2573">active: boolean</text><line style="stroke: #A80036; stroke-width: 1.5;" x1="396" x2="786" y1="331.8516" y2="331.8516"/><ellipse cx="406" cy="343.7539" fill="#84BE84" rx="3" ry="3" style="stroke: #038048; stroke-width: 1.0;"/><text fill="#000000" font-family="sans-serif" font-size="11" lengthAdjust="spacingAndGlyphs" textLength="92" x="415" y="346.062">getRoleId(): long</text><ellipse cx="406" cy="356.5586" fill="#84BE84" rx="3" ry="3" style="stroke: #038048; stroke-width: 1.0;"/><text fill="#000000" font-family="sans-serif" font-size="11" lengthAdjust="spacingAndGlyphs" textLength="115" x="415" y="358.8667">setRoleId(long): void</text><ellipse cx="406" cy="369.3633" fill="#84BE84" rx="3" ry="3" style="stroke: #038048; stroke-width: 1.0;"/><text fill="#000000" font-family="sans-serif" font-size="11" lengthAdjust="spacingAndGlyphs" textLength="100" x="415" y="371.6714">getDetail(): String</text><ellipse cx="406" cy="382.168" fill="#84BE84" rx="3" ry="3" style="stroke: #038048; stroke-width: 1.0;"/><text fill="#000000" font-family="sans-serif" font-size="11" lengthAdjust="spacingAndGlyphs" textLength="123" x="415" y="384.4761">setDetail(String): void</text><ellipse cx="406" cy="394.9727" fill="#84BE84" rx="3" ry="3" style="stroke: #038048; stroke-width: 1.0;"/><text fill="#000000" font-family="sans-serif" font-size="11" lengthAdjust="spacingAndGlyphs" textLength="121" x="415" y="397.2808">getRoleCode(): String</text><ellipse cx="406" cy="407.7773" fill="#84BE84" rx="3" ry="3" style="stroke: #038048; stroke-width: 1.0;"/><text fill="#000000" font-family="sans-serif" font-size="11" lengthAdjust="spacingAndGlyphs" textLength="144" x="415" y="410.0854">setRoleCode(String): void</text><ellipse cx="406" cy="420.582" fill="#84BE84" rx="3" ry="3" style="stroke: #038048; stroke-width: 1.0;"/><text fill="#000000" font-family="sans-serif" font-size="11" lengthAdjust="spacingAndGlyphs" textLength="126" x="415" y="422.8901">getFirstName(): String</text><ellipse cx="406" cy="433.3867" fill="#84BE84" rx="3" ry="3" style="stroke: #038048; stroke-width: 1.0;"/><text fill="#000000" font-family="sans-serif" font-size="11" lengthAdjust="spacingAndGlyphs" textLength="149" x="415" y="435.6948">setFirstName(String): void</text><ellipse cx="406" cy="446.1914" fill="#84BE84" rx="3" ry="3" style="stroke: #038048; stroke-width: 1.0;"/><text fill="#000000" font-family="sans-serif" font-size="11" lengthAdjust="spacingAndGlyphs" textLength="125" x="415" y="448.4995">getLastName(): String</text><ellipse cx="406" cy="458.9961" fill="#84BE84" rx="3" ry="3" style="stroke: #038048; stroke-width: 1.0;"/><text fill="#000000" font-family="sans-serif" font-size="11" lengthAdjust="spacingAndGlyphs" textLength="148" x="415" y="461.3042">setLastName(String): void</text><ellipse cx="406" cy="471.8008" fill="#84BE84" rx="3" ry="3" style="stroke: #038048; stroke-width: 1.0;"/><text fill="#000000" font-family="sans-serif" font-size="11" lengthAdjust="spacingAndGlyphs" textLength="115" x="415" y="474.1089">getFromDate(): Date</text><ellipse cx="406" cy="484.6055" fill="#84BE84" rx="3" ry="3" style="stroke: #038048; stroke-width: 1.0;"/><text fill="#000000" font-family="sans-serif" font-size="11" lengthAdjust="spacingAndGlyphs" textLength="138" x="415" y="486.9136">setFromDate(Date): void</text><ellipse cx="406" cy="497.4102" fill="#84BE84" rx="3" ry="3" style="stroke: #038048; stroke-width: 1.0;"/><text fill="#000000" font-family="sans-serif" font-size="11" lengthAdjust="spacingAndGlyphs" textLength="100" x="415" y="499.7183">getToDate(): Date</text><ellipse cx="406" cy="510.2148" fill="#84BE84" rx="3" ry="3" style="stroke: #038048; stroke-width: 1.0;"/><text fill="#000000" font-family="sans-serif" font-size="11" lengthAdjust="spacingAndGlyphs" textLength="123" x="415" y="512.5229">setToDate(Date): void</text><ellipse cx="406" cy="523.0195" fill="#84BE84" rx="3" ry="3" style="stroke: #038048; stroke-width: 1.0;"/><text fill="#000000" font-family="sans-serif" font-size="11" lengthAdjust="spacingAndGlyphs" textLength="118" x="415" y="525.3276">getPersonId(): String</text><ellipse cx="406" cy="535.8242" fill="#84BE84" rx="3" ry="3" style="stroke: #038048; stroke-width: 1.0;"/><text fill="#000000" font-family="sans-serif" font-size="11" lengthAdjust="spacingAndGlyphs" textLength="141" x="415" y="538.1323">setPersonId(String): void</text><ellipse cx="406" cy="548.6289" fill="#84BE84" rx="3" ry="3" style="stroke: #038048; stroke-width: 1.0;"/><text fill="#000000" font-family="sans-serif" font-size="11" lengthAdjust="spacingAndGlyphs" textLength="97" x="415" y="550.937">getParty(): String</text><ellipse cx="406" cy="561.4336" fill="#84BE84" rx="3" ry="3" style="stroke: #038048; stroke-width: 1.0;"/><text fill="#000000" font-family="sans-serif" font-size="11" lengthAdjust="spacingAndGlyphs" textLength="120" x="415" y="563.7417">setParty(String): void</text><ellipse cx="406" cy="574.2383" fill="#84BE84" rx="3" ry="3" style="stroke: #038048; stroke-width: 1.0;"/><text fill="#000000" font-family="sans-serif" font-size="11" lengthAdjust="spacingAndGlyphs" textLength="144" x="415" y="576.5464">getTotalDaysServed(): int</text><ellipse cx="406" cy="587.043" fill="#84BE84" rx="3" ry="3" style="stroke: #038048; stroke-width: 1.0;"/><text fill="#000000" font-family="sans-serif" font-size="11" lengthAdjust="spacingAndGlyphs" textLength="167" x="415" y="589.3511">setTotalDaysServed(int): void</text><ellipse cx="406" cy="599.8477" fill="#84BE84" rx="3" ry="3" style="stroke: #038048; stroke-width: 1.0;"/><text fill="#000000" font-family="sans-serif" font-size="11" lengthAdjust="spacingAndGlyphs" textLength="104" x="415" y="602.1558">isActive(): boolean</text><ellipse cx="406" cy="612.6523" fill="#84BE84" rx="3" ry="3" style="stroke: #038048; stroke-width: 1.0;"/><text fill="#000000" font-family="sans-serif" font-size="11" lengthAdjust="spacingAndGlyphs" textLength="135" x="415" y="614.9604">setActive(boolean): void</text><ellipse cx="406" cy="625.457" fill="#84BE84" rx="3" ry="3" style="stroke: #038048; stroke-width: 1.0;"/><text fill="#000000" font-family="sans-serif" font-size="11" lengthAdjust="spacingAndGlyphs" textLength="314" x="415" y="627.7651">withRoleId(long): ViewRiksdagenGovermentRoleMember</text><ellipse cx="406" cy="638.2617" fill="#84BE84" rx="3" ry="3" style="stroke: #038048; stroke-width: 1.0;"/><text fill="#000000" font-family="sans-serif" font-size="11" lengthAdjust="spacingAndGlyphs" textLength="322" x="415" y="640.5698">withDetail(String): ViewRiksdagenGovermentRoleMember</text><ellipse cx="406" cy="651.0664" fill="#84BE84" rx="3" ry="3" style="stroke: #038048; stroke-width: 1.0;"/><text fill="#000000" font-family="sans-serif" font-size="11" lengthAdjust="spacingAndGlyphs" textLength="343" x="415" y="653.3745">withRoleCode(String): ViewRiksdagenGovermentRoleMember</text><ellipse cx="406" cy="663.8711" fill="#84BE84" rx="3" ry="3" style="stroke: #038048; stroke-width: 1.0;"/><text fill="#000000" font-family="sans-serif" font-size="11" lengthAdjust="spacingAndGlyphs" textLength="348" x="415" y="666.1792">withFirstName(String): ViewRiksdagenGovermentRoleMember</text><ellipse cx="406" cy="676.6758" fill="#84BE84" rx="3" ry="3" style="stroke: #038048; stroke-width: 1.0;"/><text fill="#000000" font-family="sans-serif" font-size="11" lengthAdjust="spacingAndGlyphs" textLength="347" x="415" y="678.9839">withLastName(String): ViewRiksdagenGovermentRoleMember</text><ellipse cx="406" cy="689.4805" fill="#84BE84" rx="3" ry="3" style="stroke: #038048; stroke-width: 1.0;"/><text fill="#000000" font-family="sans-serif" font-size="11" lengthAdjust="spacingAndGlyphs" textLength="337" x="415" y="691.7886">withFromDate(Date): ViewRiksdagenGovermentRoleMember</text><ellipse cx="406" cy="702.2852" fill="#84BE84" rx="3" ry="3" style="stroke: #038048; stroke-width: 1.0;"/><text fill="#000000" font-family="sans-serif" font-size="11" lengthAdjust="spacingAndGlyphs" textLength="322" x="415" y="704.5933">withToDate(Date): ViewRiksdagenGovermentRoleMember</text><ellipse cx="406" cy="715.0898" fill="#84BE84" rx="3" ry="3" style="stroke: #038048; stroke-width: 1.0;"/><text fill="#000000" font-family="sans-serif" font-size="11" lengthAdjust="spacingAndGlyphs" textLength="340" x="415" y="717.3979">withPersonId(String): ViewRiksdagenGovermentRoleMember</text><ellipse cx="406" cy="727.8945" fill="#84BE84" rx="3" ry="3" style="stroke: #038048; stroke-width: 1.0;"/><text fill="#000000" font-family="sans-serif" font-size="11" lengthAdjust="spacingAndGlyphs" textLength="319" x="415" y="730.2026">withParty(String): ViewRiksdagenGovermentRoleMember</text><ellipse cx="406" cy="740.6992" fill="#84BE84" rx="3" ry="3" style="stroke: #038048; stroke-width: 1.0;"/><text fill="#000000" font-family="sans-serif" font-size="11" lengthAdjust="spacingAndGlyphs" textLength="366" x="415" y="743.0073">withTotalDaysServed(int): ViewRiksdagenGovermentRoleMember</text><ellipse cx="406" cy="753.5039" fill="#84BE84" rx="3" ry="3" style="stroke: #038048; stroke-width: 1.0;"/><text fill="#000000" font-family="sans-serif" font-size="11" lengthAdjust="spacingAndGlyphs" textLength="334" x="415" y="755.812">withActive(boolean): ViewRiksdagenGovermentRoleMember</text></a><!--class com.hack23.cia.model.internal.application.data.ministry.impl.ViewRiksdagenMinistry--><a href="ViewRiksdagenMinistry.html" target="_top" xlink:actuate="onRequest" xlink:show="new" xlink:title="ViewRiksdagenMinistry.html" xlink:type="simple"><rect fill="#FEFECE" filter="url(#fxg9mdoi1lfsf)" height="406.5313" id="com.hack23.cia.model.internal.application.data.ministry.impl.ViewRiksdagenMinistry" style="stroke: #A80036; stroke-width: 1.5;" width="337" x="22.5" y="253"/><ellipse cx="116.75" cy="269" fill="#ADD1B2" rx="11" ry="11" style="stroke: #A80036; stroke-width: 1.0;"/><path d="M119.7188,274.6406 Q119.1406,274.9375 118.5,275.0781 Q117.8594,275.2344 117.1563,275.2344 Q114.6563,275.2344 113.3281,273.5938 Q112.0156,271.9375 112.0156,268.8125 Q112.0156,265.6875 113.3281,264.0313 Q114.6563,262.375 117.1563,262.375 Q117.8594,262.375 118.5,262.5313 Q119.1563,262.6875 119.7188,262.9844 L119.7188,265.7031 Q119.0938,265.125 118.5,264.8594 Q117.9063,264.5781 117.2813,264.5781 Q115.9375,264.5781 115.25,265.6563 Q114.5625,266.7188 114.5625,268.8125 Q114.5625,270.9063 115.25,271.9844 Q115.9375,273.0469 117.2813,273.0469 Q117.9063,273.0469 118.5,272.7813 Q119.0938,272.5 119.7188,271.9219 L119.7188,274.6406 Z "/><text fill="#000000" font-family="sans-serif" font-size="12" lengthAdjust="spacingAndGlyphs" textLength="140" x="137.25" y="273.1543">ViewRiksdagenMinistry</text><line style="stroke: #A80036; stroke-width: 1.5;" x1="23.5" x2="358.5" y1="285" y2="285"/><polygon fill="none" points="33.5,291.9023,37.5,295.9023,33.5,299.9023,29.5,295.9023" style="stroke: #B38D22; stroke-width: 1.0;"/><text fill="#000000" font-family="sans-serif" font-size="11" lengthAdjust="spacingAndGlyphs" textLength="84" x="42.5" y="299.2104">nameId: String</text><polygon fill="none" points="33.5,304.707,37.5,308.707,33.5,312.707,29.5,308.707" style="stroke: #B38D22; stroke-width: 1.0;"/><text fill="#000000" font-family="sans-serif" font-size="11" lengthAdjust="spacingAndGlyphs" textLength="131" x="42.5" y="312.0151">totalAssignments: long</text><polygon fill="none" points="33.5,317.5117,37.5,321.5117,33.5,325.5117,29.5,321.5117" style="stroke: #B38D22; stroke-width: 1.0;"/><text fill="#000000" font-family="sans-serif" font-size="11" lengthAdjust="spacingAndGlyphs" textLength="150" x="42.5" y="324.8198">firstAssignmentDate: Date</text><polygon fill="none" points="33.5,330.3164,37.5,334.3164,33.5,338.3164,29.5,334.3164" style="stroke: #B38D22; stroke-width: 1.0;"/><text fill="#000000" font-family="sans-serif" font-size="11" lengthAdjust="spacingAndGlyphs" textLength="148" x="42.5" y="337.6245">lastAssignmentDate: Date</text><polygon fill="none" points="33.5,343.1211,37.5,347.1211,33.5,351.1211,29.5,347.1211" style="stroke: #B38D22; stroke-width: 1.0;"/><text fill="#000000" font-family="sans-serif" font-size="11" lengthAdjust="spacingAndGlyphs" textLength="125" x="42.5" y="350.4292">totalDaysServed: long</text><polygon fill="none" points="33.5,355.9258,37.5,359.9258,33.5,363.9258,29.5,359.9258" style="stroke: #B38D22; stroke-width: 1.0;"/><text fill="#000000" font-family="sans-serif" font-size="11" lengthAdjust="spacingAndGlyphs" textLength="142" x="42.5" y="363.2339">currentMemberSize: long</text><polygon fill="none" points="33.5,368.7305,37.5,372.7305,33.5,376.7305,29.5,372.7305" style="stroke: #B38D22; stroke-width: 1.0;"/><text fill="#000000" font-family="sans-serif" font-size="11" lengthAdjust="spacingAndGlyphs" textLength="86" x="42.5" y="376.0386">active: boolean</text><line style="stroke: #A80036; stroke-width: 1.5;" x1="23.5" x2="358.5" y1="382.6328" y2="382.6328"/><ellipse cx="33.5" cy="394.5352" fill="#84BE84" rx="3" ry="3" style="stroke: #038048; stroke-width: 1.0;"/><text fill="#000000" font-family="sans-serif" font-size="11" lengthAdjust="spacingAndGlyphs" textLength="111" x="42.5" y="396.8433">getNameId(): String</text><ellipse cx="33.5" cy="407.3398" fill="#84BE84" rx="3" ry="3" style="stroke: #038048; stroke-width: 1.0;"/><text fill="#000000" font-family="sans-serif" font-size="11" lengthAdjust="spacingAndGlyphs" textLength="134" x="42.5" y="409.6479">setNameId(String): void</text><ellipse cx="33.5" cy="420.1445" fill="#84BE84" rx="3" ry="3" style="stroke: #038048; stroke-width: 1.0;"/><text fill="#000000" font-family="sans-serif" font-size="11" lengthAdjust="spacingAndGlyphs" textLength="160" x="42.5" y="422.4526">getTotalAssignments(): long</text><ellipse cx="33.5" cy="432.9492" fill="#84BE84" rx="3" ry="3" style="stroke: #038048; stroke-width: 1.0;"/><text fill="#000000" font-family="sans-serif" font-size="11" lengthAdjust="spacingAndGlyphs" textLength="183" x="42.5" y="435.2573">setTotalAssignments(long): void</text><ellipse cx="33.5" cy="445.7539" fill="#84BE84" rx="3" ry="3" style="stroke: #038048; stroke-width: 1.0;"/><text fill="#000000" font-family="sans-serif" font-size="11" lengthAdjust="spacingAndGlyphs" textLength="178" x="42.5" y="448.062">getFirstAssignmentDate(): Date</text><ellipse cx="33.5" cy="458.5586" fill="#84BE84" rx="3" ry="3" style="stroke: #038048; stroke-width: 1.0;"/><text fill="#000000" font-family="sans-serif" font-size="11" lengthAdjust="spacingAndGlyphs" textLength="201" x="42.5" y="460.8667">setFirstAssignmentDate(Date): void</text><ellipse cx="33.5" cy="471.3633" fill="#84BE84" rx="3" ry="3" style="stroke: #038048; stroke-width: 1.0;"/><text fill="#000000" font-family="sans-serif" font-size="11" lengthAdjust="spacingAndGlyphs" textLength="177" x="42.5" y="473.6714">getLastAssignmentDate(): Date</text><ellipse cx="33.5" cy="484.168" fill="#84BE84" rx="3" ry="3" style="stroke: #038048; stroke-width: 1.0;"/><text fill="#000000" font-family="sans-serif" font-size="11" lengthAdjust="spacingAndGlyphs" textLength="200" x="42.5" y="486.4761">setLastAssignmentDate(Date): void</text><ellipse cx="33.5" cy="496.9727" fill="#84BE84" rx="3" ry="3" style="stroke: #038048; stroke-width: 1.0;"/><text fill="#000000" font-family="sans-serif" font-size="11" lengthAdjust="spacingAndGlyphs" textLength="154" x="42.5" y="499.2808">getTotalDaysServed(): long</text><ellipse cx="33.5" cy="509.7773" fill="#84BE84" rx="3" ry="3" style="stroke: #038048; stroke-width: 1.0;"/><text fill="#000000" font-family="sans-serif" font-size="11" lengthAdjust="spacingAndGlyphs" textLength="177" x="42.5" y="512.0854">setTotalDaysServed(long): void</text><ellipse cx="33.5" cy="522.582" fill="#84BE84" rx="3" ry="3" style="stroke: #038048; stroke-width: 1.0;"/><text fill="#000000" font-family="sans-serif" font-size="11" lengthAdjust="spacingAndGlyphs" textLength="170" x="42.5" y="524.8901">getCurrentMemberSize(): long</text><ellipse cx="33.5" cy="535.3867" fill="#84BE84" rx="3" ry="3" style="stroke: #038048; stroke-width: 1.0;"/><text fill="#000000" font-family="sans-serif" font-size="11" lengthAdjust="spacingAndGlyphs" textLength="193" x="42.5" y="537.6948">setCurrentMemberSize(long): void</text><ellipse cx="33.5" cy="548.1914" fill="#84BE84" rx="3" ry="3" style="stroke: #038048; stroke-width: 1.0;"/><text fill="#000000" font-family="sans-serif" font-size="11" lengthAdjust="spacingAndGlyphs" textLength="104" x="42.5" y="550.4995">isActive(): boolean</text><ellipse cx="33.5" cy="560.9961" fill="#84BE84" rx="3" ry="3" style="stroke: #038048; stroke-width: 1.0;"/><text fill="#000000" font-family="sans-serif" font-size="11" lengthAdjust="spacingAndGlyphs" textLength="135" x="42.5" y="563.3042">setActive(boolean): void</text><ellipse cx="33.5" cy="573.8008" fill="#84BE84" rx="3" ry="3" style="stroke: #038048; stroke-width: 1.0;"/><text fill="#000000" font-family="sans-serif" font-size="11" lengthAdjust="spacingAndGlyphs" textLength="244" x="42.5" y="576.1089">withNameId(String): ViewRiksdagenMinistry</text><ellipse cx="33.5" cy="586.6055" fill="#84BE84" rx="3" ry="3" style="stroke: #038048; stroke-width: 1.0;"/><text fill="#000000" font-family="sans-serif" font-size="11" lengthAdjust="spacingAndGlyphs" textLength="293" x="42.5" y="588.9136">withTotalAssignments(long): ViewRiksdagenMinistry</text><ellipse cx="33.5" cy="599.4102" fill="#84BE84" rx="3" ry="3" style="stroke: #038048; stroke-width: 1.0;"/><text fill="#000000" font-family="sans-serif" font-size="11" lengthAdjust="spacingAndGlyphs" textLength="311" x="42.5" y="601.7183">withFirstAssignmentDate(Date): ViewRiksdagenMinistry</text><ellipse cx="33.5" cy="612.2148" fill="#84BE84" rx="3" ry="3" style="stroke: #038048; stroke-width: 1.0;"/><text fill="#000000" font-family="sans-serif" font-size="11" lengthAdjust="spacingAndGlyphs" textLength="310" x="42.5" y="614.5229">withLastAssignmentDate(Date): ViewRiksdagenMinistry</text><ellipse cx="33.5" cy="625.0195" fill="#84BE84" rx="3" ry="3" style="stroke: #038048; stroke-width: 1.0;"/><text fill="#000000" font-family="sans-serif" font-size="11" lengthAdjust="spacingAndGlyphs" textLength="287" x="42.5" y="627.3276">withTotalDaysServed(long): ViewRiksdagenMinistry</text><ellipse cx="33.5" cy="637.8242" fill="#84BE84" rx="3" ry="3" style="stroke: #038048; stroke-width: 1.0;"/><text fill="#000000" font-family="sans-serif" font-size="11" lengthAdjust="spacingAndGlyphs" textLength="303" x="42.5" y="640.1323">withCurrentMemberSize(long): ViewRiksdagenMinistry</text><ellipse cx="33.5" cy="650.6289" fill="#84BE84" rx="3" ry="3" style="stroke: #038048; stroke-width: 1.0;"/><text fill="#000000" font-family="sans-serif" font-size="11" lengthAdjust="spacingAndGlyphs" textLength="245" x="42.5" y="652.937">withActive(boolean): ViewRiksdagenMinistry</text></a><!--class com.hack23.cia.model.common.api.ModelObject--><rect fill="#FEFECE" filter="url(#fxg9mdoi1lfsf)" height="48" id="com.hack23.cia.model.common.api.ModelObject" style="stroke: #A80036; stroke-width: 1.5;" width="108" x="337" y="43"/><ellipse cx="352" cy="59" fill="#B4A7E5" rx="11" ry="11" style="stroke: #A80036; stroke-width: 1.0;"/><path d="M347.9219,54.7656 L347.9219,52.6094 L355.3125,52.6094 L355.3125,54.7656 L352.8438,54.7656 L352.8438,62.8438 L355.3125,62.8438 L355.3125,65 L347.9219,65 L347.9219,62.8438 L350.3906,62.8438 L350.3906,54.7656 L347.9219,54.7656 Z "/><text fill="#000000" font-family="sans-serif" font-size="12" font-style="italic" lengthAdjust="spacingAndGlyphs" textLength="76" x="366" y="63.1543">ModelObject</text><line style="stroke: #A80036; stroke-width: 1.5;" x1="338" x2="444" y1="75" y2="75"/><line style="stroke: #A80036; stroke-width: 1.5;" x1="338" x2="444" y1="83" y2="83"/><!--link com.hack23.cia.model.common.api.ModelObject to com.hack23.cia.model.internal.application.data.ministry.impl.ViewRiksdagenGovermentRoleMember--><path d="M412.7061,109.2727 C418.8942,121.3239 426.1491,135.4528 434.1275,150.9908 " fill="none" id="com.hack23.cia.model.common.api.ModelObject-com.hack23.cia.model.internal.application.data.ministry.impl.ViewRiksdagenGovermentRoleMember" style="stroke: #A80036; stroke-width: 1.0; stroke-dasharray: 7.0,7.0;"/><polygon fill="none" points="406.2686,112.0601,403.36,91.071,418.7227,105.6652,406.2686,112.0601" style="stroke: #A80036; stroke-width: 1.0;"/><!--link com.hack23.cia.model.common.api.ModelObject to com.hack23.cia.model.internal.application.data.ministry.impl.ViewRiksdagenMinistry--><path d="M369.285,109.29 C351.0632,144.7769 323.5949,198.2714 295.642,252.7098 " fill="none" id="com.hack23.cia.model.common.api.ModelObject-com.hack23.cia.model.internal.application.data.ministry.impl.ViewRiksdagenMinistry" style="stroke: #A80036; stroke-width: 1.0; stroke-dasharray: 7.0,7.0;"/><polygon fill="none" points="363.2773,105.6652,378.64,91.071,375.7314,112.0601,363.2773,105.6652" style="stroke: #A80036; stroke-width: 1.0;"/><text fill="#888888" font-family="sans-serif" font-size="10" lengthAdjust="spacingAndGlyphs" textLength="186" x="317.5" y="797.2822">UMLDoclet 2.0.5, PlantUML 1.2019.08</text><!--
@startuml
    namespace com.hack23.cia.model.internal.application.data.ministry.impl {

        class ViewRiksdagenGovermentRoleMember [[ViewRiksdagenGovermentRoleMember.html]] {
            #roleId: long
            #detail: String
            #roleCode: String
            #firstName: String
            #lastName: String
            #fromDate: Date
            #toDate: Date
            #personId: String
            #party: String
            #totalDaysServed: int
            #active: boolean
            +getRoleId(): long
            +setRoleId(long): void
            +getDetail(): String
            +setDetail(String): void
            +getRoleCode(): String
            +setRoleCode(String): void
            +getFirstName(): String
            +setFirstName(String): void
            +getLastName(): String
            +setLastName(String): void
            +getFromDate(): Date
            +setFromDate(Date): void
            +getToDate(): Date
            +setToDate(Date): void
            +getPersonId(): String
            +setPersonId(String): void
            +getParty(): String
            +setParty(String): void
            +getTotalDaysServed(): int
            +setTotalDaysServed(int): void
            +isActive(): boolean
            +setActive(boolean): void
            +withRoleId(long): ViewRiksdagenGovermentRoleMember
            +withDetail(String): ViewRiksdagenGovermentRoleMember
            +withRoleCode(String): ViewRiksdagenGovermentRoleMember
            +withFirstName(String): ViewRiksdagenGovermentRoleMember
            +withLastName(String): ViewRiksdagenGovermentRoleMember
            +withFromDate(Date): ViewRiksdagenGovermentRoleMember
            +withToDate(Date): ViewRiksdagenGovermentRoleMember
            +withPersonId(String): ViewRiksdagenGovermentRoleMember
            +withParty(String): ViewRiksdagenGovermentRoleMember
            +withTotalDaysServed(int): ViewRiksdagenGovermentRoleMember
            +withActive(boolean): ViewRiksdagenGovermentRoleMember
        }

        class ViewRiksdagenMinistry [[ViewRiksdagenMinistry.html]] {
            #nameId: String
            #totalAssignments: long
            #firstAssignmentDate: Date
            #lastAssignmentDate: Date
            #totalDaysServed: long
            #currentMemberSize: long
            #active: boolean
            +getNameId(): String
            +setNameId(String): void
            +getTotalAssignments(): long
            +setTotalAssignments(long): void
            +getFirstAssignmentDate(): Date
            +setFirstAssignmentDate(Date): void
            +getLastAssignmentDate(): Date
            +setLastAssignmentDate(Date): void
            +getTotalDaysServed(): long
            +setTotalDaysServed(long): void
            +getCurrentMemberSize(): long
            +setCurrentMemberSize(long): void
            +isActive(): boolean
            +setActive(boolean): void
            +withNameId(String): ViewRiksdagenMinistry
            +withTotalAssignments(long): ViewRiksdagenMinistry
            +withFirstAssignmentDate(Date): ViewRiksdagenMinistry
            +withLastAssignmentDate(Date): ViewRiksdagenMinistry
            +withTotalDaysServed(long): ViewRiksdagenMinistry
            +withCurrentMemberSize(long): ViewRiksdagenMinistry
            +withActive(boolean): ViewRiksdagenMinistry
        }

        com.hack23.cia.model.common.api.ModelObject <|.. ViewRiksdagenGovermentRoleMember
        com.hack23.cia.model.common.api.ModelObject <|.. ViewRiksdagenMinistry
    }

    namespace com.hack23.cia.model.common.api {
        interface ModelObject
    }

    center footer UMLDoclet 2.0.5, PlantUML 1.2019.08
@enduml

PlantUML version 1.2019.08(Sat Jul 13 21:25:14 CEST 2019)
(APACHE source distribution)
Java Runtime: OpenJDK Runtime Environment
JVM: OpenJDK 64-Bit Server VM
Java Version: 11.0.4+11-post-Ubuntu-1ubuntu219.04
Operating System: Linux
OS Version: 5.0.0-27-generic
Default Encoding: UTF-8
Language: en
Country: US
--></g></svg>