<svg xmlns="http://www.w3.org/2000/svg" xmlns:xlink="http://www.w3.org/1999/xlink" contentStyleType="text/css" height="1475px" preserveAspectRatio="none" style="width:512px;height:1475px;background:#FFFFFF;" version="1.1" viewBox="0 0 512 1475" width="512px" zoomAndPan="magnify"><defs/><g><!--class com.hack23.cia.model.internal.application.data.ministry.impl.ViewRiksdagenGovermentRoleMember--><a href="ViewRiksdagenGovermentRoleMember.html" target="_top" title="ViewRiksdagenGovermentRoleMember.html" xlink:actuate="onRequest" xlink:href="ViewRiksdagenGovermentRoleMember.html" xlink:show="new" xlink:title="ViewRiksdagenGovermentRoleMember.html" xlink:type="simple"><g id="elem_com.hack23.cia.model.internal.application.data.ministry.impl.ViewRiksdagenGovermentRoleMember"><rect codeLine="13" fill="#F1F1F1" height="1355.3063" id="com.hack23.cia.model.internal.application.data.ministry.impl.ViewRiksdagenGovermentRoleMember" rx="2.5" ry="2.5" style="stroke:#181818;stroke-width:0.5;" width="499.5061" x="6" y="91"/><ellipse cx="108.4332" cy="112.344" fill="#ADD1B2" rx="11" ry="11" style="stroke:#181818;stroke-width:1.0;"/><path d="M111.4019,117.9846 Q110.8238,118.2815 110.1832,118.4221 Q109.5426,118.5783 108.8394,118.5783 Q106.3394,118.5783 105.0113,116.9377 Q103.6988,115.2815 103.6988,112.1565 Q103.6988,109.0315 105.0113,107.3752 Q106.3394,105.719 108.8394,105.719 Q109.5426,105.719 110.1832,105.8752 Q110.8394,106.0315 111.4019,106.3283 L111.4019,109.0471 Q110.7769,108.469 110.1832,108.2033 Q109.5894,107.9221 108.9644,107.9221 Q107.6207,107.9221 106.9332,109.0002 Q106.2457,110.0627 106.2457,112.1565 Q106.2457,114.2502 106.9332,115.3283 Q107.6207,116.3908 108.9644,116.3908 Q109.5894,116.3908 110.1832,116.1252 Q110.7769,115.844 111.4019,115.2658 L111.4019,117.9846 Z " fill="#000000"/><text fill="#000000" font-family="sans-serif" font-size="14" lengthAdjust="spacing" textLength="257.837" x="143.0846" y="110.9659">ViewRiksdagenGovermentRoleMember</text><text fill="#000000" font-family="sans-serif" font-size="10" lengthAdjust="spacing" textLength="286.1398" x="128.9332" y="125.7579">com.hack23.cia.model.internal.application.data.ministry.impl</text><line style="stroke:#181818;stroke-width:0.5;" x1="7" x2="504.5061" y1="133.6879" y2="133.6879"/><polygon fill="none" points="17,143.7219,21,147.7219,17,151.7219,13,147.7219" style="stroke:#B38D22;stroke-width:1.0;"/><text fill="#000000" font-family="sans-serif" font-size="14" lengthAdjust="spacing" textLength="75.8517" x="26" y="152.6538">roleId: long</text><polygon fill="none" points="17,162.7898,21,166.7898,17,170.7898,13,166.7898" style="stroke:#B38D22;stroke-width:1.0;"/><text fill="#000000" font-family="sans-serif" font-size="14" lengthAdjust="spacing" textLength="83.4257" x="26" y="171.7218">detail: String</text><polygon fill="none" points="17,181.8577,21,185.8577,17,189.8577,13,185.8577" style="stroke:#B38D22;stroke-width:1.0;"/><text fill="#000000" font-family="sans-serif" font-size="14" lengthAdjust="spacing" textLength="106.3716" x="26" y="190.7897">roleCode: String</text><polygon fill="none" points="17,200.9256,21,204.9256,17,208.9256,13,204.9256" style="stroke:#B38D22;stroke-width:1.0;"/><text fill="#000000" font-family="sans-serif" font-size="14" lengthAdjust="spacing" textLength="112.2376" x="26" y="209.8576">firstName: String</text><polygon fill="none" points="17,219.9935,21,223.9935,17,227.9935,13,223.9935" style="stroke:#B38D22;stroke-width:1.0;"/><text fill="#000000" font-family="sans-serif" font-size="14" lengthAdjust="spacing" textLength="109.4936" x="26" y="228.9255">lastName: String</text><polygon fill="none" points="17,239.0614,21,243.0614,17,247.0614,13,243.0614" style="stroke:#B38D22;stroke-width:1.0;"/><text fill="#000000" font-family="sans-serif" font-size="14" lengthAdjust="spacing" textLength="101.5976" x="26" y="247.9934">fromDate: Date</text><polygon fill="none" points="17,258.1294,21,262.1294,17,266.1294,13,262.1294" style="stroke:#B38D22;stroke-width:1.0;"/><text fill="#000000" font-family="sans-serif" font-size="14" lengthAdjust="spacing" textLength="82.9637" x="26" y="267.0613">toDate: Date</text><polygon fill="none" points="17,277.1973,21,281.1973,17,285.1973,13,281.1973" style="stroke:#B38D22;stroke-width:1.0;"/><text fill="#000000" font-family="sans-serif" font-size="14" lengthAdjust="spacing" textLength="106.2596" x="26" y="286.1293">personId: String</text><polygon fill="none" points="17,296.2652,21,300.2652,17,304.2652,13,300.2652" style="stroke:#B38D22;stroke-width:1.0;"/><text fill="#000000" font-family="sans-serif" font-size="14" lengthAdjust="spacing" textLength="81.2277" x="26" y="305.1972">party: String</text><polygon fill="none" points="17,315.3331,21,319.3331,17,323.3331,13,319.3331" style="stroke:#B38D22;stroke-width:1.0;"/><text fill="#000000" font-family="sans-serif" font-size="14" lengthAdjust="spacing" textLength="131.6555" x="26" y="324.2651">totalDaysServed: int</text><polygon fill="none" points="17,334.401,21,338.401,17,342.401,13,338.401" style="stroke:#B38D22;stroke-width:1.0;"/><text fill="#000000" font-family="sans-serif" font-size="14" lengthAdjust="spacing" textLength="99.2036" x="26" y="343.333">active: boolean</text><polygon fill="none" points="17,353.4689,21,357.4689,17,361.4689,13,357.4689" style="stroke:#B38D22;stroke-width:1.0;"/><text fill="#000000" font-family="sans-serif" font-size="14" lengthAdjust="spacing" textLength="142.2395" x="26" y="362.4009">totalDocuments: long</text><polygon fill="none" points="17,372.5369,21,376.5369,17,380.5369,13,376.5369" style="stroke:#B38D22;stroke-width:1.0;"/><text fill="#000000" font-family="sans-serif" font-size="14" lengthAdjust="spacing" textLength="166.9914" x="26" y="381.4688">documentsLastYear: long</text><polygon fill="none" points="17,391.6048,21,395.6048,17,399.6048,13,395.6048" style="stroke:#B38D22;stroke-width:1.0;"/><text fill="#000000" font-family="sans-serif" font-size="14" lengthAdjust="spacing" textLength="149.3935" x="26" y="400.5368">totalPropositions: long</text><polygon fill="none" points="17,410.6727,21,414.6727,17,418.6727,13,414.6727" style="stroke:#B38D22;stroke-width:1.0;"/><text fill="#000000" font-family="sans-serif" font-size="14" lengthAdjust="spacing" textLength="176.2173" x="26" y="419.6047">totalGovernmentBills: long</text><polygon fill="none" points="17,429.7406,21,433.7406,17,437.7406,13,433.7406" style="stroke:#B38D22;stroke-width:1.0;"/><text fill="#000000" font-family="sans-serif" font-size="14" lengthAdjust="spacing" textLength="126.7975" x="26" y="438.6726">activityLevel: String</text><polygon fill="none" points="17,448.8085,21,452.8085,17,456.8085,13,452.8085" style="stroke:#B38D22;stroke-width:1.0;"/><text fill="#000000" font-family="sans-serif" font-size="14" lengthAdjust="spacing" textLength="103.9776" x="26" y="457.7405">roleType: String</text><line style="stroke:#181818;stroke-width:0.5;" x1="7" x2="504.5061" y1="465.8425" y2="465.8425"/><ellipse cx="17" cy="480.8764" fill="#84BE84" rx="3" ry="3" style="stroke:#038048;stroke-width:1.0;"/><text fill="#000000" font-family="sans-serif" font-size="14" lengthAdjust="spacing" textLength="108.7376" x="26" y="484.8084">getRoleId(): long</text><ellipse cx="17" cy="499.9444" fill="#84BE84" rx="3" ry="3" style="stroke:#038048;stroke-width:1.0;"/><text fill="#000000" font-family="sans-serif" font-size="14" lengthAdjust="spacing" textLength="134.6375" x="26" y="503.8763">setRoleId(long): void</text><ellipse cx="17" cy="519.0123" fill="#84BE84" rx="3" ry="3" style="stroke:#038048;stroke-width:1.0;"/><text fill="#000000" font-family="sans-serif" font-size="14" lengthAdjust="spacing" textLength="114.9956" x="26" y="522.9443">getDetail(): String</text><ellipse cx="17" cy="538.0802" fill="#84BE84" rx="3" ry="3" style="stroke:#038048;stroke-width:1.0;"/><text fill="#000000" font-family="sans-serif" font-size="14" lengthAdjust="spacing" textLength="140.8955" x="26" y="542.0122">setDetail(String): void</text><ellipse cx="17" cy="557.1481" fill="#84BE84" rx="3" ry="3" style="stroke:#038048;stroke-width:1.0;"/><text fill="#000000" font-family="sans-serif" font-size="14" lengthAdjust="spacing" textLength="139.2575" x="26" y="561.0801">getRoleCode(): String</text><ellipse cx="17" cy="576.216" fill="#84BE84" rx="3" ry="3" style="stroke:#038048;stroke-width:1.0;"/><text fill="#000000" font-family="sans-serif" font-size="14" lengthAdjust="spacing" textLength="165.1574" x="26" y="580.148">setRoleCode(String): void</text><ellipse cx="17" cy="595.284" fill="#84BE84" rx="3" ry="3" style="stroke:#038048;stroke-width:1.0;"/><text fill="#000000" font-family="sans-serif" font-size="14" lengthAdjust="spacing" textLength="144.6475" x="26" y="599.2159">getFirstName(): String</text><ellipse cx="17" cy="614.3519" fill="#84BE84" rx="3" ry="3" style="stroke:#038048;stroke-width:1.0;"/><text fill="#000000" font-family="sans-serif" font-size="14" lengthAdjust="spacing" textLength="170.5474" x="26" y="618.2838">setFirstName(String): void</text><ellipse cx="17" cy="633.4198" fill="#84BE84" rx="3" ry="3" style="stroke:#038048;stroke-width:1.0;"/><text fill="#000000" font-family="sans-serif" font-size="14" lengthAdjust="spacing" textLength="143.1775" x="26" y="637.3518">getLastName(): String</text><ellipse cx="17" cy="652.4877" fill="#84BE84" rx="3" ry="3" style="stroke:#038048;stroke-width:1.0;"/><text fill="#000000" font-family="sans-serif" font-size="14" lengthAdjust="spacing" textLength="169.0774" x="26" y="656.4197">setLastName(String): void</text><ellipse cx="17" cy="671.5556" fill="#84BE84" rx="3" ry="3" style="stroke:#038048;stroke-width:1.0;"/><text fill="#000000" font-family="sans-serif" font-size="14" lengthAdjust="spacing" textLength="134.0075" x="26" y="675.4876">getFromDate(): Date</text><ellipse cx="17" cy="690.6235" fill="#84BE84" rx="3" ry="3" style="stroke:#038048;stroke-width:1.0;"/><text fill="#000000" font-family="sans-serif" font-size="14" lengthAdjust="spacing" textLength="159.9074" x="26" y="694.5555">setFromDate(Date): void</text><ellipse cx="17" cy="709.6915" fill="#84BE84" rx="3" ry="3" style="stroke:#038048;stroke-width:1.0;"/><text fill="#000000" font-family="sans-serif" font-size="14" lengthAdjust="spacing" textLength="115.6535" x="26" y="713.6234">getToDate(): Date</text><ellipse cx="17" cy="728.7594" fill="#84BE84" rx="3" ry="3" style="stroke:#038048;stroke-width:1.0;"/><text fill="#000000" font-family="sans-serif" font-size="14" lengthAdjust="spacing" textLength="141.5535" x="26" y="732.6913">setToDate(Date): void</text><ellipse cx="17" cy="747.8273" fill="#84BE84" rx="3" ry="3" style="stroke:#038048;stroke-width:1.0;"/><text fill="#000000" font-family="sans-serif" font-size="14" lengthAdjust="spacing" textLength="136.0795" x="26" y="751.7593">getPersonId(): String</text><ellipse cx="17" cy="766.8952" fill="#84BE84" rx="3" ry="3" style="stroke:#038048;stroke-width:1.0;"/><text fill="#000000" font-family="sans-serif" font-size="14" lengthAdjust="spacing" textLength="161.9794" x="26" y="770.8272">setPersonId(String): void</text><ellipse cx="17" cy="785.9631" fill="#84BE84" rx="3" ry="3" style="stroke:#038048;stroke-width:1.0;"/><text fill="#000000" font-family="sans-serif" font-size="14" lengthAdjust="spacing" textLength="111.0476" x="26" y="789.8951">getParty(): String</text><ellipse cx="17" cy="805.031" fill="#84BE84" rx="3" ry="3" style="stroke:#038048;stroke-width:1.0;"/><text fill="#000000" font-family="sans-serif" font-size="14" lengthAdjust="spacing" textLength="136.9475" x="26" y="808.963">setParty(String): void</text><ellipse cx="17" cy="824.099" fill="#84BE84" rx="3" ry="3" style="stroke:#038048;stroke-width:1.0;"/><text fill="#000000" font-family="sans-serif" font-size="14" lengthAdjust="spacing" textLength="164.3454" x="26" y="828.0309">getTotalDaysServed(): int</text><ellipse cx="17" cy="843.1669" fill="#84BE84" rx="3" ry="3" style="stroke:#038048;stroke-width:1.0;"/><text fill="#000000" font-family="sans-serif" font-size="14" lengthAdjust="spacing" textLength="190.2453" x="26" y="847.0988">setTotalDaysServed(int): void</text><ellipse cx="17" cy="862.2348" fill="#84BE84" rx="3" ry="3" style="stroke:#038048;stroke-width:1.0;"/><text fill="#000000" font-family="sans-serif" font-size="14" lengthAdjust="spacing" textLength="119.0135" x="26" y="866.1668">isActive(): boolean</text><ellipse cx="17" cy="881.3027" fill="#84BE84" rx="3" ry="3" style="stroke:#038048;stroke-width:1.0;"/><text fill="#000000" font-family="sans-serif" font-size="14" lengthAdjust="spacing" textLength="156.1554" x="26" y="885.2347">setActive(boolean): void</text><ellipse cx="17" cy="900.3706" fill="#84BE84" rx="3" ry="3" style="stroke:#038048;stroke-width:1.0;"/><text fill="#000000" font-family="sans-serif" font-size="14" lengthAdjust="spacing" textLength="174.9293" x="26" y="904.3026">getTotalDocuments(): long</text><ellipse cx="17" cy="919.4385" fill="#84BE84" rx="3" ry="3" style="stroke:#038048;stroke-width:1.0;"/><text fill="#000000" font-family="sans-serif" font-size="14" lengthAdjust="spacing" textLength="200.8292" x="26" y="923.3705">setTotalDocuments(long): void</text><ellipse cx="17" cy="938.5065" fill="#84BE84" rx="3" ry="3" style="stroke:#038048;stroke-width:1.0;"/><text fill="#000000" font-family="sans-serif" font-size="14" lengthAdjust="spacing" textLength="198.5612" x="26" y="942.4384">getDocumentsLastYear(): long</text><ellipse cx="17" cy="957.5744" fill="#84BE84" rx="3" ry="3" style="stroke:#038048;stroke-width:1.0;"/><text fill="#000000" font-family="sans-serif" font-size="14" lengthAdjust="spacing" textLength="224.4611" x="26" y="961.5063">setDocumentsLastYear(long): void</text><ellipse cx="17" cy="976.6423" fill="#84BE84" rx="3" ry="3" style="stroke:#038048;stroke-width:1.0;"/><text fill="#000000" font-family="sans-serif" font-size="14" lengthAdjust="spacing" textLength="182.0833" x="26" y="980.5743">getTotalPropositions(): long</text><ellipse cx="17" cy="995.7102" fill="#84BE84" rx="3" ry="3" style="stroke:#038048;stroke-width:1.0;"/><text fill="#000000" font-family="sans-serif" font-size="14" lengthAdjust="spacing" textLength="207.9832" x="26" y="999.6422">setTotalPropositions(long): void</text><ellipse cx="17" cy="1014.7781" fill="#84BE84" rx="3" ry="3" style="stroke:#038048;stroke-width:1.0;"/><text fill="#000000" font-family="sans-serif" font-size="14" lengthAdjust="spacing" textLength="208.9072" x="26" y="1018.7101">getTotalGovernmentBills(): long</text><ellipse cx="17" cy="1033.846" fill="#84BE84" rx="3" ry="3" style="stroke:#038048;stroke-width:1.0;"/><text fill="#000000" font-family="sans-serif" font-size="14" lengthAdjust="spacing" textLength="234.8071" x="26" y="1037.778">setTotalGovernmentBills(long): void</text><ellipse cx="17" cy="1052.914" fill="#84BE84" rx="3" ry="3" style="stroke:#038048;stroke-width:1.0;"/><text fill="#000000" font-family="sans-serif" font-size="14" lengthAdjust="spacing" textLength="157.8494" x="26" y="1056.8459">getActivityLevel(): String</text><ellipse cx="17" cy="1071.9819" fill="#84BE84" rx="3" ry="3" style="stroke:#038048;stroke-width:1.0;"/><text fill="#000000" font-family="sans-serif" font-size="14" lengthAdjust="spacing" textLength="183.7493" x="26" y="1075.9138">setActivityLevel(String): void</text><ellipse cx="17" cy="1091.0498" fill="#84BE84" rx="3" ry="3" style="stroke:#038048;stroke-width:1.0;"/><text fill="#000000" font-family="sans-serif" font-size="14" lengthAdjust="spacing" textLength="136.8635" x="26" y="1094.9818">getRoleType(): String</text><ellipse cx="17" cy="1110.1177" fill="#84BE84" rx="3" ry="3" style="stroke:#038048;stroke-width:1.0;"/><text fill="#000000" font-family="sans-serif" font-size="14" lengthAdjust="spacing" textLength="162.7634" x="26" y="1114.0497">setRoleType(String): void</text><ellipse cx="17" cy="1129.1856" fill="#84BE84" rx="3" ry="3" style="stroke:#038048;stroke-width:1.0;"/><text fill="#000000" font-family="sans-serif" font-size="14" lengthAdjust="spacing" textLength="439.5283" x="26" y="1133.1176">withTotalDocuments(long): ViewRiksdagenGovermentRoleMember</text><ellipse cx="17" cy="1148.2535" fill="#84BE84" rx="3" ry="3" style="stroke:#038048;stroke-width:1.0;"/><text fill="#000000" font-family="sans-serif" font-size="14" lengthAdjust="spacing" textLength="463.1602" x="26" y="1152.1855">withDocumentsLastYear(long): ViewRiksdagenGovermentRoleMember</text><ellipse cx="17" cy="1167.3215" fill="#84BE84" rx="3" ry="3" style="stroke:#038048;stroke-width:1.0;"/><text fill="#000000" font-family="sans-serif" font-size="14" lengthAdjust="spacing" textLength="446.6823" x="26" y="1171.2534">withTotalPropositions(long): ViewRiksdagenGovermentRoleMember</text><ellipse cx="17" cy="1186.3894" fill="#84BE84" rx="3" ry="3" style="stroke:#038048;stroke-width:1.0;"/><text fill="#000000" font-family="sans-serif" font-size="14" lengthAdjust="spacing" textLength="473.5061" x="26" y="1190.3214">withTotalGovernmentBills(long): ViewRiksdagenGovermentRoleMember</text><ellipse cx="17" cy="1205.4573" fill="#84BE84" rx="3" ry="3" style="stroke:#038048;stroke-width:1.0;"/><text fill="#000000" font-family="sans-serif" font-size="14" lengthAdjust="spacing" textLength="422.4483" x="26" y="1209.3893">withActivityLevel(String): ViewRiksdagenGovermentRoleMember</text><ellipse cx="17" cy="1224.5252" fill="#84BE84" rx="3" ry="3" style="stroke:#038048;stroke-width:1.0;"/><text fill="#000000" font-family="sans-serif" font-size="14" lengthAdjust="spacing" textLength="401.4624" x="26" y="1228.4572">withRoleType(String): ViewRiksdagenGovermentRoleMember</text><ellipse cx="17" cy="1243.5931" fill="#84BE84" rx="3" ry="3" style="stroke:#038048;stroke-width:1.0;"/><text fill="#000000" font-family="sans-serif" font-size="14" lengthAdjust="spacing" textLength="373.3366" x="26" y="1247.5251">withRoleId(long): ViewRiksdagenGovermentRoleMember</text><ellipse cx="17" cy="1262.661" fill="#84BE84" rx="3" ry="3" style="stroke:#038048;stroke-width:1.0;"/><text fill="#000000" font-family="sans-serif" font-size="14" lengthAdjust="spacing" textLength="379.5945" x="26" y="1266.593">withDetail(String): ViewRiksdagenGovermentRoleMember</text><ellipse cx="17" cy="1281.729" fill="#84BE84" rx="3" ry="3" style="stroke:#038048;stroke-width:1.0;"/><text fill="#000000" font-family="sans-serif" font-size="14" lengthAdjust="spacing" textLength="403.8564" x="26" y="1285.6609">withRoleCode(String): ViewRiksdagenGovermentRoleMember</text><ellipse cx="17" cy="1300.7969" fill="#84BE84" rx="3" ry="3" style="stroke:#038048;stroke-width:1.0;"/><text fill="#000000" font-family="sans-serif" font-size="14" lengthAdjust="spacing" textLength="409.2464" x="26" y="1304.7289">withFirstName(String): ViewRiksdagenGovermentRoleMember</text><ellipse cx="17" cy="1319.8648" fill="#84BE84" rx="3" ry="3" style="stroke:#038048;stroke-width:1.0;"/><text fill="#000000" font-family="sans-serif" font-size="14" lengthAdjust="spacing" textLength="407.7765" x="26" y="1323.7968">withLastName(String): ViewRiksdagenGovermentRoleMember</text><ellipse cx="17" cy="1338.9327" fill="#84BE84" rx="3" ry="3" style="stroke:#038048;stroke-width:1.0;"/><text fill="#000000" font-family="sans-serif" font-size="14" lengthAdjust="spacing" textLength="398.6065" x="26" y="1342.8647">withFromDate(Date): ViewRiksdagenGovermentRoleMember</text><ellipse cx="17" cy="1358.0006" fill="#84BE84" rx="3" ry="3" style="stroke:#038048;stroke-width:1.0;"/><text fill="#000000" font-family="sans-serif" font-size="14" lengthAdjust="spacing" textLength="380.2525" x="26" y="1361.9326">withToDate(Date): ViewRiksdagenGovermentRoleMember</text><ellipse cx="17" cy="1377.0685" fill="#84BE84" rx="3" ry="3" style="stroke:#038048;stroke-width:1.0;"/><text fill="#000000" font-family="sans-serif" font-size="14" lengthAdjust="spacing" textLength="400.6785" x="26" y="1381.0005">withPersonId(String): ViewRiksdagenGovermentRoleMember</text><ellipse cx="17" cy="1396.1365" fill="#84BE84" rx="3" ry="3" style="stroke:#038048;stroke-width:1.0;"/><text fill="#000000" font-family="sans-serif" font-size="14" lengthAdjust="spacing" textLength="375.6466" x="26" y="1400.0684">withParty(String): ViewRiksdagenGovermentRoleMember</text><ellipse cx="17" cy="1415.2044" fill="#84BE84" rx="3" ry="3" style="stroke:#038048;stroke-width:1.0;"/><text fill="#000000" font-family="sans-serif" font-size="14" lengthAdjust="spacing" textLength="428.9444" x="26" y="1419.1364">withTotalDaysServed(int): ViewRiksdagenGovermentRoleMember</text><ellipse cx="17" cy="1434.2723" fill="#84BE84" rx="3" ry="3" style="stroke:#038048;stroke-width:1.0;"/><text fill="#000000" font-family="sans-serif" font-size="14" lengthAdjust="spacing" textLength="394.8545" x="26" y="1438.2043">withActive(boolean): ViewRiksdagenGovermentRoleMember</text></g></a><!--class com.hack23.cia.model.common.api.ModelObject--><g id="elem_com.hack23.cia.model.common.api.ModelObject"><rect codeLine="84" fill="#F1F1F1" height="42.6879" id="com.hack23.cia.model.common.api.ModelObject" rx="2.5" ry="2.5" style="stroke:#181818;stroke-width:0.5;" width="189.3398" x="161.5" y="12"/><ellipse cx="176.5" cy="33.344" fill="#B4A7E5" rx="11" ry="11" style="stroke:#181818;stroke-width:1.0;"/><path d="M172.4219,29.1096 L172.4219,26.9533 L179.8125,26.9533 L179.8125,29.1096 L177.3438,29.1096 L177.3438,37.1877 L179.8125,37.1877 L179.8125,39.344 L172.4219,39.344 L172.4219,37.1877 L174.8906,37.1877 L174.8906,29.1096 L172.4219,29.1096 Z " fill="#000000"/><text fill="#000000" font-family="sans-serif" font-size="14" font-style="italic" lengthAdjust="spacing" textLength="78.1477" x="230.096" y="31.9659">ModelObject</text><text fill="#000000" font-family="sans-serif" font-size="10" font-style="italic" lengthAdjust="spacing" textLength="157.3398" x="190.5" y="46.7579">com.hack23.cia.model.common.api</text></g><polygon fill="none" points="256,55.2565,250,73.2565,262,73.2565,256,55.2565" style="stroke:#181818;stroke-width:1.0;"/><path d="M256,73.2565 C256,82.4593 256,76.4813 256,90.8327 " fill="none" style="stroke:#181818;stroke-width:1.0;stroke-dasharray:7.0,7.0;"/><text fill="#888888" font-family="sans-serif" font-size="10" lengthAdjust="spacing" textLength="2.6" x="251.2" y="1450.69">&#160;</text><a href="https://github.com/talsma-ict/umldoclet" target="_top" title="https://github.com/talsma-ict/umldoclet" xlink:actuate="onRequest" xlink:href="https://github.com/talsma-ict/umldoclet" xlink:show="new" xlink:title="https://github.com/talsma-ict/umldoclet" xlink:type="simple"><text fill="#888888" font-family="sans-serif" font-size="10" lengthAdjust="spacing" textLength="76.7199" x="214.14" y="1464.31">UMLDoclet 2.2.1</text></a><!--SRC=[jLTjRzis4FxUNy6r7vOY3MsfHPqPGG3FsReCpXR4xe31zGTQeYtE5AcHb0EjxN_VKPPblPXEbM7-OCDyxXuUxuN7GmYXxz5O9fbYwyWW8v69c4OVxoQ8Y12jgQ2A61eY5fCrrMX9kHHhlHEaYAGcaWh9LVula4fHdKWHCh56lv8jGLgcAg0QltY1ygrcU_P7eYlioymktiY0KuFEngyh9lbzx_s5t_VVeHdXEYReTZp31Tj1nyS-zX1mSnPGeO4o5I5LkLcZX0JmCzaXRz2MAisa09r-mMEF6aXX21CQ9KGPROzqpuamrbOFs_tn09sDffEwRVqVSjlUe94I90tHW_mxBO_xNQB86Ypc99EfGJgcXWYompGOBKWCxY81dLBOb1Zmf922vdZ4Gefed9WChHZbeMwk0baaOJbV3pZH6hsyqkmVElJUNV_1wEC3s-WGWYO-I3XnJ8Lva9pUqNX9rITHYFQl0ndZY0GR_oqE6C6n32d7J1WA1-AO90bub1Zm5mw90Pm9fetAC8iJ_X915FyB0NxAK3IVFoM28nFpnG9zpZrXFwyKWBVX4DbSFQo6u7x6XsXg5AkkM-anMDr6Lanfynj4gGs1mnt8Iidu1h9wYEptOTt8Owi99ACKrjWcZyt3hBrif27yXcHwIjMMWXwu-e2ImB0jRBAKS2WYcceoIAtpTCirUs02n_gJ4jKKoDNlbKoaPZQM-gX07XrXYNvadBTaSkEOoIPqInrnc6L9swNdQvh7-pOyUztWFDSbPDS1taeMrZHlyh1RpIQjBi4TSapxeKWEXtu9knb-tYUHW-A0kpacv2H52P-meiXAor3BmDo4FMY_ZcdFf5EtW5oQzqL-EomlORVbzxOENEevvjQTrOl5ibJBPMT_NGJm5XFJexokh7wpiYn7WHQGsv1zbHrDuuQ8CvsRfNgKh2tbufirAzjjN4tg95_Z8d1JDWLThAFgrU58XhhCwPAszyo9aivX1yCZCz7nM3tLgUeSpX1ret56vXaqZcXqOtA4eHj9EmZTzGyzeMDW6ZsX-yxrZj1D_qWxw4RGRWOT3MWqWwvvz7pTTZFeg5_l1iyeW5OVU4RgL_l0Dwb_tRtXyoVp2gQ1oZl-pZwcVr_-HGFpr9CT5cDuOvE4kL_b1nbSOIv6Y6zNG5TVCFv_t_qxcwwqoJYzBfsyaXBeAozz-_a5hWarOM8pbXmcg5UNnz6FTXxaJ50OGOEDe30lzKl9hxljUfNzYhq-YVayCYRHmrvl3I5EbzOfFPFFeXSiCBqqvk5k26sCeuj5CLv-AETSEojUUFw5VpdptW_zjqFFnmD_C1XSUfv_tlU6_VxyfnGkSzgR6Xbi8idZnRy0]--></g></svg>