<svg xmlns="http://www.w3.org/2000/svg" xmlns:xlink="http://www.w3.org/1999/xlink" contentStyleType="text/css" height="1170px" preserveAspectRatio="none" style="width:459px;height:1170px;background:#FFFFFF;" version="1.1" viewBox="0 0 459 1170" width="459px" zoomAndPan="magnify"><defs/><g><!--class com.hack23.cia.model.internal.application.data.ministry.impl.ViewRiksdagenMinistry--><a href="ViewRiksdagenMinistry.html" target="_top" title="ViewRiksdagenMinistry.html" xlink:actuate="onRequest" xlink:href="ViewRiksdagenMinistry.html" xlink:show="new" xlink:title="ViewRiksdagenMinistry.html" xlink:type="simple"><g id="elem_com.hack23.cia.model.internal.application.data.ministry.impl.ViewRiksdagenMinistry"><rect codeLine="13" fill="#F1F1F1" height="1050.2196" id="com.hack23.cia.model.internal.application.data.ministry.impl.ViewRiksdagenMinistry" rx="2.5" ry="2.5" style="stroke:#181818;stroke-width:0.5;" width="446.5024" x="6" y="91"/><ellipse cx="81.9313" cy="112.344" fill="#ADD1B2" rx="11" ry="11" style="stroke:#181818;stroke-width:1.0;"/><path d="M84.9001,117.9846 Q84.3219,118.2815 83.6813,118.4221 Q83.0407,118.5783 82.3376,118.5783 Q79.8376,118.5783 78.5094,116.9377 Q77.1969,115.2815 77.1969,112.1565 Q77.1969,109.0315 78.5094,107.3752 Q79.8376,105.719 82.3376,105.719 Q83.0407,105.719 83.6813,105.8752 Q84.3376,106.0315 84.9001,106.3283 L84.9001,109.0471 Q84.2751,108.469 83.6813,108.2033 Q83.0876,107.9221 82.4626,107.9221 Q81.1188,107.9221 80.4313,109.0002 Q79.7438,110.0627 79.7438,112.1565 Q79.7438,114.2502 80.4313,115.3283 Q81.1188,116.3908 82.4626,116.3908 Q83.0876,116.3908 83.6813,116.1252 Q84.2751,115.844 84.9001,115.2658 L84.9001,117.9846 Z " fill="#000000"/><text fill="#000000" font-family="sans-serif" font-size="14" lengthAdjust="spacing" textLength="152.2914" x="169.3555" y="110.9659">ViewRiksdagenMinistry</text><text fill="#000000" font-family="sans-serif" font-size="10" lengthAdjust="spacing" textLength="286.1398" x="102.4313" y="125.7579">com.hack23.cia.model.internal.application.data.ministry.impl</text><line style="stroke:#181818;stroke-width:0.5;" x1="7" x2="451.5024" y1="133.6879" y2="133.6879"/><polygon fill="none" points="17,143.7219,21,147.7219,17,151.7219,13,147.7219" style="stroke:#B38D22;stroke-width:1.0;"/><text fill="#000000" font-family="sans-serif" font-size="14" lengthAdjust="spacing" textLength="97.6356" x="26" y="152.6538">nameId: String</text><polygon fill="none" points="17,162.7898,21,166.7898,17,170.7898,13,166.7898" style="stroke:#B38D22;stroke-width:1.0;"/><text fill="#000000" font-family="sans-serif" font-size="14" lengthAdjust="spacing" textLength="151.4094" x="26" y="171.7218">totalAssignments: long</text><polygon fill="none" points="17,181.8577,21,185.8577,17,189.8577,13,185.8577" style="stroke:#B38D22;stroke-width:1.0;"/><text fill="#000000" font-family="sans-serif" font-size="14" lengthAdjust="spacing" textLength="173.3333" x="26" y="190.7897">firstAssignmentDate: Date</text><polygon fill="none" points="17,200.9256,21,204.9256,17,208.9256,13,204.9256" style="stroke:#B38D22;stroke-width:1.0;"/><text fill="#000000" font-family="sans-serif" font-size="14" lengthAdjust="spacing" textLength="170.5894" x="26" y="209.8576">lastAssignmentDate: Date</text><polygon fill="none" points="17,219.9935,21,223.9935,17,227.9935,13,223.9935" style="stroke:#B38D22;stroke-width:1.0;"/><text fill="#000000" font-family="sans-serif" font-size="14" lengthAdjust="spacing" textLength="143.6815" x="26" y="228.9255">totalDaysServed: long</text><polygon fill="none" points="17,239.0614,21,243.0614,17,247.0614,13,243.0614" style="stroke:#B38D22;stroke-width:1.0;"/><text fill="#000000" font-family="sans-serif" font-size="14" lengthAdjust="spacing" textLength="167.0193" x="26" y="247.9934">currentMemberSize: long</text><polygon fill="none" points="17,258.1294,21,262.1294,17,266.1294,13,262.1294" style="stroke:#B38D22;stroke-width:1.0;"/><text fill="#000000" font-family="sans-serif" font-size="14" lengthAdjust="spacing" textLength="99.2036" x="26" y="267.0613">active: boolean</text><polygon fill="none" points="17,277.1973,21,281.1973,17,285.1973,13,281.1973" style="stroke:#B38D22;stroke-width:1.0;"/><text fill="#000000" font-family="sans-serif" font-size="14" lengthAdjust="spacing" textLength="142.2395" x="26" y="286.1293">totalDocuments: long</text><polygon fill="none" points="17,296.2652,21,300.2652,17,304.2652,13,300.2652" style="stroke:#B38D22;stroke-width:1.0;"/><text fill="#000000" font-family="sans-serif" font-size="14" lengthAdjust="spacing" textLength="166.9914" x="26" y="305.1972">documentsLastYear: long</text><polygon fill="none" points="17,315.3331,21,319.3331,17,323.3331,13,319.3331" style="stroke:#B38D22;stroke-width:1.0;"/><text fill="#000000" font-family="sans-serif" font-size="14" lengthAdjust="spacing" textLength="230.3971" x="26" y="324.2651">avgDocumentsPerMember: double</text><polygon fill="none" points="17,334.401,21,338.401,17,342.401,13,338.401" style="stroke:#B38D22;stroke-width:1.0;"/><text fill="#000000" font-family="sans-serif" font-size="14" lengthAdjust="spacing" textLength="149.3935" x="26" y="343.333">totalPropositions: long</text><polygon fill="none" points="17,353.4689,21,357.4689,17,361.4689,13,357.4689" style="stroke:#B38D22;stroke-width:1.0;"/><text fill="#000000" font-family="sans-serif" font-size="14" lengthAdjust="spacing" textLength="176.2173" x="26" y="362.4009">totalGovernmentBills: long</text><polygon fill="none" points="17,372.5369,21,376.5369,17,380.5369,13,376.5369" style="stroke:#B38D22;stroke-width:1.0;"/><text fill="#000000" font-family="sans-serif" font-size="14" lengthAdjust="spacing" textLength="126.7975" x="26" y="381.4688">activityLevel: String</text><line style="stroke:#181818;stroke-width:0.5;" x1="7" x2="451.5024" y1="389.5708" y2="389.5708"/><ellipse cx="17" cy="404.6048" fill="#84BE84" rx="3" ry="3" style="stroke:#038048;stroke-width:1.0;"/><text fill="#000000" font-family="sans-serif" font-size="14" lengthAdjust="spacing" textLength="129.5835" x="26" y="408.5368">getNameId(): String</text><ellipse cx="17" cy="423.6727" fill="#84BE84" rx="3" ry="3" style="stroke:#038048;stroke-width:1.0;"/><text fill="#000000" font-family="sans-serif" font-size="14" lengthAdjust="spacing" textLength="155.4834" x="26" y="427.6047">setNameId(String): void</text><ellipse cx="17" cy="442.7406" fill="#84BE84" rx="3" ry="3" style="stroke:#038048;stroke-width:1.0;"/><text fill="#000000" font-family="sans-serif" font-size="14" lengthAdjust="spacing" textLength="184.0993" x="26" y="446.6726">getTotalAssignments(): long</text><ellipse cx="17" cy="461.8085" fill="#84BE84" rx="3" ry="3" style="stroke:#038048;stroke-width:1.0;"/><text fill="#000000" font-family="sans-serif" font-size="14" lengthAdjust="spacing" textLength="209.9992" x="26" y="465.7405">setTotalAssignments(long): void</text><ellipse cx="17" cy="480.8764" fill="#84BE84" rx="3" ry="3" style="stroke:#038048;stroke-width:1.0;"/><text fill="#000000" font-family="sans-serif" font-size="14" lengthAdjust="spacing" textLength="205.7432" x="26" y="484.8084">getFirstAssignmentDate(): Date</text><ellipse cx="17" cy="499.9444" fill="#84BE84" rx="3" ry="3" style="stroke:#038048;stroke-width:1.0;"/><text fill="#000000" font-family="sans-serif" font-size="14" lengthAdjust="spacing" textLength="231.6431" x="26" y="503.8763">setFirstAssignmentDate(Date): void</text><ellipse cx="17" cy="519.0123" fill="#84BE84" rx="3" ry="3" style="stroke:#038048;stroke-width:1.0;"/><text fill="#000000" font-family="sans-serif" font-size="14" lengthAdjust="spacing" textLength="204.2732" x="26" y="522.9443">getLastAssignmentDate(): Date</text><ellipse cx="17" cy="538.0802" fill="#84BE84" rx="3" ry="3" style="stroke:#038048;stroke-width:1.0;"/><text fill="#000000" font-family="sans-serif" font-size="14" lengthAdjust="spacing" textLength="230.1731" x="26" y="542.0122">setLastAssignmentDate(Date): void</text><ellipse cx="17" cy="557.1481" fill="#84BE84" rx="3" ry="3" style="stroke:#038048;stroke-width:1.0;"/><text fill="#000000" font-family="sans-serif" font-size="14" lengthAdjust="spacing" textLength="176.3713" x="26" y="561.0801">getTotalDaysServed(): long</text><ellipse cx="17" cy="576.216" fill="#84BE84" rx="3" ry="3" style="stroke:#038048;stroke-width:1.0;"/><text fill="#000000" font-family="sans-serif" font-size="14" lengthAdjust="spacing" textLength="202.2712" x="26" y="580.148">setTotalDaysServed(long): void</text><ellipse cx="17" cy="595.284" fill="#84BE84" rx="3" ry="3" style="stroke:#038048;stroke-width:1.0;"/><text fill="#000000" font-family="sans-serif" font-size="14" lengthAdjust="spacing" textLength="199.1072" x="26" y="599.2159">getCurrentMemberSize(): long</text><ellipse cx="17" cy="614.3519" fill="#84BE84" rx="3" ry="3" style="stroke:#038048;stroke-width:1.0;"/><text fill="#000000" font-family="sans-serif" font-size="14" lengthAdjust="spacing" textLength="225.0071" x="26" y="618.2838">setCurrentMemberSize(long): void</text><ellipse cx="17" cy="633.4198" fill="#84BE84" rx="3" ry="3" style="stroke:#038048;stroke-width:1.0;"/><text fill="#000000" font-family="sans-serif" font-size="14" lengthAdjust="spacing" textLength="119.0135" x="26" y="637.3518">isActive(): boolean</text><ellipse cx="17" cy="652.4877" fill="#84BE84" rx="3" ry="3" style="stroke:#038048;stroke-width:1.0;"/><text fill="#000000" font-family="sans-serif" font-size="14" lengthAdjust="spacing" textLength="156.1554" x="26" y="656.4197">setActive(boolean): void</text><ellipse cx="17" cy="671.5556" fill="#84BE84" rx="3" ry="3" style="stroke:#038048;stroke-width:1.0;"/><text fill="#000000" font-family="sans-serif" font-size="14" lengthAdjust="spacing" textLength="174.9293" x="26" y="675.4876">getTotalDocuments(): long</text><ellipse cx="17" cy="690.6235" fill="#84BE84" rx="3" ry="3" style="stroke:#038048;stroke-width:1.0;"/><text fill="#000000" font-family="sans-serif" font-size="14" lengthAdjust="spacing" textLength="200.8292" x="26" y="694.5555">setTotalDocuments(long): void</text><ellipse cx="17" cy="709.6915" fill="#84BE84" rx="3" ry="3" style="stroke:#038048;stroke-width:1.0;"/><text fill="#000000" font-family="sans-serif" font-size="14" lengthAdjust="spacing" textLength="198.5612" x="26" y="713.6234">getDocumentsLastYear(): long</text><ellipse cx="17" cy="728.7594" fill="#84BE84" rx="3" ry="3" style="stroke:#038048;stroke-width:1.0;"/><text fill="#000000" font-family="sans-serif" font-size="14" lengthAdjust="spacing" textLength="224.4611" x="26" y="732.6913">setDocumentsLastYear(long): void</text><ellipse cx="17" cy="747.8273" fill="#84BE84" rx="3" ry="3" style="stroke:#038048;stroke-width:1.0;"/><text fill="#000000" font-family="sans-serif" font-size="14" lengthAdjust="spacing" textLength="261.449" x="26" y="751.7593">getAvgDocumentsPerMember(): double</text><ellipse cx="17" cy="766.8952" fill="#84BE84" rx="3" ry="3" style="stroke:#038048;stroke-width:1.0;"/><text fill="#000000" font-family="sans-serif" font-size="14" lengthAdjust="spacing" textLength="287.3489" x="26" y="770.8272">setAvgDocumentsPerMember(double): void</text><ellipse cx="17" cy="785.9631" fill="#84BE84" rx="3" ry="3" style="stroke:#038048;stroke-width:1.0;"/><text fill="#000000" font-family="sans-serif" font-size="14" lengthAdjust="spacing" textLength="182.0833" x="26" y="789.8951">getTotalPropositions(): long</text><ellipse cx="17" cy="805.031" fill="#84BE84" rx="3" ry="3" style="stroke:#038048;stroke-width:1.0;"/><text fill="#000000" font-family="sans-serif" font-size="14" lengthAdjust="spacing" textLength="207.9832" x="26" y="808.963">setTotalPropositions(long): void</text><ellipse cx="17" cy="824.099" fill="#84BE84" rx="3" ry="3" style="stroke:#038048;stroke-width:1.0;"/><text fill="#000000" font-family="sans-serif" font-size="14" lengthAdjust="spacing" textLength="208.9072" x="26" y="828.0309">getTotalGovernmentBills(): long</text><ellipse cx="17" cy="843.1669" fill="#84BE84" rx="3" ry="3" style="stroke:#038048;stroke-width:1.0;"/><text fill="#000000" font-family="sans-serif" font-size="14" lengthAdjust="spacing" textLength="234.8071" x="26" y="847.0988">setTotalGovernmentBills(long): void</text><ellipse cx="17" cy="862.2348" fill="#84BE84" rx="3" ry="3" style="stroke:#038048;stroke-width:1.0;"/><text fill="#000000" font-family="sans-serif" font-size="14" lengthAdjust="spacing" textLength="157.8494" x="26" y="866.1668">getActivityLevel(): String</text><ellipse cx="17" cy="881.3027" fill="#84BE84" rx="3" ry="3" style="stroke:#038048;stroke-width:1.0;"/><text fill="#000000" font-family="sans-serif" font-size="14" lengthAdjust="spacing" textLength="183.7493" x="26" y="885.2347">setActivityLevel(String): void</text><ellipse cx="17" cy="900.3706" fill="#84BE84" rx="3" ry="3" style="stroke:#038048;stroke-width:1.0;"/><text fill="#000000" font-family="sans-serif" font-size="14" lengthAdjust="spacing" textLength="333.9827" x="26" y="904.3026">withTotalDocuments(long): ViewRiksdagenMinistry</text><ellipse cx="17" cy="919.4385" fill="#84BE84" rx="3" ry="3" style="stroke:#038048;stroke-width:1.0;"/><text fill="#000000" font-family="sans-serif" font-size="14" lengthAdjust="spacing" textLength="357.6146" x="26" y="923.3705">withDocumentsLastYear(long): ViewRiksdagenMinistry</text><ellipse cx="17" cy="938.5065" fill="#84BE84" rx="3" ry="3" style="stroke:#038048;stroke-width:1.0;"/><text fill="#000000" font-family="sans-serif" font-size="14" lengthAdjust="spacing" textLength="420.5024" x="26" y="942.4384">withAvgDocumentsPerMember(double): ViewRiksdagenMinistry</text><ellipse cx="17" cy="957.5744" fill="#84BE84" rx="3" ry="3" style="stroke:#038048;stroke-width:1.0;"/><text fill="#000000" font-family="sans-serif" font-size="14" lengthAdjust="spacing" textLength="341.1367" x="26" y="961.5063">withTotalPropositions(long): ViewRiksdagenMinistry</text><ellipse cx="17" cy="976.6423" fill="#84BE84" rx="3" ry="3" style="stroke:#038048;stroke-width:1.0;"/><text fill="#000000" font-family="sans-serif" font-size="14" lengthAdjust="spacing" textLength="367.9606" x="26" y="980.5743">withTotalGovernmentBills(long): ViewRiksdagenMinistry</text><ellipse cx="17" cy="995.7102" fill="#84BE84" rx="3" ry="3" style="stroke:#038048;stroke-width:1.0;"/><text fill="#000000" font-family="sans-serif" font-size="14" lengthAdjust="spacing" textLength="316.9028" x="26" y="999.6422">withActivityLevel(String): ViewRiksdagenMinistry</text><ellipse cx="17" cy="1014.7781" fill="#84BE84" rx="3" ry="3" style="stroke:#038048;stroke-width:1.0;"/><text fill="#000000" font-family="sans-serif" font-size="14" lengthAdjust="spacing" textLength="288.6369" x="26" y="1018.7101">withNameId(String): ViewRiksdagenMinistry</text><ellipse cx="17" cy="1033.846" fill="#84BE84" rx="3" ry="3" style="stroke:#038048;stroke-width:1.0;"/><text fill="#000000" font-family="sans-serif" font-size="14" lengthAdjust="spacing" textLength="343.1527" x="26" y="1037.778">withTotalAssignments(long): ViewRiksdagenMinistry</text><ellipse cx="17" cy="1052.914" fill="#84BE84" rx="3" ry="3" style="stroke:#038048;stroke-width:1.0;"/><text fill="#000000" font-family="sans-serif" font-size="14" lengthAdjust="spacing" textLength="364.7966" x="26" y="1056.8459">withFirstAssignmentDate(Date): ViewRiksdagenMinistry</text><ellipse cx="17" cy="1071.9819" fill="#84BE84" rx="3" ry="3" style="stroke:#038048;stroke-width:1.0;"/><text fill="#000000" font-family="sans-serif" font-size="14" lengthAdjust="spacing" textLength="363.3267" x="26" y="1075.9138">withLastAssignmentDate(Date): ViewRiksdagenMinistry</text><ellipse cx="17" cy="1091.0498" fill="#84BE84" rx="3" ry="3" style="stroke:#038048;stroke-width:1.0;"/><text fill="#000000" font-family="sans-serif" font-size="14" lengthAdjust="spacing" textLength="335.4247" x="26" y="1094.9818">withTotalDaysServed(long): ViewRiksdagenMinistry</text><ellipse cx="17" cy="1110.1177" fill="#84BE84" rx="3" ry="3" style="stroke:#038048;stroke-width:1.0;"/><text fill="#000000" font-family="sans-serif" font-size="14" lengthAdjust="spacing" textLength="358.1606" x="26" y="1114.0497">withCurrentMemberSize(long): ViewRiksdagenMinistry</text><ellipse cx="17" cy="1129.1856" fill="#84BE84" rx="3" ry="3" style="stroke:#038048;stroke-width:1.0;"/><text fill="#000000" font-family="sans-serif" font-size="14" lengthAdjust="spacing" textLength="289.3089" x="26" y="1133.1176">withActive(boolean): ViewRiksdagenMinistry</text></g></a><!--class com.hack23.cia.model.common.api.ModelObject--><g id="elem_com.hack23.cia.model.common.api.ModelObject"><rect codeLine="68" fill="#F1F1F1" height="42.6879" id="com.hack23.cia.model.common.api.ModelObject" rx="2.5" ry="2.5" style="stroke:#181818;stroke-width:0.5;" width="189.3398" x="135" y="12"/><ellipse cx="150" cy="33.344" fill="#B4A7E5" rx="11" ry="11" style="stroke:#181818;stroke-width:1.0;"/><path d="M145.9219,29.1096 L145.9219,26.9533 L153.3125,26.9533 L153.3125,29.1096 L150.8438,29.1096 L150.8438,37.1877 L153.3125,37.1877 L153.3125,39.344 L145.9219,39.344 L145.9219,37.1877 L148.3906,37.1877 L148.3906,29.1096 L145.9219,29.1096 Z " fill="#000000"/><text fill="#000000" font-family="sans-serif" font-size="14" font-style="italic" lengthAdjust="spacing" textLength="78.1477" x="203.596" y="31.9659">ModelObject</text><text fill="#000000" font-family="sans-serif" font-size="10" font-style="italic" lengthAdjust="spacing" textLength="157.3398" x="164" y="46.7579">com.hack23.cia.model.common.api</text></g><polygon fill="none" points="229.5,55.1603,223.5,73.1603,235.5,73.1603,229.5,55.1603" style="stroke:#181818;stroke-width:1.0;"/><path d="M229.5,73.1603 C229.5,82.451 229.5,76.5913 229.5,90.9941 " fill="none" style="stroke:#181818;stroke-width:1.0;stroke-dasharray:7.0,7.0;"/><text fill="#888888" font-family="sans-serif" font-size="10" lengthAdjust="spacing" textLength="2.6" x="224.7" y="1145.69">&#160;</text><a href="https://github.com/talsma-ict/umldoclet" target="_top" title="https://github.com/talsma-ict/umldoclet" xlink:actuate="onRequest" xlink:href="https://github.com/talsma-ict/umldoclet" xlink:show="new" xlink:title="https://github.com/talsma-ict/umldoclet" xlink:type="simple"><text fill="#888888" font-family="sans-serif" font-size="10" lengthAdjust="spacing" textLength="76.7199" x="187.64" y="1159.31">UMLDoclet 2.2.1</text></a><!--SRC=[jLVVRzis47xlNt5h7vQYZImhMTiOGG3FsReEpXRKxe31zGCjdINE5AcHb0Dlw_y-Kd9iMI8R0SFyOCEyxxxxnJiS0G2-XOaeTfAccGOjG6TKmQUxAH2UG8eS9T6O0Cr9YWfMo0HFLGr48ANEX0Inhlx5GafKXU09vIdyJBO4b2XbZ2fuzWmgK_D7zWUY6kohdJsy5J533MUJbmsNed3uvZmAeqkO4wPo0Xycys3FTjI9WYWOWk5cD4Qk36N94vILM-E2nEPdMajUmnQbee8RdN3FOqED1TU4SWK5aLhPaEuPuThwEWoi_U0jd8rdqrFVmglAjzSmbfoK2NmKVvQ7SByf94cDnupiHAb1vQW99xLC6QSvoKswI8mpD4Q9DfdaWcCbpsY2W7cXTx2co1BLFZLacJ37rNdCY5Bm_5hHlt0qlBpvZUB3HxfHYIaQlwESAYrtd_bU7jx48Wyo4c-YYo2c9CX5WYoWNAE9WWMaA4mQYJP92XAYZNpF4D2yOC_1bEw_40HExs2nS9u7cSxPSWb_Lu7QpmkRjm_926PQcejsFDT24pPMYgOyHwxL2EnbFShNL2fzbD-QgpS2-ts4c3m-WQYCt9ATcg7SOjAs4PUc1xY-mto5ScRJtGAGMDEjELq9mP3mDh68IwVloQDWQZpy7Odiy6xJW_8zojg14IIYNB6s-_TI549HMv-EeGhmNfWcgLBmFMLCEMEWUZV5BR9E7Lwbg7-fIdJsiYjK1s4jCP2jeCc9zhnLICjpue5bwO0imiNsOxVibl2ah9RGXRDVBiufwKNfWFaOvwVtoXzo0-EBUDA-X4wsBih9HzMukhAMetrfBSrUkXVvGtkyd5-9x03n1NRRxW8dMHVbunkxciPojjgcYjE9hO7Ug9kTvW_y1ENpTUveJ3zb6-ZDGBELFVrwYl6qxGFLcRkAph5-gkYjM0_T9-hIWy5RWxwwdcJtSTwTsXwQxI7QrrV7nEoX-fNPs4FRFmRxUjqTUZqqlGEkRs6QKyslywNUmQhjPssskSOUTcVtebzNVs2idzg-p65krYLIKF-2TSG43URz2jXV0Qx_2OB_OOMh7RbMUiVmvf3EjH26ix6_sSzFkmBbbFBDH32pzhvuvvP-iaiyenpDko7US3HBRdX0VgdD3HhszhO-yyKYqxfGey4WDSKiLpOJ0rqz8Cvfh0TbpfBwvT1wGooN-pV1-yFZn2xuvyFeF7et7xuPHHUZOHIy_UxYChowkhfy5Gv7ORZueJJZ0mSpBU9D9bY-_1S0]--></g></svg>