<?xml version="1.0" encoding="UTF-8" standalone="no"?><svg xmlns="http://www.w3.org/2000/svg" xmlns:xlink="http://www.w3.org/1999/xlink" contentScriptType="application/ecmascript" contentStyleType="text/css" height="264px" preserveAspectRatio="none" style="width:657px;height:264px;background:#FFFFFF;" version="1.1" viewBox="0 0 657 264" width="657px" zoomAndPan="magnify"><defs><filter height="300%" id="fop451rofa4a6" width="300%" x="-1" y="-1"><feGaussianBlur result="blurOut" stdDeviation="2.0"/><feColorMatrix in="blurOut" result="blurOut2" type="matrix" values="0 0 0 0 0 0 0 0 0 0 0 0 0 0 0 0 0 0 .4 0"/><feOffset dx="4.0" dy="4.0" in="blurOut2" result="blurOut3"/><feBlend in="SourceGraphic" in2="blurOut3" mode="normal"/></filter></defs><g><!--MD5=[35452601e1bd1a7a892b166327591b8b]
cluster com.hack23.cia.web.impl.ui.application.views.pageclicklisteners.handlers.api--><polygon fill="#FFFFFF" filter="url(#fop451rofa4a6)" points="16,129,630,129,637,151.2969,640,151.2969,640,241,16,241,16,129" style="stroke:#000000;stroke-width:1.5;"/><line style="stroke:#000000;stroke-width:1.5;" x1="16" x2="637" y1="151.2969" y2="151.2969"/><text fill="#000000" font-family="sans-serif" font-size="14" font-weight="bold" lengthAdjust="spacing" textLength="608" x="20" y="143.9951">com.hack23.cia.web.impl.ui.application.views.pageclicklisteners.handlers.api</text><!--MD5=[0d852700fdad35b7061d461d6907a324]
cluster java.io--><polygon fill="#FFFFFF" filter="url(#fop451rofa4a6)" points="260,6,316,6,323,28.2969,396,28.2969,396,105,260,105,260,6" style="stroke:#000000;stroke-width:1.5;"/><line style="stroke:#000000;stroke-width:1.5;" x1="260" x2="323" y1="28.2969" y2="28.2969"/><text fill="#000000" font-family="sans-serif" font-size="14" font-weight="bold" lengthAdjust="spacing" textLength="50" x="264" y="20.9951">java.io</text><!--MD5=[9fece5bc37a3171bc0fa22719e954662]
class com.hack23.cia.web.impl.ui.application.views.pageclicklisteners.handlers.api.SearchDocumentResponseHandler--><a href="SearchDocumentResponseHandler.html" target="_top" title="SearchDocumentResponseHandler.html" xlink:actuate="onRequest" xlink:href="SearchDocumentResponseHandler.html" xlink:show="new" xlink:title="SearchDocumentResponseHandler.html" xlink:type="simple"><rect codeLine="3" fill="#FEFECE" filter="url(#fop451rofa4a6)" height="60.8047" id="com.hack23.cia.web.impl.ui.application.views.pageclicklisteners.handlers.api.SearchDocumentResponseHandler" style="stroke:#A80036;stroke-width:1.5;" width="255" x="200.5" y="164"/><ellipse cx="218.2" cy="180" fill="#B4A7E5" rx="11" ry="11" style="stroke:#A80036;stroke-width:1.0;"/><path d="M214.1219,175.7656 L214.1219,173.6094 L221.5125,173.6094 L221.5125,175.7656 L219.0438,175.7656 L219.0438,183.8438 L221.5125,183.8438 L221.5125,186 L214.1219,186 L214.1219,183.8438 L216.5906,183.8438 L216.5906,175.7656 L214.1219,175.7656 Z " fill="#000000"/><text fill="#000000" font-family="sans-serif" font-size="12" font-style="italic" lengthAdjust="spacing" textLength="217" x="232.8" y="184.1543">SearchDocumentResponseHandler</text><line style="stroke:#A80036;stroke-width:1.5;" x1="201.5" x2="454.5" y1="196" y2="196"/><line style="stroke:#A80036;stroke-width:1.5;" x1="201.5" x2="454.5" y1="204" y2="204"/><ellipse cx="211.5" cy="215" fill="#84BE84" rx="3" ry="3" style="stroke:#038048;stroke-width:1.0;"/><text fill="#000000" font-family="sans-serif" font-size="11" font-style="italic" lengthAdjust="spacing" textLength="229" x="220.5" y="218.2104">handle(SearchDocumentResponse): void</text></a><!--MD5=[5a5af9b0547913863cbe0ddf55a9ab5e]
class java.io.Serializable--><rect codeLine="11" fill="#FEFECE" filter="url(#fop451rofa4a6)" height="48" id="java.io.Serializable" style="stroke:#A80036;stroke-width:1.5;" width="103" x="276.5" y="41"/><ellipse cx="291.5" cy="57" fill="#B4A7E5" rx="11" ry="11" style="stroke:#A80036;stroke-width:1.0;"/><path d="M287.4219,52.7656 L287.4219,50.6094 L294.8125,50.6094 L294.8125,52.7656 L292.3438,52.7656 L292.3438,60.8438 L294.8125,60.8438 L294.8125,63 L287.4219,63 L287.4219,60.8438 L289.8906,60.8438 L289.8906,52.7656 L287.4219,52.7656 Z " fill="#000000"/><text fill="#000000" font-family="sans-serif" font-size="12" font-style="italic" lengthAdjust="spacing" textLength="71" x="305.5" y="61.1543">Serializable</text><line style="stroke:#A80036;stroke-width:1.5;" x1="277.5" x2="378.5" y1="73" y2="73"/><line style="stroke:#A80036;stroke-width:1.5;" x1="277.5" x2="378.5" y1="81" y2="81"/><!--MD5=[6a1c80ec8224ec8459b16bd991ee5d46]
reverse link java.io.Serializable to com.hack23.cia.web.impl.ui.application.views.pageclicklisteners.handlers.api.SearchDocumentResponseHandler--><path codeLine="7" d="M328,109.34 C328,127.29 328,147.64 328,163.84 " fill="none" id="java.io.Serializable-backto-com.hack23.cia.web.impl.ui.application.views.pageclicklisteners.handlers.api.SearchDocumentResponseHandler" style="stroke:#A80036;stroke-width:1.0;"/><polygon fill="none" points="321,109.09,328,89.09,335,109.09,321,109.09" style="stroke:#A80036;stroke-width:1.0;"/><text fill="#888888" font-family="sans-serif" font-size="10" lengthAdjust="spacing" textLength="192" x="226" y="256.2822">UMLDoclet 2.0.15, PlantUML 1.2021.13</text><!--MD5=[30f1e3a7cb37c9c32dca60426c5b0afb]
@startuml
    namespace com.hack23.cia.web.impl.ui.application.views.pageclicklisteners.handlers.api {

        interface SearchDocumentResponseHandler [[SearchDocumentResponseHandler.html]] {
            {abstract} +handle(SearchDocumentResponse): void
        }

        java.io.Serializable <|- - SearchDocumentResponseHandler
    }

    namespace java.io {
        interface Serializable
    }

    center footer UMLDoclet 2.0.15, PlantUML 1.2021.13
@enduml

PlantUML version 1.2021.13(Mon Nov 01 12:38:45 CET 2021)
(APACHE source distribution)
Java Runtime: OpenJDK Runtime Environment
JVM: OpenJDK 64-Bit Server VM
Default Encoding: UTF-8
Language: en
Country: US
--></g></svg>