<svg xmlns="http://www.w3.org/2000/svg" xmlns:xlink="http://www.w3.org/1999/xlink" contentStyleType="text/css" data-diagram-type="CLASS" height="217px" preserveAspectRatio="none" style="width:309px;height:217px;background:#FFFFFF;" version="1.1" viewBox="0 0 309 217" width="309px" zoomAndPan="magnify"><defs/><g><!--class com.hack23.cia.web.impl.ui.application.views.user.party.PartyView--><g class="entity" data-entity="com.hack23.cia.web.impl.ui.application.views.user.party.PartyView" data-source-line="13" data-uid="ent0002" id="entity_com.hack23.cia.web.impl.ui.application.views.user.party.PartyView"><a href="PartyView.html" target="_top" title="PartyView.html" xlink:actuate="onRequest" xlink:href="PartyView.html" xlink:show="new" xlink:title="PartyView.html" xlink:type="simple"><rect fill="#F1F1F1" height="96.8237" rx="2.5" ry="2.5" style="stroke:#181818;stroke-width:0.5;" width="294.9398" x="7" y="91"/><ellipse cx="22" cy="112.344" fill="#ADD1B2" rx="11" ry="11" style="stroke:#181818;stroke-width:1;"/><path d="M24.9688,117.9846 Q24.3906,118.2815 23.75,118.4221 Q23.1094,118.5783 22.4063,118.5783 Q19.9063,118.5783 18.5781,116.9377 Q17.2656,115.2815 17.2656,112.1565 Q17.2656,109.0315 18.5781,107.3752 Q19.9063,105.719 22.4063,105.719 Q23.1094,105.719 23.75,105.8752 Q24.4063,106.0315 24.9688,106.3283 L24.9688,109.0471 Q24.3438,108.469 23.75,108.2033 Q23.1563,107.9221 22.5313,107.9221 Q21.1875,107.9221 20.5,109.0002 Q19.8125,110.0627 19.8125,112.1565 Q19.8125,114.2502 20.5,115.3283 Q21.1875,116.3908 22.5313,116.3908 Q23.1563,116.3908 23.75,116.1252 Q24.3438,115.844 24.9688,115.2658 L24.9688,117.9846 Z " fill="#000000"/><text fill="#000000" font-family="sans-serif" font-size="14" lengthAdjust="spacing" textLength="65.2117" x="134.864" y="110.9659">PartyView</text><text fill="#000000" font-family="sans-serif" font-size="10" lengthAdjust="spacing" textLength="262.9398" x="36" y="125.7579">com.hack23.cia.web.impl.ui.application.views.user.party</text><line style="stroke:#181818;stroke-width:0.5;" x1="8" x2="300.9398" y1="133.6879" y2="133.6879"/><ellipse cx="18" cy="148.7219" fill="none" rx="3" ry="3" style="stroke:#038048;stroke-width:1;"/><text fill="#000000" font-family="sans-serif" font-size="14" lengthAdjust="spacing" text-decoration="underline" textLength="86.8557" x="27" y="152.6538">NAME: String</text><line style="stroke:#181818;stroke-width:0.5;" x1="8" x2="300.9398" y1="160.7558" y2="160.7558"/><ellipse cx="18" cy="175.7898" fill="#84BE84" rx="3" ry="3" style="stroke:#038048;stroke-width:1;"/><text fill="#000000" font-family="sans-serif" font-size="14" lengthAdjust="spacing" textLength="198.7432" x="27" y="179.7218">PartyView(ApplicationContext)</text></a></g><!--class com.hack23.cia.web.impl.ui.application.views.user.common.AbstractGroupView--><g class="entity" data-entity="com.hack23.cia.web.impl.ui.application.views.user.common.AbstractGroupView" data-source-line="18" data-uid="ent0003" id="entity_com.hack23.cia.web.impl.ui.application.views.user.common.AbstractGroupView"><a href="../common/AbstractGroupView.html" target="_top" title="../common/AbstractGroupView.html" xlink:actuate="onRequest" xlink:href="../common/AbstractGroupView.html" xlink:show="new" xlink:title="../common/AbstractGroupView.html" xlink:type="simple"><rect fill="#F1F1F1" height="42.6879" rx="2.5" ry="2.5" style="stroke:#181818;stroke-width:0.5;" width="296.6897" x="6" y="12"/><ellipse cx="21" cy="33.344" fill="#A9DCDF" rx="11" ry="11" style="stroke:#181818;stroke-width:1;"/><path d="M21.1094,28.6877 L19.9531,33.7658 L22.2813,33.7658 L21.1094,28.6877 Z M19.625,26.4533 L22.6094,26.4533 L25.9688,38.844 L23.5156,38.844 L22.75,35.7815 L19.4688,35.7815 L18.7188,38.844 L16.2813,38.844 L19.625,26.4533 Z " fill="#000000"/><text fill="#000000" font-family="sans-serif" font-size="14" font-style="italic" lengthAdjust="spacing" textLength="118.7895" x="107.9501" y="31.9659">AbstractGroupView</text><text fill="#000000" font-family="sans-serif" font-size="10" font-style="italic" lengthAdjust="spacing" textLength="264.6897" x="35" y="46.7579">com.hack23.cia.web.impl.ui.application.views.user.common</text></a></g><g class="link" data-entity-1="com.hack23.cia.web.impl.ui.application.views.user.common.AbstractGroupView" data-entity-2="com.hack23.cia.web.impl.ui.application.views.user.party.PartyView" data-uid="lnk4" id="link_com.hack23.cia.web.impl.ui.application.views.user.common.AbstractGroupView_com.hack23.cia.web.impl.ui.application.views.user.party.PartyView"><polygon fill="none" points="154.5,55.0471,148.5,73.0471,160.5,73.0471,154.5,55.0471" style="stroke:#181818;stroke-width:1;"/><path d="M154.5,73.0471 C154.5,83.3473 154.5,78.2849 154.5,90.8777" fill="none" style="stroke:#181818;stroke-width:1;"/></g><g class="footer" data-source-line="28"><text fill="#888888" font-family="sans-serif" font-size="10" lengthAdjust="spacing" textLength="2.6" x="149.7" y="192.69">&#160;</text><a href="https://github.com/talsma-ict/umldoclet" target="_top" title="https://github.com/talsma-ict/umldoclet" xlink:actuate="onRequest" xlink:href="https://github.com/talsma-ict/umldoclet" xlink:show="new" xlink:title="https://github.com/talsma-ict/umldoclet" xlink:type="simple"><text fill="#888888" font-family="sans-serif" font-size="10" lengthAdjust="spacing" textLength="76.7199" x="112.64" y="206.31">UMLDoclet 2.2.4</text></a></g><!--SRC=[hLHDKzim4BtpAxRqK1Y8_D6GqWp3J2PbQ3kXmpIXby1X8o-s9hBaIdAeI_dlbJzgAFG4zINnhlQzjs-j1G1u0rDTL4QacGEdmMN2miNP350ba98YWuuI43ccP655KglKjWS9i7IPDg2lcpUkZI5RQ9K8bS9dt21ONHfEbcrjGKEr-8D-W_O1-gggWnyqb-HWPxhxG58SHgD17COZMA2qESAdwO9rQFSrCOlP43os59oKzP2bIiWqiYO5SlypQpFxi25ZXLQ-9knmwbQvLWw5ib2WSRPkwLoYShNMY7d-0nQ5i3EPp_uM5xvlnEt3n2Wi4_YglvTzlwyAWwcNBB7IfGERaqE5RSvwrGfpxnTocfDdHUUjL5fHayz4Ga1vuIgu5YGJ-pZgmJBjmqsSIxGMje-i-4dZQ7XyxfkelWcwkLHTB3pcEcSPydNybd61x8PMJEI5PALWM1JUE7JU5hRnLPQLbWohhQYsmO_gcRMirm7BPV-VPIwNLrTmsqYldrlhF02_WxqlaxEJCSoTyPzGdzxhItSczsnJFp7wuNQROtUj3xYopY1tJmoPT8bJeylYnSRuYbohPphJ5hCdYhn5Z0LjDdYIxKphnlt_I8z-3GOl7syhwyYwIj9nFxThhPs_XFTphf-FLK5c9jHwggN_u5yV_ZjxKTzVAHJvbS7NYlmqm_xaNKiNFE3hk2xLSfavLzXn4AJ2PUMgRZrmpUuO2Ew2CfT9kpGUhGzlRhiEJlkzL5_jGJWSHD4Y6ewZT-FXY4NHmU7mO7GOxONnE0oN9wNH1GLpf_awqpA_-Wq0]--></g></svg>