<?xml version="1.0" encoding="UTF-8" standalone="no"?><svg xmlns="http://www.w3.org/2000/svg" xmlns:xlink="http://www.w3.org/1999/xlink" contentStyleType="text/css" height="319px" preserveAspectRatio="none" style="width:629px;height:319px;background:#FFFFFF;" version="1.1" viewBox="0 0 629 319" width="629px" zoomAndPan="magnify"><defs/><g><!--MD5=[6a2ff8e84fbe23bc5c6b5237956861fc]
cluster com.hack23.cia.web.impl.ui.application.views.pageclicklisteners.handlers.impl--><g id="cluster_com.hack23.cia.web.impl.ui.application.views.pageclicklisteners.handlers.impl"><path d="M8.5,151.602 L551.5,151.602 A3.75,3.75 0 0 1 554,154.102 L561,176.6699 L561.5,176.6699 A2.5,2.5 0 0 1 564,179.1699 L564,289.102 A2.5,2.5 0 0 1 561.5,291.602 L8.5,291.602 A2.5,2.5 0 0 1 6,289.102 L6,154.102 A2.5,2.5 0 0 1 8.5,151.602 " fill="none" style="stroke:#000000;stroke-width:1.5;"/><line style="stroke:#000000;stroke-width:1.5;" x1="6" x2="561" y1="176.6699" y2="176.6699"/><text fill="#000000" font-family="sans-serif" font-size="14" font-weight="bold" lengthAdjust="spacing" textLength="542" x="10" y="168.5679">com.hack23.cia.web.impl.ui.application.views.pageclicklisteners.handlers.impl</text></g><!--MD5=[35452601e1bd1a7a892b166327591b8b]
cluster com.hack23.cia.web.impl.ui.application.views.pageclicklisteners.handlers.api--><g id="cluster_com.hack23.cia.web.impl.ui.application.views.pageclicklisteners.handlers.api"><path d="M76.5,6.602 L609.5,6.602 A3.75,3.75 0 0 1 612,9.102 L619,31.6699 L619.5,31.6699 A2.5,2.5 0 0 1 622,34.1699 L622,125.102 A2.5,2.5 0 0 1 619.5,127.602 L76.5,127.602 A2.5,2.5 0 0 1 74,125.102 L74,9.102 A2.5,2.5 0 0 1 76.5,6.602 " fill="none" style="stroke:#000000;stroke-width:1.5;"/><line style="stroke:#000000;stroke-width:1.5;" x1="74" x2="619" y1="31.6699" y2="31.6699"/><text fill="#000000" font-family="sans-serif" font-size="14" font-weight="bold" lengthAdjust="spacing" textLength="532" x="78" y="23.5679">com.hack23.cia.web.impl.ui.application.views.pageclicklisteners.handlers.api</text></g><!--MD5=[f1b4e21ca3395c6bc08e60c6df48554b]
class com.hack23.cia.web.impl.ui.application.views.pageclicklisteners.handlers.impl.SearchDocumentResponseHandlerImpl--><a href="SearchDocumentResponseHandlerImpl.html" target="_top" title="SearchDocumentResponseHandlerImpl.html" xlink:actuate="onRequest" xlink:href="SearchDocumentResponseHandlerImpl.html" xlink:show="new" xlink:title="SearchDocumentResponseHandlerImpl.html" xlink:type="simple"><g id="elem_com.hack23.cia.web.impl.ui.application.views.pageclicklisteners.handlers.impl.SearchDocumentResponseHandlerImpl"><rect codeLine="3" fill="#F1F1F1" height="86.1358" id="com.hack23.cia.web.impl.ui.application.views.pageclicklisteners.handlers.impl.SearchDocumentResponseHandlerImpl" rx="2.5" ry="2.5" style="stroke:#181818;stroke-width:0.5;" width="523" x="23.5" y="189.602"/><ellipse cx="148.25" cy="205.602" fill="#ADD1B2" rx="11" ry="11" style="stroke:#181818;stroke-width:1.0;"/><path d="M151.2188,211.2426 Q150.6406,211.5395 150,211.6801 Q149.3594,211.8364 148.6563,211.8364 Q146.1563,211.8364 144.8281,210.1957 Q143.5156,208.5395 143.5156,205.4145 Q143.5156,202.2895 144.8281,200.6332 Q146.1563,198.977 148.6563,198.977 Q149.3594,198.977 150,199.1332 Q150.6563,199.2895 151.2188,199.5864 L151.2188,202.3051 Q150.5938,201.727 150,201.4614 Q149.4063,201.1801 148.7813,201.1801 Q147.4375,201.1801 146.75,202.2582 Q146.0625,203.3207 146.0625,205.4145 Q146.0625,207.5082 146.75,208.5864 Q147.4375,209.6489 148.7813,209.6489 Q149.4063,209.6489 150,209.3832 Q150.5938,209.102 151.2188,208.5239 L151.2188,211.2426 Z " fill="#000000"/><text fill="#000000" font-family="sans-serif" font-size="14" lengthAdjust="spacing" textLength="265" x="168.75" y="211.034">SearchDocumentResponseHandlerImpl</text><line style="stroke:#181818;stroke-width:0.5;" x1="24.5" x2="545.5" y1="221.602" y2="221.602"/><line style="stroke:#181818;stroke-width:0.5;" x1="24.5" x2="545.5" y1="229.602" y2="229.602"/><ellipse cx="34.5" cy="244.6359" fill="#84BE84" rx="3" ry="3" style="stroke:#038048;stroke-width:1.0;"/><text fill="#000000" font-family="sans-serif" font-size="14" lengthAdjust="spacing" textLength="497" x="43.5" y="248.5679">SearchDocumentResponseHandlerImpl(GridFactory, Panel, VerticalLayout)</text><ellipse cx="34.5" cy="263.7039" fill="#84BE84" rx="3" ry="3" style="stroke:#038048;stroke-width:1.0;"/><text fill="#000000" font-family="sans-serif" font-size="14" lengthAdjust="spacing" textLength="271" x="43.5" y="267.6358">handle(SearchDocumentResponse): void</text></g></a><!--MD5=[9fece5bc37a3171bc0fa22719e954662]
class com.hack23.cia.web.impl.ui.application.views.pageclicklisteners.handlers.api.SearchDocumentResponseHandler--><a href="../api/SearchDocumentResponseHandler.html" target="_top" title="../api/SearchDocumentResponseHandler.html" xlink:actuate="onRequest" xlink:href="../api/SearchDocumentResponseHandler.html" xlink:show="new" xlink:title="../api/SearchDocumentResponseHandler.html" xlink:type="simple"><g id="elem_com.hack23.cia.web.impl.ui.application.views.pageclicklisteners.handlers.api.SearchDocumentResponseHandler"><rect codeLine="12" fill="#F1F1F1" height="67.0679" id="com.hack23.cia.web.impl.ui.application.views.pageclicklisteners.handlers.api.SearchDocumentResponseHandler" rx="2.5" ry="2.5" style="stroke:#181818;stroke-width:0.5;" width="275" x="147.5" y="44.602"/><ellipse cx="175.55" cy="60.602" fill="#B4A7E5" rx="11" ry="11" style="stroke:#181818;stroke-width:1.0;"/><path d="M171.4719,56.3676 L171.4719,54.2114 L178.8625,54.2114 L178.8625,56.3676 L176.3938,56.3676 L176.3938,64.4457 L178.8625,64.4457 L178.8625,66.602 L171.4719,66.602 L171.4719,64.4457 L173.9406,64.4457 L173.9406,56.3676 L171.4719,56.3676 Z " fill="#000000"/><text fill="#000000" font-family="sans-serif" font-size="14" font-style="italic" lengthAdjust="spacing" textLength="214" x="192.45" y="66.034">SearchDocumentResponseHandler</text><line style="stroke:#181818;stroke-width:0.5;" x1="148.5" x2="421.5" y1="76.602" y2="76.602"/><line style="stroke:#181818;stroke-width:0.5;" x1="148.5" x2="421.5" y1="84.602" y2="84.602"/><ellipse cx="158.5" cy="99.6359" fill="#84BE84" rx="3" ry="3" style="stroke:#038048;stroke-width:1.0;"/><text fill="#000000" font-family="sans-serif" font-size="14" font-style="italic" lengthAdjust="spacing" textLength="249" x="167.5" y="103.5679">handle(SearchDocumentResponse): void</text></g></a><!--MD5=[0544ea044ff37284bd1aa8764d3d4fdf]
reverse link com.hack23.cia.web.impl.ui.application.views.pageclicklisteners.handlers.api.SearchDocumentResponseHandler to com.hack23.cia.web.impl.ui.application.views.pageclicklisteners.handlers.impl.SearchDocumentResponseHandlerImpl--><g id="link_com.hack23.cia.web.impl.ui.application.views.pageclicklisteners.handlers.api.SearchDocumentResponseHandler_com.hack23.cia.web.impl.ui.application.views.pageclicklisteners.handlers.impl.SearchDocumentResponseHandlerImpl"><path codeLine="8" d="M285,131.862 C285,150.662 285,171.572 285,189.362 " fill="none" id="com.hack23.cia.web.impl.ui.application.views.pageclicklisteners.handlers.api.SearchDocumentResponseHandler-backto-com.hack23.cia.web.impl.ui.application.views.pageclicklisteners.handlers.impl.SearchDocumentResponseHandlerImpl" style="stroke:#181818;stroke-width:1.0;stroke-dasharray:7.0,7.0;"/><polygon fill="none" points="278,131.822,285,111.822,292,131.822,278,131.822" style="stroke:#181818;stroke-width:1.0;"/></g><rect fill="none" height="13.62" style="stroke:none;stroke-width:1.0;" width="188" x="213.5" y="297.602"/><text fill="#888888" font-family="sans-serif" font-size="10" lengthAdjust="spacing" textLength="188" x="213.5" y="308.292">UMLDoclet 2.0.20, PlantUML 1.2022.12</text><!--MD5=[d636e769efe424248ab8891799330819]
@startuml
    namespace com.hack23.cia.web.impl.ui.application.views.pageclicklisteners.handlers.impl {

        class SearchDocumentResponseHandlerImpl [[SearchDocumentResponseHandlerImpl.html]] {
            +SearchDocumentResponseHandlerImpl(GridFactory, Panel, VerticalLayout)
            +handle(SearchDocumentResponse): void
        }

        com.hack23.cia.web.impl.ui.application.views.pageclicklisteners.handlers.api.SearchDocumentResponseHandler <|.. SearchDocumentResponseHandlerImpl
    }

    namespace com.hack23.cia.web.impl.ui.application.views.pageclicklisteners.handlers.api {
        interface SearchDocumentResponseHandler [[../api/SearchDocumentResponseHandler.html]] {
            {abstract} +handle(SearchDocumentResponse): void
        }
    }

    center footer UMLDoclet 2.0.20, PlantUML 1.2022.12
@enduml

PlantUML version 1.2022.12(Sun Oct 23 20:12:26 CEST 2022)
(APACHE source distribution)
Java Runtime: OpenJDK Runtime Environment
JVM: OpenJDK 64-Bit Server VM
Default Encoding: UTF-8
Language: 
Country: 
--></g></svg>