<?xml version="1.0" encoding="UTF-8" standalone="no"?><svg xmlns="http://www.w3.org/2000/svg" xmlns:xlink="http://www.w3.org/1999/xlink" contentScriptType="application/ecmascript" contentStyleType="text/css" height="129px" preserveAspectRatio="none" style="width:282px;height:129px;" version="1.1" viewBox="0 0 282 129" width="282px" zoomAndPan="magnify"><defs><filter height="300%" id="fwozv78ibfx32" width="300%" x="-1" y="-1"><feGaussianBlur result="blurOut" stdDeviation="2.0"/><feColorMatrix in="blurOut" result="blurOut2" type="matrix" values="0 0 0 0 0 0 0 0 0 0 0 0 0 0 0 0 0 0 .4 0"/><feOffset dx="4.0" dy="4.0" in="blurOut2" result="blurOut3"/><feBlend in="SourceGraphic" in2="blurOut3" mode="normal"/></filter></defs><g><!--MD5=[19c8385d1fdf57ee4d6132838f75c4df]
class com.hack23.cia.web.impl.ui.application.util.WebBrowserUtil--><a href="WebBrowserUtil.html" target="_top" title="WebBrowserUtil.html" xlink:actuate="onRequest" xlink:href="WebBrowserUtil.html" xlink:show="new" xlink:title="WebBrowserUtil.html" xlink:type="simple"><rect fill="#FEFECE" filter="url(#fwozv78ibfx32)" height="92.3516" id="com.hack23.cia.web.impl.ui.application.util.WebBrowserUtil" style="stroke: #A80036; stroke-width: 1.5;" width="264" x="7" y="7"/><ellipse cx="35.5" cy="25.9688" fill="#ADD1B2" rx="11" ry="11" style="stroke: #A80036; stroke-width: 1.0;"/><path d="M38.4688,31.6094 Q37.8906,31.9063 37.25,32.0469 Q36.6094,32.2031 35.9063,32.2031 Q33.4063,32.2031 32.0781,30.5625 Q30.7656,28.9063 30.7656,25.7813 Q30.7656,22.6563 32.0781,21 Q33.4063,19.3438 35.9063,19.3438 Q36.6094,19.3438 37.25,19.5 Q37.9063,19.6563 38.4688,19.9531 L38.4688,22.6719 Q37.8438,22.0938 37.25,21.8281 Q36.6563,21.5469 36.0313,21.5469 Q34.6875,21.5469 34,22.625 Q33.3125,23.6875 33.3125,25.7813 Q33.3125,27.875 34,28.9531 Q34.6875,30.0156 36.0313,30.0156 Q36.6563,30.0156 37.25,29.75 Q37.8438,29.4688 38.4688,28.8906 L38.4688,31.6094 Z "/><text fill="#000000" font-family="sans-serif" font-size="14" lengthAdjust="spacingAndGlyphs" textLength="109" x="99" y="24.9951">WebBrowserUtil</text><text fill="#000000" font-family="sans-serif" font-size="10" lengthAdjust="spacingAndGlyphs" textLength="202" x="52.5" y="37.5791">com.hack23.cia.web.impl.ui.application.util</text><line style="stroke: #A80036; stroke-width: 1.5;" x1="8" x2="270" y1="44.9375" y2="44.9375"/><ellipse cx="18" cy="55.9375" fill="none" rx="3" ry="3" style="stroke: #038048; stroke-width: 1.0;"/><text fill="#000000" font-family="sans-serif" font-size="11" lengthAdjust="spacingAndGlyphs" text-decoration="underline" textLength="151" x="27" y="59.1479">X_FORWARDED_FOR: String</text><line style="stroke: #A80036; stroke-width: 1.5;" x1="8" x2="270" y1="65.7422" y2="65.7422"/><ellipse cx="18" cy="76.7422" fill="#84BE84" rx="3" ry="3" style="stroke: #038048; stroke-width: 1.0;"/><text fill="#000000" font-family="sans-serif" font-size="11" lengthAdjust="spacingAndGlyphs" text-decoration="underline" textLength="214" x="27" y="79.9526">getIpInformation(WebBrowser): String</text><ellipse cx="18" cy="89.5469" fill="#84BE84" rx="3" ry="3" style="stroke: #038048; stroke-width: 1.0;"/><text fill="#000000" font-family="sans-serif" font-size="11" lengthAdjust="spacingAndGlyphs" text-decoration="underline" textLength="238" x="27" y="92.7573">getOperatingSystem(WebBrowser): String</text></a><text fill="#888888" font-family="sans-serif" font-size="10" lengthAdjust="spacingAndGlyphs" textLength="186" x="46" y="115.6338">UMLDoclet 2.0.7, PlantUML 1.2019.12</text><!--MD5=[d34c75abd6e0d60dde9d8f69789119f4]
@startuml
    set namespaceSeparator none
    hide empty fields
    hide empty methods

    class "<size:14>WebBrowserUtil\n<size:10>com.hack23.cia.web.impl.ui.application.util" as com.hack23.cia.web.impl.ui.application.util.WebBrowserUtil [[WebBrowserUtil.html]] {
        {static} +X_FORWARDED_FOR: String
        {static} +getIpInformation(WebBrowser): String
        {static} +getOperatingSystem(WebBrowser): String
    }

    center footer UMLDoclet 2.0.7, PlantUML 1.2019.12
@enduml

PlantUML version 1.2019.12(Sun Nov 03 11:24:54 CET 2019)
(APACHE source distribution)
Java Runtime: OpenJDK Runtime Environment
JVM: OpenJDK 64-Bit Server VM
Java Version: 11.0.6+10-post-Ubuntu-1ubuntu119.10.1
Operating System: Linux
Default Encoding: UTF-8
Language: en
Country: US
--></g></svg>