<?xml version="1.0" encoding="UTF-8" standalone="no"?><svg xmlns="http://www.w3.org/2000/svg" xmlns:xlink="http://www.w3.org/1999/xlink" contentScriptType="application/ecmascript" contentStyleType="text/css" height="486px" preserveAspectRatio="none" style="width:311px;height:486px;" version="1.1" viewBox="0 0 311 486" width="311px" zoomAndPan="magnify"><defs><filter height="300%" id="f1g7upr5a7ytc1" width="300%" x="-1" y="-1"><feGaussianBlur result="blurOut" stdDeviation="2.0"/><feColorMatrix in="blurOut" result="blurOut2" type="matrix" values="0 0 0 0 0 0 0 0 0 0 0 0 0 0 0 0 0 0 .4 0"/><feOffset dx="4.0" dy="4.0" in="blurOut2" result="blurOut3"/><feBlend in="SourceGraphic" in2="blurOut3" mode="normal"/></filter></defs><g><!--class com.hack23.cia.model.internal.application.system.impl.Agency--><a href="Agency.html" target="_top" xlink:actuate="onRequest" xlink:show="new" xlink:title="Agency.html" xlink:type="simple"><rect fill="#FEFECE" filter="url(#f1g7upr5a7ytc1)" height="348.4453" id="com.hack23.cia.model.internal.application.system.impl.Agency" style="stroke: #A80036; stroke-width: 1.5;" width="294" x="6" y="106"/><ellipse cx="21" cy="124.9688" fill="#ADD1B2" rx="11" ry="11" style="stroke: #A80036; stroke-width: 1.0;"/><path d="M23.9688,130.6094 Q23.3906,130.9063 22.75,131.0469 Q22.1094,131.2031 21.4063,131.2031 Q18.9063,131.2031 17.5781,129.5625 Q16.2656,127.9063 16.2656,124.7813 Q16.2656,121.6563 17.5781,120 Q18.9063,118.3438 21.4063,118.3438 Q22.1094,118.3438 22.75,118.5 Q23.4063,118.6563 23.9688,118.9531 L23.9688,121.6719 Q23.3438,121.0938 22.75,120.8281 Q22.1563,120.5469 21.5313,120.5469 Q20.1875,120.5469 19.5,121.625 Q18.8125,122.6875 18.8125,124.7813 Q18.8125,126.875 19.5,127.9531 Q20.1875,129.0156 21.5313,129.0156 Q22.1563,129.0156 22.75,128.75 Q23.3438,128.4688 23.9688,127.8906 L23.9688,130.6094 Z "/><text fill="#000000" font-family="sans-serif" font-size="14" lengthAdjust="spacingAndGlyphs" textLength="51" x="140.5" y="123.9951">Agency</text><text fill="#000000" font-family="sans-serif" font-size="10" lengthAdjust="spacingAndGlyphs" textLength="262" x="35" y="136.5791">com.hack23.cia.model.internal.application.system.impl</text><line style="stroke: #A80036; stroke-width: 1.5;" x1="7" x2="299" y1="143.9375" y2="143.9375"/><polygon fill="none" points="17,150.8398,21,154.8398,17,158.8398,13,154.8398" style="stroke: #B38D22; stroke-width: 1.0;"/><text fill="#000000" font-family="sans-serif" font-size="11" lengthAdjust="spacingAndGlyphs" textLength="129" x="26" y="158.1479">modelObjectId: Integer</text><polygon fill="none" points="17,163.6445,21,167.6445,17,171.6445,13,167.6445" style="stroke: #B38D22; stroke-width: 1.0;"/><text fill="#000000" font-family="sans-serif" font-size="11" lengthAdjust="spacingAndGlyphs" textLength="136" x="26" y="170.9526">modelObjectVersion: int</text><polygon fill="none" points="17,176.4492,21,180.4492,17,184.4492,13,180.4492" style="stroke: #B38D22; stroke-width: 1.0;"/><text fill="#000000" font-family="sans-serif" font-size="11" lengthAdjust="spacingAndGlyphs" textLength="115" x="26" y="183.7573">agencyName: String</text><polygon fill="none" points="17,189.2539,21,193.2539,17,197.2539,13,193.2539" style="stroke: #B38D22; stroke-width: 1.0;"/><text fill="#000000" font-family="sans-serif" font-size="11" lengthAdjust="spacingAndGlyphs" textLength="105" x="26" y="196.562">description: String</text><polygon fill="none" points="17,202.0586,21,206.0586,17,210.0586,13,206.0586" style="stroke: #B38D22; stroke-width: 1.0;"/><text fill="#000000" font-family="sans-serif" font-size="11" lengthAdjust="spacingAndGlyphs" textLength="119" x="26" y="209.3667">portals: List&lt;Portal&gt;</text><polygon fill="none" points="17,214.8633,21,218.8633,17,222.8633,13,218.8633" style="stroke: #B38D22; stroke-width: 1.0;"/><text fill="#000000" font-family="sans-serif" font-size="11" lengthAdjust="spacingAndGlyphs" textLength="55" x="26" y="222.1714">hjid: Long</text><line style="stroke: #A80036; stroke-width: 1.5;" x1="7" x2="299" y1="228.7656" y2="228.7656"/><ellipse cx="17" cy="240.668" fill="#84BE84" rx="3" ry="3" style="stroke: #038048; stroke-width: 1.0;"/><text fill="#000000" font-family="sans-serif" font-size="11" lengthAdjust="spacingAndGlyphs" textLength="153" x="26" y="242.9761">getModelObjectId(): Integer</text><ellipse cx="17" cy="253.4727" fill="#84BE84" rx="3" ry="3" style="stroke: #038048; stroke-width: 1.0;"/><text fill="#000000" font-family="sans-serif" font-size="11" lengthAdjust="spacingAndGlyphs" textLength="176" x="26" y="255.7808">setModelObjectId(Integer): void</text><ellipse cx="17" cy="266.2773" fill="#84BE84" rx="3" ry="3" style="stroke: #038048; stroke-width: 1.0;"/><text fill="#000000" font-family="sans-serif" font-size="11" lengthAdjust="spacingAndGlyphs" textLength="160" x="26" y="268.5854">getModelObjectVersion(): int</text><ellipse cx="17" cy="279.082" fill="#84BE84" rx="3" ry="3" style="stroke: #038048; stroke-width: 1.0;"/><text fill="#000000" font-family="sans-serif" font-size="11" lengthAdjust="spacingAndGlyphs" textLength="183" x="26" y="281.3901">setModelObjectVersion(int): void</text><ellipse cx="17" cy="291.8867" fill="#84BE84" rx="3" ry="3" style="stroke: #038048; stroke-width: 1.0;"/><text fill="#000000" font-family="sans-serif" font-size="11" lengthAdjust="spacingAndGlyphs" textLength="141" x="26" y="294.1948">getAgencyName(): String</text><ellipse cx="17" cy="304.6914" fill="#84BE84" rx="3" ry="3" style="stroke: #038048; stroke-width: 1.0;"/><text fill="#000000" font-family="sans-serif" font-size="11" lengthAdjust="spacingAndGlyphs" textLength="164" x="26" y="306.9995">setAgencyName(String): void</text><ellipse cx="17" cy="317.4961" fill="#84BE84" rx="3" ry="3" style="stroke: #038048; stroke-width: 1.0;"/><text fill="#000000" font-family="sans-serif" font-size="11" lengthAdjust="spacingAndGlyphs" textLength="132" x="26" y="319.8042">getDescription(): String</text><ellipse cx="17" cy="330.3008" fill="#84BE84" rx="3" ry="3" style="stroke: #038048; stroke-width: 1.0;"/><text fill="#000000" font-family="sans-serif" font-size="11" lengthAdjust="spacingAndGlyphs" textLength="155" x="26" y="332.6089">setDescription(String): void</text><ellipse cx="17" cy="343.1055" fill="#84BE84" rx="3" ry="3" style="stroke: #038048; stroke-width: 1.0;"/><text fill="#000000" font-family="sans-serif" font-size="11" lengthAdjust="spacingAndGlyphs" textLength="145" x="26" y="345.4136">getPortals(): List&lt;Portal&gt;</text><ellipse cx="17" cy="355.9102" fill="#84BE84" rx="3" ry="3" style="stroke: #038048; stroke-width: 1.0;"/><text fill="#000000" font-family="sans-serif" font-size="11" lengthAdjust="spacingAndGlyphs" textLength="168" x="26" y="358.2183">setPortals(List&lt;Portal&gt;): void</text><ellipse cx="17" cy="368.7148" fill="#84BE84" rx="3" ry="3" style="stroke: #038048; stroke-width: 1.0;"/><text fill="#000000" font-family="sans-serif" font-size="11" lengthAdjust="spacingAndGlyphs" textLength="198" x="26" y="371.0229">withModelObjectId(Integer): Agency</text><ellipse cx="17" cy="381.5195" fill="#84BE84" rx="3" ry="3" style="stroke: #038048; stroke-width: 1.0;"/><text fill="#000000" font-family="sans-serif" font-size="11" lengthAdjust="spacingAndGlyphs" textLength="205" x="26" y="383.8276">withModelObjectVersion(int): Agency</text><ellipse cx="17" cy="394.3242" fill="#84BE84" rx="3" ry="3" style="stroke: #038048; stroke-width: 1.0;"/><text fill="#000000" font-family="sans-serif" font-size="11" lengthAdjust="spacingAndGlyphs" textLength="186" x="26" y="396.6323">withAgencyName(String): Agency</text><ellipse cx="17" cy="407.1289" fill="#84BE84" rx="3" ry="3" style="stroke: #038048; stroke-width: 1.0;"/><text fill="#000000" font-family="sans-serif" font-size="11" lengthAdjust="spacingAndGlyphs" textLength="177" x="26" y="409.437">withDescription(String): Agency</text><ellipse cx="17" cy="419.9336" fill="#84BE84" rx="3" ry="3" style="stroke: #038048; stroke-width: 1.0;"/><text fill="#000000" font-family="sans-serif" font-size="11" lengthAdjust="spacingAndGlyphs" textLength="190" x="26" y="422.2417">withPortals(List&lt;Portal&gt;): Agency</text><ellipse cx="17" cy="432.7383" fill="#84BE84" rx="3" ry="3" style="stroke: #038048; stroke-width: 1.0;"/><text fill="#000000" font-family="sans-serif" font-size="11" lengthAdjust="spacingAndGlyphs" textLength="82" x="26" y="435.0464">getHjid(): Long</text><ellipse cx="17" cy="445.543" fill="#84BE84" rx="3" ry="3" style="stroke: #038048; stroke-width: 1.0;"/><text fill="#000000" font-family="sans-serif" font-size="11" lengthAdjust="spacingAndGlyphs" textLength="105" x="26" y="447.8511">setHjid(Long): void</text></a><!--class com.hack23.cia.model.common.api.ModelObject--><rect fill="#FEFECE" filter="url(#f1g7upr5a7ytc1)" height="37.9375" id="com.hack23.cia.model.common.api.ModelObject" style="stroke: #A80036; stroke-width: 1.5;" width="210" x="48" y="8"/><ellipse cx="63" cy="26.9688" fill="#B4A7E5" rx="11" ry="11" style="stroke: #A80036; stroke-width: 1.0;"/><path d="M58.9219,22.7344 L58.9219,20.5781 L66.3125,20.5781 L66.3125,22.7344 L63.8438,22.7344 L63.8438,30.8125 L66.3125,30.8125 L66.3125,32.9688 L58.9219,32.9688 L58.9219,30.8125 L61.3906,30.8125 L61.3906,22.7344 L58.9219,22.7344 Z "/><text fill="#000000" font-family="sans-serif" font-size="14" font-style="italic" lengthAdjust="spacingAndGlyphs" textLength="87" x="122.5" y="25.9951">ModelObject</text><text fill="#000000" font-family="sans-serif" font-size="10" font-style="italic" lengthAdjust="spacingAndGlyphs" textLength="178" x="77" y="38.5791">com.hack23.cia.model.common.api</text><!--link com.hack23.cia.model.common.api.ModelObject to com.hack23.cia.model.internal.application.system.impl.Agency--><path d="M153,66.3118 C153,77.9276 153,91.4534 153,105.9546 " fill="none" id="com.hack23.cia.model.common.api.ModelObject-com.hack23.cia.model.internal.application.system.impl.Agency" style="stroke: #A80036; stroke-width: 1.0; stroke-dasharray: 7.0,7.0;"/><polygon fill="none" points="146.0001,66.0162,153,46.0161,160.0001,66.0161,146.0001,66.0162" style="stroke: #A80036; stroke-width: 1.0;"/><text fill="#888888" font-family="sans-serif" font-size="10" lengthAdjust="spacingAndGlyphs" textLength="186" x="66" y="473.2822">UMLDoclet 2.0.5, PlantUML 1.2019.08</text><!--
@startuml
    set namespaceSeparator none
    hide empty fields
    hide empty methods

    class "<size:14>Agency\n<size:10>com.hack23.cia.model.internal.application.system.impl" as com.hack23.cia.model.internal.application.system.impl.Agency [[Agency.html]] {
        #modelObjectId: Integer
        #modelObjectVersion: int
        #agencyName: String
        #description: String
        #portals: List<Portal>
        #hjid: Long
        +getModelObjectId(): Integer
        +setModelObjectId(Integer): void
        +getModelObjectVersion(): int
        +setModelObjectVersion(int): void
        +getAgencyName(): String
        +setAgencyName(String): void
        +getDescription(): String
        +setDescription(String): void
        +getPortals(): List<Portal>
        +setPortals(List<Portal>): void
        +withModelObjectId(Integer): Agency
        +withModelObjectVersion(int): Agency
        +withAgencyName(String): Agency
        +withDescription(String): Agency
        +withPortals(List<Portal>): Agency
        +getHjid(): Long
        +setHjid(Long): void
    }

    interface "<size:14>ModelObject\n<size:10>com.hack23.cia.model.common.api" as com.hack23.cia.model.common.api.ModelObject

    com.hack23.cia.model.common.api.ModelObject <|.. com.hack23.cia.model.internal.application.system.impl.Agency

    center footer UMLDoclet 2.0.5, PlantUML 1.2019.08
@enduml

PlantUML version 1.2019.08(Sat Jul 13 21:25:14 CEST 2019)
(APACHE source distribution)
Java Runtime: OpenJDK Runtime Environment
JVM: OpenJDK 64-Bit Server VM
Java Version: 11.0.4+11-post-Ubuntu-1ubuntu219.04
Operating System: Linux
OS Version: 5.0.0-27-generic
Default Encoding: UTF-8
Language: en
Country: US
--></g></svg>