<?xml version="1.0" encoding="UTF-8" standalone="no"?><svg xmlns="http://www.w3.org/2000/svg" xmlns:xlink="http://www.w3.org/1999/xlink" contentScriptType="application/ecmascript" contentStyleType="text/css" height="744px" preserveAspectRatio="none" style="width:1470px;height:744px;" version="1.1" viewBox="0 0 1470 744" width="1470px" zoomAndPan="magnify"><defs><filter height="300%" id="f157gwjbl4fotm" width="300%" x="-1" y="-1"><feGaussianBlur result="blurOut" stdDeviation="2.0"/><feColorMatrix in="blurOut" result="blurOut2" type="matrix" values="0 0 0 0 0 0 0 0 0 0 0 0 0 0 0 0 0 0 .4 0"/><feOffset dx="4.0" dy="4.0" in="blurOut2" result="blurOut3"/><feBlend in="SourceGraphic" in2="blurOut3" mode="normal"/></filter></defs><g><!--MD5=[5aa94c924e9848adf3a3e7e8e30b1801]
cluster com.hack23.cia.web.impl.ui.application.views.common.pagemode--><polygon fill="#FFFFFF" filter="url(#f157gwjbl4fotm)" points="14,16,538,16,545,38.2969,1448,38.2969,1448,704,14,704,14,16" style="stroke: #000000; stroke-width: 1.5;"/><line style="stroke: #000000; stroke-width: 1.5;" x1="14" x2="545" y1="38.2969" y2="38.2969"/><text fill="#000000" font-family="sans-serif" font-size="14" font-weight="bold" lengthAdjust="spacingAndGlyphs" textLength="518" x="18" y="30.9951">com.hack23.cia.web.impl.ui.application.views.common.pagemode</text><!--MD5=[8528925b0923e369b09a363c4510c947]
class com.hack23.cia.web.impl.ui.application.views.common.pagemode.MainViewRegisterPageModContentFactoryImpl--><a href="MainViewRegisterPageModContentFactoryImpl.html" target="_top" title="MainViewRegisterPageModContentFactoryImpl.html" xlink:actuate="onRequest" xlink:href="MainViewRegisterPageModContentFactoryImpl.html" xlink:show="new" xlink:title="MainViewRegisterPageModContentFactoryImpl.html" xlink:type="simple"><rect fill="#FEFECE" filter="url(#f157gwjbl4fotm)" height="86.4141" id="com.hack23.cia.web.impl.ui.application.views.common.pagemode.MainViewRegisterPageModContentFactoryImpl" style="stroke: #A80036; stroke-width: 1.5;" width="320" x="22" y="610"/><ellipse cx="37" cy="626" fill="#ADD1B2" rx="11" ry="11" style="stroke: #A80036; stroke-width: 1.0;"/><path d="M39.9688,631.6406 Q39.3906,631.9375 38.75,632.0781 Q38.1094,632.2344 37.4063,632.2344 Q34.9063,632.2344 33.5781,630.5938 Q32.2656,628.9375 32.2656,625.8125 Q32.2656,622.6875 33.5781,621.0313 Q34.9063,619.375 37.4063,619.375 Q38.1094,619.375 38.75,619.5313 Q39.4063,619.6875 39.9688,619.9844 L39.9688,622.7031 Q39.3438,622.125 38.75,621.8594 Q38.1563,621.5781 37.5313,621.5781 Q36.1875,621.5781 35.5,622.6563 Q34.8125,623.7188 34.8125,625.8125 Q34.8125,627.9063 35.5,628.9844 Q36.1875,630.0469 37.5313,630.0469 Q38.1563,630.0469 38.75,629.7813 Q39.3438,629.5 39.9688,628.9219 L39.9688,631.6406 Z "/><text fill="#000000" font-family="sans-serif" font-size="12" lengthAdjust="spacingAndGlyphs" textLength="288" x="51" y="630.1543">MainViewRegisterPageModContentFactoryImpl</text><line style="stroke: #A80036; stroke-width: 1.5;" x1="23" x2="341" y1="642" y2="642"/><ellipse cx="33" cy="653" fill="none" rx="3" ry="3" style="stroke: #038048; stroke-width: 1.0;"/><text fill="#000000" font-family="sans-serif" font-size="11" lengthAdjust="spacingAndGlyphs" text-decoration="underline" textLength="73" x="42" y="656.2104">NAME: String</text><line style="stroke: #A80036; stroke-width: 1.5;" x1="23" x2="341" y1="662.8047" y2="662.8047"/><ellipse cx="33" cy="673.8047" fill="#84BE84" rx="3" ry="3" style="stroke: #038048; stroke-width: 1.0;"/><text fill="#000000" font-family="sans-serif" font-size="11" lengthAdjust="spacingAndGlyphs" textLength="264" x="42" y="677.0151">createContent(String, MenuBar, Panel): Layout</text><ellipse cx="33" cy="686.6094" fill="#84BE84" rx="3" ry="3" style="stroke: #038048; stroke-width: 1.0;"/><text fill="#000000" font-family="sans-serif" font-size="11" lengthAdjust="spacingAndGlyphs" textLength="186" x="42" y="689.8198">matches(String, String): boolean</text></a><!--MD5=[7d38faada51c7b8ff456d20c9d1a97c6]
class com.hack23.cia.web.impl.ui.application.views.common.pagemode.MainViewOverviewPageModContentFactoryImpl--><a href="MainViewOverviewPageModContentFactoryImpl.html" target="_top" title="MainViewOverviewPageModContentFactoryImpl.html" xlink:actuate="onRequest" xlink:href="MainViewOverviewPageModContentFactoryImpl.html" xlink:show="new" xlink:title="MainViewOverviewPageModContentFactoryImpl.html" xlink:type="simple"><rect fill="#FEFECE" filter="url(#f157gwjbl4fotm)" height="86.4141" id="com.hack23.cia.web.impl.ui.application.views.common.pagemode.MainViewOverviewPageModContentFactoryImpl" style="stroke: #A80036; stroke-width: 1.5;" width="322" x="377" y="610"/><ellipse cx="392" cy="626" fill="#ADD1B2" rx="11" ry="11" style="stroke: #A80036; stroke-width: 1.0;"/><path d="M394.9688,631.6406 Q394.3906,631.9375 393.75,632.0781 Q393.1094,632.2344 392.4063,632.2344 Q389.9063,632.2344 388.5781,630.5938 Q387.2656,628.9375 387.2656,625.8125 Q387.2656,622.6875 388.5781,621.0313 Q389.9063,619.375 392.4063,619.375 Q393.1094,619.375 393.75,619.5313 Q394.4063,619.6875 394.9688,619.9844 L394.9688,622.7031 Q394.3438,622.125 393.75,621.8594 Q393.1563,621.5781 392.5313,621.5781 Q391.1875,621.5781 390.5,622.6563 Q389.8125,623.7188 389.8125,625.8125 Q389.8125,627.9063 390.5,628.9844 Q391.1875,630.0469 392.5313,630.0469 Q393.1563,630.0469 393.75,629.7813 Q394.3438,629.5 394.9688,628.9219 L394.9688,631.6406 Z "/><text fill="#000000" font-family="sans-serif" font-size="12" lengthAdjust="spacingAndGlyphs" textLength="290" x="406" y="630.1543">MainViewOverviewPageModContentFactoryImpl</text><line style="stroke: #A80036; stroke-width: 1.5;" x1="378" x2="698" y1="642" y2="642"/><ellipse cx="388" cy="653" fill="none" rx="3" ry="3" style="stroke: #038048; stroke-width: 1.0;"/><text fill="#000000" font-family="sans-serif" font-size="11" lengthAdjust="spacingAndGlyphs" text-decoration="underline" textLength="73" x="397" y="656.2104">NAME: String</text><line style="stroke: #A80036; stroke-width: 1.5;" x1="378" x2="698" y1="662.8047" y2="662.8047"/><ellipse cx="388" cy="673.8047" fill="#84BE84" rx="3" ry="3" style="stroke: #038048; stroke-width: 1.0;"/><text fill="#000000" font-family="sans-serif" font-size="11" lengthAdjust="spacingAndGlyphs" textLength="264" x="397" y="677.0151">createContent(String, MenuBar, Panel): Layout</text><ellipse cx="388" cy="686.6094" fill="#84BE84" rx="3" ry="3" style="stroke: #038048; stroke-width: 1.0;"/><text fill="#000000" font-family="sans-serif" font-size="11" lengthAdjust="spacingAndGlyphs" textLength="186" x="397" y="689.8198">matches(String, String): boolean</text></a><!--MD5=[b67ad105788129c0cc6d4d9dcec6deae]
class com.hack23.cia.web.impl.ui.application.views.common.pagemode.MainViewPageVisitHistoryPageModContentFactoryImpl--><a href="MainViewPageVisitHistoryPageModContentFactoryImpl.html" target="_top" title="MainViewPageVisitHistoryPageModContentFactoryImpl.html" xlink:actuate="onRequest" xlink:href="MainViewPageVisitHistoryPageModContentFactoryImpl.html" xlink:show="new" xlink:title="MainViewPageVisitHistoryPageModContentFactoryImpl.html" xlink:type="simple"><rect fill="#FEFECE" filter="url(#f157gwjbl4fotm)" height="86.4141" id="com.hack23.cia.web.impl.ui.application.views.common.pagemode.MainViewPageVisitHistoryPageModContentFactoryImpl" style="stroke: #A80036; stroke-width: 1.5;" width="369" x="734.5" y="610"/><ellipse cx="749.5" cy="626" fill="#ADD1B2" rx="11" ry="11" style="stroke: #A80036; stroke-width: 1.0;"/><path d="M752.4688,631.6406 Q751.8906,631.9375 751.25,632.0781 Q750.6094,632.2344 749.9063,632.2344 Q747.4063,632.2344 746.0781,630.5938 Q744.7656,628.9375 744.7656,625.8125 Q744.7656,622.6875 746.0781,621.0313 Q747.4063,619.375 749.9063,619.375 Q750.6094,619.375 751.25,619.5313 Q751.9063,619.6875 752.4688,619.9844 L752.4688,622.7031 Q751.8438,622.125 751.25,621.8594 Q750.6563,621.5781 750.0313,621.5781 Q748.6875,621.5781 748,622.6563 Q747.3125,623.7188 747.3125,625.8125 Q747.3125,627.9063 748,628.9844 Q748.6875,630.0469 750.0313,630.0469 Q750.6563,630.0469 751.25,629.7813 Q751.8438,629.5 752.4688,628.9219 L752.4688,631.6406 Z "/><text fill="#000000" font-family="sans-serif" font-size="12" lengthAdjust="spacingAndGlyphs" textLength="337" x="763.5" y="630.1543">MainViewPageVisitHistoryPageModContentFactoryImpl</text><line style="stroke: #A80036; stroke-width: 1.5;" x1="735.5" x2="1102.5" y1="642" y2="642"/><ellipse cx="745.5" cy="653" fill="none" rx="3" ry="3" style="stroke: #038048; stroke-width: 1.0;"/><text fill="#000000" font-family="sans-serif" font-size="11" lengthAdjust="spacingAndGlyphs" text-decoration="underline" textLength="73" x="754.5" y="656.2104">NAME: String</text><line style="stroke: #A80036; stroke-width: 1.5;" x1="735.5" x2="1102.5" y1="662.8047" y2="662.8047"/><ellipse cx="745.5" cy="673.8047" fill="#84BE84" rx="3" ry="3" style="stroke: #038048; stroke-width: 1.0;"/><text fill="#000000" font-family="sans-serif" font-size="11" lengthAdjust="spacingAndGlyphs" textLength="264" x="754.5" y="677.0151">createContent(String, MenuBar, Panel): Layout</text><ellipse cx="745.5" cy="686.6094" fill="#84BE84" rx="3" ry="3" style="stroke: #038048; stroke-width: 1.0;"/><text fill="#000000" font-family="sans-serif" font-size="11" lengthAdjust="spacingAndGlyphs" textLength="186" x="754.5" y="689.8198">matches(String, String): boolean</text></a><!--MD5=[64e2e1708a8c290229d20fe3b30cc4be]
class com.hack23.cia.web.impl.ui.application.views.common.pagemode.AbstractPageModContentFactoryImpl--><a href="AbstractPageModContentFactoryImpl.html" target="_top" title="AbstractPageModContentFactoryImpl.html" xlink:actuate="onRequest" xlink:href="AbstractPageModContentFactoryImpl.html" xlink:show="new" xlink:title="AbstractPageModContentFactoryImpl.html" xlink:type="simple"><rect fill="#FEFECE" filter="url(#f157gwjbl4fotm)" height="227.2656" id="com.hack23.cia.web.impl.ui.application.views.common.pagemode.AbstractPageModContentFactoryImpl" style="stroke: #A80036; stroke-width: 1.5;" width="356" x="382" y="189"/><ellipse cx="439.75" cy="205" fill="#A9DCDF" rx="11" ry="11" style="stroke: #A80036; stroke-width: 1.0;"/><path d="M439.8594,200.3438 L438.7031,205.4219 L441.0313,205.4219 L439.8594,200.3438 Z M438.375,198.1094 L441.3594,198.1094 L444.7188,210.5 L442.2656,210.5 L441.5,207.4375 L438.2188,207.4375 L437.4688,210.5 L435.0313,210.5 L438.375,198.1094 Z "/><text fill="#000000" font-family="sans-serif" font-size="12" font-style="italic" lengthAdjust="spacingAndGlyphs" textLength="232" x="460.25" y="209.1543">AbstractPageModContentFactoryImpl</text><line style="stroke: #A80036; stroke-width: 1.5;" x1="383" x2="737" y1="221" y2="221"/><ellipse cx="393" cy="232" fill="none" rx="3" ry="3" style="stroke: #038048; stroke-width: 1.0;"/><text fill="#000000" font-family="sans-serif" font-size="11" lengthAdjust="spacingAndGlyphs" text-decoration="underline" textLength="219" x="402" y="235.2104">CURRENT_PAGE_VISIT_HISTORY: String</text><ellipse cx="393" cy="244.8047" fill="none" rx="3" ry="3" style="stroke: #038048; stroke-width: 1.0;"/><text fill="#000000" font-family="sans-serif" font-size="11" lengthAdjust="spacingAndGlyphs" text-decoration="underline" textLength="191" x="402" y="248.0151">DEFAULT_RESULTS_PER_PAGE: int</text><ellipse cx="393" cy="257.6094" fill="none" rx="3" ry="3" style="stroke: #038048; stroke-width: 1.0;"/><text fill="#000000" font-family="sans-serif" font-size="11" lengthAdjust="spacingAndGlyphs" text-decoration="underline" textLength="238" x="402" y="260.8198">GENERAL_PAGE_MODE_PAGE_VISIT: String</text><line style="stroke: #A80036; stroke-width: 1.5;" x1="383" x2="737" y1="267.4141" y2="267.4141"/><polygon fill="#FFFF44" points="393,273.4141,397,277.4141,393,281.4141,389,277.4141" style="stroke: #B38D22; stroke-width: 1.0;"/><text fill="#000000" font-family="sans-serif" font-size="11" lengthAdjust="spacingAndGlyphs" textLength="330" x="402" y="281.6245">createPageVisitHistory(String, String, VerticalLayout): void</text><polygon fill="#FFFF44" points="393,286.2188,397,290.2188,393,294.2188,389,290.2188" style="stroke: #B38D22; stroke-width: 1.0;"/><text fill="#000000" font-family="sans-serif" font-size="11" lengthAdjust="spacingAndGlyphs" textLength="206" x="402" y="294.4292">createPanelContent(): VerticalLayout</text><polygon fill="#FFFF44" points="393,299.0234,397,303.0234,393,307.0234,389,303.0234" style="stroke: #B38D22; stroke-width: 1.0;"/><text fill="#000000" font-family="sans-serif" font-size="11" lengthAdjust="spacingAndGlyphs" textLength="316" x="402" y="307.2339">getAdminChartDataManager(): AdminChartDataManager</text><polygon fill="#FFFF44" points="393,311.8281,397,315.8281,393,319.8281,389,315.8281" style="stroke: #B38D22; stroke-width: 1.0;"/><text fill="#000000" font-family="sans-serif" font-size="11" lengthAdjust="spacingAndGlyphs" textLength="254" x="402" y="320.0386">getApplicationManager(): ApplicationManager</text><polygon fill="#FFFF44" points="393,324.6328,397,328.6328,393,332.6328,389,328.6328" style="stroke: #B38D22; stroke-width: 1.0;"/><text fill="#000000" font-family="sans-serif" font-size="11" lengthAdjust="spacingAndGlyphs" textLength="174" x="402" y="332.8433">getFormFactory(): FormFactory</text><polygon fill="#FFFF44" points="393,337.4375,397,341.4375,393,345.4375,389,341.4375" style="stroke: #B38D22; stroke-width: 1.0;"/><text fill="#000000" font-family="sans-serif" font-size="11" lengthAdjust="spacingAndGlyphs" textLength="164" x="402" y="345.6479">getGridFactory(): GridFactory</text><polygon fill="#FFFF44" points="393,350.2422,397,354.2422,393,358.2422,389,354.2422" style="stroke: #B38D22; stroke-width: 1.0;"/><text fill="#000000" font-family="sans-serif" font-size="11" lengthAdjust="spacingAndGlyphs" textLength="287" x="402" y="358.4526">getMenuItemFactory(): ApplicationMenuItemFactory</text><polygon fill="#FFFF44" points="393,363.0469,397,367.0469,393,371.0469,389,367.0469" style="stroke: #B38D22; stroke-width: 1.0;"/><text fill="#000000" font-family="sans-serif" font-size="11" lengthAdjust="spacingAndGlyphs" textLength="294" x="402" y="371.2573">getPageActionEventHelper(): PageActionEventHelper</text><polygon fill="#FFFF44" points="393,375.8516,397,379.8516,393,383.8516,389,379.8516" style="stroke: #B38D22; stroke-width: 1.0;"/><text fill="#000000" font-family="sans-serif" font-size="11" lengthAdjust="spacingAndGlyphs" textLength="140" x="402" y="384.062">getPageId(String): String</text><polygon fill="#FFFF44" points="393,388.6563,397,392.6563,393,396.6563,389,392.6563" style="stroke: #B38D22; stroke-width: 1.0;"/><text fill="#000000" font-family="sans-serif" font-size="11" lengthAdjust="spacingAndGlyphs" textLength="216" x="402" y="396.8667">getPageLinkFactory(): PageLinkFactory</text><polygon fill="#FFFF44" points="393,401.4609,397,405.4609,393,409.4609,389,405.4609" style="stroke: #B38D22; stroke-width: 1.0;"/><text fill="#000000" font-family="sans-serif" font-size="11" lengthAdjust="spacingAndGlyphs" textLength="123" x="402" y="409.6714">getPageNr(String): int</text></a><!--MD5=[910b05f7a71c4b637000f0152433e223]
class com.hack23.cia.web.impl.ui.application.views.common.pagemode.AbstractItemPageModContentFactoryImpl--><a href="AbstractItemPageModContentFactoryImpl.html" target="_top" title="AbstractItemPageModContentFactoryImpl.html" xlink:actuate="onRequest" xlink:href="AbstractItemPageModContentFactoryImpl.html" xlink:show="new" xlink:title="AbstractItemPageModContentFactoryImpl.html" xlink:type="simple"><rect fill="#FEFECE" filter="url(#f157gwjbl4fotm)" height="73.6094" id="com.hack23.cia.web.impl.ui.application.views.common.pagemode.AbstractItemPageModContentFactoryImpl" style="stroke: #A80036; stroke-width: 1.5;" width="303" x="241.5" y="476"/><ellipse cx="256.5" cy="492" fill="#A9DCDF" rx="11" ry="11" style="stroke: #A80036; stroke-width: 1.0;"/><path d="M256.6094,487.3438 L255.4531,492.4219 L257.7813,492.4219 L256.6094,487.3438 Z M255.125,485.1094 L258.1094,485.1094 L261.4688,497.5 L259.0156,497.5 L258.25,494.4375 L254.9688,494.4375 L254.2188,497.5 L251.7813,497.5 L255.125,485.1094 Z "/><text fill="#000000" font-family="sans-serif" font-size="12" font-style="italic" lengthAdjust="spacingAndGlyphs" textLength="260" x="270.5" y="496.1543">AbstractItemPageModContentFactoryImpl</text><rect fill="#FFFFFF" height="15.9688" style="stroke: #000000; stroke-width: 1.0; stroke-dasharray: 2.0,2.0;" width="9" x="538.5" y="473"/><text fill="#000000" font-family="sans-serif" font-size="12" font-style="italic" lengthAdjust="spacingAndGlyphs" textLength="7" x="539.5" y="485.1387">T</text><line style="stroke: #A80036; stroke-width: 1.5;" x1="242.5" x2="543.5" y1="508" y2="508"/><line style="stroke: #A80036; stroke-width: 1.5;" x1="242.5" x2="543.5" y1="516" y2="516"/><polygon fill="#FFFF44" points="252.5,522,256.5,526,252.5,530,248.5,526" style="stroke: #B38D22; stroke-width: 1.0;"/><text fill="#000000" font-family="sans-serif" font-size="11" font-style="italic" lengthAdjust="spacingAndGlyphs" textLength="99" x="261.5" y="530.2104">getItem(String): T</text><ellipse cx="252.5" cy="539.8047" fill="#84BE84" rx="3" ry="3" style="stroke: #038048; stroke-width: 1.0;"/><text fill="#000000" font-family="sans-serif" font-size="11" lengthAdjust="spacingAndGlyphs" textLength="178" x="261.5" y="543.0151">validReference(String): boolean</text></a><!--MD5=[f0b2dcde2caaec718a6d7d1431d262a9]
class com.hack23.cia.web.impl.ui.application.views.common.pagemode.MainViewLoginPageModContentFactoryImpl--><a href="MainViewLoginPageModContentFactoryImpl.html" target="_top" title="MainViewLoginPageModContentFactoryImpl.html" xlink:actuate="onRequest" xlink:href="MainViewLoginPageModContentFactoryImpl.html" xlink:show="new" xlink:title="MainViewLoginPageModContentFactoryImpl.html" xlink:type="simple"><rect fill="#FEFECE" filter="url(#f157gwjbl4fotm)" height="86.4141" id="com.hack23.cia.web.impl.ui.application.views.common.pagemode.MainViewLoginPageModContentFactoryImpl" style="stroke: #A80036; stroke-width: 1.5;" width="301" x="1138.5" y="610"/><ellipse cx="1153.5" cy="626" fill="#ADD1B2" rx="11" ry="11" style="stroke: #A80036; stroke-width: 1.0;"/><path d="M1156.4688,631.6406 Q1155.8906,631.9375 1155.25,632.0781 Q1154.6094,632.2344 1153.9063,632.2344 Q1151.4063,632.2344 1150.0781,630.5938 Q1148.7656,628.9375 1148.7656,625.8125 Q1148.7656,622.6875 1150.0781,621.0313 Q1151.4063,619.375 1153.9063,619.375 Q1154.6094,619.375 1155.25,619.5313 Q1155.9063,619.6875 1156.4688,619.9844 L1156.4688,622.7031 Q1155.8438,622.125 1155.25,621.8594 Q1154.6563,621.5781 1154.0313,621.5781 Q1152.6875,621.5781 1152,622.6563 Q1151.3125,623.7188 1151.3125,625.8125 Q1151.3125,627.9063 1152,628.9844 Q1152.6875,630.0469 1154.0313,630.0469 Q1154.6563,630.0469 1155.25,629.7813 Q1155.8438,629.5 1156.4688,628.9219 L1156.4688,631.6406 Z "/><text fill="#000000" font-family="sans-serif" font-size="12" lengthAdjust="spacingAndGlyphs" textLength="269" x="1167.5" y="630.1543">MainViewLoginPageModContentFactoryImpl</text><line style="stroke: #A80036; stroke-width: 1.5;" x1="1139.5" x2="1438.5" y1="642" y2="642"/><ellipse cx="1149.5" cy="653" fill="none" rx="3" ry="3" style="stroke: #038048; stroke-width: 1.0;"/><text fill="#000000" font-family="sans-serif" font-size="11" lengthAdjust="spacingAndGlyphs" text-decoration="underline" textLength="73" x="1158.5" y="656.2104">NAME: String</text><line style="stroke: #A80036; stroke-width: 1.5;" x1="1139.5" x2="1438.5" y1="662.8047" y2="662.8047"/><ellipse cx="1149.5" cy="673.8047" fill="#84BE84" rx="3" ry="3" style="stroke: #038048; stroke-width: 1.0;"/><text fill="#000000" font-family="sans-serif" font-size="11" lengthAdjust="spacingAndGlyphs" textLength="264" x="1158.5" y="677.0151">createContent(String, MenuBar, Panel): Layout</text><ellipse cx="1149.5" cy="686.6094" fill="#84BE84" rx="3" ry="3" style="stroke: #038048; stroke-width: 1.0;"/><text fill="#000000" font-family="sans-serif" font-size="11" lengthAdjust="spacingAndGlyphs" textLength="186" x="1158.5" y="689.8198">matches(String, String): boolean</text></a><!--MD5=[de3e788a2f2e003bfb7b09d472fa58c0]
class com.hack23.cia.web.impl.ui.application.views.common.pagemode.PageModeContentFactory--><a href="PageModeContentFactory.html" target="_top" title="PageModeContentFactory.html" xlink:actuate="onRequest" xlink:href="PageModeContentFactory.html" xlink:show="new" xlink:title="PageModeContentFactory.html" xlink:type="simple"><rect fill="#FEFECE" filter="url(#f157gwjbl4fotm)" height="86.4141" id="com.hack23.cia.web.impl.ui.application.views.common.pagemode.PageModeContentFactory" style="stroke: #A80036; stroke-width: 1.5;" width="290" x="415" y="43"/><ellipse cx="474.75" cy="59" fill="#B4A7E5" rx="11" ry="11" style="stroke: #A80036; stroke-width: 1.0;"/><path d="M470.6719,54.7656 L470.6719,52.6094 L478.0625,52.6094 L478.0625,54.7656 L475.5938,54.7656 L475.5938,62.8438 L478.0625,62.8438 L478.0625,65 L470.6719,65 L470.6719,62.8438 L473.1406,62.8438 L473.1406,54.7656 L470.6719,54.7656 Z "/><text fill="#000000" font-family="sans-serif" font-size="12" font-style="italic" lengthAdjust="spacingAndGlyphs" textLength="162" x="495.25" y="63.1543">PageModeContentFactory</text><line style="stroke: #A80036; stroke-width: 1.5;" x1="416" x2="704" y1="75" y2="75"/><line style="stroke: #A80036; stroke-width: 1.5;" x1="416" x2="704" y1="83" y2="83"/><ellipse cx="426" cy="94" fill="#84BE84" rx="3" ry="3" style="stroke: #038048; stroke-width: 1.0;"/><text fill="#000000" font-family="sans-serif" font-size="11" font-style="italic" lengthAdjust="spacingAndGlyphs" textLength="264" x="435" y="97.2104">createContent(String, MenuBar, Panel): Layout</text><ellipse cx="426" cy="106.8047" fill="#84BE84" rx="3" ry="3" style="stroke: #038048; stroke-width: 1.0;"/><text fill="#000000" font-family="sans-serif" font-size="11" font-style="italic" lengthAdjust="spacingAndGlyphs" textLength="183" x="435" y="110.0151">matches(String, String): boolean</text><ellipse cx="426" cy="119.6094" fill="#84BE84" rx="3" ry="3" style="stroke: #038048; stroke-width: 1.0;"/><text fill="#000000" font-family="sans-serif" font-size="11" font-style="italic" lengthAdjust="spacingAndGlyphs" textLength="179" x="435" y="122.8198">validReference(String): boolean</text></a><!--MD5=[db981ccff2a6c8db469b3bc4ac975bd4]
class com.hack23.cia.web.impl.ui.application.views.common.pagemode.AbstractBasicPageModContentFactoryImpl--><a href="AbstractBasicPageModContentFactoryImpl.html" target="_top" title="AbstractBasicPageModContentFactoryImpl.html" xlink:actuate="onRequest" xlink:href="AbstractBasicPageModContentFactoryImpl.html" xlink:show="new" xlink:title="AbstractBasicPageModContentFactoryImpl.html" xlink:type="simple"><rect fill="#FEFECE" filter="url(#f157gwjbl4fotm)" height="60.8047" id="com.hack23.cia.web.impl.ui.application.views.common.pagemode.AbstractBasicPageModContentFactoryImpl" style="stroke: #A80036; stroke-width: 1.5;" width="296" x="580" y="482.5"/><ellipse cx="595" cy="498.5" fill="#A9DCDF" rx="11" ry="11" style="stroke: #A80036; stroke-width: 1.0;"/><path d="M595.1094,493.8438 L593.9531,498.9219 L596.2813,498.9219 L595.1094,493.8438 Z M593.625,491.6094 L596.6094,491.6094 L599.9688,504 L597.5156,504 L596.75,500.9375 L593.4688,500.9375 L592.7188,504 L590.2813,504 L593.625,491.6094 Z "/><text fill="#000000" font-family="sans-serif" font-size="12" font-style="italic" lengthAdjust="spacingAndGlyphs" textLength="264" x="609" y="502.6543">AbstractBasicPageModContentFactoryImpl</text><line style="stroke: #A80036; stroke-width: 1.5;" x1="581" x2="875" y1="514.5" y2="514.5"/><line style="stroke: #A80036; stroke-width: 1.5;" x1="581" x2="875" y1="522.5" y2="522.5"/><ellipse cx="591" cy="533.5" fill="#84BE84" rx="3" ry="3" style="stroke: #038048; stroke-width: 1.0;"/><text fill="#000000" font-family="sans-serif" font-size="11" lengthAdjust="spacingAndGlyphs" textLength="178" x="600" y="536.7104">validReference(String): boolean</text></a><!--MD5=[d88f2be8aab322bec45f17f46732a0cf]
reverse link com.hack23.cia.web.impl.ui.application.views.common.pagemode.AbstractBasicPageModContentFactoryImpl to com.hack23.cia.web.impl.ui.application.views.common.pagemode.MainViewRegisterPageModContentFactoryImpl--><path d="M589.1246,548.6091 C513.8288,567.9157 420.4202,591.8666 342.0745,611.9552 " fill="none" id="com.hack23.cia.web.impl.ui.application.views.common.pagemode.AbstractBasicPageModContentFactoryImpl&lt;-com.hack23.cia.web.impl.ui.application.views.common.pagemode.MainViewRegisterPageModContentFactoryImpl" style="stroke: #A80036; stroke-width: 1.0;"/><polygon fill="none" points="587.7407,541.7375,608.8527,543.5506,591.218,555.2988,587.7407,541.7375" style="stroke: #A80036; stroke-width: 1.0;"/><!--MD5=[f23bd7d36d0cbb64bfaaf21b864966b6]
reverse link com.hack23.cia.web.impl.ui.application.views.common.pagemode.AbstractBasicPageModContentFactoryImpl to com.hack23.cia.web.impl.ui.application.views.common.pagemode.MainViewOverviewPageModContentFactoryImpl--><path d="M670.0542,555.6969 C646.744,572.8728 619.9044,592.6494 596.5353,609.8687 " fill="none" id="com.hack23.cia.web.impl.ui.application.views.common.pagemode.AbstractBasicPageModContentFactoryImpl&lt;-com.hack23.cia.web.impl.ui.application.views.common.pagemode.MainViewOverviewPageModContentFactoryImpl" style="stroke: #A80036; stroke-width: 1.0;"/><polygon fill="none" points="666.0502,549.9522,686.3037,543.7236,674.355,561.223,666.0502,549.9522" style="stroke: #A80036; stroke-width: 1.0;"/><!--MD5=[d9161bdf16c840397792d0f7eb36cefe]
reverse link com.hack23.cia.web.impl.ui.application.views.common.pagemode.AbstractBasicPageModContentFactoryImpl to com.hack23.cia.web.impl.ui.application.views.common.pagemode.MainViewPageVisitHistoryPageModContentFactoryImpl--><path d="M786.2508,555.6969 C809.6836,572.8728 836.6645,592.6494 860.1566,609.8687 " fill="none" id="com.hack23.cia.web.impl.ui.application.views.common.pagemode.AbstractBasicPageModContentFactoryImpl&lt;-com.hack23.cia.web.impl.ui.application.views.common.pagemode.MainViewPageVisitHistoryPageModContentFactoryImpl" style="stroke: #A80036; stroke-width: 1.0;"/><polygon fill="none" points="781.9083,561.193,769.9158,543.7236,790.1848,549.9015,781.9083,561.193" style="stroke: #A80036; stroke-width: 1.0;"/><!--MD5=[2f4cdd8a78a171d44bcb69a7735afda0]
reverse link com.hack23.cia.web.impl.ui.application.views.common.pagemode.PageModeContentFactory to com.hack23.cia.web.impl.ui.application.views.common.pagemode.AbstractPageModContentFactoryImpl--><path d="M560,149.4706 C560,161.8562 560,175.1913 560,188.6422 " fill="none" id="com.hack23.cia.web.impl.ui.application.views.common.pagemode.PageModeContentFactory&lt;-com.hack23.cia.web.impl.ui.application.views.common.pagemode.AbstractPageModContentFactoryImpl" style="stroke: #A80036; stroke-width: 1.0; stroke-dasharray: 7.0,7.0;"/><polygon fill="none" points="553.0001,149.0323,560,129.0323,567.0001,149.0322,553.0001,149.0323" style="stroke: #A80036; stroke-width: 1.0;"/><!--MD5=[19cd630580a56bd10157287afdab4c3b]
reverse link com.hack23.cia.web.impl.ui.application.views.common.pagemode.AbstractPageModContentFactoryImpl to com.hack23.cia.web.impl.ui.application.views.common.pagemode.AbstractItemPageModContentFactoryImpl--><path d="M457.1908,432.0888 C444.6405,447.9082 432.706,462.9515 422.6075,475.6803 " fill="none" id="com.hack23.cia.web.impl.ui.application.views.common.pagemode.AbstractPageModContentFactoryImpl&lt;-com.hack23.cia.web.impl.ui.application.views.common.pagemode.AbstractItemPageModContentFactoryImpl" style="stroke: #A80036; stroke-width: 1.0;"/><polygon fill="none" points="451.987,427.3852,469.9011,416.0677,462.9547,436.0864,451.987,427.3852" style="stroke: #A80036; stroke-width: 1.0;"/><!--MD5=[d845590bff4137534a88894ab234b1e6]
reverse link com.hack23.cia.web.impl.ui.application.views.common.pagemode.AbstractBasicPageModContentFactoryImpl to com.hack23.cia.web.impl.ui.application.views.common.pagemode.MainViewLoginPageModContentFactoryImpl--><path d="M872.3314,548.3093 C946.6612,566.5732 1038.7267,589.3181 1121,610 C1126.6937,611.4313 1132.4948,612.894 1138.3538,614.3751 " fill="none" id="com.hack23.cia.web.impl.ui.application.views.common.pagemode.AbstractBasicPageModContentFactoryImpl&lt;-com.hack23.cia.web.impl.ui.application.views.common.pagemode.MainViewLoginPageModContentFactoryImpl" style="stroke: #A80036; stroke-width: 1.0;"/><polygon fill="none" points="870.6027,555.0929,852.8492,543.5251,873.9415,541.4968,870.6027,555.0929" style="stroke: #A80036; stroke-width: 1.0;"/><!--MD5=[ae31d4c251d9381f7ed5fff376aab707]
reverse link com.hack23.cia.web.impl.ui.application.views.common.pagemode.AbstractPageModContentFactoryImpl to com.hack23.cia.web.impl.ui.application.views.common.pagemode.AbstractBasicPageModContentFactoryImpl--><path d="M663.1154,431.7012 C678.1307,450.515 692.2855,468.2506 703.5194,482.3264 " fill="none" id="com.hack23.cia.web.impl.ui.application.views.common.pagemode.AbstractPageModContentFactoryImpl&lt;-com.hack23.cia.web.impl.ui.application.views.common.pagemode.AbstractBasicPageModContentFactoryImpl" style="stroke: #A80036; stroke-width: 1.0;"/><polygon fill="none" points="657.643,436.0661,650.6384,416.0677,668.5853,427.3331,657.643,436.0661" style="stroke: #A80036; stroke-width: 1.0;"/><text fill="#888888" font-family="sans-serif" font-size="10" lengthAdjust="spacingAndGlyphs" textLength="186" x="644" y="731.2822">UMLDoclet 2.0.7, PlantUML 1.2019.12</text><!--MD5=[00484cbfaeed719f25b736fd7d678eef]
@startuml
    namespace com.hack23.cia.web.impl.ui.application.views.common.pagemode {

        class MainViewRegisterPageModContentFactoryImpl [[MainViewRegisterPageModContentFactoryImpl.html]] {
            {static} +NAME: String
            +createContent(String, MenuBar, Panel): Layout
            +matches(String, String): boolean
        }

        class MainViewOverviewPageModContentFactoryImpl [[MainViewOverviewPageModContentFactoryImpl.html]] {
            {static} +NAME: String
            +createContent(String, MenuBar, Panel): Layout
            +matches(String, String): boolean
        }

        class MainViewPageVisitHistoryPageModContentFactoryImpl [[MainViewPageVisitHistoryPageModContentFactoryImpl.html]] {
            {static} +NAME: String
            +createContent(String, MenuBar, Panel): Layout
            +matches(String, String): boolean
        }

        abstract class AbstractPageModContentFactoryImpl [[AbstractPageModContentFactoryImpl.html]] {
            {static} +CURRENT_PAGE_VISIT_HISTORY: String
            {static} +DEFAULT_RESULTS_PER_PAGE: int
            {static} +GENERAL_PAGE_MODE_PAGE_VISIT: String
            #createPageVisitHistory(String, String, VerticalLayout): void
            #createPanelContent(): VerticalLayout
            #getAdminChartDataManager(): AdminChartDataManager
            #getApplicationManager(): ApplicationManager
            #getFormFactory(): FormFactory
            #getGridFactory(): GridFactory
            #getMenuItemFactory(): ApplicationMenuItemFactory
            #getPageActionEventHelper(): PageActionEventHelper
            #getPageId(String): String
            #getPageLinkFactory(): PageLinkFactory
            #getPageNr(String): int
        }

        abstract class AbstractItemPageModContentFactoryImpl<T> [[AbstractItemPageModContentFactoryImpl.html]] {
            {abstract} #getItem(String): T
            +validReference(String): boolean
        }

        class MainViewLoginPageModContentFactoryImpl [[MainViewLoginPageModContentFactoryImpl.html]] {
            {static} +NAME: String
            +createContent(String, MenuBar, Panel): Layout
            +matches(String, String): boolean
        }

        interface PageModeContentFactory [[PageModeContentFactory.html]] {
            {abstract} +createContent(String, MenuBar, Panel): Layout
            {abstract} +matches(String, String): boolean
            {abstract} +validReference(String): boolean
        }

        abstract class AbstractBasicPageModContentFactoryImpl [[AbstractBasicPageModContentFactoryImpl.html]] {
            +validReference(String): boolean
        }

        AbstractBasicPageModContentFactoryImpl <|- - MainViewRegisterPageModContentFactoryImpl
        AbstractBasicPageModContentFactoryImpl <|- - MainViewOverviewPageModContentFactoryImpl
        AbstractBasicPageModContentFactoryImpl <|- - MainViewPageVisitHistoryPageModContentFactoryImpl
        PageModeContentFactory <|.. AbstractPageModContentFactoryImpl
        AbstractPageModContentFactoryImpl <|- - AbstractItemPageModContentFactoryImpl
        AbstractBasicPageModContentFactoryImpl <|- - MainViewLoginPageModContentFactoryImpl
        AbstractPageModContentFactoryImpl <|- - AbstractBasicPageModContentFactoryImpl
    }

    center footer UMLDoclet 2.0.7, PlantUML 1.2019.12
@enduml

PlantUML version 1.2019.12(Sun Nov 03 11:24:54 CET 2019)
(APACHE source distribution)
Java Runtime: OpenJDK Runtime Environment
JVM: OpenJDK 64-Bit Server VM
Java Version: 11.0.5-ea+10-post-Ubuntu-0ubuntu1
Operating System: Linux
Default Encoding: UTF-8
Language: en
Country: US
--></g></svg>