<svg xmlns="http://www.w3.org/2000/svg" xmlns:xlink="http://www.w3.org/1999/xlink" contentStyleType="text/css" height="307px" preserveAspectRatio="none" style="width:375px;height:307px;background:#FFFFFF;" version="1.1" viewBox="0 0 375 307" width="375px" zoomAndPan="magnify"><defs/><g><!--class com.hack23.cia.service.data.impl.util.SecretPGXADataSource--><a href="SecretPGXADataSource.html" target="_top" title="SecretPGXADataSource.html" xlink:actuate="onRequest" xlink:href="SecretPGXADataSource.html" xlink:show="new" xlink:title="SecretPGXADataSource.html" xlink:type="simple"><g id="elem_com.hack23.cia.service.data.impl.util.SecretPGXADataSource"><rect codeLine="13" fill="#F1F1F1" height="107.8917" id="com.hack23.cia.service.data.impl.util.SecretPGXADataSource" rx="2.5" ry="2.5" style="stroke:#181818;stroke-width:0.5;" width="362.3347" x="6" y="91"/><ellipse cx="96.9724" cy="112.344" fill="#ADD1B2" rx="11" ry="11" style="stroke:#181818;stroke-width:1.0;"/><path d="M99.9412,117.9846 Q99.363,118.2815 98.7224,118.4221 Q98.0818,118.5783 97.3787,118.5783 Q94.8787,118.5783 93.5505,116.9377 Q92.238,115.2815 92.238,112.1565 Q92.238,109.0315 93.5505,107.3752 Q94.8787,105.719 97.3787,105.719 Q98.0818,105.719 98.7224,105.8752 Q99.3787,106.0315 99.9412,106.3283 L99.9412,109.0471 Q99.3162,108.469 98.7224,108.2033 Q98.1287,107.9221 97.5037,107.9221 Q96.1599,107.9221 95.4724,109.0002 Q94.7849,110.0627 94.7849,112.1565 Q94.7849,114.2502 95.4724,115.3283 Q96.1599,116.3908 97.5037,116.3908 Q98.1287,116.3908 98.7224,116.1252 Q99.3162,115.844 99.9412,115.2658 L99.9412,117.9846 Z " fill="#000000"/><text fill="#000000" font-family="sans-serif" font-size="14" lengthAdjust="spacing" textLength="153.0334" x="126.9007" y="110.9659">SecretPGXADataSource</text><text fill="#000000" font-family="sans-serif" font-size="10" lengthAdjust="spacing" textLength="171.8899" x="117.4724" y="125.7579">com.hack23.cia.service.data.impl.util</text><line style="stroke:#181818;stroke-width:0.5;" x1="7" x2="367.3347" y1="133.6879" y2="133.6879"/><ellipse cx="17" cy="148.7219" fill="#84BE84" rx="3" ry="3" style="stroke:#038048;stroke-width:1.0;"/><text fill="#000000" font-family="sans-serif" font-size="14" lengthAdjust="spacing" textLength="336.3347" x="26" y="152.6538">SecretPGXADataSource(SecretCredentialsManager)</text><ellipse cx="17" cy="167.7898" fill="#84BE84" rx="3" ry="3" style="stroke:#038048;stroke-width:1.0;"/><text fill="#000000" font-family="sans-serif" font-size="14" lengthAdjust="spacing" textLength="221.7031" x="26" y="171.7218">getXAConnection(): XAConnection</text><polygon fill="#FFFF44" points="17,181.8577,21,185.8577,17,189.8577,13,185.8577" style="stroke:#B38D22;stroke-width:1.0;"/><text fill="#000000" font-family="sans-serif" font-size="14" lengthAdjust="spacing" textLength="189.5172" x="26" y="190.7897">createReference(): Reference</text></g></a><!--class org.postgresql.xa.PGXADataSource--><g id="elem_org.postgresql.xa.PGXADataSource"><rect codeLine="19" fill="#F1F1F1" height="42.6879" id="org.postgresql.xa.PGXADataSource" rx="2.5" ry="2.5" style="stroke:#181818;stroke-width:0.5;" width="143.9996" x="115" y="12"/><ellipse cx="130" cy="33.344" fill="#ADD1B2" rx="11" ry="11" style="stroke:#181818;stroke-width:1.0;"/><path d="M132.9688,38.9846 Q132.3906,39.2815 131.75,39.4221 Q131.1094,39.5783 130.4063,39.5783 Q127.9063,39.5783 126.5781,37.9377 Q125.2656,36.2815 125.2656,33.1565 Q125.2656,30.0315 126.5781,28.3752 Q127.9063,26.719 130.4063,26.719 Q131.1094,26.719 131.75,26.8752 Q132.4063,27.0315 132.9688,27.3283 L132.9688,30.0471 Q132.3438,29.469 131.75,29.2033 Q131.1563,28.9221 130.5313,28.9221 Q129.1875,28.9221 128.5,30.0002 Q127.8125,31.0627 127.8125,33.1565 Q127.8125,35.2502 128.5,36.3283 Q129.1875,37.3908 130.5313,37.3908 Q131.1563,37.3908 131.75,37.1252 Q132.3438,36.844 132.9688,36.2658 L132.9688,38.9846 Z " fill="#000000"/><text fill="#000000" font-family="sans-serif" font-size="14" lengthAdjust="spacing" textLength="111.9996" x="144" y="31.9659">PGXADataSource</text><text fill="#000000" font-family="sans-serif" font-size="10" lengthAdjust="spacing" textLength="82.6299" x="158.6848" y="46.7579">org.postgresql.xa</text></g><!--class com.hack23.cia.service.data.impl.util.SecretPGXADataSource.SecretReference--><a href="SecretPGXADataSource.SecretReference.html" target="_top" title="SecretPGXADataSource.SecretReference.html" xlink:actuate="onRequest" xlink:href="SecretPGXADataSource.SecretReference.html" xlink:show="new" xlink:title="SecretPGXADataSource.SecretReference.html" xlink:type="simple"><g id="elem_com.hack23.cia.service.data.impl.util.SecretPGXADataSource.SecretReference"><rect codeLine="20" fill="#F1F1F1" height="42.6879" id="com.hack23.cia.service.data.impl.util.SecretPGXADataSource.SecretReference" rx="2.5" ry="2.5" style="stroke:#181818;stroke-width:0.5;" width="296.081" x="39" y="235"/><ellipse cx="54" cy="256.344" fill="#ADD1B2" rx="11" ry="11" style="stroke:#181818;stroke-width:1.0;"/><path d="M56.9688,261.9846 Q56.3906,262.2815 55.75,262.4221 Q55.1094,262.5783 54.4063,262.5783 Q51.9063,262.5783 50.5781,260.9377 Q49.2656,259.2815 49.2656,256.1565 Q49.2656,253.0315 50.5781,251.3752 Q51.9063,249.719 54.4063,249.719 Q55.1094,249.719 55.75,249.8752 Q56.4063,250.0315 56.9688,250.3283 L56.9688,253.0471 Q56.3438,252.469 55.75,252.2033 Q55.1563,251.9221 54.5313,251.9221 Q53.1875,251.9221 52.5,253.0002 Q51.8125,254.0627 51.8125,256.1565 Q51.8125,258.2502 52.5,259.3283 Q53.1875,260.3908 54.5313,260.3908 Q55.1563,260.3908 55.75,260.1252 Q56.3438,259.844 56.9688,259.2658 L56.9688,261.9846 Z " fill="#000000"/><text fill="#000000" font-family="sans-serif" font-size="14" lengthAdjust="spacing" textLength="264.081" x="68" y="254.9659">SecretPGXADataSource.SecretReference</text><text fill="#000000" font-family="sans-serif" font-size="10" lengthAdjust="spacing" textLength="171.8899" x="114.0955" y="269.7579">com.hack23.cia.service.data.impl.util</text></g></a><polygon fill="none" points="187,55.0961,181,73.0961,193,73.0961,187,55.0961" style="stroke:#181818;stroke-width:1.0;"/><path d="M187,73.0961 C187,83.2563 187,78.0291 187,90.6985 " fill="none" style="stroke:#181818;stroke-width:1.0;"/><ellipse cx="187" cy="207.1462" fill="#FFFFFF" rx="8" ry="8" style="stroke:#181818;stroke-width:1.0;"/><line style="stroke:#181818;stroke-width:1.0;" x1="187" x2="187" y1="215.1462" y2="199.1462"/><line style="stroke:#181818;stroke-width:1.0;" x1="179" x2="195" y1="207.1462" y2="207.1462"/><path d="M187,215.1462 C187,227.8969 187,224.7637 187,234.9772 " fill="none" style="stroke:#181818;stroke-width:1.0;"/><text fill="#888888" font-family="sans-serif" font-size="10" lengthAdjust="spacing" textLength="2.6" x="182.2" y="282.69">&#160;</text><a href="https://github.com/talsma-ict/umldoclet" target="_top" title="https://github.com/talsma-ict/umldoclet" xlink:actuate="onRequest" xlink:href="https://github.com/talsma-ict/umldoclet" xlink:show="new" xlink:title="https://github.com/talsma-ict/umldoclet" xlink:type="simple"><text fill="#888888" font-family="sans-serif" font-size="10" lengthAdjust="spacing" textLength="76.7199" x="145.14" y="296.31">UMLDoclet 2.2.1</text></a><!--SRC=[lLHjJzim4FxEhxZ1XnL1tIIjUAaGKbMclQX8Y1O9gV31EDV4gcC7-yBMRVptEKaNIbSqDAJvI-IxytFFFNSv083tC3Jvmiea9I03b4e7L-SZu3g613LQJXY3p7Y23kvG6PsuEX215vGQ2sPMtOIn5brkT2nr0b_u0mTd2YlGiQqjg59DVgD_vMu5_MvH6i-CK4ZG6kwkK8g2yA0T1L4F9bovZCFduOGjqPxUH2nY8NXi9GLgvo4B7QEjQ0roBlndL7lsuG6jaqRxDy4IfonL64rSQWSvj-JAaYuKrrHo3LcPdnr2Qp0UFUSM75VSzc5WDIzYk3JtHLFkkzpon3DMV64A0fSXSSrhd_EaDS-yN5pW67rIJbv9RJHM_bJ629Zbj82PH1MxTQi7IuqtLtQXk7EmVUBaT-o7lTCn2ejqyV5wSCQ9ZwictEYbEpWL9cCf5_EeouJapA5zyEAmsCSocUMA5IJLDlWMlIgIRKe7q-acCqifKxUtyAFYNPwzJM6jsZYq6ACcwJj_xgLBqEu-lKkGhWT3epKAylrixVPXzTu4xdWaFsMNE4EBscFxmEPIHJrkLl55_OnDM6uS9NxSxnNxnYkj_h2ovm2lxjHIpuRZV-xSUlgNEhaMjkniBUNVj82Jd-ts6pZMMlxxSEwzAVjwwNND9uuM2a-RkPiPGtu5FKrwUJujShGZgUT3e_p_ldEqsNjLRYybDVg5AUOQ_Sm4JUHZdQwpac-PwqPFfobHxlgTJY8fBUwOhx93rUPiIq6T8bDnlJBNbgVlNBqCFpPRkTnixJ1gHqUJyA0VXVrUo0wFZxhTNX1rzuAm7mJJ3uKrENR6PCGyDIgx_GK0]--></g></svg>