<svg xmlns="http://www.w3.org/2000/svg" xmlns:xlink="http://www.w3.org/1999/xlink" contentStyleType="text/css" height="293px" preserveAspectRatio="none" style="width:432px;height:293px;background:#FFFFFF;" version="1.1" viewBox="0 0 432 293" width="432px" zoomAndPan="magnify"><defs/><g><!--class com.hack23.cia.service.data.impl.util.SecretCredentialsManagerImpl--><a href="SecretCredentialsManagerImpl.html" target="_top" title="SecretCredentialsManagerImpl.html" xlink:actuate="onRequest" xlink:href="SecretCredentialsManagerImpl.html" xlink:show="new" xlink:title="SecretCredentialsManagerImpl.html" xlink:type="simple"><g id="elem_com.hack23.cia.service.data.impl.util.SecretCredentialsManagerImpl"><rect codeLine="13" fill="#F1F1F1" height="126.9596" id="com.hack23.cia.service.data.impl.util.SecretCredentialsManagerImpl" rx="2.5" ry="2.5" style="stroke:#181818;stroke-width:0.5;" width="419.1186" x="6" y="137"/><ellipse cx="108.8297" cy="158.344" fill="#ADD1B2" rx="11" ry="11" style="stroke:#181818;stroke-width:1.0;"/><path d="M111.7984,163.9846 Q111.2203,164.2815 110.5797,164.4221 Q109.939,164.5783 109.2359,164.5783 Q106.7359,164.5783 105.4078,162.9377 Q104.0953,161.2815 104.0953,158.1565 Q104.0953,155.0315 105.4078,153.3752 Q106.7359,151.719 109.2359,151.719 Q109.939,151.719 110.5797,151.8752 Q111.2359,152.0315 111.7984,152.3283 L111.7984,155.0471 Q111.1734,154.469 110.5797,154.2033 Q109.9859,153.9221 109.3609,153.9221 Q108.0172,153.9221 107.3297,155.0002 Q106.6422,156.0627 106.6422,158.1565 Q106.6422,160.2502 107.3297,161.3283 Q108.0172,162.3908 109.3609,162.3908 Q109.9859,162.3908 110.5797,162.1252 Q111.1734,161.844 111.7984,161.2658 L111.7984,163.9846 Z " fill="#000000"/><text fill="#000000" font-family="sans-serif" font-size="14" lengthAdjust="spacing" textLength="204.9592" x="129.3297" y="156.9659">SecretCredentialsManagerImpl</text><text fill="#000000" font-family="sans-serif" font-size="10" lengthAdjust="spacing" textLength="171.8899" x="145.8643" y="171.7579">com.hack23.cia.service.data.impl.util</text><line style="stroke:#181818;stroke-width:0.5;" x1="7" x2="424.1186" y1="179.6879" y2="179.6879"/><ellipse cx="17" cy="194.7219" fill="#84BE84" rx="3" ry="3" style="stroke:#038048;stroke-width:1.0;"/><text fill="#000000" font-family="sans-serif" font-size="14" lengthAdjust="spacing" textLength="393.1186" x="26" y="198.6538">SecretCredentialsManagerImpl(String, String, String, String)</text><ellipse cx="17" cy="213.7898" fill="#84BE84" rx="3" ry="3" style="stroke:#038048;stroke-width:1.0;"/><text fill="#000000" font-family="sans-serif" font-size="14" lengthAdjust="spacing" textLength="140.3495" x="26" y="217.7218">getPassword(): String</text><ellipse cx="17" cy="232.8577" fill="#84BE84" rx="3" ry="3" style="stroke:#038048;stroke-width:1.0;"/><text fill="#000000" font-family="sans-serif" font-size="14" lengthAdjust="spacing" textLength="144.8575" x="26" y="236.7897">getUsername(): String</text><polygon fill="#FFFF44" points="17,246.9256,21,250.9256,17,254.9256,13,250.9256" style="stroke:#B38D22;stroke-width:1.0;"/><text fill="#000000" font-family="sans-serif" font-size="14" lengthAdjust="spacing" textLength="199.3592" x="26" y="255.8576">getSecretCache(): SecretCache</text></g></a><!--class com.hack23.cia.service.data.impl.util.SecretCredentialsManager--><a href="SecretCredentialsManager.html" target="_top" title="SecretCredentialsManager.html" xlink:actuate="onRequest" xlink:href="SecretCredentialsManager.html" xlink:show="new" xlink:title="SecretCredentialsManager.html" xlink:type="simple"><g id="elem_com.hack23.cia.service.data.impl.util.SecretCredentialsManager"><rect codeLine="20" fill="#F1F1F1" height="88.8237" id="com.hack23.cia.service.data.impl.util.SecretCredentialsManager" rx="2.5" ry="2.5" style="stroke:#181818;stroke-width:0.5;" width="195.8974" x="117.5" y="12"/><ellipse cx="132.5" cy="33.344" fill="#B4A7E5" rx="11" ry="11" style="stroke:#181818;stroke-width:1.0;"/><path d="M128.4219,29.1096 L128.4219,26.9533 L135.8125,26.9533 L135.8125,29.1096 L133.3438,29.1096 L133.3438,37.1877 L135.8125,37.1877 L135.8125,39.344 L128.4219,39.344 L128.4219,37.1877 L130.8906,37.1877 L130.8906,29.1096 L128.4219,29.1096 Z " fill="#000000"/><text fill="#000000" font-family="sans-serif" font-size="14" font-style="italic" lengthAdjust="spacing" textLength="163.8974" x="146.5" y="31.9659">SecretCredentialsManager</text><text fill="#000000" font-family="sans-serif" font-size="10" font-style="italic" lengthAdjust="spacing" textLength="163.5298" x="146.6838" y="46.7579">com.hack23.cia.service.data.impl.util</text><line style="stroke:#181818;stroke-width:0.5;" x1="118.5" x2="312.3974" y1="54.6879" y2="54.6879"/><ellipse cx="128.5" cy="69.7219" fill="#84BE84" rx="3" ry="3" style="stroke:#038048;stroke-width:1.0;"/><text fill="#000000" font-family="sans-serif" font-size="14" font-style="italic" lengthAdjust="spacing" textLength="131.8655" x="137.5" y="73.6538">getPassword(): String</text><ellipse cx="128.5" cy="88.7898" fill="#84BE84" rx="3" ry="3" style="stroke:#038048;stroke-width:1.0;"/><text fill="#000000" font-family="sans-serif" font-size="14" font-style="italic" lengthAdjust="spacing" textLength="135.5755" x="137.5" y="92.7218">getUsername(): String</text></g></a><polygon fill="none" points="215.5,101.2634,209.5,119.2634,221.5,119.2634,215.5,101.2634" style="stroke:#181818;stroke-width:1.0;"/><path d="M215.5,119.2634 C215.5,130.509 215.5,124.8292 215.5,136.8276 " fill="none" style="stroke:#181818;stroke-width:1.0;stroke-dasharray:7.0,7.0;"/><text fill="#888888" font-family="sans-serif" font-size="10" lengthAdjust="spacing" textLength="2.6" x="210.7" y="268.69">&#160;</text><a href="https://github.com/talsma-ict/umldoclet" target="_top" title="https://github.com/talsma-ict/umldoclet" xlink:actuate="onRequest" xlink:href="https://github.com/talsma-ict/umldoclet" xlink:show="new" xlink:title="https://github.com/talsma-ict/umldoclet" xlink:type="simple"><text fill="#888888" font-family="sans-serif" font-size="10" lengthAdjust="spacing" textLength="76.7199" x="173.64" y="282.31">UMLDoclet 2.2.1</text></a><!--SRC=[nLJVJzim47xVNt63XnL1tIGWVbG82NNJnbGaj9QdqeUhSqsiEdPcNq0Tut-VatQbCDOXRTBoOiNVvxlllhCF0E0Tz6mvTohB6TW2vyh3zMKVqAIGaI67J2ce0ZFoC25jJUONH0AiEBSExBJvazOvygKrgJ8PVCPR16yh9ycBDs-WIJNy6VqE_LhqoRpUV6-b9ePMRsTDKXB5X-qaIWvWYDeN21UzeLX6UpoJY4J4469h9Sdu4B8oARb6rdc9CYpz1R87j-IyiYQSYPPnwbAbDOpAU2ZHiQzBkj9ekDOQYpg_E8BM-Q3_L5jqqcZRWtDdi4hXY_rQhSfzMphCWcADSrin-88O3Ium7qGRB89TA6b08IboSD9OGmsUgvI0YfBdC5MaK_zyDmJBRTXkzgL6xs7hrAjlr8qFpWOa7N7FKKg6LV3jCYJEo5qKfRunIrfq9cqXSfIpP5z8XSAJkmqcYHGPXGfKKR7IMn1QzIgcs9GMHgDDiCYvqECnt3VrrD_k9dfhm2vSiZruUTrvZ98HNmLpxgnBMplT9Vu4lWxLrAru0TuEy596VOSQnkDlGtjOT40P9ZSDlNn55_v31pQu_wlpzpZnx53omv_iUyRyZPDBY_woWjFlGlo3UxZGSkfvhkbiLSZKsj2_DG_gxzEy9DTNPjQpEhpDxUENqUjwqcXbA0mtEJCKNcAqOZuiqdNMyYrptPZHA6SkVRVJoHJdrKI4wZhSJBcsajof2fqknjkpGJSUBmVNnzK4hQTGEqxQoV4mFkmcSVSW5iVx9z7HOPmakr7SZQBHXyhPaZe3jdAMMrsCVm00]--></g></svg>