<?xml version="1.0" encoding="UTF-8" standalone="no"?><svg xmlns="http://www.w3.org/2000/svg" xmlns:xlink="http://www.w3.org/1999/xlink" contentScriptType="application/ecmascript" contentStyleType="text/css" height="336px" preserveAspectRatio="none" style="width:3577px;height:336px;" version="1.1" viewBox="0 0 3577 336" width="3577px" zoomAndPan="magnify"><defs><filter height="300%" id="f13vge6ruxlrfr" width="300%" x="-1" y="-1"><feGaussianBlur result="blurOut" stdDeviation="2.0"/><feColorMatrix in="blurOut" result="blurOut2" type="matrix" values="0 0 0 0 0 0 0 0 0 0 0 0 0 0 0 0 0 0 .4 0"/><feOffset dx="4.0" dy="4.0" in="blurOut2" result="blurOut3"/><feBlend in="SourceGraphic" in2="blurOut3" mode="normal"/></filter></defs><g><!--cluster com.hack23.cia.service.impl.action.admin--><polygon fill="#FFFFFF" filter="url(#f13vge6ruxlrfr)" points="14,162,347,162,354,184.2969,3555,184.2969,3555,296,14,296,14,162" style="stroke: #000000; stroke-width: 1.5;"/><line style="stroke: #000000; stroke-width: 1.5;" x1="14" x2="354" y1="184.2969" y2="184.2969"/><text fill="#000000" font-family="sans-serif" font-size="14" font-weight="bold" lengthAdjust="spacingAndGlyphs" textLength="327" x="18" y="176.9951">com.hack23.cia.service.impl.action.admin</text><!--cluster com.hack23.cia.service.impl.action.common--><polygon fill="#FFFFFF" filter="url(#f13vge6ruxlrfr)" points="1235,16,1588,16,1595,38.2969,2448,38.2969,2448,137,1235,137,1235,16" style="stroke: #000000; stroke-width: 1.5;"/><line style="stroke: #000000; stroke-width: 1.5;" x1="1235" x2="1595" y1="38.2969" y2="38.2969"/><text fill="#000000" font-family="sans-serif" font-size="14" font-weight="bold" lengthAdjust="spacingAndGlyphs" textLength="347" x="1239" y="30.9951">com.hack23.cia.service.impl.action.common</text><!--class com.hack23.cia.service.impl.action.admin.RemoveDataService--><a href="RemoveDataService.html" target="_top" xlink:actuate="onRequest" xlink:show="new" xlink:title="RemoveDataService.html" xlink:type="simple"><rect fill="#FEFECE" filter="url(#f13vge6ruxlrfr)" height="86.4141" id="com.hack23.cia.service.impl.action.admin.RemoveDataService" style="stroke: #A80036; stroke-width: 1.5;" width="523" x="612.5" y="195.5"/><ellipse cx="807.75" cy="211.5" fill="#ADD1B2" rx="11" ry="11" style="stroke: #A80036; stroke-width: 1.0;"/><path d="M810.7188,217.1406 Q810.1406,217.4375 809.5,217.5781 Q808.8594,217.7344 808.1563,217.7344 Q805.6563,217.7344 804.3281,216.0938 Q803.0156,214.4375 803.0156,211.3125 Q803.0156,208.1875 804.3281,206.5313 Q805.6563,204.875 808.1563,204.875 Q808.8594,204.875 809.5,205.0313 Q810.1563,205.1875 810.7188,205.4844 L810.7188,208.2031 Q810.0938,207.625 809.5,207.3594 Q808.9063,207.0781 808.2813,207.0781 Q806.9375,207.0781 806.25,208.1563 Q805.5625,209.2188 805.5625,211.3125 Q805.5625,213.4063 806.25,214.4844 Q806.9375,215.5469 808.2813,215.5469 Q808.9063,215.5469 809.5,215.2813 Q810.0938,215 810.7188,214.4219 L810.7188,217.1406 Z "/><text fill="#000000" font-family="sans-serif" font-size="12" lengthAdjust="spacingAndGlyphs" textLength="124" x="828.25" y="215.6543">RemoveDataService</text><line style="stroke: #A80036; stroke-width: 1.5;" x1="613.5" x2="1134.5" y1="227.5" y2="227.5"/><line style="stroke: #A80036; stroke-width: 1.5;" x1="613.5" x2="1134.5" y1="235.5" y2="235.5"/><ellipse cx="623.5" cy="247.4023" fill="#84BE84" rx="3" ry="3" style="stroke: #038048; stroke-width: 1.0;"/><text fill="#000000" font-family="sans-serif" font-size="11" lengthAdjust="spacingAndGlyphs" textLength="348" x="632.5" y="249.7104">processService(RemoveDataRequest): RemoveDataResponse</text><polygon fill="#FFFF44" points="623.5,255.207,627.5,259.207,623.5,263.207,619.5,259.207" style="stroke: #B38D22; stroke-width: 1.0;"/><text fill="#000000" font-family="sans-serif" font-size="11" lengthAdjust="spacingAndGlyphs" textLength="497" x="632.5" y="262.5151">createApplicationEventForService(RemoveDataRequest): CreateApplicationEventRequest</text><polygon fill="#FFFF44" points="623.5,268.0117,627.5,272.0117,623.5,276.0117,619.5,272.0117" style="stroke: #B38D22; stroke-width: 1.0;"/><text fill="#000000" font-family="sans-serif" font-size="11" lengthAdjust="spacingAndGlyphs" textLength="264" x="632.5" y="275.3198">createErrorResponse(): RemoveDataResponse</text></a><!--class com.hack23.cia.service.impl.action.admin.RefreshDataViewsService--><a href="RefreshDataViewsService.html" target="_top" xlink:actuate="onRequest" xlink:show="new" xlink:title="RefreshDataViewsService.html" xlink:type="simple"><rect fill="#FEFECE" filter="url(#f13vge6ruxlrfr)" height="86.4141" id="com.hack23.cia.service.impl.action.admin.RefreshDataViewsService" style="stroke: #A80036; stroke-width: 1.5;" width="555" x="22.5" y="195.5"/><ellipse cx="216.75" cy="211.5" fill="#ADD1B2" rx="11" ry="11" style="stroke: #A80036; stroke-width: 1.0;"/><path d="M219.7188,217.1406 Q219.1406,217.4375 218.5,217.5781 Q217.8594,217.7344 217.1563,217.7344 Q214.6563,217.7344 213.3281,216.0938 Q212.0156,214.4375 212.0156,211.3125 Q212.0156,208.1875 213.3281,206.5313 Q214.6563,204.875 217.1563,204.875 Q217.8594,204.875 218.5,205.0313 Q219.1563,205.1875 219.7188,205.4844 L219.7188,208.2031 Q219.0938,207.625 218.5,207.3594 Q217.9063,207.0781 217.2813,207.0781 Q215.9375,207.0781 215.25,208.1563 Q214.5625,209.2188 214.5625,211.3125 Q214.5625,213.4063 215.25,214.4844 Q215.9375,215.5469 217.2813,215.5469 Q217.9063,215.5469 218.5,215.2813 Q219.0938,215 219.7188,214.4219 L219.7188,217.1406 Z "/><text fill="#000000" font-family="sans-serif" font-size="12" lengthAdjust="spacingAndGlyphs" textLength="158" x="237.25" y="215.6543">RefreshDataViewsService</text><line style="stroke: #A80036; stroke-width: 1.5;" x1="23.5" x2="576.5" y1="227.5" y2="227.5"/><line style="stroke: #A80036; stroke-width: 1.5;" x1="23.5" x2="576.5" y1="235.5" y2="235.5"/><ellipse cx="33.5" cy="247.4023" fill="#84BE84" rx="3" ry="3" style="stroke: #038048; stroke-width: 1.0;"/><text fill="#000000" font-family="sans-serif" font-size="11" lengthAdjust="spacingAndGlyphs" textLength="412" x="42.5" y="249.7104">processService(RefreshDataViewsRequest): RefreshDataViewsResponse</text><polygon fill="#FFFF44" points="33.5,255.207,37.5,259.207,33.5,263.207,29.5,259.207" style="stroke: #B38D22; stroke-width: 1.0;"/><text fill="#000000" font-family="sans-serif" font-size="11" lengthAdjust="spacingAndGlyphs" textLength="529" x="42.5" y="262.5151">createApplicationEventForService(RefreshDataViewsRequest): CreateApplicationEventRequest</text><polygon fill="#FFFF44" points="33.5,268.0117,37.5,272.0117,33.5,276.0117,29.5,272.0117" style="stroke: #B38D22; stroke-width: 1.0;"/><text fill="#000000" font-family="sans-serif" font-size="11" lengthAdjust="spacingAndGlyphs" textLength="296" x="42.5" y="275.3198">createErrorResponse(): RefreshDataViewsResponse</text></a><!--class com.hack23.cia.service.impl.action.admin.ManageUserAccountService--><a href="ManageUserAccountService.html" target="_top" xlink:actuate="onRequest" xlink:show="new" xlink:title="ManageUserAccountService.html" xlink:type="simple"><rect fill="#FEFECE" filter="url(#f13vge6ruxlrfr)" height="99.2188" id="com.hack23.cia.service.impl.action.admin.ManageUserAccountService" style="stroke: #A80036; stroke-width: 1.5;" width="567" x="2979.5" y="189"/><ellipse cx="3171.25" cy="205" fill="#ADD1B2" rx="11" ry="11" style="stroke: #A80036; stroke-width: 1.0;"/><path d="M3174.2188,210.6406 Q3173.6406,210.9375 3173,211.0781 Q3172.3594,211.2344 3171.6563,211.2344 Q3169.1563,211.2344 3167.8281,209.5938 Q3166.5156,207.9375 3166.5156,204.8125 Q3166.5156,201.6875 3167.8281,200.0313 Q3169.1563,198.375 3171.6563,198.375 Q3172.3594,198.375 3173,198.5313 Q3173.6563,198.6875 3174.2188,198.9844 L3174.2188,201.7031 Q3173.5938,201.125 3173,200.8594 Q3172.4063,200.5781 3171.7813,200.5781 Q3170.4375,200.5781 3169.75,201.6563 Q3169.0625,202.7188 3169.0625,204.8125 Q3169.0625,206.9063 3169.75,207.9844 Q3170.4375,209.0469 3171.7813,209.0469 Q3172.4063,209.0469 3173,208.7813 Q3173.5938,208.5 3174.2188,207.9219 L3174.2188,210.6406 Z "/><text fill="#000000" font-family="sans-serif" font-size="12" lengthAdjust="spacingAndGlyphs" textLength="175" x="3191.75" y="209.1543">ManageUserAccountService</text><line style="stroke: #A80036; stroke-width: 1.5;" x1="2980.5" x2="3545.5" y1="221" y2="221"/><line style="stroke: #A80036; stroke-width: 1.5;" x1="2980.5" x2="3545.5" y1="229" y2="229"/><ellipse cx="2990.5" cy="240.9023" fill="#84BE84" rx="3" ry="3" style="stroke: #038048; stroke-width: 1.0;"/><text fill="#000000" font-family="sans-serif" font-size="11" lengthAdjust="spacingAndGlyphs" textLength="164" x="2999.5" y="243.2104">initUserCommandMap(): void</text><ellipse cx="2990.5" cy="253.707" fill="#84BE84" rx="3" ry="3" style="stroke: #038048; stroke-width: 1.0;"/><text fill="#000000" font-family="sans-serif" font-size="11" lengthAdjust="spacingAndGlyphs" textLength="436" x="2999.5" y="256.0151">processService(ManageUserAccountRequest): ManageUserAccountResponse</text><polygon fill="#FFFF44" points="2990.5,261.5117,2994.5,265.5117,2990.5,269.5117,2986.5,265.5117" style="stroke: #B38D22; stroke-width: 1.0;"/><text fill="#000000" font-family="sans-serif" font-size="11" lengthAdjust="spacingAndGlyphs" textLength="541" x="2999.5" y="268.8198">createApplicationEventForService(ManageUserAccountRequest): CreateApplicationEventRequest</text><polygon fill="#FFFF44" points="2990.5,274.3164,2994.5,278.3164,2990.5,282.3164,2986.5,278.3164" style="stroke: #B38D22; stroke-width: 1.0;"/><text fill="#000000" font-family="sans-serif" font-size="11" lengthAdjust="spacingAndGlyphs" textLength="308" x="2999.5" y="281.6245">createErrorResponse(): ManageUserAccountResponse</text></a><!--class com.hack23.cia.service.impl.action.admin.UpdateSearchIndexService--><a href="UpdateSearchIndexService.html" target="_top" xlink:actuate="onRequest" xlink:show="new" xlink:title="UpdateSearchIndexService.html" xlink:type="simple"><rect fill="#FEFECE" filter="url(#f13vge6ruxlrfr)" height="99.2188" id="com.hack23.cia.service.impl.action.admin.UpdateSearchIndexService" style="stroke: #A80036; stroke-width: 1.5;" width="562" x="2382" y="189"/><ellipse cx="2574.75" cy="205" fill="#ADD1B2" rx="11" ry="11" style="stroke: #A80036; stroke-width: 1.0;"/><path d="M2577.7188,210.6406 Q2577.1406,210.9375 2576.5,211.0781 Q2575.8594,211.2344 2575.1563,211.2344 Q2572.6563,211.2344 2571.3281,209.5938 Q2570.0156,207.9375 2570.0156,204.8125 Q2570.0156,201.6875 2571.3281,200.0313 Q2572.6563,198.375 2575.1563,198.375 Q2575.8594,198.375 2576.5,198.5313 Q2577.1563,198.6875 2577.7188,198.9844 L2577.7188,201.7031 Q2577.0938,201.125 2576.5,200.8594 Q2575.9063,200.5781 2575.2813,200.5781 Q2573.9375,200.5781 2573.25,201.6563 Q2572.5625,202.7188 2572.5625,204.8125 Q2572.5625,206.9063 2573.25,207.9844 Q2573.9375,209.0469 2575.2813,209.0469 Q2575.9063,209.0469 2576.5,208.7813 Q2577.0938,208.5 2577.7188,207.9219 L2577.7188,210.6406 Z "/><text fill="#000000" font-family="sans-serif" font-size="12" lengthAdjust="spacingAndGlyphs" textLength="168" x="2595.25" y="209.1543">UpdateSearchIndexService</text><line style="stroke: #A80036; stroke-width: 1.5;" x1="2383" x2="2943" y1="221" y2="221"/><line style="stroke: #A80036; stroke-width: 1.5;" x1="2383" x2="2943" y1="229" y2="229"/><ellipse cx="2393" cy="240.9023" fill="#84BE84" rx="3" ry="3" style="stroke: #038048; stroke-width: 1.0;"/><text fill="#000000" font-family="sans-serif" font-size="11" lengthAdjust="spacingAndGlyphs" textLength="242" x="2402" y="243.2104">UpdateSearchIndexService(SearchIndexer)</text><ellipse cx="2393" cy="253.707" fill="#84BE84" rx="3" ry="3" style="stroke: #038048; stroke-width: 1.0;"/><text fill="#000000" font-family="sans-serif" font-size="11" lengthAdjust="spacingAndGlyphs" textLength="426" x="2402" y="256.0151">processService(UpdateSearchIndexRequest): UpdateSearchIndexResponse</text><polygon fill="#FFFF44" points="2393,261.5117,2397,265.5117,2393,269.5117,2389,265.5117" style="stroke: #B38D22; stroke-width: 1.0;"/><text fill="#000000" font-family="sans-serif" font-size="11" lengthAdjust="spacingAndGlyphs" textLength="536" x="2402" y="268.8198">createApplicationEventForService(UpdateSearchIndexRequest): CreateApplicationEventRequest</text><polygon fill="#FFFF44" points="2393,274.3164,2397,278.3164,2393,282.3164,2389,278.3164" style="stroke: #B38D22; stroke-width: 1.0;"/><text fill="#000000" font-family="sans-serif" font-size="11" lengthAdjust="spacingAndGlyphs" textLength="303" x="2402" y="281.6245">createErrorResponse(): UpdateSearchIndexResponse</text></a><!--class com.hack23.cia.service.impl.action.admin.SendEmailService--><a href="SendEmailService.html" target="_top" xlink:actuate="onRequest" xlink:show="new" xlink:title="SendEmailService.html" xlink:type="simple"><rect fill="#FEFECE" filter="url(#f13vge6ruxlrfr)" height="86.4141" id="com.hack23.cia.service.impl.action.admin.SendEmailService" style="stroke: #A80036; stroke-width: 1.5;" width="512" x="1835" y="195.5"/><ellipse cx="2031.75" cy="211.5" fill="#ADD1B2" rx="11" ry="11" style="stroke: #A80036; stroke-width: 1.0;"/><path d="M2034.7188,217.1406 Q2034.1406,217.4375 2033.5,217.5781 Q2032.8594,217.7344 2032.1563,217.7344 Q2029.6563,217.7344 2028.3281,216.0938 Q2027.0156,214.4375 2027.0156,211.3125 Q2027.0156,208.1875 2028.3281,206.5313 Q2029.6563,204.875 2032.1563,204.875 Q2032.8594,204.875 2033.5,205.0313 Q2034.1563,205.1875 2034.7188,205.4844 L2034.7188,208.2031 Q2034.0938,207.625 2033.5,207.3594 Q2032.9063,207.0781 2032.2813,207.0781 Q2030.9375,207.0781 2030.25,208.1563 Q2029.5625,209.2188 2029.5625,211.3125 Q2029.5625,213.4063 2030.25,214.4844 Q2030.9375,215.5469 2032.2813,215.5469 Q2032.9063,215.5469 2033.5,215.2813 Q2034.0938,215 2034.7188,214.4219 L2034.7188,217.1406 Z "/><text fill="#000000" font-family="sans-serif" font-size="12" lengthAdjust="spacingAndGlyphs" textLength="110" x="2052.25" y="215.6543">SendEmailService</text><line style="stroke: #A80036; stroke-width: 1.5;" x1="1836" x2="2346" y1="227.5" y2="227.5"/><line style="stroke: #A80036; stroke-width: 1.5;" x1="1836" x2="2346" y1="235.5" y2="235.5"/><ellipse cx="1846" cy="247.4023" fill="#84BE84" rx="3" ry="3" style="stroke: #038048; stroke-width: 1.0;"/><text fill="#000000" font-family="sans-serif" font-size="11" lengthAdjust="spacingAndGlyphs" textLength="326" x="1855" y="249.7104">processService(SendEmailRequest): SendEmailResponse</text><polygon fill="#FFFF44" points="1846,255.207,1850,259.207,1846,263.207,1842,259.207" style="stroke: #B38D22; stroke-width: 1.0;"/><text fill="#000000" font-family="sans-serif" font-size="11" lengthAdjust="spacingAndGlyphs" textLength="486" x="1855" y="262.5151">createApplicationEventForService(SendEmailRequest): CreateApplicationEventRequest</text><polygon fill="#FFFF44" points="1846,268.0117,1850,272.0117,1846,276.0117,1842,272.0117" style="stroke: #B38D22; stroke-width: 1.0;"/><text fill="#000000" font-family="sans-serif" font-size="11" lengthAdjust="spacingAndGlyphs" textLength="253" x="1855" y="275.3198">createErrorResponse(): SendEmailResponse</text></a><!--class com.hack23.cia.service.impl.action.admin.UpdateApplicationConfigurationService--><a href="UpdateApplicationConfigurationService.html" target="_top" xlink:actuate="onRequest" xlink:show="new" xlink:title="UpdateApplicationConfigurationService.html" xlink:type="simple"><rect fill="#FEFECE" filter="url(#f13vge6ruxlrfr)" height="86.4141" id="com.hack23.cia.service.impl.action.admin.UpdateApplicationConfigurationService" style="stroke: #A80036; stroke-width: 1.5;" width="629" x="1170.5" y="195.5"/><ellipse cx="1358.75" cy="211.5" fill="#ADD1B2" rx="11" ry="11" style="stroke: #A80036; stroke-width: 1.0;"/><path d="M1361.7188,217.1406 Q1361.1406,217.4375 1360.5,217.5781 Q1359.8594,217.7344 1359.1563,217.7344 Q1356.6563,217.7344 1355.3281,216.0938 Q1354.0156,214.4375 1354.0156,211.3125 Q1354.0156,208.1875 1355.3281,206.5313 Q1356.6563,204.875 1359.1563,204.875 Q1359.8594,204.875 1360.5,205.0313 Q1361.1563,205.1875 1361.7188,205.4844 L1361.7188,208.2031 Q1361.0938,207.625 1360.5,207.3594 Q1359.9063,207.0781 1359.2813,207.0781 Q1357.9375,207.0781 1357.25,208.1563 Q1356.5625,209.2188 1356.5625,211.3125 Q1356.5625,213.4063 1357.25,214.4844 Q1357.9375,215.5469 1359.2813,215.5469 Q1359.9063,215.5469 1360.5,215.2813 Q1361.0938,215 1361.7188,214.4219 L1361.7188,217.1406 Z "/><text fill="#000000" font-family="sans-serif" font-size="12" lengthAdjust="spacingAndGlyphs" textLength="244" x="1379.25" y="215.6543">UpdateApplicationConfigurationService</text><line style="stroke: #A80036; stroke-width: 1.5;" x1="1171.5" x2="1798.5" y1="227.5" y2="227.5"/><line style="stroke: #A80036; stroke-width: 1.5;" x1="1171.5" x2="1798.5" y1="235.5" y2="235.5"/><ellipse cx="1181.5" cy="247.4023" fill="#84BE84" rx="3" ry="3" style="stroke: #038048; stroke-width: 1.0;"/><text fill="#000000" font-family="sans-serif" font-size="11" lengthAdjust="spacingAndGlyphs" textLength="560" x="1190.5" y="249.7104">processService(UpdateApplicationConfigurationRequest): UpdateApplicationConfigurationResponse</text><polygon fill="#FFFF44" points="1181.5,255.207,1185.5,259.207,1181.5,263.207,1177.5,259.207" style="stroke: #B38D22; stroke-width: 1.0;"/><text fill="#000000" font-family="sans-serif" font-size="11" lengthAdjust="spacingAndGlyphs" textLength="603" x="1190.5" y="262.5151">createApplicationEventForService(UpdateApplicationConfigurationRequest): CreateApplicationEventRequest</text><polygon fill="#FFFF44" points="1181.5,268.0117,1185.5,272.0117,1181.5,276.0117,1177.5,272.0117" style="stroke: #B38D22; stroke-width: 1.0;"/><text fill="#000000" font-family="sans-serif" font-size="11" lengthAdjust="spacingAndGlyphs" textLength="370" x="1190.5" y="275.3198">createErrorResponse(): UpdateApplicationConfigurationResponse</text></a><!--class com.hack23.cia.service.impl.action.common.AbstractBusinessServiceImpl--><a href="../common/AbstractBusinessServiceImpl.html" target="_top" xlink:actuate="onRequest" xlink:show="new" xlink:title="../common/AbstractBusinessServiceImpl.html" xlink:type="simple"><rect fill="#FEFECE" filter="url(#f13vge6ruxlrfr)" height="86.4141" id="com.hack23.cia.service.impl.action.common.AbstractBusinessServiceImpl" style="stroke: #A80036; stroke-width: 1.5;" width="687" x="1752.5" y="43"/><ellipse cx="1831.75" cy="59" fill="#A9DCDF" rx="11" ry="11" style="stroke: #A80036; stroke-width: 1.0;"/><path d="M1831.8594,54.3438 L1830.7031,59.4219 L1833.0313,59.4219 L1831.8594,54.3438 Z M1830.375,52.1094 L1833.3594,52.1094 L1836.7188,64.5 L1834.2656,64.5 L1833.5,61.4375 L1830.2188,61.4375 L1829.4688,64.5 L1827.0313,64.5 L1830.375,52.1094 Z "/><text fill="#000000" font-family="sans-serif" font-size="12" font-style="italic" lengthAdjust="spacingAndGlyphs" textLength="176" x="1852.25" y="63.1543">AbstractBusinessServiceImpl</text><rect fill="#FFFFFF" height="15.9688" style="stroke: #000000; stroke-width: 1.0; stroke-dasharray: 2.0,2.0;" width="342" x="2100.5" y="40"/><text fill="#000000" font-family="sans-serif" font-size="12" font-style="italic" lengthAdjust="spacingAndGlyphs" textLength="340" x="2101.5" y="52.1387">T extends ServiceRequest, V extends ServiceResponse</text><line style="stroke: #A80036; stroke-width: 1.5;" x1="1753.5" x2="2438.5" y1="75" y2="75"/><polygon fill="none" points="1763.5,81.9023,1767.5,85.9023,1763.5,89.9023,1759.5,85.9023" style="stroke: #B38D22; stroke-width: 1.0;"/><text fill="#000000" font-family="sans-serif" font-size="11" lengthAdjust="spacingAndGlyphs" textLength="661" x="1772.5" y="89.2104">createApplicationEventService: BusinessService&lt;CreateApplicationEventRequest, CreateApplicationEventResponse&gt;</text><line style="stroke: #A80036; stroke-width: 1.5;" x1="1753.5" x2="2438.5" y1="95.8047" y2="95.8047"/><polygon fill="#FFFF44" points="1763.5,102.707,1767.5,106.707,1763.5,110.707,1759.5,106.707" style="stroke: #B38D22; stroke-width: 1.0;"/><text fill="#000000" font-family="sans-serif" font-size="11" font-style="italic" lengthAdjust="spacingAndGlyphs" textLength="294" x="1772.5" y="110.0151">createErrorResponse(): V extends ServiceResponse</text><polygon fill="#FFFF44" points="1763.5,115.5117,1767.5,119.5117,1763.5,123.5117,1759.5,119.5117" style="stroke: #B38D22; stroke-width: 1.0;"/><text fill="#000000" font-family="sans-serif" font-size="11" font-style="italic" lengthAdjust="spacingAndGlyphs" textLength="532" x="1772.5" y="122.8198">createApplicationEventForService(T extends ServiceRequest): CreateApplicationEventRequest</text></a><!--class com.hack23.cia.service.impl.action.common.BusinessService--><a href="../common/BusinessService.html" target="_top" xlink:actuate="onRequest" xlink:show="new" xlink:title="../common/BusinessService.html" xlink:type="simple"><rect fill="#FEFECE" filter="url(#f13vge6ruxlrfr)" height="73.6094" id="com.hack23.cia.service.impl.action.common.BusinessService" style="stroke: #A80036; stroke-width: 1.5;" width="474" x="1243" y="49"/><ellipse cx="1258" cy="65" fill="#B4A7E5" rx="11" ry="11" style="stroke: #A80036; stroke-width: 1.0;"/><path d="M1253.9219,60.7656 L1253.9219,58.6094 L1261.3125,58.6094 L1261.3125,60.7656 L1258.8438,60.7656 L1258.8438,68.8438 L1261.3125,68.8438 L1261.3125,71 L1253.9219,71 L1253.9219,68.8438 L1256.3906,68.8438 L1256.3906,60.7656 L1253.9219,60.7656 Z "/><text fill="#000000" font-family="sans-serif" font-size="12" font-style="italic" lengthAdjust="spacingAndGlyphs" textLength="98" x="1272" y="69.1543">BusinessService</text><rect fill="#FFFFFF" height="15.9688" style="stroke: #000000; stroke-width: 1.0; stroke-dasharray: 2.0,2.0;" width="342" x="1378" y="46"/><text fill="#000000" font-family="sans-serif" font-size="12" font-style="italic" lengthAdjust="spacingAndGlyphs" textLength="340" x="1379" y="58.1387">T extends ServiceRequest, V extends ServiceResponse</text><line style="stroke: #A80036; stroke-width: 1.5;" x1="1244" x2="1716" y1="81" y2="81"/><line style="stroke: #A80036; stroke-width: 1.5;" x1="1244" x2="1716" y1="89" y2="89"/><ellipse cx="1254" cy="100.9023" fill="#84BE84" rx="3" ry="3" style="stroke: #038048; stroke-width: 1.0;"/><text fill="#000000" font-family="sans-serif" font-size="11" font-style="italic" lengthAdjust="spacingAndGlyphs" textLength="329" x="1263" y="103.2104">getSupportedService(): Class&lt;? extends ServiceRequest&gt;</text><ellipse cx="1254" cy="113.707" fill="#84BE84" rx="3" ry="3" style="stroke: #038048; stroke-width: 1.0;"/><text fill="#000000" font-family="sans-serif" font-size="11" font-style="italic" lengthAdjust="spacingAndGlyphs" textLength="408" x="1263" y="116.0151">processService(T extends ServiceRequest): V extends ServiceResponse</text></a><!--link com.hack23.cia.service.impl.action.common.AbstractBusinessServiceImpl to com.hack23.cia.service.impl.action.admin.RemoveDataService--><path d="M1789.543,131.3835 C1771.1087,133.4644 1752.8209,135.3624 1735,137 C1477.1811,160.6922 1408.7904,121.9605 1153,162 C1104.7435,169.5537 1052.8879,182.4082 1007.1316,195.446 " fill="none" id="com.hack23.cia.service.impl.action.common.AbstractBusinessServiceImpl-com.hack23.cia.service.impl.action.admin.RemoveDataService" style="stroke: #A80036; stroke-width: 1.0;"/><polygon fill="none" points="1788.9149,124.4095,1809.5885,129.0575,1790.5287,138.3162,1788.9149,124.4095" style="stroke: #A80036; stroke-width: 1.0;"/><!--link com.hack23.cia.service.impl.action.common.BusinessService to com.hack23.cia.service.impl.action.admin.RemoveDataService--><path d="M1295.297,127.5939 C1248.7661,138.4387 1198.9776,150.3584 1153,162 C1111.9797,172.3864 1067.7412,184.222 1026.8455,195.428 " fill="none" id="com.hack23.cia.service.impl.action.common.BusinessService-com.hack23.cia.service.impl.action.admin.RemoveDataService" style="stroke: #A80036; stroke-width: 1.0; stroke-dasharray: 7.0,7.0;"/><polygon fill="none" points="1293.9539,120.7196,1315.0188,123.0159,1297.1196,134.357,1293.9539,120.7196" style="stroke: #A80036; stroke-width: 1.0;"/><!--link com.hack23.cia.service.impl.action.common.AbstractBusinessServiceImpl to com.hack23.cia.service.impl.action.admin.RefreshDataViewsService--><path d="M1794.4313,131.3055 C1774.3471,133.4882 1754.3995,135.4225 1735,137 C1482.4394,157.5368 845.9912,127.1852 595,162 C543.2475,169.1785 487.5262,182.2019 438.5984,195.4928 " fill="none" id="com.hack23.cia.service.impl.action.common.AbstractBusinessServiceImpl-com.hack23.cia.service.impl.action.admin.RefreshDataViewsService" style="stroke: #A80036; stroke-width: 1.0;"/><polygon fill="none" points="1793.8888,124.3225,1814.5457,129.044,1795.453,138.2348,1793.8888,124.3225" style="stroke: #A80036; stroke-width: 1.0;"/><!--link com.hack23.cia.service.impl.action.common.BusinessService to com.hack23.cia.service.impl.action.admin.RefreshDataViewsService--><path d="M1222.6913,96.6621 C1045.3083,106.8007 804.6545,126.0763 595,162 C545.9796,170.3995 493.1848,182.9449 445.9965,195.459 " fill="none" id="com.hack23.cia.service.impl.action.common.BusinessService-com.hack23.cia.service.impl.action.admin.RefreshDataViewsService" style="stroke: #A80036; stroke-width: 1.0; stroke-dasharray: 7.0,7.0;"/><polygon fill="none" points="1222.5528,89.659,1242.9128,95.5302,1223.3353,103.6371,1222.5528,89.659" style="stroke: #A80036; stroke-width: 1.0;"/><!--link com.hack23.cia.service.impl.action.common.AbstractBusinessServiceImpl to com.hack23.cia.service.impl.action.admin.ManageUserAccountService--><path d="M2459.8087,104.8261 C2615.248,116.2485 2798.2495,134.1929 2962,162 C3003.1969,168.9958 3047.0364,178.767 3088.143,188.9919 " fill="none" id="com.hack23.cia.service.impl.action.common.AbstractBusinessServiceImpl-com.hack23.cia.service.impl.action.admin.ManageUserAccountService" style="stroke: #A80036; stroke-width: 1.0;"/><polygon fill="none" points="2458.9751,111.7842,2439.5315,103.3614,2459.9838,97.8206,2458.9751,111.7842" style="stroke: #A80036; stroke-width: 1.0;"/><!--link com.hack23.cia.service.impl.action.common.BusinessService to com.hack23.cia.service.impl.action.admin.ManageUserAccountService--><path d="M1662.6843,126.584 C1686.9006,130.7728 1711.4787,134.4287 1735,137 C2006.1082,166.6365 2691.7445,125.3947 2962,162 C3006.0801,167.9705 3053.0095,178.0378 3096.374,188.9412 " fill="none" id="com.hack23.cia.service.impl.action.common.BusinessService-com.hack23.cia.service.impl.action.admin.ManageUserAccountService" style="stroke: #A80036; stroke-width: 1.0; stroke-dasharray: 7.0,7.0;"/><polygon fill="none" points="1661.3649,133.4592,1642.9155,123.0371,1663.8374,119.6792,1661.3649,133.4592" style="stroke: #A80036; stroke-width: 1.0;"/><!--link com.hack23.cia.service.impl.action.common.AbstractBusinessServiceImpl to com.hack23.cia.service.impl.action.admin.UpdateSearchIndexService--><path d="M2275.5944,134.3036 C2340.442,151.745 2413.7075,171.4504 2478.9324,188.9933 " fill="none" id="com.hack23.cia.service.impl.action.common.AbstractBusinessServiceImpl-com.hack23.cia.service.impl.action.admin.UpdateSearchIndexService" style="stroke: #A80036; stroke-width: 1.0;"/><polygon fill="none" points="2273.7014,141.0433,2256.2059,129.0889,2277.3377,127.5238,2273.7014,141.0433" style="stroke: #A80036; stroke-width: 1.0;"/><!--link com.hack23.cia.service.impl.action.common.BusinessService to com.hack23.cia.service.impl.action.admin.UpdateSearchIndexService--><path d="M1665.3424,126.6107 C1688.7043,130.683 1712.3482,134.3025 1735,137 C2013.2543,170.1364 2087.7395,121.379 2365,162 C2407.8081,168.2717 2453.3603,178.2333 2495.6345,188.9218 " fill="none" id="com.hack23.cia.service.impl.action.common.BusinessService-com.hack23.cia.service.impl.action.admin.UpdateSearchIndexService" style="stroke: #A80036; stroke-width: 1.0; stroke-dasharray: 7.0,7.0;"/><polygon fill="none" points="1663.8084,133.4471,1645.3669,123.0109,1666.2914,119.669,1663.8084,133.4471" style="stroke: #A80036; stroke-width: 1.0;"/><!--link com.hack23.cia.service.impl.action.common.AbstractBusinessServiceImpl to com.hack23.cia.service.impl.action.admin.SendEmailService--><path d="M2093.9226,149.3596 C2093.4148,164.8492 2092.883,181.0697 2092.4143,195.3634 " fill="none" id="com.hack23.cia.service.impl.action.common.AbstractBusinessServiceImpl-com.hack23.cia.service.impl.action.admin.SendEmailService" style="stroke: #A80036; stroke-width: 1.0;"/><polygon fill="none" points="2086.9289,149.0523,2094.5806,129.2925,2100.9213,149.5111,2086.9289,149.0523" style="stroke: #A80036; stroke-width: 1.0;"/><!--link com.hack23.cia.service.impl.action.common.BusinessService to com.hack23.cia.service.impl.action.admin.SendEmailService--><path d="M1672.0527,127.5514 C1719.539,138.3093 1770.2078,150.1996 1817,162 C1857.7059,172.2655 1901.5876,184.1478 1942.0486,195.4415 " fill="none" id="com.hack23.cia.service.impl.action.common.BusinessService-com.hack23.cia.service.impl.action.admin.SendEmailService" style="stroke: #A80036; stroke-width: 1.0; stroke-dasharray: 7.0,7.0;"/><polygon fill="none" points="1670.2431,134.3192,1652.2715,123.0933,1673.3211,120.6618,1670.2431,134.3192" style="stroke: #A80036; stroke-width: 1.0;"/><!--link com.hack23.cia.service.impl.action.common.AbstractBusinessServiceImpl to com.hack23.cia.service.impl.action.admin.UpdateApplicationConfigurationService--><path d="M1903.8306,133.9637 C1824.9099,153.6616 1734.2321,176.294 1657.4762,195.4515 " fill="none" id="com.hack23.cia.service.impl.action.common.AbstractBusinessServiceImpl-com.hack23.cia.service.impl.action.admin.UpdateApplicationConfigurationService" style="stroke: #A80036; stroke-width: 1.0;"/><polygon fill="none" points="1902.262,127.1406,1923.3619,129.0889,1905.6523,140.7239,1902.262,127.1406" style="stroke: #A80036; stroke-width: 1.0;"/><!--link com.hack23.cia.service.impl.action.common.BusinessService to com.hack23.cia.service.impl.action.admin.UpdateApplicationConfigurationService--><path d="M1481.8816,143.3883 C1482.4466,160.6211 1483.0566,179.2253 1483.5859,195.3706 " fill="none" id="com.hack23.cia.service.impl.action.common.BusinessService-com.hack23.cia.service.impl.action.admin.UpdateApplicationConfigurationService" style="stroke: #A80036; stroke-width: 1.0; stroke-dasharray: 7.0,7.0;"/><polygon fill="none" points="1474.8824,143.5244,1481.2231,123.3057,1488.8749,143.0655,1474.8824,143.5244" style="stroke: #A80036; stroke-width: 1.0;"/><text fill="#888888" font-family="sans-serif" font-size="10" lengthAdjust="spacingAndGlyphs" textLength="186" x="1697.5" y="323.2822">UMLDoclet 2.0.5, PlantUML 1.2019.08</text><!--
@startuml
    namespace com.hack23.cia.service.impl.action.admin {

        class RemoveDataService [[RemoveDataService.html]] {
            +processService(RemoveDataRequest): RemoveDataResponse
            #createApplicationEventForService(RemoveDataRequest): CreateApplicationEventRequest
            #createErrorResponse(): RemoveDataResponse
        }

        class RefreshDataViewsService [[RefreshDataViewsService.html]] {
            +processService(RefreshDataViewsRequest): RefreshDataViewsResponse
            #createApplicationEventForService(RefreshDataViewsRequest): CreateApplicationEventRequest
            #createErrorResponse(): RefreshDataViewsResponse
        }

        class ManageUserAccountService [[ManageUserAccountService.html]] {
            +initUserCommandMap(): void
            +processService(ManageUserAccountRequest): ManageUserAccountResponse
            #createApplicationEventForService(ManageUserAccountRequest): CreateApplicationEventRequest
            #createErrorResponse(): ManageUserAccountResponse
        }

        class UpdateSearchIndexService [[UpdateSearchIndexService.html]] {
            +UpdateSearchIndexService(SearchIndexer)
            +processService(UpdateSearchIndexRequest): UpdateSearchIndexResponse
            #createApplicationEventForService(UpdateSearchIndexRequest): CreateApplicationEventRequest
            #createErrorResponse(): UpdateSearchIndexResponse
        }

        class SendEmailService [[SendEmailService.html]] {
            +processService(SendEmailRequest): SendEmailResponse
            #createApplicationEventForService(SendEmailRequest): CreateApplicationEventRequest
            #createErrorResponse(): SendEmailResponse
        }

        class UpdateApplicationConfigurationService [[UpdateApplicationConfigurationService.html]] {
            +processService(UpdateApplicationConfigurationRequest): UpdateApplicationConfigurationResponse
            #createApplicationEventForService(UpdateApplicationConfigurationRequest): CreateApplicationEventRequest
            #createErrorResponse(): UpdateApplicationConfigurationResponse
        }

        com.hack23.cia.service.impl.action.common.AbstractBusinessServiceImpl <|- - RemoveDataService
        com.hack23.cia.service.impl.action.common.BusinessService <|.. RemoveDataService
        com.hack23.cia.service.impl.action.common.AbstractBusinessServiceImpl <|- - RefreshDataViewsService
        com.hack23.cia.service.impl.action.common.BusinessService <|.. RefreshDataViewsService
        com.hack23.cia.service.impl.action.common.AbstractBusinessServiceImpl <|- - ManageUserAccountService
        com.hack23.cia.service.impl.action.common.BusinessService <|.. ManageUserAccountService
        com.hack23.cia.service.impl.action.common.AbstractBusinessServiceImpl <|- - UpdateSearchIndexService
        com.hack23.cia.service.impl.action.common.BusinessService <|.. UpdateSearchIndexService
        com.hack23.cia.service.impl.action.common.AbstractBusinessServiceImpl <|- - SendEmailService
        com.hack23.cia.service.impl.action.common.BusinessService <|.. SendEmailService
        com.hack23.cia.service.impl.action.common.AbstractBusinessServiceImpl <|- - UpdateApplicationConfigurationService
        com.hack23.cia.service.impl.action.common.BusinessService <|.. UpdateApplicationConfigurationService
    }

    namespace com.hack23.cia.service.impl.action.common {
        abstract class AbstractBusinessServiceImpl<T extends ServiceRequest, V extends ServiceResponse> [[../common/AbstractBusinessServiceImpl.html]] {
            #createApplicationEventService: BusinessService<CreateApplicationEventRequest, CreateApplicationEventResponse>
            {abstract} #createErrorResponse(): V extends ServiceResponse
            {abstract} #createApplicationEventForService(T extends ServiceRequest): CreateApplicationEventRequest
        }
        interface BusinessService<T extends ServiceRequest, V extends ServiceResponse> [[../common/BusinessService.html]] {
            {abstract} +getSupportedService(): Class<? extends ServiceRequest>
            {abstract} +processService(T extends ServiceRequest): V extends ServiceResponse
        }
    }

    center footer UMLDoclet 2.0.5, PlantUML 1.2019.08
@enduml

PlantUML version 1.2019.08(Sat Jul 13 21:25:14 CEST 2019)
(APACHE source distribution)
Java Runtime: OpenJDK Runtime Environment
JVM: OpenJDK 64-Bit Server VM
Java Version: 11.0.4+11-post-Ubuntu-1ubuntu219.04
Operating System: Linux
OS Version: 5.0.0-27-generic
Default Encoding: UTF-8
Language: en
Country: US
--></g></svg>