<?xml version="1.0" encoding="UTF-8" standalone="no"?><svg xmlns="http://www.w3.org/2000/svg" xmlns:xlink="http://www.w3.org/1999/xlink" contentScriptType="application/ecmascript" contentStyleType="text/css" height="256px" preserveAspectRatio="none" style="width:1079px;height:256px;" version="1.1" viewBox="0 0 1079 256" width="1079px" zoomAndPan="magnify"><defs><filter height="300%" id="fb74k06dkbfz0" width="300%" x="-1" y="-1"><feGaussianBlur result="blurOut" stdDeviation="2.0"/><feColorMatrix in="blurOut" result="blurOut2" type="matrix" values="0 0 0 0 0 0 0 0 0 0 0 0 0 0 0 0 0 0 .4 0"/><feOffset dx="4.0" dy="4.0" in="blurOut2" result="blurOut3"/><feBlend in="SourceGraphic" in2="blurOut3" mode="normal"/></filter></defs><g><!--class com.hack23.cia.service.impl.action.admin.SendEmailService--><a href="SendEmailService.html" target="_top" xlink:actuate="onRequest" xlink:show="new" xlink:title="SendEmailService.html" xlink:type="simple"><rect fill="#FEFECE" filter="url(#fb74k06dkbfz0)" height="84.3516" id="com.hack23.cia.service.impl.action.admin.SendEmailService" style="stroke: #A80036; stroke-width: 1.5;" width="512" x="280.5" y="140"/><ellipse cx="432.75" cy="158.9688" fill="#ADD1B2" rx="11" ry="11" style="stroke: #A80036; stroke-width: 1.0;"/><path d="M435.7188,164.6094 Q435.1406,164.9063 434.5,165.0469 Q433.8594,165.2031 433.1563,165.2031 Q430.6563,165.2031 429.3281,163.5625 Q428.0156,161.9063 428.0156,158.7813 Q428.0156,155.6563 429.3281,154 Q430.6563,152.3438 433.1563,152.3438 Q433.8594,152.3438 434.5,152.5 Q435.1563,152.6563 435.7188,152.9531 L435.7188,155.6719 Q435.0938,155.0938 434.5,154.8281 Q433.9063,154.5469 433.2813,154.5469 Q431.9375,154.5469 431.25,155.625 Q430.5625,156.6875 430.5625,158.7813 Q430.5625,160.875 431.25,161.9531 Q431.9375,163.0156 433.2813,163.0156 Q433.9063,163.0156 434.5,162.75 Q435.0938,162.4688 435.7188,161.8906 L435.7188,164.6094 Z "/><text fill="#000000" font-family="sans-serif" font-size="14" lengthAdjust="spacingAndGlyphs" textLength="122" x="491.75" y="157.9951">SendEmailService</text><text fill="#000000" font-family="sans-serif" font-size="10" lengthAdjust="spacingAndGlyphs" textLength="199" x="453.25" y="170.5791">com.hack23.cia.service.impl.action.admin</text><line style="stroke: #A80036; stroke-width: 1.5;" x1="281.5" x2="791.5" y1="177.9375" y2="177.9375"/><ellipse cx="291.5" cy="189.8398" fill="#84BE84" rx="3" ry="3" style="stroke: #038048; stroke-width: 1.0;"/><text fill="#000000" font-family="sans-serif" font-size="11" lengthAdjust="spacingAndGlyphs" textLength="326" x="300.5" y="192.1479">processService(SendEmailRequest): SendEmailResponse</text><polygon fill="#FFFF44" points="291.5,197.6445,295.5,201.6445,291.5,205.6445,287.5,201.6445" style="stroke: #B38D22; stroke-width: 1.0;"/><text fill="#000000" font-family="sans-serif" font-size="11" lengthAdjust="spacingAndGlyphs" textLength="486" x="300.5" y="204.9526">createApplicationEventForService(SendEmailRequest): CreateApplicationEventRequest</text><polygon fill="#FFFF44" points="291.5,210.4492,295.5,214.4492,291.5,218.4492,287.5,214.4492" style="stroke: #B38D22; stroke-width: 1.0;"/><text fill="#000000" font-family="sans-serif" font-size="11" lengthAdjust="spacingAndGlyphs" textLength="253" x="300.5" y="217.7573">createErrorResponse(): SendEmailResponse</text></a><!--class com.hack23.cia.service.impl.action.common.AbstractBusinessServiceImpl--><a href="../common/AbstractBusinessServiceImpl.html" target="_top" xlink:actuate="onRequest" xlink:show="new" xlink:title="../common/AbstractBusinessServiceImpl.html" xlink:type="simple"><rect fill="#FEFECE" filter="url(#fb74k06dkbfz0)" height="71.5469" id="com.hack23.cia.service.impl.action.common.AbstractBusinessServiceImpl" style="stroke: #A80036; stroke-width: 1.5;" width="515" x="6" y="8"/><ellipse cx="23.7" cy="26.9688" fill="#A9DCDF" rx="11" ry="11" style="stroke: #A80036; stroke-width: 1.0;"/><path d="M23.8094,22.3125 L22.6531,27.3906 L24.9813,27.3906 L23.8094,22.3125 Z M22.325,20.0781 L25.3094,20.0781 L28.6688,32.4688 L26.2156,32.4688 L25.45,29.4063 L22.1688,29.4063 L21.4188,32.4688 L18.9813,32.4688 L22.325,20.0781 Z "/><text fill="#000000" font-family="sans-serif" font-size="14" font-style="italic" lengthAdjust="spacingAndGlyphs" textLength="198" x="51.3" y="25.9951">AbstractBusinessServiceImpl</text><text fill="#000000" font-family="sans-serif" font-size="10" font-style="italic" lengthAdjust="spacingAndGlyphs" textLength="224" x="38.3" y="38.5791">com.hack23.cia.service.impl.action.common</text><rect fill="#FFFFFF" height="15.9688" style="stroke: #000000; stroke-width: 1.0; stroke-dasharray: 2.0,2.0;" width="251" x="273" y="5"/><text fill="#000000" font-family="sans-serif" font-size="12" font-style="italic" lengthAdjust="spacingAndGlyphs" textLength="249" x="274" y="17.1387">SendEmailRequest, SendEmailResponse</text><line style="stroke: #A80036; stroke-width: 1.5;" x1="7" x2="520" y1="45.9375" y2="45.9375"/><polygon fill="#FFFF44" points="17,52.8398,21,56.8398,17,60.8398,13,56.8398" style="stroke: #B38D22; stroke-width: 1.0;"/><text fill="#000000" font-family="sans-serif" font-size="11" font-style="italic" lengthAdjust="spacingAndGlyphs" textLength="250" x="26" y="60.1479">createErrorResponse(): SendEmailResponse</text><polygon fill="#FFFF44" points="17,65.6445,21,69.6445,17,73.6445,13,69.6445" style="stroke: #B38D22; stroke-width: 1.0;"/><text fill="#000000" font-family="sans-serif" font-size="11" font-style="italic" lengthAdjust="spacingAndGlyphs" textLength="489" x="26" y="72.9526">createApplicationEventForService(SendEmailRequest): CreateApplicationEventRequest</text></a><!--class com.hack23.cia.service.impl.action.common.BusinessService--><a href="../common/BusinessService.html" target="_top" xlink:actuate="onRequest" xlink:show="new" xlink:title="../common/BusinessService.html" xlink:type="simple"><rect fill="#FEFECE" filter="url(#fb74k06dkbfz0)" height="71.5469" id="com.hack23.cia.service.impl.action.common.BusinessService" style="stroke: #A80036; stroke-width: 1.5;" width="509" x="556" y="8"/><ellipse cx="571" cy="26.9688" fill="#B4A7E5" rx="11" ry="11" style="stroke: #A80036; stroke-width: 1.0;"/><path d="M566.9219,22.7344 L566.9219,20.5781 L574.3125,20.5781 L574.3125,22.7344 L571.8438,22.7344 L571.8438,30.8125 L574.3125,30.8125 L574.3125,32.9688 L566.9219,32.9688 L566.9219,30.8125 L569.3906,30.8125 L569.3906,22.7344 L566.9219,22.7344 Z "/><text fill="#000000" font-family="sans-serif" font-size="14" font-style="italic" lengthAdjust="spacingAndGlyphs" textLength="112" x="641" y="25.9951">BusinessService</text><text fill="#000000" font-family="sans-serif" font-size="10" font-style="italic" lengthAdjust="spacingAndGlyphs" textLength="224" x="585" y="38.5791">com.hack23.cia.service.impl.action.common</text><rect fill="#FFFFFF" height="15.9688" style="stroke: #000000; stroke-width: 1.0; stroke-dasharray: 2.0,2.0;" width="251" x="817" y="5"/><text fill="#000000" font-family="sans-serif" font-size="12" font-style="italic" lengthAdjust="spacingAndGlyphs" textLength="249" x="818" y="17.1387">SendEmailRequest, SendEmailResponse</text><line style="stroke: #A80036; stroke-width: 1.5;" x1="557" x2="1064" y1="45.9375" y2="45.9375"/><ellipse cx="567" cy="57.8398" fill="#84BE84" rx="3" ry="3" style="stroke: #038048; stroke-width: 1.0;"/><text fill="#000000" font-family="sans-serif" font-size="11" font-style="italic" lengthAdjust="spacingAndGlyphs" textLength="329" x="576" y="60.1479">getSupportedService(): Class&lt;? extends ServiceRequest&gt;</text><ellipse cx="567" cy="70.6445" fill="#84BE84" rx="3" ry="3" style="stroke: #038048; stroke-width: 1.0;"/><text fill="#000000" font-family="sans-serif" font-size="11" font-style="italic" lengthAdjust="spacingAndGlyphs" textLength="321" x="576" y="72.9526">processService(SendEmailRequest): SendEmailResponse</text></a><!--link com.hack23.cia.service.impl.action.common.AbstractBusinessServiceImpl to com.hack23.cia.service.impl.action.admin.SendEmailService--><path d="M352.8079,89.1447 C385.0271,105.4313 421.2466,123.74 452.9544,139.7682 " fill="none" id="com.hack23.cia.service.impl.action.common.AbstractBusinessServiceImpl-com.hack23.cia.service.impl.action.admin.SendEmailService" style="stroke: #A80036; stroke-width: 1.0;"/><polygon fill="none" points="349.5622,95.3475,334.8709,80.0776,355.878,82.8531,349.5622,95.3475" style="stroke: #A80036; stroke-width: 1.0;"/><!--link com.hack23.cia.service.impl.action.common.BusinessService to com.hack23.cia.service.impl.action.admin.SendEmailService--><path d="M720.865,89.1447 C688.5277,105.4313 652.1756,123.74 620.3516,139.7682 " fill="none" id="com.hack23.cia.service.impl.action.common.BusinessService-com.hack23.cia.service.impl.action.admin.SendEmailService" style="stroke: #A80036; stroke-width: 1.0; stroke-dasharray: 7.0,7.0;"/><polygon fill="none" points="717.8565,82.8222,738.8676,80.0776,724.154,95.3259,717.8565,82.8222" style="stroke: #A80036; stroke-width: 1.0;"/><text fill="#888888" font-family="sans-serif" font-size="10" lengthAdjust="spacingAndGlyphs" textLength="186" x="448.5" y="243.2822">UMLDoclet 2.0.5, PlantUML 1.2019.08</text><!--
@startuml
    set namespaceSeparator none
    hide empty fields
    hide empty methods

    class "<size:14>SendEmailService\n<size:10>com.hack23.cia.service.impl.action.admin" as com.hack23.cia.service.impl.action.admin.SendEmailService [[SendEmailService.html]] {
        +processService(SendEmailRequest): SendEmailResponse
        #createApplicationEventForService(SendEmailRequest): CreateApplicationEventRequest
        #createErrorResponse(): SendEmailResponse
    }

    abstract class "<size:14>AbstractBusinessServiceImpl\n<size:10>com.hack23.cia.service.impl.action.common" as com.hack23.cia.service.impl.action.common.AbstractBusinessServiceImpl<SendEmailRequest, SendEmailResponse> [[../common/AbstractBusinessServiceImpl.html]] {
        {abstract} #createErrorResponse(): SendEmailResponse
        {abstract} #createApplicationEventForService(SendEmailRequest): CreateApplicationEventRequest
    }
    interface "<size:14>BusinessService\n<size:10>com.hack23.cia.service.impl.action.common" as com.hack23.cia.service.impl.action.common.BusinessService<SendEmailRequest, SendEmailResponse> [[../common/BusinessService.html]] {
        {abstract} +getSupportedService(): Class<? extends ServiceRequest>
        {abstract} +processService(SendEmailRequest): SendEmailResponse
    }

    com.hack23.cia.service.impl.action.common.AbstractBusinessServiceImpl <|- - com.hack23.cia.service.impl.action.admin.SendEmailService
    com.hack23.cia.service.impl.action.common.BusinessService <|.. com.hack23.cia.service.impl.action.admin.SendEmailService

    center footer UMLDoclet 2.0.5, PlantUML 1.2019.08
@enduml

PlantUML version 1.2019.08(Sat Jul 13 21:25:14 CEST 2019)
(APACHE source distribution)
Java Runtime: OpenJDK Runtime Environment
JVM: OpenJDK 64-Bit Server VM
Java Version: 11.0.4+11-post-Ubuntu-1ubuntu219.04
Operating System: Linux
OS Version: 5.0.0-27-generic
Default Encoding: UTF-8
Language: en
Country: US
--></g></svg>