<svg xmlns="http://www.w3.org/2000/svg" xmlns:xlink="http://www.w3.org/1999/xlink" contentStyleType="text/css" height="274px" preserveAspectRatio="none" style="width:603px;height:274px;background:#FFFFFF;" version="1.1" viewBox="0 0 603 274" width="603px" zoomAndPan="magnify"><defs/><g><!--class com.hack23.cia.service.impl.action.admin.SendEmailService--><a href="SendEmailService.html" target="_top" title="SendEmailService.html" xlink:actuate="onRequest" xlink:href="SendEmailService.html" xlink:show="new" xlink:title="SendEmailService.html" xlink:type="simple"><g id="elem_com.hack23.cia.service.impl.action.admin.SendEmailService"><rect codeLine="13" fill="#F1F1F1" height="107.8917" id="com.hack23.cia.service.impl.action.admin.SendEmailService" rx="2.5" ry="2.5" style="stroke:#181818;stroke-width:0.5;" width="590.884" x="6" y="137"/><ellipse cx="199.8621" cy="158.344" fill="#ADD1B2" rx="11" ry="11" style="stroke:#181818;stroke-width:1.0;"/><path d="M202.8308,163.9846 Q202.2527,164.2815 201.6121,164.4221 Q200.9715,164.5783 200.2683,164.5783 Q197.7683,164.5783 196.4402,162.9377 Q195.1277,161.2815 195.1277,158.1565 Q195.1277,155.0315 196.4402,153.3752 Q197.7683,151.719 200.2683,151.719 Q200.9715,151.719 201.6121,151.8752 Q202.2683,152.0315 202.8308,152.3283 L202.8308,155.0471 Q202.2058,154.469 201.6121,154.2033 Q201.0183,153.9221 200.3933,153.9221 Q199.0496,153.9221 198.3621,155.0002 Q197.6746,156.0627 197.6746,158.1565 Q197.6746,160.2502 198.3621,161.3283 Q199.0496,162.3908 200.3933,162.3908 Q201.0183,162.3908 201.6121,162.1252 Q202.2058,161.844 202.8308,161.2658 L202.8308,163.9846 Z " fill="#000000"/><text fill="#000000" font-family="sans-serif" font-size="14" lengthAdjust="spacing" textLength="115.4995" x="259.9422" y="156.9659">SendEmailService</text><text fill="#000000" font-family="sans-serif" font-size="10" lengthAdjust="spacing" textLength="194.6599" x="220.3621" y="171.7579">com.hack23.cia.service.impl.action.admin</text><line style="stroke:#181818;stroke-width:0.5;" x1="7" x2="595.884" y1="179.6879" y2="179.6879"/><ellipse cx="17" cy="194.7219" fill="#84BE84" rx="3" ry="3" style="stroke:#038048;stroke-width:1.0;"/><text fill="#000000" font-family="sans-serif" font-size="14" lengthAdjust="spacing" textLength="368.1425" x="26" y="198.6538">processService(SendEmailRequest): SendEmailResponse</text><polygon fill="#FFFF44" points="17,208.7898,21,212.7898,17,216.7898,13,212.7898" style="stroke:#B38D22;stroke-width:1.0;"/><text fill="#000000" font-family="sans-serif" font-size="14" lengthAdjust="spacing" textLength="564.884" x="26" y="217.7218">createApplicationEventForService(SendEmailRequest): CreateApplicationEventRequest</text><polygon fill="#FFFF44" points="17,227.8577,21,231.8577,17,235.8577,13,231.8577" style="stroke:#B38D22;stroke-width:1.0;"/><text fill="#000000" font-family="sans-serif" font-size="14" lengthAdjust="spacing" textLength="286.6769" x="26" y="236.7897">createErrorResponse(): SendEmailResponse</text></g></a><!--class com.hack23.cia.service.impl.action.common.AbstractBusinessServiceImpl--><a href="../common/AbstractBusinessServiceImpl.html" target="_top" title="../common/AbstractBusinessServiceImpl.html" xlink:actuate="onRequest" xlink:href="../common/AbstractBusinessServiceImpl.html" xlink:show="new" xlink:title="../common/AbstractBusinessServiceImpl.html" xlink:type="simple"><g id="elem_com.hack23.cia.service.impl.action.common.AbstractBusinessServiceImpl"><rect codeLine="19" fill="#F1F1F1" height="88.8237" id="com.hack23.cia.service.impl.action.common.AbstractBusinessServiceImpl" rx="2.5" ry="2.5" style="stroke:#181818;stroke-width:0.5;" width="552.7618" x="25" y="12"/><ellipse cx="92.8203" cy="33.344" fill="#A9DCDF" rx="11" ry="11" style="stroke:#181818;stroke-width:1.0;"/><path d="M92.9297,28.6877 L91.7734,33.7658 L94.1016,33.7658 L92.9297,28.6877 Z M91.4453,26.4533 L94.4297,26.4533 L97.7891,38.844 L95.3359,38.844 L94.5703,35.7815 L91.2891,35.7815 L90.5391,38.844 L88.1016,38.844 L91.4453,26.4533 Z " fill="#000000"/><text fill="#000000" font-family="sans-serif" font-size="14" font-style="italic" lengthAdjust="spacing" textLength="176.1473" x="122.9465" y="31.9659">AbstractBusinessServiceImpl</text><text fill="#000000" font-family="sans-serif" font-size="10" font-style="italic" lengthAdjust="spacing" textLength="195.3998" x="113.3203" y="46.7579">com.hack23.cia.service.impl.action.common</text><rect fill="#FFFFFF" height="18.3441" style="stroke:#181818;stroke-width:1.0;stroke-dasharray:2.0,2.0;" width="211.2214" x="369.5404" y="9"/><text fill="#000000" font-family="sans-serif" font-size="12" font-style="italic" lengthAdjust="spacing" textLength="209.2214" x="370.5404" y="22.8281">SendEmailRequest, SendEmailResponse</text><line style="stroke:#181818;stroke-width:0.5;" x1="26" x2="576.7618" y1="54.6879" y2="54.6879"/><polygon fill="#FFFF44" points="36,64.7219,40,68.7219,36,72.7219,32,68.7219" style="stroke:#B38D22;stroke-width:1.0;"/><text fill="#000000" font-family="sans-serif" font-size="14" font-style="italic" lengthAdjust="spacing" textLength="266.881" x="45" y="73.6538">createErrorResponse(): SendEmailResponse</text><polygon fill="#FFFF44" points="36,83.7898,40,87.7898,36,91.7898,32,87.7898" style="stroke:#B38D22;stroke-width:1.0;"/><text fill="#000000" font-family="sans-serif" font-size="14" font-style="italic" lengthAdjust="spacing" textLength="526.7618" x="45" y="92.7218">createApplicationEventForService(SendEmailRequest): CreateApplicationEventRequest</text></g></a><polygon fill="none" points="301.5,101.2527,295.5,119.2527,307.5,119.2527,301.5,101.2527" style="stroke:#181818;stroke-width:1.0;"/><path d="M301.5,119.2527 C301.5,130.5596 301.5,124.8586 301.5,136.5979 " fill="none" style="stroke:#181818;stroke-width:1.0;"/><text fill="#888888" font-family="sans-serif" font-size="10" lengthAdjust="spacing" textLength="2.6" x="296.7" y="249.69">&#160;</text><a href="https://github.com/talsma-ict/umldoclet" target="_top" title="https://github.com/talsma-ict/umldoclet" xlink:actuate="onRequest" xlink:href="https://github.com/talsma-ict/umldoclet" xlink:show="new" xlink:title="https://github.com/talsma-ict/umldoclet" xlink:type="simple"><text fill="#888888" font-family="sans-serif" font-size="10" lengthAdjust="spacing" textLength="76.7199" x="259.64" y="263.31">UMLDoclet 2.2.1</text></a><!--SRC=[hLHTRzem57tlhxXh7qRLudpGbGuX9CROreb9Kw5Fb0VZt18BnyviXubr_U-pavGosbNjrBn4t8zpppqt7020jp1G-LhpHMh1Ah0fDt3vRGHK9h10YPfQJ81dT846vYYKN9Yg484MDbKQr7NvYocjqUHA9bmku2jTKJ2gq0mDsTk3SjJa3lqdDLleyxKFVbHCe8N6u72BKXn6fyquZ4zWGeN9A9mF9gH6k- -9IKmYSDY2CvJ6GHOoGLtIwkUKkTUeoXp32hNXIhgUiCRngp8bBUNIG4wrDNwbxu9Awxb6nCydRMZqnwE_kONlIsx7qDUI5WbSg1_5PjqtkQOBnrZGjIeic0mjbRJA6KTQqip9HHcEqGsbrYafbSGod_840RFShk6QeqZCRjI1fSg5opWJr1ZOxnh-2plHIM-CCXbcb8inwfNR-qhMgR37L4PIofPnYp1EYQaA2CzoGIYpJXX2aupBVN0NUcunsHq8q-bkYAGs4xCPt9IC_NEKQ-K-3bCND3OT5-XLj8STs0hv3ylWflc0QNJVJZ_FtScffp9SeRIVb7u2Rl1eJvtVXHvghVJTtCO_oTnM9w1pOxNJvC4j-dNYGs6ulD_st6duihEuaamz-ovLDNbYUdTNeEE76_RS8Ga9Ah3W2R27rxsvK-JsXO8-tlpQXwxFzYfAGlTti_d_VvQAITVOjS3UHe9hfQnpi7j1_VDbdQCUSRaSAE7iuk3iyUobDp_XQ3g_PKlF5i9DvMqrBjYQLy-wajDfQcrkEa6mu3Ojvdxvm9R6s-JC1aKcaifnTxntDgkzzFF6rBqnDgEu6SUJwAmJHvrMI5hjTdHwqdxNEWgZJXXEXuLMEGPZgzWoLIAR_G40]--></g></svg>