<?xml version="1.0" encoding="UTF-8" standalone="no"?><svg xmlns="http://www.w3.org/2000/svg" xmlns:xlink="http://www.w3.org/1999/xlink" contentScriptType="application/ecmascript" contentStyleType="text/css" height="1013px" preserveAspectRatio="none" style="width:1216px;height:1013px;" version="1.1" viewBox="0 0 1216 1013" width="1216px" zoomAndPan="magnify"><defs><filter height="300%" id="fh4jlko80oygf" width="300%" x="-1" y="-1"><feGaussianBlur result="blurOut" stdDeviation="2.0"/><feColorMatrix in="blurOut" result="blurOut2" type="matrix" values="0 0 0 0 0 0 0 0 0 0 0 0 0 0 0 0 0 0 .4 0"/><feOffset dx="4.0" dy="4.0" in="blurOut2" result="blurOut3"/><feBlend in="SourceGraphic" in2="blurOut3" mode="normal"/></filter></defs><g><!--cluster com.hack23.cia.service.data.impl.util--><polygon fill="#FFFFFF" filter="url(#fh4jlko80oygf)" points="14,130,310,130,317,152.2969,984,152.2969,984,973,14,973,14,130" style="stroke: #000000; stroke-width: 1.5;"/><line style="stroke: #000000; stroke-width: 1.5;" x1="14" x2="317" y1="152.2969" y2="152.2969"/><text fill="#000000" font-family="sans-serif" font-size="14" font-weight="bold" lengthAdjust="spacingAndGlyphs" textLength="290" x="18" y="144.9951">com.hack23.cia.service.data.impl.util</text><!--cluster org.postgresql.xa--><polygon fill="#FFFFFF" filter="url(#fh4jlko80oygf)" points="373,16,519,16,526,38.2969,746,38.2969,746,99,373,99,373,16" style="stroke: #000000; stroke-width: 1.5;"/><line style="stroke: #000000; stroke-width: 1.5;" x1="373" x2="526" y1="38.2969" y2="38.2969"/><text fill="#000000" font-family="sans-serif" font-size="14" font-weight="bold" lengthAdjust="spacingAndGlyphs" textLength="140" x="377" y="30.9951">org.postgresql.xa</text><!--cluster javax.naming--><polygon fill="#FFFFFF" filter="url(#fh4jlko80oygf)" points="992,282,1100,282,1107,304.2969,1194,304.2969,1194,416,992,416,992,282" style="stroke: #000000; stroke-width: 1.5;"/><line style="stroke: #000000; stroke-width: 1.5;" x1="992" x2="1107" y1="304.2969" y2="304.2969"/><text fill="#000000" font-family="sans-serif" font-size="14" font-weight="bold" lengthAdjust="spacingAndGlyphs" textLength="102" x="996" y="296.9951">javax.naming</text><!--class com.hack23.cia.service.data.impl.util.SecretCredentialsManager--><a href="SecretCredentialsManager.html" target="_top" xlink:actuate="onRequest" xlink:show="new" xlink:title="SecretCredentialsManager.html" xlink:type="simple"><rect fill="#FEFECE" filter="url(#fh4jlko80oygf)" height="73.6094" id="com.hack23.cia.service.data.impl.util.SecretCredentialsManager" style="stroke: #A80036; stroke-width: 1.5;" width="198" x="674" y="669"/><ellipse cx="689" cy="685" fill="#B4A7E5" rx="11" ry="11" style="stroke: #A80036; stroke-width: 1.0;"/><path d="M684.9219,680.7656 L684.9219,678.6094 L692.3125,678.6094 L692.3125,680.7656 L689.8438,680.7656 L689.8438,688.8438 L692.3125,688.8438 L692.3125,691 L684.9219,691 L684.9219,688.8438 L687.3906,688.8438 L687.3906,680.7656 L684.9219,680.7656 Z "/><text fill="#000000" font-family="sans-serif" font-size="12" font-style="italic" lengthAdjust="spacingAndGlyphs" textLength="166" x="703" y="689.1543">SecretCredentialsManager</text><line style="stroke: #A80036; stroke-width: 1.5;" x1="675" x2="871" y1="701" y2="701"/><line style="stroke: #A80036; stroke-width: 1.5;" x1="675" x2="871" y1="709" y2="709"/><ellipse cx="685" cy="720.9023" fill="#84BE84" rx="3" ry="3" style="stroke: #038048; stroke-width: 1.0;"/><text fill="#000000" font-family="sans-serif" font-size="11" font-style="italic" lengthAdjust="spacingAndGlyphs" textLength="121" x="694" y="723.2104">getPassword(): String</text><ellipse cx="685" cy="733.707" fill="#84BE84" rx="3" ry="3" style="stroke: #038048; stroke-width: 1.0;"/><text fill="#000000" font-family="sans-serif" font-size="11" font-style="italic" lengthAdjust="spacingAndGlyphs" textLength="125" x="694" y="736.0151">getUsername(): String</text></a><!--class com.hack23.cia.service.data.impl.util.SecretPGXADataSourceFactory--><a href="SecretPGXADataSourceFactory.html" target="_top" xlink:actuate="onRequest" xlink:show="new" xlink:title="SecretPGXADataSourceFactory.html" xlink:type="simple"><rect fill="#FEFECE" filter="url(#fh4jlko80oygf)" height="60.8047" id="com.hack23.cia.service.data.impl.util.SecretPGXADataSourceFactory" style="stroke: #A80036; stroke-width: 1.5;" width="411" x="22.5" y="169.5"/><ellipse cx="127.25" cy="185.5" fill="#ADD1B2" rx="11" ry="11" style="stroke: #A80036; stroke-width: 1.0;"/><path d="M130.2188,191.1406 Q129.6406,191.4375 129,191.5781 Q128.3594,191.7344 127.6563,191.7344 Q125.1563,191.7344 123.8281,190.0938 Q122.5156,188.4375 122.5156,185.3125 Q122.5156,182.1875 123.8281,180.5313 Q125.1563,178.875 127.6563,178.875 Q128.3594,178.875 129,179.0313 Q129.6563,179.1875 130.2188,179.4844 L130.2188,182.2031 Q129.5938,181.625 129,181.3594 Q128.4063,181.0781 127.7813,181.0781 Q126.4375,181.0781 125.75,182.1563 Q125.0625,183.2188 125.0625,185.3125 Q125.0625,187.4063 125.75,188.4844 Q126.4375,189.5469 127.7813,189.5469 Q128.4063,189.5469 129,189.2813 Q129.5938,189 130.2188,188.4219 L130.2188,191.1406 Z "/><text fill="#000000" font-family="sans-serif" font-size="12" lengthAdjust="spacingAndGlyphs" textLength="193" x="147.75" y="189.6543">SecretPGXADataSourceFactory</text><line style="stroke: #A80036; stroke-width: 1.5;" x1="23.5" x2="432.5" y1="201.5" y2="201.5"/><line style="stroke: #A80036; stroke-width: 1.5;" x1="23.5" x2="432.5" y1="209.5" y2="209.5"/><ellipse cx="33.5" cy="221.4023" fill="#84BE84" rx="3" ry="3" style="stroke: #038048; stroke-width: 1.0;"/><text fill="#000000" font-family="sans-serif" font-size="11" lengthAdjust="spacingAndGlyphs" textLength="385" x="42.5" y="223.7104">getObjectInstance(Object, Name, Context, Hashtable&lt;?, ?&gt;): Object</text></a><!--class com.hack23.cia.service.data.impl.util.LoadHelper--><a href="LoadHelper.html" target="_top" xlink:actuate="onRequest" xlink:show="new" xlink:title="LoadHelper.html" xlink:type="simple"><rect fill="#FEFECE" filter="url(#fh4jlko80oygf)" height="60.8047" id="com.hack23.cia.service.data.impl.util.LoadHelper" style="stroke: #A80036; stroke-width: 1.5;" width="154" x="469" y="169.5"/><ellipse cx="506.95" cy="185.5" fill="#ADD1B2" rx="11" ry="11" style="stroke: #A80036; stroke-width: 1.0;"/><path d="M509.9188,191.1406 Q509.3406,191.4375 508.7,191.5781 Q508.0594,191.7344 507.3563,191.7344 Q504.8563,191.7344 503.5281,190.0938 Q502.2156,188.4375 502.2156,185.3125 Q502.2156,182.1875 503.5281,180.5313 Q504.8563,178.875 507.3563,178.875 Q508.0594,178.875 508.7,179.0313 Q509.3563,179.1875 509.9188,179.4844 L509.9188,182.2031 Q509.2938,181.625 508.7,181.3594 Q508.1063,181.0781 507.4813,181.0781 Q506.1375,181.0781 505.45,182.1563 Q504.7625,183.2188 504.7625,185.3125 Q504.7625,187.4063 505.45,188.4844 Q506.1375,189.5469 507.4813,189.5469 Q508.1063,189.5469 508.7,189.2813 Q509.2938,189 509.9188,188.4219 L509.9188,191.1406 Z "/><text fill="#000000" font-family="sans-serif" font-size="12" lengthAdjust="spacingAndGlyphs" textLength="71" x="526.05" y="189.6543">LoadHelper</text><line style="stroke: #A80036; stroke-width: 1.5;" x1="470" x2="622" y1="201.5" y2="201.5"/><line style="stroke: #A80036; stroke-width: 1.5;" x1="470" x2="622" y1="209.5" y2="209.5"/><ellipse cx="480" cy="221.4023" fill="#84BE84" rx="3" ry="3" style="stroke: #038048; stroke-width: 1.0;"/><text fill="#000000" font-family="sans-serif" font-size="11" lengthAdjust="spacingAndGlyphs" text-decoration="underline" textLength="128" x="489" y="223.7104">recursiveInitialize(T): T</text></a><!--class com.hack23.cia.service.data.impl.util.SecretPGXADataSource--><a href="SecretPGXADataSource.html" target="_top" xlink:actuate="onRequest" xlink:show="new" xlink:title="SecretPGXADataSource.html" xlink:type="simple"><rect fill="#FEFECE" filter="url(#fh4jlko80oygf)" height="86.4141" id="com.hack23.cia.service.data.impl.util.SecretPGXADataSource" style="stroke: #A80036; stroke-width: 1.5;" width="318" x="658" y="157"/><ellipse cx="739.25" cy="173" fill="#ADD1B2" rx="11" ry="11" style="stroke: #A80036; stroke-width: 1.0;"/><path d="M742.2188,178.6406 Q741.6406,178.9375 741,179.0781 Q740.3594,179.2344 739.6563,179.2344 Q737.1563,179.2344 735.8281,177.5938 Q734.5156,175.9375 734.5156,172.8125 Q734.5156,169.6875 735.8281,168.0313 Q737.1563,166.375 739.6563,166.375 Q740.3594,166.375 741,166.5313 Q741.6563,166.6875 742.2188,166.9844 L742.2188,169.7031 Q741.5938,169.125 741,168.8594 Q740.4063,168.5781 739.7813,168.5781 Q738.4375,168.5781 737.75,169.6563 Q737.0625,170.7188 737.0625,172.8125 Q737.0625,174.9063 737.75,175.9844 Q738.4375,177.0469 739.7813,177.0469 Q740.4063,177.0469 741,176.7813 Q741.5938,176.5 742.2188,175.9219 L742.2188,178.6406 Z "/><text fill="#000000" font-family="sans-serif" font-size="12" lengthAdjust="spacingAndGlyphs" textLength="147" x="759.75" y="177.1543">SecretPGXADataSource</text><line style="stroke: #A80036; stroke-width: 1.5;" x1="659" x2="975" y1="189" y2="189"/><line style="stroke: #A80036; stroke-width: 1.5;" x1="659" x2="975" y1="197" y2="197"/><ellipse cx="669" cy="208.9023" fill="#84BE84" rx="3" ry="3" style="stroke: #038048; stroke-width: 1.0;"/><text fill="#000000" font-family="sans-serif" font-size="11" lengthAdjust="spacingAndGlyphs" textLength="292" x="678" y="211.2104">SecretPGXADataSource(SecretCredentialsManager)</text><ellipse cx="669" cy="221.707" fill="#84BE84" rx="3" ry="3" style="stroke: #038048; stroke-width: 1.0;"/><text fill="#000000" font-family="sans-serif" font-size="11" lengthAdjust="spacingAndGlyphs" textLength="188" x="678" y="224.0151">getXAConnection(): XAConnection</text><polygon fill="#FFFF44" points="669,229.5117,673,233.5117,669,237.5117,665,233.5117" style="stroke: #B38D22; stroke-width: 1.0;"/><text fill="#000000" font-family="sans-serif" font-size="11" lengthAdjust="spacingAndGlyphs" textLength="166" x="678" y="236.8198">createReference(): Reference</text></a><!--class com.hack23.cia.service.data.impl.util.SecretPGXADataSource.SecretReference--><a href="SecretPGXADataSource.SecretReference.html" target="_top" xlink:actuate="onRequest" xlink:show="new" xlink:title="SecretPGXADataSource.SecretReference.html" xlink:type="simple"><rect fill="#FEFECE" filter="url(#fh4jlko80oygf)" height="60.8047" id="com.hack23.cia.service.data.impl.util.SecretPGXADataSource.SecretReference" style="stroke: #A80036; stroke-width: 1.5;" width="405" x="570.5" y="469"/><ellipse cx="640.75" cy="485" fill="#ADD1B2" rx="11" ry="11" style="stroke: #A80036; stroke-width: 1.0;"/><path d="M643.7188,490.6406 Q643.1406,490.9375 642.5,491.0781 Q641.8594,491.2344 641.1563,491.2344 Q638.6563,491.2344 637.3281,489.5938 Q636.0156,487.9375 636.0156,484.8125 Q636.0156,481.6875 637.3281,480.0313 Q638.6563,478.375 641.1563,478.375 Q641.8594,478.375 642.5,478.5313 Q643.1563,478.6875 643.7188,478.9844 L643.7188,481.7031 Q643.0938,481.125 642.5,480.8594 Q641.9063,480.5781 641.2813,480.5781 Q639.9375,480.5781 639.25,481.6563 Q638.5625,482.7188 638.5625,484.8125 Q638.5625,486.9063 639.25,487.9844 Q639.9375,489.0469 641.2813,489.0469 Q641.9063,489.0469 642.5,488.7813 Q643.0938,488.5 643.7188,487.9219 L643.7188,490.6406 Z "/><text fill="#000000" font-family="sans-serif" font-size="12" lengthAdjust="spacingAndGlyphs" textLength="256" x="661.25" y="489.1543">SecretPGXADataSource.SecretReference</text><line style="stroke: #A80036; stroke-width: 1.5;" x1="571.5" x2="974.5" y1="501" y2="501"/><line style="stroke: #A80036; stroke-width: 1.5;" x1="571.5" x2="974.5" y1="509" y2="509"/><ellipse cx="581.5" cy="520.9023" fill="#84BE84" rx="3" ry="3" style="stroke: #038048; stroke-width: 1.0;"/><text fill="#000000" font-family="sans-serif" font-size="11" lengthAdjust="spacingAndGlyphs" textLength="379" x="590.5" y="523.2104">SecretReference(SecretCredentialsManager, String, String, String)</text></a><!--class com.hack23.cia.service.data.impl.util.SecretCredentialsManagerImpl--><a href="SecretCredentialsManagerImpl.html" target="_top" xlink:actuate="onRequest" xlink:show="new" xlink:title="SecretCredentialsManagerImpl.html" xlink:type="simple"><rect fill="#FEFECE" filter="url(#fh4jlko80oygf)" height="99.2188" id="com.hack23.cia.service.data.impl.util.SecretCredentialsManagerImpl" style="stroke: #A80036; stroke-width: 1.5;" width="369" x="588.5" y="866"/><ellipse cx="672.75" cy="882" fill="#ADD1B2" rx="11" ry="11" style="stroke: #A80036; stroke-width: 1.0;"/><path d="M675.7188,887.6406 Q675.1406,887.9375 674.5,888.0781 Q673.8594,888.2344 673.1563,888.2344 Q670.6563,888.2344 669.3281,886.5938 Q668.0156,884.9375 668.0156,881.8125 Q668.0156,878.6875 669.3281,877.0313 Q670.6563,875.375 673.1563,875.375 Q673.8594,875.375 674.5,875.5313 Q675.1563,875.6875 675.7188,875.9844 L675.7188,878.7031 Q675.0938,878.125 674.5,877.8594 Q673.9063,877.5781 673.2813,877.5781 Q671.9375,877.5781 671.25,878.6563 Q670.5625,879.7188 670.5625,881.8125 Q670.5625,883.9063 671.25,884.9844 Q671.9375,886.0469 673.2813,886.0469 Q673.9063,886.0469 674.5,885.7813 Q675.0938,885.5 675.7188,884.9219 L675.7188,887.6406 Z "/><text fill="#000000" font-family="sans-serif" font-size="12" lengthAdjust="spacingAndGlyphs" textLength="192" x="693.25" y="886.1543">SecretCredentialsManagerImpl</text><line style="stroke: #A80036; stroke-width: 1.5;" x1="589.5" x2="956.5" y1="898" y2="898"/><line style="stroke: #A80036; stroke-width: 1.5;" x1="589.5" x2="956.5" y1="906" y2="906"/><ellipse cx="599.5" cy="917.9023" fill="#84BE84" rx="3" ry="3" style="stroke: #038048; stroke-width: 1.0;"/><text fill="#000000" font-family="sans-serif" font-size="11" lengthAdjust="spacingAndGlyphs" textLength="343" x="608.5" y="920.2104">SecretCredentialsManagerImpl(String, String, String, String)</text><ellipse cx="599.5" cy="930.707" fill="#84BE84" rx="3" ry="3" style="stroke: #038048; stroke-width: 1.0;"/><text fill="#000000" font-family="sans-serif" font-size="11" lengthAdjust="spacingAndGlyphs" textLength="124" x="608.5" y="933.0151">getPassword(): String</text><ellipse cx="599.5" cy="943.5117" fill="#84BE84" rx="3" ry="3" style="stroke: #038048; stroke-width: 1.0;"/><text fill="#000000" font-family="sans-serif" font-size="11" lengthAdjust="spacingAndGlyphs" textLength="127" x="608.5" y="945.8198">getUsername(): String</text><polygon fill="#FFFF44" points="599.5,951.3164,603.5,955.3164,599.5,959.3164,595.5,955.3164" style="stroke: #B38D22; stroke-width: 1.0;"/><text fill="#000000" font-family="sans-serif" font-size="11" lengthAdjust="spacingAndGlyphs" textLength="178" x="608.5" y="958.6245">getSecretCache(): SecretCache</text></a><!--class org.postgresql.xa.PGXADataSourceFactory--><rect fill="#FEFECE" filter="url(#fh4jlko80oygf)" height="48" id="org.postgresql.xa.PGXADataSourceFactory" style="stroke: #A80036; stroke-width: 1.5;" width="184" x="381" y="43"/><ellipse cx="396" cy="59" fill="#ADD1B2" rx="11" ry="11" style="stroke: #A80036; stroke-width: 1.0;"/><path d="M398.9688,64.6406 Q398.3906,64.9375 397.75,65.0781 Q397.1094,65.2344 396.4063,65.2344 Q393.9063,65.2344 392.5781,63.5938 Q391.2656,61.9375 391.2656,58.8125 Q391.2656,55.6875 392.5781,54.0313 Q393.9063,52.375 396.4063,52.375 Q397.1094,52.375 397.75,52.5313 Q398.4063,52.6875 398.9688,52.9844 L398.9688,55.7031 Q398.3438,55.125 397.75,54.8594 Q397.1563,54.5781 396.5313,54.5781 Q395.1875,54.5781 394.5,55.6563 Q393.8125,56.7188 393.8125,58.8125 Q393.8125,60.9063 394.5,61.9844 Q395.1875,63.0469 396.5313,63.0469 Q397.1563,63.0469 397.75,62.7813 Q398.3438,62.5 398.9688,61.9219 L398.9688,64.6406 Z "/><text fill="#000000" font-family="sans-serif" font-size="12" lengthAdjust="spacingAndGlyphs" textLength="152" x="410" y="63.1543">PGXADataSourceFactory</text><line style="stroke: #A80036; stroke-width: 1.5;" x1="382" x2="564" y1="75" y2="75"/><line style="stroke: #A80036; stroke-width: 1.5;" x1="382" x2="564" y1="83" y2="83"/><!--class org.postgresql.xa.PGXADataSource--><rect fill="#FEFECE" filter="url(#fh4jlko80oygf)" height="48" id="org.postgresql.xa.PGXADataSource" style="stroke: #A80036; stroke-width: 1.5;" width="138" x="600" y="43"/><ellipse cx="615" cy="59" fill="#ADD1B2" rx="11" ry="11" style="stroke: #A80036; stroke-width: 1.0;"/><path d="M617.9688,64.6406 Q617.3906,64.9375 616.75,65.0781 Q616.1094,65.2344 615.4063,65.2344 Q612.9063,65.2344 611.5781,63.5938 Q610.2656,61.9375 610.2656,58.8125 Q610.2656,55.6875 611.5781,54.0313 Q612.9063,52.375 615.4063,52.375 Q616.1094,52.375 616.75,52.5313 Q617.4063,52.6875 617.9688,52.9844 L617.9688,55.7031 Q617.3438,55.125 616.75,54.8594 Q616.1563,54.5781 615.5313,54.5781 Q614.1875,54.5781 613.5,55.6563 Q612.8125,56.7188 612.8125,58.8125 Q612.8125,60.9063 613.5,61.9844 Q614.1875,63.0469 615.5313,63.0469 Q616.1563,63.0469 616.75,62.7813 Q617.3438,62.5 617.9688,61.9219 L617.9688,64.6406 Z "/><text fill="#000000" font-family="sans-serif" font-size="12" lengthAdjust="spacingAndGlyphs" textLength="106" x="629" y="63.1543">PGXADataSource</text><line style="stroke: #A80036; stroke-width: 1.5;" x1="601" x2="737" y1="75" y2="75"/><line style="stroke: #A80036; stroke-width: 1.5;" x1="601" x2="737" y1="83" y2="83"/><!--class javax.naming.Reference--><rect fill="#FEFECE" filter="url(#fh4jlko80oygf)" height="99.2188" id="javax.naming.Reference" style="stroke: #A80036; stroke-width: 1.5;" width="186" x="1000" y="309"/><ellipse cx="1056.75" cy="325" fill="#ADD1B2" rx="11" ry="11" style="stroke: #A80036; stroke-width: 1.0;"/><path d="M1059.7188,330.6406 Q1059.1406,330.9375 1058.5,331.0781 Q1057.8594,331.2344 1057.1563,331.2344 Q1054.6563,331.2344 1053.3281,329.5938 Q1052.0156,327.9375 1052.0156,324.8125 Q1052.0156,321.6875 1053.3281,320.0313 Q1054.6563,318.375 1057.1563,318.375 Q1057.8594,318.375 1058.5,318.5313 Q1059.1563,318.6875 1059.7188,318.9844 L1059.7188,321.7031 Q1059.0938,321.125 1058.5,320.8594 Q1057.9063,320.5781 1057.2813,320.5781 Q1055.9375,320.5781 1055.25,321.6563 Q1054.5625,322.7188 1054.5625,324.8125 Q1054.5625,326.9063 1055.25,327.9844 Q1055.9375,329.0469 1057.2813,329.0469 Q1057.9063,329.0469 1058.5,328.7813 Q1059.0938,328.5 1059.7188,327.9219 L1059.7188,330.6406 Z "/><text fill="#000000" font-family="sans-serif" font-size="12" lengthAdjust="spacingAndGlyphs" textLength="64" x="1077.25" y="329.1543">Reference</text><line style="stroke: #A80036; stroke-width: 1.5;" x1="1001" x2="1185" y1="341" y2="341"/><polygon fill="none" points="1011,347.9023,1015,351.9023,1011,355.9023,1007,351.9023" style="stroke: #B38D22; stroke-width: 1.0;"/><text fill="#000000" font-family="sans-serif" font-size="11" lengthAdjust="spacingAndGlyphs" textLength="105" x="1020" y="355.2104">className: String</text><polygon fill="none" points="1011,360.707,1015,364.707,1011,368.707,1007,364.707" style="stroke: #B38D22; stroke-width: 1.0;"/><text fill="#000000" font-family="sans-serif" font-size="11" lengthAdjust="spacingAndGlyphs" textLength="139" x="1020" y="368.0151">addrs: Vector&lt;RefAddr&gt;</text><polygon fill="none" points="1011,373.5117,1015,377.5117,1011,381.5117,1007,377.5117" style="stroke: #B38D22; stroke-width: 1.0;"/><text fill="#000000" font-family="sans-serif" font-size="11" lengthAdjust="spacingAndGlyphs" textLength="113" x="1020" y="380.8198">classFactory: String</text><polygon fill="none" points="1011,386.3164,1015,390.3164,1011,394.3164,1007,390.3164" style="stroke: #B38D22; stroke-width: 1.0;"/><text fill="#000000" font-family="sans-serif" font-size="11" lengthAdjust="spacingAndGlyphs" textLength="160" x="1020" y="393.6245">classFactoryLocation: String</text><line style="stroke: #A80036; stroke-width: 1.5;" x1="1001" x2="1185" y1="400.2188" y2="400.2188"/><!--link org.postgresql.xa.PGXADataSourceFactory to com.hack23.cia.service.data.impl.util.SecretPGXADataSourceFactory--><path d="M410.7959,100.7679 C371.9344,121.8642 322.2873,148.8155 284.5432,169.3051 " fill="none" id="org.postgresql.xa.PGXADataSourceFactory-com.hack23.cia.service.data.impl.util.SecretPGXADataSourceFactory" style="stroke: #A80036; stroke-width: 1.0;"/><polygon fill="none" points="407.7156,94.4752,428.6323,91.0853,414.3949,106.7792,407.7156,94.4752" style="stroke: #A80036; stroke-width: 1.0;"/><!--link org.postgresql.xa.PGXADataSource to com.hack23.cia.service.data.impl.util.SecretPGXADataSource--><path d="M710.7931,104.5573 C728.9607,120.8836 750.3462,140.1016 769.1474,156.9974 " fill="none" id="org.postgresql.xa.PGXADataSource-com.hack23.cia.service.data.impl.util.SecretPGXADataSource" style="stroke: #A80036; stroke-width: 1.0;"/><polygon fill="none" points="705.9987,109.6601,695.8017,91.0853,715.3565,99.2469,705.9987,109.6601" style="stroke: #A80036; stroke-width: 1.0;"/><!--link javax.naming.Reference to com.hack23.cia.service.data.impl.util.SecretPGXADataSource.SecretReference--><path d="M989.8115,416.6535 C940.1712,439.6178 898.3457,455.8456 862.4684,468.91 " fill="none" id="javax.naming.Reference-com.hack23.cia.service.data.impl.util.SecretPGXADataSource.SecretReference" style="stroke: #A80036; stroke-width: 1.0;"/><polygon fill="none" points="986.9995,410.2406,1008.077,408.0633,992.9577,422.9094,986.9995,410.2406" style="stroke: #A80036; stroke-width: 1.0;"/><!--link com.hack23.cia.service.data.impl.util.SecretPGXADataSource to com.hack23.cia.service.data.impl.util.SecretPGXADataSource.SecretReference--><path d="M808.4155,258.4331 C799.1675,321.3823 784.8036,419.1554 777.5381,468.6102 " fill="none" id="com.hack23.cia.service.data.impl.util.SecretPGXADataSource-com.hack23.cia.service.data.impl.util.SecretPGXADataSource.SecretReference" style="stroke: #A80036; stroke-width: 1.0;"/><ellipse cx="809.4862" cy="251.145" fill="#FFFFFF" rx="8" ry="8" style="stroke: #A80036; stroke-width: 1.0;"/><line style="stroke: #A80036; stroke-width: 1.0;" x1="808.3234" x2="810.649" y1="259.0601" y2="243.23"/><line style="stroke: #A80036; stroke-width: 1.0;" x1="801.5711" x2="817.4012" y1="249.9822" y2="252.3079"/><!--link com.hack23.cia.service.data.impl.util.SecretPGXADataSource.SecretReference to com.hack23.cia.service.data.impl.util.SecretCredentialsManager--><path d="M773,530.4151 C773,565.8413 773,624.0991 773,663.7095 " fill="none" id="com.hack23.cia.service.data.impl.util.SecretPGXADataSource.SecretReference-com.hack23.cia.service.data.impl.util.SecretCredentialsManager" style="stroke: #A80036; stroke-width: 1.0;"/><polygon fill="#A80036" points="773,668.9283,777,659.9283,773,663.9283,769,659.9283,773,668.9283" style="stroke: #A80036; stroke-width: 1.0;"/><text fill="#000000" font-family="sans-serif" font-size="13" lengthAdjust="spacingAndGlyphs" textLength="168" x="774" y="604.0669">secretCredentialsManager</text><!--link com.hack23.cia.service.data.impl.util.SecretCredentialsManager to com.hack23.cia.service.data.impl.util.SecretCredentialsManagerImpl--><path d="M773,763.7413 C773,795.7452 773,835.1355 773,865.7643 " fill="none" id="com.hack23.cia.service.data.impl.util.SecretCredentialsManager-com.hack23.cia.service.data.impl.util.SecretCredentialsManagerImpl" style="stroke: #A80036; stroke-width: 1.0; stroke-dasharray: 7.0,7.0;"/><polygon fill="none" points="766.0001,763.4544,773,743.4544,780.0001,763.4544,766.0001,763.4544" style="stroke: #A80036; stroke-width: 1.0;"/><text fill="#888888" font-family="sans-serif" font-size="10" lengthAdjust="spacingAndGlyphs" textLength="186" x="517" y="1000.2822">UMLDoclet 2.0.5, PlantUML 1.2019.08</text><!--
@startuml
    namespace com.hack23.cia.service.data.impl.util {

        interface SecretCredentialsManager [[SecretCredentialsManager.html]] {
            {abstract} +getPassword(): String
            {abstract} +getUsername(): String
        }

        class SecretPGXADataSourceFactory [[SecretPGXADataSourceFactory.html]] {
            +getObjectInstance(Object, Name, Context, Hashtable<?, ?>): Object
        }

        class LoadHelper [[LoadHelper.html]] {
            {static} +recursiveInitialize(T): T
        }

        class SecretPGXADataSource [[SecretPGXADataSource.html]] {
            +SecretPGXADataSource(SecretCredentialsManager)
            +getXAConnection(): XAConnection
            #createReference(): Reference
        }

        class com.hack23.cia.service.data.impl.util.SecretPGXADataSource.SecretReference [[SecretPGXADataSource.SecretReference.html]] {
            +SecretReference(SecretCredentialsManager, String, String, String)
        }

        class SecretCredentialsManagerImpl [[SecretCredentialsManagerImpl.html]] {
            +SecretCredentialsManagerImpl(String, String, String, String)
            +getPassword(): String
            +getUsername(): String
            #getSecretCache(): SecretCache
        }

        org.postgresql.xa.PGXADataSourceFactory <|- - SecretPGXADataSourceFactory
        org.postgresql.xa.PGXADataSource <|- - SecretPGXADataSource
        javax.naming.Reference <|- - com.hack23.cia.service.data.impl.util.SecretPGXADataSource.SecretReference
        SecretPGXADataSource +- - com.hack23.cia.service.data.impl.util.SecretPGXADataSource.SecretReference
        com.hack23.cia.service.data.impl.util.SecretPGXADataSource.SecretReference - -> SecretCredentialsManager: secretCredentialsManager
        SecretCredentialsManager <|.. SecretCredentialsManagerImpl
    }

    namespace org.postgresql.xa {
        class PGXADataSourceFactory
        class PGXADataSource
    }

    namespace javax.naming {
        class Reference {
            #className: String
            #addrs: Vector<RefAddr>
            #classFactory: String
            #classFactoryLocation: String
        }
    }

    center footer UMLDoclet 2.0.5, PlantUML 1.2019.08
@enduml

PlantUML version 1.2019.08(Sat Jul 13 21:25:14 CEST 2019)
(APACHE source distribution)
Java Runtime: OpenJDK Runtime Environment
JVM: OpenJDK 64-Bit Server VM
Java Version: 11.0.4+11-post-Ubuntu-1ubuntu219.04
Operating System: Linux
OS Version: 5.0.0-27-generic
Default Encoding: UTF-8
Language: en
Country: US
--></g></svg>