<?xml version="1.0" encoding="UTF-8" standalone="no"?><svg xmlns="http://www.w3.org/2000/svg" xmlns:xlink="http://www.w3.org/1999/xlink" contentScriptType="application/ecmascript" contentStyleType="text/css" height="269px" preserveAspectRatio="none" style="width:386px;height:269px;" version="1.1" viewBox="0 0 386 269" width="386px" zoomAndPan="magnify"><defs><filter height="300%" id="f1aeaaaso1ygxi" width="300%" x="-1" y="-1"><feGaussianBlur result="blurOut" stdDeviation="2.0"/><feColorMatrix in="blurOut" result="blurOut2" type="matrix" values="0 0 0 0 0 0 0 0 0 0 0 0 0 0 0 0 0 0 .4 0"/><feOffset dx="4.0" dy="4.0" in="blurOut2" result="blurOut3"/><feBlend in="SourceGraphic" in2="blurOut3" mode="normal"/></filter></defs><g><!--class com.hack23.cia.service.data.impl.util.SecretCredentialsManagerImpl--><a href="SecretCredentialsManagerImpl.html" target="_top" xlink:actuate="onRequest" xlink:show="new" xlink:title="SecretCredentialsManagerImpl.html" xlink:type="simple"><rect fill="#FEFECE" filter="url(#f1aeaaaso1ygxi)" height="97.1563" id="com.hack23.cia.service.data.impl.util.SecretCredentialsManagerImpl" style="stroke: #A80036; stroke-width: 1.5;" width="369" x="6" y="140"/><ellipse cx="80.75" cy="158.9688" fill="#ADD1B2" rx="11" ry="11" style="stroke: #A80036; stroke-width: 1.0;"/><path d="M83.7188,164.6094 Q83.1406,164.9063 82.5,165.0469 Q81.8594,165.2031 81.1563,165.2031 Q78.6563,165.2031 77.3281,163.5625 Q76.0156,161.9063 76.0156,158.7813 Q76.0156,155.6563 77.3281,154 Q78.6563,152.3438 81.1563,152.3438 Q81.8594,152.3438 82.5,152.5 Q83.1563,152.6563 83.7188,152.9531 L83.7188,155.6719 Q83.0938,155.0938 82.5,154.8281 Q81.9063,154.5469 81.2813,154.5469 Q79.9375,154.5469 79.25,155.625 Q78.5625,156.6875 78.5625,158.7813 Q78.5625,160.875 79.25,161.9531 Q79.9375,163.0156 81.2813,163.0156 Q81.9063,163.0156 82.5,162.75 Q83.0938,162.4688 83.7188,161.8906 L83.7188,164.6094 Z "/><text fill="#000000" font-family="sans-serif" font-size="14" lengthAdjust="spacingAndGlyphs" textLength="211" x="101.25" y="157.9951">SecretCredentialsManagerImpl</text><text fill="#000000" font-family="sans-serif" font-size="10" lengthAdjust="spacingAndGlyphs" textLength="176" x="118.75" y="170.5791">com.hack23.cia.service.data.impl.util</text><line style="stroke: #A80036; stroke-width: 1.5;" x1="7" x2="374" y1="177.9375" y2="177.9375"/><ellipse cx="17" cy="189.8398" fill="#84BE84" rx="3" ry="3" style="stroke: #038048; stroke-width: 1.0;"/><text fill="#000000" font-family="sans-serif" font-size="11" lengthAdjust="spacingAndGlyphs" textLength="343" x="26" y="192.1479">SecretCredentialsManagerImpl(String, String, String, String)</text><ellipse cx="17" cy="202.6445" fill="#84BE84" rx="3" ry="3" style="stroke: #038048; stroke-width: 1.0;"/><text fill="#000000" font-family="sans-serif" font-size="11" lengthAdjust="spacingAndGlyphs" textLength="124" x="26" y="204.9526">getPassword(): String</text><ellipse cx="17" cy="215.4492" fill="#84BE84" rx="3" ry="3" style="stroke: #038048; stroke-width: 1.0;"/><text fill="#000000" font-family="sans-serif" font-size="11" lengthAdjust="spacingAndGlyphs" textLength="127" x="26" y="217.7573">getUsername(): String</text><polygon fill="#FFFF44" points="17,223.2539,21,227.2539,17,231.2539,13,227.2539" style="stroke: #B38D22; stroke-width: 1.0;"/><text fill="#000000" font-family="sans-serif" font-size="11" lengthAdjust="spacingAndGlyphs" textLength="178" x="26" y="230.562">getSecretCache(): SecretCache</text></a><!--class com.hack23.cia.service.data.impl.util.SecretCredentialsManager--><a href="SecretCredentialsManager.html" target="_top" xlink:actuate="onRequest" xlink:show="new" xlink:title="SecretCredentialsManager.html" xlink:type="simple"><rect fill="#FEFECE" filter="url(#f1aeaaaso1ygxi)" height="71.5469" id="com.hack23.cia.service.data.impl.util.SecretCredentialsManager" style="stroke: #A80036; stroke-width: 1.5;" width="219" x="81" y="8"/><ellipse cx="96" cy="26.9688" fill="#B4A7E5" rx="11" ry="11" style="stroke: #A80036; stroke-width: 1.0;"/><path d="M91.9219,22.7344 L91.9219,20.5781 L99.3125,20.5781 L99.3125,22.7344 L96.8438,22.7344 L96.8438,30.8125 L99.3125,30.8125 L99.3125,32.9688 L91.9219,32.9688 L91.9219,30.8125 L94.3906,30.8125 L94.3906,22.7344 L91.9219,22.7344 Z "/><text fill="#000000" font-family="sans-serif" font-size="14" font-style="italic" lengthAdjust="spacingAndGlyphs" textLength="182" x="112.5" y="25.9951">SecretCredentialsManager</text><text fill="#000000" font-family="sans-serif" font-size="10" font-style="italic" lengthAdjust="spacingAndGlyphs" textLength="187" x="110" y="38.5791">com.hack23.cia.service.data.impl.util</text><line style="stroke: #A80036; stroke-width: 1.5;" x1="82" x2="299" y1="45.9375" y2="45.9375"/><ellipse cx="92" cy="57.8398" fill="#84BE84" rx="3" ry="3" style="stroke: #038048; stroke-width: 1.0;"/><text fill="#000000" font-family="sans-serif" font-size="11" font-style="italic" lengthAdjust="spacingAndGlyphs" textLength="121" x="101" y="60.1479">getPassword(): String</text><ellipse cx="92" cy="70.6445" fill="#84BE84" rx="3" ry="3" style="stroke: #038048; stroke-width: 1.0;"/><text fill="#000000" font-family="sans-serif" font-size="11" font-style="italic" lengthAdjust="spacingAndGlyphs" textLength="125" x="101" y="72.9526">getUsername(): String</text></a><!--link com.hack23.cia.service.data.impl.util.SecretCredentialsManager to com.hack23.cia.service.data.impl.util.SecretCredentialsManagerImpl--><path d="M190.5,100.3511 C190.5,113.3783 190.5,127.131 190.5,139.7992 " fill="none" id="com.hack23.cia.service.data.impl.util.SecretCredentialsManager-com.hack23.cia.service.data.impl.util.SecretCredentialsManagerImpl" style="stroke: #A80036; stroke-width: 1.0; stroke-dasharray: 7.0,7.0;"/><polygon fill="none" points="183.5001,100.0907,190.5,80.0907,197.5001,100.0907,183.5001,100.0907" style="stroke: #A80036; stroke-width: 1.0;"/><text fill="#888888" font-family="sans-serif" font-size="10" lengthAdjust="spacingAndGlyphs" textLength="186" x="103.5" y="256.2822">UMLDoclet 2.0.5, PlantUML 1.2019.08</text><!--
@startuml
    set namespaceSeparator none
    hide empty fields
    hide empty methods

    class "<size:14>SecretCredentialsManagerImpl\n<size:10>com.hack23.cia.service.data.impl.util" as com.hack23.cia.service.data.impl.util.SecretCredentialsManagerImpl [[SecretCredentialsManagerImpl.html]] {
        +SecretCredentialsManagerImpl(String, String, String, String)
        +getPassword(): String
        +getUsername(): String
        #getSecretCache(): SecretCache
    }

    interface "<size:14>SecretCredentialsManager\n<size:10>com.hack23.cia.service.data.impl.util" as com.hack23.cia.service.data.impl.util.SecretCredentialsManager [[SecretCredentialsManager.html]] {
        {abstract} +getPassword(): String
        {abstract} +getUsername(): String
    }

    com.hack23.cia.service.data.impl.util.SecretCredentialsManager <|.. com.hack23.cia.service.data.impl.util.SecretCredentialsManagerImpl

    center footer UMLDoclet 2.0.5, PlantUML 1.2019.08
@enduml

PlantUML version 1.2019.08(Sat Jul 13 21:25:14 CEST 2019)
(APACHE source distribution)
Java Runtime: OpenJDK Runtime Environment
JVM: OpenJDK 64-Bit Server VM
Java Version: 11.0.4+11-post-Ubuntu-1ubuntu219.04
Operating System: Linux
OS Version: 5.0.0-27-generic
Default Encoding: UTF-8
Language: en
Country: US
--></g></svg>