<?xml version="1.0" encoding="UTF-8" standalone="no"?><svg xmlns="http://www.w3.org/2000/svg" xmlns:xlink="http://www.w3.org/1999/xlink" contentStyleType="text/css" height="233px" preserveAspectRatio="none" style="width:438px;height:233px;background:#FFFFFF;" version="1.1" viewBox="0 0 438 233" width="438px" zoomAndPan="magnify"><defs/><g><!--MD5=[7c0189434d6c3b800b483ac04dcefe1a]
class com.hack23.cia.web.impl.ui.application.views.pageclicklistener.ChangePasswordClickListener--><a href="ChangePasswordClickListener.html" target="_top" title="ChangePasswordClickListener.html" xlink:actuate="onRequest" xlink:href="ChangePasswordClickListener.html" xlink:show="new" xlink:title="ChangePasswordClickListener.html" xlink:type="simple"><g id="elem_com.hack23.cia.web.impl.ui.application.views.pageclicklistener.ChangePasswordClickListener"><rect codeLine="5" fill="#F1F1F1" height="78.5313" id="com.hack23.cia.web.impl.ui.application.views.pageclicklistener.ChangePasswordClickListener" rx="2.5" ry="2.5" style="stroke:#181818;stroke-width:0.5;" width="424" x="7" y="129"/><ellipse cx="66.75" cy="147.9688" fill="#ADD1B2" rx="11" ry="11" style="stroke:#181818;stroke-width:1.0;"/><path d="M69.7188,153.6094 Q69.1406,153.9063 68.5,154.0469 Q67.8594,154.2031 67.1563,154.2031 Q64.6563,154.2031 63.3281,152.5625 Q62.0156,150.9063 62.0156,147.7813 Q62.0156,144.6563 63.3281,143 Q64.6563,141.3438 67.1563,141.3438 Q67.8594,141.3438 68.5,141.5 Q69.1563,141.6563 69.7188,141.9531 L69.7188,144.6719 Q69.0938,144.0938 68.5,143.8281 Q67.9063,143.5469 67.2813,143.5469 Q65.9375,143.5469 65.25,144.625 Q64.5625,145.6875 64.5625,147.7813 Q64.5625,149.875 65.25,150.9531 Q65.9375,152.0156 67.2813,152.0156 Q67.9063,152.0156 68.5,151.75 Q69.0938,151.4688 69.7188,150.8906 L69.7188,153.6094 Z " fill="#000000"/><text fill="#000000" font-family="sans-serif" font-size="14" lengthAdjust="spacing" textLength="208" x="131.25" y="146.9951">ChangePasswordClickListener</text><text fill="#000000" font-family="sans-serif" font-size="10" lengthAdjust="spacing" textLength="296" x="87.25" y="159.5791">com.hack23.cia.web.impl.ui.application.views.pageclicklistener</text><line style="stroke:#181818;stroke-width:0.5;" x1="8" x2="430" y1="166.9375" y2="166.9375"/><ellipse cx="18" cy="177.9375" fill="#84BE84" rx="3" ry="3" style="stroke:#038048;stroke-width:1.0;"/><text fill="#000000" font-family="sans-serif" font-size="14" lengthAdjust="spacing" textLength="398" x="27" y="183.9326">ChangePasswordClickListener(ChangePasswordRequest)</text><ellipse cx="18" cy="194.2344" fill="#84BE84" rx="3" ry="3" style="stroke:#038048;stroke-width:1.0;"/><text fill="#000000" font-family="sans-serif" font-size="14" lengthAdjust="spacing" textLength="196" x="27" y="200.2295">buttonClick(ClickEvent): void</text></g></a><!--MD5=[c8b74d6c3e7b4a4086db53b8a4347040]
class com.vaadin.ui.Button.ClickListener--><g id="elem_com.vaadin.ui.Button.ClickListener"><rect codeLine="10" fill="#F1F1F1" height="62.2344" id="com.vaadin.ui.Button.ClickListener" rx="2.5" ry="2.5" style="stroke:#181818;stroke-width:0.5;" width="224" x="107" y="7"/><ellipse cx="146.3" cy="25.9688" fill="#B4A7E5" rx="11" ry="11" style="stroke:#181818;stroke-width:1.0;"/><path d="M142.2219,21.7344 L142.2219,19.5781 L149.6125,19.5781 L149.6125,21.7344 L147.1438,21.7344 L147.1438,29.8125 L149.6125,29.8125 L149.6125,31.9688 L142.2219,31.9688 L142.2219,29.8125 L144.6906,29.8125 L144.6906,21.7344 L142.2219,21.7344 Z " fill="#000000"/><text fill="#000000" font-family="sans-serif" font-size="14" font-style="italic" lengthAdjust="spacing" textLength="138" x="165.7" y="24.9951">Button.ClickListener</text><text fill="#000000" font-family="sans-serif" font-size="10" font-style="italic" lengthAdjust="spacing" textLength="70" x="199.7" y="37.5791">com.vaadin.ui</text><line style="stroke:#181818;stroke-width:0.5;" x1="108" x2="330" y1="44.9375" y2="44.9375"/><ellipse cx="118" cy="55.9375" fill="#84BE84" rx="3" ry="3" style="stroke:#038048;stroke-width:1.0;"/><text fill="#000000" font-family="sans-serif" font-size="14" font-style="italic" lengthAdjust="spacing" textLength="198" x="127" y="61.9326">buttonClick(ClickEvent): void</text></g><!--MD5=[f3e287cb6121cc2ece63c7e7a3caf650]
reverse link com.vaadin.ui.Button.ClickListener to com.hack23.cia.web.impl.ui.application.views.pageclicklistener.ChangePasswordClickListener--><g id="link_com.vaadin.ui.Button.ClickListener_com.hack23.cia.web.impl.ui.application.views.pageclicklistener.ChangePasswordClickListener"><path codeLine="14" d="M219,89.36 C219,102.47 219,116.38 219,128.78 " fill="none" id="com.vaadin.ui.Button.ClickListener-backto-com.hack23.cia.web.impl.ui.application.views.pageclicklistener.ChangePasswordClickListener" style="stroke:#181818;stroke-width:1.0;stroke-dasharray:7.0,7.0;"/><polygon fill="none" points="212,89.13,219,69.13,226,89.13,212,89.13" style="stroke:#181818;stroke-width:1.0;"/></g><rect height="11.6406" style="stroke:#00000000;stroke-width:1.0;fill:none;" width="186" x="119" y="213.5313"/><text fill="#888888" font-family="sans-serif" font-size="10" lengthAdjust="spacing" textLength="186" x="119" y="222.8135">UMLDoclet 2.0.18, PlantUML 1.2022.6</text><!--MD5=[b070aae15e70fa24f2021ff6e825d128]
@startuml
    set namespaceSeparator none
    hide empty fields
    hide empty methods

    class "<size:14>ChangePasswordClickListener\n<size:10>com.hack23.cia.web.impl.ui.application.views.pageclicklistener" as com.hack23.cia.web.impl.ui.application.views.pageclicklistener.ChangePasswordClickListener [[ChangePasswordClickListener.html]] {
        +ChangePasswordClickListener(ChangePasswordRequest)
        +buttonClick(ClickEvent): void
    }

    interface "<size:14>Button.ClickListener\n<size:10>com.vaadin.ui" as com.vaadin.ui.Button.ClickListener {
        {abstract} +buttonClick(ClickEvent): void
    }

    com.vaadin.ui.Button.ClickListener <|.. com.hack23.cia.web.impl.ui.application.views.pageclicklistener.ChangePasswordClickListener

    center footer UMLDoclet 2.0.18, PlantUML 1.2022.6
@enduml

PlantUML version 1.2022.6(Tue Jun 21 19:34:49 CEST 2022)
(APACHE source distribution)
Java Runtime: OpenJDK Runtime Environment
JVM: OpenJDK 64-Bit Server VM
Default Encoding: ANSI_X3.4-1968
Language: en
Country: US
--></g></svg>