<?xml version="1.0" encoding="UTF-8" standalone="no"?><svg xmlns="http://www.w3.org/2000/svg" xmlns:xlink="http://www.w3.org/1999/xlink" contentScriptType="application/ecmascript" contentStyleType="text/css" height="231px" preserveAspectRatio="none" style="width:384px;height:231px;" version="1.1" viewBox="0 0 384 231" width="384px" zoomAndPan="magnify"><defs><filter height="300%" id="f18l9wv853hwrh" width="300%" x="-1" y="-1"><feGaussianBlur result="blurOut" stdDeviation="2.0"/><feColorMatrix in="blurOut" result="blurOut2" type="matrix" values="0 0 0 0 0 0 0 0 0 0 0 0 0 0 0 0 0 0 .4 0"/><feOffset dx="4.0" dy="4.0" in="blurOut2" result="blurOut3"/><feBlend in="SourceGraphic" in2="blurOut3" mode="normal"/></filter></defs><g><!--MD5=[cbaaff88704e8890547669a8e4f72a4f]
class com.hack23.cia.web.impl.ui.application.views.pageclicklistener.CommitFormWrapperClickListener--><a href="CommitFormWrapperClickListener.html" target="_top" title="CommitFormWrapperClickListener.html" xlink:actuate="onRequest" xlink:href="CommitFormWrapperClickListener.html" xlink:show="new" xlink:title="CommitFormWrapperClickListener.html" xlink:type="simple"><rect fill="#FEFECE" filter="url(#f18l9wv853hwrh)" height="71.5469" id="com.hack23.cia.web.impl.ui.application.views.pageclicklistener.CommitFormWrapperClickListener" style="stroke: #A80036; stroke-width: 1.5;" width="367" x="6" y="127"/><ellipse cx="38.55" cy="145.9688" fill="#ADD1B2" rx="11" ry="11" style="stroke: #A80036; stroke-width: 1.0;"/><path d="M41.5188,151.6094 Q40.9406,151.9063 40.3,152.0469 Q39.6594,152.2031 38.9563,152.2031 Q36.4563,152.2031 35.1281,150.5625 Q33.8156,148.9063 33.8156,145.7813 Q33.8156,142.6563 35.1281,141 Q36.4563,139.3438 38.9563,139.3438 Q39.6594,139.3438 40.3,139.5 Q40.9563,139.6563 41.5188,139.9531 L41.5188,142.6719 Q40.8938,142.0938 40.3,141.8281 Q39.7063,141.5469 39.0813,141.5469 Q37.7375,141.5469 37.05,142.625 Q36.3625,143.6875 36.3625,145.7813 Q36.3625,147.875 37.05,148.9531 Q37.7375,150.0156 39.0813,150.0156 Q39.7063,150.0156 40.3,149.75 Q40.8938,149.4688 41.5188,148.8906 L41.5188,151.6094 Z "/><text fill="#000000" font-family="sans-serif" font-size="14" lengthAdjust="spacingAndGlyphs" textLength="233" x="87.95" y="144.9951">CommitFormWrapperClickListener</text><text fill="#000000" font-family="sans-serif" font-size="10" lengthAdjust="spacingAndGlyphs" textLength="296" x="56.45" y="157.5791">com.hack23.cia.web.impl.ui.application.views.pageclicklistener</text><line style="stroke: #A80036; stroke-width: 1.5;" x1="7" x2="372" y1="164.9375" y2="164.9375"/><ellipse cx="17" cy="175.9375" fill="#84BE84" rx="3" ry="3" style="stroke: #038048; stroke-width: 1.0;"/><text fill="#000000" font-family="sans-serif" font-size="11" lengthAdjust="spacingAndGlyphs" textLength="341" x="26" y="179.1479">CommitFormWrapperClickListener(Binder&lt;?&gt;, ClickListener)</text><ellipse cx="17" cy="188.7422" fill="#84BE84" rx="3" ry="3" style="stroke: #038048; stroke-width: 1.0;"/><text fill="#000000" font-family="sans-serif" font-size="11" lengthAdjust="spacingAndGlyphs" textLength="158" x="26" y="191.9526">buttonClick(ClickEvent): void</text></a><!--MD5=[c8b74d6c3e7b4a4086db53b8a4347040]
class com.vaadin.ui.Button.ClickListener--><rect fill="#FEFECE" filter="url(#f18l9wv853hwrh)" height="58.7422" id="com.vaadin.ui.Button.ClickListener" style="stroke: #A80036; stroke-width: 1.5;" width="186" x="96.5" y="8"/><ellipse cx="118.7" cy="26.9688" fill="#B4A7E5" rx="11" ry="11" style="stroke: #A80036; stroke-width: 1.0;"/><path d="M114.6219,22.7344 L114.6219,20.5781 L122.0125,20.5781 L122.0125,22.7344 L119.5438,22.7344 L119.5438,30.8125 L122.0125,30.8125 L122.0125,32.9688 L114.6219,32.9688 L114.6219,30.8125 L117.0906,30.8125 L117.0906,22.7344 L114.6219,22.7344 Z "/><text fill="#000000" font-family="sans-serif" font-size="14" font-style="italic" lengthAdjust="spacingAndGlyphs" textLength="138" x="134.3" y="25.9951">Button.ClickListener</text><text fill="#000000" font-family="sans-serif" font-size="10" font-style="italic" lengthAdjust="spacingAndGlyphs" textLength="70" x="168.3" y="38.5791">com.vaadin.ui</text><line style="stroke: #A80036; stroke-width: 1.5;" x1="97.5" x2="281.5" y1="45.9375" y2="45.9375"/><ellipse cx="107.5" cy="56.9375" fill="#84BE84" rx="3" ry="3" style="stroke: #038048; stroke-width: 1.0;"/><text fill="#000000" font-family="sans-serif" font-size="11" font-style="italic" lengthAdjust="spacingAndGlyphs" textLength="160" x="116.5" y="60.1479">buttonClick(ClickEvent): void</text><!--MD5=[e081b8ca797f1f07e3d23ff36fb6700b]
reverse link com.vaadin.ui.Button.ClickListener to com.hack23.cia.web.impl.ui.application.views.pageclicklistener.CommitFormWrapperClickListener--><path d="M189.5,87.5049 C189.5,100.6211 189.5,114.5128 189.5,126.7555 " fill="none" id="com.vaadin.ui.Button.ClickListener&lt;-com.hack23.cia.web.impl.ui.application.views.pageclicklistener.CommitFormWrapperClickListener" style="stroke: #A80036; stroke-width: 1.0; stroke-dasharray: 7.0,7.0;"/><polygon fill="none" points="182.5001,87.2418,189.5,67.2417,196.5001,87.2417,182.5001,87.2418" style="stroke: #A80036; stroke-width: 1.0;"/><text fill="#888888" font-family="sans-serif" font-size="10" lengthAdjust="spacingAndGlyphs" textLength="186" x="102.5" y="218.2822">UMLDoclet 2.0.6, PlantUML 1.2019.12</text><!--MD5=[2173e448e628a6cf4ec61cfabb2acd30]
@startuml
    set namespaceSeparator none
    hide empty fields
    hide empty methods

    class "<size:14>CommitFormWrapperClickListener\n<size:10>com.hack23.cia.web.impl.ui.application.views.pageclicklistener" as com.hack23.cia.web.impl.ui.application.views.pageclicklistener.CommitFormWrapperClickListener [[CommitFormWrapperClickListener.html]] {
        +CommitFormWrapperClickListener(Binder<?>, ClickListener)
        +buttonClick(ClickEvent): void
    }

    interface "<size:14>Button.ClickListener\n<size:10>com.vaadin.ui" as com.vaadin.ui.Button.ClickListener {
        {abstract} +buttonClick(ClickEvent): void
    }

    com.vaadin.ui.Button.ClickListener <|.. com.hack23.cia.web.impl.ui.application.views.pageclicklistener.CommitFormWrapperClickListener

    center footer UMLDoclet 2.0.6, PlantUML 1.2019.12
@enduml

PlantUML version 1.2019.12(Sun Nov 03 11:24:54 CET 2019)
(APACHE source distribution)
Java Runtime: OpenJDK Runtime Environment
JVM: OpenJDK 64-Bit Server VM
Java Version: 11.0.5-ea+10-post-Ubuntu-0ubuntu1
Operating System: Linux
Default Encoding: UTF-8
Language: en
Country: US
--></g></svg>