<?xml version="1.0" encoding="UTF-8" standalone="no"?><svg xmlns="http://www.w3.org/2000/svg" xmlns:xlink="http://www.w3.org/1999/xlink" contentStyleType="text/css" height="236px" preserveAspectRatio="none" style="width:376px;height:236px;background:#FFFFFF;" version="1.1" viewBox="0 0 376 236" width="376px" zoomAndPan="magnify"><defs/><g><!--MD5=[b514bd1384b582837b6a81519e727e93]
class com.hack23.cia.web.impl.ui.application.views.pageclicklistener.DecisionFlowValueChangeListener--><a href="DecisionFlowValueChangeListener.html" target="_top" title="DecisionFlowValueChangeListener.html" xlink:actuate="onRequest" xlink:href="DecisionFlowValueChangeListener.html" xlink:show="new" xlink:title="DecisionFlowValueChangeListener.html" xlink:type="simple"><g id="elem_com.hack23.cia.web.impl.ui.application.views.pageclicklistener.DecisionFlowValueChangeListener"><rect codeLine="5" fill="#F1F1F1" height="78.5313" id="com.hack23.cia.web.impl.ui.application.views.pageclicklistener.DecisionFlowValueChangeListener" rx="2.5" ry="2.5" style="stroke:#181818;stroke-width:0.5;" width="362" x="7" y="132"/><ellipse cx="37.3" cy="150.9688" fill="#ADD1B2" rx="11" ry="11" style="stroke:#181818;stroke-width:1.0;"/><path d="M40.2688,156.6094 Q39.6906,156.9063 39.05,157.0469 Q38.4094,157.2031 37.7063,157.2031 Q35.2063,157.2031 33.8781,155.5625 Q32.5656,153.9063 32.5656,150.7813 Q32.5656,147.6563 33.8781,146 Q35.2063,144.3438 37.7063,144.3438 Q38.4094,144.3438 39.05,144.5 Q39.7063,144.6563 40.2688,144.9531 L40.2688,147.6719 Q39.6438,147.0938 39.05,146.8281 Q38.4563,146.5469 37.8313,146.5469 Q36.4875,146.5469 35.8,147.625 Q35.1125,148.6875 35.1125,150.7813 Q35.1125,152.875 35.8,153.9531 Q36.4875,155.0156 37.8313,155.0156 Q38.4563,155.0156 39.05,154.75 Q39.6438,154.4688 40.2688,153.8906 L40.2688,156.6094 Z " fill="#000000"/><text fill="#000000" font-family="sans-serif" font-size="14" lengthAdjust="spacing" textLength="238" x="83.7" y="149.9951">DecisionFlowValueChangeListener</text><text fill="#000000" font-family="sans-serif" font-size="10" lengthAdjust="spacing" textLength="296" x="54.7" y="162.5791">com.hack23.cia.web.impl.ui.application.views.pageclicklistener</text><line style="stroke:#181818;stroke-width:0.5;" x1="8" x2="368" y1="169.9375" y2="169.9375"/><ellipse cx="18" cy="180.9375" fill="#84BE84" rx="3" ry="3" style="stroke:#038048;stroke-width:1.0;"/><text fill="#000000" font-family="sans-serif" font-size="14" lengthAdjust="spacing" textLength="336" x="27" y="186.9326">DecisionFlowValueChangeListener(String, String)</text><ellipse cx="18" cy="197.2344" fill="#84BE84" rx="3" ry="3" style="stroke:#038048;stroke-width:1.0;"/><text fill="#000000" font-family="sans-serif" font-size="14" lengthAdjust="spacing" textLength="332" x="27" y="203.2295">valueChange(ValueChangeEvent&lt;String&gt;): void</text></g></a><!--MD5=[f2af7cc9d3f2fd589a51e906cadb6c91]
class com.vaadin.data.HasValue.ValueChangeListener--><g id="elem_com.vaadin.data.HasValue.ValueChangeListener"><rect codeLine="10" fill="#F1F1F1" height="62.2344" id="com.vaadin.data.HasValue.ValueChangeListener" rx="2.5" ry="2.5" style="stroke:#181818;stroke-width:0.5;" width="332" x="22" y="10"/><ellipse cx="55.9" cy="28.9688" fill="#B4A7E5" rx="11" ry="11" style="stroke:#181818;stroke-width:1.0;"/><path d="M51.8219,24.7344 L51.8219,22.5781 L59.2125,22.5781 L59.2125,24.7344 L56.7438,24.7344 L56.7438,32.8125 L59.2125,32.8125 L59.2125,34.9688 L51.8219,34.9688 L51.8219,32.8125 L54.2906,32.8125 L54.2906,24.7344 L51.8219,24.7344 Z " fill="#000000"/><text fill="#000000" font-family="sans-serif" font-size="14" font-style="italic" lengthAdjust="spacing" textLength="217" x="74.1" y="27.9951">HasValue.ValueChangeListener</text><text fill="#000000" font-family="sans-serif" font-size="10" font-style="italic" lengthAdjust="spacing" textLength="83" x="141.1" y="40.5791">com.vaadin.data</text><rect fill="#FFFFFF" height="15.9688" style="stroke:#000000;stroke-width:1.0;stroke-dasharray:2.0,2.0;" width="39" x="318" y="7"/><text fill="#000000" font-family="sans-serif" font-size="12" font-style="italic" lengthAdjust="spacing" textLength="37" x="319" y="19.1387">String</text><line style="stroke:#181818;stroke-width:0.5;" x1="23" x2="353" y1="47.9375" y2="47.9375"/><ellipse cx="33" cy="58.9375" fill="#84BE84" rx="3" ry="3" style="stroke:#038048;stroke-width:1.0;"/><text fill="#000000" font-family="sans-serif" font-size="14" font-style="italic" lengthAdjust="spacing" textLength="306" x="42" y="64.9326">valueChange(ValueChangeEvent&lt;V&gt;): void</text></g><!--MD5=[de2012103beac14e1c0aef30caa6a7c6]
reverse link com.vaadin.data.HasValue.ValueChangeListener to com.hack23.cia.web.impl.ui.application.views.pageclicklistener.DecisionFlowValueChangeListener--><g id="link_com.vaadin.data.HasValue.ValueChangeListener_com.hack23.cia.web.impl.ui.application.views.pageclicklistener.DecisionFlowValueChangeListener"><path codeLine="14" d="M188,92.36 C188,105.47 188,119.38 188,131.78 " fill="none" id="com.vaadin.data.HasValue.ValueChangeListener-backto-com.hack23.cia.web.impl.ui.application.views.pageclicklistener.DecisionFlowValueChangeListener" style="stroke:#181818;stroke-width:1.0;stroke-dasharray:7.0,7.0;"/><polygon fill="none" points="181,92.13,188,72.13,195,92.13,181,92.13" style="stroke:#181818;stroke-width:1.0;"/></g><rect height="11.6406" style="stroke:#00000000;stroke-width:1.0;fill:none;" width="186" x="88" y="216.5313"/><text fill="#888888" font-family="sans-serif" font-size="10" lengthAdjust="spacing" textLength="186" x="88" y="225.8135">UMLDoclet 2.0.18, PlantUML 1.2022.6</text><!--MD5=[91087cb3af8410bd3e226c6043103f25]
@startuml
    set namespaceSeparator none
    hide empty fields
    hide empty methods

    class "<size:14>DecisionFlowValueChangeListener\n<size:10>com.hack23.cia.web.impl.ui.application.views.pageclicklistener" as com.hack23.cia.web.impl.ui.application.views.pageclicklistener.DecisionFlowValueChangeListener [[DecisionFlowValueChangeListener.html]] {
        +DecisionFlowValueChangeListener(String, String)
        +valueChange(ValueChangeEvent<String>): void
    }

    interface "<size:14>HasValue.ValueChangeListener\n<size:10>com.vaadin.data" as com.vaadin.data.HasValue.ValueChangeListener<String> {
        {abstract} +valueChange(ValueChangeEvent<V>): void
    }

    com.vaadin.data.HasValue.ValueChangeListener <|.. com.hack23.cia.web.impl.ui.application.views.pageclicklistener.DecisionFlowValueChangeListener

    center footer UMLDoclet 2.0.18, PlantUML 1.2022.6
@enduml

PlantUML version 1.2022.6(Tue Jun 21 19:34:49 CEST 2022)
(APACHE source distribution)
Java Runtime: OpenJDK Runtime Environment
JVM: OpenJDK 64-Bit Server VM
Default Encoding: ANSI_X3.4-1968
Language: en
Country: US
--></g></svg>