<?xml version="1.0" encoding="UTF-8" standalone="no"?><svg xmlns="http://www.w3.org/2000/svg" xmlns:xlink="http://www.w3.org/1999/xlink" contentScriptType="application/ecmascript" contentStyleType="text/css" height="231px" preserveAspectRatio="none" style="width:389px;height:231px;" version="1.1" viewBox="0 0 389 231" width="389px" zoomAndPan="magnify"><defs><filter height="300%" id="fi7iw0undifvn" width="300%" x="-1" y="-1"><feGaussianBlur result="blurOut" stdDeviation="2.0"/><feColorMatrix in="blurOut" result="blurOut2" type="matrix" values="0 0 0 0 0 0 0 0 0 0 0 0 0 0 0 0 0 0 .4 0"/><feOffset dx="4.0" dy="4.0" in="blurOut2" result="blurOut3"/><feBlend in="SourceGraphic" in2="blurOut3" mode="normal"/></filter></defs><g><!--class com.hack23.cia.web.impl.ui.application.views.pageclicklistener.UpdateSearchIndexClickListener--><a href="UpdateSearchIndexClickListener.html" target="_top" xlink:actuate="onRequest" xlink:show="new" xlink:title="UpdateSearchIndexClickListener.html" xlink:type="simple"><rect fill="#FEFECE" filter="url(#fi7iw0undifvn)" height="71.5469" id="com.hack23.cia.web.impl.ui.application.views.pageclicklistener.UpdateSearchIndexClickListener" style="stroke: #A80036; stroke-width: 1.5;" width="372" x="6" y="127"/><ellipse cx="40.8" cy="145.9688" fill="#ADD1B2" rx="11" ry="11" style="stroke: #A80036; stroke-width: 1.0;"/><path d="M43.7688,151.6094 Q43.1906,151.9063 42.55,152.0469 Q41.9094,152.2031 41.2063,152.2031 Q38.7063,152.2031 37.3781,150.5625 Q36.0656,148.9063 36.0656,145.7813 Q36.0656,142.6563 37.3781,141 Q38.7063,139.3438 41.2063,139.3438 Q41.9094,139.3438 42.55,139.5 Q43.2063,139.6563 43.7688,139.9531 L43.7688,142.6719 Q43.1438,142.0938 42.55,141.8281 Q41.9563,141.5469 41.3313,141.5469 Q39.9875,141.5469 39.3,142.625 Q38.6125,143.6875 38.6125,145.7813 Q38.6125,147.875 39.3,148.9531 Q39.9875,150.0156 41.3313,150.0156 Q41.9563,150.0156 42.55,149.75 Q43.1438,149.4688 43.7688,148.8906 L43.7688,151.6094 Z "/><text fill="#000000" font-family="sans-serif" font-size="14" lengthAdjust="spacingAndGlyphs" textLength="222" x="96.2" y="144.9951">UpdateSearchIndexClickListener</text><text fill="#000000" font-family="sans-serif" font-size="10" lengthAdjust="spacingAndGlyphs" textLength="296" x="59.2" y="157.5791">com.hack23.cia.web.impl.ui.application.views.pageclicklistener</text><line style="stroke: #A80036; stroke-width: 1.5;" x1="7" x2="377" y1="164.9375" y2="164.9375"/><ellipse cx="17" cy="176.8398" fill="#84BE84" rx="3" ry="3" style="stroke: #038048; stroke-width: 1.0;"/><text fill="#000000" font-family="sans-serif" font-size="11" lengthAdjust="spacingAndGlyphs" textLength="346" x="26" y="179.1479">UpdateSearchIndexClickListener(UpdateSearchIndexRequest)</text><ellipse cx="17" cy="189.6445" fill="#84BE84" rx="3" ry="3" style="stroke: #038048; stroke-width: 1.0;"/><text fill="#000000" font-family="sans-serif" font-size="11" lengthAdjust="spacingAndGlyphs" textLength="158" x="26" y="191.9526">buttonClick(ClickEvent): void</text></a><!--class com.vaadin.ui.Button.ClickListener--><rect fill="#FEFECE" filter="url(#fi7iw0undifvn)" height="58.7422" id="com.vaadin.ui.Button.ClickListener" style="stroke: #A80036; stroke-width: 1.5;" width="186" x="99" y="8"/><ellipse cx="121.2" cy="26.9688" fill="#B4A7E5" rx="11" ry="11" style="stroke: #A80036; stroke-width: 1.0;"/><path d="M117.1219,22.7344 L117.1219,20.5781 L124.5125,20.5781 L124.5125,22.7344 L122.0438,22.7344 L122.0438,30.8125 L124.5125,30.8125 L124.5125,32.9688 L117.1219,32.9688 L117.1219,30.8125 L119.5906,30.8125 L119.5906,22.7344 L117.1219,22.7344 Z "/><text fill="#000000" font-family="sans-serif" font-size="14" font-style="italic" lengthAdjust="spacingAndGlyphs" textLength="138" x="136.8" y="25.9951">Button.ClickListener</text><text fill="#000000" font-family="sans-serif" font-size="10" font-style="italic" lengthAdjust="spacingAndGlyphs" textLength="70" x="170.8" y="38.5791">com.vaadin.ui</text><line style="stroke: #A80036; stroke-width: 1.5;" x1="100" x2="284" y1="45.9375" y2="45.9375"/><ellipse cx="110" cy="57.8398" fill="#84BE84" rx="3" ry="3" style="stroke: #038048; stroke-width: 1.0;"/><text fill="#000000" font-family="sans-serif" font-size="11" font-style="italic" lengthAdjust="spacingAndGlyphs" textLength="160" x="119" y="60.1479">buttonClick(ClickEvent): void</text><!--link com.vaadin.ui.Button.ClickListener to com.hack23.cia.web.impl.ui.application.views.pageclicklistener.UpdateSearchIndexClickListener--><path d="M192,87.5049 C192,100.6211 192,114.5128 192,126.7555 " fill="none" id="com.vaadin.ui.Button.ClickListener-com.hack23.cia.web.impl.ui.application.views.pageclicklistener.UpdateSearchIndexClickListener" style="stroke: #A80036; stroke-width: 1.0; stroke-dasharray: 7.0,7.0;"/><polygon fill="none" points="185.0001,87.2418,192,67.2417,199.0001,87.2417,185.0001,87.2418" style="stroke: #A80036; stroke-width: 1.0;"/><text fill="#888888" font-family="sans-serif" font-size="10" lengthAdjust="spacingAndGlyphs" textLength="186" x="105" y="218.2822">UMLDoclet 2.0.5, PlantUML 1.2019.08</text><!--
@startuml
    set namespaceSeparator none
    hide empty fields
    hide empty methods

    class "<size:14>UpdateSearchIndexClickListener\n<size:10>com.hack23.cia.web.impl.ui.application.views.pageclicklistener" as com.hack23.cia.web.impl.ui.application.views.pageclicklistener.UpdateSearchIndexClickListener [[UpdateSearchIndexClickListener.html]] {
        +UpdateSearchIndexClickListener(UpdateSearchIndexRequest)
        +buttonClick(ClickEvent): void
    }

    interface "<size:14>Button.ClickListener\n<size:10>com.vaadin.ui" as com.vaadin.ui.Button.ClickListener {
        {abstract} +buttonClick(ClickEvent): void
    }

    com.vaadin.ui.Button.ClickListener <|.. com.hack23.cia.web.impl.ui.application.views.pageclicklistener.UpdateSearchIndexClickListener

    center footer UMLDoclet 2.0.5, PlantUML 1.2019.08
@enduml

PlantUML version 1.2019.08(Sat Jul 13 21:25:14 CEST 2019)
(APACHE source distribution)
Java Runtime: OpenJDK Runtime Environment
JVM: OpenJDK 64-Bit Server VM
Java Version: 11.0.4+11-post-Ubuntu-1ubuntu219.04
Operating System: Linux
OS Version: 5.0.0-25-generic
Default Encoding: UTF-8
Language: en
Country: US
--></g></svg>