<svg xmlns="http://www.w3.org/2000/svg" xmlns:xlink="http://www.w3.org/1999/xlink" contentStyleType="text/css" data-diagram-type="CLASS" height="350px" preserveAspectRatio="none" style="width:619px;height:350px;background:#FFFFFF;" version="1.1" viewBox="0 0 619 350" width="619px" zoomAndPan="magnify"><defs/><g><!--class com.hack23.cia.service.impl.task.JobContextHolderImpl--><g class="entity" data-entity="com.hack23.cia.service.impl.task.JobContextHolderImpl" data-source-line="13" data-uid="ent0002" id="entity_com.hack23.cia.service.impl.task.JobContextHolderImpl"><a href="JobContextHolderImpl.html" target="_top" title="JobContextHolderImpl.html" xlink:actuate="onRequest" xlink:href="JobContextHolderImpl.html" xlink:show="new" xlink:title="JobContextHolderImpl.html" xlink:type="simple"><rect fill="#F1F1F1" height="146.0275" rx="2.5" ry="2.5" style="stroke:#181818;stroke-width:0.5;" width="606.7039" x="6" y="175"/><ellipse cx="228.787" cy="196.344" fill="#ADD1B2" rx="11" ry="11" style="stroke:#181818;stroke-width:1;"/><path d="M231.7557,201.9846 Q231.1776,202.2815 230.537,202.4221 Q229.8963,202.5783 229.1932,202.5783 Q226.6932,202.5783 225.3651,200.9377 Q224.0526,199.2815 224.0526,196.1565 Q224.0526,193.0315 225.3651,191.3752 Q226.6932,189.719 229.1932,189.719 Q229.8963,189.719 230.537,189.8752 Q231.1932,190.0315 231.7557,190.3283 L231.7557,193.0471 Q231.1307,192.469 230.537,192.2033 Q229.9432,191.9221 229.3182,191.9221 Q227.9745,191.9221 227.287,193.0002 Q226.5995,194.0627 226.5995,196.1565 Q226.5995,198.2502 227.287,199.3283 Q227.9745,200.3908 229.3182,200.3908 Q229.9432,200.3908 230.537,200.1252 Q231.1307,199.844 231.7557,199.2658 L231.7557,201.9846 Z " fill="#000000"/><text fill="#000000" font-family="sans-serif" font-size="14" lengthAdjust="spacing" textLength="147.0835" x="252.0602" y="194.9659">JobContextHolderImpl</text><text fill="#000000" font-family="sans-serif" font-size="10" lengthAdjust="spacing" textLength="152.6299" x="249.287" y="209.7579">com.hack23.cia.service.impl.task</text><line style="stroke:#181818;stroke-width:0.5;" x1="7" x2="611.7039" y1="217.6879" y2="217.6879"/><ellipse cx="17" cy="232.7219" fill="#84BE84" rx="3" ry="3" style="stroke:#038048;stroke-width:1;"/><text fill="#000000" font-family="sans-serif" font-size="14" lengthAdjust="spacing" textLength="580.7039" x="26" y="236.6538">JobContextHolderImpl(DataAgentApi, SearchIndexer, ViewDataManager, RulesManager)</text><ellipse cx="17" cy="251.7898" fill="#84BE84" rx="3" ry="3" style="stroke:#038048;stroke-width:1;"/><text fill="#000000" font-family="sans-serif" font-size="14" lengthAdjust="spacing" textLength="219.9672" x="26" y="255.7218">getDataAgentApi(): DataAgentApi</text><ellipse cx="17" cy="270.8577" fill="#84BE84" rx="3" ry="3" style="stroke:#038048;stroke-width:1;"/><text fill="#000000" font-family="sans-serif" font-size="14" lengthAdjust="spacing" textLength="172.1713" x="26" y="274.7897">updateSearchIndex(): void</text><ellipse cx="17" cy="289.9256" fill="#84BE84" rx="3" ry="3" style="stroke:#038048;stroke-width:1;"/><text fill="#000000" font-family="sans-serif" font-size="14" lengthAdjust="spacing" textLength="128.7435" x="26" y="293.8576">refreshViews(): void</text><ellipse cx="17" cy="308.9935" fill="#84BE84" rx="3" ry="3" style="stroke:#038048;stroke-width:1;"/><text fill="#000000" font-family="sans-serif" font-size="14" lengthAdjust="spacing" textLength="183.5813" x="26" y="312.9255">updateRuleViolations(): void</text></a></g><!--class com.hack23.cia.service.impl.task.JobContextHolder--><g class="entity" data-entity="com.hack23.cia.service.impl.task.JobContextHolder" data-source-line="21" data-uid="ent0003" id="entity_com.hack23.cia.service.impl.task.JobContextHolder"><a href="JobContextHolder.html" target="_top" title="JobContextHolder.html" xlink:actuate="onRequest" xlink:href="JobContextHolder.html" xlink:show="new" xlink:title="JobContextHolder.html" xlink:type="simple"><rect fill="#F1F1F1" height="126.9596" rx="2.5" ry="2.5" style="stroke:#181818;stroke-width:0.5;" width="231.4632" x="194" y="12"/><ellipse cx="233.7335" cy="33.344" fill="#B4A7E5" rx="11" ry="11" style="stroke:#181818;stroke-width:1;"/><path d="M229.6554,29.1096 L229.6554,26.9533 L237.046,26.9533 L237.046,29.1096 L234.5773,29.1096 L234.5773,37.1877 L237.046,37.1877 L237.046,39.344 L229.6554,39.344 L229.6554,37.1877 L232.1241,37.1877 L232.1241,29.1096 L229.6554,29.1096 Z " fill="#000000"/><text fill="#000000" font-family="sans-serif" font-size="14" font-style="italic" lengthAdjust="spacing" textLength="108.7376" x="271.111" y="31.9659">JobContextHolder</text><text fill="#000000" font-family="sans-serif" font-size="10" font-style="italic" lengthAdjust="spacing" textLength="144.4998" x="253.2298" y="46.7579">com.hack23.cia.service.impl.task</text><line style="stroke:#181818;stroke-width:0.5;" x1="195" x2="424.4632" y1="54.6879" y2="54.6879"/><ellipse cx="205" cy="69.7219" fill="#84BE84" rx="3" ry="3" style="stroke:#038048;stroke-width:1;"/><text fill="#000000" font-family="sans-serif" font-size="14" font-style="italic" lengthAdjust="spacing" textLength="205.4632" x="214" y="73.6538">getDataAgentApi(): DataAgentApi</text><ellipse cx="205" cy="88.7898" fill="#84BE84" rx="3" ry="3" style="stroke:#038048;stroke-width:1;"/><text fill="#000000" font-family="sans-serif" font-size="14" font-style="italic" lengthAdjust="spacing" textLength="161.9094" x="214" y="92.7218">updateSearchIndex(): void</text><ellipse cx="205" cy="107.8577" fill="#84BE84" rx="3" ry="3" style="stroke:#038048;stroke-width:1;"/><text fill="#000000" font-family="sans-serif" font-size="14" font-style="italic" lengthAdjust="spacing" textLength="119.6995" x="214" y="111.7897">refreshViews(): void</text><ellipse cx="205" cy="126.9256" fill="#84BE84" rx="3" ry="3" style="stroke:#038048;stroke-width:1;"/><text fill="#000000" font-family="sans-serif" font-size="14" font-style="italic" lengthAdjust="spacing" textLength="173.1933" x="214" y="130.8576">updateRuleViolations(): void</text></a></g><g class="link" data-entity-1="com.hack23.cia.service.impl.task.JobContextHolder" data-entity-2="com.hack23.cia.service.impl.task.JobContextHolderImpl" data-uid="lnk4" id="link_com.hack23.cia.service.impl.task.JobContextHolder_com.hack23.cia.service.impl.task.JobContextHolderImpl"><polygon fill="none" points="309.5,139.0198,303.5,157.0198,315.5,157.0198,309.5,139.0198" style="stroke:#181818;stroke-width:1;"/><path d="M309.5,157.0198 C309.5,168.7097 309.5,163.0148 309.5,174.9649" fill="none" style="stroke:#181818;stroke-width:1;stroke-dasharray:7,7;"/></g><g class="footer" data-source-line="36"><text fill="#888888" font-family="sans-serif" font-size="10" lengthAdjust="spacing" textLength="2.6" x="304.7" y="325.69">&#160;</text><a href="https://github.com/talsma-ict/umldoclet" target="_top" title="https://github.com/talsma-ict/umldoclet" xlink:actuate="onRequest" xlink:href="https://github.com/talsma-ict/umldoclet" xlink:show="new" xlink:title="https://github.com/talsma-ict/umldoclet" xlink:type="simple"><text fill="#888888" font-family="sans-serif" font-size="10" lengthAdjust="spacing" textLength="76.7199" x="267.64" y="339.31">UMLDoclet 2.2.4</text></a></g><!--SRC=[jLHHJzim47xdLzpOmq2qRXAWi0eXLMKQe29DjF1I-d1DhebLnyvifz0n_lkSf6i3LB1DcbyYttt-xkwxom40V8AUoXQQnua5gy0ctC3DLHzGHX2J98sM8k0fncHWGaB9s5H00injeZIeQNaBbTPaCYKZBcEun3c2KRaEoR2jBIX33N-ptwEfiKyMXV5CXO8ixFHsQoa5djzk1bxGXY4Aao9Sz8PioRP-4x207O3Z5ZmaQHnbBYFIPLhT34FtwLUU1in96wwaU-CjUOfIGoKjScaWGsrDKT8tWT8MkVhCnJzalWSxtK7_UNBUvpAv1dIrn3o2Q_KzNzNx8TCOkvG5BbHkmQHaKMBbCovhYQdJ2qCQa8kAraafbQJId_28WDBCBc3AIKJcfTMH9SgPItieq1ZOFZ7y1tNyWzDBDUcvWkZ1dYlXXBX8Ct4dbsxlD5GfIp2S1ViivCWCwRbJXt67OXRDR1jSUzu3iKr1O3JQP6Q9JSLu38zbjiNPsmJREKEBNJSNjfln1Wm8TPXSk4u-a6x0BQVx0d3bH8mBmtKko2nlkslcc6oTPsUt0_Nx6fXdaHk_MfG2EbSyMaCqJTrC9qLeyzfR4HHft78bqBgnUevwgjh3NPrwwXhzHel-UtisjEPrMnvnOgp6q3xzkOxrD-zBMaU_gUvhslU5_djHJduozc-ZNaKyCNOXw7ILzLGfr-kQeiKvNsIa-rpEUagud_pZyMRlJR6p19VarcGua-H-QM-5VAh2jMhnbh7kv6YKM9kPJgiLSvla4-OAQjboNpPvQ5jvAg9gKRvOcUFnSWL-NUtYOfqrlOEcxm_zmuwtt_5yvXyUjO_tZzh1dXTqF6_q9TSgezR0gd2MA96EVm40]--></g></svg>