<svg xmlns="http://www.w3.org/2000/svg" xmlns:xlink="http://www.w3.org/1999/xlink" contentStyleType="text/css" height="236px" preserveAspectRatio="none" style="width:482px;height:236px;background:#FFFFFF;" version="1.1" viewBox="0 0 482 236" width="482px" zoomAndPan="magnify"><defs/><g><!--class com.hack23.cia.web.impl.ui.application.views.user.committee.pagemode.CommitteeDecisionFlowPageModContentFactoryImpl--><a href="CommitteeDecisionFlowPageModContentFactoryImpl.html" target="_top" title="CommitteeDecisionFlowPageModContentFactoryImpl.html" xlink:actuate="onRequest" xlink:href="CommitteeDecisionFlowPageModContentFactoryImpl.html" xlink:show="new" xlink:title="CommitteeDecisionFlowPageModContentFactoryImpl.html" xlink:type="simple"><g id="elem_com.hack23.cia.web.impl.ui.application.views.user.committee.pagemode.CommitteeDecisionFlowPageModContentFactoryImpl"><rect codeLine="13" fill="#F1F1F1" height="88.8237" id="com.hack23.cia.web.impl.ui.application.views.user.committee.pagemode.CommitteeDecisionFlowPageModContentFactoryImpl" rx="2.5" ry="2.5" style="stroke:#181818;stroke-width:0.5;" width="384.8267" x="46.5" y="118"/><ellipse cx="61.5" cy="139.344" fill="#ADD1B2" rx="11" ry="11" style="stroke:#181818;stroke-width:1.0;"/><path d="M64.4688,144.9846 Q63.8906,145.2815 63.25,145.4221 Q62.6094,145.5783 61.9063,145.5783 Q59.4063,145.5783 58.0781,143.9377 Q56.7656,142.2815 56.7656,139.1565 Q56.7656,136.0315 58.0781,134.3752 Q59.4063,132.719 61.9063,132.719 Q62.6094,132.719 63.25,132.8752 Q63.9063,133.0315 64.4688,133.3283 L64.4688,136.0471 Q63.8438,135.469 63.25,135.2033 Q62.6563,134.9221 62.0313,134.9221 Q60.6875,134.9221 60,136.0002 Q59.3125,137.0627 59.3125,139.1565 Q59.3125,141.2502 60,142.3283 Q60.6875,143.3908 62.0313,143.3908 Q62.6563,143.3908 63.25,143.1252 Q63.8438,142.844 64.4688,142.2658 L64.4688,144.9846 Z " fill="#000000"/><text fill="#000000" font-family="sans-serif" font-size="14" lengthAdjust="spacing" textLength="352.8267" x="75.5" y="137.9659">CommitteeDecisionFlowPageModContentFactoryImpl</text><text fill="#000000" font-family="sans-serif" font-size="10" lengthAdjust="spacing" textLength="342.3897" x="80.7185" y="152.7579">com.hack23.cia.web.impl.ui.application.views.user.committee.pagemode</text><line style="stroke:#181818;stroke-width:0.5;" x1="47.5" x2="430.3267" y1="160.6879" y2="160.6879"/><ellipse cx="57.5" cy="175.7219" fill="#84BE84" rx="3" ry="3" style="stroke:#038048;stroke-width:1.0;"/><text fill="#000000" font-family="sans-serif" font-size="14" lengthAdjust="spacing" textLength="305.4228" x="66.5" y="179.6538">createContent(String, MenuBar, Panel): Layout</text><ellipse cx="57.5" cy="194.7898" fill="#84BE84" rx="3" ry="3" style="stroke:#038048;stroke-width:1.0;"/><text fill="#000000" font-family="sans-serif" font-size="14" lengthAdjust="spacing" textLength="211.5112" x="66.5" y="198.7218">matches(String, String): boolean</text></g></a><!--class com.hack23.cia.web.impl.ui.application.views.common.pagemode.AbstractItemPageModContentFactoryImpl--><a href="../../../common/pagemode/AbstractItemPageModContentFactoryImpl.html" target="_top" title="../../../common/pagemode/AbstractItemPageModContentFactoryImpl.html" xlink:actuate="onRequest" xlink:href="../../../common/pagemode/AbstractItemPageModContentFactoryImpl.html" xlink:show="new" xlink:title="../../../common/pagemode/AbstractItemPageModContentFactoryImpl.html" xlink:type="simple"><g id="elem_com.hack23.cia.web.impl.ui.application.views.common.pagemode.AbstractItemPageModContentFactoryImpl"><rect codeLine="18" fill="#F1F1F1" height="69.7558" id="com.hack23.cia.web.impl.ui.application.views.common.pagemode.AbstractItemPageModContentFactoryImpl" rx="2.5" ry="2.5" style="stroke:#181818;stroke-width:0.5;" width="465.9886" x="6" y="12"/><ellipse cx="21" cy="33.344" fill="#A9DCDF" rx="11" ry="11" style="stroke:#181818;stroke-width:1.0;"/><path d="M21.1094,28.6877 L19.9531,33.7658 L22.2813,33.7658 L21.1094,28.6877 Z M19.625,26.4533 L22.6094,26.4533 L25.9688,38.844 L23.5156,38.844 L22.75,35.7815 L19.4688,35.7815 L18.7188,38.844 L16.2813,38.844 L19.625,26.4533 Z " fill="#000000"/><text fill="#000000" font-family="sans-serif" font-size="14" font-style="italic" lengthAdjust="spacing" textLength="261.057" x="50.9813" y="31.9659">AbstractItemPageModContentFactoryImpl</text><text fill="#000000" font-family="sans-serif" font-size="10" font-style="italic" lengthAdjust="spacing" textLength="293.0197" x="35" y="46.7579">com.hack23.cia.web.impl.ui.application.views.common.pagemode</text><rect fill="#FFFFFF" height="18.3441" style="stroke:#181818;stroke-width:1.0;stroke-dasharray:2.0,2.0;" width="138.9689" x="336.0197" y="9"/><text fill="#000000" font-family="sans-serif" font-size="12" font-style="italic" lengthAdjust="spacing" textLength="136.9689" x="337.0197" y="22.8281">ViewRiksdagenCommittee</text><line style="stroke:#181818;stroke-width:0.5;" x1="7" x2="470.9886" y1="54.6879" y2="54.6879"/><polygon fill="#FFFF44" points="17,64.7219,21,68.7219,17,72.7219,13,68.7219" style="stroke:#B38D22;stroke-width:1.0;"/><text fill="#000000" font-family="sans-serif" font-size="14" font-style="italic" lengthAdjust="spacing" textLength="260.413" x="26" y="73.6538">getItem(String): ViewRiksdagenCommittee</text></g></a><polygon fill="none" points="239,82.0537,233,100.0537,245,100.0537,239,82.0537" style="stroke:#181818;stroke-width:1.0;"/><path d="M239,100.0537 C239,111.2849 239,105.9359 239,117.7854 " fill="none" style="stroke:#181818;stroke-width:1.0;"/><text fill="#888888" font-family="sans-serif" font-size="10" lengthAdjust="spacing" textLength="2.6" x="234.2" y="211.69">&#160;</text><a href="https://github.com/talsma-ict/umldoclet" target="_top" title="https://github.com/talsma-ict/umldoclet" xlink:actuate="onRequest" xlink:href="https://github.com/talsma-ict/umldoclet" xlink:show="new" xlink:title="https://github.com/talsma-ict/umldoclet" xlink:type="simple"><text fill="#888888" font-family="sans-serif" font-size="10" lengthAdjust="spacing" textLength="76.7199" x="197.14" y="225.31">UMLDoclet 2.2.1</text></a><!--SRC=[nLNVJzim47xdhxZ1mq2qJlg3NrLLgIjZOoeIecKlfG-kSpHM7Jkp7QgEyR_lahIb0nvWOfeLARBlxhllxdCk000VeMVIXPNJs8Ctu6FfuFgY3rn7C4MDbdkCG2PyYWucg8oUkj8HWMS-DXRCRR4JnbfqgT6Hr5FunkyuE9DPWOvjRK6HQhX2dtEtWJvPv8UdHYZqiDlRsw1K3sk7rNfOFuGXLoxXSDuRiYNQOqoTrLaD25j9WTeHPAOZj0MjRie5lVgbfG9tQ9qqccB29KvUgZ3QSwaTfDnwbvTqgRZsETSQe_nDTWIxtK7_JsxXIS6j0bshUHR1bVcHhSlza5e-9SQABqpcmINekUQbpH5fpHDg5nSuG4hAFNLI6us5FPOH0YQfNy2jH1MvfwS45XiwBiw5uix1Tjl9dzYgDJizaoJIUyHJ538lzaoP-IKfU66Y7XMAsfznGGaNvqcgRlGoCEm8ax2OYrczmOJaR8uJ9ic3PPBnDANcSazex4xYtB7CeMLYbOgbX9-O2BU1j7qF8FQsCc0qUbi0YtsYncEuBtgOhtrXaIxaqdLtu2tTv0fSeCu-SLk1IwvHxRMWNoZw69PmJrVChGFADpbEZ578TU7vK6h59yvR8l5CjExISEunUNUjykxIvkyrUWB0NiMs_PrYh-JCHUIXr-fqI2h6Wl8fWOCLSF0guEVItQ_w-W0xKooYTzSol4nZKvL_tmje_wfM_yTtKHROTdwXiBFkrwqndWRaOmFpzNMHekrBFUiPHTDev_XbwtK-MvNKIEDSp3JIDGxNdWzbkc0ZtpBNZHwDOkzJrmg2gVHnDicB2tmnrwjI-21BL5GEz2UZVJnUZkelwtz6FdUhORqQDeQrHgjPQpMRB6pKZW-E3Xed-s6j5OQZpvarAGO3RyGiDYeP_mO0]--></g></svg>