<svg xmlns="http://www.w3.org/2000/svg" xmlns:xlink="http://www.w3.org/1999/xlink" contentStyleType="text/css" height="236px" preserveAspectRatio="none" style="width:482px;height:236px;background:#FFFFFF;" version="1.1" viewBox="0 0 482 236" width="482px" zoomAndPan="magnify"><defs/><g><!--class com.hack23.cia.web.impl.ui.application.views.user.committee.pagemode.CommitteeCurrentMembersHistoryPageModContentFactoryImpl--><a href="CommitteeCurrentMembersHistoryPageModContentFactoryImpl.html" target="_top" title="CommitteeCurrentMembersHistoryPageModContentFactoryImpl.html" xlink:actuate="onRequest" xlink:href="CommitteeCurrentMembersHistoryPageModContentFactoryImpl.html" xlink:show="new" xlink:title="CommitteeCurrentMembersHistoryPageModContentFactoryImpl.html" xlink:type="simple"><g id="elem_com.hack23.cia.web.impl.ui.application.views.user.committee.pagemode.CommitteeCurrentMembersHistoryPageModContentFactoryImpl"><rect codeLine="13" fill="#F1F1F1" height="88.8237" id="com.hack23.cia.web.impl.ui.application.views.user.committee.pagemode.CommitteeCurrentMembersHistoryPageModContentFactoryImpl" rx="2.5" ry="2.5" style="stroke:#181818;stroke-width:0.5;" width="459.0685" x="9.5" y="118"/><ellipse cx="24.5" cy="139.344" fill="#ADD1B2" rx="11" ry="11" style="stroke:#181818;stroke-width:1.0;"/><path d="M27.4688,144.9846 Q26.8906,145.2815 26.25,145.4221 Q25.6094,145.5783 24.9063,145.5783 Q22.4063,145.5783 21.0781,143.9377 Q19.7656,142.2815 19.7656,139.1565 Q19.7656,136.0315 21.0781,134.3752 Q22.4063,132.719 24.9063,132.719 Q25.6094,132.719 26.25,132.8752 Q26.9063,133.0315 27.4688,133.3283 L27.4688,136.0471 Q26.8438,135.469 26.25,135.2033 Q25.6563,134.9221 25.0313,134.9221 Q23.6875,134.9221 23,136.0002 Q22.3125,137.0627 22.3125,139.1565 Q22.3125,141.2502 23,142.3283 Q23.6875,143.3908 25.0313,143.3908 Q25.6563,143.3908 26.25,143.1252 Q26.8438,142.844 27.4688,142.2658 L27.4688,144.9846 Z " fill="#000000"/><text fill="#000000" font-family="sans-serif" font-size="14" lengthAdjust="spacing" textLength="427.0685" x="38.5" y="137.9659">CommitteeCurrentMembersHistoryPageModContentFactoryImpl</text><text fill="#000000" font-family="sans-serif" font-size="10" lengthAdjust="spacing" textLength="342.3897" x="80.8394" y="152.7579">com.hack23.cia.web.impl.ui.application.views.user.committee.pagemode</text><line style="stroke:#181818;stroke-width:0.5;" x1="10.5" x2="467.5685" y1="160.6879" y2="160.6879"/><ellipse cx="20.5" cy="175.7219" fill="#84BE84" rx="3" ry="3" style="stroke:#038048;stroke-width:1.0;"/><text fill="#000000" font-family="sans-serif" font-size="14" lengthAdjust="spacing" textLength="305.4228" x="29.5" y="179.6538">createContent(String, MenuBar, Panel): Layout</text><ellipse cx="20.5" cy="194.7898" fill="#84BE84" rx="3" ry="3" style="stroke:#038048;stroke-width:1.0;"/><text fill="#000000" font-family="sans-serif" font-size="14" lengthAdjust="spacing" textLength="211.5112" x="29.5" y="198.7218">matches(String, String): boolean</text></g></a><!--class com.hack23.cia.web.impl.ui.application.views.common.pagemode.AbstractItemPageModContentFactoryImpl--><a href="../../../common/pagemode/AbstractItemPageModContentFactoryImpl.html" target="_top" title="../../../common/pagemode/AbstractItemPageModContentFactoryImpl.html" xlink:actuate="onRequest" xlink:href="../../../common/pagemode/AbstractItemPageModContentFactoryImpl.html" xlink:show="new" xlink:title="../../../common/pagemode/AbstractItemPageModContentFactoryImpl.html" xlink:type="simple"><g id="elem_com.hack23.cia.web.impl.ui.application.views.common.pagemode.AbstractItemPageModContentFactoryImpl"><rect codeLine="18" fill="#F1F1F1" height="69.7558" id="com.hack23.cia.web.impl.ui.application.views.common.pagemode.AbstractItemPageModContentFactoryImpl" rx="2.5" ry="2.5" style="stroke:#181818;stroke-width:0.5;" width="465.9886" x="6" y="12"/><ellipse cx="21" cy="33.344" fill="#A9DCDF" rx="11" ry="11" style="stroke:#181818;stroke-width:1.0;"/><path d="M21.1094,28.6877 L19.9531,33.7658 L22.2813,33.7658 L21.1094,28.6877 Z M19.625,26.4533 L22.6094,26.4533 L25.9688,38.844 L23.5156,38.844 L22.75,35.7815 L19.4688,35.7815 L18.7188,38.844 L16.2813,38.844 L19.625,26.4533 Z " fill="#000000"/><text fill="#000000" font-family="sans-serif" font-size="14" font-style="italic" lengthAdjust="spacing" textLength="261.057" x="50.9813" y="31.9659">AbstractItemPageModContentFactoryImpl</text><text fill="#000000" font-family="sans-serif" font-size="10" font-style="italic" lengthAdjust="spacing" textLength="293.0197" x="35" y="46.7579">com.hack23.cia.web.impl.ui.application.views.common.pagemode</text><rect fill="#FFFFFF" height="18.3441" style="stroke:#181818;stroke-width:1.0;stroke-dasharray:2.0,2.0;" width="138.9689" x="336.0197" y="9"/><text fill="#000000" font-family="sans-serif" font-size="12" font-style="italic" lengthAdjust="spacing" textLength="136.9689" x="337.0197" y="22.8281">ViewRiksdagenCommittee</text><line style="stroke:#181818;stroke-width:0.5;" x1="7" x2="470.9886" y1="54.6879" y2="54.6879"/><polygon fill="#FFFF44" points="17,64.7219,21,68.7219,17,72.7219,13,68.7219" style="stroke:#B38D22;stroke-width:1.0;"/><text fill="#000000" font-family="sans-serif" font-size="14" font-style="italic" lengthAdjust="spacing" textLength="260.413" x="26" y="73.6538">getItem(String): ViewRiksdagenCommittee</text></g></a><polygon fill="none" points="239,82.0537,233,100.0537,245,100.0537,239,82.0537" style="stroke:#181818;stroke-width:1.0;"/><path d="M239,100.0537 C239,111.2849 239,105.9359 239,117.7854 " fill="none" style="stroke:#181818;stroke-width:1.0;"/><text fill="#888888" font-family="sans-serif" font-size="10" lengthAdjust="spacing" textLength="2.6" x="234.2" y="211.69">&#160;</text><a href="https://github.com/talsma-ict/umldoclet" target="_top" title="https://github.com/talsma-ict/umldoclet" xlink:actuate="onRequest" xlink:href="https://github.com/talsma-ict/umldoclet" xlink:show="new" xlink:title="https://github.com/talsma-ict/umldoclet" xlink:type="simple"><text fill="#888888" font-family="sans-serif" font-size="10" lengthAdjust="spacing" textLength="76.7199" x="197.14" y="225.31">UMLDoclet 2.2.1</text></a><!--SRC=[nLLDRzf04BttLqoJGua2QqD82GWXKVgHL215WVH2E2ph2LwntdLtrubecl_UiGs49Zb4KQfQbYpFnvityzPZ080FC33foif5xC4RyB5qS3aQ0jSHB52ZvHuZa0bVe8CvAgCNhWn4u9cFZGLpNRm9OoswrEX8wWLyvpSSdCciGCVUlOEYr6I3VilT3lfybHi_6w7GGsLmi4Ef4TO_rXfXunWcNBc4mzbWmjPe3paDrc1r86mb1Mf7a9cEq1Qq-YaNz1YMdYhSe7NIQCe9rpXvgy9epwLsa7BhNTxIkUBQvrphZEetMGig_V7mRsvXk-1MXRxLF8lWmlpCjks-JorV46F5LoRpu1BqNFFIvuYqvWcDYmiS8nNbdYQfZSR27yi80PFKh-1QeehSOok1nORCXLqexXpiTPtyXPrwipSmIIAzHnna98ds8qpcrFMfT5HaTKvIZamqe8x9zvMBt7YMfEfAhn72dZ09YxbODewOa9pTufn9Yc2PP3nDQShSqmpPZSHRnpA7bebDJPOIVc8Yt0CI-Is0s2lxWUdqbPaizecQpU2k66z-7GgBT5RNePMnjtJ8gp12dNtYjWhdNACwwC2m4FiXBU6UJf_R9fHF2fmRev3h8lA-b97FdRT4uecU_RNZp6FovkhbywQNrwls282zY6tt1-LUoAMBA49lPUgHPem5vLq21nlWu4N0JwMxsypr7lONM6HNjZ8yJsDNbNy_2-Z-hjN-wvTITjfrVgMmjntSjJ6UbkZ39FFhT9MY7Kgz71X56sl_v7dlPRv_bTH8AryiDT9v3hUHzsMvOAVUkjQLdavZxrFN2OA5z74spxiCVB7xQrBu84jKL2xzH-j_Dbklys_R_qg-csjXgrO_cjJ3JjZkDDkisMwrZe-EJyB3iD49m-cNp9eKWx4tOXaRbSp-0000]--></g></svg>