<svg xmlns="http://www.w3.org/2000/svg" xmlns:xlink="http://www.w3.org/1999/xlink" contentStyleType="text/css" height="236px" preserveAspectRatio="none" style="width:482px;height:236px;background:#FFFFFF;" version="1.1" viewBox="0 0 482 236" width="482px" zoomAndPan="magnify"><defs/><g><!--class com.hack23.cia.web.impl.ui.application.views.user.committee.pagemode.CommitteePageVisitHistoryPageModContentFactoryImpl--><a href="CommitteePageVisitHistoryPageModContentFactoryImpl.html" target="_top" title="CommitteePageVisitHistoryPageModContentFactoryImpl.html" xlink:actuate="onRequest" xlink:href="CommitteePageVisitHistoryPageModContentFactoryImpl.html" xlink:show="new" xlink:title="CommitteePageVisitHistoryPageModContentFactoryImpl.html" xlink:type="simple"><g id="elem_com.hack23.cia.web.impl.ui.application.views.user.committee.pagemode.CommitteePageVisitHistoryPageModContentFactoryImpl"><rect codeLine="13" fill="#F1F1F1" height="88.8237" id="com.hack23.cia.web.impl.ui.application.views.user.committee.pagemode.CommitteePageVisitHistoryPageModContentFactoryImpl" rx="2.5" ry="2.5" style="stroke:#181818;stroke-width:0.5;" width="405.9387" x="36" y="118"/><ellipse cx="51" cy="139.344" fill="#ADD1B2" rx="11" ry="11" style="stroke:#181818;stroke-width:1.0;"/><path d="M53.9688,144.9846 Q53.3906,145.2815 52.75,145.4221 Q52.1094,145.5783 51.4063,145.5783 Q48.9063,145.5783 47.5781,143.9377 Q46.2656,142.2815 46.2656,139.1565 Q46.2656,136.0315 47.5781,134.3752 Q48.9063,132.719 51.4063,132.719 Q52.1094,132.719 52.75,132.8752 Q53.4063,133.0315 53.9688,133.3283 L53.9688,136.0471 Q53.3438,135.469 52.75,135.2033 Q52.1563,134.9221 51.5313,134.9221 Q50.1875,134.9221 49.5,136.0002 Q48.8125,137.0627 48.8125,139.1565 Q48.8125,141.2502 49.5,142.3283 Q50.1875,143.3908 51.5313,143.3908 Q52.1563,143.3908 52.75,143.1252 Q53.3438,142.844 53.9688,142.2658 L53.9688,144.9846 Z " fill="#000000"/><text fill="#000000" font-family="sans-serif" font-size="14" lengthAdjust="spacing" textLength="373.9387" x="65" y="137.9659">CommitteePageVisitHistoryPageModContentFactoryImpl</text><text fill="#000000" font-family="sans-serif" font-size="10" lengthAdjust="spacing" textLength="342.3897" x="80.7745" y="152.7579">com.hack23.cia.web.impl.ui.application.views.user.committee.pagemode</text><line style="stroke:#181818;stroke-width:0.5;" x1="37" x2="440.9387" y1="160.6879" y2="160.6879"/><ellipse cx="47" cy="175.7219" fill="#84BE84" rx="3" ry="3" style="stroke:#038048;stroke-width:1.0;"/><text fill="#000000" font-family="sans-serif" font-size="14" lengthAdjust="spacing" textLength="305.4228" x="56" y="179.6538">createContent(String, MenuBar, Panel): Layout</text><ellipse cx="47" cy="194.7898" fill="#84BE84" rx="3" ry="3" style="stroke:#038048;stroke-width:1.0;"/><text fill="#000000" font-family="sans-serif" font-size="14" lengthAdjust="spacing" textLength="211.5112" x="56" y="198.7218">matches(String, String): boolean</text></g></a><!--class com.hack23.cia.web.impl.ui.application.views.common.pagemode.AbstractItemPageModContentFactoryImpl--><a href="../../../common/pagemode/AbstractItemPageModContentFactoryImpl.html" target="_top" title="../../../common/pagemode/AbstractItemPageModContentFactoryImpl.html" xlink:actuate="onRequest" xlink:href="../../../common/pagemode/AbstractItemPageModContentFactoryImpl.html" xlink:show="new" xlink:title="../../../common/pagemode/AbstractItemPageModContentFactoryImpl.html" xlink:type="simple"><g id="elem_com.hack23.cia.web.impl.ui.application.views.common.pagemode.AbstractItemPageModContentFactoryImpl"><rect codeLine="18" fill="#F1F1F1" height="69.7558" id="com.hack23.cia.web.impl.ui.application.views.common.pagemode.AbstractItemPageModContentFactoryImpl" rx="2.5" ry="2.5" style="stroke:#181818;stroke-width:0.5;" width="465.9886" x="6" y="12"/><ellipse cx="21" cy="33.344" fill="#A9DCDF" rx="11" ry="11" style="stroke:#181818;stroke-width:1.0;"/><path d="M21.1094,28.6877 L19.9531,33.7658 L22.2813,33.7658 L21.1094,28.6877 Z M19.625,26.4533 L22.6094,26.4533 L25.9688,38.844 L23.5156,38.844 L22.75,35.7815 L19.4688,35.7815 L18.7188,38.844 L16.2813,38.844 L19.625,26.4533 Z " fill="#000000"/><text fill="#000000" font-family="sans-serif" font-size="14" font-style="italic" lengthAdjust="spacing" textLength="261.057" x="50.9813" y="31.9659">AbstractItemPageModContentFactoryImpl</text><text fill="#000000" font-family="sans-serif" font-size="10" font-style="italic" lengthAdjust="spacing" textLength="293.0197" x="35" y="46.7579">com.hack23.cia.web.impl.ui.application.views.common.pagemode</text><rect fill="#FFFFFF" height="18.3441" style="stroke:#181818;stroke-width:1.0;stroke-dasharray:2.0,2.0;" width="138.9689" x="336.0197" y="9"/><text fill="#000000" font-family="sans-serif" font-size="12" font-style="italic" lengthAdjust="spacing" textLength="136.9689" x="337.0197" y="22.8281">ViewRiksdagenCommittee</text><line style="stroke:#181818;stroke-width:0.5;" x1="7" x2="470.9886" y1="54.6879" y2="54.6879"/><polygon fill="#FFFF44" points="17,64.7219,21,68.7219,17,72.7219,13,68.7219" style="stroke:#B38D22;stroke-width:1.0;"/><text fill="#000000" font-family="sans-serif" font-size="14" font-style="italic" lengthAdjust="spacing" textLength="260.413" x="26" y="73.6538">getItem(String): ViewRiksdagenCommittee</text></g></a><polygon fill="none" points="239,82.0537,233,100.0537,245,100.0537,239,82.0537" style="stroke:#181818;stroke-width:1.0;"/><path d="M239,100.0537 C239,111.2849 239,105.9359 239,117.7854 " fill="none" style="stroke:#181818;stroke-width:1.0;"/><text fill="#888888" font-family="sans-serif" font-size="10" lengthAdjust="spacing" textLength="2.6" x="234.2" y="211.69">&#160;</text><a href="https://github.com/talsma-ict/umldoclet" target="_top" title="https://github.com/talsma-ict/umldoclet" xlink:actuate="onRequest" xlink:href="https://github.com/talsma-ict/umldoclet" xlink:show="new" xlink:title="https://github.com/talsma-ict/umldoclet" xlink:type="simple"><text fill="#888888" font-family="sans-serif" font-size="10" lengthAdjust="spacing" textLength="76.7199" x="197.14" y="225.31">UMLDoclet 2.2.1</text></a><!--SRC=[nLLDJzj04BtpAwPmQ139saaiQACeKff-G1KaH0ANaCDcFSIhh7VTtJKefVptZkqafC01AgfQaQoTZpTlvgqd003lOM2ofPNpn8Ctu1FfuE9q25p7C4UDbdkCGQPyZWvcg8oUkoeGWUS-CHRCTNaInbfqcT6nr7FupcyuE9DRWOxjx41PQhn6l-Lk2tssB8oVZL3eeJROtwBK2fk7ZLROEeGnLoxbS38OinNQGqwBjLWJ25j9WTeHPAvZj2MjViO5lOQLfmutQ9qqcdB25KxHgZ3QSwaTPDnwLxHqfhZs1TSce_eHEu9QVpJyarluiUHMXxxLF8_XtFp8D-s-oooV4sF5boRtu5BqNFFAvuYqvYcDYmiS8HNbdYQfZSRIdyWO0TFCB-5QeehTOok19ORCfLqexXpiTftyYPrcr1kOD9NU8vwHQfVIINyi7U4lY_EfYGVKB6h_bOl2U99cwaglaiEUC2bBk5Yqsan8pcvnnYH5i5modcKqOEvfVEn6ugrZkKFBnBeSomW_DJ7k0kdx5a3izQt0PFBw99RuL4sdS5VEitWEX4MwdAlGsiXRkjLrE4MTV-As3cTSezhlmB1Kzo4jvPwkcziaL6yAd1cZaEioyhxIZS-SjqJYYO3zbUF4O_hccXLJfiFVQ_K8WBs8RVUISi_bmiKKeJSAzKWkneBgLm47Q-3WHS1FfRjRp_KUzkPOPjSsCZnFOrkLVpyBwFvgDFxNzr4rsNL-gR2tcTcrCPuMviCGY-TucQ4TIhqO64NRQU_3yzwBOjSggP7MkrXefAiSRYBlgtB1LhrLhIizcIJUPwuJ17FfatnMD1ZuSiytfF11dgguMl2FLlrqkbhTtpR_8SKUReIjHjWUDzkTgDc98XOUXSse7KNHGTZiXE7aIsvDXi786x58Z4gdlm40]--></g></svg>