<svg xmlns="http://www.w3.org/2000/svg" xmlns:xlink="http://www.w3.org/1999/xlink" contentStyleType="text/css" height="163px" preserveAspectRatio="none" style="width:1890px;height:163px;background:#FFFFFF;" version="1.1" viewBox="0 0 1890 163" width="1890px" zoomAndPan="magnify"><defs/><g><!--class com.hack23.cia.web.impl.ui.application.views.user.committee.pagemode.CommitteeViewConstants--><a href="CommitteeViewConstants.html" target="_top" title="CommitteeViewConstants.html" xlink:actuate="onRequest" xlink:href="CommitteeViewConstants.html" xlink:show="new" xlink:title="CommitteeViewConstants.html" xlink:type="simple"><g id="elem_com.hack23.cia.web.impl.ui.application.views.user.committee.pagemode.CommitteeViewConstants"><rect codeLine="13" fill="#F1F1F1" height="42.6879" id="com.hack23.cia.web.impl.ui.application.views.user.committee.pagemode.CommitteeViewConstants" rx="2.5" ry="2.5" style="stroke:#181818;stroke-width:0.5;" width="354.4396" x="750" y="91"/><ellipse cx="765" cy="112.344" fill="#B4A7E5" rx="11" ry="11" style="stroke:#181818;stroke-width:1.0;"/><path d="M760.9219,108.1096 L760.9219,105.9533 L768.3125,105.9533 L768.3125,108.1096 L765.8438,108.1096 L765.8438,116.1877 L768.3125,116.1877 L768.3125,118.344 L760.9219,118.344 L760.9219,116.1877 L763.3906,116.1877 L763.3906,108.1096 L760.9219,108.1096 Z " fill="#000000"/><text fill="#000000" font-family="sans-serif" font-size="14" font-style="italic" lengthAdjust="spacing" textLength="157.5834" x="861.4281" y="110.9659">CommitteeViewConstants</text><text fill="#000000" font-family="sans-serif" font-size="10" font-style="italic" lengthAdjust="spacing" textLength="322.4396" x="779" y="125.7579">com.hack23.cia.web.impl.ui.application.views.user.committee.pagemode</text></g></a><!--class com.hack23.cia.web.impl.ui.application.views.user.committee.pagemode.CommitteePageTitleConstants--><a href="CommitteePageTitleConstants.html" target="_top" title="CommitteePageTitleConstants.html" xlink:actuate="onRequest" xlink:href="CommitteePageTitleConstants.html" xlink:show="new" xlink:title="CommitteePageTitleConstants.html" xlink:type="simple"><g id="elem_com.hack23.cia.web.impl.ui.application.views.user.committee.pagemode.CommitteePageTitleConstants"><rect codeLine="15" fill="#F1F1F1" height="42.6879" id="com.hack23.cia.web.impl.ui.application.views.user.committee.pagemode.CommitteePageTitleConstants" rx="2.5" ry="2.5" style="stroke:#181818;stroke-width:0.5;" width="354.4396" x="6" y="12"/><ellipse cx="21" cy="33.344" fill="#B4A7E5" rx="11" ry="11" style="stroke:#181818;stroke-width:1.0;"/><path d="M16.9219,29.1096 L16.9219,26.9533 L24.3125,26.9533 L24.3125,29.1096 L21.8438,29.1096 L21.8438,37.1877 L24.3125,37.1877 L24.3125,39.344 L16.9219,39.344 L16.9219,37.1877 L19.3906,37.1877 L19.3906,29.1096 L16.9219,29.1096 Z " fill="#000000"/><text fill="#000000" font-family="sans-serif" font-size="14" font-style="italic" lengthAdjust="spacing" textLength="185.9893" x="103.2252" y="31.9659">CommitteePageTitleConstants</text><text fill="#000000" font-family="sans-serif" font-size="10" font-style="italic" lengthAdjust="spacing" textLength="322.4396" x="35" y="46.7579">com.hack23.cia.web.impl.ui.application.views.user.committee.pagemode</text></g></a><!--class com.hack23.cia.web.impl.ui.application.views.user.committee.pagemode.CommitteeSectionConstants--><a href="CommitteeSectionConstants.html" target="_top" title="CommitteeSectionConstants.html" xlink:actuate="onRequest" xlink:href="CommitteeSectionConstants.html" xlink:show="new" xlink:title="CommitteeSectionConstants.html" xlink:type="simple"><g id="elem_com.hack23.cia.web.impl.ui.application.views.user.committee.pagemode.CommitteeSectionConstants"><rect codeLine="16" fill="#F1F1F1" height="42.6879" id="com.hack23.cia.web.impl.ui.application.views.user.committee.pagemode.CommitteeSectionConstants" rx="2.5" ry="2.5" style="stroke:#181818;stroke-width:0.5;" width="354.4396" x="378" y="12"/><ellipse cx="393" cy="33.344" fill="#B4A7E5" rx="11" ry="11" style="stroke:#181818;stroke-width:1.0;"/><path d="M388.9219,29.1096 L388.9219,26.9533 L396.3125,26.9533 L396.3125,29.1096 L393.8438,29.1096 L393.8438,37.1877 L396.3125,37.1877 L396.3125,39.344 L388.9219,39.344 L388.9219,37.1877 L391.3906,37.1877 L391.3906,29.1096 L388.9219,29.1096 Z " fill="#000000"/><text fill="#000000" font-family="sans-serif" font-size="14" font-style="italic" lengthAdjust="spacing" textLength="173.7814" x="481.3291" y="31.9659">CommitteeSectionConstants</text><text fill="#000000" font-family="sans-serif" font-size="10" font-style="italic" lengthAdjust="spacing" textLength="322.4396" x="407" y="46.7579">com.hack23.cia.web.impl.ui.application.views.user.committee.pagemode</text></g></a><!--class com.hack23.cia.web.impl.ui.application.views.user.committee.pagemode.CommitteeActionConstants--><a href="CommitteeActionConstants.html" target="_top" title="CommitteeActionConstants.html" xlink:actuate="onRequest" xlink:href="CommitteeActionConstants.html" xlink:show="new" xlink:title="CommitteeActionConstants.html" xlink:type="simple"><g id="elem_com.hack23.cia.web.impl.ui.application.views.user.committee.pagemode.CommitteeActionConstants"><rect codeLine="17" fill="#F1F1F1" height="42.6879" id="com.hack23.cia.web.impl.ui.application.views.user.committee.pagemode.CommitteeActionConstants" rx="2.5" ry="2.5" style="stroke:#181818;stroke-width:0.5;" width="354.4396" x="750" y="12"/><ellipse cx="765" cy="33.344" fill="#B4A7E5" rx="11" ry="11" style="stroke:#181818;stroke-width:1.0;"/><path d="M760.9219,29.1096 L760.9219,26.9533 L768.3125,26.9533 L768.3125,29.1096 L765.8438,29.1096 L765.8438,37.1877 L768.3125,37.1877 L768.3125,39.344 L760.9219,39.344 L760.9219,37.1877 L763.3906,37.1877 L763.3906,29.1096 L760.9219,29.1096 Z " fill="#000000"/><text fill="#000000" font-family="sans-serif" font-size="14" font-style="italic" lengthAdjust="spacing" textLength="167.5934" x="856.4231" y="31.9659">CommitteeActionConstants</text><text fill="#000000" font-family="sans-serif" font-size="10" font-style="italic" lengthAdjust="spacing" textLength="322.4396" x="779" y="46.7579">com.hack23.cia.web.impl.ui.application.views.user.committee.pagemode</text></g></a><!--class com.hack23.cia.web.impl.ui.application.views.user.committee.pagemode.CommitteeGridConstants--><a href="CommitteeGridConstants.html" target="_top" title="CommitteeGridConstants.html" xlink:actuate="onRequest" xlink:href="CommitteeGridConstants.html" xlink:show="new" xlink:title="CommitteeGridConstants.html" xlink:type="simple"><g id="elem_com.hack23.cia.web.impl.ui.application.views.user.committee.pagemode.CommitteeGridConstants"><rect codeLine="18" fill="#F1F1F1" height="42.6879" id="com.hack23.cia.web.impl.ui.application.views.user.committee.pagemode.CommitteeGridConstants" rx="2.5" ry="2.5" style="stroke:#181818;stroke-width:0.5;" width="354.4396" x="1122" y="12"/><ellipse cx="1137" cy="33.344" fill="#B4A7E5" rx="11" ry="11" style="stroke:#181818;stroke-width:1.0;"/><path d="M1132.9219,29.1096 L1132.9219,26.9533 L1140.3125,26.9533 L1140.3125,29.1096 L1137.8438,29.1096 L1137.8438,37.1877 L1140.3125,37.1877 L1140.3125,39.344 L1132.9219,39.344 L1132.9219,37.1877 L1135.3906,37.1877 L1135.3906,29.1096 L1132.9219,29.1096 Z " fill="#000000"/><text fill="#000000" font-family="sans-serif" font-size="14" font-style="italic" lengthAdjust="spacing" textLength="155.9174" x="1234.2611" y="31.9659">CommitteeGridConstants</text><text fill="#000000" font-family="sans-serif" font-size="10" font-style="italic" lengthAdjust="spacing" textLength="322.4396" x="1151" y="46.7579">com.hack23.cia.web.impl.ui.application.views.user.committee.pagemode</text></g></a><!--class com.hack23.cia.web.impl.ui.application.views.user.committeeranking.pagemode.CommitteeRankingConstants--><a href="../../committeeranking/pagemode/CommitteeRankingConstants.html" target="_top" title="../../committeeranking/pagemode/CommitteeRankingConstants.html" xlink:actuate="onRequest" xlink:href="../../committeeranking/pagemode/CommitteeRankingConstants.html" xlink:show="new" xlink:title="../../committeeranking/pagemode/CommitteeRankingConstants.html" xlink:type="simple"><g id="elem_com.hack23.cia.web.impl.ui.application.views.user.committeeranking.pagemode.CommitteeRankingConstants"><rect codeLine="19" fill="#F1F1F1" height="42.6879" id="com.hack23.cia.web.impl.ui.application.views.user.committeeranking.pagemode.CommitteeRankingConstants" rx="2.5" ry="2.5" style="stroke:#181818;stroke-width:0.5;" width="388.9996" x="1494.5" y="12"/><ellipse cx="1509.5" cy="33.344" fill="#B4A7E5" rx="11" ry="11" style="stroke:#181818;stroke-width:1.0;"/><path d="M1505.4219,29.1096 L1505.4219,26.9533 L1512.8125,26.9533 L1512.8125,29.1096 L1510.3438,29.1096 L1510.3438,37.1877 L1512.8125,37.1877 L1512.8125,39.344 L1505.4219,39.344 L1505.4219,37.1877 L1507.8906,37.1877 L1507.8906,29.1096 L1505.4219,29.1096 Z " fill="#000000"/><text fill="#000000" font-family="sans-serif" font-size="14" font-style="italic" lengthAdjust="spacing" textLength="179.9693" x="1612.0151" y="31.9659">CommitteeRankingConstants</text><text fill="#000000" font-family="sans-serif" font-size="10" font-style="italic" lengthAdjust="spacing" textLength="356.9996" x="1523.5" y="46.7579">com.hack23.cia.web.impl.ui.application.views.user.committeeranking.pagemode</text></g></a><polygon fill="none" points="360.2061,54.0672,377.4702,61.9381,378.7399,50.0054,360.2061,54.0672" style="stroke:#181818;stroke-width:1.0;"/><path d="M378.1051,55.9717 C505.4373,69.4349 640.0837,83.0031 749.7885,93.9611 " fill="none" style="stroke:#181818;stroke-width:1.0;"/><polygon fill="none" points="654.2005,55.0334,670.6107,64.5574,673.043,52.8065,654.2005,55.0334" style="stroke:#181818;stroke-width:1.0;"/><path d="M671.8269,58.6819 C725.5276,69.7974 774.0453,79.84 827.7532,90.957 " fill="none" style="stroke:#181818;stroke-width:1.0;"/><polygon fill="none" points="927,55.1346,921,73.1346,933,73.1346,927,55.1346" style="stroke:#181818;stroke-width:1.0;"/><path d="M927,73.1346 C927,84.1824 927,79.752 927,90.8085 " fill="none" style="stroke:#181818;stroke-width:1.0;"/><polygon fill="none" points="1199.7995,55.0334,1180.957,52.8065,1183.3893,64.5574,1199.7995,55.0334" style="stroke:#181818;stroke-width:1.0;"/><path d="M1182.1731,58.6819 C1128.4724,69.7974 1079.9547,79.84 1026.2468,90.957 " fill="none" style="stroke:#181818;stroke-width:1.0;"/><polygon fill="none" points="1494.2498,54.1795,1475.7378,50.0196,1476.9442,61.9588,1494.2498,54.1795" style="stroke:#181818;stroke-width:1.0;"/><path d="M1476.341,55.9892 C1356.072,68.1423 1220.873,81.8042 1104.0443,93.6097 " fill="none" style="stroke:#181818;stroke-width:1.0;"/><text fill="#888888" font-family="sans-serif" font-size="10" lengthAdjust="spacing" textLength="2.6" x="939.95" y="138.69">&#160;</text><a href="https://github.com/talsma-ict/umldoclet" target="_top" title="https://github.com/talsma-ict/umldoclet" xlink:actuate="onRequest" xlink:href="https://github.com/talsma-ict/umldoclet" xlink:show="new" xlink:title="https://github.com/talsma-ict/umldoclet" xlink:type="simple"><text fill="#888888" font-family="sans-serif" font-size="10" lengthAdjust="spacing" textLength="76.7199" x="902.89" y="152.31">UMLDoclet 2.2.1</text></a><!--SRC=[rLTTRzem57tlhxZh7jffnN5IshMegXIngTt4fAhGlT0-6EUIM3XsPZjKxEE_pmaV0zfgtLIa4I41z_gUUyu1RYu007lGriN4Y3Hpu3IuJ5Yu-Tm1fX98KQ5X3XCGEKlHmW2bLgcT7aHWfSkq0Jsitt5j3Df2gqIe53wnCGEhIyFHafqTg5lrvkZtp2wX3oPLyBtc4XtijzyiKOfeUDo8Q7GCFIPjpk1ZkqTcQBzh8XAH43os51oLzP2bIj3KjEA2SV_KcMOEO8p62gry3PtXL5AvLeu9PQ5WnjbAqfLaobLSG-BxDyaxs8-xdLLkzBJcTW2nKQnCu5f_BHToNnM6fPwnP1DTEh0vEgROD6SzQSLoRnVZs4NVb3dlfD8Awtmc4WJC2pU1eK2PsFMe1ykq3zTneHoQeKU2tJChlc4hR9wtTPuBvn2_2BnlQsLzSsTlrUm0FUSw9ndZe-YGSC78FGw8o0j9Ia5OKNWZcVCsaR4ljwIqQ0YVGvB2VnjodU0k-C_n9O38utIXttyyGJANoxkxPyY_yXrwmadS8WyUSbusuc5sxiOVpUWYhtXiaHNhZ9UDMCyzsuPusro8dpOX_aSFBen8jiY15RhB-bSIprP_pTJ8twLUs00pHNqn7zRno9FylIE41FwnNXlCQuCdQrTcwSO7sTcFHcEJjumDg7WmWxPGGxpz4bP7mFyku2z-knkNKcivisuYyRn-NLr3hVs0XE-BG7LTJWeq7Q56RItzFlhwvF7iJRLTIw7GB_HyfD1Qe8kJFwVjWgL-irwtgj_Fd2jiAmXIuR9oK8a8NBtPDmHtGPdBPBhIhottiw6-1nUBVmtLvjsWKOCUziB3LZDiDPk4HaSXFQKdHszfsAAq_w4qki2WwpGVPLhcTxy0]--></g></svg>