<?xml version="1.0" encoding="UTF-8" standalone="no"?><svg xmlns="http://www.w3.org/2000/svg" xmlns:xlink="http://www.w3.org/1999/xlink" contentStyleType="text/css" height="217px" preserveAspectRatio="none" style="width:355px;height:217px;background:#FFFFFF;" version="1.1" viewBox="0 0 355 217" width="355px" zoomAndPan="magnify"><defs/><g><!--MD5=[d116ca9e260c49700e07f7a6d8007a5a]
class com.hack23.cia.web.impl.ui.application.views.admin.system.AdminUseraccountView--><a href="AdminUseraccountView.html" target="_top" title="AdminUseraccountView.html" xlink:actuate="onRequest" xlink:href="AdminUseraccountView.html" xlink:show="new" xlink:title="AdminUseraccountView.html" xlink:type="simple"><g id="elem_com.hack23.cia.web.impl.ui.application.views.admin.system.AdminUseraccountView"><rect codeLine="5" fill="#F1F1F1" height="86.5313" id="com.hack23.cia.web.impl.ui.application.views.admin.system.AdminUseraccountView" rx="2.5" ry="2.5" style="stroke:#181818;stroke-width:0.5;" width="328" x="13.5" y="105"/><ellipse cx="32.55" cy="123.9688" fill="#ADD1B2" rx="11" ry="11" style="stroke:#181818;stroke-width:1.0;"/><path d="M35.5188,129.6094 Q34.9406,129.9063 34.3,130.0469 Q33.6594,130.2031 32.9563,130.2031 Q30.4562,130.2031 29.1281,128.5625 Q27.8156,126.9063 27.8156,123.7813 Q27.8156,120.6563 29.1281,119 Q30.4562,117.3438 32.9563,117.3438 Q33.6594,117.3438 34.3,117.5 Q34.9563,117.6563 35.5188,117.9531 L35.5188,120.6719 Q34.8938,120.0938 34.3,119.8281 Q33.7063,119.5469 33.0813,119.5469 Q31.7375,119.5469 31.05,120.625 Q30.3625,121.6875 30.3625,123.7813 Q30.3625,125.875 31.05,126.9531 Q31.7375,128.0156 33.0813,128.0156 Q33.7063,128.0156 34.3,127.75 Q34.8938,127.4688 35.5188,126.8906 L35.5188,129.6094 Z " fill="#000000"/><text fill="#000000" font-family="sans-serif" font-size="14" lengthAdjust="spacing" textLength="163" x="109.45" y="122.9951">AdminUseraccountView</text><text fill="#000000" font-family="sans-serif" font-size="10" lengthAdjust="spacing" textLength="287" x="47.45" y="135.5791">com.hack23.cia.web.impl.ui.application.views.admin.system</text><line style="stroke:#181818;stroke-width:0.5;" x1="14.5" x2="340.5" y1="142.9375" y2="142.9375"/><ellipse cx="24.5" cy="153.9375" fill="none" rx="3" ry="3" style="stroke:#038048;stroke-width:1.0;"/><text fill="#000000" font-family="sans-serif" font-size="14" lengthAdjust="spacing" text-decoration="underline" textLength="89" x="33.5" y="159.9326">NAME: String</text><line style="stroke:#181818;stroke-width:0.5;" x1="14.5" x2="340.5" y1="167.2344" y2="167.2344"/><ellipse cx="24.5" cy="178.2344" fill="#84BE84" rx="3" ry="3" style="stroke:#038048;stroke-width:1.0;"/><text fill="#000000" font-family="sans-serif" font-size="14" lengthAdjust="spacing" textLength="302" x="33.5" y="184.2295">AdminUseraccountView(ApplicationContext)</text></g></a><!--MD5=[b628d671c4eff2c1215f9ca2bed664d9]
class com.hack23.cia.web.impl.ui.application.views.admin.common.AbstractAdminView--><a href="../common/AbstractAdminView.html" target="_top" title="../common/AbstractAdminView.html" xlink:actuate="onRequest" xlink:href="../common/AbstractAdminView.html" xlink:show="new" xlink:title="../common/AbstractAdminView.html" xlink:type="simple"><g id="elem_com.hack23.cia.web.impl.ui.application.views.admin.common.AbstractAdminView"><rect codeLine="10" fill="#F1F1F1" height="37.9375" id="com.hack23.cia.web.impl.ui.application.views.admin.common.AbstractAdminView" rx="2.5" ry="2.5" style="stroke:#181818;stroke-width:0.5;" width="341" x="7" y="7"/><ellipse cx="22" cy="25.9688" fill="#A9DCDF" rx="11" ry="11" style="stroke:#181818;stroke-width:1.0;"/><path d="M22.1094,21.3125 L20.9531,26.3906 L23.2813,26.3906 L22.1094,21.3125 Z M20.625,19.0781 L23.6094,19.0781 L26.9688,31.4688 L24.5156,31.4688 L23.75,28.4063 L20.4688,28.4063 L19.7188,31.4688 L17.2813,31.4688 L20.625,19.0781 Z " fill="#000000"/><text fill="#000000" font-family="sans-serif" font-size="14" font-style="italic" lengthAdjust="spacing" textLength="134" x="123.5" y="24.9951">AbstractAdminView</text><text fill="#000000" font-family="sans-serif" font-size="10" font-style="italic" lengthAdjust="spacing" textLength="309" x="36" y="37.5791">com.hack23.cia.web.impl.ui.application.views.admin.common</text></g></a><!--MD5=[38f004a64f017d2760e69b34bfd9fff4]
reverse link com.hack23.cia.web.impl.ui.application.views.admin.common.AbstractAdminView to com.hack23.cia.web.impl.ui.application.views.admin.system.AdminUseraccountView--><g id="link_com.hack23.cia.web.impl.ui.application.views.admin.common.AbstractAdminView_com.hack23.cia.web.impl.ui.application.views.admin.system.AdminUseraccountView"><path codeLine="12" d="M177.5,65.47 C177.5,78 177.5,91.99 177.5,104.81 " fill="none" id="com.hack23.cia.web.impl.ui.application.views.admin.common.AbstractAdminView-backto-com.hack23.cia.web.impl.ui.application.views.admin.system.AdminUseraccountView" style="stroke:#181818;stroke-width:1.0;"/><polygon fill="none" points="170.5,65.04,177.5,45.04,184.5,65.04,170.5,65.04" style="stroke:#181818;stroke-width:1.0;"/></g><rect height="11.6406" style="stroke:#00000000;stroke-width:1.0;fill:none;" width="186" x="77.5" y="197.5313"/><text fill="#888888" font-family="sans-serif" font-size="10" lengthAdjust="spacing" textLength="186" x="77.5" y="206.8135">UMLDoclet 2.0.18, PlantUML 1.2022.6</text><!--MD5=[5d09fb721c5cbba30e9a0ff460afe47a]
@startuml
    set namespaceSeparator none
    hide empty fields
    hide empty methods

    class "<size:14>AdminUseraccountView\n<size:10>com.hack23.cia.web.impl.ui.application.views.admin.system" as com.hack23.cia.web.impl.ui.application.views.admin.system.AdminUseraccountView [[AdminUseraccountView.html]] {
        {static} +NAME: String
        +AdminUseraccountView(ApplicationContext)
    }

    abstract class "<size:14>AbstractAdminView\n<size:10>com.hack23.cia.web.impl.ui.application.views.admin.common" as com.hack23.cia.web.impl.ui.application.views.admin.common.AbstractAdminView [[../common/AbstractAdminView.html]]

    com.hack23.cia.web.impl.ui.application.views.admin.common.AbstractAdminView <|- - com.hack23.cia.web.impl.ui.application.views.admin.system.AdminUseraccountView

    center footer UMLDoclet 2.0.18, PlantUML 1.2022.6
@enduml

PlantUML version 1.2022.6(Tue Jun 21 19:34:49 CEST 2022)
(APACHE source distribution)
Java Runtime: OpenJDK Runtime Environment
JVM: OpenJDK 64-Bit Server VM
Default Encoding: ANSI_X3.4-1968
Language: en
Country: US
--></g></svg>