<?xml version="1.0" encoding="UTF-8" standalone="no"?><svg xmlns="http://www.w3.org/2000/svg" xmlns:xlink="http://www.w3.org/1999/xlink" contentStyleType="text/css" height="217px" preserveAspectRatio="none" style="width:421px;height:217px;background:#FFFFFF;" version="1.1" viewBox="0 0 421 217" width="421px" zoomAndPan="magnify"><defs/><g><!--MD5=[517795b787bc681269a4b573bacb0301]
class com.hack23.cia.web.impl.ui.application.views.admin.system.AdminApplicationConfigurationView--><a href="AdminApplicationConfigurationView.html" target="_top" title="AdminApplicationConfigurationView.html" xlink:actuate="onRequest" xlink:href="AdminApplicationConfigurationView.html" xlink:show="new" xlink:title="AdminApplicationConfigurationView.html" xlink:type="simple"><g id="elem_com.hack23.cia.web.impl.ui.application.views.admin.system.AdminApplicationConfigurationView"><rect codeLine="5" fill="#F1F1F1" height="86.5313" id="com.hack23.cia.web.impl.ui.application.views.admin.system.AdminApplicationConfigurationView" rx="2.5" ry="2.5" style="stroke:#181818;stroke-width:0.5;" width="407" x="7" y="105"/><ellipse cx="62.75" cy="123.9688" fill="#ADD1B2" rx="11" ry="11" style="stroke:#181818;stroke-width:1.0;"/><path d="M65.7188,129.6094 Q65.1406,129.9063 64.5,130.0469 Q63.8594,130.2031 63.1563,130.2031 Q60.6563,130.2031 59.3281,128.5625 Q58.0156,126.9063 58.0156,123.7813 Q58.0156,120.6563 59.3281,119 Q60.6563,117.3438 63.1563,117.3438 Q63.8594,117.3438 64.5,117.5 Q65.1563,117.6563 65.7188,117.9531 L65.7188,120.6719 Q65.0938,120.0938 64.5,119.8281 Q63.9063,119.5469 63.2813,119.5469 Q61.9375,119.5469 61.25,120.625 Q60.5625,121.6875 60.5625,123.7813 Q60.5625,125.875 61.25,126.9531 Q61.9375,128.0156 63.2813,128.0156 Q63.9063,128.0156 64.5,127.75 Q65.0938,127.4688 65.7188,126.8906 L65.7188,129.6094 Z " fill="#000000"/><text fill="#000000" font-family="sans-serif" font-size="14" lengthAdjust="spacing" textLength="242" x="105.75" y="122.9951">AdminApplicationConfigurationView</text><text fill="#000000" font-family="sans-serif" font-size="10" lengthAdjust="spacing" textLength="287" x="83.25" y="135.5791">com.hack23.cia.web.impl.ui.application.views.admin.system</text><line style="stroke:#181818;stroke-width:0.5;" x1="8" x2="413" y1="142.9375" y2="142.9375"/><ellipse cx="18" cy="153.9375" fill="none" rx="3" ry="3" style="stroke:#038048;stroke-width:1.0;"/><text fill="#000000" font-family="sans-serif" font-size="14" lengthAdjust="spacing" text-decoration="underline" textLength="89" x="27" y="159.9326">NAME: String</text><line style="stroke:#181818;stroke-width:0.5;" x1="8" x2="413" y1="167.2344" y2="167.2344"/><ellipse cx="18" cy="178.2344" fill="#84BE84" rx="3" ry="3" style="stroke:#038048;stroke-width:1.0;"/><text fill="#000000" font-family="sans-serif" font-size="14" lengthAdjust="spacing" textLength="381" x="27" y="184.2295">AdminApplicationConfigurationView(ApplicationContext)</text></g></a><!--MD5=[b628d671c4eff2c1215f9ca2bed664d9]
class com.hack23.cia.web.impl.ui.application.views.admin.common.AbstractAdminView--><a href="../common/AbstractAdminView.html" target="_top" title="../common/AbstractAdminView.html" xlink:actuate="onRequest" xlink:href="../common/AbstractAdminView.html" xlink:show="new" xlink:title="../common/AbstractAdminView.html" xlink:type="simple"><g id="elem_com.hack23.cia.web.impl.ui.application.views.admin.common.AbstractAdminView"><rect codeLine="10" fill="#F1F1F1" height="37.9375" id="com.hack23.cia.web.impl.ui.application.views.admin.common.AbstractAdminView" rx="2.5" ry="2.5" style="stroke:#181818;stroke-width:0.5;" width="341" x="40" y="7"/><ellipse cx="55" cy="25.9688" fill="#A9DCDF" rx="11" ry="11" style="stroke:#181818;stroke-width:1.0;"/><path d="M55.1094,21.3125 L53.9531,26.3906 L56.2813,26.3906 L55.1094,21.3125 Z M53.625,19.0781 L56.6094,19.0781 L59.9688,31.4688 L57.5156,31.4688 L56.75,28.4063 L53.4688,28.4063 L52.7188,31.4688 L50.2813,31.4688 L53.625,19.0781 Z " fill="#000000"/><text fill="#000000" font-family="sans-serif" font-size="14" font-style="italic" lengthAdjust="spacing" textLength="134" x="156.5" y="24.9951">AbstractAdminView</text><text fill="#000000" font-family="sans-serif" font-size="10" font-style="italic" lengthAdjust="spacing" textLength="309" x="69" y="37.5791">com.hack23.cia.web.impl.ui.application.views.admin.common</text></g></a><!--MD5=[209ae4856edbec51fc35c23c02881564]
reverse link com.hack23.cia.web.impl.ui.application.views.admin.common.AbstractAdminView to com.hack23.cia.web.impl.ui.application.views.admin.system.AdminApplicationConfigurationView--><g id="link_com.hack23.cia.web.impl.ui.application.views.admin.common.AbstractAdminView_com.hack23.cia.web.impl.ui.application.views.admin.system.AdminApplicationConfigurationView"><path codeLine="12" d="M210.5,65.47 C210.5,78 210.5,91.99 210.5,104.81 " fill="none" id="com.hack23.cia.web.impl.ui.application.views.admin.common.AbstractAdminView-backto-com.hack23.cia.web.impl.ui.application.views.admin.system.AdminApplicationConfigurationView" style="stroke:#181818;stroke-width:1.0;"/><polygon fill="none" points="203.5,65.04,210.5,45.04,217.5,65.04,203.5,65.04" style="stroke:#181818;stroke-width:1.0;"/></g><rect height="11.6406" style="stroke:#00000000;stroke-width:1.0;fill:none;" width="186" x="110.5" y="197.5313"/><text fill="#888888" font-family="sans-serif" font-size="10" lengthAdjust="spacing" textLength="186" x="110.5" y="206.8135">UMLDoclet 2.0.18, PlantUML 1.2022.6</text><!--MD5=[64a6ec73ed340ff816ddab67add1658b]
@startuml
    set namespaceSeparator none
    hide empty fields
    hide empty methods

    class "<size:14>AdminApplicationConfigurationView\n<size:10>com.hack23.cia.web.impl.ui.application.views.admin.system" as com.hack23.cia.web.impl.ui.application.views.admin.system.AdminApplicationConfigurationView [[AdminApplicationConfigurationView.html]] {
        {static} +NAME: String
        +AdminApplicationConfigurationView(ApplicationContext)
    }

    abstract class "<size:14>AbstractAdminView\n<size:10>com.hack23.cia.web.impl.ui.application.views.admin.common" as com.hack23.cia.web.impl.ui.application.views.admin.common.AbstractAdminView [[../common/AbstractAdminView.html]]

    com.hack23.cia.web.impl.ui.application.views.admin.common.AbstractAdminView <|- - com.hack23.cia.web.impl.ui.application.views.admin.system.AdminApplicationConfigurationView

    center footer UMLDoclet 2.0.18, PlantUML 1.2022.6
@enduml

PlantUML version 1.2022.6(Tue Jun 21 19:34:49 CEST 2022)
(APACHE source distribution)
Java Runtime: OpenJDK Runtime Environment
JVM: OpenJDK 64-Bit Server VM
Default Encoding: ANSI_X3.4-1968
Language: en
Country: US
--></g></svg>