<?xml version="1.0" encoding="UTF-8" standalone="no"?><svg xmlns="http://www.w3.org/2000/svg" xmlns:xlink="http://www.w3.org/1999/xlink" contentScriptType="application/ecmascript" contentStyleType="text/css" height="1106px" preserveAspectRatio="none" style="width:982px;height:1106px;" version="1.1" viewBox="0 0 982 1106" width="982px" zoomAndPan="magnify"><defs><filter height="300%" id="f16jx5zj63crye" width="300%" x="-1" y="-1"><feGaussianBlur result="blurOut" stdDeviation="2.0"/><feColorMatrix in="blurOut" result="blurOut2" type="matrix" values="0 0 0 0 0 0 0 0 0 0 0 0 0 0 0 0 0 0 .4 0"/><feOffset dx="4.0" dy="4.0" in="blurOut2" result="blurOut3"/><feBlend in="SourceGraphic" in2="blurOut3" mode="normal"/></filter></defs><g><!--cluster com.hack23.cia.model.internal.application.user.impl--><polygon fill="#FFFFFF" filter="url(#f16jx5zj63crye)" points="14,130,428,130,435,152.2969,960,152.2969,960,1066,14,1066,14,130" style="stroke: #000000; stroke-width: 1.5;"/><line style="stroke: #000000; stroke-width: 1.5;" x1="14" x2="435" y1="152.2969" y2="152.2969"/><text fill="#000000" font-family="sans-serif" font-size="14" font-weight="bold" lengthAdjust="spacingAndGlyphs" textLength="408" x="18" y="144.9951">com.hack23.cia.model.internal.application.user.impl</text><!--cluster com.hack23.cia.model.common.api--><polygon fill="#FFFFFF" filter="url(#f16jx5zj63crye)" points="314,16,595,16,602,38.2969,605,38.2969,605,99,314,99,314,16" style="stroke: #000000; stroke-width: 1.5;"/><line style="stroke: #000000; stroke-width: 1.5;" x1="314" x2="602" y1="38.2969" y2="38.2969"/><text fill="#000000" font-family="sans-serif" font-size="14" font-weight="bold" lengthAdjust="spacingAndGlyphs" textLength="275" x="318" y="30.9951">com.hack23.cia.model.common.api</text><!--class com.hack23.cia.model.internal.application.user.impl.UserAccount--><a href="UserAccount.html" target="_top" xlink:actuate="onRequest" xlink:show="new" xlink:title="UserAccount.html" xlink:type="simple"><rect fill="#FEFECE" filter="url(#f16jx5zj63crye)" height="649.8203" id="com.hack23.cia.model.internal.application.user.impl.UserAccount" style="stroke: #A80036; stroke-width: 1.5;" width="326" x="296" y="157"/><ellipse cx="414.75" cy="173" fill="#ADD1B2" rx="11" ry="11" style="stroke: #A80036; stroke-width: 1.0;"/><path d="M417.7188,178.6406 Q417.1406,178.9375 416.5,179.0781 Q415.8594,179.2344 415.1563,179.2344 Q412.6563,179.2344 411.3281,177.5938 Q410.0156,175.9375 410.0156,172.8125 Q410.0156,169.6875 411.3281,168.0313 Q412.6563,166.375 415.1563,166.375 Q415.8594,166.375 416.5,166.5313 Q417.1563,166.6875 417.7188,166.9844 L417.7188,169.7031 Q417.0938,169.125 416.5,168.8594 Q415.9063,168.5781 415.2813,168.5781 Q413.9375,168.5781 413.25,169.6563 Q412.5625,170.7188 412.5625,172.8125 Q412.5625,174.9063 413.25,175.9844 Q413.9375,177.0469 415.2813,177.0469 Q415.9063,177.0469 416.5,176.7813 Q417.0938,176.5 417.7188,175.9219 L417.7188,178.6406 Z "/><text fill="#000000" font-family="sans-serif" font-size="12" lengthAdjust="spacingAndGlyphs" textLength="80" x="435.25" y="177.1543">UserAccount</text><line style="stroke: #A80036; stroke-width: 1.5;" x1="297" x2="621" y1="189" y2="189"/><polygon fill="none" points="307,195.9023,311,199.9023,307,203.9023,303,199.9023" style="stroke: #B38D22; stroke-width: 1.0;"/><text fill="#000000" font-family="sans-serif" font-size="11" lengthAdjust="spacingAndGlyphs" textLength="129" x="316" y="203.2104">modelObjectId: Integer</text><polygon fill="none" points="307,208.707,311,212.707,307,216.707,303,212.707" style="stroke: #B38D22; stroke-width: 1.0;"/><text fill="#000000" font-family="sans-serif" font-size="11" lengthAdjust="spacingAndGlyphs" textLength="136" x="316" y="216.0151">modelObjectVersion: int</text><polygon fill="none" points="307,221.5117,311,225.5117,307,229.5117,303,225.5117" style="stroke: #B38D22; stroke-width: 1.0;"/><text fill="#000000" font-family="sans-serif" font-size="11" lengthAdjust="spacingAndGlyphs" textLength="84" x="316" y="228.8198">country: String</text><polygon fill="none" points="307,234.3164,311,238.3164,307,242.3164,303,238.3164" style="stroke: #B38D22; stroke-width: 1.0;"/><text fill="#000000" font-family="sans-serif" font-size="11" lengthAdjust="spacingAndGlyphs" textLength="100" x="316" y="241.6245">username: String</text><polygon fill="none" points="307,247.1211,311,251.1211,307,255.1211,303,251.1211" style="stroke: #B38D22; stroke-width: 1.0;"/><text fill="#000000" font-family="sans-serif" font-size="11" lengthAdjust="spacingAndGlyphs" textLength="73" x="316" y="254.4292">email: String</text><polygon fill="none" points="307,259.9258,311,263.9258,307,267.9258,303,263.9258" style="stroke: #B38D22; stroke-width: 1.0;"/><text fill="#000000" font-family="sans-serif" font-size="11" lengthAdjust="spacingAndGlyphs" textLength="78" x="316" y="267.2339">userId: String</text><polygon fill="none" points="307,272.7305,311,276.7305,307,280.7305,303,276.7305" style="stroke: #B38D22; stroke-width: 1.0;"/><text fill="#000000" font-family="sans-serif" font-size="11" lengthAdjust="spacingAndGlyphs" textLength="124" x="316" y="280.0386">userpassword: String</text><polygon fill="none" points="307,285.5352,311,289.5352,307,293.5352,303,289.5352" style="stroke: #B38D22; stroke-width: 1.0;"/><text fill="#000000" font-family="sans-serif" font-size="11" lengthAdjust="spacingAndGlyphs" textLength="136" x="316" y="292.8433">numberOfVisits: Integer</text><polygon fill="none" points="307,298.3398,311,302.3398,307,306.3398,303,302.3398" style="stroke: #B38D22; stroke-width: 1.0;"/><text fill="#000000" font-family="sans-serif" font-size="11" lengthAdjust="spacingAndGlyphs" textLength="127" x="316" y="305.6479">address: List&lt;String&gt;</text><polygon fill="none" points="307,311.1445,311,315.1445,307,319.1445,303,315.1445" style="stroke: #B38D22; stroke-width: 1.0;"/><text fill="#000000" font-family="sans-serif" font-size="11" lengthAdjust="spacingAndGlyphs" textLength="103" x="316" y="318.4526">createdDate: Date</text><polygon fill="none" points="307,323.9492,311,327.9492,307,331.9492,303,327.9492" style="stroke: #B38D22; stroke-width: 1.0;"/><text fill="#000000" font-family="sans-serif" font-size="11" lengthAdjust="spacingAndGlyphs" textLength="55" x="316" y="331.2573">hjid: Long</text><line style="stroke: #A80036; stroke-width: 1.5;" x1="297" x2="621" y1="337.8516" y2="337.8516"/><ellipse cx="307" cy="349.7539" fill="#84BE84" rx="3" ry="3" style="stroke: #038048; stroke-width: 1.0;"/><text fill="#000000" font-family="sans-serif" font-size="11" lengthAdjust="spacingAndGlyphs" textLength="153" x="316" y="352.062">getModelObjectId(): Integer</text><ellipse cx="307" cy="362.5586" fill="#84BE84" rx="3" ry="3" style="stroke: #038048; stroke-width: 1.0;"/><text fill="#000000" font-family="sans-serif" font-size="11" lengthAdjust="spacingAndGlyphs" textLength="176" x="316" y="364.8667">setModelObjectId(Integer): void</text><ellipse cx="307" cy="375.3633" fill="#84BE84" rx="3" ry="3" style="stroke: #038048; stroke-width: 1.0;"/><text fill="#000000" font-family="sans-serif" font-size="11" lengthAdjust="spacingAndGlyphs" textLength="160" x="316" y="377.6714">getModelObjectVersion(): int</text><ellipse cx="307" cy="388.168" fill="#84BE84" rx="3" ry="3" style="stroke: #038048; stroke-width: 1.0;"/><text fill="#000000" font-family="sans-serif" font-size="11" lengthAdjust="spacingAndGlyphs" textLength="183" x="316" y="390.4761">setModelObjectVersion(int): void</text><ellipse cx="307" cy="400.9727" fill="#84BE84" rx="3" ry="3" style="stroke: #038048; stroke-width: 1.0;"/><text fill="#000000" font-family="sans-serif" font-size="11" lengthAdjust="spacingAndGlyphs" textLength="112" x="316" y="403.2808">getCountry(): String</text><ellipse cx="307" cy="413.7773" fill="#84BE84" rx="3" ry="3" style="stroke: #038048; stroke-width: 1.0;"/><text fill="#000000" font-family="sans-serif" font-size="11" lengthAdjust="spacingAndGlyphs" textLength="135" x="316" y="416.0854">setCountry(String): void</text><ellipse cx="307" cy="426.582" fill="#84BE84" rx="3" ry="3" style="stroke: #038048; stroke-width: 1.0;"/><text fill="#000000" font-family="sans-serif" font-size="11" lengthAdjust="spacingAndGlyphs" textLength="127" x="316" y="428.8901">getUsername(): String</text><ellipse cx="307" cy="439.3867" fill="#84BE84" rx="3" ry="3" style="stroke: #038048; stroke-width: 1.0;"/><text fill="#000000" font-family="sans-serif" font-size="11" lengthAdjust="spacingAndGlyphs" textLength="150" x="316" y="441.6948">setUsername(String): void</text><ellipse cx="307" cy="452.1914" fill="#84BE84" rx="3" ry="3" style="stroke: #038048; stroke-width: 1.0;"/><text fill="#000000" font-family="sans-serif" font-size="11" lengthAdjust="spacingAndGlyphs" textLength="99" x="316" y="454.4995">getEmail(): String</text><ellipse cx="307" cy="464.9961" fill="#84BE84" rx="3" ry="3" style="stroke: #038048; stroke-width: 1.0;"/><text fill="#000000" font-family="sans-serif" font-size="11" lengthAdjust="spacingAndGlyphs" textLength="122" x="316" y="467.3042">setEmail(String): void</text><ellipse cx="307" cy="477.8008" fill="#84BE84" rx="3" ry="3" style="stroke: #038048; stroke-width: 1.0;"/><text fill="#000000" font-family="sans-serif" font-size="11" lengthAdjust="spacingAndGlyphs" textLength="105" x="316" y="480.1089">getUserId(): String</text><ellipse cx="307" cy="490.6055" fill="#84BE84" rx="3" ry="3" style="stroke: #038048; stroke-width: 1.0;"/><text fill="#000000" font-family="sans-serif" font-size="11" lengthAdjust="spacingAndGlyphs" textLength="128" x="316" y="492.9136">setUserId(String): void</text><ellipse cx="307" cy="503.4102" fill="#84BE84" rx="3" ry="3" style="stroke: #038048; stroke-width: 1.0;"/><text fill="#000000" font-family="sans-serif" font-size="11" lengthAdjust="spacingAndGlyphs" textLength="151" x="316" y="505.7183">getUserpassword(): String</text><ellipse cx="307" cy="516.2148" fill="#84BE84" rx="3" ry="3" style="stroke: #038048; stroke-width: 1.0;"/><text fill="#000000" font-family="sans-serif" font-size="11" lengthAdjust="spacingAndGlyphs" textLength="174" x="316" y="518.5229">setUserpassword(String): void</text><ellipse cx="307" cy="529.0195" fill="#84BE84" rx="3" ry="3" style="stroke: #038048; stroke-width: 1.0;"/><text fill="#000000" font-family="sans-serif" font-size="11" lengthAdjust="spacingAndGlyphs" textLength="163" x="316" y="531.3276">getNumberOfVisits(): Integer</text><ellipse cx="307" cy="541.8242" fill="#84BE84" rx="3" ry="3" style="stroke: #038048; stroke-width: 1.0;"/><text fill="#000000" font-family="sans-serif" font-size="11" lengthAdjust="spacingAndGlyphs" textLength="186" x="316" y="544.1323">setNumberOfVisits(Integer): void</text><ellipse cx="307" cy="554.6289" fill="#84BE84" rx="3" ry="3" style="stroke: #038048; stroke-width: 1.0;"/><text fill="#000000" font-family="sans-serif" font-size="11" lengthAdjust="spacingAndGlyphs" textLength="153" x="316" y="556.937">getAddress(): List&lt;String&gt;</text><ellipse cx="307" cy="567.4336" fill="#84BE84" rx="3" ry="3" style="stroke: #038048; stroke-width: 1.0;"/><text fill="#000000" font-family="sans-serif" font-size="11" lengthAdjust="spacingAndGlyphs" textLength="176" x="316" y="569.7417">setAddress(List&lt;String&gt;): void</text><ellipse cx="307" cy="580.2383" fill="#84BE84" rx="3" ry="3" style="stroke: #038048; stroke-width: 1.0;"/><text fill="#000000" font-family="sans-serif" font-size="11" lengthAdjust="spacingAndGlyphs" textLength="131" x="316" y="582.5464">getCreatedDate(): Date</text><ellipse cx="307" cy="593.043" fill="#84BE84" rx="3" ry="3" style="stroke: #038048; stroke-width: 1.0;"/><text fill="#000000" font-family="sans-serif" font-size="11" lengthAdjust="spacingAndGlyphs" textLength="154" x="316" y="595.3511">setCreatedDate(Date): void</text><ellipse cx="307" cy="605.8477" fill="#84BE84" rx="3" ry="3" style="stroke: #038048; stroke-width: 1.0;"/><text fill="#000000" font-family="sans-serif" font-size="11" lengthAdjust="spacingAndGlyphs" textLength="229" x="316" y="608.1558">withModelObjectId(Integer): UserAccount</text><ellipse cx="307" cy="618.6523" fill="#84BE84" rx="3" ry="3" style="stroke: #038048; stroke-width: 1.0;"/><text fill="#000000" font-family="sans-serif" font-size="11" lengthAdjust="spacingAndGlyphs" textLength="236" x="316" y="620.9604">withModelObjectVersion(int): UserAccount</text><ellipse cx="307" cy="631.457" fill="#84BE84" rx="3" ry="3" style="stroke: #038048; stroke-width: 1.0;"/><text fill="#000000" font-family="sans-serif" font-size="11" lengthAdjust="spacingAndGlyphs" textLength="188" x="316" y="633.7651">withCountry(String): UserAccount</text><ellipse cx="307" cy="644.2617" fill="#84BE84" rx="3" ry="3" style="stroke: #038048; stroke-width: 1.0;"/><text fill="#000000" font-family="sans-serif" font-size="11" lengthAdjust="spacingAndGlyphs" textLength="203" x="316" y="646.5698">withUsername(String): UserAccount</text><ellipse cx="307" cy="657.0664" fill="#84BE84" rx="3" ry="3" style="stroke: #038048; stroke-width: 1.0;"/><text fill="#000000" font-family="sans-serif" font-size="11" lengthAdjust="spacingAndGlyphs" textLength="175" x="316" y="659.3745">withEmail(String): UserAccount</text><ellipse cx="307" cy="669.8711" fill="#84BE84" rx="3" ry="3" style="stroke: #038048; stroke-width: 1.0;"/><text fill="#000000" font-family="sans-serif" font-size="11" lengthAdjust="spacingAndGlyphs" textLength="181" x="316" y="672.1792">withUserId(String): UserAccount</text><ellipse cx="307" cy="682.6758" fill="#84BE84" rx="3" ry="3" style="stroke: #038048; stroke-width: 1.0;"/><text fill="#000000" font-family="sans-serif" font-size="11" lengthAdjust="spacingAndGlyphs" textLength="227" x="316" y="684.9839">withUserpassword(String): UserAccount</text><ellipse cx="307" cy="695.4805" fill="#84BE84" rx="3" ry="3" style="stroke: #038048; stroke-width: 1.0;"/><text fill="#000000" font-family="sans-serif" font-size="11" lengthAdjust="spacingAndGlyphs" textLength="239" x="316" y="697.7886">withNumberOfVisits(Integer): UserAccount</text><ellipse cx="307" cy="708.2852" fill="#84BE84" rx="3" ry="3" style="stroke: #038048; stroke-width: 1.0;"/><text fill="#000000" font-family="sans-serif" font-size="11" lengthAdjust="spacingAndGlyphs" textLength="229" x="316" y="710.5933">withAddress(List&lt;String&gt;): UserAccount</text><ellipse cx="307" cy="721.0898" fill="#84BE84" rx="3" ry="3" style="stroke: #038048; stroke-width: 1.0;"/><text fill="#000000" font-family="sans-serif" font-size="11" lengthAdjust="spacingAndGlyphs" textLength="218" x="316" y="723.3979">withUserType(UserType): UserAccount</text><ellipse cx="307" cy="733.8945" fill="#84BE84" rx="3" ry="3" style="stroke: #038048; stroke-width: 1.0;"/><text fill="#000000" font-family="sans-serif" font-size="11" lengthAdjust="spacingAndGlyphs" textLength="212" x="316" y="736.2026">withUserRole(UserRole): UserAccount</text><ellipse cx="307" cy="746.6992" fill="#84BE84" rx="3" ry="3" style="stroke: #038048; stroke-width: 1.0;"/><text fill="#000000" font-family="sans-serif" font-size="11" lengthAdjust="spacingAndGlyphs" textLength="288" x="316" y="749.0073">withUserLockStatus(UserLockStatus): UserAccount</text><ellipse cx="307" cy="759.5039" fill="#84BE84" rx="3" ry="3" style="stroke: #038048; stroke-width: 1.0;"/><text fill="#000000" font-family="sans-serif" font-size="11" lengthAdjust="spacingAndGlyphs" textLength="300" x="316" y="761.812">withUserEmailStatus(UserEmailStatus): UserAccount</text><ellipse cx="307" cy="772.3086" fill="#84BE84" rx="3" ry="3" style="stroke: #038048; stroke-width: 1.0;"/><text fill="#000000" font-family="sans-serif" font-size="11" lengthAdjust="spacingAndGlyphs" textLength="207" x="316" y="774.6167">withCreatedDate(Date): UserAccount</text><ellipse cx="307" cy="785.1133" fill="#84BE84" rx="3" ry="3" style="stroke: #038048; stroke-width: 1.0;"/><text fill="#000000" font-family="sans-serif" font-size="11" lengthAdjust="spacingAndGlyphs" textLength="82" x="316" y="787.4214">getHjid(): Long</text><ellipse cx="307" cy="797.918" fill="#84BE84" rx="3" ry="3" style="stroke: #038048; stroke-width: 1.0;"/><text fill="#000000" font-family="sans-serif" font-size="11" lengthAdjust="spacingAndGlyphs" textLength="105" x="316" y="800.2261">setHjid(Long): void</text></a><!--class com.hack23.cia.model.internal.application.user.impl.UserType--><a href="UserType.html" target="_top" xlink:actuate="onRequest" xlink:show="new" xlink:title="UserType.html" xlink:type="simple"><rect fill="#FEFECE" filter="url(#f16jx5zj63crye)" height="112.0234" id="com.hack23.cia.model.internal.application.user.impl.UserType" style="stroke: #A80036; stroke-width: 1.5;" width="188" x="22" y="946"/><ellipse cx="82.75" cy="962" fill="#EB937F" rx="11" ry="11" style="stroke: #A80036; stroke-width: 1.0;"/><path d="M86.8594,968 L79.1406,968 L79.1406,955.6094 L86.8594,955.6094 L86.8594,957.7656 L81.5938,957.7656 L81.5938,960.4375 L86.3594,960.4375 L86.3594,962.5938 L81.5938,962.5938 L81.5938,965.8438 L86.8594,965.8438 L86.8594,968 Z "/><text fill="#000000" font-family="sans-serif" font-size="12" lengthAdjust="spacingAndGlyphs" textLength="58" x="103.25" y="966.1543">UserType</text><line style="stroke: #A80036; stroke-width: 1.5;" x1="23" x2="209" y1="978" y2="978"/><ellipse cx="33" cy="989.9023" fill="none" rx="3" ry="3" style="stroke: #038048; stroke-width: 1.0;"/><text fill="#000000" font-family="sans-serif" font-size="11" lengthAdjust="spacingAndGlyphs" text-decoration="underline" textLength="73" x="42" y="992.2104">ANONYMOUS</text><ellipse cx="33" cy="1002.707" fill="none" rx="3" ry="3" style="stroke: #038048; stroke-width: 1.0;"/><text fill="#000000" font-family="sans-serif" font-size="11" lengthAdjust="spacingAndGlyphs" text-decoration="underline" textLength="45" x="42" y="1005.0151">PRIVATE</text><ellipse cx="33" cy="1015.5117" fill="none" rx="3" ry="3" style="stroke: #038048; stroke-width: 1.0;"/><text fill="#000000" font-family="sans-serif" font-size="11" lengthAdjust="spacingAndGlyphs" text-decoration="underline" textLength="58" x="42" y="1017.8198">BUSINESS</text><line style="stroke: #A80036; stroke-width: 1.5;" x1="23" x2="209" y1="1024.4141" y2="1024.4141"/><ellipse cx="33" cy="1036.3164" fill="#84BE84" rx="3" ry="3" style="stroke: #038048; stroke-width: 1.0;"/><text fill="#000000" font-family="sans-serif" font-size="11" lengthAdjust="spacingAndGlyphs" textLength="80" x="42" y="1038.6245">value(): String</text><ellipse cx="33" cy="1049.1211" fill="#84BE84" rx="3" ry="3" style="stroke: #038048; stroke-width: 1.0;"/><text fill="#000000" font-family="sans-serif" font-size="11" lengthAdjust="spacingAndGlyphs" text-decoration="underline" textLength="162" x="42" y="1051.4292">fromValue(String): UserType</text></a><!--class com.hack23.cia.model.internal.application.user.impl.UserRole--><a href="UserRole.html" target="_top" xlink:actuate="onRequest" xlink:show="new" xlink:title="UserRole.html" xlink:type="simple"><rect fill="#FEFECE" filter="url(#f16jx5zj63crye)" height="112.0234" id="com.hack23.cia.model.internal.application.user.impl.UserRole" style="stroke: #A80036; stroke-width: 1.5;" width="185" x="245.5" y="946"/><ellipse cx="305.75" cy="962" fill="#EB937F" rx="11" ry="11" style="stroke: #A80036; stroke-width: 1.0;"/><path d="M309.8594,968 L302.1406,968 L302.1406,955.6094 L309.8594,955.6094 L309.8594,957.7656 L304.5938,957.7656 L304.5938,960.4375 L309.3594,960.4375 L309.3594,962.5938 L304.5938,962.5938 L304.5938,965.8438 L309.8594,965.8438 L309.8594,968 Z "/><text fill="#000000" font-family="sans-serif" font-size="12" lengthAdjust="spacingAndGlyphs" textLength="56" x="326.25" y="966.1543">UserRole</text><line style="stroke: #A80036; stroke-width: 1.5;" x1="246.5" x2="429.5" y1="978" y2="978"/><ellipse cx="256.5" cy="989.9023" fill="none" rx="3" ry="3" style="stroke: #038048; stroke-width: 1.0;"/><text fill="#000000" font-family="sans-serif" font-size="11" lengthAdjust="spacingAndGlyphs" text-decoration="underline" textLength="35" x="265.5" y="992.2104">ADMIN</text><ellipse cx="256.5" cy="1002.707" fill="none" rx="3" ry="3" style="stroke: #038048; stroke-width: 1.0;"/><text fill="#000000" font-family="sans-serif" font-size="11" lengthAdjust="spacingAndGlyphs" text-decoration="underline" textLength="30" x="265.5" y="1005.0151">USER</text><ellipse cx="256.5" cy="1015.5117" fill="none" rx="3" ry="3" style="stroke: #038048; stroke-width: 1.0;"/><text fill="#000000" font-family="sans-serif" font-size="11" lengthAdjust="spacingAndGlyphs" text-decoration="underline" textLength="41" x="265.5" y="1017.8198">EDITOR</text><line style="stroke: #A80036; stroke-width: 1.5;" x1="246.5" x2="429.5" y1="1024.4141" y2="1024.4141"/><ellipse cx="256.5" cy="1036.3164" fill="#84BE84" rx="3" ry="3" style="stroke: #038048; stroke-width: 1.0;"/><text fill="#000000" font-family="sans-serif" font-size="11" lengthAdjust="spacingAndGlyphs" textLength="80" x="265.5" y="1038.6245">value(): String</text><ellipse cx="256.5" cy="1049.1211" fill="#84BE84" rx="3" ry="3" style="stroke: #038048; stroke-width: 1.0;"/><text fill="#000000" font-family="sans-serif" font-size="11" lengthAdjust="spacingAndGlyphs" text-decoration="underline" textLength="159" x="265.5" y="1051.4292">fromValue(String): UserRole</text></a><!--class com.hack23.cia.model.internal.application.user.impl.UserEmailStatus--><a href="UserEmailStatus.html" target="_top" xlink:actuate="onRequest" xlink:show="new" xlink:title="UserEmailStatus.html" xlink:type="simple"><rect fill="#FEFECE" filter="url(#f16jx5zj63crye)" height="99.2188" id="com.hack23.cia.model.internal.application.user.impl.UserEmailStatus" style="stroke: #A80036; stroke-width: 1.5;" width="229" x="465.5" y="952.5"/><ellipse cx="524.25" cy="968.5" fill="#EB937F" rx="11" ry="11" style="stroke: #A80036; stroke-width: 1.0;"/><path d="M528.3594,974.5 L520.6406,974.5 L520.6406,962.1094 L528.3594,962.1094 L528.3594,964.2656 L523.0938,964.2656 L523.0938,966.9375 L527.8594,966.9375 L527.8594,969.0938 L523.0938,969.0938 L523.0938,972.3438 L528.3594,972.3438 L528.3594,974.5 Z "/><text fill="#000000" font-family="sans-serif" font-size="12" lengthAdjust="spacingAndGlyphs" textLength="103" x="544.75" y="972.6543">UserEmailStatus</text><line style="stroke: #A80036; stroke-width: 1.5;" x1="466.5" x2="693.5" y1="984.5" y2="984.5"/><ellipse cx="476.5" cy="996.4023" fill="none" rx="3" ry="3" style="stroke: #038048; stroke-width: 1.0;"/><text fill="#000000" font-family="sans-serif" font-size="11" lengthAdjust="spacingAndGlyphs" text-decoration="underline" textLength="48" x="485.5" y="998.7104">VERIFIED</text><ellipse cx="476.5" cy="1009.207" fill="none" rx="3" ry="3" style="stroke: #038048; stroke-width: 1.0;"/><text fill="#000000" font-family="sans-serif" font-size="11" lengthAdjust="spacingAndGlyphs" text-decoration="underline" textLength="57" x="485.5" y="1011.5151">UNKNOWN</text><line style="stroke: #A80036; stroke-width: 1.5;" x1="466.5" x2="693.5" y1="1018.1094" y2="1018.1094"/><ellipse cx="476.5" cy="1030.0117" fill="#84BE84" rx="3" ry="3" style="stroke: #038048; stroke-width: 1.0;"/><text fill="#000000" font-family="sans-serif" font-size="11" lengthAdjust="spacingAndGlyphs" textLength="80" x="485.5" y="1032.3198">value(): String</text><ellipse cx="476.5" cy="1042.8164" fill="#84BE84" rx="3" ry="3" style="stroke: #038048; stroke-width: 1.0;"/><text fill="#000000" font-family="sans-serif" font-size="11" lengthAdjust="spacingAndGlyphs" text-decoration="underline" textLength="203" x="485.5" y="1045.1245">fromValue(String): UserEmailStatus</text></a><!--class com.hack23.cia.model.internal.application.user.impl.UserLockStatus--><a href="UserLockStatus.html" target="_top" xlink:actuate="onRequest" xlink:show="new" xlink:title="UserLockStatus.html" xlink:type="simple"><rect fill="#FEFECE" filter="url(#f16jx5zj63crye)" height="99.2188" id="com.hack23.cia.model.internal.application.user.impl.UserLockStatus" style="stroke: #A80036; stroke-width: 1.5;" width="223" x="729.5" y="952.5"/><ellipse cx="787.75" cy="968.5" fill="#EB937F" rx="11" ry="11" style="stroke: #A80036; stroke-width: 1.0;"/><path d="M791.8594,974.5 L784.1406,974.5 L784.1406,962.1094 L791.8594,962.1094 L791.8594,964.2656 L786.5938,964.2656 L786.5938,966.9375 L791.3594,966.9375 L791.3594,969.0938 L786.5938,969.0938 L786.5938,972.3438 L791.8594,972.3438 L791.8594,974.5 Z "/><text fill="#000000" font-family="sans-serif" font-size="12" lengthAdjust="spacingAndGlyphs" textLength="98" x="808.25" y="972.6543">UserLockStatus</text><line style="stroke: #A80036; stroke-width: 1.5;" x1="730.5" x2="951.5" y1="984.5" y2="984.5"/><ellipse cx="740.5" cy="996.4023" fill="none" rx="3" ry="3" style="stroke: #038048; stroke-width: 1.0;"/><text fill="#000000" font-family="sans-serif" font-size="11" lengthAdjust="spacingAndGlyphs" text-decoration="underline" textLength="61" x="749.5" y="998.7104">UNLOCKED</text><ellipse cx="740.5" cy="1009.207" fill="none" rx="3" ry="3" style="stroke: #038048; stroke-width: 1.0;"/><text fill="#000000" font-family="sans-serif" font-size="11" lengthAdjust="spacingAndGlyphs" text-decoration="underline" textLength="45" x="749.5" y="1011.5151">LOCKED</text><line style="stroke: #A80036; stroke-width: 1.5;" x1="730.5" x2="951.5" y1="1018.1094" y2="1018.1094"/><ellipse cx="740.5" cy="1030.0117" fill="#84BE84" rx="3" ry="3" style="stroke: #038048; stroke-width: 1.0;"/><text fill="#000000" font-family="sans-serif" font-size="11" lengthAdjust="spacingAndGlyphs" textLength="80" x="749.5" y="1032.3198">value(): String</text><ellipse cx="740.5" cy="1042.8164" fill="#84BE84" rx="3" ry="3" style="stroke: #038048; stroke-width: 1.0;"/><text fill="#000000" font-family="sans-serif" font-size="11" lengthAdjust="spacingAndGlyphs" text-decoration="underline" textLength="197" x="749.5" y="1045.1245">fromValue(String): UserLockStatus</text></a><!--class com.hack23.cia.model.common.api.ModelObject--><rect fill="#FEFECE" filter="url(#f16jx5zj63crye)" height="48" id="com.hack23.cia.model.common.api.ModelObject" style="stroke: #A80036; stroke-width: 1.5;" width="108" x="405" y="43"/><ellipse cx="420" cy="59" fill="#B4A7E5" rx="11" ry="11" style="stroke: #A80036; stroke-width: 1.0;"/><path d="M415.9219,54.7656 L415.9219,52.6094 L423.3125,52.6094 L423.3125,54.7656 L420.8438,54.7656 L420.8438,62.8438 L423.3125,62.8438 L423.3125,65 L415.9219,65 L415.9219,62.8438 L418.3906,62.8438 L418.3906,54.7656 L415.9219,54.7656 Z "/><text fill="#000000" font-family="sans-serif" font-size="12" font-style="italic" lengthAdjust="spacingAndGlyphs" textLength="76" x="434" y="63.1543">ModelObject</text><line style="stroke: #A80036; stroke-width: 1.5;" x1="406" x2="512" y1="75" y2="75"/><line style="stroke: #A80036; stroke-width: 1.5;" x1="406" x2="512" y1="83" y2="83"/><!--link com.hack23.cia.model.common.api.ModelObject to com.hack23.cia.model.internal.application.user.impl.UserAccount--><path d="M459,111.404 C459,124.5127 459,139.9677 459,156.9979 " fill="none" id="com.hack23.cia.model.common.api.ModelObject-com.hack23.cia.model.internal.application.user.impl.UserAccount" style="stroke: #A80036; stroke-width: 1.0; stroke-dasharray: 7.0,7.0;"/><polygon fill="none" points="452.0001,111.106,459,91.1059,466.0001,111.1059,452.0001,111.106" style="stroke: #A80036; stroke-width: 1.0;"/><!--link com.hack23.cia.model.internal.application.user.impl.UserAccount to com.hack23.cia.model.internal.application.user.impl.UserType--><path d="M295.7874,729.436 C243.7988,808.2525 190.7924,888.6122 155.9375,941.4534 " fill="none" id="com.hack23.cia.model.internal.application.user.impl.UserAccount-com.hack23.cia.model.internal.application.user.impl.UserType" style="stroke: #A80036; stroke-width: 1.0;"/><polygon fill="#A80036" points="153.0414,945.844,161.3361,940.5338,155.7946,941.6703,154.6581,936.1287,153.0414,945.844" style="stroke: #A80036; stroke-width: 1.0;"/><text fill="#000000" font-family="sans-serif" font-size="13" lengthAdjust="spacingAndGlyphs" textLength="58" x="204" y="881.0669">userType</text><!--link com.hack23.cia.model.internal.application.user.impl.UserAccount to com.hack23.cia.model.internal.application.user.impl.UserRole--><path d="M383.3141,807.2618 C371.4937,858.0602 360.5002,905.3051 352.3022,940.5361 " fill="none" id="com.hack23.cia.model.internal.application.user.impl.UserAccount-com.hack23.cia.model.internal.application.user.impl.UserRole" style="stroke: #A80036; stroke-width: 1.0;"/><polygon fill="#A80036" points="351.1132,945.6459,357.049,937.7868,352.2465,940.776,349.2572,935.9735,351.1132,945.6459" style="stroke: #A80036; stroke-width: 1.0;"/><text fill="#000000" font-family="sans-serif" font-size="13" lengthAdjust="spacingAndGlyphs" textLength="55" x="369" y="881.0669">userRole</text><!--link com.hack23.cia.model.internal.application.user.impl.UserAccount to com.hack23.cia.model.internal.application.user.impl.UserLockStatus--><path d="M622.1104,704.0351 C688.2535,794.0729 758.9569,890.3183 801.5669,948.3214 " fill="none" id="com.hack23.cia.model.internal.application.user.impl.UserAccount-com.hack23.cia.model.internal.application.user.impl.UserLockStatus" style="stroke: #A80036; stroke-width: 1.0;"/><polygon fill="#A80036" points="804.5858,952.4309,802.4812,942.8095,801.6257,948.4013,796.0339,947.5458,804.5858,952.4309" style="stroke: #A80036; stroke-width: 1.0;"/><text fill="#000000" font-family="sans-serif" font-size="13" lengthAdjust="spacingAndGlyphs" textLength="99" x="755" y="881.0669">userLockStatus</text><!--link com.hack23.cia.model.internal.application.user.impl.UserAccount to com.hack23.cia.model.internal.application.user.impl.UserEmailStatus--><path d="M534.6859,807.2618 C547.2792,861.3816 558.9339,911.4681 567.2695,947.2903 " fill="none" id="com.hack23.cia.model.internal.application.user.impl.UserAccount-com.hack23.cia.model.internal.application.user.impl.UserEmailStatus" style="stroke: #A80036; stroke-width: 1.0;"/><polygon fill="#A80036" points="568.475,952.4709,570.331,942.7985,567.3417,947.601,562.5392,944.6117,568.475,952.4709" style="stroke: #A80036; stroke-width: 1.0;"/><text fill="#000000" font-family="sans-serif" font-size="13" lengthAdjust="spacingAndGlyphs" textLength="105" x="553" y="881.0669">userEmailStatus</text><text fill="#888888" font-family="sans-serif" font-size="10" lengthAdjust="spacingAndGlyphs" textLength="186" x="400" y="1093.2822">UMLDoclet 2.0.5, PlantUML 1.2019.08</text><!--
@startuml
    namespace com.hack23.cia.model.internal.application.user.impl {

        class UserAccount [[UserAccount.html]] {
            #modelObjectId: Integer
            #modelObjectVersion: int
            #country: String
            #username: String
            #email: String
            #userId: String
            #userpassword: String
            #numberOfVisits: Integer
            #address: List<String>
            #createdDate: Date
            #hjid: Long
            +getModelObjectId(): Integer
            +setModelObjectId(Integer): void
            +getModelObjectVersion(): int
            +setModelObjectVersion(int): void
            +getCountry(): String
            +setCountry(String): void
            +getUsername(): String
            +setUsername(String): void
            +getEmail(): String
            +setEmail(String): void
            +getUserId(): String
            +setUserId(String): void
            +getUserpassword(): String
            +setUserpassword(String): void
            +getNumberOfVisits(): Integer
            +setNumberOfVisits(Integer): void
            +getAddress(): List<String>
            +setAddress(List<String>): void
            +getCreatedDate(): Date
            +setCreatedDate(Date): void
            +withModelObjectId(Integer): UserAccount
            +withModelObjectVersion(int): UserAccount
            +withCountry(String): UserAccount
            +withUsername(String): UserAccount
            +withEmail(String): UserAccount
            +withUserId(String): UserAccount
            +withUserpassword(String): UserAccount
            +withNumberOfVisits(Integer): UserAccount
            +withAddress(List<String>): UserAccount
            +withUserType(UserType): UserAccount
            +withUserRole(UserRole): UserAccount
            +withUserLockStatus(UserLockStatus): UserAccount
            +withUserEmailStatus(UserEmailStatus): UserAccount
            +withCreatedDate(Date): UserAccount
            +getHjid(): Long
            +setHjid(Long): void
        }

        enum UserType [[UserType.html]] {
            {static} +ANONYMOUS
            {static} +PRIVATE
            {static} +BUSINESS
            +value(): String
            {static} +fromValue(String): UserType
        }

        enum UserRole [[UserRole.html]] {
            {static} +ADMIN
            {static} +USER
            {static} +EDITOR
            +value(): String
            {static} +fromValue(String): UserRole
        }

        enum UserEmailStatus [[UserEmailStatus.html]] {
            {static} +VERIFIED
            {static} +UNKNOWN
            +value(): String
            {static} +fromValue(String): UserEmailStatus
        }

        enum UserLockStatus [[UserLockStatus.html]] {
            {static} +UNLOCKED
            {static} +LOCKED
            +value(): String
            {static} +fromValue(String): UserLockStatus
        }

        com.hack23.cia.model.common.api.ModelObject <|.. UserAccount
        UserAccount - -> UserType: userType
        UserAccount - -> UserRole: userRole
        UserAccount - -> UserLockStatus: userLockStatus
        UserAccount - -> UserEmailStatus: userEmailStatus
    }

    namespace com.hack23.cia.model.common.api {
        interface ModelObject
    }

    center footer UMLDoclet 2.0.5, PlantUML 1.2019.08
@enduml

PlantUML version 1.2019.08(Sat Jul 13 21:25:14 CEST 2019)
(APACHE source distribution)
Java Runtime: OpenJDK Runtime Environment
JVM: OpenJDK 64-Bit Server VM
Java Version: 11.0.4+11-post-Ubuntu-1ubuntu219.04
Operating System: Linux
OS Version: 5.0.0-27-generic
Default Encoding: UTF-8
Language: en
Country: US
--></g></svg>