<svg xmlns="http://www.w3.org/2000/svg" xmlns:xlink="http://www.w3.org/1999/xlink" contentStyleType="text/css" height="1328px" preserveAspectRatio="none" style="width:1021px;height:1328px;background:#FFFFFF;" version="1.1" viewBox="0 0 1021 1328" width="1021px" zoomAndPan="magnify"><defs/><g><!--cluster com.hack23.cia.model.internal.application.user.impl--><g id="cluster_com.hack23.cia.model.internal.application.user.impl"><path d="M16.5,109 L384.9426,109 A3.75,3.75 0 0 1 387.4426,111.5 L394.4426,134.0679 L1011.5,134.0679 A2.5,2.5 0 0 1 1014,136.5679 L1014,1288.5 A2.5,2.5 0 0 1 1011.5,1291 L16.5,1291 A2.5,2.5 0 0 1 14,1288.5 L14,111.5 A2.5,2.5 0 0 1 16.5,109 " fill="none" style="stroke:#000000;stroke-width:1.5;"/><line style="stroke:#000000;stroke-width:1.5;" x1="14" x2="394.4426" y1="134.0679" y2="134.0679"/><text fill="#000000" font-family="sans-serif" font-size="14" font-weight="bold" lengthAdjust="spacing" textLength="367.4426" x="18" y="125.9659">com.hack23.cia.model.internal.application.user.impl</text></g><!--cluster com.hack23.cia.model.common.api--><g id="cluster_com.hack23.cia.model.common.api"><path d="M353.5,4 L600.1571,4 A3.75,3.75 0 0 1 602.6571,6.5 L609.6571,29.0679 L609.5,29.0679 A2.5,2.5 0 0 1 612,31.5679 L612,87.5 A2.5,2.5 0 0 1 609.5,90 L353.5,90 A2.5,2.5 0 0 1 351,87.5 L351,6.5 A2.5,2.5 0 0 1 353.5,4 " fill="none" style="stroke:#000000;stroke-width:1.5;"/><line style="stroke:#000000;stroke-width:1.5;" x1="351" x2="609.6571" y1="29.0679" y2="29.0679"/><text fill="#000000" font-family="sans-serif" font-size="14" font-weight="bold" lengthAdjust="spacing" textLength="245.6571" x="355" y="20.9659">com.hack23.cia.model.common.api</text></g><!--class UserType--><a href="UserType.html" target="_top" title="UserType.html" xlink:actuate="onRequest" xlink:href="UserType.html" xlink:show="new" xlink:title="UserType.html" xlink:type="simple"><g id="elem_UserType"><rect codeLine="12" fill="#F1F1F1" height="143.3396" id="UserType" rx="2.5" ry="2.5" style="stroke:#181818;stroke-width:0.5;" width="211.8073" x="22" y="1140"/><ellipse cx="92.6298" cy="1156" fill="#EB937F" rx="11" ry="11" style="stroke:#181818;stroke-width:1.0;"/><path d="M96.7391,1162 L89.0204,1162 L89.0204,1149.6094 L96.7391,1149.6094 L96.7391,1151.7656 L91.4735,1151.7656 L91.4735,1154.4375 L96.2391,1154.4375 L96.2391,1156.5938 L91.4735,1156.5938 L91.4735,1159.8438 L96.7391,1159.8438 L96.7391,1162 Z " fill="#000000"/><text fill="#000000" font-family="sans-serif" font-size="14" lengthAdjust="spacing" textLength="62.0478" x="113.1298" y="1161.432">UserType</text><line style="stroke:#181818;stroke-width:0.5;" x1="23" x2="232.8073" y1="1172" y2="1172"/><ellipse cx="33" cy="1187.034" fill="none" rx="3" ry="3" style="stroke:#038048;stroke-width:1.0;"/><text fill="#000000" font-family="sans-serif" font-size="14" lengthAdjust="spacing" text-decoration="underline" textLength="90.6357" x="42" y="1190.9659">ANONYMOUS</text><ellipse cx="33" cy="1206.1019" fill="none" rx="3" ry="3" style="stroke:#038048;stroke-width:1.0;"/><text fill="#000000" font-family="sans-serif" font-size="14" lengthAdjust="spacing" text-decoration="underline" textLength="54.8378" x="42" y="1210.0339">PRIVATE</text><ellipse cx="33" cy="1225.1698" fill="none" rx="3" ry="3" style="stroke:#038048;stroke-width:1.0;"/><text fill="#000000" font-family="sans-serif" font-size="14" lengthAdjust="spacing" text-decoration="underline" textLength="65.5618" x="42" y="1229.1018">BUSINESS</text><line style="stroke:#181818;stroke-width:0.5;" x1="23" x2="232.8073" y1="1237.2038" y2="1237.2038"/><ellipse cx="33" cy="1252.2377" fill="#84BE84" rx="3" ry="3" style="stroke:#038048;stroke-width:1.0;"/><text fill="#000000" font-family="sans-serif" font-size="14" lengthAdjust="spacing" textLength="90.3136" x="42" y="1256.1697">value(): String</text><ellipse cx="33" cy="1271.3056" fill="#84BE84" rx="3" ry="3" style="stroke:#038048;stroke-width:1.0;"/><text fill="#000000" font-family="sans-serif" font-size="14" lengthAdjust="spacing" text-decoration="underline" textLength="185.8073" x="42" y="1275.2376">fromValue(String): UserType</text></g></a><!--class UserRole--><a href="UserRole.html" target="_top" title="UserRole.html" xlink:actuate="onRequest" xlink:href="UserRole.html" xlink:show="new" xlink:title="UserRole.html" xlink:type="simple"><g id="elem_UserRole"><rect codeLine="20" fill="#F1F1F1" height="143.3396" id="UserRole" rx="2.5" ry="2.5" style="stroke:#181818;stroke-width:0.5;" width="209.0633" x="252.5" y="1140"/><ellipse cx="323.1298" cy="1156" fill="#EB937F" rx="11" ry="11" style="stroke:#181818;stroke-width:1.0;"/><path d="M327.2391,1162 L319.5204,1162 L319.5204,1149.6094 L327.2391,1149.6094 L327.2391,1151.7656 L321.9735,1151.7656 L321.9735,1154.4375 L326.7391,1154.4375 L326.7391,1156.5938 L321.9735,1156.5938 L321.9735,1159.8438 L327.2391,1159.8438 L327.2391,1162 Z " fill="#000000"/><text fill="#000000" font-family="sans-serif" font-size="14" lengthAdjust="spacing" textLength="59.3038" x="343.6298" y="1161.432">UserRole</text><line style="stroke:#181818;stroke-width:0.5;" x1="253.5" x2="460.5633" y1="1172" y2="1172"/><ellipse cx="263.5" cy="1187.034" fill="none" rx="3" ry="3" style="stroke:#038048;stroke-width:1.0;"/><text fill="#000000" font-family="sans-serif" font-size="14" lengthAdjust="spacing" text-decoration="underline" textLength="47.2498" x="272.5" y="1190.9659">ADMIN</text><ellipse cx="263.5" cy="1206.1019" fill="none" rx="3" ry="3" style="stroke:#038048;stroke-width:1.0;"/><text fill="#000000" font-family="sans-serif" font-size="14" lengthAdjust="spacing" text-decoration="underline" textLength="34.4119" x="272.5" y="1210.0339">USER</text><ellipse cx="263.5" cy="1225.1698" fill="none" rx="3" ry="3" style="stroke:#038048;stroke-width:1.0;"/><text fill="#000000" font-family="sans-serif" font-size="14" lengthAdjust="spacing" text-decoration="underline" textLength="50.1758" x="272.5" y="1229.1018">EDITOR</text><line style="stroke:#181818;stroke-width:0.5;" x1="253.5" x2="460.5633" y1="1237.2038" y2="1237.2038"/><ellipse cx="263.5" cy="1252.2377" fill="#84BE84" rx="3" ry="3" style="stroke:#038048;stroke-width:1.0;"/><text fill="#000000" font-family="sans-serif" font-size="14" lengthAdjust="spacing" textLength="90.3136" x="272.5" y="1256.1697">value(): String</text><ellipse cx="263.5" cy="1271.3056" fill="#84BE84" rx="3" ry="3" style="stroke:#038048;stroke-width:1.0;"/><text fill="#000000" font-family="sans-serif" font-size="14" lengthAdjust="spacing" text-decoration="underline" textLength="183.0633" x="272.5" y="1275.2376">fromValue(String): UserRole</text></g></a><!--class UserLockStatus--><a href="UserLockStatus.html" target="_top" title="UserLockStatus.html" xlink:actuate="onRequest" xlink:href="UserLockStatus.html" xlink:show="new" xlink:title="UserLockStatus.html" xlink:type="simple"><g id="elem_UserLockStatus"><rect codeLine="28" fill="#F1F1F1" height="124.2717" id="UserLockStatus" rx="2.5" ry="2.5" style="stroke:#181818;stroke-width:0.5;" width="251.3851" x="479.5" y="1149.5"/><ellipse cx="550.1298" cy="1165.5" fill="#EB937F" rx="11" ry="11" style="stroke:#181818;stroke-width:1.0;"/><path d="M554.2391,1171.5 L546.5204,1171.5 L546.5204,1159.1094 L554.2391,1159.1094 L554.2391,1161.2656 L548.9735,1161.2656 L548.9735,1163.9375 L553.7391,1163.9375 L553.7391,1166.0938 L548.9735,1166.0938 L548.9735,1169.3438 L554.2391,1169.3438 L554.2391,1171.5 Z " fill="#000000"/><text fill="#000000" font-family="sans-serif" font-size="14" lengthAdjust="spacing" textLength="101.6256" x="570.6298" y="1170.932">UserLockStatus</text><line style="stroke:#181818;stroke-width:0.5;" x1="480.5" x2="729.8851" y1="1181.5" y2="1181.5"/><ellipse cx="490.5" cy="1196.534" fill="none" rx="3" ry="3" style="stroke:#038048;stroke-width:1.0;"/><text fill="#000000" font-family="sans-serif" font-size="14" lengthAdjust="spacing" text-decoration="underline" textLength="74.6617" x="499.5" y="1200.4659">UNLOCKED</text><ellipse cx="490.5" cy="1215.6019" fill="none" rx="3" ry="3" style="stroke:#038048;stroke-width:1.0;"/><text fill="#000000" font-family="sans-serif" font-size="14" lengthAdjust="spacing" text-decoration="underline" textLength="53.7878" x="499.5" y="1219.5339">LOCKED</text><line style="stroke:#181818;stroke-width:0.5;" x1="480.5" x2="729.8851" y1="1227.6358" y2="1227.6358"/><ellipse cx="490.5" cy="1242.6698" fill="#84BE84" rx="3" ry="3" style="stroke:#038048;stroke-width:1.0;"/><text fill="#000000" font-family="sans-serif" font-size="14" lengthAdjust="spacing" textLength="90.3136" x="499.5" y="1246.6018">value(): String</text><ellipse cx="490.5" cy="1261.7377" fill="#84BE84" rx="3" ry="3" style="stroke:#038048;stroke-width:1.0;"/><text fill="#000000" font-family="sans-serif" font-size="14" lengthAdjust="spacing" text-decoration="underline" textLength="225.3851" x="499.5" y="1265.6697">fromValue(String): UserLockStatus</text></g></a><!--class UserEmailStatus--><a href="UserEmailStatus.html" target="_top" title="UserEmailStatus.html" xlink:actuate="onRequest" xlink:href="UserEmailStatus.html" xlink:show="new" xlink:title="UserEmailStatus.html" xlink:type="simple"><g id="elem_UserEmailStatus"><rect codeLine="35" fill="#F1F1F1" height="124.2717" id="UserEmailStatus" rx="2.5" ry="2.5" style="stroke:#181818;stroke-width:0.5;" width="257.3351" x="748.5" y="1149.5"/><ellipse cx="819.1298" cy="1165.5" fill="#EB937F" rx="11" ry="11" style="stroke:#181818;stroke-width:1.0;"/><path d="M823.2391,1171.5 L815.5204,1171.5 L815.5204,1159.1094 L823.2391,1159.1094 L823.2391,1161.2656 L817.9735,1161.2656 L817.9735,1163.9375 L822.7391,1163.9375 L822.7391,1166.0938 L817.9735,1166.0938 L817.9735,1169.3438 L823.2391,1169.3438 L823.2391,1171.5 Z " fill="#000000"/><text fill="#000000" font-family="sans-serif" font-size="14" lengthAdjust="spacing" textLength="107.5756" x="839.6298" y="1170.932">UserEmailStatus</text><line style="stroke:#181818;stroke-width:0.5;" x1="749.5" x2="1004.8351" y1="1181.5" y2="1181.5"/><ellipse cx="759.5" cy="1196.534" fill="none" rx="3" ry="3" style="stroke:#038048;stroke-width:1.0;"/><text fill="#000000" font-family="sans-serif" font-size="14" lengthAdjust="spacing" text-decoration="underline" textLength="59.6538" x="768.5" y="1200.4659">VERIFIED</text><ellipse cx="759.5" cy="1215.6019" fill="none" rx="3" ry="3" style="stroke:#038048;stroke-width:1.0;"/><text fill="#000000" font-family="sans-serif" font-size="14" lengthAdjust="spacing" text-decoration="underline" textLength="74.7737" x="768.5" y="1219.5339">UNKNOWN</text><line style="stroke:#181818;stroke-width:0.5;" x1="749.5" x2="1004.8351" y1="1227.6358" y2="1227.6358"/><ellipse cx="759.5" cy="1242.6698" fill="#84BE84" rx="3" ry="3" style="stroke:#038048;stroke-width:1.0;"/><text fill="#000000" font-family="sans-serif" font-size="14" lengthAdjust="spacing" textLength="90.3136" x="768.5" y="1246.6018">value(): String</text><ellipse cx="759.5" cy="1261.7377" fill="#84BE84" rx="3" ry="3" style="stroke:#038048;stroke-width:1.0;"/><text fill="#000000" font-family="sans-serif" font-size="14" lengthAdjust="spacing" text-decoration="underline" textLength="231.3351" x="768.5" y="1265.6697">fromValue(String): UserEmailStatus</text></g></a><!--class UserAccount--><a href="UserAccount.html" target="_top" title="UserAccount.html" xlink:actuate="onRequest" xlink:href="UserAccount.html" xlink:show="new" xlink:title="UserAccount.html" xlink:type="simple"><g id="elem_UserAccount"><rect codeLine="42" fill="#F1F1F1" height="944.1921" id="UserAccount" rx="2.5" ry="2.5" style="stroke:#181818;stroke-width:0.5;" width="369.0967" x="296.5" y="139"/><ellipse cx="434.8825" cy="155" fill="#ADD1B2" rx="11" ry="11" style="stroke:#181818;stroke-width:1.0;"/><path d="M437.8513,160.6406 Q437.2731,160.9375 436.6325,161.0781 Q435.9919,161.2344 435.2888,161.2344 Q432.7888,161.2344 431.4606,159.5938 Q430.1481,157.9375 430.1481,154.8125 Q430.1481,151.6875 431.4606,150.0313 Q432.7888,148.375 435.2888,148.375 Q435.9919,148.375 436.6325,148.5313 Q437.2888,148.6875 437.8513,148.9844 L437.8513,151.7031 Q437.2263,151.125 436.6325,150.8594 Q436.0388,150.5781 435.4138,150.5781 Q434.07,150.5781 433.3825,151.6563 Q432.695,152.7188 432.695,154.8125 Q432.695,156.9063 433.3825,157.9844 Q434.07,159.0469 435.4138,159.0469 Q436.0388,159.0469 436.6325,158.7813 Q437.2263,158.5 437.8513,157.9219 L437.8513,160.6406 Z " fill="#000000"/><text fill="#000000" font-family="sans-serif" font-size="14" lengthAdjust="spacing" textLength="83.8317" x="455.3825" y="160.432">UserAccount</text><line style="stroke:#181818;stroke-width:0.5;" x1="297.5" x2="664.5967" y1="171" y2="171"/><polygon fill="none" points="307.5,181.034,311.5,185.034,307.5,189.034,303.5,185.034" style="stroke:#B38D22;stroke-width:1.0;"/><text fill="#000000" font-family="sans-serif" font-size="14" lengthAdjust="spacing" textLength="153.8874" x="316.5" y="189.9659">modelObjectId: Integer</text><polygon fill="none" points="307.5,200.1019,311.5,204.1019,307.5,208.1019,303.5,204.1019" style="stroke:#B38D22;stroke-width:1.0;"/><text fill="#000000" font-family="sans-serif" font-size="14" lengthAdjust="spacing" textLength="158.7314" x="316.5" y="209.0339">modelObjectVersion: int</text><polygon fill="none" points="307.5,219.1698,311.5,223.1698,307.5,227.1698,303.5,223.1698" style="stroke:#B38D22;stroke-width:1.0;"/><text fill="#000000" font-family="sans-serif" font-size="14" lengthAdjust="spacing" textLength="97.2576" x="316.5" y="228.1018">country: String</text><polygon fill="none" points="307.5,238.2377,311.5,242.2377,307.5,246.2377,303.5,242.2377" style="stroke:#B38D22;stroke-width:1.0;"/><text fill="#000000" font-family="sans-serif" font-size="14" lengthAdjust="spacing" textLength="113.3156" x="316.5" y="247.1697">username: String</text><polygon fill="none" points="307.5,257.3056,311.5,261.3056,307.5,265.3056,303.5,261.3056" style="stroke:#B38D22;stroke-width:1.0;"/><text fill="#000000" font-family="sans-serif" font-size="14" lengthAdjust="spacing" textLength="82.8517" x="316.5" y="266.2376">email: String</text><polygon fill="none" points="307.5,276.3735,311.5,280.3735,307.5,284.3735,303.5,280.3735" style="stroke:#B38D22;stroke-width:1.0;"/><text fill="#000000" font-family="sans-serif" font-size="14" lengthAdjust="spacing" textLength="89.1797" x="316.5" y="285.3055">userId: String</text><polygon fill="none" points="307.5,295.4415,311.5,299.4415,307.5,303.4415,303.5,299.4415" style="stroke:#B38D22;stroke-width:1.0;"/><text fill="#000000" font-family="sans-serif" font-size="14" lengthAdjust="spacing" textLength="139.5655" x="316.5" y="304.3734">userpassword: String</text><polygon fill="none" points="307.5,314.5094,311.5,318.5094,307.5,322.5094,303.5,318.5094" style="stroke:#B38D22;stroke-width:1.0;"/><text fill="#000000" font-family="sans-serif" font-size="14" lengthAdjust="spacing" textLength="158.5494" x="316.5" y="323.4414">numberOfVisits: Integer</text><polygon fill="none" points="307.5,333.5773,311.5,337.5773,307.5,341.5773,303.5,337.5773" style="stroke:#B38D22;stroke-width:1.0;"/><text fill="#000000" font-family="sans-serif" font-size="14" lengthAdjust="spacing" textLength="137.6755" x="316.5" y="342.5093">address: List&lt;String&gt;</text><polygon fill="none" points="307.5,352.6452,311.5,356.6452,307.5,360.6452,303.5,356.6452" style="stroke:#B38D22;stroke-width:1.0;"/><text fill="#000000" font-family="sans-serif" font-size="14" lengthAdjust="spacing" textLength="119.2515" x="316.5" y="361.5772">createdDate: Date</text><polygon fill="none" points="307.5,371.7131,311.5,375.7131,307.5,379.7131,303.5,375.7131" style="stroke:#B38D22;stroke-width:1.0;"/><text fill="#000000" font-family="sans-serif" font-size="14" lengthAdjust="spacing" textLength="64.9457" x="316.5" y="380.6451">hjid: Long</text><line style="stroke:#181818;stroke-width:0.5;" x1="297.5" x2="664.5967" y1="388.7471" y2="388.7471"/><ellipse cx="307.5" cy="403.781" fill="#84BE84" rx="3" ry="3" style="stroke:#038048;stroke-width:1.0;"/><text fill="#000000" font-family="sans-serif" font-size="14" lengthAdjust="spacing" textLength="183.4553" x="316.5" y="407.713">getModelObjectId(): Integer</text><ellipse cx="307.5" cy="422.849" fill="#84BE84" rx="3" ry="3" style="stroke:#038048;stroke-width:1.0;"/><text fill="#000000" font-family="sans-serif" font-size="14" lengthAdjust="spacing" textLength="209.3552" x="316.5" y="426.7809">setModelObjectId(Integer): void</text><ellipse cx="307.5" cy="441.9169" fill="#84BE84" rx="3" ry="3" style="stroke:#038048;stroke-width:1.0;"/><text fill="#000000" font-family="sans-serif" font-size="14" lengthAdjust="spacing" textLength="188.2993" x="316.5" y="445.8489">getModelObjectVersion(): int</text><ellipse cx="307.5" cy="460.9848" fill="#84BE84" rx="3" ry="3" style="stroke:#038048;stroke-width:1.0;"/><text fill="#000000" font-family="sans-serif" font-size="14" lengthAdjust="spacing" textLength="214.1992" x="316.5" y="464.9168">setModelObjectVersion(int): void</text><ellipse cx="307.5" cy="480.0527" fill="#84BE84" rx="3" ry="3" style="stroke:#038048;stroke-width:1.0;"/><text fill="#000000" font-family="sans-serif" font-size="14" lengthAdjust="spacing" textLength="129.3455" x="316.5" y="483.9847">getCountry(): String</text><ellipse cx="307.5" cy="499.1206" fill="#84BE84" rx="3" ry="3" style="stroke:#038048;stroke-width:1.0;"/><text fill="#000000" font-family="sans-serif" font-size="14" lengthAdjust="spacing" textLength="155.2454" x="316.5" y="503.0526">setCountry(String): void</text><ellipse cx="307.5" cy="518.1885" fill="#84BE84" rx="3" ry="3" style="stroke:#038048;stroke-width:1.0;"/><text fill="#000000" font-family="sans-serif" font-size="14" lengthAdjust="spacing" textLength="144.8575" x="316.5" y="522.1205">getUsername(): String</text><ellipse cx="307.5" cy="537.2565" fill="#84BE84" rx="3" ry="3" style="stroke:#038048;stroke-width:1.0;"/><text fill="#000000" font-family="sans-serif" font-size="14" lengthAdjust="spacing" textLength="170.7574" x="316.5" y="541.1884">setUsername(String): void</text><ellipse cx="307.5" cy="556.3244" fill="#84BE84" rx="3" ry="3" style="stroke:#038048;stroke-width:1.0;"/><text fill="#000000" font-family="sans-serif" font-size="14" lengthAdjust="spacing" textLength="112.6996" x="316.5" y="560.2564">getEmail(): String</text><ellipse cx="307.5" cy="575.3923" fill="#84BE84" rx="3" ry="3" style="stroke:#038048;stroke-width:1.0;"/><text fill="#000000" font-family="sans-serif" font-size="14" lengthAdjust="spacing" textLength="138.5995" x="316.5" y="579.3243">setEmail(String): void</text><ellipse cx="307.5" cy="594.4602" fill="#84BE84" rx="3" ry="3" style="stroke:#038048;stroke-width:1.0;"/><text fill="#000000" font-family="sans-serif" font-size="14" lengthAdjust="spacing" textLength="120.7216" x="316.5" y="598.3922">getUserId(): String</text><ellipse cx="307.5" cy="613.5281" fill="#84BE84" rx="3" ry="3" style="stroke:#038048;stroke-width:1.0;"/><text fill="#000000" font-family="sans-serif" font-size="14" lengthAdjust="spacing" textLength="146.6215" x="316.5" y="617.4601">setUserId(String): void</text><ellipse cx="307.5" cy="632.596" fill="#84BE84" rx="3" ry="3" style="stroke:#038048;stroke-width:1.0;"/><text fill="#000000" font-family="sans-serif" font-size="14" lengthAdjust="spacing" textLength="171.1074" x="316.5" y="636.528">getUserpassword(): String</text><ellipse cx="307.5" cy="651.664" fill="#84BE84" rx="3" ry="3" style="stroke:#038048;stroke-width:1.0;"/><text fill="#000000" font-family="sans-serif" font-size="14" lengthAdjust="spacing" textLength="197.0073" x="316.5" y="655.5959">setUserpassword(String): void</text><ellipse cx="307.5" cy="670.7319" fill="#84BE84" rx="3" ry="3" style="stroke:#038048;stroke-width:1.0;"/><text fill="#000000" font-family="sans-serif" font-size="14" lengthAdjust="spacing" textLength="190.4973" x="316.5" y="674.6639">getNumberOfVisits(): Integer</text><ellipse cx="307.5" cy="689.7998" fill="#84BE84" rx="3" ry="3" style="stroke:#038048;stroke-width:1.0;"/><text fill="#000000" font-family="sans-serif" font-size="14" lengthAdjust="spacing" textLength="216.3972" x="316.5" y="693.7318">setNumberOfVisits(Integer): void</text><ellipse cx="307.5" cy="708.8677" fill="#84BE84" rx="3" ry="3" style="stroke:#038048;stroke-width:1.0;"/><text fill="#000000" font-family="sans-serif" font-size="14" lengthAdjust="spacing" textLength="168.7274" x="316.5" y="712.7997">getAddress(): List&lt;String&gt;</text><ellipse cx="307.5" cy="727.9356" fill="#84BE84" rx="3" ry="3" style="stroke:#038048;stroke-width:1.0;"/><text fill="#000000" font-family="sans-serif" font-size="14" lengthAdjust="spacing" textLength="194.6273" x="316.5" y="731.8676">setAddress(List&lt;String&gt;): void</text><ellipse cx="307.5" cy="747.0035" fill="#84BE84" rx="3" ry="3" style="stroke:#038048;stroke-width:1.0;"/><text fill="#000000" font-family="sans-serif" font-size="14" lengthAdjust="spacing" textLength="151.3394" x="316.5" y="750.9355">getCreatedDate(): Date</text><ellipse cx="307.5" cy="766.0715" fill="#84BE84" rx="3" ry="3" style="stroke:#038048;stroke-width:1.0;"/><text fill="#000000" font-family="sans-serif" font-size="14" lengthAdjust="spacing" textLength="177.2393" x="316.5" y="770.0034">setCreatedDate(Date): void</text><ellipse cx="307.5" cy="785.1394" fill="#84BE84" rx="3" ry="3" style="stroke:#038048;stroke-width:1.0;"/><text fill="#000000" font-family="sans-serif" font-size="14" lengthAdjust="spacing" textLength="274.049" x="316.5" y="789.0714">withModelObjectId(Integer): UserAccount</text><ellipse cx="307.5" cy="804.2073" fill="#84BE84" rx="3" ry="3" style="stroke:#038048;stroke-width:1.0;"/><text fill="#000000" font-family="sans-serif" font-size="14" lengthAdjust="spacing" textLength="278.8929" x="316.5" y="808.1393">withModelObjectVersion(int): UserAccount</text><ellipse cx="307.5" cy="823.2752" fill="#84BE84" rx="3" ry="3" style="stroke:#038048;stroke-width:1.0;"/><text fill="#000000" font-family="sans-serif" font-size="14" lengthAdjust="spacing" textLength="219.9391" x="316.5" y="827.2072">withCountry(String): UserAccount</text><ellipse cx="307.5" cy="842.3431" fill="#84BE84" rx="3" ry="3" style="stroke:#038048;stroke-width:1.0;"/><text fill="#000000" font-family="sans-serif" font-size="14" lengthAdjust="spacing" textLength="235.4511" x="316.5" y="846.2751">withUsername(String): UserAccount</text><ellipse cx="307.5" cy="861.411" fill="#84BE84" rx="3" ry="3" style="stroke:#038048;stroke-width:1.0;"/><text fill="#000000" font-family="sans-serif" font-size="14" lengthAdjust="spacing" textLength="203.2932" x="316.5" y="865.343">withEmail(String): UserAccount</text><ellipse cx="307.5" cy="880.479" fill="#84BE84" rx="3" ry="3" style="stroke:#038048;stroke-width:1.0;"/><text fill="#000000" font-family="sans-serif" font-size="14" lengthAdjust="spacing" textLength="211.3152" x="316.5" y="884.4109">withUserId(String): UserAccount</text><ellipse cx="307.5" cy="899.5469" fill="#84BE84" rx="3" ry="3" style="stroke:#038048;stroke-width:1.0;"/><text fill="#000000" font-family="sans-serif" font-size="14" lengthAdjust="spacing" textLength="261.701" x="316.5" y="903.4789">withUserpassword(String): UserAccount</text><ellipse cx="307.5" cy="918.6148" fill="#84BE84" rx="3" ry="3" style="stroke:#038048;stroke-width:1.0;"/><text fill="#000000" font-family="sans-serif" font-size="14" lengthAdjust="spacing" textLength="281.0909" x="316.5" y="922.5468">withNumberOfVisits(Integer): UserAccount</text><ellipse cx="307.5" cy="937.6827" fill="#84BE84" rx="3" ry="3" style="stroke:#038048;stroke-width:1.0;"/><text fill="#000000" font-family="sans-serif" font-size="14" lengthAdjust="spacing" textLength="259.321" x="316.5" y="941.6147">withAddress(List&lt;String&gt;): UserAccount</text><ellipse cx="307.5" cy="956.7506" fill="#84BE84" rx="3" ry="3" style="stroke:#038048;stroke-width:1.0;"/><text fill="#000000" font-family="sans-serif" font-size="14" lengthAdjust="spacing" textLength="252.041" x="316.5" y="960.6826">withUserType(UserType): UserAccount</text><ellipse cx="307.5" cy="975.8186" fill="#84BE84" rx="3" ry="3" style="stroke:#038048;stroke-width:1.0;"/><text fill="#000000" font-family="sans-serif" font-size="14" lengthAdjust="spacing" textLength="246.553" x="316.5" y="979.7505">withUserRole(UserRole): UserAccount</text><ellipse cx="307.5" cy="994.8865" fill="#84BE84" rx="3" ry="3" style="stroke:#038048;stroke-width:1.0;"/><text fill="#000000" font-family="sans-serif" font-size="14" lengthAdjust="spacing" textLength="331.1967" x="316.5" y="998.8184">withUserLockStatus(UserLockStatus): UserAccount</text><ellipse cx="307.5" cy="1013.9544" fill="#84BE84" rx="3" ry="3" style="stroke:#038048;stroke-width:1.0;"/><text fill="#000000" font-family="sans-serif" font-size="14" lengthAdjust="spacing" textLength="343.0967" x="316.5" y="1017.8864">withUserEmailStatus(UserEmailStatus): UserAccount</text><ellipse cx="307.5" cy="1033.0223" fill="#84BE84" rx="3" ry="3" style="stroke:#038048;stroke-width:1.0;"/><text fill="#000000" font-family="sans-serif" font-size="14" lengthAdjust="spacing" textLength="241.9331" x="316.5" y="1036.9543">withCreatedDate(Date): UserAccount</text><ellipse cx="307.5" cy="1052.0902" fill="#84BE84" rx="3" ry="3" style="stroke:#038048;stroke-width:1.0;"/><text fill="#000000" font-family="sans-serif" font-size="14" lengthAdjust="spacing" textLength="96.6276" x="316.5" y="1056.0222">getHjid(): Long</text><ellipse cx="307.5" cy="1071.1581" fill="#84BE84" rx="3" ry="3" style="stroke:#038048;stroke-width:1.0;"/><text fill="#000000" font-family="sans-serif" font-size="14" lengthAdjust="spacing" textLength="122.5275" x="316.5" y="1075.0901">setHjid(Long): void</text></g></a><!--class ModelObject--><g id="elem_ModelObject"><rect codeLine="95" fill="#F1F1F1" height="48" id="ModelObject" rx="2.5" ry="2.5" style="stroke:#181818;stroke-width:0.5;" width="110.1477" x="426" y="34"/><ellipse cx="441" cy="50" fill="#B4A7E5" rx="11" ry="11" style="stroke:#181818;stroke-width:1.0;"/><path d="M436.9219,45.7656 L436.9219,43.6094 L444.3125,43.6094 L444.3125,45.7656 L441.8438,45.7656 L441.8438,53.8438 L444.3125,53.8438 L444.3125,56 L436.9219,56 L436.9219,53.8438 L439.3906,53.8438 L439.3906,45.7656 L436.9219,45.7656 Z " fill="#000000"/><text fill="#000000" font-family="sans-serif" font-size="14" font-style="italic" lengthAdjust="spacing" textLength="78.1477" x="455" y="55.432">ModelObject</text><line style="stroke:#181818;stroke-width:0.5;" x1="427" x2="535.1477" y1="66" y2="66"/><line style="stroke:#181818;stroke-width:0.5;" x1="427" x2="535.1477" y1="74" y2="74"/></g><polygon fill="none" points="481,82.3238,475,100.3238,487,100.3238,481,82.3238" style="stroke:#181818;stroke-width:1.0;"/><path d="M481,100.3238 C481,114.2013 481,115.6456 481,138.9404 " fill="none" style="stroke:#181818;stroke-width:1.0;stroke-dasharray:7.0,7.0;"/><polygon fill="#181818" points="169.5866,1139.9912,177.6042,1134.2712,172.1268,1135.6845,170.7135,1130.207,169.5866,1139.9912" style="stroke:#181818;stroke-width:1.0;"/><path d="M296.4876,924.8348 C248.7278,1005.8099 204.8002,1080.2878 172.6348,1134.8231 " fill="none" style="stroke:#181818;stroke-width:1.0;"/><text fill="#000000" font-family="sans-serif" font-size="13" lengthAdjust="spacing" textLength="56.147" x="190" y="1116.897">userType</text><polygon fill="#181818" points="371.6445,1139.8166,377.3872,1131.8152,372.6589,1134.9205,369.5536,1130.1922,371.6445,1139.8166" style="stroke:#181818;stroke-width:1.0;"/><path d="M383.3731,1083.2074 C379.0696,1103.9788 376.3299,1117.2018 372.8618,1133.9413 " fill="none" style="stroke:#181818;stroke-width:1.0;"/><text fill="#000000" font-family="sans-serif" font-size="13" lengthAdjust="spacing" textLength="53.599" x="379" y="1116.897">userRole</text><polygon fill="#181818" points="592.3354,1149.3731,594.4264,1139.7487,591.3211,1144.4771,586.5927,1141.3718,592.3354,1149.3731" style="stroke:#181818;stroke-width:1.0;"/><path d="M578.6269,1083.2074 C583.7731,1108.0459 587.2063,1124.6168 591.1182,1143.4979 " fill="none" style="stroke:#181818;stroke-width:1.0;"/><text fill="#000000" font-family="sans-serif" font-size="13" lengthAdjust="spacing" textLength="92.8981" x="586" y="1116.897">userLockStatus</text><polygon fill="#181818" points="836.5872,1149.4215,834.9568,1139.7085,833.8281,1145.2516,828.285,1144.1229,836.5872,1149.4215" style="stroke:#181818;stroke-width:1.0;"/><path d="M665.6672,891.0993 C729.788,988.0091 792.4711,1082.7461 833.2763,1144.4176 " fill="none" style="stroke:#181818;stroke-width:1.0;"/><text fill="#000000" font-family="sans-serif" font-size="13" lengthAdjust="spacing" textLength="98.4231" x="812" y="1116.897">userEmailStatus</text><text fill="#888888" font-family="sans-serif" font-size="10" lengthAdjust="spacing" textLength="2.6" x="501.2" y="1303.69">&#160;</text><a href="https://github.com/talsma-ict/umldoclet" target="_top" title="https://github.com/talsma-ict/umldoclet" xlink:actuate="onRequest" xlink:href="https://github.com/talsma-ict/umldoclet" xlink:show="new" xlink:title="https://github.com/talsma-ict/umldoclet" xlink:type="simple"><text fill="#888888" font-family="sans-serif" font-size="10" lengthAdjust="spacing" textLength="76.7199" x="464.14" y="1317.31">UMLDoclet 2.2.1</text></a><!--SRC=[nLXRRzis57xlhpX37kR2jNp9cZP2KC1plDMhOnU-P1YoFD0IRREHI8sa4XXj_liETR5bHPUWBH0_o9BETpv-dtXuaG00VeM127QIRROQj02zPGgMLsCWt8KDvLGIJLrWFjbG1Ilg2RvHCP022VLMI13hwCeHKb8L2Euole6_o3q19KBfK6MzUWLHKukK_O6e3FjgPsvU2iUZ6Xg3rnb9lKxthDNhz7w31V6KJs0qM5W9so6dP_MiBY2tnnpA5LA6tAKoajKFY8D_upZo1kwfL4nmpEaaFCQg8xWcZ2i8YDJAMFhi4QwDrgvbshVUGQC_7nzhwvn7sjv0Nt8IkZ0J_uLxkxy4acnGiKTs8jIWVAe99r58eMP5iIcYyVdPTfo0Gk_mCQCMtzhYUU_KSXYnVE5Ips9SKsp4iqWGe4kYqOCLAYejvWSUV8qfp8_oq8SbHXQxWCBDJNfgRRNltTuY53A_hqeZb_C8pVvaElddQhgSbyG_pqRN_SMm9FhxSZwQ3EV7oSrxueMqyTg6kPPO5IMvQodywmWPmn2VYjvdF1OOd0alDMXEQmrUNeqc9R7bV3Wh2GqlHulfx2VwCbehVOs5SpT7ab0bxWutwZmk9-FfuDFmiYHS4FmnBmTbbOw6Fc7UaQNCdJfFryFPw8zHgQVbvDDa-lVa9vhAQ2jovNX4gGZOTnmHSfrOIgwAxPn4mtYw-a8TFN9j6E5utb1PYhcEfoaRSE0VWw96vAxGsecP4JZnQN6K6cFbYKPNMIn0pmz2bY2mdrTKJjVNJ36jIjmHryK50gDZflH5JFCXvqrIio9Sui46SpmERxym530MkUQR6wglie_NT7oHXARA0nCKuky5SwjOamunrFakoT6cI8ILyGxYFYmfKCEN8lQ5MSYpJBgxWcWFgMQAQhw29exNguaVVeKM1DIpfDLMmxM7LJDEZggpgZXoo9hgwCS5RGXBIzgmfhWigBGo3YF0y3uP0r5jP33cKCZrmFIshDOpirLbqd4bLsOzgTTAzDEYh8JdYg-MEbjZjU2dHLIPKbeYbLab9L0hpko16kd9SnBCvgAHdZmduR22DuuldvESMIaRkUlQWdbQnALu71SVSUgF1feec0kYe8daHqAoQZy-OuEDDttSKfE0PLRkQDUz9Ww5pAZ8KjPGsNOc3ow-MTRtxEvjE_zaVfG4MgqFtqzYQj66CBj5Vrb1fjPZGVkzzSiAEeoYM5Pkc_oouZA3D5QNtUz6-YwKtddqi92jXK3Qt8xs8_Qz73D-Dn0UliMUl2-EBisRkCSunPT_vuxZ90YTpFYCccjdsalQ-fVVt6or3fJTRczmkWXNPbYrTVGLeCKStGvzpurV_tCV0cvlanVxF_TV6CnRUglRQ_NUBxfdTk_KxdQiTsVdf-VddREtpKxNxdHkXg4K0MtFDVRLLdZ-xVy0]--></g></svg>