<svg xmlns="http://www.w3.org/2000/svg" xmlns:xlink="http://www.w3.org/1999/xlink" contentStyleType="text/css" height="1304px" preserveAspectRatio="none" style="width:382px;height:1304px;background:#FFFFFF;" version="1.1" viewBox="0 0 382 1304" width="382px" zoomAndPan="magnify"><defs/><g><!--class com.hack23.cia.model.internal.application.user.impl.UserAccount--><a href="UserAccount.html" target="_top" title="UserAccount.html" xlink:actuate="onRequest" xlink:href="UserAccount.html" xlink:show="new" xlink:title="UserAccount.html" xlink:type="simple"><g id="elem_com.hack23.cia.model.internal.application.user.impl.UserAccount"><rect codeLine="13" fill="#F1F1F1" height="1183.695" id="com.hack23.cia.model.internal.application.user.impl.UserAccount" rx="2.5" ry="2.5" style="stroke:#181818;stroke-width:0.5;" width="369.0967" x="6" y="91"/><ellipse cx="63.8484" cy="112.344" fill="#ADD1B2" rx="11" ry="11" style="stroke:#181818;stroke-width:1.0;"/><path d="M66.8172,117.9846 Q66.2391,118.2815 65.5984,118.4221 Q64.9578,118.5783 64.2547,118.5783 Q61.7547,118.5783 60.4266,116.9377 Q59.1141,115.2815 59.1141,112.1565 Q59.1141,109.0315 60.4266,107.3752 Q61.7547,105.719 64.2547,105.719 Q64.9578,105.719 65.5984,105.8752 Q66.2547,106.0315 66.8172,106.3283 L66.8172,109.0471 Q66.1922,108.469 65.5984,108.2033 Q65.0047,107.9221 64.3797,107.9221 Q63.0359,107.9221 62.3484,109.0002 Q61.6609,110.0627 61.6609,112.1565 Q61.6609,114.2502 62.3484,115.3283 Q63.0359,116.3908 64.3797,116.3908 Q65.0047,116.3908 65.5984,116.1252 Q66.1922,115.844 66.8172,115.2658 L66.8172,117.9846 Z " fill="#000000"/><text fill="#000000" font-family="sans-serif" font-size="14" lengthAdjust="spacing" textLength="83.8317" x="164.8825" y="110.9659">UserAccount</text><text fill="#000000" font-family="sans-serif" font-size="10" lengthAdjust="spacing" textLength="244.8998" x="84.3484" y="125.7579">com.hack23.cia.model.internal.application.user.impl</text><line style="stroke:#181818;stroke-width:0.5;" x1="7" x2="374.0967" y1="133.6879" y2="133.6879"/><polygon fill="none" points="17,143.7219,21,147.7219,17,151.7219,13,147.7219" style="stroke:#B38D22;stroke-width:1.0;"/><text fill="#000000" font-family="sans-serif" font-size="14" lengthAdjust="spacing" textLength="153.8874" x="26" y="152.6538">modelObjectId: Integer</text><polygon fill="none" points="17,162.7898,21,166.7898,17,170.7898,13,166.7898" style="stroke:#B38D22;stroke-width:1.0;"/><text fill="#000000" font-family="sans-serif" font-size="14" lengthAdjust="spacing" textLength="158.7314" x="26" y="171.7218">modelObjectVersion: int</text><polygon fill="none" points="17,181.8577,21,185.8577,17,189.8577,13,185.8577" style="stroke:#B38D22;stroke-width:1.0;"/><text fill="#000000" font-family="sans-serif" font-size="14" lengthAdjust="spacing" textLength="97.2576" x="26" y="190.7897">country: String</text><polygon fill="none" points="17,200.9256,21,204.9256,17,208.9256,13,204.9256" style="stroke:#B38D22;stroke-width:1.0;"/><text fill="#000000" font-family="sans-serif" font-size="14" lengthAdjust="spacing" textLength="113.3156" x="26" y="209.8576">username: String</text><polygon fill="none" points="17,219.9935,21,223.9935,17,227.9935,13,223.9935" style="stroke:#B38D22;stroke-width:1.0;"/><text fill="#000000" font-family="sans-serif" font-size="14" lengthAdjust="spacing" textLength="82.8517" x="26" y="228.9255">email: String</text><polygon fill="none" points="17,239.0614,21,243.0614,17,247.0614,13,243.0614" style="stroke:#B38D22;stroke-width:1.0;"/><text fill="#000000" font-family="sans-serif" font-size="14" lengthAdjust="spacing" textLength="89.1797" x="26" y="247.9934">userId: String</text><polygon fill="none" points="17,258.1294,21,262.1294,17,266.1294,13,262.1294" style="stroke:#B38D22;stroke-width:1.0;"/><text fill="#000000" font-family="sans-serif" font-size="14" lengthAdjust="spacing" textLength="139.5655" x="26" y="267.0613">userpassword: String</text><polygon fill="none" points="17,277.1973,21,281.1973,17,285.1973,13,281.1973" style="stroke:#B38D22;stroke-width:1.0;"/><text fill="#000000" font-family="sans-serif" font-size="14" lengthAdjust="spacing" textLength="158.5494" x="26" y="286.1293">numberOfVisits: Integer</text><polygon fill="none" points="17,296.2652,21,300.2652,17,304.2652,13,300.2652" style="stroke:#B38D22;stroke-width:1.0;"/><text fill="#000000" font-family="sans-serif" font-size="14" lengthAdjust="spacing" textLength="137.6755" x="26" y="305.1972">address: List&lt;String&gt;</text><polygon fill="none" points="17,315.3331,21,319.3331,17,323.3331,13,319.3331" style="stroke:#B38D22;stroke-width:1.0;"/><text fill="#000000" font-family="sans-serif" font-size="14" lengthAdjust="spacing" textLength="129.9055" x="26" y="324.2651">userType: UserType</text><polygon fill="none" points="17,334.401,21,338.401,17,342.401,13,338.401" style="stroke:#B38D22;stroke-width:1.0;"/><text fill="#000000" font-family="sans-serif" font-size="14" lengthAdjust="spacing" textLength="124.4175" x="26" y="343.333">userRole: UserRole</text><polygon fill="none" points="17,353.4689,21,357.4689,17,361.4689,13,357.4689" style="stroke:#B38D22;stroke-width:1.0;"/><text fill="#000000" font-family="sans-serif" font-size="14" lengthAdjust="spacing" textLength="209.0612" x="26" y="362.4009">userLockStatus: UserLockStatus</text><polygon fill="none" points="17,372.5369,21,376.5369,17,380.5369,13,376.5369" style="stroke:#B38D22;stroke-width:1.0;"/><text fill="#000000" font-family="sans-serif" font-size="14" lengthAdjust="spacing" textLength="220.9612" x="26" y="381.4688">userEmailStatus: UserEmailStatus</text><polygon fill="none" points="17,391.6048,21,395.6048,17,399.6048,13,395.6048" style="stroke:#B38D22;stroke-width:1.0;"/><text fill="#000000" font-family="sans-serif" font-size="14" lengthAdjust="spacing" textLength="119.2515" x="26" y="400.5368">createdDate: Date</text><polygon fill="none" points="17,410.6727,21,414.6727,17,418.6727,13,414.6727" style="stroke:#B38D22;stroke-width:1.0;"/><text fill="#000000" font-family="sans-serif" font-size="14" lengthAdjust="spacing" textLength="64.9457" x="26" y="419.6047">hjid: Long</text><line style="stroke:#181818;stroke-width:0.5;" x1="7" x2="374.0967" y1="427.7067" y2="427.7067"/><ellipse cx="17" cy="442.7406" fill="#84BE84" rx="3" ry="3" style="stroke:#038048;stroke-width:1.0;"/><text fill="#000000" font-family="sans-serif" font-size="14" lengthAdjust="spacing" textLength="183.4553" x="26" y="446.6726">getModelObjectId(): Integer</text><ellipse cx="17" cy="461.8085" fill="#84BE84" rx="3" ry="3" style="stroke:#038048;stroke-width:1.0;"/><text fill="#000000" font-family="sans-serif" font-size="14" lengthAdjust="spacing" textLength="209.3552" x="26" y="465.7405">setModelObjectId(Integer): void</text><ellipse cx="17" cy="480.8764" fill="#84BE84" rx="3" ry="3" style="stroke:#038048;stroke-width:1.0;"/><text fill="#000000" font-family="sans-serif" font-size="14" lengthAdjust="spacing" textLength="188.2993" x="26" y="484.8084">getModelObjectVersion(): int</text><ellipse cx="17" cy="499.9444" fill="#84BE84" rx="3" ry="3" style="stroke:#038048;stroke-width:1.0;"/><text fill="#000000" font-family="sans-serif" font-size="14" lengthAdjust="spacing" textLength="214.1992" x="26" y="503.8763">setModelObjectVersion(int): void</text><ellipse cx="17" cy="519.0123" fill="#84BE84" rx="3" ry="3" style="stroke:#038048;stroke-width:1.0;"/><text fill="#000000" font-family="sans-serif" font-size="14" lengthAdjust="spacing" textLength="129.3455" x="26" y="522.9443">getCountry(): String</text><ellipse cx="17" cy="538.0802" fill="#84BE84" rx="3" ry="3" style="stroke:#038048;stroke-width:1.0;"/><text fill="#000000" font-family="sans-serif" font-size="14" lengthAdjust="spacing" textLength="155.2454" x="26" y="542.0122">setCountry(String): void</text><ellipse cx="17" cy="557.1481" fill="#84BE84" rx="3" ry="3" style="stroke:#038048;stroke-width:1.0;"/><text fill="#000000" font-family="sans-serif" font-size="14" lengthAdjust="spacing" textLength="144.8575" x="26" y="561.0801">getUsername(): String</text><ellipse cx="17" cy="576.216" fill="#84BE84" rx="3" ry="3" style="stroke:#038048;stroke-width:1.0;"/><text fill="#000000" font-family="sans-serif" font-size="14" lengthAdjust="spacing" textLength="170.7574" x="26" y="580.148">setUsername(String): void</text><ellipse cx="17" cy="595.284" fill="#84BE84" rx="3" ry="3" style="stroke:#038048;stroke-width:1.0;"/><text fill="#000000" font-family="sans-serif" font-size="14" lengthAdjust="spacing" textLength="112.6996" x="26" y="599.2159">getEmail(): String</text><ellipse cx="17" cy="614.3519" fill="#84BE84" rx="3" ry="3" style="stroke:#038048;stroke-width:1.0;"/><text fill="#000000" font-family="sans-serif" font-size="14" lengthAdjust="spacing" textLength="138.5995" x="26" y="618.2838">setEmail(String): void</text><ellipse cx="17" cy="633.4198" fill="#84BE84" rx="3" ry="3" style="stroke:#038048;stroke-width:1.0;"/><text fill="#000000" font-family="sans-serif" font-size="14" lengthAdjust="spacing" textLength="120.7216" x="26" y="637.3518">getUserId(): String</text><ellipse cx="17" cy="652.4877" fill="#84BE84" rx="3" ry="3" style="stroke:#038048;stroke-width:1.0;"/><text fill="#000000" font-family="sans-serif" font-size="14" lengthAdjust="spacing" textLength="146.6215" x="26" y="656.4197">setUserId(String): void</text><ellipse cx="17" cy="671.5556" fill="#84BE84" rx="3" ry="3" style="stroke:#038048;stroke-width:1.0;"/><text fill="#000000" font-family="sans-serif" font-size="14" lengthAdjust="spacing" textLength="171.1074" x="26" y="675.4876">getUserpassword(): String</text><ellipse cx="17" cy="690.6235" fill="#84BE84" rx="3" ry="3" style="stroke:#038048;stroke-width:1.0;"/><text fill="#000000" font-family="sans-serif" font-size="14" lengthAdjust="spacing" textLength="197.0073" x="26" y="694.5555">setUserpassword(String): void</text><ellipse cx="17" cy="709.6915" fill="#84BE84" rx="3" ry="3" style="stroke:#038048;stroke-width:1.0;"/><text fill="#000000" font-family="sans-serif" font-size="14" lengthAdjust="spacing" textLength="190.4973" x="26" y="713.6234">getNumberOfVisits(): Integer</text><ellipse cx="17" cy="728.7594" fill="#84BE84" rx="3" ry="3" style="stroke:#038048;stroke-width:1.0;"/><text fill="#000000" font-family="sans-serif" font-size="14" lengthAdjust="spacing" textLength="216.3972" x="26" y="732.6913">setNumberOfVisits(Integer): void</text><ellipse cx="17" cy="747.8273" fill="#84BE84" rx="3" ry="3" style="stroke:#038048;stroke-width:1.0;"/><text fill="#000000" font-family="sans-serif" font-size="14" lengthAdjust="spacing" textLength="168.7274" x="26" y="751.7593">getAddress(): List&lt;String&gt;</text><ellipse cx="17" cy="766.8952" fill="#84BE84" rx="3" ry="3" style="stroke:#038048;stroke-width:1.0;"/><text fill="#000000" font-family="sans-serif" font-size="14" lengthAdjust="spacing" textLength="194.6273" x="26" y="770.8272">setAddress(List&lt;String&gt;): void</text><ellipse cx="17" cy="785.9631" fill="#84BE84" rx="3" ry="3" style="stroke:#038048;stroke-width:1.0;"/><text fill="#000000" font-family="sans-serif" font-size="14" lengthAdjust="spacing" textLength="161.4474" x="26" y="789.8951">getUserType(): UserType</text><ellipse cx="17" cy="805.031" fill="#84BE84" rx="3" ry="3" style="stroke:#038048;stroke-width:1.0;"/><text fill="#000000" font-family="sans-serif" font-size="14" lengthAdjust="spacing" textLength="187.3473" x="26" y="808.963">setUserType(UserType): void</text><ellipse cx="17" cy="824.099" fill="#84BE84" rx="3" ry="3" style="stroke:#038048;stroke-width:1.0;"/><text fill="#000000" font-family="sans-serif" font-size="14" lengthAdjust="spacing" textLength="155.9594" x="26" y="828.0309">getUserRole(): UserRole</text><ellipse cx="17" cy="843.1669" fill="#84BE84" rx="3" ry="3" style="stroke:#038048;stroke-width:1.0;"/><text fill="#000000" font-family="sans-serif" font-size="14" lengthAdjust="spacing" textLength="181.8593" x="26" y="847.0988">setUserRole(UserRole): void</text><ellipse cx="17" cy="862.2348" fill="#84BE84" rx="3" ry="3" style="stroke:#038048;stroke-width:1.0;"/><text fill="#000000" font-family="sans-serif" font-size="14" lengthAdjust="spacing" textLength="240.6031" x="26" y="866.1668">getUserLockStatus(): UserLockStatus</text><ellipse cx="17" cy="881.3027" fill="#84BE84" rx="3" ry="3" style="stroke:#038048;stroke-width:1.0;"/><text fill="#000000" font-family="sans-serif" font-size="14" lengthAdjust="spacing" textLength="266.503" x="26" y="885.2347">setUserLockStatus(UserLockStatus): void</text><ellipse cx="17" cy="900.3706" fill="#84BE84" rx="3" ry="3" style="stroke:#038048;stroke-width:1.0;"/><text fill="#000000" font-family="sans-serif" font-size="14" lengthAdjust="spacing" textLength="252.5031" x="26" y="904.3026">getUserEmailStatus(): UserEmailStatus</text><ellipse cx="17" cy="919.4385" fill="#84BE84" rx="3" ry="3" style="stroke:#038048;stroke-width:1.0;"/><text fill="#000000" font-family="sans-serif" font-size="14" lengthAdjust="spacing" textLength="278.403" x="26" y="923.3705">setUserEmailStatus(UserEmailStatus): void</text><ellipse cx="17" cy="938.5065" fill="#84BE84" rx="3" ry="3" style="stroke:#038048;stroke-width:1.0;"/><text fill="#000000" font-family="sans-serif" font-size="14" lengthAdjust="spacing" textLength="151.3394" x="26" y="942.4384">getCreatedDate(): Date</text><ellipse cx="17" cy="957.5744" fill="#84BE84" rx="3" ry="3" style="stroke:#038048;stroke-width:1.0;"/><text fill="#000000" font-family="sans-serif" font-size="14" lengthAdjust="spacing" textLength="177.2393" x="26" y="961.5063">setCreatedDate(Date): void</text><ellipse cx="17" cy="976.6423" fill="#84BE84" rx="3" ry="3" style="stroke:#038048;stroke-width:1.0;"/><text fill="#000000" font-family="sans-serif" font-size="14" lengthAdjust="spacing" textLength="274.049" x="26" y="980.5743">withModelObjectId(Integer): UserAccount</text><ellipse cx="17" cy="995.7102" fill="#84BE84" rx="3" ry="3" style="stroke:#038048;stroke-width:1.0;"/><text fill="#000000" font-family="sans-serif" font-size="14" lengthAdjust="spacing" textLength="278.8929" x="26" y="999.6422">withModelObjectVersion(int): UserAccount</text><ellipse cx="17" cy="1014.7781" fill="#84BE84" rx="3" ry="3" style="stroke:#038048;stroke-width:1.0;"/><text fill="#000000" font-family="sans-serif" font-size="14" lengthAdjust="spacing" textLength="219.9391" x="26" y="1018.7101">withCountry(String): UserAccount</text><ellipse cx="17" cy="1033.846" fill="#84BE84" rx="3" ry="3" style="stroke:#038048;stroke-width:1.0;"/><text fill="#000000" font-family="sans-serif" font-size="14" lengthAdjust="spacing" textLength="235.4511" x="26" y="1037.778">withUsername(String): UserAccount</text><ellipse cx="17" cy="1052.914" fill="#84BE84" rx="3" ry="3" style="stroke:#038048;stroke-width:1.0;"/><text fill="#000000" font-family="sans-serif" font-size="14" lengthAdjust="spacing" textLength="203.2932" x="26" y="1056.8459">withEmail(String): UserAccount</text><ellipse cx="17" cy="1071.9819" fill="#84BE84" rx="3" ry="3" style="stroke:#038048;stroke-width:1.0;"/><text fill="#000000" font-family="sans-serif" font-size="14" lengthAdjust="spacing" textLength="211.3152" x="26" y="1075.9138">withUserId(String): UserAccount</text><ellipse cx="17" cy="1091.0498" fill="#84BE84" rx="3" ry="3" style="stroke:#038048;stroke-width:1.0;"/><text fill="#000000" font-family="sans-serif" font-size="14" lengthAdjust="spacing" textLength="261.701" x="26" y="1094.9818">withUserpassword(String): UserAccount</text><ellipse cx="17" cy="1110.1177" fill="#84BE84" rx="3" ry="3" style="stroke:#038048;stroke-width:1.0;"/><text fill="#000000" font-family="sans-serif" font-size="14" lengthAdjust="spacing" textLength="281.0909" x="26" y="1114.0497">withNumberOfVisits(Integer): UserAccount</text><ellipse cx="17" cy="1129.1856" fill="#84BE84" rx="3" ry="3" style="stroke:#038048;stroke-width:1.0;"/><text fill="#000000" font-family="sans-serif" font-size="14" lengthAdjust="spacing" textLength="259.321" x="26" y="1133.1176">withAddress(List&lt;String&gt;): UserAccount</text><ellipse cx="17" cy="1148.2535" fill="#84BE84" rx="3" ry="3" style="stroke:#038048;stroke-width:1.0;"/><text fill="#000000" font-family="sans-serif" font-size="14" lengthAdjust="spacing" textLength="252.041" x="26" y="1152.1855">withUserType(UserType): UserAccount</text><ellipse cx="17" cy="1167.3215" fill="#84BE84" rx="3" ry="3" style="stroke:#038048;stroke-width:1.0;"/><text fill="#000000" font-family="sans-serif" font-size="14" lengthAdjust="spacing" textLength="246.553" x="26" y="1171.2534">withUserRole(UserRole): UserAccount</text><ellipse cx="17" cy="1186.3894" fill="#84BE84" rx="3" ry="3" style="stroke:#038048;stroke-width:1.0;"/><text fill="#000000" font-family="sans-serif" font-size="14" lengthAdjust="spacing" textLength="331.1967" x="26" y="1190.3214">withUserLockStatus(UserLockStatus): UserAccount</text><ellipse cx="17" cy="1205.4573" fill="#84BE84" rx="3" ry="3" style="stroke:#038048;stroke-width:1.0;"/><text fill="#000000" font-family="sans-serif" font-size="14" lengthAdjust="spacing" textLength="343.0967" x="26" y="1209.3893">withUserEmailStatus(UserEmailStatus): UserAccount</text><ellipse cx="17" cy="1224.5252" fill="#84BE84" rx="3" ry="3" style="stroke:#038048;stroke-width:1.0;"/><text fill="#000000" font-family="sans-serif" font-size="14" lengthAdjust="spacing" textLength="241.9331" x="26" y="1228.4572">withCreatedDate(Date): UserAccount</text><ellipse cx="17" cy="1243.5931" fill="#84BE84" rx="3" ry="3" style="stroke:#038048;stroke-width:1.0;"/><text fill="#000000" font-family="sans-serif" font-size="14" lengthAdjust="spacing" textLength="96.6276" x="26" y="1247.5251">getHjid(): Long</text><ellipse cx="17" cy="1262.661" fill="#84BE84" rx="3" ry="3" style="stroke:#038048;stroke-width:1.0;"/><text fill="#000000" font-family="sans-serif" font-size="14" lengthAdjust="spacing" textLength="122.5275" x="26" y="1266.593">setHjid(Long): void</text></g></a><!--class com.hack23.cia.model.common.api.ModelObject--><g id="elem_com.hack23.cia.model.common.api.ModelObject"><rect codeLine="75" fill="#F1F1F1" height="42.6879" id="com.hack23.cia.model.common.api.ModelObject" rx="2.5" ry="2.5" style="stroke:#181818;stroke-width:0.5;" width="189.3398" x="96" y="12"/><ellipse cx="111" cy="33.344" fill="#B4A7E5" rx="11" ry="11" style="stroke:#181818;stroke-width:1.0;"/><path d="M106.9219,29.1096 L106.9219,26.9533 L114.3125,26.9533 L114.3125,29.1096 L111.8438,29.1096 L111.8438,37.1877 L114.3125,37.1877 L114.3125,39.344 L106.9219,39.344 L106.9219,37.1877 L109.3906,37.1877 L109.3906,29.1096 L106.9219,29.1096 Z " fill="#000000"/><text fill="#000000" font-family="sans-serif" font-size="14" font-style="italic" lengthAdjust="spacing" textLength="78.1477" x="164.596" y="31.9659">ModelObject</text><text fill="#000000" font-family="sans-serif" font-size="10" font-style="italic" lengthAdjust="spacing" textLength="157.3398" x="125" y="46.7579">com.hack23.cia.model.common.api</text></g><polygon fill="none" points="190.5,55.3101,184.5,73.3101,196.5,73.3101,190.5,55.3101" style="stroke:#181818;stroke-width:1.0;"/><path d="M190.5,73.3101 C190.5,82.5098 190.5,76.5003 190.5,90.7549 " fill="none" style="stroke:#181818;stroke-width:1.0;stroke-dasharray:7.0,7.0;"/><text fill="#888888" font-family="sans-serif" font-size="10" lengthAdjust="spacing" textLength="2.6" x="185.7" y="1279.69">&#160;</text><a href="https://github.com/talsma-ict/umldoclet" target="_top" title="https://github.com/talsma-ict/umldoclet" xlink:actuate="onRequest" xlink:href="https://github.com/talsma-ict/umldoclet" xlink:show="new" xlink:title="https://github.com/talsma-ict/umldoclet" xlink:type="simple"><text fill="#888888" font-family="sans-serif" font-size="10" lengthAdjust="spacing" textLength="76.7199" x="148.64" y="1293.31">UMLDoclet 2.2.1</text></a><!--SRC=[fLTDSzis4BtdLsoJGvrn355CwZWQZsSqJgPnHqawaPIBeWD4GY9Y4c01q1wroN_lWXyII15ifzM18h5lt-u2-wWL0C3FS2lplUAxn82HO1AkOVbX1bJ4i6E2AMfO33oZEwPXmr8fThe2Cg25IQG2kIsV8gaKqxaKCHSx-8q-KD2oK17JvCaJA4Cj6lP7gXtspTuklfLHoWoStJvtKWg3yUL568IlO45JdL6ukrsGckte4vAGZ06vKnuneP6o435JPLhJd4RuDQiiB-21ASsbG9-Wvh6bHb8OoeM6d2gZRKc_frGOc-kOsFZaDPnDvxDsRi6RChSNC5M25Z5ybdyKXt9_oXNTOSOftSl2WCwOeO9MDer92vhXTj68pHa6fGPtKaZ1Idl2OmOioyqUjfobiUwk8baYSRbSZrAgDJozrlnFDXc_kbbgfgPH90jXlefwDRY9P4OI6js7Bqd4ASbap5B2XM6OUqfedkFcKODRGmhq9ppBqwU0v_GV_8YJ0QnMpXD9J9Qkr_1NcRZzF2i9Fss-iSZSnHEuG-OTKxtsBzNPJG337m4biTfFO6uKjjxHOFEnktngOHdbQR-3pQ5lFSSzVfIgnogARCFKf-qNhhdHFHNGE4Pbe6N6jRckt6_Qx8jzZcakwxksxRDCQvkzQzjcChgV6seANI6EpstSErkm2tGMd9rKp0hoBLucOAz7K_ADO-apwHH-lcFcWtjuPyzFYp_NNL2DGEo3vB6FhJvgI-aUTeUkGI6aZ- -swWnBqZaqozDOArEV_x9k80_1mUndABVPurxPXgDNc-g9ZSPXxwPd1pWE43_JnrP_-mwvWneuvMab1qlKAmZBrc1SWAzAgnXBTgAUfiOIqDpuMAos6fQMpXgM4j3S-5YE-ckuUXJPC3hWzgEFtH5jGz-duuRVXNUUUzLoLBzbR-c_r8jZjvSJZaTk4f_MdTy0hqDRpLwF4zrwaQS2zK8xOXoaT7Kt23mLbnVkbO_NmoEHmOIwIXW4Tnj-43pKouEEmqtgRuBJPkp5Ob-_nv-kycKZE- -_qc1NtKx-KSrKvO2pnUdCcQkSLlsdkGeNCvo8QCxzCzGHGnpcUgJxzmvm_PsG_pkbLL6ljTcdxFWctag91CwmPZ_liNNKZ8lxMvdYpFhigj-wj1DuoWN3eJ-w5zYf41oGFwfm8oTU7UkhMAqIOt8z6OrsUCx5nfOzCkNqVy4ZCogoDAx6_iuVWFMw7kX_FVopiDFvnJYy2AyMuyj9-78o3idbLVZwJVXB69m7uqaGhDuLIkPiD3VOiebCi_NV]--></g></svg>