<?xml version="1.0" encoding="UTF-8" standalone="no"?><svg xmlns="http://www.w3.org/2000/svg" xmlns:xlink="http://www.w3.org/1999/xlink" contentScriptType="application/ecmascript" contentStyleType="text/css" height="197px" preserveAspectRatio="none" style="width:293px;height:197px;" version="1.1" viewBox="0 0 293 197" width="293px" zoomAndPan="magnify"><defs><filter height="300%" id="f10skdk4o813d7" width="300%" x="-1" y="-1"><feGaussianBlur result="blurOut" stdDeviation="2.0"/><feColorMatrix in="blurOut" result="blurOut2" type="matrix" values="0 0 0 0 0 0 0 0 0 0 0 0 0 0 0 0 0 0 .4 0"/><feOffset dx="4.0" dy="4.0" in="blurOut2" result="blurOut3"/><feBlend in="SourceGraphic" in2="blurOut3" mode="normal"/></filter></defs><g><!--class com.hack23.cia.service.api.action.application.LoginResponse.ErrorMessage--><a href="LoginResponse.ErrorMessage.html" target="_top" xlink:actuate="onRequest" xlink:show="new" xlink:title="LoginResponse.ErrorMessage.html" xlink:type="simple"><rect fill="#FEFECE" filter="url(#f10skdk4o813d7)" height="58.7422" id="com.hack23.cia.service.api.action.application.LoginResponse.ErrorMessage" style="stroke: #A80036; stroke-width: 1.5;" width="276" x="6" y="106"/><ellipse cx="34.5" cy="124.9688" fill="#EB937F" rx="11" ry="11" style="stroke: #A80036; stroke-width: 1.0;"/><path d="M38.6094,130.9688 L30.8906,130.9688 L30.8906,118.5781 L38.6094,118.5781 L38.6094,120.7344 L33.3438,120.7344 L33.3438,123.4063 L38.1094,123.4063 L38.1094,125.5625 L33.3438,125.5625 L33.3438,128.8125 L38.6094,128.8125 L38.6094,130.9688 Z "/><text fill="#000000" font-family="sans-serif" font-size="14" lengthAdjust="spacingAndGlyphs" textLength="208" x="54.5" y="123.9951">LoginResponse.ErrorMessage</text><text fill="#000000" font-family="sans-serif" font-size="10" lengthAdjust="spacingAndGlyphs" textLength="214" x="51.5" y="136.5791">com.hack23.cia.service.api.action.application</text><line style="stroke: #A80036; stroke-width: 1.5;" x1="7" x2="281" y1="143.9375" y2="143.9375"/><ellipse cx="17" cy="155.8398" fill="none" rx="3" ry="3" style="stroke: #038048; stroke-width: 1.0;"/><text fill="#000000" font-family="sans-serif" font-size="11" lengthAdjust="spacingAndGlyphs" text-decoration="underline" textLength="250" x="26" y="158.1479">USERNAME_OR_PASSWORD_DO_NOT_MATCH</text></a><!--class com.hack23.cia.service.api.action.application.LoginResponse--><a href="LoginResponse.html" target="_top" xlink:actuate="onRequest" xlink:show="new" xlink:title="LoginResponse.html" xlink:type="simple"><rect fill="#FEFECE" filter="url(#f10skdk4o813d7)" height="37.9375" id="com.hack23.cia.service.api.action.application.LoginResponse" style="stroke: #A80036; stroke-width: 1.5;" width="246" x="21" y="8"/><ellipse cx="36" cy="26.9688" fill="#ADD1B2" rx="11" ry="11" style="stroke: #A80036; stroke-width: 1.0;"/><path d="M38.9688,32.6094 Q38.3906,32.9063 37.75,33.0469 Q37.1094,33.2031 36.4063,33.2031 Q33.9063,33.2031 32.5781,31.5625 Q31.2656,29.9063 31.2656,26.7813 Q31.2656,23.6563 32.5781,22 Q33.9063,20.3438 36.4063,20.3438 Q37.1094,20.3438 37.75,20.5 Q38.4063,20.6563 38.9688,20.9531 L38.9688,23.6719 Q38.3438,23.0938 37.75,22.8281 Q37.1563,22.5469 36.5313,22.5469 Q35.1875,22.5469 34.5,23.625 Q33.8125,24.6875 33.8125,26.7813 Q33.8125,28.875 34.5,29.9531 Q35.1875,31.0156 36.5313,31.0156 Q37.1563,31.0156 37.75,30.75 Q38.3438,30.4688 38.9688,29.8906 L38.9688,32.6094 Z "/><text fill="#000000" font-family="sans-serif" font-size="14" lengthAdjust="spacingAndGlyphs" textLength="108" x="103" y="25.9951">LoginResponse</text><text fill="#000000" font-family="sans-serif" font-size="10" lengthAdjust="spacingAndGlyphs" textLength="214" x="50" y="38.5791">com.hack23.cia.service.api.action.application</text></a><!--link com.hack23.cia.service.api.action.application.LoginResponse to com.hack23.cia.service.api.action.application.LoginResponse.ErrorMessage--><path d="M144,61.1734 C144,75.5357 144,92.0838 144,105.9146 " fill="none" id="com.hack23.cia.service.api.action.application.LoginResponse-com.hack23.cia.service.api.action.application.LoginResponse.ErrorMessage" style="stroke: #A80036; stroke-width: 1.0;"/><ellipse cx="144.0001" cy="54.1479" fill="#FFFFFF" rx="8" ry="8" style="stroke: #A80036; stroke-width: 1.0;"/><line style="stroke: #A80036; stroke-width: 1.0;" x1="144.0002" x2="144" y1="62.1479" y2="46.1479"/><line style="stroke: #A80036; stroke-width: 1.0;" x1="136.0001" x2="152.0001" y1="54.148" y2="54.1478"/><text fill="#888888" font-family="sans-serif" font-size="10" lengthAdjust="spacingAndGlyphs" textLength="186" x="57" y="184.2822">UMLDoclet 2.0.5, PlantUML 1.2019.08</text><!--
@startuml
    set namespaceSeparator none
    hide empty fields
    hide empty methods

    enum "<size:14>LoginResponse.ErrorMessage\n<size:10>com.hack23.cia.service.api.action.application" as com.hack23.cia.service.api.action.application.LoginResponse.ErrorMessage [[LoginResponse.ErrorMessage.html]] {
        {static} +USERNAME_OR_PASSWORD_DO_NOT_MATCH
    }

    class "<size:14>LoginResponse\n<size:10>com.hack23.cia.service.api.action.application" as com.hack23.cia.service.api.action.application.LoginResponse [[LoginResponse.html]]

    com.hack23.cia.service.api.action.application.LoginResponse +- - com.hack23.cia.service.api.action.application.LoginResponse.ErrorMessage

    center footer UMLDoclet 2.0.5, PlantUML 1.2019.08
@enduml

PlantUML version 1.2019.08(Sat Jul 13 21:25:14 CEST 2019)
(APACHE source distribution)
Java Runtime: OpenJDK Runtime Environment
JVM: OpenJDK 64-Bit Server VM
Java Version: 11.0.4+11-post-Ubuntu-1ubuntu219.04
Operating System: Linux
OS Version: 5.0.0-27-generic
Default Encoding: UTF-8
Language: en
Country: US
--></g></svg>