<?xml version="1.0" encoding="UTF-8" standalone="no"?><svg xmlns="http://www.w3.org/2000/svg" xmlns:xlink="http://www.w3.org/1999/xlink" contentScriptType="application/ecmascript" contentStyleType="text/css" height="197px" preserveAspectRatio="none" style="width:266px;height:197px;" version="1.1" viewBox="0 0 266 197" width="266px" zoomAndPan="magnify"><defs><filter height="300%" id="fceaktqou8e91" width="300%" x="-1" y="-1"><feGaussianBlur result="blurOut" stdDeviation="2.0"/><feColorMatrix in="blurOut" result="blurOut2" type="matrix" values="0 0 0 0 0 0 0 0 0 0 0 0 0 0 0 0 0 0 .4 0"/><feOffset dx="4.0" dy="4.0" in="blurOut2" result="blurOut3"/><feBlend in="SourceGraphic" in2="blurOut3" mode="normal"/></filter></defs><g><!--class com.hack23.cia.service.api.action.application.LogoutResponse--><a href="LogoutResponse.html" target="_top" xlink:actuate="onRequest" xlink:show="new" xlink:title="LogoutResponse.html" xlink:type="simple"><rect fill="#FEFECE" filter="url(#fceaktqou8e91)" height="58.7422" id="com.hack23.cia.service.api.action.application.LogoutResponse" style="stroke: #A80036; stroke-width: 1.5;" width="246" x="7.5" y="106"/><ellipse cx="22.5" cy="124.9688" fill="#ADD1B2" rx="11" ry="11" style="stroke: #A80036; stroke-width: 1.0;"/><path d="M25.4688,130.6094 Q24.8906,130.9063 24.25,131.0469 Q23.6094,131.2031 22.9063,131.2031 Q20.4063,131.2031 19.0781,129.5625 Q17.7656,127.9063 17.7656,124.7813 Q17.7656,121.6563 19.0781,120 Q20.4063,118.3438 22.9063,118.3438 Q23.6094,118.3438 24.25,118.5 Q24.9063,118.6563 25.4688,118.9531 L25.4688,121.6719 Q24.8438,121.0938 24.25,120.8281 Q23.6563,120.5469 23.0313,120.5469 Q21.6875,120.5469 21,121.625 Q20.3125,122.6875 20.3125,124.7813 Q20.3125,126.875 21,127.9531 Q21.6875,129.0156 23.0313,129.0156 Q23.6563,129.0156 24.25,128.75 Q24.8438,128.4688 25.4688,127.8906 L25.4688,130.6094 Z "/><text fill="#000000" font-family="sans-serif" font-size="14" lengthAdjust="spacingAndGlyphs" textLength="119" x="84" y="123.9951">LogoutResponse</text><text fill="#000000" font-family="sans-serif" font-size="10" lengthAdjust="spacingAndGlyphs" textLength="214" x="36.5" y="136.5791">com.hack23.cia.service.api.action.application</text><line style="stroke: #A80036; stroke-width: 1.5;" x1="8.5" x2="252.5" y1="143.9375" y2="143.9375"/><ellipse cx="18.5" cy="155.8398" fill="#84BE84" rx="3" ry="3" style="stroke: #038048; stroke-width: 1.0;"/><text fill="#000000" font-family="sans-serif" font-size="11" lengthAdjust="spacingAndGlyphs" textLength="179" x="27.5" y="158.1479">LogoutResponse(ServiceResult)</text></a><!--class com.hack23.cia.service.api.action.common.AbstractResponse--><a href="../common/AbstractResponse.html" target="_top" xlink:actuate="onRequest" xlink:show="new" xlink:title="../common/AbstractResponse.html" xlink:type="simple"><rect fill="#FEFECE" filter="url(#fceaktqou8e91)" height="37.9375" id="com.hack23.cia.service.api.action.common.AbstractResponse" style="stroke: #A80036; stroke-width: 1.5;" width="249" x="6" y="8"/><ellipse cx="21" cy="26.9688" fill="#A9DCDF" rx="11" ry="11" style="stroke: #A80036; stroke-width: 1.0;"/><path d="M21.1094,22.3125 L19.9531,27.3906 L22.2813,27.3906 L21.1094,22.3125 Z M19.625,20.0781 L22.6094,20.0781 L25.9688,32.4688 L23.5156,32.4688 L22.75,29.4063 L19.4688,29.4063 L18.7188,32.4688 L16.2813,32.4688 L19.625,20.0781 Z "/><text fill="#000000" font-family="sans-serif" font-size="14" font-style="italic" lengthAdjust="spacingAndGlyphs" textLength="126" x="80.5" y="25.9951">AbstractResponse</text><text fill="#000000" font-family="sans-serif" font-size="10" font-style="italic" lengthAdjust="spacingAndGlyphs" textLength="217" x="35" y="38.5791">com.hack23.cia.service.api.action.common</text></a><!--link com.hack23.cia.service.api.action.common.AbstractResponse to com.hack23.cia.service.api.action.application.LogoutResponse--><path d="M130.5,66.3533 C130.5,79.4123 130.5,93.7197 130.5,105.9146 " fill="none" id="com.hack23.cia.service.api.action.common.AbstractResponse-com.hack23.cia.service.api.action.application.LogoutResponse" style="stroke: #A80036; stroke-width: 1.0;"/><polygon fill="none" points="123.5001,66.1479,130.5,46.1479,137.5001,66.1478,123.5001,66.1479" style="stroke: #A80036; stroke-width: 1.0;"/><text fill="#888888" font-family="sans-serif" font-size="10" lengthAdjust="spacingAndGlyphs" textLength="186" x="43.5" y="184.2822">UMLDoclet 2.0.5, PlantUML 1.2019.08</text><!--
@startuml
    set namespaceSeparator none
    hide empty fields
    hide empty methods

    class "<size:14>LogoutResponse\n<size:10>com.hack23.cia.service.api.action.application" as com.hack23.cia.service.api.action.application.LogoutResponse [[LogoutResponse.html]] {
        +LogoutResponse(ServiceResult)
    }

    abstract class "<size:14>AbstractResponse\n<size:10>com.hack23.cia.service.api.action.common" as com.hack23.cia.service.api.action.common.AbstractResponse [[../common/AbstractResponse.html]]

    com.hack23.cia.service.api.action.common.AbstractResponse <|- - com.hack23.cia.service.api.action.application.LogoutResponse

    center footer UMLDoclet 2.0.5, PlantUML 1.2019.08
@enduml

PlantUML version 1.2019.08(Sat Jul 13 21:25:14 CEST 2019)
(APACHE source distribution)
Java Runtime: OpenJDK Runtime Environment
JVM: OpenJDK 64-Bit Server VM
Java Version: 11.0.4+11-post-Ubuntu-1ubuntu219.04
Operating System: Linux
OS Version: 5.0.0-27-generic
Default Encoding: UTF-8
Language: en
Country: US
--></g></svg>