<svg xmlns="http://www.w3.org/2000/svg" xmlns:xlink="http://www.w3.org/1999/xlink" contentStyleType="text/css" height="307px" preserveAspectRatio="none" style="width:289px;height:307px;background:#FFFFFF;" version="1.1" viewBox="0 0 289 307" width="289px" zoomAndPan="magnify"><defs/><g><!--class com.hack23.cia.service.api.action.application.RegisterUserResponse--><a href="RegisterUserResponse.html" target="_top" title="RegisterUserResponse.html" xlink:actuate="onRequest" xlink:href="RegisterUserResponse.html" xlink:show="new" xlink:title="RegisterUserResponse.html" xlink:type="simple"><g id="elem_com.hack23.cia.service.api.action.application.RegisterUserResponse"><rect codeLine="13" fill="#F1F1F1" height="107.8917" id="com.hack23.cia.service.api.action.application.RegisterUserResponse" rx="2.5" ry="2.5" style="stroke:#181818;stroke-width:0.5;" width="270.257" x="9" y="91"/><ellipse cx="36.5492" cy="112.344" fill="#ADD1B2" rx="11" ry="11" style="stroke:#181818;stroke-width:1.0;"/><path d="M39.518,117.9846 Q38.9398,118.2815 38.2992,118.4221 Q37.6586,118.5783 36.9555,118.5783 Q34.4555,118.5783 33.1273,116.9377 Q31.8148,115.2815 31.8148,112.1565 Q31.8148,109.0315 33.1273,107.3752 Q34.4555,105.719 36.9555,105.719 Q37.6586,105.719 38.2992,105.8752 Q38.9555,106.0315 39.518,106.3283 L39.518,109.0471 Q38.893,108.469 38.2992,108.2033 Q37.7055,107.9221 37.0805,107.9221 Q35.7367,107.9221 35.0492,109.0002 Q34.3617,110.0627 34.3617,112.1565 Q34.3617,114.2502 35.0492,115.3283 Q35.7367,116.3908 37.0805,116.3908 Q37.7055,116.3908 38.2992,116.1252 Q38.893,115.844 39.518,115.2658 L39.518,117.9846 Z " fill="#000000"/><text fill="#000000" font-family="sans-serif" font-size="14" lengthAdjust="spacing" textLength="148.5254" x="84.2602" y="110.9659">RegisterUserResponse</text><text fill="#000000" font-family="sans-serif" font-size="10" lengthAdjust="spacing" textLength="210.3699" x="53.3379" y="125.7579">com.hack23.cia.service.api.action.application</text><line style="stroke:#181818;stroke-width:0.5;" x1="10" x2="278.257" y1="133.6879" y2="133.6879"/><ellipse cx="20" cy="148.7219" fill="#84BE84" rx="3" ry="3" style="stroke:#038048;stroke-width:1.0;"/><text fill="#000000" font-family="sans-serif" font-size="14" lengthAdjust="spacing" textLength="244.257" x="29" y="152.6538">RegisterUserResponse(ServiceResult)</text><ellipse cx="20" cy="167.7898" fill="#84BE84" rx="3" ry="3" style="stroke:#038048;stroke-width:1.0;"/><text fill="#000000" font-family="sans-serif" font-size="14" lengthAdjust="spacing" textLength="205.0152" x="29" y="171.7218">getUserAccount(): UserAccount</text><ellipse cx="20" cy="186.8577" fill="#84BE84" rx="3" ry="3" style="stroke:#038048;stroke-width:1.0;"/><text fill="#000000" font-family="sans-serif" font-size="14" lengthAdjust="spacing" textLength="230.9151" x="29" y="190.7897">setUserAccount(UserAccount): void</text></g></a><!--class com.hack23.cia.service.api.action.common.AbstractResponse--><a href="../common/AbstractResponse.html" target="_top" title="../common/AbstractResponse.html" xlink:actuate="onRequest" xlink:href="../common/AbstractResponse.html" xlink:show="new" xlink:title="../common/AbstractResponse.html" xlink:type="simple"><g id="elem_com.hack23.cia.service.api.action.common.AbstractResponse"><rect codeLine="19" fill="#F1F1F1" height="42.6879" id="com.hack23.cia.service.api.action.common.AbstractResponse" rx="2.5" ry="2.5" style="stroke:#181818;stroke-width:0.5;" width="221.7498" x="33" y="12"/><ellipse cx="48" cy="33.344" fill="#A9DCDF" rx="11" ry="11" style="stroke:#181818;stroke-width:1.0;"/><path d="M48.1094,28.6877 L46.9531,33.7658 L49.2813,33.7658 L48.1094,28.6877 Z M46.625,26.4533 L49.6094,26.4533 L52.9688,38.844 L50.5156,38.844 L49.75,35.7815 L46.4688,35.7815 L45.7188,38.844 L43.2813,38.844 L46.625,26.4533 Z " fill="#000000"/><text fill="#000000" font-family="sans-serif" font-size="14" font-style="italic" lengthAdjust="spacing" textLength="109.3676" x="102.1911" y="31.9659">AbstractResponse</text><text fill="#000000" font-family="sans-serif" font-size="10" font-style="italic" lengthAdjust="spacing" textLength="189.7498" x="62" y="46.7579">com.hack23.cia.service.api.action.common</text></g></a><!--class com.hack23.cia.service.api.action.application.RegisterUserResponse.ErrorMessage--><a href="RegisterUserResponse.ErrorMessage.html" target="_top" title="RegisterUserResponse.ErrorMessage.html" xlink:actuate="onRequest" xlink:href="RegisterUserResponse.ErrorMessage.html" xlink:show="new" xlink:title="RegisterUserResponse.ErrorMessage.html" xlink:type="simple"><g id="elem_com.hack23.cia.service.api.action.application.RegisterUserResponse.ErrorMessage"><rect codeLine="20" fill="#F1F1F1" height="42.6879" id="com.hack23.cia.service.api.action.application.RegisterUserResponse.ErrorMessage" rx="2.5" ry="2.5" style="stroke:#181818;stroke-width:0.5;" width="276.2431" x="6" y="235"/><ellipse cx="21" cy="256.344" fill="#EB937F" rx="11" ry="11" style="stroke:#181818;stroke-width:1.0;"/><path d="M25.1094,262.344 L17.3906,262.344 L17.3906,249.9533 L25.1094,249.9533 L25.1094,252.1096 L19.8438,252.1096 L19.8438,254.7815 L24.6094,254.7815 L24.6094,256.9377 L19.8438,256.9377 L19.8438,260.1877 L25.1094,260.1877 L25.1094,262.344 Z " fill="#000000"/><text fill="#000000" font-family="sans-serif" font-size="14" lengthAdjust="spacing" textLength="244.2431" x="35" y="254.9659">RegisterUserResponse.ErrorMessage</text><text fill="#000000" font-family="sans-serif" font-size="10" lengthAdjust="spacing" textLength="210.3699" x="51.9366" y="269.7579">com.hack23.cia.service.api.action.application</text></g></a><polygon fill="none" points="144,55.0961,138,73.0961,150,73.0961,144,55.0961" style="stroke:#181818;stroke-width:1.0;"/><path d="M144,73.0961 C144,83.2563 144,78.0291 144,90.6985 " fill="none" style="stroke:#181818;stroke-width:1.0;"/><ellipse cx="144" cy="207.1462" fill="#FFFFFF" rx="8" ry="8" style="stroke:#181818;stroke-width:1.0;"/><line style="stroke:#181818;stroke-width:1.0;" x1="144" x2="144" y1="215.1462" y2="199.1462"/><line style="stroke:#181818;stroke-width:1.0;" x1="136" x2="152" y1="207.1462" y2="207.1462"/><path d="M144,215.1462 C144,227.8969 144,224.7637 144,234.9772 " fill="none" style="stroke:#181818;stroke-width:1.0;"/><text fill="#888888" font-family="sans-serif" font-size="10" lengthAdjust="spacing" textLength="2.6" x="139.2" y="282.69">&#160;</text><a href="https://github.com/talsma-ict/umldoclet" target="_top" title="https://github.com/talsma-ict/umldoclet" xlink:actuate="onRequest" xlink:href="https://github.com/talsma-ict/umldoclet" xlink:show="new" xlink:title="https://github.com/talsma-ict/umldoclet" xlink:type="simple"><text fill="#888888" font-family="sans-serif" font-size="10" lengthAdjust="spacing" textLength="76.7199" x="102.14" y="296.31">UMLDoclet 2.2.1</text></a><!--SRC=[nLNVJzim47xVNt5Z3nH1dJJ0nYg4L7LeFrIaYPQdmeFh78bLnyvifrEtyR_lyeEITfrW26b-YUtxxkwxp_O5060NXYPVMfca7hm1dqe7LnSZu3g613LQxZ46cV447SnG6Psu6eZ02vyQ2-QsMWbZBRhSw5Zg1Bxm1GTd2YlGiLUle4erkO_-dRjMzDcotFnWX48FdU5UYr8Kzjvsep0wWWbNBkFmUJXXJRG7duX5h0SKMqc1sb78GiTeArg3d0lwZ6hB0IpGEcaq-OHDdB9KORJdKZl8kVMkBEchujgNN7kipC_UGMSm7grp2zzNt0vWO3KlOhWqtufLkQzponDYhFZI51vSXfvhNjiSaTOy8xcum35IKkv9IMqqLlPKnWYOvNu9jn9Lx3PtALXgQBlQ5uex1pkdJlx0Vk_ex18JwJpQAuVsiZeIXzUwCOTdmcGivM8U7J8XEIFGWiHXF9UC2q_Qq3Gd9Navtm4wgd_oODlImtIwRPkbFbCtD_2pggCS-zjWdN6TaTQ5ydiFu0HzYHi8OGhjEtjzQ2qVO6uTrfgJnyB8k8BUrMhocVEMolf3ra5ZU9QaXCYUh6ODPfi9IKJ6WjeOR1eRAQiIK1VP8_U1dLjhx0KwHo_xFr-EDIv_kobjp7sjzUr_jfodlxhT5w3_H1QFFf7z5s6p9bIjqAdpIuLdg_TmQmmvjHvTEJujSxGZgUT3ewWLlJdPRhqg6wkI6gcNYxccD12ka7Trkg2LhybrhQVJrFlSzOCWaJujPkMf1BvgwbqfV51aAgwx-KPVR-xqBdnS_J3AfjljHTqeclHE-k5HFoJSyV5XT4XZF-prmt1wNbYJOp3sHinJexARtm00]--></g></svg>