<svg xmlns="http://www.w3.org/2000/svg" xmlns:xlink="http://www.w3.org/1999/xlink" contentStyleType="text/css" height="236px" preserveAspectRatio="none" style="width:588px;height:236px;background:#FFFFFF;" version="1.1" viewBox="0 0 588 236" width="588px" zoomAndPan="magnify"><defs/><g><!--class com.hack23.cia.web.impl.ui.application.views.user.ballot.pagemode.BallotChartsPageModContentFactoryImpl--><a href="BallotChartsPageModContentFactoryImpl.html" target="_top" title="BallotChartsPageModContentFactoryImpl.html" xlink:actuate="onRequest" xlink:href="BallotChartsPageModContentFactoryImpl.html" xlink:show="new" xlink:title="BallotChartsPageModContentFactoryImpl.html" xlink:type="simple"><g id="elem_com.hack23.cia.web.impl.ui.application.views.user.ballot.pagemode.BallotChartsPageModContentFactoryImpl"><rect codeLine="13" fill="#F1F1F1" height="88.8237" id="com.hack23.cia.web.impl.ui.application.views.user.ballot.pagemode.BallotChartsPageModContentFactoryImpl" rx="2.5" ry="2.5" style="stroke:#181818;stroke-width:0.5;" width="350.3397" x="116.5" y="118"/><ellipse cx="131.5" cy="139.344" fill="#ADD1B2" rx="11" ry="11" style="stroke:#181818;stroke-width:1.0;"/><path d="M134.4688,144.9846 Q133.8906,145.2815 133.25,145.4221 Q132.6094,145.5783 131.9063,145.5783 Q129.4063,145.5783 128.0781,143.9377 Q126.7656,142.2815 126.7656,139.1565 Q126.7656,136.0315 128.0781,134.3752 Q129.4063,132.719 131.9063,132.719 Q132.6094,132.719 133.25,132.8752 Q133.9063,133.0315 134.4688,133.3283 L134.4688,136.0471 Q133.8438,135.469 133.25,135.2033 Q132.6563,134.9221 132.0313,134.9221 Q130.6875,134.9221 130,136.0002 Q129.3125,137.0627 129.3125,139.1565 Q129.3125,141.2502 130,142.3283 Q130.6875,143.3908 132.0313,143.3908 Q132.6563,143.3908 133.25,143.1252 Q133.8438,142.844 134.4688,142.2658 L134.4688,144.9846 Z " fill="#000000"/><text fill="#000000" font-family="sans-serif" font-size="14" lengthAdjust="spacing" textLength="274.175" x="167.5824" y="137.9659">BallotChartsPageModContentFactoryImpl</text><text fill="#000000" font-family="sans-serif" font-size="10" lengthAdjust="spacing" textLength="318.3397" x="145.5" y="152.7579">com.hack23.cia.web.impl.ui.application.views.user.ballot.pagemode</text><line style="stroke:#181818;stroke-width:0.5;" x1="117.5" x2="465.8397" y1="160.6879" y2="160.6879"/><ellipse cx="127.5" cy="175.7219" fill="#84BE84" rx="3" ry="3" style="stroke:#038048;stroke-width:1.0;"/><text fill="#000000" font-family="sans-serif" font-size="14" lengthAdjust="spacing" textLength="305.4228" x="136.5" y="179.6538">createContent(String, MenuBar, Panel): Layout</text><ellipse cx="127.5" cy="194.7898" fill="#84BE84" rx="3" ry="3" style="stroke:#038048;stroke-width:1.0;"/><text fill="#000000" font-family="sans-serif" font-size="14" lengthAdjust="spacing" textLength="211.5112" x="136.5" y="198.7218">matches(String, String): boolean</text></g></a><!--class com.hack23.cia.web.impl.ui.application.views.common.pagemode.AbstractItemPageModContentFactoryImpl--><a href="../../../common/pagemode/AbstractItemPageModContentFactoryImpl.html" target="_top" title="../../../common/pagemode/AbstractItemPageModContentFactoryImpl.html" xlink:actuate="onRequest" xlink:href="../../../common/pagemode/AbstractItemPageModContentFactoryImpl.html" xlink:show="new" xlink:title="../../../common/pagemode/AbstractItemPageModContentFactoryImpl.html" xlink:type="simple"><g id="elem_com.hack23.cia.web.impl.ui.application.views.common.pagemode.AbstractItemPageModContentFactoryImpl"><rect codeLine="18" fill="#F1F1F1" height="69.7558" id="com.hack23.cia.web.impl.ui.application.views.common.pagemode.AbstractItemPageModContentFactoryImpl" rx="2.5" ry="2.5" style="stroke:#181818;stroke-width:0.5;" width="571.0014" x="6" y="12"/><ellipse cx="21" cy="33.344" fill="#A9DCDF" rx="11" ry="11" style="stroke:#181818;stroke-width:1.0;"/><path d="M21.1094,28.6877 L19.9531,33.7658 L22.2813,33.7658 L21.1094,28.6877 Z M19.625,26.4533 L22.6094,26.4533 L25.9688,38.844 L23.5156,38.844 L22.75,35.7815 L19.4688,35.7815 L18.7188,38.844 L16.2813,38.844 L19.625,26.4533 Z " fill="#000000"/><text fill="#000000" font-family="sans-serif" font-size="14" font-style="italic" lengthAdjust="spacing" textLength="261.057" x="50.9813" y="31.9659">AbstractItemPageModContentFactoryImpl</text><text fill="#000000" font-family="sans-serif" font-size="10" font-style="italic" lengthAdjust="spacing" textLength="293.0197" x="35" y="46.7579">com.hack23.cia.web.impl.ui.application.views.common.pagemode</text><rect fill="#FFFFFF" height="18.3441" style="stroke:#181818;stroke-width:1.0;stroke-dasharray:2.0,2.0;" width="243.9817" x="336.0197" y="9"/><text fill="#000000" font-family="sans-serif" font-size="12" font-style="italic" lengthAdjust="spacing" textLength="241.9817" x="337.0197" y="22.8281">List&lt;ViewRiksdagenVoteDataBallotSummary&gt;</text><line style="stroke:#181818;stroke-width:0.5;" x1="7" x2="576.0014" y1="54.6879" y2="54.6879"/><polygon fill="#FFFF44" points="17,64.7219,21,68.7219,17,72.7219,13,68.7219" style="stroke:#B38D22;stroke-width:1.0;"/><text fill="#000000" font-family="sans-serif" font-size="14" font-style="italic" lengthAdjust="spacing" textLength="382.9264" x="26" y="73.6538">getItem(String): List&lt;ViewRiksdagenVoteDataBallotSummary&gt;</text></g></a><polygon fill="none" points="291.5,82.0537,285.5,100.0537,297.5,100.0537,291.5,82.0537" style="stroke:#181818;stroke-width:1.0;"/><path d="M291.5,100.0537 C291.5,111.2849 291.5,105.9359 291.5,117.7854 " fill="none" style="stroke:#181818;stroke-width:1.0;"/><text fill="#888888" font-family="sans-serif" font-size="10" lengthAdjust="spacing" textLength="2.6" x="286.7" y="211.69">&#160;</text><a href="https://github.com/talsma-ict/umldoclet" target="_top" title="https://github.com/talsma-ict/umldoclet" xlink:actuate="onRequest" xlink:href="https://github.com/talsma-ict/umldoclet" xlink:show="new" xlink:title="https://github.com/talsma-ict/umldoclet" xlink:type="simple"><text fill="#888888" font-family="sans-serif" font-size="10" lengthAdjust="spacing" textLength="76.7199" x="249.64" y="225.31">UMLDoclet 2.2.1</text></a><!--SRC=[lLLTJ-9057ttLzpLXzK8qu9VI0W9udwumSI8-e8yNDehdJ2TwSvCDQphVz_R5f7LVI3xrP2GpjmvvznpXWi0m7lecsnkvJJnu0tuH3guFXy0wXYcfCcYfnXaYbDoC25bzDHLXGIO-yHOC7VbMsIi9PSP7KizXIzuZ-1CRYDoOcC3IgghP_G7T2leatcnU6eYHHws-pihaffXux3U39i7S8NAfGXd_IknG7ivqnHDqG36LZ8YxHWorp7PKbOlmuY_1jLE3Ux9EcaqdmaNE4MhaT4UfNQGeVMkQEb2eVQ5rePW_drn1DkzuU1dRU5ngQq6FQinZ-7IVCsNxRxBB4vPiSAvoJsub3nghFOSYzQOibqOqP2O53qxgOscSZ-HCG6bcP_3dIGLkzUh39OONYxN8uNEmMR7oM_KRkntJr0fu_j9qSe51tTkuZxtHzf_n8XvvcTffcxreZxiHYOL2KQpvfw898e7cWZ95IAN0hECFKNFZebxIGzEv8wic9GC8cFmrCIq2Ppd7wE8jNJ3QBHMdKXygiPZU2mjAfxTo1BVjqNfzj1RlgWrE2UTdw2jmGLgKZjj69I1lHnBqVCDSii3rJSNJenHXBgiVAgYm8dpbaMyoQIts3ZpbFxrJBWuvPVVZ-CLW5XBRMSWdU_SCC2bdBcOo_IDyNIA7gk4XdcQefrtkvoP447rgQY2PwfWBQgtOJu-E_q4MrCgJsylWrbNs6fo_zulw7olr__NpwHggkFyN55twTgTOH_iYet5ytcUaHr8FUiRnKDeg_NhtUjYf2gfYQTuDDF4rpjSLZvLTC4AtuBhLez6YVUPQmV1LFeadnJk1RuSvtKP-I1FLLpDyLSJVJnUJEXFox-AOjpMmwDwO- -g4RR3u_P-I-otZW-F3ex2rcxOR8VXw4DkJKR1q9jebXYLZdy0]--></g></svg>