<svg xmlns="http://www.w3.org/2000/svg" xmlns:xlink="http://www.w3.org/1999/xlink" contentStyleType="text/css" height="755px" preserveAspectRatio="none" style="width:1041px;height:755px;background:#FFFFFF;" version="1.1" viewBox="0 0 1041 755" width="1041px" zoomAndPan="magnify"><defs/><g><!--cluster com.hack23.cia.web.impl.ui.application.views.user.ballot.pagemode--><g id="cluster_com.hack23.cia.web.impl.ui.application.views.user.ballot.pagemode"><path d="M16.5,117 L493.6381,117 A3.75,3.75 0 0 1 496.1381,119.5 L503.1381,142.0679 L1031.5,142.0679 A2.5,2.5 0 0 1 1034,144.5679 L1034,715.5 A2.5,2.5 0 0 1 1031.5,718 L16.5,718 A2.5,2.5 0 0 1 14,715.5 L14,119.5 A2.5,2.5 0 0 1 16.5,117 " fill="none" style="stroke:#000000;stroke-width:1.5;"/><line style="stroke:#000000;stroke-width:1.5;" x1="14" x2="503.1381" y1="142.0679" y2="142.0679"/><text fill="#000000" font-family="sans-serif" font-size="14" font-weight="bold" lengthAdjust="spacing" textLength="476.1381" x="18" y="133.9659">com.hack23.cia.web.impl.ui.application.views.user.ballot.pagemode</text></g><!--cluster com.hack23.cia.web.impl.ui.application.views.common.pagemode--><g id="cluster_com.hack23.cia.web.impl.ui.application.views.common.pagemode"><path d="M291.5,4 L754.4841,4 A3.75,3.75 0 0 1 756.9841,6.5 L763.9841,29.0679 L763.5,29.0679 A2.5,2.5 0 0 1 766,31.5679 L766,106.5 A2.5,2.5 0 0 1 763.5,109 L291.5,109 A2.5,2.5 0 0 1 289,106.5 L289,6.5 A2.5,2.5 0 0 1 291.5,4 " fill="none" style="stroke:#000000;stroke-width:1.5;"/><line style="stroke:#000000;stroke-width:1.5;" x1="289" x2="763.9841" y1="29.0679" y2="29.0679"/><text fill="#000000" font-family="sans-serif" font-size="14" font-weight="bold" lengthAdjust="spacing" textLength="461.9841" x="293" y="20.9659">com.hack23.cia.web.impl.ui.application.views.common.pagemode</text></g><!--class BallotChartsPageModContentFactoryImpl--><a href="BallotChartsPageModContentFactoryImpl.html" target="_top" title="BallotChartsPageModContentFactoryImpl.html" xlink:actuate="onRequest" xlink:href="BallotChartsPageModContentFactoryImpl.html" xlink:show="new" xlink:title="BallotChartsPageModContentFactoryImpl.html" xlink:type="simple"><g id="elem_BallotChartsPageModContentFactoryImpl"><rect codeLine="12" fill="#F1F1F1" height="86.1358" id="BallotChartsPageModContentFactoryImpl" rx="2.5" ry="2.5" style="stroke:#181818;stroke-width:0.5;" width="331.4228" x="694.5" y="385.5"/><ellipse cx="720.8615" cy="401.5" fill="#ADD1B2" rx="11" ry="11" style="stroke:#181818;stroke-width:1.0;"/><path d="M723.8303,407.1406 Q723.2521,407.4375 722.6115,407.5781 Q721.9709,407.7344 721.2678,407.7344 Q718.7678,407.7344 717.4396,406.0938 Q716.1271,404.4375 716.1271,401.3125 Q716.1271,398.1875 717.4396,396.5313 Q718.7678,394.875 721.2678,394.875 Q721.9709,394.875 722.6115,395.0313 Q723.2678,395.1875 723.8303,395.4844 L723.8303,398.2031 Q723.2053,397.625 722.6115,397.3594 Q722.0178,397.0781 721.3928,397.0781 Q720.049,397.0781 719.3615,398.1563 Q718.674,399.2188 718.674,401.3125 Q718.674,403.4063 719.3615,404.4844 Q720.049,405.5469 721.3928,405.5469 Q722.0178,405.5469 722.6115,405.2813 Q723.2053,405 723.8303,404.4219 L723.8303,407.1406 Z " fill="#000000"/><text fill="#000000" font-family="sans-serif" font-size="14" lengthAdjust="spacing" textLength="274.175" x="737.3863" y="406.932">BallotChartsPageModContentFactoryImpl</text><line style="stroke:#181818;stroke-width:0.5;" x1="695.5" x2="1024.9228" y1="417.5" y2="417.5"/><line style="stroke:#181818;stroke-width:0.5;" x1="695.5" x2="1024.9228" y1="425.5" y2="425.5"/><ellipse cx="705.5" cy="440.534" fill="#84BE84" rx="3" ry="3" style="stroke:#038048;stroke-width:1.0;"/><text fill="#000000" font-family="sans-serif" font-size="14" lengthAdjust="spacing" textLength="305.4228" x="714.5" y="444.4659">createContent(String, MenuBar, Panel): Layout</text><ellipse cx="705.5" cy="459.6019" fill="#84BE84" rx="3" ry="3" style="stroke:#038048;stroke-width:1.0;"/><text fill="#000000" font-family="sans-serif" font-size="14" lengthAdjust="spacing" textLength="211.5112" x="714.5" y="463.5339">matches(String, String): boolean</text></g></a><!--class BallotViewConstants--><a href="BallotViewConstants.html" target="_top" title="BallotViewConstants.html" xlink:actuate="onRequest" xlink:href="BallotViewConstants.html" xlink:show="new" xlink:title="BallotViewConstants.html" xlink:type="simple"><g id="elem_BallotViewConstants"><rect codeLine="17" fill="#F1F1F1" height="562.8338" id="BallotViewConstants" rx="2.5" ry="2.5" style="stroke:#181818;stroke-width:0.5;" width="304.6129" x="371.5" y="147"/><ellipse cx="456.4517" cy="163" fill="#B4A7E5" rx="11" ry="11" style="stroke:#181818;stroke-width:1.0;"/><path d="M452.3736,158.7656 L452.3736,156.6094 L459.7642,156.6094 L459.7642,158.7656 L457.2955,158.7656 L457.2955,166.8438 L459.7642,166.8438 L459.7642,169 L452.3736,169 L452.3736,166.8438 L454.8423,166.8438 L454.8423,158.7656 L452.3736,158.7656 Z " fill="#000000"/><text fill="#000000" font-family="sans-serif" font-size="14" font-style="italic" lengthAdjust="spacing" textLength="126.2095" x="476.9517" y="168.432">BallotViewConstants</text><line style="stroke:#181818;stroke-width:0.5;" x1="372.5" x2="675.1129" y1="179" y2="179"/><ellipse cx="382.5" cy="194.034" fill="none" rx="3" ry="3" style="stroke:#038048;stroke-width:1.0;"/><text fill="#000000" font-family="sans-serif" font-size="14" lengthAdjust="spacing" text-decoration="underline" textLength="252.853" x="391.5" y="197.9659">OVERVIEW_MAIN_TITLE_PREFIX: String</text><ellipse cx="382.5" cy="213.1019" fill="none" rx="3" ry="3" style="stroke:#038048;stroke-width:1.0;"/><text fill="#000000" font-family="sans-serif" font-size="14" lengthAdjust="spacing" text-decoration="underline" textLength="254.953" x="391.5" y="217.0339">OVERVIEW_PAGE_DESCRIPTION: String</text><ellipse cx="382.5" cy="232.1698" fill="none" rx="3" ry="3" style="stroke:#038048;stroke-width:1.0;"/><text fill="#000000" font-family="sans-serif" font-size="14" lengthAdjust="spacing" text-decoration="underline" textLength="256.955" x="391.5" y="236.1018">OVERVIEW_CARD_BALLOT_INFO: String</text><ellipse cx="382.5" cy="251.2377" fill="none" rx="3" ry="3" style="stroke:#038048;stroke-width:1.0;"/><text fill="#000000" font-family="sans-serif" font-size="14" lengthAdjust="spacing" text-decoration="underline" textLength="278.6129" x="391.5" y="255.1697">OVERVIEW_CARD_BALLOT_PROFILE: String</text><ellipse cx="382.5" cy="270.3056" fill="none" rx="3" ry="3" style="stroke:#038048;stroke-width:1.0;"/><text fill="#000000" font-family="sans-serif" font-size="14" lengthAdjust="spacing" text-decoration="underline" textLength="264.515" x="391.5" y="274.2376">OVERVIEW_CARD_VOTING_STATS: String</text><ellipse cx="382.5" cy="289.3735" fill="none" rx="3" ry="3" style="stroke:#038048;stroke-width:1.0;"/><text fill="#000000" font-family="sans-serif" font-size="14" lengthAdjust="spacing" text-decoration="underline" textLength="261.463" x="391.5" y="293.3055">GRID_PARTY_BALLOT_SUMMARY: String</text><ellipse cx="382.5" cy="308.4415" fill="none" rx="3" ry="3" style="stroke:#038048;stroke-width:1.0;"/><text fill="#000000" font-family="sans-serif" font-size="14" lengthAdjust="spacing" text-decoration="underline" textLength="231.9091" x="391.5" y="312.3734">GRID_EMBEDDED_ID_PARTY: String</text><ellipse cx="382.5" cy="327.5094" fill="none" rx="3" ry="3" style="stroke:#038048;stroke-width:1.0;"/><text fill="#000000" font-family="sans-serif" font-size="14" lengthAdjust="spacing" text-decoration="underline" textLength="166.2073" x="391.5" y="331.4414">FIELD_VOTE_DATE: String</text><ellipse cx="382.5" cy="346.5773" fill="none" rx="3" ry="3" style="stroke:#038048;stroke-width:1.0;"/><text fill="#000000" font-family="sans-serif" font-size="14" lengthAdjust="spacing" text-decoration="underline" textLength="125.7895" x="391.5" y="350.5093">FIELD_TITLE: String</text><ellipse cx="382.5" cy="365.6452" fill="none" rx="3" ry="3" style="stroke:#038048;stroke-width:1.0;"/><text fill="#000000" font-family="sans-serif" font-size="14" lengthAdjust="spacing" text-decoration="underline" textLength="152.8094" x="391.5" y="369.5772">FIELD_SUBTITLE: String</text><ellipse cx="382.5" cy="384.7131" fill="none" rx="3" ry="3" style="stroke:#038048;stroke-width:1.0;"/><text fill="#000000" font-family="sans-serif" font-size="14" lengthAdjust="spacing" text-decoration="underline" textLength="194.1372" x="391.5" y="388.6451">FIELD_DECISION_TYPE: String</text><ellipse cx="382.5" cy="403.781" fill="none" rx="3" ry="3" style="stroke:#038048;stroke-width:1.0;"/><text fill="#000000" font-family="sans-serif" font-size="14" lengthAdjust="spacing" text-decoration="underline" textLength="156.7574" x="391.5" y="407.713">FIELD_CONCERN: String</text><ellipse cx="382.5" cy="422.849" fill="none" rx="3" ry="3" style="stroke:#038048;stroke-width:1.0;"/><text fill="#000000" font-family="sans-serif" font-size="14" lengthAdjust="spacing" text-decoration="underline" textLength="179.9693" x="391.5" y="426.7809">FIELD_BALLOT_TYPE: String</text><ellipse cx="382.5" cy="441.9169" fill="none" rx="3" ry="3" style="stroke:#038048;stroke-width:1.0;"/><text fill="#000000" font-family="sans-serif" font-size="14" lengthAdjust="spacing" text-decoration="underline" textLength="145.8934" x="391.5" y="445.8489">FIELD_WINNER: String</text><ellipse cx="382.5" cy="460.9848" fill="none" rx="3" ry="3" style="stroke:#038048;stroke-width:1.0;"/><text fill="#000000" font-family="sans-serif" font-size="14" lengthAdjust="spacing" text-decoration="underline" textLength="162.2874" x="391.5" y="464.9168">FIELD_APPROVED: String</text><ellipse cx="382.5" cy="480.0527" fill="none" rx="3" ry="3" style="stroke:#038048;stroke-width:1.0;"/><text fill="#000000" font-family="sans-serif" font-size="14" lengthAdjust="spacing" text-decoration="underline" textLength="162.9734" x="391.5" y="483.9847">FIELD_BALLOT_ID: String</text><ellipse cx="382.5" cy="499.1206" fill="none" rx="3" ry="3" style="stroke:#038048;stroke-width:1.0;"/><text fill="#000000" font-family="sans-serif" font-size="14" lengthAdjust="spacing" text-decoration="underline" textLength="111.7616" x="391.5" y="503.0526">FIELD_RM: String</text><ellipse cx="382.5" cy="518.1885" fill="none" rx="3" ry="3" style="stroke:#038048;stroke-width:1.0;"/><text fill="#000000" font-family="sans-serif" font-size="14" lengthAdjust="spacing" text-decoration="underline" textLength="128.4915" x="391.5" y="522.1205">FIELD_ISSUE: String</text><ellipse cx="382.5" cy="537.2565" fill="none" rx="3" ry="3" style="stroke:#038048;stroke-width:1.0;"/><text fill="#000000" font-family="sans-serif" font-size="14" lengthAdjust="spacing" text-decoration="underline" textLength="130.8575" x="391.5" y="541.1884">FIELD_LABEL: String</text><ellipse cx="382.5" cy="556.3244" fill="none" rx="3" ry="3" style="stroke:#038048;stroke-width:1.0;"/><text fill="#000000" font-family="sans-serif" font-size="14" lengthAdjust="spacing" text-decoration="underline" textLength="181.9433" x="391.5" y="560.2564">FIELD_TOTAL_VOTES: String</text><ellipse cx="382.5" cy="575.3923" fill="none" rx="3" ry="3" style="stroke:#038048;stroke-width:1.0;"/><text fill="#000000" font-family="sans-serif" font-size="14" lengthAdjust="spacing" text-decoration="underline" textLength="162.5534" x="391.5" y="579.3243">FIELD_YES_VOTES: String</text><ellipse cx="382.5" cy="594.4602" fill="none" rx="3" ry="3" style="stroke:#038048;stroke-width:1.0;"/><text fill="#000000" font-family="sans-serif" font-size="14" lengthAdjust="spacing" text-decoration="underline" textLength="160.7334" x="391.5" y="598.3922">FIELD_NO_VOTES: String</text><ellipse cx="382.5" cy="613.5281" fill="none" rx="3" ry="3" style="stroke:#038048;stroke-width:1.0;"/><text fill="#000000" font-family="sans-serif" font-size="14" lengthAdjust="spacing" text-decoration="underline" textLength="197.0072" x="391.5" y="617.4601">FIELD_ABSTAIN_VOTES: String</text><ellipse cx="382.5" cy="632.596" fill="none" rx="3" ry="3" style="stroke:#038048;stroke-width:1.0;"/><text fill="#000000" font-family="sans-serif" font-size="14" lengthAdjust="spacing" text-decoration="underline" textLength="191.0992" x="391.5" y="636.528">FIELD_ABSENT_VOTES: String</text><ellipse cx="382.5" cy="651.664" fill="none" rx="3" ry="3" style="stroke:#038048;stroke-width:1.0;"/><text fill="#000000" font-family="sans-serif" font-size="14" lengthAdjust="spacing" text-decoration="underline" textLength="192.1772" x="391.5" y="655.5959">CHARTS_TITLE_PREFIX: String</text><ellipse cx="382.5" cy="670.7319" fill="none" rx="3" ry="3" style="stroke:#038048;stroke-width:1.0;"/><text fill="#000000" font-family="sans-serif" font-size="14" lengthAdjust="spacing" text-decoration="underline" textLength="167.8033" x="391.5" y="674.6639">CHARTS_SUBTITLE: String</text><ellipse cx="382.5" cy="689.7998" fill="none" rx="3" ry="3" style="stroke:#038048;stroke-width:1.0;"/><text fill="#000000" font-family="sans-serif" font-size="14" lengthAdjust="spacing" text-decoration="underline" textLength="195.9152" x="391.5" y="693.7318">CHARTS_DESCRIPTION: String</text><line style="stroke:#181818;stroke-width:0.5;" x1="372.5" x2="675.1129" y1="701.8338" y2="701.8338"/></g></a><!--class BallotOverviewPageModContentFactoryImpl--><a href="BallotOverviewPageModContentFactoryImpl.html" target="_top" title="BallotOverviewPageModContentFactoryImpl.html" xlink:actuate="onRequest" xlink:href="BallotOverviewPageModContentFactoryImpl.html" xlink:show="new" xlink:title="BallotOverviewPageModContentFactoryImpl.html" xlink:type="simple"><g id="elem_BallotOverviewPageModContentFactoryImpl"><rect codeLine="47" fill="#F1F1F1" height="86.1358" id="BallotOverviewPageModContentFactoryImpl" rx="2.5" ry="2.5" style="stroke:#181818;stroke-width:0.5;" width="331.4228" x="22.5" y="385.5"/><ellipse cx="40.5581" cy="401.5" fill="#ADD1B2" rx="11" ry="11" style="stroke:#181818;stroke-width:1.0;"/><path d="M43.5269,407.1406 Q42.9488,407.4375 42.3081,407.5781 Q41.6675,407.7344 40.9644,407.7344 Q38.4644,407.7344 37.1363,406.0938 Q35.8238,404.4375 35.8238,401.3125 Q35.8238,398.1875 37.1363,396.5313 Q38.4644,394.875 40.9644,394.875 Q41.6675,394.875 42.3081,395.0313 Q42.9644,395.1875 43.5269,395.4844 L43.5269,398.2031 Q42.9019,397.625 42.3081,397.3594 Q41.7144,397.0781 41.0894,397.0781 Q39.7456,397.0781 39.0581,398.1563 Q38.3706,399.2188 38.3706,401.3125 Q38.3706,403.4063 39.0581,404.4844 Q39.7456,405.5469 41.0894,405.5469 Q41.7144,405.5469 42.3081,405.2813 Q42.9019,405 43.5269,404.4219 L43.5269,407.1406 Z " fill="#000000"/><text fill="#000000" font-family="sans-serif" font-size="14" lengthAdjust="spacing" textLength="292.627" x="55.2377" y="406.932">BallotOverviewPageModContentFactoryImpl</text><line style="stroke:#181818;stroke-width:0.5;" x1="23.5" x2="352.9228" y1="417.5" y2="417.5"/><line style="stroke:#181818;stroke-width:0.5;" x1="23.5" x2="352.9228" y1="425.5" y2="425.5"/><ellipse cx="33.5" cy="440.534" fill="#84BE84" rx="3" ry="3" style="stroke:#038048;stroke-width:1.0;"/><text fill="#000000" font-family="sans-serif" font-size="14" lengthAdjust="spacing" textLength="305.4228" x="42.5" y="444.4659">createContent(String, MenuBar, Panel): Layout</text><ellipse cx="33.5" cy="459.6019" fill="#84BE84" rx="3" ry="3" style="stroke:#038048;stroke-width:1.0;"/><text fill="#000000" font-family="sans-serif" font-size="14" lengthAdjust="spacing" textLength="211.5112" x="42.5" y="463.5339">matches(String, String): boolean</text></g></a><!--class AbstractItemPageModContentFactoryImpl--><a href="../../../common/pagemode/AbstractItemPageModContentFactoryImpl.html" target="_top" title="../../../common/pagemode/AbstractItemPageModContentFactoryImpl.html" xlink:actuate="onRequest" xlink:href="../../../common/pagemode/AbstractItemPageModContentFactoryImpl.html" xlink:show="new" xlink:title="../../../common/pagemode/AbstractItemPageModContentFactoryImpl.html" xlink:type="simple"><g id="elem_AbstractItemPageModContentFactoryImpl"><rect codeLine="55" fill="#F1F1F1" height="67.0679" id="AbstractItemPageModContentFactoryImpl" rx="2.5" ry="2.5" style="stroke:#181818;stroke-width:0.5;" width="303.069" x="304.5" y="34"/><ellipse cx="319.5" cy="50" fill="#A9DCDF" rx="11" ry="11" style="stroke:#181818;stroke-width:1.0;"/><path d="M319.6094,45.3438 L318.4531,50.4219 L320.7813,50.4219 L319.6094,45.3438 Z M318.125,43.1094 L321.1094,43.1094 L324.4688,55.5 L322.0156,55.5 L321.25,52.4375 L317.9688,52.4375 L317.2188,55.5 L314.7813,55.5 L318.125,43.1094 Z " fill="#000000"/><text fill="#000000" font-family="sans-serif" font-size="14" font-style="italic" lengthAdjust="spacing" textLength="261.057" x="333.5" y="55.432">AbstractItemPageModContentFactoryImpl</text><rect fill="#FFFFFF" height="18.3441" style="stroke:#181818;stroke-width:1.0;stroke-dasharray:2.0,2.0;" width="8.012" x="602.557" y="31"/><text fill="#000000" font-family="sans-serif" font-size="12" font-style="italic" lengthAdjust="spacing" textLength="6.012" x="603.557" y="44.8281">T</text><line style="stroke:#181818;stroke-width:0.5;" x1="305.5" x2="606.569" y1="66" y2="66"/><line style="stroke:#181818;stroke-width:0.5;" x1="305.5" x2="606.569" y1="74" y2="74"/><polygon fill="#FFFF44" points="315.5,84.034,319.5,88.034,315.5,92.034,311.5,88.034" style="stroke:#B38D22;stroke-width:1.0;"/><text fill="#000000" font-family="sans-serif" font-size="14" font-style="italic" lengthAdjust="spacing" textLength="107.6316" x="324.5" y="92.9659">getItem(String): T</text></g></a><polygon fill="none" points="607.7651,90.6962,624.1385,100.2833,626.6161,88.5418,607.7651,90.6962" style="stroke:#181818;stroke-width:1.0;"/><path d="M625.3773,94.4126 C659.4106,101.5939 671.9849,106.697 686,117 C778.3562,184.8943 828.2283,317.4256 848.6926,385.2723 " fill="none" style="stroke:#181818;stroke-width:1.0;"/><polygon fill="none" points="383.079,101.104,364.7598,106.0444,371.3879,116.0478,383.079,101.104" style="stroke:#181818;stroke-width:1.0;"/><path d="M368.0739,111.0461 C360.8718,115.8181 369.0185,111.1741 363,117 C281.6373,195.7583 227.1726,320.5829 202.7266,385.3677 " fill="none" style="stroke:#181818;stroke-width:1.0;"/><text fill="#888888" font-family="sans-serif" font-size="10" lengthAdjust="spacing" textLength="2.6" x="511.2" y="730.69">&#160;</text><a href="https://github.com/talsma-ict/umldoclet" target="_top" title="https://github.com/talsma-ict/umldoclet" xlink:actuate="onRequest" xlink:href="https://github.com/talsma-ict/umldoclet" xlink:show="new" xlink:title="https://github.com/talsma-ict/umldoclet" xlink:type="simple"><text fill="#888888" font-family="sans-serif" font-size="10" lengthAdjust="spacing" textLength="76.7199" x="474.14" y="744.31">UMLDoclet 2.2.1</text></a><!--SRC=[rLTjRzf84FxUNx6dVhXK2OiXkRIneah6R5AVZ46seHTn22rc0rRiNPztdGZr-EyT6qD9b1xBvSFfB2I_xFFCF3EpzWm88VGhiaMsokF5KY4ba5h64WrxBg9yZXQCivmgDaTnIXTCeXbB15_83P0XMgYbo96uh-uYaUTCPeBFOxv0lzD7YgGeyeX9_EuTgbo5M-jFLEvPdwtAXrqH9KoX4_l3dgIsqRfij8tsRoYaYKmfSkmGrzP-SDguZLi8R2TnnBW4amMVixoIPMKqWfExMJb3ZooNiU30CMexPQYHu8h6NAACvagM8GqIobMfjON1_mN-Y4wim7skpRYgj9qXA-Uqc2DV_5Nimlqbo-a252Tq9Gg5PCeKvRHQag1PCd155UJFD3S44Fe0QGOjALx2TViSHp75Jso6upHBS15ZccKG8bKG07wCsPF4XMGvdj4a4Gfdm4x5dA5l6uFb4ILKIjIf0FQo36u0g9wOsn0nu-g6Hg1XvO03D1vhuV1IfSba0bxGtd4QvGogMSDF0fN3DZX3FSQB3itFq81obdmmaLkbuparfGfg97UapHd0Co4IHlaElVuHM0n-ydiQiJgu4QG3d4j8CXHm6ygpfwyB_mQBAexMwBG_8lx88L-dFSlnfg4JkcGwyCcDyuTPIpf475YtPDebWUqxWz3fUxeys_AxquxbklrmwdWt_N_36_Zz6ySbHr57_T3nRgT1Q8N10UAjxtGXFZ-yspeCXhsUvT_fy4YlGxfTqfrkRHmWtJZ4hTH1DgsGQA6hUcaXWs577zmbjXD0AQVXtK2FOVSzc_YU5hPEfRRjhuxd4LyBQWrWHun8znWTZXxQxsd1d20OweNbMXtYwbMv7rfkjJC2BVmT2Ov0U_qZm5O7tXluK1p585weHR2_m6iI7FCHgXcQcxj6_zEtQlrw5-b31orxp-4-SX3vttUIzHjQBu1JkDdhkblZT2PL3c7MURFgMqUnzAUvk0u_G-8mRcv-6-FDhV6cbesVDBYjd3Lwls2LXPDTNiAzZEmbv2s9C4qjiUZwxqRZxSEEQMeDBV_Jg0w-GfjoNKkrIjZdNItlXO3fwCK- -BBAMEx6_C4M2OoTxp-zlZeiH-SavWoczUY1CzZ0nejDSjtSyrVx-fEFnqkbCcascujOBOjPcS6cgiRsHXofPf4cyysy_c9odqpgIVnszvUW7AiRniT6wpni6QPnPLvSOkEgTTwwQbrSdXfjqp36fCX5nfg14j73KYJfv3i0]--></g></svg>