<?xml version="1.0" encoding="UTF-8" standalone="no"?><svg xmlns="http://www.w3.org/2000/svg" xmlns:xlink="http://www.w3.org/1999/xlink" contentScriptType="application/ecmascript" contentStyleType="text/css" height="286px" preserveAspectRatio="none" style="width:307px;height:286px;" version="1.1" viewBox="0 0 307 286" width="307px" zoomAndPan="magnify"><defs><filter height="300%" id="fsk8n61qog71f" width="300%" x="-1" y="-1"><feGaussianBlur result="blurOut" stdDeviation="2.0"/><feColorMatrix in="blurOut" result="blurOut2" type="matrix" values="0 0 0 0 0 0 0 0 0 0 0 0 0 0 0 0 0 0 .4 0"/><feOffset dx="4.0" dy="4.0" in="blurOut2" result="blurOut3"/><feBlend in="SourceGraphic" in2="blurOut3" mode="normal"/></filter></defs><g><!--class com.hack23.cia.model.internal.application.secure.impl.EncryptedValue--><a href="EncryptedValue.html" target="_top" xlink:actuate="onRequest" xlink:show="new" xlink:title="EncryptedValue.html" xlink:type="simple"><rect fill="#FEFECE" filter="url(#fsk8n61qog71f)" height="148.375" id="com.hack23.cia.model.internal.application.secure.impl.EncryptedValue" style="stroke: #A80036; stroke-width: 1.5;" width="290" x="6" y="106"/><ellipse cx="21" cy="124.9688" fill="#ADD1B2" rx="11" ry="11" style="stroke: #A80036; stroke-width: 1.0;"/><path d="M23.9688,130.6094 Q23.3906,130.9063 22.75,131.0469 Q22.1094,131.2031 21.4063,131.2031 Q18.9063,131.2031 17.5781,129.5625 Q16.2656,127.9063 16.2656,124.7813 Q16.2656,121.6563 17.5781,120 Q18.9063,118.3438 21.4063,118.3438 Q22.1094,118.3438 22.75,118.5 Q23.4063,118.6563 23.9688,118.9531 L23.9688,121.6719 Q23.3438,121.0938 22.75,120.8281 Q22.1563,120.5469 21.5313,120.5469 Q20.1875,120.5469 19.5,121.625 Q18.8125,122.6875 18.8125,124.7813 Q18.8125,126.875 19.5,127.9531 Q20.1875,129.0156 21.5313,129.0156 Q22.1563,129.0156 22.75,128.75 Q23.3438,128.4688 23.9688,127.8906 L23.9688,130.6094 Z "/><text fill="#000000" font-family="sans-serif" font-size="14" lengthAdjust="spacingAndGlyphs" textLength="108" x="110" y="123.9951">EncryptedValue</text><text fill="#000000" font-family="sans-serif" font-size="10" lengthAdjust="spacingAndGlyphs" textLength="258" x="35" y="136.5791">com.hack23.cia.model.internal.application.secure.impl</text><line style="stroke: #A80036; stroke-width: 1.5;" x1="7" x2="295" y1="143.9375" y2="143.9375"/><ellipse cx="17" cy="155.8398" fill="#84BE84" rx="3" ry="3" style="stroke: #038048; stroke-width: 1.0;"/><text fill="#000000" font-family="sans-serif" font-size="11" lengthAdjust="spacingAndGlyphs" textLength="71" x="26" y="158.1479">getId(): Long</text><ellipse cx="17" cy="168.6445" fill="#84BE84" rx="3" ry="3" style="stroke: #038048; stroke-width: 1.0;"/><text fill="#000000" font-family="sans-serif" font-size="11" lengthAdjust="spacingAndGlyphs" textLength="94" x="26" y="170.9526">setId(Long): void</text><ellipse cx="17" cy="181.4492" fill="#84BE84" rx="3" ry="3" style="stroke: #038048; stroke-width: 1.0;"/><text fill="#000000" font-family="sans-serif" font-size="11" lengthAdjust="spacingAndGlyphs" textLength="113" x="26" y="183.7573">getStorage(): String</text><ellipse cx="17" cy="194.2539" fill="#84BE84" rx="3" ry="3" style="stroke: #038048; stroke-width: 1.0;"/><text fill="#000000" font-family="sans-serif" font-size="11" lengthAdjust="spacingAndGlyphs" textLength="136" x="26" y="196.562">setStorage(String): void</text><ellipse cx="17" cy="207.0586" fill="#84BE84" rx="3" ry="3" style="stroke: #038048; stroke-width: 1.0;"/><text fill="#000000" font-family="sans-serif" font-size="11" lengthAdjust="spacingAndGlyphs" textLength="105" x="26" y="209.3667">getUserId(): String</text><ellipse cx="17" cy="219.8633" fill="#84BE84" rx="3" ry="3" style="stroke: #038048; stroke-width: 1.0;"/><text fill="#000000" font-family="sans-serif" font-size="11" lengthAdjust="spacingAndGlyphs" textLength="128" x="26" y="222.1714">setUserId(String): void</text><ellipse cx="17" cy="232.668" fill="#84BE84" rx="3" ry="3" style="stroke: #038048; stroke-width: 1.0;"/><text fill="#000000" font-family="sans-serif" font-size="11" lengthAdjust="spacingAndGlyphs" textLength="129" x="26" y="234.9761">getVaultName(): String</text><ellipse cx="17" cy="245.4727" fill="#84BE84" rx="3" ry="3" style="stroke: #038048; stroke-width: 1.0;"/><text fill="#000000" font-family="sans-serif" font-size="11" lengthAdjust="spacingAndGlyphs" textLength="152" x="26" y="247.7808">setVaultName(String): void</text></a><!--class com.hack23.cia.model.common.impl.AbstractModelObjectImpl--><rect fill="#FEFECE" filter="url(#fsk8n61qog71f)" height="37.9375" id="com.hack23.cia.model.common.impl.AbstractModelObjectImpl" style="stroke: #A80036; stroke-width: 1.5;" width="217" x="42.5" y="8"/><ellipse cx="57.5" cy="26.9688" fill="#A9DCDF" rx="11" ry="11" style="stroke: #A80036; stroke-width: 1.0;"/><path d="M57.6094,22.3125 L56.4531,27.3906 L58.7813,27.3906 L57.6094,22.3125 Z M56.125,20.0781 L59.1094,20.0781 L62.4688,32.4688 L60.0156,32.4688 L59.25,29.4063 L55.9688,29.4063 L55.2188,32.4688 L52.7813,32.4688 L56.125,20.0781 Z "/><text fill="#000000" font-family="sans-serif" font-size="14" font-style="italic" lengthAdjust="spacingAndGlyphs" textLength="173" x="77.5" y="25.9951">AbstractModelObjectImpl</text><text fill="#000000" font-family="sans-serif" font-size="10" font-style="italic" lengthAdjust="spacingAndGlyphs" textLength="185" x="71.5" y="38.5791">com.hack23.cia.model.common.impl</text><!--link com.hack23.cia.model.common.impl.AbstractModelObjectImpl to com.hack23.cia.model.internal.application.secure.impl.EncryptedValue--><path d="M151,66.2748 C151,78.3766 151,92.1219 151,105.7707 " fill="none" id="com.hack23.cia.model.common.impl.AbstractModelObjectImpl-com.hack23.cia.model.internal.application.secure.impl.EncryptedValue" style="stroke: #A80036; stroke-width: 1.0;"/><polygon fill="none" points="144.0001,66.0682,151,46.0682,158.0001,66.0682,144.0001,66.0682" style="stroke: #A80036; stroke-width: 1.0;"/><text fill="#888888" font-family="sans-serif" font-size="10" lengthAdjust="spacingAndGlyphs" textLength="186" x="64" y="273.2822">UMLDoclet 2.0.5, PlantUML 1.2019.08</text><!--
@startuml
    set namespaceSeparator none
    hide empty fields
    hide empty methods

    class "<size:14>EncryptedValue\n<size:10>com.hack23.cia.model.internal.application.secure.impl" as com.hack23.cia.model.internal.application.secure.impl.EncryptedValue [[EncryptedValue.html]] {
        +getId(): Long
        +setId(Long): void
        +getStorage(): String
        +setStorage(String): void
        +getUserId(): String
        +setUserId(String): void
        +getVaultName(): String
        +setVaultName(String): void
    }

    abstract class "<size:14>AbstractModelObjectImpl\n<size:10>com.hack23.cia.model.common.impl" as com.hack23.cia.model.common.impl.AbstractModelObjectImpl

    com.hack23.cia.model.common.impl.AbstractModelObjectImpl <|- - com.hack23.cia.model.internal.application.secure.impl.EncryptedValue

    center footer UMLDoclet 2.0.5, PlantUML 1.2019.08
@enduml

PlantUML version 1.2019.08(Sat Jul 13 21:25:14 CEST 2019)
(APACHE source distribution)
Java Runtime: OpenJDK Runtime Environment
JVM: OpenJDK 64-Bit Server VM
Java Version: 11.0.4+11-post-Ubuntu-1ubuntu219.04
Operating System: Linux
OS Version: 5.0.0-27-generic
Default Encoding: UTF-8
Language: en
Country: US
--></g></svg>