<svg xmlns="http://www.w3.org/2000/svg" xmlns:xlink="http://www.w3.org/1999/xlink" contentStyleType="text/css" height="274px" preserveAspectRatio="none" style="width:649px;height:274px;background:#FFFFFF;" version="1.1" viewBox="0 0 649 274" width="649px" zoomAndPan="magnify"><defs/><g><!--class com.hack23.cia.service.impl.action.user.ChangePasswordService--><a href="ChangePasswordService.html" target="_top" title="ChangePasswordService.html" xlink:actuate="onRequest" xlink:href="ChangePasswordService.html" xlink:show="new" xlink:title="ChangePasswordService.html" xlink:type="simple"><g id="elem_com.hack23.cia.service.impl.action.user.ChangePasswordService"><rect codeLine="13" fill="#F1F1F1" height="107.8917" id="com.hack23.cia.service.impl.action.user.ChangePasswordService" rx="2.5" ry="2.5" style="stroke:#181818;stroke-width:0.5;" width="636.2018" x="6" y="137"/><ellipse cx="227.086" cy="158.344" fill="#ADD1B2" rx="11" ry="11" style="stroke:#181818;stroke-width:1.0;"/><path d="M230.0547,163.9846 Q229.4766,164.2815 228.836,164.4221 Q228.1953,164.5783 227.4922,164.5783 Q224.9922,164.5783 223.6641,162.9377 Q222.3516,161.2815 222.3516,158.1565 Q222.3516,155.0315 223.6641,153.3752 Q224.9922,151.719 227.4922,151.719 Q228.1953,151.719 228.836,151.8752 Q229.4922,152.0315 230.0547,152.3283 L230.0547,155.0471 Q229.4297,154.469 228.836,154.2033 Q228.2422,153.9221 227.6172,153.9221 Q226.2735,153.9221 225.586,155.0002 Q224.8985,156.0627 224.8985,158.1565 Q224.8985,160.2502 225.586,161.3283 Q226.2735,162.3908 227.6172,162.3908 Q228.2422,162.3908 228.836,162.1252 Q229.4297,161.844 230.0547,161.2658 L230.0547,163.9846 Z " fill="#000000"/><text fill="#000000" font-family="sans-serif" font-size="14" lengthAdjust="spacing" textLength="160.8174" x="259.9422" y="156.9659">ChangePasswordService</text><text fill="#000000" font-family="sans-serif" font-size="10" lengthAdjust="spacing" textLength="185.5299" x="247.586" y="171.7579">com.hack23.cia.service.impl.action.user</text><line style="stroke:#181818;stroke-width:0.5;" x1="7" x2="641.2018" y1="179.6879" y2="179.6879"/><ellipse cx="17" cy="194.7219" fill="#84BE84" rx="3" ry="3" style="stroke:#038048;stroke-width:1.0;"/><text fill="#000000" font-family="sans-serif" font-size="14" lengthAdjust="spacing" textLength="458.7784" x="26" y="198.6538">processService(ChangePasswordRequest): ChangePasswordResponse</text><polygon fill="#FFFF44" points="17,208.7898,21,212.7898,17,216.7898,13,212.7898" style="stroke:#B38D22;stroke-width:1.0;"/><text fill="#000000" font-family="sans-serif" font-size="14" lengthAdjust="spacing" textLength="610.2018" x="26" y="217.7218">createApplicationEventForService(ChangePasswordRequest): CreateApplicationEventRequest</text><polygon fill="#FFFF44" points="17,227.8577,21,231.8577,17,235.8577,13,231.8577" style="stroke:#B38D22;stroke-width:1.0;"/><text fill="#000000" font-family="sans-serif" font-size="14" lengthAdjust="spacing" textLength="331.9948" x="26" y="236.7897">createErrorResponse(): ChangePasswordResponse</text></g></a><!--class com.hack23.cia.service.impl.action.common.AbstractBusinessServiceImpl--><a href="../common/AbstractBusinessServiceImpl.html" target="_top" title="../common/AbstractBusinessServiceImpl.html" xlink:actuate="onRequest" xlink:href="../common/AbstractBusinessServiceImpl.html" xlink:show="new" xlink:title="../common/AbstractBusinessServiceImpl.html" xlink:type="simple"><g id="elem_com.hack23.cia.service.impl.action.common.AbstractBusinessServiceImpl"><rect codeLine="19" fill="#F1F1F1" height="88.8237" id="com.hack23.cia.service.impl.action.common.AbstractBusinessServiceImpl" rx="2.5" ry="2.5" style="stroke:#181818;stroke-width:0.5;" width="595.0135" x="26.5" y="12"/><ellipse cx="79.2299" cy="33.344" fill="#A9DCDF" rx="11" ry="11" style="stroke:#181818;stroke-width:1.0;"/><path d="M79.3393,28.6877 L78.1831,33.7658 L80.5112,33.7658 L79.3393,28.6877 Z M77.8549,26.4533 L80.8393,26.4533 L84.1987,38.844 L81.7456,38.844 L80.9799,35.7815 L77.6987,35.7815 L76.9487,38.844 L74.5112,38.844 L77.8549,26.4533 Z " fill="#000000"/><text fill="#000000" font-family="sans-serif" font-size="14" font-style="italic" lengthAdjust="spacing" textLength="176.1473" x="109.3562" y="31.9659">AbstractBusinessServiceImpl</text><text fill="#000000" font-family="sans-serif" font-size="10" font-style="italic" lengthAdjust="spacing" textLength="195.3998" x="99.7299" y="46.7579">com.hack23.cia.service.impl.action.common</text><rect fill="#FFFFFF" height="18.3441" style="stroke:#181818;stroke-width:1.0;stroke-dasharray:2.0,2.0;" width="283.6539" x="340.8597" y="9"/><text fill="#000000" font-family="sans-serif" font-size="12" font-style="italic" lengthAdjust="spacing" textLength="281.6539" x="341.8597" y="22.8281">ChangePasswordRequest, ChangePasswordResponse</text><line style="stroke:#181818;stroke-width:0.5;" x1="27.5" x2="620.5135" y1="54.6879" y2="54.6879"/><polygon fill="#FFFF44" points="37.5,64.7219,41.5,68.7219,37.5,72.7219,33.5,68.7219" style="stroke:#B38D22;stroke-width:1.0;"/><text fill="#000000" font-family="sans-serif" font-size="14" font-style="italic" lengthAdjust="spacing" textLength="309.1328" x="46.5" y="73.6538">createErrorResponse(): ChangePasswordResponse</text><polygon fill="#FFFF44" points="37.5,83.7898,41.5,87.7898,37.5,91.7898,33.5,87.7898" style="stroke:#B38D22;stroke-width:1.0;"/><text fill="#000000" font-family="sans-serif" font-size="14" font-style="italic" lengthAdjust="spacing" textLength="569.0135" x="46.5" y="92.7218">createApplicationEventForService(ChangePasswordRequest): CreateApplicationEventRequest</text></g></a><polygon fill="none" points="324,101.2527,318,119.2527,330,119.2527,324,101.2527" style="stroke:#181818;stroke-width:1.0;"/><path d="M324,119.2527 C324,130.5596 324,124.8586 324,136.5979 " fill="none" style="stroke:#181818;stroke-width:1.0;"/><text fill="#888888" font-family="sans-serif" font-size="10" lengthAdjust="spacing" textLength="2.6" x="319.2" y="249.69">&#160;</text><a href="https://github.com/talsma-ict/umldoclet" target="_top" title="https://github.com/talsma-ict/umldoclet" xlink:actuate="onRequest" xlink:href="https://github.com/talsma-ict/umldoclet" xlink:show="new" xlink:title="https://github.com/talsma-ict/umldoclet" xlink:type="simple"><text fill="#888888" font-family="sans-serif" font-size="10" lengthAdjust="spacing" textLength="76.7199" x="282.14" y="263.31">UMLDoclet 2.2.1</text></a><!--SRC=[jLNRKjim47tdAxRmq30G-KAWaCba9asXfPFEC2GyXJmeyc9h8akk98T9QVwzyeK08QNqfXUFTrTdpvvThm40ta9VPGlDuyI2LM0JRk3gom2eZ216YPfQZ82dD4O3KnHAngOAHA2vJPG6TLE-CQKrcap9YCiOFjCv1QDopT2GhIqeKutkqM-fUOG-NHJ63ue9jD3expwY5Fh1KJFqmnQCg30fXVF-YDHe3tT24f807BRW3ALnaBcCK9UqUXbbxZ6eFFimHssuakwEN-CKfJ8bBUNIG4QrDKL95u9AMt0DI96Vl8D6RpXuoiq_ARdjGqzBcaTmgRxcgtBVP9h6Zh6W2vLRC2bQAcdbCuwqfAcJYp8SeajAhLDIAecbF-4H0gQPNS0DHn6PTQi3IvGpbtOcg36mtJ7y6xQ3LhUVK1dZXJFUAXqDKSzTyTUozljTfbAIK3OB3mZZb9WgWF0q4uGowzGXkJDkW-lIAsF9nfmm7c-qayIcOZA1kv9-SVOohToac3gWyVJQ9HQwsjqshDkBUJEuWjbX6jr8zRBCJG8js9tEKTepfNy9lF5YxL_7FzLQwVlaZPTfBQiUqQcnsWdsh5czsl4-Drm-A73k1FwzbhcGLCdNDgsA9YzaxsoKQlydjNPThmdnAbZl1TZdlR-xrsRv9_fkHlWl4r2tyf-e2vtlpURVVLqLcuwn2u7TbHOtIbct-XxaBSwdHOPwmEMihuJRCpl7cxrNnTOKZgfRr6nMC0P_5RciqdcFyjMvhkLud5YRcRRdnTmc-RGGmBFbncvoPhqy5L6rgjUMzcHIB-6Fgxz1iL6RGTWCmr5mt0w3ze5FMeUjazPHUEZl-K7RzyUdkLOPUaEhs2nH8fty0000]--></g></svg>