<svg xmlns="http://www.w3.org/2000/svg" xmlns:xlink="http://www.w3.org/1999/xlink" contentStyleType="text/css" height="354px" preserveAspectRatio="none" style="width:3523px;height:354px;background:#FFFFFF;" version="1.1" viewBox="0 0 3523 354" width="3523px" zoomAndPan="magnify"><defs/><g><!--cluster com.hack23.cia.service.impl.action.user--><g id="cluster_com.hack23.cia.service.impl.action.user"><path d="M16.5,174 L295.6089,174 A3.75,3.75 0 0 1 298.1089,176.5 L305.1089,199.0679 L3513.5,199.0679 A2.5,2.5 0 0 1 3516,201.5679 L3516,314.5 A2.5,2.5 0 0 1 3513.5,317 L16.5,317 A2.5,2.5 0 0 1 14,314.5 L14,176.5 A2.5,2.5 0 0 1 16.5,174 " fill="none" style="stroke:#000000;stroke-width:1.5;"/><line style="stroke:#000000;stroke-width:1.5;" x1="14" x2="305.1089" y1="199.0679" y2="199.0679"/><text fill="#000000" font-family="sans-serif" font-size="14" font-weight="bold" lengthAdjust="spacing" textLength="278.1089" x="18" y="190.9659">com.hack23.cia.service.impl.action.user</text></g><!--cluster com.hack23.cia.service.impl.action.common--><g id="cluster_com.hack23.cia.service.impl.action.common"><path d="M1306.5,4 L1616.0448,4 A3.75,3.75 0 0 1 1618.5448,6.5 L1625.5448,29.0679 L2101.5,29.0679 A2.5,2.5 0 0 1 2104,31.5679 L2104,163.5 A2.5,2.5 0 0 1 2101.5,166 L1306.5,166 A2.5,2.5 0 0 1 1304,163.5 L1304,6.5 A2.5,2.5 0 0 1 1306.5,4 " fill="none" style="stroke:#000000;stroke-width:1.5;"/><line style="stroke:#000000;stroke-width:1.5;" x1="1304" x2="1625.5448" y1="29.0679" y2="29.0679"/><text fill="#000000" font-family="sans-serif" font-size="14" font-weight="bold" lengthAdjust="spacing" textLength="308.5448" x="1308" y="20.9659">com.hack23.cia.service.impl.action.common</text></g><!--class DisableGoogleAuthenticatorCredentialService--><a href="DisableGoogleAuthenticatorCredentialService.html" target="_top" title="DisableGoogleAuthenticatorCredentialService.html" xlink:actuate="onRequest" xlink:href="DisableGoogleAuthenticatorCredentialService.html" xlink:show="new" xlink:title="DisableGoogleAuthenticatorCredentialService.html" xlink:type="simple"><g id="elem_DisableGoogleAuthenticatorCredentialService"><rect codeLine="12" fill="#F1F1F1" height="105.2038" id="DisableGoogleAuthenticatorCredentialService" rx="2.5" ry="2.5" style="stroke:#181818;stroke-width:0.5;" width="776.0612" x="2732" y="204"/><ellipse cx="2965.4422" cy="220" fill="#ADD1B2" rx="11" ry="11" style="stroke:#181818;stroke-width:1.0;"/><path d="M2968.4109,225.6406 Q2967.8328,225.9375 2967.1922,226.0781 Q2966.5515,226.2344 2965.8484,226.2344 Q2963.3484,226.2344 2962.0203,224.5938 Q2960.7078,222.9375 2960.7078,219.8125 Q2960.7078,216.6875 2962.0203,215.0313 Q2963.3484,213.375 2965.8484,213.375 Q2966.5515,213.375 2967.1922,213.5313 Q2967.8484,213.6875 2968.4109,213.9844 L2968.4109,216.7031 Q2967.7859,216.125 2967.1922,215.8594 Q2966.5984,215.5781 2965.9734,215.5781 Q2964.6297,215.5781 2963.9422,216.6563 Q2963.2547,217.7188 2963.2547,219.8125 Q2963.2547,221.9063 2963.9422,222.9844 Q2964.6297,224.0469 2965.9734,224.0469 Q2966.5984,224.0469 2967.1922,223.7813 Q2967.7859,223.5 2968.4109,222.9219 L2968.4109,225.6406 Z " fill="#000000"/><text fill="#000000" font-family="sans-serif" font-size="14" lengthAdjust="spacing" textLength="300.6768" x="2985.9422" y="225.432">DisableGoogleAuthenticatorCredentialService</text><line style="stroke:#181818;stroke-width:0.5;" x1="2733" x2="3507.0612" y1="236" y2="236"/><line style="stroke:#181818;stroke-width:0.5;" x1="2733" x2="3507.0612" y1="244" y2="244"/><ellipse cx="2743" cy="259.034" fill="#84BE84" rx="3" ry="3" style="stroke:#038048;stroke-width:1.0;"/><text fill="#000000" font-family="sans-serif" font-size="14" lengthAdjust="spacing" textLength="738.4973" x="2752" y="262.9659">processService(DisableGoogleAuthenticatorCredentialRequest): DisableGoogleAuthenticatorCredentialResponse</text><polygon fill="#FFFF44" points="2743,273.1019,2747,277.1019,2743,281.1019,2739,277.1019" style="stroke:#B38D22;stroke-width:1.0;"/><text fill="#000000" font-family="sans-serif" font-size="14" lengthAdjust="spacing" textLength="750.0612" x="2752" y="282.0339">createApplicationEventForService(DisableGoogleAuthenticatorCredentialRequest): CreateApplicationEventRequest</text><polygon fill="#FFFF44" points="2743,292.1698,2747,296.1698,2743,300.1698,2739,296.1698" style="stroke:#B38D22;stroke-width:1.0;"/><text fill="#000000" font-family="sans-serif" font-size="14" lengthAdjust="spacing" textLength="471.8541" x="2752" y="301.1018">createErrorResponse(): DisableGoogleAuthenticatorCredentialResponse</text></g></a><!--class DeleteAccountService--><a href="DeleteAccountService.html" target="_top" title="DeleteAccountService.html" xlink:actuate="onRequest" xlink:href="DeleteAccountService.html" xlink:show="new" xlink:title="DeleteAccountService.html" xlink:type="simple"><g id="elem_DeleteAccountService"><rect codeLine="18" fill="#F1F1F1" height="105.2038" id="DeleteAccountService" rx="2.5" ry="2.5" style="stroke:#181818;stroke-width:0.5;" width="617.8759" x="2096" y="204"/><ellipse cx="2329.4422" cy="220" fill="#ADD1B2" rx="11" ry="11" style="stroke:#181818;stroke-width:1.0;"/><path d="M2332.411,225.6406 Q2331.8328,225.9375 2331.1922,226.0781 Q2330.5516,226.2344 2329.8485,226.2344 Q2327.3485,226.2344 2326.0203,224.5938 Q2324.7078,222.9375 2324.7078,219.8125 Q2324.7078,216.6875 2326.0203,215.0313 Q2327.3485,213.375 2329.8485,213.375 Q2330.5516,213.375 2331.1922,213.5313 Q2331.8485,213.6875 2332.411,213.9844 L2332.411,216.7031 Q2331.786,216.125 2331.1922,215.8594 Q2330.5985,215.5781 2329.9735,215.5781 Q2328.6297,215.5781 2327.9422,216.6563 Q2327.2547,217.7188 2327.2547,219.8125 Q2327.2547,221.9063 2327.9422,222.9844 Q2328.6297,224.0469 2329.9735,224.0469 Q2330.5985,224.0469 2331.1922,223.7813 Q2331.786,223.5 2332.411,222.9219 L2332.411,225.6406 Z " fill="#000000"/><text fill="#000000" font-family="sans-serif" font-size="14" lengthAdjust="spacing" textLength="142.4914" x="2349.9422" y="225.432">DeleteAccountService</text><line style="stroke:#181818;stroke-width:0.5;" x1="2097" x2="2712.8759" y1="236" y2="236"/><line style="stroke:#181818;stroke-width:0.5;" x1="2097" x2="2712.8759" y1="244" y2="244"/><ellipse cx="2107" cy="259.034" fill="#84BE84" rx="3" ry="3" style="stroke:#038048;stroke-width:1.0;"/><text fill="#000000" font-family="sans-serif" font-size="14" lengthAdjust="spacing" textLength="422.1264" x="2116" y="262.9659">processService(DeleteAccountRequest): DeleteAccountResponse</text><polygon fill="#FFFF44" points="2107,273.1019,2111,277.1019,2107,281.1019,2103,277.1019" style="stroke:#B38D22;stroke-width:1.0;"/><text fill="#000000" font-family="sans-serif" font-size="14" lengthAdjust="spacing" textLength="591.8759" x="2116" y="282.0339">createApplicationEventForService(DeleteAccountRequest): CreateApplicationEventRequest</text><polygon fill="#FFFF44" points="2107,292.1698,2111,296.1698,2107,300.1698,2103,296.1698" style="stroke:#B38D22;stroke-width:1.0;"/><text fill="#000000" font-family="sans-serif" font-size="14" lengthAdjust="spacing" textLength="313.6688" x="2116" y="301.1018">createErrorResponse(): DeleteAccountResponse</text></g></a><!--class SetGoogleAuthenticatorCredentialService--><a href="SetGoogleAuthenticatorCredentialService.html" target="_top" title="SetGoogleAuthenticatorCredentialService.html" xlink:actuate="onRequest" xlink:href="SetGoogleAuthenticatorCredentialService.html" xlink:show="new" xlink:title="SetGoogleAuthenticatorCredentialService.html" xlink:type="simple"><g id="elem_SetGoogleAuthenticatorCredentialService"><rect codeLine="24" fill="#F1F1F1" height="105.2038" id="SetGoogleAuthenticatorCredentialService" rx="2.5" ry="2.5" style="stroke:#181818;stroke-width:0.5;" width="748.1873" x="1330" y="204"/><ellipse cx="1563.4422" cy="220" fill="#ADD1B2" rx="11" ry="11" style="stroke:#181818;stroke-width:1.0;"/><path d="M1566.4109,225.6406 Q1565.8328,225.9375 1565.1922,226.0781 Q1564.5515,226.2344 1563.8484,226.2344 Q1561.3484,226.2344 1560.0203,224.5938 Q1558.7078,222.9375 1558.7078,219.8125 Q1558.7078,216.6875 1560.0203,215.0313 Q1561.3484,213.375 1563.8484,213.375 Q1564.5515,213.375 1565.1922,213.5313 Q1565.8484,213.6875 1566.4109,213.9844 L1566.4109,216.7031 Q1565.7859,216.125 1565.1922,215.8594 Q1564.5984,215.5781 1563.9734,215.5781 Q1562.6297,215.5781 1561.9422,216.6563 Q1561.2547,217.7188 1561.2547,219.8125 Q1561.2547,221.9063 1561.9422,222.9844 Q1562.6297,224.0469 1563.9734,224.0469 Q1564.5984,224.0469 1565.1922,223.7813 Q1565.7859,223.5 1566.4109,222.9219 L1566.4109,225.6406 Z " fill="#000000"/><text fill="#000000" font-family="sans-serif" font-size="14" lengthAdjust="spacing" textLength="272.8029" x="1583.9422" y="225.432">SetGoogleAuthenticatorCredentialService</text><line style="stroke:#181818;stroke-width:0.5;" x1="1331" x2="2077.1873" y1="236" y2="236"/><line style="stroke:#181818;stroke-width:0.5;" x1="1331" x2="2077.1873" y1="244" y2="244"/><ellipse cx="1341" cy="259.034" fill="#84BE84" rx="3" ry="3" style="stroke:#038048;stroke-width:1.0;"/><text fill="#000000" font-family="sans-serif" font-size="14" lengthAdjust="spacing" textLength="682.7494" x="1350" y="262.9659">processService(SetGoogleAuthenticatorCredentialRequest): SetGoogleAuthenticatorCredentialResponse</text><polygon fill="#FFFF44" points="1341,273.1019,1345,277.1019,1341,281.1019,1337,277.1019" style="stroke:#B38D22;stroke-width:1.0;"/><text fill="#000000" font-family="sans-serif" font-size="14" lengthAdjust="spacing" textLength="722.1873" x="1350" y="282.0339">createApplicationEventForService(SetGoogleAuthenticatorCredentialRequest): CreateApplicationEventRequest</text><polygon fill="#FFFF44" points="1341,292.1698,1345,296.1698,1341,300.1698,1337,296.1698" style="stroke:#B38D22;stroke-width:1.0;"/><text fill="#000000" font-family="sans-serif" font-size="14" lengthAdjust="spacing" textLength="443.9803" x="1350" y="301.1018">createErrorResponse(): SetGoogleAuthenticatorCredentialResponse</text></g></a><!--class SearchDocumentService--><a href="SearchDocumentService.html" target="_top" title="SearchDocumentService.html" xlink:actuate="onRequest" xlink:href="SearchDocumentService.html" xlink:show="new" xlink:title="SearchDocumentService.html" xlink:type="simple"><g id="elem_SearchDocumentService"><rect codeLine="30" fill="#F1F1F1" height="105.2038" id="SearchDocumentService" rx="2.5" ry="2.5" style="stroke:#181818;stroke-width:0.5;" width="635.4318" x="676.5" y="204"/><ellipse cx="909.9422" cy="220" fill="#ADD1B2" rx="11" ry="11" style="stroke:#181818;stroke-width:1.0;"/><path d="M912.9109,225.6406 Q912.3328,225.9375 911.6922,226.0781 Q911.0516,226.2344 910.3484,226.2344 Q907.8484,226.2344 906.5203,224.5938 Q905.2078,222.9375 905.2078,219.8125 Q905.2078,216.6875 906.5203,215.0313 Q907.8484,213.375 910.3484,213.375 Q911.0516,213.375 911.6922,213.5313 Q912.3484,213.6875 912.9109,213.9844 L912.9109,216.7031 Q912.2859,216.125 911.6922,215.8594 Q911.0984,215.5781 910.4734,215.5781 Q909.1297,215.5781 908.4422,216.6563 Q907.7547,217.7188 907.7547,219.8125 Q907.7547,221.9063 908.4422,222.9844 Q909.1297,224.0469 910.4734,224.0469 Q911.0984,224.0469 911.6922,223.7813 Q912.2859,223.5 912.9109,222.9219 L912.9109,225.6406 Z " fill="#000000"/><text fill="#000000" font-family="sans-serif" font-size="14" lengthAdjust="spacing" textLength="160.0474" x="930.4422" y="225.432">SearchDocumentService</text><line style="stroke:#181818;stroke-width:0.5;" x1="677.5" x2="1310.9318" y1="236" y2="236"/><line style="stroke:#181818;stroke-width:0.5;" x1="677.5" x2="1310.9318" y1="244" y2="244"/><ellipse cx="687.5" cy="259.034" fill="#84BE84" rx="3" ry="3" style="stroke:#038048;stroke-width:1.0;"/><text fill="#000000" font-family="sans-serif" font-size="14" lengthAdjust="spacing" textLength="457.2383" x="696.5" y="262.9659">processService(SearchDocumentRequest): SearchDocumentResponse</text><polygon fill="#FFFF44" points="687.5,273.1019,691.5,277.1019,687.5,281.1019,683.5,277.1019" style="stroke:#B38D22;stroke-width:1.0;"/><text fill="#000000" font-family="sans-serif" font-size="14" lengthAdjust="spacing" textLength="609.4318" x="696.5" y="282.0339">createApplicationEventForService(SearchDocumentRequest): CreateApplicationEventRequest</text><polygon fill="#FFFF44" points="687.5,292.1698,691.5,296.1698,687.5,300.1698,683.5,296.1698" style="stroke:#B38D22;stroke-width:1.0;"/><text fill="#000000" font-family="sans-serif" font-size="14" lengthAdjust="spacing" textLength="331.2248" x="696.5" y="301.1018">createErrorResponse(): SearchDocumentResponse</text></g></a><!--class ChangePasswordService--><a href="ChangePasswordService.html" target="_top" title="ChangePasswordService.html" xlink:actuate="onRequest" xlink:href="ChangePasswordService.html" xlink:show="new" xlink:title="ChangePasswordService.html" xlink:type="simple"><g id="elem_ChangePasswordService"><rect codeLine="36" fill="#F1F1F1" height="105.2038" id="ChangePasswordService" rx="2.5" ry="2.5" style="stroke:#181818;stroke-width:0.5;" width="636.2018" x="22" y="204"/><ellipse cx="255.4422" cy="220" fill="#ADD1B2" rx="11" ry="11" style="stroke:#181818;stroke-width:1.0;"/><path d="M258.4109,225.6406 Q257.8328,225.9375 257.1922,226.0781 Q256.5516,226.2344 255.8484,226.2344 Q253.3484,226.2344 252.0203,224.5938 Q250.7078,222.9375 250.7078,219.8125 Q250.7078,216.6875 252.0203,215.0313 Q253.3484,213.375 255.8484,213.375 Q256.5516,213.375 257.1922,213.5313 Q257.8484,213.6875 258.4109,213.9844 L258.4109,216.7031 Q257.7859,216.125 257.1922,215.8594 Q256.5984,215.5781 255.9734,215.5781 Q254.6297,215.5781 253.9422,216.6563 Q253.2547,217.7188 253.2547,219.8125 Q253.2547,221.9063 253.9422,222.9844 Q254.6297,224.0469 255.9734,224.0469 Q256.5984,224.0469 257.1922,223.7813 Q257.7859,223.5 258.4109,222.9219 L258.4109,225.6406 Z " fill="#000000"/><text fill="#000000" font-family="sans-serif" font-size="14" lengthAdjust="spacing" textLength="160.8174" x="275.9422" y="225.432">ChangePasswordService</text><line style="stroke:#181818;stroke-width:0.5;" x1="23" x2="657.2018" y1="236" y2="236"/><line style="stroke:#181818;stroke-width:0.5;" x1="23" x2="657.2018" y1="244" y2="244"/><ellipse cx="33" cy="259.034" fill="#84BE84" rx="3" ry="3" style="stroke:#038048;stroke-width:1.0;"/><text fill="#000000" font-family="sans-serif" font-size="14" lengthAdjust="spacing" textLength="458.7784" x="42" y="262.9659">processService(ChangePasswordRequest): ChangePasswordResponse</text><polygon fill="#FFFF44" points="33,273.1019,37,277.1019,33,281.1019,29,277.1019" style="stroke:#B38D22;stroke-width:1.0;"/><text fill="#000000" font-family="sans-serif" font-size="14" lengthAdjust="spacing" textLength="610.2018" x="42" y="282.0339">createApplicationEventForService(ChangePasswordRequest): CreateApplicationEventRequest</text><polygon fill="#FFFF44" points="33,292.1698,37,296.1698,33,300.1698,29,296.1698" style="stroke:#B38D22;stroke-width:1.0;"/><text fill="#000000" font-family="sans-serif" font-size="14" lengthAdjust="spacing" textLength="331.9948" x="42" y="301.1018">createErrorResponse(): ChangePasswordResponse</text></g></a><!--class AbstractBusinessServiceImpl--><a href="../common/AbstractBusinessServiceImpl.html" target="_top" title="../common/AbstractBusinessServiceImpl.html" xlink:actuate="onRequest" xlink:href="../common/AbstractBusinessServiceImpl.html" xlink:show="new" xlink:title="../common/AbstractBusinessServiceImpl.html" xlink:type="simple"><g id="elem_AbstractBusinessServiceImpl"><rect codeLine="45" fill="#F1F1F1" height="124.2717" id="AbstractBusinessServiceImpl" rx="2.5" ry="2.5" style="stroke:#181818;stroke-width:0.5;" width="784.0133" x="1312" y="34"/><ellipse cx="1470.3501" cy="50" fill="#A9DCDF" rx="11" ry="11" style="stroke:#181818;stroke-width:1.0;"/><path d="M1470.4594,45.3438 L1469.3032,50.4219 L1471.6313,50.4219 L1470.4594,45.3438 Z M1468.9751,43.1094 L1471.9594,43.1094 L1475.3188,55.5 L1472.8657,55.5 L1472.1001,52.4375 L1468.8188,52.4375 L1468.0688,55.5 L1465.6313,55.5 L1468.9751,43.1094 Z " fill="#000000"/><text fill="#000000" font-family="sans-serif" font-size="14" font-style="italic" lengthAdjust="spacing" textLength="176.1473" x="1490.8501" y="55.432">AbstractBusinessServiceImpl</text><rect fill="#FFFFFF" height="18.3441" style="stroke:#181818;stroke-width:1.0;stroke-dasharray:2.0,2.0;" width="280.6658" x="1818.3475" y="31"/><text fill="#000000" font-family="sans-serif" font-size="12" font-style="italic" lengthAdjust="spacing" textLength="278.6658" x="1819.3475" y="44.8281">T extends ServiceRequest, V extends ServiceResponse</text><line style="stroke:#181818;stroke-width:0.5;" x1="1313" x2="2095.0133" y1="66" y2="66"/><polygon fill="none" points="1323,76.034,1327,80.034,1323,84.034,1319,80.034" style="stroke:#B38D22;stroke-width:1.0;"/><text fill="#000000" font-family="sans-serif" font-size="14" lengthAdjust="spacing" textLength="758.0133" x="1332" y="84.9659">createApplicationEventService: BusinessService&lt;CreateApplicationEventRequest, CreateApplicationEventResponse&gt;</text><polygon fill="none" points="1323,95.1019,1327,99.1019,1323,103.1019,1319,99.1019" style="stroke:#B38D22;stroke-width:1.0;"/><text fill="#000000" font-family="sans-serif" font-size="14" lengthAdjust="spacing" textLength="124.5995" x="1332" y="104.0339">validator: Validator</text><line style="stroke:#181818;stroke-width:0.5;" x1="1313" x2="2095.0133" y1="112.1358" y2="112.1358"/><polygon fill="#FFFF44" points="1323,122.1698,1327,126.1698,1323,130.1698,1319,126.1698" style="stroke:#B38D22;stroke-width:1.0;"/><text fill="#000000" font-family="sans-serif" font-size="14" font-style="italic" lengthAdjust="spacing" textLength="307.7468" x="1332" y="131.1018">createErrorResponse(): V extends ServiceResponse</text><polygon fill="#FFFF44" points="1323,141.2377,1327,145.2377,1323,149.2377,1319,145.2377" style="stroke:#B38D22;stroke-width:1.0;"/><text fill="#000000" font-family="sans-serif" font-size="14" font-style="italic" lengthAdjust="spacing" textLength="566.9137" x="1332" y="150.1697">createApplicationEventForService(T extends ServiceRequest): CreateApplicationEventRequest</text></g></a><polygon fill="none" points="2096.2854,114.9673,2113.8835,122.0601,2114.6196,110.0827,2096.2854,114.9673" style="stroke:#181818;stroke-width:1.0;"/><path d="M2114.2515,116.0714 C2304.1406,127.7409 2517.0967,145.2044 2723,174 C2778.7463,181.7961 2838.4207,192.6786 2894.1241,203.9572 " fill="none" style="stroke:#181818;stroke-width:1.0;"/><polygon fill="none" points="2014.706,158.0313,2031.0494,167.6696,2033.5636,155.9359,2014.706,158.0313" style="stroke:#181818;stroke-width:1.0;"/><path d="M2032.3065,161.8027 C2056.8006,167.0513 2063.5276,168.6365 2087,174 C2127.1426,183.1726 2169.9558,193.6593 2210.7348,203.9878 " fill="none" style="stroke:#181818;stroke-width:1.0;"/><polygon fill="none" points="1704,158.2802,1698,176.2802,1710,176.2802,1704,158.2802" style="stroke:#181818;stroke-width:1.0;"/><path d="M1704,176.2802 C1704,191.3508 1704,189.3365 1704,203.8984 " fill="none" style="stroke:#181818;stroke-width:1.0;"/><polygon fill="none" points="1394.1098,158.0395,1375.2558,155.9119,1377.7501,167.6499,1394.1098,158.0395" style="stroke:#181818;stroke-width:1.0;"/><path d="M1376.5029,161.7809 C1351.7377,167.0434 1344.7382,168.6585 1321,174 C1280.0449,183.2155 1236.3601,193.6674 1194.693,203.9387 " fill="none" style="stroke:#181818;stroke-width:1.0;"/><polygon fill="none" points="1312,110.466,1293.6988,105.4592,1294.355,117.4412,1312,110.466" style="stroke:#181818;stroke-width:1.0;"/><path d="M1294.0269,111.4502 C1099.4549,122.1055 879.3659,140.1358 668,174 C620.9261,181.542 570.693,192.5062 524.048,203.9607 " fill="none" style="stroke:#181818;stroke-width:1.0;"/><text fill="#888888" font-family="sans-serif" font-size="10" lengthAdjust="spacing" textLength="2.6" x="1752.2" y="329.69">&#160;</text><a href="https://github.com/talsma-ict/umldoclet" target="_top" title="https://github.com/talsma-ict/umldoclet" xlink:actuate="onRequest" xlink:href="https://github.com/talsma-ict/umldoclet" xlink:show="new" xlink:title="https://github.com/talsma-ict/umldoclet" xlink:type="simple"><text fill="#888888" font-family="sans-serif" font-size="10" lengthAdjust="spacing" textLength="76.7199" x="1715.14" y="343.31">UMLDoclet 2.2.1</text></a><!--SRC=[nLTHRzem47xVhxYf3wDg2I5TDnQXIOnsNIScLONsXV5W73U9SEpCTkXGnt-VdQGbG82KLcfUICxdxpv_TyO-080FqENnJ8H-e41nK44euUPN3n3pm2UC2AI81s64V29XJ2XdlimS2Q141Lm0lqk_C1U2o9WpBsG-_4HJ198d0XDflNi7QQZ18_ezaWNqySmOppYcH46jUrYWvDZDJtN7TZx2054P8RZi3gmSRJ77iHoh2HgRXfWmgI4JvX6Hqkh42EkVNZPo35CYPCYPdcFdE6Qfc3E5GYOXHa99iwGhYfWoN9kMYMzzXbgdtrlcPdz9kHr3Hp2KU73D_oHFotqV2-HhnXJDUA90HaGXXj8XgJbBeaCXfVLptMo29ZhHCcikaHNeT-V4mY6o915JJTuAevXQ22jDtagq4HwoQUR154a9Pw54OqekEFSfwUZa4AP2R69q1V7C1wBz30s6msTuMu6Aw6Ya8qBXEOe5rzcLkLEj2k0rCGgfGnUgUPjwacGfx04MH9TD9uwfyTTod4-r-tSkzYFIBONBnyiYdml1nIErshvBcQzbZ-XI9XsCUS9K8KqbvehvACui2Bzita_XSkXNa78hkJND-aHLhFQAdjMKtGMsK6ItvrxwLoVmyfGyUmabMK821_g_Eeb8iRHBxLKpK9nQr7lPlgUwvU2leULMUclATGF4V7AbN- -vy1RAbTghARSyjR2u5VjUocq4Vx5oE-ZboisVVP9gbqZV1XQQeR5KGW_c6UZadzyI6RA5Z9SQeZq0ybSHvfaAJwtvWexXTdqa8_nL9y-o6bdKnXRmycHko40-puKLeFPMtOytfYNdkXnwYcZecQtlmktZwvB7mwDqyurPtAZB3g0j9RSf2PMhRbwidCeLuxfRaWVjV_LwrNkSwpxZ9lQ694lk8M_7fk9n_fO4IywsjwDJUc1a9T-MQaOBc_sESvLs5yKj-MCM4z4BsQJBgMvP3bhbepUcxQAQg-xqyCHG1djbexKRXNXvhDziE0oKYgNRQFYX2fAnaQ2XqfQl7cBLI2BgPRtUIjSt6kLTtCLJEsbQidhJgJlEeDbodQPxOblsQQlLj5kdhIExwThsy3mHF2QDlk9u4d0QZVu3]--></g></svg>