<svg xmlns="http://www.w3.org/2000/svg" xmlns:xlink="http://www.w3.org/1999/xlink" contentStyleType="text/css" data-diagram-type="CLASS" height="217px" preserveAspectRatio="none" style="width:565px;height:217px;background:#FFFFFF;" version="1.1" viewBox="0 0 565 217" width="565px" zoomAndPan="magnify"><defs/><g><!--class com.hack23.cia.web.impl.ui.application.views.common.action.PageActionEventHelperImpl--><g class="entity" data-entity="com.hack23.cia.web.impl.ui.application.views.common.action.PageActionEventHelperImpl" data-source-line="13" data-uid="ent0002" id="entity_com.hack23.cia.web.impl.ui.application.views.common.action.PageActionEventHelperImpl"><a href="PageActionEventHelperImpl.html" target="_top" title="PageActionEventHelperImpl.html" xlink:actuate="onRequest" xlink:href="PageActionEventHelperImpl.html" xlink:show="new" xlink:title="PageActionEventHelperImpl.html" xlink:type="simple"><rect fill="#F1F1F1" height="69.7558" rx="2.5" ry="2.5" style="stroke:#181818;stroke-width:0.5;" width="552.202" x="6" y="118"/><ellipse cx="133.7461" cy="139.344" fill="#ADD1B2" rx="11" ry="11" style="stroke:#181818;stroke-width:1;"/><path d="M136.7149,144.9846 Q136.1367,145.2815 135.4961,145.4221 Q134.8555,145.5783 134.1524,145.5783 Q131.6524,145.5783 130.3242,143.9377 Q129.0117,142.2815 129.0117,139.1565 Q129.0117,136.0315 130.3242,134.3752 Q131.6524,132.719 134.1524,132.719 Q134.8555,132.719 135.4961,132.8752 Q136.1524,133.0315 136.7149,133.3283 L136.7149,136.0471 Q136.0899,135.469 135.4961,135.2033 Q134.9024,134.9221 134.2774,134.9221 Q132.9336,134.9221 132.2461,136.0002 Q131.5586,137.0627 131.5586,139.1565 Q131.5586,141.2502 132.2461,142.3283 Q132.9336,143.3908 134.2774,143.3908 Q134.9024,143.3908 135.4961,143.1252 Q136.0899,142.844 136.7149,142.2658 L136.7149,144.9846 Z " fill="#000000"/><text fill="#000000" font-family="sans-serif" font-size="14" lengthAdjust="spacing" textLength="185.0093" x="205.8464" y="137.9659">PageActionEventHelperImpl</text><text fill="#000000" font-family="sans-serif" font-size="10" lengthAdjust="spacing" textLength="288.2098" x="154.2461" y="152.7579">com.hack23.cia.web.impl.ui.application.views.common.action</text><line style="stroke:#181818;stroke-width:0.5;" x1="7" x2="557.202" y1="160.6879" y2="160.6879"/><ellipse cx="17" cy="175.7219" fill="#84BE84" rx="3" ry="3" style="stroke:#038048;stroke-width:1;"/><text fill="#000000" font-family="sans-serif" font-size="14" lengthAdjust="spacing" textLength="526.202" x="26" y="179.6538">createPageEvent(ViewAction, ApplicationEventGroup, String, String, String): void</text></a></g><!--class com.hack23.cia.web.impl.ui.application.views.common.action.PageActionEventHelper--><g class="entity" data-entity="com.hack23.cia.web.impl.ui.application.views.common.action.PageActionEventHelper" data-source-line="17" data-uid="ent0003" id="entity_com.hack23.cia.web.impl.ui.application.views.common.action.PageActionEventHelper"><a href="PageActionEventHelper.html" target="_top" title="PageActionEventHelper.html" xlink:actuate="onRequest" xlink:href="PageActionEventHelper.html" xlink:show="new" xlink:title="PageActionEventHelper.html" xlink:type="simple"><rect fill="#F1F1F1" height="69.7558" rx="2.5" ry="2.5" style="stroke:#181818;stroke-width:0.5;" width="520.0441" x="22" y="12"/><ellipse cx="141.2022" cy="33.344" fill="#B4A7E5" rx="11" ry="11" style="stroke:#181818;stroke-width:1;"/><path d="M137.1241,29.1096 L137.1241,26.9533 L144.5147,26.9533 L144.5147,29.1096 L142.0459,29.1096 L142.0459,37.1877 L144.5147,37.1877 L144.5147,39.344 L137.1241,39.344 L137.1241,37.1877 L139.5928,37.1877 L139.5928,29.1096 L137.1241,29.1096 Z " fill="#000000"/><text fill="#000000" font-family="sans-serif" font-size="14" font-style="italic" lengthAdjust="spacing" textLength="143.6955" x="226.4243" y="31.9659">PageActionEventHelper</text><text fill="#000000" font-family="sans-serif" font-size="10" font-style="italic" lengthAdjust="spacing" textLength="273.1397" x="161.7022" y="46.7579">com.hack23.cia.web.impl.ui.application.views.common.action</text><line style="stroke:#181818;stroke-width:0.5;" x1="23" x2="541.0441" y1="54.6879" y2="54.6879"/><ellipse cx="33" cy="69.7219" fill="#84BE84" rx="3" ry="3" style="stroke:#038048;stroke-width:1;"/><text fill="#000000" font-family="sans-serif" font-size="14" font-style="italic" lengthAdjust="spacing" textLength="494.0441" x="42" y="73.6538">createPageEvent(ViewAction, ApplicationEventGroup, String, String, String): void</text></a></g><g class="link" data-entity-1="com.hack23.cia.web.impl.ui.application.views.common.action.PageActionEventHelper" data-entity-2="com.hack23.cia.web.impl.ui.application.views.common.action.PageActionEventHelperImpl" data-uid="lnk4" id="link_com.hack23.cia.web.impl.ui.application.views.common.action.PageActionEventHelper_com.hack23.cia.web.impl.ui.application.views.common.action.PageActionEventHelperImpl"><polygon fill="none" points="282,82.0535,276,100.0535,288,100.0535,282,82.0535" style="stroke:#181818;stroke-width:1;"/><path d="M282,100.0535 C282,111.546 282,106.3716 282,117.87" fill="none" style="stroke:#181818;stroke-width:1;stroke-dasharray:7,7;"/></g><g class="footer" data-source-line="29"><text fill="#888888" font-family="sans-serif" font-size="10" lengthAdjust="spacing" textLength="2.6" x="277.2" y="192.69">&#160;</text><a href="https://github.com/talsma-ict/umldoclet" target="_top" title="https://github.com/talsma-ict/umldoclet" xlink:actuate="onRequest" xlink:href="https://github.com/talsma-ict/umldoclet" xlink:show="new" xlink:title="https://github.com/talsma-ict/umldoclet" xlink:type="simple"><text fill="#888888" font-family="sans-serif" font-size="10" lengthAdjust="spacing" textLength="76.7199" x="240.14" y="206.31">UMLDoclet 2.2.4</text></a></g><!--SRC=[pLJVJzim47xdhxYnXu6WhfCL61L2gZe4J9s4rhANqWVNkIPM7JkpdLOTut_V9UbAnuOcJKEQ5Ido_VZkky_s0G2yWRujLawbMO1W8MJAm-t70GYJG8e6dGYOWCf5YXwcgAr9VHE88CgGMGTsLk-aTGvzOKsYJ0eVn4A0jwMJwDdE3jIbHZ_Gby9leKzNbV6zbHe3xFNtjoZ5F3fknJm-Xf7GFXTmtH-nDTfZJinYrW72ragYyGHPcWHTJQjN24c_GUCvX0KwhwoX7Bx6gLgLrWIXZ8T2kE2hbcwqCA7Y6Z6gVyGY3dkzuU1dSloq9dS8FMT4cS0d-wNSzFkgS28bobgiR1d0vnY44OtF4siZSj9BI1mYLHM1f3JMOEtFL8A0UH5MC5Ee4__KIc2P9NDjbrfu3xjdNdt5RjGvlw7Jwib0RLuiq8Ghr0MwwxpGTsOTmy-bpLacv3n-owGIR8bJfYY2bOg9eY0XHPNF5WgNdb5mJXjHO-u2dTxVfxDdsS5u_AoFPI7NamdSrmrNwq0wfEjJPTInUv-fLfDBv_78eNPUEbiMXp0CZYxdq_z-5nPM9JNoGwEeCW7TZCxcJwh-lue-f-QlIjwBgG-Ei1vULjH_tk7PDyPUv2OsVCzyM6ayt-WqivPknPPmrRfQKSv0cNdVQdh1hz_ztdjR3IIj3D8Cb7E3z5xv9lAXATVUghUkTMV6uoo4mdVRxLI5h9nMBRH3FGnRIePscUkacO9Fvk5aifvlbvj1Mysg5k-qecWKTRhHIRTpn4xuAUT7z1tmkClv-A9qji3sC5WvpwpE9zy1]--></g></svg>