<svg xmlns="http://www.w3.org/2000/svg" xmlns:xlink="http://www.w3.org/1999/xlink" contentStyleType="text/css" data-diagram-type="CLASS" height="247px" preserveAspectRatio="none" style="width:439px;height:247px;background:#FFFFFF;" version="1.1" viewBox="0 0 439 247" width="439px" zoomAndPan="magnify"><defs/><g><!--class com.hack23.cia.service.impl.rules.CommitteeComplianceCheckImpl--><g class="entity" data-entity="com.hack23.cia.service.impl.rules.CommitteeComplianceCheckImpl" data-source-line="13" data-uid="ent0002" id="entity_com.hack23.cia.service.impl.rules.CommitteeComplianceCheckImpl"><a href="CommitteeComplianceCheckImpl.html" target="_top" title="CommitteeComplianceCheckImpl.html" xlink:actuate="onRequest" xlink:href="CommitteeComplianceCheckImpl.html" xlink:show="new" xlink:title="CommitteeComplianceCheckImpl.html" xlink:type="simple"><rect fill="#F1F1F1" height="126.9596" rx="2.5" ry="2.5" style="stroke:#181818;stroke-width:0.5;" width="426.4685" x="6" y="91"/><ellipse cx="104.9727" cy="112.344" fill="#ADD1B2" rx="11" ry="11" style="stroke:#181818;stroke-width:1;"/><path d="M107.9414,117.9846 Q107.3633,118.2815 106.7227,118.4221 Q106.082,118.5783 105.3789,118.5783 Q102.8789,118.5783 101.5508,116.9377 Q100.2383,115.2815 100.2383,112.1565 Q100.2383,109.0315 101.5508,107.3752 Q102.8789,105.719 105.3789,105.719 Q106.082,105.719 106.7227,105.8752 Q107.3789,106.0315 107.9414,106.3283 L107.9414,109.0471 Q107.3164,108.469 106.7227,108.2033 Q106.1289,107.9221 105.5039,107.9221 Q104.1602,107.9221 103.4727,109.0002 Q102.7852,110.0627 102.7852,112.1565 Q102.7852,114.2502 103.4727,115.3283 Q104.1602,116.3908 105.5039,116.3908 Q106.1289,116.3908 106.7227,116.1252 Q107.3164,115.844 107.9414,115.2658 L107.9414,117.9846 Z " fill="#000000"/><text fill="#000000" font-family="sans-serif" font-size="14" lengthAdjust="spacing" textLength="220.0231" x="125.4727" y="110.9659">CommitteeComplianceCheckImpl</text><text fill="#000000" font-family="sans-serif" font-size="10" lengthAdjust="spacing" textLength="156.5999" x="157.1843" y="125.7579">com.hack23.cia.service.impl.rules</text><line style="stroke:#181818;stroke-width:0.5;" x1="7" x2="431.4685" y1="133.6879" y2="133.6879"/><ellipse cx="17" cy="148.7219" fill="#84BE84" rx="3" ry="3" style="stroke:#038048;stroke-width:1;"/><text fill="#000000" font-family="sans-serif" font-size="14" lengthAdjust="spacing" textLength="400.4685" x="26" y="152.6538">CommitteeComplianceCheckImpl(ViewRiksdagenCommittee)</text><ellipse cx="17" cy="167.7898" fill="#84BE84" rx="3" ry="3" style="stroke:#038048;stroke-width:1;"/><text fill="#000000" font-family="sans-serif" font-size="14" lengthAdjust="spacing" textLength="282.4069" x="26" y="171.7218">getCommittee(): ViewRiksdagenCommittee</text><ellipse cx="17" cy="186.8577" fill="#84BE84" rx="3" ry="3" style="stroke:#038048;stroke-width:1;"/><text fill="#000000" font-family="sans-serif" font-size="14" lengthAdjust="spacing" textLength="116.2276" x="26" y="190.7897">getName(): String</text><ellipse cx="17" cy="205.9256" fill="#84BE84" rx="3" ry="3" style="stroke:#038048;stroke-width:1;"/><text fill="#000000" font-family="sans-serif" font-size="14" lengthAdjust="spacing" textLength="90.1037" x="26" y="209.8576">getId(): String</text></a></g><!--class com.hack23.cia.service.impl.rules.AbstractComplianceCheckImpl--><g class="entity" data-entity="com.hack23.cia.service.impl.rules.AbstractComplianceCheckImpl" data-source-line="20" data-uid="ent0003" id="entity_com.hack23.cia.service.impl.rules.AbstractComplianceCheckImpl"><a href="AbstractComplianceCheckImpl.html" target="_top" title="AbstractComplianceCheckImpl.html" xlink:actuate="onRequest" xlink:href="AbstractComplianceCheckImpl.html" xlink:show="new" xlink:title="AbstractComplianceCheckImpl.html" xlink:type="simple"><rect fill="#F1F1F1" height="42.6879" rx="2.5" ry="2.5" style="stroke:#181818;stroke-width:0.5;" width="221.3353" x="108.5" y="12"/><ellipse cx="123.5" cy="33.344" fill="#A9DCDF" rx="11" ry="11" style="stroke:#181818;stroke-width:1;"/><path d="M123.6094,28.6877 L122.4531,33.7658 L124.7813,33.7658 L123.6094,28.6877 Z M122.125,26.4533 L125.1094,26.4533 L128.4688,38.844 L126.0156,38.844 L125.25,35.7815 L121.9688,35.7815 L121.2188,38.844 L118.7813,38.844 L122.125,26.4533 Z " fill="#000000"/><text fill="#000000" font-family="sans-serif" font-size="14" font-style="italic" lengthAdjust="spacing" textLength="189.3353" x="137.5" y="31.9659">AbstractComplianceCheckImpl</text><text fill="#000000" font-family="sans-serif" font-size="10" font-style="italic" lengthAdjust="spacing" textLength="147.8898" x="158.2227" y="46.7579">com.hack23.cia.service.impl.rules</text></a></g><g class="link" data-entity-1="com.hack23.cia.service.impl.rules.AbstractComplianceCheckImpl" data-entity-2="com.hack23.cia.service.impl.rules.CommitteeComplianceCheckImpl" data-uid="lnk4" id="link_com.hack23.cia.service.impl.rules.AbstractComplianceCheckImpl_com.hack23.cia.service.impl.rules.CommitteeComplianceCheckImpl"><polygon fill="none" points="219,55.2282,213,73.2282,225,73.2282,219,55.2282" style="stroke:#181818;stroke-width:1;"/><path d="M219,73.2282 C219,83.2834 219,77.9551 219,90.8255" fill="none" style="stroke:#181818;stroke-width:1;"/></g><g class="footer" data-source-line="30"><text fill="#888888" font-family="sans-serif" font-size="10" lengthAdjust="spacing" textLength="2.6" x="214.2" y="222.69">&#160;</text><a href="https://github.com/talsma-ict/umldoclet" target="_top" title="https://github.com/talsma-ict/umldoclet" xlink:actuate="onRequest" xlink:href="https://github.com/talsma-ict/umldoclet" xlink:show="new" xlink:title="https://github.com/talsma-ict/umldoclet" xlink:type="simple"><text fill="#888888" font-family="sans-serif" font-size="10" lengthAdjust="spacing" textLength="76.7199" x="177.14" y="236.31">UMLDoclet 2.2.4</text></a></g><!--SRC=[lLHDJnin4BtpAwRqq228uzq4L2A45ALLIvLM5Gcz10wETzYruhMtzYmeRVdlzNuqa1Ib1wJwikkPvtapp-C107W3Orkid4ep0h90cV9mzNa2mYIGea4d21DGkKZHmmArDQblW0YYfCmwiBVrJbhdq1VM9Cgay4dS2V2sT18zszk3cchs9_gzy4-YBrQLyPsL6WawuuCdASKyEkd6F3w1cT0-5t0ndh4sskEPcCLi026sLXAD3o5Baw2hqneLGeRFfF4SmHqwhwm9PtWRfofLMaD26G-5SEIhahvgOQZADMA1_vX573gZwMGpENvQ9tS48sT4cS2b_LwkwtrLE966bBLOsPB0vqZ2YCRdGzP6v44l8N6AWLLGaD9OWxK_Kma2vWMju5QXJlosDGJBR33NTgc5zx1_vjKF74Q3yx7DSqM467uAhOIHECvGBY_2xjgqC7ukRSuo8PTndqabc4Tt5rHYAg2OApNwVGZtz4yKsqK7y_akDyierpStyBEkerg7k-2TRmhlBzNI9w4VpHfvy7WwHLgREmT3UFx01lvBk8SAEYKNEdV3TP5iEHuQmSN2anEI_b9-r3h-Z_0xs8BkExojx6ttl8Zdx5Ut-y8UQT8uyxJIUBxM_zPQ2c_uiJEgzN5Le9ieinnR7TxBwxVFUw-gvw-LmJ1nvD9Wk2E-HZuqTBqdV2tNjPdFCwB23tkzL55MBbYeh4VrwEagIRqorqapSxQcJn2pcIOVrcEjcWnTFkX6qImw7lB-a0yOZ_jHFpwDJmvvFEHy_hvqji3UbAnSPbRdDxy1]--></g></svg>