<svg xmlns="http://www.w3.org/2000/svg" xmlns:xlink="http://www.w3.org/1999/xlink" contentStyleType="text/css" data-diagram-type="CLASS" height="430px" preserveAspectRatio="none" style="width:580px;height:430px;background:#FFFFFF;" version="1.1" viewBox="0 0 580 430" width="580px" zoomAndPan="magnify"><defs/><g><!--cluster com.hack23.cia.web.impl.ui.application.views.user.parliament.pagemode.risk--><g class="cluster" data-entity="com.hack23.cia.web.impl.ui.application.views.user.parliament.pagemode.risk" data-source-line="10" data-uid="ent0002" id="cluster_com.hack23.cia.web.impl.ui.application.views.user.parliament.pagemode.risk"><path d="M16.5,174 L561.2578,174 A3.75,3.75 0 0 1 563.7578,176.5 L570.7578,199.0679 L570.5,199.0679 A2.5,2.5 0 0 1 573,201.5679 L573,390.5 A2.5,2.5 0 0 1 570.5,393 L16.5,393 A2.5,2.5 0 0 1 14,390.5 L14,176.5 A2.5,2.5 0 0 1 16.5,174" fill="none" style="stroke:#000000;stroke-width:1.5;"/><line style="stroke:#000000;stroke-width:1.5;" x1="14" x2="570.7578" y1="199.0679" y2="199.0679"/><text fill="#000000" font-family="sans-serif" font-size="14" font-weight="bold" lengthAdjust="spacing" textLength="543.7578" x="18" y="190.9659">com.hack23.cia.web.impl.ui.application.views.user.parliament.pagemode.risk</text></g><!--cluster com.hack23.cia.service.api.action.kpi--><g class="cluster" data-entity="com.hack23.cia.service.api.action.kpi" data-source-line="24" data-uid="ent0004" id="cluster_com.hack23.cia.service.api.action.kpi"><path d="M153.5,4 L414.073,4 A3.75,3.75 0 0 1 416.573,6.5 L423.573,29.0679 L432.5,29.0679 A2.5,2.5 0 0 1 435,31.5679 L435,163.5 A2.5,2.5 0 0 1 432.5,166 L153.5,166 A2.5,2.5 0 0 1 151,163.5 L151,6.5 A2.5,2.5 0 0 1 153.5,4" fill="none" style="stroke:#000000;stroke-width:1.5;"/><line style="stroke:#000000;stroke-width:1.5;" x1="151" x2="423.573" y1="29.0679" y2="29.0679"/><text fill="#000000" font-family="sans-serif" font-size="14" font-weight="bold" lengthAdjust="spacing" textLength="259.573" x="155" y="20.9659">com.hack23.cia.service.api.action.kpi</text></g><!--class ComplianceCheckImpl--><g class="entity" data-entity="ComplianceCheckImpl" data-source-line="12" data-uid="ent0003" id="entity_ComplianceCheckImpl"><a href="ComplianceCheckImpl.html" target="_top" title="ComplianceCheckImpl.html" xlink:actuate="onRequest" xlink:href="ComplianceCheckImpl.html" xlink:show="new" xlink:title="ComplianceCheckImpl.html" xlink:type="simple"><rect fill="#F1F1F1" height="181.4754" rx="2.5" ry="2.5" style="stroke:#181818;stroke-width:0.5;" width="306.7409" x="139.5" y="204"/><ellipse cx="215.1137" cy="220" fill="#ADD1B2" rx="11" ry="11" style="stroke:#181818;stroke-width:1;"/><path d="M218.0825,225.6406 Q217.5044,225.9375 216.8637,226.0781 Q216.2231,226.2344 215.52,226.2344 Q213.02,226.2344 211.6919,224.5938 Q210.3794,222.9375 210.3794,219.8125 Q210.3794,216.6875 211.6919,215.0313 Q213.02,213.375 215.52,213.375 Q216.2231,213.375 216.8637,213.5313 Q217.52,213.6875 218.0825,213.9844 L218.0825,216.7031 Q217.4575,216.125 216.8637,215.8594 Q216.27,215.5781 215.645,215.5781 Q214.3012,215.5781 213.6137,216.6563 Q212.9262,217.7188 212.9262,219.8125 Q212.9262,221.9063 213.6137,222.9844 Q214.3012,224.0469 215.645,224.0469 Q216.27,224.0469 216.8637,223.7813 Q217.4575,223.5 218.0825,222.9219 L218.0825,225.6406 Z " fill="#000000"/><text fill="#000000" font-family="sans-serif" font-size="14" lengthAdjust="spacing" textLength="147.0134" x="235.6137" y="225.432">ComplianceCheckImpl</text><line style="stroke:#181818;stroke-width:0.5;" x1="140.5" x2="445.2409" y1="236" y2="236"/><line style="stroke:#181818;stroke-width:0.5;" x1="140.5" x2="445.2409" y1="244" y2="244"/><ellipse cx="150.5" cy="259.034" fill="#84BE84" rx="3" ry="3" style="stroke:#038048;stroke-width:1;"/><text fill="#000000" font-family="sans-serif" font-size="14" lengthAdjust="spacing" textLength="280.7409" x="159.5" y="262.9659">ComplianceCheckImpl(List&lt;RuleViolation&gt;)</text><ellipse cx="150.5" cy="278.1019" fill="#84BE84" rx="3" ry="3" style="stroke:#038048;stroke-width:1;"/><text fill="#000000" font-family="sans-serif" font-size="14" lengthAdjust="spacing" textLength="221.8711" x="159.5" y="282.0339">getResourceType(): ResourceType</text><ellipse cx="150.5" cy="297.1698" fill="#84BE84" rx="3" ry="3" style="stroke:#038048;stroke-width:1;"/><text fill="#000000" font-family="sans-serif" font-size="14" lengthAdjust="spacing" textLength="255.989" x="159.5" y="301.1018">getRuleViolations(): List&lt;RuleViolation&gt;</text><ellipse cx="150.5" cy="316.2377" fill="#84BE84" rx="3" ry="3" style="stroke:#038048;stroke-width:1;"/><text fill="#000000" font-family="sans-serif" font-size="14" lengthAdjust="spacing" textLength="202.6492" x="159.5" y="320.1697">getNumberRuleViolations(): int</text><ellipse cx="150.5" cy="335.3056" fill="#84BE84" rx="3" ry="3" style="stroke:#038048;stroke-width:1;"/><text fill="#000000" font-family="sans-serif" font-size="14" lengthAdjust="spacing" textLength="168.9093" x="159.5" y="339.2376">getRuleSummary(): String</text><ellipse cx="150.5" cy="354.3735" fill="#84BE84" rx="3" ry="3" style="stroke:#038048;stroke-width:1;"/><text fill="#000000" font-family="sans-serif" font-size="14" lengthAdjust="spacing" textLength="90.1037" x="159.5" y="358.3055">getId(): String</text><ellipse cx="150.5" cy="373.4415" fill="#84BE84" rx="3" ry="3" style="stroke:#038048;stroke-width:1;"/><text fill="#000000" font-family="sans-serif" font-size="14" lengthAdjust="spacing" textLength="116.2276" x="159.5" y="377.3734">getName(): String</text></a></g><!--class ComplianceCheck--><g class="entity" data-entity="ComplianceCheck" data-source-line="25" data-uid="ent0005" id="entity_ComplianceCheck"><rect fill="#F1F1F1" height="124.2717" rx="2.5" ry="2.5" style="stroke:#181818;stroke-width:0.5;" width="267.6671" x="159" y="34"/><ellipse cx="233.7597" cy="50" fill="#B4A7E5" rx="11" ry="11" style="stroke:#181818;stroke-width:1;"/><path d="M229.6816,45.7656 L229.6816,43.6094 L237.0722,43.6094 L237.0722,45.7656 L234.6035,45.7656 L234.6035,53.8438 L237.0722,53.8438 L237.0722,56 L229.6816,56 L229.6816,53.8438 L232.1503,53.8438 L232.1503,45.7656 L229.6816,45.7656 Z " fill="#000000"/><text fill="#000000" font-family="sans-serif" font-size="14" font-style="italic" lengthAdjust="spacing" textLength="109.6476" x="254.2597" y="55.432">ComplianceCheck</text><line style="stroke:#181818;stroke-width:0.5;" x1="160" x2="425.6671" y1="66" y2="66"/><line style="stroke:#181818;stroke-width:0.5;" x1="160" x2="425.6671" y1="74" y2="74"/><ellipse cx="170" cy="89.034" fill="#84BE84" rx="3" ry="3" style="stroke:#038048;stroke-width:1;"/><text fill="#000000" font-family="sans-serif" font-size="14" font-style="italic" lengthAdjust="spacing" textLength="204.2593" x="179" y="92.9659">getResourceType(): ResourceType</text><ellipse cx="170" cy="108.1019" fill="#84BE84" rx="3" ry="3" style="stroke:#038048;stroke-width:1;"/><text fill="#000000" font-family="sans-serif" font-size="14" font-style="italic" lengthAdjust="spacing" textLength="241.6671" x="179" y="112.0339">getRuleViolations(): List&lt;RuleViolation&gt;</text><ellipse cx="170" cy="127.1698" fill="#84BE84" rx="3" ry="3" style="stroke:#038048;stroke-width:1;"/><text fill="#000000" font-family="sans-serif" font-size="14" font-style="italic" lengthAdjust="spacing" textLength="84.8397" x="179" y="131.1018">getId(): String</text><ellipse cx="170" cy="146.2377" fill="#84BE84" rx="3" ry="3" style="stroke:#038048;stroke-width:1;"/><text fill="#000000" font-family="sans-serif" font-size="14" font-style="italic" lengthAdjust="spacing" textLength="109.2836" x="179" y="150.1697">getName(): String</text></g><g class="link" data-entity-1="ComplianceCheck" data-entity-2="ComplianceCheckImpl" data-uid="lnk6" id="link_ComplianceCheck_ComplianceCheckImpl"><polygon fill="none" points="293,158.0967,287,176.0967,299,176.0967,293,158.0967" style="stroke:#181818;stroke-width:1;"/><path d="M293,176.0967 C293,190.6301 293,188.4355 293,203.9493" fill="none" style="stroke:#181818;stroke-width:1;stroke-dasharray:7,7;"/></g><g class="footer" data-source-line="41"><text fill="#888888" font-family="sans-serif" font-size="10" lengthAdjust="spacing" textLength="2.6" x="280.7" y="405.69">&#160;</text><a href="https://github.com/talsma-ict/umldoclet" target="_top" title="https://github.com/talsma-ict/umldoclet" xlink:actuate="onRequest" xlink:href="https://github.com/talsma-ict/umldoclet" xlink:show="new" xlink:title="https://github.com/talsma-ict/umldoclet" xlink:type="simple"><text fill="#888888" font-family="sans-serif" font-size="10" lengthAdjust="spacing" textLength="76.7199" x="243.64" y="419.31">UMLDoclet 2.2.4</text></a></g><!--SRC=[hLHHJzim47xdLzoqXnL1tRIK0b4r2NNJ1khGHCjUkZwupf5OTUpCTeegnd_V9UaWf0KDQNv9xBlxxhllx0C0-00ZawsjZ1CFte1Ff8ERRsFWEe8ODLhkCGAPyXWTB50P7RlA4O7dFZ4Mp6sv4yPQT9dHaTGnNF8L1sToAz2nlJqeKqt_ejznLqDVh8l3JqOezD0QxTSezOBkeDqBUWEOSkLI3XUZATkWFSNqM8_rWR2L5AWTGUOwGblIEi-ueC-uiXp22gsJHbDCiC4fIXL6UowrWunRxugIlYkkVS6rooZ_CUi6q3gVZ9-J2yvASeTmRZNF8xWsl_B7UjzbbiT4MV6roJsu53tNl3Gv8ksGSd5F0ePX5K1CbwGpaKbPGl-z8oOaPtUuO3BD5Ciburb6DN9F5R2Ln3l7SeUM4PAIF4NjwJV6r4J8h7HBkA-GYoKKTuxO4vBaMk0eGR6ye1tCPZjEMU9JDPyJ0jJMmGxFrbWwFxpE5VwGHfNSFku_ZuhHNsDr6wRh35lx8TJtsyvrC5UuxyYn5NMLfmkqsx5I-vqP9dcQShikN2RUqgtTyhg8NZ5UaU0xp0-Lv0-lzfIQjg8RIVsadegodSjCriGcpcXlkS1cnneDkUSBvor1FBnDvMRScmLl0BoeLCFlHT5gclsJLc7O56Rucx7_-7Qs4XHtlI8uT7wjy4cFMsEeMutEV2N9xLZgvSWeUkJlJtTRRuf9fQH66evYgP7UQD2GPTYfvTla-gbdiyJxp8MTJYnzaYyObTxnvPHiI-4xUQgYQZms1kLylXbyNnudS374sa6_tUrEk_smUnBs- -ni40nEZa_FZWw2NXW4iy-vDHbs9jw8PM9KEly3]--></g></svg>