<svg xmlns="http://www.w3.org/2000/svg" xmlns:xlink="http://www.w3.org/1999/xlink" contentStyleType="text/css" data-diagram-type="CLASS" height="435px" preserveAspectRatio="none" style="width:469px;height:435px;background:#FFFFFF;" version="1.1" viewBox="0 0 469 435" width="469px" zoomAndPan="magnify"><defs/><g><!--class com.hack23.cia.web.impl.ui.application.views.common.abstracts.AbstractView--><g class="entity" data-entity="com.hack23.cia.web.impl.ui.application.views.common.abstracts.AbstractView" data-source-line="13" data-uid="ent0002" id="entity_com.hack23.cia.web.impl.ui.application.views.common.abstracts.AbstractView"><a href="AbstractView.html" target="_top" title="AbstractView.html" xlink:actuate="onRequest" xlink:href="AbstractView.html" xlink:show="new" xlink:title="AbstractView.html" xlink:type="simple"><rect fill="#F1F1F1" height="287.5029" rx="2.5" ry="2.5" style="stroke:#181818;stroke-width:0.5;" width="430.2065" x="6" y="118"/><ellipse cx="73.5784" cy="139.344" fill="#A9DCDF" rx="11" ry="11" style="stroke:#181818;stroke-width:1;"/><path d="M73.6878,134.6877 L72.5315,139.7658 L74.8597,139.7658 L73.6878,134.6877 Z M72.2034,132.4533 L75.1878,132.4533 L78.5472,144.844 L76.094,144.844 L75.3284,141.7815 L72.0472,141.7815 L71.2972,144.844 L68.8597,144.844 L72.2034,132.4533 Z " fill="#000000"/><text fill="#000000" font-family="sans-serif" font-size="14" font-style="italic" lengthAdjust="spacing" textLength="79.6317" x="197.5374" y="137.9659">AbstractView</text><text fill="#000000" font-family="sans-serif" font-size="10" font-style="italic" lengthAdjust="spacing" textLength="286.5497" x="94.0784" y="152.7579">com.hack23.cia.web.impl.ui.application.views.common.abstracts</text><line style="stroke:#181818;stroke-width:0.5;" x1="7" x2="435.2065" y1="160.6879" y2="160.6879"/><polygon fill="none" points="17,170.7219,21,174.7219,17,178.7219,13,174.7219" style="stroke:#B38D22;stroke-width:1;"/><text fill="#000000" font-family="sans-serif" font-size="14" lengthAdjust="spacing" textLength="317.4348" x="26" y="179.6538">pageActionEventHelper: PageActionEventHelper</text><polygon fill="none" points="17,189.7898,21,193.7898,17,197.7898,13,193.7898" style="stroke:#B38D22;stroke-width:1;"/><text fill="#000000" font-family="sans-serif" font-size="14" lengthAdjust="spacing" textLength="223.9151" x="26" y="198.7218">pageLinkFactory: PageLinkFactory</text><polygon fill="none" points="17,208.8577,21,212.8577,17,216.8577,13,212.8577" style="stroke:#B38D22;stroke-width:1;"/><text fill="#000000" font-family="sans-serif" font-size="14" lengthAdjust="spacing" textLength="158.9274" x="26" y="217.7897">applicationName: String</text><polygon fill="none" points="17,227.9256,21,231.9256,17,235.9256,13,231.9256" style="stroke:#B38D22;stroke-width:1;"/><text fill="#000000" font-family="sans-serif" font-size="14" lengthAdjust="spacing" textLength="168.9654" x="26" y="236.8576">applicationVersion: String</text><polygon fill="none" points="17,246.9935,21,250.9935,17,254.9935,13,250.9935" style="stroke:#B38D22;stroke-width:1;"/><text fill="#000000" font-family="sans-serif" font-size="14" lengthAdjust="spacing" textLength="139.0755" x="26" y="255.9255">applicationUrl: String</text><line style="stroke:#181818;stroke-width:0.5;" x1="7" x2="435.2065" y1="264.0275" y2="264.0275"/><polygon fill="#FFFF44" points="17,274.0614,21,278.0614,17,282.0614,13,278.0614" style="stroke:#B38D22;stroke-width:1;"/><text fill="#000000" font-family="sans-serif" font-size="14" lengthAdjust="spacing" textLength="404.2065" x="26" y="282.9934">AbstractView(Map&lt;String, PageModeContentFactory&gt;, String)</text><polygon fill="#FFFF44" points="17,293.1294,21,297.1294,17,301.1294,13,297.1294" style="stroke:#B38D22;stroke-width:1;"/><text fill="#000000" font-family="sans-serif" font-size="14" lengthAdjust="spacing" textLength="338.6588" x="26" y="302.0613">createBasicLayoutWithPanelAndFooter(String): void</text><ellipse cx="17" cy="317.1973" fill="#84BE84" rx="3" ry="3" style="stroke:#038048;stroke-width:1;"/><text fill="#000000" font-family="sans-serif" font-size="14" lengthAdjust="spacing" textLength="196.7972" x="26" y="321.1293">enter(ViewChangeEvent): void</text><ellipse cx="17" cy="336.2652" fill="#84BE84" rx="3" ry="3" style="stroke:#038048;stroke-width:1;"/><text fill="#000000" font-family="sans-serif" font-size="14" lengthAdjust="spacing" textLength="159.0114" x="26" y="340.1972">getBarmenu(): MenuBar</text><polygon fill="#FFFF44" points="17,350.3331,21,354.3331,17,358.3331,13,354.3331" style="stroke:#B38D22;stroke-width:1;"/><text fill="#000000" font-family="sans-serif" font-size="14" lengthAdjust="spacing" textLength="110.3196" x="26" y="359.2651">getPanel(): Panel</text><ellipse cx="17" cy="374.401" fill="#84BE84" rx="3" ry="3" style="stroke:#038048;stroke-width:1;"/><text fill="#000000" font-family="sans-serif" font-size="14" lengthAdjust="spacing" textLength="136.3735" x="26" y="378.333">postConstruct(): void</text><ellipse cx="17" cy="393.4689" fill="#84BE84" rx="3" ry="3" style="stroke:#038048;stroke-width:1;"/><text fill="#000000" font-family="sans-serif" font-size="14" lengthAdjust="spacing" textLength="147.1394" x="26" y="397.4009">getViewName(): String</text></a></g><!--class com.vaadin.ui.Panel--><g class="entity" data-entity="com.vaadin.ui.Panel" data-source-line="28" data-uid="ent0003" id="entity_com.vaadin.ui.Panel"><rect fill="#F1F1F1" height="42.6879" rx="2.5" ry="2.5" style="stroke:#181818;stroke-width:0.5;" width="97.53" x="69" y="25.5"/><ellipse cx="84" cy="46.844" fill="#ADD1B2" rx="11" ry="11" style="stroke:#181818;stroke-width:1;"/><path d="M86.9688,52.4846 Q86.3906,52.7815 85.75,52.9221 Q85.1094,53.0783 84.4063,53.0783 Q81.9063,53.0783 80.5781,51.4377 Q79.2656,49.7815 79.2656,46.6565 Q79.2656,43.5315 80.5781,41.8752 Q81.9063,40.219 84.4063,40.219 Q85.1094,40.219 85.75,40.3752 Q86.4063,40.5315 86.9688,40.8283 L86.9688,43.5471 Q86.3438,42.969 85.75,42.7033 Q85.1563,42.4221 84.5313,42.4221 Q83.1875,42.4221 82.5,43.5002 Q81.8125,44.5627 81.8125,46.6565 Q81.8125,48.7502 82.5,49.8283 Q83.1875,50.8908 84.5313,50.8908 Q85.1563,50.8908 85.75,50.6252 Q86.3438,50.344 86.9688,49.7658 L86.9688,52.4846 Z " fill="#000000"/><text fill="#000000" font-family="sans-serif" font-size="14" lengthAdjust="spacing" textLength="36.4839" x="112.523" y="45.4659">Panel</text><text fill="#000000" font-family="sans-serif" font-size="10" lengthAdjust="spacing" textLength="65.53" x="98" y="60.2579">com.vaadin.ui</text></g><!--class com.hack23.cia.web.impl.ui.application.views.contracts.IView--><g class="entity" data-entity="com.hack23.cia.web.impl.ui.application.views.contracts.IView" data-source-line="29" data-uid="ent0004" id="entity_com.hack23.cia.web.impl.ui.application.views.contracts.IView"><a href="../../contracts/IView.html" target="_top" title="../../contracts/IView.html" xlink:actuate="onRequest" xlink:href="../../contracts/IView.html" xlink:show="new" xlink:title="../../contracts/IView.html" xlink:type="simple"><rect fill="#F1F1F1" height="69.7558" rx="2.5" ry="2.5" style="stroke:#181818;stroke-width:0.5;" width="277.0697" x="185.5" y="12"/><ellipse cx="200.5" cy="33.344" fill="#B4A7E5" rx="11" ry="11" style="stroke:#181818;stroke-width:1;"/><path d="M196.4219,29.1096 L196.4219,26.9533 L203.8125,26.9533 L203.8125,29.1096 L201.3438,29.1096 L201.3438,37.1877 L203.8125,37.1877 L203.8125,39.344 L196.4219,39.344 L196.4219,37.1877 L198.8906,37.1877 L198.8906,29.1096 L196.4219,29.1096 Z " fill="#000000"/><text fill="#000000" font-family="sans-serif" font-size="14" font-style="italic" lengthAdjust="spacing" textLength="32.9839" x="320.5429" y="31.9659">IView</text><text fill="#000000" font-family="sans-serif" font-size="10" font-style="italic" lengthAdjust="spacing" textLength="245.0697" x="214.5" y="46.7579">com.hack23.cia.web.impl.ui.application.views.contracts</text><line style="stroke:#181818;stroke-width:0.5;" x1="186.5" x2="461.5697" y1="54.6879" y2="54.6879"/><ellipse cx="196.5" cy="69.7219" fill="#84BE84" rx="3" ry="3" style="stroke:#038048;stroke-width:1;"/><text fill="#000000" font-family="sans-serif" font-size="14" font-style="italic" lengthAdjust="spacing" textLength="137.7315" x="205.5" y="73.6538">getViewName(): String</text></a></g><g class="link" data-entity-1="com.vaadin.ui.Panel" data-entity-2="com.hack23.cia.web.impl.ui.application.views.common.abstracts.AbstractView" data-uid="lnk5" id="link_com.vaadin.ui.Panel_com.hack23.cia.web.impl.ui.application.views.common.abstracts.AbstractView"><polygon fill="none" points="128.0636,68.8112,130.4981,87.628,141.3013,82.4039,128.0636,68.8112" style="stroke:#181818;stroke-width:1;"/><path d="M135.8997,85.0159 C141.9741,97.5776 142.4702,98.6034 151.6681,117.6244" fill="none" style="stroke:#181818;stroke-width:1;"/></g><g class="link" data-entity-1="com.hack23.cia.web.impl.ui.application.views.contracts.IView" data-entity-2="com.hack23.cia.web.impl.ui.application.views.common.abstracts.AbstractView" data-uid="lnk6" id="link_com.hack23.cia.web.impl.ui.application.views.contracts.IView_com.hack23.cia.web.impl.ui.application.views.common.abstracts.AbstractView"><polygon fill="none" points="307.4513,82.2221,294.2136,95.8149,305.0167,101.039,307.4513,82.2221" style="stroke:#181818;stroke-width:1;"/><path d="M299.6151,98.4269 C294.554,108.8931 296.4763,104.9179 290.1592,117.9815" fill="none" style="stroke:#181818;stroke-width:1;stroke-dasharray:7,7;"/></g><g class="footer" data-source-line="42"><text fill="#888888" font-family="sans-serif" font-size="10" lengthAdjust="spacing" textLength="2.6" x="229.45" y="410.69">&#160;</text><a href="https://github.com/talsma-ict/umldoclet" target="_top" title="https://github.com/talsma-ict/umldoclet" xlink:actuate="onRequest" xlink:href="https://github.com/talsma-ict/umldoclet" xlink:show="new" xlink:title="https://github.com/talsma-ict/umldoclet" xlink:type="simple"><text fill="#888888" font-family="sans-serif" font-size="10" lengthAdjust="spacing" textLength="76.7199" x="192.39" y="424.31">UMLDoclet 2.2.4</text></a></g><!--SRC=[hLLjRzD84FxEhvY33mJHR9mGMeYYIY47HqyfggujV0ZvC5bFxLNNkxxTTQeSzBypVgbZskY402kIutbvvfdninu0WASmj_dMgIGD42o4L7cuF5q0cXWICkGmK0mgmuGyh4bRa_Wwa02Ba5e7zgfwajOvyhariJ89_8qR16yB9ycBHu-WAdLnXtw3leE-tfR6FwtK5A0tVzQXD8g6X_rHD3g42zG-GpYPNuW6RPSp4YCn1iRMIfBn35cOc5n5QvQZvDkYzXp0XfnNrd1ErE2KhKfh0YhZ8KSNVDdIcKOJIgv3mVLVYc44lTdvudjoqUkAt07CdC4YXd_ilqNRxn-vmuGfQzpQ8e3FAA31skUPjS6CvuMIpechOk1H6ckeygSg9g0i3rkuKgHZVz_AOAbbSsN7jGyEPG2fqNjuFFNgFveCnyUpnl5HqSrdqvYZOsapaQAy7hqGKg6ueRLGMQv5eGJcEGyH0uz8R3ZB2mxE-E6kXdyC_F9-2K5qQS5osNqKQSZqQWLVgiRAwqdEsfl94k_jXanuJpedDu6pVURlinRANBzZOEksTNp7i8li4Fx0hsG2vy6nXFS6VApLyxynbqu_z7Txx9rYFgq33YfQfpQcEIkGssZO7Hyq2Czs4D8H7vStw9LSL9Bwf49wXeRqpCJlh0taUatI13PMnMtgSmPcPrbxdg99g9hOWwY4mXjq6PcYnxvJllFZhZwxgsgbi_gpoyoj3zm0jrZ8qDi7NDOkfriwExEvhGLyNxSL_3t1RX3voy8AQmNOMiIEZYexlU93rK4x-JNvcv_NVPCgJXgb2p7WNsiVdEoN_9UxetBx8xDxE0cOVkttV-CPRUlyTElJhqByJa8LewaFMqt7xTYkgZFGcMDvlT_oPw4yztEh-GlxvDL-xsMvCBGon3jANXjYEKPjv6rTRj2frzJwR9RBD8JSJmQ3X8zZiIw93qArhFfAXa6HwRZUKlVsrMhLx9-_saLOxf9-DEuFXnV3yMHuD1c_58U7Ho-EZbv5m-VHQ195oxU5ipaDpeELrwdLsUeR]--></g></svg>