<svg xmlns="http://www.w3.org/2000/svg" xmlns:xlink="http://www.w3.org/1999/xlink" contentStyleType="text/css" height="236px" preserveAspectRatio="none" style="width:453px;height:236px;background:#FFFFFF;" version="1.1" viewBox="0 0 453 236" width="453px" zoomAndPan="magnify"><defs/><g><!--class com.hack23.cia.web.impl.ui.application.views.user.party.pagemode.PartyCurrentLeadersPageModContentFactoryImpl--><a href="PartyCurrentLeadersPageModContentFactoryImpl.html" target="_top" title="PartyCurrentLeadersPageModContentFactoryImpl.html" xlink:actuate="onRequest" xlink:href="PartyCurrentLeadersPageModContentFactoryImpl.html" xlink:show="new" xlink:title="PartyCurrentLeadersPageModContentFactoryImpl.html" xlink:type="simple"><g id="elem_com.hack23.cia.web.impl.ui.application.views.user.party.pagemode.PartyCurrentLeadersPageModContentFactoryImpl"><rect codeLine="13" fill="#F1F1F1" height="88.8237" id="com.hack23.cia.web.impl.ui.application.views.user.party.pagemode.PartyCurrentLeadersPageModContentFactoryImpl" rx="2.5" ry="2.5" style="stroke:#181818;stroke-width:0.5;" width="362.6228" x="42.5" y="118"/><ellipse cx="57.5" cy="139.344" fill="#ADD1B2" rx="11" ry="11" style="stroke:#181818;stroke-width:1.0;"/><path d="M60.4688,144.9846 Q59.8906,145.2815 59.25,145.4221 Q58.6094,145.5783 57.9063,145.5783 Q55.4063,145.5783 54.0781,143.9377 Q52.7656,142.2815 52.7656,139.1565 Q52.7656,136.0315 54.0781,134.3752 Q55.4063,132.719 57.9063,132.719 Q58.6094,132.719 59.25,132.8752 Q59.9063,133.0315 60.4688,133.3283 L60.4688,136.0471 Q59.8438,135.469 59.25,135.2033 Q58.6563,134.9221 58.0313,134.9221 Q56.6875,134.9221 56,136.0002 Q55.3125,137.0627 55.3125,139.1565 Q55.3125,141.2502 56,142.3283 Q56.6875,143.3908 58.0313,143.3908 Q58.6563,143.3908 59.25,143.1252 Q59.8438,142.844 60.4688,142.2658 L60.4688,144.9846 Z " fill="#000000"/><text fill="#000000" font-family="sans-serif" font-size="14" lengthAdjust="spacing" textLength="330.6228" x="71.5" y="137.9659">PartyCurrentLeadersPageModContentFactoryImpl</text><text fill="#000000" font-family="sans-serif" font-size="10" lengthAdjust="spacing" textLength="316.3597" x="78.6316" y="152.7579">com.hack23.cia.web.impl.ui.application.views.user.party.pagemode</text><line style="stroke:#181818;stroke-width:0.5;" x1="43.5" x2="404.1228" y1="160.6879" y2="160.6879"/><ellipse cx="53.5" cy="175.7219" fill="#84BE84" rx="3" ry="3" style="stroke:#038048;stroke-width:1.0;"/><text fill="#000000" font-family="sans-serif" font-size="14" lengthAdjust="spacing" textLength="305.4228" x="62.5" y="179.6538">createContent(String, MenuBar, Panel): Layout</text><ellipse cx="53.5" cy="194.7898" fill="#84BE84" rx="3" ry="3" style="stroke:#038048;stroke-width:1.0;"/><text fill="#000000" font-family="sans-serif" font-size="14" lengthAdjust="spacing" textLength="211.5112" x="62.5" y="198.7218">matches(String, String): boolean</text></g></a><!--class com.hack23.cia.web.impl.ui.application.views.common.pagemode.AbstractItemPageModContentFactoryImpl--><a href="../../../common/pagemode/AbstractItemPageModContentFactoryImpl.html" target="_top" title="../../../common/pagemode/AbstractItemPageModContentFactoryImpl.html" xlink:actuate="onRequest" xlink:href="../../../common/pagemode/AbstractItemPageModContentFactoryImpl.html" xlink:show="new" xlink:title="../../../common/pagemode/AbstractItemPageModContentFactoryImpl.html" xlink:type="simple"><g id="elem_com.hack23.cia.web.impl.ui.application.views.common.pagemode.AbstractItemPageModContentFactoryImpl"><rect codeLine="18" fill="#F1F1F1" height="69.7558" id="com.hack23.cia.web.impl.ui.application.views.common.pagemode.AbstractItemPageModContentFactoryImpl" rx="2.5" ry="2.5" style="stroke:#181818;stroke-width:0.5;" width="436.1324" x="6" y="12"/><ellipse cx="21" cy="33.344" fill="#A9DCDF" rx="11" ry="11" style="stroke:#181818;stroke-width:1.0;"/><path d="M21.1094,28.6877 L19.9531,33.7658 L22.2813,33.7658 L21.1094,28.6877 Z M19.625,26.4533 L22.6094,26.4533 L25.9688,38.844 L23.5156,38.844 L22.75,35.7815 L19.4688,35.7815 L18.7188,38.844 L16.2813,38.844 L19.625,26.4533 Z " fill="#000000"/><text fill="#000000" font-family="sans-serif" font-size="14" font-style="italic" lengthAdjust="spacing" textLength="261.057" x="50.9813" y="31.9659">AbstractItemPageModContentFactoryImpl</text><text fill="#000000" font-family="sans-serif" font-size="10" font-style="italic" lengthAdjust="spacing" textLength="293.0197" x="35" y="46.7579">com.hack23.cia.web.impl.ui.application.views.common.pagemode</text><rect fill="#FFFFFF" height="18.3441" style="stroke:#181818;stroke-width:1.0;stroke-dasharray:2.0,2.0;" width="109.1127" x="336.0197" y="9"/><text fill="#000000" font-family="sans-serif" font-size="12" font-style="italic" lengthAdjust="spacing" textLength="107.1127" x="337.0197" y="22.8281">ViewRiksdagenParty</text><line style="stroke:#181818;stroke-width:0.5;" x1="7" x2="441.1324" y1="54.6879" y2="54.6879"/><polygon fill="#FFFF44" points="17,64.7219,21,68.7219,17,72.7219,13,68.7219" style="stroke:#B38D22;stroke-width:1.0;"/><text fill="#000000" font-family="sans-serif" font-size="14" font-style="italic" lengthAdjust="spacing" textLength="225.5811" x="26" y="73.6538">getItem(String): ViewRiksdagenParty</text></g></a><polygon fill="none" points="224,82.0537,218,100.0537,230,100.0537,224,82.0537" style="stroke:#181818;stroke-width:1.0;"/><path d="M224,100.0537 C224,111.2849 224,105.9359 224,117.7854 " fill="none" style="stroke:#181818;stroke-width:1.0;"/><text fill="#888888" font-family="sans-serif" font-size="10" lengthAdjust="spacing" textLength="2.6" x="219.2" y="211.69">&#160;</text><a href="https://github.com/talsma-ict/umldoclet" target="_top" title="https://github.com/talsma-ict/umldoclet" xlink:actuate="onRequest" xlink:href="https://github.com/talsma-ict/umldoclet" xlink:show="new" xlink:title="https://github.com/talsma-ict/umldoclet" xlink:type="simple"><text fill="#888888" font-family="sans-serif" font-size="10" lengthAdjust="spacing" textLength="76.7199" x="182.14" y="225.31">UMLDoclet 2.2.1</text></a><!--SRC=[lLNRJjj047tlLqpXeI2IjPDmZL2aDBrH1IdYqfUGXuazsAkiTztTDSYb_7l7TWWK-W2zMPOjxywSENFEPW80y0P69Y-jJ58Fte1FfOFpup6WZY4XJHOznI0pJCZ1d9JHYMi22R3mgR5WBkklo5XBBZSwbZg1ptY5u4nX8tBYrIkeIvtTeL-ZUu0-Bwl5ToPIv65ZjFc0KZVixBQxONS7pb2v3E5eT2QMQFSvNT4L7M1i9IFIZY4B7PEjQGrpZFWrRdPQS4NMIQCv9rpYLAr6HdkKsa6ErhkgfOb2xIkk7S7rjyKUR0nFnpzp2mzgRYqOMer532VcQx5gztLkCM762ajJU70PUTJOx3achJ5ZkJ2YK-AYw5b9RJJL-wcC2IZBVGcNabJi7gyoM6fukLwF53e7QuTEVgD-PtimuHxAKS5sQ3ycP2NSXFqxDl68s-J53nXnkV8eozM5NgQ5WyXa8iLeqUs9IAAufhcG724AAJ3FMLhqB9ouadJjHE78Yagiafy9PIQcDM1N_nH4l8GyJASl2HUfpzHi1ZUrQjMr5LdY8xWCtJZrbizk2uv95s_Hjc22cjHc7yQrX_Tf6Ne-L6wLqBmvS6wC8jHrv6tZ3iwTjqpYYKt3vSQHf-ol-yF16N_ylZUF0CIps1v-uTmJkN0nH-ZQcm6R94JGt0reS0SQF0lqgMqtTvhUmdf2TVR6oeAd51wwyUyrWCFlxVR__HqqhHqwNoeQh5IwDCRp4BoNhRe-bJdPiTIBaL4ySTRtVxrxNirF9JNno8uMclZWXgl8swPSyA3UijQ5davJxtFN3u94-hIOLne6lfxTRHdveCXKt0pjH-DxDbkEuu-h_uLgjhR3lNQdTzO9- -51VtjVxEw41vrUhnjkXTr-64xV5zRa59nw4orIexBP3m00]--></g></svg>