<svg xmlns="http://www.w3.org/2000/svg" xmlns:xlink="http://www.w3.org/1999/xlink" contentStyleType="text/css" height="236px" preserveAspectRatio="none" style="width:471px;height:236px;background:#FFFFFF;" version="1.1" viewBox="0 0 471 236" width="471px" zoomAndPan="magnify"><defs/><g><!--class com.hack23.cia.web.impl.ui.application.views.user.party.pagemode.PartySupportAnnualSummaryChartPageModContentFactoryImpl--><a href="PartySupportAnnualSummaryChartPageModContentFactoryImpl.html" target="_top" title="PartySupportAnnualSummaryChartPageModContentFactoryImpl.html" xlink:actuate="onRequest" xlink:href="PartySupportAnnualSummaryChartPageModContentFactoryImpl.html" xlink:show="new" xlink:title="PartySupportAnnualSummaryChartPageModContentFactoryImpl.html" xlink:type="simple"><g id="elem_com.hack23.cia.web.impl.ui.application.views.user.party.pagemode.PartySupportAnnualSummaryChartPageModContentFactoryImpl"><rect codeLine="13" fill="#F1F1F1" height="88.8237" id="com.hack23.cia.web.impl.ui.application.views.user.party.pagemode.PartySupportAnnualSummaryChartPageModContentFactoryImpl" rx="2.5" ry="2.5" style="stroke:#181818;stroke-width:0.5;" width="458.5925" x="6" y="118"/><ellipse cx="21" cy="139.344" fill="#ADD1B2" rx="11" ry="11" style="stroke:#181818;stroke-width:1.0;"/><path d="M23.9688,144.9846 Q23.3906,145.2815 22.75,145.4221 Q22.1094,145.5783 21.4063,145.5783 Q18.9063,145.5783 17.5781,143.9377 Q16.2656,142.2815 16.2656,139.1565 Q16.2656,136.0315 17.5781,134.3752 Q18.9063,132.719 21.4063,132.719 Q22.1094,132.719 22.75,132.8752 Q23.4063,133.0315 23.9688,133.3283 L23.9688,136.0471 Q23.3438,135.469 22.75,135.2033 Q22.1563,134.9221 21.5313,134.9221 Q20.1875,134.9221 19.5,136.0002 Q18.8125,137.0627 18.8125,139.1565 Q18.8125,141.2502 19.5,142.3283 Q20.1875,143.3908 21.5313,143.3908 Q22.1563,143.3908 22.75,143.1252 Q23.3438,142.844 23.9688,142.2658 L23.9688,144.9846 Z " fill="#000000"/><text fill="#000000" font-family="sans-serif" font-size="14" lengthAdjust="spacing" textLength="426.5925" x="35" y="137.9659">PartySupportAnnualSummaryChartPageModContentFactoryImpl</text><text fill="#000000" font-family="sans-serif" font-size="10" lengthAdjust="spacing" textLength="316.3597" x="90.1164" y="152.7579">com.hack23.cia.web.impl.ui.application.views.user.party.pagemode</text><line style="stroke:#181818;stroke-width:0.5;" x1="7" x2="463.5925" y1="160.6879" y2="160.6879"/><ellipse cx="17" cy="175.7219" fill="#84BE84" rx="3" ry="3" style="stroke:#038048;stroke-width:1.0;"/><text fill="#000000" font-family="sans-serif" font-size="14" lengthAdjust="spacing" textLength="305.4228" x="26" y="179.6538">createContent(String, MenuBar, Panel): Layout</text><ellipse cx="17" cy="194.7898" fill="#84BE84" rx="3" ry="3" style="stroke:#038048;stroke-width:1.0;"/><text fill="#000000" font-family="sans-serif" font-size="14" lengthAdjust="spacing" textLength="211.5112" x="26" y="198.7218">matches(String, String): boolean</text></g></a><!--class com.hack23.cia.web.impl.ui.application.views.common.pagemode.AbstractItemPageModContentFactoryImpl--><a href="../../../common/pagemode/AbstractItemPageModContentFactoryImpl.html" target="_top" title="../../../common/pagemode/AbstractItemPageModContentFactoryImpl.html" xlink:actuate="onRequest" xlink:href="../../../common/pagemode/AbstractItemPageModContentFactoryImpl.html" xlink:show="new" xlink:title="../../../common/pagemode/AbstractItemPageModContentFactoryImpl.html" xlink:type="simple"><g id="elem_com.hack23.cia.web.impl.ui.application.views.common.pagemode.AbstractItemPageModContentFactoryImpl"><rect codeLine="18" fill="#F1F1F1" height="69.7558" id="com.hack23.cia.web.impl.ui.application.views.common.pagemode.AbstractItemPageModContentFactoryImpl" rx="2.5" ry="2.5" style="stroke:#181818;stroke-width:0.5;" width="436.1324" x="17.5" y="12"/><ellipse cx="32.5" cy="33.344" fill="#A9DCDF" rx="11" ry="11" style="stroke:#181818;stroke-width:1.0;"/><path d="M32.6094,28.6877 L31.4531,33.7658 L33.7813,33.7658 L32.6094,28.6877 Z M31.125,26.4533 L34.1094,26.4533 L37.4688,38.844 L35.0156,38.844 L34.25,35.7815 L30.9688,35.7815 L30.2188,38.844 L27.7813,38.844 L31.125,26.4533 Z " fill="#000000"/><text fill="#000000" font-family="sans-serif" font-size="14" font-style="italic" lengthAdjust="spacing" textLength="261.057" x="62.4813" y="31.9659">AbstractItemPageModContentFactoryImpl</text><text fill="#000000" font-family="sans-serif" font-size="10" font-style="italic" lengthAdjust="spacing" textLength="293.0197" x="46.5" y="46.7579">com.hack23.cia.web.impl.ui.application.views.common.pagemode</text><rect fill="#FFFFFF" height="18.3441" style="stroke:#181818;stroke-width:1.0;stroke-dasharray:2.0,2.0;" width="109.1127" x="347.5197" y="9"/><text fill="#000000" font-family="sans-serif" font-size="12" font-style="italic" lengthAdjust="spacing" textLength="107.1127" x="348.5197" y="22.8281">ViewRiksdagenParty</text><line style="stroke:#181818;stroke-width:0.5;" x1="18.5" x2="452.6324" y1="54.6879" y2="54.6879"/><polygon fill="#FFFF44" points="28.5,64.7219,32.5,68.7219,28.5,72.7219,24.5,68.7219" style="stroke:#B38D22;stroke-width:1.0;"/><text fill="#000000" font-family="sans-serif" font-size="14" font-style="italic" lengthAdjust="spacing" textLength="225.5811" x="37.5" y="73.6538">getItem(String): ViewRiksdagenParty</text></g></a><polygon fill="none" points="235.5,82.0537,229.5,100.0537,241.5,100.0537,235.5,82.0537" style="stroke:#181818;stroke-width:1.0;"/><path d="M235.5,100.0537 C235.5,111.2849 235.5,105.9359 235.5,117.7854 " fill="none" style="stroke:#181818;stroke-width:1.0;"/><text fill="#888888" font-family="sans-serif" font-size="10" lengthAdjust="spacing" textLength="2.6" x="230.7" y="211.69">&#160;</text><a href="https://github.com/talsma-ict/umldoclet" target="_top" title="https://github.com/talsma-ict/umldoclet" xlink:actuate="onRequest" xlink:href="https://github.com/talsma-ict/umldoclet" xlink:show="new" xlink:title="https://github.com/talsma-ict/umldoclet" xlink:type="simple"><text fill="#888888" font-family="sans-serif" font-size="10" lengthAdjust="spacing" textLength="76.7199" x="193.64" y="225.31">UMLDoclet 2.2.1</text></a><!--SRC=[nLLDJzj04BtpAwPmA0YoTapuYX1IcdvH1GaHw2NaCB47UvNrhhkx1hcK_zwn7GA57X1jLSlooZipRsRUMuy10Dx2q1ILbMdcmHlmcNHmSJ82r0cafCcYfmHaZYavc94oEdMj8m6MFZCMp5Np5XjhoHL69rAdy0Ml4PmfRKnEhAn0a-hy7lq6tIFqMLLllZUn8W_hmur79KLXTxSJXT4EdADoESBny5miq1vY8X69BZ2saZ5fnv2bJiWsPGqAZ7aPjPOjk2RhfD4S4ovmwbPZeprAxQ10wrtTqgb2xUjQkuBpzyGUh0_6erzh2m-QshPWO3MM2PoPR-MotJU5nPGhLbYPqeFBoQF6rkQuQ8qvquKnZOcJecScjT7Ks3EP451U-0gk9Ad4FTrbiCpmThCVAtGELW-T_4xzRk_eb7kencLH6Ei7MfUencMUews66LjEMSeJamovOzB-8yQSkJhE2tMf5mZXKMnoaM4yZxP5B57Sq4n8zX2b55WKp39wvb1SIxfnedHaHSrRnS-KSfFGAh30VmeYNja7J2QlZ1IPpzLq2hSDhVMr6LlYCxfmNHzxouTx2qv8b-_GRi4fQb8RVHWr8Z-4vUZvrBbbGBkouymOHQWRpxjMFfmvRxc8PpeE5ePZJ_bVLusTStvvlM9F0CIBgZtyoh5dSkuIzj2DJ4Uibn11UxUWmJrey2BGvxBTtdDw1sifDT7hImcUb_1OZN_F0Hp-w7J-szVHTddeVANeQ4dObJ6U1-O3W_NrkIh8ZgIU3utYwRIs_tlhHJrhbTJ4upsUQ-8p72uzxzfqmQDyYroNUZB9l2zSFmXIwRDoLjCP-6RETsJiWp9NIJlWdupwwNGnkZyj_o7r7Ew4Uvtkzdatx8S7_Tw-sDtkxVGEUb6q6KRzC9nyAAqfA1Xx4yype_BfJm00]--></g></svg>