<svg xmlns="http://www.w3.org/2000/svg" xmlns:xlink="http://www.w3.org/1999/xlink" contentStyleType="text/css" height="236px" preserveAspectRatio="none" style="width:502px;height:236px;background:#FFFFFF;" version="1.1" viewBox="0 0 502 236" width="502px" zoomAndPan="magnify"><defs/><g><!--class com.hack23.cia.web.impl.ui.application.views.user.party.pagemode.PartyRankingCurrentGovernmentChartsPageModContentFactoryImpl--><a href="PartyRankingCurrentGovernmentChartsPageModContentFactoryImpl.html" target="_top" title="PartyRankingCurrentGovernmentChartsPageModContentFactoryImpl.html" xlink:actuate="onRequest" xlink:href="PartyRankingCurrentGovernmentChartsPageModContentFactoryImpl.html" xlink:show="new" xlink:title="PartyRankingCurrentGovernmentChartsPageModContentFactoryImpl.html" xlink:type="simple"><g id="elem_com.hack23.cia.web.impl.ui.application.views.user.party.pagemode.PartyRankingCurrentGovernmentChartsPageModContentFactoryImpl"><rect codeLine="13" fill="#F1F1F1" height="115.8917" id="com.hack23.cia.web.impl.ui.application.views.user.party.pagemode.PartyRankingCurrentGovernmentChartsPageModContentFactoryImpl" rx="2.5" ry="2.5" style="stroke:#181818;stroke-width:0.5;" width="489.7983" x="6" y="91"/><ellipse cx="21" cy="112.344" fill="#ADD1B2" rx="11" ry="11" style="stroke:#181818;stroke-width:1.0;"/><path d="M23.9688,117.9846 Q23.3906,118.2815 22.75,118.4221 Q22.1094,118.5783 21.4063,118.5783 Q18.9063,118.5783 17.5781,116.9377 Q16.2656,115.2815 16.2656,112.1565 Q16.2656,109.0315 17.5781,107.3752 Q18.9063,105.719 21.4063,105.719 Q22.1094,105.719 22.75,105.8752 Q23.4063,106.0315 23.9688,106.3283 L23.9688,109.0471 Q23.3438,108.469 22.75,108.2033 Q22.1563,107.9221 21.5313,107.9221 Q20.1875,107.9221 19.5,109.0002 Q18.8125,110.0627 18.8125,112.1565 Q18.8125,114.2502 19.5,115.3283 Q20.1875,116.3908 21.5313,116.3908 Q22.1563,116.3908 22.75,116.1252 Q23.3438,115.844 23.9688,115.2658 L23.9688,117.9846 Z " fill="#000000"/><text fill="#000000" font-family="sans-serif" font-size="14" lengthAdjust="spacing" textLength="457.7983" x="35" y="110.9659">PartyRankingCurrentGovernmentChartsPageModContentFactoryImpl</text><text fill="#000000" font-family="sans-serif" font-size="10" lengthAdjust="spacing" textLength="316.3597" x="105.7193" y="125.7579">com.hack23.cia.web.impl.ui.application.views.user.party.pagemode</text><line style="stroke:#181818;stroke-width:0.5;" x1="7" x2="494.7983" y1="133.6879" y2="133.6879"/><ellipse cx="17" cy="148.7219" fill="none" rx="3" ry="3" style="stroke:#038048;stroke-width:1.0;"/><text fill="#000000" font-family="sans-serif" font-size="14" lengthAdjust="spacing" text-decoration="underline" textLength="86.8557" x="26" y="152.6538">NAME: String</text><line style="stroke:#181818;stroke-width:0.5;" x1="7" x2="494.7983" y1="160.7558" y2="160.7558"/><ellipse cx="17" cy="175.7898" fill="#84BE84" rx="3" ry="3" style="stroke:#038048;stroke-width:1.0;"/><text fill="#000000" font-family="sans-serif" font-size="14" lengthAdjust="spacing" textLength="305.4228" x="26" y="179.7218">createContent(String, MenuBar, Panel): Layout</text><ellipse cx="17" cy="194.8577" fill="#84BE84" rx="3" ry="3" style="stroke:#038048;stroke-width:1.0;"/><text fill="#000000" font-family="sans-serif" font-size="14" lengthAdjust="spacing" textLength="211.5112" x="26" y="198.7897">matches(String, String): boolean</text></g></a><!--class com.hack23.cia.web.impl.ui.application.views.common.pagemode.AbstractBasicPageModContentFactoryImpl--><a href="../../../common/pagemode/AbstractBasicPageModContentFactoryImpl.html" target="_top" title="../../../common/pagemode/AbstractBasicPageModContentFactoryImpl.html" xlink:actuate="onRequest" xlink:href="../../../common/pagemode/AbstractBasicPageModContentFactoryImpl.html" xlink:show="new" xlink:title="../../../common/pagemode/AbstractBasicPageModContentFactoryImpl.html" xlink:type="simple"><g id="elem_com.hack23.cia.web.impl.ui.application.views.common.pagemode.AbstractBasicPageModContentFactoryImpl"><rect codeLine="19" fill="#F1F1F1" height="42.6879" id="com.hack23.cia.web.impl.ui.application.views.common.pagemode.AbstractBasicPageModContentFactoryImpl" rx="2.5" ry="2.5" style="stroke:#181818;stroke-width:0.5;" width="325.0197" x="88.5" y="12"/><ellipse cx="103.5" cy="33.344" fill="#A9DCDF" rx="11" ry="11" style="stroke:#181818;stroke-width:1.0;"/><path d="M103.6094,28.6877 L102.4531,33.7658 L104.7813,33.7658 L103.6094,28.6877 Z M102.125,26.4533 L105.1094,26.4533 L108.4688,38.844 L106.0156,38.844 L105.25,35.7815 L101.9688,35.7815 L101.2188,38.844 L98.7813,38.844 L102.125,26.4533 Z " fill="#000000"/><text fill="#000000" font-family="sans-serif" font-size="14" font-style="italic" lengthAdjust="spacing" textLength="264.991" x="131.5143" y="31.9659">AbstractBasicPageModContentFactoryImpl</text><text fill="#000000" font-family="sans-serif" font-size="10" font-style="italic" lengthAdjust="spacing" textLength="293.0197" x="117.5" y="46.7579">com.hack23.cia.web.impl.ui.application.views.common.pagemode</text></g></a><polygon fill="none" points="251,55.054,245,73.054,257,73.054,251,55.054" style="stroke:#181818;stroke-width:1.0;"/><path d="M251,73.054 C251,83.1473 251,77.8625 251,90.62 " fill="none" style="stroke:#181818;stroke-width:1.0;"/><text fill="#888888" font-family="sans-serif" font-size="10" lengthAdjust="spacing" textLength="2.6" x="246.2" y="211.69">&#160;</text><a href="https://github.com/talsma-ict/umldoclet" target="_top" title="https://github.com/talsma-ict/umldoclet" xlink:actuate="onRequest" xlink:href="https://github.com/talsma-ict/umldoclet" xlink:show="new" xlink:title="https://github.com/talsma-ict/umldoclet" xlink:type="simple"><text fill="#888888" font-family="sans-serif" font-size="10" lengthAdjust="spacing" textLength="76.7199" x="209.14" y="225.31">UMLDoclet 2.2.1</text></a><!--SRC=[nLNVJzj037xdh_3Omq3GIngWWmeXbOunfZ8XVZmL7joBQKwzt6Lt5r36-D_d9AKmjWSqfYsgckPiV_xipt410Dx1q1QLKzCiGB0GCkNXudW4Q5AOaY67WL9GEKx9muIqDLFVEX9W6JBhm5utJz8wHxwm9bLc2f_n1i7RqadoOca9cbJd3-Ytw9-WJwhwy8ELcWAi35UVK4hYRg-JnCacdAFsESBHy5pCqHvZ4f68BZ2sLfACPyZIfEGQMeC29Tz6hMKTRiXvPGt7n7ESkbHfJK1bF1JeWgzBEj5eGisrA-hyuZsi3Cv6FtEBTnfkwp1m1iiKJktNSb7kcyBXb1bhh6mPmESKq61hyqpQOCxjGabdn4anS2UDDTJOCvKIK5w42guLwTG_FsMmpF9nSourUW_BkrvzetvtS- -4QwXEqSnOY679gfXmQBbka_ElOLPNUC9w7jjqo6NpsKUKdBuwoWjzQUOmyPwqkSXGpf8D8HMAMve8nHwYL0ABWbkDWHifRXJTUb5wSg9kNiNVKyfjIil0AhyMHBoc61YFNnCkif3hgokuQxfSNtS-C5zv3sjV1iS7VJWBZd4NvZNfY2TwZhJIMjVXc4ovZsuTJj2GNkt3g1c9nx0S0y-eNmIqTtQSMAi9JUDvtugD4nySS_n5zS7Si8zUoR-kBpld_F3dsZu342-ZomeA4RMV5Y5wG8XUXZ0NSVwc_0F6kzyxdVyxzcsjkpvKclOMKtPjRU2T-3ZCzVMfAiYDb9aDhUO5z7RxzzQBUfrgPOWtk9mPui6B5vxtRRheIRvvhaip7cSX5BuVHLCLid9IDpKApIhlA1cYCjTfkyEVRNDMhDtEXuk_YNhLThf99za-xsxrjthzZPv8Ul7cJczZArwBk_qu7X-KpXOKdGKhPvdL-TKF]--></g></svg>