<svg xmlns="http://www.w3.org/2000/svg" xmlns:xlink="http://www.w3.org/1999/xlink" contentStyleType="text/css" height="236px" preserveAspectRatio="none" style="width:453px;height:236px;background:#FFFFFF;" version="1.1" viewBox="0 0 453 236" width="453px" zoomAndPan="magnify"><defs/><g><!--class com.hack23.cia.web.impl.ui.application.views.user.party.pagemode.PartyCommitteeRolesPageModContentFactoryImpl--><a href="PartyCommitteeRolesPageModContentFactoryImpl.html" target="_top" title="PartyCommitteeRolesPageModContentFactoryImpl.html" xlink:actuate="onRequest" xlink:href="PartyCommitteeRolesPageModContentFactoryImpl.html" xlink:show="new" xlink:title="PartyCommitteeRolesPageModContentFactoryImpl.html" xlink:type="simple"><g id="elem_com.hack23.cia.web.impl.ui.application.views.user.party.pagemode.PartyCommitteeRolesPageModContentFactoryImpl"><rect codeLine="13" fill="#F1F1F1" height="88.8237" id="com.hack23.cia.web.impl.ui.application.views.user.party.pagemode.PartyCommitteeRolesPageModContentFactoryImpl" rx="2.5" ry="2.5" style="stroke:#181818;stroke-width:0.5;" width="368.2787" x="40" y="118"/><ellipse cx="55" cy="139.344" fill="#ADD1B2" rx="11" ry="11" style="stroke:#181818;stroke-width:1.0;"/><path d="M57.9688,144.9846 Q57.3906,145.2815 56.75,145.4221 Q56.1094,145.5783 55.4063,145.5783 Q52.9063,145.5783 51.5781,143.9377 Q50.2656,142.2815 50.2656,139.1565 Q50.2656,136.0315 51.5781,134.3752 Q52.9063,132.719 55.4063,132.719 Q56.1094,132.719 56.75,132.8752 Q57.4063,133.0315 57.9688,133.3283 L57.9688,136.0471 Q57.3438,135.469 56.75,135.2033 Q56.1563,134.9221 55.5313,134.9221 Q54.1875,134.9221 53.5,136.0002 Q52.8125,137.0627 52.8125,139.1565 Q52.8125,141.2502 53.5,142.3283 Q54.1875,143.3908 55.5313,143.3908 Q56.1563,143.3908 56.75,143.1252 Q57.3438,142.844 57.9688,142.2658 L57.9688,144.9846 Z " fill="#000000"/><text fill="#000000" font-family="sans-serif" font-size="14" lengthAdjust="spacing" textLength="336.2787" x="69" y="137.9659">PartyCommitteeRolesPageModContentFactoryImpl</text><text fill="#000000" font-family="sans-serif" font-size="10" lengthAdjust="spacing" textLength="316.3597" x="78.9595" y="152.7579">com.hack23.cia.web.impl.ui.application.views.user.party.pagemode</text><line style="stroke:#181818;stroke-width:0.5;" x1="41" x2="407.2787" y1="160.6879" y2="160.6879"/><ellipse cx="51" cy="175.7219" fill="#84BE84" rx="3" ry="3" style="stroke:#038048;stroke-width:1.0;"/><text fill="#000000" font-family="sans-serif" font-size="14" lengthAdjust="spacing" textLength="305.4228" x="60" y="179.6538">createContent(String, MenuBar, Panel): Layout</text><ellipse cx="51" cy="194.7898" fill="#84BE84" rx="3" ry="3" style="stroke:#038048;stroke-width:1.0;"/><text fill="#000000" font-family="sans-serif" font-size="14" lengthAdjust="spacing" textLength="211.5112" x="60" y="198.7218">matches(String, String): boolean</text></g></a><!--class com.hack23.cia.web.impl.ui.application.views.common.pagemode.AbstractItemPageModContentFactoryImpl--><a href="../../../common/pagemode/AbstractItemPageModContentFactoryImpl.html" target="_top" title="../../../common/pagemode/AbstractItemPageModContentFactoryImpl.html" xlink:actuate="onRequest" xlink:href="../../../common/pagemode/AbstractItemPageModContentFactoryImpl.html" xlink:show="new" xlink:title="../../../common/pagemode/AbstractItemPageModContentFactoryImpl.html" xlink:type="simple"><g id="elem_com.hack23.cia.web.impl.ui.application.views.common.pagemode.AbstractItemPageModContentFactoryImpl"><rect codeLine="18" fill="#F1F1F1" height="69.7558" id="com.hack23.cia.web.impl.ui.application.views.common.pagemode.AbstractItemPageModContentFactoryImpl" rx="2.5" ry="2.5" style="stroke:#181818;stroke-width:0.5;" width="436.1324" x="6" y="12"/><ellipse cx="21" cy="33.344" fill="#A9DCDF" rx="11" ry="11" style="stroke:#181818;stroke-width:1.0;"/><path d="M21.1094,28.6877 L19.9531,33.7658 L22.2813,33.7658 L21.1094,28.6877 Z M19.625,26.4533 L22.6094,26.4533 L25.9688,38.844 L23.5156,38.844 L22.75,35.7815 L19.4688,35.7815 L18.7188,38.844 L16.2813,38.844 L19.625,26.4533 Z " fill="#000000"/><text fill="#000000" font-family="sans-serif" font-size="14" font-style="italic" lengthAdjust="spacing" textLength="261.057" x="50.9813" y="31.9659">AbstractItemPageModContentFactoryImpl</text><text fill="#000000" font-family="sans-serif" font-size="10" font-style="italic" lengthAdjust="spacing" textLength="293.0197" x="35" y="46.7579">com.hack23.cia.web.impl.ui.application.views.common.pagemode</text><rect fill="#FFFFFF" height="18.3441" style="stroke:#181818;stroke-width:1.0;stroke-dasharray:2.0,2.0;" width="109.1127" x="336.0197" y="9"/><text fill="#000000" font-family="sans-serif" font-size="12" font-style="italic" lengthAdjust="spacing" textLength="107.1127" x="337.0197" y="22.8281">ViewRiksdagenParty</text><line style="stroke:#181818;stroke-width:0.5;" x1="7" x2="441.1324" y1="54.6879" y2="54.6879"/><polygon fill="#FFFF44" points="17,64.7219,21,68.7219,17,72.7219,13,68.7219" style="stroke:#B38D22;stroke-width:1.0;"/><text fill="#000000" font-family="sans-serif" font-size="14" font-style="italic" lengthAdjust="spacing" textLength="225.5811" x="26" y="73.6538">getItem(String): ViewRiksdagenParty</text></g></a><polygon fill="none" points="224,82.0537,218,100.0537,230,100.0537,224,82.0537" style="stroke:#181818;stroke-width:1.0;"/><path d="M224,100.0537 C224,111.2849 224,105.9359 224,117.7854 " fill="none" style="stroke:#181818;stroke-width:1.0;"/><text fill="#888888" font-family="sans-serif" font-size="10" lengthAdjust="spacing" textLength="2.6" x="219.2" y="211.69">&#160;</text><a href="https://github.com/talsma-ict/umldoclet" target="_top" title="https://github.com/talsma-ict/umldoclet" xlink:actuate="onRequest" xlink:href="https://github.com/talsma-ict/umldoclet" xlink:show="new" xlink:title="https://github.com/talsma-ict/umldoclet" xlink:type="simple"><text fill="#888888" font-family="sans-serif" font-size="10" lengthAdjust="spacing" textLength="76.7199" x="182.14" y="225.31">UMLDoclet 2.2.1</text></a><!--SRC=[lLLDJzj04BtpAwPmQ139sZ6Xa2YAbAPVL46AIEWbvB2n1tkLzQwxkmQvbF_UiHr22Zr0lopBbdTdthnvRpC107WD8vqLHiI90wV19SB2nTaOk8eWHeM6Eun0f3n62qkKMiMs3aJWkKkq0NrLVONQ6BIPLf5GCNpcrnoipas8bktiG5LgTez-m-qM-h8e5z_fKAA3ncX_YrBWjz-q0ZyuWXcNDkLmEfgnDTf3Ji02rWR2bY94PGaoLn6QYjOmuo6znlLE4wxHMA4LvVXhdBBLK2l7XRAGSUDisT94SkLAhcr6zJli61h3wVXdRdwtujQ4eL4yZ-1SVyqtxRxA38-9iUI5pXtO51rNlDwpH5hnbEJY8KwHYd97IYgjiDfFH8I0QUOAk18e8_jubS0IJSlLUYYvjR3Rj-8RzjgTmOHwA4OwJOLpYETQefsGVsSw6b6RgDm77bAvuZJDvALQf_c3KASiuU4gE6IXuEm6bqnG1Ci5urb6qd97mh5hWJUMvHODAyKgw1bZgYFS1NBrJq7OIyZ3VFwIS9QuL2uMS5kfLbu7eK4wWklGnjGPEhjDE4ELl-Mc2HEkKExtO5nv-92MSaU7ocuIwZS5BZKnuAgAlAlTuKlh395uOjDmlN7gCFth_b1mIX-_xyqZ0FOijlqlb7ikLZQY25LvCo2J6FFgkmRrxa6zPu4-jUtsNjCxs8knocviB7XAOTkDVwy1zB-tMl_tTr2trhUka3ZOg7IbjQCX-21RUNqgCZHZeLOZBMdYx9tyUlUYd9zIAAIH7QuKqi7rDv5tTJblgzwwrgMQpnFdCjlpl5Yu95-M6dgkcjqj4JelJsLK3-r7utknM8_ZZvl_XNAsjlpZLljmrlPxVhVNEM57HoT1kzlf7X_uGS_tv-zpepFqfaw7gqJBTF43]--></g></svg>