<svg xmlns="http://www.w3.org/2000/svg" xmlns:xlink="http://www.w3.org/1999/xlink" contentStyleType="text/css" height="236px" preserveAspectRatio="none" style="width:493px;height:236px;background:#FFFFFF;" version="1.1" viewBox="0 0 493 236" width="493px" zoomAndPan="magnify"><defs/><g><!--class com.hack23.cia.web.impl.ui.application.views.user.party.pagemode.PartyRankingCurrentCommitteeChartsPageModContentFactoryImpl--><a href="PartyRankingCurrentCommitteeChartsPageModContentFactoryImpl.html" target="_top" title="PartyRankingCurrentCommitteeChartsPageModContentFactoryImpl.html" xlink:actuate="onRequest" xlink:href="PartyRankingCurrentCommitteeChartsPageModContentFactoryImpl.html" xlink:show="new" xlink:title="PartyRankingCurrentCommitteeChartsPageModContentFactoryImpl.html" xlink:type="simple"><g id="elem_com.hack23.cia.web.impl.ui.application.views.user.party.pagemode.PartyRankingCurrentCommitteeChartsPageModContentFactoryImpl"><rect codeLine="13" fill="#F1F1F1" height="115.8917" id="com.hack23.cia.web.impl.ui.application.views.user.party.pagemode.PartyRankingCurrentCommitteeChartsPageModContentFactoryImpl" rx="2.5" ry="2.5" style="stroke:#181818;stroke-width:0.5;" width="480.0124" x="6" y="91"/><ellipse cx="21" cy="112.344" fill="#ADD1B2" rx="11" ry="11" style="stroke:#181818;stroke-width:1.0;"/><path d="M23.9688,117.9846 Q23.3906,118.2815 22.75,118.4221 Q22.1094,118.5783 21.4063,118.5783 Q18.9063,118.5783 17.5781,116.9377 Q16.2656,115.2815 16.2656,112.1565 Q16.2656,109.0315 17.5781,107.3752 Q18.9063,105.719 21.4063,105.719 Q22.1094,105.719 22.75,105.8752 Q23.4063,106.0315 23.9688,106.3283 L23.9688,109.0471 Q23.3438,108.469 22.75,108.2033 Q22.1563,107.9221 21.5313,107.9221 Q20.1875,107.9221 19.5,109.0002 Q18.8125,110.0627 18.8125,112.1565 Q18.8125,114.2502 19.5,115.3283 Q20.1875,116.3908 21.5313,116.3908 Q22.1563,116.3908 22.75,116.1252 Q23.3438,115.844 23.9688,115.2658 L23.9688,117.9846 Z " fill="#000000"/><text fill="#000000" font-family="sans-serif" font-size="14" lengthAdjust="spacing" textLength="448.0124" x="35" y="110.9659">PartyRankingCurrentCommitteeChartsPageModContentFactoryImpl</text><text fill="#000000" font-family="sans-serif" font-size="10" lengthAdjust="spacing" textLength="316.3597" x="100.8264" y="125.7579">com.hack23.cia.web.impl.ui.application.views.user.party.pagemode</text><line style="stroke:#181818;stroke-width:0.5;" x1="7" x2="485.0124" y1="133.6879" y2="133.6879"/><ellipse cx="17" cy="148.7219" fill="none" rx="3" ry="3" style="stroke:#038048;stroke-width:1.0;"/><text fill="#000000" font-family="sans-serif" font-size="14" lengthAdjust="spacing" text-decoration="underline" textLength="86.8557" x="26" y="152.6538">NAME: String</text><line style="stroke:#181818;stroke-width:0.5;" x1="7" x2="485.0124" y1="160.7558" y2="160.7558"/><ellipse cx="17" cy="175.7898" fill="#84BE84" rx="3" ry="3" style="stroke:#038048;stroke-width:1.0;"/><text fill="#000000" font-family="sans-serif" font-size="14" lengthAdjust="spacing" textLength="305.4228" x="26" y="179.7218">createContent(String, MenuBar, Panel): Layout</text><ellipse cx="17" cy="194.8577" fill="#84BE84" rx="3" ry="3" style="stroke:#038048;stroke-width:1.0;"/><text fill="#000000" font-family="sans-serif" font-size="14" lengthAdjust="spacing" textLength="211.5112" x="26" y="198.7897">matches(String, String): boolean</text></g></a><!--class com.hack23.cia.web.impl.ui.application.views.common.pagemode.AbstractBasicPageModContentFactoryImpl--><a href="../../../common/pagemode/AbstractBasicPageModContentFactoryImpl.html" target="_top" title="../../../common/pagemode/AbstractBasicPageModContentFactoryImpl.html" xlink:actuate="onRequest" xlink:href="../../../common/pagemode/AbstractBasicPageModContentFactoryImpl.html" xlink:show="new" xlink:title="../../../common/pagemode/AbstractBasicPageModContentFactoryImpl.html" xlink:type="simple"><g id="elem_com.hack23.cia.web.impl.ui.application.views.common.pagemode.AbstractBasicPageModContentFactoryImpl"><rect codeLine="19" fill="#F1F1F1" height="42.6879" id="com.hack23.cia.web.impl.ui.application.views.common.pagemode.AbstractBasicPageModContentFactoryImpl" rx="2.5" ry="2.5" style="stroke:#181818;stroke-width:0.5;" width="325.0197" x="83.5" y="12"/><ellipse cx="98.5" cy="33.344" fill="#A9DCDF" rx="11" ry="11" style="stroke:#181818;stroke-width:1.0;"/><path d="M98.6094,28.6877 L97.4531,33.7658 L99.7813,33.7658 L98.6094,28.6877 Z M97.125,26.4533 L100.1094,26.4533 L103.4688,38.844 L101.0156,38.844 L100.25,35.7815 L96.9688,35.7815 L96.2188,38.844 L93.7813,38.844 L97.125,26.4533 Z " fill="#000000"/><text fill="#000000" font-family="sans-serif" font-size="14" font-style="italic" lengthAdjust="spacing" textLength="264.991" x="126.5143" y="31.9659">AbstractBasicPageModContentFactoryImpl</text><text fill="#000000" font-family="sans-serif" font-size="10" font-style="italic" lengthAdjust="spacing" textLength="293.0197" x="112.5" y="46.7579">com.hack23.cia.web.impl.ui.application.views.common.pagemode</text></g></a><polygon fill="none" points="246,55.054,240,73.054,252,73.054,246,55.054" style="stroke:#181818;stroke-width:1.0;"/><path d="M246,73.054 C246,83.1473 246,77.8625 246,90.62 " fill="none" style="stroke:#181818;stroke-width:1.0;"/><text fill="#888888" font-family="sans-serif" font-size="10" lengthAdjust="spacing" textLength="2.6" x="241.2" y="211.69">&#160;</text><a href="https://github.com/talsma-ict/umldoclet" target="_top" title="https://github.com/talsma-ict/umldoclet" xlink:actuate="onRequest" xlink:href="https://github.com/talsma-ict/umldoclet" xlink:show="new" xlink:title="https://github.com/talsma-ict/umldoclet" xlink:type="simple"><text fill="#888888" font-family="sans-serif" font-size="10" lengthAdjust="spacing" textLength="76.7199" x="204.14" y="225.31">UMLDoclet 2.2.1</text></a><!--SRC=[nLNVJzj037xVN-6nXu5eBsc03Yg4L3gsCPK9yUEfyE1UJ7FgvIwxku0only-9oc5iJsWCMrHb2Xd-_DdVwuB0F0MHhQed9fb0OA5a2aFvqTZG9F2Z0mv39I2od567gQahPdvrf40ov1P1_Qg-PBMEVA5DQaoC_YCrmZUbawI5wzUGPFgx1xz1lqZz6bL7xwtKbE0rT7Q8qf9tEjtapZPX3FKFaSu79s91Tf3J28IqGF6ragIyGnPcfHSGsjOeEJNkBLqu9gSLzPmJBp0gKkLrWHKnaE1BlYwf6ED9jHSUwBEBzx1wl1q_3EtUAVXre6XCrYcS6A_bijoNnSEPynOOsNB03wdW0PRcsVI1dDk5qew9KwAWJjfhA76dgcKWF8YL72bIAV-wIc3PPQFctEfqNjOsVNg6mrwctl7N4DrWcREGenALiM4aSrp5GBHAAiBF6OvZsmwughP-04bPwyEyq9Vc0LAl2TjBZAKysH3I8NYXgP2iOSebS2Yu4vZu3wAQqKtNfIUdAXxL_5pHhbDQGLOv9U2Y1VK0fF92w955d9zUGctJOlhwzO7PYllOFtByEXW0AV1CUpIl2uTyJWla5PRQmUEo9Jxw3fmZ8RqsW36pJmyXEKOU43zCg1zi-FKMare6i-xLccS-k2Ouo-I3nU6VVHA_dLrsJddZpzNzWc0U1vT5b28gBrRXEWU8NeUmaB4nS_a7p3U_Txj_jUXRqlTzQ7IjBSSiYjh0-_3XrckhqzLGMwip7naDI-VDzk_jvxNgrGhGxozvTmGprsyzBnhqqMFyYroNPZ990kXy8CecgcGbTEwfr5erdXNoH2LkKxR_VraaxDWxMR-kFoBgDTijvTqa-sptjPWgp_Ow8iawVVxEplRE-jnRn37auFIsOAYqs3bFBCwl_m1]--></g></svg>