<svg xmlns="http://www.w3.org/2000/svg" xmlns:xlink="http://www.w3.org/1999/xlink" contentStyleType="text/css" height="236px" preserveAspectRatio="none" style="width:453px;height:236px;background:#FFFFFF;" version="1.1" viewBox="0 0 453 236" width="453px" zoomAndPan="magnify"><defs/><g><!--class com.hack23.cia.web.impl.ui.application.views.user.party.pagemode.PartyLeaderHistoryPageModContentFactoryImpl--><a href="PartyLeaderHistoryPageModContentFactoryImpl.html" target="_top" title="PartyLeaderHistoryPageModContentFactoryImpl.html" xlink:actuate="onRequest" xlink:href="PartyLeaderHistoryPageModContentFactoryImpl.html" xlink:show="new" xlink:title="PartyLeaderHistoryPageModContentFactoryImpl.html" xlink:type="simple"><g id="elem_com.hack23.cia.web.impl.ui.application.views.user.party.pagemode.PartyLeaderHistoryPageModContentFactoryImpl"><rect codeLine="13" fill="#F1F1F1" height="88.8237" id="com.hack23.cia.web.impl.ui.application.views.user.party.pagemode.PartyLeaderHistoryPageModContentFactoryImpl" rx="2.5" ry="2.5" style="stroke:#181818;stroke-width:0.5;" width="352.3889" x="48" y="118"/><ellipse cx="63" cy="139.344" fill="#ADD1B2" rx="11" ry="11" style="stroke:#181818;stroke-width:1.0;"/><path d="M65.9688,144.9846 Q65.3906,145.2815 64.75,145.4221 Q64.1094,145.5783 63.4063,145.5783 Q60.9063,145.5783 59.5781,143.9377 Q58.2656,142.2815 58.2656,139.1565 Q58.2656,136.0315 59.5781,134.3752 Q60.9063,132.719 63.4063,132.719 Q64.1094,132.719 64.75,132.8752 Q65.4063,133.0315 65.9688,133.3283 L65.9688,136.0471 Q65.3438,135.469 64.75,135.2033 Q64.1563,134.9221 63.5313,134.9221 Q62.1875,134.9221 61.5,136.0002 Q60.8125,137.0627 60.8125,139.1565 Q60.8125,141.2502 61.5,142.3283 Q62.1875,143.3908 63.5313,143.3908 Q64.1563,143.3908 64.75,143.1252 Q65.3438,142.844 65.9688,142.2658 L65.9688,144.9846 Z " fill="#000000"/><text fill="#000000" font-family="sans-serif" font-size="14" lengthAdjust="spacing" textLength="320.3889" x="77" y="137.9659">PartyLeaderHistoryPageModContentFactoryImpl</text><text fill="#000000" font-family="sans-serif" font-size="10" lengthAdjust="spacing" textLength="316.3597" x="79.0146" y="152.7579">com.hack23.cia.web.impl.ui.application.views.user.party.pagemode</text><line style="stroke:#181818;stroke-width:0.5;" x1="49" x2="399.3889" y1="160.6879" y2="160.6879"/><ellipse cx="59" cy="175.7219" fill="#84BE84" rx="3" ry="3" style="stroke:#038048;stroke-width:1.0;"/><text fill="#000000" font-family="sans-serif" font-size="14" lengthAdjust="spacing" textLength="305.4228" x="68" y="179.6538">createContent(String, MenuBar, Panel): Layout</text><ellipse cx="59" cy="194.7898" fill="#84BE84" rx="3" ry="3" style="stroke:#038048;stroke-width:1.0;"/><text fill="#000000" font-family="sans-serif" font-size="14" lengthAdjust="spacing" textLength="211.5112" x="68" y="198.7218">matches(String, String): boolean</text></g></a><!--class com.hack23.cia.web.impl.ui.application.views.common.pagemode.AbstractItemPageModContentFactoryImpl--><a href="../../../common/pagemode/AbstractItemPageModContentFactoryImpl.html" target="_top" title="../../../common/pagemode/AbstractItemPageModContentFactoryImpl.html" xlink:actuate="onRequest" xlink:href="../../../common/pagemode/AbstractItemPageModContentFactoryImpl.html" xlink:show="new" xlink:title="../../../common/pagemode/AbstractItemPageModContentFactoryImpl.html" xlink:type="simple"><g id="elem_com.hack23.cia.web.impl.ui.application.views.common.pagemode.AbstractItemPageModContentFactoryImpl"><rect codeLine="18" fill="#F1F1F1" height="69.7558" id="com.hack23.cia.web.impl.ui.application.views.common.pagemode.AbstractItemPageModContentFactoryImpl" rx="2.5" ry="2.5" style="stroke:#181818;stroke-width:0.5;" width="436.1324" x="6" y="12"/><ellipse cx="21" cy="33.344" fill="#A9DCDF" rx="11" ry="11" style="stroke:#181818;stroke-width:1.0;"/><path d="M21.1094,28.6877 L19.9531,33.7658 L22.2813,33.7658 L21.1094,28.6877 Z M19.625,26.4533 L22.6094,26.4533 L25.9688,38.844 L23.5156,38.844 L22.75,35.7815 L19.4688,35.7815 L18.7188,38.844 L16.2813,38.844 L19.625,26.4533 Z " fill="#000000"/><text fill="#000000" font-family="sans-serif" font-size="14" font-style="italic" lengthAdjust="spacing" textLength="261.057" x="50.9813" y="31.9659">AbstractItemPageModContentFactoryImpl</text><text fill="#000000" font-family="sans-serif" font-size="10" font-style="italic" lengthAdjust="spacing" textLength="293.0197" x="35" y="46.7579">com.hack23.cia.web.impl.ui.application.views.common.pagemode</text><rect fill="#FFFFFF" height="18.3441" style="stroke:#181818;stroke-width:1.0;stroke-dasharray:2.0,2.0;" width="109.1127" x="336.0197" y="9"/><text fill="#000000" font-family="sans-serif" font-size="12" font-style="italic" lengthAdjust="spacing" textLength="107.1127" x="337.0197" y="22.8281">ViewRiksdagenParty</text><line style="stroke:#181818;stroke-width:0.5;" x1="7" x2="441.1324" y1="54.6879" y2="54.6879"/><polygon fill="#FFFF44" points="17,64.7219,21,68.7219,17,72.7219,13,68.7219" style="stroke:#B38D22;stroke-width:1.0;"/><text fill="#000000" font-family="sans-serif" font-size="14" font-style="italic" lengthAdjust="spacing" textLength="225.5811" x="26" y="73.6538">getItem(String): ViewRiksdagenParty</text></g></a><polygon fill="none" points="224,82.0537,218,100.0537,230,100.0537,224,82.0537" style="stroke:#181818;stroke-width:1.0;"/><path d="M224,100.0537 C224,111.2849 224,105.9359 224,117.7854 " fill="none" style="stroke:#181818;stroke-width:1.0;"/><text fill="#888888" font-family="sans-serif" font-size="10" lengthAdjust="spacing" textLength="2.6" x="219.2" y="211.69">&#160;</text><a href="https://github.com/talsma-ict/umldoclet" target="_top" title="https://github.com/talsma-ict/umldoclet" xlink:actuate="onRequest" xlink:href="https://github.com/talsma-ict/umldoclet" xlink:show="new" xlink:title="https://github.com/talsma-ict/umldoclet" xlink:type="simple"><text fill="#888888" font-family="sans-serif" font-size="10" lengthAdjust="spacing" textLength="76.7199" x="182.14" y="225.31">UMLDoclet 2.2.1</text></a><!--SRC=[lLNRJjj047tlLqpXeK4aQoUaN2A4HDCBL4529FGbv65Y3_OgwrrtTmroAV_UiHq2XJv0RvPboxipPywSiva00Bo1eSbBAvFKWpVWK-dW_6G4g6D8I9D5Jp7831DoC2TbTEAQG08iV6eicClwApBMaikDZgLEu3DU8JXJs8YSUFKAwbAJE_HhT0_GvsMr-Dv4YZoqXXiFAFN2xdQd5_RUmWILon2EXnEnHBlFwOcUw09ZAncHTWnPw9XiJUimnuXVesQd3LTadJIQSy8bJjLgPBH7gHtaQBshMZfLg7t5jIkuVb_iGEjmFFgPMxXNSsl3eTLOn71clXQhTb_d5XDchB0qXGUNaKUDpPvZqXepbWiZ6XCNHSzAQgEftazbJ41PxakubAHYztYLmLB3o_LwfD0vMDjtyXiDkls3K-wX716o14VICN1volQTc7Z8NPBs7p6g5e-pN5tePLPu49bCf1WjUbiYaYYkQIuaHuX22inpLXOzwoQk95qxKJYoejAgv6T2cObf3TZKFmKHB-0Eq-aBeaNgCpMRmKqjMNLjHfRu_2r3MsDl-U2suOHqyGvj6qvHazeOmAWsy3ujGyydogqIcZS7perHXBgEl6simRdpbaayyUXmkN7iAVlhxd1mnX-_xymZ0F4ijljVEFTCBbpC4Rgsve0z4Y9exWOqk0CDdWNwrBQREqrlOJsXEhkrik0fXOTk_7iDOFzxf_DVVmLDP_lEbueELY9T6kDv0DwhLbr7PKvs9FLYQ1HFc_NTN- -ULxDJIKqyhgE59ZwtuIhojYaNFAYth7MXfzFK-zmDWY2HFYtcbOI1h-TsHqO-A38LDmFxqUYUpPQZ-DFgFw6QgvrmfzFTcdJ3GRWtwE-AxN0ltDlQwVOtmzuW3ASV2cjo2iRUH8lKg6ps0m00]--></g></svg>