<svg xmlns="http://www.w3.org/2000/svg" xmlns:xlink="http://www.w3.org/1999/xlink" contentStyleType="text/css" data-diagram-type="CLASS" height="285px" preserveAspectRatio="none" style="width:391px;height:285px;background:#FFFFFF;" version="1.1" viewBox="0 0 391 285" width="391px" zoomAndPan="magnify"><defs/><g><!--class com.hack23.cia.service.impl.rules.ApplicationComplianceCheckImpl--><g class="entity" data-entity="com.hack23.cia.service.impl.rules.ApplicationComplianceCheckImpl" data-source-line="13" data-uid="ent0002" id="entity_com.hack23.cia.service.impl.rules.ApplicationComplianceCheckImpl"><a href="ApplicationComplianceCheckImpl.html" target="_top" title="ApplicationComplianceCheckImpl.html" xlink:actuate="onRequest" xlink:href="ApplicationComplianceCheckImpl.html" xlink:show="new" xlink:title="ApplicationComplianceCheckImpl.html" xlink:type="simple"><rect fill="#F1F1F1" height="165.0954" rx="2.5" ry="2.5" style="stroke:#181818;stroke-width:0.5;" width="378.0847" x="6" y="91"/><ellipse cx="80.4098" cy="112.344" fill="#ADD1B2" rx="11" ry="11" style="stroke:#181818;stroke-width:1;"/><path d="M83.3785,117.9846 Q82.8004,118.2815 82.1598,118.4221 Q81.5191,118.5783 80.816,118.5783 Q78.316,118.5783 76.9879,116.9377 Q75.6754,115.2815 75.6754,112.1565 Q75.6754,109.0315 76.9879,107.3752 Q78.316,105.719 80.816,105.719 Q81.5191,105.719 82.1598,105.8752 Q82.816,106.0315 83.3785,106.3283 L83.3785,109.0471 Q82.7535,108.469 82.1598,108.2033 Q81.566,107.9221 80.941,107.9221 Q79.5973,107.9221 78.9098,109.0002 Q78.2223,110.0627 78.2223,112.1565 Q78.2223,114.2502 78.9098,115.3283 Q79.5973,116.3908 80.941,116.3908 Q81.566,116.3908 82.1598,116.1252 Q82.7535,115.844 83.3785,115.2658 L83.3785,117.9846 Z " fill="#000000"/><text fill="#000000" font-family="sans-serif" font-size="14" lengthAdjust="spacing" textLength="220.7651" x="100.9098" y="110.9659">ApplicationComplianceCheckImpl</text><text fill="#000000" font-family="sans-serif" font-size="10" lengthAdjust="spacing" textLength="156.5999" x="132.9924" y="125.7579">com.hack23.cia.service.impl.rules</text><line style="stroke:#181818;stroke-width:0.5;" x1="7" x2="383.0847" y1="133.6879" y2="133.6879"/><ellipse cx="17" cy="148.7219" fill="#84BE84" rx="3" ry="3" style="stroke:#038048;stroke-width:1;"/><text fill="#000000" font-family="sans-serif" font-size="14" lengthAdjust="spacing" textLength="352.0847" x="26" y="152.6538">ApplicationComplianceCheckImpl(String, String, long)</text><ellipse cx="17" cy="167.7898" fill="#84BE84" rx="3" ry="3" style="stroke:#038048;stroke-width:1;"/><text fill="#000000" font-family="sans-serif" font-size="14" lengthAdjust="spacing" textLength="139.8315" x="26" y="171.7218">getSessionId(): String</text><ellipse cx="17" cy="186.8577" fill="#84BE84" rx="3" ry="3" style="stroke:#038048;stroke-width:1;"/><text fill="#000000" font-family="sans-serif" font-size="14" lengthAdjust="spacing" textLength="169.3014" x="26" y="190.7897">getIpInformation(): String</text><ellipse cx="17" cy="205.9256" fill="#84BE84" rx="3" ry="3" style="stroke:#038048;stroke-width:1;"/><text fill="#000000" font-family="sans-serif" font-size="14" lengthAdjust="spacing" textLength="262.835" x="26" y="209.8576">getFailedAuthenticationAttempts(): long</text><ellipse cx="17" cy="224.9935" fill="#84BE84" rx="3" ry="3" style="stroke:#038048;stroke-width:1;"/><text fill="#000000" font-family="sans-serif" font-size="14" lengthAdjust="spacing" textLength="116.2276" x="26" y="228.9255">getName(): String</text><ellipse cx="17" cy="244.0614" fill="#84BE84" rx="3" ry="3" style="stroke:#038048;stroke-width:1;"/><text fill="#000000" font-family="sans-serif" font-size="14" lengthAdjust="spacing" textLength="90.1037" x="26" y="247.9934">getId(): String</text></a></g><!--class com.hack23.cia.service.impl.rules.AbstractComplianceCheckImpl--><g class="entity" data-entity="com.hack23.cia.service.impl.rules.AbstractComplianceCheckImpl" data-source-line="22" data-uid="ent0003" id="entity_com.hack23.cia.service.impl.rules.AbstractComplianceCheckImpl"><a href="AbstractComplianceCheckImpl.html" target="_top" title="AbstractComplianceCheckImpl.html" xlink:actuate="onRequest" xlink:href="AbstractComplianceCheckImpl.html" xlink:show="new" xlink:title="AbstractComplianceCheckImpl.html" xlink:type="simple"><rect fill="#F1F1F1" height="42.6879" rx="2.5" ry="2.5" style="stroke:#181818;stroke-width:0.5;" width="221.3353" x="84.5" y="12"/><ellipse cx="99.5" cy="33.344" fill="#A9DCDF" rx="11" ry="11" style="stroke:#181818;stroke-width:1;"/><path d="M99.6094,28.6877 L98.4531,33.7658 L100.7813,33.7658 L99.6094,28.6877 Z M98.125,26.4533 L101.1094,26.4533 L104.4688,38.844 L102.0156,38.844 L101.25,35.7815 L97.9688,35.7815 L97.2188,38.844 L94.7813,38.844 L98.125,26.4533 Z " fill="#000000"/><text fill="#000000" font-family="sans-serif" font-size="14" font-style="italic" lengthAdjust="spacing" textLength="189.3353" x="113.5" y="31.9659">AbstractComplianceCheckImpl</text><text fill="#000000" font-family="sans-serif" font-size="10" font-style="italic" lengthAdjust="spacing" textLength="147.8898" x="134.2227" y="46.7579">com.hack23.cia.service.impl.rules</text></a></g><g class="link" data-entity-1="com.hack23.cia.service.impl.rules.AbstractComplianceCheckImpl" data-entity-2="com.hack23.cia.service.impl.rules.ApplicationComplianceCheckImpl" data-uid="lnk4" id="link_com.hack23.cia.service.impl.rules.AbstractComplianceCheckImpl_com.hack23.cia.service.impl.rules.ApplicationComplianceCheckImpl"><polygon fill="none" points="195,55.16,189,73.16,201,73.16,195,55.16" style="stroke:#181818;stroke-width:1;"/><path d="M195,73.16 C195,83.0851 195,77.6918 195,90.9378" fill="none" style="stroke:#181818;stroke-width:1;"/></g><g class="footer" data-source-line="32"><text fill="#888888" font-family="sans-serif" font-size="10" lengthAdjust="spacing" textLength="2.6" x="190.2" y="260.69">&#160;</text><a href="https://github.com/talsma-ict/umldoclet" target="_top" title="https://github.com/talsma-ict/umldoclet" xlink:actuate="onRequest" xlink:href="https://github.com/talsma-ict/umldoclet" xlink:show="new" xlink:title="https://github.com/talsma-ict/umldoclet" xlink:type="simple"><text fill="#888888" font-family="sans-serif" font-size="10" lengthAdjust="spacing" textLength="76.7199" x="153.14" y="274.31">UMLDoclet 2.2.4</text></a></g><!--SRC=[lLJ9Rjim4BtdAwRfeGuIqvJY1AqH133S9IxSegYTavC3JOqbmXIfaYCNRfj_BxN4MLgdXm3LHI9dUM_cZGO0u1MCRB5nAiq8o09boiFbfma8aq2A1fqWJ43b8aKF2zJMfBvnH10bPTQ1NTOdQPr3NrYJA9F2Hx4Mu6tf97gsjmSrrEms-tVXxsLVRAhBjrPg9EYC3kvHYdbqservV0epeNqkO3oQiJRRNKpCOjQ7a5ihYSQ7bAL9qDMqXeMGuJLfB4UmHkULDI66jtcgKgKr99JnK0X7lYhfYnQ6AguH2_WdBEBG6Kud3ydnDpMv8nWw8ye4ljflvRRU5uKJQQ2inSQM13v74aOqDXzO6v67VWc9KmoeWa8hZJLOspEL861Uq0QM2dNY7z-6P9aDr_MzrC9xs3_pwWSEelxvi2X29mI5EaSs3z_2I1nbA5VZSBeohIC_bpPdcP2h-9X99PX7jmvzOYfuCLTgzFiGbFgd5tiQ4ERpfnrOHhc-leQVTJNLS_XqG6TABapP4To-gxayk8jEaQReAvt7IUTWqBezi8-BiLbQbzSGEtpU2wKn6OOnHqCjco5HfO2lGYhK1m6VWwIxy1uJkMcq4mjFJaZwKyJMy9yKt8rMoRVRschN3kApSCv-TRlF7hQ6o9cdZSRphG9BQoaiXBi1gvwBJO5keingP7Nu-Lw-_hlrijebMXaCwqkkJ9Whu5lFcmQkTm-lnReoytb6LFX1hvSgoie52xNrgDvZNIMfL-OwQHROerKMsjcifW_R7LcjcIxlTwDe5fqC-F60zna_FetZA8hu8Oy7dC_VbSuMs9kIbQlCwlpwDm00]--></g></svg>