<?xml version="1.0" encoding="UTF-8" standalone="no"?><svg xmlns="http://www.w3.org/2000/svg" xmlns:xlink="http://www.w3.org/1999/xlink" contentScriptType="application/ecmascript" contentStyleType="text/css" height="215px" preserveAspectRatio="none" style="width:373px;height:215px;background:#FFFFFF;" version="1.1" viewBox="0 0 373 215" width="373px" zoomAndPan="magnify"><defs><filter height="300%" id="f1mmmfi1ucmjgu" width="300%" x="-1" y="-1"><feGaussianBlur result="blurOut" stdDeviation="2.0"/><feColorMatrix in="blurOut" result="blurOut2" type="matrix" values="0 0 0 0 0 0 0 0 0 0 0 0 0 0 0 0 0 0 .4 0"/><feOffset dx="4.0" dy="4.0" in="blurOut2" result="blurOut3"/><feBlend in="SourceGraphic" in2="blurOut3" mode="normal"/></filter></defs><g><!--MD5=[278919c15bcf07e98b1c4240d34ca198]
class com.hack23.cia.web.impl.ui.application.views.user.govermentbody.GovernmentBodyRankingView--><a href="GovernmentBodyRankingView.html" target="_top" title="GovernmentBodyRankingView.html" xlink:actuate="onRequest" xlink:href="GovernmentBodyRankingView.html" xlink:show="new" xlink:title="GovernmentBodyRankingView.html" xlink:type="simple"><rect codeLine="5" fill="#FEFECE" filter="url(#f1mmmfi1ucmjgu)" height="79.5469" id="com.hack23.cia.web.impl.ui.application.views.user.govermentbody.GovernmentBodyRankingView" style="stroke:#A80036;stroke-width:1.5;" width="352" x="7" y="105"/><ellipse cx="22" cy="123.9688" fill="#ADD1B2" rx="11" ry="11" style="stroke:#A80036;stroke-width:1.0;"/><path d="M24.9688,129.6094 Q24.3906,129.9063 23.75,130.0469 Q23.1094,130.2031 22.4063,130.2031 Q19.9063,130.2031 18.5781,128.5625 Q17.2656,126.9063 17.2656,123.7813 Q17.2656,120.6563 18.5781,119 Q19.9063,117.3438 22.4063,117.3438 Q23.1094,117.3438 23.75,117.5 Q24.4063,117.6563 24.9688,117.9531 L24.9688,120.6719 Q24.3438,120.0938 23.75,119.8281 Q23.1563,119.5469 22.5313,119.5469 Q21.1875,119.5469 20.5,120.625 Q19.8125,121.6875 19.8125,123.7813 Q19.8125,125.875 20.5,126.9531 Q21.1875,128.0156 22.5313,128.0156 Q23.1563,128.0156 23.75,127.75 Q24.3438,127.4688 24.9688,126.8906 L24.9688,129.6094 Z " fill="#000000"/><text fill="#000000" font-family="sans-serif" font-size="14" lengthAdjust="spacing" textLength="209" x="91.5" y="122.9951">GovernmentBodyRankingView</text><text fill="#000000" font-family="sans-serif" font-size="10" lengthAdjust="spacing" textLength="320" x="36" y="135.5791">com.hack23.cia.web.impl.ui.application.views.user.govermentbody</text><line style="stroke:#A80036;stroke-width:1.5;" x1="8" x2="358" y1="142.9375" y2="142.9375"/><ellipse cx="18" cy="153.9375" rx="3" ry="3" style="stroke:#038048;stroke-width:1.0;fill:none;"/><text fill="#000000" font-family="sans-serif" font-size="11" lengthAdjust="spacing" text-decoration="underline" textLength="73" x="27" y="157.1479">NAME: String</text><line style="stroke:#A80036;stroke-width:1.5;" x1="8" x2="358" y1="163.7422" y2="163.7422"/><ellipse cx="18" cy="174.7422" fill="#84BE84" rx="3" ry="3" style="stroke:#038048;stroke-width:1.0;"/><text fill="#000000" font-family="sans-serif" font-size="11" lengthAdjust="spacing" textLength="280" x="27" y="177.9526">GovernmentBodyRankingView(ApplicationContext)</text></a><!--MD5=[391696cd44669b86b1fc88d08221bc08]
class com.hack23.cia.web.impl.ui.application.views.user.common.AbstractRankingView--><a href="../common/AbstractRankingView.html" target="_top" title="../common/AbstractRankingView.html" xlink:actuate="onRequest" xlink:href="../common/AbstractRankingView.html" xlink:show="new" xlink:title="../common/AbstractRankingView.html" xlink:type="simple"><rect codeLine="10" fill="#FEFECE" filter="url(#f1mmmfi1ucmjgu)" height="37.9375" id="com.hack23.cia.web.impl.ui.application.views.user.common.AbstractRankingView" style="stroke:#A80036;stroke-width:1.5;" width="331" x="17.5" y="7"/><ellipse cx="32.5" cy="25.9688" fill="#A9DCDF" rx="11" ry="11" style="stroke:#A80036;stroke-width:1.0;"/><path d="M32.6094,21.3125 L31.4531,26.3906 L33.7813,26.3906 L32.6094,21.3125 Z M31.125,19.0781 L34.1094,19.0781 L37.4688,31.4688 L35.0156,31.4688 L34.25,28.4063 L30.9688,28.4063 L30.2188,31.4688 L27.7813,31.4688 L31.125,19.0781 Z " fill="#000000"/><text fill="#000000" font-family="sans-serif" font-size="14" font-style="italic" lengthAdjust="spacing" textLength="146" x="123" y="24.9951">AbstractRankingView</text><text fill="#000000" font-family="sans-serif" font-size="10" font-style="italic" lengthAdjust="spacing" textLength="299" x="46.5" y="37.5791">com.hack23.cia.web.impl.ui.application.views.user.common</text></a><!--MD5=[2809ad78e3930f349728a956412d6630]
reverse link com.hack23.cia.web.impl.ui.application.views.user.common.AbstractRankingView to com.hack23.cia.web.impl.ui.application.views.user.govermentbody.GovernmentBodyRankingView--><path codeLine="12" d="M183,65.14 C183,77.87 183,92.07 183,104.87 " fill="none" id="com.hack23.cia.web.impl.ui.application.views.user.common.AbstractRankingView-backto-com.hack23.cia.web.impl.ui.application.views.user.govermentbody.GovernmentBodyRankingView" style="stroke:#A80036;stroke-width:1.0;"/><polygon fill="none" points="176,65.02,183,45.02,190,65.02,176,65.02" style="stroke:#A80036;stroke-width:1.0;"/><text fill="#888888" font-family="sans-serif" font-size="10" lengthAdjust="spacing" textLength="186" x="87" y="206.8291">UMLDoclet 2.0.14, PlantUML 1.2021.9</text><!--MD5=[fb1d85193a34dce6b104bcc9c950eb42]
@startuml
    set namespaceSeparator none
    hide empty fields
    hide empty methods

    class "<size:14>GovernmentBodyRankingView\n<size:10>com.hack23.cia.web.impl.ui.application.views.user.govermentbody" as com.hack23.cia.web.impl.ui.application.views.user.govermentbody.GovernmentBodyRankingView [[GovernmentBodyRankingView.html]] {
        {static} +NAME: String
        +GovernmentBodyRankingView(ApplicationContext)
    }

    abstract class "<size:14>AbstractRankingView\n<size:10>com.hack23.cia.web.impl.ui.application.views.user.common" as com.hack23.cia.web.impl.ui.application.views.user.common.AbstractRankingView [[../common/AbstractRankingView.html]]

    com.hack23.cia.web.impl.ui.application.views.user.common.AbstractRankingView <|- - com.hack23.cia.web.impl.ui.application.views.user.govermentbody.GovernmentBodyRankingView

    center footer UMLDoclet 2.0.14, PlantUML 1.2021.9
@enduml

PlantUML version 1.2021.9(Sun Jul 25 12:13:56 CEST 2021)
(APACHE source distribution)
Java Runtime: OpenJDK Runtime Environment
JVM: OpenJDK 64-Bit Server VM
Default Encoding: UTF-8
Language: en
Country: US
--></g></svg>