<?xml version="1.0" encoding="UTF-8" standalone="no"?><svg xmlns="http://www.w3.org/2000/svg" xmlns:xlink="http://www.w3.org/1999/xlink" contentStyleType="text/css" height="216px" preserveAspectRatio="none" style="width:594px;height:216px;background:#FFFFFF;" version="1.1" viewBox="0 0 594 216" width="594px" zoomAndPan="magnify"><defs/><g><!--MD5=[b22ec9d328000a136df94333fad15612]
class com.hack23.cia.web.impl.ui.application.action.PageActionEventHelperImpl--><a href="PageActionEventHelperImpl.html" target="_top" title="PageActionEventHelperImpl.html" xlink:actuate="onRequest" xlink:href="PageActionEventHelperImpl.html" xlink:show="new" xlink:title="PageActionEventHelperImpl.html" xlink:type="simple"><g id="elem_com.hack23.cia.web.impl.ui.application.action.PageActionEventHelperImpl"><rect codeLine="5" fill="#F1F1F1" height="62.2344" id="com.hack23.cia.web.impl.ui.application.action.PageActionEventHelperImpl" rx="2.5" ry="2.5" style="stroke:#181818;stroke-width:0.5;" width="575" x="9.5" y="129"/><ellipse cx="184.25" cy="147.9688" fill="#ADD1B2" rx="11" ry="11" style="stroke:#181818;stroke-width:1.0;"/><path d="M187.2188,153.6094 Q186.6406,153.9063 186,154.0469 Q185.3594,154.2031 184.6563,154.2031 Q182.1563,154.2031 180.8281,152.5625 Q179.5156,150.9063 179.5156,147.7813 Q179.5156,144.6563 180.8281,143 Q182.1563,141.3438 184.6563,141.3438 Q185.3594,141.3438 186,141.5 Q186.6563,141.6563 187.2188,141.9531 L187.2188,144.6719 Q186.5938,144.0938 186,143.8281 Q185.4063,143.5469 184.7813,143.5469 Q183.4375,143.5469 182.75,144.625 Q182.0625,145.6875 182.0625,147.7813 Q182.0625,149.875 182.75,150.9531 Q183.4375,152.0156 184.7813,152.0156 Q185.4063,152.0156 186,151.75 Q186.5938,151.4688 187.2188,150.8906 L187.2188,153.6094 Z " fill="#000000"/><text fill="#000000" font-family="sans-serif" font-size="14" lengthAdjust="spacing" textLength="190" x="218.25" y="146.9951">PageActionEventHelperImpl</text><text fill="#000000" font-family="sans-serif" font-size="10" lengthAdjust="spacing" textLength="217" x="204.75" y="159.5791">com.hack23.cia.web.impl.ui.application.action</text><line style="stroke:#181818;stroke-width:0.5;" x1="10.5" x2="583.5" y1="166.9375" y2="166.9375"/><ellipse cx="20.5" cy="177.9375" fill="#84BE84" rx="3" ry="3" style="stroke:#038048;stroke-width:1.0;"/><text fill="#000000" font-family="sans-serif" font-size="14" lengthAdjust="spacing" textLength="549" x="29.5" y="183.9326">createPageEvent(ViewAction, ApplicationEventGroup, String, String, String): void</text></g></a><!--MD5=[3f7139114487fac88ab74a1125d0a804]
class com.hack23.cia.web.impl.ui.application.action.PageActionEventHelper--><a href="PageActionEventHelper.html" target="_top" title="PageActionEventHelper.html" xlink:actuate="onRequest" xlink:href="PageActionEventHelper.html" xlink:show="new" xlink:title="PageActionEventHelper.html" xlink:type="simple"><g id="elem_com.hack23.cia.web.impl.ui.application.action.PageActionEventHelper"><rect codeLine="9" fill="#F1F1F1" height="62.2344" id="com.hack23.cia.web.impl.ui.application.action.PageActionEventHelper" rx="2.5" ry="2.5" style="stroke:#181818;stroke-width:0.5;" width="580" x="7" y="7"/><ellipse cx="177.25" cy="25.9688" fill="#B4A7E5" rx="11" ry="11" style="stroke:#181818;stroke-width:1.0;"/><path d="M173.1719,21.7344 L173.1719,19.5781 L180.5625,19.5781 L180.5625,21.7344 L178.0938,21.7344 L178.0938,29.8125 L180.5625,29.8125 L180.5625,31.9688 L173.1719,31.9688 L173.1719,29.8125 L175.6406,29.8125 L175.6406,21.7344 L173.1719,21.7344 Z " fill="#000000"/><text fill="#000000" font-family="sans-serif" font-size="14" font-style="italic" lengthAdjust="spacing" textLength="164" x="231.25" y="24.9951">PageActionEventHelper</text><text fill="#000000" font-family="sans-serif" font-size="10" font-style="italic" lengthAdjust="spacing" textLength="231" x="197.75" y="37.5791">com.hack23.cia.web.impl.ui.application.action</text><line style="stroke:#181818;stroke-width:0.5;" x1="8" x2="586" y1="44.9375" y2="44.9375"/><ellipse cx="18" cy="55.9375" fill="#84BE84" rx="3" ry="3" style="stroke:#038048;stroke-width:1.0;"/><text fill="#000000" font-family="sans-serif" font-size="14" font-style="italic" lengthAdjust="spacing" textLength="554" x="27" y="61.9326">createPageEvent(ViewAction, ApplicationEventGroup, String, String, String): void</text></g></a><!--MD5=[41f2b1d628bd41d5764ef299ba27a64f]
reverse link com.hack23.cia.web.impl.ui.application.action.PageActionEventHelper to com.hack23.cia.web.impl.ui.application.action.PageActionEventHelperImpl--><g id="link_com.hack23.cia.web.impl.ui.application.action.PageActionEventHelper_com.hack23.cia.web.impl.ui.application.action.PageActionEventHelperImpl"><path codeLine="13" d="M297,89.37 C297,102.75 297,116.79 297,128.73 " fill="none" id="com.hack23.cia.web.impl.ui.application.action.PageActionEventHelper-backto-com.hack23.cia.web.impl.ui.application.action.PageActionEventHelperImpl" style="stroke:#181818;stroke-width:1.0;stroke-dasharray:7.0,7.0;"/><polygon fill="none" points="290,89.28,297,69.28,304,89.28,290,89.28" style="stroke:#181818;stroke-width:1.0;"/></g><rect height="11.6406" style="stroke:#00000000;stroke-width:1.0;fill:none;" width="186" x="197" y="197.2344"/><text fill="#888888" font-family="sans-serif" font-size="10" lengthAdjust="spacing" textLength="186" x="197" y="206.5166">UMLDoclet 2.0.18, PlantUML 1.2022.6</text><!--MD5=[6fe9c8fae071afd977b4adee3d3bccc1]
@startuml
    set namespaceSeparator none
    hide empty fields
    hide empty methods

    class "<size:14>PageActionEventHelperImpl\n<size:10>com.hack23.cia.web.impl.ui.application.action" as com.hack23.cia.web.impl.ui.application.action.PageActionEventHelperImpl [[PageActionEventHelperImpl.html]] {
        +createPageEvent(ViewAction, ApplicationEventGroup, String, String, String): void
    }

    interface "<size:14>PageActionEventHelper\n<size:10>com.hack23.cia.web.impl.ui.application.action" as com.hack23.cia.web.impl.ui.application.action.PageActionEventHelper [[PageActionEventHelper.html]] {
        {abstract} +createPageEvent(ViewAction, ApplicationEventGroup, String, String, String): void
    }

    com.hack23.cia.web.impl.ui.application.action.PageActionEventHelper <|.. com.hack23.cia.web.impl.ui.application.action.PageActionEventHelperImpl

    center footer UMLDoclet 2.0.18, PlantUML 1.2022.6
@enduml

PlantUML version 1.2022.6(Tue Jun 21 19:34:49 CEST 2022)
(APACHE source distribution)
Java Runtime: OpenJDK Runtime Environment
JVM: OpenJDK 64-Bit Server VM
Default Encoding: ANSI_X3.4-1968
Language: en
Country: US
--></g></svg>