<svg xmlns="http://www.w3.org/2000/svg" xmlns:xlink="http://www.w3.org/1999/xlink" contentStyleType="text/css" data-diagram-type="CLASS" height="667px" preserveAspectRatio="none" style="width:4824px;height:667px;background:#FFFFFF;" version="1.1" viewBox="0 0 4824 667" width="4824px" zoomAndPan="magnify"><defs/><g><!--cluster com.hack23.cia.service.impl.rules--><g class="cluster" data-entity="com.hack23.cia.service.impl.rules" data-source-line="10" data-uid="ent0002" id="cluster_com.hack23.cia.service.impl.rules"><path d="M16.5,174 L252.0271,174 A3.75,3.75 0 0 1 254.5271,176.5 L261.5271,199.0679 L4814.5,199.0679 A2.5,2.5 0 0 1 4817,201.5679 L4817,627.5 A2.5,2.5 0 0 1 4814.5,630 L16.5,630 A2.5,2.5 0 0 1 14,627.5 L14,176.5 A2.5,2.5 0 0 1 16.5,174" fill="none" style="stroke:#000000;stroke-width:1.5;"/><line style="stroke:#000000;stroke-width:1.5;" x1="14" x2="261.5271" y1="199.0679" y2="199.0679"/><text fill="#000000" font-family="sans-serif" font-size="14" font-weight="bold" lengthAdjust="spacing" textLength="234.5271" x="18" y="190.9659">com.hack23.cia.service.impl.rules</text></g><!--cluster com.hack23.cia.service.api.action.kpi--><g class="cluster" data-entity="com.hack23.cia.service.api.action.kpi" data-source-line="88" data-uid="ent0014" id="cluster_com.hack23.cia.service.api.action.kpi"><path d="M2036.5,4 L2297.073,4 A3.75,3.75 0 0 1 2299.573,6.5 L2306.573,29.0679 L2315.5,29.0679 A2.5,2.5 0 0 1 2318,31.5679 L2318,163.5 A2.5,2.5 0 0 1 2315.5,166 L2036.5,166 A2.5,2.5 0 0 1 2034,163.5 L2034,6.5 A2.5,2.5 0 0 1 2036.5,4" fill="none" style="stroke:#000000;stroke-width:1.5;"/><line style="stroke:#000000;stroke-width:1.5;" x1="2034" x2="2306.573" y1="29.0679" y2="29.0679"/><text fill="#000000" font-family="sans-serif" font-size="14" font-weight="bold" lengthAdjust="spacing" textLength="259.573" x="2038" y="20.9659">com.hack23.cia.service.api.action.kpi</text></g><!--class RulesEngine--><g class="entity" data-entity="RulesEngine" data-source-line="12" data-uid="ent0003" id="entity_RulesEngine"><a href="RulesEngine.html" target="_top" title="RulesEngine.html" xlink:actuate="onRequest" xlink:href="RulesEngine.html" xlink:show="new" xlink:title="RulesEngine.html" xlink:type="simple"><rect fill="#F1F1F1" height="67.0679" rx="2.5" ry="2.5" style="stroke:#181818;stroke-width:0.5;" width="328.5529" x="4470.5" y="232.5"/><ellipse cx="4593.0836" cy="248.5" fill="#B4A7E5" rx="11" ry="11" style="stroke:#181818;stroke-width:1;"/><path d="M4589.0055,244.2656 L4589.0055,242.1094 L4596.3961,242.1094 L4596.3961,244.2656 L4593.9273,244.2656 L4593.9273,252.3438 L4596.3961,252.3438 L4596.3961,254.5 L4589.0055,254.5 L4589.0055,252.3438 L4591.4742,252.3438 L4591.4742,244.2656 L4589.0055,244.2656 Z " fill="#000000"/><text fill="#000000" font-family="sans-serif" font-size="14" font-style="italic" lengthAdjust="spacing" textLength="74.8857" x="4613.5836" y="253.932">RulesEngine</text><line style="stroke:#181818;stroke-width:0.5;" x1="4471.5" x2="4798.0529" y1="264.5" y2="264.5"/><line style="stroke:#181818;stroke-width:0.5;" x1="4471.5" x2="4798.0529" y1="272.5" y2="272.5"/><ellipse cx="4481.5" cy="287.534" fill="#84BE84" rx="3" ry="3" style="stroke:#038048;stroke-width:1;"/><text fill="#000000" font-family="sans-serif" font-size="14" font-style="italic" lengthAdjust="spacing" textLength="302.5529" x="4490.5" y="291.4659">checkRulesCompliance(): List&lt;ComplianceCheck&gt;</text></a></g><!--class PoliticianComplianceCheckImpl--><g class="entity" data-entity="PoliticianComplianceCheckImpl" data-source-line="16" data-uid="ent0004" id="entity_PoliticianComplianceCheckImpl"><a href="PoliticianComplianceCheckImpl.html" target="_top" title="PoliticianComplianceCheckImpl.html" xlink:actuate="onRequest" xlink:href="PoliticianComplianceCheckImpl.html" xlink:show="new" xlink:title="PoliticianComplianceCheckImpl.html" xlink:type="simple"><rect fill="#F1F1F1" height="257.7471" rx="2.5" ry="2.5" style="stroke:#181818;stroke-width:0.5;" width="1516.5468" x="22.5" y="364"/><ellipse cx="673.1828" cy="380" fill="#ADD1B2" rx="11" ry="11" style="stroke:#181818;stroke-width:1;"/><path d="M676.1515,385.6406 Q675.5734,385.9375 674.9328,386.0781 Q674.2922,386.2344 673.589,386.2344 Q671.089,386.2344 669.7609,384.5938 Q668.4484,382.9375 668.4484,379.8125 Q668.4484,376.6875 669.7609,375.0313 Q671.089,373.375 673.589,373.375 Q674.2922,373.375 674.9328,373.5313 Q675.589,373.6875 676.1515,373.9844 L676.1515,376.7031 Q675.5265,376.125 674.9328,375.8594 Q674.339,375.5781 673.714,375.5781 Q672.3703,375.5781 671.6828,376.6563 Q670.9953,377.7188 670.9953,379.8125 Q670.9953,381.9063 671.6828,382.9844 Q672.3703,384.0469 673.714,384.0469 Q674.339,384.0469 674.9328,383.7813 Q675.5265,383.5 676.1515,382.9219 L676.1515,385.6406 Z " fill="#000000"/><text fill="#000000" font-family="sans-serif" font-size="14" lengthAdjust="spacing" textLength="206.6812" x="693.6828" y="385.432">PoliticianComplianceCheckImpl</text><line style="stroke:#181818;stroke-width:0.5;" x1="23.5" x2="1538.0468" y1="396" y2="396"/><line style="stroke:#181818;stroke-width:0.5;" x1="23.5" x2="1538.0468" y1="404" y2="404"/><ellipse cx="33.5" cy="419.034" fill="#84BE84" rx="3" ry="3" style="stroke:#038048;stroke-width:1;"/><text fill="#000000" font-family="sans-serif" font-size="14" lengthAdjust="spacing" textLength="1490.5468" x="42.5" y="422.9659">PoliticianComplianceCheckImpl(ViewRiksdagenPolitician, ViewRiksdagenVoteDataBallotPoliticianSummaryDaily, ViewRiksdagenVoteDataBallotPoliticianSummaryMonthly, ViewRiksdagenVoteDataBallotPoliticianSummaryAnnual)</text><ellipse cx="33.5" cy="438.1019" fill="#84BE84" rx="3" ry="3" style="stroke:#038048;stroke-width:1;"/><text fill="#000000" font-family="sans-serif" font-size="14" lengthAdjust="spacing" textLength="255.723" x="42.5" y="442.0339">getPolitician(): ViewRiksdagenPolitician</text><ellipse cx="33.5" cy="457.1698" fill="#84BE84" rx="3" ry="3" style="stroke:#038048;stroke-width:1;"/><text fill="#000000" font-family="sans-serif" font-size="14" lengthAdjust="spacing" textLength="116.2276" x="42.5" y="461.1018">getName(): String</text><ellipse cx="33.5" cy="476.2377" fill="#84BE84" rx="3" ry="3" style="stroke:#038048;stroke-width:1;"/><text fill="#000000" font-family="sans-serif" font-size="14" lengthAdjust="spacing" textLength="90.1037" x="42.5" y="480.1697">getId(): String</text><ellipse cx="33.5" cy="495.3056" fill="#84BE84" rx="3" ry="3" style="stroke:#038048;stroke-width:1;"/><text fill="#000000" font-family="sans-serif" font-size="14" lengthAdjust="spacing" textLength="486.0222" x="42.5" y="499.2376">getDailySummary(): ViewRiksdagenVoteDataBallotPoliticianSummaryDaily</text><ellipse cx="33.5" cy="514.3735" fill="#84BE84" rx="3" ry="3" style="stroke:#038048;stroke-width:1;"/><text fill="#000000" font-family="sans-serif" font-size="14" lengthAdjust="spacing" textLength="529.702" x="42.5" y="518.3055">getMonthlySummary(): ViewRiksdagenVoteDataBallotPoliticianSummaryMonthly</text><ellipse cx="33.5" cy="533.4415" fill="#84BE84" rx="3" ry="3" style="stroke:#038048;stroke-width:1;"/><text fill="#000000" font-family="sans-serif" font-size="14" lengthAdjust="spacing" textLength="513.8821" x="42.5" y="537.3734">getAnnualSummary(): ViewRiksdagenVoteDataBallotPoliticianSummaryAnnual</text><ellipse cx="33.5" cy="552.5094" fill="#84BE84" rx="3" ry="3" style="stroke:#038048;stroke-width:1;"/><text fill="#000000" font-family="sans-serif" font-size="14" lengthAdjust="spacing" text-decoration="underline" textLength="84.1257" x="42.5" y="556.4414">getYear(): int</text><ellipse cx="33.5" cy="571.5773" fill="#84BE84" rx="3" ry="3" style="stroke:#038048;stroke-width:1;"/><text fill="#000000" font-family="sans-serif" font-size="14" lengthAdjust="spacing" textLength="80.1217" x="42.5" y="575.5093">getAge(): int</text><ellipse cx="33.5" cy="590.6452" fill="#84BE84" rx="3" ry="3" style="stroke:#038048;stroke-width:1;"/><text fill="#000000" font-family="sans-serif" font-size="14" lengthAdjust="spacing" textLength="262.863" x="42.5" y="594.5772">getCommitteeLeadershipRatio(): double</text><ellipse cx="33.5" cy="609.7131" fill="#84BE84" rx="3" ry="3" style="stroke:#038048;stroke-width:1;"/><text fill="#000000" font-family="sans-serif" font-size="14" lengthAdjust="spacing" textLength="256.885" x="42.5" y="613.6451">getCommitteeSubstituteRatio(): double</text></a></g><!--class RulesManager--><g class="entity" data-entity="RulesManager" data-source-line="30" data-uid="ent0005" id="entity_RulesManager"><a href="RulesManager.html" target="_top" title="RulesManager.html" xlink:actuate="onRequest" xlink:href="RulesManager.html" xlink:show="new" xlink:title="RulesManager.html" xlink:type="simple"><rect fill="#F1F1F1" height="67.0679" rx="2.5" ry="2.5" style="stroke:#181818;stroke-width:0.5;" width="157.5715" x="4280" y="232.5"/><ellipse cx="4311.3574" cy="248.5" fill="#B4A7E5" rx="11" ry="11" style="stroke:#181818;stroke-width:1;"/><path d="M4307.2793,244.2656 L4307.2793,242.1094 L4314.6699,242.1094 L4314.6699,244.2656 L4312.2012,244.2656 L4312.2012,252.3438 L4314.6699,252.3438 L4314.6699,254.5 L4307.2793,254.5 L4307.2793,252.3438 L4309.7481,252.3438 L4309.7481,244.2656 L4307.2793,244.2656 Z " fill="#000000"/><text fill="#000000" font-family="sans-serif" font-size="14" font-style="italic" lengthAdjust="spacing" textLength="89.2217" x="4328.9924" y="253.932">RulesManager</text><line style="stroke:#181818;stroke-width:0.5;" x1="4281" x2="4436.5715" y1="264.5" y2="264.5"/><line style="stroke:#181818;stroke-width:0.5;" x1="4281" x2="4436.5715" y1="272.5" y2="272.5"/><ellipse cx="4291" cy="287.534" fill="#84BE84" rx="3" ry="3" style="stroke:#038048;stroke-width:1;"/><text fill="#000000" font-family="sans-serif" font-size="14" font-style="italic" lengthAdjust="spacing" textLength="131.5715" x="4300" y="291.4659">processService(): void</text></a></g><!--class MinistryComplianceCheckImpl--><g class="entity" data-entity="MinistryComplianceCheckImpl" data-source-line="34" data-uid="ent0006" id="entity_MinistryComplianceCheckImpl"><a href="MinistryComplianceCheckImpl.html" target="_top" title="MinistryComplianceCheckImpl.html" xlink:actuate="onRequest" xlink:href="MinistryComplianceCheckImpl.html" xlink:show="new" xlink:title="MinistryComplianceCheckImpl.html" xlink:type="simple"><rect fill="#F1F1F1" height="124.2717" rx="2.5" ry="2.5" style="stroke:#181818;stroke-width:0.5;" width="386.9606" x="1557.5" y="431"/><ellipse cx="1646.5957" cy="447" fill="#ADD1B2" rx="11" ry="11" style="stroke:#181818;stroke-width:1;"/><path d="M1649.5644,452.6406 Q1648.9863,452.9375 1648.3457,453.0781 Q1647.7051,453.2344 1647.0019,453.2344 Q1644.5019,453.2344 1643.1738,451.5938 Q1641.8613,449.9375 1641.8613,446.8125 Q1641.8613,443.6875 1643.1738,442.0313 Q1644.5019,440.375 1647.0019,440.375 Q1647.7051,440.375 1648.3457,440.5313 Q1649.0019,440.6875 1649.5644,440.9844 L1649.5644,443.7031 Q1648.9394,443.125 1648.3457,442.8594 Q1647.7519,442.5781 1647.1269,442.5781 Q1645.7832,442.5781 1645.0957,443.6563 Q1644.4082,444.7188 1644.4082,446.8125 Q1644.4082,448.9063 1645.0957,449.9844 Q1645.7832,451.0469 1647.1269,451.0469 Q1647.7519,451.0469 1648.3457,450.7813 Q1648.9394,450.5 1649.5644,449.9219 L1649.5644,452.6406 Z " fill="#000000"/><text fill="#000000" font-family="sans-serif" font-size="14" lengthAdjust="spacing" textLength="200.2692" x="1667.0957" y="452.432">MinistryComplianceCheckImpl</text><line style="stroke:#181818;stroke-width:0.5;" x1="1558.5" x2="1943.4606" y1="463" y2="463"/><line style="stroke:#181818;stroke-width:0.5;" x1="1558.5" x2="1943.4606" y1="471" y2="471"/><ellipse cx="1568.5" cy="486.034" fill="#84BE84" rx="3" ry="3" style="stroke:#038048;stroke-width:1;"/><text fill="#000000" font-family="sans-serif" font-size="14" lengthAdjust="spacing" textLength="360.9606" x="1577.5" y="489.9659">MinistryComplianceCheckImpl(ViewRiksdagenMinistry)</text><ellipse cx="1568.5" cy="505.1019" fill="#84BE84" rx="3" ry="3" style="stroke:#038048;stroke-width:1;"/><text fill="#000000" font-family="sans-serif" font-size="14" lengthAdjust="spacing" textLength="242.899" x="1577.5" y="509.0339">getMinistry(): ViewRiksdagenMinistry</text><ellipse cx="1568.5" cy="524.1698" fill="#84BE84" rx="3" ry="3" style="stroke:#038048;stroke-width:1;"/><text fill="#000000" font-family="sans-serif" font-size="14" lengthAdjust="spacing" textLength="116.2276" x="1577.5" y="528.1018">getName(): String</text><ellipse cx="1568.5" cy="543.2377" fill="#84BE84" rx="3" ry="3" style="stroke:#038048;stroke-width:1;"/><text fill="#000000" font-family="sans-serif" font-size="14" lengthAdjust="spacing" textLength="90.1037" x="1577.5" y="547.1697">getId(): String</text></a></g><!--class RulesManagerImpl--><g class="entity" data-entity="RulesManagerImpl" data-source-line="41" data-uid="ent0007" id="entity_RulesManagerImpl"><a href="RulesManagerImpl.html" target="_top" title="RulesManagerImpl.html" xlink:actuate="onRequest" xlink:href="RulesManagerImpl.html" xlink:show="new" xlink:title="RulesManagerImpl.html" xlink:type="simple"><rect fill="#F1F1F1" height="67.0679" rx="2.5" ry="2.5" style="stroke:#181818;stroke-width:0.5;" width="167.1895" x="4275.5" y="459.5"/><ellipse cx="4295.0954" cy="475.5" fill="#ADD1B2" rx="11" ry="11" style="stroke:#181818;stroke-width:1;"/><path d="M4298.0641,481.1406 Q4297.486,481.4375 4296.8454,481.5781 Q4296.2047,481.7344 4295.5016,481.7344 Q4293.0016,481.7344 4291.6735,480.0938 Q4290.361,478.4375 4290.361,475.3125 Q4290.361,472.1875 4291.6735,470.5313 Q4293.0016,468.875 4295.5016,468.875 Q4296.2047,468.875 4296.8454,469.0313 Q4297.5016,469.1875 4298.0641,469.4844 L4298.0641,472.2031 Q4297.4391,471.625 4296.8454,471.3594 Q4296.2516,471.0781 4295.6266,471.0781 Q4294.2829,471.0781 4293.5954,472.1563 Q4292.9079,473.2188 4292.9079,475.3125 Q4292.9079,477.4063 4293.5954,478.4844 Q4294.2829,479.5469 4295.6266,479.5469 Q4296.2516,479.5469 4296.8454,479.2813 Q4297.4391,479 4298.0641,478.4219 L4298.0641,481.1406 Z " fill="#000000"/><text fill="#000000" font-family="sans-serif" font-size="14" lengthAdjust="spacing" textLength="124.9775" x="4310.1166" y="480.932">RulesManagerImpl</text><line style="stroke:#181818;stroke-width:0.5;" x1="4276.5" x2="4441.6895" y1="491.5" y2="491.5"/><line style="stroke:#181818;stroke-width:0.5;" x1="4276.5" x2="4441.6895" y1="499.5" y2="499.5"/><ellipse cx="4286.5" cy="514.534" fill="#84BE84" rx="3" ry="3" style="stroke:#038048;stroke-width:1;"/><text fill="#000000" font-family="sans-serif" font-size="14" lengthAdjust="spacing" textLength="141.1895" x="4295.5" y="518.4659">processService(): void</text></a></g><!--class RulesEngineImpl--><g class="entity" data-entity="RulesEngineImpl" data-source-line="45" data-uid="ent0008" id="entity_RulesEngineImpl"><a href="RulesEngineImpl.html" target="_top" title="RulesEngineImpl.html" xlink:actuate="onRequest" xlink:href="RulesEngineImpl.html" xlink:show="new" xlink:title="RulesEngineImpl.html" xlink:type="simple"><rect fill="#F1F1F1" height="67.0679" rx="2.5" ry="2.5" style="stroke:#181818;stroke-width:0.5;" width="347.8727" x="4461" y="459.5"/><ellipse cx="4575.2676" cy="475.5" fill="#ADD1B2" rx="11" ry="11" style="stroke:#181818;stroke-width:1;"/><path d="M4578.2363,481.1406 Q4577.6582,481.4375 4577.0176,481.5781 Q4576.377,481.7344 4575.6738,481.7344 Q4573.1738,481.7344 4571.8457,480.0938 Q4570.5332,478.4375 4570.5332,475.3125 Q4570.5332,472.1875 4571.8457,470.5313 Q4573.1738,468.875 4575.6738,468.875 Q4576.377,468.875 4577.0176,469.0313 Q4577.6738,469.1875 4578.2363,469.4844 L4578.2363,472.2031 Q4577.6113,471.625 4577.0176,471.3594 Q4576.4238,471.0781 4575.7988,471.0781 Q4574.4551,471.0781 4573.7676,472.1563 Q4573.0801,473.2188 4573.0801,475.3125 Q4573.0801,477.4063 4573.7676,478.4844 Q4574.4551,479.5469 4575.7988,479.5469 Q4576.4238,479.5469 4577.0176,479.2813 Q4577.6113,479 4578.2363,478.4219 L4578.2363,481.1406 Z " fill="#000000"/><text fill="#000000" font-family="sans-serif" font-size="14" lengthAdjust="spacing" textLength="110.8376" x="4595.7676" y="480.932">RulesEngineImpl</text><line style="stroke:#181818;stroke-width:0.5;" x1="4462" x2="4807.8727" y1="491.5" y2="491.5"/><line style="stroke:#181818;stroke-width:0.5;" x1="4462" x2="4807.8727" y1="499.5" y2="499.5"/><ellipse cx="4472" cy="514.534" fill="#84BE84" rx="3" ry="3" style="stroke:#038048;stroke-width:1;"/><text fill="#000000" font-family="sans-serif" font-size="14" lengthAdjust="spacing" textLength="321.8727" x="4481" y="518.4659">checkRulesCompliance(): List&lt;ComplianceCheck&gt;</text></a></g><!--class CommitteeComplianceCheckImpl--><g class="entity" data-entity="CommitteeComplianceCheckImpl" data-source-line="49" data-uid="ent0009" id="entity_CommitteeComplianceCheckImpl"><a href="CommitteeComplianceCheckImpl.html" target="_top" title="CommitteeComplianceCheckImpl.html" xlink:actuate="onRequest" xlink:href="CommitteeComplianceCheckImpl.html" xlink:show="new" xlink:title="CommitteeComplianceCheckImpl.html" xlink:type="simple"><rect fill="#F1F1F1" height="124.2717" rx="2.5" ry="2.5" style="stroke:#181818;stroke-width:0.5;" width="426.4685" x="1963" y="431"/><ellipse cx="2061.9727" cy="447" fill="#ADD1B2" rx="11" ry="11" style="stroke:#181818;stroke-width:1;"/><path d="M2064.9414,452.6406 Q2064.3633,452.9375 2063.7227,453.0781 Q2063.082,453.2344 2062.3789,453.2344 Q2059.8789,453.2344 2058.5508,451.5938 Q2057.2383,449.9375 2057.2383,446.8125 Q2057.2383,443.6875 2058.5508,442.0313 Q2059.8789,440.375 2062.3789,440.375 Q2063.082,440.375 2063.7227,440.5313 Q2064.3789,440.6875 2064.9414,440.9844 L2064.9414,443.7031 Q2064.3164,443.125 2063.7227,442.8594 Q2063.1289,442.5781 2062.5039,442.5781 Q2061.1602,442.5781 2060.4727,443.6563 Q2059.7852,444.7188 2059.7852,446.8125 Q2059.7852,448.9063 2060.4727,449.9844 Q2061.1602,451.0469 2062.5039,451.0469 Q2063.1289,451.0469 2063.7227,450.7813 Q2064.3164,450.5 2064.9414,449.9219 L2064.9414,452.6406 Z " fill="#000000"/><text fill="#000000" font-family="sans-serif" font-size="14" lengthAdjust="spacing" textLength="220.0231" x="2082.4727" y="452.432">CommitteeComplianceCheckImpl</text><line style="stroke:#181818;stroke-width:0.5;" x1="1964" x2="2388.4685" y1="463" y2="463"/><line style="stroke:#181818;stroke-width:0.5;" x1="1964" x2="2388.4685" y1="471" y2="471"/><ellipse cx="1974" cy="486.034" fill="#84BE84" rx="3" ry="3" style="stroke:#038048;stroke-width:1;"/><text fill="#000000" font-family="sans-serif" font-size="14" lengthAdjust="spacing" textLength="400.4685" x="1983" y="489.9659">CommitteeComplianceCheckImpl(ViewRiksdagenCommittee)</text><ellipse cx="1974" cy="505.1019" fill="#84BE84" rx="3" ry="3" style="stroke:#038048;stroke-width:1;"/><text fill="#000000" font-family="sans-serif" font-size="14" lengthAdjust="spacing" textLength="282.4069" x="1983" y="509.0339">getCommittee(): ViewRiksdagenCommittee</text><ellipse cx="1974" cy="524.1698" fill="#84BE84" rx="3" ry="3" style="stroke:#038048;stroke-width:1;"/><text fill="#000000" font-family="sans-serif" font-size="14" lengthAdjust="spacing" textLength="116.2276" x="1983" y="528.1018">getName(): String</text><ellipse cx="1974" cy="543.2377" fill="#84BE84" rx="3" ry="3" style="stroke:#038048;stroke-width:1;"/><text fill="#000000" font-family="sans-serif" font-size="14" lengthAdjust="spacing" textLength="90.1037" x="1983" y="547.1697">getId(): String</text></a></g><!--class RulesConfiguration--><g class="entity" data-entity="RulesConfiguration" data-source-line="56" data-uid="ent0010" id="entity_RulesConfiguration"><a href="RulesConfiguration.html" target="_top" title="RulesConfiguration.html" xlink:actuate="onRequest" xlink:href="RulesConfiguration.html" xlink:show="new" xlink:title="RulesConfiguration.html" xlink:type="simple"><rect fill="#F1F1F1" height="67.0679" rx="2.5" ry="2.5" style="stroke:#181818;stroke-width:0.5;" width="210.5893" x="3217.5" y="232.5"/><ellipse cx="3255.8693" cy="248.5" fill="#ADD1B2" rx="11" ry="11" style="stroke:#181818;stroke-width:1;"/><path d="M3258.838,254.1406 Q3258.2599,254.4375 3257.6193,254.5781 Q3256.9787,254.7344 3256.2755,254.7344 Q3253.7755,254.7344 3252.4474,253.0938 Q3251.1349,251.4375 3251.1349,248.3125 Q3251.1349,245.1875 3252.4474,243.5313 Q3253.7755,241.875 3256.2755,241.875 Q3256.9787,241.875 3257.6193,242.0313 Q3258.2755,242.1875 3258.838,242.4844 L3258.838,245.2031 Q3258.213,244.625 3257.6193,244.3594 Q3257.0255,244.0781 3256.4005,244.0781 Q3255.0568,244.0781 3254.3693,245.1563 Q3253.6818,246.2188 3253.6818,248.3125 Q3253.6818,250.4063 3254.3693,251.4844 Q3255.0568,252.5469 3256.4005,252.5469 Q3257.0255,252.5469 3257.6193,252.2813 Q3258.213,252 3258.838,251.4219 L3258.838,254.1406 Z " fill="#000000"/><text fill="#000000" font-family="sans-serif" font-size="14" lengthAdjust="spacing" textLength="126.6575" x="3275.0625" y="253.932">RulesConfiguration</text><line style="stroke:#181818;stroke-width:0.5;" x1="3218.5" x2="3427.0893" y1="264.5" y2="264.5"/><line style="stroke:#181818;stroke-width:0.5;" x1="3218.5" x2="3427.0893" y1="272.5" y2="272.5"/><ellipse cx="3228.5" cy="287.534" fill="#84BE84" rx="3" ry="3" style="stroke:#038048;stroke-width:1;"/><text fill="#000000" font-family="sans-serif" font-size="14" lengthAdjust="spacing" textLength="184.5893" x="3237.5" y="291.4659">kieContainer(): KieContainer</text></a></g><!--class PartyComplianceCheckImpl--><g class="entity" data-entity="PartyComplianceCheckImpl" data-source-line="60" data-uid="ent0011" id="entity_PartyComplianceCheckImpl"><a href="PartyComplianceCheckImpl.html" target="_top" title="PartyComplianceCheckImpl.html" xlink:actuate="onRequest" xlink:href="PartyComplianceCheckImpl.html" xlink:show="new" xlink:title="PartyComplianceCheckImpl.html" xlink:type="simple"><rect fill="#F1F1F1" height="181.4754" rx="2.5" ry="2.5" style="stroke:#181818;stroke-width:0.5;" width="1453.0016" x="2407.5" y="402.5"/><ellipse cx="3039.0941" cy="418.5" fill="#ADD1B2" rx="11" ry="11" style="stroke:#181818;stroke-width:1;"/><path d="M3042.0629,424.1406 Q3041.4848,424.4375 3040.8441,424.5781 Q3040.2035,424.7344 3039.5004,424.7344 Q3037.0004,424.7344 3035.6723,423.0938 Q3034.3598,421.4375 3034.3598,418.3125 Q3034.3598,415.1875 3035.6723,413.5313 Q3037.0004,411.875 3039.5004,411.875 Q3040.2035,411.875 3040.8441,412.0313 Q3041.5004,412.1875 3042.0629,412.4844 L3042.0629,415.2031 Q3041.4379,414.625 3040.8441,414.3594 Q3040.2504,414.0781 3039.6254,414.0781 Q3038.2816,414.0781 3037.5941,415.1563 Q3036.9066,416.2188 3036.9066,418.3125 Q3036.9066,420.4063 3037.5941,421.4844 Q3038.2816,422.5469 3039.6254,422.5469 Q3040.2504,422.5469 3040.8441,422.2813 Q3041.4379,422 3042.0629,421.4219 L3042.0629,424.1406 Z " fill="#000000"/><text fill="#000000" font-family="sans-serif" font-size="14" lengthAdjust="spacing" textLength="181.3133" x="3059.5941" y="423.932">PartyComplianceCheckImpl</text><line style="stroke:#181818;stroke-width:0.5;" x1="2408.5" x2="3859.5016" y1="434.5" y2="434.5"/><line style="stroke:#181818;stroke-width:0.5;" x1="2408.5" x2="3859.5016" y1="442.5" y2="442.5"/><ellipse cx="2418.5" cy="457.534" fill="#84BE84" rx="3" ry="3" style="stroke:#038048;stroke-width:1;"/><text fill="#000000" font-family="sans-serif" font-size="14" lengthAdjust="spacing" textLength="1427.0016" x="2427.5" y="461.4659">PartyComplianceCheckImpl(ViewRiksdagenPartySummary, ViewRiksdagenVoteDataBallotPartySummaryAnnual, ViewRiksdagenVoteDataBallotPartySummaryMonthly, ViewRiksdagenVoteDataBallotPartySummaryDaily)</text><ellipse cx="2418.5" cy="476.6019" fill="#84BE84" rx="3" ry="3" style="stroke:#038048;stroke-width:1;"/><text fill="#000000" font-family="sans-serif" font-size="14" lengthAdjust="spacing" textLength="268.2809" x="2427.5" y="480.5339">getParty(): ViewRiksdagenPartySummary</text><ellipse cx="2418.5" cy="495.6698" fill="#84BE84" rx="3" ry="3" style="stroke:#038048;stroke-width:1;"/><text fill="#000000" font-family="sans-serif" font-size="14" lengthAdjust="spacing" textLength="116.2276" x="2427.5" y="499.6018">getName(): String</text><ellipse cx="2418.5" cy="514.7377" fill="#84BE84" rx="3" ry="3" style="stroke:#038048;stroke-width:1;"/><text fill="#000000" font-family="sans-serif" font-size="14" lengthAdjust="spacing" textLength="90.1037" x="2427.5" y="518.6697">getId(): String</text><ellipse cx="2418.5" cy="533.8056" fill="#84BE84" rx="3" ry="3" style="stroke:#038048;stroke-width:1;"/><text fill="#000000" font-family="sans-serif" font-size="14" lengthAdjust="spacing" textLength="460.6543" x="2427.5" y="537.7376">getDailySummary(): ViewRiksdagenVoteDataBallotPartySummaryDaily</text><ellipse cx="2418.5" cy="552.8735" fill="#84BE84" rx="3" ry="3" style="stroke:#038048;stroke-width:1;"/><text fill="#000000" font-family="sans-serif" font-size="14" lengthAdjust="spacing" textLength="504.3341" x="2427.5" y="556.8055">getMonthlySummary(): ViewRiksdagenVoteDataBallotPartySummaryMonthly</text><ellipse cx="2418.5" cy="571.9415" fill="#84BE84" rx="3" ry="3" style="stroke:#038048;stroke-width:1;"/><text fill="#000000" font-family="sans-serif" font-size="14" lengthAdjust="spacing" textLength="488.5142" x="2427.5" y="575.8734">getAnnualSummary(): ViewRiksdagenVoteDataBallotPartySummaryAnnual</text></a></g><!--class ApplicationComplianceCheckImpl--><g class="entity" data-entity="ApplicationComplianceCheckImpl" data-source-line="70" data-uid="ent0012" id="entity_ApplicationComplianceCheckImpl"><a href="ApplicationComplianceCheckImpl.html" target="_top" title="ApplicationComplianceCheckImpl.html" xlink:actuate="onRequest" xlink:href="ApplicationComplianceCheckImpl.html" xlink:show="new" xlink:title="ApplicationComplianceCheckImpl.html" xlink:type="simple"><rect fill="#F1F1F1" height="162.4075" rx="2.5" ry="2.5" style="stroke:#181818;stroke-width:0.5;" width="378.0847" x="3879" y="412"/><ellipse cx="3953.4098" cy="428" fill="#ADD1B2" rx="11" ry="11" style="stroke:#181818;stroke-width:1;"/><path d="M3956.3785,433.6406 Q3955.8004,433.9375 3955.1598,434.0781 Q3954.5191,434.2344 3953.816,434.2344 Q3951.316,434.2344 3949.9879,432.5938 Q3948.6754,430.9375 3948.6754,427.8125 Q3948.6754,424.6875 3949.9879,423.0313 Q3951.316,421.375 3953.816,421.375 Q3954.5191,421.375 3955.1598,421.5313 Q3955.816,421.6875 3956.3785,421.9844 L3956.3785,424.7031 Q3955.7535,424.125 3955.1598,423.8594 Q3954.566,423.5781 3953.941,423.5781 Q3952.5973,423.5781 3951.9098,424.6563 Q3951.2223,425.7188 3951.2223,427.8125 Q3951.2223,429.9063 3951.9098,430.9844 Q3952.5973,432.0469 3953.941,432.0469 Q3954.566,432.0469 3955.1598,431.7813 Q3955.7535,431.5 3956.3785,430.9219 L3956.3785,433.6406 Z " fill="#000000"/><text fill="#000000" font-family="sans-serif" font-size="14" lengthAdjust="spacing" textLength="220.7651" x="3973.9098" y="433.432">ApplicationComplianceCheckImpl</text><line style="stroke:#181818;stroke-width:0.5;" x1="3880" x2="4256.0847" y1="444" y2="444"/><line style="stroke:#181818;stroke-width:0.5;" x1="3880" x2="4256.0847" y1="452" y2="452"/><ellipse cx="3890" cy="467.034" fill="#84BE84" rx="3" ry="3" style="stroke:#038048;stroke-width:1;"/><text fill="#000000" font-family="sans-serif" font-size="14" lengthAdjust="spacing" textLength="352.0847" x="3899" y="470.9659">ApplicationComplianceCheckImpl(String, String, long)</text><ellipse cx="3890" cy="486.1019" fill="#84BE84" rx="3" ry="3" style="stroke:#038048;stroke-width:1;"/><text fill="#000000" font-family="sans-serif" font-size="14" lengthAdjust="spacing" textLength="139.8315" x="3899" y="490.0339">getSessionId(): String</text><ellipse cx="3890" cy="505.1698" fill="#84BE84" rx="3" ry="3" style="stroke:#038048;stroke-width:1;"/><text fill="#000000" font-family="sans-serif" font-size="14" lengthAdjust="spacing" textLength="169.3014" x="3899" y="509.1018">getIpInformation(): String</text><ellipse cx="3890" cy="524.2377" fill="#84BE84" rx="3" ry="3" style="stroke:#038048;stroke-width:1;"/><text fill="#000000" font-family="sans-serif" font-size="14" lengthAdjust="spacing" textLength="262.835" x="3899" y="528.1697">getFailedAuthenticationAttempts(): long</text><ellipse cx="3890" cy="543.3056" fill="#84BE84" rx="3" ry="3" style="stroke:#038048;stroke-width:1;"/><text fill="#000000" font-family="sans-serif" font-size="14" lengthAdjust="spacing" textLength="116.2276" x="3899" y="547.2376">getName(): String</text><ellipse cx="3890" cy="562.3735" fill="#84BE84" rx="3" ry="3" style="stroke:#038048;stroke-width:1;"/><text fill="#000000" font-family="sans-serif" font-size="14" lengthAdjust="spacing" textLength="90.1037" x="3899" y="566.3055">getId(): String</text></a></g><!--class AbstractComplianceCheckImpl--><g class="entity" data-entity="AbstractComplianceCheckImpl" data-source-line="79" data-uid="ent0013" id="entity_AbstractComplianceCheckImpl"><a href="AbstractComplianceCheckImpl.html" target="_top" title="AbstractComplianceCheckImpl.html" xlink:actuate="onRequest" xlink:href="AbstractComplianceCheckImpl.html" xlink:show="new" xlink:title="AbstractComplianceCheckImpl.html" xlink:type="simple"><rect fill="#F1F1F1" height="124.2717" rx="2.5" ry="2.5" style="stroke:#181818;stroke-width:0.5;" width="380.5627" x="1985.5" y="204"/><ellipse cx="2076.8637" cy="220" fill="#A9DCDF" rx="11" ry="11" style="stroke:#181818;stroke-width:1;"/><path d="M2076.9731,215.3438 L2075.8168,220.4219 L2078.145,220.4219 L2076.9731,215.3438 Z M2075.4887,213.1094 L2078.4731,213.1094 L2081.8325,225.5 L2079.3793,225.5 L2078.6137,222.4375 L2075.3325,222.4375 L2074.5825,225.5 L2072.145,225.5 L2075.4887,213.1094 Z " fill="#000000"/><text fill="#000000" font-family="sans-serif" font-size="14" font-style="italic" lengthAdjust="spacing" textLength="189.3353" x="2097.3637" y="225.432">AbstractComplianceCheckImpl</text><line style="stroke:#181818;stroke-width:0.5;" x1="1986.5" x2="2365.0627" y1="236" y2="236"/><line style="stroke:#181818;stroke-width:0.5;" x1="1986.5" x2="2365.0627" y1="244" y2="244"/><ellipse cx="1996.5" cy="259.034" fill="#84BE84" rx="3" ry="3" style="stroke:#038048;stroke-width:1;"/><text fill="#000000" font-family="sans-serif" font-size="14" lengthAdjust="spacing" textLength="302.3988" x="2005.5" y="262.9659">AbstractComplianceCheckImpl(ResourceType)</text><ellipse cx="1996.5" cy="278.1019" fill="#84BE84" rx="3" ry="3" style="stroke:#038048;stroke-width:1;"/><text fill="#000000" font-family="sans-serif" font-size="14" lengthAdjust="spacing" textLength="221.8711" x="2005.5" y="282.0339">getResourceType(): ResourceType</text><ellipse cx="1996.5" cy="297.1698" fill="#84BE84" rx="3" ry="3" style="stroke:#038048;stroke-width:1;"/><text fill="#000000" font-family="sans-serif" font-size="14" lengthAdjust="spacing" textLength="255.989" x="2005.5" y="301.1018">getRuleViolations(): List&lt;RuleViolation&gt;</text><ellipse cx="1996.5" cy="316.2377" fill="#84BE84" rx="3" ry="3" style="stroke:#038048;stroke-width:1;"/><text fill="#000000" font-family="sans-serif" font-size="14" lengthAdjust="spacing" textLength="354.5627" x="2005.5" y="320.1697">addViolation(Status, String, String, String, String): void</text></a></g><!--class ComplianceCheck--><g class="entity" data-entity="ComplianceCheck" data-source-line="89" data-uid="ent0015" id="entity_ComplianceCheck"><rect fill="#F1F1F1" height="124.2717" rx="2.5" ry="2.5" style="stroke:#181818;stroke-width:0.5;" width="267.6671" x="2042" y="34"/><ellipse cx="2116.7597" cy="50" fill="#B4A7E5" rx="11" ry="11" style="stroke:#181818;stroke-width:1;"/><path d="M2112.6816,45.7656 L2112.6816,43.6094 L2120.0722,43.6094 L2120.0722,45.7656 L2117.6035,45.7656 L2117.6035,53.8438 L2120.0722,53.8438 L2120.0722,56 L2112.6816,56 L2112.6816,53.8438 L2115.1503,53.8438 L2115.1503,45.7656 L2112.6816,45.7656 Z " fill="#000000"/><text fill="#000000" font-family="sans-serif" font-size="14" font-style="italic" lengthAdjust="spacing" textLength="109.6476" x="2137.2597" y="55.432">ComplianceCheck</text><line style="stroke:#181818;stroke-width:0.5;" x1="2043" x2="2308.6671" y1="66" y2="66"/><line style="stroke:#181818;stroke-width:0.5;" x1="2043" x2="2308.6671" y1="74" y2="74"/><ellipse cx="2053" cy="89.034" fill="#84BE84" rx="3" ry="3" style="stroke:#038048;stroke-width:1;"/><text fill="#000000" font-family="sans-serif" font-size="14" font-style="italic" lengthAdjust="spacing" textLength="204.2593" x="2062" y="92.9659">getResourceType(): ResourceType</text><ellipse cx="2053" cy="108.1019" fill="#84BE84" rx="3" ry="3" style="stroke:#038048;stroke-width:1;"/><text fill="#000000" font-family="sans-serif" font-size="14" font-style="italic" lengthAdjust="spacing" textLength="241.6671" x="2062" y="112.0339">getRuleViolations(): List&lt;RuleViolation&gt;</text><ellipse cx="2053" cy="127.1698" fill="#84BE84" rx="3" ry="3" style="stroke:#038048;stroke-width:1;"/><text fill="#000000" font-family="sans-serif" font-size="14" font-style="italic" lengthAdjust="spacing" textLength="84.8397" x="2062" y="131.1018">getId(): String</text><ellipse cx="2053" cy="146.2377" fill="#84BE84" rx="3" ry="3" style="stroke:#038048;stroke-width:1;"/><text fill="#000000" font-family="sans-serif" font-size="14" font-style="italic" lengthAdjust="spacing" textLength="109.2836" x="2062" y="150.1697">getName(): String</text></g><g class="link" data-entity-1="AbstractComplianceCheckImpl" data-entity-2="PoliticianComplianceCheckImpl" data-uid="lnk16" id="link_AbstractComplianceCheckImpl_PoliticianComplianceCheckImpl"><polygon fill="none" points="1985.206,295.9261,1966.5063,292.7135,1968.3187,304.5758,1985.206,295.9261" style="stroke:#181818;stroke-width:1;"/><path d="M1967.4125,298.6447 C1843.1269,317.6332 1695.2743,340.4966 1549,364 C1545.9137,364.4959 1542.8205,364.9933 1539.7208,365.4921" fill="none" style="stroke:#181818;stroke-width:1;"/></g><g class="link" data-entity-1="AbstractComplianceCheckImpl" data-entity-2="MinistryComplianceCheckImpl" data-uid="lnk17" id="link_AbstractComplianceCheckImpl_MinistryComplianceCheckImpl"><polygon fill="none" points="2027.6409,328.1134,2008.7709,330.094,2013.7333,341.0198,2027.6409,328.1134" style="stroke:#181818;stroke-width:1;"/><path d="M2011.2521,335.5569 C1986.36,346.8625 1977.4141,351.5936 1954,364 C1916.1723,384.0437 1876.0078,408.6179 1841.4762,430.8568" fill="none" style="stroke:#181818;stroke-width:1;"/></g><g class="link" data-entity-1="RulesManager" data-entity-2="RulesManagerImpl" data-uid="lnk18" id="link_RulesManager_RulesManagerImpl"><polygon fill="none" points="4359,299.7169,4353,317.7169,4365,317.7169,4359,299.7169" style="stroke:#181818;stroke-width:1;"/><path d="M4359,317.7169 C4359,360.3754 4359,416.5657 4359,459.2436" fill="none" style="stroke:#181818;stroke-width:1;stroke-dasharray:7,7;"/></g><g class="link" data-entity-1="RulesEngine" data-entity-2="RulesEngineImpl" data-uid="lnk19" id="link_RulesEngine_RulesEngineImpl"><polygon fill="none" points="4635,299.7169,4629,317.7169,4641,317.7169,4635,299.7169" style="stroke:#181818;stroke-width:1;"/><path d="M4635,317.7169 C4635,360.3754 4635,416.5657 4635,459.2436" fill="none" style="stroke:#181818;stroke-width:1;stroke-dasharray:7,7;"/></g><g class="link" data-entity-1="AbstractComplianceCheckImpl" data-entity-2="CommitteeComplianceCheckImpl" data-uid="lnk20" id="link_AbstractComplianceCheckImpl_CommitteeComplianceCheckImpl"><polygon fill="none" points="2176,328.185,2170,346.185,2182,346.185,2176,328.185" style="stroke:#181818;stroke-width:1;"/><path d="M2176,346.185 C2176,378.0671 2176,398.9469 2176,430.8271" fill="none" style="stroke:#181818;stroke-width:1;"/></g><g class="link" data-entity-1="AbstractComplianceCheckImpl" data-entity-2="PartyComplianceCheckImpl" data-uid="lnk21" id="link_AbstractComplianceCheckImpl_PartyComplianceCheckImpl"><polygon fill="none" points="2366.7021,311.7891,2382.8534,321.7457,2385.5971,310.0636,2366.7021,311.7891" style="stroke:#181818;stroke-width:1;"/><path d="M2384.2253,315.9047 C2494.6051,341.829 2619.9869,371.2767 2752.4971,402.3986" fill="none" style="stroke:#181818;stroke-width:1;"/></g><g class="link" data-entity-1="AbstractComplianceCheckImpl" data-entity-2="ApplicationComplianceCheckImpl" data-uid="lnk22" id="link_AbstractComplianceCheckImpl_ApplicationComplianceCheckImpl"><polygon fill="none" points="2366.8496,278.5319,2384.457,285.6015,2385.1773,273.6231,2366.8496,278.5319" style="stroke:#181818;stroke-width:1;"/><path d="M2384.8171,279.6123 C2592.1187,292.0771 2915.0672,311.3173 3209,328 C3355.8702,336.3359 3730.0928,318.5432 3870,364 C3903.3818,374.846 3936.6158,392.7875 3966.0556,411.8541" fill="none" style="stroke:#181818;stroke-width:1;"/></g><g class="link" data-entity-1="ComplianceCheck" data-entity-2="AbstractComplianceCheckImpl" data-uid="lnk23" id="link_ComplianceCheck_AbstractComplianceCheckImpl"><polygon fill="none" points="2176,158.1271,2170,176.1271,2182,176.1271,2176,158.1271" style="stroke:#181818;stroke-width:1;"/><path d="M2176,176.1271 C2176,191.0443 2176,189.0033 2176,203.9184" fill="none" style="stroke:#181818;stroke-width:1;stroke-dasharray:7,7;"/></g><g class="footer" data-source-line="112"><text fill="#888888" font-family="sans-serif" font-size="10" lengthAdjust="spacing" textLength="2.6" x="2402.7" y="642.69">&#160;</text><a href="https://github.com/talsma-ict/umldoclet" target="_top" title="https://github.com/talsma-ict/umldoclet" xlink:actuate="onRequest" xlink:href="https://github.com/talsma-ict/umldoclet" xlink:show="new" xlink:title="https://github.com/talsma-ict/umldoclet" xlink:type="simple"><text fill="#888888" font-family="sans-serif" font-size="10" lengthAdjust="spacing" textLength="76.7199" x="2365.64" y="656.31">UMLDoclet 2.2.4</text></a></g><!--SRC=[nHZRRjiszBrVmQ4FSv1ObfqcouoWWETqMxQaA6mtmE3bWP4OYJ15QYILmcZzxpkKP5iNaxNRBFEBJ9xxdIH22Fs8nY9TIXh56cc1T4mL-dXxWp0FKKGuaLYJ4D44HqIX1y84ZrI1I13ET2ma4e_vAX1I4fKA7b8UeJ_m4qPAP38Wodlr2kMYPclkdx2gS7zOciqh4J2YKMTyL55fuFVFkmD_S8vccAa4e-lnp2kvRMa6ti1xWu0tem7X2bXcF2GoLskKuW0-DmNa13qHgQZWGEENV8ofWU0QKwvGYgLMngGF37DjTErx8F_Cw_keCvhUr9NpVywLEq4ZoN4Meedu9zlO-qCgSGGgCxmKcKOg8Hfpd8CKAAq8oC8Q73WS5WIWwGBy3CeaNWp_1wTUGB6dY7m2xJsQfCoJ6OD0V2u8p8zoJUGZ3WYQ6D0x7b5Eq7nUMNcnJjZzFL2XokypVb1Qua2lq35uA5Za56C1KYZc0UaS3S5hIbzkjyO6xUs6osghHS2mKkY3O5HJq9atQAvX1JevuRkrF7RITEue-JIX2nM2t_WMzGJL07T2aokiyI-OCQ6tQDCiIR1SNc7AbeUHt4A-n8SIZJZFC3kgsnUH2gBnkSMa5jLxdEGncce91TS2NuSEO6vngLLBvZxUQd4i7VADF4lg5jV2Oz_8j22kvxpI671MEVE_29Q69rHGMt14R218muHgJSWDmT1aL4pJ2J0L1ZyKsGCZTf9f1ZL7TQQ9ZMHbhUnRQ1uHDBMojClbrsixbG9wi9eMNSI8V18qj1VnBULGzNAvkuGTK4i1EoZgvRj6R1V86jBAW3NWMOgZvOcgdqlpcriMcm_rUQLPLmLjTonodgblR_9pTynTO8jYBf9wr3UOH_QoQSLz0_aF0pyM_956cJI5ojSHgMrQR5zGi3e_Jf2yl_nPMJjc9nmyB3Ld0zacfWMzCImDLjaftMEiWbYqrBtHzvgI5VnyjEoOZmQbFHehXF_RS6mg_vrpiUsxxnk9hT3Pys-KGhu4ULxlpa8tWYKNtKIT8W8dQFqrrujs_AVGIe61CsZNwJL_53B9HJdmVeKeaN04DnV2TQdP23f9acfbo8m6pzrKriDuxUboQN6p7MhpiPsYCo757MosJ7Sqs2hKc51Tjv6X_zrHmNANgSsKgMs_hLFXCDo08DPOPseRwzrVowXSxNL3mYdrm16cDIzIMl7JzYZLS9BZt7I8Vvfq1xkgmS2QwWqyIsAkgZxxwcroE7HbvEMNRdSV7ivxsaiguZXlxgj6xRnz-SNp3YKwM5XvRJz8rlPq-9BkTPtiNZJVBAUSbzJ1FTrScjGxLUxLMblQDn4SLXJLVwdqaf5jitaKS4AGZRRtE_GpUKFvOYoOaEZrnMxeH_EenY3dPZ4D5XocCl8RFUUoLv5NolgRp-UnrgaQzdeHrN7su85bFPq_w7Lfe7jPmiBY9Q_nfdT_NxxH_RPvB3JlRLt_JRVVd_NFXlxfqEzx_lb5_wVJY_xPiJyO-lxyNIP5IdfJBO95B5Xo_oy0]--></g></svg>