<svg xmlns="http://www.w3.org/2000/svg" xmlns:xlink="http://www.w3.org/1999/xlink" contentStyleType="text/css" height="1016px" preserveAspectRatio="none" style="width:3343px;height:1016px;background:#FFFFFF;" version="1.1" viewBox="0 0 3343 1016" width="3343px" zoomAndPan="magnify"><defs/><g><!--cluster com.hack23.cia.web.impl.ui.application.views.common.chartfactory.api--><g id="cluster_com.hack23.cia.web.impl.ui.application.views.common.chartfactory.api"><path d="M16.5,4 L518.4739,4 A3.75,3.75 0 0 1 520.9739,6.5 L527.9739,29.0679 L3333.5,29.0679 A2.5,2.5 0 0 1 3336,31.5679 L3336,976.5 A2.5,2.5 0 0 1 3333.5,979 L16.5,979 A2.5,2.5 0 0 1 14,976.5 L14,6.5 A2.5,2.5 0 0 1 16.5,4 " fill="none" style="stroke:#000000;stroke-width:1.5;"/><line style="stroke:#000000;stroke-width:1.5;" x1="14" x2="527.9739" y1="29.0679" y2="29.0679"/><text fill="#000000" font-family="sans-serif" font-size="14" font-weight="bold" lengthAdjust="spacing" textLength="500.9739" x="18" y="20.9659">com.hack23.cia.web.impl.ui.application.views.common.chartfactory.api</text></g><!--class PartySupportsChartDataManager--><a href="PartySupportsChartDataManager.html" target="_top" title="PartySupportsChartDataManager.html" xlink:actuate="onRequest" xlink:href="PartySupportsChartDataManager.html" xlink:show="new" xlink:title="PartySupportsChartDataManager.html" xlink:type="simple"><g id="elem_PartySupportsChartDataManager"><rect codeLine="12" fill="#F1F1F1" height="67.0679" id="PartySupportsChartDataManager" rx="2.5" ry="2.5" style="stroke:#181818;stroke-width:0.5;" width="361.8727" x="242" y="101"/><ellipse cx="314.1768" cy="117" fill="#B4A7E5" rx="11" ry="11" style="stroke:#181818;stroke-width:1.0;"/><path d="M310.0986,112.7656 L310.0986,110.6094 L317.4893,110.6094 L317.4893,112.7656 L315.0205,112.7656 L315.0205,120.8438 L317.4893,120.8438 L317.4893,123 L310.0986,123 L310.0986,120.8438 L312.5674,120.8438 L312.5674,112.7656 L310.0986,112.7656 Z " fill="#000000"/><text fill="#000000" font-family="sans-serif" font-size="14" font-style="italic" lengthAdjust="spacing" textLength="209.0192" x="334.6768" y="122.432">PartySupportsChartDataManager</text><line style="stroke:#181818;stroke-width:0.5;" x1="243" x2="602.8727" y1="133" y2="133"/><line style="stroke:#181818;stroke-width:0.5;" x1="243" x2="602.8727" y1="141" y2="141"/><ellipse cx="253" cy="156.034" fill="#84BE84" rx="3" ry="3" style="stroke:#038048;stroke-width:1.0;"/><text fill="#000000" font-family="sans-serif" font-size="14" font-style="italic" lengthAdjust="spacing" textLength="335.8727" x="262" y="159.9659">createPartyChart(AbstractOrderedLayout, String): void</text></g></a><!--class WorldIndicatorChartDataManager--><a href="WorldIndicatorChartDataManager.html" target="_top" title="WorldIndicatorChartDataManager.html" xlink:actuate="onRequest" xlink:href="WorldIndicatorChartDataManager.html" xlink:show="new" xlink:title="WorldIndicatorChartDataManager.html" xlink:type="simple"><g id="elem_WorldIndicatorChartDataManager"><rect codeLine="16" fill="#F1F1F1" height="67.0679" id="WorldIndicatorChartDataManager" rx="2.5" ry="2.5" style="stroke:#181818;stroke-width:0.5;" width="783.6907" x="622" y="101"/><ellipse cx="902.2228" cy="117" fill="#B4A7E5" rx="11" ry="11" style="stroke:#181818;stroke-width:1.0;"/><path d="M898.1447,112.7656 L898.1447,110.6094 L905.5353,110.6094 L905.5353,112.7656 L903.0665,112.7656 L903.0665,120.8438 L905.5353,120.8438 L905.5353,123 L898.1447,123 L898.1447,120.8438 L900.6134,120.8438 L900.6134,112.7656 L898.1447,112.7656 Z " fill="#000000"/><text fill="#000000" font-family="sans-serif" font-size="14" font-style="italic" lengthAdjust="spacing" textLength="214.7452" x="922.7228" y="122.432">WorldIndicatorChartDataManager</text><line style="stroke:#181818;stroke-width:0.5;" x1="623" x2="1404.6907" y1="133" y2="133"/><line style="stroke:#181818;stroke-width:0.5;" x1="623" x2="1404.6907" y1="141" y2="141"/><ellipse cx="633" cy="156.034" fill="#84BE84" rx="3" ry="3" style="stroke:#038048;stroke-width:1.0;"/><text fill="#000000" font-family="sans-serif" font-size="14" font-style="italic" lengthAdjust="spacing" textLength="757.6907" x="642" y="159.9659">createIndicatorChart(AbstractOrderedLayout, List&lt;WorldBankData&gt;, ViewWorldbankIndicatorDataCountrySummary): void</text></g></a><!--class ChartOptions--><a href="ChartOptions.html" target="_top" title="ChartOptions.html" xlink:actuate="onRequest" xlink:href="ChartOptions.html" xlink:show="new" xlink:title="ChartOptions.html" xlink:type="simple"><g id="elem_ChartOptions"><rect codeLine="20" fill="#F1F1F1" height="200.5433" id="ChartOptions" rx="2.5" ry="2.5" style="stroke:#181818;stroke-width:0.5;" width="443.0303" x="1424.5" y="34"/><ellipse cx="1600.2693" cy="50" fill="#B4A7E5" rx="11" ry="11" style="stroke:#181818;stroke-width:1.0;"/><path d="M1596.1912,45.7656 L1596.1912,43.6094 L1603.5818,43.6094 L1603.5818,45.7656 L1601.1131,45.7656 L1601.1131,53.8438 L1603.5818,53.8438 L1603.5818,56 L1596.1912,56 L1596.1912,53.8438 L1598.66,53.8438 L1598.66,45.7656 L1596.1912,45.7656 Z " fill="#000000"/><text fill="#000000" font-family="sans-serif" font-size="14" font-style="italic" lengthAdjust="spacing" textLength="82.9917" x="1620.7693" y="55.432">ChartOptions</text><line style="stroke:#181818;stroke-width:0.5;" x1="1425.5" x2="1866.5303" y1="66" y2="66"/><line style="stroke:#181818;stroke-width:0.5;" x1="1425.5" x2="1866.5303" y1="74" y2="74"/><ellipse cx="1435.5" cy="89.034" fill="#84BE84" rx="3" ry="3" style="stroke:#038048;stroke-width:1.0;"/><text fill="#000000" font-family="sans-serif" font-size="14" font-style="italic" lengthAdjust="spacing" textLength="296.0568" x="1444.5" y="92.9659">createOptionsCountryLineChart(Series): Options</text><ellipse cx="1435.5" cy="108.1019" fill="#84BE84" rx="3" ry="3" style="stroke:#038048;stroke-width:1.0;"/><text fill="#000000" font-family="sans-serif" font-size="14" font-style="italic" lengthAdjust="spacing" textLength="231.2791" x="1444.5" y="112.0339">createOptionsDonoutChart(): Options</text><ellipse cx="1435.5" cy="127.1698" fill="#84BE84" rx="3" ry="3" style="stroke:#038048;stroke-width:1.0;"/><text fill="#000000" font-family="sans-serif" font-size="14" font-style="italic" lengthAdjust="spacing" textLength="332.1767" x="1444.5" y="131.1018">createOptionsDonoutChartWithSeries(Series): Options</text><ellipse cx="1435.5" cy="146.2377" fill="#84BE84" rx="3" ry="3" style="stroke:#038048;stroke-width:1.0;"/><text fill="#000000" font-family="sans-serif" font-size="14" font-style="italic" lengthAdjust="spacing" textLength="279.6349" x="1444.5" y="150.1697">createOptionsPartyLineChart(Series): Options</text><ellipse cx="1435.5" cy="165.3056" fill="#84BE84" rx="3" ry="3" style="stroke:#038048;stroke-width:1.0;"/><text fill="#000000" font-family="sans-serif" font-size="14" font-style="italic" lengthAdjust="spacing" textLength="289.5189" x="1444.5" y="169.2376">createOptionsPersonLineChart(Series): Options</text><ellipse cx="1435.5" cy="184.3735" fill="#84BE84" rx="3" ry="3" style="stroke:#038048;stroke-width:1.0;"/><text fill="#000000" font-family="sans-serif" font-size="14" font-style="italic" lengthAdjust="spacing" textLength="203.8532" x="1444.5" y="188.3055">createOptionsPieChart(): Options</text><ellipse cx="1435.5" cy="203.4415" fill="#84BE84" rx="3" ry="3" style="stroke:#038048;stroke-width:1.0;"/><text fill="#000000" font-family="sans-serif" font-size="14" font-style="italic" lengthAdjust="spacing" textLength="417.0303" x="1444.5" y="207.3734">createOptionsXYDateFloatLegendInsideOneColumn(Series): Options</text><ellipse cx="1435.5" cy="222.5094" fill="#84BE84" rx="3" ry="3" style="stroke:#038048;stroke-width:1.0;"/><text fill="#000000" font-family="sans-serif" font-size="14" font-style="italic" lengthAdjust="spacing" textLength="407.9724" x="1444.5" y="226.4414">createOptionsXYDateFloatLogYAxisLegendOutside(Series): Options</text></g></a><!--class ChartDataManager--><a href="ChartDataManager.html" target="_top" title="ChartDataManager.html" xlink:actuate="onRequest" xlink:href="ChartDataManager.html" xlink:show="new" xlink:title="ChartDataManager.html" xlink:type="simple"><g id="elem_ChartDataManager"><rect codeLine="31" fill="#F1F1F1" height="67.0679" id="ChartDataManager" rx="2.5" ry="2.5" style="stroke:#181818;stroke-width:0.5;" width="437.2064" x="1885.5" y="101"/><ellipse cx="2039.4364" cy="117" fill="#B4A7E5" rx="11" ry="11" style="stroke:#181818;stroke-width:1.0;"/><path d="M2035.3583,112.7656 L2035.3583,110.6094 L2042.7489,110.6094 L2042.7489,112.7656 L2040.2802,112.7656 L2040.2802,120.8438 L2042.7489,120.8438 L2042.7489,123 L2035.3583,123 L2035.3583,120.8438 L2037.8271,120.8438 L2037.8271,112.7656 L2035.3583,112.7656 Z " fill="#000000"/><text fill="#000000" font-family="sans-serif" font-size="14" font-style="italic" lengthAdjust="spacing" textLength="120.8335" x="2059.9364" y="122.432">ChartDataManager</text><line style="stroke:#181818;stroke-width:0.5;" x1="1886.5" x2="2321.7064" y1="133" y2="133"/><line style="stroke:#181818;stroke-width:0.5;" x1="1886.5" x2="2321.7064" y1="141" y2="141"/><ellipse cx="1896.5" cy="156.034" fill="#84BE84" rx="3" ry="3" style="stroke:#038048;stroke-width:1.0;"/><text fill="#000000" font-family="sans-serif" font-size="14" font-style="italic" lengthAdjust="spacing" textLength="411.2064" x="1905.5" y="159.9659">createChartPanel(AbstractOrderedLayout, DataSeries, String): void</text></g></a><!--class OrgDocumentChartDataManager--><a href="OrgDocumentChartDataManager.html" target="_top" title="OrgDocumentChartDataManager.html" xlink:actuate="onRequest" xlink:href="OrgDocumentChartDataManager.html" xlink:show="new" xlink:title="OrgDocumentChartDataManager.html" xlink:type="simple"><g id="elem_OrgDocumentChartDataManager"><rect codeLine="35" fill="#F1F1F1" height="67.0679" id="OrgDocumentChartDataManager" rx="2.5" ry="2.5" style="stroke:#181818;stroke-width:0.5;" width="475.4121" x="2340.5" y="101"/><ellipse cx="2469.8244" cy="117" fill="#B4A7E5" rx="11" ry="11" style="stroke:#181818;stroke-width:1.0;"/><path d="M2465.7463,112.7656 L2465.7463,110.6094 L2473.1369,110.6094 L2473.1369,112.7656 L2470.6682,112.7656 L2470.6682,120.8438 L2473.1369,120.8438 L2473.1369,123 L2465.7463,123 L2465.7463,120.8438 L2468.2151,120.8438 L2468.2151,112.7656 L2465.7463,112.7656 Z " fill="#000000"/><text fill="#000000" font-family="sans-serif" font-size="14" font-style="italic" lengthAdjust="spacing" textLength="208.2632" x="2490.3244" y="122.432">OrgDocumentChartDataManager</text><line style="stroke:#181818;stroke-width:0.5;" x1="2341.5" x2="2814.9121" y1="133" y2="133"/><line style="stroke:#181818;stroke-width:0.5;" x1="2341.5" x2="2814.9121" y1="141" y2="141"/><ellipse cx="2351.5" cy="156.034" fill="#84BE84" rx="3" ry="3" style="stroke:#038048;stroke-width:1.0;"/><text fill="#000000" font-family="sans-serif" font-size="14" font-style="italic" lengthAdjust="spacing" textLength="449.4121" x="2360.5" y="159.9659">createDocumentHistoryChartByOrg(AbstractOrderedLayout, String): void</text></g></a><!--class CommitteeGhantChartManager--><a href="CommitteeGhantChartManager.html" target="_top" title="CommitteeGhantChartManager.html" xlink:actuate="onRequest" xlink:href="CommitteeGhantChartManager.html" xlink:show="new" xlink:title="CommitteeGhantChartManager.html" xlink:type="simple"><g id="elem_CommitteeGhantChartManager"><rect codeLine="39" fill="#F1F1F1" height="67.0679" id="CommitteeGhantChartManager" rx="2.5" ry="2.5" style="stroke:#181818;stroke-width:0.5;" width="637.3073" x="104.5" y="271"/><ellipse cx="320.54" cy="287" fill="#B4A7E5" rx="11" ry="11" style="stroke:#181818;stroke-width:1.0;"/><path d="M316.4619,282.7656 L316.4619,280.6094 L323.8525,280.6094 L323.8525,282.7656 L321.3838,282.7656 L321.3838,290.8438 L323.8525,290.8438 L323.8525,293 L316.4619,293 L316.4619,290.8438 L318.9307,290.8438 L318.9307,282.7656 L316.4619,282.7656 Z " fill="#000000"/><text fill="#000000" font-family="sans-serif" font-size="14" font-style="italic" lengthAdjust="spacing" textLength="196.7272" x="341.04" y="292.432">CommitteeGhantChartManager</text><line style="stroke:#181818;stroke-width:0.5;" x1="105.5" x2="740.8073" y1="303" y2="303"/><line style="stroke:#181818;stroke-width:0.5;" x1="105.5" x2="740.8073" y1="311" y2="311"/><ellipse cx="115.5" cy="326.034" fill="#84BE84" rx="3" ry="3" style="stroke:#038048;stroke-width:1.0;"/><text fill="#000000" font-family="sans-serif" font-size="14" font-style="italic" lengthAdjust="spacing" textLength="611.3073" x="124.5" y="329.9659">createRoleGhant(AbstractOrderedLayout, Collection&lt;ViewRiksdagenCommitteeRoleMember&gt;): void</text></g></a><!--class GovernmentOutcomeChartDataManager--><a href="GovernmentOutcomeChartDataManager.html" target="_top" title="GovernmentOutcomeChartDataManager.html" xlink:actuate="onRequest" xlink:href="GovernmentOutcomeChartDataManager.html" xlink:show="new" xlink:title="GovernmentOutcomeChartDataManager.html" xlink:type="simple"><g id="elem_GovernmentOutcomeChartDataManager"><rect codeLine="43" fill="#F1F1F1" height="67.0679" id="GovernmentOutcomeChartDataManager" rx="2.5" ry="2.5" style="stroke:#181818;stroke-width:0.5;" width="417.7604" x="760" y="271"/><ellipse cx="837.7767" cy="287" fill="#B4A7E5" rx="11" ry="11" style="stroke:#181818;stroke-width:1.0;"/><path d="M833.6985,282.7656 L833.6985,280.6094 L841.0892,280.6094 L841.0892,282.7656 L838.6204,282.7656 L838.6204,290.8438 L841.0892,290.8438 L841.0892,293 L833.6985,293 L833.6985,290.8438 L836.1673,290.8438 L836.1673,282.7656 L833.6985,282.7656 Z " fill="#000000"/><text fill="#000000" font-family="sans-serif" font-size="14" font-style="italic" lengthAdjust="spacing" textLength="253.707" x="858.2767" y="292.432">GovernmentOutcomeChartDataManager</text><line style="stroke:#181818;stroke-width:0.5;" x1="761" x2="1176.7604" y1="303" y2="303"/><line style="stroke:#181818;stroke-width:0.5;" x1="761" x2="1176.7604" y1="311" y2="311"/><ellipse cx="771" cy="326.034" fill="#84BE84" rx="3" ry="3" style="stroke:#038048;stroke-width:1.0;"/><text fill="#000000" font-family="sans-serif" font-size="14" font-style="italic" lengthAdjust="spacing" textLength="391.7604" x="780" y="329.9659">createGovernmentOutcomeChart(AbstractOrderedLayout): void</text></g></a><!--class PersonDocumentChartDataManager--><a href="PersonDocumentChartDataManager.html" target="_top" title="PersonDocumentChartDataManager.html" xlink:actuate="onRequest" xlink:href="PersonDocumentChartDataManager.html" xlink:show="new" xlink:title="PersonDocumentChartDataManager.html" xlink:type="simple"><g id="elem_PersonDocumentChartDataManager"><rect codeLine="47" fill="#F1F1F1" height="67.0679" id="PersonDocumentChartDataManager" rx="2.5" ry="2.5" style="stroke:#181818;stroke-width:0.5;" width="479.2341" x="1196.5" y="271"/><ellipse cx="1318.3555" cy="287" fill="#B4A7E5" rx="11" ry="11" style="stroke:#181818;stroke-width:1.0;"/><path d="M1314.2774,282.7656 L1314.2774,280.6094 L1321.668,280.6094 L1321.668,282.7656 L1319.1992,282.7656 L1319.1992,290.8438 L1321.668,290.8438 L1321.668,293 L1314.2774,293 L1314.2774,290.8438 L1316.7461,290.8438 L1316.7461,282.7656 L1314.2774,282.7656 Z " fill="#000000"/><text fill="#000000" font-family="sans-serif" font-size="14" font-style="italic" lengthAdjust="spacing" textLength="227.0231" x="1338.8555" y="292.432">PersonDocumentChartDataManager</text><line style="stroke:#181818;stroke-width:0.5;" x1="1197.5" x2="1674.7341" y1="303" y2="303"/><line style="stroke:#181818;stroke-width:0.5;" x1="1197.5" x2="1674.7341" y1="311" y2="311"/><ellipse cx="1207.5" cy="326.034" fill="#84BE84" rx="3" ry="3" style="stroke:#038048;stroke-width:1.0;"/><text fill="#000000" font-family="sans-serif" font-size="14" font-style="italic" lengthAdjust="spacing" textLength="453.2341" x="1216.5" y="329.9659">createPersonDocumentHistoryChart(AbstractOrderedLayout, String): void</text></g></a><!--class DocumentChartDataManager--><a href="DocumentChartDataManager.html" target="_top" title="DocumentChartDataManager.html" xlink:actuate="onRequest" xlink:href="DocumentChartDataManager.html" xlink:show="new" xlink:title="DocumentChartDataManager.html" xlink:type="simple"><g id="elem_DocumentChartDataManager"><rect codeLine="51" fill="#F1F1F1" height="67.0679" id="DocumentChartDataManager" rx="2.5" ry="2.5" style="stroke:#181818;stroke-width:0.5;" width="377.1886" x="1693.5" y="271"/><ellipse cx="1785.5986" cy="287" fill="#B4A7E5" rx="11" ry="11" style="stroke:#181818;stroke-width:1.0;"/><path d="M1781.5205,282.7656 L1781.5205,280.6094 L1788.9111,280.6094 L1788.9111,282.7656 L1786.4424,282.7656 L1786.4424,290.8438 L1788.9111,290.8438 L1788.9111,293 L1781.5205,293 L1781.5205,290.8438 L1783.9893,290.8438 L1783.9893,282.7656 L1781.5205,282.7656 Z " fill="#000000"/><text fill="#000000" font-family="sans-serif" font-size="14" font-style="italic" lengthAdjust="spacing" textLength="184.4913" x="1806.0986" y="292.432">DocumentChartDataManager</text><line style="stroke:#181818;stroke-width:0.5;" x1="1694.5" x2="2069.6886" y1="303" y2="303"/><line style="stroke:#181818;stroke-width:0.5;" x1="1694.5" x2="2069.6886" y1="311" y2="311"/><ellipse cx="1704.5" cy="326.034" fill="#84BE84" rx="3" ry="3" style="stroke:#038048;stroke-width:1.0;"/><text fill="#000000" font-family="sans-serif" font-size="14" font-style="italic" lengthAdjust="spacing" textLength="351.1886" x="1713.5" y="329.9659">createDocumentTypeChart(AbstractOrderedLayout): void</text></g></a><!--class PartyGhantChartManager--><a href="PartyGhantChartManager.html" target="_top" title="PartyGhantChartManager.html" xlink:actuate="onRequest" xlink:href="PartyGhantChartManager.html" xlink:show="new" xlink:title="PartyGhantChartManager.html" xlink:type="simple"><g id="elem_PartyGhantChartManager"><rect codeLine="55" fill="#F1F1F1" height="67.0679" id="PartyGhantChartManager" rx="2.5" ry="2.5" style="stroke:#181818;stroke-width:0.5;" width="602.4756" x="2089" y="271"/><ellipse cx="2305.0401" cy="287" fill="#B4A7E5" rx="11" ry="11" style="stroke:#181818;stroke-width:1.0;"/><path d="M2300.962,282.7656 L2300.962,280.6094 L2308.3526,280.6094 L2308.3526,282.7656 L2305.8839,282.7656 L2305.8839,290.8438 L2308.3526,290.8438 L2308.3526,293 L2300.962,293 L2300.962,290.8438 L2303.4308,290.8438 L2303.4308,282.7656 L2300.962,282.7656 Z " fill="#000000"/><text fill="#000000" font-family="sans-serif" font-size="14" font-style="italic" lengthAdjust="spacing" textLength="161.8954" x="2325.5401" y="292.432">PartyGhantChartManager</text><line style="stroke:#181818;stroke-width:0.5;" x1="2090" x2="2690.4756" y1="303" y2="303"/><line style="stroke:#181818;stroke-width:0.5;" x1="2090" x2="2690.4756" y1="311" y2="311"/><ellipse cx="2100" cy="326.034" fill="#84BE84" rx="3" ry="3" style="stroke:#038048;stroke-width:1.0;"/><text fill="#000000" font-family="sans-serif" font-size="14" font-style="italic" lengthAdjust="spacing" textLength="576.4756" x="2109" y="329.9659">createRoleGhant(AbstractOrderedLayout, Collection&lt;ViewRiksdagenPartyRoleMember&gt;): void</text></g></a><!--class DecisionFlowChartManager--><a href="DecisionFlowChartManager.html" target="_top" title="DecisionFlowChartManager.html" xlink:actuate="onRequest" xlink:href="DecisionFlowChartManager.html" xlink:show="new" xlink:title="DecisionFlowChartManager.html" xlink:type="simple"><g id="elem_DecisionFlowChartManager"><rect codeLine="59" fill="#F1F1F1" height="124.2717" id="DecisionFlowChartManager" rx="2.5" ry="2.5" style="stroke:#181818;stroke-width:0.5;" width="801.9606" x="22" y="374"/><ellipse cx="333.1486" cy="390" fill="#B4A7E5" rx="11" ry="11" style="stroke:#181818;stroke-width:1.0;"/><path d="M329.0705,385.7656 L329.0705,383.6094 L336.4611,383.6094 L336.4611,385.7656 L333.9924,385.7656 L333.9924,393.8438 L336.4611,393.8438 L336.4611,396 L329.0705,396 L329.0705,393.8438 L331.5392,393.8438 L331.5392,385.7656 L329.0705,385.7656 Z " fill="#000000"/><text fill="#000000" font-family="sans-serif" font-size="14" font-style="italic" lengthAdjust="spacing" textLength="171.1634" x="353.6486" y="395.432">DecisionFlowChartManager</text><line style="stroke:#181818;stroke-width:0.5;" x1="23" x2="822.9606" y1="406" y2="406"/><line style="stroke:#181818;stroke-width:0.5;" x1="23" x2="822.9606" y1="414" y2="414"/><ellipse cx="33" cy="429.034" fill="#84BE84" rx="3" ry="3" style="stroke:#038048;stroke-width:1.0;"/><text fill="#000000" font-family="sans-serif" font-size="14" font-style="italic" lengthAdjust="spacing" textLength="556.5537" x="42" y="432.9659">createAllDecisionFlow(Map&lt;String, List&lt;ViewRiksdagenCommittee&gt;&gt;, String): SankeyChart</text><ellipse cx="33" cy="448.1019" fill="#84BE84" rx="3" ry="3" style="stroke:#038048;stroke-width:1.0;"/><text fill="#000000" font-family="sans-serif" font-size="14" font-style="italic" lengthAdjust="spacing" textLength="775.9606" x="42" y="452.0339">createCommitteeDecisionFlow(ViewRiksdagenCommittee, Map&lt;String, List&lt;ViewRiksdagenCommittee&gt;&gt;, String): SankeyChart</text><ellipse cx="33" cy="467.1698" fill="#84BE84" rx="3" ry="3" style="stroke:#038048;stroke-width:1.0;"/><text fill="#000000" font-family="sans-serif" font-size="14" font-style="italic" lengthAdjust="spacing" textLength="623.0814" x="42" y="471.1018">createCommitteeeDecisionSummary(Map&lt;String, List&lt;ViewRiksdagenCommittee&gt;&gt;, String): TextArea</text><ellipse cx="33" cy="486.2377" fill="#84BE84" rx="3" ry="3" style="stroke:#038048;stroke-width:1.0;"/><text fill="#000000" font-family="sans-serif" font-size="14" font-style="italic" lengthAdjust="spacing" textLength="497.88" x="42" y="490.1697">createCommitteeeDecisionSummary(ViewRiksdagenCommittee, String): TextArea</text></g></a><!--class PartyDocumentChartDataManager--><a href="PartyDocumentChartDataManager.html" target="_top" title="PartyDocumentChartDataManager.html" xlink:actuate="onRequest" xlink:href="PartyDocumentChartDataManager.html" xlink:show="new" xlink:title="PartyDocumentChartDataManager.html" xlink:type="simple"><g id="elem_PartyDocumentChartDataManager"><rect codeLine="66" fill="#F1F1F1" height="67.0679" id="PartyDocumentChartDataManager" rx="2.5" ry="2.5" style="stroke:#181818;stroke-width:0.5;" width="469.3502" x="842.5" y="402.5"/><ellipse cx="964.3555" cy="418.5" fill="#B4A7E5" rx="11" ry="11" style="stroke:#181818;stroke-width:1.0;"/><path d="M960.2774,414.2656 L960.2774,412.1094 L967.668,412.1094 L967.668,414.2656 L965.1992,414.2656 L965.1992,422.3438 L967.668,422.3438 L967.668,424.5 L960.2774,424.5 L960.2774,422.3438 L962.7461,422.3438 L962.7461,414.2656 L960.2774,414.2656 Z " fill="#000000"/><text fill="#000000" font-family="sans-serif" font-size="14" font-style="italic" lengthAdjust="spacing" textLength="217.1392" x="984.8555" y="423.932">PartyDocumentChartDataManager</text><line style="stroke:#181818;stroke-width:0.5;" x1="843.5" x2="1310.8502" y1="434.5" y2="434.5"/><line style="stroke:#181818;stroke-width:0.5;" x1="843.5" x2="1310.8502" y1="442.5" y2="442.5"/><ellipse cx="853.5" cy="457.534" fill="#84BE84" rx="3" ry="3" style="stroke:#038048;stroke-width:1.0;"/><text fill="#000000" font-family="sans-serif" font-size="14" font-style="italic" lengthAdjust="spacing" textLength="443.3502" x="862.5" y="461.4659">createDocumentHistoryPartyChart(AbstractOrderedLayout, String): void</text></g></a><!--class AdminChartDataManager--><a href="AdminChartDataManager.html" target="_top" title="AdminChartDataManager.html" xlink:actuate="onRequest" xlink:href="AdminChartDataManager.html" xlink:show="new" xlink:title="AdminChartDataManager.html" xlink:type="simple"><g id="elem_AdminChartDataManager"><rect codeLine="70" fill="#F1F1F1" height="124.2717" id="AdminChartDataManager" rx="2.5" ry="2.5" style="stroke:#181818;stroke-width:0.5;" width="686.8951" x="1329.5" y="374"/><ellipse cx="1588.3099" cy="390" fill="#B4A7E5" rx="11" ry="11" style="stroke:#181818;stroke-width:1.0;"/><path d="M1584.2317,385.7656 L1584.2317,383.6094 L1591.6224,383.6094 L1591.6224,385.7656 L1589.1536,385.7656 L1589.1536,393.8438 L1591.6224,393.8438 L1591.6224,396 L1584.2317,396 L1584.2317,393.8438 L1586.7005,393.8438 L1586.7005,385.7656 L1584.2317,385.7656 Z " fill="#000000"/><text fill="#000000" font-family="sans-serif" font-size="14" font-style="italic" lengthAdjust="spacing" textLength="160.7754" x="1608.8099" y="395.432">AdminChartDataManager</text><line style="stroke:#181818;stroke-width:0.5;" x1="1330.5" x2="2015.3951" y1="406" y2="406"/><line style="stroke:#181818;stroke-width:0.5;" x1="1330.5" x2="2015.3951" y1="414" y2="414"/><ellipse cx="1340.5" cy="429.034" fill="#84BE84" rx="3" ry="3" style="stroke:#038048;stroke-width:1.0;"/><text fill="#000000" font-family="sans-serif" font-size="14" font-style="italic" lengthAdjust="spacing" textLength="522.4357" x="1349.5" y="432.9659">createApplicationActionEventPageDailySummaryChart(AbstractOrderedLayout): void</text><ellipse cx="1340.5" cy="448.1019" fill="#84BE84" rx="3" ry="3" style="stroke:#038048;stroke-width:1.0;"/><text fill="#000000" font-family="sans-serif" font-size="14" font-style="italic" lengthAdjust="spacing" textLength="660.8951" x="1349.5" y="452.0339">createApplicationActionEventPageElementDailySummaryChart(AbstractOrderedLayout, String, String): void</text><ellipse cx="1340.5" cy="467.1698" fill="#84BE84" rx="3" ry="3" style="stroke:#038048;stroke-width:1.0;"/><text fill="#000000" font-family="sans-serif" font-size="14" font-style="italic" lengthAdjust="spacing" textLength="601.5214" x="1349.5" y="471.1018">createApplicationActionEventPageModeDailySummaryChart(AbstractOrderedLayout, String): void</text><ellipse cx="1340.5" cy="486.2377" fill="#84BE84" rx="3" ry="3" style="stroke:#038048;stroke-width:1.0;"/><text fill="#000000" font-family="sans-serif" font-size="14" font-style="italic" lengthAdjust="spacing" textLength="440.1021" x="1349.5" y="490.1697">createApplicationSessionPageDailySummaryChart(VerticalLayout): void</text></g></a><!--class BallotChartDataManager--><a href="BallotChartDataManager.html" target="_top" title="BallotChartDataManager.html" xlink:actuate="onRequest" xlink:href="BallotChartDataManager.html" xlink:show="new" xlink:title="BallotChartDataManager.html" xlink:type="simple"><g id="elem_BallotChartDataManager"><rect codeLine="77" fill="#F1F1F1" height="86.1358" id="BallotChartDataManager" rx="2.5" ry="2.5" style="stroke:#181818;stroke-width:0.5;" width="637.3633" x="2034.5" y="393"/><ellipse cx="2270.462" cy="409" fill="#B4A7E5" rx="11" ry="11" style="stroke:#181818;stroke-width:1.0;"/><path d="M2266.3839,404.7656 L2266.3839,402.6094 L2273.7745,402.6094 L2273.7745,404.7656 L2271.3057,404.7656 L2271.3057,412.8438 L2273.7745,412.8438 L2273.7745,415 L2266.3839,415 L2266.3839,412.8438 L2268.8526,412.8438 L2268.8526,404.7656 L2266.3839,404.7656 Z " fill="#000000"/><text fill="#000000" font-family="sans-serif" font-size="14" font-style="italic" lengthAdjust="spacing" textLength="156.9394" x="2290.962" y="414.432">BallotChartDataManager</text><line style="stroke:#181818;stroke-width:0.5;" x1="2035.5" x2="2670.8633" y1="425" y2="425"/><line style="stroke:#181818;stroke-width:0.5;" x1="2035.5" x2="2670.8633" y1="433" y2="433"/><ellipse cx="2045.5" cy="448.034" fill="#84BE84" rx="3" ry="3" style="stroke:#038048;stroke-width:1.0;"/><text fill="#000000" font-family="sans-serif" font-size="14" font-style="italic" lengthAdjust="spacing" textLength="611.3633" x="2054.5" y="451.9659">createChart(Tab, AbstractOrderedLayout, List&lt;ViewRiksdagenVoteDataBallotPartySummary&gt;): void</text><ellipse cx="2045.5" cy="467.1019" fill="#84BE84" rx="3" ry="3" style="stroke:#038048;stroke-width:1.0;"/><text fill="#000000" font-family="sans-serif" font-size="14" font-style="italic" lengthAdjust="spacing" textLength="541.6998" x="2054.5" y="471.0339">createChart(Tab, AbstractOrderedLayout, ViewRiksdagenVoteDataBallotSummary): void</text></g></a><!--class MinistryGhantChartManager--><a href="MinistryGhantChartManager.html" target="_top" title="MinistryGhantChartManager.html" xlink:actuate="onRequest" xlink:href="MinistryGhantChartManager.html" xlink:show="new" xlink:title="MinistryGhantChartManager.html" xlink:type="simple"><g id="elem_MinistryGhantChartManager"><rect codeLine="82" fill="#F1F1F1" height="67.0679" id="MinistryGhantChartManager" rx="2.5" ry="2.5" style="stroke:#181818;stroke-width:0.5;" width="638.2873" x="2690" y="402.5"/><ellipse cx="2915.315" cy="418.5" fill="#B4A7E5" rx="11" ry="11" style="stroke:#181818;stroke-width:1.0;"/><path d="M2911.2369,414.2656 L2911.2369,412.1094 L2918.6275,412.1094 L2918.6275,414.2656 L2916.1587,414.2656 L2916.1587,422.3438 L2918.6275,422.3438 L2918.6275,424.5 L2911.2369,424.5 L2911.2369,422.3438 L2913.7056,422.3438 L2913.7056,414.2656 L2911.2369,414.2656 Z " fill="#000000"/><text fill="#000000" font-family="sans-serif" font-size="14" font-style="italic" lengthAdjust="spacing" textLength="179.1573" x="2935.815" y="423.932">MinistryGhantChartManager</text><line style="stroke:#181818;stroke-width:0.5;" x1="2691" x2="3327.2873" y1="434.5" y2="434.5"/><line style="stroke:#181818;stroke-width:0.5;" x1="2691" x2="3327.2873" y1="442.5" y2="442.5"/><ellipse cx="2701" cy="457.534" fill="#84BE84" rx="3" ry="3" style="stroke:#038048;stroke-width:1.0;"/><text fill="#000000" font-family="sans-serif" font-size="14" font-style="italic" lengthAdjust="spacing" textLength="612.2873" x="2710" y="461.4659">createRoleGhant(AbstractOrderedLayout, Collection&lt;ViewRiksdagenGovermentRoleMember&gt;): void</text></g></a><!--class DecisionChartDataManager--><a href="DecisionChartDataManager.html" target="_top" title="DecisionChartDataManager.html" xlink:actuate="onRequest" xlink:href="DecisionChartDataManager.html" xlink:show="new" xlink:title="DecisionChartDataManager.html" xlink:type="simple"><g id="elem_DecisionChartDataManager"><rect codeLine="86" fill="#F1F1F1" height="86.1358" id="DecisionChartDataManager" rx="2.5" ry="2.5" style="stroke:#181818;stroke-width:0.5;" width="409.7945" x="218" y="629.5"/><ellipse cx="332.2676" cy="645.5" fill="#B4A7E5" rx="11" ry="11" style="stroke:#181818;stroke-width:1.0;"/><path d="M328.1895,641.2656 L328.1895,639.1094 L335.5801,639.1094 L335.5801,641.2656 L333.1113,641.2656 L333.1113,649.3438 L335.5801,649.3438 L335.5801,651.5 L328.1895,651.5 L328.1895,649.3438 L330.6582,649.3438 L330.6582,641.2656 L328.1895,641.2656 Z " fill="#000000"/><text fill="#000000" font-family="sans-serif" font-size="14" font-style="italic" lengthAdjust="spacing" textLength="172.7593" x="352.7676" y="650.932">DecisionChartDataManager</text><line style="stroke:#181818;stroke-width:0.5;" x1="219" x2="626.7945" y1="661.5" y2="661.5"/><line style="stroke:#181818;stroke-width:0.5;" x1="219" x2="626.7945" y1="669.5" y2="669.5"/><ellipse cx="229" cy="684.534" fill="#84BE84" rx="3" ry="3" style="stroke:#038048;stroke-width:1.0;"/><text fill="#000000" font-family="sans-serif" font-size="14" font-style="italic" lengthAdjust="spacing" textLength="339.4567" x="238" y="688.4659">createDecisionTypeChart(AbstractOrderedLayout): void</text><ellipse cx="229" cy="703.6019" fill="#84BE84" rx="3" ry="3" style="stroke:#038048;stroke-width:1.0;"/><text fill="#000000" font-family="sans-serif" font-size="14" font-style="italic" lengthAdjust="spacing" textLength="383.7945" x="238" y="707.5339">createDecisionTypeChart(AbstractOrderedLayout, String): void</text></g></a><!--class GovernmentBodyChartDataManager--><a href="GovernmentBodyChartDataManager.html" target="_top" title="GovernmentBodyChartDataManager.html" xlink:actuate="onRequest" xlink:href="GovernmentBodyChartDataManager.html" xlink:show="new" xlink:title="GovernmentBodyChartDataManager.html" xlink:type="simple"><g id="elem_GovernmentBodyChartDataManager"><rect codeLine="91" fill="#F1F1F1" height="276.815" id="GovernmentBodyChartDataManager" rx="2.5" ry="2.5" style="stroke:#181818;stroke-width:0.5;" width="614.0114" x="646" y="534"/><ellipse cx="834.5931" cy="550" fill="#B4A7E5" rx="11" ry="11" style="stroke:#181818;stroke-width:1.0;"/><path d="M830.515,545.7656 L830.515,543.6094 L837.9056,543.6094 L837.9056,545.7656 L835.4369,545.7656 L835.4369,553.8438 L837.9056,553.8438 L837.9056,556 L830.515,556 L830.515,553.8438 L832.9838,553.8438 L832.9838,545.7656 L830.515,545.7656 Z " fill="#000000"/><text fill="#000000" font-family="sans-serif" font-size="14" font-style="italic" lengthAdjust="spacing" textLength="228.3251" x="855.0931" y="555.432">GovernmentBodyChartDataManager</text><line style="stroke:#181818;stroke-width:0.5;" x1="647" x2="1259.0114" y1="566" y2="566"/><line style="stroke:#181818;stroke-width:0.5;" x1="647" x2="1259.0114" y1="574" y2="574"/><ellipse cx="657" cy="589.034" fill="#84BE84" rx="3" ry="3" style="stroke:#038048;stroke-width:1.0;"/><text fill="#000000" font-family="sans-serif" font-size="14" font-style="italic" lengthAdjust="spacing" textLength="444.1481" x="666" y="592.9659">createGovernmentBodyExpenditureSummaryChart(VerticalLayout): void</text><ellipse cx="657" cy="608.1019" fill="#84BE84" rx="3" ry="3" style="stroke:#038048;stroke-width:1.0;"/><text fill="#000000" font-family="sans-serif" font-size="14" font-style="italic" lengthAdjust="spacing" textLength="488.486" x="666" y="612.0339">createGovernmentBodyExpenditureSummaryChart(VerticalLayout, String): void</text><ellipse cx="657" cy="627.1698" fill="#84BE84" rx="3" ry="3" style="stroke:#038048;stroke-width:1.0;"/><text fill="#000000" font-family="sans-serif" font-size="14" font-style="italic" lengthAdjust="spacing" textLength="437.6102" x="666" y="631.1018">createGovernmentBodyHeadcountSummaryChart(VerticalLayout): void</text><ellipse cx="657" cy="646.2377" fill="#84BE84" rx="3" ry="3" style="stroke:#038048;stroke-width:1.0;"/><text fill="#000000" font-family="sans-serif" font-size="14" font-style="italic" lengthAdjust="spacing" textLength="481.948" x="666" y="650.1697">createGovernmentBodyHeadcountSummaryChart(VerticalLayout, String): void</text><ellipse cx="657" cy="665.3056" fill="#84BE84" rx="3" ry="3" style="stroke:#038048;stroke-width:1.0;"/><text fill="#000000" font-family="sans-serif" font-size="14" font-style="italic" lengthAdjust="spacing" textLength="416.0643" x="666" y="669.2376">createGovernmentBodyIncomeSummaryChart(VerticalLayout): void</text><ellipse cx="657" cy="684.3735" fill="#84BE84" rx="3" ry="3" style="stroke:#038048;stroke-width:1.0;"/><text fill="#000000" font-family="sans-serif" font-size="14" font-style="italic" lengthAdjust="spacing" textLength="460.4021" x="666" y="688.3055">createGovernmentBodyIncomeSummaryChart(VerticalLayout, String): void</text><ellipse cx="657" cy="703.4415" fill="#84BE84" rx="3" ry="3" style="stroke:#038048;stroke-width:1.0;"/><text fill="#000000" font-family="sans-serif" font-size="14" font-style="italic" lengthAdjust="spacing" textLength="550.2116" x="666" y="707.3734">createMinistryGovernmentBodyExpenditureSummaryChart(AbstractOrderedLayout): void</text><ellipse cx="657" cy="722.5094" fill="#84BE84" rx="3" ry="3" style="stroke:#038048;stroke-width:1.0;"/><text fill="#000000" font-family="sans-serif" font-size="14" font-style="italic" lengthAdjust="spacing" textLength="538.3957" x="666" y="726.4414">createMinistryGovernmentBodyExpenditureSummaryChart(VerticalLayout, String): void</text><ellipse cx="657" cy="741.5773" fill="#84BE84" rx="3" ry="3" style="stroke:#038048;stroke-width:1.0;"/><text fill="#000000" font-family="sans-serif" font-size="14" font-style="italic" lengthAdjust="spacing" textLength="543.6736" x="666" y="745.5093">createMinistryGovernmentBodyHeadcountSummaryChart(AbstractOrderedLayout): void</text><ellipse cx="657" cy="760.6452" fill="#84BE84" rx="3" ry="3" style="stroke:#038048;stroke-width:1.0;"/><text fill="#000000" font-family="sans-serif" font-size="14" font-style="italic" lengthAdjust="spacing" textLength="588.0114" x="666" y="764.5772">createMinistryGovernmentBodyHeadcountSummaryChart(AbstractOrderedLayout, String): void</text><ellipse cx="657" cy="779.7131" fill="#84BE84" rx="3" ry="3" style="stroke:#038048;stroke-width:1.0;"/><text fill="#000000" font-family="sans-serif" font-size="14" font-style="italic" lengthAdjust="spacing" textLength="522.1277" x="666" y="783.6451">createMinistryGovernmentBodyIncomeSummaryChart(AbstractOrderedLayout): void</text><ellipse cx="657" cy="798.781" fill="#84BE84" rx="3" ry="3" style="stroke:#038048;stroke-width:1.0;"/><text fill="#000000" font-family="sans-serif" font-size="14" font-style="italic" lengthAdjust="spacing" textLength="510.3118" x="666" y="802.713">createMinistryGovernmentBodyIncomeSummaryChart(VerticalLayout, String): void</text></g></a><!--class PartyCoalationChartDataManager--><a href="PartyCoalationChartDataManager.html" target="_top" title="PartyCoalationChartDataManager.html" xlink:actuate="onRequest" xlink:href="PartyCoalationChartDataManager.html" xlink:show="new" xlink:title="PartyCoalationChartDataManager.html" xlink:type="simple"><g id="elem_PartyCoalationChartDataManager"><rect codeLine="106" fill="#F1F1F1" height="67.0679" id="PartyCoalationChartDataManager" rx="2.5" ry="2.5" style="stroke:#181818;stroke-width:0.5;" width="361.8727" x="1278" y="639"/><ellipse cx="1348.0138" cy="655" fill="#B4A7E5" rx="11" ry="11" style="stroke:#181818;stroke-width:1.0;"/><path d="M1343.9357,650.7656 L1343.9357,648.6094 L1351.3263,648.6094 L1351.3263,650.7656 L1348.8575,650.7656 L1348.8575,658.8438 L1351.3263,658.8438 L1351.3263,661 L1343.9357,661 L1343.9357,658.8438 L1346.4044,658.8438 L1346.4044,650.7656 L1343.9357,650.7656 Z " fill="#000000"/><text fill="#000000" font-family="sans-serif" font-size="14" font-style="italic" lengthAdjust="spacing" textLength="213.3452" x="1368.5138" y="660.432">PartyCoalationChartDataManager</text><line style="stroke:#181818;stroke-width:0.5;" x1="1279" x2="1638.8727" y1="671" y2="671"/><line style="stroke:#181818;stroke-width:0.5;" x1="1279" x2="1638.8727" y1="679" y2="679"/><ellipse cx="1289" cy="694.034" fill="#84BE84" rx="3" ry="3" style="stroke:#038048;stroke-width:1.0;"/><text fill="#000000" font-family="sans-serif" font-size="14" font-style="italic" lengthAdjust="spacing" textLength="335.8727" x="1298" y="697.9659">createPartyChart(AbstractOrderedLayout, String): void</text></g></a><!--class PoliticianChartDataManager--><a href="PoliticianChartDataManager.html" target="_top" title="PoliticianChartDataManager.html" xlink:actuate="onRequest" xlink:href="PoliticianChartDataManager.html" xlink:show="new" xlink:title="PoliticianChartDataManager.html" xlink:type="simple"><g id="elem_PoliticianChartDataManager"><rect codeLine="110" fill="#F1F1F1" height="67.0679" id="PoliticianChartDataManager" rx="2.5" ry="2.5" style="stroke:#181818;stroke-width:0.5;" width="397.1525" x="1658.5" y="639"/><ellipse cx="1763.7516" cy="655" fill="#B4A7E5" rx="11" ry="11" style="stroke:#181818;stroke-width:1.0;"/><path d="M1759.6735,650.7656 L1759.6735,648.6094 L1767.0641,648.6094 L1767.0641,650.7656 L1764.5954,650.7656 L1764.5954,658.8438 L1767.0641,658.8438 L1767.0641,661 L1759.6735,661 L1759.6735,658.8438 L1762.1422,658.8438 L1762.1422,650.7656 L1759.6735,650.7656 Z " fill="#000000"/><text fill="#000000" font-family="sans-serif" font-size="14" font-style="italic" lengthAdjust="spacing" textLength="178.1493" x="1784.2516" y="660.432">PoliticianChartDataManager</text><line style="stroke:#181818;stroke-width:0.5;" x1="1659.5" x2="2054.6525" y1="671" y2="671"/><line style="stroke:#181818;stroke-width:0.5;" x1="1659.5" x2="2054.6525" y1="679" y2="679"/><ellipse cx="1669.5" cy="694.034" fill="#84BE84" rx="3" ry="3" style="stroke:#038048;stroke-width:1.0;"/><text fill="#000000" font-family="sans-serif" font-size="14" font-style="italic" lengthAdjust="spacing" textLength="371.1525" x="1678.5" y="697.9659">createPersonLineChart(AbstractOrderedLayout, String): void</text></g></a><!--class GenericChartDataManager--><a href="GenericChartDataManager.html" target="_top" title="GenericChartDataManager.html" xlink:actuate="onRequest" xlink:href="GenericChartDataManager.html" xlink:show="new" xlink:title="GenericChartDataManager.html" xlink:type="simple"><g id="elem_GenericChartDataManager"><rect codeLine="114" fill="#F1F1F1" height="67.0679" id="GenericChartDataManager" rx="2.5" ry="2.5" style="stroke:#181818;stroke-width:0.5;" width="209.9414" x="2074" y="639"/><ellipse cx="2089" cy="655" fill="#B4A7E5" rx="11" ry="11" style="stroke:#181818;stroke-width:1.0;"/><path d="M2084.9219,650.7656 L2084.9219,648.6094 L2092.3125,648.6094 L2092.3125,650.7656 L2089.8438,650.7656 L2089.8438,658.8438 L2092.3125,658.8438 L2092.3125,661 L2084.9219,661 L2084.9219,658.8438 L2087.3906,658.8438 L2087.3906,650.7656 L2084.9219,650.7656 Z " fill="#000000"/><text fill="#000000" font-family="sans-serif" font-size="14" font-style="italic" lengthAdjust="spacing" textLength="167.9294" x="2103" y="660.432">GenericChartDataManager</text><rect fill="#FFFFFF" height="18.3441" style="stroke:#181818;stroke-width:1.0;stroke-dasharray:2.0,2.0;" width="8.012" x="2278.9294" y="636"/><text fill="#000000" font-family="sans-serif" font-size="12" font-style="italic" lengthAdjust="spacing" textLength="6.012" x="2279.9294" y="649.8281">T</text><line style="stroke:#181818;stroke-width:0.5;" x1="2075" x2="2282.9414" y1="671" y2="671"/><line style="stroke:#181818;stroke-width:0.5;" x1="2075" x2="2282.9414" y1="679" y2="679"/><ellipse cx="2085" cy="694.034" fill="#84BE84" rx="3" ry="3" style="stroke:#038048;stroke-width:1.0;"/><text fill="#000000" font-family="sans-serif" font-size="14" font-style="italic" lengthAdjust="spacing" textLength="170.0853" x="2094" y="697.9659">findByValue(String): List&lt;T&gt;</text></g></a><!--class PartyChartDataManager--><a href="PartyChartDataManager.html" target="_top" title="PartyChartDataManager.html" xlink:actuate="onRequest" xlink:href="PartyChartDataManager.html" xlink:show="new" xlink:title="PartyChartDataManager.html" xlink:type="simple"><g id="elem_PartyChartDataManager"><rect codeLine="118" fill="#F1F1F1" height="124.2717" id="PartyChartDataManager" rx="2.5" ry="2.5" style="stroke:#181818;stroke-width:0.5;" width="387.2686" x="229.5" y="847"/><ellipse cx="342.1436" cy="863" fill="#B4A7E5" rx="11" ry="11" style="stroke:#181818;stroke-width:1.0;"/><path d="M338.0655,858.7656 L338.0655,856.6094 L345.4561,856.6094 L345.4561,858.7656 L342.9873,858.7656 L342.9873,866.8438 L345.4561,866.8438 L345.4561,869 L338.0655,869 L338.0655,866.8438 L340.5342,866.8438 L340.5342,858.7656 L338.0655,858.7656 Z " fill="#000000"/><text fill="#000000" font-family="sans-serif" font-size="14" font-style="italic" lengthAdjust="spacing" textLength="153.4814" x="362.6436" y="868.432">PartyChartDataManager</text><line style="stroke:#181818;stroke-width:0.5;" x1="230.5" x2="615.7686" y1="879" y2="879"/><line style="stroke:#181818;stroke-width:0.5;" x1="230.5" x2="615.7686" y1="887" y2="887"/><ellipse cx="240.5" cy="902.034" fill="#84BE84" rx="3" ry="3" style="stroke:#038048;stroke-width:1.0;"/><text fill="#000000" font-family="sans-serif" font-size="14" font-style="italic" lengthAdjust="spacing" textLength="314.4948" x="249.5" y="905.9659">createPartyAgeChart(AbstractOrderedLayout): void</text><ellipse cx="240.5" cy="921.1019" fill="#84BE84" rx="3" ry="3" style="stroke:#038048;stroke-width:1.0;"/><text fill="#000000" font-family="sans-serif" font-size="14" font-style="italic" lengthAdjust="spacing" textLength="336.7827" x="249.5" y="925.0339">createPartyGenderChart(AbstractOrderedLayout): void</text><ellipse cx="240.5" cy="940.1698" fill="#84BE84" rx="3" ry="3" style="stroke:#038048;stroke-width:1.0;"/><text fill="#000000" font-family="sans-serif" font-size="14" font-style="italic" lengthAdjust="spacing" textLength="361.2686" x="249.5" y="944.1018">createPartyLineChart(AbstractOrderedLayout, String): void</text><ellipse cx="240.5" cy="959.2377" fill="#84BE84" rx="3" ry="3" style="stroke:#038048;stroke-width:1.0;"/><text fill="#000000" font-family="sans-serif" font-size="14" font-style="italic" lengthAdjust="spacing" textLength="335.9006" x="249.5" y="963.1697">createPartyWinnerChart(AbstractOrderedLayout): void</text></g></a><!--class PoliticianGhantChartManager--><a href="PoliticianGhantChartManager.html" target="_top" title="PoliticianGhantChartManager.html" xlink:actuate="onRequest" xlink:href="PoliticianGhantChartManager.html" xlink:show="new" xlink:title="PoliticianGhantChartManager.html" xlink:type="simple"><g id="elem_PoliticianGhantChartManager"><rect codeLine="125" fill="#F1F1F1" height="67.0679" id="PoliticianGhantChartManager" rx="2.5" ry="2.5" style="stroke:#181818;stroke-width:0.5;" width="501.0041" x="634.5" y="875.5"/><ellipse cx="787.4704" cy="891.5" fill="#B4A7E5" rx="11" ry="11" style="stroke:#181818;stroke-width:1.0;"/><path d="M783.3923,887.2656 L783.3923,885.1094 L790.7829,885.1094 L790.7829,887.2656 L788.3142,887.2656 L788.3142,895.3438 L790.7829,895.3438 L790.7829,897.5 L783.3923,897.5 L783.3923,895.3438 L785.861,895.3438 L785.861,887.2656 L783.3923,887.2656 Z " fill="#000000"/><text fill="#000000" font-family="sans-serif" font-size="14" font-style="italic" lengthAdjust="spacing" textLength="186.5633" x="807.9704" y="896.932">PoliticianGhantChartManager</text><line style="stroke:#181818;stroke-width:0.5;" x1="635.5" x2="1134.5041" y1="907.5" y2="907.5"/><line style="stroke:#181818;stroke-width:0.5;" x1="635.5" x2="1134.5041" y1="915.5" y2="915.5"/><ellipse cx="645.5" cy="930.534" fill="#84BE84" rx="3" ry="3" style="stroke:#038048;stroke-width:1.0;"/><text fill="#000000" font-family="sans-serif" font-size="14" font-style="italic" lengthAdjust="spacing" textLength="475.0041" x="654.5" y="934.4659">createRoleGhant(AbstractOrderedLayout, Collection&lt;AssignmentData&gt;): void</text></g></a><text fill="#888888" font-family="sans-serif" font-size="10" lengthAdjust="spacing" textLength="2.6" x="1662.2" y="991.69">&#160;</text><a href="https://github.com/talsma-ict/umldoclet" target="_top" title="https://github.com/talsma-ict/umldoclet" xlink:actuate="onRequest" xlink:href="https://github.com/talsma-ict/umldoclet" xlink:show="new" xlink:title="https://github.com/talsma-ict/umldoclet" xlink:type="simple"><text fill="#888888" font-family="sans-serif" font-size="10" lengthAdjust="spacing" textLength="76.7199" x="1625.14" y="1005.31">UMLDoclet 2.2.1</text></a><!--SRC=[nLbHJ-Cu47xVN-7JFLnN2safi0iLgbGA1vnQKT4kt8hZmKrCOjMnixO3LAlzxpTEGccHaoPjzewNqexzVT-Cn-DnWX12Vw2-YEQI-e56MY0TK8M-3WS8Sm_vX1E9DV4G3R5F59eI9hYlqe44uLW7GYBnc7npXPH4HO9xbFleB_o4aHAnT8boFdn02TNa5VqPgoNqwTpyU2PSHZHgz3ykIMgtzZxljbljGpJ1J8KONVKdJeRsDgVjj9qz1DYCkeGhW8ovHsGYgnTX5pu6gMK7FH6fgE0mfvNX65TTmJMcNA48IwsCIoE6kJPQznpWFt2-e4PlF5ZLrZfEjEsWdkGuzj2D-1ultFqjajW7nGpFHQoH2ed672Sc1PeL0Igi8NwTJZe1XCuWpA0bT0Bulxtlk1GxpsJgq31YJamT74NW8jRWWFD4oRDoO708Nzm0T3zY5_3cC8gY7occ-QDS4masWaOmQ3wEeqY0atqpvGnhF0HPFaJh_hxGxWGwP0yFW8oM_dxWgT8IY7-YJwuai9u9I3AvqSjirn9MWtY3918xQAmbfCZ73deIr5kW_RGflXEIULUGKgu9bKLoyO2ocbS1ydGFgD8d2U4fvZD3qzr1jx0CoMzJ-6s1Ounz4NCj8PvXYEMybBi9_NLarbU1SyjVoxgI3S_81vIJrASnaPGeK94DA0Tp9ZYudY9iCVUEwY0LiA6E9AcsTMO4Mr_mhL4esImUVt-3h21_Ce7rW43rWxHLr2FN84UmEEGRwbc65VwttWjLAVnrh0r-Fcn-2gxkiKrtLJ9lX3bXUJlAWARoAbM5Q-b3vOz3mhL5Re6rhFBN-PUmuw6Y9Z2dSm2keQJreM9JhGcv272cS2dKkSQoqcy4IoVdIOLaOyGrcN1YQjSDdIaF2FY2sY0CIJWbiblAeGi1PoetuOACW_E8MDPaxPYoxjc1xBwMKfyMXO9qAXvG-bHSGLdEgnfIga1zNJjXCe-s3xKfuhQijnj-USOdj5Mp_Oour3IGK72VtxcHPohhI8-nPOZ644SdQHPalOTzltQxIyaoXYw4f8crhZg_pb_Xj5FieFz8oq9CrZLj58C9UT4zmDsOD2y8-Gpv-LvKMOhi6nvLjNRVFI-at2BS-dlfB7-xm_IIJNd-1F970766ANjjbolKcgeqvuoOW9LaUmrONk2giW-5HofILwOS4sNIsHxJMo8rZ6CL2lSfPapOCjXkgDGVDYPu2XVeWXlNocwy5P3oG9KoPnVMnBjkkJ2j9otWgtAN6r8EwgNrmCkr_V8pB-cVJFflUkxPUemSK-aIbisls6Di1LQf3hurdQV2cnUsjxO1rNjRWtB-4i4bZkfOaWhxjpxaQjLdbU6IOCyrJo1gLbu6TnlTLznSAMeMlHQqck95xIYrfblif6f4zRjaN-pQ7Qf0KuTNbcoetQMDCow_ZUqBp9BU8g-FpHtmlpmt7Wb6mL-AhNfpZTLkyszF4ciuOipR4Eg-5tGowPhZnMvSh_QHSkzqVejPJ1eBCKbJDUcMMVIyjTvcYNl-zeTy-i20c9SyzM1jk9G5Y7UKyqhgrkInzRb9llLND98zk5NuFBqxQPpNDcOV9qhF6NdBiaS1dRHyf-SIcZG9iPy1Yv3ezoExzQjPQ0PBD0ceE-Dmkq6j9Tg4hhd4bt7zm-_l0wqZrMasVQg3U6fUbpLryYPnbxgw6OVCIryXldkP-F2GlHoyMBobD6_wTbjVTlVs9tkjJkkuSt3e7EqVxXySVpuw_DHgTrgj-_DOYeWqnrguiq2myE5V]--></g></svg>