<?xml version="1.0" encoding="UTF-8" standalone="no"?><svg xmlns="http://www.w3.org/2000/svg" xmlns:xlink="http://www.w3.org/1999/xlink" contentStyleType="text/css" height="234px" preserveAspectRatio="none" style="width:326px;height:234px;background:#FFFFFF;" version="1.1" viewBox="0 0 326 234" width="326px" zoomAndPan="magnify"><defs/><g><!--MD5=[12f93890e637e83563e6e5ab67246f25]
class com.hack23.cia.web.impl.ui.application.views.user.party.PartyView--><a href="PartyView.html" target="_top" title="PartyView.html" xlink:actuate="onRequest" xlink:href="PartyView.html" xlink:show="new" xlink:title="PartyView.html" xlink:type="simple"><g id="elem_com.hack23.cia.web.impl.ui.application.views.user.party.PartyView"><rect codeLine="5" fill="#F1F1F1" height="96.8237" id="com.hack23.cia.web.impl.ui.application.views.user.party.PartyView" rx="2.5" ry="2.5" style="stroke:#181818;stroke-width:0.5;" width="304" x="11" y="110"/><ellipse cx="26" cy="131.344" fill="#ADD1B2" rx="11" ry="11" style="stroke:#181818;stroke-width:1.0;"/><path d="M28.9688,136.9846 Q28.3906,137.2815 27.75,137.4221 Q27.1094,137.5783 26.4063,137.5783 Q23.9063,137.5783 22.5781,135.9377 Q21.2656,134.2815 21.2656,131.1565 Q21.2656,128.0315 22.5781,126.3752 Q23.9063,124.719 26.4063,124.719 Q27.1094,124.719 27.75,124.8752 Q28.4063,125.0315 28.9688,125.3283 L28.9688,128.0471 Q28.3438,127.469 27.75,127.2033 Q27.1563,126.9221 26.5313,126.9221 Q25.1875,126.9221 24.5,128.0002 Q23.8125,129.0627 23.8125,131.1565 Q23.8125,133.2502 24.5,134.3283 Q25.1875,135.3908 26.5313,135.3908 Q27.1563,135.3908 27.75,135.1252 Q28.3438,134.844 28.9688,134.2658 L28.9688,136.9846 Z " fill="#000000"/><text fill="#000000" font-family="sans-serif" font-size="14" lengthAdjust="spacing" textLength="65" x="143.5" y="129.9659">PartyView</text><text fill="#000000" font-family="sans-serif" font-size="10" lengthAdjust="spacing" textLength="272" x="40" y="144.7579">com.hack23.cia.web.impl.ui.application.views.user.party</text><line style="stroke:#181818;stroke-width:0.5;" x1="12" x2="314" y1="152.6879" y2="152.6879"/><ellipse cx="22" cy="167.7219" fill="none" rx="3" ry="3" style="stroke:#038048;stroke-width:1.0;"/><text fill="#000000" font-family="sans-serif" font-size="14" lengthAdjust="spacing" text-decoration="underline" textLength="90" x="31" y="171.6538">NAME: String</text><line style="stroke:#181818;stroke-width:0.5;" x1="12" x2="314" y1="179.7558" y2="179.7558"/><ellipse cx="22" cy="194.7898" fill="#84BE84" rx="3" ry="3" style="stroke:#038048;stroke-width:1.0;"/><text fill="#000000" font-family="sans-serif" font-size="14" lengthAdjust="spacing" textLength="200" x="31" y="198.7218">PartyView(ApplicationContext)</text></g></a><!--MD5=[4d95a43774ca7342273458fa929c2e89]
class com.hack23.cia.web.impl.ui.application.views.user.common.AbstractGroupView--><a href="../common/AbstractGroupView.html" target="_top" title="../common/AbstractGroupView.html" xlink:actuate="onRequest" xlink:href="../common/AbstractGroupView.html" xlink:show="new" xlink:title="../common/AbstractGroupView.html" xlink:type="simple"><g id="elem_com.hack23.cia.web.impl.ui.application.views.user.common.AbstractGroupView"><rect codeLine="10" fill="#F1F1F1" height="42.6879" id="com.hack23.cia.web.impl.ui.application.views.user.common.AbstractGroupView" rx="2.5" ry="2.5" style="stroke:#181818;stroke-width:0.5;" width="312" x="7" y="7"/><ellipse cx="22" cy="28.344" fill="#A9DCDF" rx="11" ry="11" style="stroke:#181818;stroke-width:1.0;"/><path d="M22.1094,23.6877 L20.9531,28.7658 L23.2813,28.7658 L22.1094,23.6877 Z M20.625,21.4533 L23.6094,21.4533 L26.9688,33.844 L24.5156,33.844 L23.75,30.7815 L20.4688,30.7815 L19.7188,33.844 L17.2813,33.844 L20.625,21.4533 Z " fill="#000000"/><text fill="#000000" font-family="sans-serif" font-size="14" font-style="italic" lengthAdjust="spacing" textLength="120" x="116" y="26.9659">AbstractGroupView</text><text fill="#000000" font-family="sans-serif" font-size="10" font-style="italic" lengthAdjust="spacing" textLength="280" x="36" y="41.7579">com.hack23.cia.web.impl.ui.application.views.user.common</text></g></a><!--MD5=[cb396abc5fedef9261d254783b4ac5de]
reverse link com.hack23.cia.web.impl.ui.application.views.user.common.AbstractGroupView to com.hack23.cia.web.impl.ui.application.views.user.party.PartyView--><g id="link_com.hack23.cia.web.impl.ui.application.views.user.common.AbstractGroupView_com.hack23.cia.web.impl.ui.application.views.user.party.PartyView"><path codeLine="12" d="M163,70.16 C163,82.79 163,96.82 163,109.88 " fill="none" id="com.hack23.cia.web.impl.ui.application.views.user.common.AbstractGroupView-backto-com.hack23.cia.web.impl.ui.application.views.user.party.PartyView" style="stroke:#181818;stroke-width:1.0;"/><polygon fill="none" points="156,70.07,163,50.07,170,70.07,156,70.07" style="stroke:#181818;stroke-width:1.0;"/></g><rect fill="none" height="13.62" style="stroke:none;stroke-width:1.0;" width="188" x="62" y="212.8237"/><text fill="#888888" font-family="sans-serif" font-size="10" lengthAdjust="spacing" textLength="188" x="62" y="223.5137">UMLDoclet 2.0.20, PlantUML 1.2022.12</text><!--MD5=[b365f013c398900eb2ad58a32dd56bb9]
@startuml
    set namespaceSeparator none
    hide empty fields
    hide empty methods

    class "<size:14>PartyView\n<size:10>com.hack23.cia.web.impl.ui.application.views.user.party" as com.hack23.cia.web.impl.ui.application.views.user.party.PartyView [[PartyView.html]] {
        {static} +NAME: String
        +PartyView(ApplicationContext)
    }

    abstract class "<size:14>AbstractGroupView\n<size:10>com.hack23.cia.web.impl.ui.application.views.user.common" as com.hack23.cia.web.impl.ui.application.views.user.common.AbstractGroupView [[../common/AbstractGroupView.html]]

    com.hack23.cia.web.impl.ui.application.views.user.common.AbstractGroupView <|- - com.hack23.cia.web.impl.ui.application.views.user.party.PartyView

    center footer UMLDoclet 2.0.20, PlantUML 1.2022.12
@enduml

PlantUML version 1.2022.12(Sun Oct 23 20:12:26 CEST 2022)
(APACHE source distribution)
Java Runtime: OpenJDK Runtime Environment
JVM: OpenJDK 64-Bit Server VM
Default Encoding: UTF-8
Language: 
Country: 
--></g></svg>