<svg xmlns="http://www.w3.org/2000/svg" xmlns:xlink="http://www.w3.org/1999/xlink" contentStyleType="text/css" height="236px" preserveAspectRatio="none" style="width:558px;height:236px;background:#FFFFFF;" version="1.1" viewBox="0 0 558 236" width="558px" zoomAndPan="magnify"><defs/><g><!--class com.hack23.cia.web.impl.ui.application.views.user.govermentbody.pagemode.GovernmentBodyOverviewPageModContentFactoryImpl--><a href="GovernmentBodyOverviewPageModContentFactoryImpl.html" target="_top" title="GovernmentBodyOverviewPageModContentFactoryImpl.html" xlink:actuate="onRequest" xlink:href="GovernmentBodyOverviewPageModContentFactoryImpl.html" xlink:show="new" xlink:title="GovernmentBodyOverviewPageModContentFactoryImpl.html" xlink:type="simple"><g id="elem_com.hack23.cia.web.impl.ui.application.views.user.govermentbody.pagemode.GovernmentBodyOverviewPageModContentFactoryImpl"><rect codeLine="13" fill="#F1F1F1" height="88.8237" id="com.hack23.cia.web.impl.ui.application.views.user.govermentbody.pagemode.GovernmentBodyOverviewPageModContentFactoryImpl" rx="2.5" ry="2.5" style="stroke:#181818;stroke-width:0.5;" width="403.0406" x="75.5" y="118"/><ellipse cx="90.5" cy="139.344" fill="#ADD1B2" rx="11" ry="11" style="stroke:#181818;stroke-width:1.0;"/><path d="M93.4688,144.9846 Q92.8906,145.2815 92.25,145.4221 Q91.6094,145.5783 90.9063,145.5783 Q88.4063,145.5783 87.0781,143.9377 Q85.7656,142.2815 85.7656,139.1565 Q85.7656,136.0315 87.0781,134.3752 Q88.4063,132.719 90.9063,132.719 Q91.6094,132.719 92.25,132.8752 Q92.9063,133.0315 93.4688,133.3283 L93.4688,136.0471 Q92.8438,135.469 92.25,135.2033 Q91.6563,134.9221 91.0313,134.9221 Q89.6875,134.9221 89,136.0002 Q88.3125,137.0627 88.3125,139.1565 Q88.3125,141.2502 89,142.3283 Q89.6875,143.3908 91.0313,143.3908 Q91.6563,143.3908 92.25,143.1252 Q92.8438,142.844 93.4688,142.2658 L93.4688,144.9846 Z " fill="#000000"/><text fill="#000000" font-family="sans-serif" font-size="14" lengthAdjust="spacing" textLength="371.0406" x="104.5" y="137.9659">GovernmentBodyOverviewPageModContentFactoryImpl</text><text fill="#000000" font-family="sans-serif" font-size="10" lengthAdjust="spacing" textLength="367.0396" x="106.5005" y="152.7579">com.hack23.cia.web.impl.ui.application.views.user.govermentbody.pagemode</text><line style="stroke:#181818;stroke-width:0.5;" x1="76.5" x2="477.5406" y1="160.6879" y2="160.6879"/><ellipse cx="86.5" cy="175.7219" fill="#84BE84" rx="3" ry="3" style="stroke:#038048;stroke-width:1.0;"/><text fill="#000000" font-family="sans-serif" font-size="14" lengthAdjust="spacing" textLength="305.4228" x="95.5" y="179.6538">createContent(String, MenuBar, Panel): Layout</text><ellipse cx="86.5" cy="194.7898" fill="#84BE84" rx="3" ry="3" style="stroke:#038048;stroke-width:1.0;"/><text fill="#000000" font-family="sans-serif" font-size="14" lengthAdjust="spacing" textLength="211.5112" x="95.5" y="198.7218">matches(String, String): boolean</text></g></a><!--class com.hack23.cia.web.impl.ui.application.views.common.pagemode.AbstractItemPageModContentFactoryImpl--><a href="../../../common/pagemode/AbstractItemPageModContentFactoryImpl.html" target="_top" title="../../../common/pagemode/AbstractItemPageModContentFactoryImpl.html" xlink:actuate="onRequest" xlink:href="../../../common/pagemode/AbstractItemPageModContentFactoryImpl.html" xlink:show="new" xlink:title="../../../common/pagemode/AbstractItemPageModContentFactoryImpl.html" xlink:type="simple"><g id="elem_com.hack23.cia.web.impl.ui.application.views.common.pagemode.AbstractItemPageModContentFactoryImpl"><rect codeLine="18" fill="#F1F1F1" height="69.7558" id="com.hack23.cia.web.impl.ui.application.views.common.pagemode.AbstractItemPageModContentFactoryImpl" rx="2.5" ry="2.5" style="stroke:#181818;stroke-width:0.5;" width="541.5891" x="6" y="12"/><ellipse cx="21" cy="33.344" fill="#A9DCDF" rx="11" ry="11" style="stroke:#181818;stroke-width:1.0;"/><path d="M21.1094,28.6877 L19.9531,33.7658 L22.2813,33.7658 L21.1094,28.6877 Z M19.625,26.4533 L22.6094,26.4533 L25.9688,38.844 L23.5156,38.844 L22.75,35.7815 L19.4688,35.7815 L18.7188,38.844 L16.2813,38.844 L19.625,26.4533 Z " fill="#000000"/><text fill="#000000" font-family="sans-serif" font-size="14" font-style="italic" lengthAdjust="spacing" textLength="261.057" x="50.9813" y="31.9659">AbstractItemPageModContentFactoryImpl</text><text fill="#000000" font-family="sans-serif" font-size="10" font-style="italic" lengthAdjust="spacing" textLength="293.0197" x="35" y="46.7579">com.hack23.cia.web.impl.ui.application.views.common.pagemode</text><rect fill="#FFFFFF" height="18.3441" style="stroke:#181818;stroke-width:1.0;stroke-dasharray:2.0,2.0;" width="214.5694" x="336.0197" y="9"/><text fill="#000000" font-family="sans-serif" font-size="12" font-style="italic" lengthAdjust="spacing" textLength="212.5694" x="337.0197" y="22.8281">List&lt;GovernmentBodyAnnualSummary&gt;</text><line style="stroke:#181818;stroke-width:0.5;" x1="7" x2="546.5891" y1="54.6879" y2="54.6879"/><polygon fill="#FFFF44" points="17,64.7219,21,68.7219,17,72.7219,13,68.7219" style="stroke:#B38D22;stroke-width:1.0;"/><text fill="#000000" font-family="sans-serif" font-size="14" font-style="italic" lengthAdjust="spacing" textLength="348.6126" x="26" y="73.6538">getItem(String): List&lt;GovernmentBodyAnnualSummary&gt;</text></g></a><polygon fill="none" points="277,82.0537,271,100.0537,283,100.0537,277,82.0537" style="stroke:#181818;stroke-width:1.0;"/><path d="M277,100.0537 C277,111.2849 277,105.9359 277,117.7854 " fill="none" style="stroke:#181818;stroke-width:1.0;"/><text fill="#888888" font-family="sans-serif" font-size="10" lengthAdjust="spacing" textLength="2.6" x="272.2" y="211.69">&#160;</text><a href="https://github.com/talsma-ict/umldoclet" target="_top" title="https://github.com/talsma-ict/umldoclet" xlink:actuate="onRequest" xlink:href="https://github.com/talsma-ict/umldoclet" xlink:show="new" xlink:title="https://github.com/talsma-ict/umldoclet" xlink:type="simple"><text fill="#888888" font-family="sans-serif" font-size="10" lengthAdjust="spacing" textLength="76.7199" x="235.14" y="225.31">UMLDoclet 2.2.1</text></a><!--SRC=[nLNRJjj047tlLqpXeI38sWaHq2YA5DAMKWKLDVGfpSF47kmLUt5tro2NykyTso5SMgaNjQfboTgTcNDcvgnd0G1UmCGMbPDP7Y1O2BdqyF5q2cXIoCYGmq0fI8qPULYIiYRphIC1bY6t3kn5iqgiS-GBQr9fCdY7LmZUbYuXBvuzWuRg_0xz6lq3z6LLRxwoYQ80MvFj1odrukv-fnVtzk4SbTS89vDpiKAxZ-c9dkW2OokPaF4CMPgKN9FMkC24FzFMiWjNvBoqXcFY5KvTQc9DG6ay5EY2hqiwKsX2dMjNC7zV7C3MU3Pzd5lyiibj5yREO9d21_kvN9Vxl72OSSOAAri6y9e26cnjdfCsgBbTcD2Cc1G3Tz9OGuqzboa1wI9KS259fVxfBeFbbhUR_KIXzx0nzF8B3RhzqR7b8eqc4uviMhtdnPMawpEMyDIc4wwKBMymOSRgH1Vgarb5ngF4Qf5ZSjdR4ub4SKrB8Tb3b59WKN1tCN3lH0tdHUd9YQpcggcMJ2KAvj0sfGrWWVyMcFZDUc0-_yq8aGUj5WkuQTfPFpk98pwRAzUjMN1yg7VXb4nvX6uNpj2GsXx0j17tFanZuDFcrm7jbnsNrYf2qtZUjhBXqWV7INodttXbE0ca_xfgxAnvyUTAFG4GlvJjS2fz63wMPMnCYMfMQesk6erODY6YzcqveZkEw9SulbVnvgx5jx2PKHEzjLRafnazrEhVTmY6NpkT__RFj5KEVQWKZTRzkx0sy1YzRsZzlAqASbDfBYTMySpQFFonzMCzWPKqn4C_kJJ49pnUUzwsTD43lXNN9pEVvo4KVX15cGnvkQpR6OLc-dTa4g9IgxGT-qykWCLYDT2FrpTBFPqxSQyJxvrtzmRzxg3V5xt3_Vt3-F1WRoVk3k9u_hfqjg1e5cnocLkb5zy0]--></g></svg>