<?xml version="1.0" encoding="UTF-8" standalone="no"?><svg xmlns="http://www.w3.org/2000/svg" xmlns:xlink="http://www.w3.org/1999/xlink" contentStyleType="text/css" height="286px" preserveAspectRatio="none" style="width:1689px;height:286px;background:#FFFFFF;" version="1.1" viewBox="0 0 1689 286" width="1689px" zoomAndPan="magnify"><defs/><g><!--MD5=[272bab23ede7d10a373ee0f5d1db5235]
cluster com.hack23.cia.web.impl.ui.application.views.common.gridfactory.api--><g id="cluster_com.hack23.cia.web.impl.ui.application.views.common.gridfactory.api"><path d="M8.5,129 L559.5,129 A3.75,3.75 0 0 1 562,131.5 L569,151.2969 L1679.5,151.2969 A2.5,2.5 0 0 1 1682,153.7969 L1682,258.5 A2.5,2.5 0 0 1 1679.5,261 L8.5,261 A2.5,2.5 0 0 1 6,258.5 L6,131.5 A2.5,2.5 0 0 1 8.5,129 " style="stroke:#000000;stroke-width:1.5;fill:none;"/><line style="stroke:#000000;stroke-width:1.5;fill:none;" x1="6" x2="569" y1="151.2969" y2="151.2969"/><text fill="#000000" font-family="sans-serif" font-size="14" font-weight="bold" lengthAdjust="spacing" textLength="550" x="10" y="143.9951">com.hack23.cia.web.impl.ui.application.views.common.gridfactory.api</text></g><!--MD5=[0d852700fdad35b7061d461d6907a324]
cluster java.io--><g id="cluster_java.io"><path d="M776.5,6 L827.5,6 A3.75,3.75 0 0 1 830,8.5 L837,28.2969 L911.5,28.2969 A2.5,2.5 0 0 1 914,30.7969 L914,102.5 A2.5,2.5 0 0 1 911.5,105 L776.5,105 A2.5,2.5 0 0 1 774,102.5 L774,8.5 A2.5,2.5 0 0 1 776.5,6 " style="stroke:#000000;stroke-width:1.5;fill:none;"/><line style="stroke:#000000;stroke-width:1.5;fill:none;" x1="774" x2="837" y1="28.2969" y2="28.2969"/><text fill="#000000" font-family="sans-serif" font-size="14" font-weight="bold" lengthAdjust="spacing" textLength="50" x="778" y="20.9951">java.io</text></g><!--MD5=[73b1a02607eadf9862d2f9c31fcdc3c2]
class com.hack23.cia.web.impl.ui.application.views.common.gridfactory.api.GridFactory--><a href="GridFactory.html" target="_top" title="GridFactory.html" xlink:actuate="onRequest" xlink:href="GridFactory.html" xlink:show="new" xlink:title="GridFactory.html" xlink:type="simple"><g id="elem_com.hack23.cia.web.impl.ui.application.views.common.gridfactory.api.GridFactory"><rect codeLine="3" fill="#F1F1F1" height="80.5938" id="com.hack23.cia.web.impl.ui.application.views.common.gridfactory.api.GridFactory" rx="2.5" ry="2.5" style="stroke:#181818;stroke-width:0.5;" width="1643" x="22.5" y="164"/><ellipse cx="800.25" cy="180" fill="#B4A7E5" rx="11" ry="11" style="stroke:#181818;stroke-width:1.0;"/><path d="M796.1719,175.7656 L796.1719,173.6094 L803.5625,173.6094 L803.5625,175.7656 L801.0938,175.7656 L801.0938,183.8438 L803.5625,183.8438 L803.5625,186 L796.1719,186 L796.1719,183.8438 L798.6406,183.8438 L798.6406,175.7656 L796.1719,175.7656 Z " fill="#000000"/><text fill="#000000" font-family="sans-serif" font-size="14" font-style="italic" lengthAdjust="spacing" textLength="79" x="820.75" y="184.8467">GridFactory</text><line style="stroke:#181818;stroke-width:0.5;" x1="23.5" x2="1664.5" y1="196" y2="196"/><line style="stroke:#181818;stroke-width:0.5;" x1="23.5" x2="1664.5" y1="204" y2="204"/><ellipse cx="33.5" cy="215" fill="#84BE84" rx="3" ry="3" style="stroke:#038048;stroke-width:1.0;"/><text fill="#000000" font-family="sans-serif" font-size="14" font-style="italic" lengthAdjust="spacing" textLength="1440" x="42.5" y="220.9951">createBasicBeanItemGrid(AbstractOrderedLayout, Class&lt;T extends Serializable&gt;, List&lt;T extends Serializable&gt;, String, String[], String[], PageItemRendererClickListener&lt;?&gt;, String, ListPropertyConverter[]): void</text><ellipse cx="33.5" cy="231.2969" fill="#84BE84" rx="3" ry="3" style="stroke:#038048;stroke-width:1.0;"/><text fill="#000000" font-family="sans-serif" font-size="14" font-style="italic" lengthAdjust="spacing" textLength="1617" x="42.5" y="237.292">createBasicBeanItemNestedPropertiesGrid(AbstractOrderedLayout, Class&lt;T extends Serializable&gt;, List&lt;T extends Serializable&gt;, String, String[], String[], String[], PageItemRendererClickListener&lt;?&gt;, String, ListPropertyConverter[]): void</text></g></a><!--MD5=[5a5af9b0547913863cbe0ddf55a9ab5e]
class java.io.Serializable--><g id="elem_java.io.Serializable"><rect codeLine="12" fill="#F1F1F1" height="48" id="java.io.Serializable" rx="2.5" ry="2.5" style="stroke:#181818;stroke-width:0.5;" width="108" x="790" y="41"/><ellipse cx="805" cy="57" fill="#B4A7E5" rx="11" ry="11" style="stroke:#181818;stroke-width:1.0;"/><path d="M800.9219,52.7656 L800.9219,50.6094 L808.3125,50.6094 L808.3125,52.7656 L805.8438,52.7656 L805.8438,60.8438 L808.3125,60.8438 L808.3125,63 L800.9219,63 L800.9219,60.8438 L803.3906,60.8438 L803.3906,52.7656 L800.9219,52.7656 Z " fill="#000000"/><text fill="#000000" font-family="sans-serif" font-size="14" font-style="italic" lengthAdjust="spacing" textLength="76" x="819" y="61.8467">Serializable</text><line style="stroke:#181818;stroke-width:0.5;" x1="791" x2="897" y1="73" y2="73"/><line style="stroke:#181818;stroke-width:0.5;" x1="791" x2="897" y1="81" y2="81"/></g><!--MD5=[20a9d1e485a48c8bf64f003cd6e9b46f]
reverse link java.io.Serializable to com.hack23.cia.web.impl.ui.application.views.common.gridfactory.api.GridFactory--><g id="link_java.io.Serializable_com.hack23.cia.web.impl.ui.application.views.common.gridfactory.api.GridFactory"><path codeLine="8" d="M844,109.09 C844,126.64 844,146.8 844,163.97 " fill="none" id="java.io.Serializable-backto-com.hack23.cia.web.impl.ui.application.views.common.gridfactory.api.GridFactory" style="stroke:#181818;stroke-width:1.0;"/><polygon fill="none" points="837,109.01,844,89.01,851,109.01,837,109.01" style="stroke:#181818;stroke-width:1.0;"/></g><rect height="11.6406" style="stroke:#00000000;stroke-width:1.0;fill:none;" width="186" x="744.5" y="267"/><text fill="#888888" font-family="sans-serif" font-size="10" lengthAdjust="spacing" textLength="186" x="744.5" y="276.2822">UMLDoclet 2.0.18, PlantUML 1.2022.6</text><!--MD5=[fd4a92496c2e54aa6893023b0ed9a319]
@startuml
    namespace com.hack23.cia.web.impl.ui.application.views.common.gridfactory.api {

        interface GridFactory [[GridFactory.html]] {
            {abstract} +createBasicBeanItemGrid(AbstractOrderedLayout, Class<T extends Serializable>, List<T extends Serializable>, String, String[], String[], PageItemRendererClickListener<?>, String, ListPropertyConverter[]): void
            {abstract} +createBasicBeanItemNestedPropertiesGrid(AbstractOrderedLayout, Class<T extends Serializable>, List<T extends Serializable>, String, String[], String[], String[], PageItemRendererClickListener<?>, String, ListPropertyConverter[]): void
        }

        java.io.Serializable <|- - GridFactory
    }

    namespace java.io {
        interface Serializable
    }

    center footer UMLDoclet 2.0.18, PlantUML 1.2022.6
@enduml

PlantUML version 1.2022.6(Tue Jun 21 19:34:49 CEST 2022)
(APACHE source distribution)
Java Runtime: OpenJDK Runtime Environment
JVM: OpenJDK 64-Bit Server VM
Default Encoding: ANSI_X3.4-1968
Language: en
Country: US
--></g></svg>