<?xml version="1.0" encoding="UTF-8" standalone="no"?><svg xmlns="http://www.w3.org/2000/svg" xmlns:xlink="http://www.w3.org/1999/xlink" contentScriptType="application/ecmascript" contentStyleType="text/css" height="231px" preserveAspectRatio="none" style="width:611px;height:231px;background:#FFFFFF;" version="1.1" viewBox="0 0 611 231" width="611px" zoomAndPan="magnify"><defs><filter height="300%" id="f13kcb1iur4j02" width="300%" x="-1" y="-1"><feGaussianBlur result="blurOut" stdDeviation="2.0"/><feColorMatrix in="blurOut" result="blurOut2" type="matrix" values="0 0 0 0 0 0 0 0 0 0 0 0 0 0 0 0 0 0 .4 0"/><feOffset dx="4.0" dy="4.0" in="blurOut2" result="blurOut3"/><feBlend in="SourceGraphic" in2="blurOut3" mode="normal"/></filter></defs><g><!--MD5=[c2b433a45e17236221fa7b2d793b745f]
class com.hack23.cia.web.impl.ui.application.views.common.gridfactory.impl.GridFactoryImpl.BeanNestedPropertyValueProvider--><a href="GridFactoryImpl.BeanNestedPropertyValueProvider.html" target="_top" title="GridFactoryImpl.BeanNestedPropertyValueProvider.html" xlink:actuate="onRequest" xlink:href="GridFactoryImpl.BeanNestedPropertyValueProvider.html" xlink:show="new" xlink:title="GridFactoryImpl.BeanNestedPropertyValueProvider.html" xlink:type="simple"><rect codeLine="5" fill="#FEFECE" filter="url(#f13kcb1iur4j02)" height="71.5469" id="com.hack23.cia.web.impl.ui.application.views.common.gridfactory.impl.GridFactoryImpl.BeanNestedPropertyValueProvider" style="stroke:#A80036;stroke-width:1.5;" width="391" x="59" y="129"/><ellipse cx="74" cy="147.9688" fill="#ADD1B2" rx="11" ry="11" style="stroke:#A80036;stroke-width:1.0;"/><path d="M76.9688,153.6094 Q76.3906,153.9063 75.75,154.0469 Q75.1094,154.2031 74.4063,154.2031 Q71.9063,154.2031 70.5781,152.5625 Q69.2656,150.9063 69.2656,147.7813 Q69.2656,144.6563 70.5781,143 Q71.9063,141.3438 74.4063,141.3438 Q75.1094,141.3438 75.75,141.5 Q76.4063,141.6563 76.9688,141.9531 L76.9688,144.6719 Q76.3438,144.0938 75.75,143.8281 Q75.1563,143.5469 74.5313,143.5469 Q73.1875,143.5469 72.5,144.625 Q71.8125,145.6875 71.8125,147.7813 Q71.8125,149.875 72.5,150.9531 Q73.1875,152.0156 74.5313,152.0156 Q75.1563,152.0156 75.75,151.75 Q76.3438,151.4688 76.9688,150.8906 L76.9688,153.6094 Z " fill="#000000"/><text fill="#000000" font-family="sans-serif" font-size="14" lengthAdjust="spacing" textLength="348" x="88" y="146.9951">GridFactoryImpl.BeanNestedPropertyValueProvider</text><text fill="#000000" font-family="sans-serif" font-size="10" lengthAdjust="spacing" textLength="340" x="92" y="159.5791">com.hack23.cia.web.impl.ui.application.views.common.gridfactory.impl</text><rect fill="#FFFFFF" height="15.9688" style="stroke:#000000;stroke-width:1.0;stroke-dasharray:2.0,2.0;" width="9" x="444" y="126"/><text fill="#000000" font-family="sans-serif" font-size="12" font-style="italic" lengthAdjust="spacing" textLength="7" x="445" y="138.1387">T</text><line style="stroke:#A80036;stroke-width:1.5;" x1="60" x2="449" y1="166.9375" y2="166.9375"/><ellipse cx="70" cy="177.9375" fill="#84BE84" rx="3" ry="3" style="stroke:#038048;stroke-width:1.0;"/><text fill="#000000" font-family="sans-serif" font-size="11" lengthAdjust="spacing" textLength="237" x="79" y="181.1479">BeanNestedPropertyValueProvider(String)</text><ellipse cx="70" cy="190.7422" fill="#84BE84" rx="3" ry="3" style="stroke:#038048;stroke-width:1.0;"/><text fill="#000000" font-family="sans-serif" font-size="11" lengthAdjust="spacing" textLength="87" x="79" y="193.9526">apply(T): String</text></a><!--MD5=[f43961016bf2082b8138703d14bf28ba]
class com.vaadin.data.ValueProvider--><rect codeLine="10" fill="#FEFECE" filter="url(#f13kcb1iur4j02)" height="58.7422" id="com.vaadin.data.ValueProvider" style="stroke:#A80036;stroke-width:1.5;" width="183" x="7" y="10"/><ellipse cx="22" cy="28.9688" fill="#B4A7E5" rx="11" ry="11" style="stroke:#A80036;stroke-width:1.0;"/><path d="M17.9219,24.7344 L17.9219,22.5781 L25.3125,22.5781 L25.3125,24.7344 L22.8438,24.7344 L22.8438,32.8125 L25.3125,32.8125 L25.3125,34.9688 L17.9219,34.9688 L17.9219,32.8125 L20.3906,32.8125 L20.3906,24.7344 L17.9219,24.7344 Z " fill="#000000"/><text fill="#000000" font-family="sans-serif" font-size="14" font-style="italic" lengthAdjust="spacing" textLength="95" x="36" y="27.9951">ValueProvider</text><text fill="#000000" font-family="sans-serif" font-size="10" font-style="italic" lengthAdjust="spacing" textLength="83" x="42" y="40.5791">com.vaadin.data</text><rect fill="#FFFFFF" height="15.9688" style="stroke:#000000;stroke-width:1.0;stroke-dasharray:2.0,2.0;" width="54" x="139" y="7"/><text fill="#000000" font-family="sans-serif" font-size="12" font-style="italic" lengthAdjust="spacing" textLength="52" x="140" y="19.1387">T, String</text><line style="stroke:#A80036;stroke-width:1.5;" x1="8" x2="189" y1="47.9375" y2="47.9375"/><ellipse cx="18" cy="58.9375" fill="#84BE84" rx="3" ry="3" style="stroke:#038048;stroke-width:1.0;"/><text fill="#000000" font-family="sans-serif" font-size="11" font-style="italic" lengthAdjust="spacing" textLength="87" x="27" y="62.1479">apply(T): String</text><!--MD5=[f482fef1bd620d206ae84bc9aa2b5709]
class com.hack23.cia.web.impl.ui.application.views.common.gridfactory.impl.GridFactoryImpl--><a href="GridFactoryImpl.html" target="_top" title="GridFactoryImpl.html" xlink:actuate="onRequest" xlink:href="GridFactoryImpl.html" xlink:show="new" xlink:title="GridFactoryImpl.html" xlink:type="simple"><rect codeLine="13" fill="#FEFECE" filter="url(#f13kcb1iur4j02)" height="37.9375" id="com.hack23.cia.web.impl.ui.application.views.common.gridfactory.impl.GridFactoryImpl" style="stroke:#A80036;stroke-width:1.5;" width="372" x="225.5" y="20.5"/><ellipse cx="240.5" cy="39.4688" fill="#ADD1B2" rx="11" ry="11" style="stroke:#A80036;stroke-width:1.0;"/><path d="M243.4688,45.1094 Q242.8906,45.4063 242.25,45.5469 Q241.6094,45.7031 240.9063,45.7031 Q238.4063,45.7031 237.0781,44.0625 Q235.7656,42.4063 235.7656,39.2813 Q235.7656,36.1563 237.0781,34.5 Q238.4063,32.8438 240.9063,32.8438 Q241.6094,32.8438 242.25,33 Q242.9063,33.1563 243.4688,33.4531 L243.4688,36.1719 Q242.8438,35.5938 242.25,35.3281 Q241.6563,35.0469 241.0313,35.0469 Q239.6875,35.0469 239,36.125 Q238.3125,37.1875 238.3125,39.2813 Q238.3125,41.375 239,42.4531 Q239.6875,43.5156 241.0313,43.5156 Q241.6563,43.5156 242.25,43.25 Q242.8438,42.9688 243.4688,42.3906 L243.4688,45.1094 Z " fill="#000000"/><text fill="#000000" font-family="sans-serif" font-size="14" lengthAdjust="spacing" textLength="106" x="371.5" y="38.4951">GridFactoryImpl</text><text fill="#000000" font-family="sans-serif" font-size="10" lengthAdjust="spacing" textLength="340" x="254.5" y="51.0791">com.hack23.cia.web.impl.ui.application.views.common.gridfactory.impl</text></a><!--MD5=[dff26fc88dd9164a0fde2f98bdc0e3bd]
reverse link com.vaadin.data.ValueProvider to com.hack23.cia.web.impl.ui.application.views.common.gridfactory.impl.GridFactoryImpl.BeanNestedPropertyValueProvider--><path codeLine="15" d="M150.56,81.72 C169.88,97.01 191.6,114.2 210.16,128.9 " fill="none" id="com.vaadin.data.ValueProvider-backto-com.hack23.cia.web.impl.ui.application.views.common.gridfactory.impl.GridFactoryImpl.BeanNestedPropertyValueProvider" style="stroke:#A80036;stroke-width:1.0;stroke-dasharray:7.0,7.0;"/><polygon fill="none" points="146.02,87.05,134.68,69.14,154.71,76.07,146.02,87.05" style="stroke:#A80036;stroke-width:1.0;"/><!--MD5=[da9808f8b8aacfa7d2c8d2aa664d1daa]
reverse link com.hack23.cia.web.impl.ui.application.views.common.gridfactory.impl.GridFactoryImpl to com.hack23.cia.web.impl.ui.application.views.common.gridfactory.impl.GridFactoryImpl.BeanNestedPropertyValueProvider--><path codeLine="16" d="M376.48,68.04 C353.68,85.98 323.74,109.54 299.22,128.82 " fill="none" id="com.hack23.cia.web.impl.ui.application.views.common.gridfactory.impl.GridFactoryImpl-backto-com.hack23.cia.web.impl.ui.application.views.common.gridfactory.impl.GridFactoryImpl.BeanNestedPropertyValueProvider" style="stroke:#A80036;stroke-width:1.0;"/><ellipse cx="382.0424" cy="63.6663" fill="#FFFFFF" rx="8" ry="8" style="stroke:#A80036;stroke-width:1.0;"/><line style="stroke:#A80036;stroke-width:1.0;" x1="375.7547" x2="388.33" y1="68.6125" y2="58.72"/><line style="stroke:#A80036;stroke-width:1.0;" x1="377.0961" x2="386.9886" y1="57.3786" y2="69.9539"/><text fill="#888888" font-family="sans-serif" font-size="10" lengthAdjust="spacing" textLength="186" x="206.25" y="222.8291">UMLDoclet 2.0.14, PlantUML 1.2021.9</text><!--MD5=[0635087c98bd5345dd82303c9bed437b]
@startuml
    set namespaceSeparator none
    hide empty fields
    hide empty methods

    class "<size:14>GridFactoryImpl.BeanNestedPropertyValueProvider\n<size:10>com.hack23.cia.web.impl.ui.application.views.common.gridfactory.impl" as com.hack23.cia.web.impl.ui.application.views.common.gridfactory.impl.GridFactoryImpl.BeanNestedPropertyValueProvider<T> [[GridFactoryImpl.BeanNestedPropertyValueProvider.html]] {
        +BeanNestedPropertyValueProvider(String)
        +apply(T): String
    }

    interface "<size:14>ValueProvider\n<size:10>com.vaadin.data" as com.vaadin.data.ValueProvider<T, String> {
        {abstract} +apply(T): String
    }
    class "<size:14>GridFactoryImpl\n<size:10>com.hack23.cia.web.impl.ui.application.views.common.gridfactory.impl" as com.hack23.cia.web.impl.ui.application.views.common.gridfactory.impl.GridFactoryImpl [[GridFactoryImpl.html]]

    com.vaadin.data.ValueProvider <|.. com.hack23.cia.web.impl.ui.application.views.common.gridfactory.impl.GridFactoryImpl.BeanNestedPropertyValueProvider
    com.hack23.cia.web.impl.ui.application.views.common.gridfactory.impl.GridFactoryImpl +- - com.hack23.cia.web.impl.ui.application.views.common.gridfactory.impl.GridFactoryImpl.BeanNestedPropertyValueProvider

    center footer UMLDoclet 2.0.14, PlantUML 1.2021.9
@enduml

PlantUML version 1.2021.9(Sun Jul 25 12:13:56 CEST 2021)
(APACHE source distribution)
Java Runtime: OpenJDK Runtime Environment
JVM: OpenJDK 64-Bit Server VM
Default Encoding: UTF-8
Language: en
Country: US
--></g></svg>