<?xml version="1.0" encoding="UTF-8" standalone="no"?><svg xmlns="http://www.w3.org/2000/svg" xmlns:xlink="http://www.w3.org/1999/xlink" contentScriptType="application/ecmascript" contentStyleType="text/css" height="231px" preserveAspectRatio="none" style="width:607px;height:231px;" version="1.1" viewBox="0 0 607 231" width="607px" zoomAndPan="magnify"><defs><filter height="300%" id="f1ac6ncvf4nlji" width="300%" x="-1" y="-1"><feGaussianBlur result="blurOut" stdDeviation="2.0"/><feColorMatrix in="blurOut" result="blurOut2" type="matrix" values="0 0 0 0 0 0 0 0 0 0 0 0 0 0 0 0 0 0 .4 0"/><feOffset dx="4.0" dy="4.0" in="blurOut2" result="blurOut3"/><feBlend in="SourceGraphic" in2="blurOut3" mode="normal"/></filter></defs><g><!--class com.hack23.cia.web.impl.ui.application.views.common.gridfactory.impl.GridFactoryImpl.BeanNestedPropertyValueProvider--><a href="GridFactoryImpl.BeanNestedPropertyValueProvider.html" target="_top" xlink:actuate="onRequest" xlink:show="new" xlink:title="GridFactoryImpl.BeanNestedPropertyValueProvider.html" xlink:type="simple"><rect fill="#FEFECE" filter="url(#f1ac6ncvf4nlji)" height="71.5469" id="com.hack23.cia.web.impl.ui.application.views.common.gridfactory.impl.GridFactoryImpl.BeanNestedPropertyValueProvider" style="stroke: #A80036; stroke-width: 1.5;" width="391" x="58" y="127"/><ellipse cx="73" cy="145.9688" fill="#ADD1B2" rx="11" ry="11" style="stroke: #A80036; stroke-width: 1.0;"/><path d="M75.9688,151.6094 Q75.3906,151.9063 74.75,152.0469 Q74.1094,152.2031 73.4063,152.2031 Q70.9063,152.2031 69.5781,150.5625 Q68.2656,148.9063 68.2656,145.7813 Q68.2656,142.6563 69.5781,141 Q70.9063,139.3438 73.4063,139.3438 Q74.1094,139.3438 74.75,139.5 Q75.4063,139.6563 75.9688,139.9531 L75.9688,142.6719 Q75.3438,142.0938 74.75,141.8281 Q74.1563,141.5469 73.5313,141.5469 Q72.1875,141.5469 71.5,142.625 Q70.8125,143.6875 70.8125,145.7813 Q70.8125,147.875 71.5,148.9531 Q72.1875,150.0156 73.5313,150.0156 Q74.1563,150.0156 74.75,149.75 Q75.3438,149.4688 75.9688,148.8906 L75.9688,151.6094 Z "/><text fill="#000000" font-family="sans-serif" font-size="14" lengthAdjust="spacingAndGlyphs" textLength="348" x="87" y="144.9951">GridFactoryImpl.BeanNestedPropertyValueProvider</text><text fill="#000000" font-family="sans-serif" font-size="10" lengthAdjust="spacingAndGlyphs" textLength="340" x="91" y="157.5791">com.hack23.cia.web.impl.ui.application.views.common.gridfactory.impl</text><rect fill="#FFFFFF" height="15.9688" style="stroke: #000000; stroke-width: 1.0; stroke-dasharray: 2.0,2.0;" width="9" x="443" y="124"/><text fill="#000000" font-family="sans-serif" font-size="12" font-style="italic" lengthAdjust="spacingAndGlyphs" textLength="7" x="444" y="136.1387">T</text><line style="stroke: #A80036; stroke-width: 1.5;" x1="59" x2="448" y1="164.9375" y2="164.9375"/><ellipse cx="69" cy="176.8398" fill="#84BE84" rx="3" ry="3" style="stroke: #038048; stroke-width: 1.0;"/><text fill="#000000" font-family="sans-serif" font-size="11" lengthAdjust="spacingAndGlyphs" textLength="237" x="78" y="179.1479">BeanNestedPropertyValueProvider(String)</text><ellipse cx="69" cy="189.6445" fill="#84BE84" rx="3" ry="3" style="stroke: #038048; stroke-width: 1.0;"/><text fill="#000000" font-family="sans-serif" font-size="11" lengthAdjust="spacingAndGlyphs" textLength="87" x="78" y="191.9526">apply(T): String</text></a><!--class com.vaadin.data.ValueProvider--><rect fill="#FEFECE" filter="url(#f1ac6ncvf4nlji)" height="58.7422" id="com.vaadin.data.ValueProvider" style="stroke: #A80036; stroke-width: 1.5;" width="183" x="6" y="8"/><ellipse cx="21" cy="26.9688" fill="#B4A7E5" rx="11" ry="11" style="stroke: #A80036; stroke-width: 1.0;"/><path d="M16.9219,22.7344 L16.9219,20.5781 L24.3125,20.5781 L24.3125,22.7344 L21.8438,22.7344 L21.8438,30.8125 L24.3125,30.8125 L24.3125,32.9688 L16.9219,32.9688 L16.9219,30.8125 L19.3906,30.8125 L19.3906,22.7344 L16.9219,22.7344 Z "/><text fill="#000000" font-family="sans-serif" font-size="14" font-style="italic" lengthAdjust="spacingAndGlyphs" textLength="95" x="35" y="25.9951">ValueProvider</text><text fill="#000000" font-family="sans-serif" font-size="10" font-style="italic" lengthAdjust="spacingAndGlyphs" textLength="83" x="41" y="38.5791">com.vaadin.data</text><rect fill="#FFFFFF" height="15.9688" style="stroke: #000000; stroke-width: 1.0; stroke-dasharray: 2.0,2.0;" width="54" x="138" y="5"/><text fill="#000000" font-family="sans-serif" font-size="12" font-style="italic" lengthAdjust="spacingAndGlyphs" textLength="52" x="139" y="17.1387">T, String</text><line style="stroke: #A80036; stroke-width: 1.5;" x1="7" x2="188" y1="45.9375" y2="45.9375"/><ellipse cx="17" cy="57.8398" fill="#84BE84" rx="3" ry="3" style="stroke: #038048; stroke-width: 1.0;"/><text fill="#000000" font-family="sans-serif" font-size="11" font-style="italic" lengthAdjust="spacingAndGlyphs" textLength="87" x="26" y="60.1479">apply(T): String</text><!--class com.hack23.cia.web.impl.ui.application.views.common.gridfactory.impl.GridFactoryImpl--><a href="GridFactoryImpl.html" target="_top" xlink:actuate="onRequest" xlink:show="new" xlink:title="GridFactoryImpl.html" xlink:type="simple"><rect fill="#FEFECE" filter="url(#f1ac6ncvf4nlji)" height="37.9375" id="com.hack23.cia.web.impl.ui.application.views.common.gridfactory.impl.GridFactoryImpl" style="stroke: #A80036; stroke-width: 1.5;" width="372" x="224.5" y="18.5"/><ellipse cx="239.5" cy="37.4688" fill="#ADD1B2" rx="11" ry="11" style="stroke: #A80036; stroke-width: 1.0;"/><path d="M242.4688,43.1094 Q241.8906,43.4063 241.25,43.5469 Q240.6094,43.7031 239.9063,43.7031 Q237.4063,43.7031 236.0781,42.0625 Q234.7656,40.4063 234.7656,37.2813 Q234.7656,34.1563 236.0781,32.5 Q237.4063,30.8438 239.9063,30.8438 Q240.6094,30.8438 241.25,31 Q241.9063,31.1563 242.4688,31.4531 L242.4688,34.1719 Q241.8438,33.5938 241.25,33.3281 Q240.6563,33.0469 240.0313,33.0469 Q238.6875,33.0469 238,34.125 Q237.3125,35.1875 237.3125,37.2813 Q237.3125,39.375 238,40.4531 Q238.6875,41.5156 240.0313,41.5156 Q240.6563,41.5156 241.25,41.25 Q241.8438,40.9688 242.4688,40.3906 L242.4688,43.1094 Z "/><text fill="#000000" font-family="sans-serif" font-size="14" lengthAdjust="spacingAndGlyphs" textLength="106" x="370.5" y="36.4951">GridFactoryImpl</text><text fill="#000000" font-family="sans-serif" font-size="10" lengthAdjust="spacingAndGlyphs" textLength="340" x="253.5" y="49.0791">com.hack23.cia.web.impl.ui.application.views.common.gridfactory.impl</text></a><!--link com.vaadin.data.ValueProvider to com.hack23.cia.web.impl.ui.application.views.common.gridfactory.impl.GridFactoryImpl.BeanNestedPropertyValueProvider--><path d="M150.1383,79.8468 C169.1631,95.1521 190.4467,112.2745 208.733,126.9855 " fill="none" id="com.vaadin.data.ValueProvider-com.hack23.cia.web.impl.ui.application.views.common.gridfactory.impl.GridFactoryImpl.BeanNestedPropertyValueProvider" style="stroke: #A80036; stroke-width: 1.0; stroke-dasharray: 7.0,7.0;"/><polygon fill="none" points="145.6653,85.2324,134.4698,67.2417,154.4408,74.3241,145.6653,85.2324" style="stroke: #A80036; stroke-width: 1.0;"/><!--link com.hack23.cia.web.impl.ui.application.views.common.gridfactory.impl.GridFactoryImpl to com.hack23.cia.web.impl.ui.application.views.common.gridfactory.impl.GridFactoryImpl.BeanNestedPropertyValueProvider--><path d="M374.9044,65.9538 C352.3535,83.9801 322.9842,107.4569 298.7809,126.8041 " fill="none" id="com.hack23.cia.web.impl.ui.application.views.common.gridfactory.impl.GridFactoryImpl-com.hack23.cia.web.impl.ui.application.views.common.gridfactory.impl.GridFactoryImpl.BeanNestedPropertyValueProvider" style="stroke: #A80036; stroke-width: 1.0;"/><ellipse cx="380.4062" cy="61.5559" fill="#FFFFFF" rx="8" ry="8" style="stroke: #A80036; stroke-width: 1.0;"/><line style="stroke: #A80036; stroke-width: 1.0;" x1="374.1574" x2="386.6551" y1="66.551" y2="56.5607"/><line style="stroke: #A80036; stroke-width: 1.0;" x1="375.4111" x2="385.4014" y1="55.307" y2="67.8047"/><text fill="#888888" font-family="sans-serif" font-size="10" lengthAdjust="spacingAndGlyphs" textLength="186" x="214.5" y="218.2822">UMLDoclet 2.0.5, PlantUML 1.2019.08</text><!--
@startuml
    set namespaceSeparator none
    hide empty fields
    hide empty methods

    class "<size:14>GridFactoryImpl.BeanNestedPropertyValueProvider\n<size:10>com.hack23.cia.web.impl.ui.application.views.common.gridfactory.impl" as com.hack23.cia.web.impl.ui.application.views.common.gridfactory.impl.GridFactoryImpl.BeanNestedPropertyValueProvider<T> [[GridFactoryImpl.BeanNestedPropertyValueProvider.html]] {
        +BeanNestedPropertyValueProvider(String)
        +apply(T): String
    }

    interface "<size:14>ValueProvider\n<size:10>com.vaadin.data" as com.vaadin.data.ValueProvider<T, String> {
        {abstract} +apply(T): String
    }
    class "<size:14>GridFactoryImpl\n<size:10>com.hack23.cia.web.impl.ui.application.views.common.gridfactory.impl" as com.hack23.cia.web.impl.ui.application.views.common.gridfactory.impl.GridFactoryImpl [[GridFactoryImpl.html]]

    com.vaadin.data.ValueProvider <|.. com.hack23.cia.web.impl.ui.application.views.common.gridfactory.impl.GridFactoryImpl.BeanNestedPropertyValueProvider
    com.hack23.cia.web.impl.ui.application.views.common.gridfactory.impl.GridFactoryImpl +- - com.hack23.cia.web.impl.ui.application.views.common.gridfactory.impl.GridFactoryImpl.BeanNestedPropertyValueProvider

    center footer UMLDoclet 2.0.5, PlantUML 1.2019.08
@enduml

PlantUML version 1.2019.08(Sat Jul 13 21:25:14 CEST 2019)
(APACHE source distribution)
Java Runtime: OpenJDK Runtime Environment
JVM: OpenJDK 64-Bit Server VM
Java Version: 11.0.4+11-post-Ubuntu-1ubuntu219.04
Operating System: Linux
OS Version: 5.0.0-27-generic
Default Encoding: UTF-8
Language: en
Country: US
--></g></svg>