<svg xmlns="http://www.w3.org/2000/svg" xmlns:xlink="http://www.w3.org/1999/xlink" contentStyleType="text/css" data-diagram-type="CLASS" height="274px" preserveAspectRatio="none" style="width:789px;height:274px;background:#FFFFFF;" version="1.1" viewBox="0 0 789 274" width="789px" zoomAndPan="magnify"><defs/><g><!--class com.hack23.cia.service.impl.action.user.DisableGoogleAuthenticatorCredentialService--><g class="entity" data-entity="com.hack23.cia.service.impl.action.user.DisableGoogleAuthenticatorCredentialService" data-source-line="13" data-uid="ent0002" id="entity_com.hack23.cia.service.impl.action.user.DisableGoogleAuthenticatorCredentialService"><a href="DisableGoogleAuthenticatorCredentialService.html" target="_top" title="DisableGoogleAuthenticatorCredentialService.html" xlink:actuate="onRequest" xlink:href="DisableGoogleAuthenticatorCredentialService.html" xlink:show="new" xlink:title="DisableGoogleAuthenticatorCredentialService.html" xlink:type="simple"><rect fill="#F1F1F1" height="107.8917" rx="2.5" ry="2.5" style="stroke:#181818;stroke-width:0.5;" width="776.0612" x="6" y="137"/><ellipse cx="239.4422" cy="158.344" fill="#ADD1B2" rx="11" ry="11" style="stroke:#181818;stroke-width:1;"/><path d="M242.4109,163.9846 Q241.8328,164.2815 241.1922,164.4221 Q240.5515,164.5783 239.8484,164.5783 Q237.3484,164.5783 236.0203,162.9377 Q234.7078,161.2815 234.7078,158.1565 Q234.7078,155.0315 236.0203,153.3752 Q237.3484,151.719 239.8484,151.719 Q240.5515,151.719 241.1922,151.8752 Q241.8484,152.0315 242.4109,152.3283 L242.4109,155.0471 Q241.7859,154.469 241.1922,154.2033 Q240.5984,153.9221 239.9734,153.9221 Q238.6297,153.9221 237.9422,155.0002 Q237.2547,156.0627 237.2547,158.1565 Q237.2547,160.2502 237.9422,161.3283 Q238.6297,162.3908 239.9734,162.3908 Q240.5984,162.3908 241.1922,162.1252 Q241.7859,161.844 242.4109,161.2658 L242.4109,163.9846 Z " fill="#000000"/><text fill="#000000" font-family="sans-serif" font-size="14" lengthAdjust="spacing" textLength="300.6768" x="259.9422" y="156.9659">DisableGoogleAuthenticatorCredentialService</text><text fill="#000000" font-family="sans-serif" font-size="10" lengthAdjust="spacing" textLength="185.5299" x="317.5156" y="171.7579">com.hack23.cia.service.impl.action.user</text><line style="stroke:#181818;stroke-width:0.5;" x1="7" x2="781.0612" y1="179.6879" y2="179.6879"/><ellipse cx="17" cy="194.7219" fill="#84BE84" rx="3" ry="3" style="stroke:#038048;stroke-width:1;"/><text fill="#000000" font-family="sans-serif" font-size="14" lengthAdjust="spacing" textLength="738.4973" x="26" y="198.6538">processService(DisableGoogleAuthenticatorCredentialRequest): DisableGoogleAuthenticatorCredentialResponse</text><polygon fill="#FFFF44" points="17,208.7898,21,212.7898,17,216.7898,13,212.7898" style="stroke:#B38D22;stroke-width:1;"/><text fill="#000000" font-family="sans-serif" font-size="14" lengthAdjust="spacing" textLength="750.0612" x="26" y="217.7218">createApplicationEventForService(DisableGoogleAuthenticatorCredentialRequest): CreateApplicationEventRequest</text><polygon fill="#FFFF44" points="17,227.8577,21,231.8577,17,235.8577,13,231.8577" style="stroke:#B38D22;stroke-width:1;"/><text fill="#000000" font-family="sans-serif" font-size="14" lengthAdjust="spacing" textLength="471.8541" x="26" y="236.7897">createErrorResponse(): DisableGoogleAuthenticatorCredentialResponse</text></a></g><!--class com.hack23.cia.service.impl.action.common.AbstractBusinessServiceImpl--><g class="entity" data-entity="com.hack23.cia.service.impl.action.common.AbstractBusinessServiceImpl" data-source-line="19" data-uid="ent0003" id="entity_com.hack23.cia.service.impl.action.common.AbstractBusinessServiceImpl"><a href="../common/AbstractBusinessServiceImpl.html" target="_top" title="../common/AbstractBusinessServiceImpl.html" xlink:actuate="onRequest" xlink:href="../common/AbstractBusinessServiceImpl.html" xlink:show="new" xlink:title="../common/AbstractBusinessServiceImpl.html" xlink:type="simple"><rect fill="#F1F1F1" height="88.8237" rx="2.5" ry="2.5" style="stroke:#181818;stroke-width:0.5;" width="737.191" x="25.5" y="12"/><ellipse cx="40.5" cy="33.344" fill="#A9DCDF" rx="11" ry="11" style="stroke:#181818;stroke-width:1;"/><path d="M40.6094,28.6877 L39.4531,33.7658 L41.7813,33.7658 L40.6094,28.6877 Z M39.125,26.4533 L42.1094,26.4533 L45.4688,38.844 L43.0156,38.844 L42.25,35.7815 L38.9688,35.7815 L38.2188,38.844 L35.7813,38.844 L39.125,26.4533 Z " fill="#000000"/><text fill="#000000" font-family="sans-serif" font-size="14" font-style="italic" lengthAdjust="spacing" textLength="176.1473" x="64.1262" y="31.9659">AbstractBusinessServiceImpl</text><text fill="#000000" font-family="sans-serif" font-size="10" font-style="italic" lengthAdjust="spacing" textLength="195.3998" x="54.5" y="46.7579">com.hack23.cia.service.impl.action.common</text><rect fill="#FFFFFF" height="18.3441" style="stroke:#181818;stroke-width:1;stroke-dasharray:2,2;" width="507.7912" x="257.8998" y="9"/><text fill="#000000" font-family="sans-serif" font-size="12" font-style="italic" lengthAdjust="spacing" textLength="505.7912" x="258.8998" y="22.8281">DisableGoogleAuthenticatorCredentialRequest, DisableGoogleAuthenticatorCredentialResponse</text><line style="stroke:#181818;stroke-width:0.5;" x1="26.5" x2="761.691" y1="54.6879" y2="54.6879"/><polygon fill="#FFFF44" points="36.5,64.7219,40.5,68.7219,36.5,72.7219,32.5,68.7219" style="stroke:#B38D22;stroke-width:1;"/><text fill="#000000" font-family="sans-serif" font-size="14" font-style="italic" lengthAdjust="spacing" textLength="439.8781" x="45.5" y="73.6538">createErrorResponse(): DisableGoogleAuthenticatorCredentialResponse</text><polygon fill="#FFFF44" points="36.5,83.7898,40.5,87.7898,36.5,91.7898,32.5,87.7898" style="stroke:#B38D22;stroke-width:1;"/><text fill="#000000" font-family="sans-serif" font-size="14" font-style="italic" lengthAdjust="spacing" textLength="699.759" x="45.5" y="92.7218">createApplicationEventForService(DisableGoogleAuthenticatorCredentialRequest): CreateApplicationEventRequest</text></a></g><g class="link" data-entity-1="com.hack23.cia.service.impl.action.common.AbstractBusinessServiceImpl" data-entity-2="com.hack23.cia.service.impl.action.user.DisableGoogleAuthenticatorCredentialService" data-uid="lnk4" id="link_com.hack23.cia.service.impl.action.common.AbstractBusinessServiceImpl_com.hack23.cia.service.impl.action.user.DisableGoogleAuthenticatorCredentialService"><polygon fill="none" points="394,101.2527,388,119.2527,400,119.2527,394,101.2527" style="stroke:#181818;stroke-width:1;"/><path d="M394,119.2527 C394,130.5596 394,124.8586 394,136.5979" fill="none" style="stroke:#181818;stroke-width:1;"/></g><g class="footer" data-source-line="32"><text fill="#888888" font-family="sans-serif" font-size="10" lengthAdjust="spacing" textLength="2.6" x="389.2" y="249.69">&#160;</text><a href="https://github.com/talsma-ict/umldoclet" target="_top" title="https://github.com/talsma-ict/umldoclet" xlink:actuate="onRequest" xlink:href="https://github.com/talsma-ict/umldoclet" xlink:show="new" xlink:title="https://github.com/talsma-ict/umldoclet" xlink:type="simple"><text fill="#888888" font-family="sans-serif" font-size="10" lengthAdjust="spacing" textLength="76.7199" x="352.14" y="263.31">UMLDoclet 2.2.4</text></a></g><!--SRC=[lLNVJzim47xVNt63Xu6Wpey2ObLLgIkCCNNIHCjJwOFh78bLnyvifrF7-Dzd9w4mGAX5R7c9uljyzzrtdt8001zWe8gbvcbcmIgm6JTm-Mq8L2QGeaHDBIR0SvgYWHaA9LDJ0n5eQJEbGLrNNqnfZQPGCk4oXQzqGS6eKZCqvDqxg4gDxxB_fEP1zjdI7vue9j32pc3t0QKuZ8vQSHWVmPWAarCu7un9a-t-JanYSW0kj-0CfN4fIvcWhcZr2yhSQrX7zc61sd0btPsmoUDRPKfQogM1WcfhV4lV1PNMSus8gtz8eX1s-gFXt-J2ZnMvVUXhISi4BjIFSjNl-qBJr54MTAbA2oP7IoMjOyQnbZHtUb668tHLgNLIIYMnYcSyGS2yi4kuvYWIy_ZK9SkKEwxEcQ36m5RNy5_OYGvw9zpGcS0pfLA1VJSbb9OpNs6WCV4VL8nGBvmcLxAv5VQOoab6sJnk4yOfCJM0yBmGX3BhH2EbEzm2DxmriMG39Z2PR80ccSt5T0etbG3-sIkqScOp3M1ddMGNwETbTpkm7jhRs-2gv3RJw1pSBmhXiQxhquM3VbRwTIG6pwPhue-hdcgjz1sbdTUqS5kxXywCrMveJspKRmAVIiFblRBdRiYRsSP1SYNNDKwD9YzKxsuWw_v6klIS2ma9QWh12nIU-k_cJiVRjvlGytd_ezyQYxp9rA3xkzNw5t-EccFNsAN0tagtQwMism7t0_BFbsM1UiZbVA24-zzk7pyVlVJhGxW6tCPYSzy7X2laRLqkU52lgNKb9vFCsi9qWY3bDYjdNfR0LgkhnPaDobmazSvwjBscqsORdQtMejyihV2W5KNZwB0JjZkXMqNnyU5nr3vgxuLn9mmdfwLM1GOZgzWyKoAV_W40]--></g></svg>