<svg xmlns="http://www.w3.org/2000/svg" xmlns:xlink="http://www.w3.org/1999/xlink" contentStyleType="text/css" height="293px" preserveAspectRatio="none" style="width:738px;height:293px;background:#FFFFFF;" version="1.1" viewBox="0 0 738 293" width="738px" zoomAndPan="magnify"><defs/><g><!--class com.hack23.cia.web.impl.ui.application.views.common.menufactory.impl.DocumentMenuItemFactoryImpl--><a href="DocumentMenuItemFactoryImpl.html" target="_top" title="DocumentMenuItemFactoryImpl.html" xlink:actuate="onRequest" xlink:href="DocumentMenuItemFactoryImpl.html" xlink:show="new" xlink:title="DocumentMenuItemFactoryImpl.html" xlink:type="simple"><g id="elem_com.hack23.cia.web.impl.ui.application.views.common.menufactory.impl.DocumentMenuItemFactoryImpl"><rect codeLine="13" fill="#F1F1F1" height="107.8917" id="com.hack23.cia.web.impl.ui.application.views.common.menufactory.impl.DocumentMenuItemFactoryImpl" rx="2.5" ry="2.5" style="stroke:#181818;stroke-width:0.5;" width="374.8097" x="182.5" y="156"/><ellipse cx="197.5" cy="177.344" fill="#ADD1B2" rx="11" ry="11" style="stroke:#181818;stroke-width:1.0;"/><path d="M200.4688,182.9846 Q199.8906,183.2815 199.25,183.4221 Q198.6094,183.5783 197.9063,183.5783 Q195.4063,183.5783 194.0781,181.9377 Q192.7656,180.2815 192.7656,177.1565 Q192.7656,174.0315 194.0781,172.3752 Q195.4063,170.719 197.9063,170.719 Q198.6094,170.719 199.25,170.8752 Q199.9063,171.0315 200.4688,171.3283 L200.4688,174.0471 Q199.8438,173.469 199.25,173.2033 Q198.6563,172.9221 198.0313,172.9221 Q196.6875,172.9221 196,174.0002 Q195.3125,175.0627 195.3125,177.1565 Q195.3125,179.2502 196,180.3283 Q196.6875,181.3908 198.0313,181.3908 Q198.6563,181.3908 199.25,181.1252 Q199.8438,180.844 200.4688,180.2658 L200.4688,182.9846 Z " fill="#000000"/><text fill="#000000" font-family="sans-serif" font-size="14" lengthAdjust="spacing" textLength="215.7812" x="275.0143" y="175.9659">DocumentMenuItemFactoryImpl</text><text fill="#000000" font-family="sans-serif" font-size="10" lengthAdjust="spacing" textLength="342.8097" x="211.5" y="190.7579">com.hack23.cia.web.impl.ui.application.views.common.menufactory.impl</text><line style="stroke:#181818;stroke-width:0.5;" x1="183.5" x2="556.3097" y1="198.6879" y2="198.6879"/><ellipse cx="193.5" cy="213.7219" fill="#84BE84" rx="3" ry="3" style="stroke:#038048;stroke-width:1.0;"/><text fill="#000000" font-family="sans-serif" font-size="14" lengthAdjust="spacing" textLength="321.6068" x="202.5" y="217.6538">createDocumentMenuBar(MenuBar, String): void</text><ellipse cx="193.5" cy="232.7898" fill="#84BE84" rx="3" ry="3" style="stroke:#038048;stroke-width:1.0;"/><text fill="#000000" font-family="sans-serif" font-size="14" lengthAdjust="spacing" textLength="281.5249" x="202.5" y="236.7218">createDocumentsMenuBar(MenuBar): void</text><ellipse cx="193.5" cy="251.8577" fill="#84BE84" rx="3" ry="3" style="stroke:#038048;stroke-width:1.0;"/><text fill="#000000" font-family="sans-serif" font-size="14" lengthAdjust="spacing" textLength="319.1989" x="202.5" y="255.7897">createOverviewPage(VerticalLayout, String): void</text></g></a><!--class com.hack23.cia.web.impl.ui.application.views.common.menufactory.impl.AbstractMenuItemFactoryImpl--><a href="AbstractMenuItemFactoryImpl.html" target="_top" title="AbstractMenuItemFactoryImpl.html" xlink:actuate="onRequest" xlink:href="AbstractMenuItemFactoryImpl.html" xlink:show="new" xlink:title="AbstractMenuItemFactoryImpl.html" xlink:type="simple"><g id="elem_com.hack23.cia.web.impl.ui.application.views.common.menufactory.impl.AbstractMenuItemFactoryImpl"><rect codeLine="19" fill="#F1F1F1" height="42.6879" id="com.hack23.cia.web.impl.ui.application.views.common.menufactory.impl.AbstractMenuItemFactoryImpl" rx="2.5" ry="2.5" style="stroke:#181818;stroke-width:0.5;" width="356.1796" x="6" y="44.5"/><ellipse cx="21" cy="65.844" fill="#A9DCDF" rx="11" ry="11" style="stroke:#181818;stroke-width:1.0;"/><path d="M21.1094,61.1877 L19.9531,66.2658 L22.2813,66.2658 L21.1094,61.1877 Z M19.625,58.9533 L22.6094,58.9533 L25.9688,71.344 L23.5156,71.344 L22.75,68.2815 L19.4688,68.2815 L18.7188,71.344 L16.2813,71.344 L19.625,58.9533 Z " fill="#000000"/><text fill="#000000" font-family="sans-serif" font-size="14" font-style="italic" lengthAdjust="spacing" textLength="188.6913" x="102.7442" y="64.4659">AbstractMenuItemFactoryImpl</text><text fill="#000000" font-family="sans-serif" font-size="10" font-style="italic" lengthAdjust="spacing" textLength="324.1796" x="35" y="79.2579">com.hack23.cia.web.impl.ui.application.views.common.menufactory.impl</text></g></a><!--class com.hack23.cia.web.impl.ui.application.views.common.menufactory.api.DocumentMenuItemFactory--><a href="../api/DocumentMenuItemFactory.html" target="_top" title="../api/DocumentMenuItemFactory.html" xlink:actuate="onRequest" xlink:href="../api/DocumentMenuItemFactory.html" xlink:show="new" xlink:title="../api/DocumentMenuItemFactory.html" xlink:type="simple"><g id="elem_com.hack23.cia.web.impl.ui.application.views.common.menufactory.api.DocumentMenuItemFactory"><rect codeLine="20" fill="#F1F1F1" height="107.8917" id="com.hack23.cia.web.impl.ui.application.views.common.menufactory.api.DocumentMenuItemFactory" rx="2.5" ry="2.5" style="stroke:#181818;stroke-width:0.5;" width="350.5296" x="380.5" y="12"/><ellipse cx="395.5" cy="33.344" fill="#B4A7E5" rx="11" ry="11" style="stroke:#181818;stroke-width:1.0;"/><path d="M391.4219,29.1096 L391.4219,26.9533 L398.8125,26.9533 L398.8125,29.1096 L396.3438,29.1096 L396.3438,37.1877 L398.8125,37.1877 L398.8125,39.344 L391.4219,39.344 L391.4219,37.1877 L393.8906,37.1877 L393.8906,29.1096 L391.4219,29.1096 Z " fill="#000000"/><text fill="#000000" font-family="sans-serif" font-size="14" font-style="italic" lengthAdjust="spacing" textLength="172.6614" x="482.4341" y="31.9659">DocumentMenuItemFactory</text><text fill="#000000" font-family="sans-serif" font-size="10" font-style="italic" lengthAdjust="spacing" textLength="318.5296" x="409.5" y="46.7579">com.hack23.cia.web.impl.ui.application.views.common.menufactory.api</text><line style="stroke:#181818;stroke-width:0.5;" x1="381.5" x2="730.0296" y1="54.6879" y2="54.6879"/><ellipse cx="391.5" cy="69.7219" fill="#84BE84" rx="3" ry="3" style="stroke:#038048;stroke-width:1.0;"/><text fill="#000000" font-family="sans-serif" font-size="14" font-style="italic" lengthAdjust="spacing" textLength="301.7549" x="400.5" y="73.6538">createDocumentMenuBar(MenuBar, String): void</text><ellipse cx="391.5" cy="88.7898" fill="#84BE84" rx="3" ry="3" style="stroke:#038048;stroke-width:1.0;"/><text fill="#000000" font-family="sans-serif" font-size="14" font-style="italic" lengthAdjust="spacing" textLength="263.465" x="400.5" y="92.7218">createDocumentsMenuBar(MenuBar): void</text><ellipse cx="391.5" cy="107.8577" fill="#84BE84" rx="3" ry="3" style="stroke:#038048;stroke-width:1.0;"/><text fill="#000000" font-family="sans-serif" font-size="14" font-style="italic" lengthAdjust="spacing" textLength="300.0049" x="400.5" y="111.7897">createOverviewPage(VerticalLayout, String): void</text></g></a><polygon fill="none" points="211.046,87.648,221.7123,103.3398,228.9941,93.8016,211.046,87.648" style="stroke:#181818;stroke-width:1.0;"/><path d="M225.3532,98.5707 C248.7284,116.4163 269.2494,132.0829 300.3519,155.8278 " fill="none" style="stroke:#181818;stroke-width:1.0;"/><polygon fill="none" points="486.476,120.0775,468.5279,126.2311,475.8097,135.7692,486.476,120.0775" style="stroke:#181818;stroke-width:1.0;"/><path d="M472.1688,131.0002 C456.7943,142.7377 454.811,144.2518 439.4398,155.9868 " fill="none" style="stroke:#181818;stroke-width:1.0;stroke-dasharray:7.0,7.0;"/><text fill="#888888" font-family="sans-serif" font-size="10" lengthAdjust="spacing" textLength="2.6" x="363.95" y="268.69">&#160;</text><a href="https://github.com/talsma-ict/umldoclet" target="_top" title="https://github.com/talsma-ict/umldoclet" xlink:actuate="onRequest" xlink:href="https://github.com/talsma-ict/umldoclet" xlink:show="new" xlink:title="https://github.com/talsma-ict/umldoclet" xlink:type="simple"><text fill="#888888" font-family="sans-serif" font-size="10" lengthAdjust="spacing" textLength="76.7199" x="326.89" y="282.31">UMLDoclet 2.2.1</text></a><!--SRC=[rLPDJzj04BttLqpf0H1axPW8Q1GXfUaNLL1H4te973RhIRpAUjVTNGUbm7_ls35f2YH8A1pgY-MTcJSpRvuz1W3OXex9PbQE4m_UW4-aWukpBd0TmnWrMkun1fdoCJeOeZ9wxEQE23ptYR5WHkMJCDQYouoEfHx3Dpxbu4nk1JhsvWsKgVhtwDVSBQ4FPyNXHoCKUjZfx2wL58NrmreKHeVGvygb74uxVLQX_Os9MCJgGDXA2jIE87CTeotBQcTSqAqxj-p35AsJHbDCME4KhGgZFPVQGSQjTqLBvufhNzHQPvI_mOvWfzth_bjR-BwiRH_QLlCyXX_cLxvezsrc-PWgLdncSWykHSyrdziS5QrvIdHnWJsafDmJazfeBEs9Z14mpVmCHX9Lx1wU4bXYwBWy5uex1rij9tzZizuu8LRo5BK_GvsVUam_Sq7eizCqKvUwyWfFX4bPmiKaEc12SdQDGoR9W-MIyImZ9haddjXKuhLZv9pI0w7cepbQwRm5DCXD0B4rDSDWiCRA4f-ggokuAQaehZrXaNIr7FE1svtglWyzRqcXkqsO6XclYd8FmbQuVoSv5OsTq_knynEjfsvLjvpuKudkvWFZG-SjjV1eSktAy3zDRatDDBarrcfo9IDIUxG4Yy_BU8D4y4nkX0V2MILWee2nW1o25GwFzNjpBu-x5qfvDS1pgduS-JA1lxgmMhUrsgj_U3RIoZfjj6uPU_qkoZPQpiyKdYmcFJA6thWbrHNNrrc6jYlrf6CKhQDtnqzRBuhbggH6skTYef4-OU72yswUBbZAL-Mwr8D1udtcca4mbZx9XqKxWIyNUqqA7-IfYkSR_S5khxuIs_1byTDGBDvQ6DN2WtxzeDc8cc746j5X8pm-Eexsmdep30UVScio37hUY4bYL7hr1m00]--></g></svg>