<svg xmlns="http://www.w3.org/2000/svg" xmlns:xlink="http://www.w3.org/1999/xlink" contentStyleType="text/css" height="255px" preserveAspectRatio="none" style="width:802px;height:255px;background:#FFFFFF;" version="1.1" viewBox="0 0 802 255" width="802px" zoomAndPan="magnify"><defs/><g><!--class com.hack23.cia.web.impl.ui.application.views.common.menufactory.impl.GovernmentBodyMenuItemFactoryImpl--><a href="GovernmentBodyMenuItemFactoryImpl.html" target="_top" title="GovernmentBodyMenuItemFactoryImpl.html" xlink:actuate="onRequest" xlink:href="GovernmentBodyMenuItemFactoryImpl.html" xlink:show="new" xlink:title="GovernmentBodyMenuItemFactoryImpl.html" xlink:type="simple"><g id="elem_com.hack23.cia.web.impl.ui.application.views.common.menufactory.impl.GovernmentBodyMenuItemFactoryImpl"><rect codeLine="13" fill="#F1F1F1" height="88.8237" id="com.hack23.cia.web.impl.ui.application.views.common.menufactory.impl.GovernmentBodyMenuItemFactoryImpl" rx="2.5" ry="2.5" style="stroke:#181818;stroke-width:0.5;" width="441.7565" x="165" y="137"/><ellipse cx="210.2234" cy="158.344" fill="#ADD1B2" rx="11" ry="11" style="stroke:#181818;stroke-width:1.0;"/><path d="M213.1921,163.9846 Q212.614,164.2815 211.9734,164.4221 Q211.3328,164.5783 210.6296,164.5783 Q208.1296,164.5783 206.8015,162.9377 Q205.489,161.2815 205.489,158.1565 Q205.489,155.0315 206.8015,153.3752 Q208.1296,151.719 210.6296,151.719 Q211.3328,151.719 211.9734,151.8752 Q212.6296,152.0315 213.1921,152.3283 L213.1921,155.0471 Q212.5671,154.469 211.9734,154.2033 Q211.3796,153.9221 210.7546,153.9221 Q209.4109,153.9221 208.7234,155.0002 Q208.0359,156.0627 208.0359,158.1565 Q208.0359,160.2502 208.7234,161.3283 Q209.4109,162.3908 210.7546,162.3908 Q211.3796,162.3908 211.9734,162.1252 Q212.5671,161.844 213.1921,161.2658 L213.1921,163.9846 Z " fill="#000000"/><text fill="#000000" font-family="sans-serif" font-size="14" lengthAdjust="spacing" textLength="263.143" x="270.5567" y="156.9659">GovernmentBodyMenuItemFactoryImpl</text><text fill="#000000" font-family="sans-serif" font-size="10" lengthAdjust="spacing" textLength="342.8097" x="230.7234" y="171.7579">com.hack23.cia.web.impl.ui.application.views.common.menufactory.impl</text><line style="stroke:#181818;stroke-width:0.5;" x1="166" x2="605.7565" y1="179.6879" y2="179.6879"/><ellipse cx="176" cy="194.7219" fill="#84BE84" rx="3" ry="3" style="stroke:#038048;stroke-width:1.0;"/><text fill="#000000" font-family="sans-serif" font-size="14" lengthAdjust="spacing" textLength="415.7565" x="185" y="198.6538">createGovernmentBodyMenuBar(MenuBar, String, String): void</text><ellipse cx="176" cy="213.7898" fill="#84BE84" rx="3" ry="3" style="stroke:#038048;stroke-width:1.0;"/><text fill="#000000" font-family="sans-serif" font-size="14" lengthAdjust="spacing" textLength="319.1989" x="185" y="217.7218">createOverviewPage(VerticalLayout, String): void</text></g></a><!--class com.hack23.cia.web.impl.ui.application.views.common.menufactory.impl.AbstractMenuItemFactoryImpl--><a href="AbstractMenuItemFactoryImpl.html" target="_top" title="AbstractMenuItemFactoryImpl.html" xlink:actuate="onRequest" xlink:href="AbstractMenuItemFactoryImpl.html" xlink:show="new" xlink:title="AbstractMenuItemFactoryImpl.html" xlink:type="simple"><g id="elem_com.hack23.cia.web.impl.ui.application.views.common.menufactory.impl.AbstractMenuItemFactoryImpl"><rect codeLine="18" fill="#F1F1F1" height="42.6879" id="com.hack23.cia.web.impl.ui.application.views.common.menufactory.impl.AbstractMenuItemFactoryImpl" rx="2.5" ry="2.5" style="stroke:#181818;stroke-width:0.5;" width="356.1796" x="6" y="35"/><ellipse cx="21" cy="56.344" fill="#A9DCDF" rx="11" ry="11" style="stroke:#181818;stroke-width:1.0;"/><path d="M21.1094,51.6877 L19.9531,56.7658 L22.2813,56.7658 L21.1094,51.6877 Z M19.625,49.4533 L22.6094,49.4533 L25.9688,61.844 L23.5156,61.844 L22.75,58.7815 L19.4688,58.7815 L18.7188,61.844 L16.2813,61.844 L19.625,49.4533 Z " fill="#000000"/><text fill="#000000" font-family="sans-serif" font-size="14" font-style="italic" lengthAdjust="spacing" textLength="188.6913" x="102.7442" y="54.9659">AbstractMenuItemFactoryImpl</text><text fill="#000000" font-family="sans-serif" font-size="10" font-style="italic" lengthAdjust="spacing" textLength="324.1796" x="35" y="69.7579">com.hack23.cia.web.impl.ui.application.views.common.menufactory.impl</text></g></a><!--class com.hack23.cia.web.impl.ui.application.views.common.menufactory.api.GovernmentBodyMenuItemFactory--><a href="../api/GovernmentBodyMenuItemFactory.html" target="_top" title="../api/GovernmentBodyMenuItemFactory.html" xlink:actuate="onRequest" xlink:href="../api/GovernmentBodyMenuItemFactory.html" xlink:show="new" xlink:title="../api/GovernmentBodyMenuItemFactory.html" xlink:type="simple"><g id="elem_com.hack23.cia.web.impl.ui.application.views.common.menufactory.api.GovernmentBodyMenuItemFactory"><rect codeLine="19" fill="#F1F1F1" height="88.8237" id="com.hack23.cia.web.impl.ui.application.views.common.menufactory.api.GovernmentBodyMenuItemFactory" rx="2.5" ry="2.5" style="stroke:#181818;stroke-width:0.5;" width="415.9265" x="380" y="12"/><ellipse cx="424.4485" cy="33.344" fill="#B4A7E5" rx="11" ry="11" style="stroke:#181818;stroke-width:1.0;"/><path d="M420.3703,29.1096 L420.3703,26.9533 L427.761,26.9533 L427.761,29.1096 L425.2922,29.1096 L425.2922,37.1877 L427.761,37.1877 L427.761,39.344 L420.3703,39.344 L420.3703,37.1877 L422.8391,37.1877 L422.8391,29.1096 L420.3703,29.1096 Z " fill="#000000"/><text fill="#000000" font-family="sans-serif" font-size="14" font-style="italic" lengthAdjust="spacing" textLength="216.4952" x="495.9657" y="31.9659">GovernmentBodyMenuItemFactory</text><text fill="#000000" font-family="sans-serif" font-size="10" font-style="italic" lengthAdjust="spacing" textLength="318.5296" x="444.9485" y="46.7579">com.hack23.cia.web.impl.ui.application.views.common.menufactory.api</text><line style="stroke:#181818;stroke-width:0.5;" x1="381" x2="794.9265" y1="54.6879" y2="54.6879"/><ellipse cx="391" cy="69.7219" fill="#84BE84" rx="3" ry="3" style="stroke:#038048;stroke-width:1.0;"/><text fill="#000000" font-family="sans-serif" font-size="14" font-style="italic" lengthAdjust="spacing" textLength="389.9265" x="400" y="73.6538">createGovernmentBodyMenuBar(MenuBar, String, String): void</text><ellipse cx="391" cy="88.7898" fill="#84BE84" rx="3" ry="3" style="stroke:#038048;stroke-width:1.0;"/><text fill="#000000" font-family="sans-serif" font-size="14" font-style="italic" lengthAdjust="spacing" textLength="300.0049" x="400" y="92.7218">createOverviewPage(VerticalLayout, String): void</text></g></a><polygon fill="none" points="217.8103,78.0874,230.0639,92.5736,236.3048,82.3242,217.8103,78.0874" style="stroke:#181818;stroke-width:1.0;"/><path d="M233.1844,87.4489 C259.4657,103.4519 281.4812,116.8574 314.3359,136.8629 " fill="none" style="stroke:#181818;stroke-width:1.0;"/><polygon fill="none" points="516.4981,101.0383,498.0035,105.2751,504.2445,115.5245,516.4981,101.0383" style="stroke:#181818;stroke-width:1.0;"/><path d="M501.124,110.3998 C482.0569,122.0099 476.8265,125.1947 457.7464,136.8128 " fill="none" style="stroke:#181818;stroke-width:1.0;stroke-dasharray:7.0,7.0;"/><text fill="#888888" font-family="sans-serif" font-size="10" lengthAdjust="spacing" textLength="2.6" x="396.2" y="230.69">&#160;</text><a href="https://github.com/talsma-ict/umldoclet" target="_top" title="https://github.com/talsma-ict/umldoclet" xlink:actuate="onRequest" xlink:href="https://github.com/talsma-ict/umldoclet" xlink:show="new" xlink:title="https://github.com/talsma-ict/umldoclet" xlink:type="simple"><text fill="#888888" font-family="sans-serif" font-size="10" lengthAdjust="spacing" textLength="76.7199" x="359.14" y="244.31">UMLDoclet 2.2.1</text></a><!--SRC=[rLPHJzim47xdLzpO0qLG9msmGbKXbMvZJ4L3A-obyE0cryQgOsUsKvG1_tsND7GTHMMQEgJbnOhl_DrtTrzy0G3OWgvESoF6iGEdmSN2mjLv3xYAO8mA3NSOWKZu62qCKMerjZD719wvM1lGe_8jrCQWJRMAX1h3PpxbO7LcGhHiOmFAK9UFwBVSBg0FysBplGubEgXrjnSe1NxZNJtmWmEuvD8c7Cwwbwn2-tKcO05h065B4QAo19cf24r9gvFoa9RUpB8BKpHMQ4Ld_0gdI3NKod6XBAJSE5kaT26vSWNN1gFu-wm9jKw_zpit_wZajWiTetWMmLVzFPkd-oOrV4oC9Szrvi0cwBZYCvibqeedL2uUOXyfA7TKIQKLblPOH0YOf2w7aK0PsQUx11PhsYxtGycjXSss5J-mrTW_FjMKf4fGkHCTvUUeiZE7oKSUKepyB4dbjQfy_UDG9opcuIJOOw7Wx1Q7J907omJZQKhrv8wgnQO2RoqZvuHU23aRpT1AvqsWTgu3YBt870Q35trOx19vSmDtPN6APoSqI4fRFdd2JQrQTw7l32dtSTrkmLIBw2d65u8eShYW3wBs3OsZn6IlRF5p9nzc7U93wmmnN6fLfpByJqrQmPdQiy9QDQQiY50E3S7Yd-fsZUNWgLXBDGXdjMAf78nvvEQjT5iMxDsZO1xMejrbkB-JyJ-NJ_k-Nd-bcsGj2RsiWFOzOw-LKPbIsxfSul6yzoEjwKjRq5RnVCfJD3sX9bqjQUwyFNpUUbLCKIaKqk0E9mhfwlBddW-pSDv2l2hMjHeCOkTIs_AyiN1nDYoIybmvmUiYT5wMo6WskfyCyUfss8BJ-Tz1CM7hVhFUsBji-FJvj_mcs_SFZXh-OJFOyOEMxmy-P4QdwFMT3YUnbidDJm00]--></g></svg>