<?xml version="1.0" encoding="UTF-8" standalone="no"?><svg xmlns="http://www.w3.org/2000/svg" xmlns:xlink="http://www.w3.org/1999/xlink" contentStyleType="text/css" height="449px" preserveAspectRatio="none" style="width:1189px;height:449px;background:#FFFFFF;" version="1.1" viewBox="0 0 1189 449" width="1189px" zoomAndPan="magnify"><defs/><g><!--MD5=[9172f4df071df4ab8d9e939623be3be2]
cluster com.hack23.cia.web.impl.ui.application.views.common.converters--><g id="cluster_com.hack23.cia.web.impl.ui.application.views.common.converters"><path d="M235.5,227 L758.5,227 A3.75,3.75 0 0 1 761,229.5 L768,249.2969 L768.5,249.2969 A2.5,2.5 0 0 1 771,251.7969 L771,421.5 A2.5,2.5 0 0 1 768.5,424 L235.5,424 A2.5,2.5 0 0 1 233,421.5 L233,229.5 A2.5,2.5 0 0 1 235.5,227 " style="stroke:#000000;stroke-width:1.5;fill:none;"/><line style="stroke:#000000;stroke-width:1.5;fill:none;" x1="233" x2="768" y1="249.2969" y2="249.2969"/><text fill="#000000" font-family="sans-serif" font-size="14" font-weight="bold" lengthAdjust="spacing" textLength="522" x="237" y="241.9951">com.hack23.cia.web.impl.ui.application.views.common.converters</text></g><!--MD5=[a709f92e7afed3e2534b1458593faadc]
cluster com.vaadin.data--><g id="cluster_com.vaadin.data"><path d="M8.5,6 L137.5,6 A3.75,3.75 0 0 1 140,8.5 L147,28.2969 L1179.5,28.2969 A2.5,2.5 0 0 1 1182,30.7969 L1182,200.5 A2.5,2.5 0 0 1 1179.5,203 L8.5,203 A2.5,2.5 0 0 1 6,200.5 L6,8.5 A2.5,2.5 0 0 1 8.5,6 " style="stroke:#000000;stroke-width:1.5;fill:none;"/><line style="stroke:#000000;stroke-width:1.5;fill:none;" x1="6" x2="147" y1="28.2969" y2="28.2969"/><text fill="#000000" font-family="sans-serif" font-size="14" font-weight="bold" lengthAdjust="spacing" textLength="128" x="10" y="20.9951">com.vaadin.data</text></g><!--MD5=[e3e85904e90eac2a36a39b07f5536001]
class com.hack23.cia.web.impl.ui.application.views.common.converters.ListPropertyConverter--><a href="ListPropertyConverter.html" target="_top" title="ListPropertyConverter.html" xlink:actuate="onRequest" xlink:href="ListPropertyConverter.html" xlink:show="new" xlink:title="ListPropertyConverter.html" xlink:type="simple"><g id="elem_com.hack23.cia.web.impl.ui.application.views.common.converters.ListPropertyConverter"><rect codeLine="3" fill="#F1F1F1" height="145.7813" id="com.hack23.cia.web.impl.ui.application.views.common.converters.ListPropertyConverter" rx="2.5" ry="2.5" style="stroke:#181818;stroke-width:0.5;" width="419" x="292.5" y="262"/><ellipse cx="423.25" cy="278" fill="#ADD1B2" rx="11" ry="11" style="stroke:#181818;stroke-width:1.0;"/><path d="M426.2188,283.6406 Q425.6406,283.9375 425,284.0781 Q424.3594,284.2344 423.6563,284.2344 Q421.1563,284.2344 419.8281,282.5938 Q418.5156,280.9375 418.5156,277.8125 Q418.5156,274.6875 419.8281,273.0313 Q421.1563,271.375 423.6563,271.375 Q424.3594,271.375 425,271.5313 Q425.6563,271.6875 426.2188,271.9844 L426.2188,274.7031 Q425.5938,274.125 425,273.8594 Q424.4063,273.5781 423.7813,273.5781 Q422.4375,273.5781 421.75,274.6563 Q421.0625,275.7188 421.0625,277.8125 Q421.0625,279.9063 421.75,280.9844 Q422.4375,282.0469 423.7813,282.0469 Q424.4063,282.0469 425,281.7813 Q425.5938,281.5 426.2188,280.9219 L426.2188,283.6406 Z " fill="#000000"/><text fill="#000000" font-family="sans-serif" font-size="14" lengthAdjust="spacing" textLength="149" x="443.75" y="282.8467">ListPropertyConverter</text><line style="stroke:#181818;stroke-width:0.5;" x1="293.5" x2="710.5" y1="294" y2="294"/><line style="stroke:#181818;stroke-width:0.5;" x1="293.5" x2="710.5" y1="302" y2="302"/><ellipse cx="303.5" cy="313" fill="#84BE84" rx="3" ry="3" style="stroke:#038048;stroke-width:1.0;"/><text fill="#000000" font-family="sans-serif" font-size="14" lengthAdjust="spacing" textLength="247" x="312.5" y="318.9951">ListPropertyConverter(String, String)</text><ellipse cx="303.5" cy="329.2969" fill="#84BE84" rx="3" ry="3" style="stroke:#038048;stroke-width:1.0;"/><text fill="#000000" font-family="sans-serif" font-size="14" lengthAdjust="spacing" textLength="295" x="312.5" y="335.292">ListPropertyConverter(String, String, String)</text><ellipse cx="303.5" cy="345.5938" fill="#84BE84" rx="3" ry="3" style="stroke:#038048;stroke-width:1.0;"/><text fill="#000000" font-family="sans-serif" font-size="14" lengthAdjust="spacing" textLength="140" x="312.5" y="351.5889">apply(Object): String</text><ellipse cx="303.5" cy="361.8906" fill="#84BE84" rx="3" ry="3" style="stroke:#038048;stroke-width:1.0;"/><text fill="#000000" font-family="sans-serif" font-size="14" lengthAdjust="spacing" textLength="393" x="312.5" y="367.8857">convertToModel(String, ValueContext): Result&lt;List&lt;?&gt;&gt;</text><ellipse cx="303.5" cy="378.1875" fill="#84BE84" rx="3" ry="3" style="stroke:#038048;stroke-width:1.0;"/><text fill="#000000" font-family="sans-serif" font-size="14" lengthAdjust="spacing" textLength="340" x="312.5" y="384.1826">convertToPresentation(List, ValueContext): String</text><ellipse cx="303.5" cy="394.4844" fill="#84BE84" rx="3" ry="3" style="stroke:#038048;stroke-width:1.0;"/><text fill="#000000" font-family="sans-serif" font-size="14" lengthAdjust="spacing" textLength="135" x="312.5" y="400.4795">getColumn(): String</text></g></a><!--MD5=[50e48f68f5e6b9ef20d8319f32974b87]
class com.vaadin.data.Converter--><g id="elem_com.vaadin.data.Converter"><rect codeLine="17" fill="#F1F1F1" height="145.7813" id="com.vaadin.data.Converter" rx="2.5" ry="2.5" style="stroke:#181818;stroke-width:0.5;" width="870" x="296" y="41"/><ellipse cx="619.75" cy="57" fill="#B4A7E5" rx="11" ry="11" style="stroke:#181818;stroke-width:1.0;"/><path d="M615.6719,52.7656 L615.6719,50.6094 L623.0625,50.6094 L623.0625,52.7656 L620.5938,52.7656 L620.5938,60.8438 L623.0625,60.8438 L623.0625,63 L615.6719,63 L615.6719,60.8438 L618.1406,60.8438 L618.1406,52.7656 L615.6719,52.7656 Z " fill="#000000"/><text fill="#000000" font-family="sans-serif" font-size="14" font-style="italic" lengthAdjust="spacing" textLength="69" x="640.25" y="61.8467">Converter</text><rect fill="#FFFFFF" height="15.9688" style="stroke:#000000;stroke-width:1.0;stroke-dasharray:2.0,2.0;" width="143" x="1026" y="38"/><text fill="#000000" font-family="sans-serif" font-size="12" font-style="italic" lengthAdjust="spacing" textLength="141" x="1027" y="50.1387">PRESENTATION, MODEL</text><line style="stroke:#181818;stroke-width:0.5;" x1="297" x2="1165" y1="73" y2="73"/><line style="stroke:#181818;stroke-width:0.5;" x1="297" x2="1165" y1="81" y2="81"/><ellipse cx="307" cy="92" fill="#84BE84" rx="3" ry="3" style="stroke:#038048;stroke-width:1.0;"/><text fill="#000000" font-family="sans-serif" font-size="14" font-style="italic" lengthAdjust="spacing" textLength="462" x="316" y="97.9951">convertToModel(PRESENTATION, ValueContext): Result&lt;MODEL&gt;</text><ellipse cx="307" cy="108.2969" fill="#84BE84" rx="3" ry="3" style="stroke:#038048;stroke-width:1.0;"/><text fill="#000000" font-family="sans-serif" font-size="14" font-style="italic" lengthAdjust="spacing" textLength="439" x="316" y="114.292">convertToPresentation(MODEL, ValueContext): PRESENTATION</text><ellipse cx="307" cy="124.5938" fill="#84BE84" rx="3" ry="3" style="stroke:#038048;stroke-width:1.0;"/><text fill="#000000" font-family="sans-serif" font-size="14" lengthAdjust="spacing" text-decoration="underline" textLength="187" x="316" y="130.5889">identity(): Converter&lt;T, T&gt;</text><ellipse cx="307" cy="140.8906" fill="#84BE84" rx="3" ry="3" style="stroke:#038048;stroke-width:1.0;"/><text fill="#000000" font-family="sans-serif" font-size="14" lengthAdjust="spacing" text-decoration="underline" textLength="844" x="316" y="146.8857">from(SerializableFunction&lt;P, M&gt;, SerializableFunction&lt;M, P&gt;, SerializableFunction&lt;Exception, String&gt;): Converter&lt;P, M&gt;</text><ellipse cx="307" cy="157.1875" fill="#84BE84" rx="3" ry="3" style="stroke:#038048;stroke-width:1.0;"/><text fill="#000000" font-family="sans-serif" font-size="14" lengthAdjust="spacing" text-decoration="underline" textLength="627" x="316" y="163.1826">from(SerializableFunction&lt;P, Result&lt;M&gt;&gt;, SerializableFunction&lt;M, P&gt;): Converter&lt;P, M&gt;</text><ellipse cx="307" cy="173.4844" fill="#84BE84" rx="3" ry="3" style="stroke:#038048;stroke-width:1.0;"/><text fill="#000000" font-family="sans-serif" font-size="14" lengthAdjust="spacing" textLength="431" x="316" y="179.4795">chain(Converter&lt;MODEL, T&gt;): Converter&lt;PRESENTATION, T&gt;</text></g><!--MD5=[f43961016bf2082b8138703d14bf28ba]
class com.vaadin.data.ValueProvider--><g id="elem_com.vaadin.data.ValueProvider"><rect codeLine="25" fill="#F1F1F1" height="80.5938" id="com.vaadin.data.ValueProvider" rx="2.5" ry="2.5" style="stroke:#181818;stroke-width:0.5;" width="239" x="21.5" y="73.5"/><ellipse cx="38.3" cy="89.5" fill="#B4A7E5" rx="11" ry="11" style="stroke:#181818;stroke-width:1.0;"/><path d="M34.2219,85.2656 L34.2219,83.1094 L41.6125,83.1094 L41.6125,85.2656 L39.1438,85.2656 L39.1438,93.3438 L41.6125,93.3438 L41.6125,95.5 L34.2219,95.5 L34.2219,93.3438 L36.6906,93.3438 L36.6906,85.2656 L34.2219,85.2656 Z " fill="#000000"/><text fill="#000000" font-family="sans-serif" font-size="14" font-style="italic" lengthAdjust="spacing" textLength="95" x="52.7" y="94.3467">ValueProvider</text><rect fill="#FFFFFF" height="15.9688" style="stroke:#000000;stroke-width:1.0;stroke-dasharray:2.0,2.0;" width="106" x="157.5" y="70.5"/><text fill="#000000" font-family="sans-serif" font-size="12" font-style="italic" lengthAdjust="spacing" textLength="104" x="158.5" y="82.6387">SOURCE, TARGET</text><line style="stroke:#181818;stroke-width:0.5;" x1="22.5" x2="259.5" y1="105.5" y2="105.5"/><line style="stroke:#181818;stroke-width:0.5;" x1="22.5" x2="259.5" y1="113.5" y2="113.5"/><ellipse cx="32.5" cy="124.5" fill="#84BE84" rx="3" ry="3" style="stroke:#038048;stroke-width:1.0;"/><text fill="#000000" font-family="sans-serif" font-size="14" lengthAdjust="spacing" text-decoration="underline" textLength="213" x="41.5" y="130.4951">identity(): ValueProvider&lt;T, T&gt;</text><ellipse cx="32.5" cy="140.7969" fill="#84BE84" rx="3" ry="3" style="stroke:#038048;stroke-width:1.0;"/><text fill="#000000" font-family="sans-serif" font-size="14" font-style="italic" lengthAdjust="spacing" textLength="173" x="41.5" y="146.792">apply(SOURCE): TARGET</text></g><!--MD5=[20be46069b937d5d33a7033af3333da3]
reverse link com.vaadin.data.Converter to com.hack23.cia.web.impl.ui.application.views.common.converters.ListPropertyConverter--><g id="link_com.vaadin.data.Converter_com.hack23.cia.web.impl.ui.application.views.common.converters.ListPropertyConverter"><path codeLine="12" d="M640.98,201.09 C619.91,221.23 597.69,242.49 577.35,261.94 " fill="none" id="com.vaadin.data.Converter-backto-com.hack23.cia.web.impl.ui.application.views.common.converters.ListPropertyConverter" style="stroke:#181818;stroke-width:1.0;stroke-dasharray:7.0,7.0;"/><polygon fill="none" points="636.41,195.78,655.7,187.01,646.08,205.89,636.41,195.78" style="stroke:#181818;stroke-width:1.0;"/></g><!--MD5=[f19c15ef3a99ec44d48099f654a10cb7]
reverse link com.vaadin.data.ValueProvider to com.hack23.cia.web.impl.ui.application.views.common.converters.ListPropertyConverter--><g id="link_com.vaadin.data.ValueProvider_com.hack23.cia.web.impl.ui.application.views.common.converters.ListPropertyConverter"><path codeLine="13" d="M211.71,166.28 C233.03,181.17 256.7,197.15 279,211 C306.7,228.21 336.94,245.71 365.97,261.91 " fill="none" id="com.vaadin.data.ValueProvider-backto-com.hack23.cia.web.impl.ui.application.views.common.converters.ListPropertyConverter" style="stroke:#181818;stroke-width:1.0;stroke-dasharray:7.0,7.0;"/><polygon fill="none" points="207.5,171.88,195.19,154.64,215.57,160.44,207.5,171.88" style="stroke:#181818;stroke-width:1.0;"/></g><rect height="11.6406" style="stroke:#00000000;stroke-width:1.0;fill:none;" width="186" x="494.5" y="430"/><text fill="#888888" font-family="sans-serif" font-size="10" lengthAdjust="spacing" textLength="186" x="494.5" y="439.2822">UMLDoclet 2.0.18, PlantUML 1.2022.6</text><!--MD5=[afb517e2162f30292e48ffff6e6166ac]
@startuml
    namespace com.hack23.cia.web.impl.ui.application.views.common.converters {

        class ListPropertyConverter [[ListPropertyConverter.html]] {
            +ListPropertyConverter(String, String)
            +ListPropertyConverter(String, String, String)
            +apply(Object): String
            +convertToModel(String, ValueContext): Result<List<?>>
            +convertToPresentation(List, ValueContext): String
            +getColumn(): String
        }

        com.vaadin.data.Converter <|.. ListPropertyConverter
        com.vaadin.data.ValueProvider <|.. ListPropertyConverter
    }

    namespace com.vaadin.data {
        interface Converter<PRESENTATION, MODEL> {
            {abstract} +convertToModel(PRESENTATION, ValueContext): Result<MODEL>
            {abstract} +convertToPresentation(MODEL, ValueContext): PRESENTATION
            {static} +identity(): Converter<T, T>
            {static} +from(SerializableFunction<P, M>, SerializableFunction<M, P>, SerializableFunction<Exception, String>): Converter<P, M>
            {static} +from(SerializableFunction<P, Result<M>>, SerializableFunction<M, P>): Converter<P, M>
            +chain(Converter<MODEL, T>): Converter<PRESENTATION, T>
        }
        interface ValueProvider<SOURCE, TARGET> {
            {static} +identity(): ValueProvider<T, T>
            {abstract} +apply(SOURCE): TARGET
        }
    }

    center footer UMLDoclet 2.0.18, PlantUML 1.2022.6
@enduml

PlantUML version 1.2022.6(Tue Jun 21 19:34:49 CEST 2022)
(APACHE source distribution)
Java Runtime: OpenJDK Runtime Environment
JVM: OpenJDK 64-Bit Server VM
Default Encoding: ANSI_X3.4-1968
Language: en
Country: US
--></g></svg>