<?xml version="1.0" encoding="UTF-8" standalone="no"?><svg xmlns="http://www.w3.org/2000/svg" xmlns:xlink="http://www.w3.org/1999/xlink" contentScriptType="application/ecmascript" contentStyleType="text/css" height="401px" preserveAspectRatio="none" style="width:1029px;height:401px;" version="1.1" viewBox="0 0 1029 401" width="1029px" zoomAndPan="magnify"><defs><filter height="300%" id="fc1mzm8ok0ism" width="300%" x="-1" y="-1"><feGaussianBlur result="blurOut" stdDeviation="2.0"/><feColorMatrix in="blurOut" result="blurOut2" type="matrix" values="0 0 0 0 0 0 0 0 0 0 0 0 0 0 0 0 0 0 .4 0"/><feOffset dx="4.0" dy="4.0" in="blurOut2" result="blurOut3"/><feBlend in="SourceGraphic" in2="blurOut3" mode="normal"/></filter></defs><g><!--cluster com.hack23.cia.web.impl.ui.application.views.common.converters--><polygon fill="#FFFFFF" filter="url(#fc1mzm8ok0ism)" points="223,201,751,201,758,223.2969,761,223.2969,761,361,223,361,223,201" style="stroke: #000000; stroke-width: 1.5;"/><line style="stroke: #000000; stroke-width: 1.5;" x1="223" x2="758" y1="223.2969" y2="223.2969"/><text fill="#000000" font-family="sans-serif" font-size="14" font-weight="bold" lengthAdjust="spacingAndGlyphs" textLength="522" x="227" y="215.9951">com.hack23.cia.web.impl.ui.application.views.common.converters</text><!--cluster com.vaadin.data--><polygon fill="#FFFFFF" filter="url(#fc1mzm8ok0ism)" points="14,16,148,16,155,38.2969,1007,38.2969,1007,176,14,176,14,16" style="stroke: #000000; stroke-width: 1.5;"/><line style="stroke: #000000; stroke-width: 1.5;" x1="14" x2="155" y1="38.2969" y2="38.2969"/><text fill="#000000" font-family="sans-serif" font-size="14" font-weight="bold" lengthAdjust="spacingAndGlyphs" textLength="128" x="18" y="30.9951">com.vaadin.data</text><!--class com.hack23.cia.web.impl.ui.application.views.common.converters.ListPropertyConverter--><a href="ListPropertyConverter.html" target="_top" xlink:actuate="onRequest" xlink:show="new" xlink:title="ListPropertyConverter.html" xlink:type="simple"><rect fill="#FEFECE" filter="url(#fc1mzm8ok0ism)" height="124.8281" id="com.hack23.cia.web.impl.ui.application.views.common.converters.ListPropertyConverter" style="stroke: #A80036; stroke-width: 1.5;" width="344" x="320" y="228"/><ellipse cx="420.25" cy="244" fill="#ADD1B2" rx="11" ry="11" style="stroke: #A80036; stroke-width: 1.0;"/><path d="M423.2188,249.6406 Q422.6406,249.9375 422,250.0781 Q421.3594,250.2344 420.6563,250.2344 Q418.1563,250.2344 416.8281,248.5938 Q415.5156,246.9375 415.5156,243.8125 Q415.5156,240.6875 416.8281,239.0313 Q418.1563,237.375 420.6563,237.375 Q421.3594,237.375 422,237.5313 Q422.6563,237.6875 423.2188,237.9844 L423.2188,240.7031 Q422.5938,240.125 422,239.8594 Q421.4063,239.5781 420.7813,239.5781 Q419.4375,239.5781 418.75,240.6563 Q418.0625,241.7188 418.0625,243.8125 Q418.0625,245.9063 418.75,246.9844 Q419.4375,248.0469 420.7813,248.0469 Q421.4063,248.0469 422,247.7813 Q422.5938,247.5 423.2188,246.9219 L423.2188,249.6406 Z "/><text fill="#000000" font-family="sans-serif" font-size="12" lengthAdjust="spacingAndGlyphs" textLength="135" x="440.75" y="248.1543">ListPropertyConverter</text><line style="stroke: #A80036; stroke-width: 1.5;" x1="321" x2="663" y1="260" y2="260"/><line style="stroke: #A80036; stroke-width: 1.5;" x1="321" x2="663" y1="268" y2="268"/><ellipse cx="331" cy="279.9023" fill="#84BE84" rx="3" ry="3" style="stroke: #038048; stroke-width: 1.0;"/><text fill="#000000" font-family="sans-serif" font-size="11" lengthAdjust="spacingAndGlyphs" textLength="208" x="340" y="282.2104">ListPropertyConverter(String, String)</text><ellipse cx="331" cy="292.707" fill="#84BE84" rx="3" ry="3" style="stroke: #038048; stroke-width: 1.0;"/><text fill="#000000" font-family="sans-serif" font-size="11" lengthAdjust="spacingAndGlyphs" textLength="250" x="340" y="295.0151">ListPropertyConverter(String, String, String)</text><ellipse cx="331" cy="305.5117" fill="#84BE84" rx="3" ry="3" style="stroke: #038048; stroke-width: 1.0;"/><text fill="#000000" font-family="sans-serif" font-size="11" lengthAdjust="spacingAndGlyphs" textLength="116" x="340" y="307.8198">apply(Object): String</text><ellipse cx="331" cy="318.3164" fill="#84BE84" rx="3" ry="3" style="stroke: #038048; stroke-width: 1.0;"/><text fill="#000000" font-family="sans-serif" font-size="11" lengthAdjust="spacingAndGlyphs" textLength="318" x="340" y="320.6245">convertToModel(String, ValueContext): Result&lt;List&lt;?&gt;&gt;</text><ellipse cx="331" cy="331.1211" fill="#84BE84" rx="3" ry="3" style="stroke: #038048; stroke-width: 1.0;"/><text fill="#000000" font-family="sans-serif" font-size="11" lengthAdjust="spacingAndGlyphs" textLength="280" x="340" y="333.4292">convertToPresentation(List, ValueContext): String</text><ellipse cx="331" cy="343.9258" fill="#84BE84" rx="3" ry="3" style="stroke: #038048; stroke-width: 1.0;"/><text fill="#000000" font-family="sans-serif" font-size="11" lengthAdjust="spacingAndGlyphs" textLength="111" x="340" y="346.2339">getColumn(): String</text></a><!--class com.vaadin.data.Converter--><rect fill="#FEFECE" filter="url(#fc1mzm8ok0ism)" height="124.8281" id="com.vaadin.data.Converter" style="stroke: #A80036; stroke-width: 1.5;" width="717" x="282.5" y="43"/><ellipse cx="533.75" cy="59" fill="#B4A7E5" rx="11" ry="11" style="stroke: #A80036; stroke-width: 1.0;"/><path d="M529.6719,54.7656 L529.6719,52.6094 L537.0625,52.6094 L537.0625,54.7656 L534.5938,54.7656 L534.5938,62.8438 L537.0625,62.8438 L537.0625,65 L529.6719,65 L529.6719,62.8438 L532.1406,62.8438 L532.1406,54.7656 L529.6719,54.7656 Z "/><text fill="#000000" font-family="sans-serif" font-size="12" font-style="italic" lengthAdjust="spacingAndGlyphs" textLength="61" x="554.25" y="63.1543">Converter</text><rect fill="#FFFFFF" height="15.9688" style="stroke: #000000; stroke-width: 1.0; stroke-dasharray: 2.0,2.0;" width="143" x="859.5" y="40"/><text fill="#000000" font-family="sans-serif" font-size="12" font-style="italic" lengthAdjust="spacingAndGlyphs" textLength="141" x="860.5" y="52.1387">PRESENTATION, MODEL</text><line style="stroke: #A80036; stroke-width: 1.5;" x1="283.5" x2="998.5" y1="75" y2="75"/><line style="stroke: #A80036; stroke-width: 1.5;" x1="283.5" x2="998.5" y1="83" y2="83"/><ellipse cx="293.5" cy="94.9023" fill="#84BE84" rx="3" ry="3" style="stroke: #038048; stroke-width: 1.0;"/><text fill="#000000" font-family="sans-serif" font-size="11" font-style="italic" lengthAdjust="spacingAndGlyphs" textLength="368" x="302.5" y="97.2104">convertToModel(PRESENTATION, ValueContext): Result&lt;MODEL&gt;</text><ellipse cx="293.5" cy="107.707" fill="#84BE84" rx="3" ry="3" style="stroke: #038048; stroke-width: 1.0;"/><text fill="#000000" font-family="sans-serif" font-size="11" font-style="italic" lengthAdjust="spacingAndGlyphs" textLength="353" x="302.5" y="110.0151">convertToPresentation(MODEL, ValueContext): PRESENTATION</text><ellipse cx="293.5" cy="120.5117" fill="#84BE84" rx="3" ry="3" style="stroke: #038048; stroke-width: 1.0;"/><text fill="#000000" font-family="sans-serif" font-size="11" lengthAdjust="spacingAndGlyphs" text-decoration="underline" textLength="153" x="302.5" y="122.8198">identity(): Converter&lt;T, T&gt;</text><ellipse cx="293.5" cy="133.3164" fill="#84BE84" rx="3" ry="3" style="stroke: #038048; stroke-width: 1.0;"/><text fill="#000000" font-family="sans-serif" font-size="11" lengthAdjust="spacingAndGlyphs" text-decoration="underline" textLength="691" x="302.5" y="135.6245">from(SerializableFunction&lt;P, M&gt;, SerializableFunction&lt;M, P&gt;, SerializableFunction&lt;Exception, String&gt;): Converter&lt;P, M&gt;</text><ellipse cx="293.5" cy="146.1211" fill="#84BE84" rx="3" ry="3" style="stroke: #038048; stroke-width: 1.0;"/><text fill="#000000" font-family="sans-serif" font-size="11" lengthAdjust="spacingAndGlyphs" text-decoration="underline" textLength="510" x="302.5" y="148.4292">from(SerializableFunction&lt;P, Result&lt;M&gt;&gt;, SerializableFunction&lt;M, P&gt;): Converter&lt;P, M&gt;</text><ellipse cx="293.5" cy="158.9258" fill="#84BE84" rx="3" ry="3" style="stroke: #038048; stroke-width: 1.0;"/><text fill="#000000" font-family="sans-serif" font-size="11" lengthAdjust="spacingAndGlyphs" textLength="348" x="302.5" y="161.2339">chain(Converter&lt;MODEL, T&gt;): Converter&lt;PRESENTATION, T&gt;</text><!--class com.vaadin.data.ValueProvider--><rect fill="#FEFECE" filter="url(#fc1mzm8ok0ism)" height="73.6094" id="com.vaadin.data.ValueProvider" style="stroke: #A80036; stroke-width: 1.5;" width="225" x="22.5" y="68.5"/><ellipse cx="37.5" cy="84.5" fill="#B4A7E5" rx="11" ry="11" style="stroke: #A80036; stroke-width: 1.0;"/><path d="M33.4219,80.2656 L33.4219,78.1094 L40.8125,78.1094 L40.8125,80.2656 L38.3438,80.2656 L38.3438,88.3438 L40.8125,88.3438 L40.8125,90.5 L33.4219,90.5 L33.4219,88.3438 L35.8906,88.3438 L35.8906,80.2656 L33.4219,80.2656 Z "/><text fill="#000000" font-family="sans-serif" font-size="12" font-style="italic" lengthAdjust="spacingAndGlyphs" textLength="85" x="51.5" y="88.6543">ValueProvider</text><rect fill="#FFFFFF" height="15.9688" style="stroke: #000000; stroke-width: 1.0; stroke-dasharray: 2.0,2.0;" width="106" x="144.5" y="65.5"/><text fill="#000000" font-family="sans-serif" font-size="12" font-style="italic" lengthAdjust="spacingAndGlyphs" textLength="104" x="145.5" y="77.6387">SOURCE, TARGET</text><line style="stroke: #A80036; stroke-width: 1.5;" x1="23.5" x2="246.5" y1="100.5" y2="100.5"/><line style="stroke: #A80036; stroke-width: 1.5;" x1="23.5" x2="246.5" y1="108.5" y2="108.5"/><ellipse cx="33.5" cy="120.4023" fill="#84BE84" rx="3" ry="3" style="stroke: #038048; stroke-width: 1.0;"/><text fill="#000000" font-family="sans-serif" font-size="11" lengthAdjust="spacingAndGlyphs" text-decoration="underline" textLength="175" x="42.5" y="122.7104">identity(): ValueProvider&lt;T, T&gt;</text><ellipse cx="33.5" cy="133.207" fill="#84BE84" rx="3" ry="3" style="stroke: #038048; stroke-width: 1.0;"/><text fill="#000000" font-family="sans-serif" font-size="11" font-style="italic" lengthAdjust="spacingAndGlyphs" textLength="140" x="42.5" y="135.5151">apply(SOURCE): TARGET</text><!--link com.vaadin.data.Converter to com.hack23.cia.web.impl.ui.application.views.common.converters.ListPropertyConverter--><path d="M577.9042,183.8404 C566.0485,198.5606 553.7981,213.7708 542.3927,227.9319 " fill="none" id="com.vaadin.data.Converter-com.hack23.cia.web.impl.ui.application.views.common.converters.ListPropertyConverter" style="stroke: #A80036; stroke-width: 1.0; stroke-dasharray: 7.0,7.0;"/><polygon fill="none" points="572.5585,179.318,590.5554,168.1326,583.4619,188.0996,572.5585,179.318" style="stroke: #A80036; stroke-width: 1.0;"/><!--link com.vaadin.data.ValueProvider to com.hack23.cia.web.impl.ui.application.views.common.converters.ListPropertyConverter--><path d="M220.3781,152.2695 C235.2146,160.2626 250.525,168.4266 265,176 C297.6566,193.0862 333.1599,211.2078 366.1787,227.8715 " fill="none" id="com.vaadin.data.ValueProvider-com.hack23.cia.web.impl.ui.application.views.common.converters.ListPropertyConverter" style="stroke: #A80036; stroke-width: 1.0; stroke-dasharray: 7.0,7.0;"/><polygon fill="none" points="216.8652,158.3279,202.604,142.6556,223.5259,146.0138,216.8652,158.3279" style="stroke: #A80036; stroke-width: 1.0;"/><text fill="#888888" font-family="sans-serif" font-size="10" lengthAdjust="spacingAndGlyphs" textLength="186" x="423.5" y="388.2822">UMLDoclet 2.0.5, PlantUML 1.2019.08</text><!--
@startuml
    namespace com.hack23.cia.web.impl.ui.application.views.common.converters {

        class ListPropertyConverter [[ListPropertyConverter.html]] {
            +ListPropertyConverter(String, String)
            +ListPropertyConverter(String, String, String)
            +apply(Object): String
            +convertToModel(String, ValueContext): Result<List<?>>
            +convertToPresentation(List, ValueContext): String
            +getColumn(): String
        }

        com.vaadin.data.Converter <|.. ListPropertyConverter
        com.vaadin.data.ValueProvider <|.. ListPropertyConverter
    }

    namespace com.vaadin.data {
        interface Converter<PRESENTATION, MODEL> {
            {abstract} +convertToModel(PRESENTATION, ValueContext): Result<MODEL>
            {abstract} +convertToPresentation(MODEL, ValueContext): PRESENTATION
            {static} +identity(): Converter<T, T>
            {static} +from(SerializableFunction<P, M>, SerializableFunction<M, P>, SerializableFunction<Exception, String>): Converter<P, M>
            {static} +from(SerializableFunction<P, Result<M>>, SerializableFunction<M, P>): Converter<P, M>
            +chain(Converter<MODEL, T>): Converter<PRESENTATION, T>
        }
        interface ValueProvider<SOURCE, TARGET> {
            {static} +identity(): ValueProvider<T, T>
            {abstract} +apply(SOURCE): TARGET
        }
    }

    center footer UMLDoclet 2.0.5, PlantUML 1.2019.08
@enduml

PlantUML version 1.2019.08(Sat Jul 13 21:25:14 CEST 2019)
(APACHE source distribution)
Java Runtime: OpenJDK Runtime Environment
JVM: OpenJDK 64-Bit Server VM
Java Version: 11.0.5-ea+10-post-Ubuntu-0ubuntu1
Operating System: Linux
OS Version: 5.3.0-13-generic
Default Encoding: UTF-8
Language: en
Country: US
--></g></svg>