<svg xmlns="http://www.w3.org/2000/svg" xmlns:xlink="http://www.w3.org/1999/xlink" contentStyleType="text/css" height="255px" preserveAspectRatio="none" style="width:635px;height:255px;background:#FFFFFF;" version="1.1" viewBox="0 0 635 255" width="635px" zoomAndPan="magnify"><defs/><g><!--class com.hack23.cia.web.impl.ui.application.views.user.politician.pagemode.PoliticianOverviewPageModContentFactoryImpl--><a href="PoliticianOverviewPageModContentFactoryImpl.html" target="_top" title="PoliticianOverviewPageModContentFactoryImpl.html" xlink:actuate="onRequest" xlink:href="PoliticianOverviewPageModContentFactoryImpl.html" xlink:show="new" xlink:title="PoliticianOverviewPageModContentFactoryImpl.html" xlink:type="simple"><g id="elem_com.hack23.cia.web.impl.ui.application.views.user.politician.pagemode.PoliticianOverviewPageModContentFactoryImpl"><rect codeLine="13" fill="#F1F1F1" height="107.8917" id="com.hack23.cia.web.impl.ui.application.views.user.politician.pagemode.PoliticianOverviewPageModContentFactoryImpl" rx="2.5" ry="2.5" style="stroke:#181818;stroke-width:0.5;" width="622.1457" x="6" y="118"/><ellipse cx="145.583" cy="139.344" fill="#ADD1B2" rx="11" ry="11" style="stroke:#181818;stroke-width:1.0;"/><path d="M148.5517,144.9846 Q147.9736,145.2815 147.333,145.4221 Q146.6924,145.5783 145.9892,145.5783 Q143.4892,145.5783 142.1611,143.9377 Q140.8486,142.2815 140.8486,139.1565 Q140.8486,136.0315 142.1611,134.3752 Q143.4892,132.719 145.9892,132.719 Q146.6924,132.719 147.333,132.8752 Q147.9892,133.0315 148.5517,133.3283 L148.5517,136.0471 Q147.9267,135.469 147.333,135.2033 Q146.7392,134.9221 146.1142,134.9221 Q144.7705,134.9221 144.083,136.0002 Q143.3955,137.0627 143.3955,139.1565 Q143.3955,141.2502 144.083,142.3283 Q144.7705,143.3908 146.1142,143.3908 Q146.7392,143.3908 147.333,143.1252 Q147.9267,142.844 148.5517,142.2658 L148.5517,144.9846 Z " fill="#000000"/><text fill="#000000" font-family="sans-serif" font-size="14" lengthAdjust="spacing" textLength="314.5928" x="176.0264" y="137.9659">PoliticianOverviewPageModContentFactoryImpl</text><text fill="#000000" font-family="sans-serif" font-size="10" lengthAdjust="spacing" textLength="334.4797" x="166.083" y="152.7579">com.hack23.cia.web.impl.ui.application.views.user.politician.pagemode</text><line style="stroke:#181818;stroke-width:0.5;" x1="7" x2="627.1457" y1="160.6879" y2="160.6879"/><ellipse cx="17" cy="175.7219" fill="#84BE84" rx="3" ry="3" style="stroke:#038048;stroke-width:1.0;"/><text fill="#000000" font-family="sans-serif" font-size="14" lengthAdjust="spacing" textLength="305.4228" x="26" y="179.6538">createContent(String, MenuBar, Panel): Layout</text><polygon fill="#FFFF44" points="17,189.7898,21,193.7898,17,197.7898,13,193.7898" style="stroke:#B38D22;stroke-width:1.0;"/><text fill="#000000" font-family="sans-serif" font-size="14" lengthAdjust="spacing" textLength="596.1457" x="26" y="198.7218">getViewRiksdagenPoliticianBallotSummary(String): ViewRiksdagenPoliticianBallotSummary</text><ellipse cx="17" cy="213.8577" fill="#84BE84" rx="3" ry="3" style="stroke:#038048;stroke-width:1.0;"/><text fill="#000000" font-family="sans-serif" font-size="14" lengthAdjust="spacing" textLength="211.5112" x="26" y="217.7897">matches(String, String): boolean</text></g></a><!--class com.hack23.cia.web.impl.ui.application.views.common.pagemode.AbstractItemPageModContentFactoryImpl--><a href="../../../common/pagemode/AbstractItemPageModContentFactoryImpl.html" target="_top" title="../../../common/pagemode/AbstractItemPageModContentFactoryImpl.html" xlink:actuate="onRequest" xlink:href="../../../common/pagemode/AbstractItemPageModContentFactoryImpl.html" xlink:show="new" xlink:title="../../../common/pagemode/AbstractItemPageModContentFactoryImpl.html" xlink:type="simple"><g id="elem_com.hack23.cia.web.impl.ui.application.views.common.pagemode.AbstractItemPageModContentFactoryImpl"><rect codeLine="19" fill="#F1F1F1" height="69.7558" id="com.hack23.cia.web.impl.ui.application.views.common.pagemode.AbstractItemPageModContentFactoryImpl" rx="2.5" ry="2.5" style="stroke:#181818;stroke-width:0.5;" width="457.2766" x="88.5" y="12"/><ellipse cx="103.5" cy="33.344" fill="#A9DCDF" rx="11" ry="11" style="stroke:#181818;stroke-width:1.0;"/><path d="M103.6094,28.6877 L102.4531,33.7658 L104.7813,33.7658 L103.6094,28.6877 Z M102.125,26.4533 L105.1094,26.4533 L108.4688,38.844 L106.0156,38.844 L105.25,35.7815 L101.9688,35.7815 L101.2188,38.844 L98.7813,38.844 L102.125,26.4533 Z " fill="#000000"/><text fill="#000000" font-family="sans-serif" font-size="14" font-style="italic" lengthAdjust="spacing" textLength="261.057" x="133.4813" y="31.9659">AbstractItemPageModContentFactoryImpl</text><text fill="#000000" font-family="sans-serif" font-size="10" font-style="italic" lengthAdjust="spacing" textLength="293.0197" x="117.5" y="46.7579">com.hack23.cia.web.impl.ui.application.views.common.pagemode</text><rect fill="#FFFFFF" height="18.3441" style="stroke:#181818;stroke-width:1.0;stroke-dasharray:2.0,2.0;" width="130.2569" x="418.5197" y="9"/><text fill="#000000" font-family="sans-serif" font-size="12" font-style="italic" lengthAdjust="spacing" textLength="128.2569" x="419.5197" y="22.8281">ViewRiksdagenPolitician</text><line style="stroke:#181818;stroke-width:0.5;" x1="89.5" x2="544.7766" y1="54.6879" y2="54.6879"/><polygon fill="#FFFF44" points="99.5,64.7219,103.5,68.7219,99.5,72.7219,95.5,68.7219" style="stroke:#B38D22;stroke-width:1.0;"/><text fill="#000000" font-family="sans-serif" font-size="14" font-style="italic" lengthAdjust="spacing" textLength="250.2491" x="108.5" y="73.6538">getItem(String): ViewRiksdagenPolitician</text></g></a><polygon fill="none" points="317,82.2624,311,100.2624,323,100.2624,317,82.2624" style="stroke:#181818;stroke-width:1.0;"/><path d="M317,100.2624 C317,111.2092 317,105.5989 317,117.5731 " fill="none" style="stroke:#181818;stroke-width:1.0;"/><text fill="#888888" font-family="sans-serif" font-size="10" lengthAdjust="spacing" textLength="2.6" x="312.2" y="230.69">&#160;</text><a href="https://github.com/talsma-ict/umldoclet" target="_top" title="https://github.com/talsma-ict/umldoclet" xlink:actuate="onRequest" xlink:href="https://github.com/talsma-ict/umldoclet" xlink:show="new" xlink:title="https://github.com/talsma-ict/umldoclet" xlink:type="simple"><text fill="#888888" font-family="sans-serif" font-size="10" lengthAdjust="spacing" textLength="76.7199" x="275.14" y="244.31">UMLDoclet 2.2.1</text></a><!--SRC=[lLNVJzj037xVN-71mq2qbpIK0XL2WkuNKz4GXRsKFhY9QKwzt6Lt5r37-D_d9ALqi6cWiKMHefxjpvy_ksS0W3VGC_dCoadgmHlmgNHmVjm7r0bCI9D5Jmd832VaO4pAw8ch7GcmyAcnO2whNx6nbbnkT2Br13xX5O8pXOt9YLUle4frTeT-ZMu9VJmh3z-QM967jTxw4gKeR7MQKHYruGoLon2EUcTYZdOV4ub8j82nbOn9EuOiT4AsedMGOyoVVcrfm1LP9utcc72EKvOQ6-rHQWSvMk_AaauKQbzoROaolzY6jOD1_sTkuMx5hG47LcEHmAdvMYpAVPrRd31ZXJDJU70PUTHOsnoJrfYnN1ZJW3WfUbPI6qsLFPK90MMvdy6b99MuXwSCbXe-hivZXSx1ofwJtwZRQk-V62MzZ2NgprpjbQJh4sxViKbwN2Lf_nvZpZOxod9reUTHuNviCf5YF8qs1OUAQneBoHwYa0Bpd9L5pxg94iw9mf4L-IAFo3b1PX9Q0UxiYo29PrG1m-4pl4NgCpKQmKqbNlbin9Pu4kUkQmDlUOGRS4owE4JRW1FKfDQxqAzQkGXRdP3_mfbEvTGbd4tVapX4fOmV55c6TZO7P82dUD-poj3pwBe5dmNCs1X5g2lFste6SEoyvHeV3SF1t73aANlnCM3dpFnDzny0Y2UntVkDZFiy1q84zLiZ1tV8mPEG7u_6pPsmjrMxo-W_jdEvB_zU3TZxtcp-__zSNTwUypD5-mkvBetnVF7UwrS-7sSvsRxKqvvHVCkjxlpQUbxUsKfguZKHJpNn68SBpziwNR2KRvxhGW-7gVUvwmR1HFgq69Sw1hxQ5qqP-w38L58lYWShOpIQhu0FYrrKtkVDLjICTivQMzsjJhUzAw9s9snjTyBDZR3L3SFXkyAQd8A1D_4qDIeR_G00]--></g></svg>