<svg xmlns="http://www.w3.org/2000/svg" xmlns:xlink="http://www.w3.org/1999/xlink" contentStyleType="text/css" height="236px" preserveAspectRatio="none" style="width:474px;height:236px;background:#FFFFFF;" version="1.1" viewBox="0 0 474 236" width="474px" zoomAndPan="magnify"><defs/><g><!--class com.hack23.cia.web.impl.ui.application.views.user.politician.pagemode.PoliticianIndicatorsPageModContentFactoryImpl--><a href="PoliticianIndicatorsPageModContentFactoryImpl.html" target="_top" title="PoliticianIndicatorsPageModContentFactoryImpl.html" xlink:actuate="onRequest" xlink:href="PoliticianIndicatorsPageModContentFactoryImpl.html" xlink:show="new" xlink:title="PoliticianIndicatorsPageModContentFactoryImpl.html" xlink:type="simple"><g id="elem_com.hack23.cia.web.impl.ui.application.views.user.politician.pagemode.PoliticianIndicatorsPageModContentFactoryImpl"><rect codeLine="13" fill="#F1F1F1" height="88.8237" id="com.hack23.cia.web.impl.ui.application.views.user.politician.pagemode.PoliticianIndicatorsPageModContentFactoryImpl" rx="2.5" ry="2.5" style="stroke:#181818;stroke-width:0.5;" width="366.4797" x="51.5" y="118"/><ellipse cx="66.5" cy="139.344" fill="#ADD1B2" rx="11" ry="11" style="stroke:#181818;stroke-width:1.0;"/><path d="M69.4688,144.9846 Q68.8906,145.2815 68.25,145.4221 Q67.6094,145.5783 66.9063,145.5783 Q64.4063,145.5783 63.0781,143.9377 Q61.7656,142.2815 61.7656,139.1565 Q61.7656,136.0315 63.0781,134.3752 Q64.4063,132.719 66.9063,132.719 Q67.6094,132.719 68.25,132.8752 Q68.9063,133.0315 69.4688,133.3283 L69.4688,136.0471 Q68.8438,135.469 68.25,135.2033 Q67.6563,134.9221 67.0313,134.9221 Q65.6875,134.9221 65,136.0002 Q64.3125,137.0627 64.3125,139.1565 Q64.3125,141.2502 65,142.3283 Q65.6875,143.3908 67.0313,143.3908 Q67.6563,143.3908 68.25,143.1252 Q68.8438,142.844 69.4688,142.2658 L69.4688,144.9846 Z " fill="#000000"/><text fill="#000000" font-family="sans-serif" font-size="14" lengthAdjust="spacing" textLength="319.4509" x="88.0144" y="137.9659">PoliticianIndicatorsPageModContentFactoryImpl</text><text fill="#000000" font-family="sans-serif" font-size="10" lengthAdjust="spacing" textLength="334.4797" x="80.5" y="152.7579">com.hack23.cia.web.impl.ui.application.views.user.politician.pagemode</text><line style="stroke:#181818;stroke-width:0.5;" x1="52.5" x2="416.9797" y1="160.6879" y2="160.6879"/><ellipse cx="62.5" cy="175.7219" fill="#84BE84" rx="3" ry="3" style="stroke:#038048;stroke-width:1.0;"/><text fill="#000000" font-family="sans-serif" font-size="14" lengthAdjust="spacing" textLength="305.4228" x="71.5" y="179.6538">createContent(String, MenuBar, Panel): Layout</text><ellipse cx="62.5" cy="194.7898" fill="#84BE84" rx="3" ry="3" style="stroke:#038048;stroke-width:1.0;"/><text fill="#000000" font-family="sans-serif" font-size="14" lengthAdjust="spacing" textLength="211.5112" x="71.5" y="198.7218">matches(String, String): boolean</text></g></a><!--class com.hack23.cia.web.impl.ui.application.views.common.pagemode.AbstractItemPageModContentFactoryImpl--><a href="../../../common/pagemode/AbstractItemPageModContentFactoryImpl.html" target="_top" title="../../../common/pagemode/AbstractItemPageModContentFactoryImpl.html" xlink:actuate="onRequest" xlink:href="../../../common/pagemode/AbstractItemPageModContentFactoryImpl.html" xlink:show="new" xlink:title="../../../common/pagemode/AbstractItemPageModContentFactoryImpl.html" xlink:type="simple"><g id="elem_com.hack23.cia.web.impl.ui.application.views.common.pagemode.AbstractItemPageModContentFactoryImpl"><rect codeLine="18" fill="#F1F1F1" height="69.7558" id="com.hack23.cia.web.impl.ui.application.views.common.pagemode.AbstractItemPageModContentFactoryImpl" rx="2.5" ry="2.5" style="stroke:#181818;stroke-width:0.5;" width="457.2766" x="6" y="12"/><ellipse cx="21" cy="33.344" fill="#A9DCDF" rx="11" ry="11" style="stroke:#181818;stroke-width:1.0;"/><path d="M21.1094,28.6877 L19.9531,33.7658 L22.2813,33.7658 L21.1094,28.6877 Z M19.625,26.4533 L22.6094,26.4533 L25.9688,38.844 L23.5156,38.844 L22.75,35.7815 L19.4688,35.7815 L18.7188,38.844 L16.2813,38.844 L19.625,26.4533 Z " fill="#000000"/><text fill="#000000" font-family="sans-serif" font-size="14" font-style="italic" lengthAdjust="spacing" textLength="261.057" x="50.9813" y="31.9659">AbstractItemPageModContentFactoryImpl</text><text fill="#000000" font-family="sans-serif" font-size="10" font-style="italic" lengthAdjust="spacing" textLength="293.0197" x="35" y="46.7579">com.hack23.cia.web.impl.ui.application.views.common.pagemode</text><rect fill="#FFFFFF" height="18.3441" style="stroke:#181818;stroke-width:1.0;stroke-dasharray:2.0,2.0;" width="130.2569" x="336.0197" y="9"/><text fill="#000000" font-family="sans-serif" font-size="12" font-style="italic" lengthAdjust="spacing" textLength="128.2569" x="337.0197" y="22.8281">ViewRiksdagenPolitician</text><line style="stroke:#181818;stroke-width:0.5;" x1="7" x2="462.2766" y1="54.6879" y2="54.6879"/><polygon fill="#FFFF44" points="17,64.7219,21,68.7219,17,72.7219,13,68.7219" style="stroke:#B38D22;stroke-width:1.0;"/><text fill="#000000" font-family="sans-serif" font-size="14" font-style="italic" lengthAdjust="spacing" textLength="250.2491" x="26" y="73.6538">getItem(String): ViewRiksdagenPolitician</text></g></a><polygon fill="none" points="234.5,82.0537,228.5,100.0537,240.5,100.0537,234.5,82.0537" style="stroke:#181818;stroke-width:1.0;"/><path d="M234.5,100.0537 C234.5,111.2849 234.5,105.9359 234.5,117.7854 " fill="none" style="stroke:#181818;stroke-width:1.0;"/><text fill="#888888" font-family="sans-serif" font-size="10" lengthAdjust="spacing" textLength="2.6" x="229.7" y="211.69">&#160;</text><a href="https://github.com/talsma-ict/umldoclet" target="_top" title="https://github.com/talsma-ict/umldoclet" xlink:actuate="onRequest" xlink:href="https://github.com/talsma-ict/umldoclet" xlink:show="new" xlink:title="https://github.com/talsma-ict/umldoclet" xlink:type="simple"><text fill="#888888" font-family="sans-serif" font-size="10" lengthAdjust="spacing" textLength="76.7199" x="192.64" y="225.31">UMLDoclet 2.2.1</text></a><!--SRC=[nLNRJjj047tdAwRmK139sZ41IXH5IjDRgY159FGbv66p7k9LrhlkxXgKKlwzOpiaARGIgArgMR8ybpDdvgp7002leMUofPNpn8Ctu1FfuF9y05p7C4UDbdkCGQPyZWvcg8oUkoeGWUS-CHRCTVacZBNeCgDZgUVmcTzmS2Qt0XtRsO6orFW1_PQxBVJPiZ2-CqAXX_tUmHQbA6oSrACmEe4nLoxbqE-DsGfjanEnY3M0i9KKg1r1vZf6MzBgPbpGOr1vQd23racZAITSuHIj2gCzbzf1ngrtHKj3nRKlk3OOrM-oKzZlZWO_SmlFIcurw5hDynWkpDTytUwhpF8vCLPyQN8FBaNFDQzyZaXhdjAukC0HKb7kQPBQQ2pzYOmHCCty4gubgjWzjX9OOiXSseNYpi5ksybls6eqEqEZf9T2SjqdCKG1xOOauBc9UzGdQl-12p8k-scchlGgB-m8axA4YqLqn2YPtUACIOfWkMGyorI1H9DZDn9l7SiTMfQjAx6C2gGcnbqWRVyA4djH7p2Pl2YU9JvLqodSbICihaDXaSxZAdH_v2qTv1gSeyxVSbk38TUe3bemA0NTfANSqmbpwuJgIO4pOnHoNKRULrBncVEMI3pHhBjoz3scVrqh2axDdqZq280zYstx2-LUo8MBAK9lnEcGL8m5rLqX1m_8mREGdsftzp3OUzYROvczlzRXDposTVdtqu3szthzVtmOLODjvvSAE-k1NHlZQKDk9bXSdvOPse7KYvvHj8xstlpQUraiLoKrqZuN2urqaCDrv7rLBjYgjwfrfIUJnFlCjO9WBdsIpuf91hvSx7KfV92dAgus-gFTFfskTlN7zK-ZMBprCAg7H-F6KQiPjS86Epi-FGuRpQXv63PQOJXvdrkJOJ3oHYmIezBf3m00]--></g></svg>