<svg xmlns="http://www.w3.org/2000/svg" xmlns:xlink="http://www.w3.org/1999/xlink" contentStyleType="text/css" height="163px" preserveAspectRatio="none" style="width:1095px;height:163px;background:#FFFFFF;" version="1.1" viewBox="0 0 1095 163" width="1095px" zoomAndPan="magnify"><defs/><g><!--class com.hack23.cia.web.impl.ui.application.views.user.politician.pagemode.PoliticianViewConstants--><a href="PoliticianViewConstants.html" target="_top" title="PoliticianViewConstants.html" xlink:actuate="onRequest" xlink:href="PoliticianViewConstants.html" xlink:show="new" xlink:title="PoliticianViewConstants.html" xlink:type="simple"><g id="elem_com.hack23.cia.web.impl.ui.application.views.user.politician.pagemode.PoliticianViewConstants"><rect codeLine="13" fill="#F1F1F1" height="42.6879" id="com.hack23.cia.web.impl.ui.application.views.user.politician.pagemode.PoliticianViewConstants" rx="2.5" ry="2.5" style="stroke:#181818;stroke-width:0.5;" width="348.6396" x="373" y="91"/><ellipse cx="388" cy="112.344" fill="#B4A7E5" rx="11" ry="11" style="stroke:#181818;stroke-width:1.0;"/><path d="M383.9219,108.1096 L383.9219,105.9533 L391.3125,105.9533 L391.3125,108.1096 L388.8438,108.1096 L388.8438,116.1877 L391.3125,116.1877 L391.3125,118.344 L383.9219,118.344 L383.9219,116.1877 L386.3906,116.1877 L386.3906,108.1096 L383.9219,108.1096 Z " fill="#000000"/><text fill="#000000" font-family="sans-serif" font-size="14" font-style="italic" lengthAdjust="spacing" textLength="147.4194" x="486.6101" y="110.9659">PoliticianViewConstants</text><text fill="#000000" font-family="sans-serif" font-size="10" font-style="italic" lengthAdjust="spacing" textLength="316.6396" x="402" y="125.7579">com.hack23.cia.web.impl.ui.application.views.user.politician.pagemode</text></g></a><!--class com.hack23.cia.web.impl.ui.application.views.user.politician.pagemode.PoliticianPageTitleConstants--><a href="PoliticianPageTitleConstants.html" target="_top" title="PoliticianPageTitleConstants.html" xlink:actuate="onRequest" xlink:href="PoliticianPageTitleConstants.html" xlink:show="new" xlink:title="PoliticianPageTitleConstants.html" xlink:type="simple"><g id="elem_com.hack23.cia.web.impl.ui.application.views.user.politician.pagemode.PoliticianPageTitleConstants"><rect codeLine="15" fill="#F1F1F1" height="42.6879" id="com.hack23.cia.web.impl.ui.application.views.user.politician.pagemode.PoliticianPageTitleConstants" rx="2.5" ry="2.5" style="stroke:#181818;stroke-width:0.5;" width="348.6396" x="6" y="12"/><ellipse cx="21" cy="33.344" fill="#B4A7E5" rx="11" ry="11" style="stroke:#181818;stroke-width:1.0;"/><path d="M16.9219,29.1096 L16.9219,26.9533 L24.3125,26.9533 L24.3125,29.1096 L21.8438,29.1096 L21.8438,37.1877 L24.3125,37.1877 L24.3125,39.344 L16.9219,39.344 L16.9219,37.1877 L19.3906,37.1877 L19.3906,29.1096 L16.9219,29.1096 Z " fill="#000000"/><text fill="#000000" font-family="sans-serif" font-size="14" font-style="italic" lengthAdjust="spacing" textLength="175.8253" x="105.4072" y="31.9659">PoliticianPageTitleConstants</text><text fill="#000000" font-family="sans-serif" font-size="10" font-style="italic" lengthAdjust="spacing" textLength="316.6396" x="35" y="46.7579">com.hack23.cia.web.impl.ui.application.views.user.politician.pagemode</text></g></a><!--class com.hack23.cia.web.impl.ui.application.views.user.politician.pagemode.PoliticianBallotConstants--><a href="PoliticianBallotConstants.html" target="_top" title="PoliticianBallotConstants.html" xlink:actuate="onRequest" xlink:href="PoliticianBallotConstants.html" xlink:show="new" xlink:title="PoliticianBallotConstants.html" xlink:type="simple"><g id="elem_com.hack23.cia.web.impl.ui.application.views.user.politician.pagemode.PoliticianBallotConstants"><rect codeLine="16" fill="#F1F1F1" height="42.6879" id="com.hack23.cia.web.impl.ui.application.views.user.politician.pagemode.PoliticianBallotConstants" rx="2.5" ry="2.5" style="stroke:#181818;stroke-width:0.5;" width="348.6396" x="373" y="12"/><ellipse cx="388" cy="33.344" fill="#B4A7E5" rx="11" ry="11" style="stroke:#181818;stroke-width:1.0;"/><path d="M383.9219,29.1096 L383.9219,26.9533 L391.3125,26.9533 L391.3125,29.1096 L388.8438,29.1096 L388.8438,37.1877 L391.3125,37.1877 L391.3125,39.344 L383.9219,39.344 L383.9219,37.1877 L386.3906,37.1877 L386.3906,29.1096 L383.9219,29.1096 Z " fill="#000000"/><text fill="#000000" font-family="sans-serif" font-size="14" font-style="italic" lengthAdjust="spacing" textLength="155.0774" x="482.7811" y="31.9659">PoliticianBallotConstants</text><text fill="#000000" font-family="sans-serif" font-size="10" font-style="italic" lengthAdjust="spacing" textLength="316.6396" x="402" y="46.7579">com.hack23.cia.web.impl.ui.application.views.user.politician.pagemode</text></g></a><!--class com.hack23.cia.web.impl.ui.application.views.user.politician.pagemode.PoliticianRoleConstants--><a href="PoliticianRoleConstants.html" target="_top" title="PoliticianRoleConstants.html" xlink:actuate="onRequest" xlink:href="PoliticianRoleConstants.html" xlink:show="new" xlink:title="PoliticianRoleConstants.html" xlink:type="simple"><g id="elem_com.hack23.cia.web.impl.ui.application.views.user.politician.pagemode.PoliticianRoleConstants"><rect codeLine="17" fill="#F1F1F1" height="42.6879" id="com.hack23.cia.web.impl.ui.application.views.user.politician.pagemode.PoliticianRoleConstants" rx="2.5" ry="2.5" style="stroke:#181818;stroke-width:0.5;" width="348.6396" x="740" y="12"/><ellipse cx="755" cy="33.344" fill="#B4A7E5" rx="11" ry="11" style="stroke:#181818;stroke-width:1.0;"/><path d="M750.9219,29.1096 L750.9219,26.9533 L758.3125,26.9533 L758.3125,29.1096 L755.8438,29.1096 L755.8438,37.1877 L758.3125,37.1877 L758.3125,39.344 L750.9219,39.344 L750.9219,37.1877 L753.3906,37.1877 L753.3906,29.1096 L750.9219,29.1096 Z " fill="#000000"/><text fill="#000000" font-family="sans-serif" font-size="14" font-style="italic" lengthAdjust="spacing" textLength="145.4734" x="854.5831" y="31.9659">PoliticianRoleConstants</text><text fill="#000000" font-family="sans-serif" font-size="10" font-style="italic" lengthAdjust="spacing" textLength="316.6396" x="769" y="46.7579">com.hack23.cia.web.impl.ui.application.views.user.politician.pagemode</text></g></a><polygon fill="none" points="278.3672,55.0334,294.7516,64.6017,297.2156,52.8574,278.3672,55.0334" style="stroke:#181818;stroke-width:1.0;"/><path d="M295.9836,58.7295 C348.9626,69.845 396.6012,79.84 449.5872,90.957 " fill="none" style="stroke:#181818;stroke-width:1.0;"/><polygon fill="none" points="547.5,55.1346,541.5,73.1346,553.5,73.1346,547.5,55.1346" style="stroke:#181818;stroke-width:1.0;"/><path d="M547.5,73.1346 C547.5,84.1824 547.5,79.752 547.5,90.8085 " fill="none" style="stroke:#181818;stroke-width:1.0;"/><polygon fill="none" points="816.6328,55.0334,797.7844,52.8574,800.2484,64.6017,816.6328,55.0334" style="stroke:#181818;stroke-width:1.0;"/><path d="M799.0164,58.7295 C746.0374,69.845 698.3988,79.84 645.4128,90.957 " fill="none" style="stroke:#181818;stroke-width:1.0;"/><text fill="#888888" font-family="sans-serif" font-size="10" lengthAdjust="spacing" textLength="2.6" x="542.7" y="138.69">&#160;</text><a href="https://github.com/talsma-ict/umldoclet" target="_top" title="https://github.com/talsma-ict/umldoclet" xlink:actuate="onRequest" xlink:href="https://github.com/talsma-ict/umldoclet" xlink:show="new" xlink:title="https://github.com/talsma-ict/umldoclet" xlink:type="simple"><text fill="#888888" font-family="sans-serif" font-size="10" lengthAdjust="spacing" textLength="76.7199" x="505.64" y="152.31">UMLDoclet 2.2.1</text></a><!--SRC=[rLPBJnin4BxpAwRq05M9itdmYX0IJIlQAfKGX5u21sTticl5wt7jML3w-E_rRaBAXg9oA4ZnPNTdx6- - -NPi3m305lJ9pfnACmOcu4nvkFmo06aIID6Waum9g5ocw66CcapgvnCHPC4PEQ19zHMJS-WjcKIP53xB6mcU2XUZ5niRK8KQtg7VIdyFVJmhZUyfriYmtNzpZr8xQkqrsb5x5uPI-rp2f_vGBD3-h6cBjcX1mDOgHkC3P64IT1Mj4olZy1ZCFJjmWyuhCc5DjC0fKut9i5J6WvMEVPdIcPQ6Iwuj4U9tnJvidrmCwjoYmuhR3fmu8ui4pkbRiKptbNKo3Oord571u7DaQUJSvmDf8_CWbupn0aDGoK59GmOhVwOI1Cmjps2YK2T-rHh0CWhcoguCevi49DWyykexzbhTupFIYbMifFcgyBPFneVexA_COaPq75CkCXbFsnqHfebR70kLMoqA9QIrGKd9GITn4vPxKNXqmYunXGtra5E2cn3-v7z14eymXj7e4O_8EDVNrq_Hu2m46IhMk5v2FAHTK-EX-qwIVoloJcfDl5voh72kQR7YUxeGvxHkLL5ZN1EXvgbjZnUepAEVZSRp7WNFaibgKQrf6lMYU84agYoEFCyq7bVlvPWGXRq6FvQ6SdoSMNG3PQPzqk6IUttmT-zbUMLhPJ1q2V7KeFSGBMV-ceThtektY7LbHgECsVfUivagpegn28atkMeN6YhcPf7hPDudh7GCY_DX2qwNhKXvdJUY_KQhCsn5uHZeHGTYTtU_kzVf77RVHkrU58q-58uiDY-Oucb6Eh_-3G00]--></g></svg>