<svg xmlns="http://www.w3.org/2000/svg" xmlns:xlink="http://www.w3.org/1999/xlink" contentStyleType="text/css" height="236px" preserveAspectRatio="none" style="width:490px;height:236px;background:#FFFFFF;" version="1.1" viewBox="0 0 490 236" width="490px" zoomAndPan="magnify"><defs/><g><!--class com.hack23.cia.web.impl.ui.application.views.user.politician.pagemode.PoliticianRankingChartsCurrentPartiesPageModContentFactoryImpl--><a href="PoliticianRankingChartsCurrentPartiesPageModContentFactoryImpl.html" target="_top" title="PoliticianRankingChartsCurrentPartiesPageModContentFactoryImpl.html" xlink:actuate="onRequest" xlink:href="PoliticianRankingChartsCurrentPartiesPageModContentFactoryImpl.html" xlink:show="new" xlink:title="PoliticianRankingChartsCurrentPartiesPageModContentFactoryImpl.html" xlink:type="simple"><g id="elem_com.hack23.cia.web.impl.ui.application.views.user.politician.pagemode.PoliticianRankingChartsCurrentPartiesPageModContentFactoryImpl"><rect codeLine="13" fill="#F1F1F1" height="115.8917" id="com.hack23.cia.web.impl.ui.application.views.user.politician.pagemode.PoliticianRankingChartsCurrentPartiesPageModContentFactoryImpl" rx="2.5" ry="2.5" style="stroke:#181818;stroke-width:0.5;" width="477.7444" x="6" y="91"/><ellipse cx="21" cy="112.344" fill="#ADD1B2" rx="11" ry="11" style="stroke:#181818;stroke-width:1.0;"/><path d="M23.9688,117.9846 Q23.3906,118.2815 22.75,118.4221 Q22.1094,118.5783 21.4063,118.5783 Q18.9063,118.5783 17.5781,116.9377 Q16.2656,115.2815 16.2656,112.1565 Q16.2656,109.0315 17.5781,107.3752 Q18.9063,105.719 21.4063,105.719 Q22.1094,105.719 22.75,105.8752 Q23.4063,106.0315 23.9688,106.3283 L23.9688,109.0471 Q23.3438,108.469 22.75,108.2033 Q22.1563,107.9221 21.5313,107.9221 Q20.1875,107.9221 19.5,109.0002 Q18.8125,110.0627 18.8125,112.1565 Q18.8125,114.2502 19.5,115.3283 Q20.1875,116.3908 21.5313,116.3908 Q22.1563,116.3908 22.75,116.1252 Q23.3438,115.844 23.9688,115.2658 L23.9688,117.9846 Z " fill="#000000"/><text fill="#000000" font-family="sans-serif" font-size="14" lengthAdjust="spacing" textLength="445.7444" x="35" y="110.9659">PoliticianRankingChartsCurrentPartiesPageModContentFactoryImpl</text><text fill="#000000" font-family="sans-serif" font-size="10" lengthAdjust="spacing" textLength="334.4797" x="90.6323" y="125.7579">com.hack23.cia.web.impl.ui.application.views.user.politician.pagemode</text><line style="stroke:#181818;stroke-width:0.5;" x1="7" x2="482.7444" y1="133.6879" y2="133.6879"/><ellipse cx="17" cy="148.7219" fill="none" rx="3" ry="3" style="stroke:#038048;stroke-width:1.0;"/><text fill="#000000" font-family="sans-serif" font-size="14" lengthAdjust="spacing" text-decoration="underline" textLength="86.8557" x="26" y="152.6538">NAME: String</text><line style="stroke:#181818;stroke-width:0.5;" x1="7" x2="482.7444" y1="160.7558" y2="160.7558"/><ellipse cx="17" cy="175.7898" fill="#84BE84" rx="3" ry="3" style="stroke:#038048;stroke-width:1.0;"/><text fill="#000000" font-family="sans-serif" font-size="14" lengthAdjust="spacing" textLength="305.4228" x="26" y="179.7218">createContent(String, MenuBar, Panel): Layout</text><ellipse cx="17" cy="194.8577" fill="#84BE84" rx="3" ry="3" style="stroke:#038048;stroke-width:1.0;"/><text fill="#000000" font-family="sans-serif" font-size="14" lengthAdjust="spacing" textLength="211.5112" x="26" y="198.7897">matches(String, String): boolean</text></g></a><!--class com.hack23.cia.web.impl.ui.application.views.common.pagemode.AbstractBasicPageModContentFactoryImpl--><a href="../../../common/pagemode/AbstractBasicPageModContentFactoryImpl.html" target="_top" title="../../../common/pagemode/AbstractBasicPageModContentFactoryImpl.html" xlink:actuate="onRequest" xlink:href="../../../common/pagemode/AbstractBasicPageModContentFactoryImpl.html" xlink:show="new" xlink:title="../../../common/pagemode/AbstractBasicPageModContentFactoryImpl.html" xlink:type="simple"><g id="elem_com.hack23.cia.web.impl.ui.application.views.common.pagemode.AbstractBasicPageModContentFactoryImpl"><rect codeLine="19" fill="#F1F1F1" height="42.6879" id="com.hack23.cia.web.impl.ui.application.views.common.pagemode.AbstractBasicPageModContentFactoryImpl" rx="2.5" ry="2.5" style="stroke:#181818;stroke-width:0.5;" width="325.0197" x="82.5" y="12"/><ellipse cx="97.5" cy="33.344" fill="#A9DCDF" rx="11" ry="11" style="stroke:#181818;stroke-width:1.0;"/><path d="M97.6094,28.6877 L96.4531,33.7658 L98.7813,33.7658 L97.6094,28.6877 Z M96.125,26.4533 L99.1094,26.4533 L102.4688,38.844 L100.0156,38.844 L99.25,35.7815 L95.9688,35.7815 L95.2188,38.844 L92.7813,38.844 L96.125,26.4533 Z " fill="#000000"/><text fill="#000000" font-family="sans-serif" font-size="14" font-style="italic" lengthAdjust="spacing" textLength="264.991" x="125.5143" y="31.9659">AbstractBasicPageModContentFactoryImpl</text><text fill="#000000" font-family="sans-serif" font-size="10" font-style="italic" lengthAdjust="spacing" textLength="293.0197" x="111.5" y="46.7579">com.hack23.cia.web.impl.ui.application.views.common.pagemode</text></g></a><polygon fill="none" points="245,55.054,239,73.054,251,73.054,245,55.054" style="stroke:#181818;stroke-width:1.0;"/><path d="M245,73.054 C245,83.1473 245,77.8625 245,90.62 " fill="none" style="stroke:#181818;stroke-width:1.0;"/><text fill="#888888" font-family="sans-serif" font-size="10" lengthAdjust="spacing" textLength="2.6" x="240.2" y="211.69">&#160;</text><a href="https://github.com/talsma-ict/umldoclet" target="_top" title="https://github.com/talsma-ict/umldoclet" xlink:actuate="onRequest" xlink:href="https://github.com/talsma-ict/umldoclet" xlink:show="new" xlink:title="https://github.com/talsma-ict/umldoclet" xlink:type="simple"><text fill="#888888" font-family="sans-serif" font-size="10" lengthAdjust="spacing" textLength="76.7199" x="203.14" y="225.31">UMLDoclet 2.2.1</text></a><!--SRC=[pLNVJzj037xdh_3Omq2qbpGh32g4L3gsCRLJnO-dmeDxCSsfbxlixWBg6F_xdAGKnlQ019eMHKfZ-pv_zkUu003lO62BXLEpB42m43BbuNmq13GfpCYGmq0fg1ndv65AsfgPRm89i0oPTM2lwZTfdIDVM9CgCuElU8tWRUaaUR6s1dMgitlq6_IFqAUBolZHIaq1DWQRZoWbSMUddSH95yvG-npXU70cbcWFPnAHY0umjbQIZ6V8qgJaQbhz0YK_Xesd1TValBA6pyHBdAfKQKr0PJmKw8AlIXfhDA7YsX5LVl41Dlgdmz-vnNirjnRqdS4oXHFxlLoL-wPmE6F66XUs3E1p2cYmyNacRJ3dTg6aK-Aa6BYJnXgg_PbA2IWlmWAk5EdKFxKoM6RPNDkbHkzXVT-h7zJhT0_6LgkWf49pWcREQWooggf1oGAPCERVYloO5HtPTC25i_4JIYQmECuBVM6MGF61jBd8KCwJzuBHn0rDXU88KIg1HS7Dni2j5DUARhmeFJbHh5ABWXFaDgLrOB5V1Kcyh32OJ5u68BAGwyjBkAsxNbstFZ1nUGTRt_gZenwS1iUWA_UMTCGJlaJQQBmj694f3z6rO8o6z6OFXlM8F1pBCV3C-jM1vic1KsireQaZxnhnSUg3Ouv_J45_wJX4h-Ihgyt1kNs9o4y0nFFeieP2HCtT84Jt2D7p49OYBh-SVy1u_sUx_L_CVrFolWyBJGUhORkoDl2gV9ZfwlgoACWDbPaFhEQzz7RtxzxpQijgPOWNkvmRulcBLv5tJRheKRvbhWipcMGX5BuNHJCLid9QzJOAzOPlAncYCjTfizgVB7aMhbdQdrV_7jK6RdUITh9xrjdkRU_qkdiYsTjDakxEtivMtEd5yUIeTBQWw3HOES-ipYz_0G00]--></g></svg>