<svg xmlns="http://www.w3.org/2000/svg" xmlns:xlink="http://www.w3.org/1999/xlink" contentStyleType="text/css" height="236px" preserveAspectRatio="none" style="width:456px;height:236px;background:#FFFFFF;" version="1.1" viewBox="0 0 456 236" width="456px" zoomAndPan="magnify"><defs/><g><!--class com.hack23.cia.web.impl.ui.application.views.user.politician.pagemode.PoliticianRankingChartsAllPartiesPageModContentFactoryImpl--><a href="PoliticianRankingChartsAllPartiesPageModContentFactoryImpl.html" target="_top" title="PoliticianRankingChartsAllPartiesPageModContentFactoryImpl.html" xlink:actuate="onRequest" xlink:href="PoliticianRankingChartsAllPartiesPageModContentFactoryImpl.html" xlink:show="new" xlink:title="PoliticianRankingChartsAllPartiesPageModContentFactoryImpl.html" xlink:type="simple"><g id="elem_com.hack23.cia.web.impl.ui.application.views.user.politician.pagemode.PoliticianRankingChartsAllPartiesPageModContentFactoryImpl"><rect codeLine="13" fill="#F1F1F1" height="115.8917" id="com.hack23.cia.web.impl.ui.application.views.user.politician.pagemode.PoliticianRankingChartsAllPartiesPageModContentFactoryImpl" rx="2.5" ry="2.5" style="stroke:#181818;stroke-width:0.5;" width="443.2485" x="6" y="91"/><ellipse cx="21" cy="112.344" fill="#ADD1B2" rx="11" ry="11" style="stroke:#181818;stroke-width:1.0;"/><path d="M23.9688,117.9846 Q23.3906,118.2815 22.75,118.4221 Q22.1094,118.5783 21.4063,118.5783 Q18.9063,118.5783 17.5781,116.9377 Q16.2656,115.2815 16.2656,112.1565 Q16.2656,109.0315 17.5781,107.3752 Q18.9063,105.719 21.4063,105.719 Q22.1094,105.719 22.75,105.8752 Q23.4063,106.0315 23.9688,106.3283 L23.9688,109.0471 Q23.3438,108.469 22.75,108.2033 Q22.1563,107.9221 21.5313,107.9221 Q20.1875,107.9221 19.5,109.0002 Q18.8125,110.0627 18.8125,112.1565 Q18.8125,114.2502 19.5,115.3283 Q20.1875,116.3908 21.5313,116.3908 Q22.1563,116.3908 22.75,116.1252 Q23.3438,115.844 23.9688,115.2658 L23.9688,117.9846 Z " fill="#000000"/><text fill="#000000" font-family="sans-serif" font-size="14" lengthAdjust="spacing" textLength="411.2485" x="35" y="110.9659">PoliticianRankingChartsAllPartiesPageModContentFactoryImpl</text><text fill="#000000" font-family="sans-serif" font-size="10" lengthAdjust="spacing" textLength="334.4797" x="73.3844" y="125.7579">com.hack23.cia.web.impl.ui.application.views.user.politician.pagemode</text><line style="stroke:#181818;stroke-width:0.5;" x1="7" x2="448.2485" y1="133.6879" y2="133.6879"/><ellipse cx="17" cy="148.7219" fill="none" rx="3" ry="3" style="stroke:#038048;stroke-width:1.0;"/><text fill="#000000" font-family="sans-serif" font-size="14" lengthAdjust="spacing" text-decoration="underline" textLength="86.8557" x="26" y="152.6538">NAME: String</text><line style="stroke:#181818;stroke-width:0.5;" x1="7" x2="448.2485" y1="160.7558" y2="160.7558"/><ellipse cx="17" cy="175.7898" fill="#84BE84" rx="3" ry="3" style="stroke:#038048;stroke-width:1.0;"/><text fill="#000000" font-family="sans-serif" font-size="14" lengthAdjust="spacing" textLength="305.4228" x="26" y="179.7218">createContent(String, MenuBar, Panel): Layout</text><ellipse cx="17" cy="194.8577" fill="#84BE84" rx="3" ry="3" style="stroke:#038048;stroke-width:1.0;"/><text fill="#000000" font-family="sans-serif" font-size="14" lengthAdjust="spacing" textLength="211.5112" x="26" y="198.7897">matches(String, String): boolean</text></g></a><!--class com.hack23.cia.web.impl.ui.application.views.common.pagemode.AbstractBasicPageModContentFactoryImpl--><a href="../../../common/pagemode/AbstractBasicPageModContentFactoryImpl.html" target="_top" title="../../../common/pagemode/AbstractBasicPageModContentFactoryImpl.html" xlink:actuate="onRequest" xlink:href="../../../common/pagemode/AbstractBasicPageModContentFactoryImpl.html" xlink:show="new" xlink:title="../../../common/pagemode/AbstractBasicPageModContentFactoryImpl.html" xlink:type="simple"><g id="elem_com.hack23.cia.web.impl.ui.application.views.common.pagemode.AbstractBasicPageModContentFactoryImpl"><rect codeLine="19" fill="#F1F1F1" height="42.6879" id="com.hack23.cia.web.impl.ui.application.views.common.pagemode.AbstractBasicPageModContentFactoryImpl" rx="2.5" ry="2.5" style="stroke:#181818;stroke-width:0.5;" width="325.0197" x="65" y="12"/><ellipse cx="80" cy="33.344" fill="#A9DCDF" rx="11" ry="11" style="stroke:#181818;stroke-width:1.0;"/><path d="M80.1094,28.6877 L78.9531,33.7658 L81.2813,33.7658 L80.1094,28.6877 Z M78.625,26.4533 L81.6094,26.4533 L84.9688,38.844 L82.5156,38.844 L81.75,35.7815 L78.4688,35.7815 L77.7188,38.844 L75.2813,38.844 L78.625,26.4533 Z " fill="#000000"/><text fill="#000000" font-family="sans-serif" font-size="14" font-style="italic" lengthAdjust="spacing" textLength="264.991" x="108.0143" y="31.9659">AbstractBasicPageModContentFactoryImpl</text><text fill="#000000" font-family="sans-serif" font-size="10" font-style="italic" lengthAdjust="spacing" textLength="293.0197" x="94" y="46.7579">com.hack23.cia.web.impl.ui.application.views.common.pagemode</text></g></a><polygon fill="none" points="227.5,55.054,221.5,73.054,233.5,73.054,227.5,55.054" style="stroke:#181818;stroke-width:1.0;"/><path d="M227.5,73.054 C227.5,83.1473 227.5,77.8625 227.5,90.62 " fill="none" style="stroke:#181818;stroke-width:1.0;"/><text fill="#888888" font-family="sans-serif" font-size="10" lengthAdjust="spacing" textLength="2.6" x="222.7" y="211.69">&#160;</text><a href="https://github.com/talsma-ict/umldoclet" target="_top" title="https://github.com/talsma-ict/umldoclet" xlink:actuate="onRequest" xlink:href="https://github.com/talsma-ict/umldoclet" xlink:show="new" xlink:title="https://github.com/talsma-ict/umldoclet" xlink:type="simple"><text fill="#888888" font-family="sans-serif" font-size="10" lengthAdjust="spacing" textLength="76.7199" x="185.64" y="225.31">UMLDoclet 2.2.1</text></a><!--SRC=[nLNVJzj037xdh_3Omq3GIve2WmeXbOvjJErKyUEfyE1UJ7FgvIwxku0wnly-9oc5iJqWXhOeqYbd-_DdVwuB0F0E-hQOEpND0WGB8LCUpeS3G9F2b0mv39I2od5A7YQahPdwnf40ov1P1_Qg_fBMEVA5DQaoK_Y2rmZUbawI5oihKASwkqU_GVy8VJAlBZzOgId0Md_z4QKaRk-qaZZPWZFKFaSuxf-91Tf3J28IqGR6ragIyGnPcfHSJQjNeEHZq5WsuPgSLzPmJBp0gKgLrWHKnaE1BlYgf9564ogkRL7b5-zXhNSw-9LRl5TpsuIUCrYcS6A_bSjotnGEfynOuzoM0NnE0GqsDi-a3URSBfHqIfmK0tVIM4ErFLCf0UL5cCEL8ftwfxSCbbc-hk-bHkzXTT-hxzHjRnsCh5P1IONc1CsCrUXdLLKzhKTyAl8ZLdDeqpuNJIPyHCd9vyTveI_C0YG-a3ON6SfPqX6C96ve8XHxY589B0fkD0PkexXMTED5wSc9OfbM59mWjocj0WlzAaZYvKN1UFpoO965N5zUmctTwUgvzO49oplO-DeR7dNXD3W6N9etf2EUwWNIMcFTX26PyX3T9epGa5xlmg0UYuUm70FFgLy6D2SxJgpLXARsl6i4nuaFZZd-fdnlOJX4h-IhgypEkVqRSPy0YEVHPVs4Y9gtGOZk4QBd8In4NFnQ_W7Z_H-jrd-V-wRSVH_ccWwMWtPbRU3L-33FrVDvNf0RA3FhMyrxwEtkdwtdrLRLoX0lSZapnBCNBptlcdJHetoBN1TcFCv2A7mtYgOgPEMawciKwetUKZ94PQxJPfK_MUeiMhEaFot_BQgDssedhMJthBtTtTxfRks9PBSJT_PssfsDkDsDu_5HwMn1qMcmSfPPdL_-1000]--></g></svg>