<svg xmlns="http://www.w3.org/2000/svg" xmlns:xlink="http://www.w3.org/1999/xlink" contentStyleType="text/css" height="259px" preserveAspectRatio="none" style="width:534px;height:259px;background:#FFFFFF;" version="1.1" viewBox="0 0 534 259" width="534px" zoomAndPan="magnify"><defs/><g><!--cluster com.hack23.cia.web.impl.ui.application.views.user.goverment--><g id="cluster_com.hack23.cia.web.impl.ui.application.views.user.goverment"><path d="M16.5,98 L452.4643,98 A3.75,3.75 0 0 1 454.9643,100.5 L461.9643,123.0679 L461.5,123.0679 A2.5,2.5 0 0 1 464,125.5679 L464,219.5 A2.5,2.5 0 0 1 461.5,222 L16.5,222 A2.5,2.5 0 0 1 14,219.5 L14,100.5 A2.5,2.5 0 0 1 16.5,98 " fill="none" style="stroke:#000000;stroke-width:1.5;"/><line style="stroke:#000000;stroke-width:1.5;" x1="14" x2="461.9643" y1="123.0679" y2="123.0679"/><text fill="#000000" font-family="sans-serif" font-size="14" font-weight="bold" lengthAdjust="spacing" textLength="434.9643" x="18" y="114.9659">com.hack23.cia.web.impl.ui.application.views.user.goverment</text></g><!--cluster com.hack23.cia.web.impl.ui.application.views.user.common--><g id="cluster_com.hack23.cia.web.impl.ui.application.views.user.common"><path d="M95.5,4 L515.2663,4 A3.75,3.75 0 0 1 517.7663,6.5 L524.7663,29.0679 L524.5,29.0679 A2.5,2.5 0 0 1 527,31.5679 L527,87.5 A2.5,2.5 0 0 1 524.5,90 L95.5,90 A2.5,2.5 0 0 1 93,87.5 L93,6.5 A2.5,2.5 0 0 1 95.5,4 " fill="none" style="stroke:#000000;stroke-width:1.5;"/><line style="stroke:#000000;stroke-width:1.5;" x1="93" x2="524.7663" y1="29.0679" y2="29.0679"/><text fill="#000000" font-family="sans-serif" font-size="14" font-weight="bold" lengthAdjust="spacing" textLength="418.7663" x="97" y="20.9659">com.hack23.cia.web.impl.ui.application.views.user.common</text></g><!--class MinistryView--><a href="MinistryView.html" target="_top" title="MinistryView.html" xlink:actuate="onRequest" xlink:href="MinistryView.html" xlink:show="new" xlink:title="MinistryView.html" xlink:type="simple"><g id="elem_MinistryView"><rect codeLine="12" fill="#F1F1F1" height="86.1358" id="MinistryView" rx="2.5" ry="2.5" style="stroke:#181818;stroke-width:0.5;" width="243.6992" x="117" y="128"/><ellipse cx="192.5157" cy="144" fill="#ADD1B2" rx="11" ry="11" style="stroke:#181818;stroke-width:1.0;"/><path d="M195.4845,149.6406 Q194.9064,149.9375 194.2657,150.0781 Q193.6251,150.2344 192.922,150.2344 Q190.422,150.2344 189.0939,148.5938 Q187.7814,146.9375 187.7814,143.8125 Q187.7814,140.6875 189.0939,139.0313 Q190.422,137.375 192.922,137.375 Q193.6251,137.375 194.2657,137.5313 Q194.922,137.6875 195.4845,137.9844 L195.4845,140.7031 Q194.8595,140.125 194.2657,139.8594 Q193.672,139.5781 193.047,139.5781 Q191.7032,139.5781 191.0157,140.6563 Q190.3282,141.7188 190.3282,143.8125 Q190.3282,145.9063 191.0157,146.9844 Q191.7032,148.0469 193.047,148.0469 Q193.672,148.0469 194.2657,147.7813 Q194.8595,147.5 195.4845,146.9219 L195.4845,149.6406 Z " fill="#000000"/><text fill="#000000" font-family="sans-serif" font-size="14" lengthAdjust="spacing" textLength="84.1677" x="213.0157" y="149.432">MinistryView</text><line style="stroke:#181818;stroke-width:0.5;" x1="118" x2="359.6992" y1="160" y2="160"/><ellipse cx="128" cy="175.034" fill="none" rx="3" ry="3" style="stroke:#038048;stroke-width:1.0;"/><text fill="#000000" font-family="sans-serif" font-size="14" lengthAdjust="spacing" text-decoration="underline" textLength="86.8557" x="137" y="178.9659">NAME: String</text><line style="stroke:#181818;stroke-width:0.5;" x1="118" x2="359.6992" y1="187.0679" y2="187.0679"/><ellipse cx="128" cy="202.1019" fill="#84BE84" rx="3" ry="3" style="stroke:#038048;stroke-width:1.0;"/><text fill="#000000" font-family="sans-serif" font-size="14" lengthAdjust="spacing" textLength="217.6992" x="137" y="206.0339">MinistryView(ApplicationContext)</text></g></a><!--class AbstractGroupView--><a href="../common/AbstractGroupView.html" target="_top" title="../common/AbstractGroupView.html" xlink:actuate="onRequest" xlink:href="../common/AbstractGroupView.html" xlink:show="new" xlink:title="../common/AbstractGroupView.html" xlink:type="simple"><g id="elem_AbstractGroupView"><rect codeLine="20" fill="#F1F1F1" height="48" id="AbstractGroupView" rx="2.5" ry="2.5" style="stroke:#181818;stroke-width:0.5;" width="150.7895" x="163.5" y="34"/><ellipse cx="178.5" cy="50" fill="#A9DCDF" rx="11" ry="11" style="stroke:#181818;stroke-width:1.0;"/><path d="M178.6094,45.3438 L177.4531,50.4219 L179.7813,50.4219 L178.6094,45.3438 Z M177.125,43.1094 L180.1094,43.1094 L183.4688,55.5 L181.0156,55.5 L180.25,52.4375 L176.9688,52.4375 L176.2188,55.5 L173.7813,55.5 L177.125,43.1094 Z " fill="#000000"/><text fill="#000000" font-family="sans-serif" font-size="14" font-style="italic" lengthAdjust="spacing" textLength="118.7895" x="192.5" y="55.432">AbstractGroupView</text><line style="stroke:#181818;stroke-width:0.5;" x1="164.5" x2="313.2895" y1="66" y2="66"/><line style="stroke:#181818;stroke-width:0.5;" x1="164.5" x2="313.2895" y1="74" y2="74"/></g></a><polygon fill="none" points="239,82.2692,233,100.2692,245,100.2692,239,82.2692" style="stroke:#181818;stroke-width:1.0;"/><path d="M239,100.2692 C239,113.4922 239,112.4505 239,127.9269 " fill="none" style="stroke:#181818;stroke-width:1.0;"/><text fill="#888888" font-family="sans-serif" font-size="10" lengthAdjust="spacing" textLength="2.6" x="257.7" y="234.69">&#160;</text><a href="https://github.com/talsma-ict/umldoclet" target="_top" title="https://github.com/talsma-ict/umldoclet" xlink:actuate="onRequest" xlink:href="https://github.com/talsma-ict/umldoclet" xlink:show="new" xlink:title="https://github.com/talsma-ict/umldoclet" xlink:type="simple"><text fill="#888888" font-family="sans-serif" font-size="10" lengthAdjust="spacing" textLength="76.7199" x="220.64" y="248.31">UMLDoclet 2.2.1</text></a><!--SRC=[fPHHRzCm4CVV-HI7U63JLYTDnXZHX5ILQO0wX5Z7I-d3rVKIguuTxCj6DVhTkJIXopQUM1GfSUpxt-z_zWK0u3MCNRNsEYy8o04LEi3LnGJGBY5NLdaajGHTOgu2B9HnDW_jGWLOK-4ykEljI3hlLQYSNMgRmsUyGGYkzb85yU85R5DD_whVOkYfBzRDnmzE6aMmDzxl8INny7YGnCanJD644k7JU2ewjVkOH2HY2Anjj5Gsi6HjbyfliKOLIdvCsfb3k54-Q6Sv9kvq6glIMK9j0rJeAJIMlXgqrB0E1US_4czXRtGvUSWMlzko7SB8MwoNyCtzh7TsNrOUSoOsk7OrGIWLeSNjL63ce3WL4jSloze01brncPcb50M_9wcG6iMjMWXTLaRKMc1LiKKaDY1kjBeDeWxAYzongr9PWhjMghcamH3WGbiToA-_ysgOpVf3KL1fvdEEWTvr5uZrvGOElemkpZAu9C_x-M39GLzbRtJFDEOggb-qlrkzQN4sppN84INlsJqfBZW_IkfSZhhXkNTrrLaL8ch3eYUpJvrl-fp_ovTbJpbEVmy6pzdHBEiNk-Kx3RGswlqE_jevujF-S1y_hYlb9zgknixm8Njryk_PgwPHZBQAUrEkhE9Yne-gSXhrydMvVjZPh22gGXP5kQQYNZGrY6ZRf0CjAQfBisoxyr6VpkTTtvtlVW1D4mtYP12dqs6Q7Gtv5YTfagOdHs_IWtYOnV7ihFQkKj4bERagd2ddVm00]--></g></svg>