<svg xmlns="http://www.w3.org/2000/svg" xmlns:xlink="http://www.w3.org/1999/xlink" contentStyleType="text/css" data-diagram-type="CLASS" height="146px" preserveAspectRatio="none" style="width:351px;height:146px;background:#FFFFFF;" version="1.1" viewBox="0 0 351 146" width="351px" zoomAndPan="magnify"><defs/><g><!--cluster com.hack23.cia.service.component.agent.api--><g class="cluster" data-entity="com.hack23.cia.service.component.agent.api" data-source-line="10" data-uid="ent0002" id="cluster_com.hack23.cia.service.component.agent.api"><path d="M16.5,4 L332.1488,4 A3.75,3.75 0 0 1 334.6488,6.5 L341.6488,29.0679 L341.5,29.0679 A2.5,2.5 0 0 1 344,31.5679 L344,106.5 A2.5,2.5 0 0 1 341.5,109 L16.5,109 A2.5,2.5 0 0 1 14,106.5 L14,6.5 A2.5,2.5 0 0 1 16.5,4" fill="none" style="stroke:#000000;stroke-width:1.5;"/><line style="stroke:#000000;stroke-width:1.5;" x1="14" x2="341.6488" y1="29.0679" y2="29.0679"/><text fill="#000000" font-family="sans-serif" font-size="14" font-weight="bold" lengthAdjust="spacing" textLength="314.6488" x="18" y="20.9659">com.hack23.cia.service.component.agent.api</text></g><!--class DataAgentApi--><g class="entity" data-entity="DataAgentApi" data-source-line="12" data-uid="ent0003" id="entity_DataAgentApi"><a href="DataAgentApi.html" target="_top" title="DataAgentApi.html" xlink:actuate="onRequest" xlink:href="DataAgentApi.html" xlink:show="new" xlink:title="DataAgentApi.html" xlink:type="simple"><rect fill="#F1F1F1" height="67.0679" rx="2.5" ry="2.5" style="stroke:#181818;stroke-width:0.5;" width="248.5992" x="54.5" y="34"/><ellipse cx="131.9548" cy="50" fill="#B4A7E5" rx="11" ry="11" style="stroke:#181818;stroke-width:1;"/><path d="M127.8766,45.7656 L127.8766,43.6094 L135.2673,43.6094 L135.2673,45.7656 L132.7985,45.7656 L132.7985,53.8438 L135.2673,53.8438 L135.2673,56 L127.8766,56 L127.8766,53.8438 L130.3454,53.8438 L130.3454,45.7656 L127.8766,45.7656 Z " fill="#000000"/><text fill="#000000" font-family="sans-serif" font-size="14" font-style="italic" lengthAdjust="spacing" textLength="85.1897" x="152.4548" y="55.432">DataAgentApi</text><line style="stroke:#181818;stroke-width:0.5;" x1="55.5" x2="302.0992" y1="66" y2="66"/><line style="stroke:#181818;stroke-width:0.5;" x1="55.5" x2="302.0992" y1="74" y2="74"/><ellipse cx="65.5" cy="89.034" fill="#84BE84" rx="3" ry="3" style="stroke:#038048;stroke-width:1;"/><text fill="#000000" font-family="sans-serif" font-size="14" font-style="italic" lengthAdjust="spacing" textLength="222.5992" x="74.5" y="92.9659">execute(DataAgentWorkOrder): void</text></a></g><g class="footer" data-source-line="24"><text fill="#888888" font-family="sans-serif" font-size="10" lengthAdjust="spacing" textLength="2.6" x="166.2" y="121.69">&#160;</text><a href="https://github.com/talsma-ict/umldoclet" target="_top" title="https://github.com/talsma-ict/umldoclet" xlink:actuate="onRequest" xlink:href="https://github.com/talsma-ict/umldoclet" xlink:show="new" xlink:title="https://github.com/talsma-ict/umldoclet" xlink:type="simple"><text fill="#888888" font-family="sans-serif" font-size="10" lengthAdjust="spacing" textLength="76.7199" x="129.14" y="135.31">UMLDoclet 2.2.4</text></a></g><!--SRC=[RL9HRzCm47xVhpZ40vssEavMkYr2I5M7OAW8n3hnKFfmTMw9rSGEzgLGJVllE4afOS8FSUoxxxxlpXy0m2kOsthlT5umi0Kkj8VxJmj0aq5EXXmoPQ0hpCd3XafhSjyd4c33XNLW7xgJiiwHhwt9jCdX8-uGl6sS8YzEJg2ZMlwf_XFzeFfctrxUM5KImsX-Ef2Ko7WwJcGoXIMMlaAudI_5eTfVJ28ICO5GkzIAZ0yb6vEHwsJDQbHXM_IHSzYHyzgQW967EcshoXf6RJpKwDYtBNqfqN2hDHQ1_xM89OncTuj_nSdhJjmvp9p19eElzaTpxFT5xJ0FaalSsuR1LyHei0lv8DfJu48E0qpJ7X2KRiESWvXA5E4_kH1Ae_3aTa6z2DTXkcHOXAJsMsjux97jqeR9FQ0Yk476MPio2nchrV0e2gxAzJhWOB0USUFPeU8dEADVf1gcqH7rpRhjPnV6UPh2pkhiY7pgkG_R6y_xajuUem_M1ZtFY3xiQt8BRRPpMuR6NrxzFthVlbwf3GN3gAqXxq4EQ3kwQC1tuFfkLgk2kVPf5EMQYsRJpYpYpZbZhJXggZBhBVFCFElrmGplZwvi7tOi9-CuNiQJT39DaoiH9vVo-aBAopEPf5AktZNErXJTiLNRmfRL-ZS0]--></g></svg>