<svg xmlns="http://www.w3.org/2000/svg" xmlns:xlink="http://www.w3.org/1999/xlink" contentStyleType="text/css" height="374px" preserveAspectRatio="none" style="width:419px;height:374px;background:#FFFFFF;" version="1.1" viewBox="0 0 419 374" width="419px" zoomAndPan="magnify"><defs/><g><!--cluster com.hack23.cia.model.internal.application.secure.impl--><g id="cluster_com.hack23.cia.model.internal.application.secure.impl"><path d="M16.5,98 L400.4127,98 A3.75,3.75 0 0 1 402.9127,100.5 L409.9127,123.0679 L409.5,123.0679 A2.5,2.5 0 0 1 412,125.5679 L412,334.5 A2.5,2.5 0 0 1 409.5,337 L16.5,337 A2.5,2.5 0 0 1 14,334.5 L14,100.5 A2.5,2.5 0 0 1 16.5,98 " fill="none" style="stroke:#000000;stroke-width:1.5;"/><line style="stroke:#000000;stroke-width:1.5;" x1="14" x2="409.9127" y1="123.0679" y2="123.0679"/><text fill="#000000" font-family="sans-serif" font-size="14" font-weight="bold" lengthAdjust="spacing" textLength="382.9127" x="18" y="114.9659">com.hack23.cia.model.internal.application.secure.impl</text></g><!--cluster com.hack23.cia.model.common.impl--><g id="cluster_com.hack23.cia.model.common.impl"><path d="M50.5,4 L306.719,4 A3.75,3.75 0 0 1 309.219,6.5 L316.219,29.0679 L316.5,29.0679 A2.5,2.5 0 0 1 319,31.5679 L319,87.5 A2.5,2.5 0 0 1 316.5,90 L50.5,90 A2.5,2.5 0 0 1 48,87.5 L48,6.5 A2.5,2.5 0 0 1 50.5,4 " fill="none" style="stroke:#000000;stroke-width:1.5;"/><line style="stroke:#000000;stroke-width:1.5;" x1="48" x2="316.219" y1="29.0679" y2="29.0679"/><text fill="#000000" font-family="sans-serif" font-size="14" font-weight="bold" lengthAdjust="spacing" textLength="255.219" x="52" y="20.9659">com.hack23.cia.model.common.impl</text></g><!--class EncryptedValue--><a href="EncryptedValue.html" target="_top" title="EncryptedValue.html" xlink:actuate="onRequest" xlink:href="EncryptedValue.html" xlink:show="new" xlink:title="EncryptedValue.html" xlink:type="simple"><g id="elem_EncryptedValue"><rect codeLine="12" fill="#F1F1F1" height="200.5433" id="EncryptedValue" rx="2.5" ry="2.5" style="stroke:#181818;stroke-width:0.5;" width="201.6993" x="82" y="128"/><ellipse cx="127.2689" cy="144" fill="#ADD1B2" rx="11" ry="11" style="stroke:#181818;stroke-width:1.0;"/><path d="M130.2376,149.6406 Q129.6595,149.9375 129.0189,150.0781 Q128.3782,150.2344 127.6751,150.2344 Q125.1751,150.2344 123.847,148.5938 Q122.5345,146.9375 122.5345,143.8125 Q122.5345,140.6875 123.847,139.0313 Q125.1751,137.375 127.6751,137.375 Q128.3782,137.375 129.0189,137.5313 Q129.6751,137.6875 130.2376,137.9844 L130.2376,140.7031 Q129.6126,140.125 129.0189,139.8594 Q128.4251,139.5781 127.8001,139.5781 Q126.4564,139.5781 125.7689,140.6563 Q125.0814,141.7188 125.0814,143.8125 Q125.0814,145.9063 125.7689,146.9844 Q126.4564,148.0469 127.8001,148.0469 Q128.4251,148.0469 129.0189,147.7813 Q129.6126,147.5 130.2376,146.9219 L130.2376,149.6406 Z " fill="#000000"/><text fill="#000000" font-family="sans-serif" font-size="14" lengthAdjust="spacing" textLength="102.6616" x="147.7689" y="149.432">EncryptedValue</text><line style="stroke:#181818;stroke-width:0.5;" x1="83" x2="282.6993" y1="160" y2="160"/><line style="stroke:#181818;stroke-width:0.5;" x1="83" x2="282.6993" y1="168" y2="168"/><ellipse cx="93" cy="183.034" fill="#84BE84" rx="3" ry="3" style="stroke:#038048;stroke-width:1.0;"/><text fill="#000000" font-family="sans-serif" font-size="14" lengthAdjust="spacing" textLength="83.7757" x="102" y="186.9659">getId(): Long</text><ellipse cx="93" cy="202.1019" fill="#84BE84" rx="3" ry="3" style="stroke:#038048;stroke-width:1.0;"/><text fill="#000000" font-family="sans-serif" font-size="14" lengthAdjust="spacing" textLength="109.6756" x="102" y="206.0339">setId(Long): void</text><ellipse cx="93" cy="221.1698" fill="#84BE84" rx="3" ry="3" style="stroke:#038048;stroke-width:1.0;"/><text fill="#000000" font-family="sans-serif" font-size="14" lengthAdjust="spacing" textLength="128.0995" x="102" y="225.1018">getStorage(): String</text><ellipse cx="93" cy="240.2377" fill="#84BE84" rx="3" ry="3" style="stroke:#038048;stroke-width:1.0;"/><text fill="#000000" font-family="sans-serif" font-size="14" lengthAdjust="spacing" textLength="153.9994" x="102" y="244.1697">setStorage(String): void</text><ellipse cx="93" cy="259.3056" fill="#84BE84" rx="3" ry="3" style="stroke:#038048;stroke-width:1.0;"/><text fill="#000000" font-family="sans-serif" font-size="14" lengthAdjust="spacing" textLength="120.7216" x="102" y="263.2376">getUserId(): String</text><ellipse cx="93" cy="278.3735" fill="#84BE84" rx="3" ry="3" style="stroke:#038048;stroke-width:1.0;"/><text fill="#000000" font-family="sans-serif" font-size="14" lengthAdjust="spacing" textLength="146.6215" x="102" y="282.3055">setUserId(String): void</text><ellipse cx="93" cy="297.4415" fill="#84BE84" rx="3" ry="3" style="stroke:#038048;stroke-width:1.0;"/><text fill="#000000" font-family="sans-serif" font-size="14" lengthAdjust="spacing" textLength="149.7994" x="102" y="301.3734">getVaultName(): String</text><ellipse cx="93" cy="316.5094" fill="#84BE84" rx="3" ry="3" style="stroke:#038048;stroke-width:1.0;"/><text fill="#000000" font-family="sans-serif" font-size="14" lengthAdjust="spacing" textLength="175.6993" x="102" y="320.4414">setVaultName(String): void</text></g></a><!--class AbstractModelObjectImpl--><g id="elem_AbstractModelObjectImpl"><rect codeLine="26" fill="#F1F1F1" height="48" id="AbstractModelObjectImpl" rx="2.5" ry="2.5" style="stroke:#181818;stroke-width:0.5;" width="189.8354" x="88" y="34"/><ellipse cx="103" cy="50" fill="#A9DCDF" rx="11" ry="11" style="stroke:#181818;stroke-width:1.0;"/><path d="M103.1094,45.3438 L101.9531,50.4219 L104.2813,50.4219 L103.1094,45.3438 Z M101.625,43.1094 L104.6094,43.1094 L107.9688,55.5 L105.5156,55.5 L104.75,52.4375 L101.4688,52.4375 L100.7188,55.5 L98.2813,55.5 L101.625,43.1094 Z " fill="#000000"/><text fill="#000000" font-family="sans-serif" font-size="14" font-style="italic" lengthAdjust="spacing" textLength="157.8354" x="117" y="55.432">AbstractModelObjectImpl</text><line style="stroke:#181818;stroke-width:0.5;" x1="89" x2="276.8354" y1="66" y2="66"/><line style="stroke:#181818;stroke-width:0.5;" x1="89" x2="276.8354" y1="74" y2="74"/></g><polygon fill="none" points="183,82.0759,177,100.0759,189,100.0759,183,82.0759" style="stroke:#181818;stroke-width:1.0;"/><path d="M183,100.0759 C183,112.5142 183,110.8121 183,127.9855 " fill="none" style="stroke:#181818;stroke-width:1.0;"/><text fill="#888888" font-family="sans-serif" font-size="10" lengthAdjust="spacing" textLength="2.6" x="200.2" y="349.69">&#160;</text><a href="https://github.com/talsma-ict/umldoclet" target="_top" title="https://github.com/talsma-ict/umldoclet" xlink:actuate="onRequest" xlink:href="https://github.com/talsma-ict/umldoclet" xlink:show="new" xlink:title="https://github.com/talsma-ict/umldoclet" xlink:type="simple"><text fill="#888888" font-family="sans-serif" font-size="10" lengthAdjust="spacing" textLength="76.7199" x="163.14" y="363.31">UMLDoclet 2.2.1</text></a><!--SRC=[dLHBRzD04BxpAmPne5MRZUrKVLWLKXGgA4e1qRINaCDaFRMNh7VDxheeWlvtnh7R9gKjYBtOEuzllddi002yXf6jbaxbHO1W8HJAmyNP6D1aa9CXXu4oK2Ncv65EsfhSjuO4M8V2Eh1Ngvkqpf6lhCcKoU43NYDuMpj9Nhnu0QjGarlq7-ZNqEVBHlZMIaq1jaRRQvIIADxl9L6o1nFKlaGu7Kr4XtRlauX4nC3OMaaodY5hav5RqHfMAFapRZMxS4tEAslO9-fmcbIbDG6LyL2X2xv9wRD64ngkiMZYYmFO6fwFDxb5Hojkkp1q1kiCljZlzLswBok7EJFMkBHr05zIG8ChbMVEdZWK1gvVchOEJ7J1PMOkfIZuFna8gL2KDYCjb0d4GRJ0gk8iCN0EmfEi7GbLLXf-jY3DaHgzXnCZtRBY-bwYhWccqqs1A4AfPpFsWxMparCupRQsKnXpfpTLVgLgvAo-jYhxm_ESq-4C6lVpuDGZ0BSMhVefd0jFhcNn14ndy3pA9TOwVCJoEJxtDezZtRHLlVc73h6mv9vqpRW5mBaF3cNecZBihcUDowVvDvBXTDFXPZtWtmAbwLE0nxzwlV-Rf3JT79IMoR4FIqrlxcXUMSim3wRd_R8YDrPcCRAQ1_lLuUFQY-PnQcM8zu5S6EAwH0_oF-wlnUjYVJNJQH52vTD-FrUXgETDAVfXjHXwIeP-NUgitGWFTiDirhtrTtTBftculJZf9OUJU3zD1caSYRs3mU7WC8wFTg8uZQBfIUriHNqUMhaeh2vdlm40]--></g></svg>