<svg xmlns="http://www.w3.org/2000/svg" xmlns:xlink="http://www.w3.org/1999/xlink" contentStyleType="text/css" data-diagram-type="CLASS" height="666px" preserveAspectRatio="none" style="width:738px;height:666px;background:#FFFFFF;" version="1.1" viewBox="0 0 738 666" width="738px" zoomAndPan="magnify"><defs/><g><!--class com.hack23.cia.model.internal.application.data.ministry.impl.GovernmentBodyData--><g class="entity" data-entity="com.hack23.cia.model.internal.application.data.ministry.impl.GovernmentBodyData" data-source-line="13" data-uid="ent0002" id="entity_com.hack23.cia.model.internal.application.data.ministry.impl.GovernmentBodyData"><a href="GovernmentBodyData.html" target="_top" title="GovernmentBodyData.html" xlink:actuate="onRequest" xlink:href="GovernmentBodyData.html" xlink:show="new" xlink:title="GovernmentBodyData.html" xlink:type="simple"><rect fill="#F1F1F1" height="546.4537" rx="2.5" ry="2.5" style="stroke:#181818;stroke-width:0.5;" width="725.7318" x="6" y="91"/><ellipse cx="221.546" cy="112.344" fill="#ADD1B2" rx="11" ry="11" style="stroke:#181818;stroke-width:1;"/><path d="M224.5148,117.9846 Q223.9366,118.2815 223.296,118.4221 Q222.6554,118.5783 221.9523,118.5783 Q219.4523,118.5783 218.1241,116.9377 Q216.8116,115.2815 216.8116,112.1565 Q216.8116,109.0315 218.1241,107.3752 Q219.4523,105.719 221.9523,105.719 Q222.6554,105.719 223.296,105.8752 Q223.9523,106.0315 224.5148,106.3283 L224.5148,109.0471 Q223.8898,108.469 223.296,108.2033 Q222.7023,107.9221 222.0773,107.9221 Q220.7335,107.9221 220.046,109.0002 Q219.3585,110.0627 219.3585,112.1565 Q219.3585,114.2502 220.046,115.3283 Q220.7335,116.3908 222.0773,116.3908 Q222.7023,116.3908 223.296,116.1252 Q223.8898,115.844 224.5148,115.2658 L224.5148,117.9846 Z " fill="#000000"/><text fill="#000000" font-family="sans-serif" font-size="14" lengthAdjust="spacing" textLength="147.0974" x="311.5672" y="110.9659">GovernmentBodyData</text><text fill="#000000" font-family="sans-serif" font-size="10" lengthAdjust="spacing" textLength="286.1398" x="242.046" y="125.7579">com.hack23.cia.model.internal.application.data.ministry.impl</text><line style="stroke:#181818;stroke-width:0.5;" x1="7" x2="730.7318" y1="133.6879" y2="133.6879"/><ellipse cx="17" cy="148.7219" fill="#84BE84" rx="3" ry="3" style="stroke:#038048;stroke-width:1;"/><text fill="#000000" font-family="sans-serif" font-size="14" lengthAdjust="spacing" textLength="155.4974" x="26" y="152.6538">GovernmentBodyData()</text><ellipse cx="17" cy="167.7898" fill="#84BE84" rx="3" ry="3" style="stroke:#038048;stroke-width:1;"/><text fill="#000000" font-family="sans-serif" font-size="14" lengthAdjust="spacing" textLength="699.7318" x="26" y="171.7218">GovernmentBodyData(Integer, String, Integer, String, String, String, String, Integer, Integer, String, String)</text><ellipse cx="17" cy="186.8577" fill="#84BE84" rx="3" ry="3" style="stroke:#038048;stroke-width:1;"/><text fill="#000000" font-family="sans-serif" font-size="14" lengthAdjust="spacing" textLength="83.7757" x="26" y="190.7897">getId(): Long</text><ellipse cx="17" cy="205.9256" fill="#84BE84" rx="3" ry="3" style="stroke:#038048;stroke-width:1;"/><text fill="#000000" font-family="sans-serif" font-size="14" lengthAdjust="spacing" textLength="109.6756" x="26" y="209.8576">setId(Long): void</text><ellipse cx="17" cy="224.9935" fill="#84BE84" rx="3" ry="3" style="stroke:#038048;stroke-width:1;"/><text fill="#000000" font-family="sans-serif" font-size="14" lengthAdjust="spacing" textLength="115.4436" x="26" y="228.9255">getYear(): Integer</text><ellipse cx="17" cy="244.0614" fill="#84BE84" rx="3" ry="3" style="stroke:#038048;stroke-width:1;"/><text fill="#000000" font-family="sans-serif" font-size="14" lengthAdjust="spacing" textLength="141.3435" x="26" y="247.9934">setYear(Integer): void</text><ellipse cx="17" cy="263.1294" fill="#84BE84" rx="3" ry="3" style="stroke:#038048;stroke-width:1;"/><text fill="#000000" font-family="sans-serif" font-size="14" lengthAdjust="spacing" textLength="116.2276" x="26" y="267.0613">getName(): String</text><ellipse cx="17" cy="282.1973" fill="#84BE84" rx="3" ry="3" style="stroke:#038048;stroke-width:1;"/><text fill="#000000" font-family="sans-serif" font-size="14" lengthAdjust="spacing" textLength="142.1275" x="26" y="286.1293">setName(String): void</text><ellipse cx="17" cy="301.2652" fill="#84BE84" rx="3" ry="3" style="stroke:#038048;stroke-width:1;"/><text fill="#000000" font-family="sans-serif" font-size="14" lengthAdjust="spacing" textLength="220.2751" x="26" y="305.1972">getConsecutiveNumber(): Integer</text><ellipse cx="17" cy="320.3331" fill="#84BE84" rx="3" ry="3" style="stroke:#038048;stroke-width:1;"/><text fill="#000000" font-family="sans-serif" font-size="14" lengthAdjust="spacing" textLength="246.175" x="26" y="324.2651">setConsecutiveNumber(Integer): void</text><ellipse cx="17" cy="339.401" fill="#84BE84" rx="3" ry="3" style="stroke:#038048;stroke-width:1;"/><text fill="#000000" font-family="sans-serif" font-size="14" lengthAdjust="spacing" textLength="206.2192" x="26" y="343.333">getGovernmentBodyId(): String</text><ellipse cx="17" cy="358.4689" fill="#84BE84" rx="3" ry="3" style="stroke:#038048;stroke-width:1;"/><text fill="#000000" font-family="sans-serif" font-size="14" lengthAdjust="spacing" textLength="232.1191" x="26" y="362.4009">setGovernmentBodyId(String): void</text><ellipse cx="17" cy="377.5369" fill="#84BE84" rx="3" ry="3" style="stroke:#038048;stroke-width:1;"/><text fill="#000000" font-family="sans-serif" font-size="14" lengthAdjust="spacing" textLength="123.6615" x="26" y="381.4688">getmCode(): String</text><ellipse cx="17" cy="396.6048" fill="#84BE84" rx="3" ry="3" style="stroke:#038048;stroke-width:1;"/><text fill="#000000" font-family="sans-serif" font-size="14" lengthAdjust="spacing" textLength="149.5614" x="26" y="400.5368">setmCode(String): void</text><ellipse cx="17" cy="415.6727" fill="#84BE84" rx="3" ry="3" style="stroke:#038048;stroke-width:1;"/><text fill="#000000" font-family="sans-serif" font-size="14" lengthAdjust="spacing" textLength="130.0035" x="26" y="419.6047">getMinistry(): String</text><ellipse cx="17" cy="434.7406" fill="#84BE84" rx="3" ry="3" style="stroke:#038048;stroke-width:1;"/><text fill="#000000" font-family="sans-serif" font-size="14" lengthAdjust="spacing" textLength="155.9034" x="26" y="438.6726">setMinistry(String): void</text><ellipse cx="17" cy="453.8085" fill="#84BE84" rx="3" ry="3" style="stroke:#038048;stroke-width:1;"/><text fill="#000000" font-family="sans-serif" font-size="14" lengthAdjust="spacing" textLength="156.7434" x="26" y="457.7405">getOrgNumber(): String</text><ellipse cx="17" cy="472.8764" fill="#84BE84" rx="3" ry="3" style="stroke:#038048;stroke-width:1;"/><text fill="#000000" font-family="sans-serif" font-size="14" lengthAdjust="spacing" textLength="182.6433" x="26" y="476.8084">setOrgNumber(String): void</text><ellipse cx="17" cy="491.9444" fill="#84BE84" rx="3" ry="3" style="stroke:#038048;stroke-width:1;"/><text fill="#000000" font-family="sans-serif" font-size="14" lengthAdjust="spacing" textLength="160.3974" x="26" y="495.8763">getHeadCount(): Integer</text><ellipse cx="17" cy="511.0123" fill="#84BE84" rx="3" ry="3" style="stroke:#038048;stroke-width:1;"/><text fill="#000000" font-family="sans-serif" font-size="14" lengthAdjust="spacing" textLength="186.2973" x="26" y="514.9443">setHeadCount(Integer): void</text><ellipse cx="17" cy="530.0802" fill="#84BE84" rx="3" ry="3" style="stroke:#038048;stroke-width:1;"/><text fill="#000000" font-family="sans-serif" font-size="14" lengthAdjust="spacing" textLength="241.5131" x="26" y="534.0122">getAnnualWorkHeadCount(): Integer</text><ellipse cx="17" cy="549.1481" fill="#84BE84" rx="3" ry="3" style="stroke:#038048;stroke-width:1;"/><text fill="#000000" font-family="sans-serif" font-size="14" lengthAdjust="spacing" textLength="267.413" x="26" y="553.0801">setAnnualWorkHeadCount(Integer): void</text><ellipse cx="17" cy="568.216" fill="#84BE84" rx="3" ry="3" style="stroke:#038048;stroke-width:1;"/><text fill="#000000" font-family="sans-serif" font-size="14" lengthAdjust="spacing" textLength="98.0556" x="26" y="572.148">getVat(): String</text><ellipse cx="17" cy="587.284" fill="#84BE84" rx="3" ry="3" style="stroke:#038048;stroke-width:1;"/><text fill="#000000" font-family="sans-serif" font-size="14" lengthAdjust="spacing" textLength="123.9555" x="26" y="591.2159">setVat(String): void</text><ellipse cx="17" cy="606.3519" fill="#84BE84" rx="3" ry="3" style="stroke:#038048;stroke-width:1;"/><text fill="#000000" font-family="sans-serif" font-size="14" lengthAdjust="spacing" textLength="141.8475" x="26" y="610.2838">getComment(): String</text><ellipse cx="17" cy="625.4198" fill="#84BE84" rx="3" ry="3" style="stroke:#038048;stroke-width:1;"/><text fill="#000000" font-family="sans-serif" font-size="14" lengthAdjust="spacing" textLength="167.7474" x="26" y="629.3518">setComment(String): void</text></a></g><!--class java.io.Serializable--><g class="entity" data-entity="java.io.Serializable" data-source-line="42" data-uid="ent0003" id="entity_java.io.Serializable"><rect fill="#F1F1F1" height="42.6879" rx="2.5" ry="2.5" style="stroke:#181818;stroke-width:0.5;" width="103.3017" x="317.5" y="12"/><ellipse cx="332.5" cy="33.344" fill="#B4A7E5" rx="11" ry="11" style="stroke:#181818;stroke-width:1;"/><path d="M328.4219,29.1096 L328.4219,26.9533 L335.8125,26.9533 L335.8125,29.1096 L333.3438,29.1096 L333.3438,37.1877 L335.8125,37.1877 L335.8125,39.344 L328.4219,39.344 L328.4219,37.1877 L330.8906,37.1877 L330.8906,29.1096 L328.4219,29.1096 Z " fill="#000000"/><text fill="#000000" font-family="sans-serif" font-size="14" font-style="italic" lengthAdjust="spacing" textLength="71.3017" x="346.5" y="31.9659">Serializable</text><text fill="#000000" font-family="sans-serif" font-size="10" font-style="italic" lengthAdjust="spacing" textLength="29.38" x="367.4609" y="46.7579">java.io</text></g><g class="link" data-entity-1="java.io.Serializable" data-entity-2="com.hack23.cia.model.internal.application.data.ministry.impl.GovernmentBodyData" data-uid="lnk4" id="link_java.io.Serializable_com.hack23.cia.model.internal.application.data.ministry.impl.GovernmentBodyData"><polygon fill="none" points="369,55.0491,363,73.0491,375,73.0491,369,55.0491" style="stroke:#181818;stroke-width:1;"/><path d="M369,73.0491 C369,82.4601 369,76.6815 369,90.8165" fill="none" style="stroke:#181818;stroke-width:1;stroke-dasharray:7,7;"/></g><g class="footer" data-source-line="52"><text fill="#888888" font-family="sans-serif" font-size="10" lengthAdjust="spacing" textLength="2.6" x="364.2" y="641.69">&#160;</text><a href="https://github.com/talsma-ict/umldoclet" target="_top" title="https://github.com/talsma-ict/umldoclet" xlink:actuate="onRequest" xlink:href="https://github.com/talsma-ict/umldoclet" xlink:show="new" xlink:title="https://github.com/talsma-ict/umldoclet" xlink:type="simple"><text fill="#888888" font-family="sans-serif" font-size="10" lengthAdjust="spacing" textLength="76.7199" x="327.14" y="655.31">UMLDoclet 2.2.4</text></a></g><!--SRC=[hLNRRjD047tdAuRoG2lQZHDIBb5LgGHKYjA2I0j28GyJUselMU-QtNLH2lrtnfVcGkBm07v9CcVEcRFZpGm0m6FecsncPPnuy0Py8XrSdGy0TGGnQRBeAGAPOamE9gICZbsLI82vJum5Srt-2esrv3AZ8wbZU8St2CxaDYGd7Zo0ijJblVeFT4lgaraHV6r2HHvs-tjBbZf1-zb19-WyWqjKBaKuwr-AMct1wOYEw09hAncITYoPwuXiQUiamv0_1XMo3pTadJIQEK6jKnmrDDgZr0uojDuLH_gWKFl2Qrjm_KFH3c3tP3XODHUyBCtjmudLc4VmqNpFv-Tzc5cCsRB2cSazk9GyQgmmnwurfjml36b8N1Kzjr8RJIMUo8Y0qipFu5gIYjoVKHPB38VBUAZGETWvSlAMUktkyQdXK-gKj7zbejbhzFXLrs1m79fK91XEEqz5A56a9Y8bfFRCG2KmoxY9wBb58cAYIAMMpjkPa6ccTe1VtBy8Y7LhC1gj1qNYKpKUmy_oVCNpP3rfTsyhUiQMOhBxCFIMh-G-h0MQFkU93OobkZ7visXthmS3_cSimguC5p66ReoCLXXV26t1gULNQ2LM0vku5tnh2cxbP8LQGhN33So-uJz0c7jvGnTvEg562-k9M_oiDhxgnGPlQsdDFjC-twW6cGfhvfxNbws1FeUR5TxRUD6T3H8Bl5dZBM7KDxdsJHrU96pfx8dMEQhFnax_ghSfTOlo9_GDfokGRJSeBTvW0_SUNUVVLMEgd17NFF2MHjMGh4GbRt6YQ6b8VUFr8QGfvqtzNIodLeAR43Zw9SJ_db5LkIFdPugEvuU-DeO5bsPKyRoTPMG7Ka_xHl54V_HYCtfLB2WbDV5E3AUQU7u7yyoxgbnhgLvTwwiUZHBlCzThjMBfatmY-AWjNox70ndwLfwggDgAV-p7yRZUTwVpnLliheEWUz1kNxQxlQTTxhnusJqCkksWy_n9qEa5mUXDRar6hQ4tuJGnAXt_1W00]--></g></svg>