<svg xmlns="http://www.w3.org/2000/svg" xmlns:xlink="http://www.w3.org/1999/xlink" contentStyleType="text/css" data-diagram-type="CLASS" height="484px" preserveAspectRatio="none" style="width:492px;height:484px;background:#FFFFFF;" version="1.1" viewBox="0 0 492 484" width="492px" zoomAndPan="magnify"><defs/><g><!--class com.hack23.cia.model.internal.application.data.ministry.impl.ViewMinistryDecisionImpactEmbeddedId--><g class="entity" data-entity="com.hack23.cia.model.internal.application.data.ministry.impl.ViewMinistryDecisionImpactEmbeddedId" data-source-line="13" data-uid="ent0002" id="entity_com.hack23.cia.model.internal.application.data.ministry.impl.ViewMinistryDecisionImpactEmbeddedId"><a href="ViewMinistryDecisionImpactEmbeddedId.html" target="_top" title="ViewMinistryDecisionImpactEmbeddedId.html" xlink:actuate="onRequest" xlink:href="ViewMinistryDecisionImpactEmbeddedId.html" xlink:show="new" xlink:title="ViewMinistryDecisionImpactEmbeddedId.html" xlink:type="simple"><rect fill="#F1F1F1" height="363.7746" rx="2.5" ry="2.5" style="stroke:#181818;stroke-width:0.5;" width="479.5703" x="6" y="91"/><ellipse cx="98.4652" cy="112.344" fill="#ADD1B2" rx="11" ry="11" style="stroke:#181818;stroke-width:1;"/><path d="M101.434,117.9846 Q100.8559,118.2815 100.2152,118.4221 Q99.5746,118.5783 98.8715,118.5783 Q96.3715,118.5783 95.0434,116.9377 Q93.7309,115.2815 93.7309,112.1565 Q93.7309,109.0315 95.0434,107.3752 Q96.3715,105.719 98.8715,105.719 Q99.5746,105.719 100.2152,105.8752 Q100.8715,106.0315 101.434,106.3283 L101.434,109.0471 Q100.809,108.469 100.2152,108.2033 Q99.6215,107.9221 98.9965,107.9221 Q97.6527,107.9221 96.9652,109.0002 Q96.2777,110.0627 96.2777,112.1565 Q96.2777,114.2502 96.9652,115.3283 Q97.6527,116.3908 98.9965,116.3908 Q99.6215,116.3908 100.2152,116.1252 Q100.809,115.844 101.434,115.2658 L101.434,117.9846 Z " fill="#000000"/><text fill="#000000" font-family="sans-serif" font-size="14" lengthAdjust="spacing" textLength="270.5909" x="126.7397" y="110.9659">ViewMinistryDecisionImpactEmbeddedId</text><text fill="#000000" font-family="sans-serif" font-size="10" lengthAdjust="spacing" textLength="286.1398" x="118.9652" y="125.7579">com.hack23.cia.model.internal.application.data.ministry.impl</text><line style="stroke:#181818;stroke-width:0.5;" x1="7" x2="484.5703" y1="133.6879" y2="133.6879"/><polygon fill="none" points="17,143.7219,21,147.7219,17,151.7219,13,147.7219" style="stroke:#B38D22;stroke-width:1;"/><text fill="#000000" font-family="sans-serif" font-size="14" lengthAdjust="spacing" textLength="134.2595" x="26" y="152.6538">ministryCode: String</text><polygon fill="none" points="17,162.7898,21,166.7898,17,170.7898,13,166.7898" style="stroke:#B38D22;stroke-width:1;"/><text fill="#000000" font-family="sans-serif" font-size="14" lengthAdjust="spacing" textLength="117.6696" x="26" y="171.7218">committee: String</text><polygon fill="none" points="17,181.8577,21,185.8577,17,189.8577,13,185.8577" style="stroke:#B38D22;stroke-width:1;"/><text fill="#000000" font-family="sans-serif" font-size="14" lengthAdjust="spacing" textLength="132.4955" x="26" y="190.7897">decisionType: String</text><polygon fill="none" points="17,200.9256,21,204.9256,17,208.9256,13,204.9256" style="stroke:#B38D22;stroke-width:1;"/><text fill="#000000" font-family="sans-serif" font-size="14" lengthAdjust="spacing" textLength="144.6474" x="26" y="209.8576">decisionQuarter: Date</text><line style="stroke:#181818;stroke-width:0.5;" x1="7" x2="484.5703" y1="217.9596" y2="217.9596"/><ellipse cx="17" cy="232.9935" fill="#84BE84" rx="3" ry="3" style="stroke:#038048;stroke-width:1;"/><text fill="#000000" font-family="sans-serif" font-size="14" lengthAdjust="spacing" textLength="163.8274" x="26" y="236.9255">getMinistryCode(): String</text><ellipse cx="17" cy="252.0614" fill="#84BE84" rx="3" ry="3" style="stroke:#038048;stroke-width:1;"/><text fill="#000000" font-family="sans-serif" font-size="14" lengthAdjust="spacing" textLength="189.7273" x="26" y="255.9934">setMinistryCode(String): void</text><ellipse cx="17" cy="271.1294" fill="#84BE84" rx="3" ry="3" style="stroke:#038048;stroke-width:1;"/><text fill="#000000" font-family="sans-serif" font-size="14" lengthAdjust="spacing" textLength="149.7574" x="26" y="275.0613">getCommittee(): String</text><ellipse cx="17" cy="290.1973" fill="#84BE84" rx="3" ry="3" style="stroke:#038048;stroke-width:1;"/><text fill="#000000" font-family="sans-serif" font-size="14" lengthAdjust="spacing" textLength="175.6573" x="26" y="294.1293">setCommittee(String): void</text><ellipse cx="17" cy="309.2652" fill="#84BE84" rx="3" ry="3" style="stroke:#038048;stroke-width:1;"/><text fill="#000000" font-family="sans-serif" font-size="14" lengthAdjust="spacing" textLength="164.0654" x="26" y="313.1972">getDecisionType(): String</text><ellipse cx="17" cy="328.3331" fill="#84BE84" rx="3" ry="3" style="stroke:#038048;stroke-width:1;"/><text fill="#000000" font-family="sans-serif" font-size="14" lengthAdjust="spacing" textLength="189.9653" x="26" y="332.2651">setDecisionType(String): void</text><ellipse cx="17" cy="347.401" fill="#84BE84" rx="3" ry="3" style="stroke:#038048;stroke-width:1;"/><text fill="#000000" font-family="sans-serif" font-size="14" lengthAdjust="spacing" textLength="176.2173" x="26" y="351.333">getDecisionQuarter(): Date</text><ellipse cx="17" cy="366.4689" fill="#84BE84" rx="3" ry="3" style="stroke:#038048;stroke-width:1;"/><text fill="#000000" font-family="sans-serif" font-size="14" lengthAdjust="spacing" textLength="202.1172" x="26" y="370.4009">setDecisionQuarter(Date): void</text><ellipse cx="17" cy="385.5369" fill="#84BE84" rx="3" ry="3" style="stroke:#038048;stroke-width:1;"/><text fill="#000000" font-family="sans-serif" font-size="14" lengthAdjust="spacing" textLength="441.1804" x="26" y="389.4688">withMinistryCode(String): ViewMinistryDecisionImpactEmbeddedId</text><ellipse cx="17" cy="404.6048" fill="#84BE84" rx="3" ry="3" style="stroke:#038048;stroke-width:1;"/><text fill="#000000" font-family="sans-serif" font-size="14" lengthAdjust="spacing" textLength="427.1104" x="26" y="408.5368">withCommittee(String): ViewMinistryDecisionImpactEmbeddedId</text><ellipse cx="17" cy="423.6727" fill="#84BE84" rx="3" ry="3" style="stroke:#038048;stroke-width:1;"/><text fill="#000000" font-family="sans-serif" font-size="14" lengthAdjust="spacing" textLength="441.4183" x="26" y="427.6047">withDecisionType(String): ViewMinistryDecisionImpactEmbeddedId</text><ellipse cx="17" cy="442.7406" fill="#84BE84" rx="3" ry="3" style="stroke:#038048;stroke-width:1;"/><text fill="#000000" font-family="sans-serif" font-size="14" lengthAdjust="spacing" textLength="453.5703" x="26" y="446.6726">withDecisionQuarter(Date): ViewMinistryDecisionImpactEmbeddedId</text></a></g><!--class com.hack23.cia.model.common.api.ModelObject--><g class="entity" data-entity="com.hack23.cia.model.common.api.ModelObject" data-source-line="32" data-uid="ent0003" id="entity_com.hack23.cia.model.common.api.ModelObject"><rect fill="#F1F1F1" height="42.6879" rx="2.5" ry="2.5" style="stroke:#181818;stroke-width:0.5;" width="189.3398" x="151.5" y="12"/><ellipse cx="166.5" cy="33.344" fill="#B4A7E5" rx="11" ry="11" style="stroke:#181818;stroke-width:1;"/><path d="M162.4219,29.1096 L162.4219,26.9533 L169.8125,26.9533 L169.8125,29.1096 L167.3438,29.1096 L167.3438,37.1877 L169.8125,37.1877 L169.8125,39.344 L162.4219,39.344 L162.4219,37.1877 L164.8906,37.1877 L164.8906,29.1096 L162.4219,29.1096 Z " fill="#000000"/><text fill="#000000" font-family="sans-serif" font-size="14" font-style="italic" lengthAdjust="spacing" textLength="78.1477" x="220.096" y="31.9659">ModelObject</text><text fill="#000000" font-family="sans-serif" font-size="10" font-style="italic" lengthAdjust="spacing" textLength="157.3398" x="180.5" y="46.7579">com.hack23.cia.model.common.api</text></g><g class="link" data-entity-1="com.hack23.cia.model.common.api.ModelObject" data-entity-2="com.hack23.cia.model.internal.application.data.ministry.impl.ViewMinistryDecisionImpactEmbeddedId" data-uid="lnk4" id="link_com.hack23.cia.model.common.api.ModelObject_com.hack23.cia.model.internal.application.data.ministry.impl.ViewMinistryDecisionImpactEmbeddedId"><polygon fill="none" points="246,55.1611,240,73.1611,252,73.1611,246,55.1611" style="stroke:#181818;stroke-width:1;"/><path d="M246,73.1611 C246,82.641 246,76.8469 246,90.6291" fill="none" style="stroke:#181818;stroke-width:1;stroke-dasharray:7,7;"/></g><g class="footer" data-source-line="42"><text fill="#888888" font-family="sans-serif" font-size="10" lengthAdjust="spacing" textLength="2.6" x="241.2" y="459.69">&#160;</text><a href="https://github.com/talsma-ict/umldoclet" target="_top" title="https://github.com/talsma-ict/umldoclet" xlink:actuate="onRequest" xlink:href="https://github.com/talsma-ict/umldoclet" xlink:show="new" xlink:title="https://github.com/talsma-ict/umldoclet" xlink:type="simple"><text fill="#888888" font-family="sans-serif" font-size="10" lengthAdjust="spacing" textLength="76.7199" x="204.14" y="473.31">UMLDoclet 2.2.4</text></a></g><!--SRC=[jPNVRzem4CVV-rVSseUrQZ4XPLsBgaeLdRPEeFs0xeNoO9mZyN3iB7PQiQt_-ouXXK1XPPkM5uJl_BdldNq-082Nq3R9D9LXvC0PS96qSDFj0DS1XAWnvGu3a34FqS88bT6XdJaYyCn59WKpBlu9awPe4wC3gKDup-yuM9Eb0YtRsO4YLF-HVizjXJwQvejNHYXqiDy-g4ZolSP9pVVy4-XpPMCEr-q-AscBFJxpMHE8hQH0RGcPwG3JGjPbmWNzT6QM8xZ3r4gZQOzNSl9KXT6EIsqXuQcpUKeV5TSkrzfW5FyLQtYmVzdhB8lppWfnHt2PQfu5yDbyo-RvlaXI7f9anQScSs1ZT5ppcSsIQirZgXSNs4EAoXsLKXkDXJsI0GB6YPl2MA8AxEegmI93oyMwKDnQs3styZks6isBBnBlkr9BwzBf5GgP9tmTKoZt9XvX461m7Tpgqjsx42Pc4HSJ_vW9oLbi0bHCQeUKb68yIQYit1631ToHlIGp6ITg5-We_mN0jX4BWy4sRYnoiHeEuKTHbVpRUupL9aqjwBcKBkV2Ii9ZwHokCGLbZFuq-OtrKqRt1TCMND5DdfiFGtJTIk3zWoU4GxlYChEJuvsHmHAf_IXo0sPXtyougcIp0RFayZofp3o7BUTkd_ha3azOzz95wokmpL4lSzQKuCyXwmlmzvoLxBS6FSoQkkYVCJqFbSRkvftrOVGLXNkkV_EhJGt74xcvHHS-h48ktvJjDy3vJyR-_oCmqtLktLJXnRpaOsCeHANby-yT7M7QaNhIDegUrRtJzTQRV4eegP46avXef4VKcti-pCBLA_7AMBTwC8YSIsohNW_fmBDHNfYwAoPKJGfNps8Lp4RJof0Q3ikXytO-_V81KlEQjKQZtsYsZfjqekpizV7fgN_YDmyzl-LvWpTPQXAizvmHayYeUFWB]--></g></svg>