<?xml version="1.0" encoding="UTF-8" standalone="no"?><svg xmlns="http://www.w3.org/2000/svg" xmlns:xlink="http://www.w3.org/1999/xlink" contentStyleType="text/css" height="237px" preserveAspectRatio="none" style="width:388px;height:237px;background:#FFFFFF;" version="1.1" viewBox="0 0 388 237" width="388px" zoomAndPan="magnify"><defs/><g><!--MD5=[79fcab2a0f0069b7ae27475aeff82a8e]
class com.hack23.cia.web.impl.ui.application.web.listener.AuthorizationFailureEventListener--><a href="AuthorizationFailureEventListener.html" target="_top" title="AuthorizationFailureEventListener.html" xlink:actuate="onRequest" xlink:href="AuthorizationFailureEventListener.html" xlink:show="new" xlink:title="AuthorizationFailureEventListener.html" xlink:type="simple"><g id="elem_com.hack23.cia.web.impl.ui.application.web.listener.AuthorizationFailureEventListener"><rect codeLine="5" fill="#F1F1F1" height="69.7558" id="com.hack23.cia.web.impl.ui.application.web.listener.AuthorizationFailureEventListener" rx="2.5" ry="2.5" style="stroke:#181818;stroke-width:0.5;" width="374" x="7" y="140.016"/><ellipse cx="63.25" cy="161.36" fill="#ADD1B2" rx="11" ry="11" style="stroke:#181818;stroke-width:1.0;"/><path d="M66.2188,167.0006 Q65.6406,167.2975 65,167.4381 Q64.3594,167.5944 63.6563,167.5944 Q61.1563,167.5944 59.8281,165.9537 Q58.5156,164.2975 58.5156,161.1725 Q58.5156,158.0475 59.8281,156.3912 Q61.1563,154.735 63.6563,154.735 Q64.3594,154.735 65,154.8912 Q65.6563,155.0475 66.2188,155.3444 L66.2188,158.0631 Q65.5938,157.485 65,157.2194 Q64.4063,156.9381 63.7813,156.9381 Q62.4375,156.9381 61.75,158.0162 Q61.0625,159.0787 61.0625,161.1725 Q61.0625,163.2662 61.75,164.3444 Q62.4375,165.4069 63.7813,165.4069 Q64.4063,165.4069 65,165.1412 Q65.5938,164.86 66.2188,164.2819 L66.2188,167.0006 Z " fill="#000000"/><text fill="#000000" font-family="sans-serif" font-size="14" lengthAdjust="spacing" textLength="228" x="96.25" y="159.982">AuthorizationFailureEventListener</text><text fill="#000000" font-family="sans-serif" font-size="10" lengthAdjust="spacing" textLength="253" x="83.75" y="174.7739">com.hack23.cia.web.impl.ui.application.web.listener</text><line style="stroke:#181818;stroke-width:0.5;" x1="8" x2="380" y1="182.7039" y2="182.7039"/><ellipse cx="18" cy="197.7379" fill="#84BE84" rx="3" ry="3" style="stroke:#038048;stroke-width:1.0;"/><text fill="#000000" font-family="sans-serif" font-size="14" lengthAdjust="spacing" textLength="348" x="27" y="201.6699">onApplicationEvent(AuthorizationFailureEvent): void</text></g></a><!--MD5=[c0fb8348a6dea4e4beae186b0fa320dc]
class org.springframework.context.ApplicationListener--><g id="elem_org.springframework.context.ApplicationListener"><rect codeLine="9" fill="#F1F1F1" height="69.7558" id="org.springframework.context.ApplicationListener" rx="2.5" ry="2.5" style="stroke:#181818;stroke-width:0.5;" width="354" x="17" y="10.016"/><ellipse cx="52.7" cy="31.36" fill="#B4A7E5" rx="11" ry="11" style="stroke:#181818;stroke-width:1.0;"/><path d="M48.6219,27.1256 L48.6219,24.9694 L56.0125,24.9694 L56.0125,27.1256 L53.5438,27.1256 L53.5438,35.2037 L56.0125,35.2037 L56.0125,37.36 L48.6219,37.36 L48.6219,35.2037 L51.0906,35.2037 L51.0906,27.1256 L48.6219,27.1256 Z " fill="#000000"/><text fill="#000000" font-family="sans-serif" font-size="14" font-style="italic" lengthAdjust="spacing" textLength="121" x="77.3" y="29.982">ApplicationListener</text><text fill="#000000" font-family="sans-serif" font-size="10" font-style="italic" lengthAdjust="spacing" textLength="133" x="71.3" y="44.7739">org.springframework.context</text><rect fill="#FFFFFF" height="18.3441" style="stroke:#181818;stroke-width:1.0;stroke-dasharray:2.0,2.0;" width="141" x="233" y="7.016"/><text fill="#000000" font-family="sans-serif" font-size="12" font-style="italic" lengthAdjust="spacing" textLength="139" x="234" y="20.8441">AuthorizationFailureEvent</text><line style="stroke:#181818;stroke-width:0.5;" x1="18" x2="370" y1="52.7039" y2="52.7039"/><ellipse cx="28" cy="67.7379" fill="#84BE84" rx="3" ry="3" style="stroke:#038048;stroke-width:1.0;"/><text fill="#000000" font-family="sans-serif" font-size="14" font-style="italic" lengthAdjust="spacing" textLength="328" x="37" y="71.6699">onApplicationEvent(AuthorizationFailureEvent): void</text></g><!--MD5=[9a3c8d9a0669452faadea237ea1fb005]
reverse link org.springframework.context.ApplicationListener to com.hack23.cia.web.impl.ui.application.web.listener.AuthorizationFailureEventListener--><g id="link_org.springframework.context.ApplicationListener_com.hack23.cia.web.impl.ui.application.web.listener.AuthorizationFailureEventListener"><path codeLine="13" d="M194,100.406 C194,113.696 194,127.556 194,139.616 " fill="none" id="org.springframework.context.ApplicationListener-backto-com.hack23.cia.web.impl.ui.application.web.listener.AuthorizationFailureEventListener" style="stroke:#181818;stroke-width:1.0;stroke-dasharray:7.0,7.0;"/><polygon fill="none" points="187,100.316,194,80.316,201,100.316,187,100.316" style="stroke:#181818;stroke-width:1.0;"/></g><rect fill="none" height="13.62" style="stroke:none;stroke-width:1.0;" width="188" x="93" y="215.7718"/><text fill="#888888" font-family="sans-serif" font-size="10" lengthAdjust="spacing" textLength="188" x="93" y="226.4618">UMLDoclet 2.0.20, PlantUML 1.2022.12</text><!--MD5=[8c5518018ccb0293701dbd8f4c3ce77b]
@startuml
    set namespaceSeparator none
    hide empty fields
    hide empty methods

    class "<size:14>AuthorizationFailureEventListener\n<size:10>com.hack23.cia.web.impl.ui.application.web.listener" as com.hack23.cia.web.impl.ui.application.web.listener.AuthorizationFailureEventListener [[AuthorizationFailureEventListener.html]] {
        +onApplicationEvent(AuthorizationFailureEvent): void
    }

    interface "<size:14>ApplicationListener\n<size:10>org.springframework.context" as org.springframework.context.ApplicationListener<AuthorizationFailureEvent> {
        {abstract} +onApplicationEvent(AuthorizationFailureEvent): void
    }

    org.springframework.context.ApplicationListener <|.. com.hack23.cia.web.impl.ui.application.web.listener.AuthorizationFailureEventListener

    center footer UMLDoclet 2.0.20, PlantUML 1.2022.12
@enduml

PlantUML version 1.2022.12(Sun Oct 23 20:12:26 CEST 2022)
(APACHE source distribution)
Java Runtime: OpenJDK Runtime Environment
JVM: OpenJDK 64-Bit Server VM
Default Encoding: UTF-8
Language: 
Country: 
--></g></svg>