<?xml version="1.0" encoding="UTF-8" standalone="no"?><svg xmlns="http://www.w3.org/2000/svg" xmlns:xlink="http://www.w3.org/1999/xlink" contentStyleType="text/css" height="286px" preserveAspectRatio="none" style="width:635px;height:286px;background:#FFFFFF;" version="1.1" viewBox="0 0 635 286" width="635px" zoomAndPan="magnify"><defs/><g><!--MD5=[622333adabc5b3a72bd8ad89f501d8ca]
cluster com.hack23.cia.web.impl.ui.application.views.user.goverment--><g id="cluster_com.hack23.cia.web.impl.ui.application.views.user.goverment"><path d="M8.5,129 L499.5,129 A3.75,3.75 0 0 1 502,131.5 L509,151.2969 L625.5,151.2969 A2.5,2.5 0 0 1 628,153.7969 L628,258.5 A2.5,2.5 0 0 1 625.5,261 L8.5,261 A2.5,2.5 0 0 1 6,258.5 L6,131.5 A2.5,2.5 0 0 1 8.5,129 " style="stroke:#000000;stroke-width:1.5;fill:none;"/><line style="stroke:#000000;stroke-width:1.5;fill:none;" x1="6" x2="509" y1="151.2969" y2="151.2969"/><text fill="#000000" font-family="sans-serif" font-size="14" font-weight="bold" lengthAdjust="spacing" textLength="490" x="10" y="143.9951">com.hack23.cia.web.impl.ui.application.views.user.goverment</text></g><!--MD5=[b6f7de69fe91c8bcc3328c73a6375d62]
cluster com.hack23.cia.web.impl.ui.application.views.user.common--><g id="cluster_com.hack23.cia.web.impl.ui.application.views.user.common"><path d="M91.5,6 L563.5,6 A3.75,3.75 0 0 1 566,8.5 L573,28.2969 L573.5,28.2969 A2.5,2.5 0 0 1 576,30.7969 L576,102.5 A2.5,2.5 0 0 1 573.5,105 L91.5,105 A2.5,2.5 0 0 1 89,102.5 L89,8.5 A2.5,2.5 0 0 1 91.5,6 " style="stroke:#000000;stroke-width:1.5;fill:none;"/><line style="stroke:#000000;stroke-width:1.5;fill:none;" x1="89" x2="573" y1="28.2969" y2="28.2969"/><text fill="#000000" font-family="sans-serif" font-size="14" font-weight="bold" lengthAdjust="spacing" textLength="471" x="93" y="20.9951">com.hack23.cia.web.impl.ui.application.views.user.common</text></g><!--MD5=[7322412f95ef478e344d8bbb9ab37db4]
class com.hack23.cia.web.impl.ui.application.views.user.goverment.MinistryView--><a href="MinistryView.html" target="_top" title="MinistryView.html" xlink:actuate="onRequest" xlink:href="MinistryView.html" xlink:show="new" xlink:title="MinistryView.html" xlink:type="simple"><g id="elem_com.hack23.cia.web.impl.ui.application.views.user.goverment.MinistryView"><rect codeLine="3" fill="#F1F1F1" height="80.5938" id="com.hack23.cia.web.impl.ui.application.views.user.goverment.MinistryView" rx="2.5" ry="2.5" style="stroke:#181818;stroke-width:0.5;" width="249" x="362.5" y="164"/><ellipse cx="440.75" cy="180" fill="#ADD1B2" rx="11" ry="11" style="stroke:#181818;stroke-width:1.0;"/><path d="M443.7188,185.6406 Q443.1406,185.9375 442.5,186.0781 Q441.8594,186.2344 441.1563,186.2344 Q438.6563,186.2344 437.3281,184.5938 Q436.0156,182.9375 436.0156,179.8125 Q436.0156,176.6875 437.3281,175.0313 Q438.6563,173.375 441.1563,173.375 Q441.8594,173.375 442.5,173.5313 Q443.1563,173.6875 443.7188,173.9844 L443.7188,176.7031 Q443.0938,176.125 442.5,175.8594 Q441.9063,175.5781 441.2813,175.5781 Q439.9375,175.5781 439.25,176.6563 Q438.5625,177.7188 438.5625,179.8125 Q438.5625,181.9063 439.25,182.9844 Q439.9375,184.0469 441.2813,184.0469 Q441.9063,184.0469 442.5,183.7813 Q443.0938,183.5 443.7188,182.9219 L443.7188,185.6406 Z " fill="#000000"/><text fill="#000000" font-family="sans-serif" font-size="14" lengthAdjust="spacing" textLength="84" x="461.25" y="184.8467">MinistryView</text><line style="stroke:#181818;stroke-width:0.5;" x1="363.5" x2="610.5" y1="196" y2="196"/><ellipse cx="373.5" cy="207" fill="none" rx="3" ry="3" style="stroke:#038048;stroke-width:1.0;"/><text fill="#000000" font-family="sans-serif" font-size="14" lengthAdjust="spacing" text-decoration="underline" textLength="89" x="382.5" y="212.9951">NAME: String</text><line style="stroke:#181818;stroke-width:0.5;" x1="363.5" x2="610.5" y1="220.2969" y2="220.2969"/><ellipse cx="373.5" cy="231.2969" fill="#84BE84" rx="3" ry="3" style="stroke:#038048;stroke-width:1.0;"/><text fill="#000000" font-family="sans-serif" font-size="14" lengthAdjust="spacing" textLength="223" x="382.5" y="237.292">MinistryView(ApplicationContext)</text></g></a><!--MD5=[e8da1b36d63d6779f9363da0223b77f9]
class com.hack23.cia.web.impl.ui.application.views.user.goverment.MinistryRankingView--><a href="MinistryRankingView.html" target="_top" title="MinistryRankingView.html" xlink:actuate="onRequest" xlink:href="MinistryRankingView.html" xlink:show="new" xlink:title="MinistryRankingView.html" xlink:type="simple"><g id="elem_com.hack23.cia.web.impl.ui.application.views.user.goverment.MinistryRankingView"><rect codeLine="8" fill="#F1F1F1" height="80.5938" id="com.hack23.cia.web.impl.ui.application.views.user.goverment.MinistryRankingView" rx="2.5" ry="2.5" style="stroke:#181818;stroke-width:0.5;" width="305" x="22.5" y="164"/><ellipse cx="100.75" cy="180" fill="#ADD1B2" rx="11" ry="11" style="stroke:#181818;stroke-width:1.0;"/><path d="M103.7188,185.6406 Q103.1406,185.9375 102.5,186.0781 Q101.8594,186.2344 101.1563,186.2344 Q98.6563,186.2344 97.3281,184.5938 Q96.0156,182.9375 96.0156,179.8125 Q96.0156,176.6875 97.3281,175.0313 Q98.6563,173.375 101.1563,173.375 Q101.8594,173.375 102.5,173.5313 Q103.1563,173.6875 103.7188,173.9844 L103.7188,176.7031 Q103.0938,176.125 102.5,175.8594 Q101.9063,175.5781 101.2813,175.5781 Q99.9375,175.5781 99.25,176.6563 Q98.5625,177.7188 98.5625,179.8125 Q98.5625,181.9063 99.25,182.9844 Q99.9375,184.0469 101.2813,184.0469 Q101.9063,184.0469 102.5,183.7813 Q103.0938,183.5 103.7188,182.9219 L103.7188,185.6406 Z " fill="#000000"/><text fill="#000000" font-family="sans-serif" font-size="14" lengthAdjust="spacing" textLength="140" x="121.25" y="184.8467">MinistryRankingView</text><line style="stroke:#181818;stroke-width:0.5;" x1="23.5" x2="326.5" y1="196" y2="196"/><ellipse cx="33.5" cy="207" fill="none" rx="3" ry="3" style="stroke:#038048;stroke-width:1.0;"/><text fill="#000000" font-family="sans-serif" font-size="14" lengthAdjust="spacing" text-decoration="underline" textLength="89" x="42.5" y="212.9951">NAME: String</text><line style="stroke:#181818;stroke-width:0.5;" x1="23.5" x2="326.5" y1="220.2969" y2="220.2969"/><ellipse cx="33.5" cy="231.2969" fill="#84BE84" rx="3" ry="3" style="stroke:#038048;stroke-width:1.0;"/><text fill="#000000" font-family="sans-serif" font-size="14" lengthAdjust="spacing" textLength="279" x="42.5" y="237.292">MinistryRankingView(ApplicationContext)</text></g></a><!--MD5=[4d95a43774ca7342273458fa929c2e89]
class com.hack23.cia.web.impl.ui.application.views.user.common.AbstractGroupView--><a href="../common/AbstractGroupView.html" target="_top" title="../common/AbstractGroupView.html" xlink:actuate="onRequest" xlink:href="../common/AbstractGroupView.html" xlink:show="new" xlink:title="../common/AbstractGroupView.html" xlink:type="simple"><g id="elem_com.hack23.cia.web.impl.ui.application.views.user.common.AbstractGroupView"><rect codeLine="18" fill="#F1F1F1" height="48" id="com.hack23.cia.web.impl.ui.application.views.user.common.AbstractGroupView" rx="2.5" ry="2.5" style="stroke:#181818;stroke-width:0.5;" width="165" x="350.5" y="41"/><ellipse cx="365.5" cy="57" fill="#A9DCDF" rx="11" ry="11" style="stroke:#181818;stroke-width:1.0;"/><path d="M365.6094,52.3438 L364.4531,57.4219 L366.7813,57.4219 L365.6094,52.3438 Z M364.125,50.1094 L367.1094,50.1094 L370.4688,62.5 L368.0156,62.5 L367.25,59.4375 L363.9688,59.4375 L363.2188,62.5 L360.7813,62.5 L364.125,50.1094 Z " fill="#000000"/><text fill="#000000" font-family="sans-serif" font-size="14" font-style="italic" lengthAdjust="spacing" textLength="133" x="379.5" y="61.8467">AbstractGroupView</text><line style="stroke:#181818;stroke-width:0.5;" x1="351.5" x2="514.5" y1="73" y2="73"/><line style="stroke:#181818;stroke-width:0.5;" x1="351.5" x2="514.5" y1="81" y2="81"/></g></a><!--MD5=[391696cd44669b86b1fc88d08221bc08]
class com.hack23.cia.web.impl.ui.application.views.user.common.AbstractRankingView--><a href="../common/AbstractRankingView.html" target="_top" title="../common/AbstractRankingView.html" xlink:actuate="onRequest" xlink:href="../common/AbstractRankingView.html" xlink:show="new" xlink:title="../common/AbstractRankingView.html" xlink:type="simple"><g id="elem_com.hack23.cia.web.impl.ui.application.views.user.common.AbstractRankingView"><rect codeLine="20" fill="#F1F1F1" height="48" id="com.hack23.cia.web.impl.ui.application.views.user.common.AbstractRankingView" rx="2.5" ry="2.5" style="stroke:#181818;stroke-width:0.5;" width="178" x="137" y="41"/><ellipse cx="152" cy="57" fill="#A9DCDF" rx="11" ry="11" style="stroke:#181818;stroke-width:1.0;"/><path d="M152.1094,52.3438 L150.9531,57.4219 L153.2813,57.4219 L152.1094,52.3438 Z M150.625,50.1094 L153.6094,50.1094 L156.9688,62.5 L154.5156,62.5 L153.75,59.4375 L150.4688,59.4375 L149.7188,62.5 L147.2813,62.5 L150.625,50.1094 Z " fill="#000000"/><text fill="#000000" font-family="sans-serif" font-size="14" font-style="italic" lengthAdjust="spacing" textLength="146" x="166" y="61.8467">AbstractRankingView</text><line style="stroke:#181818;stroke-width:0.5;" x1="138" x2="314" y1="73" y2="73"/><line style="stroke:#181818;stroke-width:0.5;" x1="138" x2="314" y1="81" y2="81"/></g></a><!--MD5=[9085f49fc727c14274a0d818feba7194]
reverse link com.hack23.cia.web.impl.ui.application.views.user.common.AbstractGroupView to com.hack23.cia.web.impl.ui.application.views.user.goverment.MinistryView--><g id="link_com.hack23.cia.web.impl.ui.application.views.user.common.AbstractGroupView_com.hack23.cia.web.impl.ui.application.views.user.goverment.MinistryView"><path codeLine="13" d="M449.35,107.64 C456.38,125.53 464.55,146.32 471.47,163.97 " fill="none" id="com.hack23.cia.web.impl.ui.application.views.user.common.AbstractGroupView-backto-com.hack23.cia.web.impl.ui.application.views.user.goverment.MinistryView" style="stroke:#181818;stroke-width:1.0;"/><polygon fill="none" points="442.83,110.19,442.04,89.01,455.86,105.07,442.83,110.19" style="stroke:#181818;stroke-width:1.0;"/></g><!--MD5=[68c6cee414f085b6edad0ddbb800cbc4]
reverse link com.hack23.cia.web.impl.ui.application.views.user.common.AbstractRankingView to com.hack23.cia.web.impl.ui.application.views.user.goverment.MinistryRankingView--><g id="link_com.hack23.cia.web.impl.ui.application.views.user.common.AbstractRankingView_com.hack23.cia.web.impl.ui.application.views.user.goverment.MinistryRankingView"><path codeLine="14" d="M210.45,107.93 C203.84,125.75 196.17,146.42 189.66,163.97 " fill="none" id="com.hack23.cia.web.impl.ui.application.views.user.common.AbstractRankingView-backto-com.hack23.cia.web.impl.ui.application.views.user.goverment.MinistryRankingView" style="stroke:#181818;stroke-width:1.0;"/><polygon fill="none" points="203.95,105.33,217.46,89.01,217.07,110.2,203.95,105.33" style="stroke:#181818;stroke-width:1.0;"/></g><rect height="11.6406" style="stroke:#00000000;stroke-width:1.0;fill:none;" width="186" x="217.5" y="267"/><text fill="#888888" font-family="sans-serif" font-size="10" lengthAdjust="spacing" textLength="186" x="217.5" y="276.2822">UMLDoclet 2.0.18, PlantUML 1.2022.6</text><!--MD5=[7ff6279f65a049ac060429d999c835b7]
@startuml
    namespace com.hack23.cia.web.impl.ui.application.views.user.goverment {

        class MinistryView [[MinistryView.html]] {
            {static} +NAME: String
            +MinistryView(ApplicationContext)
        }

        class MinistryRankingView [[MinistryRankingView.html]] {
            {static} +NAME: String
            +MinistryRankingView(ApplicationContext)
        }

        com.hack23.cia.web.impl.ui.application.views.user.common.AbstractGroupView <|- - MinistryView
        com.hack23.cia.web.impl.ui.application.views.user.common.AbstractRankingView <|- - MinistryRankingView
    }

    namespace com.hack23.cia.web.impl.ui.application.views.user.common {
        abstract class AbstractGroupView [[../common/AbstractGroupView.html]] {
        }
        abstract class AbstractRankingView [[../common/AbstractRankingView.html]] {
        }
    }

    center footer UMLDoclet 2.0.18, PlantUML 1.2022.6
@enduml

PlantUML version 1.2022.6(Tue Jun 21 19:34:49 CEST 2022)
(APACHE source distribution)
Java Runtime: OpenJDK Runtime Environment
JVM: OpenJDK 64-Bit Server VM
Default Encoding: ANSI_X3.4-1968
Language: en
Country: US
--></g></svg>