<svg xmlns="http://www.w3.org/2000/svg" xmlns:xlink="http://www.w3.org/1999/xlink" contentStyleType="text/css" height="236px" preserveAspectRatio="none" style="width:468px;height:236px;background:#FFFFFF;" version="1.1" viewBox="0 0 468 236" width="468px" zoomAndPan="magnify"><defs/><g><!--class com.hack23.cia.web.impl.ui.application.views.user.goverment.pagemode.MinistryGovernmentBodiesExpenditureModContentFactoryImpl--><a href="MinistryGovernmentBodiesExpenditureModContentFactoryImpl.html" target="_top" title="MinistryGovernmentBodiesExpenditureModContentFactoryImpl.html" xlink:actuate="onRequest" xlink:href="MinistryGovernmentBodiesExpenditureModContentFactoryImpl.html" xlink:show="new" xlink:title="MinistryGovernmentBodiesExpenditureModContentFactoryImpl.html" xlink:type="simple"><g id="elem_com.hack23.cia.web.impl.ui.application.views.user.goverment.pagemode.MinistryGovernmentBodiesExpenditureModContentFactoryImpl"><rect codeLine="13" fill="#F1F1F1" height="88.8237" id="com.hack23.cia.web.impl.ui.application.views.user.goverment.pagemode.MinistryGovernmentBodiesExpenditureModContentFactoryImpl" rx="2.5" ry="2.5" style="stroke:#181818;stroke-width:0.5;" width="453.1464" x="6" y="118"/><ellipse cx="21" cy="139.344" fill="#ADD1B2" rx="11" ry="11" style="stroke:#181818;stroke-width:1.0;"/><path d="M23.9688,144.9846 Q23.3906,145.2815 22.75,145.4221 Q22.1094,145.5783 21.4063,145.5783 Q18.9063,145.5783 17.5781,143.9377 Q16.2656,142.2815 16.2656,139.1565 Q16.2656,136.0315 17.5781,134.3752 Q18.9063,132.719 21.4063,132.719 Q22.1094,132.719 22.75,132.8752 Q23.4063,133.0315 23.9688,133.3283 L23.9688,136.0471 Q23.3438,135.469 22.75,135.2033 Q22.1563,134.9221 21.5313,134.9221 Q20.1875,134.9221 19.5,136.0002 Q18.8125,137.0627 18.8125,139.1565 Q18.8125,141.2502 19.5,142.3283 Q20.1875,143.3908 21.5313,143.3908 Q22.1563,143.3908 22.75,143.1252 Q23.3438,142.844 23.9688,142.2658 L23.9688,144.9846 Z " fill="#000000"/><text fill="#000000" font-family="sans-serif" font-size="14" lengthAdjust="spacing" textLength="421.1464" x="35" y="137.9659">MinistryGovernmentBodiesExpenditureModContentFactoryImpl</text><text fill="#000000" font-family="sans-serif" font-size="10" lengthAdjust="spacing" textLength="343.5897" x="73.7784" y="152.7579">com.hack23.cia.web.impl.ui.application.views.user.goverment.pagemode</text><line style="stroke:#181818;stroke-width:0.5;" x1="7" x2="458.1464" y1="160.6879" y2="160.6879"/><ellipse cx="17" cy="175.7219" fill="#84BE84" rx="3" ry="3" style="stroke:#038048;stroke-width:1.0;"/><text fill="#000000" font-family="sans-serif" font-size="14" lengthAdjust="spacing" textLength="305.4228" x="26" y="179.6538">createContent(String, MenuBar, Panel): Layout</text><ellipse cx="17" cy="194.7898" fill="#84BE84" rx="3" ry="3" style="stroke:#038048;stroke-width:1.0;"/><text fill="#000000" font-family="sans-serif" font-size="14" lengthAdjust="spacing" textLength="211.5112" x="26" y="198.7218">matches(String, String): boolean</text></g></a><!--class com.hack23.cia.web.impl.ui.application.views.common.pagemode.AbstractItemPageModContentFactoryImpl--><a href="../../../common/pagemode/AbstractItemPageModContentFactoryImpl.html" target="_top" title="../../../common/pagemode/AbstractItemPageModContentFactoryImpl.html" xlink:actuate="onRequest" xlink:href="../../../common/pagemode/AbstractItemPageModContentFactoryImpl.html" xlink:show="new" xlink:title="../../../common/pagemode/AbstractItemPageModContentFactoryImpl.html" xlink:type="simple"><g id="elem_com.hack23.cia.web.impl.ui.application.views.common.pagemode.AbstractItemPageModContentFactoryImpl"><rect codeLine="18" fill="#F1F1F1" height="69.7558" id="com.hack23.cia.web.impl.ui.application.views.common.pagemode.AbstractItemPageModContentFactoryImpl" rx="2.5" ry="2.5" style="stroke:#181818;stroke-width:0.5;" width="450.9285" x="7" y="12"/><ellipse cx="22" cy="33.344" fill="#A9DCDF" rx="11" ry="11" style="stroke:#181818;stroke-width:1.0;"/><path d="M22.1094,28.6877 L20.9531,33.7658 L23.2813,33.7658 L22.1094,28.6877 Z M20.625,26.4533 L23.6094,26.4533 L26.9688,38.844 L24.5156,38.844 L23.75,35.7815 L20.4688,35.7815 L19.7188,38.844 L17.2813,38.844 L20.625,26.4533 Z " fill="#000000"/><text fill="#000000" font-family="sans-serif" font-size="14" font-style="italic" lengthAdjust="spacing" textLength="261.057" x="51.9813" y="31.9659">AbstractItemPageModContentFactoryImpl</text><text fill="#000000" font-family="sans-serif" font-size="10" font-style="italic" lengthAdjust="spacing" textLength="293.0197" x="36" y="46.7579">com.hack23.cia.web.impl.ui.application.views.common.pagemode</text><rect fill="#FFFFFF" height="18.3441" style="stroke:#181818;stroke-width:1.0;stroke-dasharray:2.0,2.0;" width="123.9088" x="337.0197" y="9"/><text fill="#000000" font-family="sans-serif" font-size="12" font-style="italic" lengthAdjust="spacing" textLength="121.9088" x="338.0197" y="22.8281">ViewRiksdagenMinistry</text><line style="stroke:#181818;stroke-width:0.5;" x1="8" x2="456.9285" y1="54.6879" y2="54.6879"/><polygon fill="#FFFF44" points="18,64.7219,22,68.7219,18,72.7219,14,68.7219" style="stroke:#B38D22;stroke-width:1.0;"/><text fill="#000000" font-family="sans-serif" font-size="14" font-style="italic" lengthAdjust="spacing" textLength="242.8431" x="27" y="73.6538">getItem(String): ViewRiksdagenMinistry</text></g></a><polygon fill="none" points="232.5,82.0537,226.5,100.0537,238.5,100.0537,232.5,82.0537" style="stroke:#181818;stroke-width:1.0;"/><path d="M232.5,100.0537 C232.5,111.2849 232.5,105.9359 232.5,117.7854 " fill="none" style="stroke:#181818;stroke-width:1.0;"/><text fill="#888888" font-family="sans-serif" font-size="10" lengthAdjust="spacing" textLength="2.6" x="227.7" y="211.69">&#160;</text><a href="https://github.com/talsma-ict/umldoclet" target="_top" title="https://github.com/talsma-ict/umldoclet" xlink:actuate="onRequest" xlink:href="https://github.com/talsma-ict/umldoclet" xlink:show="new" xlink:title="https://github.com/talsma-ict/umldoclet" xlink:type="simple"><text fill="#888888" font-family="sans-serif" font-size="10" lengthAdjust="spacing" textLength="76.7199" x="190.64" y="225.31">UMLDoclet 2.2.1</text></a><!--SRC=[nLLHJzj037xdLtZmC13j9Gq5kgggL3h6c5e9qRANqeThOf9JBtVPtGNMCVxxdAGj7V204DEYI57EzkVF_Xm70E0Zz7MsC29E73WDBX4MheO3u2g261KQxZ02aV8OBSnGQXNRoX61voxH1lHD-HPgOz1cMaL2nV2DttAmEZSXMhQr1MMgyGhzZjiDzDcYEFoiGuaETljx6vG2lt5K3_oW2MCkRShXl3zcIxJ7c805h064BKM8oX9ahY8q9QrUnaDw32fB3MxHMA4LnVXBdABKK2l7XRAGSUDiKTA5vCeLN1kioC-EORSt6lpDpVzKSgj1poYUHt2fV-JhSZzaXiV4MFA5pXtO51rNlB9P8gruIktY8OwGad97dLHQOMbFH8I0QUOMS2DGHlRfAO4bcexByr1oQs6xOyKlR3UQtQ5GmZgpEDDKh4fHkHCT2RIdFpCaTLnkSAYZFfLCfYyyfDIBypIJrse9uNT3dRA4X_FWW8M2ipkSCK4UB1UCPncrcJjg8hiLU6TPRj6mk4XMv68PpKgg8zm6KlazWDXR2uB9vAsXB76fd4xXlknmSUs71cbSbwwx8sTepcimH9MVS5E32wvGxhLXKEhz69PoHmDerm7LanndMalaglHyg9JaC-9A99v9sbiQpXsc5zIMTzMFd5DwURjkJm3OgzXslbFifPZRY3pKIgSkQSQOLzqLhhV2zLw5-rov-rLR7s0dnZ9wTwt2YomsDVdtdO3Exthz_tufLQaTwnOIk-l6tMZjQ8q-ThAulYuoD0EXvdqjQMVjj5wsNXKRM0g5jFJ3kK8QPt_j-L2bypRoBNDTgyaaSIwpRS-BXKloMT5JpvNRlov2v-MfZAgr_-G7C9qk5_hP-izIRETw8wW7hN7Zi7rur3uuOeUj0x_PEcwszlr6s_SdfxdH6NeZfyDvecKw_GC0]--></g></svg>