<?xml version="1.0" encoding="UTF-8" standalone="no"?>
<!DOCTYPE svg PUBLIC "-//W3C//DTD SVG 1.1//EN"
 "http://www.w3.org/Graphics/SVG/1.1/DTD/svg11.dtd">
<!-- Generated by graphviz version 2.40.1 (20161225.0304)
 -->
<!-- Title: TableGraph Pages: 1 -->
<svg width="984pt" height="1032pt"
 viewBox="0.00 0.00 983.50 1032.00" xmlns="http://www.w3.org/2000/svg" xmlns:xlink="http://www.w3.org/1999/xlink">
<g id="graph0" class="graph" transform="scale(1 1) rotate(0) translate(4 1028)">
<title>TableGraph</title>
<g id="a_graph0"><a xlink:href="http://tools.hibernate.org" xlink:title="Table Graph">
<polygon fill="#ffffff" stroke="transparent" points="-4,4 -4,-1028 979.5,-1028 979.5,4 -4,4"/>
<text text-anchor="middle" x="487.75" y="-7" font-family="Helvetica,sans-Serif" font-size="10.00" fill="#000000">Table Graph</text>
</a>
</g>
<!-- ASSIGNMENT_ELEMENT -->
<g id="node1" class="node">
<title>ASSIGNMENT_ELEMENT</title>
<polygon fill="#ffff00" stroke="#000000" points="0,-738.5 0,-966.5 215,-966.5 215,-738.5 0,-738.5"/>
<text text-anchor="middle" x="107.5" y="-954.5" font-family="Helvetica,sans-Serif" font-size="10.00" fill="#000000">ASSIGNMENT_ELEMENT</text>
<polyline fill="none" stroke="#000000" points="0,-947.5 215,-947.5 "/>
<text text-anchor="start" x="8" y="-935.5" font-family="Helvetica,sans-Serif" font-size="10.00" fill="#000000">HJID</text>
<polyline fill="none" stroke="#000000" points="0,-928.5 215,-928.5 "/>
<text text-anchor="start" x="8" y="-916.5" font-family="Helvetica,sans-Serif" font-size="10.00" fill="#000000">ASSIGNMENT_TYPE</text>
<polyline fill="none" stroke="#000000" points="0,-909.5 215,-909.5 "/>
<text text-anchor="start" x="8" y="-897.5" font-family="Helvetica,sans-Serif" font-size="10.00" fill="#000000">DETAIL</text>
<polyline fill="none" stroke="#000000" points="0,-890.5 215,-890.5 "/>
<text text-anchor="start" x="8" y="-878.5" font-family="Helvetica,sans-Serif" font-size="10.00" fill="#000000">FROM_DATE</text>
<polyline fill="none" stroke="#000000" points="0,-871.5 215,-871.5 "/>
<text text-anchor="start" x="8" y="-859.5" font-family="Helvetica,sans-Serif" font-size="10.00" fill="#000000">INTRESSENT_ID</text>
<polyline fill="none" stroke="#000000" points="0,-852.5 215,-852.5 "/>
<text text-anchor="start" x="8" y="-840.5" font-family="Helvetica,sans-Serif" font-size="10.00" fill="#000000">ORDER_NUMBER</text>
<polyline fill="none" stroke="#000000" points="0,-833.5 215,-833.5 "/>
<text text-anchor="start" x="8" y="-821.5" font-family="Helvetica,sans-Serif" font-size="10.00" fill="#000000">ORG_CODE</text>
<polyline fill="none" stroke="#000000" points="0,-814.5 215,-814.5 "/>
<text text-anchor="start" x="8" y="-802.5" font-family="Helvetica,sans-Serif" font-size="10.00" fill="#000000">ROLE_CODE</text>
<polyline fill="none" stroke="#000000" points="0,-795.5 215,-795.5 "/>
<text text-anchor="start" x="8" y="-783.5" font-family="Helvetica,sans-Serif" font-size="10.00" fill="#000000">STATUS</text>
<polyline fill="none" stroke="#000000" points="0,-776.5 215,-776.5 "/>
<text text-anchor="start" x="8" y="-764.5" font-family="Helvetica,sans-Serif" font-size="10.00" fill="#000000">TO_DATE</text>
<polyline fill="none" stroke="#000000" points="0,-757.5 215,-757.5 "/>
<text text-anchor="start" x="8" y="-745.5" font-family="Helvetica,sans-Serif" font-size="10.00" fill="#000000">UPPDRAG_PERSON_ASSIGNMENT_EL_0</text>
</g>
<!-- PERSON_ASSIGNMENT_ELEMENT -->
<g id="node2" class="node">
<title>PERSON_ASSIGNMENT_ELEMENT</title>
<polygon fill="#ffff00" stroke="#000000" points="248.5,-445.5 248.5,-483.5 432.5,-483.5 432.5,-445.5 248.5,-445.5"/>
<text text-anchor="middle" x="340.5" y="-471.5" font-family="Helvetica,sans-Serif" font-size="10.00" fill="#000000">PERSON_ASSIGNMENT_ELEMENT</text>
<polyline fill="none" stroke="#000000" points="248.5,-464.5 432.5,-464.5 "/>
<text text-anchor="start" x="256.5" y="-452.5" font-family="Helvetica,sans-Serif" font-size="10.00" fill="#000000">HJID</text>
</g>
<!-- ASSIGNMENT_ELEMENT&#45;&gt;PERSON_ASSIGNMENT_ELEMENT -->
<g id="edge1" class="edge">
<title>ASSIGNMENT_ELEMENT:se&#45;&gt;PERSON_ASSIGNMENT_ELEMENT:nw</title>
<path fill="none" stroke="#d3d3d3" d="M215.5,-738.5C215.778,-738.222 240.9265,-540.8208 247.1307,-493.572"/>
<polygon fill="#d3d3d3" stroke="#d3d3d3" points="250.6209,-493.8804 248.5,-483.5 243.6847,-492.9373 250.6209,-493.8804"/>
<text text-anchor="middle" x="280" y="-656.6" font-family="Helvetica,sans-Serif" font-size="8.00" fill="#000000">FK8egqg9aadqnijh6hluireipd0</text>
</g>
<!-- DETAIL_ELEMENT -->
<g id="node3" class="node">
<title>DETAIL_ELEMENT</title>
<polygon fill="#ffff00" stroke="#000000" points="871.5,-19.5 871.5,-133.5 975.5,-133.5 975.5,-19.5 871.5,-19.5"/>
<text text-anchor="middle" x="923.5" y="-121.5" font-family="Helvetica,sans-Serif" font-size="10.00" fill="#000000">DETAIL_ELEMENT</text>
<polyline fill="none" stroke="#000000" points="871.5,-114.5 975.5,-114.5 "/>
<text text-anchor="start" x="879.5" y="-102.5" font-family="Helvetica,sans-Serif" font-size="10.00" fill="#000000">HJID</text>
<polyline fill="none" stroke="#000000" points="871.5,-95.5 975.5,-95.5 "/>
<text text-anchor="start" x="879.5" y="-83.5" font-family="Helvetica,sans-Serif" font-size="10.00" fill="#000000">CODE</text>
<polyline fill="none" stroke="#000000" points="871.5,-76.5 975.5,-76.5 "/>
<text text-anchor="start" x="879.5" y="-64.5" font-family="Helvetica,sans-Serif" font-size="10.00" fill="#000000">DETAIL</text>
<polyline fill="none" stroke="#000000" points="871.5,-57.5 975.5,-57.5 "/>
<text text-anchor="start" x="879.5" y="-45.5" font-family="Helvetica,sans-Serif" font-size="10.00" fill="#000000">DETAIL_TYPE</text>
<polyline fill="none" stroke="#000000" points="871.5,-38.5 975.5,-38.5 "/>
<text text-anchor="start" x="879.5" y="-26.5" font-family="Helvetica,sans-Serif" font-size="10.00" fill="#000000">INTRESSENT_ID</text>
</g>
<!-- PERSON_CONTAINER_ELEMENT -->
<g id="node4" class="node">
<title>PERSON_CONTAINER_ELEMENT</title>
<polygon fill="#ffff00" stroke="#000000" points="483,-445.5 483,-483.5 660,-483.5 660,-445.5 483,-445.5"/>
<text text-anchor="middle" x="571.5" y="-471.5" font-family="Helvetica,sans-Serif" font-size="10.00" fill="#000000">PERSON_CONTAINER_ELEMENT</text>
<polyline fill="none" stroke="#000000" points="483,-464.5 660,-464.5 "/>
<text text-anchor="start" x="491" y="-452.5" font-family="Helvetica,sans-Serif" font-size="10.00" fill="#000000">HJID</text>
</g>
<!-- PERSON_DETAIL_ELEMENT -->
<g id="node5" class="node">
<title>PERSON_DETAIL_ELEMENT</title>
<polygon fill="#ffff00" stroke="#000000" points="677.5,-436 677.5,-493 871.5,-493 871.5,-436 677.5,-436"/>
<text text-anchor="middle" x="774.5" y="-481" font-family="Helvetica,sans-Serif" font-size="10.00" fill="#000000">PERSON_DETAIL_ELEMENT</text>
<polyline fill="none" stroke="#000000" points="677.5,-474 871.5,-474 "/>
<text text-anchor="start" x="685.5" y="-462" font-family="Helvetica,sans-Serif" font-size="10.00" fill="#000000">HJID</text>
<polyline fill="none" stroke="#000000" points="677.5,-455 871.5,-455 "/>
<text text-anchor="start" x="685.5" y="-443" font-family="Helvetica,sans-Serif" font-size="10.00" fill="#000000">DETAIL_LIST_PERSON_DETAIL_EL_0</text>
</g>
<!-- PERSON_DETAIL_ELEMENT&#45;&gt;DETAIL_ELEMENT -->
<g id="edge2" class="edge">
<title>PERSON_DETAIL_ELEMENT:se&#45;&gt;DETAIL_ELEMENT:nw</title>
<path fill="none" stroke="#d3d3d3" d="M871.5,-435.5C963.9069,-343.0931 786.4026,-234.3132 864.5759,-141.0429"/>
<polygon fill="#d3d3d3" stroke="#d3d3d3" points="867.3159,-143.2337 871.5,-133.5 862.1592,-138.5 867.3159,-143.2337"/>
<text text-anchor="middle" x="920.5" y="-268.6" font-family="Helvetica,sans-Serif" font-size="8.00" fill="#000000">FKjbau0jlkpnfsswgkea8o5u7es</text>
</g>
<!-- PERSON_ELEMENT -->
<g id="node6" class="node">
<title>PERSON_ELEMENT</title>
<polygon fill="#ffff00" stroke="#000000" points="267,-681.5 267,-1023.5 482,-1023.5 482,-681.5 267,-681.5"/>
<text text-anchor="middle" x="374.5" y="-1011.5" font-family="Helvetica,sans-Serif" font-size="10.00" fill="#000000">PERSON_ELEMENT</text>
<polyline fill="none" stroke="#000000" points="267,-1004.5 482,-1004.5 "/>
<text text-anchor="start" x="275" y="-992.5" font-family="Helvetica,sans-Serif" font-size="10.00" fill="#000000">ID</text>
<polyline fill="none" stroke="#000000" points="267,-985.5 482,-985.5 "/>
<text text-anchor="start" x="275" y="-973.5" font-family="Helvetica,sans-Serif" font-size="10.00" fill="#000000">BORN_YEAR</text>
<polyline fill="none" stroke="#000000" points="267,-966.5 482,-966.5 "/>
<text text-anchor="start" x="275" y="-954.5" font-family="Helvetica,sans-Serif" font-size="10.00" fill="#000000">ELECTION_REGION</text>
<polyline fill="none" stroke="#000000" points="267,-947.5 482,-947.5 "/>
<text text-anchor="start" x="275" y="-935.5" font-family="Helvetica,sans-Serif" font-size="10.00" fill="#000000">FIRST_NAME</text>
<polyline fill="none" stroke="#000000" points="267,-928.5 482,-928.5 "/>
<text text-anchor="start" x="275" y="-916.5" font-family="Helvetica,sans-Serif" font-size="10.00" fill="#000000">GENDER</text>
<polyline fill="none" stroke="#000000" points="267,-909.5 482,-909.5 "/>
<text text-anchor="start" x="275" y="-897.5" font-family="Helvetica,sans-Serif" font-size="10.00" fill="#000000">HANGAR_GUID</text>
<polyline fill="none" stroke="#000000" points="267,-890.5 482,-890.5 "/>
<text text-anchor="start" x="275" y="-878.5" font-family="Helvetica,sans-Serif" font-size="10.00" fill="#000000">IMAGE_URL_192</text>
<polyline fill="none" stroke="#000000" points="267,-871.5 482,-871.5 "/>
<text text-anchor="start" x="275" y="-859.5" font-family="Helvetica,sans-Serif" font-size="10.00" fill="#000000">IMAGE_URL_80</text>
<polyline fill="none" stroke="#000000" points="267,-852.5 482,-852.5 "/>
<text text-anchor="start" x="275" y="-840.5" font-family="Helvetica,sans-Serif" font-size="10.00" fill="#000000">IMAGE_URL_MAX</text>
<polyline fill="none" stroke="#000000" points="267,-833.5 482,-833.5 "/>
<text text-anchor="start" x="275" y="-821.5" font-family="Helvetica,sans-Serif" font-size="10.00" fill="#000000">LAST_NAME</text>
<polyline fill="none" stroke="#000000" points="267,-814.5 482,-814.5 "/>
<text text-anchor="start" x="275" y="-802.5" font-family="Helvetica,sans-Serif" font-size="10.00" fill="#000000">PARTY</text>
<polyline fill="none" stroke="#000000" points="267,-795.5 482,-795.5 "/>
<text text-anchor="start" x="275" y="-783.5" font-family="Helvetica,sans-Serif" font-size="10.00" fill="#000000">PERSON_URL_XML</text>
<polyline fill="none" stroke="#000000" points="267,-776.5 482,-776.5 "/>
<text text-anchor="start" x="275" y="-764.5" font-family="Helvetica,sans-Serif" font-size="10.00" fill="#000000">PLACE</text>
<polyline fill="none" stroke="#000000" points="267,-757.5 482,-757.5 "/>
<text text-anchor="start" x="275" y="-745.5" font-family="Helvetica,sans-Serif" font-size="10.00" fill="#000000">STATUS</text>
<polyline fill="none" stroke="#000000" points="267,-738.5 482,-738.5 "/>
<text text-anchor="start" x="275" y="-726.5" font-family="Helvetica,sans-Serif" font-size="10.00" fill="#000000">PERSON_ASSIGNMENT_ELEMENT_PE_0</text>
<polyline fill="none" stroke="#000000" points="267,-719.5 482,-719.5 "/>
<text text-anchor="start" x="275" y="-707.5" font-family="Helvetica,sans-Serif" font-size="10.00" fill="#000000">PERSON_DETAIL_ELEMENT_PERSON_0</text>
<polyline fill="none" stroke="#000000" points="267,-700.5 482,-700.5 "/>
<text text-anchor="start" x="275" y="-688.5" font-family="Helvetica,sans-Serif" font-size="10.00" fill="#000000">PERSON_PERSON_CONTAINER_ELEM_0</text>
</g>
<!-- PERSON_ELEMENT&#45;&gt;PERSON_ASSIGNMENT_ELEMENT -->
<g id="edge3" class="edge">
<title>PERSON_ELEMENT:se&#45;&gt;PERSON_ASSIGNMENT_ELEMENT:nw</title>
<path fill="none" stroke="#d3d3d3" d="M482.5,-681.5C525.6343,-638.3657 396.7384,-697.6012 346.5,-663 274.5676,-613.4572 191.0389,-552.7271 241.6528,-491.0284"/>
<polygon fill="#d3d3d3" stroke="#d3d3d3" points="244.3607,-493.2528 248.5,-483.5 239.1822,-488.5429 244.3607,-493.2528"/>
<text text-anchor="middle" x="403.5" y="-656.6" font-family="Helvetica,sans-Serif" font-size="8.00" fill="#000000">FKbe0p7x6pw31it41l70k0n2yhy</text>
</g>
<!-- PERSON_ELEMENT&#45;&gt;PERSON_CONTAINER_ELEMENT -->
<g id="edge5" class="edge">
<title>PERSON_ELEMENT:se&#45;&gt;PERSON_CONTAINER_ELEMENT:nw</title>
<path fill="none" stroke="#d3d3d3" d="M482.5,-681.5C542.1732,-621.8268 430.1694,-551.7397 475.7597,-491.2122"/>
<polygon fill="#d3d3d3" stroke="#d3d3d3" points="478.5547,-493.3329 482.5,-483.5 473.2839,-488.7264 478.5547,-493.3329"/>
<text text-anchor="middle" x="558" y="-656.6" font-family="Helvetica,sans-Serif" font-size="8.00" fill="#000000">FKefu7l0m5t9n1gewodw90kcidu</text>
</g>
<!-- PERSON_ELEMENT&#45;&gt;PERSON_DETAIL_ELEMENT -->
<g id="edge4" class="edge">
<title>PERSON_ELEMENT:se&#45;&gt;PERSON_DETAIL_ELEMENT:nw</title>
<path fill="none" stroke="#d3d3d3" d="M482.5,-681.5C526.2572,-637.7428 572.767,-702.382 620.5,-663 679.0524,-614.6915 626.4903,-555.3105 670.6111,-501.1116"/>
<polygon fill="#d3d3d3" stroke="#d3d3d3" points="673.3846,-503.2629 677.5,-493.5 668.1946,-498.5657 673.3846,-503.2629"/>
<text text-anchor="middle" x="686.5" y="-656.6" font-family="Helvetica,sans-Serif" font-size="8.00" fill="#000000">FKf9ctg19wht1va2oa88p4ubbgw</text>
</g>
</g>
</svg>
