<svg xmlns="http://www.w3.org/2000/svg" xmlns:xlink="http://www.w3.org/1999/xlink" contentStyleType="text/css" height="236px" preserveAspectRatio="none" style="width:467px;height:236px;background:#FFFFFF;" version="1.1" viewBox="0 0 467 236" width="467px" zoomAndPan="magnify"><defs/><g><!--class com.hack23.cia.web.impl.ui.application.views.user.goverment.pagemode.MinistryCurrentMembersPageModContentFactoryImpl--><a href="MinistryCurrentMembersPageModContentFactoryImpl.html" target="_top" title="MinistryCurrentMembersPageModContentFactoryImpl.html" xlink:actuate="onRequest" xlink:href="MinistryCurrentMembersPageModContentFactoryImpl.html" xlink:show="new" xlink:title="MinistryCurrentMembersPageModContentFactoryImpl.html" xlink:type="simple"><g id="elem_com.hack23.cia.web.impl.ui.application.views.user.goverment.pagemode.MinistryCurrentMembersPageModContentFactoryImpl"><rect codeLine="13" fill="#F1F1F1" height="88.8237" id="com.hack23.cia.web.impl.ui.application.views.user.goverment.pagemode.MinistryCurrentMembersPageModContentFactoryImpl" rx="2.5" ry="2.5" style="stroke:#181818;stroke-width:0.5;" width="392.1766" x="35.5" y="118"/><ellipse cx="50.5" cy="139.344" fill="#ADD1B2" rx="11" ry="11" style="stroke:#181818;stroke-width:1.0;"/><path d="M53.4688,144.9846 Q52.8906,145.2815 52.25,145.4221 Q51.6094,145.5783 50.9063,145.5783 Q48.4063,145.5783 47.0781,143.9377 Q45.7656,142.2815 45.7656,139.1565 Q45.7656,136.0315 47.0781,134.3752 Q48.4063,132.719 50.9063,132.719 Q51.6094,132.719 52.25,132.8752 Q52.9063,133.0315 53.4688,133.3283 L53.4688,136.0471 Q52.8438,135.469 52.25,135.2033 Q51.6563,134.9221 51.0313,134.9221 Q49.6875,134.9221 49,136.0002 Q48.3125,137.0627 48.3125,139.1565 Q48.3125,141.2502 49,142.3283 Q49.6875,143.3908 51.0313,143.3908 Q51.6563,143.3908 52.25,143.1252 Q52.8438,142.844 53.4688,142.2658 L53.4688,144.9846 Z " fill="#000000"/><text fill="#000000" font-family="sans-serif" font-size="14" lengthAdjust="spacing" textLength="360.1766" x="64.5" y="137.9659">MinistryCurrentMembersPageModContentFactoryImpl</text><text fill="#000000" font-family="sans-serif" font-size="10" lengthAdjust="spacing" textLength="343.5897" x="72.7935" y="152.7579">com.hack23.cia.web.impl.ui.application.views.user.goverment.pagemode</text><line style="stroke:#181818;stroke-width:0.5;" x1="36.5" x2="426.6766" y1="160.6879" y2="160.6879"/><ellipse cx="46.5" cy="175.7219" fill="#84BE84" rx="3" ry="3" style="stroke:#038048;stroke-width:1.0;"/><text fill="#000000" font-family="sans-serif" font-size="14" lengthAdjust="spacing" textLength="305.4228" x="55.5" y="179.6538">createContent(String, MenuBar, Panel): Layout</text><ellipse cx="46.5" cy="194.7898" fill="#84BE84" rx="3" ry="3" style="stroke:#038048;stroke-width:1.0;"/><text fill="#000000" font-family="sans-serif" font-size="14" lengthAdjust="spacing" textLength="211.5112" x="55.5" y="198.7218">matches(String, String): boolean</text></g></a><!--class com.hack23.cia.web.impl.ui.application.views.common.pagemode.AbstractItemPageModContentFactoryImpl--><a href="../../../common/pagemode/AbstractItemPageModContentFactoryImpl.html" target="_top" title="../../../common/pagemode/AbstractItemPageModContentFactoryImpl.html" xlink:actuate="onRequest" xlink:href="../../../common/pagemode/AbstractItemPageModContentFactoryImpl.html" xlink:show="new" xlink:title="../../../common/pagemode/AbstractItemPageModContentFactoryImpl.html" xlink:type="simple"><g id="elem_com.hack23.cia.web.impl.ui.application.views.common.pagemode.AbstractItemPageModContentFactoryImpl"><rect codeLine="18" fill="#F1F1F1" height="69.7558" id="com.hack23.cia.web.impl.ui.application.views.common.pagemode.AbstractItemPageModContentFactoryImpl" rx="2.5" ry="2.5" style="stroke:#181818;stroke-width:0.5;" width="450.9285" x="6" y="12"/><ellipse cx="21" cy="33.344" fill="#A9DCDF" rx="11" ry="11" style="stroke:#181818;stroke-width:1.0;"/><path d="M21.1094,28.6877 L19.9531,33.7658 L22.2813,33.7658 L21.1094,28.6877 Z M19.625,26.4533 L22.6094,26.4533 L25.9688,38.844 L23.5156,38.844 L22.75,35.7815 L19.4688,35.7815 L18.7188,38.844 L16.2813,38.844 L19.625,26.4533 Z " fill="#000000"/><text fill="#000000" font-family="sans-serif" font-size="14" font-style="italic" lengthAdjust="spacing" textLength="261.057" x="50.9813" y="31.9659">AbstractItemPageModContentFactoryImpl</text><text fill="#000000" font-family="sans-serif" font-size="10" font-style="italic" lengthAdjust="spacing" textLength="293.0197" x="35" y="46.7579">com.hack23.cia.web.impl.ui.application.views.common.pagemode</text><rect fill="#FFFFFF" height="18.3441" style="stroke:#181818;stroke-width:1.0;stroke-dasharray:2.0,2.0;" width="123.9088" x="336.0197" y="9"/><text fill="#000000" font-family="sans-serif" font-size="12" font-style="italic" lengthAdjust="spacing" textLength="121.9088" x="337.0197" y="22.8281">ViewRiksdagenMinistry</text><line style="stroke:#181818;stroke-width:0.5;" x1="7" x2="455.9285" y1="54.6879" y2="54.6879"/><polygon fill="#FFFF44" points="17,64.7219,21,68.7219,17,72.7219,13,68.7219" style="stroke:#B38D22;stroke-width:1.0;"/><text fill="#000000" font-family="sans-serif" font-size="14" font-style="italic" lengthAdjust="spacing" textLength="242.8431" x="26" y="73.6538">getItem(String): ViewRiksdagenMinistry</text></g></a><polygon fill="none" points="231.5,82.0537,225.5,100.0537,237.5,100.0537,231.5,82.0537" style="stroke:#181818;stroke-width:1.0;"/><path d="M231.5,100.0537 C231.5,111.2849 231.5,105.9359 231.5,117.7854 " fill="none" style="stroke:#181818;stroke-width:1.0;"/><text fill="#888888" font-family="sans-serif" font-size="10" lengthAdjust="spacing" textLength="2.6" x="226.7" y="211.69">&#160;</text><a href="https://github.com/talsma-ict/umldoclet" target="_top" title="https://github.com/talsma-ict/umldoclet" xlink:actuate="onRequest" xlink:href="https://github.com/talsma-ict/umldoclet" xlink:show="new" xlink:title="https://github.com/talsma-ict/umldoclet" xlink:type="simple"><text fill="#888888" font-family="sans-serif" font-size="10" lengthAdjust="spacing" textLength="76.7199" x="189.64" y="225.31">UMLDoclet 2.2.1</text></a><!--SRC=[nLLDRzf04BtdLqoJGua2Q-DGsYA4HEbNAf2YG7eX71PxOgzOxxgxwqHkcl_UiGs49ZaaLQfQICYpCs_UlBSC002lOQIpmeWuSU0qk4HOE9-CWQi8ObHekCC8HCfZjB14gLLiwqG4dhj46z2NrLkeZK6RQHK95SCtViN1wjo4QDdU7bIjPXlqQsvtq9T56VoeGuaE6gF37Kg1t-ws0Z_emenBct8u6StO6ksk9c01QmDXIn6YiWIPgmXDHMkOyP2-nlL94wxGMA4LrVXhd7BKK2l7XRAGSUDiETAfvCgLNDkC-dVOMsWCf-C_kVdlAsvD61h5ymZEz8zyE-whpF2O64jUwDo1JT5nnUipIwGLJqak7k8KgIbtfAJI2glpH4G8c6QkW4k1ChBtemIMQ0fNyL1oQs6_RyLFxBKxWubGmZfJZ79oHBa9faiQ-fGidEXeH9DIy3CFgMDnacRoGgqh_K6eKvRmS1KSir1mTerB9YY3vOBnB2DrkIFjs9N0QyjoYuR5cWHD2P1bX9_g2FU1p7q98FRCEM0-VsO5Irmg5mkugMGidwFG8Dt9TMfZwWnTvYPCKEKVk6d2ALSe3timhaozAqkverjcjmNrDoKkjPR8LPLvMzl5bqIHI3pmRRW-E76OlhXRb9pIoz-xT0-0FObj_plLdecLZIX3RUmPa5MCUVMdnlKskDwJS1ywTxEHzHOEOgog6riN7cMnwyc_LmBwlrgj__Axg2ViMrT876prkjJQqOgy4x1ylXOPch5Ggv6Mj8yEtZr-UbvkLoaKqa8FLmhf5llRpDkwdRVJRzthGitdYNEPxNbUB5oIBqifFLTjzfO8dPUdCgfN-htblbYib_MNxRz6kNbRVj3oZsVjurudwFbjrkrsADhkl3dosptVdt_AZSxGcpeThX8jqyLl]--></g></svg>