<svg xmlns="http://www.w3.org/2000/svg" xmlns:xlink="http://www.w3.org/1999/xlink" contentStyleType="text/css" height="236px" preserveAspectRatio="none" style="width:467px;height:236px;background:#FFFFFF;" version="1.1" viewBox="0 0 467 236" width="467px" zoomAndPan="magnify"><defs/><g><!--class com.hack23.cia.web.impl.ui.application.views.user.goverment.pagemode.MinistryDocumentActivityPageModContentFactoryImpl--><a href="MinistryDocumentActivityPageModContentFactoryImpl.html" target="_top" title="MinistryDocumentActivityPageModContentFactoryImpl.html" xlink:actuate="onRequest" xlink:href="MinistryDocumentActivityPageModContentFactoryImpl.html" xlink:show="new" xlink:title="MinistryDocumentActivityPageModContentFactoryImpl.html" xlink:type="simple"><g id="elem_com.hack23.cia.web.impl.ui.application.views.user.goverment.pagemode.MinistryDocumentActivityPageModContentFactoryImpl"><rect codeLine="13" fill="#F1F1F1" height="88.8237" id="com.hack23.cia.web.impl.ui.application.views.user.goverment.pagemode.MinistryDocumentActivityPageModContentFactoryImpl" rx="2.5" ry="2.5" style="stroke:#181818;stroke-width:0.5;" width="394.8366" x="34" y="118"/><ellipse cx="49" cy="139.344" fill="#ADD1B2" rx="11" ry="11" style="stroke:#181818;stroke-width:1.0;"/><path d="M51.9688,144.9846 Q51.3906,145.2815 50.75,145.4221 Q50.1094,145.5783 49.4063,145.5783 Q46.9063,145.5783 45.5781,143.9377 Q44.2656,142.2815 44.2656,139.1565 Q44.2656,136.0315 45.5781,134.3752 Q46.9063,132.719 49.4063,132.719 Q50.1094,132.719 50.75,132.8752 Q51.4063,133.0315 51.9688,133.3283 L51.9688,136.0471 Q51.3438,135.469 50.75,135.2033 Q50.1563,134.9221 49.5313,134.9221 Q48.1875,134.9221 47.5,136.0002 Q46.8125,137.0627 46.8125,139.1565 Q46.8125,141.2502 47.5,142.3283 Q48.1875,143.3908 49.5313,143.3908 Q50.1563,143.3908 50.75,143.1252 Q51.3438,142.844 51.9688,142.2658 L51.9688,144.9846 Z " fill="#000000"/><text fill="#000000" font-family="sans-serif" font-size="14" lengthAdjust="spacing" textLength="362.8366" x="63" y="137.9659">MinistryDocumentActivityPageModContentFactoryImpl</text><text fill="#000000" font-family="sans-serif" font-size="10" lengthAdjust="spacing" textLength="343.5897" x="72.6235" y="152.7579">com.hack23.cia.web.impl.ui.application.views.user.goverment.pagemode</text><line style="stroke:#181818;stroke-width:0.5;" x1="35" x2="427.8366" y1="160.6879" y2="160.6879"/><ellipse cx="45" cy="175.7219" fill="#84BE84" rx="3" ry="3" style="stroke:#038048;stroke-width:1.0;"/><text fill="#000000" font-family="sans-serif" font-size="14" lengthAdjust="spacing" textLength="305.4228" x="54" y="179.6538">createContent(String, MenuBar, Panel): Layout</text><ellipse cx="45" cy="194.7898" fill="#84BE84" rx="3" ry="3" style="stroke:#038048;stroke-width:1.0;"/><text fill="#000000" font-family="sans-serif" font-size="14" lengthAdjust="spacing" textLength="211.5112" x="54" y="198.7218">matches(String, String): boolean</text></g></a><!--class com.hack23.cia.web.impl.ui.application.views.common.pagemode.AbstractItemPageModContentFactoryImpl--><a href="../../../common/pagemode/AbstractItemPageModContentFactoryImpl.html" target="_top" title="../../../common/pagemode/AbstractItemPageModContentFactoryImpl.html" xlink:actuate="onRequest" xlink:href="../../../common/pagemode/AbstractItemPageModContentFactoryImpl.html" xlink:show="new" xlink:title="../../../common/pagemode/AbstractItemPageModContentFactoryImpl.html" xlink:type="simple"><g id="elem_com.hack23.cia.web.impl.ui.application.views.common.pagemode.AbstractItemPageModContentFactoryImpl"><rect codeLine="18" fill="#F1F1F1" height="69.7558" id="com.hack23.cia.web.impl.ui.application.views.common.pagemode.AbstractItemPageModContentFactoryImpl" rx="2.5" ry="2.5" style="stroke:#181818;stroke-width:0.5;" width="450.9285" x="6" y="12"/><ellipse cx="21" cy="33.344" fill="#A9DCDF" rx="11" ry="11" style="stroke:#181818;stroke-width:1.0;"/><path d="M21.1094,28.6877 L19.9531,33.7658 L22.2813,33.7658 L21.1094,28.6877 Z M19.625,26.4533 L22.6094,26.4533 L25.9688,38.844 L23.5156,38.844 L22.75,35.7815 L19.4688,35.7815 L18.7188,38.844 L16.2813,38.844 L19.625,26.4533 Z " fill="#000000"/><text fill="#000000" font-family="sans-serif" font-size="14" font-style="italic" lengthAdjust="spacing" textLength="261.057" x="50.9813" y="31.9659">AbstractItemPageModContentFactoryImpl</text><text fill="#000000" font-family="sans-serif" font-size="10" font-style="italic" lengthAdjust="spacing" textLength="293.0197" x="35" y="46.7579">com.hack23.cia.web.impl.ui.application.views.common.pagemode</text><rect fill="#FFFFFF" height="18.3441" style="stroke:#181818;stroke-width:1.0;stroke-dasharray:2.0,2.0;" width="123.9088" x="336.0197" y="9"/><text fill="#000000" font-family="sans-serif" font-size="12" font-style="italic" lengthAdjust="spacing" textLength="121.9088" x="337.0197" y="22.8281">ViewRiksdagenMinistry</text><line style="stroke:#181818;stroke-width:0.5;" x1="7" x2="455.9285" y1="54.6879" y2="54.6879"/><polygon fill="#FFFF44" points="17,64.7219,21,68.7219,17,72.7219,13,68.7219" style="stroke:#B38D22;stroke-width:1.0;"/><text fill="#000000" font-family="sans-serif" font-size="14" font-style="italic" lengthAdjust="spacing" textLength="242.8431" x="26" y="73.6538">getItem(String): ViewRiksdagenMinistry</text></g></a><polygon fill="none" points="231.5,82.0537,225.5,100.0537,237.5,100.0537,231.5,82.0537" style="stroke:#181818;stroke-width:1.0;"/><path d="M231.5,100.0537 C231.5,111.2849 231.5,105.9359 231.5,117.7854 " fill="none" style="stroke:#181818;stroke-width:1.0;"/><text fill="#888888" font-family="sans-serif" font-size="10" lengthAdjust="spacing" textLength="2.6" x="226.7" y="211.69">&#160;</text><a href="https://github.com/talsma-ict/umldoclet" target="_top" title="https://github.com/talsma-ict/umldoclet" xlink:actuate="onRequest" xlink:href="https://github.com/talsma-ict/umldoclet" xlink:show="new" xlink:title="https://github.com/talsma-ict/umldoclet" xlink:type="simple"><text fill="#888888" font-family="sans-serif" font-size="10" lengthAdjust="spacing" textLength="76.7199" x="189.64" y="225.31">UMLDoclet 2.2.1</text></a><!--SRC=[nLNVJzim47xdhxZ1mq2qJb8Ob0fLwhfVJ4L2KFPI-k0wHsBLiJFRASeO__ikIIaTy03JfaMHejXtttttVSu50E0j34rUMfca7hm1dqe7bwSZu3g613LQxZ46cV447SnG6Psu9X215pur5inr_IQCjUXoesEf4_ZA5noSAQn0npOse2urlaU_uMuDVLPMYn-CKEXXUxYpHgaJHWVjJjWvW35NBkDmCXop9Tf3JeTrM0I4hQH0xGYoq37QcjOWvu8UesQd1GkqJXfDEU4IfsfL6Esvr0voRhshMZfJNFkAQyIe_ZuxXEt1nUXtRk5HpQq50wjv4SEv-LwisdsJMvuGOyLBKtXm6NgkURFdYBJc6Sd51LuW5UMUbDH6OxsVoXW1izoNS2rHnUxnAe6bXfRhTQ6uSx1vxEGFx4Nx_LEffVEs97MA3BKV22yNqfTdPEAfYOVKAwr-ue9gbYTPhgxqCZVi2vEnb8jvPuy9oTaDpfYa25P8nlESzEMUr6CBYJUE5GujImn9MfLXEU5d9iPD87l_1X1xTISmcRmwXwK-KzCftDPYLjUki4WdSncwVU4j7UaMdA8ktdFRWZEkKUtqO5HR-v2MSKzdpQqIcYS5penHo7KTUTUOncT4aaWySM-mt3ZncFrrnoWuevS_T-eH07iHs-Dlb7ikvowc27rlK9_COYnexWOtkCSDNeJxrBdRUrdlO2l1EdjxvSApBDOz-VTAmF7FTli_VHjDZyVEbmhxAyMkZV4qAXyahAulPOvs9FLyQ1JDfQtkyxkNrPHLKYCDTZ7NIESuN4NUDUM2jNhBMbTwCaczprql21Bfqs9MYHduUiAtfV11aQcu6UsFXlnqkXpQdrT_Zse2jyDEEzmRHtkz_KulZDX15BthTW-FkhjXr0l3oSV2cXo32s_4F3Kgc_u2]--></g></svg>