<svg xmlns="http://www.w3.org/2000/svg" xmlns:xlink="http://www.w3.org/1999/xlink" contentStyleType="text/css" height="236px" preserveAspectRatio="none" style="width:467px;height:236px;background:#FFFFFF;" version="1.1" viewBox="0 0 467 236" width="467px" zoomAndPan="magnify"><defs/><g><!--class com.hack23.cia.web.impl.ui.application.views.user.goverment.pagemode.MinistryMemberHistoryPageModContentFactoryImpl--><a href="MinistryMemberHistoryPageModContentFactoryImpl.html" target="_top" title="MinistryMemberHistoryPageModContentFactoryImpl.html" xlink:actuate="onRequest" xlink:href="MinistryMemberHistoryPageModContentFactoryImpl.html" xlink:show="new" xlink:title="MinistryMemberHistoryPageModContentFactoryImpl.html" xlink:type="simple"><g id="elem_com.hack23.cia.web.impl.ui.application.views.user.goverment.pagemode.MinistryMemberHistoryPageModContentFactoryImpl"><rect codeLine="13" fill="#F1F1F1" height="88.8237" id="com.hack23.cia.web.impl.ui.application.views.user.goverment.pagemode.MinistryMemberHistoryPageModContentFactoryImpl" rx="2.5" ry="2.5" style="stroke:#181818;stroke-width:0.5;" width="381.9427" x="40.5" y="118"/><ellipse cx="55.5" cy="139.344" fill="#ADD1B2" rx="11" ry="11" style="stroke:#181818;stroke-width:1.0;"/><path d="M58.4688,144.9846 Q57.8906,145.2815 57.25,145.4221 Q56.6094,145.5783 55.9063,145.5783 Q53.4063,145.5783 52.0781,143.9377 Q50.7656,142.2815 50.7656,139.1565 Q50.7656,136.0315 52.0781,134.3752 Q53.4063,132.719 55.9063,132.719 Q56.6094,132.719 57.25,132.8752 Q57.9063,133.0315 58.4688,133.3283 L58.4688,136.0471 Q57.8438,135.469 57.25,135.2033 Q56.6563,134.9221 56.0313,134.9221 Q54.6875,134.9221 54,136.0002 Q53.3125,137.0627 53.3125,139.1565 Q53.3125,141.2502 54,142.3283 Q54.6875,143.3908 56.0313,143.3908 Q56.6563,143.3908 57.25,143.1252 Q57.8438,142.844 58.4688,142.2658 L58.4688,144.9846 Z " fill="#000000"/><text fill="#000000" font-family="sans-serif" font-size="14" lengthAdjust="spacing" textLength="349.9427" x="69.5" y="137.9659">MinistryMemberHistoryPageModContentFactoryImpl</text><text fill="#000000" font-family="sans-serif" font-size="10" lengthAdjust="spacing" textLength="343.5897" x="72.6765" y="152.7579">com.hack23.cia.web.impl.ui.application.views.user.goverment.pagemode</text><line style="stroke:#181818;stroke-width:0.5;" x1="41.5" x2="421.4427" y1="160.6879" y2="160.6879"/><ellipse cx="51.5" cy="175.7219" fill="#84BE84" rx="3" ry="3" style="stroke:#038048;stroke-width:1.0;"/><text fill="#000000" font-family="sans-serif" font-size="14" lengthAdjust="spacing" textLength="305.4228" x="60.5" y="179.6538">createContent(String, MenuBar, Panel): Layout</text><ellipse cx="51.5" cy="194.7898" fill="#84BE84" rx="3" ry="3" style="stroke:#038048;stroke-width:1.0;"/><text fill="#000000" font-family="sans-serif" font-size="14" lengthAdjust="spacing" textLength="211.5112" x="60.5" y="198.7218">matches(String, String): boolean</text></g></a><!--class com.hack23.cia.web.impl.ui.application.views.common.pagemode.AbstractItemPageModContentFactoryImpl--><a href="../../../common/pagemode/AbstractItemPageModContentFactoryImpl.html" target="_top" title="../../../common/pagemode/AbstractItemPageModContentFactoryImpl.html" xlink:actuate="onRequest" xlink:href="../../../common/pagemode/AbstractItemPageModContentFactoryImpl.html" xlink:show="new" xlink:title="../../../common/pagemode/AbstractItemPageModContentFactoryImpl.html" xlink:type="simple"><g id="elem_com.hack23.cia.web.impl.ui.application.views.common.pagemode.AbstractItemPageModContentFactoryImpl"><rect codeLine="18" fill="#F1F1F1" height="69.7558" id="com.hack23.cia.web.impl.ui.application.views.common.pagemode.AbstractItemPageModContentFactoryImpl" rx="2.5" ry="2.5" style="stroke:#181818;stroke-width:0.5;" width="450.9285" x="6" y="12"/><ellipse cx="21" cy="33.344" fill="#A9DCDF" rx="11" ry="11" style="stroke:#181818;stroke-width:1.0;"/><path d="M21.1094,28.6877 L19.9531,33.7658 L22.2813,33.7658 L21.1094,28.6877 Z M19.625,26.4533 L22.6094,26.4533 L25.9688,38.844 L23.5156,38.844 L22.75,35.7815 L19.4688,35.7815 L18.7188,38.844 L16.2813,38.844 L19.625,26.4533 Z " fill="#000000"/><text fill="#000000" font-family="sans-serif" font-size="14" font-style="italic" lengthAdjust="spacing" textLength="261.057" x="50.9813" y="31.9659">AbstractItemPageModContentFactoryImpl</text><text fill="#000000" font-family="sans-serif" font-size="10" font-style="italic" lengthAdjust="spacing" textLength="293.0197" x="35" y="46.7579">com.hack23.cia.web.impl.ui.application.views.common.pagemode</text><rect fill="#FFFFFF" height="18.3441" style="stroke:#181818;stroke-width:1.0;stroke-dasharray:2.0,2.0;" width="123.9088" x="336.0197" y="9"/><text fill="#000000" font-family="sans-serif" font-size="12" font-style="italic" lengthAdjust="spacing" textLength="121.9088" x="337.0197" y="22.8281">ViewRiksdagenMinistry</text><line style="stroke:#181818;stroke-width:0.5;" x1="7" x2="455.9285" y1="54.6879" y2="54.6879"/><polygon fill="#FFFF44" points="17,64.7219,21,68.7219,17,72.7219,13,68.7219" style="stroke:#B38D22;stroke-width:1.0;"/><text fill="#000000" font-family="sans-serif" font-size="14" font-style="italic" lengthAdjust="spacing" textLength="242.8431" x="26" y="73.6538">getItem(String): ViewRiksdagenMinistry</text></g></a><polygon fill="none" points="231.5,82.0537,225.5,100.0537,237.5,100.0537,231.5,82.0537" style="stroke:#181818;stroke-width:1.0;"/><path d="M231.5,100.0537 C231.5,111.2849 231.5,105.9359 231.5,117.7854 " fill="none" style="stroke:#181818;stroke-width:1.0;"/><text fill="#888888" font-family="sans-serif" font-size="10" lengthAdjust="spacing" textLength="2.6" x="226.7" y="211.69">&#160;</text><a href="https://github.com/talsma-ict/umldoclet" target="_top" title="https://github.com/talsma-ict/umldoclet" xlink:actuate="onRequest" xlink:href="https://github.com/talsma-ict/umldoclet" xlink:show="new" xlink:title="https://github.com/talsma-ict/umldoclet" xlink:type="simple"><text fill="#888888" font-family="sans-serif" font-size="10" lengthAdjust="spacing" textLength="76.7199" x="189.64" y="225.31">UMLDoclet 2.2.1</text></a><!--SRC=[nLLDJzj04BtpAwPmA8XaxHW2D8eYfUa7L8c4IEWbvB2n1tkLzQwxkmQvbF_UiPs453X0HLKhakFTcJTltbkF0G3Umq1dXH5nui1fS8cmS3aQ0bSHnAZGS8SHY9J7Q66EKglOre48F7U9Dg2lgwTG6uCsqoeIAePl_8Q3rRa9qRAjBQXAJLRejznkeC-BSl6J3YKws1tiRL0A_DPHC_23Daouj2c7iy64BT4USW8Mi1OGjXGXAakGkOhGLBJw6G_fDgnt6d23nWgjACTVufIjXbevBfI5Z1jdovRE9LUkvDfYLF-G7SDkVppyavl_eUBMWBvHF8_WGl_8r-s-omoFYR7aXSuTs1GTLxpUiqHQyPJauY6EaOfoHqeghR3QJqI4W6dc2hWMA2FxU9N04atBrNeekRMmtRNY9tPQXxsHKC8wKummdQCvfV_Q5EVau4X70seKbVl2mtBnBCtabLec-hrGfopXuI8uOA7Wx1RdJ504omNZMKRYSaVIiHk1jvRb5WsBDUcP4Y3B23_L4Mu3UViMGEnrRS1q-he4bhXKpcPmLsbONlkXGJgGoz3TiJDqaXimGfL_vAO1vroXtEl0i7Bq8ItbZewONIVKTmgSQosHgohollQApuaXaNXYMd-vSUOmVNElA3YbXx_tw140Un7RxdVAlH0B6r64MhdJ8wSOy-fVZUkjSBqNuJvrxcubwptin5XbxwvTU9R5fYV_NWde_ces_yTRKJVOjQwGs5lBTQsre_7ue5zvdHOPcg5GYu6MD8jsJfxVlImdgnGAQPY72uLqYFrrv7rTpjkejwnrfQRJnBdCTZml5Yx9vwMIdgkcUbE4pijJ6TNZ_D5WdysMW_hh-ejHJjscVzni7KnQFhqD7V-47HssZ_nsqFRt_Q3Z-zFFkT4PUcEdmqMYPJhx3G00]--></g></svg>