<svg xmlns="http://www.w3.org/2000/svg" xmlns:xlink="http://www.w3.org/1999/xlink" contentStyleType="text/css" height="236px" preserveAspectRatio="none" style="width:465px;height:236px;background:#FFFFFF;" version="1.1" viewBox="0 0 465 236" width="465px" zoomAndPan="magnify"><defs/><g><!--class com.hack23.cia.web.impl.ui.application.views.user.partyranking.pagemode.PartyRankingCurrentPartiesChartsPageModContentFactoryImpl--><a href="PartyRankingCurrentPartiesChartsPageModContentFactoryImpl.html" target="_top" title="PartyRankingCurrentPartiesChartsPageModContentFactoryImpl.html" xlink:actuate="onRequest" xlink:href="PartyRankingCurrentPartiesChartsPageModContentFactoryImpl.html" xlink:show="new" xlink:title="PartyRankingCurrentPartiesChartsPageModContentFactoryImpl.html" xlink:type="simple"><g id="elem_com.hack23.cia.web.impl.ui.application.views.user.partyranking.pagemode.PartyRankingCurrentPartiesChartsPageModContentFactoryImpl"><rect codeLine="13" fill="#F1F1F1" height="115.8917" id="com.hack23.cia.web.impl.ui.application.views.user.partyranking.pagemode.PartyRankingCurrentPartiesChartsPageModContentFactoryImpl" rx="2.5" ry="2.5" style="stroke:#181818;stroke-width:0.5;" width="452.3765" x="6" y="91"/><ellipse cx="21" cy="112.344" fill="#ADD1B2" rx="11" ry="11" style="stroke:#181818;stroke-width:1.0;"/><path d="M23.9688,117.9846 Q23.3906,118.2815 22.75,118.4221 Q22.1094,118.5783 21.4063,118.5783 Q18.9063,118.5783 17.5781,116.9377 Q16.2656,115.2815 16.2656,112.1565 Q16.2656,109.0315 17.5781,107.3752 Q18.9063,105.719 21.4063,105.719 Q22.1094,105.719 22.75,105.8752 Q23.4063,106.0315 23.9688,106.3283 L23.9688,109.0471 Q23.3438,108.469 22.75,108.2033 Q22.1563,107.9221 21.5313,107.9221 Q20.1875,107.9221 19.5,109.0002 Q18.8125,110.0627 18.8125,112.1565 Q18.8125,114.2502 19.5,115.3283 Q20.1875,116.3908 21.5313,116.3908 Q22.1563,116.3908 22.75,116.1252 Q23.3438,115.844 23.9688,115.2658 L23.9688,117.9846 Z " fill="#000000"/><text fill="#000000" font-family="sans-serif" font-size="14" lengthAdjust="spacing" textLength="420.3765" x="35" y="110.9659">PartyRankingCurrentPartiesChartsPageModContentFactoryImpl</text><text fill="#000000" font-family="sans-serif" font-size="10" lengthAdjust="spacing" textLength="352.5296" x="68.9234" y="125.7579">com.hack23.cia.web.impl.ui.application.views.user.partyranking.pagemode</text><line style="stroke:#181818;stroke-width:0.5;" x1="7" x2="457.3765" y1="133.6879" y2="133.6879"/><ellipse cx="17" cy="148.7219" fill="none" rx="3" ry="3" style="stroke:#038048;stroke-width:1.0;"/><text fill="#000000" font-family="sans-serif" font-size="14" lengthAdjust="spacing" text-decoration="underline" textLength="86.8557" x="26" y="152.6538">NAME: String</text><line style="stroke:#181818;stroke-width:0.5;" x1="7" x2="457.3765" y1="160.7558" y2="160.7558"/><ellipse cx="17" cy="175.7898" fill="#84BE84" rx="3" ry="3" style="stroke:#038048;stroke-width:1.0;"/><text fill="#000000" font-family="sans-serif" font-size="14" lengthAdjust="spacing" textLength="305.4228" x="26" y="179.7218">createContent(String, MenuBar, Panel): Layout</text><ellipse cx="17" cy="194.8577" fill="#84BE84" rx="3" ry="3" style="stroke:#038048;stroke-width:1.0;"/><text fill="#000000" font-family="sans-serif" font-size="14" lengthAdjust="spacing" textLength="211.5112" x="26" y="198.7897">matches(String, String): boolean</text></g></a><!--class com.hack23.cia.web.impl.ui.application.views.common.pagemode.AbstractBasicPageModContentFactoryImpl--><a href="../../../common/pagemode/AbstractBasicPageModContentFactoryImpl.html" target="_top" title="../../../common/pagemode/AbstractBasicPageModContentFactoryImpl.html" xlink:actuate="onRequest" xlink:href="../../../common/pagemode/AbstractBasicPageModContentFactoryImpl.html" xlink:show="new" xlink:title="../../../common/pagemode/AbstractBasicPageModContentFactoryImpl.html" xlink:type="simple"><g id="elem_com.hack23.cia.web.impl.ui.application.views.common.pagemode.AbstractBasicPageModContentFactoryImpl"><rect codeLine="19" fill="#F1F1F1" height="42.6879" id="com.hack23.cia.web.impl.ui.application.views.common.pagemode.AbstractBasicPageModContentFactoryImpl" rx="2.5" ry="2.5" style="stroke:#181818;stroke-width:0.5;" width="325.0197" x="69.5" y="12"/><ellipse cx="84.5" cy="33.344" fill="#A9DCDF" rx="11" ry="11" style="stroke:#181818;stroke-width:1.0;"/><path d="M84.6094,28.6877 L83.4531,33.7658 L85.7813,33.7658 L84.6094,28.6877 Z M83.125,26.4533 L86.1094,26.4533 L89.4688,38.844 L87.0156,38.844 L86.25,35.7815 L82.9688,35.7815 L82.2188,38.844 L79.7813,38.844 L83.125,26.4533 Z " fill="#000000"/><text fill="#000000" font-family="sans-serif" font-size="14" font-style="italic" lengthAdjust="spacing" textLength="264.991" x="112.5143" y="31.9659">AbstractBasicPageModContentFactoryImpl</text><text fill="#000000" font-family="sans-serif" font-size="10" font-style="italic" lengthAdjust="spacing" textLength="293.0197" x="98.5" y="46.7579">com.hack23.cia.web.impl.ui.application.views.common.pagemode</text></g></a><polygon fill="none" points="232,55.054,226,73.054,238,73.054,232,55.054" style="stroke:#181818;stroke-width:1.0;"/><path d="M232,73.054 C232,83.1473 232,77.8625 232,90.62 " fill="none" style="stroke:#181818;stroke-width:1.0;"/><text fill="#888888" font-family="sans-serif" font-size="10" lengthAdjust="spacing" textLength="2.6" x="227.2" y="211.69">&#160;</text><a href="https://github.com/talsma-ict/umldoclet" target="_top" title="https://github.com/talsma-ict/umldoclet" xlink:actuate="onRequest" xlink:href="https://github.com/talsma-ict/umldoclet" xlink:show="new" xlink:title="https://github.com/talsma-ict/umldoclet" xlink:type="simple"><text fill="#888888" font-family="sans-serif" font-size="10" lengthAdjust="spacing" textLength="76.7199" x="190.14" y="225.31">UMLDoclet 2.2.1</text></a><!--SRC=[nLLHJzj037xdLtZiOI3QIzeoO1L2AXtRcCfKKNWgFBWNqvnwkSlkBg2CyT_d9AKmjWU4q1PLYkviV_xipt410Dx1qEQbK_CqGB0GKkNX_6G4Q1AOao67WH9G6Sx9muoqDNFVE19W4LBhm5xL9scT8vzRaoWpXwzuZU1juIHviRO6TQgpU_GRz8_GPsLr-T5AJG4sXfkFA7NZpawx6tVVmnbgdo4S3y_44kqXfYkweWEChPKauncoC0cvcjOWHyclKMDfmJKvhwpXc7Y9KvKghGceZ8SSNV1LIMED9bHSEuBpRujTs1XCHhzpYp_Kt5emS0QB14xjzs9LxflSuPmPQonj4S1d5D1WO_DCsc36xK994-Aa6BYJnXggxQbA22ZBGmbNYdJYdzuoM6hvkhwN6hs7zNslVb2_itqmvXhAKpGB5c9Oi2ecL5UA_32joXkpc2Ss6NBDRFg4adENnrckBymI8pwGDXCfoaMt9wH2SKCpeTX354fWddEVCN0NnRMY6oyAJqvKdIjTavKFSyfiGkl0IhyIbdXnNJ2TlZXMf27JbvTmMxUwUcvzOCBo3hQ-3KwE-Z09Za5NvYtfYCTwYRJHM5jmGgOuHDU2CHhIctqOrNFn49PXu47rgu3cpOupQpMXgJtl6iLnveDZZdz8FrWQ3j4h-UewitF6XvUB-mH0F8ykooT4rFmQXEWU8NeUmbB4vUVo3nZl_sot___SD_Nk-r1gEbXDsfMrWPVZmq1NpvSo9pTIPZ6qcZVHsxs_My-hlQgL8LxbSc68XozUUTurwQ97-PQvBinqceQG-tuKpLL8YrdLs2ZKExsjP8YAJ2VDCd-orbcrPar_NlrVL3kt7U-sExspJin3t8_tHAVJw-xqzkBULjpjn_7qg70sfsWIh5oaLcUNlm00]--></g></svg>