<?xml version="1.0" encoding="UTF-8" standalone="no"?><svg xmlns="http://www.w3.org/2000/svg" xmlns:xlink="http://www.w3.org/1999/xlink" contentScriptType="application/ecmascript" contentStyleType="text/css" height="277px" preserveAspectRatio="none" style="width:596px;height:277px;background:#FFFFFF;" version="1.1" viewBox="0 0 596 277" width="596px" zoomAndPan="magnify"><defs><filter height="300%" id="f34nxkobgbfnn" width="300%" x="-1" y="-1"><feGaussianBlur result="blurOut" stdDeviation="2.0"/><feColorMatrix in="blurOut" result="blurOut2" type="matrix" values="0 0 0 0 0 0 0 0 0 0 0 0 0 0 0 0 0 0 .4 0"/><feOffset dx="4.0" dy="4.0" in="blurOut2" result="blurOut3"/><feBlend in="SourceGraphic" in2="blurOut3" mode="normal"/></filter></defs><g><!--MD5=[250734def8d7036f04118933ac7f4fa3]
cluster com.hack23.cia.web.impl.ui.application.views.user.committee--><polygon fill="#FFFFFF" filter="url(#f34nxkobgbfnn)" points="16,129,509,129,516,151.2969,579,151.2969,579,254,16,254,16,129" style="stroke:#000000;stroke-width:1.5;"/><line style="stroke:#000000;stroke-width:1.5;" x1="16" x2="516" y1="151.2969" y2="151.2969"/><text fill="#000000" font-family="sans-serif" font-size="14" font-weight="bold" lengthAdjust="spacing" textLength="487" x="20" y="143.9951">com.hack23.cia.web.impl.ui.application.views.user.committee</text><!--MD5=[b6f7de69fe91c8bcc3328c73a6375d62]
cluster com.hack23.cia.web.impl.ui.application.views.user.common--><polygon fill="#FFFFFF" filter="url(#f34nxkobgbfnn)" points="67,6,544,6,551,28.2969,554,28.2969,554,105,67,105,67,6" style="stroke:#000000;stroke-width:1.5;"/><line style="stroke:#000000;stroke-width:1.5;" x1="67" x2="551" y1="28.2969" y2="28.2969"/><text fill="#000000" font-family="sans-serif" font-size="14" font-weight="bold" lengthAdjust="spacing" textLength="471" x="71" y="20.9951">com.hack23.cia.web.impl.ui.application.views.user.common</text><!--MD5=[162e59ad641490da7707172546b10c9b]
class com.hack23.cia.web.impl.ui.application.views.user.committee.CommitteeView--><a href="CommitteeView.html" target="_top" title="CommitteeView.html" xlink:actuate="onRequest" xlink:href="CommitteeView.html" xlink:show="new" xlink:title="CommitteeView.html" xlink:type="simple"><rect codeLine="3" fill="#FEFECE" filter="url(#f34nxkobgbfnn)" height="73.6094" id="com.hack23.cia.web.impl.ui.application.views.user.committee.CommitteeView" style="stroke:#A80036;stroke-width:1.5;" width="226" x="337" y="164"/><ellipse cx="398.25" cy="180" fill="#ADD1B2" rx="11" ry="11" style="stroke:#A80036;stroke-width:1.0;"/><path d="M401.2188,185.6406 Q400.6406,185.9375 400,186.0781 Q399.3594,186.2344 398.6563,186.2344 Q396.1563,186.2344 394.8281,184.5938 Q393.5156,182.9375 393.5156,179.8125 Q393.5156,176.6875 394.8281,175.0313 Q396.1563,173.375 398.6563,173.375 Q399.3594,173.375 400,173.5313 Q400.6563,173.6875 401.2188,173.9844 L401.2188,176.7031 Q400.5938,176.125 400,175.8594 Q399.4063,175.5781 398.7813,175.5781 Q397.4375,175.5781 396.75,176.6563 Q396.0625,177.7188 396.0625,179.8125 Q396.0625,181.9063 396.75,182.9844 Q397.4375,184.0469 398.7813,184.0469 Q399.4063,184.0469 400,183.7813 Q400.5938,183.5 401.2188,182.9219 L401.2188,185.6406 Z " fill="#000000"/><text fill="#000000" font-family="sans-serif" font-size="12" lengthAdjust="spacing" textLength="95" x="418.75" y="184.1543">CommitteeView</text><line style="stroke:#A80036;stroke-width:1.5;" x1="338" x2="562" y1="196" y2="196"/><ellipse cx="348" cy="207" rx="3" ry="3" style="stroke:#038048;stroke-width:1.0;fill:none;"/><text fill="#000000" font-family="sans-serif" font-size="11" lengthAdjust="spacing" text-decoration="underline" textLength="73" x="357" y="210.2104">NAME: String</text><line style="stroke:#A80036;stroke-width:1.5;" x1="338" x2="562" y1="216.8047" y2="216.8047"/><ellipse cx="348" cy="227.8047" fill="#84BE84" rx="3" ry="3" style="stroke:#038048;stroke-width:1.0;"/><text fill="#000000" font-family="sans-serif" font-size="11" lengthAdjust="spacing" textLength="200" x="357" y="231.0151">CommitteeView(ApplicationContext)</text></a><!--MD5=[c850c15a91dd06492b47899e9d8ee4a6]
class com.hack23.cia.web.impl.ui.application.views.user.committee.CommitteeRankingView--><a href="CommitteeRankingView.html" target="_top" title="CommitteeRankingView.html" xlink:actuate="onRequest" xlink:href="CommitteeRankingView.html" xlink:show="new" xlink:title="CommitteeRankingView.html" xlink:type="simple"><rect codeLine="8" fill="#FEFECE" filter="url(#f34nxkobgbfnn)" height="73.6094" id="com.hack23.cia.web.impl.ui.application.views.user.committee.CommitteeRankingView" style="stroke:#A80036;stroke-width:1.5;" width="270" x="32" y="164"/><ellipse cx="90.25" cy="180" fill="#ADD1B2" rx="11" ry="11" style="stroke:#A80036;stroke-width:1.0;"/><path d="M93.2188,185.6406 Q92.6406,185.9375 92,186.0781 Q91.3594,186.2344 90.6563,186.2344 Q88.1563,186.2344 86.8281,184.5938 Q85.5156,182.9375 85.5156,179.8125 Q85.5156,176.6875 86.8281,175.0313 Q88.1563,173.375 90.6563,173.375 Q91.3594,173.375 92,173.5313 Q92.6563,173.6875 93.2188,173.9844 L93.2188,176.7031 Q92.5938,176.125 92,175.8594 Q91.4063,175.5781 90.7813,175.5781 Q89.4375,175.5781 88.75,176.6563 Q88.0625,177.7188 88.0625,179.8125 Q88.0625,181.9063 88.75,182.9844 Q89.4375,184.0469 90.7813,184.0469 Q91.4063,184.0469 92,183.7813 Q92.5938,183.5 93.2188,182.9219 L93.2188,185.6406 Z " fill="#000000"/><text fill="#000000" font-family="sans-serif" font-size="12" lengthAdjust="spacing" textLength="145" x="110.75" y="184.1543">CommitteeRankingView</text><line style="stroke:#A80036;stroke-width:1.5;" x1="33" x2="301" y1="196" y2="196"/><ellipse cx="43" cy="207" rx="3" ry="3" style="stroke:#038048;stroke-width:1.0;fill:none;"/><text fill="#000000" font-family="sans-serif" font-size="11" lengthAdjust="spacing" text-decoration="underline" textLength="73" x="52" y="210.2104">NAME: String</text><line style="stroke:#A80036;stroke-width:1.5;" x1="33" x2="301" y1="216.8047" y2="216.8047"/><ellipse cx="43" cy="227.8047" fill="#84BE84" rx="3" ry="3" style="stroke:#038048;stroke-width:1.0;"/><text fill="#000000" font-family="sans-serif" font-size="11" lengthAdjust="spacing" textLength="244" x="52" y="231.0151">CommitteeRankingView(ApplicationContext)</text></a><!--MD5=[4d95a43774ca7342273458fa929c2e89]
class com.hack23.cia.web.impl.ui.application.views.user.common.AbstractGroupView--><a href="../common/AbstractGroupView.html" target="_top" title="../common/AbstractGroupView.html" xlink:actuate="onRequest" xlink:href="../common/AbstractGroupView.html" xlink:show="new" xlink:title="../common/AbstractGroupView.html" xlink:type="simple"><rect codeLine="18" fill="#FEFECE" filter="url(#f34nxkobgbfnn)" height="48" id="com.hack23.cia.web.impl.ui.application.views.user.common.AbstractGroupView" style="stroke:#A80036;stroke-width:1.5;" width="151" x="307.5" y="41"/><ellipse cx="322.5" cy="57" fill="#A9DCDF" rx="11" ry="11" style="stroke:#A80036;stroke-width:1.0;"/><path d="M322.6094,52.3438 L321.4531,57.4219 L323.7813,57.4219 L322.6094,52.3438 Z M321.125,50.1094 L324.1094,50.1094 L327.4688,62.5 L325.0156,62.5 L324.25,59.4375 L320.9688,59.4375 L320.2188,62.5 L317.7813,62.5 L321.125,50.1094 Z " fill="#000000"/><text fill="#000000" font-family="sans-serif" font-size="12" font-style="italic" lengthAdjust="spacing" textLength="119" x="336.5" y="61.1543">AbstractGroupView</text><line style="stroke:#A80036;stroke-width:1.5;" x1="308.5" x2="457.5" y1="73" y2="73"/><line style="stroke:#A80036;stroke-width:1.5;" x1="308.5" x2="457.5" y1="81" y2="81"/></a><!--MD5=[391696cd44669b86b1fc88d08221bc08]
class com.hack23.cia.web.impl.ui.application.views.user.common.AbstractRankingView--><a href="../common/AbstractRankingView.html" target="_top" title="../common/AbstractRankingView.html" xlink:actuate="onRequest" xlink:href="../common/AbstractRankingView.html" xlink:show="new" xlink:title="../common/AbstractRankingView.html" xlink:type="simple"><rect codeLine="20" fill="#FEFECE" filter="url(#f34nxkobgbfnn)" height="48" id="com.hack23.cia.web.impl.ui.application.views.user.common.AbstractRankingView" style="stroke:#A80036;stroke-width:1.5;" width="163" x="109.5" y="41"/><ellipse cx="124.5" cy="57" fill="#A9DCDF" rx="11" ry="11" style="stroke:#A80036;stroke-width:1.0;"/><path d="M124.6094,52.3438 L123.4531,57.4219 L125.7813,57.4219 L124.6094,52.3438 Z M123.125,50.1094 L126.1094,50.1094 L129.4688,62.5 L127.0156,62.5 L126.25,59.4375 L122.9688,59.4375 L122.2188,62.5 L119.7813,62.5 L123.125,50.1094 Z " fill="#000000"/><text fill="#000000" font-family="sans-serif" font-size="12" font-style="italic" lengthAdjust="spacing" textLength="131" x="138.5" y="61.1543">AbstractRankingView</text><line style="stroke:#A80036;stroke-width:1.5;" x1="110.5" x2="271.5" y1="73" y2="73"/><line style="stroke:#A80036;stroke-width:1.5;" x1="110.5" x2="271.5" y1="81" y2="81"/></a><!--MD5=[4db06c3bba4de708a9b750f7552b4f03]
reverse link com.hack23.cia.web.impl.ui.application.views.user.common.AbstractGroupView to com.hack23.cia.web.impl.ui.application.views.user.committee.CommitteeView--><path codeLine="13" d="M403.47,106.93 C412.56,125.11 423.17,146.33 431.96,163.91 " fill="none" id="com.hack23.cia.web.impl.ui.application.views.user.common.AbstractGroupView-backto-com.hack23.cia.web.impl.ui.application.views.user.committee.CommitteeView" style="stroke:#A80036;stroke-width:1.0;"/><polygon fill="none" points="397.2,110.05,394.52,89.04,409.72,103.79,397.2,110.05" style="stroke:#A80036;stroke-width:1.0;"/><!--MD5=[0fcef1333cac04f396676500802421b5]
reverse link com.hack23.cia.web.impl.ui.application.views.user.common.AbstractRankingView to com.hack23.cia.web.impl.ui.application.views.user.committee.CommitteeRankingView--><path codeLine="14" d="M183.31,108.96 C180.13,126.68 176.5,146.98 173.46,163.91 " fill="none" id="com.hack23.cia.web.impl.ui.application.views.user.common.AbstractRankingView-backto-com.hack23.cia.web.impl.ui.application.views.user.committee.CommitteeRankingView" style="stroke:#A80036;stroke-width:1.0;"/><polygon fill="none" points="176.46,107.49,186.87,89.04,190.24,109.96,176.46,107.49" style="stroke:#A80036;stroke-width:1.0;"/><text fill="#888888" font-family="sans-serif" font-size="10" lengthAdjust="spacing" textLength="186" x="198.5" y="269.2822">UMLDoclet 2.0.14, PlantUML 1.2021.9</text><!--MD5=[ef0245dc5d7e70a8dba400941b54981c]
@startuml
    namespace com.hack23.cia.web.impl.ui.application.views.user.committee {

        class CommitteeView [[CommitteeView.html]] {
            {static} +NAME: String
            +CommitteeView(ApplicationContext)
        }

        class CommitteeRankingView [[CommitteeRankingView.html]] {
            {static} +NAME: String
            +CommitteeRankingView(ApplicationContext)
        }

        com.hack23.cia.web.impl.ui.application.views.user.common.AbstractGroupView <|- - CommitteeView
        com.hack23.cia.web.impl.ui.application.views.user.common.AbstractRankingView <|- - CommitteeRankingView
    }

    namespace com.hack23.cia.web.impl.ui.application.views.user.common {
        abstract class AbstractGroupView [[../common/AbstractGroupView.html]] {
        }
        abstract class AbstractRankingView [[../common/AbstractRankingView.html]] {
        }
    }

    center footer UMLDoclet 2.0.14, PlantUML 1.2021.9
@enduml

PlantUML version 1.2021.9(Sun Jul 25 12:13:56 CEST 2021)
(APACHE source distribution)
Java Runtime: OpenJDK Runtime Environment
JVM: OpenJDK 64-Bit Server VM
Default Encoding: UTF-8
Language: en
Country: US
--></g></svg>