<?xml version="1.0" encoding="UTF-8" standalone="no"?><svg xmlns="http://www.w3.org/2000/svg" xmlns:xlink="http://www.w3.org/1999/xlink" contentScriptType="application/ecmascript" contentStyleType="text/css" height="437px" preserveAspectRatio="none" style="width:1725px;height:437px;background:#FFFFFF;" version="1.1" viewBox="0 0 1725 437" width="1725px" zoomAndPan="magnify"><defs><filter height="300%" id="f523lw6rubyln" width="300%" x="-1" y="-1"><feGaussianBlur result="blurOut" stdDeviation="2.0"/><feColorMatrix in="blurOut" result="blurOut2" type="matrix" values="0 0 0 0 0 0 0 0 0 0 0 0 0 0 0 0 0 0 .4 0"/><feOffset dx="4.0" dy="4.0" in="blurOut2" result="blurOut3"/><feBlend in="SourceGraphic" in2="blurOut3" mode="normal"/></filter></defs><g><!--MD5=[6ae3bb9c50df50e0babeb42bb82071d9]
cluster com.hack23.cia.web.impl.ui.application.views.common.gridfactory.impl--><polygon fill="#FFFFFF" filter="url(#f523lw6rubyln)" points="298,155,863,155,870,177.2969,1708,177.2969,1708,414,298,414,298,155" style="stroke:#000000;stroke-width:1.5;"/><line style="stroke:#000000;stroke-width:1.5;" x1="298" x2="870" y1="177.2969" y2="177.2969"/><text fill="#000000" font-family="sans-serif" font-size="14" font-weight="bold" lengthAdjust="spacing" textLength="559" x="302" y="169.9951">com.hack23.cia.web.impl.ui.application.views.common.gridfactory.impl</text><!--MD5=[272bab23ede7d10a373ee0f5d1db5235]
cluster com.hack23.cia.web.impl.ui.application.views.common.gridfactory.api--><polygon fill="#FFFFFF" filter="url(#f523lw6rubyln)" points="302,6,858,6,865,28.2969,1704,28.2969,1704,131,302,131,302,6" style="stroke:#000000;stroke-width:1.5;"/><line style="stroke:#000000;stroke-width:1.5;" x1="302" x2="865" y1="28.2969" y2="28.2969"/><text fill="#000000" font-family="sans-serif" font-size="14" font-weight="bold" lengthAdjust="spacing" textLength="550" x="306" y="20.9951">com.hack23.cia.web.impl.ui.application.views.common.gridfactory.api</text><!--MD5=[a709f92e7afed3e2534b1458593faadc]
cluster com.vaadin.data--><polygon fill="#FFFFFF" filter="url(#f523lw6rubyln)" points="16,155,150,155,157,177.2969,274,177.2969,274,280,16,280,16,155" style="stroke:#000000;stroke-width:1.5;"/><line style="stroke:#000000;stroke-width:1.5;" x1="16" x2="157" y1="177.2969" y2="177.2969"/><text fill="#000000" font-family="sans-serif" font-size="14" font-weight="bold" lengthAdjust="spacing" textLength="128" x="20" y="169.9951">com.vaadin.data</text><!--MD5=[f482fef1bd620d206ae84bc9aa2b5709]
class com.hack23.cia.web.impl.ui.application.views.common.gridfactory.impl.GridFactoryImpl--><a href="GridFactoryImpl.html" target="_top" title="GridFactoryImpl.html" xlink:actuate="onRequest" xlink:href="GridFactoryImpl.html" xlink:show="new" xlink:title="GridFactoryImpl.html" xlink:type="simple"><rect codeLine="3" fill="#FEFECE" filter="url(#f523lw6rubyln)" height="73.6094" id="com.hack23.cia.web.impl.ui.application.views.common.gridfactory.impl.GridFactoryImpl" style="stroke:#A80036;stroke-width:1.5;" width="1377" x="314.5" y="190"/><ellipse cx="950.75" cy="206" fill="#ADD1B2" rx="11" ry="11" style="stroke:#A80036;stroke-width:1.0;"/><path d="M953.7188,211.6406 Q953.1406,211.9375 952.5,212.0781 Q951.8594,212.2344 951.1563,212.2344 Q948.6563,212.2344 947.3281,210.5938 Q946.0156,208.9375 946.0156,205.8125 Q946.0156,202.6875 947.3281,201.0313 Q948.6563,199.375 951.1563,199.375 Q951.8594,199.375 952.5,199.5313 Q953.1563,199.6875 953.7188,199.9844 L953.7188,202.7031 Q953.0938,202.125 952.5,201.8594 Q951.9063,201.5781 951.2813,201.5781 Q949.9375,201.5781 949.25,202.6563 Q948.5625,203.7188 948.5625,205.8125 Q948.5625,207.9063 949.25,208.9844 Q949.9375,210.0469 951.2813,210.0469 Q951.9063,210.0469 952.5,209.7813 Q953.0938,209.5 953.7188,208.9219 L953.7188,211.6406 Z " fill="#000000"/><text fill="#000000" font-family="sans-serif" font-size="12" lengthAdjust="spacing" textLength="96" x="971.25" y="210.1543">GridFactoryImpl</text><line style="stroke:#A80036;stroke-width:1.5;" x1="315.5" x2="1690.5" y1="222" y2="222"/><line style="stroke:#A80036;stroke-width:1.5;" x1="315.5" x2="1690.5" y1="230" y2="230"/><ellipse cx="325.5" cy="241" fill="#84BE84" rx="3" ry="3" style="stroke:#038048;stroke-width:1.0;"/><text fill="#000000" font-family="sans-serif" font-size="11" lengthAdjust="spacing" textLength="1202" x="334.5" y="244.2104">createBasicBeanItemGrid(AbstractOrderedLayout, Class&lt;T extends Serializable&gt;, List&lt;T extends Serializable&gt;, String, String[], String[], PageItemRendererClickListener&lt;?&gt;, String, ListPropertyConverter[]): void</text><ellipse cx="325.5" cy="253.8047" fill="#84BE84" rx="3" ry="3" style="stroke:#038048;stroke-width:1.0;"/><text fill="#000000" font-family="sans-serif" font-size="11" lengthAdjust="spacing" textLength="1351" x="334.5" y="257.0151">createBasicBeanItemNestedPropertiesGrid(AbstractOrderedLayout, Class&lt;T extends Serializable&gt;, List&lt;T extends Serializable&gt;, String, String[], String[], String[], PageItemRendererClickListener&lt;?&gt;, String, ListPropertyConverter[]): void</text></a><!--MD5=[c2b433a45e17236221fa7b2d793b745f]
class com.hack23.cia.web.impl.ui.application.views.common.gridfactory.impl.GridFactoryImpl.BeanNestedPropertyValueProvider--><a href="GridFactoryImpl.BeanNestedPropertyValueProvider.html" target="_top" title="GridFactoryImpl.BeanNestedPropertyValueProvider.html" xlink:actuate="onRequest" xlink:href="GridFactoryImpl.BeanNestedPropertyValueProvider.html" xlink:show="new" xlink:title="GridFactoryImpl.BeanNestedPropertyValueProvider.html" xlink:type="simple"><rect codeLine="8" fill="#FEFECE" filter="url(#f523lw6rubyln)" height="73.6094" id="com.hack23.cia.web.impl.ui.application.views.common.gridfactory.impl.GridFactoryImpl.BeanNestedPropertyValueProvider" style="stroke:#A80036;stroke-width:1.5;" width="359" x="568.5" y="324"/><ellipse cx="583.5" cy="340" fill="#ADD1B2" rx="11" ry="11" style="stroke:#A80036;stroke-width:1.0;"/><path d="M586.4688,345.6406 Q585.8906,345.9375 585.25,346.0781 Q584.6094,346.2344 583.9063,346.2344 Q581.4063,346.2344 580.0781,344.5938 Q578.7656,342.9375 578.7656,339.8125 Q578.7656,336.6875 580.0781,335.0313 Q581.4063,333.375 583.9063,333.375 Q584.6094,333.375 585.25,333.5313 Q585.9063,333.6875 586.4688,333.9844 L586.4688,336.7031 Q585.8438,336.125 585.25,335.8594 Q584.6563,335.5781 584.0313,335.5781 Q582.6875,335.5781 582,336.6563 Q581.3125,337.7188 581.3125,339.8125 Q581.3125,341.9063 582,342.9844 Q582.6875,344.0469 584.0313,344.0469 Q584.6563,344.0469 585.25,343.7813 Q585.8438,343.5 586.4688,342.9219 L586.4688,345.6406 Z " fill="#000000"/><text fill="#000000" font-family="sans-serif" font-size="12" lengthAdjust="spacing" textLength="316" x="597.5" y="344.1543">GridFactoryImpl.BeanNestedPropertyValueProvider</text><rect fill="#FFFFFF" height="15.9688" style="stroke:#000000;stroke-width:1.0;stroke-dasharray:2.0,2.0;" width="9" x="921.5" y="321"/><text fill="#000000" font-family="sans-serif" font-size="12" font-style="italic" lengthAdjust="spacing" textLength="7" x="922.5" y="333.1387">T</text><line style="stroke:#A80036;stroke-width:1.5;" x1="569.5" x2="926.5" y1="356" y2="356"/><line style="stroke:#A80036;stroke-width:1.5;" x1="569.5" x2="926.5" y1="364" y2="364"/><ellipse cx="579.5" cy="375" fill="#84BE84" rx="3" ry="3" style="stroke:#038048;stroke-width:1.0;"/><text fill="#000000" font-family="sans-serif" font-size="11" lengthAdjust="spacing" textLength="237" x="588.5" y="378.2104">BeanNestedPropertyValueProvider(String)</text><ellipse cx="579.5" cy="387.8047" fill="#84BE84" rx="3" ry="3" style="stroke:#038048;stroke-width:1.0;"/><text fill="#000000" font-family="sans-serif" font-size="11" lengthAdjust="spacing" textLength="87" x="588.5" y="391.0151">apply(T): String</text></a><!--MD5=[73b1a02607eadf9862d2f9c31fcdc3c2]
class com.hack23.cia.web.impl.ui.application.views.common.gridfactory.api.GridFactory--><a href="../api/GridFactory.html" target="_top" title="../api/GridFactory.html" xlink:actuate="onRequest" xlink:href="../api/GridFactory.html" xlink:show="new" xlink:title="../api/GridFactory.html" xlink:type="simple"><rect codeLine="19" fill="#FEFECE" filter="url(#f523lw6rubyln)" height="73.6094" id="com.hack23.cia.web.impl.ui.application.views.common.gridfactory.api.GridFactory" style="stroke:#A80036;stroke-width:1.5;" width="1369" x="318.5" y="41"/><ellipse cx="962.75" cy="57" fill="#B4A7E5" rx="11" ry="11" style="stroke:#A80036;stroke-width:1.0;"/><path d="M958.6719,52.7656 L958.6719,50.6094 L966.0625,50.6094 L966.0625,52.7656 L963.5938,52.7656 L963.5938,60.8438 L966.0625,60.8438 L966.0625,63 L958.6719,63 L958.6719,60.8438 L961.1406,60.8438 L961.1406,52.7656 L958.6719,52.7656 Z " fill="#000000"/><text fill="#000000" font-family="sans-serif" font-size="12" font-style="italic" lengthAdjust="spacing" textLength="72" x="983.25" y="61.1543">GridFactory</text><line style="stroke:#A80036;stroke-width:1.5;" x1="319.5" x2="1686.5" y1="73" y2="73"/><line style="stroke:#A80036;stroke-width:1.5;" x1="319.5" x2="1686.5" y1="81" y2="81"/><ellipse cx="329.5" cy="92" fill="#84BE84" rx="3" ry="3" style="stroke:#038048;stroke-width:1.0;"/><text fill="#000000" font-family="sans-serif" font-size="11" font-style="italic" lengthAdjust="spacing" textLength="1197" x="338.5" y="95.2104">createBasicBeanItemGrid(AbstractOrderedLayout, Class&lt;T extends Serializable&gt;, List&lt;T extends Serializable&gt;, String, String[], String[], PageItemRendererClickListener&lt;?&gt;, String, ListPropertyConverter[]): void</text><ellipse cx="329.5" cy="104.8047" fill="#84BE84" rx="3" ry="3" style="stroke:#038048;stroke-width:1.0;"/><text fill="#000000" font-family="sans-serif" font-size="11" font-style="italic" lengthAdjust="spacing" textLength="1343" x="338.5" y="108.0151">createBasicBeanItemNestedPropertiesGrid(AbstractOrderedLayout, Class&lt;T extends Serializable&gt;, List&lt;T extends Serializable&gt;, String, String[], String[], String[], PageItemRendererClickListener&lt;?&gt;, String, ListPropertyConverter[]): void</text></a><!--MD5=[f43961016bf2082b8138703d14bf28ba]
class com.vaadin.data.ValueProvider--><rect codeLine="26" fill="#FEFECE" filter="url(#f523lw6rubyln)" height="73.6094" id="com.vaadin.data.ValueProvider" style="stroke:#A80036;stroke-width:1.5;" width="225" x="32.5" y="190"/><ellipse cx="47.5" cy="206" fill="#B4A7E5" rx="11" ry="11" style="stroke:#A80036;stroke-width:1.0;"/><path d="M43.4219,201.7656 L43.4219,199.6094 L50.8125,199.6094 L50.8125,201.7656 L48.3438,201.7656 L48.3438,209.8438 L50.8125,209.8438 L50.8125,212 L43.4219,212 L43.4219,209.8438 L45.8906,209.8438 L45.8906,201.7656 L43.4219,201.7656 Z " fill="#000000"/><text fill="#000000" font-family="sans-serif" font-size="12" font-style="italic" lengthAdjust="spacing" textLength="85" x="61.5" y="210.1543">ValueProvider</text><rect fill="#FFFFFF" height="15.9688" style="stroke:#000000;stroke-width:1.0;stroke-dasharray:2.0,2.0;" width="106" x="154.5" y="187"/><text fill="#000000" font-family="sans-serif" font-size="12" font-style="italic" lengthAdjust="spacing" textLength="104" x="155.5" y="199.1387">SOURCE, TARGET</text><line style="stroke:#A80036;stroke-width:1.5;" x1="33.5" x2="256.5" y1="222" y2="222"/><line style="stroke:#A80036;stroke-width:1.5;" x1="33.5" x2="256.5" y1="230" y2="230"/><ellipse cx="43.5" cy="241" fill="#84BE84" rx="3" ry="3" style="stroke:#038048;stroke-width:1.0;"/><text fill="#000000" font-family="sans-serif" font-size="11" lengthAdjust="spacing" text-decoration="underline" textLength="175" x="52.5" y="244.2104">identity(): ValueProvider&lt;T, T&gt;</text><ellipse cx="43.5" cy="253.8047" fill="#84BE84" rx="3" ry="3" style="stroke:#038048;stroke-width:1.0;"/><text fill="#000000" font-family="sans-serif" font-size="11" font-style="italic" lengthAdjust="spacing" textLength="140" x="52.5" y="257.0151">apply(SOURCE): TARGET</text><!--MD5=[3741bec962cd3967fc5b885774b53e09]
reverse link com.hack23.cia.web.impl.ui.application.views.common.gridfactory.api.GridFactory to com.hack23.cia.web.impl.ui.application.views.common.gridfactory.impl.GridFactoryImpl--><path codeLine="13" d="M1003,135.43 C1003,153.69 1003,173.44 1003,189.83 " fill="none" id="com.hack23.cia.web.impl.ui.application.views.common.gridfactory.api.GridFactory-backto-com.hack23.cia.web.impl.ui.application.views.common.gridfactory.impl.GridFactoryImpl" style="stroke:#A80036;stroke-width:1.0;stroke-dasharray:7.0,7.0;"/><polygon fill="none" points="996,135.34,1003,115.34,1010,135.34,996,135.34" style="stroke:#A80036;stroke-width:1.0;"/><!--MD5=[dff26fc88dd9164a0fde2f98bdc0e3bd]
reverse link com.vaadin.data.ValueProvider to com.hack23.cia.web.impl.ui.application.views.common.gridfactory.impl.GridFactoryImpl.BeanNestedPropertyValueProvider--><path codeLine="14" d="M246.22,271.2 C263.3,277.47 281,283.36 298,288 C385.69,311.91 485.29,328.86 568.46,340.28 " fill="none" id="com.vaadin.data.ValueProvider-backto-com.hack23.cia.web.impl.ui.application.views.common.gridfactory.impl.GridFactoryImpl.BeanNestedPropertyValueProvider" style="stroke:#A80036;stroke-width:1.0;stroke-dasharray:7.0,7.0;"/><polygon fill="none" points="243.49,277.65,227.28,264.01,248.46,264.57,243.49,277.65" style="stroke:#A80036;stroke-width:1.0;"/><!--MD5=[da9808f8b8aacfa7d2c8d2aa664d1daa]
reverse link com.hack23.cia.web.impl.ui.application.views.common.gridfactory.impl.GridFactoryImpl to com.hack23.cia.web.impl.ui.application.views.common.gridfactory.impl.GridFactoryImpl.BeanNestedPropertyValueProvider--><path codeLine="15" d="M919.93,271 C886.85,288.12 849.21,307.61 817.6,323.97 " fill="none" id="com.hack23.cia.web.impl.ui.application.views.common.gridfactory.impl.GridFactoryImpl-backto-com.hack23.cia.web.impl.ui.application.views.common.gridfactory.impl.GridFactoryImpl.BeanNestedPropertyValueProvider" style="stroke:#A80036;stroke-width:1.0;"/><ellipse cx="926.2124" cy="267.7419" fill="#FFFFFF" rx="8" ry="8" style="stroke:#A80036;stroke-width:1.0;"/><line style="stroke:#A80036;stroke-width:1.0;" x1="919.1049" x2="933.32" y1="271.4137" y2="264.07"/><line style="stroke:#A80036;stroke-width:1.0;" x1="922.5406" x2="929.8843" y1="260.6343" y2="274.8494"/><text fill="#888888" font-family="sans-serif" font-size="10" lengthAdjust="spacing" textLength="192" x="760" y="429.2822">UMLDoclet 2.0.15, PlantUML 1.2021.13</text><!--MD5=[fa1e1923a6a9ea4b826674367c1c8644]
@startuml
    namespace com.hack23.cia.web.impl.ui.application.views.common.gridfactory.impl {

        class GridFactoryImpl [[GridFactoryImpl.html]] {
            +createBasicBeanItemGrid(AbstractOrderedLayout, Class<T extends Serializable>, List<T extends Serializable>, String, String[], String[], PageItemRendererClickListener<?>, String, ListPropertyConverter[]): void
            +createBasicBeanItemNestedPropertiesGrid(AbstractOrderedLayout, Class<T extends Serializable>, List<T extends Serializable>, String, String[], String[], String[], PageItemRendererClickListener<?>, String, ListPropertyConverter[]): void
        }

        class com.hack23.cia.web.impl.ui.application.views.common.gridfactory.impl.GridFactoryImpl.BeanNestedPropertyValueProvider<T> [[GridFactoryImpl.BeanNestedPropertyValueProvider.html]] {
            +BeanNestedPropertyValueProvider(String)
            +apply(T): String
        }

        com.hack23.cia.web.impl.ui.application.views.common.gridfactory.api.GridFactory <|.. GridFactoryImpl
        com.vaadin.data.ValueProvider <|.. com.hack23.cia.web.impl.ui.application.views.common.gridfactory.impl.GridFactoryImpl.BeanNestedPropertyValueProvider
        GridFactoryImpl +- - com.hack23.cia.web.impl.ui.application.views.common.gridfactory.impl.GridFactoryImpl.BeanNestedPropertyValueProvider
    }

    namespace com.hack23.cia.web.impl.ui.application.views.common.gridfactory.api {
        interface GridFactory [[../api/GridFactory.html]] {
            {abstract} +createBasicBeanItemGrid(AbstractOrderedLayout, Class<T extends Serializable>, List<T extends Serializable>, String, String[], String[], PageItemRendererClickListener<?>, String, ListPropertyConverter[]): void
            {abstract} +createBasicBeanItemNestedPropertiesGrid(AbstractOrderedLayout, Class<T extends Serializable>, List<T extends Serializable>, String, String[], String[], String[], PageItemRendererClickListener<?>, String, ListPropertyConverter[]): void
        }
    }

    namespace com.vaadin.data {
        interface ValueProvider<SOURCE, TARGET> {
            {static} +identity(): ValueProvider<T, T>
            {abstract} +apply(SOURCE): TARGET
        }
    }

    center footer UMLDoclet 2.0.15, PlantUML 1.2021.13
@enduml

PlantUML version 1.2021.13(Mon Nov 01 12:38:45 CET 2021)
(APACHE source distribution)
Java Runtime: OpenJDK Runtime Environment
JVM: OpenJDK 64-Bit Server VM
Default Encoding: UTF-8
Language: en
Country: US
--></g></svg>