<?xml version="1.0" encoding="UTF-8" standalone="no"?><svg xmlns="http://www.w3.org/2000/svg" xmlns:xlink="http://www.w3.org/1999/xlink" contentStyleType="text/css" height="460px" preserveAspectRatio="none" style="width:1985px;height:460px;background:#FFFFFF;" version="1.1" viewBox="0 0 1985 460" width="1985px" zoomAndPan="magnify"><defs/><g><!--MD5=[6ae3bb9c50df50e0babeb42bb82071d9]
cluster com.hack23.cia.web.impl.ui.application.views.common.gridfactory.impl--><g id="cluster_com.hack23.cia.web.impl.ui.application.views.common.gridfactory.impl"><path d="M302.5,162 L862.5,162 A3.75,3.75 0 0 1 865,164.5 L872,184.2969 L1975.5,184.2969 A2.5,2.5 0 0 1 1978,186.7969 L1978,432.5 A2.5,2.5 0 0 1 1975.5,435 L302.5,435 A2.5,2.5 0 0 1 300,432.5 L300,164.5 A2.5,2.5 0 0 1 302.5,162 " style="stroke:#000000;stroke-width:1.5;fill:none;"/><line style="stroke:#000000;stroke-width:1.5;fill:none;" x1="300" x2="872" y1="184.2969" y2="184.2969"/><text fill="#000000" font-family="sans-serif" font-size="14" font-weight="bold" lengthAdjust="spacing" textLength="559" x="304" y="176.9951">com.hack23.cia.web.impl.ui.application.views.common.gridfactory.impl</text></g><!--MD5=[272bab23ede7d10a373ee0f5d1db5235]
cluster com.hack23.cia.web.impl.ui.application.views.common.gridfactory.api--><g id="cluster_com.hack23.cia.web.impl.ui.application.views.common.gridfactory.api"><path d="M303.5,6 L854.5,6 A3.75,3.75 0 0 1 857,8.5 L864,28.2969 L1974.5,28.2969 A2.5,2.5 0 0 1 1977,30.7969 L1977,135.5 A2.5,2.5 0 0 1 1974.5,138 L303.5,138 A2.5,2.5 0 0 1 301,135.5 L301,8.5 A2.5,2.5 0 0 1 303.5,6 " style="stroke:#000000;stroke-width:1.5;fill:none;"/><line style="stroke:#000000;stroke-width:1.5;fill:none;" x1="301" x2="864" y1="28.2969" y2="28.2969"/><text fill="#000000" font-family="sans-serif" font-size="14" font-weight="bold" lengthAdjust="spacing" textLength="550" x="305" y="20.9951">com.hack23.cia.web.impl.ui.application.views.common.gridfactory.api</text></g><!--MD5=[a709f92e7afed3e2534b1458593faadc]
cluster com.vaadin.data--><g id="cluster_com.vaadin.data"><path d="M8.5,162 L137.5,162 A3.75,3.75 0 0 1 140,164.5 L147,184.2969 L273.5,184.2969 A2.5,2.5 0 0 1 276,186.7969 L276,291.5 A2.5,2.5 0 0 1 273.5,294 L8.5,294 A2.5,2.5 0 0 1 6,291.5 L6,164.5 A2.5,2.5 0 0 1 8.5,162 " style="stroke:#000000;stroke-width:1.5;fill:none;"/><line style="stroke:#000000;stroke-width:1.5;fill:none;" x1="6" x2="147" y1="184.2969" y2="184.2969"/><text fill="#000000" font-family="sans-serif" font-size="14" font-weight="bold" lengthAdjust="spacing" textLength="128" x="10" y="176.9951">com.vaadin.data</text></g><!--MD5=[f482fef1bd620d206ae84bc9aa2b5709]
class com.hack23.cia.web.impl.ui.application.views.common.gridfactory.impl.GridFactoryImpl--><a href="GridFactoryImpl.html" target="_top" title="GridFactoryImpl.html" xlink:actuate="onRequest" xlink:href="GridFactoryImpl.html" xlink:show="new" xlink:title="GridFactoryImpl.html" xlink:type="simple"><g id="elem_com.hack23.cia.web.impl.ui.application.views.common.gridfactory.impl.GridFactoryImpl"><rect codeLine="3" fill="#F1F1F1" height="80.5938" id="com.hack23.cia.web.impl.ui.application.views.common.gridfactory.impl.GridFactoryImpl" rx="2.5" ry="2.5" style="stroke:#181818;stroke-width:0.5;" width="1645" x="316.5" y="197"/><ellipse cx="1081.75" cy="213" fill="#ADD1B2" rx="11" ry="11" style="stroke:#181818;stroke-width:1.0;"/><path d="M1084.7188,218.6406 Q1084.1406,218.9375 1083.5,219.0781 Q1082.8594,219.2344 1082.1563,219.2344 Q1079.6563,219.2344 1078.3281,217.5938 Q1077.0156,215.9375 1077.0156,212.8125 Q1077.0156,209.6875 1078.3281,208.0313 Q1079.6563,206.375 1082.1563,206.375 Q1082.8594,206.375 1083.5,206.5313 Q1084.1563,206.6875 1084.7188,206.9844 L1084.7188,209.7031 Q1084.0938,209.125 1083.5,208.8594 Q1082.9063,208.5781 1082.2813,208.5781 Q1080.9375,208.5781 1080.25,209.6563 Q1079.5625,210.7188 1079.5625,212.8125 Q1079.5625,214.9063 1080.25,215.9844 Q1080.9375,217.0469 1082.2813,217.0469 Q1082.9063,217.0469 1083.5,216.7813 Q1084.0938,216.5 1084.7188,215.9219 L1084.7188,218.6406 Z " fill="#000000"/><text fill="#000000" font-family="sans-serif" font-size="14" lengthAdjust="spacing" textLength="106" x="1102.25" y="217.8467">GridFactoryImpl</text><line style="stroke:#181818;stroke-width:0.5;" x1="317.5" x2="1960.5" y1="229" y2="229"/><line style="stroke:#181818;stroke-width:0.5;" x1="317.5" x2="1960.5" y1="237" y2="237"/><ellipse cx="327.5" cy="248" fill="#84BE84" rx="3" ry="3" style="stroke:#038048;stroke-width:1.0;"/><text fill="#000000" font-family="sans-serif" font-size="14" lengthAdjust="spacing" textLength="1440" x="336.5" y="253.9951">createBasicBeanItemGrid(AbstractOrderedLayout, Class&lt;T extends Serializable&gt;, List&lt;T extends Serializable&gt;, String, String[], String[], PageItemRendererClickListener&lt;?&gt;, String, ListPropertyConverter[]): void</text><ellipse cx="327.5" cy="264.2969" fill="#84BE84" rx="3" ry="3" style="stroke:#038048;stroke-width:1.0;"/><text fill="#000000" font-family="sans-serif" font-size="14" lengthAdjust="spacing" textLength="1619" x="336.5" y="270.292">createBasicBeanItemNestedPropertiesGrid(AbstractOrderedLayout, Class&lt;T extends Serializable&gt;, List&lt;T extends Serializable&gt;, String, String[], String[], String[], PageItemRendererClickListener&lt;?&gt;, String, ListPropertyConverter[]): void</text></g></a><!--MD5=[c2b433a45e17236221fa7b2d793b745f]
class com.hack23.cia.web.impl.ui.application.views.common.gridfactory.impl.GridFactoryImpl.BeanNestedPropertyValueProvider--><a href="GridFactoryImpl.BeanNestedPropertyValueProvider.html" target="_top" title="GridFactoryImpl.BeanNestedPropertyValueProvider.html" xlink:actuate="onRequest" xlink:href="GridFactoryImpl.BeanNestedPropertyValueProvider.html" xlink:show="new" xlink:title="GridFactoryImpl.BeanNestedPropertyValueProvider.html" xlink:type="simple"><g id="elem_com.hack23.cia.web.impl.ui.application.views.common.gridfactory.impl.GridFactoryImpl.BeanNestedPropertyValueProvider"><rect codeLine="8" fill="#F1F1F1" height="80.5938" id="com.hack23.cia.web.impl.ui.application.views.common.gridfactory.impl.GridFactoryImpl.BeanNestedPropertyValueProvider" rx="2.5" ry="2.5" style="stroke:#181818;stroke-width:0.5;" width="391" x="629.5" y="338"/><ellipse cx="644.5" cy="354" fill="#ADD1B2" rx="11" ry="11" style="stroke:#181818;stroke-width:1.0;"/><path d="M647.4688,359.6406 Q646.8906,359.9375 646.25,360.0781 Q645.6094,360.2344 644.9063,360.2344 Q642.4063,360.2344 641.0781,358.5938 Q639.7656,356.9375 639.7656,353.8125 Q639.7656,350.6875 641.0781,349.0313 Q642.4063,347.375 644.9063,347.375 Q645.6094,347.375 646.25,347.5313 Q646.9063,347.6875 647.4688,347.9844 L647.4688,350.7031 Q646.8438,350.125 646.25,349.8594 Q645.6563,349.5781 645.0313,349.5781 Q643.6875,349.5781 643,350.6563 Q642.3125,351.7188 642.3125,353.8125 Q642.3125,355.9063 643,356.9844 Q643.6875,358.0469 645.0313,358.0469 Q645.6563,358.0469 646.25,357.7813 Q646.8438,357.5 647.4688,356.9219 L647.4688,359.6406 Z " fill="#000000"/><text fill="#000000" font-family="sans-serif" font-size="14" lengthAdjust="spacing" textLength="348" x="658.5" y="358.8467">GridFactoryImpl.BeanNestedPropertyValueProvider</text><rect fill="#FFFFFF" height="15.9688" style="stroke:#000000;stroke-width:1.0;stroke-dasharray:2.0,2.0;" width="9" x="1014.5" y="335"/><text fill="#000000" font-family="sans-serif" font-size="12" font-style="italic" lengthAdjust="spacing" textLength="7" x="1015.5" y="347.1387">T</text><line style="stroke:#181818;stroke-width:0.5;" x1="630.5" x2="1019.5" y1="370" y2="370"/><line style="stroke:#181818;stroke-width:0.5;" x1="630.5" x2="1019.5" y1="378" y2="378"/><ellipse cx="640.5" cy="389" fill="#84BE84" rx="3" ry="3" style="stroke:#038048;stroke-width:1.0;"/><text fill="#000000" font-family="sans-serif" font-size="14" lengthAdjust="spacing" textLength="288" x="649.5" y="394.9951">BeanNestedPropertyValueProvider(String)</text><ellipse cx="640.5" cy="405.2969" fill="#84BE84" rx="3" ry="3" style="stroke:#038048;stroke-width:1.0;"/><text fill="#000000" font-family="sans-serif" font-size="14" lengthAdjust="spacing" textLength="104" x="649.5" y="411.292">apply(T): String</text></g></a><!--MD5=[73b1a02607eadf9862d2f9c31fcdc3c2]
class com.hack23.cia.web.impl.ui.application.views.common.gridfactory.api.GridFactory--><a href="../api/GridFactory.html" target="_top" title="../api/GridFactory.html" xlink:actuate="onRequest" xlink:href="../api/GridFactory.html" xlink:show="new" xlink:title="../api/GridFactory.html" xlink:type="simple"><g id="elem_com.hack23.cia.web.impl.ui.application.views.common.gridfactory.api.GridFactory"><rect codeLine="19" fill="#F1F1F1" height="80.5938" id="com.hack23.cia.web.impl.ui.application.views.common.gridfactory.api.GridFactory" rx="2.5" ry="2.5" style="stroke:#181818;stroke-width:0.5;" width="1643" x="317.5" y="41"/><ellipse cx="1095.25" cy="57" fill="#B4A7E5" rx="11" ry="11" style="stroke:#181818;stroke-width:1.0;"/><path d="M1091.1719,52.7656 L1091.1719,50.6094 L1098.5625,50.6094 L1098.5625,52.7656 L1096.0938,52.7656 L1096.0938,60.8438 L1098.5625,60.8438 L1098.5625,63 L1091.1719,63 L1091.1719,60.8438 L1093.6406,60.8438 L1093.6406,52.7656 L1091.1719,52.7656 Z " fill="#000000"/><text fill="#000000" font-family="sans-serif" font-size="14" font-style="italic" lengthAdjust="spacing" textLength="79" x="1115.75" y="61.8467">GridFactory</text><line style="stroke:#181818;stroke-width:0.5;" x1="318.5" x2="1959.5" y1="73" y2="73"/><line style="stroke:#181818;stroke-width:0.5;" x1="318.5" x2="1959.5" y1="81" y2="81"/><ellipse cx="328.5" cy="92" fill="#84BE84" rx="3" ry="3" style="stroke:#038048;stroke-width:1.0;"/><text fill="#000000" font-family="sans-serif" font-size="14" font-style="italic" lengthAdjust="spacing" textLength="1440" x="337.5" y="97.9951">createBasicBeanItemGrid(AbstractOrderedLayout, Class&lt;T extends Serializable&gt;, List&lt;T extends Serializable&gt;, String, String[], String[], PageItemRendererClickListener&lt;?&gt;, String, ListPropertyConverter[]): void</text><ellipse cx="328.5" cy="108.2969" fill="#84BE84" rx="3" ry="3" style="stroke:#038048;stroke-width:1.0;"/><text fill="#000000" font-family="sans-serif" font-size="14" font-style="italic" lengthAdjust="spacing" textLength="1617" x="337.5" y="114.292">createBasicBeanItemNestedPropertiesGrid(AbstractOrderedLayout, Class&lt;T extends Serializable&gt;, List&lt;T extends Serializable&gt;, String, String[], String[], String[], PageItemRendererClickListener&lt;?&gt;, String, ListPropertyConverter[]): void</text></g></a><!--MD5=[f43961016bf2082b8138703d14bf28ba]
class com.vaadin.data.ValueProvider--><g id="elem_com.vaadin.data.ValueProvider"><rect codeLine="26" fill="#F1F1F1" height="80.5938" id="com.vaadin.data.ValueProvider" rx="2.5" ry="2.5" style="stroke:#181818;stroke-width:0.5;" width="239" x="21.5" y="197"/><ellipse cx="38.3" cy="213" fill="#B4A7E5" rx="11" ry="11" style="stroke:#181818;stroke-width:1.0;"/><path d="M34.2219,208.7656 L34.2219,206.6094 L41.6125,206.6094 L41.6125,208.7656 L39.1438,208.7656 L39.1438,216.8438 L41.6125,216.8438 L41.6125,219 L34.2219,219 L34.2219,216.8438 L36.6906,216.8438 L36.6906,208.7656 L34.2219,208.7656 Z " fill="#000000"/><text fill="#000000" font-family="sans-serif" font-size="14" font-style="italic" lengthAdjust="spacing" textLength="95" x="52.7" y="217.8467">ValueProvider</text><rect fill="#FFFFFF" height="15.9688" style="stroke:#000000;stroke-width:1.0;stroke-dasharray:2.0,2.0;" width="106" x="157.5" y="194"/><text fill="#000000" font-family="sans-serif" font-size="12" font-style="italic" lengthAdjust="spacing" textLength="104" x="158.5" y="206.1387">SOURCE, TARGET</text><line style="stroke:#181818;stroke-width:0.5;" x1="22.5" x2="259.5" y1="229" y2="229"/><line style="stroke:#181818;stroke-width:0.5;" x1="22.5" x2="259.5" y1="237" y2="237"/><ellipse cx="32.5" cy="248" fill="#84BE84" rx="3" ry="3" style="stroke:#038048;stroke-width:1.0;"/><text fill="#000000" font-family="sans-serif" font-size="14" lengthAdjust="spacing" text-decoration="underline" textLength="213" x="41.5" y="253.9951">identity(): ValueProvider&lt;T, T&gt;</text><ellipse cx="32.5" cy="264.2969" fill="#84BE84" rx="3" ry="3" style="stroke:#038048;stroke-width:1.0;"/><text fill="#000000" font-family="sans-serif" font-size="14" font-style="italic" lengthAdjust="spacing" textLength="173" x="41.5" y="270.292">apply(SOURCE): TARGET</text></g><!--MD5=[3741bec962cd3967fc5b885774b53e09]
reverse link com.hack23.cia.web.impl.ui.application.views.common.gridfactory.api.GridFactory to com.hack23.cia.web.impl.ui.application.views.common.gridfactory.impl.GridFactoryImpl--><g id="link_com.hack23.cia.web.impl.ui.application.views.common.gridfactory.api.GridFactory_com.hack23.cia.web.impl.ui.application.views.common.gridfactory.impl.GridFactoryImpl"><path codeLine="13" d="M1139,142.39 C1139,160.7 1139,180.38 1139,196.98 " fill="none" id="com.hack23.cia.web.impl.ui.application.views.common.gridfactory.api.GridFactory-backto-com.hack23.cia.web.impl.ui.application.views.common.gridfactory.impl.GridFactoryImpl" style="stroke:#181818;stroke-width:1.0;stroke-dasharray:7.0,7.0;"/><polygon fill="none" points="1132,142.16,1139,122.16,1146,142.16,1132,142.16" style="stroke:#181818;stroke-width:1.0;"/></g><!--MD5=[dff26fc88dd9164a0fde2f98bdc0e3bd]
reverse link com.vaadin.data.ValueProvider to com.hack23.cia.web.impl.ui.application.views.common.gridfactory.impl.GridFactoryImpl.BeanNestedPropertyValueProvider--><g id="link_com.vaadin.data.ValueProvider_com.hack23.cia.web.impl.ui.application.views.common.gridfactory.impl.GridFactoryImpl.BeanNestedPropertyValueProvider"><path codeLine="14" d="M248,285.21 C265.16,291.55 282.91,297.43 300,302 C407.08,330.65 529.54,349.05 629.24,360.5 " fill="none" id="com.vaadin.data.ValueProvider-backto-com.hack23.cia.web.impl.ui.application.views.common.gridfactory.impl.GridFactoryImpl.BeanNestedPropertyValueProvider" style="stroke:#181818;stroke-width:1.0;stroke-dasharray:7.0,7.0;"/><polygon fill="none" points="245.48,291.74,229.3,278.06,250.48,278.67,245.48,291.74" style="stroke:#181818;stroke-width:1.0;"/></g><!--MD5=[da9808f8b8aacfa7d2c8d2aa664d1daa]
reverse link com.hack23.cia.web.impl.ui.application.views.common.gridfactory.impl.GridFactoryImpl to com.hack23.cia.web.impl.ui.application.views.common.gridfactory.impl.GridFactoryImpl.BeanNestedPropertyValueProvider--><g id="link_com.hack23.cia.web.impl.ui.application.views.common.gridfactory.impl.GridFactoryImpl_com.hack23.cia.web.impl.ui.application.views.common.gridfactory.impl.GridFactoryImpl.BeanNestedPropertyValueProvider"><path codeLine="15" d="M1035.54,284.3 C996.38,301.63 952.17,321.21 914.41,337.92 " fill="none" id="com.hack23.cia.web.impl.ui.application.views.common.gridfactory.impl.GridFactoryImpl-backto-com.hack23.cia.web.impl.ui.application.views.common.gridfactory.impl.GridFactoryImpl.BeanNestedPropertyValueProvider" style="stroke:#181818;stroke-width:1.0;"/><ellipse cx="1042.1248" cy="281.3885" fill="#FFFFFF" rx="8" ry="8" style="stroke:#181818;stroke-width:1.0;"/><line style="stroke:#181818;stroke-width:1.0;" x1="1034.8096" x2="1049.44" y1="284.627" y2="278.15"/><line style="stroke:#181818;stroke-width:1.0;" x1="1038.8863" x2="1045.3633" y1="274.0733" y2="288.7037"/></g><rect height="11.6406" style="stroke:#00000000;stroke-width:1.0;fill:none;" width="186" x="892.5" y="441"/><text fill="#888888" font-family="sans-serif" font-size="10" lengthAdjust="spacing" textLength="186" x="892.5" y="450.2822">UMLDoclet 2.0.18, PlantUML 1.2022.6</text><!--MD5=[13ab2540ed8e35488b028493fdc7a4c4]
@startuml
    namespace com.hack23.cia.web.impl.ui.application.views.common.gridfactory.impl {

        class GridFactoryImpl [[GridFactoryImpl.html]] {
            +createBasicBeanItemGrid(AbstractOrderedLayout, Class<T extends Serializable>, List<T extends Serializable>, String, String[], String[], PageItemRendererClickListener<?>, String, ListPropertyConverter[]): void
            +createBasicBeanItemNestedPropertiesGrid(AbstractOrderedLayout, Class<T extends Serializable>, List<T extends Serializable>, String, String[], String[], String[], PageItemRendererClickListener<?>, String, ListPropertyConverter[]): void
        }

        class com.hack23.cia.web.impl.ui.application.views.common.gridfactory.impl.GridFactoryImpl.BeanNestedPropertyValueProvider<T> [[GridFactoryImpl.BeanNestedPropertyValueProvider.html]] {
            +BeanNestedPropertyValueProvider(String)
            +apply(T): String
        }

        com.hack23.cia.web.impl.ui.application.views.common.gridfactory.api.GridFactory <|.. GridFactoryImpl
        com.vaadin.data.ValueProvider <|.. com.hack23.cia.web.impl.ui.application.views.common.gridfactory.impl.GridFactoryImpl.BeanNestedPropertyValueProvider
        GridFactoryImpl +- - com.hack23.cia.web.impl.ui.application.views.common.gridfactory.impl.GridFactoryImpl.BeanNestedPropertyValueProvider
    }

    namespace com.hack23.cia.web.impl.ui.application.views.common.gridfactory.api {
        interface GridFactory [[../api/GridFactory.html]] {
            {abstract} +createBasicBeanItemGrid(AbstractOrderedLayout, Class<T extends Serializable>, List<T extends Serializable>, String, String[], String[], PageItemRendererClickListener<?>, String, ListPropertyConverter[]): void
            {abstract} +createBasicBeanItemNestedPropertiesGrid(AbstractOrderedLayout, Class<T extends Serializable>, List<T extends Serializable>, String, String[], String[], String[], PageItemRendererClickListener<?>, String, ListPropertyConverter[]): void
        }
    }

    namespace com.vaadin.data {
        interface ValueProvider<SOURCE, TARGET> {
            {static} +identity(): ValueProvider<T, T>
            {abstract} +apply(SOURCE): TARGET
        }
    }

    center footer UMLDoclet 2.0.18, PlantUML 1.2022.6
@enduml

PlantUML version 1.2022.6(Tue Jun 21 19:34:49 CEST 2022)
(APACHE source distribution)
Java Runtime: OpenJDK Runtime Environment
JVM: OpenJDK 64-Bit Server VM
Default Encoding: ANSI_X3.4-1968
Language: en
Country: US
--></g></svg>