<?xml version="1.0" encoding="UTF-8" standalone="no"?><svg xmlns="http://www.w3.org/2000/svg" xmlns:xlink="http://www.w3.org/1999/xlink" contentScriptType="application/ecmascript" contentStyleType="text/css" height="295px" preserveAspectRatio="none" style="width:439px;height:295px;" version="1.1" viewBox="0 0 439 295" width="439px" zoomAndPan="magnify"><defs><filter height="300%" id="f1xpxsi8vx4ddz" width="300%" x="-1" y="-1"><feGaussianBlur result="blurOut" stdDeviation="2.0"/><feColorMatrix in="blurOut" result="blurOut2" type="matrix" values="0 0 0 0 0 0 0 0 0 0 0 0 0 0 0 0 0 0 .4 0"/><feOffset dx="4.0" dy="4.0" in="blurOut2" result="blurOut3"/><feBlend in="SourceGraphic" in2="blurOut3" mode="normal"/></filter></defs><g><!--class com.hack23.cia.web.impl.ui.application.views.common.pagelinks.api.PageModeMenuCommand--><a href="PageModeMenuCommand.html" target="_top" xlink:actuate="onRequest" xlink:show="new" xlink:title="PageModeMenuCommand.html" xlink:type="simple"><rect fill="#FEFECE" filter="url(#f1xpxsi8vx4ddz)" height="135.5703" id="com.hack23.cia.web.impl.ui.application.views.common.pagelinks.api.PageModeMenuCommand" style="stroke: #A80036; stroke-width: 1.5;" width="357" x="42" y="127"/><ellipse cx="57" cy="145.9688" fill="#ADD1B2" rx="11" ry="11" style="stroke: #A80036; stroke-width: 1.0;"/><path d="M59.9688,151.6094 Q59.3906,151.9063 58.75,152.0469 Q58.1094,152.2031 57.4063,152.2031 Q54.9063,152.2031 53.5781,150.5625 Q52.2656,148.9063 52.2656,145.7813 Q52.2656,142.6563 53.5781,141 Q54.9063,139.3438 57.4063,139.3438 Q58.1094,139.3438 58.75,139.5 Q59.4063,139.6563 59.9688,139.9531 L59.9688,142.6719 Q59.3438,142.0938 58.75,141.8281 Q58.1563,141.5469 57.5313,141.5469 Q56.1875,141.5469 55.5,142.625 Q54.8125,143.6875 54.8125,145.7813 Q54.8125,147.875 55.5,148.9531 Q56.1875,150.0156 57.5313,150.0156 Q58.1563,150.0156 58.75,149.75 Q59.3438,149.4688 59.9688,148.8906 L59.9688,151.6094 Z "/><text fill="#000000" font-family="sans-serif" font-size="14" lengthAdjust="spacingAndGlyphs" textLength="184" x="141.5" y="144.9951">PageModeMenuCommand</text><text fill="#000000" font-family="sans-serif" font-size="10" lengthAdjust="spacingAndGlyphs" textLength="325" x="71" y="157.5791">com.hack23.cia.web.impl.ui.application.views.common.pagelinks.api</text><line style="stroke: #A80036; stroke-width: 1.5;" x1="43" x2="398" y1="164.9375" y2="164.9375"/><ellipse cx="53" cy="176.8398" fill="#84BE84" rx="3" ry="3" style="stroke: #038048; stroke-width: 1.0;"/><text fill="#000000" font-family="sans-serif" font-size="11" lengthAdjust="spacingAndGlyphs" textLength="254" x="62" y="179.1479">PageModeMenuCommand(String, PageMode)</text><ellipse cx="53" cy="189.6445" fill="#84BE84" rx="3" ry="3" style="stroke: #038048; stroke-width: 1.0;"/><text fill="#000000" font-family="sans-serif" font-size="11" lengthAdjust="spacingAndGlyphs" textLength="296" x="62" y="191.9526">PageModeMenuCommand(String, PageMode, String)</text><ellipse cx="53" cy="202.4492" fill="#84BE84" rx="3" ry="3" style="stroke: #038048; stroke-width: 1.0;"/><text fill="#000000" font-family="sans-serif" font-size="11" lengthAdjust="spacingAndGlyphs" textLength="230" x="62" y="204.7573">PageModeMenuCommand(String, String)</text><ellipse cx="53" cy="215.2539" fill="#84BE84" rx="3" ry="3" style="stroke: #038048; stroke-width: 1.0;"/><text fill="#000000" font-family="sans-serif" font-size="11" lengthAdjust="spacingAndGlyphs" textLength="272" x="62" y="217.562">PageModeMenuCommand(String, String, String)</text><ellipse cx="53" cy="228.0586" fill="#84BE84" rx="3" ry="3" style="stroke: #038048; stroke-width: 1.0;"/><text fill="#000000" font-family="sans-serif" font-size="11" lengthAdjust="spacingAndGlyphs" textLength="158" x="62" y="230.3667">buttonClick(ClickEvent): void</text><ellipse cx="53" cy="240.8633" fill="#84BE84" rx="3" ry="3" style="stroke: #038048; stroke-width: 1.0;"/><text fill="#000000" font-family="sans-serif" font-size="11" lengthAdjust="spacingAndGlyphs" textLength="121" x="62" y="243.1714">getPagePath(): String</text><ellipse cx="53" cy="253.668" fill="#84BE84" rx="3" ry="3" style="stroke: #038048; stroke-width: 1.0;"/><text fill="#000000" font-family="sans-serif" font-size="11" lengthAdjust="spacingAndGlyphs" textLength="175" x="62" y="255.9761">menuSelected(MenuItem): void</text></a><!--class com.vaadin.ui.MenuBar.Command--><rect fill="#FEFECE" filter="url(#f1xpxsi8vx4ddz)" height="58.7422" id="com.vaadin.ui.MenuBar.Command" style="stroke: #A80036; stroke-width: 1.5;" width="201" x="6" y="8"/><ellipse cx="35.4" cy="26.9688" fill="#B4A7E5" rx="11" ry="11" style="stroke: #A80036; stroke-width: 1.0;"/><path d="M31.3219,22.7344 L31.3219,20.5781 L38.7125,20.5781 L38.7125,22.7344 L36.2438,22.7344 L36.2438,30.8125 L38.7125,30.8125 L38.7125,32.9688 L31.3219,32.9688 L31.3219,30.8125 L33.7906,30.8125 L33.7906,22.7344 L31.3219,22.7344 Z "/><text fill="#000000" font-family="sans-serif" font-size="14" font-style="italic" lengthAdjust="spacingAndGlyphs" textLength="137" x="52.6" y="25.9951">MenuBar.Command</text><text fill="#000000" font-family="sans-serif" font-size="10" font-style="italic" lengthAdjust="spacingAndGlyphs" textLength="70" x="86.1" y="38.5791">com.vaadin.ui</text><line style="stroke: #A80036; stroke-width: 1.5;" x1="7" x2="206" y1="45.9375" y2="45.9375"/><ellipse cx="17" cy="57.8398" fill="#84BE84" rx="3" ry="3" style="stroke: #038048; stroke-width: 1.0;"/><text fill="#000000" font-family="sans-serif" font-size="11" font-style="italic" lengthAdjust="spacingAndGlyphs" textLength="175" x="26" y="60.1479">menuSelected(MenuItem): void</text><!--class com.vaadin.ui.Button.ClickListener--><rect fill="#FEFECE" filter="url(#f1xpxsi8vx4ddz)" height="58.7422" id="com.vaadin.ui.Button.ClickListener" style="stroke: #A80036; stroke-width: 1.5;" width="186" x="242.5" y="8"/><ellipse cx="264.7" cy="26.9688" fill="#B4A7E5" rx="11" ry="11" style="stroke: #A80036; stroke-width: 1.0;"/><path d="M260.6219,22.7344 L260.6219,20.5781 L268.0125,20.5781 L268.0125,22.7344 L265.5438,22.7344 L265.5438,30.8125 L268.0125,30.8125 L268.0125,32.9688 L260.6219,32.9688 L260.6219,30.8125 L263.0906,30.8125 L263.0906,22.7344 L260.6219,22.7344 Z "/><text fill="#000000" font-family="sans-serif" font-size="14" font-style="italic" lengthAdjust="spacingAndGlyphs" textLength="138" x="280.3" y="25.9951">Button.ClickListener</text><text fill="#000000" font-family="sans-serif" font-size="10" font-style="italic" lengthAdjust="spacingAndGlyphs" textLength="70" x="314.3" y="38.5791">com.vaadin.ui</text><line style="stroke: #A80036; stroke-width: 1.5;" x1="243.5" x2="427.5" y1="45.9375" y2="45.9375"/><ellipse cx="253.5" cy="57.8398" fill="#84BE84" rx="3" ry="3" style="stroke: #038048; stroke-width: 1.0;"/><text fill="#000000" font-family="sans-serif" font-size="11" font-style="italic" lengthAdjust="spacingAndGlyphs" textLength="160" x="262.5" y="60.1479">buttonClick(ClickEvent): void</text><!--link com.vaadin.ui.MenuBar.Command to com.hack23.cia.web.impl.ui.application.views.common.pagelinks.api.PageModeMenuCommand--><path d="M139.7071,83.3782 C149.5753,97.0119 160.6031,112.2477 171.2619,126.9737 " fill="none" id="com.vaadin.ui.MenuBar.Command-com.hack23.cia.web.impl.ui.application.views.common.pagelinks.api.PageModeMenuCommand" style="stroke: #A80036; stroke-width: 1.0; stroke-dasharray: 7.0,7.0;"/><polygon fill="none" points="133.9988,87.4303,127.9425,67.1245,145.3398,79.2216,133.9988,87.4303" style="stroke: #A80036; stroke-width: 1.0;"/><!--link com.vaadin.ui.Button.ClickListener to com.hack23.cia.web.impl.ui.application.views.common.pagelinks.api.PageModeMenuCommand--><path d="M302.0016,83.3782 C292.0468,97.0119 280.9223,112.2477 270.17,126.9737 " fill="none" id="com.vaadin.ui.Button.ClickListener-com.hack23.cia.web.impl.ui.application.views.common.pagelinks.api.PageModeMenuCommand" style="stroke: #A80036; stroke-width: 1.0; stroke-dasharray: 7.0,7.0;"/><polygon fill="none" points="296.422,79.1492,313.8694,67.1245,307.7288,87.405,296.422,79.1492" style="stroke: #A80036; stroke-width: 1.0;"/><text fill="#888888" font-family="sans-serif" font-size="10" lengthAdjust="spacingAndGlyphs" textLength="186" x="130.5" y="282.2822">UMLDoclet 2.0.5, PlantUML 1.2019.08</text><!--
@startuml
    set namespaceSeparator none
    hide empty fields
    hide empty methods

    class "<size:14>PageModeMenuCommand\n<size:10>com.hack23.cia.web.impl.ui.application.views.common.pagelinks.api" as com.hack23.cia.web.impl.ui.application.views.common.pagelinks.api.PageModeMenuCommand [[PageModeMenuCommand.html]] {
        +PageModeMenuCommand(String, PageMode)
        +PageModeMenuCommand(String, PageMode, String)
        +PageModeMenuCommand(String, String)
        +PageModeMenuCommand(String, String, String)
        +buttonClick(ClickEvent): void
        +getPagePath(): String
        +menuSelected(MenuItem): void
    }

    interface "<size:14>MenuBar.Command\n<size:10>com.vaadin.ui" as com.vaadin.ui.MenuBar.Command {
        {abstract} +menuSelected(MenuItem): void
    }
    interface "<size:14>Button.ClickListener\n<size:10>com.vaadin.ui" as com.vaadin.ui.Button.ClickListener {
        {abstract} +buttonClick(ClickEvent): void
    }

    com.vaadin.ui.MenuBar.Command <|.. com.hack23.cia.web.impl.ui.application.views.common.pagelinks.api.PageModeMenuCommand
    com.vaadin.ui.Button.ClickListener <|.. com.hack23.cia.web.impl.ui.application.views.common.pagelinks.api.PageModeMenuCommand

    center footer UMLDoclet 2.0.5, PlantUML 1.2019.08
@enduml

PlantUML version 1.2019.08(Sat Jul 13 21:25:14 CEST 2019)
(APACHE source distribution)
Java Runtime: OpenJDK Runtime Environment
JVM: OpenJDK 64-Bit Server VM
Java Version: 11.0.5-ea+10-post-Ubuntu-0ubuntu1
Operating System: Linux
OS Version: 5.3.0-13-generic
Default Encoding: UTF-8
Language: en
Country: US
--></g></svg>