<svg xmlns="http://www.w3.org/2000/svg" xmlns:xlink="http://www.w3.org/1999/xlink" contentStyleType="text/css" height="209px" preserveAspectRatio="none" style="width:469px;height:209px;background:#FFFFFF;" version="1.1" viewBox="0 0 469 209" width="469px" zoomAndPan="magnify"><defs/><g><!--class com.hack23.cia.service.data.impl.util.SecretPGXADataSource.SecretReference--><a href="SecretPGXADataSource.SecretReference.html" target="_top" title="SecretPGXADataSource.SecretReference.html" xlink:actuate="onRequest" xlink:href="SecretPGXADataSource.SecretReference.html" xlink:show="new" xlink:title="SecretPGXADataSource.SecretReference.html" xlink:type="simple"><g id="elem_com.hack23.cia.service.data.impl.util.SecretPGXADataSource.SecretReference"><rect codeLine="13" fill="#F1F1F1" height="88.8237" id="com.hack23.cia.service.data.impl.util.SecretPGXADataSource.SecretReference" rx="2.5" ry="2.5" style="stroke:#181818;stroke-width:0.5;" width="456.9604" x="6" y="91"/><ellipse cx="98.1897" cy="112.344" fill="#ADD1B2" rx="11" ry="11" style="stroke:#181818;stroke-width:1.0;"/><path d="M101.1585,117.9846 Q100.5804,118.2815 99.9397,118.4221 Q99.2991,118.5783 98.596,118.5783 Q96.096,118.5783 94.7679,116.9377 Q93.4554,115.2815 93.4554,112.1565 Q93.4554,109.0315 94.7679,107.3752 Q96.096,105.719 98.596,105.719 Q99.2991,105.719 99.9397,105.8752 Q100.596,106.0315 101.1585,106.3283 L101.1585,109.0471 Q100.5335,108.469 99.9397,108.2033 Q99.346,107.9221 98.721,107.9221 Q97.3772,107.9221 96.6897,109.0002 Q96.0022,110.0627 96.0022,112.1565 Q96.0022,114.2502 96.6897,115.3283 Q97.3772,116.3908 98.721,116.3908 Q99.346,116.3908 99.9397,116.1252 Q100.5335,115.844 101.1585,115.2658 L101.1585,117.9846 Z " fill="#000000"/><text fill="#000000" font-family="sans-serif" font-size="14" lengthAdjust="spacing" textLength="264.081" x="118.6897" y="110.9659">SecretPGXADataSource.SecretReference</text><text fill="#000000" font-family="sans-serif" font-size="10" lengthAdjust="spacing" textLength="171.8899" x="164.7853" y="125.7579">com.hack23.cia.service.data.impl.util</text><line style="stroke:#181818;stroke-width:0.5;" x1="7" x2="461.9604" y1="133.6879" y2="133.6879"/><ellipse cx="17" cy="148.7219" fill="#84BE84" rx="3" ry="3" style="stroke:#038048;stroke-width:1.0;"/><text fill="#000000" font-family="sans-serif" font-size="14" lengthAdjust="spacing" textLength="430.9604" x="26" y="152.6538">SecretReference(SecretCredentialsManager, String, String, String)</text><ellipse cx="17" cy="167.7898" fill="#84BE84" rx="3" ry="3" style="stroke:#038048;stroke-width:1.0;"/><text fill="#000000" font-family="sans-serif" font-size="14" lengthAdjust="spacing" textLength="387.1544" x="26" y="171.7218">getSecretCredentialsManager(): SecretCredentialsManager</text></g></a><!--class javax.naming.Reference--><g id="elem_javax.naming.Reference"><rect codeLine="18" fill="#F1F1F1" height="42.6879" id="javax.naming.Reference" rx="2.5" ry="2.5" style="stroke:#181818;stroke-width:0.5;" width="98.2617" x="101.5" y="12"/><ellipse cx="116.5" cy="33.344" fill="#ADD1B2" rx="11" ry="11" style="stroke:#181818;stroke-width:1.0;"/><path d="M119.4688,38.9846 Q118.8906,39.2815 118.25,39.4221 Q117.6094,39.5783 116.9063,39.5783 Q114.4063,39.5783 113.0781,37.9377 Q111.7656,36.2815 111.7656,33.1565 Q111.7656,30.0315 113.0781,28.3752 Q114.4063,26.719 116.9063,26.719 Q117.6094,26.719 118.25,26.8752 Q118.9063,27.0315 119.4688,27.3283 L119.4688,30.0471 Q118.8438,29.469 118.25,29.2033 Q117.6563,28.9221 117.0313,28.9221 Q115.6875,28.9221 115,30.0002 Q114.3125,31.0627 114.3125,33.1565 Q114.3125,35.2502 115,36.3283 Q115.6875,37.3908 117.0313,37.3908 Q117.6563,37.3908 118.25,37.1252 Q118.8438,36.844 119.4688,36.2658 L119.4688,38.9846 Z " fill="#000000"/><text fill="#000000" font-family="sans-serif" font-size="14" lengthAdjust="spacing" textLength="66.2617" x="130.5" y="31.9659">Reference</text><text fill="#000000" font-family="sans-serif" font-size="10" lengthAdjust="spacing" textLength="62.9" x="132.1809" y="46.7579">javax.naming</text></g><!--class com.hack23.cia.service.data.impl.util.SecretPGXADataSource--><a href="SecretPGXADataSource.html" target="_top" title="SecretPGXADataSource.html" xlink:actuate="onRequest" xlink:href="SecretPGXADataSource.html" xlink:show="new" xlink:title="SecretPGXADataSource.html" xlink:type="simple"><g id="elem_com.hack23.cia.service.data.impl.util.SecretPGXADataSource"><rect codeLine="19" fill="#F1F1F1" height="42.6879" id="com.hack23.cia.service.data.impl.util.SecretPGXADataSource" rx="2.5" ry="2.5" style="stroke:#181818;stroke-width:0.5;" width="203.8899" x="217.5" y="12"/><ellipse cx="232.5" cy="33.344" fill="#ADD1B2" rx="11" ry="11" style="stroke:#181818;stroke-width:1.0;"/><path d="M235.4688,38.9846 Q234.8906,39.2815 234.25,39.4221 Q233.6094,39.5783 232.9063,39.5783 Q230.4063,39.5783 229.0781,37.9377 Q227.7656,36.2815 227.7656,33.1565 Q227.7656,30.0315 229.0781,28.3752 Q230.4063,26.719 232.9063,26.719 Q233.6094,26.719 234.25,26.8752 Q234.9063,27.0315 235.4688,27.3283 L235.4688,30.0471 Q234.8438,29.469 234.25,29.2033 Q233.6563,28.9221 233.0313,28.9221 Q231.6875,28.9221 231,30.0002 Q230.3125,31.0627 230.3125,33.1565 Q230.3125,35.2502 231,36.3283 Q231.6875,37.3908 233.0313,37.3908 Q233.6563,37.3908 234.25,37.1252 Q234.8438,36.844 235.4688,36.2658 L235.4688,38.9846 Z " fill="#000000"/><text fill="#000000" font-family="sans-serif" font-size="14" lengthAdjust="spacing" textLength="153.0334" x="255.9282" y="31.9659">SecretPGXADataSource</text><text fill="#000000" font-family="sans-serif" font-size="10" lengthAdjust="spacing" textLength="171.8899" x="246.5" y="46.7579">com.hack23.cia.service.data.impl.util</text></g></a><polygon fill="none" points="167.9049,55.2201,174.8881,72.8619,184.0765,65.1436,167.9049,55.2201" style="stroke:#181818;stroke-width:1.0;"/><path d="M179.4823,69.0028 C188.1322,79.3002 187.3536,78.3733 197.7213,90.7158 " fill="none" style="stroke:#181818;stroke-width:1.0;"/><ellipse cx="296.7068" cy="61.3156" fill="#FFFFFF" rx="8" ry="8" style="stroke:#181818;stroke-width:1.0;"/><line style="stroke:#181818;stroke-width:1.0;" x1="291.5256" x2="301.8879" y1="67.4111" y2="55.2201"/><line style="stroke:#181818;stroke-width:1.0;" x1="290.6112" x2="302.8023" y1="56.1344" y2="66.4968"/><path d="M291.5256,67.4111 C282.7727,77.7086 282.2077,78.3733 271.7165,90.7158 " fill="none" style="stroke:#181818;stroke-width:1.0;"/><text fill="#888888" font-family="sans-serif" font-size="10" lengthAdjust="spacing" textLength="2.6" x="229.7" y="184.69">&#160;</text><a href="https://github.com/talsma-ict/umldoclet" target="_top" title="https://github.com/talsma-ict/umldoclet" xlink:actuate="onRequest" xlink:href="https://github.com/talsma-ict/umldoclet" xlink:show="new" xlink:title="https://github.com/talsma-ict/umldoclet" xlink:type="simple"><text fill="#888888" font-family="sans-serif" font-size="10" lengthAdjust="spacing" textLength="76.7199" x="192.64" y="198.31">UMLDoclet 2.2.1</text></a><!--SRC=[lLJRRjf047tFLqpJXn8H5jka3K5H94Igj1MHea2aIYGFc_LWRrdlkhjZMjhctxksAQ4895H5zOlbkPmvS_4107W30vClh4nI0Z90gNHmTpq4hcD8KAFbX378Z2Veu16LqOch0n5uGQcnOARLbp3MeikDZgLEu1EVSt2ci08TEpY0gjJu3_etxjRG7nUbyT88XGIDmT4QfIW8txMY83g1CLSku_1nC6PBjEUSY4Ki18-jf43jF6IXOxGLhNxEXNyDQyynpD4wQRJF2POuPQl2QE9IEyYv9LUsTAEuff9hoChwx1GQ_T7mRsx1MSNj6FfMyoA6M_ErMBNxAhSyyOmLNvY2m6L8NFFQvpnfpJC_BYvmXBue9pz9RJHM_bJ629Zbj82fH1MxJQi7IuqtLtQXk7DmUExa3-o59nSZ51Rfvkfp_v8J7rLBOBNn5gTeKGkyrylmu4AOZALSpA8E4v8pXtRkXyLYdyjabYjMa5I7u5UsLoJRfpnC9lk4iPGozV00Fwi-owUv4T6elmSMOzGa_P5S-oadQ8zXHDPVukRxw1agGTgLtJZgmIvV1V2qVVJRvll5_mhVcL-thrwDSTt0LXbxh_8_hsxNgkhLr6FOtX6S_sgrNl1ewWdzUoFDbsLJqJbtj51uiJgggJ7abUVvOCldmo97EvHwDZ3A_-QlkzkzTwLeAQdHwwIOQVIN4AmYd-foxRLworhtUZ99YNBNQxSJIMdno7oNRQe4ioK5jOjCnRLIRcYctr-jWLShCIu5hHL6hIWQXzrU6FNUdh1Ev-pqjDFfTfj1s0k2oVl2cXpR8p9YbXgLFVm6]--></g></svg>