<?xml version="1.0" encoding="UTF-8" standalone="no"?><svg xmlns="http://www.w3.org/2000/svg" xmlns:xlink="http://www.w3.org/1999/xlink" contentScriptType="application/ecmascript" contentStyleType="text/css" height="320px" preserveAspectRatio="none" style="width:335px;height:320px;" version="1.1" viewBox="0 0 335 320" width="335px" zoomAndPan="magnify"><defs><filter height="300%" id="f90cp40y7q2nj" width="300%" x="-1" y="-1"><feGaussianBlur result="blurOut" stdDeviation="2.0"/><feColorMatrix in="blurOut" result="blurOut2" type="matrix" values="0 0 0 0 0 0 0 0 0 0 0 0 0 0 0 0 0 0 .4 0"/><feOffset dx="4.0" dy="4.0" in="blurOut2" result="blurOut3"/><feBlend in="SourceGraphic" in2="blurOut3" mode="normal"/></filter></defs><g><!--class com.hack23.cia.service.data.impl.util.SecretPGXADataSource--><a href="SecretPGXADataSource.html" target="_top" xlink:actuate="onRequest" xlink:show="new" xlink:title="SecretPGXADataSource.html" xlink:type="simple"><rect fill="#FEFECE" filter="url(#f90cp40y7q2nj)" height="84.3516" id="com.hack23.cia.service.data.impl.util.SecretPGXADataSource" style="stroke: #A80036; stroke-width: 1.5;" width="318" x="6" y="106"/><ellipse cx="72.75" cy="124.9688" fill="#ADD1B2" rx="11" ry="11" style="stroke: #A80036; stroke-width: 1.0;"/><path d="M75.7188,130.6094 Q75.1406,130.9063 74.5,131.0469 Q73.8594,131.2031 73.1563,131.2031 Q70.6563,131.2031 69.3281,129.5625 Q68.0156,127.9063 68.0156,124.7813 Q68.0156,121.6563 69.3281,120 Q70.6563,118.3438 73.1563,118.3438 Q73.8594,118.3438 74.5,118.5 Q75.1563,118.6563 75.7188,118.9531 L75.7188,121.6719 Q75.0938,121.0938 74.5,120.8281 Q73.9063,120.5469 73.2813,120.5469 Q71.9375,120.5469 71.25,121.625 Q70.5625,122.6875 70.5625,124.7813 Q70.5625,126.875 71.25,127.9531 Q71.9375,129.0156 73.2813,129.0156 Q73.9063,129.0156 74.5,128.75 Q75.0938,128.4688 75.7188,127.8906 L75.7188,130.6094 Z "/><text fill="#000000" font-family="sans-serif" font-size="14" lengthAdjust="spacingAndGlyphs" textLength="164" x="99.25" y="123.9951">SecretPGXADataSource</text><text fill="#000000" font-family="sans-serif" font-size="10" lengthAdjust="spacingAndGlyphs" textLength="176" x="93.25" y="136.5791">com.hack23.cia.service.data.impl.util</text><line style="stroke: #A80036; stroke-width: 1.5;" x1="7" x2="323" y1="143.9375" y2="143.9375"/><ellipse cx="17" cy="155.8398" fill="#84BE84" rx="3" ry="3" style="stroke: #038048; stroke-width: 1.0;"/><text fill="#000000" font-family="sans-serif" font-size="11" lengthAdjust="spacingAndGlyphs" textLength="292" x="26" y="158.1479">SecretPGXADataSource(SecretCredentialsManager)</text><ellipse cx="17" cy="168.6445" fill="#84BE84" rx="3" ry="3" style="stroke: #038048; stroke-width: 1.0;"/><text fill="#000000" font-family="sans-serif" font-size="11" lengthAdjust="spacingAndGlyphs" textLength="188" x="26" y="170.9526">getXAConnection(): XAConnection</text><polygon fill="#FFFF44" points="17,176.4492,21,180.4492,17,184.4492,13,180.4492" style="stroke: #B38D22; stroke-width: 1.0;"/><text fill="#000000" font-family="sans-serif" font-size="11" lengthAdjust="spacingAndGlyphs" textLength="166" x="26" y="183.7573">createReference(): Reference</text></a><!--class org.postgresql.xa.PGXADataSource--><rect fill="#FEFECE" filter="url(#f90cp40y7q2nj)" height="37.9375" id="org.postgresql.xa.PGXADataSource" style="stroke: #A80036; stroke-width: 1.5;" width="151" x="89.5" y="8"/><ellipse cx="104.5" cy="26.9688" fill="#ADD1B2" rx="11" ry="11" style="stroke: #A80036; stroke-width: 1.0;"/><path d="M107.4688,32.6094 Q106.8906,32.9063 106.25,33.0469 Q105.6094,33.2031 104.9063,33.2031 Q102.4063,33.2031 101.0781,31.5625 Q99.7656,29.9063 99.7656,26.7813 Q99.7656,23.6563 101.0781,22 Q102.4063,20.3438 104.9063,20.3438 Q105.6094,20.3438 106.25,20.5 Q106.9063,20.6563 107.4688,20.9531 L107.4688,23.6719 Q106.8438,23.0938 106.25,22.8281 Q105.6563,22.5469 105.0313,22.5469 Q103.6875,22.5469 103,23.625 Q102.3125,24.6875 102.3125,26.7813 Q102.3125,28.875 103,29.9531 Q103.6875,31.0156 105.0313,31.0156 Q105.6563,31.0156 106.25,30.75 Q106.8438,30.4688 107.4688,29.8906 L107.4688,32.6094 Z "/><text fill="#000000" font-family="sans-serif" font-size="14" lengthAdjust="spacingAndGlyphs" textLength="119" x="118.5" y="25.9951">PGXADataSource</text><text fill="#000000" font-family="sans-serif" font-size="10" lengthAdjust="spacingAndGlyphs" textLength="84" x="136" y="38.5791">org.postgresql.xa</text><!--class com.hack23.cia.service.data.impl.util.SecretPGXADataSource.SecretReference--><a href="SecretPGXADataSource.SecretReference.html" target="_top" xlink:actuate="onRequest" xlink:show="new" xlink:title="SecretPGXADataSource.SecretReference.html" xlink:type="simple"><rect fill="#FEFECE" filter="url(#f90cp40y7q2nj)" height="37.9375" id="com.hack23.cia.service.data.impl.util.SecretPGXADataSource.SecretReference" style="stroke: #A80036; stroke-width: 1.5;" width="317" x="6.5" y="250"/><ellipse cx="21.5" cy="268.9688" fill="#ADD1B2" rx="11" ry="11" style="stroke: #A80036; stroke-width: 1.0;"/><path d="M24.4688,274.6094 Q23.8906,274.9063 23.25,275.0469 Q22.6094,275.2031 21.9063,275.2031 Q19.4063,275.2031 18.0781,273.5625 Q16.7656,271.9063 16.7656,268.7813 Q16.7656,265.6563 18.0781,264 Q19.4063,262.3438 21.9063,262.3438 Q22.6094,262.3438 23.25,262.5 Q23.9063,262.6563 24.4688,262.9531 L24.4688,265.6719 Q23.8438,265.0938 23.25,264.8281 Q22.6563,264.5469 22.0313,264.5469 Q20.6875,264.5469 20,265.625 Q19.3125,266.6875 19.3125,268.7813 Q19.3125,270.875 20,271.9531 Q20.6875,273.0156 22.0313,273.0156 Q22.6563,273.0156 23.25,272.75 Q23.8438,272.4688 24.4688,271.8906 L24.4688,274.6094 Z "/><text fill="#000000" font-family="sans-serif" font-size="14" lengthAdjust="spacingAndGlyphs" textLength="285" x="35.5" y="267.9951">SecretPGXADataSource.SecretReference</text><text fill="#000000" font-family="sans-serif" font-size="10" lengthAdjust="spacingAndGlyphs" textLength="176" x="90" y="280.5791">com.hack23.cia.service.data.impl.util</text></a><!--link org.postgresql.xa.PGXADataSource to com.hack23.cia.service.data.impl.util.SecretPGXADataSource--><path d="M165,66.259 C165,78.9194 165,93.0012 165,105.8605 " fill="none" id="org.postgresql.xa.PGXADataSource-com.hack23.cia.service.data.impl.util.SecretPGXADataSource" style="stroke: #A80036; stroke-width: 1.0;"/><polygon fill="none" points="158.0001,66.1728,165,46.1728,172.0001,66.1728,158.0001,66.1728" style="stroke: #A80036; stroke-width: 1.0;"/><!--link com.hack23.cia.service.data.impl.util.SecretPGXADataSource to com.hack23.cia.service.data.impl.util.SecretPGXADataSource.SecretReference--><path d="M165,205.4581 C165,221.4926 165,237.8128 165,249.8981 " fill="none" id="com.hack23.cia.service.data.impl.util.SecretPGXADataSource-com.hack23.cia.service.data.impl.util.SecretPGXADataSource.SecretReference" style="stroke: #A80036; stroke-width: 1.0;"/><ellipse cx="165.0001" cy="198.3199" fill="#FFFFFF" rx="8" ry="8" style="stroke: #A80036; stroke-width: 1.0;"/><line style="stroke: #A80036; stroke-width: 1.0;" x1="165.0002" x2="165" y1="206.3199" y2="190.3199"/><line style="stroke: #A80036; stroke-width: 1.0;" x1="157.0001" x2="173.0001" y1="198.32" y2="198.3198"/><text fill="#888888" font-family="sans-serif" font-size="10" lengthAdjust="spacingAndGlyphs" textLength="186" x="78" y="307.2822">UMLDoclet 2.0.5, PlantUML 1.2019.08</text><!--
@startuml
    set namespaceSeparator none
    hide empty fields
    hide empty methods

    class "<size:14>SecretPGXADataSource\n<size:10>com.hack23.cia.service.data.impl.util" as com.hack23.cia.service.data.impl.util.SecretPGXADataSource [[SecretPGXADataSource.html]] {
        +SecretPGXADataSource(SecretCredentialsManager)
        +getXAConnection(): XAConnection
        #createReference(): Reference
    }

    class "<size:14>PGXADataSource\n<size:10>org.postgresql.xa" as org.postgresql.xa.PGXADataSource
    class "<size:14>SecretPGXADataSource.SecretReference\n<size:10>com.hack23.cia.service.data.impl.util" as com.hack23.cia.service.data.impl.util.SecretPGXADataSource.SecretReference [[SecretPGXADataSource.SecretReference.html]]

    org.postgresql.xa.PGXADataSource <|- - com.hack23.cia.service.data.impl.util.SecretPGXADataSource
    com.hack23.cia.service.data.impl.util.SecretPGXADataSource +- - com.hack23.cia.service.data.impl.util.SecretPGXADataSource.SecretReference

    center footer UMLDoclet 2.0.5, PlantUML 1.2019.08
@enduml

PlantUML version 1.2019.08(Sat Jul 13 21:25:14 CEST 2019)
(APACHE source distribution)
Java Runtime: OpenJDK Runtime Environment
JVM: OpenJDK 64-Bit Server VM
Java Version: 11.0.4+11-post-Ubuntu-1ubuntu219.04
Operating System: Linux
OS Version: 5.0.0-27-generic
Default Encoding: UTF-8
Language: en
Country: US
--></g></svg>