<?xml version="1.0" encoding="UTF-8" standalone="no"?><svg xmlns="http://www.w3.org/2000/svg" xmlns:xlink="http://www.w3.org/1999/xlink" contentStyleType="text/css" height="105px" preserveAspectRatio="none" style="width:432px;height:105px;background:#FFFFFF;" version="1.1" viewBox="0 0 432 105" width="432px" zoomAndPan="magnify"><defs/><g><!--MD5=[7b70b02020a52aa6f7c7a62407045fa2]
class com.hack23.cia.web.impl.ui.application.views.common.labelfactory.LabelFactory--><a href="LabelFactory.html" target="_top" title="LabelFactory.html" xlink:actuate="onRequest" xlink:href="LabelFactory.html" xlink:show="new" xlink:title="LabelFactory.html" xlink:type="simple"><g id="elem_com.hack23.cia.web.impl.ui.application.views.common.labelfactory.LabelFactory"><rect codeLine="5" fill="#F1F1F1" height="69.7558" id="com.hack23.cia.web.impl.ui.application.views.common.labelfactory.LabelFactory" rx="2.5" ry="2.5" style="stroke:#181818;stroke-width:0.5;" width="411" x="7" y="7"/><ellipse cx="46.75" cy="28.344" fill="#ADD1B2" rx="11" ry="11" style="stroke:#181818;stroke-width:1.0;"/><path d="M49.7188,33.9846 Q49.1406,34.2815 48.5,34.4221 Q47.8594,34.5783 47.1563,34.5783 Q44.6563,34.5783 43.3281,32.9377 Q42.0156,31.2815 42.0156,28.1565 Q42.0156,25.0315 43.3281,23.3752 Q44.6563,21.719 47.1563,21.719 Q47.8594,21.719 48.5,21.8752 Q49.1563,22.0315 49.7188,22.3283 L49.7188,25.0471 Q49.0938,24.469 48.5,24.2033 Q47.9063,23.9221 47.2813,23.9221 Q45.9375,23.9221 45.25,25.0002 Q44.5625,26.0627 44.5625,28.1565 Q44.5625,30.2502 45.25,31.3283 Q45.9375,32.3908 47.2813,32.3908 Q47.9063,32.3908 48.5,32.1252 Q49.0938,31.844 49.7188,31.2658 L49.7188,33.9846 Z " fill="#000000"/><text fill="#000000" font-family="sans-serif" font-size="14" lengthAdjust="spacing" textLength="84" x="186.25" y="26.9659">LabelFactory</text><text fill="#000000" font-family="sans-serif" font-size="10" lengthAdjust="spacing" textLength="324" x="66.25" y="41.7579">com.hack23.cia.web.impl.ui.application.views.common.labelfactory</text><line style="stroke:#181818;stroke-width:0.5;" x1="8" x2="417" y1="49.6879" y2="49.6879"/><ellipse cx="18" cy="64.7219" fill="#84BE84" rx="3" ry="3" style="stroke:#038048;stroke-width:1.0;"/><text fill="#000000" font-family="sans-serif" font-size="14" lengthAdjust="spacing" text-decoration="underline" textLength="385" x="27" y="68.6538">createHeader2Label(AbstractOrderedLayout, String): void</text></g></a><rect fill="none" height="13.62" style="stroke:none;stroke-width:1.0;" width="188" x="118" y="83.7558"/><text fill="#888888" font-family="sans-serif" font-size="10" lengthAdjust="spacing" textLength="188" x="118" y="94.4458">UMLDoclet 2.0.20, PlantUML 1.2022.12</text><!--MD5=[a9624edeba4b7bf8f78f44adb088715e]
@startuml
    set namespaceSeparator none
    hide empty fields
    hide empty methods

    class "<size:14>LabelFactory\n<size:10>com.hack23.cia.web.impl.ui.application.views.common.labelfactory" as com.hack23.cia.web.impl.ui.application.views.common.labelfactory.LabelFactory [[LabelFactory.html]] {
        {static} +createHeader2Label(AbstractOrderedLayout, String): void
    }

    center footer UMLDoclet 2.0.20, PlantUML 1.2022.12
@enduml

PlantUML version 1.2022.12(Sun Oct 23 20:12:26 CEST 2022)
(APACHE source distribution)
Java Runtime: OpenJDK Runtime Environment
JVM: OpenJDK 64-Bit Server VM
Default Encoding: UTF-8
Language: 
Country: 
--></g></svg>