<?xml version="1.0" encoding="UTF-8" standalone="no"?><svg xmlns="http://www.w3.org/2000/svg" xmlns:xlink="http://www.w3.org/1999/xlink" contentScriptType="application/ecmascript" contentStyleType="text/css" height="528px" preserveAspectRatio="none" style="width:911px;height:528px;" version="1.1" viewBox="0 0 911 528" width="911px" zoomAndPan="magnify"><defs><filter height="300%" id="f15et87ncaddfs" width="300%" x="-1" y="-1"><feGaussianBlur result="blurOut" stdDeviation="2.0"/><feColorMatrix in="blurOut" result="blurOut2" type="matrix" values="0 0 0 0 0 0 0 0 0 0 0 0 0 0 0 0 0 0 .4 0"/><feOffset dx="4.0" dy="4.0" in="blurOut2" result="blurOut3"/><feBlend in="SourceGraphic" in2="blurOut3" mode="normal"/></filter></defs><g><!--cluster com.hack23.cia.web.impl.ui.application.views.user.common--><polygon fill="#FFFFFF" filter="url(#f15et87ncaddfs)" points="14,150,491,150,498,172.2969,889,172.2969,889,488,14,488,14,150" style="stroke: #000000; stroke-width: 1.5;"/><line style="stroke: #000000; stroke-width: 1.5;" x1="14" x2="498" y1="172.2969" y2="172.2969"/><text fill="#000000" font-family="sans-serif" font-size="14" font-weight="bold" lengthAdjust="spacingAndGlyphs" textLength="471" x="18" y="164.9951">com.hack23.cia.web.impl.ui.application.views.user.common</text><!--cluster com.hack23.cia.web.impl.ui.application.views.common--><polygon fill="#FFFFFF" filter="url(#f15et87ncaddfs)" points="242,16,678,16,685,38.2969,688,38.2969,688,125,242,125,242,16" style="stroke: #000000; stroke-width: 1.5;"/><line style="stroke: #000000; stroke-width: 1.5;" x1="242" x2="685" y1="38.2969" y2="38.2969"/><text fill="#000000" font-family="sans-serif" font-size="14" font-weight="bold" lengthAdjust="spacingAndGlyphs" textLength="430" x="246" y="30.9951">com.hack23.cia.web.impl.ui.application.views.common</text><!--class com.hack23.cia.web.impl.ui.application.views.user.common.AbstractActorView--><a href="AbstractActorView.html" target="_top" xlink:actuate="onRequest" xlink:show="new" xlink:title="AbstractActorView.html" xlink:type="simple"><rect fill="#FEFECE" filter="url(#f15et87ncaddfs)" height="60.8047" id="com.hack23.cia.web.impl.ui.application.views.user.common.AbstractActorView" style="stroke: #A80036; stroke-width: 1.5;" width="404" x="23" y="298"/><ellipse cx="163.75" cy="314" fill="#A9DCDF" rx="11" ry="11" style="stroke: #A80036; stroke-width: 1.0;"/><path d="M163.8594,309.3438 L162.7031,314.4219 L165.0313,314.4219 L163.8594,309.3438 Z M162.375,307.1094 L165.3594,307.1094 L168.7188,319.5 L166.2656,319.5 L165.5,316.4375 L162.2188,316.4375 L161.4688,319.5 L159.0313,319.5 L162.375,307.1094 Z "/><text fill="#000000" font-family="sans-serif" font-size="12" font-style="italic" lengthAdjust="spacingAndGlyphs" textLength="114" x="184.25" y="318.1543">AbstractActorView</text><line style="stroke: #A80036; stroke-width: 1.5;" x1="24" x2="426" y1="330" y2="330"/><line style="stroke: #A80036; stroke-width: 1.5;" x1="24" x2="426" y1="338" y2="338"/><ellipse cx="34" cy="349.9023" fill="#84BE84" rx="3" ry="3" style="stroke: #038048; stroke-width: 1.0;"/><text fill="#000000" font-family="sans-serif" font-size="11" lengthAdjust="spacingAndGlyphs" textLength="378" x="43" y="352.2104">AbstractActorView(Map&lt;String, PageModeContentFactory&gt;, String)</text></a><!--class com.hack23.cia.web.impl.ui.application.views.user.common.AbstractRankingView--><a href="AbstractRankingView.html" target="_top" xlink:actuate="onRequest" xlink:show="new" xlink:title="AbstractRankingView.html" xlink:type="simple"><rect fill="#FEFECE" filter="url(#f15et87ncaddfs)" height="60.8047" id="com.hack23.cia.web.impl.ui.application.views.user.common.AbstractRankingView" style="stroke: #A80036; stroke-width: 1.5;" width="419" x="462.5" y="298"/><ellipse cx="602.25" cy="314" fill="#A9DCDF" rx="11" ry="11" style="stroke: #A80036; stroke-width: 1.0;"/><path d="M602.3594,309.3438 L601.2031,314.4219 L603.5313,314.4219 L602.3594,309.3438 Z M600.875,307.1094 L603.8594,307.1094 L607.2188,319.5 L604.7656,319.5 L604,316.4375 L600.7188,316.4375 L599.9688,319.5 L597.5313,319.5 L600.875,307.1094 Z "/><text fill="#000000" font-family="sans-serif" font-size="12" font-style="italic" lengthAdjust="spacingAndGlyphs" textLength="131" x="622.75" y="318.1543">AbstractRankingView</text><line style="stroke: #A80036; stroke-width: 1.5;" x1="463.5" x2="880.5" y1="330" y2="330"/><line style="stroke: #A80036; stroke-width: 1.5;" x1="463.5" x2="880.5" y1="338" y2="338"/><polygon fill="#FFFF44" points="473.5,344.9023,477.5,348.9023,473.5,352.9023,469.5,348.9023" style="stroke: #B38D22; stroke-width: 1.0;"/><text fill="#000000" font-family="sans-serif" font-size="11" lengthAdjust="spacingAndGlyphs" textLength="393" x="482.5" y="352.2104">AbstractRankingView(Map&lt;String, PageModeContentFactory&gt;, String)</text></a><!--class com.hack23.cia.web.impl.ui.application.views.user.common.AbstractPersonView--><a href="AbstractPersonView.html" target="_top" xlink:actuate="onRequest" xlink:show="new" xlink:title="AbstractPersonView.html" xlink:type="simple"><rect fill="#FEFECE" filter="url(#f15et87ncaddfs)" height="60.8047" id="com.hack23.cia.web.impl.ui.application.views.user.common.AbstractPersonView" style="stroke: #A80036; stroke-width: 1.5;" width="415" x="21.5" y="419"/><ellipse cx="163.25" cy="435" fill="#A9DCDF" rx="11" ry="11" style="stroke: #A80036; stroke-width: 1.0;"/><path d="M163.3594,430.3438 L162.2031,435.4219 L164.5313,435.4219 L163.3594,430.3438 Z M161.875,428.1094 L164.8594,428.1094 L168.2188,440.5 L165.7656,440.5 L165,437.4375 L161.7188,437.4375 L160.9688,440.5 L158.5313,440.5 L161.875,428.1094 Z "/><text fill="#000000" font-family="sans-serif" font-size="12" font-style="italic" lengthAdjust="spacingAndGlyphs" textLength="123" x="183.75" y="439.1543">AbstractPersonView</text><line style="stroke: #A80036; stroke-width: 1.5;" x1="22.5" x2="435.5" y1="451" y2="451"/><line style="stroke: #A80036; stroke-width: 1.5;" x1="22.5" x2="435.5" y1="459" y2="459"/><ellipse cx="32.5" cy="470.9023" fill="#84BE84" rx="3" ry="3" style="stroke: #038048; stroke-width: 1.0;"/><text fill="#000000" font-family="sans-serif" font-size="11" lengthAdjust="spacingAndGlyphs" textLength="389" x="41.5" y="473.2104">AbstractPersonView(Map&lt;String, PageModeContentFactory&gt;, String)</text></a><!--class com.hack23.cia.web.impl.ui.application.views.user.common.AbstractGroupView--><a href="AbstractGroupView.html" target="_top" xlink:actuate="onRequest" xlink:show="new" xlink:title="AbstractGroupView.html" xlink:type="simple"><rect fill="#FEFECE" filter="url(#f15et87ncaddfs)" height="60.8047" id="com.hack23.cia.web.impl.ui.application.views.user.common.AbstractGroupView" style="stroke: #A80036; stroke-width: 1.5;" width="410" x="471" y="419"/><ellipse cx="612.25" cy="435" fill="#A9DCDF" rx="11" ry="11" style="stroke: #A80036; stroke-width: 1.0;"/><path d="M612.3594,430.3438 L611.2031,435.4219 L613.5313,435.4219 L612.3594,430.3438 Z M610.875,428.1094 L613.8594,428.1094 L617.2188,440.5 L614.7656,440.5 L614,437.4375 L610.7188,437.4375 L609.9688,440.5 L607.5313,440.5 L610.875,428.1094 Z "/><text fill="#000000" font-family="sans-serif" font-size="12" font-style="italic" lengthAdjust="spacingAndGlyphs" textLength="119" x="632.75" y="439.1543">AbstractGroupView</text><line style="stroke: #A80036; stroke-width: 1.5;" x1="472" x2="880" y1="451" y2="451"/><line style="stroke: #A80036; stroke-width: 1.5;" x1="472" x2="880" y1="459" y2="459"/><ellipse cx="482" cy="470.9023" fill="#84BE84" rx="3" ry="3" style="stroke: #038048; stroke-width: 1.0;"/><text fill="#000000" font-family="sans-serif" font-size="11" lengthAdjust="spacingAndGlyphs" textLength="384" x="491" y="473.2104">AbstractGroupView(Map&lt;String, PageModeContentFactory&gt;, String)</text></a><!--class com.hack23.cia.web.impl.ui.application.views.user.common.AbstractUserView--><a href="AbstractUserView.html" target="_top" xlink:actuate="onRequest" xlink:show="new" xlink:title="AbstractUserView.html" xlink:type="simple"><rect fill="#FEFECE" filter="url(#f15et87ncaddfs)" height="60.8047" id="com.hack23.cia.web.impl.ui.application.views.user.common.AbstractUserView" style="stroke: #A80036; stroke-width: 1.5;" width="402" x="224" y="177"/><ellipse cx="366.25" cy="193" fill="#A9DCDF" rx="11" ry="11" style="stroke: #A80036; stroke-width: 1.0;"/><path d="M366.3594,188.3438 L365.2031,193.4219 L367.5313,193.4219 L366.3594,188.3438 Z M364.875,186.1094 L367.8594,186.1094 L371.2188,198.5 L368.7656,198.5 L368,195.4375 L364.7188,195.4375 L363.9688,198.5 L361.5313,198.5 L364.875,186.1094 Z "/><text fill="#000000" font-family="sans-serif" font-size="12" font-style="italic" lengthAdjust="spacingAndGlyphs" textLength="109" x="386.75" y="197.1543">AbstractUserView</text><line style="stroke: #A80036; stroke-width: 1.5;" x1="225" x2="625" y1="209" y2="209"/><line style="stroke: #A80036; stroke-width: 1.5;" x1="225" x2="625" y1="217" y2="217"/><polygon fill="#FFFF44" points="235,223.9023,239,227.9023,235,231.9023,231,227.9023" style="stroke: #B38D22; stroke-width: 1.0;"/><text fill="#000000" font-family="sans-serif" font-size="11" lengthAdjust="spacingAndGlyphs" textLength="376" x="244" y="231.2104">AbstractUserView(Map&lt;String, PageModeContentFactory&gt;, String)</text></a><!--class com.hack23.cia.web.impl.ui.application.views.common.AbstractView--><a href="../../common/AbstractView.html" target="_top" xlink:actuate="onRequest" xlink:show="new" xlink:title="../../common/AbstractView.html" xlink:type="simple"><rect fill="#FEFECE" filter="url(#f15et87ncaddfs)" height="73.6094" id="com.hack23.cia.web.impl.ui.application.views.common.AbstractView" style="stroke: #A80036; stroke-width: 1.5;" width="294" x="278" y="43"/><ellipse cx="380.25" cy="59" fill="#A9DCDF" rx="11" ry="11" style="stroke: #A80036; stroke-width: 1.0;"/><path d="M380.3594,54.3438 L379.2031,59.4219 L381.5313,59.4219 L380.3594,54.3438 Z M378.875,52.1094 L381.8594,52.1094 L385.2188,64.5 L382.7656,64.5 L382,61.4375 L378.7188,61.4375 L377.9688,64.5 L375.5313,64.5 L378.875,52.1094 Z "/><text fill="#000000" font-family="sans-serif" font-size="12" font-style="italic" lengthAdjust="spacingAndGlyphs" textLength="81" x="400.75" y="63.1543">AbstractView</text><line style="stroke: #A80036; stroke-width: 1.5;" x1="279" x2="571" y1="75" y2="75"/><polygon fill="none" points="289,81.9023,293,85.9023,289,89.9023,285,85.9023" style="stroke: #B38D22; stroke-width: 1.0;"/><text fill="#000000" font-family="sans-serif" font-size="11" lengthAdjust="spacingAndGlyphs" textLength="268" x="298" y="89.2104">pageActionEventHelper: PageActionEventHelper</text><polygon fill="none" points="289,94.707,293,98.707,289,102.707,285,98.707" style="stroke: #B38D22; stroke-width: 1.0;"/><text fill="#000000" font-family="sans-serif" font-size="11" lengthAdjust="spacingAndGlyphs" textLength="190" x="298" y="102.0151">pageLinkFactory: PageLinkFactory</text><line style="stroke: #A80036; stroke-width: 1.5;" x1="279" x2="571" y1="108.6094" y2="108.6094"/></a><!--link com.hack23.cia.web.impl.ui.application.views.user.common.AbstractUserView to com.hack23.cia.web.impl.ui.application.views.user.common.AbstractActorView--><path d="M357.1115,248.5725 C330.3705,264.7508 300.2021,283.0027 275.4523,297.9764 " fill="none" id="com.hack23.cia.web.impl.ui.application.views.user.common.AbstractUserView-com.hack23.cia.web.impl.ui.application.views.user.common.AbstractActorView" style="stroke: #A80036; stroke-width: 1.0;"/><polygon fill="none" points="353.7961,242.397,374.5316,238.0334,361.043,254.3754,353.7961,242.397" style="stroke: #A80036; stroke-width: 1.0;"/><!--link com.hack23.cia.web.impl.ui.application.views.user.common.AbstractUserView to com.hack23.cia.web.impl.ui.application.views.user.common.AbstractRankingView--><path d="M505.5386,246.9541 C539.3642,263.5246 578.1016,282.5012 609.6914,297.9764 " fill="none" id="com.hack23.cia.web.impl.ui.application.views.user.common.AbstractUserView-com.hack23.cia.web.impl.ui.application.views.user.common.AbstractRankingView" style="stroke: #A80036; stroke-width: 1.0;"/><polygon fill="none" points="502.2097,253.1182,487.3285,238.0334,508.3687,240.5458,502.2097,253.1182" style="stroke: #A80036; stroke-width: 1.0;"/><!--link com.hack23.cia.web.impl.ui.application.views.user.common.AbstractActorView to com.hack23.cia.web.impl.ui.application.views.user.common.AbstractPersonView--><path d="M226.6791,379.2927 C227.1251,392.7857 227.5931,406.9401 227.991,418.9764 " fill="none" id="com.hack23.cia.web.impl.ui.application.views.user.common.AbstractActorView-com.hack23.cia.web.impl.ui.application.views.user.common.AbstractPersonView" style="stroke: #A80036; stroke-width: 1.0;"/><polygon fill="none" points="219.6741,379.2538,226.0094,359.0334,233.6664,378.7912,219.6741,379.2538" style="stroke: #A80036; stroke-width: 1.0;"/><!--link com.hack23.cia.web.impl.ui.application.views.user.common.AbstractActorView to com.hack23.cia.web.impl.ui.application.views.user.common.AbstractGroupView--><path d="M358.4879,364.3138 C423.2685,381.694 500.2773,402.3549 562.2301,418.9764 " fill="none" id="com.hack23.cia.web.impl.ui.application.views.user.common.AbstractActorView-com.hack23.cia.web.impl.ui.application.views.user.common.AbstractGroupView" style="stroke: #A80036; stroke-width: 1.0;"/><polygon fill="none" points="356.3093,370.977,338.8063,359.0334,359.9371,357.4552,356.3093,370.977" style="stroke: #A80036; stroke-width: 1.0;"/><!--link com.hack23.cia.web.impl.ui.application.views.common.AbstractView to com.hack23.cia.web.impl.ui.application.views.user.common.AbstractUserView--><path d="M425,137.2952 C425,150.9403 425,164.9839 425,176.8909 " fill="none" id="com.hack23.cia.web.impl.ui.application.views.common.AbstractView-com.hack23.cia.web.impl.ui.application.views.user.common.AbstractUserView" style="stroke: #A80036; stroke-width: 1.0;"/><polygon fill="none" points="418.0001,137.2211,425,117.221,432.0001,137.221,418.0001,137.2211" style="stroke: #A80036; stroke-width: 1.0;"/><text fill="#888888" font-family="sans-serif" font-size="10" lengthAdjust="spacingAndGlyphs" textLength="186" x="364.5" y="515.2822">UMLDoclet 2.0.4, PlantUML 1.2019.06</text><!--
@startuml
    namespace com.hack23.cia.web.impl.ui.application.views.user.common {

        abstract class AbstractActorView [[AbstractActorView.html]] {
            +AbstractActorView(Map<String, PageModeContentFactory>, String)
        }

        abstract class AbstractRankingView [[AbstractRankingView.html]] {
            #AbstractRankingView(Map<String, PageModeContentFactory>, String)
        }

        abstract class AbstractPersonView [[AbstractPersonView.html]] {
            +AbstractPersonView(Map<String, PageModeContentFactory>, String)
        }

        abstract class AbstractGroupView [[AbstractGroupView.html]] {
            +AbstractGroupView(Map<String, PageModeContentFactory>, String)
        }

        abstract class AbstractUserView [[AbstractUserView.html]] {
            #AbstractUserView(Map<String, PageModeContentFactory>, String)
        }

        AbstractUserView <|- - AbstractActorView
        AbstractUserView <|- - AbstractRankingView
        AbstractActorView <|- - AbstractPersonView
        AbstractActorView <|- - AbstractGroupView
        com.hack23.cia.web.impl.ui.application.views.common.AbstractView <|- - AbstractUserView
    }

    namespace com.hack23.cia.web.impl.ui.application.views.common {
        abstract class AbstractView [[../../common/AbstractView.html]] {
            #pageActionEventHelper: PageActionEventHelper
            #pageLinkFactory: PageLinkFactory
        }
    }

    center footer UMLDoclet 2.0.4, PlantUML 1.2019.06
@enduml

PlantUML version 1.2019.06(Fri May 24 19:10:25 CEST 2019)
(APACHE source distribution)
Java Runtime: OpenJDK Runtime Environment
JVM: OpenJDK 64-Bit Server VM
Java Version: 11.0.3+7-Ubuntu-1ubuntu219.04.1
Operating System: Linux
OS Version: 5.0.0-20-generic
Default Encoding: UTF-8
Language: en
Country: US
--></g></svg>