<svg xmlns="http://www.w3.org/2000/svg" xmlns:xlink="http://www.w3.org/1999/xlink" contentStyleType="text/css" height="217px" preserveAspectRatio="none" style="width:607px;height:217px;background:#FFFFFF;" version="1.1" viewBox="0 0 607 217" width="607px" zoomAndPan="magnify"><defs/><g><!--class com.hack23.cia.web.impl.ui.application.views.common.chartfactory.impl.ViewRiksdagenVoteDataBallotPartySummaryChartDataManagerImpl--><a href="ViewRiksdagenVoteDataBallotPartySummaryChartDataManagerImpl.html" target="_top" title="ViewRiksdagenVoteDataBallotPartySummaryChartDataManagerImpl.html" xlink:actuate="onRequest" xlink:href="ViewRiksdagenVoteDataBallotPartySummaryChartDataManagerImpl.html" xlink:show="new" xlink:title="ViewRiksdagenVoteDataBallotPartySummaryChartDataManagerImpl.html" xlink:type="simple"><g id="elem_com.hack23.cia.web.impl.ui.application.views.common.chartfactory.impl.ViewRiksdagenVoteDataBallotPartySummaryChartDataManagerImpl"><rect codeLine="13" fill="#F1F1F1" height="69.7558" id="com.hack23.cia.web.impl.ui.application.views.common.chartfactory.impl.ViewRiksdagenVoteDataBallotPartySummaryChartDataManagerImpl" rx="2.5" ry="2.5" style="stroke:#181818;stroke-width:0.5;" width="493.3883" x="55" y="118"/><ellipse cx="74.356" cy="139.344" fill="#ADD1B2" rx="11" ry="11" style="stroke:#181818;stroke-width:1.0;"/><path d="M77.3247,144.9846 Q76.7466,145.2815 76.106,145.4221 Q75.4653,145.5783 74.7622,145.5783 Q72.2622,145.5783 70.9341,143.9377 Q69.6216,142.2815 69.6216,139.1565 Q69.6216,136.0315 70.9341,134.3752 Q72.2622,132.719 74.7622,132.719 Q75.4653,132.719 76.106,132.8752 Q76.7622,133.0315 77.3247,133.3283 L77.3247,136.0471 Q76.6997,135.469 76.106,135.2033 Q75.5122,134.9221 74.8872,134.9221 Q73.5435,134.9221 72.856,136.0002 Q72.1685,137.0627 72.1685,139.1565 Q72.1685,141.2502 72.856,142.3283 Q73.5435,143.3908 74.8872,143.3908 Q75.5122,143.3908 76.106,143.1252 Q76.6997,142.844 77.3247,142.2658 L77.3247,144.9846 Z " fill="#000000"/><text fill="#000000" font-family="sans-serif" font-size="14" lengthAdjust="spacing" textLength="451.7084" x="89.3239" y="137.9659">ViewRiksdagenVoteDataBallotPartySummaryChartDataManagerImpl</text><text fill="#000000" font-family="sans-serif" font-size="10" lengthAdjust="spacing" textLength="339.7897" x="145.2833" y="152.7579">com.hack23.cia.web.impl.ui.application.views.common.chartfactory.impl</text><line style="stroke:#181818;stroke-width:0.5;" x1="56" x2="547.3883" y1="160.6879" y2="160.6879"/><ellipse cx="66" cy="175.7219" fill="#84BE84" rx="3" ry="3" style="stroke:#038048;stroke-width:1.0;"/><text fill="#000000" font-family="sans-serif" font-size="14" lengthAdjust="spacing" textLength="467.3883" x="75" y="179.6538">findByValue(String): List&lt;ViewRiksdagenVoteDataBallotPartySummary&gt;</text></g></a><!--class com.hack23.cia.web.impl.ui.application.views.common.chartfactory.api.GenericChartDataManager--><a href="../api/GenericChartDataManager.html" target="_top" title="../api/GenericChartDataManager.html" xlink:actuate="onRequest" xlink:href="../api/GenericChartDataManager.html" xlink:show="new" xlink:title="../api/GenericChartDataManager.html" xlink:type="simple"><g id="elem_com.hack23.cia.web.impl.ui.application.views.common.chartfactory.api.GenericChartDataManager"><rect codeLine="17" fill="#F1F1F1" height="69.7558" id="com.hack23.cia.web.impl.ui.application.views.common.chartfactory.api.GenericChartDataManager" rx="2.5" ry="2.5" style="stroke:#181818;stroke-width:0.5;" width="590.7473" x="6" y="12"/><ellipse cx="21" cy="33.344" fill="#B4A7E5" rx="11" ry="11" style="stroke:#181818;stroke-width:1.0;"/><path d="M16.9219,29.1096 L16.9219,26.9533 L24.3125,26.9533 L24.3125,29.1096 L21.8438,29.1096 L21.8438,37.1877 L24.3125,37.1877 L24.3125,39.344 L16.9219,39.344 L16.9219,37.1877 L19.3906,37.1877 L19.3906,29.1096 L16.9219,29.1096 Z " fill="#000000"/><text fill="#000000" font-family="sans-serif" font-size="14" font-style="italic" lengthAdjust="spacing" textLength="167.9294" x="109.2901" y="31.9659">GenericChartDataManager</text><text fill="#000000" font-family="sans-serif" font-size="10" font-style="italic" lengthAdjust="spacing" textLength="316.5096" x="35" y="46.7579">com.hack23.cia.web.impl.ui.application.views.common.chartfactory.api</text><rect fill="#FFFFFF" height="18.3441" style="stroke:#181818;stroke-width:1.0;stroke-dasharray:2.0,2.0;" width="240.2377" x="359.5096" y="9"/><text fill="#000000" font-family="sans-serif" font-size="12" font-style="italic" lengthAdjust="spacing" textLength="238.2377" x="360.5096" y="22.8281">ViewRiksdagenVoteDataBallotPartySummary</text><line style="stroke:#181818;stroke-width:0.5;" x1="7" x2="595.7473" y1="54.6879" y2="54.6879"/><ellipse cx="17" cy="69.7219" fill="#84BE84" rx="3" ry="3" style="stroke:#038048;stroke-width:1.0;"/><text fill="#000000" font-family="sans-serif" font-size="14" font-style="italic" lengthAdjust="spacing" textLength="170.0853" x="26" y="73.6538">findByValue(String): List&lt;T&gt;</text></g></a><polygon fill="none" points="301.5,82.0535,295.5,100.0535,307.5,100.0535,301.5,82.0535" style="stroke:#181818;stroke-width:1.0;"/><path d="M301.5,100.0535 C301.5,111.546 301.5,106.3716 301.5,117.87 " fill="none" style="stroke:#181818;stroke-width:1.0;stroke-dasharray:7.0,7.0;"/><text fill="#888888" font-family="sans-serif" font-size="10" lengthAdjust="spacing" textLength="2.6" x="296.7" y="192.69">&#160;</text><a href="https://github.com/talsma-ict/umldoclet" target="_top" title="https://github.com/talsma-ict/umldoclet" xlink:actuate="onRequest" xlink:href="https://github.com/talsma-ict/umldoclet" xlink:show="new" xlink:title="https://github.com/talsma-ict/umldoclet" xlink:type="simple"><text fill="#888888" font-family="sans-serif" font-size="10" lengthAdjust="spacing" textLength="76.7199" x="259.64" y="206.31">UMLDoclet 2.2.1</text></a><!--SRC=[nLLHJzim47xVhxYnXu6WJXgWqAgg16LYJ4L2jF1I-d1rtCIgOsUs0yeO_tsNjEiA6nCIJCjBPD_vk- -xSxu007o4libBAvFKWpVWK-dWwdm0g6D8X1OMlOX1PfW81rEXZ4xS8b405Zur5ioiNd5ZhN2vqR7K2Np1MmHd2ik5O-_UGLrgz1Fz3jqQ-hIiDayCLyB3PdzhZL8KDbkDA8psO8JAPGXd_H5Relqw4x68DO6mbUH2Eu8iT2niJUieHqwlmIAo0xV2EcaqdGcNE9LKRhH7gHtaQBsh95qerBxYscHLVNO0cqV3mMDkORlcjWD7LcCHmwNvMgpaliyj9iHOOMaA3ouJ7ZKkOev8QyoeNSZ5K51HzDH9RRIeuwcC1OWizoNCf52nUxfBOAcXxNgVAtGEDhfEVXETvbxlMegxIpbtCGrDNnilJj3ZCIfb_0N9AuT5bg4j-oajgj0vyKg4FSjoTQENA66FcuoboEVHBkCIsPsOCaaPh90CyvmwZPxwo6wfc6EKdD62Lv0pv2IchBCtW2Rz9aZi5QfWF7x5QPRwJ4qcS5ytktgsPrB7n-Krga9i3hsb2x_LeIlcVFU5TNerriDYVb9xOKchM9lXQVLrIFwKprlE1tFvDkCX8FOCtnVtWqR4M418mJD8lq_X7gVEM-BmyBU1Z1wr-bzgXUvtnlx_PLy8xJfVAj5RDMjc2CIkTQzwFfUvi0EfvtsZo7u-7FuvUbMPgP9Qa7_pkHPaDk4gys5HBbYhjwnreyVZrFlSTO8WaJujffNUmDT6tf3S1qMcueM3F_7ooMJfpQUhdqHbj8rcr8WEHytzpdwhixlFseTXgzqw2DlRORCJXkDFXJMv28RUy7bgL3Rv0G00]--></g></svg>