<?xml version="1.0" encoding="UTF-8" standalone="no"?><svg xmlns="http://www.w3.org/2000/svg" xmlns:xlink="http://www.w3.org/1999/xlink" contentStyleType="text/css" height="302px" preserveAspectRatio="none" style="width:772px;height:302px;background:#FFFFFF;" version="1.1" viewBox="0 0 772 302" width="772px" zoomAndPan="magnify"><defs/><g><!--MD5=[7eacec73e9fe254a57aaf3928be395cd]
cluster com.hack23.cia.web.impl.ui.application.views.user.ballot.pagemode--><g id="cluster_com.hack23.cia.web.impl.ui.application.views.user.ballot.pagemode"><path d="M8.5,145 L544.5,145 A3.75,3.75 0 0 1 547,147.5 L554,167.2969 L762.5,167.2969 A2.5,2.5 0 0 1 765,169.7969 L765,274.5 A2.5,2.5 0 0 1 762.5,277 L8.5,277 A2.5,2.5 0 0 1 6,274.5 L6,147.5 A2.5,2.5 0 0 1 8.5,145 " style="stroke:#000000;stroke-width:1.5;fill:none;"/><line style="stroke:#000000;stroke-width:1.5;fill:none;" x1="6" x2="554" y1="167.2969" y2="167.2969"/><text fill="#000000" font-family="sans-serif" font-size="14" font-weight="bold" lengthAdjust="spacing" textLength="535" x="10" y="159.9951">com.hack23.cia.web.impl.ui.application.views.user.ballot.pagemode</text></g><!--MD5=[5aa94c924e9848adf3a3e7e8e30b1801]
cluster com.hack23.cia.web.impl.ui.application.views.common.pagemode--><g id="cluster_com.hack23.cia.web.impl.ui.application.views.common.pagemode"><path d="M122.5,6 L641.5,6 A3.75,3.75 0 0 1 644,8.5 L651,28.2969 L651.5,28.2969 A2.5,2.5 0 0 1 654,30.7969 L654,118.5 A2.5,2.5 0 0 1 651.5,121 L122.5,121 A2.5,2.5 0 0 1 120,118.5 L120,8.5 A2.5,2.5 0 0 1 122.5,6 " style="stroke:#000000;stroke-width:1.5;fill:none;"/><line style="stroke:#000000;stroke-width:1.5;fill:none;" x1="120" x2="651" y1="28.2969" y2="28.2969"/><text fill="#000000" font-family="sans-serif" font-size="14" font-weight="bold" lengthAdjust="spacing" textLength="518" x="124" y="20.9951">com.hack23.cia.web.impl.ui.application.views.common.pagemode</text></g><!--MD5=[f526084a82a267eb1468958a02288fec]
class com.hack23.cia.web.impl.ui.application.views.user.ballot.pagemode.BallotChartsPageModContentFactoryImpl--><a href="BallotChartsPageModContentFactoryImpl.html" target="_top" title="BallotChartsPageModContentFactoryImpl.html" xlink:actuate="onRequest" xlink:href="BallotChartsPageModContentFactoryImpl.html" xlink:show="new" xlink:title="BallotChartsPageModContentFactoryImpl.html" xlink:type="simple"><g id="elem_com.hack23.cia.web.impl.ui.application.views.user.ballot.pagemode.BallotChartsPageModContentFactoryImpl"><rect codeLine="3" fill="#F1F1F1" height="80.5938" id="com.hack23.cia.web.impl.ui.application.views.user.ballot.pagemode.BallotChartsPageModContentFactoryImpl" rx="2.5" ry="2.5" style="stroke:#181818;stroke-width:0.5;" width="346" x="403" y="180"/><ellipse cx="432.4" cy="196" fill="#ADD1B2" rx="11" ry="11" style="stroke:#181818;stroke-width:1.0;"/><path d="M435.3688,201.6406 Q434.7906,201.9375 434.15,202.0781 Q433.5094,202.2344 432.8063,202.2344 Q430.3063,202.2344 428.9781,200.5938 Q427.6656,198.9375 427.6656,195.8125 Q427.6656,192.6875 428.9781,191.0313 Q430.3063,189.375 432.8063,189.375 Q433.5094,189.375 434.15,189.5313 Q434.8063,189.6875 435.3688,189.9844 L435.3688,192.7031 Q434.7438,192.125 434.15,191.8594 Q433.5563,191.5781 432.9313,191.5781 Q431.5875,191.5781 430.9,192.6563 Q430.2125,193.7188 430.2125,195.8125 Q430.2125,197.9063 430.9,198.9844 Q431.5875,200.0469 432.9313,200.0469 Q433.5563,200.0469 434.15,199.7813 Q434.7438,199.5 435.3688,198.9219 L435.3688,201.6406 Z " fill="#000000"/><text fill="#000000" font-family="sans-serif" font-size="14" lengthAdjust="spacing" textLength="282" x="449.6" y="200.8467">BallotChartsPageModContentFactoryImpl</text><line style="stroke:#181818;stroke-width:0.5;" x1="404" x2="748" y1="212" y2="212"/><line style="stroke:#181818;stroke-width:0.5;" x1="404" x2="748" y1="220" y2="220"/><ellipse cx="414" cy="231" fill="#84BE84" rx="3" ry="3" style="stroke:#038048;stroke-width:1.0;"/><text fill="#000000" font-family="sans-serif" font-size="14" lengthAdjust="spacing" textLength="320" x="423" y="236.9951">createContent(String, MenuBar, Panel): Layout</text><ellipse cx="414" cy="247.2969" fill="#84BE84" rx="3" ry="3" style="stroke:#038048;stroke-width:1.0;"/><text fill="#000000" font-family="sans-serif" font-size="14" lengthAdjust="spacing" textLength="223" x="423" y="253.292">matches(String, String): boolean</text></g></a><!--MD5=[6eea0a65355a656993964ca59854b1d1]
class com.hack23.cia.web.impl.ui.application.views.user.ballot.pagemode.BallotOverviewPageModContentFactoryImpl--><a href="BallotOverviewPageModContentFactoryImpl.html" target="_top" title="BallotOverviewPageModContentFactoryImpl.html" xlink:actuate="onRequest" xlink:href="BallotOverviewPageModContentFactoryImpl.html" xlink:show="new" xlink:title="BallotOverviewPageModContentFactoryImpl.html" xlink:type="simple"><g id="elem_com.hack23.cia.web.impl.ui.application.views.user.ballot.pagemode.BallotOverviewPageModContentFactoryImpl"><rect codeLine="8" fill="#F1F1F1" height="80.5938" id="com.hack23.cia.web.impl.ui.application.views.user.ballot.pagemode.BallotOverviewPageModContentFactoryImpl" rx="2.5" ry="2.5" style="stroke:#181818;stroke-width:0.5;" width="346" x="22" y="180"/><ellipse cx="43.75" cy="196" fill="#ADD1B2" rx="11" ry="11" style="stroke:#181818;stroke-width:1.0;"/><path d="M46.7188,201.6406 Q46.1406,201.9375 45.5,202.0781 Q44.8594,202.2344 44.1563,202.2344 Q41.6563,202.2344 40.3281,200.5938 Q39.0156,198.9375 39.0156,195.8125 Q39.0156,192.6875 40.3281,191.0313 Q41.6563,189.375 44.1563,189.375 Q44.8594,189.375 45.5,189.5313 Q46.1563,189.6875 46.7188,189.9844 L46.7188,192.7031 Q46.0938,192.125 45.5,191.8594 Q44.9063,191.5781 44.2813,191.5781 Q42.9375,191.5781 42.25,192.6563 Q41.5625,193.7188 41.5625,195.8125 Q41.5625,197.9063 42.25,198.9844 Q42.9375,200.0469 44.2813,200.0469 Q44.9063,200.0469 45.5,199.7813 Q46.0938,199.5 46.7188,198.9219 L46.7188,201.6406 Z " fill="#000000"/><text fill="#000000" font-family="sans-serif" font-size="14" lengthAdjust="spacing" textLength="299" x="59.25" y="200.8467">BallotOverviewPageModContentFactoryImpl</text><line style="stroke:#181818;stroke-width:0.5;" x1="23" x2="367" y1="212" y2="212"/><line style="stroke:#181818;stroke-width:0.5;" x1="23" x2="367" y1="220" y2="220"/><ellipse cx="33" cy="231" fill="#84BE84" rx="3" ry="3" style="stroke:#038048;stroke-width:1.0;"/><text fill="#000000" font-family="sans-serif" font-size="14" lengthAdjust="spacing" textLength="320" x="42" y="236.9951">createContent(String, MenuBar, Panel): Layout</text><ellipse cx="33" cy="247.2969" fill="#84BE84" rx="3" ry="3" style="stroke:#038048;stroke-width:1.0;"/><text fill="#000000" font-family="sans-serif" font-size="14" lengthAdjust="spacing" textLength="223" x="42" y="253.292">matches(String, String): boolean</text></g></a><!--MD5=[910b05f7a71c4b637000f0152433e223]
class com.hack23.cia.web.impl.ui.application.views.common.pagemode.AbstractItemPageModContentFactoryImpl--><a href="../../../common/pagemode/AbstractItemPageModContentFactoryImpl.html" target="_top" title="../../../common/pagemode/AbstractItemPageModContentFactoryImpl.html" xlink:actuate="onRequest" xlink:href="../../../common/pagemode/AbstractItemPageModContentFactoryImpl.html" xlink:show="new" xlink:title="../../../common/pagemode/AbstractItemPageModContentFactoryImpl.html" xlink:type="simple"><g id="elem_com.hack23.cia.web.impl.ui.application.views.common.pagemode.AbstractItemPageModContentFactoryImpl"><rect codeLine="18" fill="#F1F1F1" height="64.2969" id="com.hack23.cia.web.impl.ui.application.views.common.pagemode.AbstractItemPageModContentFactoryImpl" rx="2.5" ry="2.5" style="stroke:#181818;stroke-width:0.5;" width="331" x="139.5" y="41"/><ellipse cx="154.5" cy="57" fill="#A9DCDF" rx="11" ry="11" style="stroke:#181818;stroke-width:1.0;"/><path d="M154.6094,52.3438 L153.4531,57.4219 L155.7813,57.4219 L154.6094,52.3438 Z M153.125,50.1094 L156.1094,50.1094 L159.4688,62.5 L157.0156,62.5 L156.25,59.4375 L152.9688,59.4375 L152.2188,62.5 L149.7813,62.5 L153.125,50.1094 Z " fill="#000000"/><text fill="#000000" font-family="sans-serif" font-size="14" font-style="italic" lengthAdjust="spacing" textLength="288" x="168.5" y="61.8467">AbstractItemPageModContentFactoryImpl</text><rect fill="#FFFFFF" height="15.9688" style="stroke:#000000;stroke-width:1.0;stroke-dasharray:2.0,2.0;" width="9" x="464.5" y="38"/><text fill="#000000" font-family="sans-serif" font-size="12" font-style="italic" lengthAdjust="spacing" textLength="7" x="465.5" y="50.1387">T</text><line style="stroke:#181818;stroke-width:0.5;" x1="140.5" x2="469.5" y1="73" y2="73"/><line style="stroke:#181818;stroke-width:0.5;" x1="140.5" x2="469.5" y1="81" y2="81"/><polygon fill="#FFFF44" points="150.5,87,154.5,91,150.5,95,146.5,91" style="stroke:#B38D22;stroke-width:1.0;"/><text fill="#000000" font-family="sans-serif" font-size="14" font-style="italic" lengthAdjust="spacing" textLength="122" x="159.5" y="97.9951">getItem(String): T</text></g></a><!--MD5=[c3344b560335d3f8849729ad99f7b238]
reverse link com.hack23.cia.web.impl.ui.application.views.common.pagemode.AbstractItemPageModContentFactoryImpl to com.hack23.cia.web.impl.ui.application.views.user.ballot.pagemode.BallotChartsPageModContentFactoryImpl--><g id="link_com.hack23.cia.web.impl.ui.application.views.common.pagemode.AbstractItemPageModContentFactoryImpl_com.hack23.cia.web.impl.ui.application.views.user.ballot.pagemode.BallotChartsPageModContentFactoryImpl"><path codeLine="13" d="M380.5,114.53 C418.54,134.96 464.49,159.63 502.28,179.92 " fill="none" id="com.hack23.cia.web.impl.ui.application.views.common.pagemode.AbstractItemPageModContentFactoryImpl-backto-com.hack23.cia.web.impl.ui.application.views.user.ballot.pagemode.BallotChartsPageModContentFactoryImpl" style="stroke:#181818;stroke-width:1.0;"/><polygon fill="none" points="377.11,120.66,362.8,105.03,383.74,108.33,377.11,120.66" style="stroke:#181818;stroke-width:1.0;"/></g><!--MD5=[4fe0fde02707c7283bda804d5f072e2f]
reverse link com.hack23.cia.web.impl.ui.application.views.common.pagemode.AbstractItemPageModContentFactoryImpl to com.hack23.cia.web.impl.ui.application.views.user.ballot.pagemode.BallotOverviewPageModContentFactoryImpl--><g id="link_com.hack23.cia.web.impl.ui.application.views.common.pagemode.AbstractItemPageModContentFactoryImpl_com.hack23.cia.web.impl.ui.application.views.user.ballot.pagemode.BallotOverviewPageModContentFactoryImpl"><path codeLine="14" d="M269.23,121.31 C254.96,140.19 238.71,161.69 225.06,179.74 " fill="none" id="com.hack23.cia.web.impl.ui.application.views.common.pagemode.AbstractItemPageModContentFactoryImpl-backto-com.hack23.cia.web.impl.ui.application.views.user.ballot.pagemode.BallotOverviewPageModContentFactoryImpl" style="stroke:#181818;stroke-width:1.0;"/><polygon fill="none" points="263.76,116.95,281.4,105.21,274.92,125.39,263.76,116.95" style="stroke:#181818;stroke-width:1.0;"/></g><rect height="11.6406" style="stroke:#00000000;stroke-width:1.0;fill:none;" width="186" x="286" y="283"/><text fill="#888888" font-family="sans-serif" font-size="10" lengthAdjust="spacing" textLength="186" x="286" y="292.2822">UMLDoclet 2.0.18, PlantUML 1.2022.6</text><!--MD5=[3649eff98f6aab42c6cf58b07364c472]
@startuml
    namespace com.hack23.cia.web.impl.ui.application.views.user.ballot.pagemode {

        class BallotChartsPageModContentFactoryImpl [[BallotChartsPageModContentFactoryImpl.html]] {
            +createContent(String, MenuBar, Panel): Layout
            +matches(String, String): boolean
        }

        class BallotOverviewPageModContentFactoryImpl [[BallotOverviewPageModContentFactoryImpl.html]] {
            +createContent(String, MenuBar, Panel): Layout
            +matches(String, String): boolean
        }

        com.hack23.cia.web.impl.ui.application.views.common.pagemode.AbstractItemPageModContentFactoryImpl <|- - BallotChartsPageModContentFactoryImpl
        com.hack23.cia.web.impl.ui.application.views.common.pagemode.AbstractItemPageModContentFactoryImpl <|- - BallotOverviewPageModContentFactoryImpl
    }

    namespace com.hack23.cia.web.impl.ui.application.views.common.pagemode {
        abstract class AbstractItemPageModContentFactoryImpl<T> [[../../../common/pagemode/AbstractItemPageModContentFactoryImpl.html]] {
            {abstract} #getItem(String): T
        }
    }

    center footer UMLDoclet 2.0.18, PlantUML 1.2022.6
@enduml

PlantUML version 1.2022.6(Tue Jun 21 19:34:49 CEST 2022)
(APACHE source distribution)
Java Runtime: OpenJDK Runtime Environment
JVM: OpenJDK 64-Bit Server VM
Default Encoding: ANSI_X3.4-1968
Language: en
Country: US
--></g></svg>