<?xml version="1.0" encoding="UTF-8" standalone="no"?><svg xmlns="http://www.w3.org/2000/svg" xmlns:xlink="http://www.w3.org/1999/xlink" contentScriptType="application/ecmascript" contentStyleType="text/css" height="286px" preserveAspectRatio="none" style="width:677px;height:286px;" version="1.1" viewBox="0 0 677 286" width="677px" zoomAndPan="magnify"><defs><filter height="300%" id="f1lsr8pmd2ycfu" width="300%" x="-1" y="-1"><feGaussianBlur result="blurOut" stdDeviation="2.0"/><feColorMatrix in="blurOut" result="blurOut2" type="matrix" values="0 0 0 0 0 0 0 0 0 0 0 0 0 0 0 0 0 0 .4 0"/><feOffset dx="4.0" dy="4.0" in="blurOut2" result="blurOut3"/><feBlend in="SourceGraphic" in2="blurOut3" mode="normal"/></filter></defs><g><!--cluster com.hack23.cia.web.impl.ui.application.views.user.ballot.pagemode--><polygon fill="#FFFFFF" filter="url(#f1lsr8pmd2ycfu)" points="14,137,555,137,562,159.2969,655,159.2969,655,246,14,246,14,137" style="stroke: #000000; stroke-width: 1.5;"/><line style="stroke: #000000; stroke-width: 1.5;" x1="14" x2="562" y1="159.2969" y2="159.2969"/><text fill="#000000" font-family="sans-serif" font-size="14" font-weight="bold" lengthAdjust="spacingAndGlyphs" textLength="535" x="18" y="151.9951">com.hack23.cia.web.impl.ui.application.views.user.ballot.pagemode</text><!--cluster com.hack23.cia.web.impl.ui.application.views.common.pagemode--><polygon fill="#FFFFFF" filter="url(#f1lsr8pmd2ycfu)" points="66,16,590,16,597,38.2969,600,38.2969,600,112,66,112,66,16" style="stroke: #000000; stroke-width: 1.5;"/><line style="stroke: #000000; stroke-width: 1.5;" x1="66" x2="597" y1="38.2969" y2="38.2969"/><text fill="#000000" font-family="sans-serif" font-size="14" font-weight="bold" lengthAdjust="spacingAndGlyphs" textLength="518" x="70" y="30.9951">com.hack23.cia.web.impl.ui.application.views.common.pagemode</text><!--class com.hack23.cia.web.impl.ui.application.views.user.ballot.pagemode.BallotOverviewPageModContentFactoryImpl--><a href="BallotOverviewPageModContentFactoryImpl.html" target="_top" xlink:actuate="onRequest" xlink:show="new" xlink:title="BallotOverviewPageModContentFactoryImpl.html" xlink:type="simple"><rect fill="#FEFECE" filter="url(#f1lsr8pmd2ycfu)" height="73.6094" id="com.hack23.cia.web.impl.ui.application.views.user.ballot.pagemode.BallotOverviewPageModContentFactoryImpl" style="stroke: #A80036; stroke-width: 1.5;" width="300" x="347" y="164"/><ellipse cx="362" cy="180" fill="#ADD1B2" rx="11" ry="11" style="stroke: #A80036; stroke-width: 1.0;"/><path d="M364.9688,185.6406 Q364.3906,185.9375 363.75,186.0781 Q363.1094,186.2344 362.4063,186.2344 Q359.9063,186.2344 358.5781,184.5938 Q357.2656,182.9375 357.2656,179.8125 Q357.2656,176.6875 358.5781,175.0313 Q359.9063,173.375 362.4063,173.375 Q363.1094,173.375 363.75,173.5313 Q364.4063,173.6875 364.9688,173.9844 L364.9688,176.7031 Q364.3438,176.125 363.75,175.8594 Q363.1563,175.5781 362.5313,175.5781 Q361.1875,175.5781 360.5,176.6563 Q359.8125,177.7188 359.8125,179.8125 Q359.8125,181.9063 360.5,182.9844 Q361.1875,184.0469 362.5313,184.0469 Q363.1563,184.0469 363.75,183.7813 Q364.3438,183.5 364.9688,182.9219 L364.9688,185.6406 Z "/><text fill="#000000" font-family="sans-serif" font-size="12" lengthAdjust="spacingAndGlyphs" textLength="268" x="376" y="184.1543">BallotOverviewPageModContentFactoryImpl</text><line style="stroke: #A80036; stroke-width: 1.5;" x1="348" x2="646" y1="196" y2="196"/><line style="stroke: #A80036; stroke-width: 1.5;" x1="348" x2="646" y1="204" y2="204"/><ellipse cx="358" cy="215.9023" fill="#84BE84" rx="3" ry="3" style="stroke: #038048; stroke-width: 1.0;"/><text fill="#000000" font-family="sans-serif" font-size="11" lengthAdjust="spacingAndGlyphs" textLength="186" x="367" y="218.2104">matches(String, String): boolean</text><ellipse cx="358" cy="228.707" fill="#84BE84" rx="3" ry="3" style="stroke: #038048; stroke-width: 1.0;"/><text fill="#000000" font-family="sans-serif" font-size="11" lengthAdjust="spacingAndGlyphs" textLength="264" x="367" y="231.0151">createContent(String, MenuBar, Panel): Layout</text></a><!--class com.hack23.cia.web.impl.ui.application.views.user.ballot.pagemode.BallotChartsPageModContentFactoryImpl--><a href="BallotChartsPageModContentFactoryImpl.html" target="_top" xlink:actuate="onRequest" xlink:show="new" xlink:title="BallotChartsPageModContentFactoryImpl.html" xlink:type="simple"><rect fill="#FEFECE" filter="url(#f1lsr8pmd2ycfu)" height="73.6094" id="com.hack23.cia.web.impl.ui.application.views.user.ballot.pagemode.BallotChartsPageModContentFactoryImpl" style="stroke: #A80036; stroke-width: 1.5;" width="290" x="22" y="164"/><ellipse cx="38.35" cy="180" fill="#ADD1B2" rx="11" ry="11" style="stroke: #A80036; stroke-width: 1.0;"/><path d="M41.3188,185.6406 Q40.7406,185.9375 40.1,186.0781 Q39.4594,186.2344 38.7563,186.2344 Q36.2563,186.2344 34.9281,184.5938 Q33.6156,182.9375 33.6156,179.8125 Q33.6156,176.6875 34.9281,175.0313 Q36.2563,173.375 38.7563,173.375 Q39.4594,173.375 40.1,173.5313 Q40.7563,173.6875 41.3188,173.9844 L41.3188,176.7031 Q40.6938,176.125 40.1,175.8594 Q39.5063,175.5781 38.8813,175.5781 Q37.5375,175.5781 36.85,176.6563 Q36.1625,177.7188 36.1625,179.8125 Q36.1625,181.9063 36.85,182.9844 Q37.5375,184.0469 38.8813,184.0469 Q39.5063,184.0469 40.1,183.7813 Q40.6938,183.5 41.3188,182.9219 L41.3188,185.6406 Z "/><text fill="#000000" font-family="sans-serif" font-size="12" lengthAdjust="spacingAndGlyphs" textLength="255" x="52.65" y="184.1543">BallotChartsPageModContentFactoryImpl</text><line style="stroke: #A80036; stroke-width: 1.5;" x1="23" x2="311" y1="196" y2="196"/><line style="stroke: #A80036; stroke-width: 1.5;" x1="23" x2="311" y1="204" y2="204"/><ellipse cx="33" cy="215.9023" fill="#84BE84" rx="3" ry="3" style="stroke: #038048; stroke-width: 1.0;"/><text fill="#000000" font-family="sans-serif" font-size="11" lengthAdjust="spacingAndGlyphs" textLength="186" x="42" y="218.2104">matches(String, String): boolean</text><ellipse cx="33" cy="228.707" fill="#84BE84" rx="3" ry="3" style="stroke: #038048; stroke-width: 1.0;"/><text fill="#000000" font-family="sans-serif" font-size="11" lengthAdjust="spacingAndGlyphs" textLength="264" x="42" y="231.0151">createContent(String, MenuBar, Panel): Layout</text></a><!--class com.hack23.cia.web.impl.ui.application.views.common.pagemode.AbstractItemPageModContentFactoryImpl--><a href="../../../common/pagemode/AbstractItemPageModContentFactoryImpl.html" target="_top" xlink:actuate="onRequest" xlink:show="new" xlink:title="../../../common/pagemode/AbstractItemPageModContentFactoryImpl.html" xlink:type="simple"><rect fill="#FEFECE" filter="url(#f1lsr8pmd2ycfu)" height="60.8047" id="com.hack23.cia.web.impl.ui.application.views.common.pagemode.AbstractItemPageModContentFactoryImpl" style="stroke: #A80036; stroke-width: 1.5;" width="303" x="181.5" y="43"/><ellipse cx="196.5" cy="59" fill="#A9DCDF" rx="11" ry="11" style="stroke: #A80036; stroke-width: 1.0;"/><path d="M196.6094,54.3438 L195.4531,59.4219 L197.7813,59.4219 L196.6094,54.3438 Z M195.125,52.1094 L198.1094,52.1094 L201.4688,64.5 L199.0156,64.5 L198.25,61.4375 L194.9688,61.4375 L194.2188,64.5 L191.7813,64.5 L195.125,52.1094 Z "/><text fill="#000000" font-family="sans-serif" font-size="12" font-style="italic" lengthAdjust="spacingAndGlyphs" textLength="260" x="210.5" y="63.1543">AbstractItemPageModContentFactoryImpl</text><rect fill="#FFFFFF" height="15.9688" style="stroke: #000000; stroke-width: 1.0; stroke-dasharray: 2.0,2.0;" width="9" x="478.5" y="40"/><text fill="#000000" font-family="sans-serif" font-size="12" font-style="italic" lengthAdjust="spacingAndGlyphs" textLength="7" x="479.5" y="52.1387">T</text><line style="stroke: #A80036; stroke-width: 1.5;" x1="182.5" x2="483.5" y1="75" y2="75"/><line style="stroke: #A80036; stroke-width: 1.5;" x1="182.5" x2="483.5" y1="83" y2="83"/><polygon fill="#FFFF44" points="192.5,89.9023,196.5,93.9023,192.5,97.9023,188.5,93.9023" style="stroke: #B38D22; stroke-width: 1.0;"/><text fill="#000000" font-family="sans-serif" font-size="11" font-style="italic" lengthAdjust="spacingAndGlyphs" textLength="99" x="201.5" y="97.2104">getItem(String): T</text></a><!--link com.hack23.cia.web.impl.ui.application.views.common.pagemode.AbstractItemPageModContentFactoryImpl to com.hack23.cia.web.impl.ui.application.views.user.ballot.pagemode.BallotOverviewPageModContentFactoryImpl--><path d="M388.2406,116.4462 C408.0331,131.8336 430.1616,149.0372 449.2649,163.8888 " fill="none" id="com.hack23.cia.web.impl.ui.application.views.common.pagemode.AbstractItemPageModContentFactoryImpl-com.hack23.cia.web.impl.ui.application.views.user.ballot.pagemode.BallotOverviewPageModContentFactoryImpl" style="stroke: #A80036; stroke-width: 1.0;"/><polygon fill="none" points="383.7753,121.8413,372.2821,104.0394,392.3682,110.7886,383.7753,121.8413" style="stroke: #A80036; stroke-width: 1.0;"/><!--link com.hack23.cia.web.impl.ui.application.views.common.pagemode.AbstractItemPageModContentFactoryImpl to com.hack23.cia.web.impl.ui.application.views.user.ballot.pagemode.BallotChartsPageModContentFactoryImpl--><path d="M277.0857,116.4462 C257.0519,131.8336 234.6535,149.0372 215.3173,163.8888 " fill="none" id="com.hack23.cia.web.impl.ui.application.views.common.pagemode.AbstractItemPageModContentFactoryImpl-com.hack23.cia.web.impl.ui.application.views.user.ballot.pagemode.BallotChartsPageModContentFactoryImpl" style="stroke: #A80036; stroke-width: 1.0;"/><polygon fill="none" points="273.1135,110.6707,293.2389,104.0394,281.6414,121.7736,273.1135,110.6707" style="stroke: #A80036; stroke-width: 1.0;"/><text fill="#888888" font-family="sans-serif" font-size="10" lengthAdjust="spacingAndGlyphs" textLength="186" x="247.5" y="273.2822">UMLDoclet 2.0.3, PlantUML 1.2019.06</text><!--
@startuml
    namespace com.hack23.cia.web.impl.ui.application.views.user.ballot.pagemode {

        class BallotOverviewPageModContentFactoryImpl [[BallotOverviewPageModContentFactoryImpl.html]] {
            +matches(String, String): boolean
            +createContent(String, MenuBar, Panel): Layout
        }

        class BallotChartsPageModContentFactoryImpl [[BallotChartsPageModContentFactoryImpl.html]] {
            +matches(String, String): boolean
            +createContent(String, MenuBar, Panel): Layout
        }

        com.hack23.cia.web.impl.ui.application.views.common.pagemode.AbstractItemPageModContentFactoryImpl <|- - BallotOverviewPageModContentFactoryImpl
        com.hack23.cia.web.impl.ui.application.views.common.pagemode.AbstractItemPageModContentFactoryImpl <|- - BallotChartsPageModContentFactoryImpl
    }

    namespace com.hack23.cia.web.impl.ui.application.views.common.pagemode {
        abstract class AbstractItemPageModContentFactoryImpl<T> [[../../../common/pagemode/AbstractItemPageModContentFactoryImpl.html]] {
            {abstract} #getItem(String): T
        }
    }

    center footer UMLDoclet 2.0.3, PlantUML 1.2019.06
@enduml

PlantUML version 1.2019.06(Fri May 24 19:10:25 CEST 2019)
(APACHE source distribution)
Java Runtime: OpenJDK Runtime Environment
JVM: OpenJDK 64-Bit Server VM
Java Version: 11.0.3+7-Ubuntu-1ubuntu219.04.1
Operating System: Linux
OS Version: 5.0.0-16-generic
Default Encoding: UTF-8
Language: en
Country: US
--></g></svg>