<?xml version="1.0" encoding="UTF-8" standalone="no"?><svg xmlns="http://www.w3.org/2000/svg" xmlns:xlink="http://www.w3.org/1999/xlink" contentScriptType="application/ecmascript" contentStyleType="text/css" height="285px" preserveAspectRatio="none" style="width:779px;height:285px;" version="1.1" viewBox="0 0 779 285" width="779px" zoomAndPan="magnify"><defs><filter height="300%" id="fwl2vjwcvmvjm" width="300%" x="-1" y="-1"><feGaussianBlur result="blurOut" stdDeviation="2.0"/><feColorMatrix in="blurOut" result="blurOut2" type="matrix" values="0 0 0 0 0 0 0 0 0 0 0 0 0 0 0 0 0 0 .4 0"/><feOffset dx="4.0" dy="4.0" in="blurOut2" result="blurOut3"/><feBlend in="SourceGraphic" in2="blurOut3" mode="normal"/></filter></defs><g><!--MD5=[c7d58dbc246dba0b39b7d051080cbc0f]
cluster com.hack23.cia.web.impl.ui.application.views.admin.datasummary.pagemode--><polygon fill="#FFFFFF" filter="url(#fwl2vjwcvmvjm)" points="14,124,629,124,636,146.2969,757,146.2969,757,245,14,245,14,124" style="stroke: #000000; stroke-width: 1.5;"/><line style="stroke: #000000; stroke-width: 1.5;" x1="14" x2="636" y1="146.2969" y2="146.2969"/><text fill="#000000" font-family="sans-serif" font-size="14" font-weight="bold" lengthAdjust="spacingAndGlyphs" textLength="609" x="18" y="138.9951">com.hack23.cia.web.impl.ui.application.views.admin.datasummary.pagemode</text><!--MD5=[5aa94c924e9848adf3a3e7e8e30b1801]
cluster com.hack23.cia.web.impl.ui.application.views.common.pagemode--><polygon fill="#FFFFFF" filter="url(#fwl2vjwcvmvjm)" points="124,16,648,16,655,38.2969,658,38.2969,658,99,124,99,124,16" style="stroke: #000000; stroke-width: 1.5;"/><line style="stroke: #000000; stroke-width: 1.5;" x1="124" x2="655" y1="38.2969" y2="38.2969"/><text fill="#000000" font-family="sans-serif" font-size="14" font-weight="bold" lengthAdjust="spacingAndGlyphs" textLength="518" x="128" y="30.9951">com.hack23.cia.web.impl.ui.application.views.common.pagemode</text><!--MD5=[a65c3f7e01ffd2f4344922bc59e40c6d]
class com.hack23.cia.web.impl.ui.application.views.admin.datasummary.pagemode.DataSummaryOverviewPageModContentFactoryImpl--><a href="DataSummaryOverviewPageModContentFactoryImpl.html" target="_top" title="DataSummaryOverviewPageModContentFactoryImpl.html" xlink:actuate="onRequest" xlink:href="DataSummaryOverviewPageModContentFactoryImpl.html" xlink:show="new" xlink:title="DataSummaryOverviewPageModContentFactoryImpl.html" xlink:type="simple"><rect fill="#FEFECE" filter="url(#fwl2vjwcvmvjm)" height="86.4141" id="com.hack23.cia.web.impl.ui.application.views.admin.datasummary.pagemode.DataSummaryOverviewPageModContentFactoryImpl" style="stroke: #A80036; stroke-width: 1.5;" width="352" x="397" y="151"/><ellipse cx="412" cy="167" fill="#ADD1B2" rx="11" ry="11" style="stroke: #A80036; stroke-width: 1.0;"/><path d="M414.9688,172.6406 Q414.3906,172.9375 413.75,173.0781 Q413.1094,173.2344 412.4063,173.2344 Q409.9063,173.2344 408.5781,171.5938 Q407.2656,169.9375 407.2656,166.8125 Q407.2656,163.6875 408.5781,162.0313 Q409.9063,160.375 412.4063,160.375 Q413.1094,160.375 413.75,160.5313 Q414.4063,160.6875 414.9688,160.9844 L414.9688,163.7031 Q414.3438,163.125 413.75,162.8594 Q413.1563,162.5781 412.5313,162.5781 Q411.1875,162.5781 410.5,163.6563 Q409.8125,164.7188 409.8125,166.8125 Q409.8125,168.9063 410.5,169.9844 Q411.1875,171.0469 412.5313,171.0469 Q413.1563,171.0469 413.75,170.7813 Q414.3438,170.5 414.9688,169.9219 L414.9688,172.6406 Z "/><text fill="#000000" font-family="sans-serif" font-size="12" lengthAdjust="spacingAndGlyphs" textLength="320" x="426" y="171.1543">DataSummaryOverviewPageModContentFactoryImpl</text><line style="stroke: #A80036; stroke-width: 1.5;" x1="398" x2="748" y1="183" y2="183"/><ellipse cx="408" cy="194" fill="none" rx="3" ry="3" style="stroke: #038048; stroke-width: 1.0;"/><text fill="#000000" font-family="sans-serif" font-size="11" lengthAdjust="spacingAndGlyphs" text-decoration="underline" textLength="73" x="417" y="197.2104">NAME: String</text><line style="stroke: #A80036; stroke-width: 1.5;" x1="398" x2="748" y1="203.8047" y2="203.8047"/><ellipse cx="408" cy="214.8047" fill="#84BE84" rx="3" ry="3" style="stroke: #038048; stroke-width: 1.0;"/><text fill="#000000" font-family="sans-serif" font-size="11" lengthAdjust="spacingAndGlyphs" textLength="264" x="417" y="218.0151">createContent(String, MenuBar, Panel): Layout</text><ellipse cx="408" cy="227.6094" fill="#84BE84" rx="3" ry="3" style="stroke: #038048; stroke-width: 1.0;"/><text fill="#000000" font-family="sans-serif" font-size="11" lengthAdjust="spacingAndGlyphs" textLength="186" x="417" y="230.8198">matches(String, String): boolean</text></a><!--MD5=[7a40c43714c03437d6cd110023ae66a4]
class com.hack23.cia.web.impl.ui.application.views.admin.datasummary.pagemode.DataSummaryAuthorPageModContentFactoryImpl--><a href="DataSummaryAuthorPageModContentFactoryImpl.html" target="_top" title="DataSummaryAuthorPageModContentFactoryImpl.html" xlink:actuate="onRequest" xlink:href="DataSummaryAuthorPageModContentFactoryImpl.html" xlink:show="new" xlink:title="DataSummaryAuthorPageModContentFactoryImpl.html" xlink:type="simple"><rect fill="#FEFECE" filter="url(#fwl2vjwcvmvjm)" height="86.4141" id="com.hack23.cia.web.impl.ui.application.views.admin.datasummary.pagemode.DataSummaryAuthorPageModContentFactoryImpl" style="stroke: #A80036; stroke-width: 1.5;" width="340" x="22" y="151"/><ellipse cx="37" cy="167" fill="#ADD1B2" rx="11" ry="11" style="stroke: #A80036; stroke-width: 1.0;"/><path d="M39.9688,172.6406 Q39.3906,172.9375 38.75,173.0781 Q38.1094,173.2344 37.4063,173.2344 Q34.9063,173.2344 33.5781,171.5938 Q32.2656,169.9375 32.2656,166.8125 Q32.2656,163.6875 33.5781,162.0313 Q34.9063,160.375 37.4063,160.375 Q38.1094,160.375 38.75,160.5313 Q39.4063,160.6875 39.9688,160.9844 L39.9688,163.7031 Q39.3438,163.125 38.75,162.8594 Q38.1563,162.5781 37.5313,162.5781 Q36.1875,162.5781 35.5,163.6563 Q34.8125,164.7188 34.8125,166.8125 Q34.8125,168.9063 35.5,169.9844 Q36.1875,171.0469 37.5313,171.0469 Q38.1563,171.0469 38.75,170.7813 Q39.3438,170.5 39.9688,169.9219 L39.9688,172.6406 Z "/><text fill="#000000" font-family="sans-serif" font-size="12" lengthAdjust="spacingAndGlyphs" textLength="308" x="51" y="171.1543">DataSummaryAuthorPageModContentFactoryImpl</text><line style="stroke: #A80036; stroke-width: 1.5;" x1="23" x2="361" y1="183" y2="183"/><ellipse cx="33" cy="194" fill="none" rx="3" ry="3" style="stroke: #038048; stroke-width: 1.0;"/><text fill="#000000" font-family="sans-serif" font-size="11" lengthAdjust="spacingAndGlyphs" text-decoration="underline" textLength="73" x="42" y="197.2104">NAME: String</text><line style="stroke: #A80036; stroke-width: 1.5;" x1="23" x2="361" y1="203.8047" y2="203.8047"/><ellipse cx="33" cy="214.8047" fill="#84BE84" rx="3" ry="3" style="stroke: #038048; stroke-width: 1.0;"/><text fill="#000000" font-family="sans-serif" font-size="11" lengthAdjust="spacingAndGlyphs" textLength="264" x="42" y="218.0151">createContent(String, MenuBar, Panel): Layout</text><ellipse cx="33" cy="227.6094" fill="#84BE84" rx="3" ry="3" style="stroke: #038048; stroke-width: 1.0;"/><text fill="#000000" font-family="sans-serif" font-size="11" lengthAdjust="spacingAndGlyphs" textLength="186" x="42" y="230.8198">matches(String, String): boolean</text></a><!--MD5=[db981ccff2a6c8db469b3bc4ac975bd4]
class com.hack23.cia.web.impl.ui.application.views.common.pagemode.AbstractBasicPageModContentFactoryImpl--><a href="../../../common/pagemode/AbstractBasicPageModContentFactoryImpl.html" target="_top" title="../../../common/pagemode/AbstractBasicPageModContentFactoryImpl.html" xlink:actuate="onRequest" xlink:href="../../../common/pagemode/AbstractBasicPageModContentFactoryImpl.html" xlink:show="new" xlink:title="../../../common/pagemode/AbstractBasicPageModContentFactoryImpl.html" xlink:type="simple"><rect fill="#FEFECE" filter="url(#fwl2vjwcvmvjm)" height="48" id="com.hack23.cia.web.impl.ui.application.views.common.pagemode.AbstractBasicPageModContentFactoryImpl" style="stroke: #A80036; stroke-width: 1.5;" width="296" x="143" y="43"/><ellipse cx="158" cy="59" fill="#A9DCDF" rx="11" ry="11" style="stroke: #A80036; stroke-width: 1.0;"/><path d="M158.1094,54.3438 L156.9531,59.4219 L159.2813,59.4219 L158.1094,54.3438 Z M156.625,52.1094 L159.6094,52.1094 L162.9688,64.5 L160.5156,64.5 L159.75,61.4375 L156.4688,61.4375 L155.7188,64.5 L153.2813,64.5 L156.625,52.1094 Z "/><text fill="#000000" font-family="sans-serif" font-size="12" font-style="italic" lengthAdjust="spacingAndGlyphs" textLength="264" x="172" y="63.1543">AbstractBasicPageModContentFactoryImpl</text><line style="stroke: #A80036; stroke-width: 1.5;" x1="144" x2="438" y1="75" y2="75"/><line style="stroke: #A80036; stroke-width: 1.5;" x1="144" x2="438" y1="83" y2="83"/></a><!--MD5=[017792f9d6068c46e48d5d5b454d501c]
reverse link com.hack23.cia.web.impl.ui.application.views.common.pagemode.AbstractBasicPageModContentFactoryImpl to com.hack23.cia.web.impl.ui.application.views.admin.datasummary.pagemode.DataSummaryOverviewPageModContentFactoryImpl--><path d="M362.8484,99.3572 C397.6241,115.0187 439.8588,134.0392 477.3183,150.9093 " fill="none" id="com.hack23.cia.web.impl.ui.application.views.common.pagemode.AbstractBasicPageModContentFactoryImpl&lt;-com.hack23.cia.web.impl.ui.application.views.admin.datasummary.pagemode.DataSummaryOverviewPageModContentFactoryImpl" style="stroke: #A80036; stroke-width: 1.0;"/><polygon fill="none" points="359.7351,105.6324,344.3736,91.037,365.484,92.8672,359.7351,105.6324" style="stroke: #A80036; stroke-width: 1.0;"/><!--MD5=[62e8f7b1e4857dda11d637cab43bf562]
reverse link com.hack23.cia.web.impl.ui.application.views.common.pagemode.AbstractBasicPageModContentFactoryImpl to com.hack23.cia.web.impl.ui.application.views.admin.datasummary.pagemode.DataSummaryAuthorPageModContentFactoryImpl--><path d="M259.7441,107.096 C248.8827,121.0292 236.6589,136.7103 225.6151,150.8776 " fill="none" id="com.hack23.cia.web.impl.ui.application.views.common.pagemode.AbstractBasicPageModContentFactoryImpl&lt;-com.hack23.cia.web.impl.ui.application.views.admin.datasummary.pagemode.DataSummaryAuthorPageModContentFactoryImpl" style="stroke: #A80036; stroke-width: 1.0;"/><polygon fill="none" points="254.329,102.6567,272.1458,91.1867,265.3706,111.264,254.329,102.6567" style="stroke: #A80036; stroke-width: 1.0;"/><text fill="#888888" font-family="sans-serif" font-size="10" lengthAdjust="spacingAndGlyphs" textLength="186" x="298.5" y="272.2822">UMLDoclet 2.0.6, PlantUML 1.2019.12</text><!--MD5=[e50b857b2bc4998a87bfcf1ce5b8dd26]
@startuml
    namespace com.hack23.cia.web.impl.ui.application.views.admin.datasummary.pagemode {

        class DataSummaryOverviewPageModContentFactoryImpl [[DataSummaryOverviewPageModContentFactoryImpl.html]] {
            {static} +NAME: String
            +createContent(String, MenuBar, Panel): Layout
            +matches(String, String): boolean
        }

        class DataSummaryAuthorPageModContentFactoryImpl [[DataSummaryAuthorPageModContentFactoryImpl.html]] {
            {static} +NAME: String
            +createContent(String, MenuBar, Panel): Layout
            +matches(String, String): boolean
        }

        com.hack23.cia.web.impl.ui.application.views.common.pagemode.AbstractBasicPageModContentFactoryImpl <|- - DataSummaryOverviewPageModContentFactoryImpl
        com.hack23.cia.web.impl.ui.application.views.common.pagemode.AbstractBasicPageModContentFactoryImpl <|- - DataSummaryAuthorPageModContentFactoryImpl
    }

    namespace com.hack23.cia.web.impl.ui.application.views.common.pagemode {
        abstract class AbstractBasicPageModContentFactoryImpl [[../../../common/pagemode/AbstractBasicPageModContentFactoryImpl.html]]
    }

    center footer UMLDoclet 2.0.6, PlantUML 1.2019.12
@enduml

PlantUML version 1.2019.12(Sun Nov 03 11:24:54 CET 2019)
(APACHE source distribution)
Java Runtime: OpenJDK Runtime Environment
JVM: OpenJDK 64-Bit Server VM
Java Version: 11.0.5-ea+10-post-Ubuntu-0ubuntu1
Operating System: Linux
Default Encoding: UTF-8
Language: en
Country: US
--></g></svg>