<?xml version="1.0" encoding="UTF-8" standalone="no"?><svg xmlns="http://www.w3.org/2000/svg" xmlns:xlink="http://www.w3.org/1999/xlink" contentScriptType="application/ecmascript" contentStyleType="text/css" height="1145px" preserveAspectRatio="none" style="width:835px;height:1145px;" version="1.1" viewBox="0 0 835 1145" width="835px" zoomAndPan="magnify"><defs><filter height="300%" id="f5mxo39bn4uvx" width="300%" x="-1" y="-1"><feGaussianBlur result="blurOut" stdDeviation="2.0"/><feColorMatrix in="blurOut" result="blurOut2" type="matrix" values="0 0 0 0 0 0 0 0 0 0 0 0 0 0 0 0 0 0 .4 0"/><feOffset dx="4.0" dy="4.0" in="blurOut2" result="blurOut3"/><feBlend in="SourceGraphic" in2="blurOut3" mode="normal"/></filter></defs><g><!--cluster com.hack23.cia.service.api.action.kpi--><polygon fill="#FFFFFF" filter="url(#f5mxo39bn4uvx)" points="14,130,314,130,321,152.2969,685,152.2969,685,1105,14,1105,14,130" style="stroke: #000000; stroke-width: 1.5;"/><line style="stroke: #000000; stroke-width: 1.5;" x1="14" x2="321" y1="152.2969" y2="152.2969"/><text fill="#000000" font-family="sans-serif" font-size="14" font-weight="bold" lengthAdjust="spacingAndGlyphs" textLength="294" x="18" y="144.9951">com.hack23.cia.service.api.action.kpi</text><!--cluster com.hack23.cia.service.api.action.common--><polygon fill="#FFFFFF" filter="url(#f5mxo39bn4uvx)" points="134,16,478,16,485,38.2969,488,38.2969,488,99,134,99,134,16" style="stroke: #000000; stroke-width: 1.5;"/><line style="stroke: #000000; stroke-width: 1.5;" x1="134" x2="485" y1="38.2969" y2="38.2969"/><text fill="#000000" font-family="sans-serif" font-size="14" font-weight="bold" lengthAdjust="spacingAndGlyphs" textLength="338" x="138" y="30.9951">com.hack23.cia.service.api.action.common</text><!--cluster java.io--><polygon fill="#FFFFFF" filter="url(#f5mxo39bn4uvx)" points="693,308,749,308,756,330.2969,813,330.2969,813,391,693,391,693,308" style="stroke: #000000; stroke-width: 1.5;"/><line style="stroke: #000000; stroke-width: 1.5;" x1="693" x2="756" y1="330.2969" y2="330.2969"/><text fill="#000000" font-family="sans-serif" font-size="14" font-weight="bold" lengthAdjust="spacingAndGlyphs" textLength="50" x="697" y="322.9951">java.io</text><!--class com.hack23.cia.service.api.action.kpi.ResourceType--><a href="ResourceType.html" target="_top" xlink:actuate="onRequest" xlink:show="new" xlink:title="ResourceType.html" xlink:type="simple"><rect fill="#FEFECE" filter="url(#f5mxo39bn4uvx)" height="137.6328" id="com.hack23.cia.service.api.action.kpi.ResourceType" style="stroke: #A80036; stroke-width: 1.5;" width="120" x="86" y="959"/><ellipse cx="101" cy="975" fill="#EB937F" rx="11" ry="11" style="stroke: #A80036; stroke-width: 1.0;"/><path d="M105.1094,981 L97.3906,981 L97.3906,968.6094 L105.1094,968.6094 L105.1094,970.7656 L99.8438,970.7656 L99.8438,973.4375 L104.6094,973.4375 L104.6094,975.5938 L99.8438,975.5938 L99.8438,978.8438 L105.1094,978.8438 L105.1094,981 Z "/><text fill="#000000" font-family="sans-serif" font-size="12" lengthAdjust="spacingAndGlyphs" textLength="88" x="115" y="979.1543">ResourceType</text><line style="stroke: #A80036; stroke-width: 1.5;" x1="87" x2="205" y1="991" y2="991"/><ellipse cx="97" cy="1002.9023" fill="none" rx="3" ry="3" style="stroke: #038048; stroke-width: 1.0;"/><text fill="#000000" font-family="sans-serif" font-size="11" lengthAdjust="spacingAndGlyphs" text-decoration="underline" textLength="61" x="106" y="1005.2104">POLITICIAN</text><ellipse cx="97" cy="1015.707" fill="none" rx="3" ry="3" style="stroke: #038048; stroke-width: 1.0;"/><text fill="#000000" font-family="sans-serif" font-size="11" lengthAdjust="spacingAndGlyphs" text-decoration="underline" textLength="35" x="106" y="1018.0151">PARTY</text><ellipse cx="97" cy="1028.5117" fill="none" rx="3" ry="3" style="stroke: #038048; stroke-width: 1.0;"/><text fill="#000000" font-family="sans-serif" font-size="11" lengthAdjust="spacingAndGlyphs" text-decoration="underline" textLength="83" x="106" y="1030.8198">PARTY_LEADER</text><ellipse cx="97" cy="1041.3164" fill="none" rx="3" ry="3" style="stroke: #038048; stroke-width: 1.0;"/><text fill="#000000" font-family="sans-serif" font-size="11" lengthAdjust="spacingAndGlyphs" text-decoration="underline" textLength="66" x="106" y="1043.6245">COMMITTEE</text><ellipse cx="97" cy="1054.1211" fill="none" rx="3" ry="3" style="stroke: #038048; stroke-width: 1.0;"/><text fill="#000000" font-family="sans-serif" font-size="11" lengthAdjust="spacingAndGlyphs" text-decoration="underline" textLength="52" x="106" y="1056.4292">MINISTRY</text><ellipse cx="97" cy="1066.9258" fill="none" rx="3" ry="3" style="stroke: #038048; stroke-width: 1.0;"/><text fill="#000000" font-family="sans-serif" font-size="11" lengthAdjust="spacingAndGlyphs" text-decoration="underline" textLength="78" x="106" y="1069.2339">GOVERNMENT</text><ellipse cx="97" cy="1079.7305" fill="none" rx="3" ry="3" style="stroke: #038048; stroke-width: 1.0;"/><text fill="#000000" font-family="sans-serif" font-size="11" lengthAdjust="spacingAndGlyphs" text-decoration="underline" textLength="52" x="106" y="1082.0386">MINISTER</text><line style="stroke: #A80036; stroke-width: 1.5;" x1="87" x2="205" y1="1088.6328" y2="1088.6328"/></a><!--class com.hack23.cia.service.api.action.kpi.ComplianceCheckRequest--><a href="ComplianceCheckRequest.html" target="_top" xlink:actuate="onRequest" xlink:show="new" xlink:title="ComplianceCheckRequest.html" xlink:type="simple"><rect fill="#FEFECE" filter="url(#f5mxo39bn4uvx)" height="73.6094" id="com.hack23.cia.service.api.action.kpi.ComplianceCheckRequest" style="stroke: #A80036; stroke-width: 1.5;" width="194" x="22" y="176"/><ellipse cx="37" cy="192" fill="#ADD1B2" rx="11" ry="11" style="stroke: #A80036; stroke-width: 1.0;"/><path d="M39.9688,197.6406 Q39.3906,197.9375 38.75,198.0781 Q38.1094,198.2344 37.4063,198.2344 Q34.9063,198.2344 33.5781,196.5938 Q32.2656,194.9375 32.2656,191.8125 Q32.2656,188.6875 33.5781,187.0313 Q34.9063,185.375 37.4063,185.375 Q38.1094,185.375 38.75,185.5313 Q39.4063,185.6875 39.9688,185.9844 L39.9688,188.7031 Q39.3438,188.125 38.75,187.8594 Q38.1563,187.5781 37.5313,187.5781 Q36.1875,187.5781 35.5,188.6563 Q34.8125,189.7188 34.8125,191.8125 Q34.8125,193.9063 35.5,194.9844 Q36.1875,196.0469 37.5313,196.0469 Q38.1563,196.0469 38.75,195.7813 Q39.3438,195.5 39.9688,194.9219 L39.9688,197.6406 Z "/><text fill="#000000" font-family="sans-serif" font-size="12" lengthAdjust="spacingAndGlyphs" textLength="162" x="51" y="196.1543">ComplianceCheckRequest</text><line style="stroke: #A80036; stroke-width: 1.5;" x1="23" x2="215" y1="208" y2="208"/><line style="stroke: #A80036; stroke-width: 1.5;" x1="23" x2="215" y1="216" y2="216"/><ellipse cx="33" cy="227.9023" fill="#84BE84" rx="3" ry="3" style="stroke: #038048; stroke-width: 1.0;"/><text fill="#000000" font-family="sans-serif" font-size="11" lengthAdjust="spacingAndGlyphs" textLength="124" x="42" y="230.2104">getSessionId(): String</text><ellipse cx="33" cy="240.707" fill="#84BE84" rx="3" ry="3" style="stroke: #038048; stroke-width: 1.0;"/><text fill="#000000" font-family="sans-serif" font-size="11" lengthAdjust="spacingAndGlyphs" textLength="147" x="42" y="243.0151">setSessionId(String): void</text></a><!--class com.hack23.cia.service.api.action.kpi.Status--><a href="Status.html" target="_top" xlink:actuate="onRequest" xlink:show="new" xlink:title="Status.html" xlink:type="simple"><rect fill="#FEFECE" filter="url(#f5mxo39bn4uvx)" height="112.0234" id="com.hack23.cia.service.api.action.kpi.Status" style="stroke: #A80036; stroke-width: 1.5;" width="75" x="397.5" y="972"/><ellipse cx="413.4" cy="988" fill="#EB937F" rx="11" ry="11" style="stroke: #A80036; stroke-width: 1.0;"/><path d="M417.5094,994 L409.7906,994 L409.7906,981.6094 L417.5094,981.6094 L417.5094,983.7656 L412.2438,983.7656 L412.2438,986.4375 L417.0094,986.4375 L417.0094,988.5938 L412.2438,988.5938 L412.2438,991.8438 L417.5094,991.8438 L417.5094,994 Z "/><text fill="#000000" font-family="sans-serif" font-size="12" lengthAdjust="spacingAndGlyphs" textLength="41" x="427.6" y="992.1543">Status</text><line style="stroke: #A80036; stroke-width: 1.5;" x1="398.5" x2="471.5" y1="1004" y2="1004"/><ellipse cx="408.5" cy="1015.9023" fill="none" rx="3" ry="3" style="stroke: #038048; stroke-width: 1.0;"/><text fill="#000000" font-family="sans-serif" font-size="11" lengthAdjust="spacingAndGlyphs" text-decoration="underline" textLength="16" x="417.5" y="1018.2104">OK</text><ellipse cx="408.5" cy="1028.707" fill="none" rx="3" ry="3" style="stroke: #038048; stroke-width: 1.0;"/><text fill="#000000" font-family="sans-serif" font-size="11" lengthAdjust="spacingAndGlyphs" text-decoration="underline" textLength="36" x="417.5" y="1031.0151">MINOR</text><ellipse cx="408.5" cy="1041.5117" fill="none" rx="3" ry="3" style="stroke: #038048; stroke-width: 1.0;"/><text fill="#000000" font-family="sans-serif" font-size="11" lengthAdjust="spacingAndGlyphs" text-decoration="underline" textLength="35" x="417.5" y="1043.8198">MAJOR</text><ellipse cx="408.5" cy="1054.3164" fill="none" rx="3" ry="3" style="stroke: #038048; stroke-width: 1.0;"/><text fill="#000000" font-family="sans-serif" font-size="11" lengthAdjust="spacingAndGlyphs" text-decoration="underline" textLength="49" x="417.5" y="1056.6245">CRITICAL</text><ellipse cx="408.5" cy="1067.1211" fill="none" rx="3" ry="3" style="stroke: #038048; stroke-width: 1.0;"/><text fill="#000000" font-family="sans-serif" font-size="11" lengthAdjust="spacingAndGlyphs" text-decoration="underline" textLength="15" x="417.5" y="1069.4292">NA</text><line style="stroke: #A80036; stroke-width: 1.5;" x1="398.5" x2="471.5" y1="1076.0234" y2="1076.0234"/></a><!--class com.hack23.cia.service.api.action.kpi.RuleViolation--><a href="RuleViolation.html" target="_top" xlink:actuate="onRequest" xlink:show="new" xlink:title="RuleViolation.html" xlink:type="simple"><rect fill="#FEFECE" filter="url(#f5mxo39bn4uvx)" height="137.6328" id="com.hack23.cia.service.api.action.kpi.RuleViolation" style="stroke: #A80036; stroke-width: 1.5;" width="483" x="193.5" y="682"/><ellipse cx="390.25" cy="698" fill="#ADD1B2" rx="11" ry="11" style="stroke: #A80036; stroke-width: 1.0;"/><path d="M393.2188,703.6406 Q392.6406,703.9375 392,704.0781 Q391.3594,704.2344 390.6563,704.2344 Q388.1563,704.2344 386.8281,702.5938 Q385.5156,700.9375 385.5156,697.8125 Q385.5156,694.6875 386.8281,693.0313 Q388.1563,691.375 390.6563,691.375 Q391.3594,691.375 392,691.5313 Q392.6563,691.6875 393.2188,691.9844 L393.2188,694.7031 Q392.5938,694.125 392,693.8594 Q391.4063,693.5781 390.7813,693.5781 Q389.4375,693.5781 388.75,694.6563 Q388.0625,695.7188 388.0625,697.8125 Q388.0625,699.9063 388.75,700.9844 Q389.4375,702.0469 390.7813,702.0469 Q391.4063,702.0469 392,701.7813 Q392.5938,701.5 393.2188,700.9219 L393.2188,703.6406 Z "/><text fill="#000000" font-family="sans-serif" font-size="12" lengthAdjust="spacingAndGlyphs" textLength="81" x="410.75" y="702.1543">RuleViolation</text><line style="stroke: #A80036; stroke-width: 1.5;" x1="194.5" x2="675.5" y1="714" y2="714"/><line style="stroke: #A80036; stroke-width: 1.5;" x1="194.5" x2="675.5" y1="722" y2="722"/><ellipse cx="204.5" cy="733.9023" fill="#84BE84" rx="3" ry="3" style="stroke: #038048; stroke-width: 1.0;"/><text fill="#000000" font-family="sans-serif" font-size="11" lengthAdjust="spacingAndGlyphs" textLength="457" x="213.5" y="736.2104">RuleViolation(String, String, ResourceType, String, String, String, Status, String)</text><ellipse cx="204.5" cy="746.707" fill="#84BE84" rx="3" ry="3" style="stroke: #038048; stroke-width: 1.0;"/><text fill="#000000" font-family="sans-serif" font-size="11" lengthAdjust="spacingAndGlyphs" textLength="78" x="213.5" y="749.0151">getId(): String</text><ellipse cx="204.5" cy="759.5117" fill="#84BE84" rx="3" ry="3" style="stroke: #038048; stroke-width: 1.0;"/><text fill="#000000" font-family="sans-serif" font-size="11" lengthAdjust="spacingAndGlyphs" textLength="101" x="213.5" y="761.8198">getName(): String</text><ellipse cx="204.5" cy="772.3164" fill="#84BE84" rx="3" ry="3" style="stroke: #038048; stroke-width: 1.0;"/><text fill="#000000" font-family="sans-serif" font-size="11" lengthAdjust="spacingAndGlyphs" textLength="125" x="213.5" y="774.6245">getRuleName(): String</text><ellipse cx="204.5" cy="785.1211" fill="#84BE84" rx="3" ry="3" style="stroke: #038048; stroke-width: 1.0;"/><text fill="#000000" font-family="sans-serif" font-size="11" lengthAdjust="spacingAndGlyphs" textLength="156" x="213.5" y="787.4292">getRuleDescription(): String</text><ellipse cx="204.5" cy="797.9258" fill="#84BE84" rx="3" ry="3" style="stroke: #038048; stroke-width: 1.0;"/><text fill="#000000" font-family="sans-serif" font-size="11" lengthAdjust="spacingAndGlyphs" textLength="127" x="213.5" y="800.2339">getRuleGroup(): String</text><ellipse cx="204.5" cy="810.7305" fill="#84BE84" rx="3" ry="3" style="stroke: #038048; stroke-width: 1.0;"/><text fill="#000000" font-family="sans-serif" font-size="11" lengthAdjust="spacingAndGlyphs" textLength="112" x="213.5" y="813.0386">getPositive(): String</text></a><!--class com.hack23.cia.service.api.action.kpi.ComplianceCheckResponse--><a href="ComplianceCheckResponse.html" target="_top" xlink:actuate="onRequest" xlink:show="new" xlink:title="ComplianceCheckResponse.html" xlink:type="simple"><rect fill="#FEFECE" filter="url(#f5mxo39bn4uvx)" height="112.0234" id="com.hack23.cia.service.api.action.kpi.ComplianceCheckResponse" style="stroke: #A80036; stroke-width: 1.5;" width="425" x="251.5" y="157"/><ellipse cx="373.75" cy="173" fill="#ADD1B2" rx="11" ry="11" style="stroke: #A80036; stroke-width: 1.0;"/><path d="M376.7188,178.6406 Q376.1406,178.9375 375.5,179.0781 Q374.8594,179.2344 374.1563,179.2344 Q371.6563,179.2344 370.3281,177.5938 Q369.0156,175.9375 369.0156,172.8125 Q369.0156,169.6875 370.3281,168.0313 Q371.6563,166.375 374.1563,166.375 Q374.8594,166.375 375.5,166.5313 Q376.1563,166.6875 376.7188,166.9844 L376.7188,169.7031 Q376.0938,169.125 375.5,168.8594 Q374.9063,168.5781 374.2813,168.5781 Q372.9375,168.5781 372.25,169.6563 Q371.5625,170.7188 371.5625,172.8125 Q371.5625,174.9063 372.25,175.9844 Q372.9375,177.0469 374.2813,177.0469 Q374.9063,177.0469 375.5,176.7813 Q376.0938,176.5 376.7188,175.9219 L376.7188,178.6406 Z "/><text fill="#000000" font-family="sans-serif" font-size="12" lengthAdjust="spacingAndGlyphs" textLength="172" x="394.25" y="177.1543">ComplianceCheckResponse</text><line style="stroke: #A80036; stroke-width: 1.5;" x1="252.5" x2="675.5" y1="189" y2="189"/><line style="stroke: #A80036; stroke-width: 1.5;" x1="252.5" x2="675.5" y1="197" y2="197"/><ellipse cx="262.5" cy="208.9023" fill="#84BE84" rx="3" ry="3" style="stroke: #038048; stroke-width: 1.0;"/><text fill="#000000" font-family="sans-serif" font-size="11" lengthAdjust="spacingAndGlyphs" textLength="241" x="271.5" y="211.2104">ComplianceCheckResponse(ServiceResult)</text><ellipse cx="262.5" cy="221.707" fill="#84BE84" rx="3" ry="3" style="stroke: #038048; stroke-width: 1.0;"/><text fill="#000000" font-family="sans-serif" font-size="11" lengthAdjust="spacingAndGlyphs" textLength="290" x="271.5" y="224.0151">getStatusMap(): Map&lt;Status, List&lt;RuleViolation&gt;&gt;</text><ellipse cx="262.5" cy="234.5117" fill="#84BE84" rx="3" ry="3" style="stroke: #038048; stroke-width: 1.0;"/><text fill="#000000" font-family="sans-serif" font-size="11" lengthAdjust="spacingAndGlyphs" textLength="313" x="271.5" y="236.8198">setStatusMap(Map&lt;Status, List&lt;RuleViolation&gt;&gt;): void</text><ellipse cx="262.5" cy="247.3164" fill="#84BE84" rx="3" ry="3" style="stroke: #038048; stroke-width: 1.0;"/><text fill="#000000" font-family="sans-serif" font-size="11" lengthAdjust="spacingAndGlyphs" textLength="376" x="271.5" y="249.6245">getResourceTypeMap(): Map&lt;ResourceType, List&lt;RuleViolation&gt;&gt;</text><ellipse cx="262.5" cy="260.1211" fill="#84BE84" rx="3" ry="3" style="stroke: #038048; stroke-width: 1.0;"/><text fill="#000000" font-family="sans-serif" font-size="11" lengthAdjust="spacingAndGlyphs" textLength="399" x="271.5" y="262.4292">setResourceTypeMap(Map&lt;ResourceType, List&lt;RuleViolation&gt;&gt;): void</text></a><!--class com.hack23.cia.service.api.action.kpi.ComplianceCheck--><a href="ComplianceCheck.html" target="_top" xlink:actuate="onRequest" xlink:show="new" xlink:title="ComplianceCheck.html" xlink:type="simple"><rect fill="#FEFECE" filter="url(#f5mxo39bn4uvx)" height="99.2188" id="com.hack23.cia.service.api.action.kpi.ComplianceCheck" style="stroke: #A80036; stroke-width: 1.5;" width="199" x="356.5" y="444"/><ellipse cx="397.15" cy="460" fill="#B4A7E5" rx="11" ry="11" style="stroke: #A80036; stroke-width: 1.0;"/><path d="M393.0719,455.7656 L393.0719,453.6094 L400.4625,453.6094 L400.4625,455.7656 L397.9938,455.7656 L397.9938,463.8438 L400.4625,463.8438 L400.4625,466 L393.0719,466 L393.0719,463.8438 L395.5406,463.8438 L395.5406,455.7656 L393.0719,455.7656 Z "/><text fill="#000000" font-family="sans-serif" font-size="12" font-style="italic" lengthAdjust="spacingAndGlyphs" textLength="110" x="416.85" y="464.1543">ComplianceCheck</text><line style="stroke: #A80036; stroke-width: 1.5;" x1="357.5" x2="554.5" y1="476" y2="476"/><line style="stroke: #A80036; stroke-width: 1.5;" x1="357.5" x2="554.5" y1="484" y2="484"/><ellipse cx="367.5" cy="495.9023" fill="#84BE84" rx="3" ry="3" style="stroke: #038048; stroke-width: 1.0;"/><text fill="#000000" font-family="sans-serif" font-size="11" font-style="italic" lengthAdjust="spacingAndGlyphs" textLength="173" x="376.5" y="498.2104">getNumberRuleViolations(): int</text><ellipse cx="367.5" cy="508.707" fill="#84BE84" rx="3" ry="3" style="stroke: #038048; stroke-width: 1.0;"/><text fill="#000000" font-family="sans-serif" font-size="11" font-style="italic" lengthAdjust="spacingAndGlyphs" textLength="147" x="376.5" y="511.0151">getRuleSummary(): String</text><ellipse cx="367.5" cy="521.5117" fill="#84BE84" rx="3" ry="3" style="stroke: #038048; stroke-width: 1.0;"/><text fill="#000000" font-family="sans-serif" font-size="11" font-style="italic" lengthAdjust="spacingAndGlyphs" textLength="77" x="376.5" y="523.8198">getId(): String</text><ellipse cx="367.5" cy="534.3164" fill="#84BE84" rx="3" ry="3" style="stroke: #038048; stroke-width: 1.0;"/><text fill="#000000" font-family="sans-serif" font-size="11" font-style="italic" lengthAdjust="spacingAndGlyphs" textLength="100" x="376.5" y="536.6245">getName(): String</text></a><!--class com.hack23.cia.service.api.action.common.AbstractRequest--><a href="../common/AbstractRequest.html" target="_top" xlink:actuate="onRequest" xlink:show="new" xlink:title="../common/AbstractRequest.html" xlink:type="simple"><rect fill="#FEFECE" filter="url(#f5mxo39bn4uvx)" height="48" id="com.hack23.cia.service.api.action.common.AbstractRequest" style="stroke: #A80036; stroke-width: 1.5;" width="135" x="142.5" y="43"/><ellipse cx="157.5" cy="59" fill="#A9DCDF" rx="11" ry="11" style="stroke: #A80036; stroke-width: 1.0;"/><path d="M157.6094,54.3438 L156.4531,59.4219 L158.7813,59.4219 L157.6094,54.3438 Z M156.125,52.1094 L159.1094,52.1094 L162.4688,64.5 L160.0156,64.5 L159.25,61.4375 L155.9688,61.4375 L155.2188,64.5 L152.7813,64.5 L156.125,52.1094 Z "/><text fill="#000000" font-family="sans-serif" font-size="12" font-style="italic" lengthAdjust="spacingAndGlyphs" textLength="103" x="171.5" y="63.1543">AbstractRequest</text><line style="stroke: #A80036; stroke-width: 1.5;" x1="143.5" x2="276.5" y1="75" y2="75"/><line style="stroke: #A80036; stroke-width: 1.5;" x1="143.5" x2="276.5" y1="83" y2="83"/></a><!--class com.hack23.cia.service.api.action.common.AbstractResponse--><a href="../common/AbstractResponse.html" target="_top" xlink:actuate="onRequest" xlink:show="new" xlink:title="../common/AbstractResponse.html" xlink:type="simple"><rect fill="#FEFECE" filter="url(#f5mxo39bn4uvx)" height="48" id="com.hack23.cia.service.api.action.common.AbstractResponse" style="stroke: #A80036; stroke-width: 1.5;" width="144" x="336" y="43"/><ellipse cx="351" cy="59" fill="#A9DCDF" rx="11" ry="11" style="stroke: #A80036; stroke-width: 1.0;"/><path d="M351.1094,54.3438 L349.9531,59.4219 L352.2813,59.4219 L351.1094,54.3438 Z M349.625,52.1094 L352.6094,52.1094 L355.9688,64.5 L353.5156,64.5 L352.75,61.4375 L349.4688,61.4375 L348.7188,64.5 L346.2813,64.5 L349.625,52.1094 Z "/><text fill="#000000" font-family="sans-serif" font-size="12" font-style="italic" lengthAdjust="spacingAndGlyphs" textLength="112" x="365" y="63.1543">AbstractResponse</text><line style="stroke: #A80036; stroke-width: 1.5;" x1="337" x2="479" y1="75" y2="75"/><line style="stroke: #A80036; stroke-width: 1.5;" x1="337" x2="479" y1="83" y2="83"/></a><!--class java.io.Serializable--><rect fill="#FEFECE" filter="url(#f5mxo39bn4uvx)" height="48" id="java.io.Serializable" style="stroke: #A80036; stroke-width: 1.5;" width="103" x="701.5" y="335"/><ellipse cx="716.5" cy="351" fill="#B4A7E5" rx="11" ry="11" style="stroke: #A80036; stroke-width: 1.0;"/><path d="M712.4219,346.7656 L712.4219,344.6094 L719.8125,344.6094 L719.8125,346.7656 L717.3438,346.7656 L717.3438,354.8438 L719.8125,354.8438 L719.8125,357 L712.4219,357 L712.4219,354.8438 L714.8906,354.8438 L714.8906,346.7656 L712.4219,346.7656 Z "/><text fill="#000000" font-family="sans-serif" font-size="12" font-style="italic" lengthAdjust="spacingAndGlyphs" textLength="71" x="730.5" y="355.1543">Serializable</text><line style="stroke: #A80036; stroke-width: 1.5;" x1="702.5" x2="803.5" y1="367" y2="367"/><line style="stroke: #A80036; stroke-width: 1.5;" x1="702.5" x2="803.5" y1="375" y2="375"/><!--link com.hack23.cia.service.api.action.common.AbstractRequest to com.hack23.cia.service.api.action.kpi.ComplianceCheckRequest--><path d="M184.3857,108.0954 C171.0922,129.4234 154.9794,155.2748 142.0753,175.9781 " fill="none" id="com.hack23.cia.service.api.action.common.AbstractRequest-com.hack23.cia.service.api.action.kpi.ComplianceCheckRequest" style="stroke: #A80036; stroke-width: 1.0;"/><polygon fill="none" points="178.4535,104.3793,194.9732,91.1089,190.3346,111.7847,178.4535,104.3793" style="stroke: #A80036; stroke-width: 1.0;"/><!--link java.io.Serializable to com.hack23.cia.service.api.action.kpi.RuleViolation--><path d="M720.9234,399.1009 C679.6812,450.5975 605.7732,542.671 542,621 C525.8512,640.8347 508.2413,662.2977 492.0557,681.9589 " fill="none" id="java.io.Serializable-com.hack23.cia.service.api.action.kpi.RuleViolation" style="stroke: #A80036; stroke-width: 1.0; stroke-dasharray: 7.0,7.0;"/><polygon fill="none" points="715.6321,394.5096,733.5957,383.2708,726.5615,403.2589,715.6321,394.5096" style="stroke: #A80036; stroke-width: 1.0;"/><!--link com.hack23.cia.service.api.action.kpi.RuleViolation to com.hack23.cia.service.api.action.kpi.Status--><path d="M435,820.1843 C435,865.148 435,923.2442 435,966.5742 " fill="none" id="com.hack23.cia.service.api.action.kpi.RuleViolation-com.hack23.cia.service.api.action.kpi.Status" style="stroke: #A80036; stroke-width: 1.0;"/><polygon fill="#A80036" points="435,971.7833,439,962.7833,435,966.7833,431,962.7833,435,971.7833" style="stroke: #A80036; stroke-width: 1.0;"/><text fill="#000000" font-family="sans-serif" font-size="13" lengthAdjust="spacingAndGlyphs" textLength="40" x="436" y="894.0669">status</text><!--link com.hack23.cia.service.api.action.kpi.RuleViolation to com.hack23.cia.service.api.action.kpi.ResourceType--><path d="M362.8186,820.1843 C315.8227,865.2288 255.0762,923.4529 209.8434,966.8075 " fill="none" id="com.hack23.cia.service.api.action.kpi.RuleViolation-com.hack23.cia.service.api.action.kpi.ResourceType" style="stroke: #A80036; stroke-width: 1.0;"/><polygon fill="#A80036" points="206.0661,970.428,215.3314,967.0881,209.6758,966.9682,209.7957,961.3126,206.0661,970.428" style="stroke: #A80036; stroke-width: 1.0;"/><text fill="#000000" font-family="sans-serif" font-size="13" lengthAdjust="spacingAndGlyphs" textLength="86" x="298" y="894.0669">resourceType</text><!--link com.hack23.cia.service.api.action.common.AbstractResponse to com.hack23.cia.service.api.action.kpi.ComplianceCheckResponse--><path d="M424.4836,109.975 C430.129,124.6935 436.5309,141.384 442.5128,156.9799 " fill="none" id="com.hack23.cia.service.api.action.common.AbstractResponse-com.hack23.cia.service.api.action.kpi.ComplianceCheckResponse" style="stroke: #A80036; stroke-width: 1.0;"/><polygon fill="none" points="417.874,112.2893,417.2473,91.1089,430.9455,107.2756,417.874,112.2893" style="stroke: #A80036; stroke-width: 1.0;"/><!--link com.hack23.cia.service.api.action.kpi.ComplianceCheckResponse to com.hack23.cia.service.api.action.kpi.ComplianceCheck--><path d="M462.4003,269.0892 C460.9969,318.297 458.9679,389.4389 457.5726,438.3615 " fill="none" id="com.hack23.cia.service.api.action.kpi.ComplianceCheckResponse-com.hack23.cia.service.api.action.kpi.ComplianceCheck" style="stroke: #A80036; stroke-width: 1.0;"/><polygon fill="#A80036" points="457.4226,443.6187,461.6776,434.7364,457.5652,438.6207,453.6809,434.5083,457.4226,443.6187" style="stroke: #A80036; stroke-width: 1.0;"/><text fill="#000000" font-family="sans-serif" font-size="13" lengthAdjust="spacingAndGlyphs" textLength="18" x="462" y="363.5669">list</text><text fill="#000000" font-family="sans-serif" font-size="13" lengthAdjust="spacingAndGlyphs" textLength="7" x="450.1434" y="432.9692">*</text><!--link java.io.Serializable to com.hack23.cia.service.api.action.kpi.ComplianceCheck--><path d="M690.8593,391.7518 C638.3707,416.8824 594.0138,436.2792 555.6949,452.5231 " fill="none" id="java.io.Serializable-com.hack23.cia.service.api.action.kpi.ComplianceCheck" style="stroke: #A80036; stroke-width: 1.0; stroke-dasharray: 7.0,7.0;"/><polygon fill="none" points="687.9204,385.3977,708.9746,383.0058,694.0073,398.0052,687.9204,385.3977" style="stroke: #A80036; stroke-width: 1.0;"/><!--link com.hack23.cia.service.api.action.kpi.ComplianceCheck to com.hack23.cia.service.api.action.kpi.ResourceType--><path d="M356.3445,504.3488 C241.9746,519.6367 70,552.5859 70,612.5 C70,612.5 70,612.5 70,889.5 C70,912.0665 77.8504,934.4339 88.5051,954.3991 " fill="none" id="com.hack23.cia.service.api.action.kpi.ComplianceCheck-com.hack23.cia.service.api.action.kpi.ResourceType" style="stroke: #A80036; stroke-width: 1.0;"/><polygon fill="#A80036" points="90.9685,958.8868,90.1442,949.0725,88.5625,954.5037,83.1313,952.922,90.9685,958.8868" style="stroke: #A80036; stroke-width: 1.0;"/><text fill="#000000" font-family="sans-serif" font-size="13" lengthAdjust="spacingAndGlyphs" textLength="86" x="71" y="755.5669">resourceType</text><!--link com.hack23.cia.service.api.action.kpi.ComplianceCheck to com.hack23.cia.service.api.action.kpi.RuleViolation--><path d="M451.951,543.1486 C448.8701,580.9261 444.5794,633.5378 441.0858,676.376 " fill="none" id="com.hack23.cia.service.api.action.kpi.ComplianceCheck-com.hack23.cia.service.api.action.kpi.RuleViolation" style="stroke: #A80036; stroke-width: 1.0;"/><polygon fill="#A80036" points="440.6639,681.55,445.3825,672.9051,441.0705,676.5666,437.409,672.2545,440.6639,681.55" style="stroke: #A80036; stroke-width: 1.0;"/><text fill="#000000" font-family="sans-serif" font-size="13" lengthAdjust="spacingAndGlyphs" textLength="86" x="447" y="617.0669">ruleViolations</text><text fill="#000000" font-family="sans-serif" font-size="13" lengthAdjust="spacingAndGlyphs" textLength="7" x="433.8871" y="670.7072">*</text><text fill="#888888" font-family="sans-serif" font-size="10" lengthAdjust="spacingAndGlyphs" textLength="186" x="326.5" y="1132.2822">UMLDoclet 2.0.5, PlantUML 1.2019.08</text><!--
@startuml
    namespace com.hack23.cia.service.api.action.kpi {

        enum ResourceType [[ResourceType.html]] {
            {static} +POLITICIAN
            {static} +PARTY
            {static} +PARTY_LEADER
            {static} +COMMITTEE
            {static} +MINISTRY
            {static} +GOVERNMENT
            {static} +MINISTER
        }

        class ComplianceCheckRequest [[ComplianceCheckRequest.html]] {
            +getSessionId(): String
            +setSessionId(String): void
        }

        enum Status [[Status.html]] {
            {static} +OK
            {static} +MINOR
            {static} +MAJOR
            {static} +CRITICAL
            {static} +NA
        }

        class RuleViolation [[RuleViolation.html]] {
            +RuleViolation(String, String, ResourceType, String, String, String, Status, String)
            +getId(): String
            +getName(): String
            +getRuleName(): String
            +getRuleDescription(): String
            +getRuleGroup(): String
            +getPositive(): String
        }

        class ComplianceCheckResponse [[ComplianceCheckResponse.html]] {
            +ComplianceCheckResponse(ServiceResult)
            +getStatusMap(): Map<Status, List<RuleViolation>>
            +setStatusMap(Map<Status, List<RuleViolation>>): void
            +getResourceTypeMap(): Map<ResourceType, List<RuleViolation>>
            +setResourceTypeMap(Map<ResourceType, List<RuleViolation>>): void
        }

        interface ComplianceCheck [[ComplianceCheck.html]] {
            {abstract} +getNumberRuleViolations(): int
            {abstract} +getRuleSummary(): String
            {abstract} +getId(): String
            {abstract} +getName(): String
        }

        com.hack23.cia.service.api.action.common.AbstractRequest <|- - ComplianceCheckRequest
        java.io.Serializable <|.. RuleViolation
        RuleViolation - -> Status: status
        RuleViolation - -> ResourceType: resourceType
        com.hack23.cia.service.api.action.common.AbstractResponse <|- - ComplianceCheckResponse
        ComplianceCheckResponse - -> "*" ComplianceCheck: list
        java.io.Serializable <|.. ComplianceCheck
        ComplianceCheck - -> ResourceType: resourceType
        ComplianceCheck - -> "*" RuleViolation: ruleViolations
    }

    namespace com.hack23.cia.service.api.action.common {
        abstract class AbstractRequest [[../common/AbstractRequest.html]] {
        }
        abstract class AbstractResponse [[../common/AbstractResponse.html]] {
        }
    }

    namespace java.io {
        interface Serializable
    }

    center footer UMLDoclet 2.0.5, PlantUML 1.2019.08
@enduml

PlantUML version 1.2019.08(Sat Jul 13 21:25:14 CEST 2019)
(APACHE source distribution)
Java Runtime: OpenJDK Runtime Environment
JVM: OpenJDK 64-Bit Server VM
Java Version: 11.0.4+11-post-Ubuntu-1ubuntu219.04
Operating System: Linux
OS Version: 5.0.0-27-generic
Default Encoding: UTF-8
Language: en
Country: US
--></g></svg>