<?xml version="1.0" encoding="UTF-8" standalone="no"?><svg xmlns="http://www.w3.org/2000/svg" xmlns:xlink="http://www.w3.org/1999/xlink" contentStyleType="text/css" height="433px" preserveAspectRatio="none" style="width:888px;height:433px;background:#FFFFFF;" version="1.1" viewBox="0 0 888 433" width="888px" zoomAndPan="magnify"><defs/><g><!--MD5=[cbb0111ccb0741895fa998c1a69c3373]
cluster com.hack23.cia.web.impl.ui.application.views.common.pagelinks.api--><g id="cluster_com.hack23.cia.web.impl.ui.application.views.common.pagelinks.api"><path d="M8.5,162 L547.5,162 A3.75,3.75 0 0 1 550,164.5 L557,184.2969 L878.5,184.2969 A2.5,2.5 0 0 1 881,186.7969 L881,405.5 A2.5,2.5 0 0 1 878.5,408 L8.5,408 A2.5,2.5 0 0 1 6,405.5 L6,164.5 A2.5,2.5 0 0 1 8.5,162 " style="stroke:#000000;stroke-width:1.5;fill:none;"/><line style="stroke:#000000;stroke-width:1.5;fill:none;" x1="6" x2="557" y1="184.2969" y2="184.2969"/><text fill="#000000" font-family="sans-serif" font-size="14" font-weight="bold" lengthAdjust="spacing" textLength="538" x="10" y="176.9951">com.hack23.cia.web.impl.ui.application.views.common.pagelinks.api</text></g><!--MD5=[7daa114cf1e54529f617cc8f159c03a7]
cluster com.vaadin.ui.MenuBar--><g id="cluster_com.vaadin.ui.MenuBar"><path d="M255.5,14.5 L438.5,14.5 A3.75,3.75 0 0 1 441,17 L448,36.7969 L528.5,36.7969 A2.5,2.5 0 0 1 531,39.2969 L531,127 A2.5,2.5 0 0 1 528.5,129.5 L255.5,129.5 A2.5,2.5 0 0 1 253,127 L253,17 A2.5,2.5 0 0 1 255.5,14.5 " style="stroke:#000000;stroke-width:1.5;fill:none;"/><line style="stroke:#000000;stroke-width:1.5;fill:none;" x1="253" x2="448" y1="36.7969" y2="36.7969"/><text fill="#000000" font-family="sans-serif" font-size="14" font-weight="bold" lengthAdjust="spacing" textLength="182" x="257" y="29.4951">com.vaadin.ui.MenuBar</text></g><!--MD5=[92bb9a1df8f480dd31282a4089b0af55]
cluster com.vaadin.ui.Button--><g id="cluster_com.vaadin.ui.Button"><path d="M557.5,6 L723.5,6 A3.75,3.75 0 0 1 726,8.5 L733,28.2969 L846.5,28.2969 A2.5,2.5 0 0 1 849,30.7969 L849,135.5 A2.5,2.5 0 0 1 846.5,138 L557.5,138 A2.5,2.5 0 0 1 555,135.5 L555,8.5 A2.5,2.5 0 0 1 557.5,6 " style="stroke:#000000;stroke-width:1.5;fill:none;"/><line style="stroke:#000000;stroke-width:1.5;fill:none;" x1="555" x2="733" y1="28.2969" y2="28.2969"/><text fill="#000000" font-family="sans-serif" font-size="14" font-weight="bold" lengthAdjust="spacing" textLength="165" x="559" y="20.9951">com.vaadin.ui.Button</text></g><!--MD5=[9ad39903597e3d6f084eb531a4cef123]
class com.hack23.cia.web.impl.ui.application.views.common.pagelinks.api.PageModeMenuCommand--><a href="PageModeMenuCommand.html" target="_top" title="PageModeMenuCommand.html" xlink:actuate="onRequest" xlink:href="PageModeMenuCommand.html" xlink:show="new" xlink:title="PageModeMenuCommand.html" xlink:type="simple"><g id="elem_com.hack23.cia.web.impl.ui.application.views.common.pagelinks.api.PageModeMenuCommand"><rect codeLine="3" fill="#F1F1F1" height="162.0781" id="com.hack23.cia.web.impl.ui.application.views.common.pagelinks.api.PageModeMenuCommand" rx="2.5" ry="2.5" style="stroke:#181818;stroke-width:0.5;" width="390" x="475" y="213.5"/><ellipse cx="573.75" cy="229.5" fill="#ADD1B2" rx="11" ry="11" style="stroke:#181818;stroke-width:1.0;"/><path d="M576.7188,235.1406 Q576.1406,235.4375 575.5,235.5781 Q574.8594,235.7344 574.1563,235.7344 Q571.6563,235.7344 570.3281,234.0938 Q569.0156,232.4375 569.0156,229.3125 Q569.0156,226.1875 570.3281,224.5313 Q571.6563,222.875 574.1563,222.875 Q574.8594,222.875 575.5,223.0313 Q576.1563,223.1875 576.7188,223.4844 L576.7188,226.2031 Q576.0938,225.625 575.5,225.3594 Q574.9063,225.0781 574.2813,225.0781 Q572.9375,225.0781 572.25,226.1563 Q571.5625,227.2188 571.5625,229.3125 Q571.5625,231.4063 572.25,232.4844 Q572.9375,233.5469 574.2813,233.5469 Q574.9063,233.5469 575.5,233.2813 Q576.0938,233 576.7188,232.4219 L576.7188,235.1406 Z " fill="#000000"/><text fill="#000000" font-family="sans-serif" font-size="14" lengthAdjust="spacing" textLength="184" x="594.25" y="234.3467">PageModeMenuCommand</text><line style="stroke:#181818;stroke-width:0.5;" x1="476" x2="864" y1="245.5" y2="245.5"/><line style="stroke:#181818;stroke-width:0.5;" x1="476" x2="864" y1="253.5" y2="253.5"/><ellipse cx="486" cy="264.5" fill="#84BE84" rx="3" ry="3" style="stroke:#038048;stroke-width:1.0;"/><text fill="#000000" font-family="sans-serif" font-size="14" lengthAdjust="spacing" textLength="316" x="495" y="270.4951">PageModeMenuCommand(String, PageMode)</text><ellipse cx="486" cy="280.7969" fill="#84BE84" rx="3" ry="3" style="stroke:#038048;stroke-width:1.0;"/><text fill="#000000" font-family="sans-serif" font-size="14" lengthAdjust="spacing" textLength="364" x="495" y="286.792">PageModeMenuCommand(String, PageMode, String)</text><ellipse cx="486" cy="297.0938" fill="#84BE84" rx="3" ry="3" style="stroke:#038048;stroke-width:1.0;"/><text fill="#000000" font-family="sans-serif" font-size="14" lengthAdjust="spacing" textLength="282" x="495" y="303.0889">PageModeMenuCommand(String, String)</text><ellipse cx="486" cy="313.3906" fill="#84BE84" rx="3" ry="3" style="stroke:#038048;stroke-width:1.0;"/><text fill="#000000" font-family="sans-serif" font-size="14" lengthAdjust="spacing" textLength="330" x="495" y="319.3857">PageModeMenuCommand(String, String, String)</text><ellipse cx="486" cy="329.6875" fill="#84BE84" rx="3" ry="3" style="stroke:#038048;stroke-width:1.0;"/><text fill="#000000" font-family="sans-serif" font-size="14" lengthAdjust="spacing" textLength="196" x="495" y="335.6826">buttonClick(ClickEvent): void</text><ellipse cx="486" cy="345.9844" fill="#84BE84" rx="3" ry="3" style="stroke:#038048;stroke-width:1.0;"/><text fill="#000000" font-family="sans-serif" font-size="14" lengthAdjust="spacing" textLength="148" x="495" y="351.9795">getPagePath(): String</text><ellipse cx="486" cy="362.2813" fill="#84BE84" rx="3" ry="3" style="stroke:#038048;stroke-width:1.0;"/><text fill="#000000" font-family="sans-serif" font-size="14" lengthAdjust="spacing" textLength="217" x="495" y="368.2764">menuSelected(MenuItem): void</text></g></a><!--MD5=[914a8c46903c27a07689f22c386cc52d]
class com.hack23.cia.web.impl.ui.application.views.common.pagelinks.api.PageLinkFactory--><a href="PageLinkFactory.html" target="_top" title="PageLinkFactory.html" xlink:actuate="onRequest" xlink:href="PageLinkFactory.html" xlink:show="new" xlink:title="PageLinkFactory.html" xlink:type="simple"><g id="elem_com.hack23.cia.web.impl.ui.application.views.common.pagelinks.api.PageLinkFactory"><rect codeLine="13" fill="#F1F1F1" height="194.6719" id="com.hack23.cia.web.impl.ui.application.views.common.pagelinks.api.PageLinkFactory" rx="2.5" ry="2.5" style="stroke:#181818;stroke-width:0.5;" width="419" x="21.5" y="197"/><ellipse cx="170.25" cy="213" fill="#B4A7E5" rx="11" ry="11" style="stroke:#181818;stroke-width:1.0;"/><path d="M166.1719,208.7656 L166.1719,206.6094 L173.5625,206.6094 L173.5625,208.7656 L171.0938,208.7656 L171.0938,216.8438 L173.5625,216.8438 L173.5625,219 L166.1719,219 L166.1719,216.8438 L168.6406,216.8438 L168.6406,208.7656 L166.1719,208.7656 Z " fill="#000000"/><text fill="#000000" font-family="sans-serif" font-size="14" font-style="italic" lengthAdjust="spacing" textLength="113" x="190.75" y="217.8467">PageLinkFactory</text><line style="stroke:#181818;stroke-width:0.5;" x1="22.5" x2="439.5" y1="229" y2="229"/><line style="stroke:#181818;stroke-width:0.5;" x1="22.5" x2="439.5" y1="237" y2="237"/><ellipse cx="32.5" cy="248" fill="#84BE84" rx="3" ry="3" style="stroke:#038048;stroke-width:1.0;"/><text fill="#000000" font-family="sans-serif" font-size="14" font-style="italic" lengthAdjust="spacing" textLength="392" x="41.5" y="253.9951">addCommitteePageLink(ViewRiksdagenCommittee): Link</text><ellipse cx="32.5" cy="264.2969" fill="#84BE84" rx="3" ry="3" style="stroke:#038048;stroke-width:1.0;"/><text fill="#000000" font-family="sans-serif" font-size="14" font-style="italic" lengthAdjust="spacing" textLength="344" x="41.5" y="270.292">addMinistryPageLink(ViewRiksdagenMinistry): Link</text><ellipse cx="32.5" cy="280.5938" fill="#84BE84" rx="3" ry="3" style="stroke:#038048;stroke-width:1.0;"/><text fill="#000000" font-family="sans-serif" font-size="14" font-style="italic" lengthAdjust="spacing" textLength="308" x="41.5" y="286.5889">addPartyPageLink(ViewRiksdagenParty): Link</text><ellipse cx="32.5" cy="296.8906" fill="#84BE84" rx="3" ry="3" style="stroke:#038048;stroke-width:1.0;"/><text fill="#000000" font-family="sans-serif" font-size="14" font-style="italic" lengthAdjust="spacing" textLength="393" x="41.5" y="302.8857">createAdminPagingLink(String, String, String, String): Link</text><ellipse cx="32.5" cy="313.1875" fill="#84BE84" rx="3" ry="3" style="stroke:#038048;stroke-width:1.0;"/><text fill="#000000" font-family="sans-serif" font-size="14" font-style="italic" lengthAdjust="spacing" textLength="191" x="41.5" y="319.1826">createLoginPageLink(): Link</text><ellipse cx="32.5" cy="329.4844" fill="#84BE84" rx="3" ry="3" style="stroke:#038048;stroke-width:1.0;"/><text fill="#000000" font-family="sans-serif" font-size="14" font-style="italic" lengthAdjust="spacing" textLength="218" x="41.5" y="335.4795">createMainViewPageLink(): Link</text><ellipse cx="32.5" cy="345.7813" fill="#84BE84" rx="3" ry="3" style="stroke:#038048;stroke-width:1.0;"/><text fill="#000000" font-family="sans-serif" font-size="14" font-style="italic" lengthAdjust="spacing" textLength="291" x="41.5" y="351.7764">createPoliticianPageLink(PersonData): Link</text><ellipse cx="32.5" cy="362.0781" fill="#84BE84" rx="3" ry="3" style="stroke:#038048;stroke-width:1.0;"/><text fill="#000000" font-family="sans-serif" font-size="14" font-style="italic" lengthAdjust="spacing" textLength="210" x="41.5" y="368.0732">createRegisterPageLink(): Link</text><ellipse cx="32.5" cy="378.375" fill="#84BE84" rx="3" ry="3" style="stroke:#038048;stroke-width:1.0;"/><text fill="#000000" font-family="sans-serif" font-size="14" font-style="italic" lengthAdjust="spacing" textLength="259" x="41.5" y="384.3701">createUserHomeViewPageLink(): Link</text></g></a><!--MD5=[e593bd8ab1cef72060c569122393cb80]
class com.vaadin.ui.MenuBar.Command--><g id="elem_com.vaadin.ui.MenuBar.Command"><rect codeLine="30" fill="#F1F1F1" height="64.2969" id="com.vaadin.ui.MenuBar.Command" rx="2.5" ry="2.5" style="stroke:#181818;stroke-width:0.5;" width="245" x="269.5" y="49.5"/><ellipse cx="352.25" cy="65.5" fill="#B4A7E5" rx="11" ry="11" style="stroke:#181818;stroke-width:1.0;"/><path d="M348.1719,61.2656 L348.1719,59.1094 L355.5625,59.1094 L355.5625,61.2656 L353.0938,61.2656 L353.0938,69.3438 L355.5625,69.3438 L355.5625,71.5 L348.1719,71.5 L348.1719,69.3438 L350.6406,69.3438 L350.6406,61.2656 L348.1719,61.2656 Z " fill="#000000"/><text fill="#000000" font-family="sans-serif" font-size="14" font-style="italic" lengthAdjust="spacing" textLength="71" x="372.75" y="70.3467">Command</text><line style="stroke:#181818;stroke-width:0.5;" x1="270.5" x2="513.5" y1="81.5" y2="81.5"/><line style="stroke:#181818;stroke-width:0.5;" x1="270.5" x2="513.5" y1="89.5" y2="89.5"/><ellipse cx="280.5" cy="100.5" fill="#84BE84" rx="3" ry="3" style="stroke:#038048;stroke-width:1.0;"/><text fill="#000000" font-family="sans-serif" font-size="14" font-style="italic" lengthAdjust="spacing" textLength="219" x="289.5" y="106.4951">menuSelected(MenuItem): void</text></g><!--MD5=[c8b74d6c3e7b4a4086db53b8a4347040]
class com.vaadin.ui.Button.ClickListener--><g id="elem_com.vaadin.ui.Button.ClickListener"><rect codeLine="33" fill="#F1F1F1" height="80.5938" id="com.vaadin.ui.Button.ClickListener" rx="2.5" ry="2.5" style="stroke:#181818;stroke-width:0.5;" width="262" x="571" y="41"/><ellipse cx="654.25" cy="57" fill="#B4A7E5" rx="11" ry="11" style="stroke:#181818;stroke-width:1.0;"/><path d="M650.1719,52.7656 L650.1719,50.6094 L657.5625,50.6094 L657.5625,52.7656 L655.0938,52.7656 L655.0938,60.8438 L657.5625,60.8438 L657.5625,63 L650.1719,63 L650.1719,60.8438 L652.6406,60.8438 L652.6406,52.7656 L650.1719,52.7656 Z " fill="#000000"/><text fill="#000000" font-family="sans-serif" font-size="14" font-style="italic" lengthAdjust="spacing" textLength="87" x="674.75" y="61.8467">ClickListener</text><line style="stroke:#181818;stroke-width:0.5;" x1="572" x2="832" y1="73" y2="73"/><ellipse cx="582" cy="84" fill="none" rx="3" ry="3" style="stroke:#038048;stroke-width:1.0;"/><text fill="#000000" font-family="sans-serif" font-size="14" lengthAdjust="spacing" text-decoration="underline" textLength="236" x="591" y="89.9951">BUTTON_CLICK_METHOD: Method</text><line style="stroke:#181818;stroke-width:0.5;" x1="572" x2="832" y1="97.2969" y2="97.2969"/><ellipse cx="582" cy="108.2969" fill="#84BE84" rx="3" ry="3" style="stroke:#038048;stroke-width:1.0;"/><text fill="#000000" font-family="sans-serif" font-size="14" font-style="italic" lengthAdjust="spacing" textLength="198" x="591" y="114.292">buttonClick(ClickEvent): void</text></g><path d="M122.5,55 L217.5,55 A3.75,3.75 0 0 1 220,57.5 L227,77.2969 L231.5,77.2969 A2.5,2.5 0 0 1 234,79.7969 L234,105.0938 A2.5,2.5 0 0 1 231.5,107.5938 L122.5,107.5938 A2.5,2.5 0 0 1 120,105.0938 L120,57.5 A2.5,2.5 0 0 1 122.5,55 " fill="#F1F1F1" style="stroke:#181818;stroke-width:0.5;"/><line style="stroke:#181818;stroke-width:0.5;" x1="120" x2="227" y1="77.2969" y2="77.2969"/><text fill="#000000" font-family="sans-serif" font-size="14" lengthAdjust="spacing" textLength="94" x="124" y="69.9951">com.vaadin.ui</text><!--MD5=[4f43b2e422d671382f66b560ef145fab]
reverse link com.vaadin.ui.MenuBar.Command to com.hack23.cia.web.impl.ui.application.views.common.pagelinks.api.PageModeMenuCommand--><g id="link_com.vaadin.ui.MenuBar.Command_com.hack23.cia.web.impl.ui.application.views.common.pagelinks.api.PageModeMenuCommand"><path codeLine="25" d="M448.98,125.75 C482.26,151 525.29,183.67 564.53,213.45 " fill="none" id="com.vaadin.ui.MenuBar.Command-backto-com.hack23.cia.web.impl.ui.application.views.common.pagelinks.api.PageModeMenuCommand" style="stroke:#181818;stroke-width:1.0;stroke-dasharray:7.0,7.0;"/><polygon fill="none" points="444.72,131.3,433.02,113.63,453.18,120.15,444.72,131.3" style="stroke:#181818;stroke-width:1.0;"/></g><!--MD5=[0cbfbdd1fae41beb5b2bb1689ea8c98d]
reverse link com.vaadin.ui.Button.ClickListener to com.hack23.cia.web.impl.ui.application.views.common.pagelinks.api.PageModeMenuCommand--><g id="link_com.vaadin.ui.Button.ClickListener_com.hack23.cia.web.impl.ui.application.views.common.pagelinks.api.PageModeMenuCommand"><path codeLine="26" d="M692.95,142.19 C689.6,164.29 685.74,189.72 682.16,213.35 " fill="none" id="com.vaadin.ui.Button.ClickListener-backto-com.hack23.cia.web.impl.ui.application.views.common.pagelinks.api.PageModeMenuCommand" style="stroke:#181818;stroke-width:1.0;stroke-dasharray:7.0,7.0;"/><polygon fill="none" points="686.06,140.91,695.98,122.19,699.9,143.01,686.06,140.91" style="stroke:#181818;stroke-width:1.0;"/></g><rect height="11.6406" style="stroke:#00000000;stroke-width:1.0;fill:none;" width="186" x="344" y="414"/><text fill="#888888" font-family="sans-serif" font-size="10" lengthAdjust="spacing" textLength="186" x="344" y="423.2822">UMLDoclet 2.0.18, PlantUML 1.2022.6</text><!--MD5=[f6122fe6aa10bc0cdf863e651243ce4b]
@startuml
    namespace com.hack23.cia.web.impl.ui.application.views.common.pagelinks.api {

        class PageModeMenuCommand [[PageModeMenuCommand.html]] {
            +PageModeMenuCommand(String, PageMode)
            +PageModeMenuCommand(String, PageMode, String)
            +PageModeMenuCommand(String, String)
            +PageModeMenuCommand(String, String, String)
            +buttonClick(ClickEvent): void
            +getPagePath(): String
            +menuSelected(MenuItem): void
        }

        interface PageLinkFactory [[PageLinkFactory.html]] {
            {abstract} +addCommitteePageLink(ViewRiksdagenCommittee): Link
            {abstract} +addMinistryPageLink(ViewRiksdagenMinistry): Link
            {abstract} +addPartyPageLink(ViewRiksdagenParty): Link
            {abstract} +createAdminPagingLink(String, String, String, String): Link
            {abstract} +createLoginPageLink(): Link
            {abstract} +createMainViewPageLink(): Link
            {abstract} +createPoliticianPageLink(PersonData): Link
            {abstract} +createRegisterPageLink(): Link
            {abstract} +createUserHomeViewPageLink(): Link
        }

        com.vaadin.ui.MenuBar.Command <|.. PageModeMenuCommand
        com.vaadin.ui.Button.ClickListener <|.. PageModeMenuCommand
    }

    namespace com.vaadin.ui {
        interface com.vaadin.ui.MenuBar.Command {
            {abstract} +menuSelected(MenuItem): void
        }
        interface com.vaadin.ui.Button.ClickListener {
            {static} +BUTTON_CLICK_METHOD: Method
            {abstract} +buttonClick(ClickEvent): void
        }
    }

    center footer UMLDoclet 2.0.18, PlantUML 1.2022.6
@enduml

PlantUML version 1.2022.6(Tue Jun 21 19:34:49 CEST 2022)
(APACHE source distribution)
Java Runtime: OpenJDK Runtime Environment
JVM: OpenJDK 64-Bit Server VM
Default Encoding: ANSI_X3.4-1968
Language: en
Country: US
--></g></svg>