<?xml version="1.0" encoding="UTF-8" standalone="no"?><svg xmlns="http://www.w3.org/2000/svg" xmlns:xlink="http://www.w3.org/1999/xlink" contentScriptType="application/ecmascript" contentStyleType="text/css" height="292px" preserveAspectRatio="none" style="width:443px;height:292px;background:#FFFFFF;" version="1.1" viewBox="0 0 443 292" width="443px" zoomAndPan="magnify"><defs><filter height="300%" id="fgjlc2p97fkr5" width="300%" x="-1" y="-1"><feGaussianBlur result="blurOut" stdDeviation="2.0"/><feColorMatrix in="blurOut" result="blurOut2" type="matrix" values="0 0 0 0 0 0 0 0 0 0 0 0 0 0 0 0 0 0 .4 0"/><feOffset dx="4.0" dy="4.0" in="blurOut2" result="blurOut3"/><feBlend in="SourceGraphic" in2="blurOut3" mode="normal"/></filter></defs><g><!--MD5=[9ad39903597e3d6f084eb531a4cef123]
class com.hack23.cia.web.impl.ui.application.views.common.pagelinks.api.PageModeMenuCommand--><a href="PageModeMenuCommand.html" target="_top" title="PageModeMenuCommand.html" xlink:actuate="onRequest" xlink:href="PageModeMenuCommand.html" xlink:show="new" xlink:title="PageModeMenuCommand.html" xlink:type="simple"><rect codeLine="5" fill="#FEFECE" filter="url(#fgjlc2p97fkr5)" height="135.5703" id="com.hack23.cia.web.impl.ui.application.views.common.pagelinks.api.PageModeMenuCommand" style="stroke:#A80036;stroke-width:1.5;" width="357" x="43" y="126"/><ellipse cx="58" cy="144.9688" fill="#ADD1B2" rx="11" ry="11" style="stroke:#A80036;stroke-width:1.0;"/><path d="M60.9688,150.6094 Q60.3906,150.9063 59.75,151.0469 Q59.1094,151.2031 58.4063,151.2031 Q55.9063,151.2031 54.5781,149.5625 Q53.2656,147.9063 53.2656,144.7813 Q53.2656,141.6563 54.5781,140 Q55.9063,138.3438 58.4063,138.3438 Q59.1094,138.3438 59.75,138.5 Q60.4063,138.6563 60.9688,138.9531 L60.9688,141.6719 Q60.3438,141.0938 59.75,140.8281 Q59.1563,140.5469 58.5313,140.5469 Q57.1875,140.5469 56.5,141.625 Q55.8125,142.6875 55.8125,144.7813 Q55.8125,146.875 56.5,147.9531 Q57.1875,149.0156 58.5313,149.0156 Q59.1563,149.0156 59.75,148.75 Q60.3438,148.4688 60.9688,147.8906 L60.9688,150.6094 Z " fill="#000000"/><text fill="#000000" font-family="sans-serif" font-size="14" lengthAdjust="spacing" textLength="184" x="142.5" y="143.9951">PageModeMenuCommand</text><text fill="#000000" font-family="sans-serif" font-size="10" lengthAdjust="spacing" textLength="325" x="72" y="156.5791">com.hack23.cia.web.impl.ui.application.views.common.pagelinks.api</text><line style="stroke:#A80036;stroke-width:1.5;" x1="44" x2="399" y1="163.9375" y2="163.9375"/><ellipse cx="54" cy="174.9375" fill="#84BE84" rx="3" ry="3" style="stroke:#038048;stroke-width:1.0;"/><text fill="#000000" font-family="sans-serif" font-size="11" lengthAdjust="spacing" textLength="254" x="63" y="178.1479">PageModeMenuCommand(String, PageMode)</text><ellipse cx="54" cy="187.7422" fill="#84BE84" rx="3" ry="3" style="stroke:#038048;stroke-width:1.0;"/><text fill="#000000" font-family="sans-serif" font-size="11" lengthAdjust="spacing" textLength="296" x="63" y="190.9526">PageModeMenuCommand(String, PageMode, String)</text><ellipse cx="54" cy="200.5469" fill="#84BE84" rx="3" ry="3" style="stroke:#038048;stroke-width:1.0;"/><text fill="#000000" font-family="sans-serif" font-size="11" lengthAdjust="spacing" textLength="230" x="63" y="203.7573">PageModeMenuCommand(String, String)</text><ellipse cx="54" cy="213.3516" fill="#84BE84" rx="3" ry="3" style="stroke:#038048;stroke-width:1.0;"/><text fill="#000000" font-family="sans-serif" font-size="11" lengthAdjust="spacing" textLength="272" x="63" y="216.562">PageModeMenuCommand(String, String, String)</text><ellipse cx="54" cy="226.1563" fill="#84BE84" rx="3" ry="3" style="stroke:#038048;stroke-width:1.0;"/><text fill="#000000" font-family="sans-serif" font-size="11" lengthAdjust="spacing" textLength="158" x="63" y="229.3667">buttonClick(ClickEvent): void</text><ellipse cx="54" cy="238.9609" fill="#84BE84" rx="3" ry="3" style="stroke:#038048;stroke-width:1.0;"/><text fill="#000000" font-family="sans-serif" font-size="11" lengthAdjust="spacing" textLength="121" x="63" y="242.1714">getPagePath(): String</text><ellipse cx="54" cy="251.7656" fill="#84BE84" rx="3" ry="3" style="stroke:#038048;stroke-width:1.0;"/><text fill="#000000" font-family="sans-serif" font-size="11" lengthAdjust="spacing" textLength="175" x="63" y="254.9761">menuSelected(MenuItem): void</text></a><!--MD5=[e593bd8ab1cef72060c569122393cb80]
class com.vaadin.ui.MenuBar.Command--><rect codeLine="15" fill="#FEFECE" filter="url(#fgjlc2p97fkr5)" height="58.7422" id="com.vaadin.ui.MenuBar.Command" style="stroke:#A80036;stroke-width:1.5;" width="201" x="7" y="7"/><ellipse cx="36.4" cy="25.9688" fill="#B4A7E5" rx="11" ry="11" style="stroke:#A80036;stroke-width:1.0;"/><path d="M32.3219,21.7344 L32.3219,19.5781 L39.7125,19.5781 L39.7125,21.7344 L37.2438,21.7344 L37.2438,29.8125 L39.7125,29.8125 L39.7125,31.9688 L32.3219,31.9688 L32.3219,29.8125 L34.7906,29.8125 L34.7906,21.7344 L32.3219,21.7344 Z " fill="#000000"/><text fill="#000000" font-family="sans-serif" font-size="14" font-style="italic" lengthAdjust="spacing" textLength="137" x="53.6" y="24.9951">MenuBar.Command</text><text fill="#000000" font-family="sans-serif" font-size="10" font-style="italic" lengthAdjust="spacing" textLength="70" x="87.1" y="37.5791">com.vaadin.ui</text><line style="stroke:#A80036;stroke-width:1.5;" x1="8" x2="207" y1="44.9375" y2="44.9375"/><ellipse cx="18" cy="55.9375" fill="#84BE84" rx="3" ry="3" style="stroke:#038048;stroke-width:1.0;"/><text fill="#000000" font-family="sans-serif" font-size="11" font-style="italic" lengthAdjust="spacing" textLength="175" x="27" y="59.1479">menuSelected(MenuItem): void</text><!--MD5=[c8b74d6c3e7b4a4086db53b8a4347040]
class com.vaadin.ui.Button.ClickListener--><rect codeLine="18" fill="#FEFECE" filter="url(#fgjlc2p97fkr5)" height="58.7422" id="com.vaadin.ui.Button.ClickListener" style="stroke:#A80036;stroke-width:1.5;" width="186" x="243.5" y="7"/><ellipse cx="265.7" cy="25.9688" fill="#B4A7E5" rx="11" ry="11" style="stroke:#A80036;stroke-width:1.0;"/><path d="M261.6219,21.7344 L261.6219,19.5781 L269.0125,19.5781 L269.0125,21.7344 L266.5438,21.7344 L266.5438,29.8125 L269.0125,29.8125 L269.0125,31.9688 L261.6219,31.9688 L261.6219,29.8125 L264.0906,29.8125 L264.0906,21.7344 L261.6219,21.7344 Z " fill="#000000"/><text fill="#000000" font-family="sans-serif" font-size="14" font-style="italic" lengthAdjust="spacing" textLength="138" x="281.3" y="24.9951">Button.ClickListener</text><text fill="#000000" font-family="sans-serif" font-size="10" font-style="italic" lengthAdjust="spacing" textLength="70" x="315.3" y="37.5791">com.vaadin.ui</text><line style="stroke:#A80036;stroke-width:1.5;" x1="244.5" x2="428.5" y1="44.9375" y2="44.9375"/><ellipse cx="254.5" cy="55.9375" fill="#84BE84" rx="3" ry="3" style="stroke:#038048;stroke-width:1.0;"/><text fill="#000000" font-family="sans-serif" font-size="11" font-style="italic" lengthAdjust="spacing" textLength="160" x="263.5" y="59.1479">buttonClick(ClickEvent): void</text><!--MD5=[4f43b2e422d671382f66b560ef145fab]
reverse link com.vaadin.ui.MenuBar.Command to com.hack23.cia.web.impl.ui.application.views.common.pagelinks.api.PageModeMenuCommand--><path codeLine="22" d="M140.29,82.23 C150.29,95.86 161.5,111.16 172.33,125.93 " fill="none" id="com.vaadin.ui.MenuBar.Command-backto-com.hack23.cia.web.impl.ui.application.views.common.pagelinks.api.PageModeMenuCommand" style="stroke:#A80036;stroke-width:1.0;stroke-dasharray:7.0,7.0;"/><polygon fill="none" points="134.59,86.29,128.41,66.02,145.88,78.01,134.59,86.29" style="stroke:#A80036;stroke-width:1.0;"/><!--MD5=[0cbfbdd1fae41beb5b2bb1689ea8c98d]
reverse link com.vaadin.ui.Button.ClickListener to com.hack23.cia.web.impl.ui.application.views.common.pagelinks.api.PageModeMenuCommand--><path codeLine="23" d="M303.42,82.23 C293.34,95.86 282.03,111.16 271.1,125.93 " fill="none" id="com.vaadin.ui.Button.ClickListener-backto-com.hack23.cia.web.impl.ui.application.views.common.pagelinks.api.PageModeMenuCommand" style="stroke:#A80036;stroke-width:1.0;stroke-dasharray:7.0,7.0;"/><polygon fill="none" points="297.89,77.94,315.41,66.02,309.14,86.26,297.89,77.94" style="stroke:#A80036;stroke-width:1.0;"/><text fill="#888888" font-family="sans-serif" font-size="10" lengthAdjust="spacing" textLength="192" x="119.25" y="283.8525">UMLDoclet 2.0.15, PlantUML 1.2021.13</text><!--MD5=[810f2d6a8a27000f48bf8c25cd3d619e]
@startuml
    set namespaceSeparator none
    hide empty fields
    hide empty methods

    class "<size:14>PageModeMenuCommand\n<size:10>com.hack23.cia.web.impl.ui.application.views.common.pagelinks.api" as com.hack23.cia.web.impl.ui.application.views.common.pagelinks.api.PageModeMenuCommand [[PageModeMenuCommand.html]] {
        +PageModeMenuCommand(String, PageMode)
        +PageModeMenuCommand(String, PageMode, String)
        +PageModeMenuCommand(String, String)
        +PageModeMenuCommand(String, String, String)
        +buttonClick(ClickEvent): void
        +getPagePath(): String
        +menuSelected(MenuItem): void
    }

    interface "<size:14>MenuBar.Command\n<size:10>com.vaadin.ui" as com.vaadin.ui.MenuBar.Command {
        {abstract} +menuSelected(MenuItem): void
    }
    interface "<size:14>Button.ClickListener\n<size:10>com.vaadin.ui" as com.vaadin.ui.Button.ClickListener {
        {abstract} +buttonClick(ClickEvent): void
    }

    com.vaadin.ui.MenuBar.Command <|.. com.hack23.cia.web.impl.ui.application.views.common.pagelinks.api.PageModeMenuCommand
    com.vaadin.ui.Button.ClickListener <|.. com.hack23.cia.web.impl.ui.application.views.common.pagelinks.api.PageModeMenuCommand

    center footer UMLDoclet 2.0.15, PlantUML 1.2021.13
@enduml

PlantUML version 1.2021.13(Mon Nov 01 12:38:45 CET 2021)
(APACHE source distribution)
Java Runtime: OpenJDK Runtime Environment
JVM: OpenJDK 64-Bit Server VM
Default Encoding: UTF-8
Language: en
Country: US
--></g></svg>