<svg xmlns="http://www.w3.org/2000/svg" xmlns:xlink="http://www.w3.org/1999/xlink" contentStyleType="text/css" data-diagram-type="CLASS" height="331px" preserveAspectRatio="none" style="width:784px;height:331px;background:#FFFFFF;" version="1.1" viewBox="0 0 784 331" width="784px" zoomAndPan="magnify"><defs/><g><!--class com.hack23.cia.model.internal.application.data.document.impl.ViewRiksdagenPartyDocumentDailySummary--><g class="entity" data-entity="com.hack23.cia.model.internal.application.data.document.impl.ViewRiksdagenPartyDocumentDailySummary" data-source-line="13" data-uid="ent0002" id="entity_com.hack23.cia.model.internal.application.data.document.impl.ViewRiksdagenPartyDocumentDailySummary"><a href="ViewRiksdagenPartyDocumentDailySummary.html" target="_top" title="ViewRiksdagenPartyDocumentDailySummary.html" xlink:actuate="onRequest" xlink:href="ViewRiksdagenPartyDocumentDailySummary.html" xlink:show="new" xlink:title="ViewRiksdagenPartyDocumentDailySummary.html" xlink:type="simple"><rect fill="#F1F1F1" height="211.2312" rx="2.5" ry="2.5" style="stroke:#181818;stroke-width:0.5;" width="771.3293" x="6" y="91"/><ellipse cx="238.5042" cy="112.344" fill="#ADD1B2" rx="11" ry="11" style="stroke:#181818;stroke-width:1;"/><path d="M241.473,117.9846 Q240.8948,118.2815 240.2542,118.4221 Q239.6136,118.5783 238.9105,118.5783 Q236.4105,118.5783 235.0823,116.9377 Q233.7698,115.2815 233.7698,112.1565 Q233.7698,109.0315 235.0823,107.3752 Q236.4105,105.719 238.9105,105.719 Q239.6136,105.719 240.2542,105.8752 Q240.9105,106.0315 241.473,106.3283 L241.473,109.0471 Q240.848,108.469 240.2542,108.2033 Q239.6605,107.9221 239.0355,107.9221 Q237.6917,107.9221 237.0042,109.0002 Q236.3167,110.0627 236.3167,112.1565 Q236.3167,114.2502 237.0042,115.3283 Q237.6917,116.3908 239.0355,116.3908 Q239.6605,116.3908 240.2542,116.1252 Q240.848,115.844 241.473,115.2658 L241.473,117.9846 Z " fill="#000000"/><text fill="#000000" font-family="sans-serif" font-size="14" lengthAdjust="spacing" textLength="297.8209" x="259.0042" y="110.9659">ViewRiksdagenPartyDocumentDailySummary</text><text fill="#000000" font-family="sans-serif" font-size="10" lengthAdjust="spacing" textLength="295.7798" x="260.0247" y="125.7579">com.hack23.cia.model.internal.application.data.document.impl</text><line style="stroke:#181818;stroke-width:0.5;" x1="7" x2="776.3293" y1="133.6879" y2="133.6879"/><polygon fill="none" points="17,143.7219,21,147.7219,17,151.7219,13,147.7219" style="stroke:#B38D22;stroke-width:1;"/><text fill="#000000" font-family="sans-serif" font-size="14" lengthAdjust="spacing" textLength="410.8985" x="26" y="152.6538">embeddedId: RiksdagenDocumentPartySummaryEmbeddedId</text><polygon fill="none" points="17,162.7898,21,166.7898,17,170.7898,13,166.7898" style="stroke:#B38D22;stroke-width:1;"/><text fill="#000000" font-family="sans-serif" font-size="14" lengthAdjust="spacing" textLength="66.7798" x="26" y="171.7218">total: long</text><line style="stroke:#181818;stroke-width:0.5;" x1="7" x2="776.3293" y1="179.8237" y2="179.8237"/><ellipse cx="17" cy="194.8577" fill="#84BE84" rx="3" ry="3" style="stroke:#038048;stroke-width:1;"/><text fill="#000000" font-family="sans-serif" font-size="14" lengthAdjust="spacing" textLength="440.7463" x="26" y="198.7897">getEmbeddedId(): RiksdagenDocumentPartySummaryEmbeddedId</text><ellipse cx="17" cy="213.9256" fill="#84BE84" rx="3" ry="3" style="stroke:#038048;stroke-width:1;"/><text fill="#000000" font-family="sans-serif" font-size="14" lengthAdjust="spacing" textLength="466.6463" x="26" y="217.8576">setEmbeddedId(RiksdagenDocumentPartySummaryEmbeddedId): void</text><ellipse cx="17" cy="232.9935" fill="#84BE84" rx="3" ry="3" style="stroke:#038048;stroke-width:1;"/><text fill="#000000" font-family="sans-serif" font-size="14" lengthAdjust="spacing" textLength="99.4696" x="26" y="236.9255">getTotal(): long</text><ellipse cx="17" cy="252.0614" fill="#84BE84" rx="3" ry="3" style="stroke:#038048;stroke-width:1;"/><text fill="#000000" font-family="sans-serif" font-size="14" lengthAdjust="spacing" textLength="125.3695" x="26" y="255.9934">setTotal(long): void</text><ellipse cx="17" cy="271.1294" fill="#84BE84" rx="3" ry="3" style="stroke:#038048;stroke-width:1;"/><text fill="#000000" font-family="sans-serif" font-size="14" lengthAdjust="spacing" textLength="745.3293" x="26" y="275.0613">withEmbeddedId(RiksdagenDocumentPartySummaryEmbeddedId): ViewRiksdagenPartyDocumentDailySummary</text><ellipse cx="17" cy="290.1973" fill="#84BE84" rx="3" ry="3" style="stroke:#038048;stroke-width:1;"/><text fill="#000000" font-family="sans-serif" font-size="14" lengthAdjust="spacing" textLength="404.0524" x="26" y="294.1293">withTotal(long): ViewRiksdagenPartyDocumentDailySummary</text></a></g><!--class com.hack23.cia.model.common.api.ModelObject--><g class="entity" data-entity="com.hack23.cia.model.common.api.ModelObject" data-source-line="24" data-uid="ent0003" id="entity_com.hack23.cia.model.common.api.ModelObject"><rect fill="#F1F1F1" height="42.6879" rx="2.5" ry="2.5" style="stroke:#181818;stroke-width:0.5;" width="189.3398" x="297" y="12"/><ellipse cx="312" cy="33.344" fill="#B4A7E5" rx="11" ry="11" style="stroke:#181818;stroke-width:1;"/><path d="M307.9219,29.1096 L307.9219,26.9533 L315.3125,26.9533 L315.3125,29.1096 L312.8438,29.1096 L312.8438,37.1877 L315.3125,37.1877 L315.3125,39.344 L307.9219,39.344 L307.9219,37.1877 L310.3906,37.1877 L310.3906,29.1096 L307.9219,29.1096 Z " fill="#000000"/><text fill="#000000" font-family="sans-serif" font-size="14" font-style="italic" lengthAdjust="spacing" textLength="78.1477" x="365.596" y="31.9659">ModelObject</text><text fill="#000000" font-family="sans-serif" font-size="10" font-style="italic" lengthAdjust="spacing" textLength="157.3398" x="326" y="46.7579">com.hack23.cia.model.common.api</text></g><g class="link" data-entity-1="com.hack23.cia.model.common.api.ModelObject" data-entity-2="com.hack23.cia.model.internal.application.data.document.impl.ViewRiksdagenPartyDocumentDailySummary" data-uid="lnk4" id="link_com.hack23.cia.model.common.api.ModelObject_com.hack23.cia.model.internal.application.data.document.impl.ViewRiksdagenPartyDocumentDailySummary"><polygon fill="none" points="391.5,55.2183,385.5,73.2183,397.5,73.2183,391.5,55.2183" style="stroke:#181818;stroke-width:1;"/><path d="M391.5,73.2183 C391.5,82.9851 391.5,77.4416 391.5,90.8868" fill="none" style="stroke:#181818;stroke-width:1;stroke-dasharray:7,7;"/></g><g class="footer" data-source-line="34"><text fill="#888888" font-family="sans-serif" font-size="10" lengthAdjust="spacing" textLength="2.6" x="386.7" y="306.69">&#160;</text><a href="https://github.com/talsma-ict/umldoclet" target="_top" title="https://github.com/talsma-ict/umldoclet" xlink:actuate="onRequest" xlink:href="https://github.com/talsma-ict/umldoclet" xlink:show="new" xlink:title="https://github.com/talsma-ict/umldoclet" xlink:type="simple"><text fill="#888888" font-family="sans-serif" font-size="10" lengthAdjust="spacing" textLength="76.7199" x="349.64" y="320.31">UMLDoclet 2.2.4</text></a></g><!--SRC=[lLNRJjj047tdAwRmK11aunX28K98AA125LH4Gbz27YRUYRtDNbpl6kIs_7lNZic5jcfefVh5ybpEEJCxEmO0U0jTanQPY1C7pe1BX8MxwnwWvX2JfWmTSH0AOx8m9cbqR6U119Yxn6HW9jLNPBACR6eq5pg63_Y0O4sUHMJPnWPKL8Ddz4UqI-ZZeZIUcqYIW-tkpfAaC6WTDi8WF8G1IgiGhhe3LgCjSa8MiWFms594fAs7p3Mdh99rbcBaNxsPPmyUABF2Q9yJr3XbgP7H3eMsa6BcR5dIZKJjIgqjvldRh1N0zbc_joekEAx4xS5PfZ7dS6k-vFDwtwGPnbwonCBa3gmYXnfdFkjLQrI-NnXHdpmhEjzARJHL_aHm0bAfAs0YI7Bxqkh14kFDbJsIQ2ridbZnbJgjWzDFWXvlnTHoVshwnbTK-4RbYhGxHo6BVguKPiMzhXE2qyWebc0q3VTP990fmqaoeHtviYJ3DFMDHUVRnZWwPBn6OqAbSXFyOVuB05jFBWo7wmMon2av6i6tgZVbiqLgJ9mJl-8Tc0CyvrP0TUx5F72Hx8n3sO5ozEV6tPZS8dPxv_MmktO5OSrqJ_HW15_HCIZrbH9M5TfdJsd-AUzHkEIlwDSxWrMY5Hsl07YQZNSrHnD_KPP6_BgSi8_ZpnIvFysnDoe_U9YAtu_g8eOj8TUtQ_q4EFdEsF-u33Db9zOLaaxdpPuOuqcM1hzyBekKifxGqwwHViLi7VtQUrTkJ2aq-IKTJJNvXHBC8vzcTCqblfhhNW-7YNEfxJIRiJ_gV5osfkcgRTqGaMlcIlBPcdwni4UZUW6_d_y9ocNQ2C96S3m8sfqWx1mSiVQx_VPH-p3OtmrQdI0ONkIPIQdPToQQ9aQgqGy0]--></g></svg>