<svg xmlns="http://www.w3.org/2000/svg" xmlns:xlink="http://www.w3.org/1999/xlink" contentStyleType="text/css" data-diagram-type="CLASS" height="331px" preserveAspectRatio="none" style="width:778px;height:331px;background:#FFFFFF;" version="1.1" viewBox="0 0 778 331" width="778px" zoomAndPan="magnify"><defs/><g><!--class com.hack23.cia.model.internal.application.data.document.impl.ViewRiksdagenDocumentTypeDailySummary--><g class="entity" data-entity="com.hack23.cia.model.internal.application.data.document.impl.ViewRiksdagenDocumentTypeDailySummary" data-source-line="13" data-uid="ent0002" id="entity_com.hack23.cia.model.internal.application.data.document.impl.ViewRiksdagenDocumentTypeDailySummary"><a href="ViewRiksdagenDocumentTypeDailySummary.html" target="_top" title="ViewRiksdagenDocumentTypeDailySummary.html" xlink:actuate="onRequest" xlink:href="ViewRiksdagenDocumentTypeDailySummary.html" xlink:show="new" xlink:title="ViewRiksdagenDocumentTypeDailySummary.html" xlink:type="simple"><rect fill="#F1F1F1" height="211.2312" rx="2.5" ry="2.5" style="stroke:#181818;stroke-width:0.5;" width="765.5893" x="6" y="91"/><ellipse cx="236.6548" cy="112.344" fill="#ADD1B2" rx="11" ry="11" style="stroke:#181818;stroke-width:1;"/><path d="M239.6235,117.9846 Q239.0454,118.2815 238.4048,118.4221 Q237.7641,118.5783 237.061,118.5783 Q234.561,118.5783 233.2329,116.9377 Q231.9204,115.2815 231.9204,112.1565 Q231.9204,109.0315 233.2329,107.3752 Q234.561,105.719 237.061,105.719 Q237.7641,105.719 238.4048,105.8752 Q239.061,106.0315 239.6235,106.3283 L239.6235,109.0471 Q238.9985,108.469 238.4048,108.2033 Q237.811,107.9221 237.186,107.9221 Q235.8423,107.9221 235.1548,109.0002 Q234.4673,110.0627 234.4673,112.1565 Q234.4673,114.2502 235.1548,115.3283 Q235.8423,116.3908 237.186,116.3908 Q237.811,116.3908 238.4048,116.1252 Q238.9985,115.844 239.6235,115.2658 L239.6235,117.9846 Z " fill="#000000"/><text fill="#000000" font-family="sans-serif" font-size="14" lengthAdjust="spacing" textLength="294.9509" x="257.5692" y="110.9659">ViewRiksdagenDocumentTypeDailySummary</text><text fill="#000000" font-family="sans-serif" font-size="10" lengthAdjust="spacing" textLength="295.7798" x="257.1548" y="125.7579">com.hack23.cia.model.internal.application.data.document.impl</text><line style="stroke:#181818;stroke-width:0.5;" x1="7" x2="770.5893" y1="133.6879" y2="133.6879"/><polygon fill="none" points="17,143.7219,21,147.7219,17,151.7219,13,147.7219" style="stroke:#B38D22;stroke-width:1;"/><text fill="#000000" font-family="sans-serif" font-size="14" lengthAdjust="spacing" textLength="408.0284" x="26" y="152.6538">embeddedId: RiksdagenDocumentTypeSummaryEmbeddedId</text><polygon fill="none" points="17,162.7898,21,166.7898,17,170.7898,13,166.7898" style="stroke:#B38D22;stroke-width:1;"/><text fill="#000000" font-family="sans-serif" font-size="14" lengthAdjust="spacing" textLength="66.7798" x="26" y="171.7218">total: long</text><line style="stroke:#181818;stroke-width:0.5;" x1="7" x2="770.5893" y1="179.8237" y2="179.8237"/><ellipse cx="17" cy="194.8577" fill="#84BE84" rx="3" ry="3" style="stroke:#038048;stroke-width:1;"/><text fill="#000000" font-family="sans-serif" font-size="14" lengthAdjust="spacing" textLength="437.8763" x="26" y="198.7897">getEmbeddedId(): RiksdagenDocumentTypeSummaryEmbeddedId</text><ellipse cx="17" cy="213.9256" fill="#84BE84" rx="3" ry="3" style="stroke:#038048;stroke-width:1;"/><text fill="#000000" font-family="sans-serif" font-size="14" lengthAdjust="spacing" textLength="463.7762" x="26" y="217.8576">setEmbeddedId(RiksdagenDocumentTypeSummaryEmbeddedId): void</text><ellipse cx="17" cy="232.9935" fill="#84BE84" rx="3" ry="3" style="stroke:#038048;stroke-width:1;"/><text fill="#000000" font-family="sans-serif" font-size="14" lengthAdjust="spacing" textLength="99.4696" x="26" y="236.9255">getTotal(): long</text><ellipse cx="17" cy="252.0614" fill="#84BE84" rx="3" ry="3" style="stroke:#038048;stroke-width:1;"/><text fill="#000000" font-family="sans-serif" font-size="14" lengthAdjust="spacing" textLength="125.3695" x="26" y="255.9934">setTotal(long): void</text><ellipse cx="17" cy="271.1294" fill="#84BE84" rx="3" ry="3" style="stroke:#038048;stroke-width:1;"/><text fill="#000000" font-family="sans-serif" font-size="14" lengthAdjust="spacing" textLength="739.5893" x="26" y="275.0613">withEmbeddedId(RiksdagenDocumentTypeSummaryEmbeddedId): ViewRiksdagenDocumentTypeDailySummary</text><ellipse cx="17" cy="290.1973" fill="#84BE84" rx="3" ry="3" style="stroke:#038048;stroke-width:1;"/><text fill="#000000" font-family="sans-serif" font-size="14" lengthAdjust="spacing" textLength="401.1824" x="26" y="294.1293">withTotal(long): ViewRiksdagenDocumentTypeDailySummary</text></a></g><!--class com.hack23.cia.model.common.api.ModelObject--><g class="entity" data-entity="com.hack23.cia.model.common.api.ModelObject" data-source-line="24" data-uid="ent0003" id="entity_com.hack23.cia.model.common.api.ModelObject"><rect fill="#F1F1F1" height="42.6879" rx="2.5" ry="2.5" style="stroke:#181818;stroke-width:0.5;" width="189.3398" x="294.5" y="12"/><ellipse cx="309.5" cy="33.344" fill="#B4A7E5" rx="11" ry="11" style="stroke:#181818;stroke-width:1;"/><path d="M305.4219,29.1096 L305.4219,26.9533 L312.8125,26.9533 L312.8125,29.1096 L310.3438,29.1096 L310.3438,37.1877 L312.8125,37.1877 L312.8125,39.344 L305.4219,39.344 L305.4219,37.1877 L307.8906,37.1877 L307.8906,29.1096 L305.4219,29.1096 Z " fill="#000000"/><text fill="#000000" font-family="sans-serif" font-size="14" font-style="italic" lengthAdjust="spacing" textLength="78.1477" x="363.096" y="31.9659">ModelObject</text><text fill="#000000" font-family="sans-serif" font-size="10" font-style="italic" lengthAdjust="spacing" textLength="157.3398" x="323.5" y="46.7579">com.hack23.cia.model.common.api</text></g><g class="link" data-entity-1="com.hack23.cia.model.common.api.ModelObject" data-entity-2="com.hack23.cia.model.internal.application.data.document.impl.ViewRiksdagenDocumentTypeDailySummary" data-uid="lnk4" id="link_com.hack23.cia.model.common.api.ModelObject_com.hack23.cia.model.internal.application.data.document.impl.ViewRiksdagenDocumentTypeDailySummary"><polygon fill="none" points="389,55.2183,383,73.2183,395,73.2183,389,55.2183" style="stroke:#181818;stroke-width:1;"/><path d="M389,73.2183 C389,82.9851 389,77.4416 389,90.8868" fill="none" style="stroke:#181818;stroke-width:1;stroke-dasharray:7,7;"/></g><g class="footer" data-source-line="34"><text fill="#888888" font-family="sans-serif" font-size="10" lengthAdjust="spacing" textLength="2.6" x="384.2" y="306.69">&#160;</text><a href="https://github.com/talsma-ict/umldoclet" target="_top" title="https://github.com/talsma-ict/umldoclet" xlink:actuate="onRequest" xlink:href="https://github.com/talsma-ict/umldoclet" xlink:show="new" xlink:title="https://github.com/talsma-ict/umldoclet" xlink:type="simple"><text fill="#888888" font-family="sans-serif" font-size="10" lengthAdjust="spacing" textLength="76.7199" x="347.14" y="320.31">UMLDoclet 2.2.4</text></a></g><!--SRC=[lLJRJXin47tdAwRmK134SRQ0aWWX8K0jLL0h4leIyZ1PJtRT-B9TUq5fox_NkrboeLHDMwdx4cKkvnoFnmS0u3MSssoMooJru2tuL3gulUu16W496ShHam2fCI47OrBM96vUI825JsqETbBzYssUayki4T8ay1xl4PmjyfWSszg2YchmXFw0RWLzF2k35pPMv67tV6z5KiHRnus8HySmGEKqmjNvWDLeovw8HUmG0hQICHaN80iZAAzadMKOXv_UF7C0zvGxQKteuJLEUTJO6e_IECWmzwuyqaU5nfTQMopm7x4MXzspVczT7EzKuWxWB3TO2BYnNuh5ULzbEIP1iiAPBJmuJHuDpdCkg3QemxmmfZu5LlHXbCOQglAf50IaCp-3YIGbtFDe04jj25VnMA5pi7tYv5VgjWvFFqbwk95J9yAjcJ2ZGfFnWrb65oZLh5zeZVdipjJr_3IscgKOJwCtB9R8j1Mac3IUmgaKmomBSqKVfiO4UcIYHcHIPseRmbt-2m3RI2qCXnlLiTHhDHh1jsemvRT3Uan2aBWINNYnlswzNDGjUxtrgBfGhlqYk9-GNzRkxlqnwhvR0zYiEz3SModML0nATQM0TNtkALE6V-fxa3xz6_QDnhzEiwPYy_x7-LPN-pC9xsDbiw_BpVem_aon_zt-Xg0E2uUP_FMABclO2dBzg3PlW9FlZFs7Hp0NTkByJD7fOjGJQmF7oiQNtxlGclUacPvR5Onbf_rozhRqIIKD1MkEfuQ2ZV15vUEShhd2LtFTcU4mzJvptMOp2HTTZCl9D7tbqGqP-sQXbPYRypER7ergstsxyF_IGXiyQl3EW1zrUTGzRBEZDczrsiUyiyzRNSw7bqLkCshslOsdgLLwz0C0]--></g></svg>