<svg xmlns="http://www.w3.org/2000/svg" xmlns:xlink="http://www.w3.org/1999/xlink" contentStyleType="text/css" height="236px" preserveAspectRatio="none" style="width:459px;height:236px;background:#FFFFFF;" version="1.1" viewBox="0 0 459 236" width="459px" zoomAndPan="magnify"><defs/><g><!--class com.hack23.cia.web.impl.ui.application.views.user.politicianranking.pagemode.PoliticianRankingPageVisitHistoryPageModContentFactoryImpl--><a href="PoliticianRankingPageVisitHistoryPageModContentFactoryImpl.html" target="_top" title="PoliticianRankingPageVisitHistoryPageModContentFactoryImpl.html" xlink:actuate="onRequest" xlink:href="PoliticianRankingPageVisitHistoryPageModContentFactoryImpl.html" xlink:show="new" xlink:title="PoliticianRankingPageVisitHistoryPageModContentFactoryImpl.html" xlink:type="simple"><g id="elem_com.hack23.cia.web.impl.ui.application.views.user.politicianranking.pagemode.PoliticianRankingPageVisitHistoryPageModContentFactoryImpl"><rect codeLine="13" fill="#F1F1F1" height="115.8917" id="com.hack23.cia.web.impl.ui.application.views.user.politicianranking.pagemode.PoliticianRankingPageVisitHistoryPageModContentFactoryImpl" rx="2.5" ry="2.5" style="stroke:#181818;stroke-width:0.5;" width="446.1605" x="6" y="91"/><ellipse cx="21" cy="112.344" fill="#ADD1B2" rx="11" ry="11" style="stroke:#181818;stroke-width:1.0;"/><path d="M23.9688,117.9846 Q23.3906,118.2815 22.75,118.4221 Q22.1094,118.5783 21.4063,118.5783 Q18.9063,118.5783 17.5781,116.9377 Q16.2656,115.2815 16.2656,112.1565 Q16.2656,109.0315 17.5781,107.3752 Q18.9063,105.719 21.4063,105.719 Q22.1094,105.719 22.75,105.8752 Q23.4063,106.0315 23.9688,106.3283 L23.9688,109.0471 Q23.3438,108.469 22.75,108.2033 Q22.1563,107.9221 21.5313,107.9221 Q20.1875,107.9221 19.5,109.0002 Q18.8125,110.0627 18.8125,112.1565 Q18.8125,114.2502 19.5,115.3283 Q20.1875,116.3908 21.5313,116.3908 Q22.1563,116.3908 22.75,116.1252 Q23.3438,115.844 23.9688,115.2658 L23.9688,117.9846 Z " fill="#000000"/><text fill="#000000" font-family="sans-serif" font-size="14" lengthAdjust="spacing" textLength="414.1605" x="35" y="110.9659">PoliticianRankingPageVisitHistoryPageModContentFactoryImpl</text><text fill="#000000" font-family="sans-serif" font-size="10" lengthAdjust="spacing" textLength="370.6497" x="56.7554" y="125.7579">com.hack23.cia.web.impl.ui.application.views.user.politicianranking.pagemode</text><line style="stroke:#181818;stroke-width:0.5;" x1="7" x2="451.1605" y1="133.6879" y2="133.6879"/><ellipse cx="17" cy="148.7219" fill="none" rx="3" ry="3" style="stroke:#038048;stroke-width:1.0;"/><text fill="#000000" font-family="sans-serif" font-size="14" lengthAdjust="spacing" text-decoration="underline" textLength="86.8557" x="26" y="152.6538">NAME: String</text><line style="stroke:#181818;stroke-width:0.5;" x1="7" x2="451.1605" y1="160.7558" y2="160.7558"/><ellipse cx="17" cy="175.7898" fill="#84BE84" rx="3" ry="3" style="stroke:#038048;stroke-width:1.0;"/><text fill="#000000" font-family="sans-serif" font-size="14" lengthAdjust="spacing" textLength="305.4228" x="26" y="179.7218">createContent(String, MenuBar, Panel): Layout</text><ellipse cx="17" cy="194.8577" fill="#84BE84" rx="3" ry="3" style="stroke:#038048;stroke-width:1.0;"/><text fill="#000000" font-family="sans-serif" font-size="14" lengthAdjust="spacing" textLength="211.5112" x="26" y="198.7897">matches(String, String): boolean</text></g></a><!--class com.hack23.cia.web.impl.ui.application.views.common.pagemode.AbstractBasicPageModContentFactoryImpl--><a href="../../../common/pagemode/AbstractBasicPageModContentFactoryImpl.html" target="_top" title="../../../common/pagemode/AbstractBasicPageModContentFactoryImpl.html" xlink:actuate="onRequest" xlink:href="../../../common/pagemode/AbstractBasicPageModContentFactoryImpl.html" xlink:show="new" xlink:title="../../../common/pagemode/AbstractBasicPageModContentFactoryImpl.html" xlink:type="simple"><g id="elem_com.hack23.cia.web.impl.ui.application.views.common.pagemode.AbstractBasicPageModContentFactoryImpl"><rect codeLine="19" fill="#F1F1F1" height="42.6879" id="com.hack23.cia.web.impl.ui.application.views.common.pagemode.AbstractBasicPageModContentFactoryImpl" rx="2.5" ry="2.5" style="stroke:#181818;stroke-width:0.5;" width="325.0197" x="66.5" y="12"/><ellipse cx="81.5" cy="33.344" fill="#A9DCDF" rx="11" ry="11" style="stroke:#181818;stroke-width:1.0;"/><path d="M81.6094,28.6877 L80.4531,33.7658 L82.7813,33.7658 L81.6094,28.6877 Z M80.125,26.4533 L83.1094,26.4533 L86.4688,38.844 L84.0156,38.844 L83.25,35.7815 L79.9688,35.7815 L79.2188,38.844 L76.7813,38.844 L80.125,26.4533 Z " fill="#000000"/><text fill="#000000" font-family="sans-serif" font-size="14" font-style="italic" lengthAdjust="spacing" textLength="264.991" x="109.5143" y="31.9659">AbstractBasicPageModContentFactoryImpl</text><text fill="#000000" font-family="sans-serif" font-size="10" font-style="italic" lengthAdjust="spacing" textLength="293.0197" x="95.5" y="46.7579">com.hack23.cia.web.impl.ui.application.views.common.pagemode</text></g></a><polygon fill="none" points="229,55.054,223,73.054,235,73.054,229,55.054" style="stroke:#181818;stroke-width:1.0;"/><path d="M229,73.054 C229,83.1473 229,77.8625 229,90.62 " fill="none" style="stroke:#181818;stroke-width:1.0;"/><text fill="#888888" font-family="sans-serif" font-size="10" lengthAdjust="spacing" textLength="2.6" x="224.2" y="211.69">&#160;</text><a href="https://github.com/talsma-ict/umldoclet" target="_top" title="https://github.com/talsma-ict/umldoclet" xlink:actuate="onRequest" xlink:href="https://github.com/talsma-ict/umldoclet" xlink:show="new" xlink:title="https://github.com/talsma-ict/umldoclet" xlink:type="simple"><text fill="#888888" font-family="sans-serif" font-size="10" lengthAdjust="spacing" textLength="76.7199" x="187.14" y="225.31">UMLDoclet 2.2.1</text></a><!--SRC=[pLLDJzj04BtpAwRqK11axJY8ZmWXXPGMggH217e972Rh8LvblUlkha4fvRztR8T0QGy8eQfM96jtPjvxy-490C07wDjYxjGq2n0iX4nvk1WE04qAKpBaC50AAiSfUPYGjcRg6qS2B4Dc7TZh-YIjS-GBQr9bfl05Rn2yBPqaBrPMeAOwVq2_HVy4VJAlBZzQgId0Md_zYQGaRc-taZZPXdFKFaSuwP-B1TfZJ28IqGR6ragIyGnPcfHSBQjNeEJNeB5imWqvhwpXc7Y1KwKghGceZ8S2NV1LIgSQJQYqjWNpRuaTMEkD1hzhY_TgRPlGSmRB5CxiztAPxhl2uPGLQvpRCe3FAQ31nkPPjC6SouMIHiIa6BYInXggxPbA2IWlmXok5UdKFxzbiCpoTNqlDNeFg_jU_Q1kU-lWr6eLb5Hepj3Ck1kdtBrlogjmh3pppAlpqAPzJffC-8IokZp92trf5Y3nWRIvo53EaevW975B4w7OGvHAO55meJ5m6SMDebilIazE54jQrz2AWdbocz8gSB_V4b2yFaKOZryVBBAGwwihkAlhNZrtFh1kUGyRNtl3eowCWcF0fNb3Ek8PNo2jDTPD698f3z5jmYaQqkjT6DH3yXYMO-2fzSk0visE4sireQazxvlsuyG7nnh_c8FUmd28NiatxpaxvtnuVO-V0OYNoUN-2H4rlmOXUa28NeQmQEBYs_a7YlT_jbh_o_WtMU_xCDTqi9otQsi3xyl7iQwUutb1Rg3Ch6yrBwVtkt-tNbIhLYj3lDtbp12FOBpql6_eeYTy2wvBCnvd8HI-6qLJ5R9oKfKt2lMQRoaPeZBNQRFVdsrwxbspkJyl_qAgDToAarRSEMztkbj9D-w8U2TfxtJsThStudOtZiT7fRC5HQDWvIopEh_w1G00]--></g></svg>