<?xml version="1.0" encoding="UTF-8" standalone="no"?><svg xmlns="http://www.w3.org/2000/svg" xmlns:xlink="http://www.w3.org/1999/xlink" contentStyleType="text/css" height="302px" preserveAspectRatio="none" style="width:730px;height:302px;background:#FFFFFF;" version="1.1" viewBox="0 0 730 302" width="730px" zoomAndPan="magnify"><defs/><g><!--MD5=[6a2ff8e84fbe23bc5c6b5237956861fc]
cluster com.hack23.cia.web.impl.ui.application.views.pageclicklisteners.handlers.impl--><g id="cluster_com.hack23.cia.web.impl.ui.application.views.pageclicklisteners.handlers.impl"><path d="M8.5,145 L626.5,145 A3.75,3.75 0 0 1 629,147.5 L636,167.2969 L636.5,167.2969 A2.5,2.5 0 0 1 639,169.7969 L639,274.5 A2.5,2.5 0 0 1 636.5,277 L8.5,277 A2.5,2.5 0 0 1 6,274.5 L6,147.5 A2.5,2.5 0 0 1 8.5,145 " style="stroke:#000000;stroke-width:1.5;fill:none;"/><line style="stroke:#000000;stroke-width:1.5;fill:none;" x1="6" x2="636" y1="167.2969" y2="167.2969"/><text fill="#000000" font-family="sans-serif" font-size="14" font-weight="bold" lengthAdjust="spacing" textLength="617" x="10" y="159.9951">com.hack23.cia.web.impl.ui.application.views.pageclicklisteners.handlers.impl</text></g><!--MD5=[35452601e1bd1a7a892b166327591b8b]
cluster com.hack23.cia.web.impl.ui.application.views.pageclicklisteners.handlers.api--><g id="cluster_com.hack23.cia.web.impl.ui.application.views.pageclicklisteners.handlers.api"><path d="M101.5,6 L710.5,6 A3.75,3.75 0 0 1 713,8.5 L720,28.2969 L720.5,28.2969 A2.5,2.5 0 0 1 723,30.7969 L723,118.5 A2.5,2.5 0 0 1 720.5,121 L101.5,121 A2.5,2.5 0 0 1 99,118.5 L99,8.5 A2.5,2.5 0 0 1 101.5,6 " style="stroke:#000000;stroke-width:1.5;fill:none;"/><line style="stroke:#000000;stroke-width:1.5;fill:none;" x1="99" x2="720" y1="28.2969" y2="28.2969"/><text fill="#000000" font-family="sans-serif" font-size="14" font-weight="bold" lengthAdjust="spacing" textLength="608" x="103" y="20.9951">com.hack23.cia.web.impl.ui.application.views.pageclicklisteners.handlers.api</text></g><!--MD5=[f1b4e21ca3395c6bc08e60c6df48554b]
class com.hack23.cia.web.impl.ui.application.views.pageclicklisteners.handlers.impl.SearchDocumentResponseHandlerImpl--><a href="SearchDocumentResponseHandlerImpl.html" target="_top" title="SearchDocumentResponseHandlerImpl.html" xlink:actuate="onRequest" xlink:href="SearchDocumentResponseHandlerImpl.html" xlink:show="new" xlink:title="SearchDocumentResponseHandlerImpl.html" xlink:type="simple"><g id="elem_com.hack23.cia.web.impl.ui.application.views.pageclicklisteners.handlers.impl.SearchDocumentResponseHandlerImpl"><rect codeLine="3" fill="#F1F1F1" height="80.5938" id="com.hack23.cia.web.impl.ui.application.views.pageclicklisteners.handlers.impl.SearchDocumentResponseHandlerImpl" rx="2.5" ry="2.5" style="stroke:#181818;stroke-width:0.5;" width="536" x="54" y="180"/><ellipse cx="181.25" cy="196" fill="#ADD1B2" rx="11" ry="11" style="stroke:#181818;stroke-width:1.0;"/><path d="M184.2188,201.6406 Q183.6406,201.9375 183,202.0781 Q182.3594,202.2344 181.6563,202.2344 Q179.1563,202.2344 177.8281,200.5938 Q176.5156,198.9375 176.5156,195.8125 Q176.5156,192.6875 177.8281,191.0313 Q179.1563,189.375 181.6563,189.375 Q182.3594,189.375 183,189.5313 Q183.6563,189.6875 184.2188,189.9844 L184.2188,192.7031 Q183.5938,192.125 183,191.8594 Q182.4063,191.5781 181.7813,191.5781 Q180.4375,191.5781 179.75,192.6563 Q179.0625,193.7188 179.0625,195.8125 Q179.0625,197.9063 179.75,198.9844 Q180.4375,200.0469 181.7813,200.0469 Q182.4063,200.0469 183,199.7813 Q183.5938,199.5 184.2188,198.9219 L184.2188,201.6406 Z " fill="#000000"/><text fill="#000000" font-family="sans-serif" font-size="14" lengthAdjust="spacing" textLength="273" x="201.75" y="200.8467">SearchDocumentResponseHandlerImpl</text><line style="stroke:#181818;stroke-width:0.5;" x1="55" x2="589" y1="212" y2="212"/><line style="stroke:#181818;stroke-width:0.5;" x1="55" x2="589" y1="220" y2="220"/><ellipse cx="65" cy="231" fill="#84BE84" rx="3" ry="3" style="stroke:#038048;stroke-width:1.0;"/><text fill="#000000" font-family="sans-serif" font-size="14" lengthAdjust="spacing" textLength="510" x="74" y="236.9951">SearchDocumentResponseHandlerImpl(GridFactory, Panel, VerticalLayout)</text><ellipse cx="65" cy="247.2969" fill="#84BE84" rx="3" ry="3" style="stroke:#038048;stroke-width:1.0;"/><text fill="#000000" font-family="sans-serif" font-size="14" lengthAdjust="spacing" textLength="286" x="74" y="253.292">handle(SearchDocumentResponse): void</text></g></a><!--MD5=[9fece5bc37a3171bc0fa22719e954662]
class com.hack23.cia.web.impl.ui.application.views.pageclicklisteners.handlers.api.SearchDocumentResponseHandler--><a href="../api/SearchDocumentResponseHandler.html" target="_top" title="../api/SearchDocumentResponseHandler.html" xlink:actuate="onRequest" xlink:href="../api/SearchDocumentResponseHandler.html" xlink:show="new" xlink:title="../api/SearchDocumentResponseHandler.html" xlink:type="simple"><g id="elem_com.hack23.cia.web.impl.ui.application.views.pageclicklisteners.handlers.api.SearchDocumentResponseHandler"><rect codeLine="12" fill="#F1F1F1" height="64.2969" id="com.hack23.cia.web.impl.ui.application.views.pageclicklisteners.handlers.api.SearchDocumentResponseHandler" rx="2.5" ry="2.5" style="stroke:#181818;stroke-width:0.5;" width="311" x="166.5" y="41"/><ellipse cx="197.25" cy="57" fill="#B4A7E5" rx="11" ry="11" style="stroke:#181818;stroke-width:1.0;"/><path d="M193.1719,52.7656 L193.1719,50.6094 L200.5625,50.6094 L200.5625,52.7656 L198.0938,52.7656 L198.0938,60.8438 L200.5625,60.8438 L200.5625,63 L193.1719,63 L193.1719,60.8438 L195.6406,60.8438 L195.6406,52.7656 L193.1719,52.7656 Z " fill="#000000"/><text fill="#000000" font-family="sans-serif" font-size="14" font-style="italic" lengthAdjust="spacing" textLength="244" x="214.75" y="61.8467">SearchDocumentResponseHandler</text><line style="stroke:#181818;stroke-width:0.5;" x1="167.5" x2="476.5" y1="73" y2="73"/><line style="stroke:#181818;stroke-width:0.5;" x1="167.5" x2="476.5" y1="81" y2="81"/><ellipse cx="177.5" cy="92" fill="#84BE84" rx="3" ry="3" style="stroke:#038048;stroke-width:1.0;"/><text fill="#000000" font-family="sans-serif" font-size="14" font-style="italic" lengthAdjust="spacing" textLength="285" x="186.5" y="97.9951">handle(SearchDocumentResponse): void</text></g></a><!--MD5=[0544ea044ff37284bd1aa8764d3d4fdf]
reverse link com.hack23.cia.web.impl.ui.application.views.pageclicklisteners.handlers.api.SearchDocumentResponseHandler to com.hack23.cia.web.impl.ui.application.views.pageclicklisteners.handlers.impl.SearchDocumentResponseHandlerImpl--><g id="link_com.hack23.cia.web.impl.ui.application.views.pageclicklisteners.handlers.api.SearchDocumentResponseHandler_com.hack23.cia.web.impl.ui.application.views.pageclicklisteners.handlers.impl.SearchDocumentResponseHandlerImpl"><path codeLine="8" d="M322,125.37 C322,143.23 322,162.97 322,179.74 " fill="none" id="com.hack23.cia.web.impl.ui.application.views.pageclicklisteners.handlers.api.SearchDocumentResponseHandler-backto-com.hack23.cia.web.impl.ui.application.views.pageclicklisteners.handlers.impl.SearchDocumentResponseHandlerImpl" style="stroke:#181818;stroke-width:1.0;stroke-dasharray:7.0,7.0;"/><polygon fill="none" points="315,125.21,322,105.21,329,125.21,315,125.21" style="stroke:#181818;stroke-width:1.0;"/></g><rect height="11.6406" style="stroke:#00000000;stroke-width:1.0;fill:none;" width="186" x="265" y="283"/><text fill="#888888" font-family="sans-serif" font-size="10" lengthAdjust="spacing" textLength="186" x="265" y="292.2822">UMLDoclet 2.0.18, PlantUML 1.2022.6</text><!--MD5=[70587744820d62b5629de52f842f91dd]
@startuml
    namespace com.hack23.cia.web.impl.ui.application.views.pageclicklisteners.handlers.impl {

        class SearchDocumentResponseHandlerImpl [[SearchDocumentResponseHandlerImpl.html]] {
            +SearchDocumentResponseHandlerImpl(GridFactory, Panel, VerticalLayout)
            +handle(SearchDocumentResponse): void
        }

        com.hack23.cia.web.impl.ui.application.views.pageclicklisteners.handlers.api.SearchDocumentResponseHandler <|.. SearchDocumentResponseHandlerImpl
    }

    namespace com.hack23.cia.web.impl.ui.application.views.pageclicklisteners.handlers.api {
        interface SearchDocumentResponseHandler [[../api/SearchDocumentResponseHandler.html]] {
            {abstract} +handle(SearchDocumentResponse): void
        }
    }

    center footer UMLDoclet 2.0.18, PlantUML 1.2022.6
@enduml

PlantUML version 1.2022.6(Tue Jun 21 19:34:49 CEST 2022)
(APACHE source distribution)
Java Runtime: OpenJDK Runtime Environment
JVM: OpenJDK 64-Bit Server VM
Default Encoding: ANSI_X3.4-1968
Language: en
Country: US
--></g></svg>