<?xml version="1.0" encoding="UTF-8" standalone="no"?><svg xmlns="http://www.w3.org/2000/svg" xmlns:xlink="http://www.w3.org/1999/xlink" contentStyleType="text/css" height="234px" preserveAspectRatio="none" style="width:377px;height:234px;background:#FFFFFF;" version="1.1" viewBox="0 0 377 234" width="377px" zoomAndPan="magnify"><defs/><g><!--MD5=[fd77f70caf167f9bf7b457ab3f3f4794]
class com.hack23.cia.web.impl.ui.application.views.admin.system.AdminApplicationSessionView--><a href="AdminApplicationSessionView.html" target="_top" title="AdminApplicationSessionView.html" xlink:actuate="onRequest" xlink:href="AdminApplicationSessionView.html" xlink:show="new" xlink:title="AdminApplicationSessionView.html" xlink:type="simple"><g id="elem_com.hack23.cia.web.impl.ui.application.views.admin.system.AdminApplicationSessionView"><rect codeLine="5" fill="#F1F1F1" height="96.8237" id="com.hack23.cia.web.impl.ui.application.views.admin.system.AdminApplicationSessionView" rx="2.5" ry="2.5" style="stroke:#181818;stroke-width:0.5;" width="363" x="7" y="110"/><ellipse cx="40.45" cy="131.344" fill="#ADD1B2" rx="11" ry="11" style="stroke:#181818;stroke-width:1.0;"/><path d="M43.4188,136.9846 Q42.8406,137.2815 42.2,137.4221 Q41.5594,137.5783 40.8563,137.5783 Q38.3563,137.5783 37.0281,135.9377 Q35.7156,134.2815 35.7156,131.1565 Q35.7156,128.0315 37.0281,126.3752 Q38.3563,124.719 40.8563,124.719 Q41.5594,124.719 42.2,124.8752 Q42.8563,125.0315 43.4188,125.3283 L43.4188,128.0471 Q42.7938,127.469 42.2,127.2033 Q41.6063,126.9221 40.9813,126.9221 Q39.6375,126.9221 38.95,128.0002 Q38.2625,129.0627 38.2625,131.1565 Q38.2625,133.2502 38.95,134.3283 Q39.6375,135.3908 40.9813,135.3908 Q41.6063,135.3908 42.2,135.1252 Q42.7938,134.844 43.4188,134.2658 L43.4188,136.9846 Z " fill="#000000"/><text fill="#000000" font-family="sans-serif" font-size="14" lengthAdjust="spacing" textLength="202" x="102.55" y="129.9659">AdminApplicationSessionView</text><text fill="#000000" font-family="sans-serif" font-size="10" lengthAdjust="spacing" textLength="290" x="58.55" y="144.7579">com.hack23.cia.web.impl.ui.application.views.admin.system</text><line style="stroke:#181818;stroke-width:0.5;" x1="8" x2="369" y1="152.6879" y2="152.6879"/><ellipse cx="18" cy="167.7219" fill="none" rx="3" ry="3" style="stroke:#038048;stroke-width:1.0;"/><text fill="#000000" font-family="sans-serif" font-size="14" lengthAdjust="spacing" text-decoration="underline" textLength="90" x="27" y="171.6538">NAME: String</text><line style="stroke:#181818;stroke-width:0.5;" x1="8" x2="369" y1="179.7558" y2="179.7558"/><ellipse cx="18" cy="194.7898" fill="#84BE84" rx="3" ry="3" style="stroke:#038048;stroke-width:1.0;"/><text fill="#000000" font-family="sans-serif" font-size="14" lengthAdjust="spacing" textLength="337" x="27" y="198.7218">AdminApplicationSessionView(ApplicationContext)</text></g></a><!--MD5=[b628d671c4eff2c1215f9ca2bed664d9]
class com.hack23.cia.web.impl.ui.application.views.admin.common.AbstractAdminView--><a href="../common/AbstractAdminView.html" target="_top" title="../common/AbstractAdminView.html" xlink:actuate="onRequest" xlink:href="../common/AbstractAdminView.html" xlink:show="new" xlink:title="../common/AbstractAdminView.html" xlink:type="simple"><g id="elem_com.hack23.cia.web.impl.ui.application.views.admin.common.AbstractAdminView"><rect codeLine="10" fill="#F1F1F1" height="42.6879" id="com.hack23.cia.web.impl.ui.application.views.admin.common.AbstractAdminView" rx="2.5" ry="2.5" style="stroke:#181818;stroke-width:0.5;" width="323" x="27" y="7"/><ellipse cx="42" cy="28.344" fill="#A9DCDF" rx="11" ry="11" style="stroke:#181818;stroke-width:1.0;"/><path d="M42.1094,23.6877 L40.9531,28.7658 L43.2813,28.7658 L42.1094,23.6877 Z M40.625,21.4533 L43.6094,21.4533 L46.9688,33.844 L44.5156,33.844 L43.75,30.7815 L40.4688,30.7815 L39.7188,33.844 L37.2813,33.844 L40.625,21.4533 Z " fill="#000000"/><text fill="#000000" font-family="sans-serif" font-size="14" font-style="italic" lengthAdjust="spacing" textLength="121" x="141" y="26.9659">AbstractAdminView</text><text fill="#000000" font-family="sans-serif" font-size="10" font-style="italic" lengthAdjust="spacing" textLength="291" x="56" y="41.7579">com.hack23.cia.web.impl.ui.application.views.admin.common</text></g></a><!--MD5=[3a7ecbf88c4cf639d33d82e033128fba]
reverse link com.hack23.cia.web.impl.ui.application.views.admin.common.AbstractAdminView to com.hack23.cia.web.impl.ui.application.views.admin.system.AdminApplicationSessionView--><g id="link_com.hack23.cia.web.impl.ui.application.views.admin.common.AbstractAdminView_com.hack23.cia.web.impl.ui.application.views.admin.system.AdminApplicationSessionView"><path codeLine="12" d="M188.5,70.16 C188.5,82.79 188.5,96.82 188.5,109.88 " fill="none" id="com.hack23.cia.web.impl.ui.application.views.admin.common.AbstractAdminView-backto-com.hack23.cia.web.impl.ui.application.views.admin.system.AdminApplicationSessionView" style="stroke:#181818;stroke-width:1.0;"/><polygon fill="none" points="181.5,70.07,188.5,50.07,195.5,70.07,181.5,70.07" style="stroke:#181818;stroke-width:1.0;"/></g><rect fill="none" height="13.62" style="stroke:none;stroke-width:1.0;" width="188" x="87.5" y="212.8237"/><text fill="#888888" font-family="sans-serif" font-size="10" lengthAdjust="spacing" textLength="188" x="87.5" y="223.5137">UMLDoclet 2.0.20, PlantUML 1.2022.12</text><!--MD5=[c3cb00c26186d520142db87ca5c9d0ed]
@startuml
    set namespaceSeparator none
    hide empty fields
    hide empty methods

    class "<size:14>AdminApplicationSessionView\n<size:10>com.hack23.cia.web.impl.ui.application.views.admin.system" as com.hack23.cia.web.impl.ui.application.views.admin.system.AdminApplicationSessionView [[AdminApplicationSessionView.html]] {
        {static} +NAME: String
        +AdminApplicationSessionView(ApplicationContext)
    }

    abstract class "<size:14>AbstractAdminView\n<size:10>com.hack23.cia.web.impl.ui.application.views.admin.common" as com.hack23.cia.web.impl.ui.application.views.admin.common.AbstractAdminView [[../common/AbstractAdminView.html]]

    com.hack23.cia.web.impl.ui.application.views.admin.common.AbstractAdminView <|- - com.hack23.cia.web.impl.ui.application.views.admin.system.AdminApplicationSessionView

    center footer UMLDoclet 2.0.20, PlantUML 1.2022.12
@enduml

PlantUML version 1.2022.12(Sun Oct 23 20:12:26 CEST 2022)
(APACHE source distribution)
Java Runtime: OpenJDK Runtime Environment
JVM: OpenJDK 64-Bit Server VM
Default Encoding: UTF-8
Language: 
Country: 
--></g></svg>