<?xml version="1.0" encoding="UTF-8" standalone="no"?><svg xmlns="http://www.w3.org/2000/svg" xmlns:xlink="http://www.w3.org/1999/xlink" contentStyleType="text/css" height="207px" preserveAspectRatio="none" style="width:402px;height:207px;background:#FFFFFF;" version="1.1" viewBox="0 0 402 207" width="402px" zoomAndPan="magnify"><defs/><g><!--MD5=[0841465547beff364b127ca086ff3a8f]
class com.hack23.cia.web.impl.ui.application.CitizenIntelligenceAgencyHealthCheckServlet--><a href="CitizenIntelligenceAgencyHealthCheckServlet.html" target="_top" title="CitizenIntelligenceAgencyHealthCheckServlet.html" xlink:actuate="onRequest" xlink:href="CitizenIntelligenceAgencyHealthCheckServlet.html" xlink:show="new" xlink:title="CitizenIntelligenceAgencyHealthCheckServlet.html" xlink:type="simple"><g id="elem_com.hack23.cia.web.impl.ui.application.CitizenIntelligenceAgencyHealthCheckServlet"><rect codeLine="5" fill="#F1F1F1" height="69.7558" id="com.hack23.cia.web.impl.ui.application.CitizenIntelligenceAgencyHealthCheckServlet" rx="2.5" ry="2.5" style="stroke:#181818;stroke-width:0.5;" width="388" x="7" y="110"/><ellipse cx="44.95" cy="131.344" fill="#ADD1B2" rx="11" ry="11" style="stroke:#181818;stroke-width:1.0;"/><path d="M47.9188,136.9846 Q47.3406,137.2815 46.7,137.4221 Q46.0594,137.5783 45.3563,137.5783 Q42.8563,137.5783 41.5281,135.9377 Q40.2156,134.2815 40.2156,131.1565 Q40.2156,128.0315 41.5281,126.3752 Q42.8563,124.719 45.3563,124.719 Q46.0594,124.719 46.7,124.8752 Q47.3563,125.0315 47.9188,125.3283 L47.9188,128.0471 Q47.2938,127.469 46.7,127.2033 Q46.1063,126.9221 45.4813,126.9221 Q44.1375,126.9221 43.45,128.0002 Q42.7625,129.0627 42.7625,131.1565 Q42.7625,133.2502 43.45,134.3283 Q44.1375,135.3908 45.4813,135.3908 Q46.1063,135.3908 46.7,135.1252 Q47.2938,134.844 47.9188,134.2658 L47.9188,136.9846 Z " fill="#000000"/><text fill="#000000" font-family="sans-serif" font-size="14" lengthAdjust="spacing" textLength="305" x="64.05" y="129.9659">CitizenIntelligenceAgencyHealthCheckServlet</text><text fill="#000000" font-family="sans-serif" font-size="10" lengthAdjust="spacing" textLength="190" x="121.55" y="144.7579">com.hack23.cia.web.impl.ui.application</text><line style="stroke:#181818;stroke-width:0.5;" x1="8" x2="394" y1="152.6879" y2="152.6879"/><ellipse cx="18" cy="167.7219" fill="#84BE84" rx="3" ry="3" style="stroke:#038048;stroke-width:1.0;"/><text fill="#000000" font-family="sans-serif" font-size="14" lengthAdjust="spacing" textLength="362" x="27" y="171.6538">doGet(HttpServletRequest, HttpServletResponse): void</text></g></a><!--MD5=[f416d4ad4711b5ddf00f6f9e1e57970b]
class javax.servlet.http.HttpServlet--><g id="elem_javax.servlet.http.HttpServlet"><rect codeLine="9" fill="#F1F1F1" height="42.6879" id="javax.servlet.http.HttpServlet" rx="2.5" ry="2.5" style="stroke:#181818;stroke-width:0.5;" width="110" x="146" y="7"/><ellipse cx="161" cy="28.344" fill="#A9DCDF" rx="11" ry="11" style="stroke:#181818;stroke-width:1.0;"/><path d="M161.1094,23.6877 L159.9531,28.7658 L162.2813,28.7658 L161.1094,23.6877 Z M159.625,21.4533 L162.6094,21.4533 L165.9688,33.844 L163.5156,33.844 L162.75,30.7815 L159.4688,30.7815 L158.7188,33.844 L156.2813,33.844 L159.625,21.4533 Z " fill="#000000"/><text fill="#000000" font-family="sans-serif" font-size="14" font-style="italic" lengthAdjust="spacing" textLength="71" x="178.5" y="26.9659">HttpServlet</text><text fill="#000000" font-family="sans-serif" font-size="10" font-style="italic" lengthAdjust="spacing" textLength="78" x="175" y="41.7579">javax.servlet.http</text></g><!--MD5=[2a1c52cfd4cd63ac57f2f117ad64a53e]
reverse link javax.servlet.http.HttpServlet to com.hack23.cia.web.impl.ui.application.CitizenIntelligenceAgencyHealthCheckServlet--><g id="link_javax.servlet.http.HttpServlet_com.hack23.cia.web.impl.ui.application.CitizenIntelligenceAgencyHealthCheckServlet"><path codeLine="11" d="M201,70.37 C201,83.33 201,97.51 201,109.94 " fill="none" id="javax.servlet.http.HttpServlet-backto-com.hack23.cia.web.impl.ui.application.CitizenIntelligenceAgencyHealthCheckServlet" style="stroke:#181818;stroke-width:1.0;"/><polygon fill="none" points="194,70.24,201,50.24,208,70.24,194,70.24" style="stroke:#181818;stroke-width:1.0;"/></g><rect fill="none" height="13.62" style="stroke:none;stroke-width:1.0;" width="188" x="100" y="185.7558"/><text fill="#888888" font-family="sans-serif" font-size="10" lengthAdjust="spacing" textLength="188" x="100" y="196.4458">UMLDoclet 2.0.20, PlantUML 1.2022.12</text><!--MD5=[0638a89dd86d26895fb32bce506d9445]
@startuml
    set namespaceSeparator none
    hide empty fields
    hide empty methods

    class "<size:14>CitizenIntelligenceAgencyHealthCheckServlet\n<size:10>com.hack23.cia.web.impl.ui.application" as com.hack23.cia.web.impl.ui.application.CitizenIntelligenceAgencyHealthCheckServlet [[CitizenIntelligenceAgencyHealthCheckServlet.html]] {
        +doGet(HttpServletRequest, HttpServletResponse): void
    }

    abstract class "<size:14>HttpServlet\n<size:10>javax.servlet.http" as javax.servlet.http.HttpServlet

    javax.servlet.http.HttpServlet <|- - com.hack23.cia.web.impl.ui.application.CitizenIntelligenceAgencyHealthCheckServlet

    center footer UMLDoclet 2.0.20, PlantUML 1.2022.12
@enduml

PlantUML version 1.2022.12(Sun Oct 23 20:12:26 CEST 2022)
(APACHE source distribution)
Java Runtime: OpenJDK Runtime Environment
JVM: OpenJDK 64-Bit Server VM
Default Encoding: UTF-8
Language: 
Country: 
--></g></svg>