<?xml version="1.0" encoding="UTF-8" standalone="no"?><svg xmlns="http://www.w3.org/2000/svg" xmlns:xlink="http://www.w3.org/1999/xlink" contentStyleType="text/css" height="207px" preserveAspectRatio="none" style="width:411px;height:207px;background:#FFFFFF;" version="1.1" viewBox="0 0 411 207" width="411px" zoomAndPan="magnify"><defs/><g><!--MD5=[4e4345d80c4b814124669d6a73979309]
class com.hack23.cia.web.impl.ui.application.ResourceServlet--><a href="ResourceServlet.html" target="_top" title="ResourceServlet.html" xlink:actuate="onRequest" xlink:href="ResourceServlet.html" xlink:show="new" xlink:title="ResourceServlet.html" xlink:type="simple"><g id="elem_com.hack23.cia.web.impl.ui.application.ResourceServlet"><rect codeLine="5" fill="#F1F1F1" height="69.7558" id="com.hack23.cia.web.impl.ui.application.ResourceServlet" rx="2.5" ry="2.5" style="stroke:#181818;stroke-width:0.5;" width="395" x="9" y="110"/><ellipse cx="107.25" cy="131.344" fill="#ADD1B2" rx="11" ry="11" style="stroke:#181818;stroke-width:1.0;"/><path d="M110.2188,136.9846 Q109.6406,137.2815 109,137.4221 Q108.3594,137.5783 107.6563,137.5783 Q105.1563,137.5783 103.8281,135.9377 Q102.5156,134.2815 102.5156,131.1565 Q102.5156,128.0315 103.8281,126.3752 Q105.1563,124.719 107.6563,124.719 Q108.3594,124.719 109,124.8752 Q109.6563,125.0315 110.2188,125.3283 L110.2188,128.0471 Q109.5938,127.469 109,127.2033 Q108.4063,126.9221 107.7813,126.9221 Q106.4375,126.9221 105.75,128.0002 Q105.0625,129.0627 105.0625,131.1565 Q105.0625,133.2502 105.75,134.3283 Q106.4375,135.3908 107.7813,135.3908 Q108.4063,135.3908 109,135.1252 Q109.5938,134.844 110.2188,134.2658 L110.2188,136.9846 Z " fill="#000000"/><text fill="#000000" font-family="sans-serif" font-size="14" lengthAdjust="spacing" textLength="108" x="168.75" y="129.9659">ResourceServlet</text><text fill="#000000" font-family="sans-serif" font-size="10" lengthAdjust="spacing" textLength="190" x="127.75" y="144.7579">com.hack23.cia.web.impl.ui.application</text><line style="stroke:#181818;stroke-width:0.5;" x1="10" x2="403" y1="152.6879" y2="152.6879"/><polygon fill="#FFFF44" points="20,162.7219,24,166.7219,20,170.7219,16,166.7219" style="stroke:#B38D22;stroke-width:1.0;"/><text fill="#000000" font-family="sans-serif" font-size="14" lengthAdjust="spacing" textLength="369" x="29" y="171.6538">service(HttpServletRequest, HttpServletResponse): void</text></g></a><!--MD5=[36c6637e4b5809e0f3c006bf8b958017]
class org.eclipse.jetty.servlet.DefaultServlet--><g id="elem_org.eclipse.jetty.servlet.DefaultServlet"><rect codeLine="9" fill="#F1F1F1" height="42.6879" id="org.eclipse.jetty.servlet.DefaultServlet" rx="2.5" ry="2.5" style="stroke:#181818;stroke-width:0.5;" width="146" x="133.5" y="7"/><ellipse cx="148.5" cy="28.344" fill="#ADD1B2" rx="11" ry="11" style="stroke:#181818;stroke-width:1.0;"/><path d="M151.4688,33.9846 Q150.8906,34.2815 150.25,34.4221 Q149.6094,34.5783 148.9063,34.5783 Q146.4063,34.5783 145.0781,32.9377 Q143.7656,31.2815 143.7656,28.1565 Q143.7656,25.0315 145.0781,23.3752 Q146.4063,21.719 148.9063,21.719 Q149.6094,21.719 150.25,21.8752 Q150.9063,22.0315 151.4688,22.3283 L151.4688,25.0471 Q150.8438,24.469 150.25,24.2033 Q149.6563,23.9221 149.0313,23.9221 Q147.6875,23.9221 147,25.0002 Q146.3125,26.0627 146.3125,28.1565 Q146.3125,30.2502 147,31.3283 Q147.6875,32.3908 149.0313,32.3908 Q149.6563,32.3908 150.25,32.1252 Q150.8438,31.844 151.4688,31.2658 L151.4688,33.9846 Z " fill="#000000"/><text fill="#000000" font-family="sans-serif" font-size="14" lengthAdjust="spacing" textLength="95" x="172" y="26.9659">DefaultServlet</text><text fill="#000000" font-family="sans-serif" font-size="10" lengthAdjust="spacing" textLength="114" x="162.5" y="41.7579">org.eclipse.jetty.servlet</text></g><!--MD5=[02aeccac4594fb0f96c6f84b3ddb7cc7]
reverse link org.eclipse.jetty.servlet.DefaultServlet to com.hack23.cia.web.impl.ui.application.ResourceServlet--><g id="link_org.eclipse.jetty.servlet.DefaultServlet_com.hack23.cia.web.impl.ui.application.ResourceServlet"><path codeLine="11" d="M206.5,70.37 C206.5,83.33 206.5,97.51 206.5,109.94 " fill="none" id="org.eclipse.jetty.servlet.DefaultServlet-backto-com.hack23.cia.web.impl.ui.application.ResourceServlet" style="stroke:#181818;stroke-width:1.0;"/><polygon fill="none" points="199.5,70.24,206.5,50.24,213.5,70.24,199.5,70.24" style="stroke:#181818;stroke-width:1.0;"/></g><rect fill="none" height="13.62" style="stroke:none;stroke-width:1.0;" width="188" x="104.5" y="185.7558"/><text fill="#888888" font-family="sans-serif" font-size="10" lengthAdjust="spacing" textLength="188" x="104.5" y="196.4458">UMLDoclet 2.0.20, PlantUML 1.2022.12</text><!--MD5=[9e5761b61cfb521c548068092412df66]
@startuml
    set namespaceSeparator none
    hide empty fields
    hide empty methods

    class "<size:14>ResourceServlet\n<size:10>com.hack23.cia.web.impl.ui.application" as com.hack23.cia.web.impl.ui.application.ResourceServlet [[ResourceServlet.html]] {
        #service(HttpServletRequest, HttpServletResponse): void
    }

    class "<size:14>DefaultServlet\n<size:10>org.eclipse.jetty.servlet" as org.eclipse.jetty.servlet.DefaultServlet

    org.eclipse.jetty.servlet.DefaultServlet <|- - com.hack23.cia.web.impl.ui.application.ResourceServlet

    center footer UMLDoclet 2.0.20, PlantUML 1.2022.12
@enduml

PlantUML version 1.2022.12(Sun Oct 23 20:12:26 CEST 2022)
(APACHE source distribution)
Java Runtime: OpenJDK Runtime Environment
JVM: OpenJDK 64-Bit Server VM
Default Encoding: UTF-8
Language: 
Country: 
--></g></svg>