<?xml version="1.0" encoding="UTF-8" standalone="no"?><svg xmlns="http://www.w3.org/2000/svg" xmlns:xlink="http://www.w3.org/1999/xlink" contentStyleType="text/css" height="219px" preserveAspectRatio="none" style="width:402px;height:219px;background:#FFFFFF;" version="1.1" viewBox="0 0 402 219" width="402px" zoomAndPan="magnify"><defs/><g><!--MD5=[79fcab2a0f0069b7ae27475aeff82a8e]
class com.hack23.cia.web.impl.ui.application.web.listener.AuthorizationFailureEventListener--><a href="AuthorizationFailureEventListener.html" target="_top" title="AuthorizationFailureEventListener.html" xlink:actuate="onRequest" xlink:href="AuthorizationFailureEventListener.html" xlink:show="new" xlink:title="AuthorizationFailureEventListener.html" xlink:type="simple"><g id="elem_com.hack23.cia.web.impl.ui.application.web.listener.AuthorizationFailureEventListener"><rect codeLine="5" fill="#F1F1F1" height="62.2344" id="com.hack23.cia.web.impl.ui.application.web.listener.AuthorizationFailureEventListener" rx="2.5" ry="2.5" style="stroke:#181818;stroke-width:0.5;" width="380" x="9" y="132"/><ellipse cx="71.75" cy="150.9688" fill="#ADD1B2" rx="11" ry="11" style="stroke:#181818;stroke-width:1.0;"/><path d="M74.7188,156.6094 Q74.1406,156.9063 73.5,157.0469 Q72.8594,157.2031 72.1563,157.2031 Q69.6563,157.2031 68.3281,155.5625 Q67.0156,153.9063 67.0156,150.7813 Q67.0156,147.6563 68.3281,146 Q69.6563,144.3438 72.1563,144.3438 Q72.8594,144.3438 73.5,144.5 Q74.1563,144.6563 74.7188,144.9531 L74.7188,147.6719 Q74.0938,147.0938 73.5,146.8281 Q72.9063,146.5469 72.2813,146.5469 Q70.9375,146.5469 70.25,147.625 Q69.5625,148.6875 69.5625,150.7813 Q69.5625,152.875 70.25,153.9531 Q70.9375,155.0156 72.2813,155.0156 Q72.9063,155.0156 73.5,154.75 Q74.0938,154.4688 74.7188,153.8906 L74.7188,156.6094 Z " fill="#000000"/><text fill="#000000" font-family="sans-serif" font-size="14" lengthAdjust="spacing" textLength="230" x="100.25" y="149.9951">AuthorizationFailureEventListener</text><text fill="#000000" font-family="sans-serif" font-size="10" lengthAdjust="spacing" textLength="246" x="92.25" y="162.5791">com.hack23.cia.web.impl.ui.application.web.listener</text><line style="stroke:#181818;stroke-width:0.5;" x1="10" x2="388" y1="169.9375" y2="169.9375"/><ellipse cx="20" cy="180.9375" fill="#84BE84" rx="3" ry="3" style="stroke:#038048;stroke-width:1.0;"/><text fill="#000000" font-family="sans-serif" font-size="14" lengthAdjust="spacing" textLength="354" x="29" y="186.9326">onApplicationEvent(AuthorizationFailureEvent): void</text></g></a><!--MD5=[c0fb8348a6dea4e4beae186b0fa320dc]
class org.springframework.context.ApplicationListener--><g id="elem_org.springframework.context.ApplicationListener"><rect codeLine="9" fill="#F1F1F1" height="62.2344" id="org.springframework.context.ApplicationListener" rx="2.5" ry="2.5" style="stroke:#181818;stroke-width:0.5;" width="384" x="7" y="10"/><ellipse cx="41.8" cy="28.9688" fill="#B4A7E5" rx="11" ry="11" style="stroke:#181818;stroke-width:1.0;"/><path d="M37.7219,24.7344 L37.7219,22.5781 L45.1125,22.5781 L45.1125,24.7344 L42.6438,24.7344 L42.6438,32.8125 L45.1125,32.8125 L45.1125,34.9688 L37.7219,34.9688 L37.7219,32.8125 L40.1906,32.8125 L40.1906,24.7344 L37.7219,24.7344 Z " fill="#000000"/><text fill="#000000" font-family="sans-serif" font-size="14" font-style="italic" lengthAdjust="spacing" textLength="131" x="66.7" y="27.9951">ApplicationListener</text><text fill="#000000" font-family="sans-serif" font-size="10" font-style="italic" lengthAdjust="spacing" textLength="144" x="60.2" y="40.5791">org.springframework.context</text><rect fill="#FFFFFF" height="15.9688" style="stroke:#000000;stroke-width:1.0;stroke-dasharray:2.0,2.0;" width="162" x="232" y="7"/><text fill="#000000" font-family="sans-serif" font-size="12" font-style="italic" lengthAdjust="spacing" textLength="160" x="233" y="19.1387">AuthorizationFailureEvent</text><line style="stroke:#181818;stroke-width:0.5;" x1="8" x2="390" y1="47.9375" y2="47.9375"/><ellipse cx="18" cy="58.9375" fill="#84BE84" rx="3" ry="3" style="stroke:#038048;stroke-width:1.0;"/><text fill="#000000" font-family="sans-serif" font-size="14" font-style="italic" lengthAdjust="spacing" textLength="358" x="27" y="64.9326">onApplicationEvent(AuthorizationFailureEvent): void</text></g><!--MD5=[9a3c8d9a0669452faadea237ea1fb005]
reverse link org.springframework.context.ApplicationListener to com.hack23.cia.web.impl.ui.application.web.listener.AuthorizationFailureEventListener--><g id="link_org.springframework.context.ApplicationListener_com.hack23.cia.web.impl.ui.application.web.listener.AuthorizationFailureEventListener"><path codeLine="13" d="M199,92.37 C199,105.75 199,119.79 199,131.73 " fill="none" id="org.springframework.context.ApplicationListener-backto-com.hack23.cia.web.impl.ui.application.web.listener.AuthorizationFailureEventListener" style="stroke:#181818;stroke-width:1.0;stroke-dasharray:7.0,7.0;"/><polygon fill="none" points="192,92.28,199,72.28,206,92.28,192,92.28" style="stroke:#181818;stroke-width:1.0;"/></g><rect height="11.6406" style="stroke:#00000000;stroke-width:1.0;fill:none;" width="186" x="101" y="200.2344"/><text fill="#888888" font-family="sans-serif" font-size="10" lengthAdjust="spacing" textLength="186" x="101" y="209.5166">UMLDoclet 2.0.18, PlantUML 1.2022.6</text><!--MD5=[e27a4b9313c7cd1cc553c0de0a1146ef]
@startuml
    set namespaceSeparator none
    hide empty fields
    hide empty methods

    class "<size:14>AuthorizationFailureEventListener\n<size:10>com.hack23.cia.web.impl.ui.application.web.listener" as com.hack23.cia.web.impl.ui.application.web.listener.AuthorizationFailureEventListener [[AuthorizationFailureEventListener.html]] {
        +onApplicationEvent(AuthorizationFailureEvent): void
    }

    interface "<size:14>ApplicationListener\n<size:10>org.springframework.context" as org.springframework.context.ApplicationListener<AuthorizationFailureEvent> {
        {abstract} +onApplicationEvent(AuthorizationFailureEvent): void
    }

    org.springframework.context.ApplicationListener <|.. com.hack23.cia.web.impl.ui.application.web.listener.AuthorizationFailureEventListener

    center footer UMLDoclet 2.0.18, PlantUML 1.2022.6
@enduml

PlantUML version 1.2022.6(Tue Jun 21 19:34:49 CEST 2022)
(APACHE source distribution)
Java Runtime: OpenJDK Runtime Environment
JVM: OpenJDK 64-Bit Server VM
Default Encoding: ANSI_X3.4-1968
Language: en
Country: US
--></g></svg>