<?xml version="1.0" encoding="UTF-8" standalone="no"?><svg xmlns="http://www.w3.org/2000/svg" xmlns:xlink="http://www.w3.org/1999/xlink" contentStyleType="text/css" height="253px" preserveAspectRatio="none" style="width:706px;height:253px;background:#FFFFFF;" version="1.1" viewBox="0 0 706 253" width="706px" zoomAndPan="magnify"><defs/><g><!--MD5=[77e4e980c6bb1c7ec509a056e512bead]
class com.hack23.cia.web.impl.ui.application.views.pageclicklistener.DisableGoogleAuthenticatorCredentialClickListener--><a href="DisableGoogleAuthenticatorCredentialClickListener.html" target="_top" title="DisableGoogleAuthenticatorCredentialClickListener.html" xlink:actuate="onRequest" xlink:href="DisableGoogleAuthenticatorCredentialClickListener.html" xlink:show="new" xlink:title="DisableGoogleAuthenticatorCredentialClickListener.html" xlink:type="simple"><g id="elem_com.hack23.cia.web.impl.ui.application.views.pageclicklistener.DisableGoogleAuthenticatorCredentialClickListener"><rect codeLine="5" fill="#F1F1F1" height="88.8237" id="com.hack23.cia.web.impl.ui.application.views.pageclicklistener.DisableGoogleAuthenticatorCredentialClickListener" rx="2.5" ry="2.5" style="stroke:#181818;stroke-width:0.5;" width="692" x="7" y="137"/><ellipse cx="176.75" cy="158.344" fill="#ADD1B2" rx="11" ry="11" style="stroke:#181818;stroke-width:1.0;"/><path d="M179.7188,163.9846 Q179.1406,164.2815 178.5,164.4221 Q177.8594,164.5783 177.1563,164.5783 Q174.6563,164.5783 173.3281,162.9377 Q172.0156,161.2815 172.0156,158.1565 Q172.0156,155.0315 173.3281,153.3752 Q174.6563,151.719 177.1563,151.719 Q177.8594,151.719 178.5,151.8752 Q179.1563,152.0315 179.7188,152.3283 L179.7188,155.0471 Q179.0938,154.469 178.5,154.2033 Q177.9063,153.9221 177.2813,153.9221 Q175.9375,153.9221 175.25,155.0002 Q174.5625,156.0627 174.5625,158.1565 Q174.5625,160.2502 175.25,161.3283 Q175.9375,162.3908 177.2813,162.3908 Q177.9063,162.3908 178.5,162.1252 Q179.0938,161.844 179.7188,161.2658 L179.7188,163.9846 Z " fill="#000000"/><text fill="#000000" font-family="sans-serif" font-size="14" lengthAdjust="spacing" textLength="344" x="197.25" y="156.9659">DisableGoogleAuthenticatorCredentialClickListener</text><text fill="#000000" font-family="sans-serif" font-size="10" lengthAdjust="spacing" textLength="305" x="216.75" y="171.7579">com.hack23.cia.web.impl.ui.application.views.pageclicklistener</text><line style="stroke:#181818;stroke-width:0.5;" x1="8" x2="698" y1="179.6879" y2="179.6879"/><ellipse cx="18" cy="194.7219" fill="#84BE84" rx="3" ry="3" style="stroke:#038048;stroke-width:1.0;"/><text fill="#000000" font-family="sans-serif" font-size="14" lengthAdjust="spacing" textLength="666" x="27" y="198.6538">DisableGoogleAuthenticatorCredentialClickListener(DisableGoogleAuthenticatorCredentialRequest)</text><ellipse cx="18" cy="213.7898" fill="#84BE84" rx="3" ry="3" style="stroke:#038048;stroke-width:1.0;"/><text fill="#000000" font-family="sans-serif" font-size="14" lengthAdjust="spacing" textLength="188" x="27" y="217.7218">buttonClick(ClickEvent): void</text></g></a><!--MD5=[c8b74d6c3e7b4a4086db53b8a4347040]
class com.vaadin.ui.Button.ClickListener--><g id="elem_com.vaadin.ui.Button.ClickListener"><rect codeLine="10" fill="#F1F1F1" height="69.7558" id="com.vaadin.ui.Button.ClickListener" rx="2.5" ry="2.5" style="stroke:#181818;stroke-width:0.5;" width="203" x="251.5" y="7"/><ellipse cx="287.2" cy="28.344" fill="#B4A7E5" rx="11" ry="11" style="stroke:#181818;stroke-width:1.0;"/><path d="M283.1219,24.1096 L283.1219,21.9533 L290.5125,21.9533 L290.5125,24.1096 L288.0438,24.1096 L288.0438,32.1877 L290.5125,32.1877 L290.5125,34.344 L283.1219,34.344 L283.1219,32.1877 L285.5906,32.1877 L285.5906,24.1096 L283.1219,24.1096 Z " fill="#000000"/><text fill="#000000" font-family="sans-serif" font-size="14" font-style="italic" lengthAdjust="spacing" textLength="125" x="305.8" y="26.9659">Button.ClickListener</text><text fill="#000000" font-family="sans-serif" font-size="10" font-style="italic" lengthAdjust="spacing" textLength="67" x="334.8" y="41.7579">com.vaadin.ui</text><line style="stroke:#181818;stroke-width:0.5;" x1="252.5" x2="453.5" y1="49.6879" y2="49.6879"/><ellipse cx="262.5" cy="64.7219" fill="#84BE84" rx="3" ry="3" style="stroke:#038048;stroke-width:1.0;"/><text fill="#000000" font-family="sans-serif" font-size="14" font-style="italic" lengthAdjust="spacing" textLength="177" x="271.5" y="68.6538">buttonClick(ClickEvent): void</text></g><!--MD5=[4a3c622518a05651c65c3fd256337ea5]
reverse link com.vaadin.ui.Button.ClickListener to com.hack23.cia.web.impl.ui.application.views.pageclicklistener.DisableGoogleAuthenticatorCredentialClickListener--><g id="link_com.vaadin.ui.Button.ClickListener_com.hack23.cia.web.impl.ui.application.views.pageclicklistener.DisableGoogleAuthenticatorCredentialClickListener"><path codeLine="14" d="M353,97.65 C353,110.72 353,124.49 353,136.98 " fill="none" id="com.vaadin.ui.Button.ClickListener-backto-com.hack23.cia.web.impl.ui.application.views.pageclicklistener.DisableGoogleAuthenticatorCredentialClickListener" style="stroke:#181818;stroke-width:1.0;stroke-dasharray:7.0,7.0;"/><polygon fill="none" points="346,97.34,353,77.34,360,97.34,346,97.34" style="stroke:#181818;stroke-width:1.0;"/></g><rect fill="none" height="13.62" style="stroke:none;stroke-width:1.0;" width="188" x="252" y="231.8237"/><text fill="#888888" font-family="sans-serif" font-size="10" lengthAdjust="spacing" textLength="188" x="252" y="242.5137">UMLDoclet 2.0.20, PlantUML 1.2022.12</text><!--MD5=[87e1f02ed4028bdd93904ef7a048bcdb]
@startuml
    set namespaceSeparator none
    hide empty fields
    hide empty methods

    class "<size:14>DisableGoogleAuthenticatorCredentialClickListener\n<size:10>com.hack23.cia.web.impl.ui.application.views.pageclicklistener" as com.hack23.cia.web.impl.ui.application.views.pageclicklistener.DisableGoogleAuthenticatorCredentialClickListener [[DisableGoogleAuthenticatorCredentialClickListener.html]] {
        +DisableGoogleAuthenticatorCredentialClickListener(DisableGoogleAuthenticatorCredentialRequest)
        +buttonClick(ClickEvent): void
    }

    interface "<size:14>Button.ClickListener\n<size:10>com.vaadin.ui" as com.vaadin.ui.Button.ClickListener {
        {abstract} +buttonClick(ClickEvent): void
    }

    com.vaadin.ui.Button.ClickListener <|.. com.hack23.cia.web.impl.ui.application.views.pageclicklistener.DisableGoogleAuthenticatorCredentialClickListener

    center footer UMLDoclet 2.0.20, PlantUML 1.2022.12
@enduml

PlantUML version 1.2022.12(Sun Oct 23 20:12:26 CEST 2022)
(APACHE source distribution)
Java Runtime: OpenJDK Runtime Environment
JVM: OpenJDK 64-Bit Server VM
Default Encoding: UTF-8
Language: 
Country: 
--></g></svg>