<?xml version="1.0" encoding="UTF-8" standalone="no"?><svg xmlns="http://www.w3.org/2000/svg" xmlns:xlink="http://www.w3.org/1999/xlink" contentStyleType="text/css" height="253px" preserveAspectRatio="none" style="width:351px;height:253px;background:#FFFFFF;" version="1.1" viewBox="0 0 351 253" width="351px" zoomAndPan="magnify"><defs/><g><!--MD5=[c428a6606aa3f604259296c967adb273]
class com.hack23.cia.web.impl.ui.application.views.pageclicklistener.LogoutClickListener--><a href="LogoutClickListener.html" target="_top" title="LogoutClickListener.html" xlink:actuate="onRequest" xlink:href="LogoutClickListener.html" xlink:show="new" xlink:title="LogoutClickListener.html" xlink:type="simple"><g id="elem_com.hack23.cia.web.impl.ui.application.views.pageclicklistener.LogoutClickListener"><rect codeLine="5" fill="#F1F1F1" height="88.8237" id="com.hack23.cia.web.impl.ui.application.views.pageclicklistener.LogoutClickListener" rx="2.5" ry="2.5" style="stroke:#181818;stroke-width:0.5;" width="337" x="7" y="137"/><ellipse cx="22" cy="158.344" fill="#ADD1B2" rx="11" ry="11" style="stroke:#181818;stroke-width:1.0;"/><path d="M24.9688,163.9846 Q24.3906,164.2815 23.75,164.4221 Q23.1094,164.5783 22.4063,164.5783 Q19.9063,164.5783 18.5781,162.9377 Q17.2656,161.2815 17.2656,158.1565 Q17.2656,155.0315 18.5781,153.3752 Q19.9063,151.719 22.4063,151.719 Q23.1094,151.719 23.75,151.8752 Q24.4063,152.0315 24.9688,152.3283 L24.9688,155.0471 Q24.3438,154.469 23.75,154.2033 Q23.1563,153.9221 22.5313,153.9221 Q21.1875,153.9221 20.5,155.0002 Q19.8125,156.0627 19.8125,158.1565 Q19.8125,160.2502 20.5,161.3283 Q21.1875,162.3908 22.5313,162.3908 Q23.1563,162.3908 23.75,162.1252 Q24.3438,161.844 24.9688,161.2658 L24.9688,163.9846 Z " fill="#000000"/><text fill="#000000" font-family="sans-serif" font-size="14" lengthAdjust="spacing" textLength="131" x="123" y="156.9659">LogoutClickListener</text><text fill="#000000" font-family="sans-serif" font-size="10" lengthAdjust="spacing" textLength="305" x="36" y="171.7579">com.hack23.cia.web.impl.ui.application.views.pageclicklistener</text><line style="stroke:#181818;stroke-width:0.5;" x1="8" x2="343" y1="179.6879" y2="179.6879"/><ellipse cx="18" cy="194.7219" fill="#84BE84" rx="3" ry="3" style="stroke:#038048;stroke-width:1.0;"/><text fill="#000000" font-family="sans-serif" font-size="14" lengthAdjust="spacing" textLength="240" x="27" y="198.6538">LogoutClickListener(LogoutRequest)</text><ellipse cx="18" cy="213.7898" fill="#84BE84" rx="3" ry="3" style="stroke:#038048;stroke-width:1.0;"/><text fill="#000000" font-family="sans-serif" font-size="14" lengthAdjust="spacing" textLength="188" x="27" y="217.7218">buttonClick(ClickEvent): void</text></g></a><!--MD5=[c8b74d6c3e7b4a4086db53b8a4347040]
class com.vaadin.ui.Button.ClickListener--><g id="elem_com.vaadin.ui.Button.ClickListener"><rect codeLine="10" fill="#F1F1F1" height="69.7558" id="com.vaadin.ui.Button.ClickListener" rx="2.5" ry="2.5" style="stroke:#181818;stroke-width:0.5;" width="203" x="74" y="7"/><ellipse cx="109.7" cy="28.344" fill="#B4A7E5" rx="11" ry="11" style="stroke:#181818;stroke-width:1.0;"/><path d="M105.6219,24.1096 L105.6219,21.9533 L113.0125,21.9533 L113.0125,24.1096 L110.5438,24.1096 L110.5438,32.1877 L113.0125,32.1877 L113.0125,34.344 L105.6219,34.344 L105.6219,32.1877 L108.0906,32.1877 L108.0906,24.1096 L105.6219,24.1096 Z " fill="#000000"/><text fill="#000000" font-family="sans-serif" font-size="14" font-style="italic" lengthAdjust="spacing" textLength="125" x="128.3" y="26.9659">Button.ClickListener</text><text fill="#000000" font-family="sans-serif" font-size="10" font-style="italic" lengthAdjust="spacing" textLength="67" x="157.3" y="41.7579">com.vaadin.ui</text><line style="stroke:#181818;stroke-width:0.5;" x1="75" x2="276" y1="49.6879" y2="49.6879"/><ellipse cx="85" cy="64.7219" fill="#84BE84" rx="3" ry="3" style="stroke:#038048;stroke-width:1.0;"/><text fill="#000000" font-family="sans-serif" font-size="14" font-style="italic" lengthAdjust="spacing" textLength="177" x="94" y="68.6538">buttonClick(ClickEvent): void</text></g><!--MD5=[89b417a8c316e5a20e17558f01c45dfe]
reverse link com.vaadin.ui.Button.ClickListener to com.hack23.cia.web.impl.ui.application.views.pageclicklistener.LogoutClickListener--><g id="link_com.vaadin.ui.Button.ClickListener_com.hack23.cia.web.impl.ui.application.views.pageclicklistener.LogoutClickListener"><path codeLine="14" d="M175.5,97.65 C175.5,110.72 175.5,124.49 175.5,136.98 " fill="none" id="com.vaadin.ui.Button.ClickListener-backto-com.hack23.cia.web.impl.ui.application.views.pageclicklistener.LogoutClickListener" style="stroke:#181818;stroke-width:1.0;stroke-dasharray:7.0,7.0;"/><polygon fill="none" points="168.5,97.34,175.5,77.34,182.5,97.34,168.5,97.34" style="stroke:#181818;stroke-width:1.0;"/></g><rect fill="none" height="13.62" style="stroke:none;stroke-width:1.0;" width="188" x="74.5" y="231.8237"/><text fill="#888888" font-family="sans-serif" font-size="10" lengthAdjust="spacing" textLength="188" x="74.5" y="242.5137">UMLDoclet 2.0.20, PlantUML 1.2022.12</text><!--MD5=[a97520bbe7b51670424f380fc2f9037f]
@startuml
    set namespaceSeparator none
    hide empty fields
    hide empty methods

    class "<size:14>LogoutClickListener\n<size:10>com.hack23.cia.web.impl.ui.application.views.pageclicklistener" as com.hack23.cia.web.impl.ui.application.views.pageclicklistener.LogoutClickListener [[LogoutClickListener.html]] {
        +LogoutClickListener(LogoutRequest)
        +buttonClick(ClickEvent): void
    }

    interface "<size:14>Button.ClickListener\n<size:10>com.vaadin.ui" as com.vaadin.ui.Button.ClickListener {
        {abstract} +buttonClick(ClickEvent): void
    }

    com.vaadin.ui.Button.ClickListener <|.. com.hack23.cia.web.impl.ui.application.views.pageclicklistener.LogoutClickListener

    center footer UMLDoclet 2.0.20, PlantUML 1.2022.12
@enduml

PlantUML version 1.2022.12(Sun Oct 23 20:12:26 CEST 2022)
(APACHE source distribution)
Java Runtime: OpenJDK Runtime Environment
JVM: OpenJDK 64-Bit Server VM
Default Encoding: UTF-8
Language: 
Country: 
--></g></svg>