<?xml version="1.0" encoding="UTF-8" standalone="no"?><svg xmlns="http://www.w3.org/2000/svg" xmlns:xlink="http://www.w3.org/1999/xlink" contentStyleType="text/css" height="253px" preserveAspectRatio="none" style="width:430px;height:253px;background:#FFFFFF;" version="1.1" viewBox="0 0 430 253" width="430px" zoomAndPan="magnify"><defs/><g><!--MD5=[73907183e73c1cc3c81818fc565e2e9a]
class com.hack23.cia.web.impl.ui.application.views.pageclicklistener.RefreshDataViewsClickListener--><a href="RefreshDataViewsClickListener.html" target="_top" title="RefreshDataViewsClickListener.html" xlink:actuate="onRequest" xlink:href="RefreshDataViewsClickListener.html" xlink:show="new" xlink:title="RefreshDataViewsClickListener.html" xlink:type="simple"><g id="elem_com.hack23.cia.web.impl.ui.application.views.pageclicklistener.RefreshDataViewsClickListener"><rect codeLine="5" fill="#F1F1F1" height="88.8237" id="com.hack23.cia.web.impl.ui.application.views.pageclicklistener.RefreshDataViewsClickListener" rx="2.5" ry="2.5" style="stroke:#181818;stroke-width:0.5;" width="416" x="7" y="137"/><ellipse cx="58.25" cy="158.344" fill="#ADD1B2" rx="11" ry="11" style="stroke:#181818;stroke-width:1.0;"/><path d="M61.2188,163.9846 Q60.6406,164.2815 60,164.4221 Q59.3594,164.5783 58.6563,164.5783 Q56.1563,164.5783 54.8281,162.9377 Q53.5156,161.2815 53.5156,158.1565 Q53.5156,155.0315 54.8281,153.3752 Q56.1563,151.719 58.6563,151.719 Q59.3594,151.719 60,151.8752 Q60.6563,152.0315 61.2188,152.3283 L61.2188,155.0471 Q60.5938,154.469 60,154.2033 Q59.4063,153.9221 58.7813,153.9221 Q57.4375,153.9221 56.75,155.0002 Q56.0625,156.0627 56.0625,158.1565 Q56.0625,160.2502 56.75,161.3283 Q57.4375,162.3908 58.7813,162.3908 Q59.4063,162.3908 60,162.1252 Q60.5938,161.844 61.2188,161.2658 L61.2188,163.9846 Z " fill="#000000"/><text fill="#000000" font-family="sans-serif" font-size="14" lengthAdjust="spacing" textLength="206" x="128.25" y="156.9659">RefreshDataViewsClickListener</text><text fill="#000000" font-family="sans-serif" font-size="10" lengthAdjust="spacing" textLength="305" x="78.75" y="171.7579">com.hack23.cia.web.impl.ui.application.views.pageclicklistener</text><line style="stroke:#181818;stroke-width:0.5;" x1="8" x2="422" y1="179.6879" y2="179.6879"/><ellipse cx="18" cy="194.7219" fill="#84BE84" rx="3" ry="3" style="stroke:#038048;stroke-width:1.0;"/><text fill="#000000" font-family="sans-serif" font-size="14" lengthAdjust="spacing" textLength="390" x="27" y="198.6538">RefreshDataViewsClickListener(RefreshDataViewsRequest)</text><ellipse cx="18" cy="213.7898" fill="#84BE84" rx="3" ry="3" style="stroke:#038048;stroke-width:1.0;"/><text fill="#000000" font-family="sans-serif" font-size="14" lengthAdjust="spacing" textLength="188" x="27" y="217.7218">buttonClick(ClickEvent): void</text></g></a><!--MD5=[c8b74d6c3e7b4a4086db53b8a4347040]
class com.vaadin.ui.Button.ClickListener--><g id="elem_com.vaadin.ui.Button.ClickListener"><rect codeLine="10" fill="#F1F1F1" height="69.7558" id="com.vaadin.ui.Button.ClickListener" rx="2.5" ry="2.5" style="stroke:#181818;stroke-width:0.5;" width="203" x="113.5" y="7"/><ellipse cx="149.2" cy="28.344" fill="#B4A7E5" rx="11" ry="11" style="stroke:#181818;stroke-width:1.0;"/><path d="M145.1219,24.1096 L145.1219,21.9533 L152.5125,21.9533 L152.5125,24.1096 L150.0438,24.1096 L150.0438,32.1877 L152.5125,32.1877 L152.5125,34.344 L145.1219,34.344 L145.1219,32.1877 L147.5906,32.1877 L147.5906,24.1096 L145.1219,24.1096 Z " fill="#000000"/><text fill="#000000" font-family="sans-serif" font-size="14" font-style="italic" lengthAdjust="spacing" textLength="125" x="167.8" y="26.9659">Button.ClickListener</text><text fill="#000000" font-family="sans-serif" font-size="10" font-style="italic" lengthAdjust="spacing" textLength="67" x="196.8" y="41.7579">com.vaadin.ui</text><line style="stroke:#181818;stroke-width:0.5;" x1="114.5" x2="315.5" y1="49.6879" y2="49.6879"/><ellipse cx="124.5" cy="64.7219" fill="#84BE84" rx="3" ry="3" style="stroke:#038048;stroke-width:1.0;"/><text fill="#000000" font-family="sans-serif" font-size="14" font-style="italic" lengthAdjust="spacing" textLength="177" x="133.5" y="68.6538">buttonClick(ClickEvent): void</text></g><!--MD5=[dcd22e1287d439348671636a3b8fd88c]
reverse link com.vaadin.ui.Button.ClickListener to com.hack23.cia.web.impl.ui.application.views.pageclicklistener.RefreshDataViewsClickListener--><g id="link_com.vaadin.ui.Button.ClickListener_com.hack23.cia.web.impl.ui.application.views.pageclicklistener.RefreshDataViewsClickListener"><path codeLine="14" d="M215,97.65 C215,110.72 215,124.49 215,136.98 " fill="none" id="com.vaadin.ui.Button.ClickListener-backto-com.hack23.cia.web.impl.ui.application.views.pageclicklistener.RefreshDataViewsClickListener" style="stroke:#181818;stroke-width:1.0;stroke-dasharray:7.0,7.0;"/><polygon fill="none" points="208,97.34,215,77.34,222,97.34,208,97.34" style="stroke:#181818;stroke-width:1.0;"/></g><rect fill="none" height="13.62" style="stroke:none;stroke-width:1.0;" width="188" x="114" y="231.8237"/><text fill="#888888" font-family="sans-serif" font-size="10" lengthAdjust="spacing" textLength="188" x="114" y="242.5137">UMLDoclet 2.0.20, PlantUML 1.2022.12</text><!--MD5=[be37a8ba4221fda22fea946d2d9622e1]
@startuml
    set namespaceSeparator none
    hide empty fields
    hide empty methods

    class "<size:14>RefreshDataViewsClickListener\n<size:10>com.hack23.cia.web.impl.ui.application.views.pageclicklistener" as com.hack23.cia.web.impl.ui.application.views.pageclicklistener.RefreshDataViewsClickListener [[RefreshDataViewsClickListener.html]] {
        +RefreshDataViewsClickListener(RefreshDataViewsRequest)
        +buttonClick(ClickEvent): void
    }

    interface "<size:14>Button.ClickListener\n<size:10>com.vaadin.ui" as com.vaadin.ui.Button.ClickListener {
        {abstract} +buttonClick(ClickEvent): void
    }

    com.vaadin.ui.Button.ClickListener <|.. com.hack23.cia.web.impl.ui.application.views.pageclicklistener.RefreshDataViewsClickListener

    center footer UMLDoclet 2.0.20, PlantUML 1.2022.12
@enduml

PlantUML version 1.2022.12(Sun Oct 23 20:12:26 CEST 2022)
(APACHE source distribution)
Java Runtime: OpenJDK Runtime Environment
JVM: OpenJDK 64-Bit Server VM
Default Encoding: UTF-8
Language: 
Country: 
--></g></svg>