<svg xmlns="http://www.w3.org/2000/svg" xmlns:xlink="http://www.w3.org/1999/xlink" contentStyleType="text/css" data-diagram-type="CLASS" height="282px" preserveAspectRatio="none" style="width:422px;height:282px;background:#FFFFFF;" version="1.1" viewBox="0 0 422 282" width="422px" zoomAndPan="magnify"><defs/><g><!--class com.hack23.cia.web.impl.ui.application.views.pageclicklistener.RefreshDataViewsClickListener--><g class="entity" data-entity="com.hack23.cia.web.impl.ui.application.views.pageclicklistener.RefreshDataViewsClickListener" data-source-line="13" data-uid="ent0002" id="entity_com.hack23.cia.web.impl.ui.application.views.pageclicklistener.RefreshDataViewsClickListener"><a href="RefreshDataViewsClickListener.html" target="_top" title="RefreshDataViewsClickListener.html" xlink:actuate="onRequest" xlink:href="RefreshDataViewsClickListener.html" xlink:show="new" xlink:title="RefreshDataViewsClickListener.html" xlink:type="simple"><rect fill="#F1F1F1" height="134.9596" rx="2.5" ry="2.5" style="stroke:#181818;stroke-width:0.5;" width="409.2344" x="6" y="118"/><ellipse cx="59.5073" cy="139.344" fill="#ADD1B2" rx="11" ry="11" style="stroke:#181818;stroke-width:1;"/><path d="M62.476,144.9846 Q61.8979,145.2815 61.2573,145.4221 Q60.6167,145.5783 59.9135,145.5783 Q57.4135,145.5783 56.0854,143.9377 Q54.7729,142.2815 54.7729,139.1565 Q54.7729,136.0315 56.0854,134.3752 Q57.4135,132.719 59.9135,132.719 Q60.6167,132.719 61.2573,132.8752 Q61.9135,133.0315 62.476,133.3283 L62.476,136.0471 Q61.851,135.469 61.2573,135.2033 Q60.6635,134.9221 60.0385,134.9221 Q58.6948,134.9221 58.0073,136.0002 Q57.3198,137.0627 57.3198,139.1565 Q57.3198,141.2502 58.0073,142.3283 Q58.6948,143.3908 60.0385,143.3908 Q60.6635,143.3908 61.2573,143.1252 Q61.851,142.844 62.476,142.2658 L62.476,144.9846 Z " fill="#000000"/><text fill="#000000" font-family="sans-serif" font-size="14" lengthAdjust="spacing" textLength="202.2572" x="125.7386" y="137.9659">RefreshDataViewsClickListener</text><text fill="#000000" font-family="sans-serif" font-size="10" lengthAdjust="spacing" textLength="293.7198" x="80.0073" y="152.7579">com.hack23.cia.web.impl.ui.application.views.pageclicklistener</text><line style="stroke:#181818;stroke-width:0.5;" x1="7" x2="414.2344" y1="160.6879" y2="160.6879"/><ellipse cx="17" cy="175.7219" fill="none" rx="3" ry="3" style="stroke:#038048;stroke-width:1;"/><text fill="#000000" font-family="sans-serif" font-size="14" lengthAdjust="spacing" text-decoration="underline" textLength="145.8514" x="26" y="179.6538">REFRESH_DESC: String</text><ellipse cx="17" cy="194.7898" fill="none" rx="3" ry="3" style="stroke:#038048;stroke-width:1;"/><text fill="#000000" font-family="sans-serif" font-size="14" lengthAdjust="spacing" text-decoration="underline" textLength="218.0771" x="26" y="198.7218">REFRESH_VIEWS_STARTED: String</text><line style="stroke:#181818;stroke-width:0.5;" x1="7" x2="414.2344" y1="206.8237" y2="206.8237"/><ellipse cx="17" cy="221.8577" fill="#84BE84" rx="3" ry="3" style="stroke:#038048;stroke-width:1;"/><text fill="#000000" font-family="sans-serif" font-size="14" lengthAdjust="spacing" textLength="383.2344" x="26" y="225.7897">RefreshDataViewsClickListener(RefreshDataViewsRequest)</text><ellipse cx="17" cy="240.9256" fill="#84BE84" rx="3" ry="3" style="stroke:#038048;stroke-width:1;"/><text fill="#000000" font-family="sans-serif" font-size="14" lengthAdjust="spacing" textLength="185.1212" x="26" y="244.8576">buttonClick(ClickEvent): void</text></a></g><!--class com.vaadin.ui.Button.ClickListener--><g class="entity" data-entity="com.vaadin.ui.Button.ClickListener" data-source-line="20" data-uid="ent0003" id="entity_com.vaadin.ui.Button.ClickListener"><rect fill="#F1F1F1" height="69.7558" rx="2.5" ry="2.5" style="stroke:#181818;stroke-width:0.5;" width="199.8794" x="110.5" y="12"/><ellipse cx="145.8138" cy="33.344" fill="#B4A7E5" rx="11" ry="11" style="stroke:#181818;stroke-width:1;"/><path d="M141.7357,29.1096 L141.7357,26.9533 L149.1263,26.9533 L149.1263,29.1096 L146.6576,29.1096 L146.6576,37.1877 L149.1263,37.1877 L149.1263,39.344 L141.7357,39.344 L141.7357,37.1877 L144.2044,37.1877 L144.2044,29.1096 L141.7357,29.1096 Z " fill="#000000"/><text fill="#000000" font-family="sans-serif" font-size="14" font-style="italic" lengthAdjust="spacing" textLength="122.7375" x="164.328" y="31.9659">Button.ClickListener</text><text fill="#000000" font-family="sans-serif" font-size="10" font-style="italic" lengthAdjust="spacing" textLength="62.5899" x="194.4018" y="46.7579">com.vaadin.ui</text><line style="stroke:#181818;stroke-width:0.5;" x1="111.5" x2="309.3794" y1="54.6879" y2="54.6879"/><ellipse cx="121.5" cy="69.7219" fill="#84BE84" rx="3" ry="3" style="stroke:#038048;stroke-width:1;"/><text fill="#000000" font-family="sans-serif" font-size="14" font-style="italic" lengthAdjust="spacing" textLength="173.8794" x="130.5" y="73.6538">buttonClick(ClickEvent): void</text></g><g class="link" data-entity-1="com.vaadin.ui.Button.ClickListener" data-entity-2="com.hack23.cia.web.impl.ui.application.views.pageclicklistener.RefreshDataViewsClickListener" data-uid="lnk4" id="link_com.vaadin.ui.Button.ClickListener_com.hack23.cia.web.impl.ui.application.views.pageclicklistener.RefreshDataViewsClickListener"><polygon fill="none" points="210.5,82.0926,204.5,100.0926,216.5,100.0926,210.5,82.0926" style="stroke:#181818;stroke-width:1;"/><path d="M210.5,100.0926 C210.5,110.9898 210.5,105.4524 210.5,117.8448" fill="none" style="stroke:#181818;stroke-width:1;stroke-dasharray:7,7;"/></g><g class="footer" data-source-line="32"><text fill="#888888" font-family="sans-serif" font-size="10" lengthAdjust="spacing" textLength="2.6" x="205.7" y="257.69">&#160;</text><a href="https://github.com/talsma-ict/umldoclet" target="_top" title="https://github.com/talsma-ict/umldoclet" xlink:actuate="onRequest" xlink:href="https://github.com/talsma-ict/umldoclet" xlink:show="new" xlink:title="https://github.com/talsma-ict/umldoclet" xlink:type="simple"><text fill="#888888" font-family="sans-serif" font-size="10" lengthAdjust="spacing" textLength="76.7199" x="168.64" y="271.31">UMLDoclet 2.2.4</text></a></g><!--SRC=[jLHjRzem4FxUNt7hFeognOIKlg6g4gDixSIaYT3k0qNLuHXYuTYPVQ5Y7VzzJc2KTXNQD2qV4kLUddlkpdu00Dv1ssHpAoS90HcWH3gu-Tm5r35CX1OMISGWKvm81oEXZ9wuPQ00p2an5iou_EF6Mk4oesEf9_09PmZEv9OBntPse2pL_uN-W6u3VJGlZ9U6Aq5GQUzjK0g3-d4r3C9ZwADoAS9rkyzMQ4yv8GjP0posabnevo5p7GjRqcfboFsdk_GSm4nO9utsES4AfsYL6qqejOCCBRcYfIyADHLSwypNFsBr02gjgFkSN71MaZk0bjMOnz0pt_9rlsyoYnDFMU7Sv0Gk5OGQbpxdMMjC_RoGYqZugaX-bDfeKVeJ6GiGQKPp64kXOlVIwi4IuysbdIjq3dRFdVmkclN6HK-C_IgIIoIybUB1jVrSfbtfg1ZvdLx51HVSf2n1FWqF6PV87iI8oJHJB9SCiymd8VbHiLc1mJ9_17W1f5P0k-2t-6yGR2jJ60os-bb2gHeEuR4SGl4yElBr-0BsUvqFlKvqTN_PYTfDYCZwGxabxFQwypMwZ_gjNhzp-Lly_bOQbPVUdYXE0UqzvOzo8gFBh4hvxio4fhqcp8oCox35SfDIax1ZVoOsjlc-J6RRbZX3zBVE3tszaxM5lPQ-EJ8SERB8QV4NDF-WmlaFnlxhwLWoENSqL-9YtSxO67hMN_5SpJDXkr9FsqRvM_Rsz7NlJI4QIchXTOfFjV1tAbX7BfRbQXlrLhNkz62G46MkMQjD92NvYFc-QrGALbLogkMfYfTAzKApXiEL1drSYs6X9zMWKQtN-_L6itxIR7ZjEJezEpaz3CBz86m6mQ2JMvE9MaI6JnEZqk5F]--></g></svg>