<svg xmlns="http://www.w3.org/2000/svg" xmlns:xlink="http://www.w3.org/1999/xlink" contentStyleType="text/css" data-diagram-type="CLASS" height="236px" preserveAspectRatio="none" style="width:315px;height:236px;background:#FFFFFF;" version="1.1" viewBox="0 0 315 236" width="315px" zoomAndPan="magnify"><defs/><g><!--class com.hack23.cia.service.impl.action.application.access.LoginBlockedAccessImpl--><g class="entity" data-entity="com.hack23.cia.service.impl.action.application.access.LoginBlockedAccessImpl" data-source-line="13" data-uid="ent0002" id="entity_com.hack23.cia.service.impl.action.application.access.LoginBlockedAccessImpl"><a href="LoginBlockedAccessImpl.html" target="_top" title="LoginBlockedAccessImpl.html" xlink:actuate="onRequest" xlink:href="LoginBlockedAccessImpl.html" xlink:show="new" xlink:title="LoginBlockedAccessImpl.html" xlink:type="simple"><rect fill="#F1F1F1" height="88.8237" rx="2.5" ry="2.5" style="stroke:#181818;stroke-width:0.5;" width="302.8629" x="6" y="118"/><ellipse cx="30.4784" cy="139.344" fill="#ADD1B2" rx="11" ry="11" style="stroke:#181818;stroke-width:1;"/><path d="M33.4471,144.9846 Q32.869,145.2815 32.2284,145.4221 Q31.5878,145.5783 30.8846,145.5783 Q28.3846,145.5783 27.0565,143.9377 Q25.744,142.2815 25.744,139.1565 Q25.744,136.0315 27.0565,134.3752 Q28.3846,132.719 30.8846,132.719 Q31.5878,132.719 32.2284,132.8752 Q32.8846,133.0315 33.4471,133.3283 L33.4471,136.0471 Q32.8221,135.469 32.2284,135.2033 Q31.6346,134.9221 31.0096,134.9221 Q29.6659,134.9221 28.9784,136.0002 Q28.2909,137.0627 28.2909,139.1565 Q28.2909,141.2502 28.9784,142.3283 Q29.6659,143.3908 31.0096,143.3908 Q31.6346,143.3908 32.2284,143.1252 Q32.8221,142.844 33.4471,142.2658 L33.4471,144.9846 Z " fill="#000000"/><text fill="#000000" font-family="sans-serif" font-size="14" lengthAdjust="spacing" textLength="162.3154" x="90.3269" y="137.9659">LoginBlockedAccessImpl</text><text fill="#000000" font-family="sans-serif" font-size="10" lengthAdjust="spacing" textLength="249.7999" x="46.5847" y="152.7579">com.hack23.cia.service.impl.action.application.access</text><line style="stroke:#181818;stroke-width:0.5;" x1="7" x2="307.8629" y1="160.6879" y2="160.6879"/><ellipse cx="17" cy="175.7219" fill="#84BE84" rx="3" ry="3" style="stroke:#038048;stroke-width:1;"/><text fill="#000000" font-family="sans-serif" font-size="14" lengthAdjust="spacing" textLength="117.7955" x="26" y="179.6538">initSettings(): void</text><ellipse cx="17" cy="194.7898" fill="#84BE84" rx="3" ry="3" style="stroke:#038048;stroke-width:1;"/><text fill="#000000" font-family="sans-serif" font-size="14" lengthAdjust="spacing" textLength="276.8629" x="26" y="198.7218">isBlocked(String, String): LoginBlockResult</text></a></g><!--class com.hack23.cia.service.impl.action.application.access.LoginBlockedAccess--><g class="entity" data-entity="com.hack23.cia.service.impl.action.application.access.LoginBlockedAccess" data-source-line="18" data-uid="ent0003" id="entity_com.hack23.cia.service.impl.action.application.access.LoginBlockedAccess"><a href="LoginBlockedAccess.html" target="_top" title="LoginBlockedAccess.html" xlink:actuate="onRequest" xlink:href="LoginBlockedAccess.html" xlink:show="new" xlink:title="LoginBlockedAccess.html" xlink:type="simple"><rect fill="#F1F1F1" height="69.7558" rx="2.5" ry="2.5" style="stroke:#181818;stroke-width:0.5;" width="285.699" x="14.5" y="12"/><ellipse cx="36.9247" cy="33.344" fill="#B4A7E5" rx="11" ry="11" style="stroke:#181818;stroke-width:1;"/><path d="M32.8466,29.1096 L32.8466,26.9533 L40.2372,26.9533 L40.2372,29.1096 L37.7684,29.1096 L37.7684,37.1877 L40.2372,37.1877 L40.2372,39.344 L32.8466,39.344 L32.8466,37.1877 L35.3153,37.1877 L35.3153,29.1096 L32.8466,29.1096 Z " fill="#000000"/><text fill="#000000" font-family="sans-serif" font-size="14" font-style="italic" lengthAdjust="spacing" textLength="122.2896" x="110.0297" y="31.9659">LoginBlockedAccess</text><text fill="#000000" font-family="sans-serif" font-size="10" font-style="italic" lengthAdjust="spacing" textLength="237.1998" x="52.5746" y="46.7579">com.hack23.cia.service.impl.action.application.access</text><line style="stroke:#181818;stroke-width:0.5;" x1="15.5" x2="299.199" y1="54.6879" y2="54.6879"/><ellipse cx="25.5" cy="69.7219" fill="#84BE84" rx="3" ry="3" style="stroke:#038048;stroke-width:1;"/><text fill="#000000" font-family="sans-serif" font-size="14" font-style="italic" lengthAdjust="spacing" textLength="259.699" x="34.5" y="73.6538">isBlocked(String, String): LoginBlockResult</text></a></g><g class="link" data-entity-1="com.hack23.cia.service.impl.action.application.access.LoginBlockedAccess" data-entity-2="com.hack23.cia.service.impl.action.application.access.LoginBlockedAccessImpl" data-uid="lnk4" id="link_com.hack23.cia.service.impl.action.application.access.LoginBlockedAccess_com.hack23.cia.service.impl.action.application.access.LoginBlockedAccessImpl"><polygon fill="none" points="157.5,82.0537,151.5,100.0537,163.5,100.0537,157.5,82.0537" style="stroke:#181818;stroke-width:1;"/><path d="M157.5,100.0537 C157.5,111.2849 157.5,105.9359 157.5,117.7854" fill="none" style="stroke:#181818;stroke-width:1;stroke-dasharray:7,7;"/></g><g class="footer" data-source-line="30"><text fill="#888888" font-family="sans-serif" font-size="10" lengthAdjust="spacing" textLength="2.6" x="152.7" y="211.69">&#160;</text><a href="https://github.com/talsma-ict/umldoclet" target="_top" title="https://github.com/talsma-ict/umldoclet" xlink:actuate="onRequest" xlink:href="https://github.com/talsma-ict/umldoclet" xlink:show="new" xlink:title="https://github.com/talsma-ict/umldoclet" xlink:type="simple"><text fill="#888888" font-family="sans-serif" font-size="10" lengthAdjust="spacing" textLength="76.7199" x="115.64" y="225.31">UMLDoclet 2.2.4</text></a></g><!--SRC=[pLJ1Rjim3BtlAxZki1Pj5CT9YpOe2cJPi7N8WA59JsaEYipOGcJ9a-WCMTT_7srdQTO5EnGzp1VP8ldu-2G_082tC7J5skiq8o07bEa0jrz686q2ALhqaZ01dSiK0ypHE9k69X51bfGv3svHVoddFOR2sKJR53xBbOJWIgymY5Ule6ur-Ot-NOOTzFcwsdplb462m-7H3gKuwforuYW-Wuaq8PTmFPo83TfZJInYqGF6DbgX3GnPsWHzJMjGICNBg8cSm0fzqCvoJRJ1gKPLpfBKDa0XFOLgfAz6MgguTWJtFnMT20u7uz6VvAABcjm93BoLPG8txbkvdVTruMNAb8rSkv8Wv4ZIoYOMcBMLEUib5OwHkqfYAQspMCSpdI1WNj0Q5XfD4fxkCbZcUBlULqQ600UNGV_0VgTtDNAfjk-CKqjC1efF85pdXRcpcuJeIhbSP58juwvGMeg0ViNw2CrPGYfYVOGi2bPJDkyrnW7mgJshKkmd1DFf_e38A3Up6TpNqrNFiRQQnaZ4ToiS7lLXvNIo4mqRZCCnUKuvWMRbnCSEDnXAGtNHGwERjeH-mIVmJ-t-AztsQlQtNlTo7iWpyCEpnNannfS_XNZHUzFmkmoqDdYr7NdX79_cZWRLysbTe1zfknmwm__Nc_FzqTlABeoso0wbbhPY7Mqp7vfsxPr-crvtTZhDY8hGRxTJJLav5pndcsghQcb5xJ8tIUDHJzngDjkupyUj3LPEqefwhKvdqZdjHzr-nDPpqJdjTRln-N4KzwDe-g7qhi3sc5YIp9byzWi0]--></g></svg>