<?xml version="1.0" encoding="UTF-8" standalone="no"?><svg xmlns="http://www.w3.org/2000/svg" xmlns:xlink="http://www.w3.org/1999/xlink" contentScriptType="application/ecmascript" contentStyleType="text/css" height="247px" preserveAspectRatio="none" style="width:327px;height:247px;" version="1.1" viewBox="0 0 327 247" width="327px" zoomAndPan="magnify"><defs><filter height="300%" id="feywqvt2jtfor" width="300%" x="-1" y="-1"><feGaussianBlur result="blurOut" stdDeviation="2.0"/><feColorMatrix in="blurOut" result="blurOut2" type="matrix" values="0 0 0 0 0 0 0 0 0 0 0 0 0 0 0 0 0 0 .4 0"/><feOffset dx="4.0" dy="4.0" in="blurOut2" result="blurOut3"/><feBlend in="SourceGraphic" in2="blurOut3" mode="normal"/></filter></defs><g><!--cluster com.hack23.cia.model.common.api--><polygon fill="#FFFFFF" filter="url(#feywqvt2jtfor)" points="14,124,295,124,302,146.2969,305,146.2969,305,207,14,207,14,124" style="stroke: #000000; stroke-width: 1.5;"/><line style="stroke: #000000; stroke-width: 1.5;" x1="14" x2="302" y1="146.2969" y2="146.2969"/><text fill="#000000" font-family="sans-serif" font-size="14" font-weight="bold" lengthAdjust="spacingAndGlyphs" textLength="275" x="18" y="138.9951">com.hack23.cia.model.common.api</text><!--cluster java.io--><polygon fill="#FFFFFF" filter="url(#feywqvt2jtfor)" points="99,16,155,16,162,38.2969,219,38.2969,219,99,99,99,99,16" style="stroke: #000000; stroke-width: 1.5;"/><line style="stroke: #000000; stroke-width: 1.5;" x1="99" x2="162" y1="38.2969" y2="38.2969"/><text fill="#000000" font-family="sans-serif" font-size="14" font-weight="bold" lengthAdjust="spacingAndGlyphs" textLength="50" x="103" y="30.9951">java.io</text><!--class com.hack23.cia.model.common.api.ModelObject--><a href="ModelObject.html" target="_top" xlink:actuate="onRequest" xlink:show="new" xlink:title="ModelObject.html" xlink:type="simple"><rect fill="#FEFECE" filter="url(#feywqvt2jtfor)" height="48" id="com.hack23.cia.model.common.api.ModelObject" style="stroke: #A80036; stroke-width: 1.5;" width="108" x="105" y="151"/><ellipse cx="120" cy="167" fill="#B4A7E5" rx="11" ry="11" style="stroke: #A80036; stroke-width: 1.0;"/><path d="M115.9219,162.7656 L115.9219,160.6094 L123.3125,160.6094 L123.3125,162.7656 L120.8438,162.7656 L120.8438,170.8438 L123.3125,170.8438 L123.3125,173 L115.9219,173 L115.9219,170.8438 L118.3906,170.8438 L118.3906,162.7656 L115.9219,162.7656 Z "/><text fill="#000000" font-family="sans-serif" font-size="12" font-style="italic" lengthAdjust="spacingAndGlyphs" textLength="76" x="134" y="171.1543">ModelObject</text><line style="stroke: #A80036; stroke-width: 1.5;" x1="106" x2="212" y1="183" y2="183"/><line style="stroke: #A80036; stroke-width: 1.5;" x1="106" x2="212" y1="191" y2="191"/></a><!--class java.io.Serializable--><rect fill="#FEFECE" filter="url(#feywqvt2jtfor)" height="48" id="java.io.Serializable" style="stroke: #A80036; stroke-width: 1.5;" width="103" x="107.5" y="43"/><ellipse cx="122.5" cy="59" fill="#B4A7E5" rx="11" ry="11" style="stroke: #A80036; stroke-width: 1.0;"/><path d="M118.4219,54.7656 L118.4219,52.6094 L125.8125,52.6094 L125.8125,54.7656 L123.3438,54.7656 L123.3438,62.8438 L125.8125,62.8438 L125.8125,65 L118.4219,65 L118.4219,62.8438 L120.8906,62.8438 L120.8906,54.7656 L118.4219,54.7656 Z "/><text fill="#000000" font-family="sans-serif" font-size="12" font-style="italic" lengthAdjust="spacingAndGlyphs" textLength="71" x="136.5" y="63.1543">Serializable</text><line style="stroke: #A80036; stroke-width: 1.5;" x1="108.5" x2="209.5" y1="75" y2="75"/><line style="stroke: #A80036; stroke-width: 1.5;" x1="108.5" x2="209.5" y1="83" y2="83"/><!--link java.io.Serializable to com.hack23.cia.model.common.api.ModelObject--><path d="M159,111.2911 C159,124.8171 159,139.1835 159,150.8436 " fill="none" id="java.io.Serializable-com.hack23.cia.model.common.api.ModelObject" style="stroke: #A80036; stroke-width: 1.0; stroke-dasharray: 7.0,7.0;"/><polygon fill="none" points="152.0001,111.2373,159,91.2373,166.0001,111.2373,152.0001,111.2373" style="stroke: #A80036; stroke-width: 1.0;"/><text fill="#888888" font-family="sans-serif" font-size="10" lengthAdjust="spacingAndGlyphs" textLength="186" x="72.5" y="234.2822">UMLDoclet 2.0.5, PlantUML 1.2019.08</text><!--
@startuml
    namespace com.hack23.cia.model.common.api {

        interface ModelObject [[ModelObject.html]]

        java.io.Serializable <|.. ModelObject
    }

    namespace java.io {
        interface Serializable
    }

    center footer UMLDoclet 2.0.5, PlantUML 1.2019.08
@enduml

PlantUML version 1.2019.08(Sat Jul 13 21:25:14 CEST 2019)
(APACHE source distribution)
Java Runtime: OpenJDK Runtime Environment
JVM: OpenJDK 64-Bit Server VM
Java Version: 11.0.4+11-post-Ubuntu-1ubuntu219.04
Operating System: Linux
OS Version: 5.0.0-27-generic
Default Encoding: UTF-8
Language: en
Country: US
--></g></svg>