<?xml version="1.0" encoding="UTF-8" standalone="no"?><svg xmlns="http://www.w3.org/2000/svg" xmlns:xlink="http://www.w3.org/1999/xlink" contentScriptType="application/ecmascript" contentStyleType="text/css" height="273px" preserveAspectRatio="none" style="width:540px;height:273px;" version="1.1" viewBox="0 0 540 273" width="540px" zoomAndPan="magnify"><defs><filter height="300%" id="f17butdsb2mo1p" width="300%" x="-1" y="-1"><feGaussianBlur result="blurOut" stdDeviation="2.0"/><feColorMatrix in="blurOut" result="blurOut2" type="matrix" values="0 0 0 0 0 0 0 0 0 0 0 0 0 0 0 0 0 0 .4 0"/><feOffset dx="4.0" dy="4.0" in="blurOut2" result="blurOut3"/><feBlend in="SourceGraphic" in2="blurOut3" mode="normal"/></filter></defs><g><!--cluster com.hack23.cia.web.impl.ui.application.views.common.paging--><polygon fill="#FFFFFF" filter="url(#f17butdsb2mo1p)" points="14,16,508,16,515,38.2969,518,38.2969,518,233,14,233,14,16" style="stroke: #000000; stroke-width: 1.5;"/><line style="stroke: #000000; stroke-width: 1.5;" x1="14" x2="515" y1="38.2969" y2="38.2969"/><text fill="#000000" font-family="sans-serif" font-size="14" font-weight="bold" lengthAdjust="spacingAndGlyphs" textLength="488" x="18" y="30.9951">com.hack23.cia.web.impl.ui.application.views.common.paging</text><!--class com.hack23.cia.web.impl.ui.application.views.common.paging.PagingUtil--><a href="PagingUtil.html" target="_top" xlink:actuate="onRequest" xlink:show="new" xlink:title="PagingUtil.html" xlink:type="simple"><rect fill="#FEFECE" filter="url(#f17butdsb2mo1p)" height="60.8047" id="com.hack23.cia.web.impl.ui.application.views.common.paging.PagingUtil" style="stroke: #A80036; stroke-width: 1.5;" width="480" x="26" y="43"/><ellipse cx="230.75" cy="59" fill="#B4A7E5" rx="11" ry="11" style="stroke: #A80036; stroke-width: 1.0;"/><path d="M226.6719,54.7656 L226.6719,52.6094 L234.0625,52.6094 L234.0625,54.7656 L231.5938,54.7656 L231.5938,62.8438 L234.0625,62.8438 L234.0625,65 L226.6719,65 L226.6719,62.8438 L229.1406,62.8438 L229.1406,54.7656 L226.6719,54.7656 Z "/><text fill="#000000" font-family="sans-serif" font-size="12" font-style="italic" lengthAdjust="spacingAndGlyphs" textLength="62" x="251.25" y="63.1543">PagingUtil</text><line style="stroke: #A80036; stroke-width: 1.5;" x1="27" x2="505" y1="75" y2="75"/><line style="stroke: #A80036; stroke-width: 1.5;" x1="27" x2="505" y1="83" y2="83"/><ellipse cx="37" cy="94.9023" fill="#84BE84" rx="3" ry="3" style="stroke: #038048; stroke-width: 1.0;"/><text fill="#000000" font-family="sans-serif" font-size="11" font-style="italic" lengthAdjust="spacingAndGlyphs" textLength="454" x="46" y="97.2104">createPagingControls(AbstractOrderedLayout, String, String, Long, int, int): void</text></a><!--class com.hack23.cia.web.impl.ui.application.views.common.paging.PagingUtilImpl--><a href="PagingUtilImpl.html" target="_top" xlink:actuate="onRequest" xlink:show="new" xlink:title="PagingUtilImpl.html" xlink:type="simple"><rect fill="#FEFECE" filter="url(#f17butdsb2mo1p)" height="60.8047" id="com.hack23.cia.web.impl.ui.application.views.common.paging.PagingUtilImpl" style="stroke: #A80036; stroke-width: 1.5;" width="481" x="25.5" y="164"/><ellipse cx="217.75" cy="180" fill="#ADD1B2" rx="11" ry="11" style="stroke: #A80036; stroke-width: 1.0;"/><path d="M220.7188,185.6406 Q220.1406,185.9375 219.5,186.0781 Q218.8594,186.2344 218.1563,186.2344 Q215.6563,186.2344 214.3281,184.5938 Q213.0156,182.9375 213.0156,179.8125 Q213.0156,176.6875 214.3281,175.0313 Q215.6563,173.375 218.1563,173.375 Q218.8594,173.375 219.5,173.5313 Q220.1563,173.6875 220.7188,173.9844 L220.7188,176.7031 Q220.0938,176.125 219.5,175.8594 Q218.9063,175.5781 218.2813,175.5781 Q216.9375,175.5781 216.25,176.6563 Q215.5625,177.7188 215.5625,179.8125 Q215.5625,181.9063 216.25,182.9844 Q216.9375,184.0469 218.2813,184.0469 Q218.9063,184.0469 219.5,183.7813 Q220.0938,183.5 220.7188,182.9219 L220.7188,185.6406 Z "/><text fill="#000000" font-family="sans-serif" font-size="12" lengthAdjust="spacingAndGlyphs" textLength="88" x="238.25" y="184.1543">PagingUtilImpl</text><line style="stroke: #A80036; stroke-width: 1.5;" x1="26.5" x2="505.5" y1="196" y2="196"/><line style="stroke: #A80036; stroke-width: 1.5;" x1="26.5" x2="505.5" y1="204" y2="204"/><ellipse cx="36.5" cy="215.9023" fill="#84BE84" rx="3" ry="3" style="stroke: #038048; stroke-width: 1.0;"/><text fill="#000000" font-family="sans-serif" font-size="11" lengthAdjust="spacingAndGlyphs" textLength="455" x="45.5" y="218.2104">createPagingControls(AbstractOrderedLayout, String, String, Long, int, int): void</text></a><!--link com.hack23.cia.web.impl.ui.application.views.common.paging.PagingUtil to com.hack23.cia.web.impl.ui.application.views.common.paging.PagingUtilImpl--><path d="M266,124.2927 C266,137.7857 266,151.9401 266,163.9764 " fill="none" id="com.hack23.cia.web.impl.ui.application.views.common.paging.PagingUtil-com.hack23.cia.web.impl.ui.application.views.common.paging.PagingUtilImpl" style="stroke: #A80036; stroke-width: 1.0; stroke-dasharray: 7.0,7.0;"/><polygon fill="none" points="259.0001,124.0334,266,104.0334,273.0001,124.0334,259.0001,124.0334" style="stroke: #A80036; stroke-width: 1.0;"/><text fill="#888888" font-family="sans-serif" font-size="10" lengthAdjust="spacingAndGlyphs" textLength="186" x="179" y="260.2822">UMLDoclet 2.0.5, PlantUML 1.2019.08</text><!--
@startuml
    namespace com.hack23.cia.web.impl.ui.application.views.common.paging {

        interface PagingUtil [[PagingUtil.html]] {
            {abstract} +createPagingControls(AbstractOrderedLayout, String, String, Long, int, int): void
        }

        class PagingUtilImpl [[PagingUtilImpl.html]] {
            +createPagingControls(AbstractOrderedLayout, String, String, Long, int, int): void
        }

        PagingUtil <|.. PagingUtilImpl
    }

    center footer UMLDoclet 2.0.5, PlantUML 1.2019.08
@enduml

PlantUML version 1.2019.08(Sat Jul 13 21:25:14 CEST 2019)
(APACHE source distribution)
Java Runtime: OpenJDK Runtime Environment
JVM: OpenJDK 64-Bit Server VM
Java Version: 11.0.4+11-post-Ubuntu-1ubuntu219.04
Operating System: Linux
OS Version: 5.0.0-27-generic
Default Encoding: UTF-8
Language: en
Country: US
--></g></svg>