<?xml version="1.0" encoding="UTF-8" standalone="no"?><svg xmlns="http://www.w3.org/2000/svg" xmlns:xlink="http://www.w3.org/1999/xlink" contentScriptType="application/ecmascript" contentStyleType="text/css" height="218px" preserveAspectRatio="none" style="width:369px;height:218px;" version="1.1" viewBox="0 0 369 218" width="369px" zoomAndPan="magnify"><defs><filter height="300%" id="f1f809st7w9hb" width="300%" x="-1" y="-1"><feGaussianBlur result="blurOut" stdDeviation="2.0"/><feColorMatrix in="blurOut" result="blurOut2" type="matrix" values="0 0 0 0 0 0 0 0 0 0 0 0 0 0 0 0 0 0 .4 0"/><feOffset dx="4.0" dy="4.0" in="blurOut2" result="blurOut3"/><feBlend in="SourceGraphic" in2="blurOut3" mode="normal"/></filter></defs><g><!--class com.hack23.cia.web.impl.ui.application.views.admin.datasummary.AdminDataSummaryView--><a href="AdminDataSummaryView.html" target="_top" xlink:actuate="onRequest" xlink:show="new" xlink:title="AdminDataSummaryView.html" xlink:type="simple"><rect fill="#FEFECE" filter="url(#f1f809st7w9hb)" height="79.5469" id="com.hack23.cia.web.impl.ui.application.views.admin.datasummary.AdminDataSummaryView" style="stroke: #A80036; stroke-width: 1.5;" width="352" x="6" y="106"/><ellipse cx="21" cy="124.9688" fill="#ADD1B2" rx="11" ry="11" style="stroke: #A80036; stroke-width: 1.0;"/><path d="M23.9688,130.6094 Q23.3906,130.9063 22.75,131.0469 Q22.1094,131.2031 21.4063,131.2031 Q18.9063,131.2031 17.5781,129.5625 Q16.2656,127.9063 16.2656,124.7813 Q16.2656,121.6563 17.5781,120 Q18.9063,118.3438 21.4063,118.3438 Q22.1094,118.3438 22.75,118.5 Q23.4063,118.6563 23.9688,118.9531 L23.9688,121.6719 Q23.3438,121.0938 22.75,120.8281 Q22.1563,120.5469 21.5313,120.5469 Q20.1875,120.5469 19.5,121.625 Q18.8125,122.6875 18.8125,124.7813 Q18.8125,126.875 19.5,127.9531 Q20.1875,129.0156 21.5313,129.0156 Q22.1563,129.0156 22.75,128.75 Q23.3438,128.4688 23.9688,127.8906 L23.9688,130.6094 Z "/><text fill="#000000" font-family="sans-serif" font-size="14" lengthAdjust="spacingAndGlyphs" textLength="171" x="109.5" y="123.9951">AdminDataSummaryView</text><text fill="#000000" font-family="sans-serif" font-size="10" lengthAdjust="spacingAndGlyphs" textLength="320" x="35" y="136.5791">com.hack23.cia.web.impl.ui.application.views.admin.datasummary</text><line style="stroke: #A80036; stroke-width: 1.5;" x1="7" x2="357" y1="143.9375" y2="143.9375"/><ellipse cx="17" cy="155.8398" fill="none" rx="3" ry="3" style="stroke: #038048; stroke-width: 1.0;"/><text fill="#000000" font-family="sans-serif" font-size="11" lengthAdjust="spacingAndGlyphs" text-decoration="underline" textLength="73" x="26" y="158.1479">NAME: String</text><line style="stroke: #A80036; stroke-width: 1.5;" x1="7" x2="357" y1="164.7422" y2="164.7422"/><ellipse cx="17" cy="176.6445" fill="#84BE84" rx="3" ry="3" style="stroke: #038048; stroke-width: 1.0;"/><text fill="#000000" font-family="sans-serif" font-size="11" lengthAdjust="spacingAndGlyphs" textLength="254" x="26" y="178.9526">AdminDataSummaryView(ApplicationContext)</text></a><!--class com.hack23.cia.web.impl.ui.application.views.admin.common.AbstractAdminView--><a href="../common/AbstractAdminView.html" target="_top" xlink:actuate="onRequest" xlink:show="new" xlink:title="../common/AbstractAdminView.html" xlink:type="simple"><rect fill="#FEFECE" filter="url(#f1f809st7w9hb)" height="37.9375" id="com.hack23.cia.web.impl.ui.application.views.admin.common.AbstractAdminView" style="stroke: #A80036; stroke-width: 1.5;" width="341" x="11.5" y="8"/><ellipse cx="26.5" cy="26.9688" fill="#A9DCDF" rx="11" ry="11" style="stroke: #A80036; stroke-width: 1.0;"/><path d="M26.6094,22.3125 L25.4531,27.3906 L27.7813,27.3906 L26.6094,22.3125 Z M25.125,20.0781 L28.1094,20.0781 L31.4688,32.4688 L29.0156,32.4688 L28.25,29.4063 L24.9688,29.4063 L24.2188,32.4688 L21.7813,32.4688 L25.125,20.0781 Z "/><text fill="#000000" font-family="sans-serif" font-size="14" font-style="italic" lengthAdjust="spacingAndGlyphs" textLength="134" x="128" y="25.9951">AbstractAdminView</text><text fill="#000000" font-family="sans-serif" font-size="10" font-style="italic" lengthAdjust="spacingAndGlyphs" textLength="309" x="40.5" y="38.5791">com.hack23.cia.web.impl.ui.application.views.admin.common</text></a><!--link com.hack23.cia.web.impl.ui.application.views.admin.common.AbstractAdminView to com.hack23.cia.web.impl.ui.application.views.admin.datasummary.AdminDataSummaryView--><path d="M182,66.2438 C182,78.9166 182,92.9816 182,105.7276 " fill="none" id="com.hack23.cia.web.impl.ui.application.views.admin.common.AbstractAdminView-com.hack23.cia.web.impl.ui.application.views.admin.datasummary.AdminDataSummaryView" style="stroke: #A80036; stroke-width: 1.0;"/><polygon fill="none" points="175.0001,66.1194,182,46.1194,189.0001,66.1194,175.0001,66.1194" style="stroke: #A80036; stroke-width: 1.0;"/><text fill="#888888" font-family="sans-serif" font-size="10" lengthAdjust="spacingAndGlyphs" textLength="186" x="95" y="205.2822">UMLDoclet 2.0.5, PlantUML 1.2019.08</text><!--
@startuml
    set namespaceSeparator none
    hide empty fields
    hide empty methods

    class "<size:14>AdminDataSummaryView\n<size:10>com.hack23.cia.web.impl.ui.application.views.admin.datasummary" as com.hack23.cia.web.impl.ui.application.views.admin.datasummary.AdminDataSummaryView [[AdminDataSummaryView.html]] {
        {static} +NAME: String
        +AdminDataSummaryView(ApplicationContext)
    }

    abstract class "<size:14>AbstractAdminView\n<size:10>com.hack23.cia.web.impl.ui.application.views.admin.common" as com.hack23.cia.web.impl.ui.application.views.admin.common.AbstractAdminView [[../common/AbstractAdminView.html]]

    com.hack23.cia.web.impl.ui.application.views.admin.common.AbstractAdminView <|- - com.hack23.cia.web.impl.ui.application.views.admin.datasummary.AdminDataSummaryView

    center footer UMLDoclet 2.0.5, PlantUML 1.2019.08
@enduml

PlantUML version 1.2019.08(Sat Jul 13 21:25:14 CEST 2019)
(APACHE source distribution)
Java Runtime: OpenJDK Runtime Environment
JVM: OpenJDK 64-Bit Server VM
Java Version: 11.0.4+11-post-Ubuntu-1ubuntu219.04
Operating System: Linux
OS Version: 5.0.0-25-generic
Default Encoding: UTF-8
Language: en
Country: US
--></g></svg>