<?xml version="1.0" encoding="UTF-8" standalone="no"?><svg xmlns="http://www.w3.org/2000/svg" xmlns:xlink="http://www.w3.org/1999/xlink" contentScriptType="application/ecmascript" contentStyleType="text/css" height="99px" preserveAspectRatio="none" style="width:234px;height:99px;" version="1.1" viewBox="0 0 234 99" width="234px" zoomAndPan="magnify"><defs><filter height="300%" id="f15wctvmt02b2z" width="300%" x="-1" y="-1"><feGaussianBlur result="blurOut" stdDeviation="2.0"/><feColorMatrix in="blurOut" result="blurOut2" type="matrix" values="0 0 0 0 0 0 0 0 0 0 0 0 0 0 0 0 0 0 .4 0"/><feOffset dx="4.0" dy="4.0" in="blurOut2" result="blurOut3"/><feBlend in="SourceGraphic" in2="blurOut3" mode="normal"/></filter></defs><g><!--class com.hack23.cia.service.impl.BootstrapDefaultConfig--><a href="BootstrapDefaultConfig.html" target="_top" xlink:actuate="onRequest" xlink:show="new" xlink:title="BootstrapDefaultConfig.html" xlink:type="simple"><rect fill="#FEFECE" filter="url(#f15wctvmt02b2z)" height="58.7422" id="com.hack23.cia.service.impl.BootstrapDefaultConfig" style="stroke: #A80036; stroke-width: 1.5;" width="217" x="6" y="8"/><ellipse cx="31.8" cy="26.9688" fill="#ADD1B2" rx="11" ry="11" style="stroke: #A80036; stroke-width: 1.0;"/><path d="M34.7688,32.6094 Q34.1906,32.9063 33.55,33.0469 Q32.9094,33.2031 32.2063,33.2031 Q29.7063,33.2031 28.3781,31.5625 Q27.0656,29.9063 27.0656,26.7813 Q27.0656,23.6563 28.3781,22 Q29.7063,20.3438 32.2063,20.3438 Q32.9094,20.3438 33.55,20.5 Q34.2063,20.6563 34.7688,20.9531 L34.7688,23.6719 Q34.1438,23.0938 33.55,22.8281 Q32.9563,22.5469 32.3313,22.5469 Q30.9875,22.5469 30.3,23.625 Q29.6125,24.6875 29.6125,26.7813 Q29.6125,28.875 30.3,29.9531 Q30.9875,31.0156 32.3313,31.0156 Q32.9563,31.0156 33.55,30.75 Q34.1438,30.4688 34.7688,29.8906 L34.7688,32.6094 Z "/><text fill="#000000" font-family="sans-serif" font-size="14" lengthAdjust="spacingAndGlyphs" textLength="161" x="48.2" y="25.9951">BootstrapDefaultConfig</text><text fill="#000000" font-family="sans-serif" font-size="10" lengthAdjust="spacingAndGlyphs" textLength="134" x="61.7" y="38.5791">com.hack23.cia.service.impl</text><line style="stroke: #A80036; stroke-width: 1.5;" x1="7" x2="222" y1="45.9375" y2="45.9375"/><ellipse cx="17" cy="57.8398" fill="#84BE84" rx="3" ry="3" style="stroke: #038048; stroke-width: 1.0;"/><text fill="#000000" font-family="sans-serif" font-size="11" lengthAdjust="spacingAndGlyphs" textLength="191" x="26" y="60.1479">createDefaultConfiguration(): void</text></a><text fill="#888888" font-family="sans-serif" font-size="10" lengthAdjust="spacingAndGlyphs" textLength="186" x="27.5" y="86.2822">UMLDoclet 2.0.5, PlantUML 1.2019.08</text><!--
@startuml
    set namespaceSeparator none
    hide empty fields
    hide empty methods

    class "<size:14>BootstrapDefaultConfig\n<size:10>com.hack23.cia.service.impl" as com.hack23.cia.service.impl.BootstrapDefaultConfig [[BootstrapDefaultConfig.html]] {
        +createDefaultConfiguration(): void
    }

    center footer UMLDoclet 2.0.5, PlantUML 1.2019.08
@enduml

PlantUML version 1.2019.08(Sat Jul 13 21:25:14 CEST 2019)
(APACHE source distribution)
Java Runtime: OpenJDK Runtime Environment
JVM: OpenJDK 64-Bit Server VM
Java Version: 11.0.4+11-post-Ubuntu-1ubuntu219.04
Operating System: Linux
OS Version: 5.0.0-27-generic
Default Encoding: UTF-8
Language: en
Country: US
--></g></svg>