<svg xmlns="http://www.w3.org/2000/svg" xmlns:xlink="http://www.w3.org/1999/xlink" contentStyleType="text/css" height="419px" preserveAspectRatio="none" style="width:1377px;height:419px;background:#FFFFFF;" version="1.1" viewBox="0 0 1377 419" width="1377px" zoomAndPan="magnify"><defs/><g><!--cluster com.hack23.cia.service.impl--><g id="cluster_com.hack23.cia.service.impl"><path d="M16.5,136 L212.9813,136 A3.75,3.75 0 0 1 215.4813,138.5 L222.4813,161.0679 L1363.5,161.0679 A2.5,2.5 0 0 1 1366,163.5679 L1366,379.5 A2.5,2.5 0 0 1 1363.5,382 L16.5,382 A2.5,2.5 0 0 1 14,379.5 L14,138.5 A2.5,2.5 0 0 1 16.5,136 " fill="none" style="stroke:#000000;stroke-width:1.5;"/><line style="stroke:#000000;stroke-width:1.5;" x1="14" x2="222.4813" y1="161.0679" y2="161.0679"/><text fill="#000000" font-family="sans-serif" font-size="14" font-weight="bold" lengthAdjust="spacing" textLength="195.4813" x="18" y="152.9659">com.hack23.cia.service.impl</text></g><!--cluster org.springframework.security.authentication--><g id="cluster_org.springframework.security.authentication"><path d="M1037.5,4 L1357.6988,4 A3.75,3.75 0 0 1 1360.1988,6.5 L1367.1988,29.0679 L1367.5,29.0679 A2.5,2.5 0 0 1 1370,31.5679 L1370,125.5 A2.5,2.5 0 0 1 1367.5,128 L1037.5,128 A2.5,2.5 0 0 1 1035,125.5 L1035,6.5 A2.5,2.5 0 0 1 1037.5,4 " fill="none" style="stroke:#000000;stroke-width:1.5;"/><line style="stroke:#000000;stroke-width:1.5;" x1="1035" x2="1367.1988" y1="29.0679" y2="29.0679"/><text fill="#000000" font-family="sans-serif" font-size="14" font-weight="bold" lengthAdjust="spacing" textLength="319.1988" x="1039" y="20.9659">org.springframework.security.authentication</text></g><!--class SecurityAuthenticationProvider--><a href="SecurityAuthenticationProvider.html" target="_top" title="SecurityAuthenticationProvider.html" xlink:actuate="onRequest" xlink:href="SecurityAuthenticationProvider.html" xlink:show="new" xlink:title="SecurityAuthenticationProvider.html" xlink:type="simple"><g id="elem_SecurityAuthenticationProvider"><rect codeLine="12" fill="#F1F1F1" height="86.1358" id="SecurityAuthenticationProvider" rx="2.5" ry="2.5" style="stroke:#181818;stroke-width:0.5;" width="318.5009" x="1038.5" y="166"/><ellipse cx="1090.9228" cy="182" fill="#ADD1B2" rx="11" ry="11" style="stroke:#181818;stroke-width:1.0;"/><path d="M1093.8916,187.6406 Q1093.3134,187.9375 1092.6728,188.0781 Q1092.0322,188.2344 1091.3291,188.2344 Q1088.8291,188.2344 1087.5009,186.5938 Q1086.1884,184.9375 1086.1884,181.8125 Q1086.1884,178.6875 1087.5009,177.0313 Q1088.8291,175.375 1091.3291,175.375 Q1092.0322,175.375 1092.6728,175.5313 Q1093.3291,175.6875 1093.8916,175.9844 L1093.8916,178.7031 Q1093.2666,178.125 1092.6728,177.8594 Q1092.0791,177.5781 1091.4541,177.5781 Q1090.1103,177.5781 1089.4228,178.6563 Q1088.7353,179.7188 1088.7353,181.8125 Q1088.7353,183.9063 1089.4228,184.9844 Q1090.1103,186.0469 1091.4541,186.0469 Q1092.0791,186.0469 1092.6728,185.7813 Q1093.2666,185.5 1093.8916,184.9219 L1093.8916,187.6406 Z " fill="#000000"/><text fill="#000000" font-family="sans-serif" font-size="14" lengthAdjust="spacing" textLength="205.1552" x="1111.4228" y="187.432">SecurityAuthenticationProvider</text><line style="stroke:#181818;stroke-width:0.5;" x1="1039.5" x2="1356.0009" y1="198" y2="198"/><line style="stroke:#181818;stroke-width:0.5;" x1="1039.5" x2="1356.0009" y1="206" y2="206"/><ellipse cx="1049.5" cy="221.034" fill="#84BE84" rx="3" ry="3" style="stroke:#038048;stroke-width:1.0;"/><text fill="#000000" font-family="sans-serif" font-size="14" lengthAdjust="spacing" textLength="292.5009" x="1058.5" y="224.9659">authenticate(Authentication): Authentication</text><ellipse cx="1049.5" cy="240.1019" fill="#84BE84" rx="3" ry="3" style="stroke:#038048;stroke-width:1.0;"/><text fill="#000000" font-family="sans-serif" font-size="14" lengthAdjust="spacing" textLength="183.7633" x="1058.5" y="244.0339">supports(Class&lt;?&gt;): boolean</text></g></a><!--class BootstrapDefaultConfig--><a href="BootstrapDefaultConfig.html" target="_top" title="BootstrapDefaultConfig.html" xlink:actuate="onRequest" xlink:href="BootstrapDefaultConfig.html" xlink:show="new" xlink:title="BootstrapDefaultConfig.html" xlink:type="simple"><g id="elem_BootstrapDefaultConfig"><rect codeLine="17" fill="#F1F1F1" height="67.0679" id="BootstrapDefaultConfig" rx="2.5" ry="2.5" style="stroke:#181818;stroke-width:0.5;" width="249.9851" x="22" y="175.5"/><ellipse cx="64.7982" cy="191.5" fill="#ADD1B2" rx="11" ry="11" style="stroke:#181818;stroke-width:1.0;"/><path d="M67.7669,197.1406 Q67.1888,197.4375 66.5482,197.5781 Q65.9075,197.7344 65.2044,197.7344 Q62.7044,197.7344 61.3763,196.0938 Q60.0638,194.4375 60.0638,191.3125 Q60.0638,188.1875 61.3763,186.5313 Q62.7044,184.875 65.2044,184.875 Q65.9075,184.875 66.5482,185.0313 Q67.2044,185.1875 67.7669,185.4844 L67.7669,188.2031 Q67.1419,187.625 66.5482,187.3594 Q65.9544,187.0781 65.3294,187.0781 Q63.9857,187.0781 63.2982,188.1563 Q62.6107,189.2188 62.6107,191.3125 Q62.6107,193.4063 63.2982,194.4844 Q63.9857,195.5469 65.3294,195.5469 Q65.9544,195.5469 66.5482,195.2813 Q67.1419,195 67.7669,194.4219 L67.7669,197.1406 Z " fill="#000000"/><text fill="#000000" font-family="sans-serif" font-size="14" lengthAdjust="spacing" textLength="156.2114" x="84.9755" y="196.932">BootstrapDefaultConfig</text><line style="stroke:#181818;stroke-width:0.5;" x1="23" x2="270.9851" y1="207.5" y2="207.5"/><line style="stroke:#181818;stroke-width:0.5;" x1="23" x2="270.9851" y1="215.5" y2="215.5"/><ellipse cx="33" cy="230.534" fill="#84BE84" rx="3" ry="3" style="stroke:#038048;stroke-width:1.0;"/><text fill="#000000" font-family="sans-serif" font-size="14" lengthAdjust="spacing" textLength="223.9851" x="42" y="234.4659">createDefaultConfiguration(): void</text></g></a><!--class ViewDataDataContainerFactory--><a href="ViewDataDataContainerFactory.html" target="_top" title="ViewDataDataContainerFactory.html" xlink:actuate="onRequest" xlink:href="ViewDataDataContainerFactory.html" xlink:show="new" xlink:title="ViewDataDataContainerFactory.html" xlink:type="simple"><g id="elem_ViewDataDataContainerFactory"><rect codeLine="21" fill="#F1F1F1" height="67.0679" id="ViewDataDataContainerFactory" rx="2.5" ry="2.5" style="stroke:#181818;stroke-width:0.5;" width="730.1411" x="290" y="175.5"/><ellipse cx="553.3599" cy="191.5" fill="#B4A7E5" rx="11" ry="11" style="stroke:#181818;stroke-width:1.0;"/><path d="M549.2818,187.2656 L549.2818,185.1094 L556.6724,185.1094 L556.6724,187.2656 L554.2037,187.2656 L554.2037,195.3438 L556.6724,195.3438 L556.6724,197.5 L549.2818,197.5 L549.2818,195.3438 L551.7506,195.3438 L551.7506,187.2656 L549.2818,187.2656 Z " fill="#000000"/><text fill="#000000" font-family="sans-serif" font-size="14" font-style="italic" lengthAdjust="spacing" textLength="194.9212" x="573.8599" y="196.932">ViewDataDataContainerFactory</text><line style="stroke:#181818;stroke-width:0.5;" x1="291" x2="1019.1411" y1="207.5" y2="207.5"/><line style="stroke:#181818;stroke-width:0.5;" x1="291" x2="1019.1411" y1="215.5" y2="215.5"/><ellipse cx="301" cy="230.534" fill="#84BE84" rx="3" ry="3" style="stroke:#038048;stroke-width:1.0;"/><text fill="#000000" font-family="sans-serif" font-size="14" font-style="italic" lengthAdjust="spacing" textLength="704.1411" x="310" y="234.4659">createDataContainer(Class&lt;T extends Serializable&gt;): DataContainer&lt;T extends Serializable, I extends Serializable&gt;</text></g></a><!--class ViewRiksdagenCommitteeDataContainer--><a href="ViewRiksdagenCommitteeDataContainer.html" target="_top" title="ViewRiksdagenCommitteeDataContainer.html" xlink:actuate="onRequest" xlink:href="ViewRiksdagenCommitteeDataContainer.html" xlink:show="new" xlink:title="ViewRiksdagenCommitteeDataContainer.html" xlink:type="simple"><g id="elem_ViewRiksdagenCommitteeDataContainer"><rect codeLine="25" fill="#F1F1F1" height="86.1358" id="ViewRiksdagenCommitteeDataContainer" rx="2.5" ry="2.5" style="stroke:#181818;stroke-width:0.5;" width="377.8186" x="22" y="288"/><ellipse cx="72.7358" cy="304" fill="#ADD1B2" rx="11" ry="11" style="stroke:#181818;stroke-width:1.0;"/><path d="M75.7046,309.6406 Q75.1264,309.9375 74.4858,310.0781 Q73.8452,310.2344 73.1421,310.2344 Q70.6421,310.2344 69.3139,308.5938 Q68.0014,306.9375 68.0014,303.8125 Q68.0014,300.6875 69.3139,299.0313 Q70.6421,297.375 73.1421,297.375 Q73.8452,297.375 74.4858,297.5313 Q75.1421,297.6875 75.7046,297.9844 L75.7046,300.7031 Q75.0796,300.125 74.4858,299.8594 Q73.8921,299.5781 73.2671,299.5781 Q71.9233,299.5781 71.2358,300.6563 Q70.5483,301.7188 70.5483,303.8125 Q70.5483,305.9063 71.2358,306.9844 Q71.9233,308.0469 73.2671,308.0469 Q73.8921,308.0469 74.4858,307.7813 Q75.0796,307.5 75.7046,306.9219 L75.7046,309.6406 Z " fill="#000000"/><text fill="#000000" font-family="sans-serif" font-size="14" lengthAdjust="spacing" textLength="267.847" x="93.2358" y="309.432">ViewRiksdagenCommitteeDataContainer</text><line style="stroke:#181818;stroke-width:0.5;" x1="23" x2="398.8186" y1="320" y2="320"/><line style="stroke:#181818;stroke-width:0.5;" x1="23" x2="398.8186" y1="328" y2="328"/><ellipse cx="33" cy="343.034" fill="#84BE84" rx="3" ry="3" style="stroke:#038048;stroke-width:1.0;"/><text fill="#000000" font-family="sans-serif" font-size="14" lengthAdjust="spacing" textLength="351.8186" x="42" y="346.9659">ViewRiksdagenCommitteeDataContainer(DataViewer)</text><ellipse cx="33" cy="362.1019" fill="#84BE84" rx="3" ry="3" style="stroke:#038048;stroke-width:1.0;"/><text fill="#000000" font-family="sans-serif" font-size="14" lengthAdjust="spacing" textLength="255.779" x="42" y="366.0339">load(String): ViewRiksdagenCommittee</text></g></a><!--class AuthenticationProvider--><g id="elem_AuthenticationProvider"><rect codeLine="33" fill="#F1F1F1" height="86.1358" id="AuthenticationProvider" rx="2.5" ry="2.5" style="stroke:#181818;stroke-width:0.5;" width="300.679" x="1047.5" y="34"/><ellipse cx="1122.1757" cy="50" fill="#B4A7E5" rx="11" ry="11" style="stroke:#181818;stroke-width:1.0;"/><path d="M1118.0976,45.7656 L1118.0976,43.6094 L1125.4882,43.6094 L1125.4882,45.7656 L1123.0195,45.7656 L1123.0195,53.8438 L1125.4882,53.8438 L1125.4882,56 L1118.0976,56 L1118.0976,53.8438 L1120.5664,53.8438 L1120.5664,45.7656 L1118.0976,45.7656 Z " fill="#000000"/><text fill="#000000" font-family="sans-serif" font-size="14" font-style="italic" lengthAdjust="spacing" textLength="142.8275" x="1142.6757" y="55.432">AuthenticationProvider</text><line style="stroke:#181818;stroke-width:0.5;" x1="1048.5" x2="1347.179" y1="66" y2="66"/><line style="stroke:#181818;stroke-width:0.5;" x1="1048.5" x2="1347.179" y1="74" y2="74"/><ellipse cx="1058.5" cy="89.034" fill="#84BE84" rx="3" ry="3" style="stroke:#038048;stroke-width:1.0;"/><text fill="#000000" font-family="sans-serif" font-size="14" font-style="italic" lengthAdjust="spacing" textLength="274.679" x="1067.5" y="92.9659">authenticate(Authentication): Authentication</text><ellipse cx="1058.5" cy="108.1019" fill="#84BE84" rx="3" ry="3" style="stroke:#038048;stroke-width:1.0;"/><text fill="#000000" font-family="sans-serif" font-size="14" font-style="italic" lengthAdjust="spacing" textLength="174.2993" x="1067.5" y="112.0339">supports(Class&lt;?&gt;): boolean</text></g><polygon fill="none" points="1198,120.2073,1192,138.2073,1204,138.2073,1198,120.2073" style="stroke:#181818;stroke-width:1.0;"/><path d="M1198,138.2073 C1198,152.7385 1198,151.0099 1198,165.5596 " fill="none" style="stroke:#181818;stroke-width:1.0;stroke-dasharray:7.0,7.0;"/><text fill="#888888" font-family="sans-serif" font-size="10" lengthAdjust="spacing" textLength="2.6" x="679.2" y="394.69">&#160;</text><a href="https://github.com/talsma-ict/umldoclet" target="_top" title="https://github.com/talsma-ict/umldoclet" xlink:actuate="onRequest" xlink:href="https://github.com/talsma-ict/umldoclet" xlink:show="new" xlink:title="https://github.com/talsma-ict/umldoclet" xlink:type="simple"><text fill="#888888" font-family="sans-serif" font-size="10" lengthAdjust="spacing" textLength="76.7199" x="642.14" y="408.31">UMLDoclet 2.2.1</text></a><!--SRC=[dPLHRzj63CVV-obOx64EaiYMqgwj46p8d7PBaG55u-x5ymDzekM3JtVQ7UNKRVFToxEzH7Bjh9i1mvQEvFt-F9870F0Z35szyhgSCx03dki07_wu1hG5b6J98rC1kiAI0ap9E5k6ZI41DZnt7jni_QISznHgPmjjItYBIuJW6gye94-Um7ghqJ_HRp6qeazNyUMbKuOOUiEZ5b8sI7ywpGRPCnYX2HN2rN2KRACz-6H9bgGWiOrMP8E4R6n1VerrKQEId-lDoWaioGVjhFWCjd6YLEKiexO1QlGSegHt1Yr7rZI9-oSle7TnSzrb6xnQivt0XRVO5F3U_TtSotrQUoo5sE3ADGoX8aQBwwKWp85aAsJ9Nvvl70Hq8MaMbYgPo__iB54Qaq1-AV29hce3dpUcyQCCXW0tf1glUNKXPq6MjK8MTU-yM-gOWV7uSODapfMPJ2Gkj3x7-61ClQxdKGxT5rtFqDIranJsXX7l_9UVnNxgd25yCBpR5V6hSnpOOtr9CsmC3vsTwLBWzoySW5QU1BTZsVWrOayWbauN-mYqPV8pL0H_QhgzHCRu7MxgWVmRL796As5vR7a_qMUSHdZ5T_TmRTzjYaP07vbi4S_IQpJw4quDnRnrh0_OdS3LVl_3sOv2tkj5AAJOxD1LbMQcBjfMxhzO7JY7x_3inQTeH_wewsmS5hqRzZ9390FxG-rAk-lsZ_Db4keOOUQnebld5z94cov8i5ExBVI7EZZGIeVFzdztIpl8zpLEI-v_a9dd1pITVqcIn-PDdZy-FZOavu5NxOgRITT-ax3VLpNvQsqNGsTawFtmSl_gXpYuZTI8t1LgOKdgTR2Z_xpVsc-xrrzsF9upro7lzqlDysQQYAm-ho-DKwsutrIcsDmME_V6PBAz1twxlv3YK3zDizCi6wKlyopDpyGooruzJxDdwV4WpGU3yUl6kvhwD-pKOkvCDVaA]--></g></svg>