<?xml version="1.0" encoding="UTF-8" standalone="no"?><svg xmlns="http://www.w3.org/2000/svg" xmlns:xlink="http://www.w3.org/1999/xlink" contentStyleType="text/css" height="193px" preserveAspectRatio="none" style="width:501px;height:193px;background:#FFFFFF;" version="1.1" viewBox="0 0 501 193" width="501px" zoomAndPan="magnify"><defs/><g><!--MD5=[3761615e59acda566dacf6222b6a1da1]
cluster com.hack23.cia.web.impl.ui.application.views.common.rows--><g id="cluster_com.hack23.cia.web.impl.ui.application.views.common.rows"><path d="M8.5,6.602 L428.5,6.602 A3.75,3.75 0 0 1 431,9.102 L438,31.6699 L491.5,31.6699 A2.5,2.5 0 0 1 494,34.1699 L494,163.102 A2.5,2.5 0 0 1 491.5,165.602 L8.5,165.602 A2.5,2.5 0 0 1 6,163.102 L6,9.102 A2.5,2.5 0 0 1 8.5,6.602 " fill="none" style="stroke:#000000;stroke-width:1.5;"/><line style="stroke:#000000;stroke-width:1.5;" x1="6" x2="438" y1="31.6699" y2="31.6699"/><text fill="#000000" font-family="sans-serif" font-size="14" font-weight="bold" lengthAdjust="spacing" textLength="419" x="10" y="23.5679">com.hack23.cia.web.impl.ui.application.views.common.rows</text></g><!--MD5=[00c5c3caeae7790fe63da54e64a83876]
class com.hack23.cia.web.impl.ui.application.views.common.rows.RowUtil--><a href="RowUtil.html" target="_top" title="RowUtil.html" xlink:actuate="onRequest" xlink:href="RowUtil.html" xlink:show="new" xlink:title="RowUtil.html" xlink:type="simple"><g id="elem_com.hack23.cia.web.impl.ui.application.views.common.rows.RowUtil"><rect codeLine="3" fill="#F1F1F1" height="105.2038" id="com.hack23.cia.web.impl.ui.application.views.common.rows.RowUtil" rx="2.5" ry="2.5" style="stroke:#181818;stroke-width:0.5;" width="457" x="21.5" y="44.602"/><ellipse cx="220.25" cy="60.602" fill="#ADD1B2" rx="11" ry="11" style="stroke:#181818;stroke-width:1.0;"/><path d="M223.2188,66.2426 Q222.6406,66.5395 222,66.6801 Q221.3594,66.8364 220.6563,66.8364 Q218.1563,66.8364 216.8281,65.1957 Q215.5156,63.5395 215.5156,60.4145 Q215.5156,57.2895 216.8281,55.6332 Q218.1563,53.977 220.6563,53.977 Q221.3594,53.977 222,54.1332 Q222.6563,54.2895 223.2188,54.5864 L223.2188,57.3051 Q222.5938,56.727 222,56.4614 Q221.4063,56.1801 220.7813,56.1801 Q219.4375,56.1801 218.75,57.2582 Q218.0625,58.3207 218.0625,60.4145 Q218.0625,62.5082 218.75,63.5864 Q219.4375,64.6489 220.7813,64.6489 Q221.4063,64.6489 222,64.3832 Q222.5938,64.102 223.2188,63.5239 L223.2188,66.2426 Z " fill="#000000"/><text fill="#000000" font-family="sans-serif" font-size="14" lengthAdjust="spacing" textLength="51" x="240.75" y="66.034">RowUtil</text><line style="stroke:#181818;stroke-width:0.5;" x1="22.5" x2="477.5" y1="76.602" y2="76.602"/><line style="stroke:#181818;stroke-width:0.5;" x1="22.5" x2="477.5" y1="84.602" y2="84.602"/><ellipse cx="32.5" cy="99.6359" fill="#84BE84" rx="3" ry="3" style="stroke:#038048;stroke-width:1.0;"/><text fill="#000000" font-family="sans-serif" font-size="14" lengthAdjust="spacing" text-decoration="underline" textLength="392" x="41.5" y="103.5679">createGridLayout(AbstractOrderedLayout): ResponsiveRow</text><ellipse cx="32.5" cy="118.7039" fill="#84BE84" rx="3" ry="3" style="stroke:#038048;stroke-width:1.0;"/><text fill="#000000" font-family="sans-serif" font-size="14" lengthAdjust="spacing" text-decoration="underline" textLength="431" x="41.5" y="122.6358">createRowComponent(ResponsiveRow, Component, String): void</text><ellipse cx="32.5" cy="137.7718" fill="#84BE84" rx="3" ry="3" style="stroke:#038048;stroke-width:1.0;"/><text fill="#000000" font-family="sans-serif" font-size="14" lengthAdjust="spacing" text-decoration="underline" textLength="351" x="41.5" y="141.7038">createRowItem(ResponsiveRow, Button, String): void</text></g></a><rect fill="none" height="13.62" style="stroke:none;stroke-width:1.0;" width="188" x="149.5" y="171.602"/><text fill="#888888" font-family="sans-serif" font-size="10" lengthAdjust="spacing" textLength="188" x="149.5" y="182.292">UMLDoclet 2.0.20, PlantUML 1.2022.12</text><!--MD5=[fc83888f2a48472cd467ee36ca0add00]
@startuml
    namespace com.hack23.cia.web.impl.ui.application.views.common.rows {

        class RowUtil [[RowUtil.html]] {
            {static} +createGridLayout(AbstractOrderedLayout): ResponsiveRow
            {static} +createRowComponent(ResponsiveRow, Component, String): void
            {static} +createRowItem(ResponsiveRow, Button, String): void
        }

    }

    center footer UMLDoclet 2.0.20, PlantUML 1.2022.12
@enduml

PlantUML version 1.2022.12(Sun Oct 23 20:12:26 CEST 2022)
(APACHE source distribution)
Java Runtime: OpenJDK Runtime Environment
JVM: OpenJDK 64-Bit Server VM
Default Encoding: UTF-8
Language: 
Country: 
--></g></svg>