<svg xmlns="http://www.w3.org/2000/svg" xmlns:xlink="http://www.w3.org/1999/xlink" contentStyleType="text/css" data-diagram-type="CLASS" height="312px" preserveAspectRatio="none" style="width:374px;height:312px;background:#FFFFFF;" version="1.1" viewBox="0 0 374 312" width="374px" zoomAndPan="magnify"><defs/><g><!--class com.hack23.cia.model.external.riksdagen.personlista.impl.PersonDetailElement--><g class="entity" data-entity="com.hack23.cia.model.external.riksdagen.personlista.impl.PersonDetailElement" data-source-line="13" data-uid="ent0002" id="entity_com.hack23.cia.model.external.riksdagen.personlista.impl.PersonDetailElement"><a href="PersonDetailElement.html" target="_top" title="PersonDetailElement.html" xlink:actuate="onRequest" xlink:href="PersonDetailElement.html" xlink:show="new" xlink:title="PersonDetailElement.html" xlink:type="simple"><rect fill="#F1F1F1" height="192.1633" rx="2.5" ry="2.5" style="stroke:#181818;stroke-width:0.5;" width="361.5086" x="6" y="91"/><ellipse cx="46.3795" cy="112.344" fill="#ADD1B2" rx="11" ry="11" style="stroke:#181818;stroke-width:1;"/><path d="M49.3482,117.9846 Q48.7701,118.2815 48.1295,118.4221 Q47.4889,118.5783 46.7857,118.5783 Q44.2857,118.5783 42.9576,116.9377 Q41.6451,115.2815 41.6451,112.1565 Q41.6451,109.0315 42.9576,107.3752 Q44.2857,105.719 46.7857,105.719 Q47.4889,105.719 48.1295,105.8752 Q48.7857,106.0315 49.3482,106.3283 L49.3482,109.0471 Q48.7232,108.469 48.1295,108.2033 Q47.5357,107.9221 46.9107,107.9221 Q45.567,107.9221 44.8795,109.0002 Q44.192,110.0627 44.192,112.1565 Q44.192,114.2502 44.8795,115.3283 Q45.567,116.3908 46.9107,116.3908 Q47.5357,116.3908 48.1295,116.1252 Q48.7232,115.844 49.3482,115.2658 L49.3482,117.9846 Z " fill="#000000"/><text fill="#000000" font-family="sans-serif" font-size="14" lengthAdjust="spacing" textLength="138.2075" x="133.4705" y="110.9659">PersonDetailElement</text><text fill="#000000" font-family="sans-serif" font-size="10" lengthAdjust="spacing" textLength="273.1098" x="66.0194" y="125.7579">com.hack23.cia.model.external.riksdagen.personlista.impl</text><line style="stroke:#181818;stroke-width:0.5;" x1="7" x2="366.5086" y1="133.6879" y2="133.6879"/><polygon fill="none" points="17,143.7219,21,147.7219,17,151.7219,13,147.7219" style="stroke:#B38D22;stroke-width:1;"/><text fill="#000000" font-family="sans-serif" font-size="14" lengthAdjust="spacing" textLength="158.9694" x="26" y="152.6538">detailList: DetailElement</text><polygon fill="none" points="17,162.7898,21,166.7898,17,170.7898,13,166.7898" style="stroke:#B38D22;stroke-width:1;"/><text fill="#000000" font-family="sans-serif" font-size="14" lengthAdjust="spacing" textLength="64.9457" x="26" y="171.7218">hjid: Long</text><line style="stroke:#181818;stroke-width:0.5;" x1="7" x2="366.5086" y1="179.8237" y2="179.8237"/><ellipse cx="17" cy="194.8577" fill="#84BE84" rx="3" ry="3" style="stroke:#038048;stroke-width:1;"/><text fill="#000000" font-family="sans-serif" font-size="14" lengthAdjust="spacing" textLength="190.5392" x="26" y="198.7897">getDetailList(): DetailElement</text><ellipse cx="17" cy="213.9256" fill="#84BE84" rx="3" ry="3" style="stroke:#038048;stroke-width:1;"/><text fill="#000000" font-family="sans-serif" font-size="14" lengthAdjust="spacing" textLength="216.4391" x="26" y="217.8576">setDetailList(DetailElement): void</text><ellipse cx="17" cy="232.9935" fill="#84BE84" rx="3" ry="3" style="stroke:#038048;stroke-width:1;"/><text fill="#000000" font-family="sans-serif" font-size="14" lengthAdjust="spacing" textLength="335.5086" x="26" y="236.9255">withDetailList(DetailElement): PersonDetailElement</text><ellipse cx="17" cy="252.0614" fill="#84BE84" rx="3" ry="3" style="stroke:#038048;stroke-width:1;"/><text fill="#000000" font-family="sans-serif" font-size="14" lengthAdjust="spacing" textLength="96.6276" x="26" y="255.9934">getHjid(): Long</text><ellipse cx="17" cy="271.1294" fill="#84BE84" rx="3" ry="3" style="stroke:#038048;stroke-width:1;"/><text fill="#000000" font-family="sans-serif" font-size="14" lengthAdjust="spacing" textLength="122.5275" x="26" y="275.0613">setHjid(Long): void</text></a></g><!--class com.hack23.cia.model.common.api.ModelObject--><g class="entity" data-entity="com.hack23.cia.model.common.api.ModelObject" data-source-line="23" data-uid="ent0003" id="entity_com.hack23.cia.model.common.api.ModelObject"><rect fill="#F1F1F1" height="42.6879" rx="2.5" ry="2.5" style="stroke:#181818;stroke-width:0.5;" width="189.3398" x="92.5" y="12"/><ellipse cx="107.5" cy="33.344" fill="#B4A7E5" rx="11" ry="11" style="stroke:#181818;stroke-width:1;"/><path d="M103.4219,29.1096 L103.4219,26.9533 L110.8125,26.9533 L110.8125,29.1096 L108.3438,29.1096 L108.3438,37.1877 L110.8125,37.1877 L110.8125,39.344 L103.4219,39.344 L103.4219,37.1877 L105.8906,37.1877 L105.8906,29.1096 L103.4219,29.1096 Z " fill="#000000"/><text fill="#000000" font-family="sans-serif" font-size="14" font-style="italic" lengthAdjust="spacing" textLength="78.1477" x="161.096" y="31.9659">ModelObject</text><text fill="#000000" font-family="sans-serif" font-size="10" font-style="italic" lengthAdjust="spacing" textLength="157.3398" x="121.5" y="46.7579">com.hack23.cia.model.common.api</text></g><g class="link" data-entity-1="com.hack23.cia.model.common.api.ModelObject" data-entity-2="com.hack23.cia.model.external.riksdagen.personlista.impl.PersonDetailElement" data-uid="lnk4" id="link_com.hack23.cia.model.common.api.ModelObject_com.hack23.cia.model.external.riksdagen.personlista.impl.PersonDetailElement"><polygon fill="none" points="187,55.2478,181,73.2478,193,73.2478,187,55.2478" style="stroke:#181818;stroke-width:1;"/><path d="M187,73.2478 C187,83.0535 187,77.5271 187,90.86" fill="none" style="stroke:#181818;stroke-width:1;stroke-dasharray:7,7;"/></g><g class="footer" data-source-line="33"><text fill="#888888" font-family="sans-serif" font-size="10" lengthAdjust="spacing" textLength="2.6" x="182.2" y="287.69">&#160;</text><a href="https://github.com/talsma-ict/umldoclet" target="_top" title="https://github.com/talsma-ict/umldoclet" xlink:actuate="onRequest" xlink:href="https://github.com/talsma-ict/umldoclet" xlink:show="new" xlink:title="https://github.com/talsma-ict/umldoclet" xlink:type="simple"><text fill="#888888" font-family="sans-serif" font-size="10" lengthAdjust="spacing" textLength="76.7199" x="145.14" y="301.31">UMLDoclet 2.2.4</text></a></g><!--SRC=[hLHDJzj04BtpAwPmA0YoiKs8YeMGK42bLL1H2QUGmsOziPUiTrtlEZHj-UyTVpHnK6YhghvOdddpvis71m3WBGnCjinbd3Xm1bmYBTpV387h26BKc7E74SYKnsXXYihesDP015wunEHWPjMNC7cEDZCwaZg6Ztp1mPeY5sZPpWvKgKQ_s9-uRR5FbwNnqWY53lO71or9WUVtEu4Nz674bKqvV1YCMCEsZWbOm7f0t4eAr9Oe2nrXNicwoBYWrx3s7C42SokDfXYluIbB5KOxBhM5ZEVEbYNTAgvTgTLdbF-4-HxiNzmDDyLvfvMu8xZ8DIyY-6o-5AjwtsGvZqcouajJEB0fEgvvxREaMlEK-iK5tY5bvOvQgOt6of_8207Jp2rX9b55zgMLo193viek5BSMTi-i_8QXtpk_fHgDlgHyKbqfJ56x1zrulNDXKfPmCG-EcP2SfIP2nV2hGwf1iLpERKJJrYohM9IqZZEPPceNQ6h_6iosQ8BnU8kL9IvLambyhqehdxseyW-9B8GDx1gIFCeeX26jvyfs6AExN4Nk7xmMUsWtS1iW2beO6QsnJz8blm5lgMT3ppN9B9Li2hMDexIsCpxNuvMQsZkZHMcD-APi_AVf8ue_ZfQCgT6CP_Br2QunhCNSRDVV1y3P3yR-wuxK4iwiMoeyNtLiPWonjLQaVAwNH3YKUZumYlwblNVRlVVbQL1I8rqZCTT8VuwtGZxNwRgjV4sk1pqU9yvbDknsOrg2ObhseEkgizIHmdMBL4NrFNfncIQJvjAyNvsyycfql5x7zqT-BpmEmkDJ5lJx_HF_rEiTUa7eUUEh8ZSPTk-S4VF4g7Jo4m00]--></g></svg>