<svg xmlns="http://www.w3.org/2000/svg" xmlns:xlink="http://www.w3.org/1999/xlink" contentStyleType="text/css" height="361px" preserveAspectRatio="none" style="width:2365px;height:361px;background:#FFFFFF;" version="1.1" viewBox="0 0 2365 361" width="2365px" zoomAndPan="magnify"><defs/><g><!--class com.hack23.cia.web.impl.ui.application.views.user.govermentbody.pagemode.GovernmentBodyViewConstants--><a href="GovernmentBodyViewConstants.html" target="_top" title="GovernmentBodyViewConstants.html" xlink:actuate="onRequest" xlink:href="GovernmentBodyViewConstants.html" xlink:show="new" xlink:title="GovernmentBodyViewConstants.html" xlink:type="simple"><g id="elem_com.hack23.cia.web.impl.ui.application.views.user.govermentbody.pagemode.GovernmentBodyViewConstants"><rect codeLine="13" fill="#F1F1F1" height="241.3671" id="com.hack23.cia.web.impl.ui.application.views.user.govermentbody.pagemode.GovernmentBodyViewConstants" rx="2.5" ry="2.5" style="stroke:#181818;stroke-width:0.5;" width="377.3696" x="993" y="91"/><ellipse cx="1008" cy="112.344" fill="#B4A7E5" rx="11" ry="11" style="stroke:#181818;stroke-width:1.0;"/><path d="M1003.9219,108.1096 L1003.9219,105.9533 L1011.3125,105.9533 L1011.3125,108.1096 L1008.8438,108.1096 L1008.8438,116.1877 L1011.3125,116.1877 L1011.3125,118.344 L1003.9219,118.344 L1003.9219,116.1877 L1006.3906,116.1877 L1006.3906,108.1096 L1003.9219,108.1096 Z " fill="#000000"/><text fill="#000000" font-family="sans-serif" font-size="14" font-style="italic" lengthAdjust="spacing" textLength="197.5953" x="1095.8872" y="110.9659">GovernmentBodyViewConstants</text><text fill="#000000" font-family="sans-serif" font-size="10" font-style="italic" lengthAdjust="spacing" textLength="345.3696" x="1022" y="125.7579">com.hack23.cia.web.impl.ui.application.views.user.govermentbody.pagemode</text><line style="stroke:#181818;stroke-width:0.5;" x1="994" x2="1369.3696" y1="133.6879" y2="133.6879"/><ellipse cx="1004" cy="148.7219" fill="none" rx="3" ry="3" style="stroke:#038048;stroke-width:1.0;"/><text fill="#000000" font-family="sans-serif" font-size="14" lengthAdjust="spacing" text-decoration="underline" textLength="226.9111" x="1013" y="152.6538">GOVERNMENT_BODY_VIEW: String</text><ellipse cx="1004" cy="167.7898" fill="none" rx="3" ry="3" style="stroke:#038048;stroke-width:1.0;"/><text fill="#000000" font-family="sans-serif" font-size="14" lengthAdjust="spacing" text-decoration="underline" textLength="295.6648" x="1013" y="171.7218">GOVERNMENT_BODY_RANKING_VIEW: String</text><ellipse cx="1004" cy="186.8577" fill="none" rx="3" ry="3" style="stroke:#038048;stroke-width:1.0;"/><text fill="#000000" font-family="sans-serif" font-size="14" lengthAdjust="spacing" text-decoration="underline" textLength="252.209" x="1013" y="190.7897">PERFORMANCE_METRICS_VIEW: String</text><ellipse cx="1004" cy="205.9256" fill="none" rx="3" ry="3" style="stroke:#038048;stroke-width:1.0;"/><text fill="#000000" font-family="sans-serif" font-size="14" lengthAdjust="spacing" text-decoration="underline" textLength="250.305" x="1013" y="209.8576">RESOURCE_ALLOCATION_VIEW: String</text><ellipse cx="1004" cy="224.9935" fill="none" rx="3" ry="3" style="stroke:#038048;stroke-width:1.0;"/><text fill="#000000" font-family="sans-serif" font-size="14" lengthAdjust="spacing" text-decoration="underline" textLength="246.651" x="1013" y="228.9255">OPERATIONAL_METRICS_VIEW: String</text><ellipse cx="1004" cy="244.0614" fill="none" rx="3" ry="3" style="stroke:#038048;stroke-width:1.0;"/><text fill="#000000" font-family="sans-serif" font-size="14" lengthAdjust="spacing" text-decoration="underline" textLength="216.9991" x="1013" y="247.9934">ORG_NUMBER_PROPERTY: String</text><ellipse cx="1004" cy="263.1294" fill="none" rx="3" ry="3" style="stroke:#038048;stroke-width:1.0;"/><text fill="#000000" font-family="sans-serif" font-size="14" lengthAdjust="spacing" text-decoration="underline" textLength="199.0372" x="1013" y="267.0613">GOVERNMENT_BODIES: String</text><ellipse cx="1004" cy="282.1973" fill="none" rx="3" ry="3" style="stroke:#038048;stroke-width:1.0;"/><text fill="#000000" font-family="sans-serif" font-size="14" lengthAdjust="spacing" text-decoration="underline" textLength="123.8575" x="1013" y="286.1293">DEFAULT_YEAR: int</text><ellipse cx="1004" cy="301.2652" fill="none" rx="3" ry="3" style="stroke:#038048;stroke-width:1.0;"/><text fill="#000000" font-family="sans-serif" font-size="14" lengthAdjust="spacing" text-decoration="underline" textLength="226.3231" x="1013" y="305.1972">VISIT_GOVERNMENT_BODY: String</text><ellipse cx="1004" cy="320.3331" fill="none" rx="3" ry="3" style="stroke:#038048;stroke-width:1.0;"/><text fill="#000000" font-family="sans-serif" font-size="14" lengthAdjust="spacing" text-decoration="underline" textLength="250.683" x="1013" y="324.2651">VISIT_GOVERNMENT_RANKING: String</text></g></a><!--class com.hack23.cia.web.impl.ui.application.views.user.govermentbody.pagemode.GovernmentBodyDescriptionConstants--><a href="GovernmentBodyDescriptionConstants.html" target="_top" title="GovernmentBodyDescriptionConstants.html" xlink:actuate="onRequest" xlink:href="GovernmentBodyDescriptionConstants.html" xlink:show="new" xlink:title="GovernmentBodyDescriptionConstants.html" xlink:type="simple"><g id="elem_com.hack23.cia.web.impl.ui.application.views.user.govermentbody.pagemode.GovernmentBodyDescriptionConstants"><rect codeLine="26" fill="#F1F1F1" height="42.6879" id="com.hack23.cia.web.impl.ui.application.views.user.govermentbody.pagemode.GovernmentBodyDescriptionConstants" rx="2.5" ry="2.5" style="stroke:#181818;stroke-width:0.5;" width="377.3696" x="6" y="12"/><ellipse cx="21" cy="33.344" fill="#B4A7E5" rx="11" ry="11" style="stroke:#181818;stroke-width:1.0;"/><path d="M16.9219,29.1096 L16.9219,26.9533 L24.3125,26.9533 L24.3125,29.1096 L21.8438,29.1096 L21.8438,37.1877 L24.3125,37.1877 L24.3125,39.344 L16.9219,39.344 L16.9219,37.1877 L19.3906,37.1877 L19.3906,29.1096 L16.9219,29.1096 Z " fill="#000000"/><text fill="#000000" font-family="sans-serif" font-size="14" font-style="italic" lengthAdjust="spacing" textLength="239.3991" x="87.9852" y="31.9659">GovernmentBodyDescriptionConstants</text><text fill="#000000" font-family="sans-serif" font-size="10" font-style="italic" lengthAdjust="spacing" textLength="345.3696" x="35" y="46.7579">com.hack23.cia.web.impl.ui.application.views.user.govermentbody.pagemode</text></g></a><!--class com.hack23.cia.web.impl.ui.application.views.user.govermentbody.pagemode.GovernmentBodyHeaderConstants--><a href="GovernmentBodyHeaderConstants.html" target="_top" title="GovernmentBodyHeaderConstants.html" xlink:actuate="onRequest" xlink:href="GovernmentBodyHeaderConstants.html" xlink:show="new" xlink:title="GovernmentBodyHeaderConstants.html" xlink:type="simple"><g id="elem_com.hack23.cia.web.impl.ui.application.views.user.govermentbody.pagemode.GovernmentBodyHeaderConstants"><rect codeLine="27" fill="#F1F1F1" height="42.6879" id="com.hack23.cia.web.impl.ui.application.views.user.govermentbody.pagemode.GovernmentBodyHeaderConstants" rx="2.5" ry="2.5" style="stroke:#181818;stroke-width:0.5;" width="377.3696" x="401" y="12"/><ellipse cx="416" cy="33.344" fill="#B4A7E5" rx="11" ry="11" style="stroke:#181818;stroke-width:1.0;"/><path d="M411.9219,29.1096 L411.9219,26.9533 L419.3125,26.9533 L419.3125,29.1096 L416.8438,29.1096 L416.8438,37.1877 L419.3125,37.1877 L419.3125,39.344 L411.9219,39.344 L411.9219,37.1877 L414.3906,37.1877 L414.3906,29.1096 L411.9219,29.1096 Z " fill="#000000"/><text fill="#000000" font-family="sans-serif" font-size="14" font-style="italic" lengthAdjust="spacing" textLength="214.2692" x="495.5502" y="31.9659">GovernmentBodyHeaderConstants</text><text fill="#000000" font-family="sans-serif" font-size="10" font-style="italic" lengthAdjust="spacing" textLength="345.3696" x="430" y="46.7579">com.hack23.cia.web.impl.ui.application.views.user.govermentbody.pagemode</text></g></a><!--class com.hack23.cia.web.impl.ui.application.views.user.govermentbody.pagemode.GovernmentBodyGridConstants--><a href="GovernmentBodyGridConstants.html" target="_top" title="GovernmentBodyGridConstants.html" xlink:actuate="onRequest" xlink:href="GovernmentBodyGridConstants.html" xlink:show="new" xlink:title="GovernmentBodyGridConstants.html" xlink:type="simple"><g id="elem_com.hack23.cia.web.impl.ui.application.views.user.govermentbody.pagemode.GovernmentBodyGridConstants"><rect codeLine="28" fill="#F1F1F1" height="42.6879" id="com.hack23.cia.web.impl.ui.application.views.user.govermentbody.pagemode.GovernmentBodyGridConstants" rx="2.5" ry="2.5" style="stroke:#181818;stroke-width:0.5;" width="377.3696" x="796" y="12"/><ellipse cx="811" cy="33.344" fill="#B4A7E5" rx="11" ry="11" style="stroke:#181818;stroke-width:1.0;"/><path d="M806.9219,29.1096 L806.9219,26.9533 L814.3125,26.9533 L814.3125,29.1096 L811.8438,29.1096 L811.8438,37.1877 L814.3125,37.1877 L814.3125,39.344 L806.9219,39.344 L806.9219,37.1877 L809.3906,37.1877 L809.3906,29.1096 L806.9219,29.1096 Z " fill="#000000"/><text fill="#000000" font-family="sans-serif" font-size="14" font-style="italic" lengthAdjust="spacing" textLength="195.9293" x="899.7202" y="31.9659">GovernmentBodyGridConstants</text><text fill="#000000" font-family="sans-serif" font-size="10" font-style="italic" lengthAdjust="spacing" textLength="345.3696" x="825" y="46.7579">com.hack23.cia.web.impl.ui.application.views.user.govermentbody.pagemode</text></g></a><!--class com.hack23.cia.web.impl.ui.application.views.user.govermentbody.pagemode.GovernmentBodyLayoutConstants--><a href="GovernmentBodyLayoutConstants.html" target="_top" title="GovernmentBodyLayoutConstants.html" xlink:actuate="onRequest" xlink:href="GovernmentBodyLayoutConstants.html" xlink:show="new" xlink:title="GovernmentBodyLayoutConstants.html" xlink:type="simple"><g id="elem_com.hack23.cia.web.impl.ui.application.views.user.govermentbody.pagemode.GovernmentBodyLayoutConstants"><rect codeLine="29" fill="#F1F1F1" height="42.6879" id="com.hack23.cia.web.impl.ui.application.views.user.govermentbody.pagemode.GovernmentBodyLayoutConstants" rx="2.5" ry="2.5" style="stroke:#181818;stroke-width:0.5;" width="377.3696" x="1191" y="12"/><ellipse cx="1206" cy="33.344" fill="#B4A7E5" rx="11" ry="11" style="stroke:#181818;stroke-width:1.0;"/><path d="M1201.9219,29.1096 L1201.9219,26.9533 L1209.3125,26.9533 L1209.3125,29.1096 L1206.8438,29.1096 L1206.8438,37.1877 L1209.3125,37.1877 L1209.3125,39.344 L1201.9219,39.344 L1201.9219,37.1877 L1204.3906,37.1877 L1204.3906,29.1096 L1201.9219,29.1096 Z " fill="#000000"/><text fill="#000000" font-family="sans-serif" font-size="14" font-style="italic" lengthAdjust="spacing" textLength="210.9652" x="1287.2022" y="31.9659">GovernmentBodyLayoutConstants</text><text fill="#000000" font-family="sans-serif" font-size="10" font-style="italic" lengthAdjust="spacing" textLength="345.3696" x="1220" y="46.7579">com.hack23.cia.web.impl.ui.application.views.user.govermentbody.pagemode</text></g></a><!--class com.hack23.cia.web.impl.ui.application.views.user.govermentbody.pagemode.GovernmentBodySectionConstants--><a href="GovernmentBodySectionConstants.html" target="_top" title="GovernmentBodySectionConstants.html" xlink:actuate="onRequest" xlink:href="GovernmentBodySectionConstants.html" xlink:show="new" xlink:title="GovernmentBodySectionConstants.html" xlink:type="simple"><g id="elem_com.hack23.cia.web.impl.ui.application.views.user.govermentbody.pagemode.GovernmentBodySectionConstants"><rect codeLine="30" fill="#F1F1F1" height="42.6879" id="com.hack23.cia.web.impl.ui.application.views.user.govermentbody.pagemode.GovernmentBodySectionConstants" rx="2.5" ry="2.5" style="stroke:#181818;stroke-width:0.5;" width="377.3696" x="1586" y="12"/><ellipse cx="1601" cy="33.344" fill="#B4A7E5" rx="11" ry="11" style="stroke:#181818;stroke-width:1.0;"/><path d="M1596.9219,29.1096 L1596.9219,26.9533 L1604.3125,26.9533 L1604.3125,29.1096 L1601.8438,29.1096 L1601.8438,37.1877 L1604.3125,37.1877 L1604.3125,39.344 L1596.9219,39.344 L1596.9219,37.1877 L1599.3906,37.1877 L1599.3906,29.1096 L1596.9219,29.1096 Z " fill="#000000"/><text fill="#000000" font-family="sans-serif" font-size="14" font-style="italic" lengthAdjust="spacing" textLength="213.7932" x="1680.7882" y="31.9659">GovernmentBodySectionConstants</text><text fill="#000000" font-family="sans-serif" font-size="10" font-style="italic" lengthAdjust="spacing" textLength="345.3696" x="1615" y="46.7579">com.hack23.cia.web.impl.ui.application.views.user.govermentbody.pagemode</text></g></a><!--class com.hack23.cia.web.impl.ui.application.views.user.govermentbody.pagemode.GovernmentBodyIconConstants--><a href="GovernmentBodyIconConstants.html" target="_top" title="GovernmentBodyIconConstants.html" xlink:actuate="onRequest" xlink:href="GovernmentBodyIconConstants.html" xlink:show="new" xlink:title="GovernmentBodyIconConstants.html" xlink:type="simple"><g id="elem_com.hack23.cia.web.impl.ui.application.views.user.govermentbody.pagemode.GovernmentBodyIconConstants"><rect codeLine="31" fill="#F1F1F1" height="42.6879" id="com.hack23.cia.web.impl.ui.application.views.user.govermentbody.pagemode.GovernmentBodyIconConstants" rx="2.5" ry="2.5" style="stroke:#181818;stroke-width:0.5;" width="377.3696" x="1981" y="12"/><ellipse cx="1996" cy="33.344" fill="#B4A7E5" rx="11" ry="11" style="stroke:#181818;stroke-width:1.0;"/><path d="M1991.9219,29.1096 L1991.9219,26.9533 L1999.3125,26.9533 L1999.3125,29.1096 L1996.8438,29.1096 L1996.8438,37.1877 L1999.3125,37.1877 L1999.3125,39.344 L1991.9219,39.344 L1991.9219,37.1877 L1994.3906,37.1877 L1994.3906,29.1096 L1991.9219,29.1096 Z " fill="#000000"/><text fill="#000000" font-family="sans-serif" font-size="14" font-style="italic" lengthAdjust="spacing" textLength="196.0133" x="2084.6781" y="31.9659">GovernmentBodyIconConstants</text><text fill="#000000" font-family="sans-serif" font-size="10" font-style="italic" lengthAdjust="spacing" textLength="345.3696" x="2010" y="46.7579">com.hack23.cia.web.impl.ui.application.views.user.govermentbody.pagemode</text></g></a><polygon fill="none" points="309.6531,55.0339,326.3203,64.1006,328.4269,52.2869,309.6531,55.0339" style="stroke:#181818;stroke-width:1.0;"/><path d="M327.3736,58.1938 C495.1836,88.1173 791.1386,140.8915 992.9382,176.876 " fill="none" style="stroke:#181818;stroke-width:1.0;"/><polygon fill="none" points="658.5685,55.0339,674.1124,65.9146,677.532,54.4121,658.5685,55.0339" style="stroke:#181818;stroke-width:1.0;"/><path d="M675.8222,60.1634 C757.2588,84.3742 878.715,120.4828 992.8176,154.4052 " fill="none" style="stroke:#181818;stroke-width:1.0;"/><polygon fill="none" points="1007.484,55.0339,1016.9098,71.5007,1024.9047,62.5518,1007.484,55.0339" style="stroke:#181818;stroke-width:1.0;"/><path d="M1020.9072,67.0262 C1031.7674,76.7287 1032.2651,77.1734 1047.4934,90.7783 " fill="none" style="stroke:#181818;stroke-width:1.0;"/><polygon fill="none" points="1356.3994,55.0339,1338.9598,62.508,1346.9322,71.4769,1356.3994,55.0339" style="stroke:#181818;stroke-width:1.0;"/><path d="M1342.946,66.9924 C1332.0307,76.6949 1331.4924,77.1734 1316.1869,90.7783 " fill="none" style="stroke:#181818;stroke-width:1.0;"/><polygon fill="none" points="1705.3148,55.0339,1686.3516,54.4034,1689.766,65.9074,1705.3148,55.0339" style="stroke:#181818;stroke-width:1.0;"/><path d="M1688.0588,60.1554 C1606.4082,84.389 1484.5362,120.5601 1370.1802,154.5005 " fill="none" style="stroke:#181818;stroke-width:1.0;"/><polygon fill="none" points="2054.2302,55.0339,2035.4569,52.2837,2037.5615,64.0977,2054.2302,55.0339" style="stroke:#181818;stroke-width:1.0;"/><path d="M2036.5092,58.1907 C1868.5292,88.1142 1572.2569,140.8915 1370.2529,176.876 " fill="none" style="stroke:#181818;stroke-width:1.0;"/><text fill="#888888" font-family="sans-serif" font-size="10" lengthAdjust="spacing" textLength="2.6" x="1177.2" y="336.69">&#160;</text><a href="https://github.com/talsma-ict/umldoclet" target="_top" title="https://github.com/talsma-ict/umldoclet" xlink:actuate="onRequest" xlink:href="https://github.com/talsma-ict/umldoclet" xlink:show="new" xlink:title="https://github.com/talsma-ict/umldoclet" xlink:type="simple"><text fill="#888888" font-family="sans-serif" font-size="10" lengthAdjust="spacing" textLength="76.7199" x="1140.14" y="350.31">UMLDoclet 2.2.1</text></a><!--SRC=[tLXTJziw6BxVhtZFpiKsGTqqum2dGaYXP5ssj4L9oeGwLBcEQImIExCTKBV3Vv-JTeoc28gqWrHo4zNlr_CyjL_71W1u0nsHpoIR9Xgq09qm1SEU3vZ7CAMSIgnf32p3KwfWGbF1fshkI04NEX4In4NrYmWfgSe5ZncVmYTyXK69GXAgqAjNK9MAVcM_nkfEzici73mM9AKQtdRUtO5aMwtTXctP_q24KvLXy3eHMcJx7MCZ6xN0v4uPeLoPb0MFgQnWEJacvkNFBTjmHQLYWfiOQv6df4e4rvXn1JcMMfMKJbBCTOcrXKpz7RG7RvtGNyPc_LjXsmP7Sbp448XlnItTltA9fmPnYcUYqA0ogZ77Svioe3dEZ5oOq92QebWR9RdWjB8dBAP0irpFu8BHD5RrKPCi4MQu6cTSKtbXCi7h0yM-qtPhvx0h356UKQwFH3mxPVIw8xWo2BJwoXTUrY4H6KemkRJV8y8mkgOJnB8yHGL3EC-DcbWRhT2L2LUeK5IYQPctJ3inQL5kfaKcOleQp1_wfvAX1x33QFI05IKwIy_FuKSbI_dyC0RDo0riTGUdRj3lkVreV3GuFXkVUkwNDeHQcjcwXdlWz3zx_UvZOITky64Gz9n-nnttt2ZmEk5Z8O4R3eQ1yNTyVz1n8c_GVonaOCfKZew_RfL1q1ttXxqZDnYV16LyTBOsUyyD7_0zTZyuGpyQdxbEq2xduZq-frxeHUEQfW_aNF5VoByKShFkx3-cYaYMbxDlKnV1VHHMri9zJeibiQPI7oasVNDJHQgXNz6dPd-QD5t9uaqLPWdxYYnBrgU9ubTxswRAKaE_8apD_ZHfGaeskU7KuQ-8KtTucZeUsLnfbh2lwB9a_ILAfSfpRWq7_pKQp_91zdyog_Vp5q5gkHU_24hrFleYIAqqm1V1QhbtFH-bYjE1qhEK7jv-xry8OVQ9EwUrylauowdq6R_iYDGSYV_UlzywB0_uAUCqIXYvv5Gfi6uzR-RbcdVgBMfzvQDHedMksitcbEcac233lwchouK68xfPP6aylrMetIyizhOtqBszk2WF_mrhhz5w7xKiitsrhNsqOxVsz-tTlTqjosvRriWjfCXfCzI2N2OYpSv_0W00]--></g></svg>