<svg xmlns="http://www.w3.org/2000/svg" xmlns:xlink="http://www.w3.org/1999/xlink" contentStyleType="text/css" height="263px" preserveAspectRatio="none" style="width:558px;height:263px;background:#FFFFFF;" version="1.1" viewBox="0 0 558 263" width="558px" zoomAndPan="magnify"><defs/><g><!--class com.hack23.cia.web.impl.ui.application.views.user.govermentbody.pagemode.GovernmentBodyPageVisitHistoryPageModContentFactoryImpl--><a href="GovernmentBodyPageVisitHistoryPageModContentFactoryImpl.html" target="_top" title="GovernmentBodyPageVisitHistoryPageModContentFactoryImpl.html" xlink:actuate="onRequest" xlink:href="GovernmentBodyPageVisitHistoryPageModContentFactoryImpl.html" xlink:show="new" xlink:title="GovernmentBodyPageVisitHistoryPageModContentFactoryImpl.html" xlink:type="simple"><g id="elem_com.hack23.cia.web.impl.ui.application.views.user.govermentbody.pagemode.GovernmentBodyPageVisitHistoryPageModContentFactoryImpl"><rect codeLine="13" fill="#F1F1F1" height="115.8917" id="com.hack23.cia.web.impl.ui.application.views.user.govermentbody.pagemode.GovernmentBodyPageVisitHistoryPageModContentFactoryImpl" rx="2.5" ry="2.5" style="stroke:#181818;stroke-width:0.5;" width="449.0445" x="52.5" y="118"/><ellipse cx="67.5" cy="139.344" fill="#ADD1B2" rx="11" ry="11" style="stroke:#181818;stroke-width:1.0;"/><path d="M70.4688,144.9846 Q69.8906,145.2815 69.25,145.4221 Q68.6094,145.5783 67.9063,145.5783 Q65.4063,145.5783 64.0781,143.9377 Q62.7656,142.2815 62.7656,139.1565 Q62.7656,136.0315 64.0781,134.3752 Q65.4063,132.719 67.9063,132.719 Q68.6094,132.719 69.25,132.8752 Q69.9063,133.0315 70.4688,133.3283 L70.4688,136.0471 Q69.8438,135.469 69.25,135.2033 Q68.6563,134.9221 68.0313,134.9221 Q66.6875,134.9221 66,136.0002 Q65.3125,137.0627 65.3125,139.1565 Q65.3125,141.2502 66,142.3283 Q66.6875,143.3908 68.0313,143.3908 Q68.6563,143.3908 69.25,143.1252 Q69.8438,142.844 70.4688,142.2658 L70.4688,144.9846 Z " fill="#000000"/><text fill="#000000" font-family="sans-serif" font-size="14" lengthAdjust="spacing" textLength="417.0445" x="81.5" y="137.9659">GovernmentBodyPageVisitHistoryPageModContentFactoryImpl</text><text fill="#000000" font-family="sans-serif" font-size="10" lengthAdjust="spacing" textLength="367.0396" x="106.5024" y="152.7579">com.hack23.cia.web.impl.ui.application.views.user.govermentbody.pagemode</text><line style="stroke:#181818;stroke-width:0.5;" x1="53.5" x2="500.5445" y1="160.6879" y2="160.6879"/><ellipse cx="63.5" cy="175.7219" fill="none" rx="3" ry="3" style="stroke:#038048;stroke-width:1.0;"/><text fill="#000000" font-family="sans-serif" font-size="14" lengthAdjust="spacing" text-decoration="underline" textLength="86.8557" x="72.5" y="179.6538">NAME: String</text><line style="stroke:#181818;stroke-width:0.5;" x1="53.5" x2="500.5445" y1="187.7558" y2="187.7558"/><ellipse cx="63.5" cy="202.7898" fill="#84BE84" rx="3" ry="3" style="stroke:#038048;stroke-width:1.0;"/><text fill="#000000" font-family="sans-serif" font-size="14" lengthAdjust="spacing" textLength="305.4228" x="72.5" y="206.7218">createContent(String, MenuBar, Panel): Layout</text><ellipse cx="63.5" cy="221.8577" fill="#84BE84" rx="3" ry="3" style="stroke:#038048;stroke-width:1.0;"/><text fill="#000000" font-family="sans-serif" font-size="14" lengthAdjust="spacing" textLength="211.5112" x="72.5" y="225.7897">matches(String, String): boolean</text></g></a><!--class com.hack23.cia.web.impl.ui.application.views.common.pagemode.AbstractItemPageModContentFactoryImpl--><a href="../../../common/pagemode/AbstractItemPageModContentFactoryImpl.html" target="_top" title="../../../common/pagemode/AbstractItemPageModContentFactoryImpl.html" xlink:actuate="onRequest" xlink:href="../../../common/pagemode/AbstractItemPageModContentFactoryImpl.html" xlink:show="new" xlink:title="../../../common/pagemode/AbstractItemPageModContentFactoryImpl.html" xlink:type="simple"><g id="elem_com.hack23.cia.web.impl.ui.application.views.common.pagemode.AbstractItemPageModContentFactoryImpl"><rect codeLine="19" fill="#F1F1F1" height="69.7558" id="com.hack23.cia.web.impl.ui.application.views.common.pagemode.AbstractItemPageModContentFactoryImpl" rx="2.5" ry="2.5" style="stroke:#181818;stroke-width:0.5;" width="541.5891" x="6" y="12"/><ellipse cx="21" cy="33.344" fill="#A9DCDF" rx="11" ry="11" style="stroke:#181818;stroke-width:1.0;"/><path d="M21.1094,28.6877 L19.9531,33.7658 L22.2813,33.7658 L21.1094,28.6877 Z M19.625,26.4533 L22.6094,26.4533 L25.9688,38.844 L23.5156,38.844 L22.75,35.7815 L19.4688,35.7815 L18.7188,38.844 L16.2813,38.844 L19.625,26.4533 Z " fill="#000000"/><text fill="#000000" font-family="sans-serif" font-size="14" font-style="italic" lengthAdjust="spacing" textLength="261.057" x="50.9813" y="31.9659">AbstractItemPageModContentFactoryImpl</text><text fill="#000000" font-family="sans-serif" font-size="10" font-style="italic" lengthAdjust="spacing" textLength="293.0197" x="35" y="46.7579">com.hack23.cia.web.impl.ui.application.views.common.pagemode</text><rect fill="#FFFFFF" height="18.3441" style="stroke:#181818;stroke-width:1.0;stroke-dasharray:2.0,2.0;" width="214.5694" x="336.0197" y="9"/><text fill="#000000" font-family="sans-serif" font-size="12" font-style="italic" lengthAdjust="spacing" textLength="212.5694" x="337.0197" y="22.8281">List&lt;GovernmentBodyAnnualSummary&gt;</text><line style="stroke:#181818;stroke-width:0.5;" x1="7" x2="546.5891" y1="54.6879" y2="54.6879"/><polygon fill="#FFFF44" points="17,64.7219,21,68.7219,17,72.7219,13,68.7219" style="stroke:#B38D22;stroke-width:1.0;"/><text fill="#000000" font-family="sans-serif" font-size="14" font-style="italic" lengthAdjust="spacing" textLength="348.6126" x="26" y="73.6538">getItem(String): List&lt;GovernmentBodyAnnualSummary&gt;</text></g></a><polygon fill="none" points="277,82.0337,271,100.0337,283,100.0337,277,82.0337" style="stroke:#181818;stroke-width:1.0;"/><path d="M277,100.0337 C277,111.0548 277,105.5977 277,117.8246 " fill="none" style="stroke:#181818;stroke-width:1.0;"/><text fill="#888888" font-family="sans-serif" font-size="10" lengthAdjust="spacing" textLength="2.6" x="272.2" y="238.69">&#160;</text><a href="https://github.com/talsma-ict/umldoclet" target="_top" title="https://github.com/talsma-ict/umldoclet" xlink:actuate="onRequest" xlink:href="https://github.com/talsma-ict/umldoclet" xlink:show="new" xlink:title="https://github.com/talsma-ict/umldoclet" xlink:type="simple"><text fill="#888888" font-family="sans-serif" font-size="10" lengthAdjust="spacing" textLength="76.7199" x="235.14" y="252.31">UMLDoclet 2.2.1</text></a><!--SRC=[nLNRRjD047tdAuRoGAisQoSD5A8eKWYteXHLfF0IyZ1PJ-rLzs9srwq2zDyPssbQIYLG1SAoPEtEp3apSzOx002FOUBAbLTv4I4wY8KAyF5e2cWpoCcInqWPA8Cv1LYITZOFhIC1Lh5m7jnfivBEUmgbivcoERp3SuJWAYyfY0SFeA4wkKA_m703VRcgDrywgId2zcJdHagzjFkqqqjxJ-04TJ08XvCJiKQxZkc9dkW2OsiboGQ6h6n6labhNABapxIrxC4v-Q2SvPXqZLENAfsDg6o04dqCTKd76csiS-qAvk-B0zWUpwO_vvO-RtBRWx6tM6NmmNsfDkK-B3tcdB76bQiY14CHBRQsm4bRDDmkb3GZ9iN8dRJEKcClL4P0femhE5Mait1xby4AnzlDljGO0cmDW_fAWsv_zCPnaTQGZIzSjZfcwJwfeE9R5PYaMH-vRC8LiyThbFNceIdrPxj6I4VI6L6WFElj2wbGND1IAFOGbH9ObjnbZDn3SQxe8eWga1TvpLbJBfbIbCnXN4PRm4B_BJ1npxfWFhzdf2YYqOi5V6lQN3_VGkHivINilXyVlHh0B7e-xHlphlJ4HtgDjDrQz-28RFK2_HuSeoMzCu1fSoQkmmn6FgHX4z1-sN7fd2QqZUTbgpOkG_ISuo-oZzU6mqZchulCpeONznVs5e3ueso7KrPe-BDwOsihrBFA6FIhqOZL5I9ftvOZkU98_eZZ3f6lMdm9Zt9gehStYlmsevjQ_ViEmV1xf_FVVx6ssc68AqsZJHzFdOjy2rytjdxUhahoKsNF9axpbVVesTtMZ_K5hfKbdXdop1AVz7JZUTdI9JVurboVxNnUn5Y6GPBaAXRLicvh4flXqL4o9fNHMJirRisFnM8z3zvi1bDzkNVIWqvt_wIRyYypI9-9_dxteDz_Vj3VJNk3D9s_ghmhAPb59yyAfytY1m00]--></g></svg>