<?xml version="1.0" encoding="UTF-8" standalone="no"?><svg xmlns="http://www.w3.org/2000/svg" xmlns:xlink="http://www.w3.org/1999/xlink" contentScriptType="application/ecmascript" contentStyleType="text/css" height="323px" preserveAspectRatio="none" style="width:3174px;height:323px;" version="1.1" viewBox="0 0 3174 323" width="3174px" zoomAndPan="magnify"><defs><filter height="300%" id="fcwgzr7owl01r" width="300%" x="-1" y="-1"><feGaussianBlur result="blurOut" stdDeviation="2.0"/><feColorMatrix in="blurOut" result="blurOut2" type="matrix" values="0 0 0 0 0 0 0 0 0 0 0 0 0 0 0 0 0 0 .4 0"/><feOffset dx="4.0" dy="4.0" in="blurOut2" result="blurOut3"/><feBlend in="SourceGraphic" in2="blurOut3" mode="normal"/></filter></defs><g><!--cluster com.hack23.cia.service.impl.action.user--><polygon fill="#FFFFFF" filter="url(#fcwgzr7owl01r)" points="14,162,336,162,343,184.2969,3152,184.2969,3152,283,14,283,14,162" style="stroke: #000000; stroke-width: 1.5;"/><line style="stroke: #000000; stroke-width: 1.5;" x1="14" x2="343" y1="184.2969" y2="184.2969"/><text fill="#000000" font-family="sans-serif" font-size="14" font-weight="bold" lengthAdjust="spacingAndGlyphs" textLength="316" x="18" y="176.9951">com.hack23.cia.service.impl.action.user</text><!--cluster com.hack23.cia.service.impl.action.common--><polygon fill="#FFFFFF" filter="url(#fcwgzr7owl01r)" points="1046,16,1399,16,1406,38.2969,2259,38.2969,2259,137,1046,137,1046,16" style="stroke: #000000; stroke-width: 1.5;"/><line style="stroke: #000000; stroke-width: 1.5;" x1="1046" x2="1406" y1="38.2969" y2="38.2969"/><text fill="#000000" font-family="sans-serif" font-size="14" font-weight="bold" lengthAdjust="spacingAndGlyphs" textLength="347" x="1050" y="30.9951">com.hack23.cia.service.impl.action.common</text><!--class com.hack23.cia.service.impl.action.user.DisableGoogleAuthenticatorCredentialService--><a href="DisableGoogleAuthenticatorCredentialService.html" target="_top" xlink:actuate="onRequest" xlink:show="new" xlink:title="DisableGoogleAuthenticatorCredentialService.html" xlink:type="simple"><rect fill="#FEFECE" filter="url(#fcwgzr7owl01r)" height="86.4141" id="com.hack23.cia.service.impl.action.user.DisableGoogleAuthenticatorCredentialService" style="stroke: #A80036; stroke-width: 1.5;" width="667" x="21.5" y="189"/><ellipse cx="208.25" cy="205" fill="#ADD1B2" rx="11" ry="11" style="stroke: #A80036; stroke-width: 1.0;"/><path d="M211.2188,210.6406 Q210.6406,210.9375 210,211.0781 Q209.3594,211.2344 208.6563,211.2344 Q206.1563,211.2344 204.8281,209.5938 Q203.5156,207.9375 203.5156,204.8125 Q203.5156,201.6875 204.8281,200.0313 Q206.1563,198.375 208.6563,198.375 Q209.3594,198.375 210,198.5313 Q210.6563,198.6875 211.2188,198.9844 L211.2188,201.7031 Q210.5938,201.125 210,200.8594 Q209.4063,200.5781 208.7813,200.5781 Q207.4375,200.5781 206.75,201.6563 Q206.0625,202.7188 206.0625,204.8125 Q206.0625,206.9063 206.75,207.9844 Q207.4375,209.0469 208.7813,209.0469 Q209.4063,209.0469 210,208.7813 Q210.5938,208.5 211.2188,207.9219 L211.2188,210.6406 Z "/><text fill="#000000" font-family="sans-serif" font-size="12" lengthAdjust="spacingAndGlyphs" textLength="285" x="228.75" y="209.1543">DisableGoogleAuthenticatorCredentialService</text><line style="stroke: #A80036; stroke-width: 1.5;" x1="22.5" x2="687.5" y1="221" y2="221"/><line style="stroke: #A80036; stroke-width: 1.5;" x1="22.5" x2="687.5" y1="229" y2="229"/><ellipse cx="32.5" cy="240.9023" fill="#84BE84" rx="3" ry="3" style="stroke: #038048; stroke-width: 1.0;"/><text fill="#000000" font-family="sans-serif" font-size="11" lengthAdjust="spacingAndGlyphs" textLength="636" x="41.5" y="243.2104">processService(DisableGoogleAuthenticatorCredentialRequest): DisableGoogleAuthenticatorCredentialResponse</text><polygon fill="#FFFF44" points="32.5,248.707,36.5,252.707,32.5,256.707,28.5,252.707" style="stroke: #B38D22; stroke-width: 1.0;"/><text fill="#000000" font-family="sans-serif" font-size="11" lengthAdjust="spacingAndGlyphs" textLength="641" x="41.5" y="256.0151">createApplicationEventForService(DisableGoogleAuthenticatorCredentialRequest): CreateApplicationEventRequest</text><polygon fill="#FFFF44" points="32.5,261.5117,36.5,265.5117,32.5,269.5117,28.5,265.5117" style="stroke: #B38D22; stroke-width: 1.0;"/><text fill="#000000" font-family="sans-serif" font-size="11" lengthAdjust="spacingAndGlyphs" textLength="408" x="41.5" y="268.8198">createErrorResponse(): DisableGoogleAuthenticatorCredentialResponse</text></a><!--class com.hack23.cia.service.impl.action.user.SetGoogleAuthenticatorCredentialService--><a href="SetGoogleAuthenticatorCredentialService.html" target="_top" xlink:actuate="onRequest" xlink:show="new" xlink:title="SetGoogleAuthenticatorCredentialService.html" xlink:type="simple"><rect fill="#FEFECE" filter="url(#fcwgzr7owl01r)" height="86.4141" id="com.hack23.cia.service.impl.action.user.SetGoogleAuthenticatorCredentialService" style="stroke: #A80036; stroke-width: 1.5;" width="644" x="2500" y="189"/><ellipse cx="2687.75" cy="205" fill="#ADD1B2" rx="11" ry="11" style="stroke: #A80036; stroke-width: 1.0;"/><path d="M2690.7188,210.6406 Q2690.1406,210.9375 2689.5,211.0781 Q2688.8594,211.2344 2688.1563,211.2344 Q2685.6563,211.2344 2684.3281,209.5938 Q2683.0156,207.9375 2683.0156,204.8125 Q2683.0156,201.6875 2684.3281,200.0313 Q2685.6563,198.375 2688.1563,198.375 Q2688.8594,198.375 2689.5,198.5313 Q2690.1563,198.6875 2690.7188,198.9844 L2690.7188,201.7031 Q2690.0938,201.125 2689.5,200.8594 Q2688.9063,200.5781 2688.2813,200.5781 Q2686.9375,200.5781 2686.25,201.6563 Q2685.5625,202.7188 2685.5625,204.8125 Q2685.5625,206.9063 2686.25,207.9844 Q2686.9375,209.0469 2688.2813,209.0469 Q2688.9063,209.0469 2689.5,208.7813 Q2690.0938,208.5 2690.7188,207.9219 L2690.7188,210.6406 Z "/><text fill="#000000" font-family="sans-serif" font-size="12" lengthAdjust="spacingAndGlyphs" textLength="260" x="2708.25" y="209.1543">SetGoogleAuthenticatorCredentialService</text><line style="stroke: #A80036; stroke-width: 1.5;" x1="2501" x2="3143" y1="221" y2="221"/><line style="stroke: #A80036; stroke-width: 1.5;" x1="2501" x2="3143" y1="229" y2="229"/><ellipse cx="2511" cy="240.9023" fill="#84BE84" rx="3" ry="3" style="stroke: #038048; stroke-width: 1.0;"/><text fill="#000000" font-family="sans-serif" font-size="11" lengthAdjust="spacingAndGlyphs" textLength="590" x="2520" y="243.2104">processService(SetGoogleAuthenticatorCredentialRequest): SetGoogleAuthenticatorCredentialResponse</text><polygon fill="#FFFF44" points="2511,248.707,2515,252.707,2511,256.707,2507,252.707" style="stroke: #B38D22; stroke-width: 1.0;"/><text fill="#000000" font-family="sans-serif" font-size="11" lengthAdjust="spacingAndGlyphs" textLength="618" x="2520" y="256.0151">createApplicationEventForService(SetGoogleAuthenticatorCredentialRequest): CreateApplicationEventRequest</text><polygon fill="#FFFF44" points="2511,261.5117,2515,265.5117,2511,269.5117,2507,265.5117" style="stroke: #B38D22; stroke-width: 1.0;"/><text fill="#000000" font-family="sans-serif" font-size="11" lengthAdjust="spacingAndGlyphs" textLength="385" x="2520" y="268.8198">createErrorResponse(): SetGoogleAuthenticatorCredentialResponse</text></a><!--class com.hack23.cia.service.impl.action.user.SearchDocumentService--><a href="SearchDocumentService.html" target="_top" xlink:actuate="onRequest" xlink:show="new" xlink:title="SearchDocumentService.html" xlink:type="simple"><rect fill="#FEFECE" filter="url(#fcwgzr7owl01r)" height="86.4141" id="com.hack23.cia.service.impl.action.user.SearchDocumentService" style="stroke: #A80036; stroke-width: 1.5;" width="549" x="1915.5" y="189"/><ellipse cx="2109.25" cy="205" fill="#ADD1B2" rx="11" ry="11" style="stroke: #A80036; stroke-width: 1.0;"/><path d="M2112.2188,210.6406 Q2111.6406,210.9375 2111,211.0781 Q2110.3594,211.2344 2109.6563,211.2344 Q2107.1563,211.2344 2105.8281,209.5938 Q2104.5156,207.9375 2104.5156,204.8125 Q2104.5156,201.6875 2105.8281,200.0313 Q2107.1563,198.375 2109.6563,198.375 Q2110.3594,198.375 2111,198.5313 Q2111.6563,198.6875 2112.2188,198.9844 L2112.2188,201.7031 Q2111.5938,201.125 2111,200.8594 Q2110.4063,200.5781 2109.7813,200.5781 Q2108.4375,200.5781 2107.75,201.6563 Q2107.0625,202.7188 2107.0625,204.8125 Q2107.0625,206.9063 2107.75,207.9844 Q2108.4375,209.0469 2109.7813,209.0469 Q2110.4063,209.0469 2111,208.7813 Q2111.5938,208.5 2112.2188,207.9219 L2112.2188,210.6406 Z "/><text fill="#000000" font-family="sans-serif" font-size="12" lengthAdjust="spacingAndGlyphs" textLength="153" x="2129.75" y="209.1543">SearchDocumentService</text><line style="stroke: #A80036; stroke-width: 1.5;" x1="1916.5" x2="2463.5" y1="221" y2="221"/><line style="stroke: #A80036; stroke-width: 1.5;" x1="1916.5" x2="2463.5" y1="229" y2="229"/><ellipse cx="1926.5" cy="240.9023" fill="#84BE84" rx="3" ry="3" style="stroke: #038048; stroke-width: 1.0;"/><text fill="#000000" font-family="sans-serif" font-size="11" lengthAdjust="spacingAndGlyphs" textLength="400" x="1935.5" y="243.2104">processService(SearchDocumentRequest): SearchDocumentResponse</text><polygon fill="#FFFF44" points="1926.5,248.707,1930.5,252.707,1926.5,256.707,1922.5,252.707" style="stroke: #B38D22; stroke-width: 1.0;"/><text fill="#000000" font-family="sans-serif" font-size="11" lengthAdjust="spacingAndGlyphs" textLength="523" x="1935.5" y="256.0151">createApplicationEventForService(SearchDocumentRequest): CreateApplicationEventRequest</text><polygon fill="#FFFF44" points="1926.5,261.5117,1930.5,265.5117,1926.5,269.5117,1922.5,265.5117" style="stroke: #B38D22; stroke-width: 1.0;"/><text fill="#000000" font-family="sans-serif" font-size="11" lengthAdjust="spacingAndGlyphs" textLength="290" x="1935.5" y="268.8198">createErrorResponse(): SearchDocumentResponse</text></a><!--class com.hack23.cia.service.impl.action.user.ChangePasswordService--><a href="ChangePasswordService.html" target="_top" xlink:actuate="onRequest" xlink:show="new" xlink:title="ChangePasswordService.html" xlink:type="simple"><rect fill="#FEFECE" filter="url(#fcwgzr7owl01r)" height="86.4141" id="com.hack23.cia.service.impl.action.user.ChangePasswordService" style="stroke: #A80036; stroke-width: 1.5;" width="551" x="1329.5" y="189"/><ellipse cx="1524.25" cy="205" fill="#ADD1B2" rx="11" ry="11" style="stroke: #A80036; stroke-width: 1.0;"/><path d="M1527.2188,210.6406 Q1526.6406,210.9375 1526,211.0781 Q1525.3594,211.2344 1524.6563,211.2344 Q1522.1563,211.2344 1520.8281,209.5938 Q1519.5156,207.9375 1519.5156,204.8125 Q1519.5156,201.6875 1520.8281,200.0313 Q1522.1563,198.375 1524.6563,198.375 Q1525.3594,198.375 1526,198.5313 Q1526.6563,198.6875 1527.2188,198.9844 L1527.2188,201.7031 Q1526.5938,201.125 1526,200.8594 Q1525.4063,200.5781 1524.7813,200.5781 Q1523.4375,200.5781 1522.75,201.6563 Q1522.0625,202.7188 1522.0625,204.8125 Q1522.0625,206.9063 1522.75,207.9844 Q1523.4375,209.0469 1524.7813,209.0469 Q1525.4063,209.0469 1526,208.7813 Q1526.5938,208.5 1527.2188,207.9219 L1527.2188,210.6406 Z "/><text fill="#000000" font-family="sans-serif" font-size="12" lengthAdjust="spacingAndGlyphs" textLength="153" x="1544.75" y="209.1543">ChangePasswordService</text><line style="stroke: #A80036; stroke-width: 1.5;" x1="1330.5" x2="1879.5" y1="221" y2="221"/><line style="stroke: #A80036; stroke-width: 1.5;" x1="1330.5" x2="1879.5" y1="229" y2="229"/><ellipse cx="1340.5" cy="240.9023" fill="#84BE84" rx="3" ry="3" style="stroke: #038048; stroke-width: 1.0;"/><text fill="#000000" font-family="sans-serif" font-size="11" lengthAdjust="spacingAndGlyphs" textLength="404" x="1349.5" y="243.2104">processService(ChangePasswordRequest): ChangePasswordResponse</text><polygon fill="#FFFF44" points="1340.5,248.707,1344.5,252.707,1340.5,256.707,1336.5,252.707" style="stroke: #B38D22; stroke-width: 1.0;"/><text fill="#000000" font-family="sans-serif" font-size="11" lengthAdjust="spacingAndGlyphs" textLength="525" x="1349.5" y="256.0151">createApplicationEventForService(ChangePasswordRequest): CreateApplicationEventRequest</text><polygon fill="#FFFF44" points="1340.5,261.5117,1344.5,265.5117,1340.5,269.5117,1336.5,265.5117" style="stroke: #B38D22; stroke-width: 1.0;"/><text fill="#000000" font-family="sans-serif" font-size="11" lengthAdjust="spacingAndGlyphs" textLength="292" x="1349.5" y="268.8198">createErrorResponse(): ChangePasswordResponse</text></a><!--class com.hack23.cia.service.impl.action.user.DocumentWordCountService--><a href="DocumentWordCountService.html" target="_top" xlink:actuate="onRequest" xlink:show="new" xlink:title="DocumentWordCountService.html" xlink:type="simple"><rect fill="#FEFECE" filter="url(#fcwgzr7owl01r)" height="86.4141" id="com.hack23.cia.service.impl.action.user.DocumentWordCountService" style="stroke: #A80036; stroke-width: 1.5;" width="570" x="724" y="189"/><ellipse cx="915.75" cy="205" fill="#ADD1B2" rx="11" ry="11" style="stroke: #A80036; stroke-width: 1.0;"/><path d="M918.7188,210.6406 Q918.1406,210.9375 917.5,211.0781 Q916.8594,211.2344 916.1563,211.2344 Q913.6563,211.2344 912.3281,209.5938 Q911.0156,207.9375 911.0156,204.8125 Q911.0156,201.6875 912.3281,200.0313 Q913.6563,198.375 916.1563,198.375 Q916.8594,198.375 917.5,198.5313 Q918.1563,198.6875 918.7188,198.9844 L918.7188,201.7031 Q918.0938,201.125 917.5,200.8594 Q916.9063,200.5781 916.2813,200.5781 Q914.9375,200.5781 914.25,201.6563 Q913.5625,202.7188 913.5625,204.8125 Q913.5625,206.9063 914.25,207.9844 Q914.9375,209.0469 916.2813,209.0469 Q916.9063,209.0469 917.5,208.7813 Q918.0938,208.5 918.7188,207.9219 L918.7188,210.6406 Z "/><text fill="#000000" font-family="sans-serif" font-size="12" lengthAdjust="spacingAndGlyphs" textLength="178" x="936.25" y="209.1543">DocumentWordCountService</text><line style="stroke: #A80036; stroke-width: 1.5;" x1="725" x2="1293" y1="221" y2="221"/><line style="stroke: #A80036; stroke-width: 1.5;" x1="725" x2="1293" y1="229" y2="229"/><ellipse cx="735" cy="240.9023" fill="#84BE84" rx="3" ry="3" style="stroke: #038048; stroke-width: 1.0;"/><text fill="#000000" font-family="sans-serif" font-size="11" lengthAdjust="spacingAndGlyphs" textLength="442" x="744" y="243.2104">processService(DocumentWordCountRequest): DocumentWordCountResponse</text><polygon fill="#FFFF44" points="735,248.707,739,252.707,735,256.707,731,252.707" style="stroke: #B38D22; stroke-width: 1.0;"/><text fill="#000000" font-family="sans-serif" font-size="11" lengthAdjust="spacingAndGlyphs" textLength="544" x="744" y="256.0151">createApplicationEventForService(DocumentWordCountRequest): CreateApplicationEventRequest</text><polygon fill="#FFFF44" points="735,261.5117,739,265.5117,735,269.5117,731,265.5117" style="stroke: #B38D22; stroke-width: 1.0;"/><text fill="#000000" font-family="sans-serif" font-size="11" lengthAdjust="spacingAndGlyphs" textLength="311" x="744" y="268.8198">createErrorResponse(): DocumentWordCountResponse</text></a><!--class com.hack23.cia.service.impl.action.common.AbstractBusinessServiceImpl--><a href="../common/AbstractBusinessServiceImpl.html" target="_top" xlink:actuate="onRequest" xlink:show="new" xlink:title="../common/AbstractBusinessServiceImpl.html" xlink:type="simple"><rect fill="#FEFECE" filter="url(#fcwgzr7owl01r)" height="86.4141" id="com.hack23.cia.service.impl.action.common.AbstractBusinessServiceImpl" style="stroke: #A80036; stroke-width: 1.5;" width="687" x="1563.5" y="43"/><ellipse cx="1642.75" cy="59" fill="#A9DCDF" rx="11" ry="11" style="stroke: #A80036; stroke-width: 1.0;"/><path d="M1642.8594,54.3438 L1641.7031,59.4219 L1644.0313,59.4219 L1642.8594,54.3438 Z M1641.375,52.1094 L1644.3594,52.1094 L1647.7188,64.5 L1645.2656,64.5 L1644.5,61.4375 L1641.2188,61.4375 L1640.4688,64.5 L1638.0313,64.5 L1641.375,52.1094 Z "/><text fill="#000000" font-family="sans-serif" font-size="12" font-style="italic" lengthAdjust="spacingAndGlyphs" textLength="176" x="1663.25" y="63.1543">AbstractBusinessServiceImpl</text><rect fill="#FFFFFF" height="15.9688" style="stroke: #000000; stroke-width: 1.0; stroke-dasharray: 2.0,2.0;" width="342" x="1911.5" y="40"/><text fill="#000000" font-family="sans-serif" font-size="12" font-style="italic" lengthAdjust="spacingAndGlyphs" textLength="340" x="1912.5" y="52.1387">T extends ServiceRequest, V extends ServiceResponse</text><line style="stroke: #A80036; stroke-width: 1.5;" x1="1564.5" x2="2249.5" y1="75" y2="75"/><polygon fill="none" points="1574.5,81.9023,1578.5,85.9023,1574.5,89.9023,1570.5,85.9023" style="stroke: #B38D22; stroke-width: 1.0;"/><text fill="#000000" font-family="sans-serif" font-size="11" lengthAdjust="spacingAndGlyphs" textLength="661" x="1583.5" y="89.2104">createApplicationEventService: BusinessService&lt;CreateApplicationEventRequest, CreateApplicationEventResponse&gt;</text><line style="stroke: #A80036; stroke-width: 1.5;" x1="1564.5" x2="2249.5" y1="95.8047" y2="95.8047"/><polygon fill="#FFFF44" points="1574.5,102.707,1578.5,106.707,1574.5,110.707,1570.5,106.707" style="stroke: #B38D22; stroke-width: 1.0;"/><text fill="#000000" font-family="sans-serif" font-size="11" font-style="italic" lengthAdjust="spacingAndGlyphs" textLength="294" x="1583.5" y="110.0151">createErrorResponse(): V extends ServiceResponse</text><polygon fill="#FFFF44" points="1574.5,115.5117,1578.5,119.5117,1574.5,123.5117,1570.5,119.5117" style="stroke: #B38D22; stroke-width: 1.0;"/><text fill="#000000" font-family="sans-serif" font-size="11" font-style="italic" lengthAdjust="spacingAndGlyphs" textLength="532" x="1583.5" y="122.8198">createApplicationEventForService(T extends ServiceRequest): CreateApplicationEventRequest</text></a><!--class com.hack23.cia.service.impl.action.common.BusinessService--><a href="../common/BusinessService.html" target="_top" xlink:actuate="onRequest" xlink:show="new" xlink:title="../common/BusinessService.html" xlink:type="simple"><rect fill="#FEFECE" filter="url(#fcwgzr7owl01r)" height="73.6094" id="com.hack23.cia.service.impl.action.common.BusinessService" style="stroke: #A80036; stroke-width: 1.5;" width="474" x="1054" y="49"/><ellipse cx="1069" cy="65" fill="#B4A7E5" rx="11" ry="11" style="stroke: #A80036; stroke-width: 1.0;"/><path d="M1064.9219,60.7656 L1064.9219,58.6094 L1072.3125,58.6094 L1072.3125,60.7656 L1069.8438,60.7656 L1069.8438,68.8438 L1072.3125,68.8438 L1072.3125,71 L1064.9219,71 L1064.9219,68.8438 L1067.3906,68.8438 L1067.3906,60.7656 L1064.9219,60.7656 Z "/><text fill="#000000" font-family="sans-serif" font-size="12" font-style="italic" lengthAdjust="spacingAndGlyphs" textLength="98" x="1083" y="69.1543">BusinessService</text><rect fill="#FFFFFF" height="15.9688" style="stroke: #000000; stroke-width: 1.0; stroke-dasharray: 2.0,2.0;" width="342" x="1189" y="46"/><text fill="#000000" font-family="sans-serif" font-size="12" font-style="italic" lengthAdjust="spacingAndGlyphs" textLength="340" x="1190" y="58.1387">T extends ServiceRequest, V extends ServiceResponse</text><line style="stroke: #A80036; stroke-width: 1.5;" x1="1055" x2="1527" y1="81" y2="81"/><line style="stroke: #A80036; stroke-width: 1.5;" x1="1055" x2="1527" y1="89" y2="89"/><ellipse cx="1065" cy="100.9023" fill="#84BE84" rx="3" ry="3" style="stroke: #038048; stroke-width: 1.0;"/><text fill="#000000" font-family="sans-serif" font-size="11" font-style="italic" lengthAdjust="spacingAndGlyphs" textLength="329" x="1074" y="103.2104">getSupportedService(): Class&lt;? extends ServiceRequest&gt;</text><ellipse cx="1065" cy="113.707" fill="#84BE84" rx="3" ry="3" style="stroke: #038048; stroke-width: 1.0;"/><text fill="#000000" font-family="sans-serif" font-size="11" font-style="italic" lengthAdjust="spacingAndGlyphs" textLength="408" x="1074" y="116.0151">processService(T extends ServiceRequest): V extends ServiceResponse</text></a><!--link com.hack23.cia.service.impl.action.common.AbstractBusinessServiceImpl to com.hack23.cia.service.impl.action.user.DisableGoogleAuthenticatorCredentialService--><path d="M1604.0067,131.2843 C1584.4027,133.4471 1564.9392,135.385 1546,137 C1174.2946,168.6964 1077.6732,119.9176 707,162 C652.8287,168.15 594.5661,178.2737 541.3376,188.9362 " fill="none" id="com.hack23.cia.service.impl.action.common.AbstractBusinessServiceImpl-com.hack23.cia.service.impl.action.user.DisableGoogleAuthenticatorCredentialService" style="stroke: #A80036; stroke-width: 1.0;"/><polygon fill="none" points="1603.3916,124.3092,1624.0551,129.0019,1604.9753,138.2193,1603.3916,124.3092" style="stroke: #A80036; stroke-width: 1.0;"/><!--link com.hack23.cia.service.impl.action.common.BusinessService to com.hack23.cia.service.impl.action.user.DisableGoogleAuthenticatorCredentialService--><path d="M1034.0693,115.6692 C932.0334,128.4341 813.756,144.4588 707,162 C659.043,169.8799 607.6321,179.4564 559.324,188.9641 " fill="none" id="com.hack23.cia.service.impl.action.common.BusinessService-com.hack23.cia.service.impl.action.user.DisableGoogleAuthenticatorCredentialService" style="stroke: #A80036; stroke-width: 1.0; stroke-dasharray: 7.0,7.0;"/><polygon fill="none" points="1033.2085,108.7224,1053.9194,113.2012,1034.9359,122.6154,1033.2085,108.7224" style="stroke: #A80036; stroke-width: 1.0;"/><!--link com.hack23.cia.service.impl.action.common.AbstractBusinessServiceImpl to com.hack23.cia.service.impl.action.user.SetGoogleAuthenticatorCredentialService--><path d="M2271.0009,130.1016 C2341.1546,139.7336 2413.9644,150.5152 2482,162 C2528.5001,169.8495 2578.3398,179.4405 2625.1329,188.975 " fill="none" id="com.hack23.cia.service.impl.action.common.AbstractBusinessServiceImpl-com.hack23.cia.service.impl.action.user.SetGoogleAuthenticatorCredentialService" style="stroke: #A80036; stroke-width: 1.0;"/><polygon fill="none" points="2269.6735,136.9855,2250.8016,127.3496,2271.5635,123.1136,2269.6735,136.9855" style="stroke: #A80036; stroke-width: 1.0;"/><!--link com.hack23.cia.service.impl.action.common.BusinessService to com.hack23.cia.service.impl.action.user.SetGoogleAuthenticatorCredentialService--><path d="M1474.6029,126.5996 C1498.5244,130.7462 1522.7791,134.3872 1546,137 C1959.5387,183.5316 2068.5944,114.3004 2482,162 C2534.6844,168.0788 2591.324,178.25 2642.9743,188.9816 " fill="none" id="com.hack23.cia.service.impl.action.common.BusinessService-com.hack23.cia.service.impl.action.user.SetGoogleAuthenticatorCredentialService" style="stroke: #A80036; stroke-width: 1.0; stroke-dasharray: 7.0,7.0;"/><polygon fill="none" points="1473.0643,133.4353,1454.6173,123.0089,1475.54,119.6559,1473.0643,133.4353" style="stroke: #A80036; stroke-width: 1.0;"/><!--link com.hack23.cia.service.impl.action.common.AbstractBusinessServiceImpl to com.hack23.cia.service.impl.action.user.SearchDocumentService--><path d="M2008.3561,138.2897 C2040.4421,154.8429 2075.5304,172.945 2106.2393,188.7878 " fill="none" id="com.hack23.cia.service.impl.action.common.AbstractBusinessServiceImpl-com.hack23.cia.service.impl.action.user.SearchDocumentService" style="stroke: #A80036; stroke-width: 1.0;"/><polygon fill="none" points="2004.9434,144.4058,1990.3787,129.0152,2011.3622,131.9639,2004.9434,144.4058" style="stroke: #A80036; stroke-width: 1.0;"/><!--link com.hack23.cia.service.impl.action.common.BusinessService to com.hack23.cia.service.impl.action.user.SearchDocumentService--><path d="M1480.3356,126.6244 C1502.4061,130.5405 1524.6532,134.119 1546,137 C1701.4294,157.9768 1742.9959,138.0825 1898,162 C1941.6641,168.7375 1988.4201,178.6858 2031.4355,188.9806 " fill="none" id="com.hack23.cia.service.impl.action.common.BusinessService-com.hack23.cia.service.impl.action.user.SearchDocumentService" style="stroke: #A80036; stroke-width: 1.0; stroke-dasharray: 7.0,7.0;"/><polygon fill="none" points="1479.0033,133.497,1460.5823,123.0248,1481.5132,119.7238,1479.0033,133.497" style="stroke: #A80036; stroke-width: 1.0;"/><!--link com.hack23.cia.service.impl.action.common.AbstractBusinessServiceImpl to com.hack23.cia.service.impl.action.user.ChangePasswordService--><path d="M1799.7522,137.8483 C1765.1747,154.5645 1727.2471,172.9004 1694.123,188.9141 " fill="none" id="com.hack23.cia.service.impl.action.common.AbstractBusinessServiceImpl-com.hack23.cia.service.impl.action.user.ChangePasswordService" style="stroke: #A80036; stroke-width: 1.0;"/><polygon fill="none" points="1796.9705,131.418,1818.0235,129.0152,1803.064,144.0224,1796.9705,131.418" style="stroke: #A80036; stroke-width: 1.0;"/><!--link com.hack23.cia.service.impl.action.common.BusinessService to com.hack23.cia.service.impl.action.user.ChangePasswordService--><path d="M1388.8748,131.5087 C1428.2749,149.8285 1473.4929,170.8534 1512.351,188.9212 " fill="none" id="com.hack23.cia.service.impl.action.common.BusinessService-com.hack23.cia.service.impl.action.user.ChangePasswordService" style="stroke: #A80036; stroke-width: 1.0; stroke-dasharray: 7.0,7.0;"/><polygon fill="none" points="1385.8255,137.8106,1370.6414,123.0307,1391.7282,125.1158,1385.8255,137.8106" style="stroke: #A80036; stroke-width: 1.0;"/><!--link com.hack23.cia.service.impl.action.common.AbstractBusinessServiceImpl to com.hack23.cia.service.impl.action.user.DocumentWordCountService--><path d="M1588.0228,131.6592 C1573.8267,133.5033 1559.7689,135.2924 1546,137 C1442.2033,149.8728 1415.1413,144.6414 1312,162 C1268.6086,169.3027 1222.1355,179.0504 1178.9406,188.9461 " fill="none" id="com.hack23.cia.service.impl.action.common.AbstractBusinessServiceImpl-com.hack23.cia.service.impl.action.user.DocumentWordCountService" style="stroke: #A80036; stroke-width: 1.0;"/><polygon fill="none" points="1587.4293,124.6771,1608.1696,129.0181,1589.2491,138.5584,1587.4293,124.6771" style="stroke: #A80036; stroke-width: 1.0;"/><!--link com.hack23.cia.service.impl.action.common.BusinessService to com.hack23.cia.service.impl.action.user.DocumentWordCountService--><path d="M1201.6559,132.2562 C1166.6134,150.3987 1126.6313,171.0987 1092.207,188.9212 " fill="none" id="com.hack23.cia.service.impl.action.common.BusinessService-com.hack23.cia.service.impl.action.user.DocumentWordCountService" style="stroke: #A80036; stroke-width: 1.0; stroke-dasharray: 7.0,7.0;"/><polygon fill="none" points="1198.4957,126.0098,1219.4749,123.0307,1204.9325,138.4424,1198.4957,126.0098" style="stroke: #A80036; stroke-width: 1.0;"/><text fill="#888888" font-family="sans-serif" font-size="10" lengthAdjust="spacingAndGlyphs" textLength="186" x="1496" y="310.2822">UMLDoclet 2.0.5, PlantUML 1.2019.08</text><!--
@startuml
    namespace com.hack23.cia.service.impl.action.user {

        class DisableGoogleAuthenticatorCredentialService [[DisableGoogleAuthenticatorCredentialService.html]] {
            +processService(DisableGoogleAuthenticatorCredentialRequest): DisableGoogleAuthenticatorCredentialResponse
            #createApplicationEventForService(DisableGoogleAuthenticatorCredentialRequest): CreateApplicationEventRequest
            #createErrorResponse(): DisableGoogleAuthenticatorCredentialResponse
        }

        class SetGoogleAuthenticatorCredentialService [[SetGoogleAuthenticatorCredentialService.html]] {
            +processService(SetGoogleAuthenticatorCredentialRequest): SetGoogleAuthenticatorCredentialResponse
            #createApplicationEventForService(SetGoogleAuthenticatorCredentialRequest): CreateApplicationEventRequest
            #createErrorResponse(): SetGoogleAuthenticatorCredentialResponse
        }

        class SearchDocumentService [[SearchDocumentService.html]] {
            +processService(SearchDocumentRequest): SearchDocumentResponse
            #createApplicationEventForService(SearchDocumentRequest): CreateApplicationEventRequest
            #createErrorResponse(): SearchDocumentResponse
        }

        class ChangePasswordService [[ChangePasswordService.html]] {
            +processService(ChangePasswordRequest): ChangePasswordResponse
            #createApplicationEventForService(ChangePasswordRequest): CreateApplicationEventRequest
            #createErrorResponse(): ChangePasswordResponse
        }

        class DocumentWordCountService [[DocumentWordCountService.html]] {
            +processService(DocumentWordCountRequest): DocumentWordCountResponse
            #createApplicationEventForService(DocumentWordCountRequest): CreateApplicationEventRequest
            #createErrorResponse(): DocumentWordCountResponse
        }

        com.hack23.cia.service.impl.action.common.AbstractBusinessServiceImpl <|- - DisableGoogleAuthenticatorCredentialService
        com.hack23.cia.service.impl.action.common.BusinessService <|.. DisableGoogleAuthenticatorCredentialService
        com.hack23.cia.service.impl.action.common.AbstractBusinessServiceImpl <|- - SetGoogleAuthenticatorCredentialService
        com.hack23.cia.service.impl.action.common.BusinessService <|.. SetGoogleAuthenticatorCredentialService
        com.hack23.cia.service.impl.action.common.AbstractBusinessServiceImpl <|- - SearchDocumentService
        com.hack23.cia.service.impl.action.common.BusinessService <|.. SearchDocumentService
        com.hack23.cia.service.impl.action.common.AbstractBusinessServiceImpl <|- - ChangePasswordService
        com.hack23.cia.service.impl.action.common.BusinessService <|.. ChangePasswordService
        com.hack23.cia.service.impl.action.common.AbstractBusinessServiceImpl <|- - DocumentWordCountService
        com.hack23.cia.service.impl.action.common.BusinessService <|.. DocumentWordCountService
    }

    namespace com.hack23.cia.service.impl.action.common {
        abstract class AbstractBusinessServiceImpl<T extends ServiceRequest, V extends ServiceResponse> [[../common/AbstractBusinessServiceImpl.html]] {
            #createApplicationEventService: BusinessService<CreateApplicationEventRequest, CreateApplicationEventResponse>
            {abstract} #createErrorResponse(): V extends ServiceResponse
            {abstract} #createApplicationEventForService(T extends ServiceRequest): CreateApplicationEventRequest
        }
        interface BusinessService<T extends ServiceRequest, V extends ServiceResponse> [[../common/BusinessService.html]] {
            {abstract} +getSupportedService(): Class<? extends ServiceRequest>
            {abstract} +processService(T extends ServiceRequest): V extends ServiceResponse
        }
    }

    center footer UMLDoclet 2.0.5, PlantUML 1.2019.08
@enduml

PlantUML version 1.2019.08(Sat Jul 13 21:25:14 CEST 2019)
(APACHE source distribution)
Java Runtime: OpenJDK Runtime Environment
JVM: OpenJDK 64-Bit Server VM
Java Version: 11.0.4+11-post-Ubuntu-1ubuntu219.04
Operating System: Linux
OS Version: 5.0.0-27-generic
Default Encoding: UTF-8
Language: en
Country: US
--></g></svg>