<svg xmlns="http://www.w3.org/2000/svg" xmlns:xlink="http://www.w3.org/1999/xlink" contentStyleType="text/css" height="274px" preserveAspectRatio="none" style="width:648px;height:274px;background:#FFFFFF;" version="1.1" viewBox="0 0 648 274" width="648px" zoomAndPan="magnify"><defs/><g><!--class com.hack23.cia.service.impl.action.user.SearchDocumentService--><a href="SearchDocumentService.html" target="_top" title="SearchDocumentService.html" xlink:actuate="onRequest" xlink:href="SearchDocumentService.html" xlink:show="new" xlink:title="SearchDocumentService.html" xlink:type="simple"><g id="elem_com.hack23.cia.service.impl.action.user.SearchDocumentService"><rect codeLine="13" fill="#F1F1F1" height="107.8917" id="com.hack23.cia.service.impl.action.user.SearchDocumentService" rx="2.5" ry="2.5" style="stroke:#181818;stroke-width:0.5;" width="635.4318" x="6" y="137"/><ellipse cx="226.7009" cy="158.344" fill="#ADD1B2" rx="11" ry="11" style="stroke:#181818;stroke-width:1.0;"/><path d="M229.6697,163.9846 Q229.0916,164.2815 228.4509,164.4221 Q227.8103,164.5783 227.1072,164.5783 Q224.6072,164.5783 223.2791,162.9377 Q221.9666,161.2815 221.9666,158.1565 Q221.9666,155.0315 223.2791,153.3752 Q224.6072,151.719 227.1072,151.719 Q227.8103,151.719 228.4509,151.8752 Q229.1072,152.0315 229.6697,152.3283 L229.6697,155.0471 Q229.0447,154.469 228.4509,154.2033 Q227.8572,153.9221 227.2322,153.9221 Q225.8884,153.9221 225.2009,155.0002 Q224.5134,156.0627 224.5134,158.1565 Q224.5134,160.2502 225.2009,161.3283 Q225.8884,162.3908 227.2322,162.3908 Q227.8572,162.3908 228.4509,162.1252 Q229.0447,161.844 229.6697,161.2658 L229.6697,163.9846 Z " fill="#000000"/><text fill="#000000" font-family="sans-serif" font-size="14" lengthAdjust="spacing" textLength="160.0474" x="259.9422" y="156.9659">SearchDocumentService</text><text fill="#000000" font-family="sans-serif" font-size="10" lengthAdjust="spacing" textLength="185.5299" x="247.2009" y="171.7579">com.hack23.cia.service.impl.action.user</text><line style="stroke:#181818;stroke-width:0.5;" x1="7" x2="640.4318" y1="179.6879" y2="179.6879"/><ellipse cx="17" cy="194.7219" fill="#84BE84" rx="3" ry="3" style="stroke:#038048;stroke-width:1.0;"/><text fill="#000000" font-family="sans-serif" font-size="14" lengthAdjust="spacing" textLength="457.2383" x="26" y="198.6538">processService(SearchDocumentRequest): SearchDocumentResponse</text><polygon fill="#FFFF44" points="17,208.7898,21,212.7898,17,216.7898,13,212.7898" style="stroke:#B38D22;stroke-width:1.0;"/><text fill="#000000" font-family="sans-serif" font-size="14" lengthAdjust="spacing" textLength="609.4318" x="26" y="217.7218">createApplicationEventForService(SearchDocumentRequest): CreateApplicationEventRequest</text><polygon fill="#FFFF44" points="17,227.8577,21,231.8577,17,235.8577,13,231.8577" style="stroke:#B38D22;stroke-width:1.0;"/><text fill="#000000" font-family="sans-serif" font-size="14" lengthAdjust="spacing" textLength="331.2248" x="26" y="236.7897">createErrorResponse(): SearchDocumentResponse</text></g></a><!--class com.hack23.cia.service.impl.action.common.AbstractBusinessServiceImpl--><a href="../common/AbstractBusinessServiceImpl.html" target="_top" title="../common/AbstractBusinessServiceImpl.html" xlink:actuate="onRequest" xlink:href="../common/AbstractBusinessServiceImpl.html" xlink:show="new" xlink:title="../common/AbstractBusinessServiceImpl.html" xlink:type="simple"><g id="elem_com.hack23.cia.service.impl.action.common.AbstractBusinessServiceImpl"><rect codeLine="19" fill="#F1F1F1" height="88.8237" id="com.hack23.cia.service.impl.action.common.AbstractBusinessServiceImpl" rx="2.5" ry="2.5" style="stroke:#181818;stroke-width:0.5;" width="593.5576" x="26.5" y="12"/><ellipse cx="79.75" cy="33.344" fill="#A9DCDF" rx="11" ry="11" style="stroke:#181818;stroke-width:1.0;"/><path d="M79.8594,28.6877 L78.7031,33.7658 L81.0313,33.7658 L79.8594,28.6877 Z M78.375,26.4533 L81.3594,26.4533 L84.7188,38.844 L82.2656,38.844 L81.5,35.7815 L78.2188,35.7815 L77.4688,38.844 L75.0313,38.844 L78.375,26.4533 Z " fill="#000000"/><text fill="#000000" font-family="sans-serif" font-size="14" font-style="italic" lengthAdjust="spacing" textLength="176.1473" x="109.8762" y="31.9659">AbstractBusinessServiceImpl</text><text fill="#000000" font-family="sans-serif" font-size="10" font-style="italic" lengthAdjust="spacing" textLength="195.3998" x="100.25" y="46.7579">com.hack23.cia.service.impl.action.common</text><rect fill="#FFFFFF" height="18.3441" style="stroke:#181818;stroke-width:1.0;stroke-dasharray:2.0,2.0;" width="281.1578" x="341.8998" y="9"/><text fill="#000000" font-family="sans-serif" font-size="12" font-style="italic" lengthAdjust="spacing" textLength="279.1578" x="342.8998" y="22.8281">SearchDocumentRequest, SearchDocumentResponse</text><line style="stroke:#181818;stroke-width:0.5;" x1="27.5" x2="619.0576" y1="54.6879" y2="54.6879"/><polygon fill="#FFFF44" points="37.5,64.7219,41.5,68.7219,37.5,72.7219,33.5,68.7219" style="stroke:#B38D22;stroke-width:1.0;"/><text fill="#000000" font-family="sans-serif" font-size="14" font-style="italic" lengthAdjust="spacing" textLength="307.6768" x="46.5" y="73.6538">createErrorResponse(): SearchDocumentResponse</text><polygon fill="#FFFF44" points="37.5,83.7898,41.5,87.7898,37.5,91.7898,33.5,87.7898" style="stroke:#B38D22;stroke-width:1.0;"/><text fill="#000000" font-family="sans-serif" font-size="14" font-style="italic" lengthAdjust="spacing" textLength="567.5576" x="46.5" y="92.7218">createApplicationEventForService(SearchDocumentRequest): CreateApplicationEventRequest</text></g></a><polygon fill="none" points="323.5,101.2527,317.5,119.2527,329.5,119.2527,323.5,101.2527" style="stroke:#181818;stroke-width:1.0;"/><path d="M323.5,119.2527 C323.5,130.5596 323.5,124.8586 323.5,136.5979 " fill="none" style="stroke:#181818;stroke-width:1.0;"/><text fill="#888888" font-family="sans-serif" font-size="10" lengthAdjust="spacing" textLength="2.6" x="318.7" y="249.69">&#160;</text><a href="https://github.com/talsma-ict/umldoclet" target="_top" title="https://github.com/talsma-ict/umldoclet" xlink:actuate="onRequest" xlink:href="https://github.com/talsma-ict/umldoclet" xlink:show="new" xlink:title="https://github.com/talsma-ict/umldoclet" xlink:type="simple"><text fill="#888888" font-family="sans-serif" font-size="10" lengthAdjust="spacing" textLength="76.7199" x="281.64" y="263.31">UMLDoclet 2.2.1</text></a><!--SRC=[jLNVJzim47xdhxZ1mugWpW_GWAggr7MCCNNIHCjJwOFh78bLnyvifrF7-Dzd9w50wHZxvPSeT-VllllkSW40U0q3LImrJpCBLe7Dk87BJqEWCe4K9MfgCG6UqnGDp50ecPew486MDbCQr7NrnfJMQ0eb4ovJ-4WN58mgDKD3jhQWIZM-G_zApGFqsT8Rtoacq49hiFk0KXn6Rzfn61_2c0gJKpWVZ4c3Tdyd9Z69m64Bpb0Q1rdA17L5grzGvXx3shCF2zI6A-dkX0sEBvKfQIcN1WgghV4bVHPKMiyr8Zu_EO9MVpHyp2qygRZjGrzBMYPmeRwKgt9V5PgcZh6WIrLQC3bQAcdjCuwqfBcJYp8SeKjAhLDIAecLF-C90kQ5NS8rHv6OTQi3ovGpLtOcg36mtJNy6tQYmzu8gMQPqwRCKTeHweKh_aes_h37L4uookRn0M6S4bC749uNWb1cdJgaTCPjS5rwOIpPc1CcaursajbSJATmKz7tPw_GoasAQG9QZwzTeDVLxdPWtUxdpU0APeTfT2FLBmet2TIpErsukFTA_mfuiF5Yur_7FzLQwRlahUTftTOzeZDZjHFiIRFwZUDjQRYyL-3S2VnxBNCXkP8lRLeTJPx9tjqerVvFQksvNXCIrB31Cx1FUtzpfytjd-Yx6U6_J43Jod-YBdI_jzj_ztNLRBh6BWNsLbfSAsNTwhkNrvyFomBraClvG0ctPtQEDtil_TOKZgfRr6pk6KEuYhojqmKFyZMvhkHaabbRc4uGfDncvSmB4DXgOxSviq6PYwHUrMjBUpfjbl3Pwc_WDsexYjjnF8wEEt7KEJWWuSbX6CP7KRGNHfqmd9oMMXKOZAnYyqo9VFe3]--></g></svg>