<svg xmlns="http://www.w3.org/2000/svg" xmlns:xlink="http://www.w3.org/1999/xlink" contentStyleType="text/css" height="331px" preserveAspectRatio="none" style="width:503px;height:331px;background:#FFFFFF;" version="1.1" viewBox="0 0 503 331" width="503px" zoomAndPan="magnify"><defs/><g><!--class com.hack23.cia.model.internal.application.data.document.impl.RiksdagenDocumentOrgSummaryEmbeddedId--><a href="RiksdagenDocumentOrgSummaryEmbeddedId.html" target="_top" title="RiksdagenDocumentOrgSummaryEmbeddedId.html" xlink:actuate="onRequest" xlink:href="RiksdagenDocumentOrgSummaryEmbeddedId.html" xlink:show="new" xlink:title="RiksdagenDocumentOrgSummaryEmbeddedId.html" xlink:type="simple"><g id="elem_com.hack23.cia.model.internal.application.data.document.impl.RiksdagenDocumentOrgSummaryEmbeddedId"><rect codeLine="13" fill="#F1F1F1" height="211.2312" id="com.hack23.cia.model.internal.application.data.document.impl.RiksdagenDocumentOrgSummaryEmbeddedId" rx="2.5" ry="2.5" style="stroke:#181818;stroke-width:0.5;" width="490.1682" x="6" y="91"/><ellipse cx="91.8547" cy="112.344" fill="#ADD1B2" rx="11" ry="11" style="stroke:#181818;stroke-width:1.0;"/><path d="M94.8235,117.9846 Q94.2453,118.2815 93.6047,118.4221 Q92.9641,118.5783 92.261,118.5783 Q89.761,118.5783 88.4328,116.9377 Q87.1203,115.2815 87.1203,112.1565 Q87.1203,109.0315 88.4328,107.3752 Q89.761,105.719 92.261,105.719 Q92.9641,105.719 93.6047,105.8752 Q94.261,106.0315 94.8235,106.3283 L94.8235,109.0471 Q94.1985,108.469 93.6047,108.2033 Q93.011,107.9221 92.386,107.9221 Q91.0422,107.9221 90.3547,109.0002 Q89.6672,110.0627 89.6672,112.1565 Q89.6672,114.2502 90.3547,115.3283 Q91.0422,116.3908 92.386,116.3908 Q93.011,116.3908 93.6047,116.1252 Q94.1985,115.844 94.8235,115.2658 L94.8235,117.9846 Z " fill="#000000"/><text fill="#000000" font-family="sans-serif" font-size="14" lengthAdjust="spacing" textLength="309.9588" x="112.3547" y="110.9659">RiksdagenDocumentOrgSummaryEmbeddedId</text><text fill="#000000" font-family="sans-serif" font-size="10" lengthAdjust="spacing" textLength="295.7798" x="119.4442" y="125.7579">com.hack23.cia.model.internal.application.data.document.impl</text><line style="stroke:#181818;stroke-width:0.5;" x1="7" x2="495.1682" y1="133.6879" y2="133.6879"/><polygon fill="none" points="17,143.7219,21,147.7219,17,151.7219,13,147.7219" style="stroke:#B38D22;stroke-width:1.0;"/><text fill="#000000" font-family="sans-serif" font-size="14" lengthAdjust="spacing" textLength="117.6275" x="26" y="152.6538">publicDate: String</text><polygon fill="none" points="17,162.7898,21,166.7898,17,170.7898,13,166.7898" style="stroke:#B38D22;stroke-width:1.0;"/><text fill="#000000" font-family="sans-serif" font-size="14" lengthAdjust="spacing" textLength="69.6497" x="26" y="171.7218">org: String</text><line style="stroke:#181818;stroke-width:0.5;" x1="7" x2="495.1682" y1="179.8237" y2="179.8237"/><ellipse cx="17" cy="194.8577" fill="#84BE84" rx="3" ry="3" style="stroke:#038048;stroke-width:1.0;"/><text fill="#000000" font-family="sans-serif" font-size="14" lengthAdjust="spacing" textLength="147.4474" x="26" y="198.7897">getPublicDate(): String</text><ellipse cx="17" cy="213.9256" fill="#84BE84" rx="3" ry="3" style="stroke:#038048;stroke-width:1.0;"/><text fill="#000000" font-family="sans-serif" font-size="14" lengthAdjust="spacing" textLength="173.3473" x="26" y="217.8576">setPublicDate(String): void</text><ellipse cx="17" cy="232.9935" fill="#84BE84" rx="3" ry="3" style="stroke:#038048;stroke-width:1.0;"/><text fill="#000000" font-family="sans-serif" font-size="14" lengthAdjust="spacing" textLength="102.0736" x="26" y="236.9255">getOrg(): String</text><ellipse cx="17" cy="252.0614" fill="#84BE84" rx="3" ry="3" style="stroke:#038048;stroke-width:1.0;"/><text fill="#000000" font-family="sans-serif" font-size="14" lengthAdjust="spacing" textLength="127.9735" x="26" y="255.9934">setOrg(String): void</text><ellipse cx="17" cy="271.1294" fill="#84BE84" rx="3" ry="3" style="stroke:#038048;stroke-width:1.0;"/><text fill="#000000" font-family="sans-serif" font-size="14" lengthAdjust="spacing" textLength="464.1682" x="26" y="275.0613">withPublicDate(String): RiksdagenDocumentOrgSummaryEmbeddedId</text><ellipse cx="17" cy="290.1973" fill="#84BE84" rx="3" ry="3" style="stroke:#038048;stroke-width:1.0;"/><text fill="#000000" font-family="sans-serif" font-size="14" lengthAdjust="spacing" textLength="418.7944" x="26" y="294.1293">withOrg(String): RiksdagenDocumentOrgSummaryEmbeddedId</text></g></a><!--class com.hack23.cia.model.common.api.ModelObject--><g id="elem_com.hack23.cia.model.common.api.ModelObject"><rect codeLine="24" fill="#F1F1F1" height="42.6879" id="com.hack23.cia.model.common.api.ModelObject" rx="2.5" ry="2.5" style="stroke:#181818;stroke-width:0.5;" width="189.3398" x="156.5" y="12"/><ellipse cx="171.5" cy="33.344" fill="#B4A7E5" rx="11" ry="11" style="stroke:#181818;stroke-width:1.0;"/><path d="M167.4219,29.1096 L167.4219,26.9533 L174.8125,26.9533 L174.8125,29.1096 L172.3438,29.1096 L172.3438,37.1877 L174.8125,37.1877 L174.8125,39.344 L167.4219,39.344 L167.4219,37.1877 L169.8906,37.1877 L169.8906,29.1096 L167.4219,29.1096 Z " fill="#000000"/><text fill="#000000" font-family="sans-serif" font-size="14" font-style="italic" lengthAdjust="spacing" textLength="78.1477" x="225.096" y="31.9659">ModelObject</text><text fill="#000000" font-family="sans-serif" font-size="10" font-style="italic" lengthAdjust="spacing" textLength="157.3398" x="185.5" y="46.7579">com.hack23.cia.model.common.api</text></g><polygon fill="none" points="251,55.2183,245,73.2183,257,73.2183,251,55.2183" style="stroke:#181818;stroke-width:1.0;"/><path d="M251,73.2183 C251,82.9851 251,77.4416 251,90.8868 " fill="none" style="stroke:#181818;stroke-width:1.0;stroke-dasharray:7.0,7.0;"/><text fill="#888888" font-family="sans-serif" font-size="10" lengthAdjust="spacing" textLength="2.6" x="246.2" y="306.69">&#160;</text><a href="https://github.com/talsma-ict/umldoclet" target="_top" title="https://github.com/talsma-ict/umldoclet" xlink:actuate="onRequest" xlink:href="https://github.com/talsma-ict/umldoclet" xlink:show="new" xlink:title="https://github.com/talsma-ict/umldoclet" xlink:type="simple"><text fill="#888888" font-family="sans-serif" font-size="10" lengthAdjust="spacing" textLength="76.7199" x="209.14" y="320.31">UMLDoclet 2.2.1</text></a><!--SRC=[lLJRJjj047tdAwRmK11aOpiffH52GW6rL44W4fv27ZQx4tkRlRYxQr3QykzTNneIBcgaIlMBvRcSEJDpF000xw5lyeKLQUR16_2PS71xEG2gEQIeqLAF78IYAJgOeZGwTNKW0YryPYoOMVN5ZBNeSgEvq2byfVSKd2aiGqUsjg0gDVg3_a3T2lfqKHhF39FeORU_jq8fYUB3LX8bNHXHwHI5Y_w8D6XFEGb9I0m1Mmg6sWN8GdEq5QtJdBBm6jIU0xX7wuJH8ITgSCfMcT6U2kqWfzQxigLhIRKlkSQah4y-mkxfSB3EBVfKSJk0KwjfmU76V2-MxRxBBKq3OqaNfl3W57ggQUrpWRIcAeoBCXnYA4fzcAGs6Yj_9ZW2gjmlO2PGSlVS6i0o4yoLdKdg76mVE_43Ut7tv4RC7GyBqs4yXKBjhsmwB9IYTd6kfiWvyWj-fvluw8GPHJBAvac7C469CXmb4TfZw4eIckTXhDI7eH5EFIMyGIL2vN8RmYh_1O1in1R6uutYIEQLd4pWPpMOyjd9YsaeVnQKreEXjq6SJpvZqnV6_HJzzJ9dT-zbW5iBgBqXxDu8leOI2BwHNdhUo7iGFdiDVQFsrs7MgcoU_rYhgjhVBEXpHLcNvMQlfj-G-R_f9nXLM3ZDnTiIUOeXAyYDg3TFWEDVXFm74TR4ZfrVI3nPZdfcJAYnehZo-RB8qGw4dlUD33_spj7htjloJ4cXCLn6DjSOVkDe6VbObsklr6jgtUdnEFC-TxrsEmsBBgRbPDg-Ef4jmNoxK9BNj_7PbPnCcgltUNb-onFMYfDMSZIA3tj9fnTtI3VgnjrkvqDdFufxKJG-Bwp9iJtqXiqp8zNaDm00]--></g></svg>