<svg xmlns="http://www.w3.org/2000/svg" xmlns:xlink="http://www.w3.org/1999/xlink" contentStyleType="text/css" height="135px" preserveAspectRatio="none" style="width:3371px;height:135px;" version="1.1" viewBox="0 0 3371 135" width="3371px" zoomAndPan="magnify"><defs/><g><!--class com.hack23.cia.service.data.impl--><a href="com/hack23/cia/service/data/impl/package-summary.html" target="_top" title="com/hack23/cia/service/data/impl/package-summary.html" xlink:actuate="onRequest" xlink:href="com/hack23/cia/service/data/impl/package-summary.html" xlink:show="new" xlink:title="com/hack23/cia/service/data/impl/package-summary.html" xlink:type="simple"><g id="elem_com.hack23.cia.service.data.impl"><rect codeLine="31" fill="#F1F1F1" height="29.0679" id="com.hack23.cia.service.data.impl" rx="2.5" ry="2.5" style="stroke:#181818;stroke-width:0.5;" width="221.9632" x="1361.5" y="12"/><text fill="#000000" font-family="sans-serif" font-size="14" lengthAdjust="spacing" textLength="215.9632" x="1364.5" y="31.9659">com.hack23.cia.service.data.impl</text></g></a><!--class com.hack23.cia.service.data.api--><g id="elem_com.hack23.cia.service.data.api"><rect fill="#F1F1F1" height="29.0679" id="com.hack23.cia.service.data.api" rx="2.5" ry="2.5" style="stroke:#181818;stroke-width:0.5;" width="213.1152" x="6" y="77"/><text fill="#000000" font-family="sans-serif" font-size="14" lengthAdjust="spacing" textLength="207.1152" x="9" y="96.9659">com.hack23.cia.service.data.api</text></g><!--class org.hibernate.boot.model.naming--><g id="elem_org.hibernate.boot.model.naming"><rect fill="#F1F1F1" height="29.0679" id="org.hibernate.boot.model.naming" rx="2.5" ry="2.5" style="stroke:#181818;stroke-width:0.5;" width="230.6292" x="237" y="77"/><text fill="#000000" font-family="sans-serif" font-size="14" lengthAdjust="spacing" textLength="224.6292" x="240" y="96.9659">org.hibernate.boot.model.naming</text></g><!--class org.hibernate.engine.jdbc.env.spi--><g id="elem_org.hibernate.engine.jdbc.env.spi"><rect fill="#F1F1F1" height="29.0679" id="org.hibernate.engine.jdbc.env.spi" rx="2.5" ry="2.5" style="stroke:#181818;stroke-width:0.5;" width="227.0871" x="486" y="77"/><text fill="#000000" font-family="sans-serif" font-size="14" lengthAdjust="spacing" textLength="221.0871" x="489" y="96.9659">org.hibernate.engine.jdbc.env.spi</text></g><!--class com.hack23.cia.model.internal.application.system.impl--><g id="elem_com.hack23.cia.model.internal.application.system.impl"><rect fill="#F1F1F1" height="29.0679" id="com.hack23.cia.model.internal.application.system.impl" rx="2.5" ry="2.5" style="stroke:#181818;stroke-width:0.5;" width="366.4147" x="731.5" y="77"/><text fill="#000000" font-family="sans-serif" font-size="14" lengthAdjust="spacing" textLength="360.4147" x="734.5" y="96.9659">com.hack23.cia.model.internal.application.system.impl</text></g><!--class org.javers.core--><g id="elem_org.javers.core"><rect fill="#F1F1F1" height="29.0679" id="org.javers.core" rx="2.5" ry="2.5" style="stroke:#181818;stroke-width:0.5;" width="104.1956" x="1115.5" y="77"/><text fill="#000000" font-family="sans-serif" font-size="14" lengthAdjust="spacing" textLength="98.1956" x="1118.5" y="96.9659">org.javers.core</text></g><!--class org.springframework.transaction--><g id="elem_org.springframework.transaction"><rect fill="#F1F1F1" height="29.0679" id="org.springframework.transaction" rx="2.5" ry="2.5" style="stroke:#181818;stroke-width:0.5;" width="224.9172" x="1238" y="77"/><text fill="#000000" font-family="sans-serif" font-size="14" lengthAdjust="spacing" textLength="218.9172" x="1241" y="96.9659">org.springframework.transaction</text></g><!--class org.javers.spring.auditable.aspect--><g id="elem_org.javers.spring.auditable.aspect"><rect fill="#F1F1F1" height="29.0679" id="org.javers.spring.auditable.aspect" rx="2.5" ry="2.5" style="stroke:#181818;stroke-width:0.5;" width="229.3972" x="1481" y="77"/><text fill="#000000" font-family="sans-serif" font-size="14" lengthAdjust="spacing" textLength="223.3972" x="1484" y="96.9659">org.javers.spring.auditable.aspect</text></g><!--class org.javers.spring.auditable--><g id="elem_org.javers.spring.auditable"><rect fill="#F1F1F1" height="29.0679" id="org.javers.spring.auditable" rx="2.5" ry="2.5" style="stroke:#181818;stroke-width:0.5;" width="182.8053" x="1728" y="77"/><text fill="#000000" font-family="sans-serif" font-size="14" lengthAdjust="spacing" textLength="176.8053" x="1731" y="96.9659">org.javers.spring.auditable</text></g><!--class org.hibernate.search.mapper.orm.mapping--><g id="elem_org.hibernate.search.mapper.orm.mapping"><rect fill="#F1F1F1" height="29.0679" id="org.hibernate.search.mapper.orm.mapping" rx="2.5" ry="2.5" style="stroke:#181818;stroke-width:0.5;" width="293.461" x="1929" y="77"/><text fill="#000000" font-family="sans-serif" font-size="14" lengthAdjust="spacing" textLength="287.461" x="1932" y="96.9659">org.hibernate.search.mapper.orm.mapping</text></g><!--class org.hibernate.search.mapper.orm.session--><g id="elem_org.hibernate.search.mapper.orm.session"><rect fill="#F1F1F1" height="29.0679" id="org.hibernate.search.mapper.orm.session" rx="2.5" ry="2.5" style="stroke:#181818;stroke-width:0.5;" width="283.171" x="2240" y="77"/><text fill="#000000" font-family="sans-serif" font-size="14" lengthAdjust="spacing" textLength="277.171" x="2243" y="96.9659">org.hibernate.search.mapper.orm.session</text></g><!--class org.hibernate.search.backend.lucene.analysis--><g id="elem_org.hibernate.search.backend.lucene.analysis"><rect fill="#F1F1F1" height="29.0679" id="org.hibernate.search.backend.lucene.analysis" rx="2.5" ry="2.5" style="stroke:#181818;stroke-width:0.5;" width="306.6208" x="2541" y="77"/><text fill="#000000" font-family="sans-serif" font-size="14" lengthAdjust="spacing" textLength="300.6208" x="2544" y="96.9659">org.hibernate.search.backend.lucene.analysis</text></g><!--class org.slf4j--><g id="elem_org.slf4j"><rect fill="#F1F1F1" height="29.0679" id="org.slf4j" rx="2.5" ry="2.5" style="stroke:#181818;stroke-width:0.5;" width="59.3678" x="2866" y="77"/><text fill="#000000" font-family="sans-serif" font-size="14" lengthAdjust="spacing" textLength="53.3678" x="2869" y="96.9659">org.slf4j</text></g><!--class com.hack23.cia.service.data.impl.util--><a href="com/hack23/cia/service/data/impl/util/package-summary.html" target="_top" title="com/hack23/cia/service/data/impl/util/package-summary.html" xlink:actuate="onRequest" xlink:href="com/hack23/cia/service/data/impl/util/package-summary.html" xlink:show="new" xlink:title="com/hack23/cia/service/data/impl/util/package-summary.html" xlink:type="simple"><g id="elem_com.hack23.cia.service.data.impl.util"><rect codeLine="33" fill="#F1F1F1" height="29.0679" id="com.hack23.cia.service.data.impl.util" rx="2.5" ry="2.5" style="stroke:#181818;stroke-width:0.5;" width="246.6451" x="2881" y="12"/><text fill="#000000" font-family="sans-serif" font-size="14" lengthAdjust="spacing" textLength="240.6451" x="2884" y="31.9659">com.hack23.cia.service.data.impl.util</text></g></a><!--class org.postgresql.xa--><g id="elem_org.postgresql.xa"><rect fill="#F1F1F1" height="29.0679" id="org.postgresql.xa" rx="2.5" ry="2.5" style="stroke:#181818;stroke-width:0.5;" width="121.6816" x="2943.5" y="77"/><text fill="#000000" font-family="sans-serif" font-size="14" lengthAdjust="spacing" textLength="115.6816" x="2946.5" y="96.9659">org.postgresql.xa</text></g><!--class com.amazonaws.secretsmanager.caching--><g id="elem_com.amazonaws.secretsmanager.caching"><rect fill="#F1F1F1" height="29.0679" id="com.amazonaws.secretsmanager.caching" rx="2.5" ry="2.5" style="stroke:#181818;stroke-width:0.5;" width="280.917" x="3084" y="77"/><text fill="#000000" font-family="sans-serif" font-size="14" lengthAdjust="spacing" textLength="274.917" x="3087" y="96.9659">com.amazonaws.secretsmanager.caching</text></g><polygon fill="#181818" points="219.2913,77.6801,228.6041,80.885,224.2724,77.2467,227.9107,72.9151,219.2913,77.6801" style="stroke:#181818;stroke-width:1.0;"/><path d="M1361.1507,29.0492 C1143.1958,32.7185 645.0598,44.2392 227.5,77 C224.7945,77.2123 228.032,76.9197 225.2687,77.1601 " fill="none" style="stroke:#181818;stroke-width:1.0;"/><polygon fill="#181818" points="468.3179,77.6736,477.6253,80.8944,473.2999,77.2488,476.9455,72.9234,468.3179,77.6736" style="stroke:#181818;stroke-width:1.0;"/><path d="M1361.4524,30.8874 C1177.3261,36.9821 797.3006,51.5875 476.5,77 C473.8016,77.2138 477.0493,76.929 474.2962,77.1638 " fill="none" style="stroke:#181818;stroke-width:1.0;"/><polygon fill="#181818" points="713.0766,77.8527,722.4082,81.0023,718.0551,77.3898,721.6676,73.0367,713.0766,77.8527" style="stroke:#181818;stroke-width:1.0;"/><path d="M1361.1971,33.3328 C1214.6429,41.3596 949.0095,57.1042 722.5,77 C719.397,77.2726 722.2251,77.0021 719.0508,77.2972 " fill="none" style="stroke:#181818;stroke-width:1.0;"/><polygon fill="#181818" points="1034.2321,76.9819,1043.624,79.9469,1039.2005,76.4209,1042.7265,71.9974,1034.2321,76.9819" style="stroke:#181818;stroke-width:1.0;"/><path d="M1361.2559,40.0598 C1266.6693,50.739 1137.129,65.3645 1040.1942,76.3087 " fill="none" style="stroke:#181818;stroke-width:1.0;"/><polygon fill="#181818" points="1219.7303,78.8773,1229.3716,80.8883,1224.6177,77.8223,1227.6837,73.0684,1219.7303,78.8773" style="stroke:#181818;stroke-width:1.0;"/><path d="M1404.0694,41.0468 C1355.121,50.8188 1287.6971,64.4459 1228.5,77 C1225.6352,77.6076 1228.561,76.9712 1225.5952,77.6113 " fill="none" style="stroke:#181818;stroke-width:1.0;"/><polygon fill="#181818" points="1377.0497,76.7899,1386.8818,76.2145,1381.4924,74.4957,1383.2111,69.1063,1377.0497,76.7899" style="stroke:#181818;stroke-width:1.0;"/><path d="M1446.3279,41.0151 C1425.8836,51.5724 1402.9211,63.4301 1382.3809,74.0369 " fill="none" style="stroke:#181818;stroke-width:1.0;"/><polygon fill="#181818" points="1568.7326,76.7899,1562.5458,69.1268,1564.2824,74.5105,1558.8987,76.2472,1568.7326,76.7899" style="stroke:#181818;stroke-width:1.0;"/><path d="M1498.8866,41.0151 C1519.4985,51.5724 1542.6838,63.4478 1563.3924,74.0546 " fill="none" style="stroke:#181818;stroke-width:1.0;"/><polygon fill="#181818" points="1744.8842,76.953,1736.7435,71.4096,1739.9646,76.0599,1735.3144,79.281,1744.8842,76.953" style="stroke:#181818;stroke-width:1.0;"/><path d="M1546.9402,41.0151 C1605.388,51.6266 1680.4878,65.2615 1738.9807,75.8812 " fill="none" style="stroke:#181818;stroke-width:1.0;"/><polygon fill="#181818" points="1946.2639,76.9977,1937.7283,72.0842,1941.291,76.4782,1936.897,80.0409,1946.2639,76.9977" style="stroke:#181818;stroke-width:1.0;"/><path d="M1583.8022,39.1286 C1686.3175,49.8391 1832.4503,65.1067 1940.2964,76.3742 " fill="none" style="stroke:#181818;stroke-width:1.0;"/><polygon fill="#181818" points="2239.645,77.718,2230.9909,73.0162,2234.6607,77.3211,2230.3559,80.991,2239.645,77.718" style="stroke:#181818;stroke-width:1.0;"/><path d="M1583.6615,33.9233 C1731.4476,42.6543 2000.7302,59.229 2230.5,77 C2233.5178,77.2334 2230.5881,76.9968 2233.6639,77.2417 " fill="none" style="stroke:#181818;stroke-width:1.0;"/><polygon fill="#181818" points="2540.9416,77.6273,2532.2339,73.0256,2535.9531,77.2879,2531.6908,81.0071,2540.9416,77.6273" style="stroke:#181818;stroke-width:1.0;"/><path d="M1583.8741,31.3889 C1776.9337,38.4245 2186.2001,54.638 2531.5,77 C2534.617,77.2019 2531.7809,77.004 2534.9554,77.22 " fill="none" style="stroke:#181818;stroke-width:1.0;"/><polygon fill="#181818" points="2865.9363,79.2492,2858.3669,72.9481,2861.1255,77.8867,2856.1869,80.6453,2865.9363,79.2492" style="stroke:#181818;stroke-width:1.0;"/><path d="M1583.6937,27.228 C1867.503,27.2145 2613.4278,31.6379 2856.5,77 C2859.5991,77.5784 2857.0121,76.7217 2860.1633,77.6142 " fill="none" style="stroke:#181818;stroke-width:1.0;"/><polygon fill="#181818" points="3004.5,76.8566,3008.5,67.8566,3004.5,71.8566,3000.5,67.8566,3004.5,76.8566" style="stroke:#181818;stroke-width:1.0;"/><path d="M3004.5,41.1701 C3004.5,51.7373 3004.5,60.2961 3004.5,70.8566 " fill="none" style="stroke:#181818;stroke-width:1.0;"/><polygon fill="#181818" points="2919.2207,76.7899,2929.0144,75.7494,2923.5496,74.2878,2925.0111,68.823,2919.2207,76.7899" style="stroke:#181818;stroke-width:1.0;"/><path d="M2981.1168,41.0151 C2962.8509,51.5724 2942.7669,63.1806 2924.4154,73.7874 " fill="none" style="stroke:#181818;stroke-width:1.0;"/><polygon fill="#181818" points="3177.0035,76.8987,3169.4524,70.5756,3172.1967,75.5222,3167.2501,78.2665,3177.0035,76.8987" style="stroke:#181818;stroke-width:1.0;"/><path d="M3051.6955,41.0151 C3088.6886,51.6086 3134.1652,64.6314 3171.2353,75.2469 " fill="none" style="stroke:#181818;stroke-width:1.0;"/><text fill="#888888" font-family="sans-serif" font-size="10" lengthAdjust="spacing" textLength="2.6" x="1680.7" y="110.69">&#160;</text><a href="https://github.com/talsma-ict/umldoclet" target="_top" title="https://github.com/talsma-ict/umldoclet" xlink:actuate="onRequest" xlink:href="https://github.com/talsma-ict/umldoclet" xlink:show="new" xlink:title="https://github.com/talsma-ict/umldoclet" xlink:type="simple"><text fill="#888888" font-family="sans-serif" font-size="10" lengthAdjust="spacing" textLength="76.7199" x="1643.64" y="124.31">UMLDoclet 2.2.1</text></a><!--SRC=[hLNVRzD847xdhvZZ7WvqP9saKGaLGgfwfxj3HKAqF8KyJDOJUvlzONR7xHd4_ywi7TfUGT24iopPtltccszcnpC00B_1IMYwQAgQWGDmRHAyVNKAw4keo5D4fXACmueIhCW6NwK1I80jro52MFTVEiH8gGc-DBw2btY9a48RDINru07qhiw_i5zXkiM-wlBY7q5ROdXqylYMfEbuSZYQZgSpE4UR7C8_9-TgotPZCrLJDG7XjaQJJqBP-f9YB-kuGIsFqs7d2LnIJ2PuiHblUNAeEdX6unCq63dba5vRz9orJbJshvx2e-Epq_zg6p_hjJs1u-YnBU5DUDzUX_jB4x4InHQxq38aHumU-wsqCLuSeOCLwaqLWyZLmKekEQ9FiaMU1wH4vz59Nb7J6MKZ5fWFdlhzsfIIUHCb3JVVv1hkO6t8bkdkggYeWoptwpeuLOk2wO7I1bMYU2bfKYKoAkCQ2wFHY- -2i37t9mgnKhLPaUIAIQr2OEL2ILP9W58o-nAHhumdTL6kjBnVghIBfZkWGO_ndBcjXDT8HI5BlQZK9IRNM-wcz09poIdvFMWtmzH4ISjQoeIkGjoelZPGPpLxAHZub1IgOLnPKfWQqlo_SErxU8amwbevoJH55QBhNt-Y6hucJ9JIpYdxYZ3_gEHBPLlf8v8wAOykcRJZYThrxE9U9gfbSsFNXCILDDVtLlsBUzZlupSZqU67uF5Apfjq99O6x6KGHAMbf-P3sdRGry8ewz9-_MQR4eifmSCVkNi8YuLWYW5J2AROOegCAJAcQ0RsKMgTmzYfcfrTBk5Zx-ZJBkxwwExbCmD_vBX_F4_SMNhHl-ThBMrD9i_7wuLy_Tr9CPvASaxw9l_h_DkxR_FGaXoIp4czyLAtCBv63e4-Bsxvs_fwvnUBchb9HqLH6QxRbShnSJymHqPpqJfR3fFopinSBhSd-DVrCCu3RJIPZgQpyydiQ3QNMpsTpv_D3myE3tuVJux6uyMVRGmD5MSSzAOErYq_0m00]--></g></svg>