<?xml version="1.0" encoding="UTF-8" standalone="no"?><svg xmlns="http://www.w3.org/2000/svg" xmlns:xlink="http://www.w3.org/1999/xlink" contentScriptType="application/ecmascript" contentStyleType="text/css" height="197px" preserveAspectRatio="none" style="width:399px;height:197px;" version="1.1" viewBox="0 0 399 197" width="399px" zoomAndPan="magnify"><defs><filter height="300%" id="f1x84z6kmy5v49" width="300%" x="-1" y="-1"><feGaussianBlur result="blurOut" stdDeviation="2.0"/><feColorMatrix in="blurOut" result="blurOut2" type="matrix" values="0 0 0 0 0 0 0 0 0 0 0 0 0 0 0 0 0 0 .4 0"/><feOffset dx="4.0" dy="4.0" in="blurOut2" result="blurOut3"/><feBlend in="SourceGraphic" in2="blurOut3" mode="normal"/></filter></defs><g><!--class com.hack23.cia.service.api.action.user.DisableGoogleAuthenticatorCredentialResponse--><a href="DisableGoogleAuthenticatorCredentialResponse.html" target="_top" xlink:actuate="onRequest" xlink:show="new" xlink:title="DisableGoogleAuthenticatorCredentialResponse.html" xlink:type="simple"><rect fill="#FEFECE" filter="url(#f1x84z6kmy5v49)" height="58.7422" id="com.hack23.cia.service.api.action.user.DisableGoogleAuthenticatorCredentialResponse" style="stroke: #A80036; stroke-width: 1.5;" width="382" x="6" y="106"/><ellipse cx="27.75" cy="124.9688" fill="#ADD1B2" rx="11" ry="11" style="stroke: #A80036; stroke-width: 1.0;"/><path d="M30.7188,130.6094 Q30.1406,130.9063 29.5,131.0469 Q28.8594,131.2031 28.1563,131.2031 Q25.6563,131.2031 24.3281,129.5625 Q23.0156,127.9063 23.0156,124.7813 Q23.0156,121.6563 24.3281,120 Q25.6563,118.3438 28.1563,118.3438 Q28.8594,118.3438 29.5,118.5 Q30.1563,118.6563 30.7188,118.9531 L30.7188,121.6719 Q30.0938,121.0938 29.5,120.8281 Q28.9063,120.5469 28.2813,120.5469 Q26.9375,120.5469 26.25,121.625 Q25.5625,122.6875 25.5625,124.7813 Q25.5625,126.875 26.25,127.9531 Q26.9375,129.0156 28.2813,129.0156 Q28.9063,129.0156 29.5,128.75 Q30.0938,128.4688 30.7188,127.8906 L30.7188,130.6094 Z "/><text fill="#000000" font-family="sans-serif" font-size="14" lengthAdjust="spacingAndGlyphs" textLength="335" x="43.25" y="123.9951">DisableGoogleAuthenticatorCredentialResponse</text><text fill="#000000" font-family="sans-serif" font-size="10" lengthAdjust="spacingAndGlyphs" textLength="184" x="118.75" y="136.5791">com.hack23.cia.service.api.action.user</text><line style="stroke: #A80036; stroke-width: 1.5;" x1="7" x2="387" y1="143.9375" y2="143.9375"/><ellipse cx="17" cy="155.8398" fill="#84BE84" rx="3" ry="3" style="stroke: #038048; stroke-width: 1.0;"/><text fill="#000000" font-family="sans-serif" font-size="11" lengthAdjust="spacingAndGlyphs" textLength="356" x="26" y="158.1479">DisableGoogleAuthenticatorCredentialResponse(ServiceResult)</text></a><!--class com.hack23.cia.service.api.action.common.AbstractResponse--><a href="../common/AbstractResponse.html" target="_top" xlink:actuate="onRequest" xlink:show="new" xlink:title="../common/AbstractResponse.html" xlink:type="simple"><rect fill="#FEFECE" filter="url(#f1x84z6kmy5v49)" height="37.9375" id="com.hack23.cia.service.api.action.common.AbstractResponse" style="stroke: #A80036; stroke-width: 1.5;" width="249" x="72.5" y="8"/><ellipse cx="87.5" cy="26.9688" fill="#A9DCDF" rx="11" ry="11" style="stroke: #A80036; stroke-width: 1.0;"/><path d="M87.6094,22.3125 L86.4531,27.3906 L88.7813,27.3906 L87.6094,22.3125 Z M86.125,20.0781 L89.1094,20.0781 L92.4688,32.4688 L90.0156,32.4688 L89.25,29.4063 L85.9688,29.4063 L85.2188,32.4688 L82.7813,32.4688 L86.125,20.0781 Z "/><text fill="#000000" font-family="sans-serif" font-size="14" font-style="italic" lengthAdjust="spacingAndGlyphs" textLength="126" x="147" y="25.9951">AbstractResponse</text><text fill="#000000" font-family="sans-serif" font-size="10" font-style="italic" lengthAdjust="spacingAndGlyphs" textLength="217" x="101.5" y="38.5791">com.hack23.cia.service.api.action.common</text></a><!--link com.hack23.cia.service.api.action.common.AbstractResponse to com.hack23.cia.service.api.action.user.DisableGoogleAuthenticatorCredentialResponse--><path d="M197,66.3533 C197,79.4123 197,93.7197 197,105.9146 " fill="none" id="com.hack23.cia.service.api.action.common.AbstractResponse-com.hack23.cia.service.api.action.user.DisableGoogleAuthenticatorCredentialResponse" style="stroke: #A80036; stroke-width: 1.0;"/><polygon fill="none" points="190.0001,66.1479,197,46.1479,204.0001,66.1478,190.0001,66.1479" style="stroke: #A80036; stroke-width: 1.0;"/><text fill="#888888" font-family="sans-serif" font-size="10" lengthAdjust="spacingAndGlyphs" textLength="186" x="110" y="184.2822">UMLDoclet 2.0.5, PlantUML 1.2019.08</text><!--
@startuml
    set namespaceSeparator none
    hide empty fields
    hide empty methods

    class "<size:14>DisableGoogleAuthenticatorCredentialResponse\n<size:10>com.hack23.cia.service.api.action.user" as com.hack23.cia.service.api.action.user.DisableGoogleAuthenticatorCredentialResponse [[DisableGoogleAuthenticatorCredentialResponse.html]] {
        +DisableGoogleAuthenticatorCredentialResponse(ServiceResult)
    }

    abstract class "<size:14>AbstractResponse\n<size:10>com.hack23.cia.service.api.action.common" as com.hack23.cia.service.api.action.common.AbstractResponse [[../common/AbstractResponse.html]]

    com.hack23.cia.service.api.action.common.AbstractResponse <|- - com.hack23.cia.service.api.action.user.DisableGoogleAuthenticatorCredentialResponse

    center footer UMLDoclet 2.0.5, PlantUML 1.2019.08
@enduml

PlantUML version 1.2019.08(Sat Jul 13 21:25:14 CEST 2019)
(APACHE source distribution)
Java Runtime: OpenJDK Runtime Environment
JVM: OpenJDK 64-Bit Server VM
Java Version: 11.0.4+11-post-Ubuntu-1ubuntu219.04
Operating System: Linux
OS Version: 5.0.0-27-generic
Default Encoding: UTF-8
Language: en
Country: US
--></g></svg>