<?xml version="1.0" encoding="UTF-8" standalone="no"?><svg xmlns="http://www.w3.org/2000/svg" xmlns:xlink="http://www.w3.org/1999/xlink" contentScriptType="application/ecmascript" contentStyleType="text/css" height="362px" preserveAspectRatio="none" style="width:3338px;height:362px;" version="1.1" viewBox="0 0 3338 362" width="3338px" zoomAndPan="magnify"><defs><filter height="300%" id="f1fehvl6ezouk8" width="300%" x="-1" y="-1"><feGaussianBlur result="blurOut" stdDeviation="2.0"/><feColorMatrix in="blurOut" result="blurOut2" type="matrix" values="0 0 0 0 0 0 0 0 0 0 0 0 0 0 0 0 0 0 .4 0"/><feOffset dx="4.0" dy="4.0" in="blurOut2" result="blurOut3"/><feBlend in="SourceGraphic" in2="blurOut3" mode="normal"/></filter></defs><g><!--cluster com.hack23.cia.service.api.action.user--><polygon fill="#FFFFFF" filter="url(#f1fehvl6ezouk8)" points="14,124,327,124,334,146.2969,3316,146.2969,3316,322,14,322,14,124" style="stroke: #000000; stroke-width: 1.5;"/><line style="stroke: #000000; stroke-width: 1.5;" x1="14" x2="334" y1="146.2969" y2="146.2969"/><text fill="#000000" font-family="sans-serif" font-size="14" font-weight="bold" lengthAdjust="spacingAndGlyphs" textLength="307" x="18" y="138.9951">com.hack23.cia.service.api.action.user</text><!--cluster com.hack23.cia.service.api.action.common--><polygon fill="#FFFFFF" filter="url(#f1fehvl6ezouk8)" points="1336,16,1680,16,1687,38.2969,1690,38.2969,1690,99,1336,99,1336,16" style="stroke: #000000; stroke-width: 1.5;"/><line style="stroke: #000000; stroke-width: 1.5;" x1="1336" x2="1687" y1="38.2969" y2="38.2969"/><text fill="#000000" font-family="sans-serif" font-size="14" font-weight="bold" lengthAdjust="spacingAndGlyphs" textLength="338" x="1340" y="30.9951">com.hack23.cia.service.api.action.common</text><!--class com.hack23.cia.service.api.action.user.DocumentWordCountResponse--><a href="DocumentWordCountResponse.html" target="_top" xlink:actuate="onRequest" xlink:show="new" xlink:title="DocumentWordCountResponse.html" xlink:type="simple"><rect fill="#FEFECE" filter="url(#f1fehvl6ezouk8)" height="86.4141" id="com.hack23.cia.service.api.action.user.DocumentWordCountResponse" style="stroke: #A80036; stroke-width: 1.5;" width="290" x="3018" y="189.5"/><ellipse cx="3061.35" cy="205.5" fill="#ADD1B2" rx="11" ry="11" style="stroke: #A80036; stroke-width: 1.0;"/><path d="M3064.3188,211.1406 Q3063.7406,211.4375 3063.1,211.5781 Q3062.4594,211.7344 3061.7563,211.7344 Q3059.2563,211.7344 3057.9281,210.0938 Q3056.6156,208.4375 3056.6156,205.3125 Q3056.6156,202.1875 3057.9281,200.5313 Q3059.2563,198.875 3061.7563,198.875 Q3062.4594,198.875 3063.1,199.0313 Q3063.7563,199.1875 3064.3188,199.4844 L3064.3188,202.2031 Q3063.6938,201.625 3063.1,201.3594 Q3062.5063,201.0781 3061.8813,201.0781 Q3060.5375,201.0781 3059.85,202.1563 Q3059.1625,203.2188 3059.1625,205.3125 Q3059.1625,207.4063 3059.85,208.4844 Q3060.5375,209.5469 3061.8813,209.5469 Q3062.5063,209.5469 3063.1,209.2813 Q3063.6938,209 3064.3188,208.4219 L3064.3188,211.1406 Z "/><text fill="#000000" font-family="sans-serif" font-size="12" lengthAdjust="spacingAndGlyphs" textLength="195" x="3081.65" y="209.6543">DocumentWordCountResponse</text><line style="stroke: #A80036; stroke-width: 1.5;" x1="3019" x2="3307" y1="221.5" y2="221.5"/><line style="stroke: #A80036; stroke-width: 1.5;" x1="3019" x2="3307" y1="229.5" y2="229.5"/><ellipse cx="3029" cy="241.4023" fill="#84BE84" rx="3" ry="3" style="stroke: #038048; stroke-width: 1.0;"/><text fill="#000000" font-family="sans-serif" font-size="11" lengthAdjust="spacingAndGlyphs" textLength="259" x="3038" y="243.7104">DocumentWordCountResponse(ServiceResult)</text><ellipse cx="3029" cy="254.207" fill="#84BE84" rx="3" ry="3" style="stroke: #038048; stroke-width: 1.0;"/><text fill="#000000" font-family="sans-serif" font-size="11" lengthAdjust="spacingAndGlyphs" textLength="241" x="3038" y="256.5151">getWordCountMap(): Map&lt;String, Integer&gt;</text><ellipse cx="3029" cy="267.0117" fill="#84BE84" rx="3" ry="3" style="stroke: #038048; stroke-width: 1.0;"/><text fill="#000000" font-family="sans-serif" font-size="11" lengthAdjust="spacingAndGlyphs" textLength="264" x="3038" y="269.3198">setWordCountMap(Map&lt;String, Integer&gt;): void</text></a><!--class com.hack23.cia.service.api.action.user.SearchDocumentResponse--><a href="SearchDocumentResponse.html" target="_top" xlink:actuate="onRequest" xlink:show="new" xlink:title="SearchDocumentResponse.html" xlink:type="simple"><rect fill="#FEFECE" filter="url(#f1fehvl6ezouk8)" height="137.6328" id="com.hack23.cia.service.api.action.user.SearchDocumentResponse" style="stroke: #A80036; stroke-width: 1.5;" width="375" x="2607.5" y="163.5"/><ellipse cx="2705.75" cy="179.5" fill="#ADD1B2" rx="11" ry="11" style="stroke: #A80036; stroke-width: 1.0;"/><path d="M2708.7188,185.1406 Q2708.1406,185.4375 2707.5,185.5781 Q2706.8594,185.7344 2706.1563,185.7344 Q2703.6563,185.7344 2702.3281,184.0938 Q2701.0156,182.4375 2701.0156,179.3125 Q2701.0156,176.1875 2702.3281,174.5313 Q2703.6563,172.875 2706.1563,172.875 Q2706.8594,172.875 2707.5,173.0313 Q2708.1563,173.1875 2708.7188,173.4844 L2708.7188,176.2031 Q2708.0938,175.625 2707.5,175.3594 Q2706.9063,175.0781 2706.2813,175.0781 Q2704.9375,175.0781 2704.25,176.1563 Q2703.5625,177.2188 2703.5625,179.3125 Q2703.5625,181.4063 2704.25,182.4844 Q2704.9375,183.5469 2706.2813,183.5469 Q2706.9063,183.5469 2707.5,183.2813 Q2708.0938,183 2708.7188,182.4219 L2708.7188,185.1406 Z "/><text fill="#000000" font-family="sans-serif" font-size="12" lengthAdjust="spacingAndGlyphs" textLength="170" x="2726.25" y="183.6543">SearchDocumentResponse</text><line style="stroke: #A80036; stroke-width: 1.5;" x1="2608.5" x2="2981.5" y1="195.5" y2="195.5"/><line style="stroke: #A80036; stroke-width: 1.5;" x1="2608.5" x2="2981.5" y1="203.5" y2="203.5"/><ellipse cx="2618.5" cy="215.4023" fill="#84BE84" rx="3" ry="3" style="stroke: #038048; stroke-width: 1.0;"/><text fill="#000000" font-family="sans-serif" font-size="11" lengthAdjust="spacingAndGlyphs" textLength="238" x="2627.5" y="217.7104">SearchDocumentResponse(ServiceResult)</text><ellipse cx="2618.5" cy="228.207" fill="#84BE84" rx="3" ry="3" style="stroke: #038048; stroke-width: 1.0;"/><text fill="#000000" font-family="sans-serif" font-size="11" lengthAdjust="spacingAndGlyphs" textLength="256" x="2627.5" y="230.5151">getResultElement(): List&lt;DocumentElement&gt;</text><ellipse cx="2618.5" cy="241.0117" fill="#84BE84" rx="3" ry="3" style="stroke: #038048; stroke-width: 1.0;"/><text fill="#000000" font-family="sans-serif" font-size="11" lengthAdjust="spacingAndGlyphs" textLength="279" x="2627.5" y="243.3198">setResultElement(List&lt;DocumentElement&gt;): void</text><ellipse cx="2618.5" cy="253.8164" fill="#84BE84" rx="3" ry="3" style="stroke: #038048; stroke-width: 1.0;"/><text fill="#000000" font-family="sans-serif" font-size="11" lengthAdjust="spacingAndGlyphs" textLength="326" x="2627.5" y="256.1245">getStatusMap(): Map&lt;String, DocumentStatusContainer&gt;</text><ellipse cx="2618.5" cy="266.6211" fill="#84BE84" rx="3" ry="3" style="stroke: #038048; stroke-width: 1.0;"/><text fill="#000000" font-family="sans-serif" font-size="11" lengthAdjust="spacingAndGlyphs" textLength="349" x="2627.5" y="268.9292">setStatusMap(Map&lt;String, DocumentStatusContainer&gt;): void</text><ellipse cx="2618.5" cy="279.4258" fill="#84BE84" rx="3" ry="3" style="stroke: #038048; stroke-width: 1.0;"/><text fill="#000000" font-family="sans-serif" font-size="11" lengthAdjust="spacingAndGlyphs" textLength="293" x="2627.5" y="281.7339">getDataMap(): Map&lt;String, DocumentContentData&gt;</text><ellipse cx="2618.5" cy="292.2305" fill="#84BE84" rx="3" ry="3" style="stroke: #038048; stroke-width: 1.0;"/><text fill="#000000" font-family="sans-serif" font-size="11" lengthAdjust="spacingAndGlyphs" textLength="316" x="2627.5" y="294.5386">setDataMap(Map&lt;String, DocumentContentData&gt;): void</text></a><!--class com.hack23.cia.service.api.action.user.DisableGoogleAuthenticatorCredentialResponse--><a href="DisableGoogleAuthenticatorCredentialResponse.html" target="_top" xlink:actuate="onRequest" xlink:show="new" xlink:title="DisableGoogleAuthenticatorCredentialResponse.html" xlink:type="simple"><rect fill="#FEFECE" filter="url(#f1fehvl6ezouk8)" height="60.8047" id="com.hack23.cia.service.api.action.user.DisableGoogleAuthenticatorCredentialResponse" style="stroke: #A80036; stroke-width: 1.5;" width="382" x="2190" y="202"/><ellipse cx="2226.6" cy="218" fill="#ADD1B2" rx="11" ry="11" style="stroke: #A80036; stroke-width: 1.0;"/><path d="M2229.5688,223.6406 Q2228.9906,223.9375 2228.35,224.0781 Q2227.7094,224.2344 2227.0063,224.2344 Q2224.5063,224.2344 2223.1781,222.5938 Q2221.8656,220.9375 2221.8656,217.8125 Q2221.8656,214.6875 2223.1781,213.0313 Q2224.5063,211.375 2227.0063,211.375 Q2227.7094,211.375 2228.35,211.5313 Q2229.0063,211.6875 2229.5688,211.9844 L2229.5688,214.7031 Q2228.9438,214.125 2228.35,213.8594 Q2227.7563,213.5781 2227.1313,213.5781 Q2225.7875,213.5781 2225.1,214.6563 Q2224.4125,215.7188 2224.4125,217.8125 Q2224.4125,219.9063 2225.1,220.9844 Q2225.7875,222.0469 2227.1313,222.0469 Q2227.7563,222.0469 2228.35,221.7813 Q2228.9438,221.5 2229.5688,220.9219 L2229.5688,223.6406 Z "/><text fill="#000000" font-family="sans-serif" font-size="12" lengthAdjust="spacingAndGlyphs" textLength="302" x="2245.4" y="222.1543">DisableGoogleAuthenticatorCredentialResponse</text><line style="stroke: #A80036; stroke-width: 1.5;" x1="2191" x2="2571" y1="234" y2="234"/><line style="stroke: #A80036; stroke-width: 1.5;" x1="2191" x2="2571" y1="242" y2="242"/><ellipse cx="2201" cy="253.9023" fill="#84BE84" rx="3" ry="3" style="stroke: #038048; stroke-width: 1.0;"/><text fill="#000000" font-family="sans-serif" font-size="11" lengthAdjust="spacingAndGlyphs" textLength="356" x="2210" y="256.2104">DisableGoogleAuthenticatorCredentialResponse(ServiceResult)</text></a><!--class com.hack23.cia.service.api.action.user.ChangePasswordRequest--><a href="ChangePasswordRequest.html" target="_top" xlink:actuate="onRequest" xlink:show="new" xlink:title="ChangePasswordRequest.html" xlink:type="simple"><rect fill="#FEFECE" filter="url(#f1fehvl6ezouk8)" height="150.4375" id="com.hack23.cia.service.api.action.user.ChangePasswordRequest" style="stroke: #A80036; stroke-width: 1.5;" width="236" x="381" y="157.5"/><ellipse cx="415.8" cy="173.5" fill="#ADD1B2" rx="11" ry="11" style="stroke: #A80036; stroke-width: 1.0;"/><path d="M418.7688,179.1406 Q418.1906,179.4375 417.55,179.5781 Q416.9094,179.7344 416.2063,179.7344 Q413.7063,179.7344 412.3781,178.0938 Q411.0656,176.4375 411.0656,173.3125 Q411.0656,170.1875 412.3781,168.5313 Q413.7063,166.875 416.2063,166.875 Q416.9094,166.875 417.55,167.0313 Q418.2063,167.1875 418.7688,167.4844 L418.7688,170.2031 Q418.1438,169.625 417.55,169.3594 Q416.9563,169.0781 416.3313,169.0781 Q414.9875,169.0781 414.3,170.1563 Q413.6125,171.2188 413.6125,173.3125 Q413.6125,175.4063 414.3,176.4844 Q414.9875,177.5469 416.3313,177.5469 Q416.9563,177.5469 417.55,177.2813 Q418.1438,177 418.7688,176.4219 L418.7688,179.1406 Z "/><text fill="#000000" font-family="sans-serif" font-size="12" lengthAdjust="spacingAndGlyphs" textLength="160" x="434.2" y="177.6543">ChangePasswordRequest</text><line style="stroke: #A80036; stroke-width: 1.5;" x1="382" x2="616" y1="189.5" y2="189.5"/><line style="stroke: #A80036; stroke-width: 1.5;" x1="382" x2="616" y1="197.5" y2="197.5"/><ellipse cx="392" cy="209.4023" fill="#84BE84" rx="3" ry="3" style="stroke: #038048; stroke-width: 1.0;"/><text fill="#000000" font-family="sans-serif" font-size="11" lengthAdjust="spacingAndGlyphs" textLength="124" x="401" y="211.7104">getSessionId(): String</text><ellipse cx="392" cy="222.207" fill="#84BE84" rx="3" ry="3" style="stroke: #038048; stroke-width: 1.0;"/><text fill="#000000" font-family="sans-serif" font-size="11" lengthAdjust="spacingAndGlyphs" textLength="147" x="401" y="224.5151">setSessionId(String): void</text><ellipse cx="392" cy="235.0117" fill="#84BE84" rx="3" ry="3" style="stroke: #038048; stroke-width: 1.0;"/><text fill="#000000" font-family="sans-serif" font-size="11" lengthAdjust="spacingAndGlyphs" textLength="167" x="401" y="237.3198">getCurrentPassword(): String</text><ellipse cx="392" cy="247.8164" fill="#84BE84" rx="3" ry="3" style="stroke: #038048; stroke-width: 1.0;"/><text fill="#000000" font-family="sans-serif" font-size="11" lengthAdjust="spacingAndGlyphs" textLength="190" x="401" y="250.1245">setCurrentPassword(String): void</text><ellipse cx="392" cy="260.6211" fill="#84BE84" rx="3" ry="3" style="stroke: #038048; stroke-width: 1.0;"/><text fill="#000000" font-family="sans-serif" font-size="11" lengthAdjust="spacingAndGlyphs" textLength="148" x="401" y="262.9292">getNewPassword(): String</text><ellipse cx="392" cy="273.4258" fill="#84BE84" rx="3" ry="3" style="stroke: #038048; stroke-width: 1.0;"/><text fill="#000000" font-family="sans-serif" font-size="11" lengthAdjust="spacingAndGlyphs" textLength="171" x="401" y="275.7339">setNewPassword(String): void</text><ellipse cx="392" cy="286.2305" fill="#84BE84" rx="3" ry="3" style="stroke: #038048; stroke-width: 1.0;"/><text fill="#000000" font-family="sans-serif" font-size="11" lengthAdjust="spacingAndGlyphs" textLength="187" x="401" y="288.5386">getRepeatNewPassword(): String</text><ellipse cx="392" cy="299.0352" fill="#84BE84" rx="3" ry="3" style="stroke: #038048; stroke-width: 1.0;"/><text fill="#000000" font-family="sans-serif" font-size="11" lengthAdjust="spacingAndGlyphs" textLength="210" x="401" y="301.3433">setRepeatNewPassword(String): void</text></a><!--class com.hack23.cia.service.api.action.user.DisableGoogleAuthenticatorCredentialRequest--><a href="DisableGoogleAuthenticatorCredentialRequest.html" target="_top" xlink:actuate="onRequest" xlink:show="new" xlink:title="DisableGoogleAuthenticatorCredentialRequest.html" xlink:type="simple"><rect fill="#FEFECE" filter="url(#f1fehvl6ezouk8)" height="99.2188" id="com.hack23.cia.service.api.action.user.DisableGoogleAuthenticatorCredentialRequest" style="stroke: #A80036; stroke-width: 1.5;" width="324" x="22" y="183"/><ellipse cx="37" cy="199" fill="#ADD1B2" rx="11" ry="11" style="stroke: #A80036; stroke-width: 1.0;"/><path d="M39.9688,204.6406 Q39.3906,204.9375 38.75,205.0781 Q38.1094,205.2344 37.4063,205.2344 Q34.9063,205.2344 33.5781,203.5938 Q32.2656,201.9375 32.2656,198.8125 Q32.2656,195.6875 33.5781,194.0313 Q34.9063,192.375 37.4063,192.375 Q38.1094,192.375 38.75,192.5313 Q39.4063,192.6875 39.9688,192.9844 L39.9688,195.7031 Q39.3438,195.125 38.75,194.8594 Q38.1563,194.5781 37.5313,194.5781 Q36.1875,194.5781 35.5,195.6563 Q34.8125,196.7188 34.8125,198.8125 Q34.8125,200.9063 35.5,201.9844 Q36.1875,203.0469 37.5313,203.0469 Q38.1563,203.0469 38.75,202.7813 Q39.3438,202.5 39.9688,201.9219 L39.9688,204.6406 Z "/><text fill="#000000" font-family="sans-serif" font-size="12" lengthAdjust="spacingAndGlyphs" textLength="292" x="51" y="203.1543">DisableGoogleAuthenticatorCredentialRequest</text><line style="stroke: #A80036; stroke-width: 1.5;" x1="23" x2="345" y1="215" y2="215"/><line style="stroke: #A80036; stroke-width: 1.5;" x1="23" x2="345" y1="223" y2="223"/><ellipse cx="33" cy="234.9023" fill="#84BE84" rx="3" ry="3" style="stroke: #038048; stroke-width: 1.0;"/><text fill="#000000" font-family="sans-serif" font-size="11" lengthAdjust="spacingAndGlyphs" textLength="124" x="42" y="237.2104">getSessionId(): String</text><ellipse cx="33" cy="247.707" fill="#84BE84" rx="3" ry="3" style="stroke: #038048; stroke-width: 1.0;"/><text fill="#000000" font-family="sans-serif" font-size="11" lengthAdjust="spacingAndGlyphs" textLength="147" x="42" y="250.0151">setSessionId(String): void</text><ellipse cx="33" cy="260.5117" fill="#84BE84" rx="3" ry="3" style="stroke: #038048; stroke-width: 1.0;"/><text fill="#000000" font-family="sans-serif" font-size="11" lengthAdjust="spacingAndGlyphs" textLength="151" x="42" y="262.8198">getUserpassword(): String</text><ellipse cx="33" cy="273.3164" fill="#84BE84" rx="3" ry="3" style="stroke: #038048; stroke-width: 1.0;"/><text fill="#000000" font-family="sans-serif" font-size="11" lengthAdjust="spacingAndGlyphs" textLength="174" x="42" y="275.6245">setUserpassword(String): void</text></a><!--class com.hack23.cia.service.api.action.user.SearchDocumentRequest--><a href="SearchDocumentRequest.html" target="_top" xlink:actuate="onRequest" xlink:show="new" xlink:title="SearchDocumentRequest.html" xlink:type="simple"><rect fill="#FEFECE" filter="url(#f1fehvl6ezouk8)" height="124.8281" id="com.hack23.cia.service.api.action.user.SearchDocumentRequest" style="stroke: #A80036; stroke-width: 1.5;" width="220" x="1239" y="170"/><ellipse cx="1266.6" cy="186" fill="#ADD1B2" rx="11" ry="11" style="stroke: #A80036; stroke-width: 1.0;"/><path d="M1269.5688,191.6406 Q1268.9906,191.9375 1268.35,192.0781 Q1267.7094,192.2344 1267.0063,192.2344 Q1264.5063,192.2344 1263.1781,190.5938 Q1261.8656,188.9375 1261.8656,185.8125 Q1261.8656,182.6875 1263.1781,181.0313 Q1264.5063,179.375 1267.0063,179.375 Q1267.7094,179.375 1268.35,179.5313 Q1269.0063,179.6875 1269.5688,179.9844 L1269.5688,182.7031 Q1268.9438,182.125 1268.35,181.8594 Q1267.7563,181.5781 1267.1313,181.5781 Q1265.7875,181.5781 1265.1,182.6563 Q1264.4125,183.7188 1264.4125,185.8125 Q1264.4125,187.9063 1265.1,188.9844 Q1265.7875,190.0469 1267.1313,190.0469 Q1267.7563,190.0469 1268.35,189.7813 Q1268.9438,189.5 1269.5688,188.9219 L1269.5688,191.6406 Z "/><text fill="#000000" font-family="sans-serif" font-size="12" lengthAdjust="spacingAndGlyphs" textLength="160" x="1283.4" y="190.1543">SearchDocumentRequest</text><line style="stroke: #A80036; stroke-width: 1.5;" x1="1240" x2="1458" y1="202" y2="202"/><line style="stroke: #A80036; stroke-width: 1.5;" x1="1240" x2="1458" y1="210" y2="210"/><ellipse cx="1250" cy="221.9023" fill="#84BE84" rx="3" ry="3" style="stroke: #038048; stroke-width: 1.0;"/><text fill="#000000" font-family="sans-serif" font-size="11" lengthAdjust="spacingAndGlyphs" textLength="124" x="1259" y="224.2104">getSessionId(): String</text><ellipse cx="1250" cy="234.707" fill="#84BE84" rx="3" ry="3" style="stroke: #038048; stroke-width: 1.0;"/><text fill="#000000" font-family="sans-serif" font-size="11" lengthAdjust="spacingAndGlyphs" textLength="147" x="1259" y="237.0151">setSessionId(String): void</text><ellipse cx="1250" cy="247.5117" fill="#84BE84" rx="3" ry="3" style="stroke: #038048; stroke-width: 1.0;"/><text fill="#000000" font-family="sans-serif" font-size="11" lengthAdjust="spacingAndGlyphs" textLength="171" x="1259" y="249.8198">getSearchExpression(): String</text><ellipse cx="1250" cy="260.3164" fill="#84BE84" rx="3" ry="3" style="stroke: #038048; stroke-width: 1.0;"/><text fill="#000000" font-family="sans-serif" font-size="11" lengthAdjust="spacingAndGlyphs" textLength="194" x="1259" y="262.6245">setSearchExpression(String): void</text><ellipse cx="1250" cy="273.1211" fill="#84BE84" rx="3" ry="3" style="stroke: #038048; stroke-width: 1.0;"/><text fill="#000000" font-family="sans-serif" font-size="11" lengthAdjust="spacingAndGlyphs" textLength="138" x="1259" y="275.4292">getMaxResults(): Integer</text><ellipse cx="1250" cy="285.9258" fill="#84BE84" rx="3" ry="3" style="stroke: #038048; stroke-width: 1.0;"/><text fill="#000000" font-family="sans-serif" font-size="11" lengthAdjust="spacingAndGlyphs" textLength="161" x="1259" y="288.2339">setMaxResults(Integer): void</text></a><!--class com.hack23.cia.service.api.action.user.SetGoogleAuthenticatorCredentialRequest--><a href="SetGoogleAuthenticatorCredentialRequest.html" target="_top" xlink:actuate="onRequest" xlink:show="new" xlink:title="SetGoogleAuthenticatorCredentialRequest.html" xlink:type="simple"><rect fill="#FEFECE" filter="url(#f1fehvl6ezouk8)" height="99.2188" id="com.hack23.cia.service.api.action.user.SetGoogleAuthenticatorCredentialRequest" style="stroke: #A80036; stroke-width: 1.5;" width="299" x="904.5" y="183"/><ellipse cx="919.5" cy="199" fill="#ADD1B2" rx="11" ry="11" style="stroke: #A80036; stroke-width: 1.0;"/><path d="M922.4688,204.6406 Q921.8906,204.9375 921.25,205.0781 Q920.6094,205.2344 919.9063,205.2344 Q917.4063,205.2344 916.0781,203.5938 Q914.7656,201.9375 914.7656,198.8125 Q914.7656,195.6875 916.0781,194.0313 Q917.4063,192.375 919.9063,192.375 Q920.6094,192.375 921.25,192.5313 Q921.9063,192.6875 922.4688,192.9844 L922.4688,195.7031 Q921.8438,195.125 921.25,194.8594 Q920.6563,194.5781 920.0313,194.5781 Q918.6875,194.5781 918,195.6563 Q917.3125,196.7188 917.3125,198.8125 Q917.3125,200.9063 918,201.9844 Q918.6875,203.0469 920.0313,203.0469 Q920.6563,203.0469 921.25,202.7813 Q921.8438,202.5 922.4688,201.9219 L922.4688,204.6406 Z "/><text fill="#000000" font-family="sans-serif" font-size="12" lengthAdjust="spacingAndGlyphs" textLength="267" x="933.5" y="203.1543">SetGoogleAuthenticatorCredentialRequest</text><line style="stroke: #A80036; stroke-width: 1.5;" x1="905.5" x2="1202.5" y1="215" y2="215"/><line style="stroke: #A80036; stroke-width: 1.5;" x1="905.5" x2="1202.5" y1="223" y2="223"/><ellipse cx="915.5" cy="234.9023" fill="#84BE84" rx="3" ry="3" style="stroke: #038048; stroke-width: 1.0;"/><text fill="#000000" font-family="sans-serif" font-size="11" lengthAdjust="spacingAndGlyphs" textLength="124" x="924.5" y="237.2104">getSessionId(): String</text><ellipse cx="915.5" cy="247.707" fill="#84BE84" rx="3" ry="3" style="stroke: #038048; stroke-width: 1.0;"/><text fill="#000000" font-family="sans-serif" font-size="11" lengthAdjust="spacingAndGlyphs" textLength="147" x="924.5" y="250.0151">setSessionId(String): void</text><ellipse cx="915.5" cy="260.5117" fill="#84BE84" rx="3" ry="3" style="stroke: #038048; stroke-width: 1.0;"/><text fill="#000000" font-family="sans-serif" font-size="11" lengthAdjust="spacingAndGlyphs" textLength="151" x="924.5" y="262.8198">getUserpassword(): String</text><ellipse cx="915.5" cy="273.3164" fill="#84BE84" rx="3" ry="3" style="stroke: #038048; stroke-width: 1.0;"/><text fill="#000000" font-family="sans-serif" font-size="11" lengthAdjust="spacingAndGlyphs" textLength="174" x="924.5" y="275.6245">setUserpassword(String): void</text></a><!--class com.hack23.cia.service.api.action.user.DocumentWordCountRequest--><a href="DocumentWordCountRequest.html" target="_top" xlink:actuate="onRequest" xlink:show="new" xlink:title="DocumentWordCountRequest.html" xlink:type="simple"><rect fill="#FEFECE" filter="url(#f1fehvl6ezouk8)" height="124.8281" id="com.hack23.cia.service.api.action.user.DocumentWordCountRequest" style="stroke: #A80036; stroke-width: 1.5;" width="217" x="652.5" y="170"/><ellipse cx="667.5" cy="186" fill="#ADD1B2" rx="11" ry="11" style="stroke: #A80036; stroke-width: 1.0;"/><path d="M670.4688,191.6406 Q669.8906,191.9375 669.25,192.0781 Q668.6094,192.2344 667.9063,192.2344 Q665.4063,192.2344 664.0781,190.5938 Q662.7656,188.9375 662.7656,185.8125 Q662.7656,182.6875 664.0781,181.0313 Q665.4063,179.375 667.9063,179.375 Q668.6094,179.375 669.25,179.5313 Q669.9063,179.6875 670.4688,179.9844 L670.4688,182.7031 Q669.8438,182.125 669.25,181.8594 Q668.6563,181.5781 668.0313,181.5781 Q666.6875,181.5781 666,182.6563 Q665.3125,183.7188 665.3125,185.8125 Q665.3125,187.9063 666,188.9844 Q666.6875,190.0469 668.0313,190.0469 Q668.6563,190.0469 669.25,189.7813 Q669.8438,189.5 670.4688,188.9219 L670.4688,191.6406 Z "/><text fill="#000000" font-family="sans-serif" font-size="12" lengthAdjust="spacingAndGlyphs" textLength="185" x="681.5" y="190.1543">DocumentWordCountRequest</text><line style="stroke: #A80036; stroke-width: 1.5;" x1="653.5" x2="868.5" y1="202" y2="202"/><line style="stroke: #A80036; stroke-width: 1.5;" x1="653.5" x2="868.5" y1="210" y2="210"/><ellipse cx="663.5" cy="221.9023" fill="#84BE84" rx="3" ry="3" style="stroke: #038048; stroke-width: 1.0;"/><text fill="#000000" font-family="sans-serif" font-size="11" lengthAdjust="spacingAndGlyphs" textLength="124" x="672.5" y="224.2104">getSessionId(): String</text><ellipse cx="663.5" cy="234.707" fill="#84BE84" rx="3" ry="3" style="stroke: #038048; stroke-width: 1.0;"/><text fill="#000000" font-family="sans-serif" font-size="11" lengthAdjust="spacingAndGlyphs" textLength="147" x="672.5" y="237.0151">setSessionId(String): void</text><ellipse cx="663.5" cy="247.5117" fill="#84BE84" rx="3" ry="3" style="stroke: #038048; stroke-width: 1.0;"/><text fill="#000000" font-family="sans-serif" font-size="11" lengthAdjust="spacingAndGlyphs" textLength="112" x="672.5" y="249.8198">getMaxResults(): int</text><ellipse cx="663.5" cy="260.3164" fill="#84BE84" rx="3" ry="3" style="stroke: #038048; stroke-width: 1.0;"/><text fill="#000000" font-family="sans-serif" font-size="11" lengthAdjust="spacingAndGlyphs" textLength="135" x="672.5" y="262.6245">setMaxResults(int): void</text><ellipse cx="663.5" cy="273.1211" fill="#84BE84" rx="3" ry="3" style="stroke: #038048; stroke-width: 1.0;"/><text fill="#000000" font-family="sans-serif" font-size="11" lengthAdjust="spacingAndGlyphs" textLength="135" x="672.5" y="275.4292">getDocumentId(): String</text><ellipse cx="663.5" cy="285.9258" fill="#84BE84" rx="3" ry="3" style="stroke: #038048; stroke-width: 1.0;"/><text fill="#000000" font-family="sans-serif" font-size="11" lengthAdjust="spacingAndGlyphs" textLength="158" x="672.5" y="288.2339">setDocumentId(String): void</text></a><!--class com.hack23.cia.service.api.action.user.ChangePasswordResponse--><a href="ChangePasswordResponse.html" target="_top" xlink:actuate="onRequest" xlink:show="new" xlink:title="ChangePasswordResponse.html" xlink:type="simple"><rect fill="#FEFECE" filter="url(#f1fehvl6ezouk8)" height="60.8047" id="com.hack23.cia.service.api.action.user.ChangePasswordResponse" style="stroke: #A80036; stroke-width: 1.5;" width="266" x="1889" y="202"/><ellipse cx="1932.8" cy="218" fill="#ADD1B2" rx="11" ry="11" style="stroke: #A80036; stroke-width: 1.0;"/><path d="M1935.7688,223.6406 Q1935.1906,223.9375 1934.55,224.0781 Q1933.9094,224.2344 1933.2063,224.2344 Q1930.7063,224.2344 1929.3781,222.5938 Q1928.0656,220.9375 1928.0656,217.8125 Q1928.0656,214.6875 1929.3781,213.0313 Q1930.7063,211.375 1933.2063,211.375 Q1933.9094,211.375 1934.55,211.5313 Q1935.2063,211.6875 1935.7688,211.9844 L1935.7688,214.7031 Q1935.1438,214.125 1934.55,213.8594 Q1933.9563,213.5781 1933.3313,213.5781 Q1931.9875,213.5781 1931.3,214.6563 Q1930.6125,215.7188 1930.6125,217.8125 Q1930.6125,219.9063 1931.3,220.9844 Q1931.9875,222.0469 1933.3313,222.0469 Q1933.9563,222.0469 1934.55,221.7813 Q1935.1438,221.5 1935.7688,220.9219 L1935.7688,223.6406 Z "/><text fill="#000000" font-family="sans-serif" font-size="12" lengthAdjust="spacingAndGlyphs" textLength="170" x="1953.2" y="222.1543">ChangePasswordResponse</text><line style="stroke: #A80036; stroke-width: 1.5;" x1="1890" x2="2154" y1="234" y2="234"/><line style="stroke: #A80036; stroke-width: 1.5;" x1="1890" x2="2154" y1="242" y2="242"/><ellipse cx="1900" cy="253.9023" fill="#84BE84" rx="3" ry="3" style="stroke: #038048; stroke-width: 1.0;"/><text fill="#000000" font-family="sans-serif" font-size="11" lengthAdjust="spacingAndGlyphs" textLength="240" x="1909" y="256.2104">ChangePasswordResponse(ServiceResult)</text></a><!--class com.hack23.cia.service.api.action.user.SetGoogleAuthenticatorCredentialResponse--><a href="SetGoogleAuthenticatorCredentialResponse.html" target="_top" xlink:actuate="onRequest" xlink:show="new" xlink:title="SetGoogleAuthenticatorCredentialResponse.html" xlink:type="simple"><rect fill="#FEFECE" filter="url(#f1fehvl6ezouk8)" height="163.2422" id="com.hack23.cia.service.api.action.user.SetGoogleAuthenticatorCredentialResponse" style="stroke: #A80036; stroke-width: 1.5;" width="359" x="1494.5" y="151"/><ellipse cx="1532" cy="167" fill="#ADD1B2" rx="11" ry="11" style="stroke: #A80036; stroke-width: 1.0;"/><path d="M1534.9688,172.6406 Q1534.3906,172.9375 1533.75,173.0781 Q1533.1094,173.2344 1532.4063,173.2344 Q1529.9063,173.2344 1528.5781,171.5938 Q1527.2656,169.9375 1527.2656,166.8125 Q1527.2656,163.6875 1528.5781,162.0313 Q1529.9063,160.375 1532.4063,160.375 Q1533.1094,160.375 1533.75,160.5313 Q1534.4063,160.6875 1534.9688,160.9844 L1534.9688,163.7031 Q1534.3438,163.125 1533.75,162.8594 Q1533.1563,162.5781 1532.5313,162.5781 Q1531.1875,162.5781 1530.5,163.6563 Q1529.8125,164.7188 1529.8125,166.8125 Q1529.8125,168.9063 1530.5,169.9844 Q1531.1875,171.0469 1532.5313,171.0469 Q1533.1563,171.0469 1533.75,170.7813 Q1534.3438,170.5 1534.9688,169.9219 L1534.9688,172.6406 Z "/><text fill="#000000" font-family="sans-serif" font-size="12" lengthAdjust="spacingAndGlyphs" textLength="277" x="1551" y="171.1543">SetGoogleAuthenticatorCredentialResponse</text><line style="stroke: #A80036; stroke-width: 1.5;" x1="1495.5" x2="1852.5" y1="183" y2="183"/><line style="stroke: #A80036; stroke-width: 1.5;" x1="1495.5" x2="1852.5" y1="191" y2="191"/><ellipse cx="1505.5" cy="202.9023" fill="#84BE84" rx="3" ry="3" style="stroke: #038048; stroke-width: 1.0;"/><text fill="#000000" font-family="sans-serif" font-size="11" lengthAdjust="spacingAndGlyphs" textLength="333" x="1514.5" y="205.2104">SetGoogleAuthenticatorCredentialResponse(ServiceResult)</text><ellipse cx="1505.5" cy="215.707" fill="#84BE84" rx="3" ry="3" style="stroke: #038048; stroke-width: 1.0;"/><text fill="#000000" font-family="sans-serif" font-size="11" lengthAdjust="spacingAndGlyphs" textLength="153" x="1514.5" y="218.0151">getGoogleAuthKey(): String</text><ellipse cx="1505.5" cy="228.5117" fill="#84BE84" rx="3" ry="3" style="stroke: #038048; stroke-width: 1.0;"/><text fill="#000000" font-family="sans-serif" font-size="11" lengthAdjust="spacingAndGlyphs" textLength="176" x="1514.5" y="230.8198">setGoogleAuthKey(String): void</text><ellipse cx="1505.5" cy="241.3164" fill="#84BE84" rx="3" ry="3" style="stroke: #038048; stroke-width: 1.0;"/><text fill="#000000" font-family="sans-serif" font-size="11" lengthAdjust="spacingAndGlyphs" textLength="231" x="1514.5" y="243.6245">getGoogleAuthVerificationCode(): Integer</text><ellipse cx="1505.5" cy="254.1211" fill="#84BE84" rx="3" ry="3" style="stroke: #038048; stroke-width: 1.0;"/><text fill="#000000" font-family="sans-serif" font-size="11" lengthAdjust="spacingAndGlyphs" textLength="254" x="1514.5" y="256.4292">setGoogleAuthVerificationCode(Integer): void</text><ellipse cx="1505.5" cy="266.9258" fill="#84BE84" rx="3" ry="3" style="stroke: #038048; stroke-width: 1.0;"/><text fill="#000000" font-family="sans-serif" font-size="11" lengthAdjust="spacingAndGlyphs" textLength="256" x="1514.5" y="269.2339">getGoogleAuthScratchCodes(): List&lt;Integer&gt;</text><ellipse cx="1505.5" cy="279.7305" fill="#84BE84" rx="3" ry="3" style="stroke: #038048; stroke-width: 1.0;"/><text fill="#000000" font-family="sans-serif" font-size="11" lengthAdjust="spacingAndGlyphs" textLength="279" x="1514.5" y="282.0386">setGoogleAuthScratchCodes(List&lt;Integer&gt;): void</text><ellipse cx="1505.5" cy="292.5352" fill="#84BE84" rx="3" ry="3" style="stroke: #038048; stroke-width: 1.0;"/><text fill="#000000" font-family="sans-serif" font-size="11" lengthAdjust="spacingAndGlyphs" textLength="159" x="1514.5" y="294.8433">getOtpAuthTotpURL(): String</text><ellipse cx="1505.5" cy="305.3398" fill="#84BE84" rx="3" ry="3" style="stroke: #038048; stroke-width: 1.0;"/><text fill="#000000" font-family="sans-serif" font-size="11" lengthAdjust="spacingAndGlyphs" textLength="182" x="1514.5" y="307.6479">setOtpAuthTotpURL(String): void</text></a><!--class com.hack23.cia.service.api.action.common.AbstractResponse--><a href="../common/AbstractResponse.html" target="_top" xlink:actuate="onRequest" xlink:show="new" xlink:title="../common/AbstractResponse.html" xlink:type="simple"><rect fill="#FEFECE" filter="url(#f1fehvl6ezouk8)" height="48" id="com.hack23.cia.service.api.action.common.AbstractResponse" style="stroke: #A80036; stroke-width: 1.5;" width="144" x="1538" y="43"/><ellipse cx="1553" cy="59" fill="#A9DCDF" rx="11" ry="11" style="stroke: #A80036; stroke-width: 1.0;"/><path d="M1553.1094,54.3438 L1551.9531,59.4219 L1554.2813,59.4219 L1553.1094,54.3438 Z M1551.625,52.1094 L1554.6094,52.1094 L1557.9688,64.5 L1555.5156,64.5 L1554.75,61.4375 L1551.4688,61.4375 L1550.7188,64.5 L1548.2813,64.5 L1551.625,52.1094 Z "/><text fill="#000000" font-family="sans-serif" font-size="12" font-style="italic" lengthAdjust="spacingAndGlyphs" textLength="112" x="1567" y="63.1543">AbstractResponse</text><line style="stroke: #A80036; stroke-width: 1.5;" x1="1539" x2="1681" y1="75" y2="75"/><line style="stroke: #A80036; stroke-width: 1.5;" x1="1539" x2="1681" y1="83" y2="83"/></a><!--class com.hack23.cia.service.api.action.common.AbstractRequest--><a href="../common/AbstractRequest.html" target="_top" xlink:actuate="onRequest" xlink:show="new" xlink:title="../common/AbstractRequest.html" xlink:type="simple"><rect fill="#FEFECE" filter="url(#f1fehvl6ezouk8)" height="48" id="com.hack23.cia.service.api.action.common.AbstractRequest" style="stroke: #A80036; stroke-width: 1.5;" width="135" x="1344.5" y="43"/><ellipse cx="1359.5" cy="59" fill="#A9DCDF" rx="11" ry="11" style="stroke: #A80036; stroke-width: 1.0;"/><path d="M1359.6094,54.3438 L1358.4531,59.4219 L1360.7813,59.4219 L1359.6094,54.3438 Z M1358.125,52.1094 L1361.1094,52.1094 L1364.4688,64.5 L1362.0156,64.5 L1361.25,61.4375 L1357.9688,61.4375 L1357.2188,64.5 L1354.7813,64.5 L1358.125,52.1094 Z "/><text fill="#000000" font-family="sans-serif" font-size="12" font-style="italic" lengthAdjust="spacingAndGlyphs" textLength="103" x="1373.5" y="63.1543">AbstractRequest</text><line style="stroke: #A80036; stroke-width: 1.5;" x1="1345.5" x2="1478.5" y1="75" y2="75"/><line style="stroke: #A80036; stroke-width: 1.5;" x1="1345.5" x2="1478.5" y1="83" y2="83"/></a><!--link com.hack23.cia.service.api.action.common.AbstractResponse to com.hack23.cia.service.api.action.user.DocumentWordCountResponse--><path d="M1702.5048,67.9026 C1993.3817,71.1417 2877.4569,84.186 3000,124 C3042.0304,137.6556 3083.407,165.4215 3113.9554,189.4455 " fill="none" id="com.hack23.cia.service.api.action.common.AbstractResponse-com.hack23.cia.service.api.action.user.DocumentWordCountResponse" style="stroke: #A80036; stroke-width: 1.0;"/><polygon fill="none" points="1702.1265,74.899,1682.2039,67.6818,1702.2788,60.8998,1702.1265,74.899" style="stroke: #A80036; stroke-width: 1.0;"/><!--link com.hack23.cia.service.api.action.common.AbstractResponse to com.hack23.cia.service.api.action.user.SearchDocumentResponse--><path d="M1702.4612,70.1325 C1930.2408,78.1691 2506.0371,100.5416 2590,124 C2622.3834,133.0476 2655.4513,147.7361 2685.3119,163.4233 " fill="none" id="com.hack23.cia.service.api.action.common.AbstractResponse-com.hack23.cia.service.api.action.user.SearchDocumentResponse" style="stroke: #A80036; stroke-width: 1.0;"/><polygon fill="none" points="1701.9142,77.1177,1682.1714,69.4221,1702.4041,63.1263,1701.9142,77.1177" style="stroke: #A80036; stroke-width: 1.0;"/><!--link com.hack23.cia.service.api.action.common.AbstractResponse to com.hack23.cia.service.api.action.user.DisableGoogleAuthenticatorCredentialResponse--><path d="M1702.1266,72.0879 C1838.5196,80.3392 2087.2837,98.3416 2173,124 C2232.1126,141.6948 2294.1064,176.4454 2334.8686,201.8675 " fill="none" id="com.hack23.cia.service.api.action.common.AbstractResponse-com.hack23.cia.service.api.action.user.DisableGoogleAuthenticatorCredentialResponse" style="stroke: #A80036; stroke-width: 1.0;"/><polygon fill="none" points="1701.5966,79.0689,1682.0471,70.8946,1702.4272,65.0935,1701.5966,79.0689" style="stroke: #A80036; stroke-width: 1.0;"/><!--link com.hack23.cia.service.api.action.common.AbstractRequest to com.hack23.cia.service.api.action.user.ChangePasswordRequest--><path d="M1324.3454,70.5085 C1134.6058,78.5237 697.8141,99.3971 635,124 C614.61,131.9863 594.8613,144.1512 577.026,157.4875 " fill="none" id="com.hack23.cia.service.api.action.common.AbstractRequest-com.hack23.cia.service.api.action.user.ChangePasswordRequest" style="stroke: #A80036; stroke-width: 1.0;"/><polygon fill="none" points="1324.066,63.5142,1344.3409,69.6729,1324.6507,77.502,1324.066,63.5142" style="stroke: #A80036; stroke-width: 1.0;"/><!--link com.hack23.cia.service.api.action.common.AbstractRequest to com.hack23.cia.service.api.action.user.DisableGoogleAuthenticatorCredentialRequest--><path d="M1323.9211,69.3481 C1088.1598,75.9776 454.4464,96.1804 364,124 C322.8466,136.658 281.3881,160.6992 248.6494,182.9403 " fill="none" id="com.hack23.cia.service.api.action.common.AbstractRequest-com.hack23.cia.service.api.action.user.DisableGoogleAuthenticatorCredentialRequest" style="stroke: #A80036; stroke-width: 1.0;"/><polygon fill="none" points="1323.9674,62.3442,1344.1544,68.7851,1324.3568,76.3388,1323.9674,62.3442" style="stroke: #A80036; stroke-width: 1.0;"/><!--link com.hack23.cia.service.api.action.common.AbstractRequest to com.hack23.cia.service.api.action.user.SearchDocumentRequest--><path d="M1395.6477,109.9572 C1388.702,128.2034 1380.4668,149.8373 1372.8632,169.8117 " fill="none" id="com.hack23.cia.service.api.action.common.AbstractRequest-com.hack23.cia.service.api.action.user.SearchDocumentRequest" style="stroke: #A80036; stroke-width: 1.0;"/><polygon fill="none" points="1389.1819,107.2663,1402.8393,91.0651,1402.266,112.247,1389.1819,107.2663" style="stroke: #A80036; stroke-width: 1.0;"/><!--link com.hack23.cia.service.api.action.common.AbstractRequest to com.hack23.cia.service.api.action.user.SetGoogleAuthenticatorCredentialRequest--><path d="M1324.9906,87.5455 C1291.9764,96.7671 1254.5201,108.9891 1222,124 C1187.1657,140.0791 1151.1025,162.4925 1121.3614,182.7761 " fill="none" id="com.hack23.cia.service.api.action.common.AbstractRequest-com.hack23.cia.service.api.action.user.SetGoogleAuthenticatorCredentialRequest" style="stroke: #A80036; stroke-width: 1.0;"/><polygon fill="none" points="1323.2327,80.7696,1344.3649,82.3291,1326.8725,94.2881,1323.2327,80.7696" style="stroke: #A80036; stroke-width: 1.0;"/><!--link com.hack23.cia.service.api.action.common.AbstractRequest to com.hack23.cia.service.api.action.user.DocumentWordCountRequest--><path d="M1324.0702,70.2468 C1195.543,76.0521 963.3581,90.8552 887,124 C862.2407,134.7473 838.7594,152.1175 818.9253,169.8392 " fill="none" id="com.hack23.cia.service.api.action.common.AbstractRequest-com.hack23.cia.service.api.action.user.DocumentWordCountRequest" style="stroke: #A80036; stroke-width: 1.0;"/><polygon fill="none" points="1323.8628,63.2493,1344.1476,69.3751,1324.4701,77.2362,1323.8628,63.2493" style="stroke: #A80036; stroke-width: 1.0;"/><!--link com.hack23.cia.service.api.action.common.AbstractResponse to com.hack23.cia.service.api.action.user.ChangePasswordResponse--><path d="M1702.3053,77.7801 C1753.5935,86.0507 1817.6325,100.229 1871,124 C1915.0847,143.6362 1959.1766,177.3405 1988.2327,201.9852 " fill="none" id="com.hack23.cia.service.api.action.common.AbstractResponse-com.hack23.cia.service.api.action.user.ChangePasswordResponse" style="stroke: #A80036; stroke-width: 1.0;"/><polygon fill="none" points="1700.9765,84.6587,1682.2521,74.7393,1703.0755,70.8169,1700.9765,84.6587" style="stroke: #A80036; stroke-width: 1.0;"/><!--link com.hack23.cia.service.api.action.common.AbstractResponse to com.hack23.cia.service.api.action.user.SetGoogleAuthenticatorCredentialResponse--><path d="M1626.5723,109.8549 C1631.4424,122.4487 1636.9392,136.6632 1642.4197,150.8352 " fill="none" id="com.hack23.cia.service.api.action.common.AbstractResponse-com.hack23.cia.service.api.action.user.SetGoogleAuthenticatorCredentialResponse" style="stroke: #A80036; stroke-width: 1.0;"/><polygon fill="none" points="1619.9909,112.2437,1619.3061,91.0651,1633.0486,107.1942,1619.9909,112.2437" style="stroke: #A80036; stroke-width: 1.0;"/><text fill="#888888" font-family="sans-serif" font-size="10" lengthAdjust="spacingAndGlyphs" textLength="186" x="1578" y="349.2822">UMLDoclet 2.0.5, PlantUML 1.2019.08</text><!--
@startuml
    namespace com.hack23.cia.service.api.action.user {

        class DocumentWordCountResponse [[DocumentWordCountResponse.html]] {
            +DocumentWordCountResponse(ServiceResult)
            +getWordCountMap(): Map<String, Integer>
            +setWordCountMap(Map<String, Integer>): void
        }

        class SearchDocumentResponse [[SearchDocumentResponse.html]] {
            +SearchDocumentResponse(ServiceResult)
            +getResultElement(): List<DocumentElement>
            +setResultElement(List<DocumentElement>): void
            +getStatusMap(): Map<String, DocumentStatusContainer>
            +setStatusMap(Map<String, DocumentStatusContainer>): void
            +getDataMap(): Map<String, DocumentContentData>
            +setDataMap(Map<String, DocumentContentData>): void
        }

        class DisableGoogleAuthenticatorCredentialResponse [[DisableGoogleAuthenticatorCredentialResponse.html]] {
            +DisableGoogleAuthenticatorCredentialResponse(ServiceResult)
        }

        class ChangePasswordRequest [[ChangePasswordRequest.html]] {
            +getSessionId(): String
            +setSessionId(String): void
            +getCurrentPassword(): String
            +setCurrentPassword(String): void
            +getNewPassword(): String
            +setNewPassword(String): void
            +getRepeatNewPassword(): String
            +setRepeatNewPassword(String): void
        }

        class DisableGoogleAuthenticatorCredentialRequest [[DisableGoogleAuthenticatorCredentialRequest.html]] {
            +getSessionId(): String
            +setSessionId(String): void
            +getUserpassword(): String
            +setUserpassword(String): void
        }

        class SearchDocumentRequest [[SearchDocumentRequest.html]] {
            +getSessionId(): String
            +setSessionId(String): void
            +getSearchExpression(): String
            +setSearchExpression(String): void
            +getMaxResults(): Integer
            +setMaxResults(Integer): void
        }

        class SetGoogleAuthenticatorCredentialRequest [[SetGoogleAuthenticatorCredentialRequest.html]] {
            +getSessionId(): String
            +setSessionId(String): void
            +getUserpassword(): String
            +setUserpassword(String): void
        }

        class DocumentWordCountRequest [[DocumentWordCountRequest.html]] {
            +getSessionId(): String
            +setSessionId(String): void
            +getMaxResults(): int
            +setMaxResults(int): void
            +getDocumentId(): String
            +setDocumentId(String): void
        }

        class ChangePasswordResponse [[ChangePasswordResponse.html]] {
            +ChangePasswordResponse(ServiceResult)
        }

        class SetGoogleAuthenticatorCredentialResponse [[SetGoogleAuthenticatorCredentialResponse.html]] {
            +SetGoogleAuthenticatorCredentialResponse(ServiceResult)
            +getGoogleAuthKey(): String
            +setGoogleAuthKey(String): void
            +getGoogleAuthVerificationCode(): Integer
            +setGoogleAuthVerificationCode(Integer): void
            +getGoogleAuthScratchCodes(): List<Integer>
            +setGoogleAuthScratchCodes(List<Integer>): void
            +getOtpAuthTotpURL(): String
            +setOtpAuthTotpURL(String): void
        }

        com.hack23.cia.service.api.action.common.AbstractResponse <|- - DocumentWordCountResponse
        com.hack23.cia.service.api.action.common.AbstractResponse <|- - SearchDocumentResponse
        com.hack23.cia.service.api.action.common.AbstractResponse <|- - DisableGoogleAuthenticatorCredentialResponse
        com.hack23.cia.service.api.action.common.AbstractRequest <|- - ChangePasswordRequest
        com.hack23.cia.service.api.action.common.AbstractRequest <|- - DisableGoogleAuthenticatorCredentialRequest
        com.hack23.cia.service.api.action.common.AbstractRequest <|- - SearchDocumentRequest
        com.hack23.cia.service.api.action.common.AbstractRequest <|- - SetGoogleAuthenticatorCredentialRequest
        com.hack23.cia.service.api.action.common.AbstractRequest <|- - DocumentWordCountRequest
        com.hack23.cia.service.api.action.common.AbstractResponse <|- - ChangePasswordResponse
        com.hack23.cia.service.api.action.common.AbstractResponse <|- - SetGoogleAuthenticatorCredentialResponse
    }

    namespace com.hack23.cia.service.api.action.common {
        abstract class AbstractResponse [[../common/AbstractResponse.html]] {
        }
        abstract class AbstractRequest [[../common/AbstractRequest.html]] {
        }
    }

    center footer UMLDoclet 2.0.5, PlantUML 1.2019.08
@enduml

PlantUML version 1.2019.08(Sat Jul 13 21:25:14 CEST 2019)
(APACHE source distribution)
Java Runtime: OpenJDK Runtime Environment
JVM: OpenJDK 64-Bit Server VM
Java Version: 11.0.4+11-post-Ubuntu-1ubuntu219.04
Operating System: Linux
OS Version: 5.0.0-27-generic
Default Encoding: UTF-8
Language: en
Country: US
--></g></svg>