<svg xmlns="http://www.w3.org/2000/svg" xmlns:xlink="http://www.w3.org/1999/xlink" contentStyleType="text/css" height="393px" preserveAspectRatio="none" style="width:3510px;height:393px;background:#FFFFFF;" version="1.1" viewBox="0 0 3510 393" width="3510px" zoomAndPan="magnify"><defs/><g><!--cluster com.hack23.cia.service.api.action.user--><g id="cluster_com.hack23.cia.service.api.action.user"><path d="M16.5,98 L286.047,98 A3.75,3.75 0 0 1 288.547,100.5 L295.547,123.0679 L3500.5,123.0679 A2.5,2.5 0 0 1 3503,125.5679 L3503,353.5 A2.5,2.5 0 0 1 3500.5,356 L16.5,356 A2.5,2.5 0 0 1 14,353.5 L14,100.5 A2.5,2.5 0 0 1 16.5,98 " fill="none" style="stroke:#000000;stroke-width:1.5;"/><line style="stroke:#000000;stroke-width:1.5;" x1="14" x2="295.547" y1="123.0679" y2="123.0679"/><text fill="#000000" font-family="sans-serif" font-size="14" font-weight="bold" lengthAdjust="spacing" textLength="268.547" x="18" y="114.9659">com.hack23.cia.service.api.action.user</text></g><!--cluster com.hack23.cia.service.api.action.common--><g id="cluster_com.hack23.cia.service.api.action.common"><path d="M1382.5,4 L1682.4828,4 A3.75,3.75 0 0 1 1684.9828,6.5 L1691.9828,29.0679 L1691.5,29.0679 A2.5,2.5 0 0 1 1694,31.5679 L1694,87.5 A2.5,2.5 0 0 1 1691.5,90 L1382.5,90 A2.5,2.5 0 0 1 1380,87.5 L1380,6.5 A2.5,2.5 0 0 1 1382.5,4 " fill="none" style="stroke:#000000;stroke-width:1.5;"/><line style="stroke:#000000;stroke-width:1.5;" x1="1380" x2="1691.9828" y1="29.0679" y2="29.0679"/><text fill="#000000" font-family="sans-serif" font-size="14" font-weight="bold" lengthAdjust="spacing" textLength="298.9828" x="1384" y="20.9659">com.hack23.cia.service.api.action.common</text></g><!--class ChangePasswordResponse--><a href="ChangePasswordResponse.html" target="_top" title="ChangePasswordResponse.html" xlink:actuate="onRequest" xlink:href="ChangePasswordResponse.html" xlink:show="new" xlink:title="ChangePasswordResponse.html" xlink:type="simple"><g id="elem_ChangePasswordResponse"><rect codeLine="12" fill="#F1F1F1" height="67.0679" id="ChangePasswordResponse" rx="2.5" ry="2.5" style="stroke:#181818;stroke-width:0.5;" width="299.489" x="3195.5" y="204.5"/><ellipse cx="3252.1158" cy="220.5" fill="#ADD1B2" rx="11" ry="11" style="stroke:#181818;stroke-width:1.0;"/><path d="M3255.0846,226.1406 Q3254.5064,226.4375 3253.8658,226.5781 Q3253.2252,226.7344 3252.5221,226.7344 Q3250.0221,226.7344 3248.6939,225.0938 Q3247.3814,223.4375 3247.3814,220.3125 Q3247.3814,217.1875 3248.6939,215.5313 Q3250.0221,213.875 3252.5221,213.875 Q3253.2252,213.875 3253.8658,214.0313 Q3254.5221,214.1875 3255.0846,214.4844 L3255.0846,217.2031 Q3254.4596,216.625 3253.8658,216.3594 Q3253.2721,216.0781 3252.6471,216.0781 Q3251.3033,216.0781 3250.6158,217.1563 Q3249.9283,218.2188 3249.9283,220.3125 Q3249.9283,222.4063 3250.6158,223.4844 Q3251.3033,224.5469 3252.6471,224.5469 Q3253.2721,224.5469 3253.8658,224.2813 Q3254.4596,224 3255.0846,223.4219 L3255.0846,226.1406 Z " fill="#000000"/><text fill="#000000" font-family="sans-serif" font-size="14" lengthAdjust="spacing" textLength="177.7573" x="3272.6158" y="225.932">ChangePasswordResponse</text><line style="stroke:#181818;stroke-width:0.5;" x1="3196.5" x2="3493.989" y1="236.5" y2="236.5"/><line style="stroke:#181818;stroke-width:0.5;" x1="3196.5" x2="3493.989" y1="244.5" y2="244.5"/><ellipse cx="3206.5" cy="259.534" fill="#84BE84" rx="3" ry="3" style="stroke:#038048;stroke-width:1.0;"/><text fill="#000000" font-family="sans-serif" font-size="14" lengthAdjust="spacing" textLength="273.489" x="3215.5" y="263.4659">ChangePasswordResponse(ServiceResult)</text></g></a><!--class SearchDocumentResponse--><a href="SearchDocumentResponse.html" target="_top" title="SearchDocumentResponse.html" xlink:actuate="onRequest" xlink:href="SearchDocumentResponse.html" xlink:show="new" xlink:title="SearchDocumentResponse.html" xlink:type="simple"><g id="elem_SearchDocumentResponse"><rect codeLine="16" fill="#F1F1F1" height="181.4754" id="SearchDocumentResponse" rx="2.5" ry="2.5" style="stroke:#181818;stroke-width:0.5;" width="425.9646" x="2751" y="147.5"/><ellipse cx="2871.2386" cy="163.5" fill="#ADD1B2" rx="11" ry="11" style="stroke:#181818;stroke-width:1.0;"/><path d="M2874.2074,169.1406 Q2873.6293,169.4375 2872.9886,169.5781 Q2872.348,169.7344 2871.6449,169.7344 Q2869.1449,169.7344 2867.8168,168.0938 Q2866.5043,166.4375 2866.5043,163.3125 Q2866.5043,160.1875 2867.8168,158.5313 Q2869.1449,156.875 2871.6449,156.875 Q2872.348,156.875 2872.9886,157.0313 Q2873.6449,157.1875 2874.2074,157.4844 L2874.2074,160.2031 Q2873.5824,159.625 2872.9886,159.3594 Q2872.3949,159.0781 2871.7699,159.0781 Q2870.4261,159.0781 2869.7386,160.1563 Q2869.0511,161.2188 2869.0511,163.3125 Q2869.0511,165.4063 2869.7386,166.4844 Q2870.4261,167.5469 2871.7699,167.5469 Q2872.3949,167.5469 2872.9886,167.2813 Q2873.5824,167 2874.2074,166.4219 L2874.2074,169.1406 Z " fill="#000000"/><text fill="#000000" font-family="sans-serif" font-size="14" lengthAdjust="spacing" textLength="176.9873" x="2891.7386" y="168.932">SearchDocumentResponse</text><line style="stroke:#181818;stroke-width:0.5;" x1="2752" x2="3175.9646" y1="179.5" y2="179.5"/><line style="stroke:#181818;stroke-width:0.5;" x1="2752" x2="3175.9646" y1="187.5" y2="187.5"/><ellipse cx="2762" cy="202.534" fill="#84BE84" rx="3" ry="3" style="stroke:#038048;stroke-width:1.0;"/><text fill="#000000" font-family="sans-serif" font-size="14" lengthAdjust="spacing" textLength="272.7189" x="2771" y="206.4659">SearchDocumentResponse(ServiceResult)</text><ellipse cx="2762" cy="221.6019" fill="#84BE84" rx="3" ry="3" style="stroke:#038048;stroke-width:1.0;"/><text fill="#000000" font-family="sans-serif" font-size="14" lengthAdjust="spacing" textLength="293.4248" x="2771" y="225.5339">getResultElement(): List&lt;DocumentElement&gt;</text><ellipse cx="2762" cy="240.6698" fill="#84BE84" rx="3" ry="3" style="stroke:#038048;stroke-width:1.0;"/><text fill="#000000" font-family="sans-serif" font-size="14" lengthAdjust="spacing" textLength="319.3248" x="2771" y="244.6018">setResultElement(List&lt;DocumentElement&gt;): void</text><ellipse cx="2762" cy="259.7377" fill="#84BE84" rx="3" ry="3" style="stroke:#038048;stroke-width:1.0;"/><text fill="#000000" font-family="sans-serif" font-size="14" lengthAdjust="spacing" textLength="374.0646" x="2771" y="263.6697">getStatusMap(): Map&lt;String, DocumentStatusContainer&gt;</text><ellipse cx="2762" cy="278.8056" fill="#84BE84" rx="3" ry="3" style="stroke:#038048;stroke-width:1.0;"/><text fill="#000000" font-family="sans-serif" font-size="14" lengthAdjust="spacing" textLength="399.9646" x="2771" y="282.7376">setStatusMap(Map&lt;String, DocumentStatusContainer&gt;): void</text><ellipse cx="2762" cy="297.8735" fill="#84BE84" rx="3" ry="3" style="stroke:#038048;stroke-width:1.0;"/><text fill="#000000" font-family="sans-serif" font-size="14" lengthAdjust="spacing" textLength="341.8227" x="2771" y="301.8055">getDataMap(): Map&lt;String, DocumentContentData&gt;</text><ellipse cx="2762" cy="316.9415" fill="#84BE84" rx="3" ry="3" style="stroke:#038048;stroke-width:1.0;"/><text fill="#000000" font-family="sans-serif" font-size="14" lengthAdjust="spacing" textLength="367.7226" x="2771" y="320.8734">setDataMap(Map&lt;String, DocumentContentData&gt;): void</text></g></a><!--class SetGoogleAuthenticatorCredentialResponse--><a href="SetGoogleAuthenticatorCredentialResponse.html" target="_top" title="SetGoogleAuthenticatorCredentialResponse.html" xlink:actuate="onRequest" xlink:href="SetGoogleAuthenticatorCredentialResponse.html" xlink:show="new" xlink:title="SetGoogleAuthenticatorCredentialResponse.html" xlink:type="simple"><g id="elem_SetGoogleAuthenticatorCredentialResponse"><rect codeLine="26" fill="#F1F1F1" height="219.6113" id="SetGoogleAuthenticatorCredentialResponse" rx="2.5" ry="2.5" style="stroke:#181818;stroke-width:0.5;" width="411.4745" x="2321.5" y="128"/><ellipse cx="2378.1158" cy="144" fill="#ADD1B2" rx="11" ry="11" style="stroke:#181818;stroke-width:1.0;"/><path d="M2381.0846,149.6406 Q2380.5065,149.9375 2379.8658,150.0781 Q2379.2252,150.2344 2378.5221,150.2344 Q2376.0221,150.2344 2374.694,148.5938 Q2373.3815,146.9375 2373.3815,143.8125 Q2373.3815,140.6875 2374.694,139.0313 Q2376.0221,137.375 2378.5221,137.375 Q2379.2252,137.375 2379.8658,137.5313 Q2380.5221,137.6875 2381.0846,137.9844 L2381.0846,140.7031 Q2380.4596,140.125 2379.8658,139.8594 Q2379.2721,139.5781 2378.6471,139.5781 Q2377.3033,139.5781 2376.6158,140.6563 Q2375.9283,141.7188 2375.9283,143.8125 Q2375.9283,145.9063 2376.6158,146.9844 Q2377.3033,148.0469 2378.6471,148.0469 Q2379.2721,148.0469 2379.8658,147.7813 Q2380.4596,147.5 2381.0846,146.9219 L2381.0846,149.6406 Z " fill="#000000"/><text fill="#000000" font-family="sans-serif" font-size="14" lengthAdjust="spacing" textLength="289.7429" x="2398.6158" y="149.432">SetGoogleAuthenticatorCredentialResponse</text><line style="stroke:#181818;stroke-width:0.5;" x1="2322.5" x2="2731.9745" y1="160" y2="160"/><line style="stroke:#181818;stroke-width:0.5;" x1="2322.5" x2="2731.9745" y1="168" y2="168"/><ellipse cx="2332.5" cy="183.034" fill="#84BE84" rx="3" ry="3" style="stroke:#038048;stroke-width:1.0;"/><text fill="#000000" font-family="sans-serif" font-size="14" lengthAdjust="spacing" textLength="385.4745" x="2341.5" y="186.9659">SetGoogleAuthenticatorCredentialResponse(ServiceResult)</text><ellipse cx="2332.5" cy="202.1019" fill="#84BE84" rx="3" ry="3" style="stroke:#038048;stroke-width:1.0;"/><text fill="#000000" font-family="sans-serif" font-size="14" lengthAdjust="spacing" textLength="179.0033" x="2341.5" y="206.0339">getGoogleAuthKey(): String</text><ellipse cx="2332.5" cy="221.1698" fill="#84BE84" rx="3" ry="3" style="stroke:#038048;stroke-width:1.0;"/><text fill="#000000" font-family="sans-serif" font-size="14" lengthAdjust="spacing" textLength="204.9032" x="2341.5" y="225.1018">setGoogleAuthKey(String): void</text><ellipse cx="2332.5" cy="240.2377" fill="#84BE84" rx="3" ry="3" style="stroke:#038048;stroke-width:1.0;"/><text fill="#000000" font-family="sans-serif" font-size="14" lengthAdjust="spacing" textLength="272.8449" x="2341.5" y="244.1697">getGoogleAuthVerificationCode(): Integer</text><ellipse cx="2332.5" cy="259.3056" fill="#84BE84" rx="3" ry="3" style="stroke:#038048;stroke-width:1.0;"/><text fill="#000000" font-family="sans-serif" font-size="14" lengthAdjust="spacing" textLength="298.7449" x="2341.5" y="263.2376">setGoogleAuthVerificationCode(Integer): void</text><ellipse cx="2332.5" cy="278.3735" fill="#84BE84" rx="3" ry="3" style="stroke:#038048;stroke-width:1.0;"/><text fill="#000000" font-family="sans-serif" font-size="14" lengthAdjust="spacing" textLength="292.2629" x="2341.5" y="282.3055">getGoogleAuthScratchCodes(): List&lt;Integer&gt;</text><ellipse cx="2332.5" cy="297.4415" fill="#84BE84" rx="3" ry="3" style="stroke:#038048;stroke-width:1.0;"/><text fill="#000000" font-family="sans-serif" font-size="14" lengthAdjust="spacing" textLength="318.1628" x="2341.5" y="301.3734">setGoogleAuthScratchCodes(List&lt;Integer&gt;): void</text><ellipse cx="2332.5" cy="316.5094" fill="#84BE84" rx="3" ry="3" style="stroke:#038048;stroke-width:1.0;"/><text fill="#000000" font-family="sans-serif" font-size="14" lengthAdjust="spacing" textLength="188.8453" x="2341.5" y="320.4414">getOtpAuthTotpURL(): String</text><ellipse cx="2332.5" cy="335.5773" fill="#84BE84" rx="3" ry="3" style="stroke:#038048;stroke-width:1.0;"/><text fill="#000000" font-family="sans-serif" font-size="14" lengthAdjust="spacing" textLength="214.7452" x="2341.5" y="339.5093">setOtpAuthTotpURL(String): void</text></g></a><!--class SetGoogleAuthenticatorCredentialRequest--><a href="SetGoogleAuthenticatorCredentialRequest.html" target="_top" title="SetGoogleAuthenticatorCredentialRequest.html" xlink:actuate="onRequest" xlink:href="SetGoogleAuthenticatorCredentialRequest.html" xlink:show="new" xlink:title="SetGoogleAuthenticatorCredentialRequest.html" xlink:type="simple"><g id="elem_SetGoogleAuthenticatorCredentialRequest"><rect codeLine="38" fill="#F1F1F1" height="124.2717" id="SetGoogleAuthenticatorCredentialRequest" rx="2.5" ry="2.5" style="stroke:#181818;stroke-width:0.5;" width="311.6209" x="264" y="176"/><ellipse cx="279" cy="192" fill="#ADD1B2" rx="11" ry="11" style="stroke:#181818;stroke-width:1.0;"/><path d="M281.9688,197.6406 Q281.3906,197.9375 280.75,198.0781 Q280.1094,198.2344 279.4063,198.2344 Q276.9063,198.2344 275.5781,196.5938 Q274.2656,194.9375 274.2656,191.8125 Q274.2656,188.6875 275.5781,187.0313 Q276.9063,185.375 279.4063,185.375 Q280.1094,185.375 280.75,185.5313 Q281.4063,185.6875 281.9688,185.9844 L281.9688,188.7031 Q281.3438,188.125 280.75,187.8594 Q280.1563,187.5781 279.5313,187.5781 Q278.1875,187.5781 277.5,188.6563 Q276.8125,189.7188 276.8125,191.8125 Q276.8125,193.9063 277.5,194.9844 Q278.1875,196.0469 279.5313,196.0469 Q280.1563,196.0469 280.75,195.7813 Q281.3438,195.5 281.9688,194.9219 L281.9688,197.6406 Z " fill="#000000"/><text fill="#000000" font-family="sans-serif" font-size="14" lengthAdjust="spacing" textLength="279.6209" x="293" y="197.432">SetGoogleAuthenticatorCredentialRequest</text><line style="stroke:#181818;stroke-width:0.5;" x1="265" x2="574.6209" y1="208" y2="208"/><line style="stroke:#181818;stroke-width:0.5;" x1="265" x2="574.6209" y1="216" y2="216"/><ellipse cx="275" cy="231.034" fill="#84BE84" rx="3" ry="3" style="stroke:#038048;stroke-width:1.0;"/><text fill="#000000" font-family="sans-serif" font-size="14" lengthAdjust="spacing" textLength="139.8315" x="284" y="234.9659">getSessionId(): String</text><ellipse cx="275" cy="250.1019" fill="#84BE84" rx="3" ry="3" style="stroke:#038048;stroke-width:1.0;"/><text fill="#000000" font-family="sans-serif" font-size="14" lengthAdjust="spacing" textLength="165.7314" x="284" y="254.0339">setSessionId(String): void</text><ellipse cx="275" cy="269.1698" fill="#84BE84" rx="3" ry="3" style="stroke:#038048;stroke-width:1.0;"/><text fill="#000000" font-family="sans-serif" font-size="14" lengthAdjust="spacing" textLength="171.1074" x="284" y="273.1018">getUserpassword(): String</text><ellipse cx="275" cy="288.2377" fill="#84BE84" rx="3" ry="3" style="stroke:#038048;stroke-width:1.0;"/><text fill="#000000" font-family="sans-serif" font-size="14" lengthAdjust="spacing" textLength="197.0073" x="284" y="292.1697">setUserpassword(String): void</text></g></a><!--class DeleteAccountResponse--><a href="DeleteAccountResponse.html" target="_top" title="DeleteAccountResponse.html" xlink:actuate="onRequest" xlink:href="DeleteAccountResponse.html" xlink:show="new" xlink:title="DeleteAccountResponse.html" xlink:type="simple"><g id="elem_DeleteAccountResponse"><rect codeLine="45" fill="#F1F1F1" height="219.6113" id="DeleteAccountResponse" rx="2.5" ry="2.5" style="stroke:#181818;stroke-width:0.5;" width="344.1628" x="1959" y="128"/><ellipse cx="2047.1157" cy="144" fill="#ADD1B2" rx="11" ry="11" style="stroke:#181818;stroke-width:1.0;"/><path d="M2050.0845,149.6406 Q2049.5063,149.9375 2048.8657,150.0781 Q2048.2251,150.2344 2047.522,150.2344 Q2045.022,150.2344 2043.6938,148.5938 Q2042.3813,146.9375 2042.3813,143.8125 Q2042.3813,140.6875 2043.6938,139.0313 Q2045.022,137.375 2047.522,137.375 Q2048.2251,137.375 2048.8657,137.5313 Q2049.522,137.6875 2050.0845,137.9844 L2050.0845,140.7031 Q2049.4595,140.125 2048.8657,139.8594 Q2048.272,139.5781 2047.647,139.5781 Q2046.3032,139.5781 2045.6157,140.6563 Q2044.9282,141.7188 2044.9282,143.8125 Q2044.9282,145.9063 2045.6157,146.9844 Q2046.3032,148.0469 2047.647,148.0469 Q2048.272,148.0469 2048.8657,147.7813 Q2049.4595,147.5 2050.0845,146.9219 L2050.0845,149.6406 Z " fill="#000000"/><text fill="#000000" font-family="sans-serif" font-size="14" lengthAdjust="spacing" textLength="159.4314" x="2067.6157" y="149.432">DeleteAccountResponse</text><line style="stroke:#181818;stroke-width:0.5;" x1="1960" x2="2302.1628" y1="160" y2="160"/><line style="stroke:#181818;stroke-width:0.5;" x1="1960" x2="2302.1628" y1="168" y2="168"/><ellipse cx="1970" cy="183.034" fill="#84BE84" rx="3" ry="3" style="stroke:#038048;stroke-width:1.0;"/><text fill="#000000" font-family="sans-serif" font-size="14" lengthAdjust="spacing" textLength="255.163" x="1979" y="186.9659">DeleteAccountResponse(ServiceResult)</text><ellipse cx="1970" cy="202.1019" fill="#84BE84" rx="3" ry="3" style="stroke:#038048;stroke-width:1.0;"/><text fill="#000000" font-family="sans-serif" font-size="14" lengthAdjust="spacing" textLength="179.0033" x="1979" y="206.0339">getGoogleAuthKey(): String</text><ellipse cx="1970" cy="221.1698" fill="#84BE84" rx="3" ry="3" style="stroke:#038048;stroke-width:1.0;"/><text fill="#000000" font-family="sans-serif" font-size="14" lengthAdjust="spacing" textLength="204.9032" x="1979" y="225.1018">setGoogleAuthKey(String): void</text><ellipse cx="1970" cy="240.2377" fill="#84BE84" rx="3" ry="3" style="stroke:#038048;stroke-width:1.0;"/><text fill="#000000" font-family="sans-serif" font-size="14" lengthAdjust="spacing" textLength="272.8449" x="1979" y="244.1697">getGoogleAuthVerificationCode(): Integer</text><ellipse cx="1970" cy="259.3056" fill="#84BE84" rx="3" ry="3" style="stroke:#038048;stroke-width:1.0;"/><text fill="#000000" font-family="sans-serif" font-size="14" lengthAdjust="spacing" textLength="298.7449" x="1979" y="263.2376">setGoogleAuthVerificationCode(Integer): void</text><ellipse cx="1970" cy="278.3735" fill="#84BE84" rx="3" ry="3" style="stroke:#038048;stroke-width:1.0;"/><text fill="#000000" font-family="sans-serif" font-size="14" lengthAdjust="spacing" textLength="292.2629" x="1979" y="282.3055">getGoogleAuthScratchCodes(): List&lt;Integer&gt;</text><ellipse cx="1970" cy="297.4415" fill="#84BE84" rx="3" ry="3" style="stroke:#038048;stroke-width:1.0;"/><text fill="#000000" font-family="sans-serif" font-size="14" lengthAdjust="spacing" textLength="318.1628" x="1979" y="301.3734">setGoogleAuthScratchCodes(List&lt;Integer&gt;): void</text><ellipse cx="1970" cy="316.5094" fill="#84BE84" rx="3" ry="3" style="stroke:#038048;stroke-width:1.0;"/><text fill="#000000" font-family="sans-serif" font-size="14" lengthAdjust="spacing" textLength="188.8453" x="1979" y="320.4414">getOtpAuthTotpURL(): String</text><ellipse cx="1970" cy="335.5773" fill="#84BE84" rx="3" ry="3" style="stroke:#038048;stroke-width:1.0;"/><text fill="#000000" font-family="sans-serif" font-size="14" lengthAdjust="spacing" textLength="214.7452" x="1979" y="339.5093">setOtpAuthTotpURL(String): void</text></g></a><!--class DisableGoogleAuthenticatorCredentialResponse--><a href="DisableGoogleAuthenticatorCredentialResponse.html" target="_top" title="DisableGoogleAuthenticatorCredentialResponse.html" xlink:actuate="onRequest" xlink:href="DisableGoogleAuthenticatorCredentialResponse.html" xlink:show="new" xlink:title="DisableGoogleAuthenticatorCredentialResponse.html" xlink:type="simple"><g id="elem_DisableGoogleAuthenticatorCredentialResponse"><rect codeLine="57" fill="#F1F1F1" height="67.0679" id="DisableGoogleAuthenticatorCredentialResponse" rx="2.5" ry="2.5" style="stroke:#181818;stroke-width:0.5;" width="439.3484" x="1501.5" y="204.5"/><ellipse cx="1558.1158" cy="220.5" fill="#ADD1B2" rx="11" ry="11" style="stroke:#181818;stroke-width:1.0;"/><path d="M1561.0846,226.1406 Q1560.5065,226.4375 1559.8658,226.5781 Q1559.2252,226.7344 1558.5221,226.7344 Q1556.0221,226.7344 1554.694,225.0938 Q1553.3815,223.4375 1553.3815,220.3125 Q1553.3815,217.1875 1554.694,215.5313 Q1556.0221,213.875 1558.5221,213.875 Q1559.2252,213.875 1559.8658,214.0313 Q1560.5221,214.1875 1561.0846,214.4844 L1561.0846,217.2031 Q1560.4596,216.625 1559.8658,216.3594 Q1559.2721,216.0781 1558.6471,216.0781 Q1557.3033,216.0781 1556.6158,217.1563 Q1555.9283,218.2188 1555.9283,220.3125 Q1555.9283,222.4063 1556.6158,223.4844 Q1557.3033,224.5469 1558.6471,224.5469 Q1559.2721,224.5469 1559.8658,224.2813 Q1560.4596,224 1561.0846,223.4219 L1561.0846,226.1406 Z " fill="#000000"/><text fill="#000000" font-family="sans-serif" font-size="14" lengthAdjust="spacing" textLength="317.6168" x="1578.6158" y="225.932">DisableGoogleAuthenticatorCredentialResponse</text><line style="stroke:#181818;stroke-width:0.5;" x1="1502.5" x2="1939.8484" y1="236.5" y2="236.5"/><line style="stroke:#181818;stroke-width:0.5;" x1="1502.5" x2="1939.8484" y1="244.5" y2="244.5"/><ellipse cx="1512.5" cy="259.534" fill="#84BE84" rx="3" ry="3" style="stroke:#038048;stroke-width:1.0;"/><text fill="#000000" font-family="sans-serif" font-size="14" lengthAdjust="spacing" textLength="413.3484" x="1521.5" y="263.4659">DisableGoogleAuthenticatorCredentialResponse(ServiceResult)</text></g></a><!--class DisableGoogleAuthenticatorCredentialRequest--><a href="DisableGoogleAuthenticatorCredentialRequest.html" target="_top" title="DisableGoogleAuthenticatorCredentialRequest.html" xlink:actuate="onRequest" xlink:href="DisableGoogleAuthenticatorCredentialRequest.html" xlink:show="new" xlink:title="DisableGoogleAuthenticatorCredentialRequest.html" xlink:type="simple"><g id="elem_DisableGoogleAuthenticatorCredentialRequest"><rect codeLine="61" fill="#F1F1F1" height="124.2717" id="DisableGoogleAuthenticatorCredentialRequest" rx="2.5" ry="2.5" style="stroke:#181818;stroke-width:0.5;" width="339.4948" x="857.5" y="176"/><ellipse cx="872.5" cy="192" fill="#ADD1B2" rx="11" ry="11" style="stroke:#181818;stroke-width:1.0;"/><path d="M875.4688,197.6406 Q874.8906,197.9375 874.25,198.0781 Q873.6094,198.2344 872.9063,198.2344 Q870.4063,198.2344 869.0781,196.5938 Q867.7656,194.9375 867.7656,191.8125 Q867.7656,188.6875 869.0781,187.0313 Q870.4063,185.375 872.9063,185.375 Q873.6094,185.375 874.25,185.5313 Q874.9063,185.6875 875.4688,185.9844 L875.4688,188.7031 Q874.8438,188.125 874.25,187.8594 Q873.6563,187.5781 873.0313,187.5781 Q871.6875,187.5781 871,188.6563 Q870.3125,189.7188 870.3125,191.8125 Q870.3125,193.9063 871,194.9844 Q871.6875,196.0469 873.0313,196.0469 Q873.6563,196.0469 874.25,195.7813 Q874.8438,195.5 875.4688,194.9219 L875.4688,197.6406 Z " fill="#000000"/><text fill="#000000" font-family="sans-serif" font-size="14" lengthAdjust="spacing" textLength="307.4948" x="886.5" y="197.432">DisableGoogleAuthenticatorCredentialRequest</text><line style="stroke:#181818;stroke-width:0.5;" x1="858.5" x2="1195.9948" y1="208" y2="208"/><line style="stroke:#181818;stroke-width:0.5;" x1="858.5" x2="1195.9948" y1="216" y2="216"/><ellipse cx="868.5" cy="231.034" fill="#84BE84" rx="3" ry="3" style="stroke:#038048;stroke-width:1.0;"/><text fill="#000000" font-family="sans-serif" font-size="14" lengthAdjust="spacing" textLength="139.8315" x="877.5" y="234.9659">getSessionId(): String</text><ellipse cx="868.5" cy="250.1019" fill="#84BE84" rx="3" ry="3" style="stroke:#038048;stroke-width:1.0;"/><text fill="#000000" font-family="sans-serif" font-size="14" lengthAdjust="spacing" textLength="165.7314" x="877.5" y="254.0339">setSessionId(String): void</text><ellipse cx="868.5" cy="269.1698" fill="#84BE84" rx="3" ry="3" style="stroke:#038048;stroke-width:1.0;"/><text fill="#000000" font-family="sans-serif" font-size="14" lengthAdjust="spacing" textLength="171.1074" x="877.5" y="273.1018">getUserpassword(): String</text><ellipse cx="868.5" cy="288.2377" fill="#84BE84" rx="3" ry="3" style="stroke:#038048;stroke-width:1.0;"/><text fill="#000000" font-family="sans-serif" font-size="14" lengthAdjust="spacing" textLength="197.0073" x="877.5" y="292.1697">setUserpassword(String): void</text></g></a><!--class SearchDocumentRequest--><a href="SearchDocumentRequest.html" target="_top" title="SearchDocumentRequest.html" xlink:actuate="onRequest" xlink:href="SearchDocumentRequest.html" xlink:show="new" xlink:title="SearchDocumentRequest.html" xlink:type="simple"><g id="elem_SearchDocumentRequest"><rect codeLine="68" fill="#F1F1F1" height="162.4075" id="SearchDocumentRequest" rx="2.5" ry="2.5" style="stroke:#181818;stroke-width:0.5;" width="244.8612" x="594.5" y="157"/><ellipse cx="630.1981" cy="173" fill="#ADD1B2" rx="11" ry="11" style="stroke:#181818;stroke-width:1.0;"/><path d="M633.1669,178.6406 Q632.5888,178.9375 631.9481,179.0781 Q631.3075,179.2344 630.6044,179.2344 Q628.1044,179.2344 626.7763,177.5938 Q625.4638,175.9375 625.4638,172.8125 Q625.4638,169.6875 626.7763,168.0313 Q628.1044,166.375 630.6044,166.375 Q631.3075,166.375 631.9481,166.5313 Q632.6044,166.6875 633.1669,166.9844 L633.1669,169.7031 Q632.5419,169.125 631.9481,168.8594 Q631.3544,168.5781 630.7294,168.5781 Q629.3856,168.5781 628.6981,169.6563 Q628.0106,170.7188 628.0106,172.8125 Q628.0106,174.9063 628.6981,175.9844 Q629.3856,177.0469 630.7294,177.0469 Q631.3544,177.0469 631.9481,176.7813 Q632.5419,176.5 633.1669,175.9219 L633.1669,178.6406 Z " fill="#000000"/><text fill="#000000" font-family="sans-serif" font-size="14" lengthAdjust="spacing" textLength="166.8653" x="648.7977" y="178.432">SearchDocumentRequest</text><line style="stroke:#181818;stroke-width:0.5;" x1="595.5" x2="838.3612" y1="189" y2="189"/><line style="stroke:#181818;stroke-width:0.5;" x1="595.5" x2="838.3612" y1="197" y2="197"/><ellipse cx="605.5" cy="212.034" fill="#84BE84" rx="3" ry="3" style="stroke:#038048;stroke-width:1.0;"/><text fill="#000000" font-family="sans-serif" font-size="14" lengthAdjust="spacing" textLength="139.8315" x="614.5" y="215.9659">getSessionId(): String</text><ellipse cx="605.5" cy="231.1019" fill="#84BE84" rx="3" ry="3" style="stroke:#038048;stroke-width:1.0;"/><text fill="#000000" font-family="sans-serif" font-size="14" lengthAdjust="spacing" textLength="165.7314" x="614.5" y="235.0339">setSessionId(String): void</text><ellipse cx="605.5" cy="250.1698" fill="#84BE84" rx="3" ry="3" style="stroke:#038048;stroke-width:1.0;"/><text fill="#000000" font-family="sans-serif" font-size="14" lengthAdjust="spacing" textLength="192.9613" x="614.5" y="254.1018">getSearchExpression(): String</text><ellipse cx="605.5" cy="269.2377" fill="#84BE84" rx="3" ry="3" style="stroke:#038048;stroke-width:1.0;"/><text fill="#000000" font-family="sans-serif" font-size="14" lengthAdjust="spacing" textLength="218.8612" x="614.5" y="273.1697">setSearchExpression(String): void</text><ellipse cx="605.5" cy="288.3056" fill="#84BE84" rx="3" ry="3" style="stroke:#038048;stroke-width:1.0;"/><text fill="#000000" font-family="sans-serif" font-size="14" lengthAdjust="spacing" textLength="161.2794" x="614.5" y="292.2376">getMaxResults(): Integer</text><ellipse cx="605.5" cy="307.3735" fill="#84BE84" rx="3" ry="3" style="stroke:#038048;stroke-width:1.0;"/><text fill="#000000" font-family="sans-serif" font-size="14" lengthAdjust="spacing" textLength="187.1793" x="614.5" y="311.3055">setMaxResults(Integer): void</text></g></a><!--class DeleteAccountRequest--><a href="DeleteAccountRequest.html" target="_top" title="DeleteAccountRequest.html" xlink:actuate="onRequest" xlink:href="DeleteAccountRequest.html" xlink:show="new" xlink:title="DeleteAccountRequest.html" xlink:type="simple"><g id="elem_DeleteAccountRequest"><rect codeLine="77" fill="#F1F1F1" height="124.2717" id="DeleteAccountRequest" rx="2.5" ry="2.5" style="stroke:#181818;stroke-width:0.5;" width="223.0073" x="22.5" y="176"/><ellipse cx="56.264" cy="192" fill="#ADD1B2" rx="11" ry="11" style="stroke:#181818;stroke-width:1.0;"/><path d="M59.2328,197.6406 Q58.6547,197.9375 58.014,198.0781 Q57.3734,198.2344 56.6703,198.2344 Q54.1703,198.2344 52.8422,196.5938 Q51.5297,194.9375 51.5297,191.8125 Q51.5297,188.6875 52.8422,187.0313 Q54.1703,185.375 56.6703,185.375 Q57.3734,185.375 58.014,185.5313 Q58.6703,185.6875 59.2328,185.9844 L59.2328,188.7031 Q58.6078,188.125 58.014,187.8594 Q57.4203,187.5781 56.7953,187.5781 Q55.4515,187.5781 54.764,188.6563 Q54.0765,189.7188 54.0765,191.8125 Q54.0765,193.9063 54.764,194.9844 Q55.4515,196.0469 56.7953,196.0469 Q57.4203,196.0469 58.014,195.7813 Q58.6078,195.5 59.2328,194.9219 L59.2328,197.6406 Z " fill="#000000"/><text fill="#000000" font-family="sans-serif" font-size="14" lengthAdjust="spacing" textLength="149.3094" x="74.4338" y="197.432">DeleteAccountRequest</text><line style="stroke:#181818;stroke-width:0.5;" x1="23.5" x2="244.5073" y1="208" y2="208"/><line style="stroke:#181818;stroke-width:0.5;" x1="23.5" x2="244.5073" y1="216" y2="216"/><ellipse cx="33.5" cy="231.034" fill="#84BE84" rx="3" ry="3" style="stroke:#038048;stroke-width:1.0;"/><text fill="#000000" font-family="sans-serif" font-size="14" lengthAdjust="spacing" textLength="139.8315" x="42.5" y="234.9659">getSessionId(): String</text><ellipse cx="33.5" cy="250.1019" fill="#84BE84" rx="3" ry="3" style="stroke:#038048;stroke-width:1.0;"/><text fill="#000000" font-family="sans-serif" font-size="14" lengthAdjust="spacing" textLength="165.7314" x="42.5" y="254.0339">setSessionId(String): void</text><ellipse cx="33.5" cy="269.1698" fill="#84BE84" rx="3" ry="3" style="stroke:#038048;stroke-width:1.0;"/><text fill="#000000" font-family="sans-serif" font-size="14" lengthAdjust="spacing" textLength="171.1074" x="42.5" y="273.1018">getUserpassword(): String</text><ellipse cx="33.5" cy="288.2377" fill="#84BE84" rx="3" ry="3" style="stroke:#038048;stroke-width:1.0;"/><text fill="#000000" font-family="sans-serif" font-size="14" lengthAdjust="spacing" textLength="197.0073" x="42.5" y="292.1697">setUserpassword(String): void</text></g></a><!--class ChangePasswordRequest--><a href="ChangePasswordRequest.html" target="_top" title="ChangePasswordRequest.html" xlink:actuate="onRequest" xlink:href="ChangePasswordRequest.html" xlink:show="new" xlink:title="ChangePasswordRequest.html" xlink:type="simple"><g id="elem_ChangePasswordRequest"><rect codeLine="84" fill="#F1F1F1" height="200.5433" id="ChangePasswordRequest" rx="2.5" ry="2.5" style="stroke:#181818;stroke-width:0.5;" width="267.8071" x="1215" y="137.5"/><ellipse cx="1260.8359" cy="153.5" fill="#ADD1B2" rx="11" ry="11" style="stroke:#181818;stroke-width:1.0;"/><path d="M1263.8046,159.1406 Q1263.2265,159.4375 1262.5859,159.5781 Q1261.9452,159.7344 1261.2421,159.7344 Q1258.7421,159.7344 1257.414,158.0938 Q1256.1015,156.4375 1256.1015,153.3125 Q1256.1015,150.1875 1257.414,148.5313 Q1258.7421,146.875 1261.2421,146.875 Q1261.9452,146.875 1262.5859,147.0313 Q1263.2421,147.1875 1263.8046,147.4844 L1263.8046,150.2031 Q1263.1796,149.625 1262.5859,149.3594 Q1261.9921,149.0781 1261.3671,149.0781 Q1260.0234,149.0781 1259.3359,150.1563 Q1258.6484,151.2188 1258.6484,153.3125 Q1258.6484,155.4063 1259.3359,156.4844 Q1260.0234,157.5469 1261.3671,157.5469 Q1261.9921,157.5469 1262.5859,157.2813 Q1263.1796,157 1263.8046,156.4219 L1263.8046,159.1406 Z " fill="#000000"/><text fill="#000000" font-family="sans-serif" font-size="14" lengthAdjust="spacing" textLength="167.6354" x="1281.3359" y="158.932">ChangePasswordRequest</text><line style="stroke:#181818;stroke-width:0.5;" x1="1216" x2="1481.8071" y1="169.5" y2="169.5"/><line style="stroke:#181818;stroke-width:0.5;" x1="1216" x2="1481.8071" y1="177.5" y2="177.5"/><ellipse cx="1226" cy="192.534" fill="#84BE84" rx="3" ry="3" style="stroke:#038048;stroke-width:1.0;"/><text fill="#000000" font-family="sans-serif" font-size="14" lengthAdjust="spacing" textLength="139.8315" x="1235" y="196.4659">getSessionId(): String</text><ellipse cx="1226" cy="211.6019" fill="#84BE84" rx="3" ry="3" style="stroke:#038048;stroke-width:1.0;"/><text fill="#000000" font-family="sans-serif" font-size="14" lengthAdjust="spacing" textLength="165.7314" x="1235" y="215.5339">setSessionId(String): void</text><ellipse cx="1226" cy="230.6698" fill="#84BE84" rx="3" ry="3" style="stroke:#038048;stroke-width:1.0;"/><text fill="#000000" font-family="sans-serif" font-size="14" lengthAdjust="spacing" textLength="191.0153" x="1235" y="234.6018">getCurrentPassword(): String</text><ellipse cx="1226" cy="249.7377" fill="#84BE84" rx="3" ry="3" style="stroke:#038048;stroke-width:1.0;"/><text fill="#000000" font-family="sans-serif" font-size="14" lengthAdjust="spacing" textLength="216.9152" x="1235" y="253.6697">setCurrentPassword(String): void</text><ellipse cx="1226" cy="268.8056" fill="#84BE84" rx="3" ry="3" style="stroke:#038048;stroke-width:1.0;"/><text fill="#000000" font-family="sans-serif" font-size="14" lengthAdjust="spacing" textLength="169.8894" x="1235" y="272.7376">getNewPassword(): String</text><ellipse cx="1226" cy="287.8735" fill="#84BE84" rx="3" ry="3" style="stroke:#038048;stroke-width:1.0;"/><text fill="#000000" font-family="sans-serif" font-size="14" lengthAdjust="spacing" textLength="195.7893" x="1235" y="291.8055">setNewPassword(String): void</text><ellipse cx="1226" cy="306.9415" fill="#84BE84" rx="3" ry="3" style="stroke:#038048;stroke-width:1.0;"/><text fill="#000000" font-family="sans-serif" font-size="14" lengthAdjust="spacing" textLength="215.9072" x="1235" y="310.8734">getRepeatNewPassword(): String</text><ellipse cx="1226" cy="326.0094" fill="#84BE84" rx="3" ry="3" style="stroke:#038048;stroke-width:1.0;"/><text fill="#000000" font-family="sans-serif" font-size="14" lengthAdjust="spacing" textLength="241.8071" x="1235" y="329.9414">setRepeatNewPassword(String): void</text></g></a><!--class AbstractResponse--><a href="../common/AbstractResponse.html" target="_top" title="../common/AbstractResponse.html" xlink:actuate="onRequest" xlink:href="../common/AbstractResponse.html" xlink:show="new" xlink:title="../common/AbstractResponse.html" xlink:type="simple"><g id="elem_AbstractResponse"><rect codeLine="98" fill="#F1F1F1" height="48" id="AbstractResponse" rx="2.5" ry="2.5" style="stroke:#181818;stroke-width:0.5;" width="141.3676" x="1544.5" y="34"/><ellipse cx="1559.5" cy="50" fill="#A9DCDF" rx="11" ry="11" style="stroke:#181818;stroke-width:1.0;"/><path d="M1559.6094,45.3438 L1558.4531,50.4219 L1560.7813,50.4219 L1559.6094,45.3438 Z M1558.125,43.1094 L1561.1094,43.1094 L1564.4688,55.5 L1562.0156,55.5 L1561.25,52.4375 L1557.9688,52.4375 L1557.2188,55.5 L1554.7813,55.5 L1558.125,43.1094 Z " fill="#000000"/><text fill="#000000" font-family="sans-serif" font-size="14" font-style="italic" lengthAdjust="spacing" textLength="109.3676" x="1573.5" y="55.432">AbstractResponse</text><line style="stroke:#181818;stroke-width:0.5;" x1="1545.5" x2="1684.8676" y1="66" y2="66"/><line style="stroke:#181818;stroke-width:0.5;" x1="1545.5" x2="1684.8676" y1="74" y2="74"/></g></a><!--class AbstractRequest--><a href="../common/AbstractRequest.html" target="_top" title="../common/AbstractRequest.html" xlink:actuate="onRequest" xlink:href="../common/AbstractRequest.html" xlink:show="new" xlink:title="../common/AbstractRequest.html" xlink:type="simple"><g id="elem_AbstractRequest"><rect codeLine="100" fill="#F1F1F1" height="48" id="AbstractRequest" rx="2.5" ry="2.5" style="stroke:#181818;stroke-width:0.5;" width="132.0856" x="1388" y="34"/><ellipse cx="1403" cy="50" fill="#A9DCDF" rx="11" ry="11" style="stroke:#181818;stroke-width:1.0;"/><path d="M1403.1094,45.3438 L1401.9531,50.4219 L1404.2813,50.4219 L1403.1094,45.3438 Z M1401.625,43.1094 L1404.6094,43.1094 L1407.9688,55.5 L1405.5156,55.5 L1404.75,52.4375 L1401.4688,52.4375 L1400.7188,55.5 L1398.2813,55.5 L1401.625,43.1094 Z " fill="#000000"/><text fill="#000000" font-family="sans-serif" font-size="14" font-style="italic" lengthAdjust="spacing" textLength="100.0856" x="1417" y="55.432">AbstractRequest</text><line style="stroke:#181818;stroke-width:0.5;" x1="1389" x2="1519.0856" y1="66" y2="66"/><line style="stroke:#181818;stroke-width:0.5;" x1="1389" x2="1519.0856" y1="74" y2="74"/></g></a><polygon fill="none" points="1685.5326,59.4165,1703.4933,65.5331,1703.5711,53.5333,1685.5326,59.4165" style="stroke:#181818;stroke-width:1.0;"/><path d="M1703.5322,59.5332 C2000.0284,61.4551 3115.3387,70.4628 3186,98 C3241.8561,119.7675 3291.2211,170.4288 3319.6026,204.1975 " fill="none" style="stroke:#181818;stroke-width:1.0;"/><polygon fill="none" points="1685.5251,59.3155,1703.4904,65.4188,1703.5593,53.419,1685.5251,59.3155" style="stroke:#181818;stroke-width:1.0;"/><path d="M1703.5248,59.4189 C1934.5423,60.7463 2641.4941,67.2399 2742,98 C2778.0903,109.0455 2814.1145,127.5401 2846.3216,147.4924 " fill="none" style="stroke:#181818;stroke-width:1.0;"/><polygon fill="none" points="1685.6447,58.3866,1703.6678,64.3169,1703.6214,52.317,1685.6447,58.3866" style="stroke:#181818;stroke-width:1.0;"/><path d="M1703.6446,58.317 C1856.8699,57.7245 2197.1957,60.6028 2312,98 C2334.9272,105.4685 2357.7923,116.0137 2379.5921,127.9964 " fill="none" style="stroke:#181818;stroke-width:1.0;"/><polygon fill="none" points="1387.8229,59.5373,1369.7643,53.7159,1369.8832,65.7153,1387.8229,59.5373" style="stroke:#181818;stroke-width:1.0;"/><path d="M1369.8238,59.7156 C1179.8919,61.5978 659.8942,69.2539 586,98 C543.4369,114.5577 503.8833,146.7089 474.0701,175.9222 " fill="none" style="stroke:#181818;stroke-width:1.0;"/><polygon fill="none" points="1685.5608,62.796,1703.1483,69.915,1703.9021,57.9387,1685.5608,62.796" style="stroke:#181818;stroke-width:1.0;"/><path d="M1703.5252,63.9268 C1787.2956,69.1998 1903.5419,79.1528 1950,98 C1969.2751,105.8196 1988.2567,116.2778 2006.2546,127.9636 " fill="none" style="stroke:#181818;stroke-width:1.0;"/><polygon fill="none" points="1628.8576,82.2704,1632.9123,100.8058,1643.2226,94.6659,1628.8576,82.2704" style="stroke:#181818;stroke-width:1.0;"/><path d="M1638.0674,97.7358 C1656.6426,128.9281 1680.501,168.9923 1701.5599,204.3553 " fill="none" style="stroke:#181818;stroke-width:1.0;"/><polygon fill="none" points="1387.8056,60.4579,1369.4663,55.5926,1370.215,67.5692,1387.8056,60.4579" style="stroke:#181818;stroke-width:1.0;"/><path d="M1369.8407,61.5809 C1318.3963,64.7968 1264.2072,72.831 1206,98 C1163.2047,116.5049 1121.6745,147.6615 1089.4079,175.7921 " fill="none" style="stroke:#181818;stroke-width:1.0;"/><polygon fill="none" points="1387.7603,60.5506,1369.6101,55.0215,1369.9227,67.0174,1387.7603,60.5506" style="stroke:#181818;stroke-width:1.0;"/><path d="M1369.7664,61.0194 C1222.8355,64.848 896.7822,75.6335 849,98 C820.5169,111.3327 795.0754,133.763 774.3112,156.7574 " fill="none" style="stroke:#181818;stroke-width:1.0;"/><polygon fill="none" points="1387.6617,59.694,1369.5954,53.8967,1369.7302,65.8959,1387.6617,59.694" style="stroke:#181818;stroke-width:1.0;"/><path d="M1369.6628,59.8963 C1125.5121,62.6399 306.3801,73.5901 255,98 C220.0323,114.6126 191.0882,146.5742 170.2853,175.664 " fill="none" style="stroke:#181818;stroke-width:1.0;"/><polygon fill="none" points="1440.2731,82.2704,1425.9598,94.7255,1436.2956,100.8225,1440.2731,82.2704" style="stroke:#181818;stroke-width:1.0;"/><path d="M1431.1277,97.774 C1422.567,112.2864 1420.0441,116.5634 1407.9121,137.13 " fill="none" style="stroke:#181818;stroke-width:1.0;"/><text fill="#888888" font-family="sans-serif" font-size="10" lengthAdjust="spacing" textLength="2.6" x="1745.7" y="368.69">&#160;</text><a href="https://github.com/talsma-ict/umldoclet" target="_top" title="https://github.com/talsma-ict/umldoclet" xlink:actuate="onRequest" xlink:href="https://github.com/talsma-ict/umldoclet" xlink:show="new" xlink:title="https://github.com/talsma-ict/umldoclet" xlink:type="simple"><text fill="#888888" font-family="sans-serif" font-size="10" lengthAdjust="spacing" textLength="76.7199" x="1708.64" y="382.31">UMLDoclet 2.2.1</text></a><!--SRC=[xLZ1RkCs4BtlLx3eeGasbcLtcwI2iO2X1DjidMqGExsuFj3KH18YaIf99Mkq-VSb9TcMPKgM5uM00FL55ZdlpHjoE2A9448_8PSbAnxwWKII8Hc40ZtSJX2c7lA10iSIF1J6s0U1bX0nwelS411EPS0uOe_P6s6SWqWOzKBgey_u6IF1Kav0ME_UeSpLRCt-WaM9VRdIZLUCH23HYNjQaZIq1-UzeJtyW6Ou4Z56D-xCAjYscA4rj0P8SKSX0IeKPKezu9ciSOA9UapodZFq35o4Z2gCNV3eK0cZ4eTKe0HpANH8Tn6cKciTMDg_TO5EnjF9hZRxrqpR6HfpYbCFtRE_qqsuFoGS-qfnX5SibKZ48375MPTGcWKeLrYgyNES7A24FgbXLbfYAr3_XpzR9CIM0Fwin5iu2IrCfD9kfQeD_PEZz8z4M0Za1fZwSAV-lZ3ktMTp8G3Dv-OEAv1nj5We7bJwlJSRdqnp5UezZUJf1l9Q5J45p4cWvYMDWSgI27D7ZGYpSPs83EA3pDkl8z2WarD7JRgGepLBqVvn5oQgC2D6SJspqDlpE9LOfk8M9zgRUeocagliFqDhWjp0pRCB-BxpBKCRU9sEAonnWmfDe1xQQb_16di8MFLjc7hvYJ4_Wh6g2meL4ftUBWTFl-1e9ndQcTQcHplueOJPalmEApruUVnxGxHhbnlLJSNMza_WuQEMffQioppG3cxKUFh06ppieGh8ONzJeke92JH8RBA_G7ziyBY3sm7L-Vn39XeuOp9vk9yq35p5q3notv58kipALdcKMTQaaLx08FJNuCPh269hqppp3weg9qNTRA3RCMiv8bUWFdCm9eIbEqNLs5uJhT7s_nNo9bV8LIZmCeAsvVOOyxhiEOAYzMQX7UbwiHzX_UONV7K3j2ruXlPkeirTNtzDU0vefAoODZFVugzvgeYc0b2ogbdmXyhc9f4CpMy-OwhxzdMmnlPkedLJTIAaykvmm5NBPjulyDA2ispLp7SF2U2MhFksZVFpUkpHJbd4wdIwdHYy59AhpcAQnyLhgRfRLZz7zQkT-zFyUfXtdJWcsfhaUIt7sZP6nzcBPVHlhzVo-EiuveDgfnBCnzIE9RGx2dstg3mT_cDD6McdusJS_NQhu8WTL9UpTSIsgjiaCknqEXqNmowXI__63tTUOaT2hYBOdbWU6PFPZM3vQ_NRAW4-2UcJooB6qO-Nvju7VLCQXHHcGKYUgFgq8xjIs4Vzah_2rrzqFW-aJ8JJx_kX3DAbZhelirlQNaXaFuqZBx-UhLpKBXR5nUkdpGsmlaNj3OQzuN0sk7Ji3uuziCxFpstxykANY_VsmB7j-NNAMGBzgMJaAM1HlFW6]--></g></svg>