<svg xmlns="http://www.w3.org/2000/svg" xmlns:xlink="http://www.w3.org/1999/xlink" contentStyleType="text/css" height="259px" preserveAspectRatio="none" style="width:597px;height:259px;background:#FFFFFF;" version="1.1" viewBox="0 0 597 259" width="597px" zoomAndPan="magnify"><defs/><g><!--cluster com.hack23.cia.web.impl.ui.application.views.user.goverment--><g id="cluster_com.hack23.cia.web.impl.ui.application.views.user.goverment"><path d="M16.5,98 L452.4643,98 A3.75,3.75 0 0 1 454.9643,100.5 L461.9643,123.0679 L587.5,123.0679 A2.5,2.5 0 0 1 590,125.5679 L590,219.5 A2.5,2.5 0 0 1 587.5,222 L16.5,222 A2.5,2.5 0 0 1 14,219.5 L14,100.5 A2.5,2.5 0 0 1 16.5,98 " fill="none" style="stroke:#000000;stroke-width:1.5;"/><line style="stroke:#000000;stroke-width:1.5;" x1="14" x2="461.9643" y1="123.0679" y2="123.0679"/><text fill="#000000" font-family="sans-serif" font-size="14" font-weight="bold" lengthAdjust="spacing" textLength="434.9643" x="18" y="114.9659">com.hack23.cia.web.impl.ui.application.views.user.goverment</text></g><!--cluster com.hack23.cia.web.impl.ui.application.views.user.common--><g id="cluster_com.hack23.cia.web.impl.ui.application.views.user.common"><path d="M98.5,4 L518.2663,4 A3.75,3.75 0 0 1 520.7663,6.5 L527.7663,29.0679 L527.5,29.0679 A2.5,2.5 0 0 1 530,31.5679 L530,87.5 A2.5,2.5 0 0 1 527.5,90 L98.5,90 A2.5,2.5 0 0 1 96,87.5 L96,6.5 A2.5,2.5 0 0 1 98.5,4 " fill="none" style="stroke:#000000;stroke-width:1.5;"/><line style="stroke:#000000;stroke-width:1.5;" x1="96" x2="527.7663" y1="29.0679" y2="29.0679"/><text fill="#000000" font-family="sans-serif" font-size="14" font-weight="bold" lengthAdjust="spacing" textLength="418.7663" x="100" y="20.9659">com.hack23.cia.web.impl.ui.application.views.user.common</text></g><!--class MinistryView--><a href="MinistryView.html" target="_top" title="MinistryView.html" xlink:actuate="onRequest" xlink:href="MinistryView.html" xlink:show="new" xlink:title="MinistryView.html" xlink:type="simple"><g id="elem_MinistryView"><rect codeLine="12" fill="#F1F1F1" height="86.1358" id="MinistryView" rx="2.5" ry="2.5" style="stroke:#181818;stroke-width:0.5;" width="243.6992" x="338" y="128"/><ellipse cx="413.5157" cy="144" fill="#ADD1B2" rx="11" ry="11" style="stroke:#181818;stroke-width:1.0;"/><path d="M416.4845,149.6406 Q415.9064,149.9375 415.2657,150.0781 Q414.6251,150.2344 413.922,150.2344 Q411.422,150.2344 410.0939,148.5938 Q408.7814,146.9375 408.7814,143.8125 Q408.7814,140.6875 410.0939,139.0313 Q411.422,137.375 413.922,137.375 Q414.6251,137.375 415.2657,137.5313 Q415.922,137.6875 416.4845,137.9844 L416.4845,140.7031 Q415.8595,140.125 415.2657,139.8594 Q414.672,139.5781 414.047,139.5781 Q412.7032,139.5781 412.0157,140.6563 Q411.3282,141.7188 411.3282,143.8125 Q411.3282,145.9063 412.0157,146.9844 Q412.7032,148.0469 414.047,148.0469 Q414.672,148.0469 415.2657,147.7813 Q415.8595,147.5 416.4845,146.9219 L416.4845,149.6406 Z " fill="#000000"/><text fill="#000000" font-family="sans-serif" font-size="14" lengthAdjust="spacing" textLength="84.1677" x="434.0157" y="149.432">MinistryView</text><line style="stroke:#181818;stroke-width:0.5;" x1="339" x2="580.6992" y1="160" y2="160"/><ellipse cx="349" cy="175.034" fill="none" rx="3" ry="3" style="stroke:#038048;stroke-width:1.0;"/><text fill="#000000" font-family="sans-serif" font-size="14" lengthAdjust="spacing" text-decoration="underline" textLength="86.8557" x="358" y="178.9659">NAME: String</text><line style="stroke:#181818;stroke-width:0.5;" x1="339" x2="580.6992" y1="187.0679" y2="187.0679"/><ellipse cx="349" cy="202.1019" fill="#84BE84" rx="3" ry="3" style="stroke:#038048;stroke-width:1.0;"/><text fill="#000000" font-family="sans-serif" font-size="14" lengthAdjust="spacing" textLength="217.6992" x="358" y="206.0339">MinistryView(ApplicationContext)</text></g></a><!--class MinistryRankingView--><a href="MinistryRankingView.html" target="_top" title="MinistryRankingView.html" xlink:actuate="onRequest" xlink:href="MinistryRankingView.html" xlink:show="new" xlink:title="MinistryRankingView.html" xlink:type="simple"><g id="elem_MinistryRankingView"><rect codeLine="17" fill="#F1F1F1" height="86.1358" id="MinistryRankingView" rx="2.5" ry="2.5" style="stroke:#181818;stroke-width:0.5;" width="297.2629" x="22.5" y="128"/><ellipse cx="98.0157" cy="144" fill="#ADD1B2" rx="11" ry="11" style="stroke:#181818;stroke-width:1.0;"/><path d="M100.9845,149.6406 Q100.4064,149.9375 99.7657,150.0781 Q99.1251,150.2344 98.422,150.2344 Q95.922,150.2344 94.5939,148.5938 Q93.2814,146.9375 93.2814,143.8125 Q93.2814,140.6875 94.5939,139.0313 Q95.922,137.375 98.422,137.375 Q99.1251,137.375 99.7657,137.5313 Q100.422,137.6875 100.9845,137.9844 L100.9845,140.7031 Q100.3595,140.125 99.7657,139.8594 Q99.172,139.5781 98.547,139.5781 Q97.2032,139.5781 96.5157,140.6563 Q95.8282,141.7188 95.8282,143.8125 Q95.8282,145.9063 96.5157,146.9844 Q97.2032,148.0469 98.547,148.0469 Q99.172,148.0469 99.7657,147.7813 Q100.3595,147.5 100.9845,146.9219 L100.9845,149.6406 Z " fill="#000000"/><text fill="#000000" font-family="sans-serif" font-size="14" lengthAdjust="spacing" textLength="137.7314" x="118.5157" y="149.432">MinistryRankingView</text><line style="stroke:#181818;stroke-width:0.5;" x1="23.5" x2="318.7629" y1="160" y2="160"/><ellipse cx="33.5" cy="175.034" fill="none" rx="3" ry="3" style="stroke:#038048;stroke-width:1.0;"/><text fill="#000000" font-family="sans-serif" font-size="14" lengthAdjust="spacing" text-decoration="underline" textLength="86.8557" x="42.5" y="178.9659">NAME: String</text><line style="stroke:#181818;stroke-width:0.5;" x1="23.5" x2="318.7629" y1="187.0679" y2="187.0679"/><ellipse cx="33.5" cy="202.1019" fill="#84BE84" rx="3" ry="3" style="stroke:#038048;stroke-width:1.0;"/><text fill="#000000" font-family="sans-serif" font-size="14" lengthAdjust="spacing" textLength="271.2629" x="42.5" y="206.0339">MinistryRankingView(ApplicationContext)</text></g></a><!--class AbstractGroupView--><a href="../common/AbstractGroupView.html" target="_top" title="../common/AbstractGroupView.html" xlink:actuate="onRequest" xlink:href="../common/AbstractGroupView.html" xlink:show="new" xlink:title="../common/AbstractGroupView.html" xlink:type="simple"><g id="elem_AbstractGroupView"><rect codeLine="25" fill="#F1F1F1" height="48" id="AbstractGroupView" rx="2.5" ry="2.5" style="stroke:#181818;stroke-width:0.5;" width="150.7895" x="370.5" y="34"/><ellipse cx="385.5" cy="50" fill="#A9DCDF" rx="11" ry="11" style="stroke:#181818;stroke-width:1.0;"/><path d="M385.6094,45.3438 L384.4531,50.4219 L386.7813,50.4219 L385.6094,45.3438 Z M384.125,43.1094 L387.1094,43.1094 L390.4688,55.5 L388.0156,55.5 L387.25,52.4375 L383.9688,52.4375 L383.2188,55.5 L380.7813,55.5 L384.125,43.1094 Z " fill="#000000"/><text fill="#000000" font-family="sans-serif" font-size="14" font-style="italic" lengthAdjust="spacing" textLength="118.7895" x="399.5" y="55.432">AbstractGroupView</text><line style="stroke:#181818;stroke-width:0.5;" x1="371.5" x2="520.2895" y1="66" y2="66"/><line style="stroke:#181818;stroke-width:0.5;" x1="371.5" x2="520.2895" y1="74" y2="74"/></g></a><!--class AbstractRankingView--><a href="../common/AbstractRankingView.html" target="_top" title="../common/AbstractRankingView.html" xlink:actuate="onRequest" xlink:href="../common/AbstractRankingView.html" xlink:show="new" xlink:title="../common/AbstractRankingView.html" xlink:type="simple"><g id="elem_AbstractRankingView"><rect codeLine="27" fill="#F1F1F1" height="48" id="AbstractRankingView" rx="2.5" ry="2.5" style="stroke:#181818;stroke-width:0.5;" width="162.4655" x="104" y="34"/><ellipse cx="119" cy="50" fill="#A9DCDF" rx="11" ry="11" style="stroke:#181818;stroke-width:1.0;"/><path d="M119.1094,45.3438 L117.9531,50.4219 L120.2813,50.4219 L119.1094,45.3438 Z M117.625,43.1094 L120.6094,43.1094 L123.9688,55.5 L121.5156,55.5 L120.75,52.4375 L117.4688,52.4375 L116.7188,55.5 L114.2813,55.5 L117.625,43.1094 Z " fill="#000000"/><text fill="#000000" font-family="sans-serif" font-size="14" font-style="italic" lengthAdjust="spacing" textLength="130.4655" x="133" y="55.432">AbstractRankingView</text><line style="stroke:#181818;stroke-width:0.5;" x1="105" x2="265.4655" y1="66" y2="66"/><line style="stroke:#181818;stroke-width:0.5;" x1="105" x2="265.4655" y1="74" y2="74"/></g></a><polygon fill="none" points="448.9349,82.2692,445.2344,100.8786,457.1401,99.3769,448.9349,82.2692" style="stroke:#181818;stroke-width:1.0;"/><path d="M451.1873,100.1278 C452.855,113.3507 452.7415,112.4505 454.6935,127.9269 " fill="none" style="stroke:#181818;stroke-width:1.0;"/><polygon fill="none" points="182.0651,82.2692,173.8599,99.3769,185.7656,100.8786,182.0651,82.2692" style="stroke:#181818;stroke-width:1.0;"/><path d="M179.8127,100.1278 C178.145,113.3507 178.2585,112.4505 176.3065,127.9269 " fill="none" style="stroke:#181818;stroke-width:1.0;"/><text fill="#888888" font-family="sans-serif" font-size="10" lengthAdjust="spacing" textLength="2.6" x="289.2" y="234.69">&#160;</text><a href="https://github.com/talsma-ict/umldoclet" target="_top" title="https://github.com/talsma-ict/umldoclet" xlink:actuate="onRequest" xlink:href="https://github.com/talsma-ict/umldoclet" xlink:show="new" xlink:title="https://github.com/talsma-ict/umldoclet" xlink:type="simple"><text fill="#888888" font-family="sans-serif" font-size="10" lengthAdjust="spacing" textLength="76.7199" x="252.14" y="248.31">UMLDoclet 2.2.1</text></a><!--SRC=[hLHTRzem57tlhxZJ7jQgnVaeBIog9Y5MTPleDBLqBum74zp4mh4p-uOETVpttP0C0knBQ_sI-EEUUywnTG00Na7Vv0ihanG13M0g7TnT3u3hAIH22yjHJ45cF14E9a8PdRZge01UO6eicFlLB3RM2fSRFPKwWGzypi6PmiR2iOC3MBKQ_aH_uAw1FbcKYszDh0J2OV-eGIdqW_DMw8Tj67BbCWxl-qDMesrgGXQo00XRoLXeHv25dWgxejNBUKoVGRLp0dDXdJIQQlmQfvGQ6urSQWSvj-XAIPyKrrXo3LZPdtNWi7SxsERclrvnEu6UrRoOmetvMgpbliWjJuYnuWjJ8BXC8DTyjUM8inFKYYFv5qLL0H6TaSt49MCf_OUdB9QSFOW9arckM24PptEIo944iBaK3uuLJbYM65AL2OtmM46L8rRSERYMMZgqYyzq6aQZvfIbcAdnc6gWCHuT4dwyXEEFlUlB26xHqdrk7JbkeXpsDfpwvABuXaVhqylVqRdXUaQmEwmQgqydrm3x5uxBfru2LMJqhZQ4-OHey1XhwRrwUcLDaTV26VEgCczlTz-0vT-GjqtTn_wZlSkc2_-hFehsLLvyRxMUygQZgFdSdebUqwhd8zX0hNoySBXGuitQv7jZa79f-r6_M-J23gIUzOsYE7ZP_VNkNHbfIcf1AHhFjA2BztTkxy9hzAjxVT6ZKOgOkyZp4ebfCIdDy70LfoqPerTaQbhbw4wYZiTrGbwjexgCkrOGjiBkC3YBpiwZTeUrkvrEs6sV1iT-4Fd-wBAm9XVUBPfubXgLZNy0]--></g></svg>