<svg xmlns="http://www.w3.org/2000/svg" xmlns:xlink="http://www.w3.org/1999/xlink" contentStyleType="text/css" data-diagram-type="CLASS" height="922px" preserveAspectRatio="none" style="width:264px;height:922px;background:#FFFFFF;" version="1.1" viewBox="0 0 264 922" width="264px" zoomAndPan="magnify"><defs/><g><!--class com.hack23.cia.model.external.val.partier.impl.SwedenPoliticalParty--><g class="entity" data-entity="com.hack23.cia.model.external.val.partier.impl.SwedenPoliticalParty" data-source-line="13" data-uid="ent0002" id="entity_com.hack23.cia.model.external.val.partier.impl.SwedenPoliticalParty"><a href="SwedenPoliticalParty.html" target="_top" title="SwedenPoliticalParty.html" xlink:actuate="onRequest" xlink:href="SwedenPoliticalParty.html" xlink:show="new" xlink:title="SwedenPoliticalParty.html" xlink:type="simple"><rect fill="#F1F1F1" height="802.3367" rx="2.5" ry="2.5" style="stroke:#181818;stroke-width:0.5;" width="251.5499" x="6" y="91"/><ellipse cx="21" cy="112.344" fill="#ADD1B2" rx="11" ry="11" style="stroke:#181818;stroke-width:1;"/><path d="M23.9688,117.9846 Q23.3906,118.2815 22.75,118.4221 Q22.1094,118.5783 21.4063,118.5783 Q18.9063,118.5783 17.5781,116.9377 Q16.2656,115.2815 16.2656,112.1565 Q16.2656,109.0315 17.5781,107.3752 Q18.9063,105.719 21.4063,105.719 Q22.1094,105.719 22.75,105.8752 Q23.4063,106.0315 23.9688,106.3283 L23.9688,109.0471 Q23.3438,108.469 22.75,108.2033 Q22.1563,107.9221 21.5313,107.9221 Q20.1875,107.9221 19.5,109.0002 Q18.8125,110.0627 18.8125,112.1565 Q18.8125,114.2502 19.5,115.3283 Q20.1875,116.3908 21.5313,116.3908 Q22.1563,116.3908 22.75,116.1252 Q23.3438,115.844 23.9688,115.2658 L23.9688,117.9846 Z " fill="#000000"/><text fill="#000000" font-family="sans-serif" font-size="14" lengthAdjust="spacing" textLength="137.0595" x="76.2452" y="110.9659">SwedenPoliticalParty</text><text fill="#000000" font-family="sans-serif" font-size="10" lengthAdjust="spacing" textLength="219.5499" x="35" y="125.7579">com.hack23.cia.model.external.val.partier.impl</text><line style="stroke:#181818;stroke-width:0.5;" x1="7" x2="256.5499" y1="133.6879" y2="133.6879"/><polygon fill="none" points="17,143.7219,21,147.7219,17,151.7219,13,147.7219" style="stroke:#B38D22;stroke-width:1;"/><text fill="#000000" font-family="sans-serif" font-size="14" lengthAdjust="spacing" textLength="120.7076" x="26" y="152.6538">partyName: String</text><polygon fill="none" points="17,162.7898,21,166.7898,17,170.7898,13,166.7898" style="stroke:#B38D22;stroke-width:1;"/><text fill="#000000" font-family="sans-serif" font-size="14" lengthAdjust="spacing" textLength="115.2756" x="26" y="171.7218">shortCode: String</text><polygon fill="none" points="17,181.8577,21,185.8577,17,189.8577,13,185.8577" style="stroke:#B38D22;stroke-width:1;"/><text fill="#000000" font-family="sans-serif" font-size="14" lengthAdjust="spacing" textLength="94.5837" x="26" y="190.7897">partyId: String</text><polygon fill="none" points="17,200.9256,21,204.9256,17,208.9256,13,204.9256" style="stroke:#B38D22;stroke-width:1;"/><text fill="#000000" font-family="sans-serif" font-size="14" lengthAdjust="spacing" textLength="115.2336" x="26" y="209.8576">coAddress: String</text><polygon fill="none" points="17,219.9935,21,223.9935,17,227.9935,13,223.9935" style="stroke:#B38D22;stroke-width:1;"/><text fill="#000000" font-family="sans-serif" font-size="14" lengthAdjust="spacing" textLength="143.7374" x="26" y="228.9255">phoneNumber: String</text><polygon fill="none" points="17,239.0614,21,243.0614,17,247.0614,13,243.0614" style="stroke:#B38D22;stroke-width:1;"/><text fill="#000000" font-family="sans-serif" font-size="14" lengthAdjust="spacing" textLength="98.9516" x="26" y="247.9934">address: String</text><polygon fill="none" points="17,258.1294,21,262.1294,17,266.1294,13,262.1294" style="stroke:#B38D22;stroke-width:1;"/><text fill="#000000" font-family="sans-serif" font-size="14" lengthAdjust="spacing" textLength="121.5335" x="26" y="267.0613">faxNumber: String</text><polygon fill="none" points="17,277.1973,21,281.1973,17,285.1973,13,281.1973" style="stroke:#B38D22;stroke-width:1;"/><text fill="#000000" font-family="sans-serif" font-size="14" lengthAdjust="spacing" textLength="109.4516" x="26" y="286.1293">postCode: String</text><polygon fill="none" points="17,296.2652,21,300.2652,17,304.2652,13,300.2652" style="stroke:#B38D22;stroke-width:1;"/><text fill="#000000" font-family="sans-serif" font-size="14" lengthAdjust="spacing" textLength="69.3137" x="26" y="305.1972">city: String</text><polygon fill="none" points="17,315.3331,21,319.3331,17,323.3331,13,319.3331" style="stroke:#B38D22;stroke-width:1;"/><text fill="#000000" font-family="sans-serif" font-size="14" lengthAdjust="spacing" textLength="82.8517" x="26" y="324.2651">email: String</text><polygon fill="none" points="17,334.401,21,338.401,17,342.401,13,338.401" style="stroke:#B38D22;stroke-width:1;"/><text fill="#000000" font-family="sans-serif" font-size="14" lengthAdjust="spacing" textLength="97.5656" x="26" y="343.333">website: String</text><polygon fill="none" points="17,353.4689,21,357.4689,17,361.4689,13,357.4689" style="stroke:#B38D22;stroke-width:1;"/><text fill="#000000" font-family="sans-serif" font-size="14" lengthAdjust="spacing" textLength="137.2835" x="26" y="362.4009">registeredDate: Date</text><polygon fill="none" points="17,372.5369,21,376.5369,17,380.5369,13,376.5369" style="stroke:#B38D22;stroke-width:1;"/><text fill="#000000" font-family="sans-serif" font-size="14" lengthAdjust="spacing" textLength="64.9457" x="26" y="381.4688">hjid: Long</text><line style="stroke:#181818;stroke-width:0.5;" x1="7" x2="256.5499" y1="389.5708" y2="389.5708"/><ellipse cx="17" cy="404.6048" fill="#84BE84" rx="3" ry="3" style="stroke:#038048;stroke-width:1;"/><text fill="#000000" font-family="sans-serif" font-size="14" lengthAdjust="spacing" textLength="150.5274" x="26" y="408.5368">getPartyName(): String</text><ellipse cx="17" cy="423.6727" fill="#84BE84" rx="3" ry="3" style="stroke:#038048;stroke-width:1;"/><text fill="#000000" font-family="sans-serif" font-size="14" lengthAdjust="spacing" textLength="176.4273" x="26" y="427.6047">setPartyName(String): void</text><ellipse cx="17" cy="442.7406" fill="#84BE84" rx="3" ry="3" style="stroke:#038048;stroke-width:1;"/><text fill="#000000" font-family="sans-serif" font-size="14" lengthAdjust="spacing" textLength="146.2155" x="26" y="446.6726">getShortCode(): String</text><ellipse cx="17" cy="461.8085" fill="#84BE84" rx="3" ry="3" style="stroke:#038048;stroke-width:1;"/><text fill="#000000" font-family="sans-serif" font-size="14" lengthAdjust="spacing" textLength="172.1154" x="26" y="465.7405">setShortCode(String): void</text><ellipse cx="17" cy="480.8764" fill="#84BE84" rx="3" ry="3" style="stroke:#038048;stroke-width:1;"/><text fill="#000000" font-family="sans-serif" font-size="14" lengthAdjust="spacing" textLength="124.4035" x="26" y="484.8084">getPartyId(): String</text><ellipse cx="17" cy="499.9444" fill="#84BE84" rx="3" ry="3" style="stroke:#038048;stroke-width:1;"/><text fill="#000000" font-family="sans-serif" font-size="14" lengthAdjust="spacing" textLength="150.3035" x="26" y="503.8763">setPartyId(String): void</text><ellipse cx="17" cy="519.0123" fill="#84BE84" rx="3" ry="3" style="stroke:#038048;stroke-width:1;"/><text fill="#000000" font-family="sans-serif" font-size="14" lengthAdjust="spacing" textLength="147.3215" x="26" y="522.9443">getCoAddress(): String</text><ellipse cx="17" cy="538.0802" fill="#84BE84" rx="3" ry="3" style="stroke:#038048;stroke-width:1;"/><text fill="#000000" font-family="sans-serif" font-size="14" lengthAdjust="spacing" textLength="173.2214" x="26" y="542.0122">setCoAddress(String): void</text><ellipse cx="17" cy="557.1481" fill="#84BE84" rx="3" ry="3" style="stroke:#038048;stroke-width:1;"/><text fill="#000000" font-family="sans-serif" font-size="14" lengthAdjust="spacing" textLength="173.5573" x="26" y="561.0801">getPhoneNumber(): String</text><ellipse cx="17" cy="576.216" fill="#84BE84" rx="3" ry="3" style="stroke:#038048;stroke-width:1;"/><text fill="#000000" font-family="sans-serif" font-size="14" lengthAdjust="spacing" textLength="199.4572" x="26" y="580.148">setPhoneNumber(String): void</text><ellipse cx="17" cy="595.284" fill="#84BE84" rx="3" ry="3" style="stroke:#038048;stroke-width:1;"/><text fill="#000000" font-family="sans-serif" font-size="14" lengthAdjust="spacing" textLength="130.0035" x="26" y="599.2159">getAddress(): String</text><ellipse cx="17" cy="614.3519" fill="#84BE84" rx="3" ry="3" style="stroke:#038048;stroke-width:1;"/><text fill="#000000" font-family="sans-serif" font-size="14" lengthAdjust="spacing" textLength="155.9034" x="26" y="618.2838">setAddress(String): void</text><ellipse cx="17" cy="633.4198" fill="#84BE84" rx="3" ry="3" style="stroke:#038048;stroke-width:1;"/><text fill="#000000" font-family="sans-serif" font-size="14" lengthAdjust="spacing" textLength="153.9434" x="26" y="637.3518">getFaxNumber(): String</text><ellipse cx="17" cy="652.4877" fill="#84BE84" rx="3" ry="3" style="stroke:#038048;stroke-width:1;"/><text fill="#000000" font-family="sans-serif" font-size="14" lengthAdjust="spacing" textLength="179.8433" x="26" y="656.4197">setFaxNumber(String): void</text><ellipse cx="17" cy="671.5556" fill="#84BE84" rx="3" ry="3" style="stroke:#038048;stroke-width:1;"/><text fill="#000000" font-family="sans-serif" font-size="14" lengthAdjust="spacing" textLength="139.2715" x="26" y="675.4876">getPostCode(): String</text><ellipse cx="17" cy="690.6235" fill="#84BE84" rx="3" ry="3" style="stroke:#038048;stroke-width:1;"/><text fill="#000000" font-family="sans-serif" font-size="14" lengthAdjust="spacing" textLength="165.1714" x="26" y="694.5555">setPostCode(String): void</text><ellipse cx="17" cy="709.6915" fill="#84BE84" rx="3" ry="3" style="stroke:#038048;stroke-width:1;"/><text fill="#000000" font-family="sans-serif" font-size="14" lengthAdjust="spacing" textLength="101.4016" x="26" y="713.6234">getCity(): String</text><ellipse cx="17" cy="728.7594" fill="#84BE84" rx="3" ry="3" style="stroke:#038048;stroke-width:1;"/><text fill="#000000" font-family="sans-serif" font-size="14" lengthAdjust="spacing" textLength="127.3015" x="26" y="732.6913">setCity(String): void</text><ellipse cx="17" cy="747.8273" fill="#84BE84" rx="3" ry="3" style="stroke:#038048;stroke-width:1;"/><text fill="#000000" font-family="sans-serif" font-size="14" lengthAdjust="spacing" textLength="112.6996" x="26" y="751.7593">getEmail(): String</text><ellipse cx="17" cy="766.8952" fill="#84BE84" rx="3" ry="3" style="stroke:#038048;stroke-width:1;"/><text fill="#000000" font-family="sans-serif" font-size="14" lengthAdjust="spacing" textLength="138.5995" x="26" y="770.8272">setEmail(String): void</text><ellipse cx="17" cy="785.9631" fill="#84BE84" rx="3" ry="3" style="stroke:#038048;stroke-width:1;"/><text fill="#000000" font-family="sans-serif" font-size="14" lengthAdjust="spacing" textLength="129.5415" x="26" y="789.8951">getWebsite(): String</text><ellipse cx="17" cy="805.031" fill="#84BE84" rx="3" ry="3" style="stroke:#038048;stroke-width:1;"/><text fill="#000000" font-family="sans-serif" font-size="14" lengthAdjust="spacing" textLength="155.4414" x="26" y="808.963">setWebsite(String): void</text><ellipse cx="17" cy="824.099" fill="#84BE84" rx="3" ry="3" style="stroke:#038048;stroke-width:1;"/><text fill="#000000" font-family="sans-serif" font-size="14" lengthAdjust="spacing" textLength="170.1693" x="26" y="828.0309">getRegisteredDate(): Date</text><ellipse cx="17" cy="843.1669" fill="#84BE84" rx="3" ry="3" style="stroke:#038048;stroke-width:1;"/><text fill="#000000" font-family="sans-serif" font-size="14" lengthAdjust="spacing" textLength="196.0692" x="26" y="847.0988">setRegisteredDate(Date): void</text><ellipse cx="17" cy="862.2348" fill="#84BE84" rx="3" ry="3" style="stroke:#038048;stroke-width:1;"/><text fill="#000000" font-family="sans-serif" font-size="14" lengthAdjust="spacing" textLength="96.6276" x="26" y="866.1668">getHjid(): Long</text><ellipse cx="17" cy="881.3027" fill="#84BE84" rx="3" ry="3" style="stroke:#038048;stroke-width:1;"/><text fill="#000000" font-family="sans-serif" font-size="14" lengthAdjust="spacing" textLength="122.5275" x="26" y="885.2347">setHjid(Long): void</text></a></g><!--class com.hack23.cia.model.common.api.ModelObject--><g class="entity" data-entity="com.hack23.cia.model.common.api.ModelObject" data-source-line="55" data-uid="ent0003" id="entity_com.hack23.cia.model.common.api.ModelObject"><rect fill="#F1F1F1" height="42.6879" rx="2.5" ry="2.5" style="stroke:#181818;stroke-width:0.5;" width="189.3398" x="37.5" y="12"/><ellipse cx="52.5" cy="33.344" fill="#B4A7E5" rx="11" ry="11" style="stroke:#181818;stroke-width:1;"/><path d="M48.4219,29.1096 L48.4219,26.9533 L55.8125,26.9533 L55.8125,29.1096 L53.3438,29.1096 L53.3438,37.1877 L55.8125,37.1877 L55.8125,39.344 L48.4219,39.344 L48.4219,37.1877 L50.8906,37.1877 L50.8906,29.1096 L48.4219,29.1096 Z " fill="#000000"/><text fill="#000000" font-family="sans-serif" font-size="14" font-style="italic" lengthAdjust="spacing" textLength="78.1477" x="106.096" y="31.9659">ModelObject</text><text fill="#000000" font-family="sans-serif" font-size="10" font-style="italic" lengthAdjust="spacing" textLength="157.3398" x="66.5" y="46.7579">com.hack23.cia.model.common.api</text></g><g class="link" data-entity-1="com.hack23.cia.model.common.api.ModelObject" data-entity-2="com.hack23.cia.model.external.val.partier.impl.SwedenPoliticalParty" data-uid="lnk4" id="link_com.hack23.cia.model.common.api.ModelObject_com.hack23.cia.model.external.val.partier.impl.SwedenPoliticalParty"><polygon fill="none" points="132,55.0017,126,73.0017,138,73.0017,132,55.0017" style="stroke:#181818;stroke-width:1;"/><path d="M132,73.0017 C132,82.2834 132,76.3859 132,90.6183" fill="none" style="stroke:#181818;stroke-width:1;stroke-dasharray:7,7;"/></g><g class="footer" data-source-line="65"><text fill="#888888" font-family="sans-serif" font-size="10" lengthAdjust="spacing" textLength="2.6" x="127.2" y="897.69">&#160;</text><a href="https://github.com/talsma-ict/umldoclet" target="_top" title="https://github.com/talsma-ict/umldoclet" xlink:actuate="onRequest" xlink:href="https://github.com/talsma-ict/umldoclet" xlink:show="new" xlink:title="https://github.com/talsma-ict/umldoclet" xlink:type="simple"><text fill="#888888" font-family="sans-serif" font-size="10" lengthAdjust="spacing" textLength="76.7199" x="90.14" y="911.31">UMLDoclet 2.2.4</text></a></g><!--SRC=[hLRRRjiu47tlLyos3viY3IqvJj0rWW21szrsuNQDEiK-k7wWgR74XYAr8fLKlVnxXv8Tox7fRe4Ai0tFuJbpqN18083VOMIAkfHfvi0PS9cqyFxD6BXE84MD9NUOWCnvYXOMg8nERRiGWLSkCoMOPVDFcB94MnYTI9t2t_oMWpLLAT2oHu-WSNMzLh_ZjgE-gBtnXH4A7HoDddP2waVn-Ka_wf_3DLSsv_1wTCrMQXjEd_NP04XRIO7QacIb4ooRiAuABkXdt2BFu1PBAuqcJhJIyQaAensNsaB1IsTzIXF5jVEnnepydx4uWgEhwNWxkEYF9hXdS5LgNYNmplnNtUVxMr7ob49Ml3QL0vkZuvgtcAMeDS-fNbpW5CahTrHARJGsU2OJ1CmBLyDIeahiGok9PORCZLqeRYqylh3oCmxZmUNq3XFK4wEaauAh2ULKVz0hEBeK9cSP5pVzKoOaPxb9K37yv92IKEoMFhuA4aicyq8z1dfPFqTX-mA0sMoVcMKkL_CvV6aoySyJBrM_fUeCOUfAwgODPAdXt8Yyxq8DwtMo2mXpbIJKcdOF9wE2lwto1PQx80-nblnJY5CO6mXFI5VlMZ7dKksQxt1XfTkZKc8gBLKTanVSu_vxWsOV9UK_DXt6SOfkigxdqTCTnMFRnLkGLjqQcMnfJDU53sXiyB36f7r3Xw8WDCmVhLzaG6637uXXyyP3SNHMX7KEH_BZEFvSzr10OOCVo6NLRA54rl21Yb9JXehfeJ3pfM_S0BN5mjn_s-uEiDTecFzkQnDucQrju4KUBF5V-vHUqORn_EqjOrU0jtPPtzffApK9BsbkToRk6pyG_rbyHE5-D6Z9c1lDU273atMpXdMKLyF-_nFWuYjZls9sjvulhAiLNjuNQcaCYNGcjtzUrGMMOwblHaRHYVRa-NxqlJ-WbTH8Tm9nescpG7I_yblhhjVnj_BrGSzccNE57VPwgNHPjV2fzrnpEJYHmlMgN2NjhU31_M0-NvttVzrVFFpPVH8DJkBuEXuCJ-FXu9n5yUbP59yzxnz7_M4KpLvMfIcmDtL6t6H6vVFl]--></g></svg>