<svg xmlns="http://www.w3.org/2000/svg" xmlns:xlink="http://www.w3.org/1999/xlink" contentStyleType="text/css" data-diagram-type="CLASS" height="354px" preserveAspectRatio="none" style="width:542px;height:354px;background:#FFFFFF;" version="1.1" viewBox="0 0 542 354" width="542px" zoomAndPan="magnify"><defs/><g><!--cluster com.hack23.cia.web.impl.ui.application.views.main--><g class="cluster" data-entity="com.hack23.cia.web.impl.ui.application.views.main" data-source-line="10" data-uid="ent0002" id="cluster_com.hack23.cia.web.impl.ui.application.views.main"><path d="M16.5,193 L375.9406,193 A3.75,3.75 0 0 1 378.4406,195.5 L385.4406,218.0679 L532.5,218.0679 A2.5,2.5 0 0 1 535,220.5679 L535,314.5 A2.5,2.5 0 0 1 532.5,317 L16.5,317 A2.5,2.5 0 0 1 14,314.5 L14,195.5 A2.5,2.5 0 0 1 16.5,193" fill="none" style="stroke:#000000;stroke-width:1.5;"/><line style="stroke:#000000;stroke-width:1.5;" x1="14" x2="385.4406" y1="218.0679" y2="218.0679"/><text fill="#000000" font-family="sans-serif" font-size="14" font-weight="bold" lengthAdjust="spacing" textLength="358.4406" x="18" y="209.9659">com.hack23.cia.web.impl.ui.application.views.main</text></g><!--cluster com.hack23.cia.web.impl.ui.application.views.common.abstracts--><g class="cluster" data-entity="com.hack23.cia.web.impl.ui.application.views.common.abstracts" data-source-line="24" data-uid="ent0005" id="cluster_com.hack23.cia.web.impl.ui.application.views.common.abstracts"><path d="M32.5,4 L486.8742,4 A3.75,3.75 0 0 1 489.3742,6.5 L496.3742,29.0679 L496.5,29.0679 A2.5,2.5 0 0 1 499,31.5679 L499,182.5 A2.5,2.5 0 0 1 496.5,185 L32.5,185 A2.5,2.5 0 0 1 30,182.5 L30,6.5 A2.5,2.5 0 0 1 32.5,4" fill="none" style="stroke:#000000;stroke-width:1.5;"/><line style="stroke:#000000;stroke-width:1.5;" x1="30" x2="496.3742" y1="29.0679" y2="29.0679"/><text fill="#000000" font-family="sans-serif" font-size="14" font-weight="bold" lengthAdjust="spacing" textLength="453.3742" x="34" y="20.9659">com.hack23.cia.web.impl.ui.application.views.common.abstracts</text></g><!--class MainView--><g class="entity" data-entity="MainView" data-source-line="12" data-uid="ent0003" id="entity_MainView"><a href="MainView.html" target="_top" title="MainView.html" xlink:actuate="onRequest" xlink:href="MainView.html" xlink:show="new" xlink:title="MainView.html" xlink:type="simple"><rect fill="#F1F1F1" height="86.1358" rx="2.5" ry="2.5" style="stroke:#181818;stroke-width:0.5;" width="223.2592" x="303.5" y="223"/><ellipse cx="379.0157" cy="239" fill="#ADD1B2" rx="11" ry="11" style="stroke:#181818;stroke-width:1;"/><path d="M381.9845,244.6406 Q381.4064,244.9375 380.7657,245.0781 Q380.1251,245.2344 379.422,245.2344 Q376.922,245.2344 375.5939,243.5938 Q374.2814,241.9375 374.2814,238.8125 Q374.2814,235.6875 375.5939,234.0313 Q376.922,232.375 379.422,232.375 Q380.1251,232.375 380.7657,232.5313 Q381.422,232.6875 381.9845,232.9844 L381.9845,235.7031 Q381.3595,235.125 380.7657,234.8594 Q380.172,234.5781 379.547,234.5781 Q378.2032,234.5781 377.5157,235.6563 Q376.8282,236.7188 376.8282,238.8125 Q376.8282,240.9063 377.5157,241.9844 Q378.2032,243.0469 379.547,243.0469 Q380.172,243.0469 380.7657,242.7813 Q381.3595,242.5 381.9845,241.9219 L381.9845,244.6406 Z " fill="#000000"/><text fill="#000000" font-family="sans-serif" font-size="14" lengthAdjust="spacing" textLength="63.7277" x="399.5157" y="244.432">MainView</text><line style="stroke:#181818;stroke-width:0.5;" x1="304.5" x2="525.7592" y1="255" y2="255"/><ellipse cx="314.5" cy="270.034" fill="none" rx="3" ry="3" style="stroke:#038048;stroke-width:1;"/><text fill="#000000" font-family="sans-serif" font-size="14" lengthAdjust="spacing" text-decoration="underline" textLength="86.8557" x="323.5" y="273.9659">NAME: String</text><line style="stroke:#181818;stroke-width:0.5;" x1="304.5" x2="525.7592" y1="282.0679" y2="282.0679"/><ellipse cx="314.5" cy="297.1019" fill="#84BE84" rx="3" ry="3" style="stroke:#038048;stroke-width:1;"/><text fill="#000000" font-family="sans-serif" font-size="14" lengthAdjust="spacing" textLength="197.2592" x="323.5" y="301.0339">MainView(ApplicationContext)</text></a></g><!--class DashboardView--><g class="entity" data-entity="DashboardView" data-source-line="17" data-uid="ent0004" id="entity_DashboardView"><a href="DashboardView.html" target="_top" title="DashboardView.html" xlink:actuate="onRequest" xlink:href="DashboardView.html" xlink:show="new" xlink:title="DashboardView.html" xlink:type="simple"><rect fill="#F1F1F1" height="86.1358" rx="2.5" ry="2.5" style="stroke:#181818;stroke-width:0.5;" width="263.2011" x="22.5" y="223"/><ellipse cx="98.0157" cy="239" fill="#ADD1B2" rx="11" ry="11" style="stroke:#181818;stroke-width:1;"/><path d="M100.9845,244.6406 Q100.4064,244.9375 99.7657,245.0781 Q99.1251,245.2344 98.422,245.2344 Q95.922,245.2344 94.5939,243.5938 Q93.2814,241.9375 93.2814,238.8125 Q93.2814,235.6875 94.5939,234.0313 Q95.922,232.375 98.422,232.375 Q99.1251,232.375 99.7657,232.5313 Q100.422,232.6875 100.9845,232.9844 L100.9845,235.7031 Q100.3595,235.125 99.7657,234.8594 Q99.172,234.5781 98.547,234.5781 Q97.2032,234.5781 96.5157,235.6563 Q95.8282,236.7188 95.8282,238.8125 Q95.8282,240.9063 96.5157,241.9844 Q97.2032,243.0469 98.547,243.0469 Q99.172,243.0469 99.7657,242.7813 Q100.3595,242.5 100.9845,241.9219 L100.9845,244.6406 Z " fill="#000000"/><text fill="#000000" font-family="sans-serif" font-size="14" lengthAdjust="spacing" textLength="103.6696" x="118.5157" y="244.432">DashboardView</text><line style="stroke:#181818;stroke-width:0.5;" x1="23.5" x2="284.7011" y1="255" y2="255"/><ellipse cx="33.5" cy="270.034" fill="none" rx="3" ry="3" style="stroke:#038048;stroke-width:1;"/><text fill="#000000" font-family="sans-serif" font-size="14" lengthAdjust="spacing" text-decoration="underline" textLength="86.8557" x="42.5" y="273.9659">NAME: String</text><line style="stroke:#181818;stroke-width:0.5;" x1="23.5" x2="284.7011" y1="282.0679" y2="282.0679"/><ellipse cx="33.5" cy="297.1019" fill="#84BE84" rx="3" ry="3" style="stroke:#038048;stroke-width:1;"/><text fill="#000000" font-family="sans-serif" font-size="14" lengthAdjust="spacing" textLength="237.2011" x="42.5" y="301.0339">DashboardView(ApplicationContext)</text></a></g><!--class AbstractView--><g class="entity" data-entity="AbstractView" data-source-line="25" data-uid="ent0006" id="entity_AbstractView"><a href="../common/abstracts/AbstractView.html" target="_top" title="../common/abstracts/AbstractView.html" xlink:actuate="onRequest" xlink:href="../common/abstracts/AbstractView.html" xlink:show="new" xlink:title="../common/abstracts/AbstractView.html" xlink:type="simple"><rect fill="#F1F1F1" height="143.3396" rx="2.5" ry="2.5" style="stroke:#181818;stroke-width:0.5;" width="343.4348" x="92.5" y="34"/><ellipse cx="220.1516" cy="50" fill="#A9DCDF" rx="11" ry="11" style="stroke:#181818;stroke-width:1;"/><path d="M220.2609,45.3438 L219.1047,50.4219 L221.4328,50.4219 L220.2609,45.3438 Z M218.7766,43.1094 L221.7609,43.1094 L225.1203,55.5 L222.6672,55.5 L221.9016,52.4375 L218.6203,52.4375 L217.8703,55.5 L215.4328,55.5 L218.7766,43.1094 Z " fill="#000000"/><text fill="#000000" font-family="sans-serif" font-size="14" font-style="italic" lengthAdjust="spacing" textLength="79.6317" x="240.6516" y="55.432">AbstractView</text><line style="stroke:#181818;stroke-width:0.5;" x1="93.5" x2="434.9348" y1="66" y2="66"/><polygon fill="none" points="103.5,76.034,107.5,80.034,103.5,84.034,99.5,80.034" style="stroke:#B38D22;stroke-width:1;"/><text fill="#000000" font-family="sans-serif" font-size="14" lengthAdjust="spacing" textLength="317.4348" x="112.5" y="84.9659">pageActionEventHelper: PageActionEventHelper</text><polygon fill="none" points="103.5,95.1019,107.5,99.1019,103.5,103.1019,99.5,99.1019" style="stroke:#B38D22;stroke-width:1;"/><text fill="#000000" font-family="sans-serif" font-size="14" lengthAdjust="spacing" textLength="223.9151" x="112.5" y="104.0339">pageLinkFactory: PageLinkFactory</text><polygon fill="none" points="103.5,114.1698,107.5,118.1698,103.5,122.1698,99.5,118.1698" style="stroke:#B38D22;stroke-width:1;"/><text fill="#000000" font-family="sans-serif" font-size="14" lengthAdjust="spacing" textLength="158.9274" x="112.5" y="123.1018">applicationName: String</text><polygon fill="none" points="103.5,133.2377,107.5,137.2377,103.5,141.2377,99.5,137.2377" style="stroke:#B38D22;stroke-width:1;"/><text fill="#000000" font-family="sans-serif" font-size="14" lengthAdjust="spacing" textLength="168.9654" x="112.5" y="142.1697">applicationVersion: String</text><polygon fill="none" points="103.5,152.3056,107.5,156.3056,103.5,160.3056,99.5,156.3056" style="stroke:#B38D22;stroke-width:1;"/><text fill="#000000" font-family="sans-serif" font-size="14" lengthAdjust="spacing" textLength="139.0755" x="112.5" y="161.2376">applicationUrl: String</text><line style="stroke:#181818;stroke-width:0.5;" x1="93.5" x2="434.9348" y1="169.3396" y2="169.3396"/></a></g><g class="link" data-entity-1="AbstractView" data-entity-2="MainView" data-uid="lnk7" id="link_AbstractView_MainView"><polygon fill="none" points="331.5502,177.4054,339.6219,194.5765,348.3103,186.2993,331.5502,177.4054" style="stroke:#181818;stroke-width:1;"/><path d="M343.9661,190.4379 C358.7287,205.9338 361.4854,208.8274 374.7765,222.7786" fill="none" style="stroke:#181818;stroke-width:1;"/></g><g class="link" data-entity-1="AbstractView" data-entity-2="DashboardView" data-uid="lnk8" id="link_AbstractView_DashboardView"><polygon fill="none" points="214.7912,177.4054,199.5992,188.7722,209.4577,195.614,214.7912,177.4054" style="stroke:#181818;stroke-width:1;"/><path d="M204.5285,192.1931 C193.7743,207.6889 192.9841,208.8274 183.3019,222.7786" fill="none" style="stroke:#181818;stroke-width:1;"/></g><g class="footer" data-source-line="43"><text fill="#888888" font-family="sans-serif" font-size="10" lengthAdjust="spacing" textLength="2.6" x="261.7" y="329.69">&#160;</text><a href="https://github.com/talsma-ict/umldoclet" target="_top" title="https://github.com/talsma-ict/umldoclet" xlink:actuate="onRequest" xlink:href="https://github.com/talsma-ict/umldoclet" xlink:show="new" xlink:title="https://github.com/talsma-ict/umldoclet" xlink:type="simple"><text fill="#888888" font-family="sans-serif" font-size="10" lengthAdjust="spacing" textLength="76.7199" x="224.64" y="343.31">UMLDoclet 2.2.4</text></a></g><!--SRC=[pLHTJzim57tdLzo9Xu6WJXgw3Y8qAIfiR2e8ZS9BrmVNCObLnyvifwnY_U-xQTAIGALzyBAy9BRFlVUSwvi30F0M1ZfV696a3fm6bmeBjvT3e2g6X2jkgECnY8mctCAKIwqIMm4vqCAbse2-NwsODeRRNAjOg0I-q3a5gml3k2KxEx0gDLfdVw2saNswA3VFD9FSmTvWlq4fyBlzJk07VHXHQJCAdmSZKcTxYWb8G7g0kQLWN5bCMQYOcnMjAASCNyFgv13ct5YX5SRuTPvIAjFAKQ4ivDGuMqgwbbIvackNOFrtfEl3NdGpR9FpJrRa3Y4oYXOnVDNVYutUDxcX2LAMTA4B1pRZZYgwEh98sdAiHHqsC0oh06GwmpuZcOoa-1qS4IOeUU1J8h9Saa8GckUeaJfKGEQ2FrYI8Mruh1AK3vFKMhZ4tJiyX_5u_KbIbyd91B7GU1wjmsni2GTNqULv23VEuFMr80Vh37lHK_K1Dep_SFiRvF8vXJDgqwcc9gvvjDR_JgQLvayOBL_HN0HdkA1JwmnbE1XFVDTxjTgeNjPY2V6gM6yJwpKXs_NlviWmOYM1ypbNxeBBd9iGhhTjlumS2ZNxY0MqMLGnZOqskg7qYcPyQwUReBlgf_ajxjR85vXbynPUrVqmR7Nvz6Udy_V_IXYkn_c_8TGQwQfFfzOj9F-mQUAzrWuDhJqk5miSW_AE1rgYZUmURp-zBRrG2iNHVjbCSPnM_zdjd7gDUdMjRseyJftBRUXvYN1fCItrUsxbmnt1d5TaCguC-9aLJoQrjNxQU7nfans_r-bsHzrUs7qV1YUaVzphzuEZ_l617uI-FpulZCwvT-CqcwLQPfDV]--></g></svg>