<svg xmlns="http://www.w3.org/2000/svg" xmlns:xlink="http://www.w3.org/1999/xlink" contentStyleType="text/css" height="236px" preserveAspectRatio="none" style="width:538px;height:236px;background:#FFFFFF;" version="1.1" viewBox="0 0 538 236" width="538px" zoomAndPan="magnify"><defs/><g><!--class com.hack23.cia.web.impl.ui.application.views.user.committeeranking.pagemode.CommitteeRankingCurrentCommitteesChartsPageModContentFactoryImpl--><a href="CommitteeRankingCurrentCommitteesChartsPageModContentFactoryImpl.html" target="_top" title="CommitteeRankingCurrentCommitteesChartsPageModContentFactoryImpl.html" xlink:actuate="onRequest" xlink:href="CommitteeRankingCurrentCommitteesChartsPageModContentFactoryImpl.html" xlink:show="new" xlink:title="CommitteeRankingCurrentCommitteesChartsPageModContentFactoryImpl.html" xlink:type="simple"><g id="elem_com.hack23.cia.web.impl.ui.application.views.user.committeeranking.pagemode.CommitteeRankingCurrentCommitteesChartsPageModContentFactoryImpl"><rect codeLine="13" fill="#F1F1F1" height="115.8917" id="com.hack23.cia.web.impl.ui.application.views.user.committeeranking.pagemode.CommitteeRankingCurrentCommitteesChartsPageModContentFactoryImpl" rx="2.5" ry="2.5" style="stroke:#181818;stroke-width:0.5;" width="525.4282" x="6" y="91"/><ellipse cx="21" cy="112.344" fill="#ADD1B2" rx="11" ry="11" style="stroke:#181818;stroke-width:1.0;"/><path d="M23.9688,117.9846 Q23.3906,118.2815 22.75,118.4221 Q22.1094,118.5783 21.4063,118.5783 Q18.9063,118.5783 17.5781,116.9377 Q16.2656,115.2815 16.2656,112.1565 Q16.2656,109.0315 17.5781,107.3752 Q18.9063,105.719 21.4063,105.719 Q22.1094,105.719 22.75,105.8752 Q23.4063,106.0315 23.9688,106.3283 L23.9688,109.0471 Q23.3438,108.469 22.75,108.2033 Q22.1563,107.9221 21.5313,107.9221 Q20.1875,107.9221 19.5,109.0002 Q18.8125,110.0627 18.8125,112.1565 Q18.8125,114.2502 19.5,115.3283 Q20.1875,116.3908 21.5313,116.3908 Q22.1563,116.3908 22.75,116.1252 Q23.3438,115.844 23.9688,115.2658 L23.9688,117.9846 Z " fill="#000000"/><text fill="#000000" font-family="sans-serif" font-size="14" lengthAdjust="spacing" textLength="493.4282" x="35" y="110.9659">CommitteeRankingCurrentCommitteesChartsPageModContentFactoryImpl</text><text fill="#000000" font-family="sans-serif" font-size="10" lengthAdjust="spacing" textLength="378.5596" x="92.4343" y="125.7579">com.hack23.cia.web.impl.ui.application.views.user.committeeranking.pagemode</text><line style="stroke:#181818;stroke-width:0.5;" x1="7" x2="530.4282" y1="133.6879" y2="133.6879"/><ellipse cx="17" cy="148.7219" fill="none" rx="3" ry="3" style="stroke:#038048;stroke-width:1.0;"/><text fill="#000000" font-family="sans-serif" font-size="14" lengthAdjust="spacing" text-decoration="underline" textLength="86.8557" x="26" y="152.6538">NAME: String</text><line style="stroke:#181818;stroke-width:0.5;" x1="7" x2="530.4282" y1="160.7558" y2="160.7558"/><ellipse cx="17" cy="175.7898" fill="#84BE84" rx="3" ry="3" style="stroke:#038048;stroke-width:1.0;"/><text fill="#000000" font-family="sans-serif" font-size="14" lengthAdjust="spacing" textLength="305.4228" x="26" y="179.7218">createContent(String, MenuBar, Panel): Layout</text><ellipse cx="17" cy="194.8577" fill="#84BE84" rx="3" ry="3" style="stroke:#038048;stroke-width:1.0;"/><text fill="#000000" font-family="sans-serif" font-size="14" lengthAdjust="spacing" textLength="211.5112" x="26" y="198.7897">matches(String, String): boolean</text></g></a><!--class com.hack23.cia.web.impl.ui.application.views.common.pagemode.AbstractBasicPageModContentFactoryImpl--><a href="../../../common/pagemode/AbstractBasicPageModContentFactoryImpl.html" target="_top" title="../../../common/pagemode/AbstractBasicPageModContentFactoryImpl.html" xlink:actuate="onRequest" xlink:href="../../../common/pagemode/AbstractBasicPageModContentFactoryImpl.html" xlink:show="new" xlink:title="../../../common/pagemode/AbstractBasicPageModContentFactoryImpl.html" xlink:type="simple"><g id="elem_com.hack23.cia.web.impl.ui.application.views.common.pagemode.AbstractBasicPageModContentFactoryImpl"><rect codeLine="19" fill="#F1F1F1" height="42.6879" id="com.hack23.cia.web.impl.ui.application.views.common.pagemode.AbstractBasicPageModContentFactoryImpl" rx="2.5" ry="2.5" style="stroke:#181818;stroke-width:0.5;" width="325.0197" x="106" y="12"/><ellipse cx="121" cy="33.344" fill="#A9DCDF" rx="11" ry="11" style="stroke:#181818;stroke-width:1.0;"/><path d="M121.1094,28.6877 L119.9531,33.7658 L122.2813,33.7658 L121.1094,28.6877 Z M119.625,26.4533 L122.6094,26.4533 L125.9688,38.844 L123.5156,38.844 L122.75,35.7815 L119.4688,35.7815 L118.7188,38.844 L116.2813,38.844 L119.625,26.4533 Z " fill="#000000"/><text fill="#000000" font-family="sans-serif" font-size="14" font-style="italic" lengthAdjust="spacing" textLength="264.991" x="149.0143" y="31.9659">AbstractBasicPageModContentFactoryImpl</text><text fill="#000000" font-family="sans-serif" font-size="10" font-style="italic" lengthAdjust="spacing" textLength="293.0197" x="135" y="46.7579">com.hack23.cia.web.impl.ui.application.views.common.pagemode</text></g></a><polygon fill="none" points="268.5,55.054,262.5,73.054,274.5,73.054,268.5,55.054" style="stroke:#181818;stroke-width:1.0;"/><path d="M268.5,73.054 C268.5,83.1473 268.5,77.8625 268.5,90.62 " fill="none" style="stroke:#181818;stroke-width:1.0;"/><text fill="#888888" font-family="sans-serif" font-size="10" lengthAdjust="spacing" textLength="2.6" x="263.7" y="211.69">&#160;</text><a href="https://github.com/talsma-ict/umldoclet" target="_top" title="https://github.com/talsma-ict/umldoclet" xlink:actuate="onRequest" xlink:href="https://github.com/talsma-ict/umldoclet" xlink:show="new" xlink:title="https://github.com/talsma-ict/umldoclet" xlink:type="simple"><text fill="#888888" font-family="sans-serif" font-size="10" lengthAdjust="spacing" textLength="76.7199" x="226.64" y="225.31">UMLDoclet 2.2.1</text></a><!--SRC=[pLLHJzim47xdLzpOmq2qJfe2WmeXbOvjJ6L2K9uA3rVdQAmwTcOxe8xnttT9Ic5i3sYWQLOaAtVdxxxpTxa00Bo3WItcJasp0C52o9I7y-CXe4bXIeOS1af1vJWb3nFIranz4qY0PSYi0tjLlqdh7Fd2cbIPANp1QmHlIoV9YvKLg5EDxj5lq3z2dymhumShDGLO6wm_efJ4dUrs4YVRC4BjSuIZmKWiq1xE928H7M1ihIGPpv2bISdLjFe5Ijw6ZQS5r-IyieRFn0kSgbHfJK1bF1JeWgzAEj5eGiMr8pZ_fdWFQ_spuQ_SujsQMmlwpc2PmgdzLYxBVLCud39ZZNDR1l0v1JJO-3oJDfZpTQ6aC-Aa6FWcZJLK-pEL4b1UX3bSATAfVsfbiCookRPBZTx3wfvNtwdNsTmVs3nN8H2Tefcn68EIbJ5XQVQ3hAhoX3Kzjkc0IsVlHvHCONwK5_h2BA3YVMbpaQ6S9LqX5OeRcWZ54Q9K0ek2hni3NwQuLdJZHUd92NcVnJN9HS5fSflIAh3ehuWdNbecZCSlXH1PoFNb9TpMEbJhrWSkGTx1njV-yM4Fpe9ZtALxGphYdbyWhJNU5XoJAG_GjU043Udr7WphfdaubcFWBlRB0ytEWHDhDQ6f8- -QTi293uuv_jON_ONZ0BsIhwv-9HI__BtSJm34y-YoYa94pTCWHFS8qVCG5Y8klgL_m7ZlHxlzNtq9JUbxFimrxI-RxihQm4FqeRUhzNbUa1igCnjOpHFhxSwVlUVL_DNA48zyEJF4VHWl8- -QTD6ZV8jS5sOypa8eV2-AfYfavQIgEWhrx6yh6Q8orsapz9-CVnQm6UUVbl-LQZQtuwGTTqUTRc-pqzlS4bixoVRkLdThToFkzE9uV5WwMr1q5goSPLRdbpy1]--></g></svg>