<svg xmlns="http://www.w3.org/2000/svg" xmlns:xlink="http://www.w3.org/1999/xlink" contentStyleType="text/css" height="236px" preserveAspectRatio="none" style="width:472px;height:236px;background:#FFFFFF;" version="1.1" viewBox="0 0 472 236" width="472px" zoomAndPan="magnify"><defs/><g><!--class com.hack23.cia.web.impl.ui.application.views.user.committeeranking.pagemode.CommitteeRankingPageVisitHistoryPageModContentFactoryImpl--><a href="CommitteeRankingPageVisitHistoryPageModContentFactoryImpl.html" target="_top" title="CommitteeRankingPageVisitHistoryPageModContentFactoryImpl.html" xlink:actuate="onRequest" xlink:href="CommitteeRankingPageVisitHistoryPageModContentFactoryImpl.html" xlink:show="new" xlink:title="CommitteeRankingPageVisitHistoryPageModContentFactoryImpl.html" xlink:type="simple"><g id="elem_com.hack23.cia.web.impl.ui.application.views.user.committeeranking.pagemode.CommitteeRankingPageVisitHistoryPageModContentFactoryImpl"><rect codeLine="13" fill="#F1F1F1" height="115.8917" id="com.hack23.cia.web.impl.ui.application.views.user.committeeranking.pagemode.CommitteeRankingPageVisitHistoryPageModContentFactoryImpl" rx="2.5" ry="2.5" style="stroke:#181818;stroke-width:0.5;" width="459.5024" x="6" y="91"/><ellipse cx="21" cy="112.344" fill="#ADD1B2" rx="11" ry="11" style="stroke:#181818;stroke-width:1.0;"/><path d="M23.9688,117.9846 Q23.3906,118.2815 22.75,118.4221 Q22.1094,118.5783 21.4063,118.5783 Q18.9063,118.5783 17.5781,116.9377 Q16.2656,115.2815 16.2656,112.1565 Q16.2656,109.0315 17.5781,107.3752 Q18.9063,105.719 21.4063,105.719 Q22.1094,105.719 22.75,105.8752 Q23.4063,106.0315 23.9688,106.3283 L23.9688,109.0471 Q23.3438,108.469 22.75,108.2033 Q22.1563,107.9221 21.5313,107.9221 Q20.1875,107.9221 19.5,109.0002 Q18.8125,110.0627 18.8125,112.1565 Q18.8125,114.2502 19.5,115.3283 Q20.1875,116.3908 21.5313,116.3908 Q22.1563,116.3908 22.75,116.1252 Q23.3438,115.844 23.9688,115.2658 L23.9688,117.9846 Z " fill="#000000"/><text fill="#000000" font-family="sans-serif" font-size="14" lengthAdjust="spacing" textLength="427.5024" x="35" y="110.9659">CommitteeRankingPageVisitHistoryPageModContentFactoryImpl</text><text fill="#000000" font-family="sans-serif" font-size="10" lengthAdjust="spacing" textLength="378.5596" x="59.4714" y="125.7579">com.hack23.cia.web.impl.ui.application.views.user.committeeranking.pagemode</text><line style="stroke:#181818;stroke-width:0.5;" x1="7" x2="464.5024" y1="133.6879" y2="133.6879"/><ellipse cx="17" cy="148.7219" fill="none" rx="3" ry="3" style="stroke:#038048;stroke-width:1.0;"/><text fill="#000000" font-family="sans-serif" font-size="14" lengthAdjust="spacing" text-decoration="underline" textLength="86.8557" x="26" y="152.6538">NAME: String</text><line style="stroke:#181818;stroke-width:0.5;" x1="7" x2="464.5024" y1="160.7558" y2="160.7558"/><ellipse cx="17" cy="175.7898" fill="#84BE84" rx="3" ry="3" style="stroke:#038048;stroke-width:1.0;"/><text fill="#000000" font-family="sans-serif" font-size="14" lengthAdjust="spacing" textLength="305.4228" x="26" y="179.7218">createContent(String, MenuBar, Panel): Layout</text><ellipse cx="17" cy="194.8577" fill="#84BE84" rx="3" ry="3" style="stroke:#038048;stroke-width:1.0;"/><text fill="#000000" font-family="sans-serif" font-size="14" lengthAdjust="spacing" textLength="211.5112" x="26" y="198.7897">matches(String, String): boolean</text></g></a><!--class com.hack23.cia.web.impl.ui.application.views.common.pagemode.AbstractBasicPageModContentFactoryImpl--><a href="../../../common/pagemode/AbstractBasicPageModContentFactoryImpl.html" target="_top" title="../../../common/pagemode/AbstractBasicPageModContentFactoryImpl.html" xlink:actuate="onRequest" xlink:href="../../../common/pagemode/AbstractBasicPageModContentFactoryImpl.html" xlink:show="new" xlink:title="../../../common/pagemode/AbstractBasicPageModContentFactoryImpl.html" xlink:type="simple"><g id="elem_com.hack23.cia.web.impl.ui.application.views.common.pagemode.AbstractBasicPageModContentFactoryImpl"><rect codeLine="19" fill="#F1F1F1" height="42.6879" id="com.hack23.cia.web.impl.ui.application.views.common.pagemode.AbstractBasicPageModContentFactoryImpl" rx="2.5" ry="2.5" style="stroke:#181818;stroke-width:0.5;" width="325.0197" x="73.5" y="12"/><ellipse cx="88.5" cy="33.344" fill="#A9DCDF" rx="11" ry="11" style="stroke:#181818;stroke-width:1.0;"/><path d="M88.6094,28.6877 L87.4531,33.7658 L89.7813,33.7658 L88.6094,28.6877 Z M87.125,26.4533 L90.1094,26.4533 L93.4688,38.844 L91.0156,38.844 L90.25,35.7815 L86.9688,35.7815 L86.2188,38.844 L83.7813,38.844 L87.125,26.4533 Z " fill="#000000"/><text fill="#000000" font-family="sans-serif" font-size="14" font-style="italic" lengthAdjust="spacing" textLength="264.991" x="116.5143" y="31.9659">AbstractBasicPageModContentFactoryImpl</text><text fill="#000000" font-family="sans-serif" font-size="10" font-style="italic" lengthAdjust="spacing" textLength="293.0197" x="102.5" y="46.7579">com.hack23.cia.web.impl.ui.application.views.common.pagemode</text></g></a><polygon fill="none" points="236,55.054,230,73.054,242,73.054,236,55.054" style="stroke:#181818;stroke-width:1.0;"/><path d="M236,73.054 C236,83.1473 236,77.8625 236,90.62 " fill="none" style="stroke:#181818;stroke-width:1.0;"/><text fill="#888888" font-family="sans-serif" font-size="10" lengthAdjust="spacing" textLength="2.6" x="231.2" y="211.69">&#160;</text><a href="https://github.com/talsma-ict/umldoclet" target="_top" title="https://github.com/talsma-ict/umldoclet" xlink:actuate="onRequest" xlink:href="https://github.com/talsma-ict/umldoclet" xlink:show="new" xlink:title="https://github.com/talsma-ict/umldoclet" xlink:type="simple"><text fill="#888888" font-family="sans-serif" font-size="10" lengthAdjust="spacing" textLength="76.7199" x="194.14" y="225.31">UMLDoclet 2.2.1</text></a><!--SRC=[pLNVJzj037xVN-6nXu5eB-aFwAWGKkdOO2eJeh2NmeDxCSsfbxlixWBg6F_xdAGKnlQ049eMLOhEFd_-xCzn0G3Umz3c2wTcQO1W8QJAm_dn2D0aC2D33WCbe3ASaOSfQMjclhv8W4L8hGDxLPsaTOvyRasYp0o-u3M2juMJvCMRDr2bEhj7lq7_27swA8qVhTGKO7suyOXIEsvjDzjnUmlEKFiCuMXu9fPe3p5jqHOjO6oj91dFa8L9o5Mq1ZbAVergJmEkoNbb3SV4IvooL6bDG6KyvEY2BqiwqMX2oRKbE7zNz61zC1xzpYtUgRWrOE0C5WcSsk_5gjotkSCPCzQui4K0dr50WxNFCsc36RSB9Os9asBWJXfhgFAdAY6WB0yBk5Aa4__Koc2fPNDbbngzXxLThtvGlzNT6zeiKo4GdQAPinWdBDutvLKuL9xJBChpiKs6N3EPy0bbQJpASdrXbXZndhIPI57EsnqX5OeRcWh5DqIX1EOvzna3Tr5SAxhnel3aXBpFwkgi8kSqcKre3LZjLyGJBwuF9fCNnueqPFho4cwhbfVFhGzCMjx1vjV1yK4Vni4nuCgzAHtnU2-Hrcjl0ux95Fle6d22XlH67qRLV3o4PHXuOFqge7xpnQcrcj1KD-zgvN7gWsEEVup0OEdOHw_ag-jTIiE7bmly140yZoxB9qHK_sg4w1uXUXx2KiJbP_CF6E_-R3R_ZzclQzxrOQ5fRpLjLzO6NfGFGrq-XukSt4YP-T1gtahlFlpTUrxkMAqCyLgNSqCyWF7gvbsTBdgKRvdhmamcQGYvxqVHJ8Mqc9RbHg7QxqqbGrHaEgaN-vCLpyhLA_lpwh-ZtB_DkDTiTSvQSJ_UwNTtnDPsfzVjTBgzpRZTZ-F9GU5iJj4uM3bFhSukVm40]--></g></svg>