<?xml version="1.0" encoding="UTF-8" standalone="no"?>
<!DOCTYPE svg PUBLIC "-//W3C//DTD SVG 1.1//EN"
 "http://www.w3.org/Graphics/SVG/1.1/DTD/svg11.dtd">
<!-- Generated by graphviz version 14.1.2 (0)
 -->
<!-- Title: TableGraph Pages: 1 -->
<svg width="349pt" height="646pt"
 viewBox="0.00 0.00 349.00 646.00" xmlns="http://www.w3.org/2000/svg" xmlns:xlink="http://www.w3.org/1999/xlink">
<g id="graph0" class="graph" transform="scale(1 1) rotate(0) translate(4 641.75)">
<title>TableGraph</title>
<g id="a_graph0"><a xlink:href="http://tools.hibernate.org" xlink:title="Table Graph">
<polygon fill="white" stroke="none" points="-4,4 -4,-641.75 344.5,-641.75 344.5,4 -4,4"/>
<text xml:space="preserve" text-anchor="middle" x="170.25" y="-6.5" font-family="Helvetica,sans-Serif" font-size="10.00">Table Graph</text>
</a>
</g>
<!-- COUNTRIES_ELEMENT -->
<g id="node1" class="node">
<title>COUNTRIES_ELEMENT</title>
<polygon fill="yellow" stroke="black" points="212,-20.5 212,-140.5 340.5,-140.5 340.5,-20.5 212,-20.5"/>
<text xml:space="preserve" text-anchor="middle" x="276.25" y="-127" font-family="Helvetica,sans-Serif" font-size="10.00">COUNTRIES_ELEMENT</text>
<polyline fill="none" stroke="black" points="212,-120.5 340.5,-120.5"/>
<text xml:space="preserve" text-anchor="start" x="220" y="-107" font-family="Helvetica,sans-Serif" font-size="10.00">HJID</text>
<polyline fill="none" stroke="black" points="212,-100.5 340.5,-100.5"/>
<text xml:space="preserve" text-anchor="start" x="220" y="-87" font-family="Helvetica,sans-Serif" font-size="10.00">PAGE</text>
<polyline fill="none" stroke="black" points="212,-80.5 340.5,-80.5"/>
<text xml:space="preserve" text-anchor="start" x="220" y="-67" font-family="Helvetica,sans-Serif" font-size="10.00">PAGES</text>
<polyline fill="none" stroke="black" points="212,-60.5 340.5,-60.5"/>
<text xml:space="preserve" text-anchor="start" x="220" y="-47" font-family="Helvetica,sans-Serif" font-size="10.00">PER_PAGE</text>
<polyline fill="none" stroke="black" points="212,-40.5 340.5,-40.5"/>
<text xml:space="preserve" text-anchor="start" x="220" y="-27" font-family="Helvetica,sans-Serif" font-size="10.00">TOTAL</text>
</g>
<!-- COUNTRY_ELEMENT -->
<g id="node2" class="node">
<title>COUNTRY_ELEMENT</title>
<polygon fill="yellow" stroke="black" points="0,-297.25 0,-637.25 212.5,-637.25 212.5,-297.25 0,-297.25"/>
<text xml:space="preserve" text-anchor="middle" x="106.25" y="-623.75" font-family="Helvetica,sans-Serif" font-size="10.00">COUNTRY_ELEMENT</text>
<polyline fill="none" stroke="black" points="0,-617.25 212.5,-617.25"/>
<text xml:space="preserve" text-anchor="start" x="8" y="-603.75" font-family="Helvetica,sans-Serif" font-size="10.00">HJID</text>
<polyline fill="none" stroke="black" points="0,-597.25 212.5,-597.25"/>
<text xml:space="preserve" text-anchor="start" x="8" y="-583.75" font-family="Helvetica,sans-Serif" font-size="10.00">ADMINREGION_ID</text>
<polyline fill="none" stroke="black" points="0,-577.25 212.5,-577.25"/>
<text xml:space="preserve" text-anchor="start" x="8" y="-563.75" font-family="Helvetica,sans-Serif" font-size="10.00">ADMINREGION_VALUE</text>
<polyline fill="none" stroke="black" points="0,-557.25 212.5,-557.25"/>
<text xml:space="preserve" text-anchor="start" x="8" y="-543.75" font-family="Helvetica,sans-Serif" font-size="10.00">CAPITAL_CITY</text>
<polyline fill="none" stroke="black" points="0,-537.25 212.5,-537.25"/>
<text xml:space="preserve" text-anchor="start" x="8" y="-523.75" font-family="Helvetica,sans-Serif" font-size="10.00">COUNTRY_NAME</text>
<polyline fill="none" stroke="black" points="0,-517.25 212.5,-517.25"/>
<text xml:space="preserve" text-anchor="start" x="8" y="-503.75" font-family="Helvetica,sans-Serif" font-size="10.00">ID</text>
<polyline fill="none" stroke="black" points="0,-497.25 212.5,-497.25"/>
<text xml:space="preserve" text-anchor="start" x="8" y="-483.75" font-family="Helvetica,sans-Serif" font-size="10.00">INCOME_LEVEL_ID</text>
<polyline fill="none" stroke="black" points="0,-477.25 212.5,-477.25"/>
<text xml:space="preserve" text-anchor="start" x="8" y="-463.75" font-family="Helvetica,sans-Serif" font-size="10.00">INCOME_LEVEL_VALUE</text>
<polyline fill="none" stroke="black" points="0,-457.25 212.5,-457.25"/>
<text xml:space="preserve" text-anchor="start" x="8" y="-443.75" font-family="Helvetica,sans-Serif" font-size="10.00">ISO_2CODE</text>
<polyline fill="none" stroke="black" points="0,-437.25 212.5,-437.25"/>
<text xml:space="preserve" text-anchor="start" x="8" y="-423.75" font-family="Helvetica,sans-Serif" font-size="10.00">LATITUDE</text>
<polyline fill="none" stroke="black" points="0,-417.25 212.5,-417.25"/>
<text xml:space="preserve" text-anchor="start" x="8" y="-403.75" font-family="Helvetica,sans-Serif" font-size="10.00">LENDING_TYPE_ID</text>
<polyline fill="none" stroke="black" points="0,-397.25 212.5,-397.25"/>
<text xml:space="preserve" text-anchor="start" x="8" y="-383.75" font-family="Helvetica,sans-Serif" font-size="10.00">LENDING_TYPE_VALUE</text>
<polyline fill="none" stroke="black" points="0,-377.25 212.5,-377.25"/>
<text xml:space="preserve" text-anchor="start" x="8" y="-363.75" font-family="Helvetica,sans-Serif" font-size="10.00">LONGITUDE</text>
<polyline fill="none" stroke="black" points="0,-357.25 212.5,-357.25"/>
<text xml:space="preserve" text-anchor="start" x="8" y="-343.75" font-family="Helvetica,sans-Serif" font-size="10.00">REGION_ID</text>
<polyline fill="none" stroke="black" points="0,-337.25 212.5,-337.25"/>
<text xml:space="preserve" text-anchor="start" x="8" y="-323.75" font-family="Helvetica,sans-Serif" font-size="10.00">REGION_VALUE</text>
<polyline fill="none" stroke="black" points="0,-317.25 212.5,-317.25"/>
<text xml:space="preserve" text-anchor="start" x="8" y="-303.75" font-family="Helvetica,sans-Serif" font-size="10.00">COUNTRY_COUNTRIES_ELEMENT_HJ_0</text>
</g>
<!-- COUNTRY_ELEMENT&#45;&gt;COUNTRIES_ELEMENT -->
<g id="edge1" class="edge">
<title>COUNTRY_ELEMENT:se&#45;&gt;COUNTRIES_ELEMENT:nw</title>
<path fill="none" stroke="lightgrey" d="M212.5,-296.75C258.58,-250.67 174.08,-196.7 204.85,-149.69"/>
<polygon fill="lightgrey" stroke="lightgrey" points="207.39,-152.12 211.04,-142.17 201.98,-147.67 207.39,-152.12"/>
<text xml:space="preserve" text-anchor="middle" x="279.2" y="-271.15" font-family="Helvetica,sans-Serif" font-size="8.00">FKnyef134rhl4klxsky3spfdp7g</text>
</g>
</g>
</svg>
