<?xml version="1.0" encoding="UTF-8" standalone="no"?><svg xmlns="http://www.w3.org/2000/svg" xmlns:xlink="http://www.w3.org/1999/xlink" contentStyleType="text/css" height="300px" preserveAspectRatio="none" style="width:666px;height:300px;background:#FFFFFF;" version="1.1" viewBox="0 0 666 300" width="666px" zoomAndPan="magnify"><defs/><g><!--MD5=[250734def8d7036f04118933ac7f4fa3]
cluster com.hack23.cia.web.impl.ui.application.views.user.committee--><g id="cluster_com.hack23.cia.web.impl.ui.application.views.user.committee"><path d="M8.5,132.602 L438.5,132.602 A3.75,3.75 0 0 1 441,135.102 L448,157.6699 L656.5,157.6699 A2.5,2.5 0 0 1 659,160.1699 L659,270.102 A2.5,2.5 0 0 1 656.5,272.602 L8.5,272.602 A2.5,2.5 0 0 1 6,270.102 L6,135.102 A2.5,2.5 0 0 1 8.5,132.602 " fill="none" style="stroke:#000000;stroke-width:1.5;"/><line style="stroke:#000000;stroke-width:1.5;" x1="6" x2="448" y1="157.6699" y2="157.6699"/><text fill="#000000" font-family="sans-serif" font-size="14" font-weight="bold" lengthAdjust="spacing" textLength="429" x="10" y="149.5679">com.hack23.cia.web.impl.ui.application.views.user.committee</text></g><!--MD5=[b6f7de69fe91c8bcc3328c73a6375d62]
cluster com.hack23.cia.web.impl.ui.application.views.user.common--><g id="cluster_com.hack23.cia.web.impl.ui.application.views.user.common"><path d="M129.5,6.602 L545.5,6.602 A3.75,3.75 0 0 1 548,9.102 L555,31.6699 L555.5,31.6699 A2.5,2.5 0 0 1 558,34.1699 L558,106.102 A2.5,2.5 0 0 1 555.5,108.602 L129.5,108.602 A2.5,2.5 0 0 1 127,106.102 L127,9.102 A2.5,2.5 0 0 1 129.5,6.602 " fill="none" style="stroke:#000000;stroke-width:1.5;"/><line style="stroke:#000000;stroke-width:1.5;" x1="127" x2="555" y1="31.6699" y2="31.6699"/><text fill="#000000" font-family="sans-serif" font-size="14" font-weight="bold" lengthAdjust="spacing" textLength="415" x="131" y="23.5679">com.hack23.cia.web.impl.ui.application.views.user.common</text></g><!--MD5=[162e59ad641490da7707172546b10c9b]
class com.hack23.cia.web.impl.ui.application.views.user.committee.CommitteeView--><a href="CommitteeView.html" target="_top" title="CommitteeView.html" xlink:actuate="onRequest" xlink:href="CommitteeView.html" xlink:show="new" xlink:title="CommitteeView.html" xlink:type="simple"><g id="elem_com.hack23.cia.web.impl.ui.application.views.user.committee.CommitteeView"><rect codeLine="3" fill="#F1F1F1" height="86.1358" id="com.hack23.cia.web.impl.ui.application.views.user.committee.CommitteeView" rx="2.5" ry="2.5" style="stroke:#181818;stroke-width:0.5;" width="265" x="377.5" y="170.602"/><ellipse cx="453.75" cy="186.602" fill="#ADD1B2" rx="11" ry="11" style="stroke:#181818;stroke-width:1.0;"/><path d="M456.7188,192.2426 Q456.1406,192.5395 455.5,192.6801 Q454.8594,192.8364 454.1563,192.8364 Q451.6563,192.8364 450.3281,191.1957 Q449.0156,189.5395 449.0156,186.4145 Q449.0156,183.2895 450.3281,181.6332 Q451.6563,179.977 454.1563,179.977 Q454.8594,179.977 455.5,180.1332 Q456.1563,180.2895 456.7188,180.5864 L456.7188,183.3051 Q456.0938,182.727 455.5,182.4614 Q454.9063,182.1801 454.2813,182.1801 Q452.9375,182.1801 452.25,183.2582 Q451.5625,184.3207 451.5625,186.4145 Q451.5625,188.5082 452.25,189.5864 Q452.9375,190.6489 454.2813,190.6489 Q454.9063,190.6489 455.5,190.3832 Q456.0938,190.102 456.7188,189.5239 L456.7188,192.2426 Z " fill="#000000"/><text fill="#000000" font-family="sans-serif" font-size="14" lengthAdjust="spacing" textLength="104" x="474.25" y="192.034">CommitteeView</text><line style="stroke:#181818;stroke-width:0.5;" x1="378.5" x2="641.5" y1="202.602" y2="202.602"/><ellipse cx="388.5" cy="217.6359" fill="none" rx="3" ry="3" style="stroke:#038048;stroke-width:1.0;"/><text fill="#000000" font-family="sans-serif" font-size="14" lengthAdjust="spacing" text-decoration="underline" textLength="90" x="397.5" y="221.5679">NAME: String</text><line style="stroke:#181818;stroke-width:0.5;" x1="378.5" x2="641.5" y1="229.6699" y2="229.6699"/><ellipse cx="388.5" cy="244.7039" fill="#84BE84" rx="3" ry="3" style="stroke:#038048;stroke-width:1.0;"/><text fill="#000000" font-family="sans-serif" font-size="14" lengthAdjust="spacing" textLength="239" x="397.5" y="248.6358">CommitteeView(ApplicationContext)</text></g></a><!--MD5=[c850c15a91dd06492b47899e9d8ee4a6]
class com.hack23.cia.web.impl.ui.application.views.user.committee.CommitteeRankingView--><a href="CommitteeRankingView.html" target="_top" title="CommitteeRankingView.html" xlink:actuate="onRequest" xlink:href="CommitteeRankingView.html" xlink:show="new" xlink:title="CommitteeRankingView.html" xlink:type="simple"><g id="elem_com.hack23.cia.web.impl.ui.application.views.user.committee.CommitteeRankingView"><rect codeLine="8" fill="#F1F1F1" height="86.1358" id="com.hack23.cia.web.impl.ui.application.views.user.committee.CommitteeRankingView" rx="2.5" ry="2.5" style="stroke:#181818;stroke-width:0.5;" width="320" x="22" y="170.602"/><ellipse cx="98.25" cy="186.602" fill="#ADD1B2" rx="11" ry="11" style="stroke:#181818;stroke-width:1.0;"/><path d="M101.2188,192.2426 Q100.6406,192.5395 100,192.6801 Q99.3594,192.8364 98.6563,192.8364 Q96.1563,192.8364 94.8281,191.1957 Q93.5156,189.5395 93.5156,186.4145 Q93.5156,183.2895 94.8281,181.6332 Q96.1563,179.977 98.6563,179.977 Q99.3594,179.977 100,180.1332 Q100.6563,180.2895 101.2188,180.5864 L101.2188,183.3051 Q100.5938,182.727 100,182.4614 Q99.4063,182.1801 98.7813,182.1801 Q97.4375,182.1801 96.75,183.2582 Q96.0625,184.3207 96.0625,186.4145 Q96.0625,188.5082 96.75,189.5864 Q97.4375,190.6489 98.7813,190.6489 Q99.4063,190.6489 100,190.3832 Q100.5938,190.102 101.2188,189.5239 L101.2188,192.2426 Z " fill="#000000"/><text fill="#000000" font-family="sans-serif" font-size="14" lengthAdjust="spacing" textLength="159" x="118.75" y="192.034">CommitteeRankingView</text><line style="stroke:#181818;stroke-width:0.5;" x1="23" x2="341" y1="202.602" y2="202.602"/><ellipse cx="33" cy="217.6359" fill="none" rx="3" ry="3" style="stroke:#038048;stroke-width:1.0;"/><text fill="#000000" font-family="sans-serif" font-size="14" lengthAdjust="spacing" text-decoration="underline" textLength="90" x="42" y="221.5679">NAME: String</text><line style="stroke:#181818;stroke-width:0.5;" x1="23" x2="341" y1="229.6699" y2="229.6699"/><ellipse cx="33" cy="244.7039" fill="#84BE84" rx="3" ry="3" style="stroke:#038048;stroke-width:1.0;"/><text fill="#000000" font-family="sans-serif" font-size="14" lengthAdjust="spacing" textLength="294" x="42" y="248.6358">CommitteeRankingView(ApplicationContext)</text></g></a><!--MD5=[4d95a43774ca7342273458fa929c2e89]
class com.hack23.cia.web.impl.ui.application.views.user.common.AbstractGroupView--><a href="../common/AbstractGroupView.html" target="_top" title="../common/AbstractGroupView.html" xlink:actuate="onRequest" xlink:href="../common/AbstractGroupView.html" xlink:show="new" xlink:title="../common/AbstractGroupView.html" xlink:type="simple"><g id="elem_com.hack23.cia.web.impl.ui.application.views.user.common.AbstractGroupView"><rect codeLine="18" fill="#F1F1F1" height="48" id="com.hack23.cia.web.impl.ui.application.views.user.common.AbstractGroupView" rx="2.5" ry="2.5" style="stroke:#181818;stroke-width:0.5;" width="152" x="366" y="44.602"/><ellipse cx="381" cy="60.602" fill="#A9DCDF" rx="11" ry="11" style="stroke:#181818;stroke-width:1.0;"/><path d="M381.1094,55.9457 L379.9531,61.0239 L382.2813,61.0239 L381.1094,55.9457 Z M379.625,53.7114 L382.6094,53.7114 L385.9688,66.102 L383.5156,66.102 L382.75,63.0395 L379.4688,63.0395 L378.7188,66.102 L376.2813,66.102 L379.625,53.7114 Z " fill="#000000"/><text fill="#000000" font-family="sans-serif" font-size="14" font-style="italic" lengthAdjust="spacing" textLength="120" x="395" y="66.034">AbstractGroupView</text><line style="stroke:#181818;stroke-width:0.5;" x1="367" x2="517" y1="76.602" y2="76.602"/><line style="stroke:#181818;stroke-width:0.5;" x1="367" x2="517" y1="84.602" y2="84.602"/></g></a><!--MD5=[391696cd44669b86b1fc88d08221bc08]
class com.hack23.cia.web.impl.ui.application.views.user.common.AbstractRankingView--><a href="../common/AbstractRankingView.html" target="_top" title="../common/AbstractRankingView.html" xlink:actuate="onRequest" xlink:href="../common/AbstractRankingView.html" xlink:show="new" xlink:title="../common/AbstractRankingView.html" xlink:type="simple"><g id="elem_com.hack23.cia.web.impl.ui.application.views.user.common.AbstractRankingView"><rect codeLine="20" fill="#F1F1F1" height="48" id="com.hack23.cia.web.impl.ui.application.views.user.common.AbstractRankingView" rx="2.5" ry="2.5" style="stroke:#181818;stroke-width:0.5;" width="164" x="167" y="44.602"/><ellipse cx="182" cy="60.602" fill="#A9DCDF" rx="11" ry="11" style="stroke:#181818;stroke-width:1.0;"/><path d="M182.1094,55.9457 L180.9531,61.0239 L183.2813,61.0239 L182.1094,55.9457 Z M180.625,53.7114 L183.6094,53.7114 L186.9688,66.102 L184.5156,66.102 L183.75,63.0395 L180.4688,63.0395 L179.7188,66.102 L177.2813,66.102 L180.625,53.7114 Z " fill="#000000"/><text fill="#000000" font-family="sans-serif" font-size="14" font-style="italic" lengthAdjust="spacing" textLength="132" x="196" y="66.034">AbstractRankingView</text><line style="stroke:#181818;stroke-width:0.5;" x1="168" x2="330" y1="76.602" y2="76.602"/><line style="stroke:#181818;stroke-width:0.5;" x1="168" x2="330" y1="84.602" y2="84.602"/></g></a><!--MD5=[4db06c3bba4de708a9b750f7552b4f03]
reverse link com.hack23.cia.web.impl.ui.application.views.user.common.AbstractGroupView to com.hack23.cia.web.impl.ui.application.views.user.committee.CommitteeView--><g id="link_com.hack23.cia.web.impl.ui.application.views.user.common.AbstractGroupView_com.hack23.cia.web.impl.ui.application.views.user.committee.CommitteeView"><path codeLine="13" d="M461.78,111.202 C470.65,129.862 481.1,151.832 490,170.542 " fill="none" id="com.hack23.cia.web.impl.ui.application.views.user.common.AbstractGroupView-backto-com.hack23.cia.web.impl.ui.application.views.user.committee.CommitteeView" style="stroke:#181818;stroke-width:1.0;"/><polygon fill="none" points="455.34,113.962,453.08,92.892,467.99,107.952,455.34,113.962" style="stroke:#181818;stroke-width:1.0;"/></g><!--MD5=[0fcef1333cac04f396676500802421b5]
reverse link com.hack23.cia.web.impl.ui.application.views.user.common.AbstractRankingView to com.hack23.cia.web.impl.ui.application.views.user.committee.CommitteeRankingView--><g id="link_com.hack23.cia.web.impl.ui.application.views.user.common.AbstractRankingView_com.hack23.cia.web.impl.ui.application.views.user.committee.CommitteeRankingView"><path codeLine="14" d="M229.51,111.202 C220.77,129.862 210.47,151.832 201.7,170.542 " fill="none" id="com.hack23.cia.web.impl.ui.application.views.user.common.AbstractRankingView-backto-com.hack23.cia.web.impl.ui.application.views.user.committee.CommitteeRankingView" style="stroke:#181818;stroke-width:1.0;"/><polygon fill="none" points="223.26,108.032,238.09,92.892,235.94,113.972,223.26,108.032" style="stroke:#181818;stroke-width:1.0;"/></g><rect fill="none" height="13.62" style="stroke:none;stroke-width:1.0;" width="188" x="232" y="278.602"/><text fill="#888888" font-family="sans-serif" font-size="10" lengthAdjust="spacing" textLength="188" x="232" y="289.292">UMLDoclet 2.0.20, PlantUML 1.2022.12</text><!--MD5=[5e31dbface11a8927b175253754306aa]
@startuml
    namespace com.hack23.cia.web.impl.ui.application.views.user.committee {

        class CommitteeView [[CommitteeView.html]] {
            {static} +NAME: String
            +CommitteeView(ApplicationContext)
        }

        class CommitteeRankingView [[CommitteeRankingView.html]] {
            {static} +NAME: String
            +CommitteeRankingView(ApplicationContext)
        }

        com.hack23.cia.web.impl.ui.application.views.user.common.AbstractGroupView <|- - CommitteeView
        com.hack23.cia.web.impl.ui.application.views.user.common.AbstractRankingView <|- - CommitteeRankingView
    }

    namespace com.hack23.cia.web.impl.ui.application.views.user.common {
        abstract class AbstractGroupView [[../common/AbstractGroupView.html]] {
        }
        abstract class AbstractRankingView [[../common/AbstractRankingView.html]] {
        }
    }

    center footer UMLDoclet 2.0.20, PlantUML 1.2022.12
@enduml

PlantUML version 1.2022.12(Sun Oct 23 20:12:26 CEST 2022)
(APACHE source distribution)
Java Runtime: OpenJDK Runtime Environment
JVM: OpenJDK 64-Bit Server VM
Default Encoding: UTF-8
Language: 
Country: 
--></g></svg>