<svg xmlns="http://www.w3.org/2000/svg" xmlns:xlink="http://www.w3.org/1999/xlink" contentStyleType="text/css" data-diagram-type="CLASS" height="533px" preserveAspectRatio="none" style="width:2253px;height:533px;background:#FFFFFF;" version="1.1" viewBox="0 0 2253 533" width="2253px" zoomAndPan="magnify"><defs/><g><!--cluster com.hack23.cia.service.impl--><g class="cluster" data-entity="com.hack23.cia.service.impl" data-source-line="10" data-uid="ent0002" id="cluster_com.hack23.cia.service.impl"><path d="M16.5,136 L212.9813,136 A3.75,3.75 0 0 1 215.4813,138.5 L222.4813,161.0679 L2243.5,161.0679 A2.5,2.5 0 0 1 2246,163.5679 L2246,493.5 A2.5,2.5 0 0 1 2243.5,496 L16.5,496 A2.5,2.5 0 0 1 14,493.5 L14,138.5 A2.5,2.5 0 0 1 16.5,136" fill="none" style="stroke:#000000;stroke-width:1.5;"/><line style="stroke:#000000;stroke-width:1.5;" x1="14" x2="222.4813" y1="161.0679" y2="161.0679"/><text fill="#000000" font-family="sans-serif" font-size="14" font-weight="bold" lengthAdjust="spacing" textLength="195.4813" x="18" y="152.9659">com.hack23.cia.service.impl</text></g><!--cluster org.springframework.security.authentication--><g class="cluster" data-entity="org.springframework.security.authentication" data-source-line="62" data-uid="ent0012" id="cluster_org.springframework.security.authentication"><path d="M21.5,4 L341.6988,4 A3.75,3.75 0 0 1 344.1988,6.5 L351.1988,29.0679 L351.5,29.0679 A2.5,2.5 0 0 1 354,31.5679 L354,125.5 A2.5,2.5 0 0 1 351.5,128 L21.5,128 A2.5,2.5 0 0 1 19,125.5 L19,6.5 A2.5,2.5 0 0 1 21.5,4" fill="none" style="stroke:#000000;stroke-width:1.5;"/><line style="stroke:#000000;stroke-width:1.5;" x1="19" x2="351.1988" y1="29.0679" y2="29.0679"/><text fill="#000000" font-family="sans-serif" font-size="14" font-weight="bold" lengthAdjust="spacing" textLength="319.1988" x="23" y="20.9659">org.springframework.security.authentication</text></g><!--class GovernmentBodyDataLoaderServiceImpl--><g class="entity" data-entity="GovernmentBodyDataLoaderServiceImpl" data-source-line="12" data-uid="ent0003" id="entity_GovernmentBodyDataLoaderServiceImpl"><a href="GovernmentBodyDataLoaderServiceImpl.html" target="_top" title="GovernmentBodyDataLoaderServiceImpl.html" xlink:actuate="onRequest" xlink:href="GovernmentBodyDataLoaderServiceImpl.html" xlink:show="new" xlink:title="GovernmentBodyDataLoaderServiceImpl.html" xlink:type="simple"><rect fill="#F1F1F1" height="67.0679" rx="2.5" ry="2.5" style="stroke:#181818;stroke-width:0.5;" width="451.3184" x="345.5" y="364"/><ellipse cx="432.0057" cy="380" fill="#ADD1B2" rx="11" ry="11" style="stroke:#181818;stroke-width:1;"/><path d="M434.9744,385.6406 Q434.3963,385.9375 433.7557,386.0781 Q433.1151,386.2344 432.4119,386.2344 Q429.9119,386.2344 428.5838,384.5938 Q427.2713,382.9375 427.2713,379.8125 Q427.2713,376.6875 428.5838,375.0313 Q429.9119,373.375 432.4119,373.375 Q433.1151,373.375 433.7557,373.5313 Q434.4119,373.6875 434.9744,373.9844 L434.9744,376.7031 Q434.3494,376.125 433.7557,375.8594 Q433.1619,375.5781 432.5369,375.5781 Q431.1932,375.5781 430.5057,376.6563 Q429.8182,377.7188 429.8182,379.8125 Q429.8182,381.9063 430.5057,382.9844 Q431.1932,384.0469 432.5369,384.0469 Q433.1619,384.0469 433.7557,383.7813 Q434.3494,383.5 434.9744,382.9219 L434.9744,385.6406 Z " fill="#000000"/><text fill="#000000" font-family="sans-serif" font-size="14" lengthAdjust="spacing" textLength="269.807" x="452.5057" y="385.432">GovernmentBodyDataLoaderServiceImpl</text><line style="stroke:#181818;stroke-width:0.5;" x1="346.5" x2="795.8184" y1="396" y2="396"/><line style="stroke:#181818;stroke-width:0.5;" x1="346.5" x2="795.8184" y1="404" y2="404"/><ellipse cx="356.5" cy="419.034" fill="#84BE84" rx="3" ry="3" style="stroke:#038048;stroke-width:1;"/><text fill="#000000" font-family="sans-serif" font-size="14" lengthAdjust="spacing" textLength="425.3184" x="365.5" y="422.9659">loadGovernmentBodyDataIfEmpty(ContextRefreshedEvent): void</text></a></g><!--class CoalitionPredictionService--><g class="entity" data-entity="CoalitionPredictionService" data-source-line="16" data-uid="ent0004" id="entity_CoalitionPredictionService"><a href="CoalitionPredictionService.html" target="_top" title="CoalitionPredictionService.html" xlink:actuate="onRequest" xlink:href="CoalitionPredictionService.html" xlink:show="new" xlink:title="CoalitionPredictionService.html" xlink:type="simple"><rect fill="#F1F1F1" height="105.2038" rx="2.5" ry="2.5" style="stroke:#181818;stroke-width:0.5;" width="422.2125" x="1816" y="166"/><ellipse cx="1942.1395" cy="182" fill="#B4A7E5" rx="11" ry="11" style="stroke:#181818;stroke-width:1;"/><path d="M1938.0614,177.7656 L1938.0614,175.6094 L1945.452,175.6094 L1945.452,177.7656 L1942.9833,177.7656 L1942.9833,185.8438 L1945.452,185.8438 L1945.452,188 L1938.0614,188 L1938.0614,185.8438 L1940.5302,185.8438 L1940.5302,177.7656 L1938.0614,177.7656 Z " fill="#000000"/><text fill="#000000" font-family="sans-serif" font-size="14" font-style="italic" lengthAdjust="spacing" textLength="161.4334" x="1962.6395" y="187.432">CoalitionPredictionService</text><line style="stroke:#181818;stroke-width:0.5;" x1="1817" x2="2237.2125" y1="198" y2="198"/><line style="stroke:#181818;stroke-width:0.5;" x1="1817" x2="2237.2125" y1="206" y2="206"/><ellipse cx="1827" cy="221.034" fill="#84BE84" rx="3" ry="3" style="stroke:#038048;stroke-width:1;"/><text fill="#000000" font-family="sans-serif" font-size="14" font-style="italic" lengthAdjust="spacing" textLength="303.4628" x="1836" y="224.9659">predictCoalitions(String): List&lt;CoalitionScenario&gt;</text><ellipse cx="1827" cy="240.1019" fill="#84BE84" rx="3" ry="3" style="stroke:#038048;stroke-width:1;"/><text fill="#000000" font-family="sans-serif" font-size="14" font-style="italic" lengthAdjust="spacing" textLength="396.2125" x="1836" y="244.0339">getAlignmentMatrix(String): Map&lt;String, Map&lt;String, Double&gt;&gt;</text><ellipse cx="1827" cy="259.1698" fill="#84BE84" rx="3" ry="3" style="stroke:#038048;stroke-width:1;"/><text fill="#000000" font-family="sans-serif" font-size="14" font-style="italic" lengthAdjust="spacing" textLength="290.0229" x="1836" y="263.1018">calculateStabilityIndex(List&lt;String&gt;, String): int</text></a></g><!--class CoalitionPredictionService.CoalitionScenario--><g class="entity" data-entity="CoalitionPredictionService.CoalitionScenario" data-source-line="22" data-uid="ent0005" id="entity_CoalitionPredictionService.CoalitionScenario"><a href="CoalitionPredictionService.CoalitionScenario.html" target="_top" title="CoalitionPredictionService.CoalitionScenario.html" xlink:actuate="onRequest" xlink:href="CoalitionPredictionService.CoalitionScenario.html" xlink:show="new" xlink:title="CoalitionPredictionService.CoalitionScenario.html" xlink:type="simple"><rect fill="#F1F1F1" height="181.4754" rx="2.5" ry="2.5" style="stroke:#181818;stroke-width:0.5;" width="423.6125" x="1350" y="307"/><ellipse cx="1412.3698" cy="323" fill="#ADD1B2" rx="11" ry="11" style="stroke:#181818;stroke-width:1;"/><path d="M1415.3386,328.6406 Q1414.7605,328.9375 1414.1198,329.0781 Q1413.4792,329.2344 1412.7761,329.2344 Q1410.2761,329.2344 1408.948,327.5938 Q1407.6355,325.9375 1407.6355,322.8125 Q1407.6355,319.6875 1408.948,318.0313 Q1410.2761,316.375 1412.7761,316.375 Q1413.4792,316.375 1414.1198,316.5313 Q1414.7761,316.6875 1415.3386,316.9844 L1415.3386,319.7031 Q1414.7136,319.125 1414.1198,318.8594 Q1413.5261,318.5781 1412.9011,318.5781 Q1411.5573,318.5781 1410.8698,319.6563 Q1410.1823,320.7188 1410.1823,322.8125 Q1410.1823,324.9063 1410.8698,325.9844 Q1411.5573,327.0469 1412.9011,327.0469 Q1413.5261,327.0469 1414.1198,326.7813 Q1414.7136,326.5 1415.3386,325.9219 L1415.3386,328.6406 Z " fill="#000000"/><text fill="#000000" font-family="sans-serif" font-size="14" lengthAdjust="spacing" textLength="290.3729" x="1432.8698" y="328.432">CoalitionPredictionService.CoalitionScenario</text><line style="stroke:#181818;stroke-width:0.5;" x1="1351" x2="1772.6125" y1="339" y2="339"/><line style="stroke:#181818;stroke-width:0.5;" x1="1351" x2="1772.6125" y1="347" y2="347"/><ellipse cx="1361" cy="362.034" fill="#84BE84" rx="3" ry="3" style="stroke:#038048;stroke-width:1;"/><text fill="#000000" font-family="sans-serif" font-size="14" lengthAdjust="spacing" textLength="397.6125" x="1370" y="365.9659">CoalitionScenario(List&lt;String&gt;, int, double, int, String, String)</text><ellipse cx="1361" cy="381.1019" fill="#84BE84" rx="3" ry="3" style="stroke:#038048;stroke-width:1;"/><text fill="#000000" font-family="sans-serif" font-size="14" lengthAdjust="spacing" textLength="160.8454" x="1370" y="385.0339">getParties(): List&lt;String&gt;</text><ellipse cx="1361" cy="400.1698" fill="#84BE84" rx="3" ry="3" style="stroke:#038048;stroke-width:1;"/><text fill="#000000" font-family="sans-serif" font-size="14" lengthAdjust="spacing" textLength="122.6395" x="1370" y="404.1018">getTotalSeats(): int</text><ellipse cx="1361" cy="419.2377" fill="#84BE84" rx="3" ry="3" style="stroke:#038048;stroke-width:1;"/><text fill="#000000" font-family="sans-serif" font-size="14" lengthAdjust="spacing" textLength="154.0274" x="1370" y="423.1697">getProbability(): double</text><ellipse cx="1361" cy="438.3056" fill="#84BE84" rx="3" ry="3" style="stroke:#038048;stroke-width:1;"/><text fill="#000000" font-family="sans-serif" font-size="14" lengthAdjust="spacing" textLength="144.2135" x="1370" y="442.2376">getStabilityIndex(): int</text><ellipse cx="1361" cy="457.3735" fill="#84BE84" rx="3" ry="3" style="stroke:#038048;stroke-width:1;"/><text fill="#000000" font-family="sans-serif" font-size="14" lengthAdjust="spacing" textLength="166.3614" x="1370" y="461.3055">getCoalitionType(): String</text><ellipse cx="1361" cy="476.4415" fill="#84BE84" rx="3" ry="3" style="stroke:#038048;stroke-width:1;"/><text fill="#000000" font-family="sans-serif" font-size="14" lengthAdjust="spacing" textLength="186.0873" x="1370" y="480.3734">getBlocRelationship(): String</text></a></g><!--class ViewDataDataContainerFactory--><g class="entity" data-entity="ViewDataDataContainerFactory" data-source-line="32" data-uid="ent0006" id="entity_ViewDataDataContainerFactory"><a href="ViewDataDataContainerFactory.html" target="_top" title="ViewDataDataContainerFactory.html" xlink:actuate="onRequest" xlink:href="ViewDataDataContainerFactory.html" xlink:show="new" xlink:title="ViewDataDataContainerFactory.html" xlink:type="simple"><rect fill="#F1F1F1" height="67.0679" rx="2.5" ry="2.5" style="stroke:#181818;stroke-width:0.5;" width="730.1411" x="800" y="185"/><ellipse cx="1063.3599" cy="201" fill="#B4A7E5" rx="11" ry="11" style="stroke:#181818;stroke-width:1;"/><path d="M1059.2818,196.7656 L1059.2818,194.6094 L1066.6724,194.6094 L1066.6724,196.7656 L1064.2037,196.7656 L1064.2037,204.8438 L1066.6724,204.8438 L1066.6724,207 L1059.2818,207 L1059.2818,204.8438 L1061.7506,204.8438 L1061.7506,196.7656 L1059.2818,196.7656 Z " fill="#000000"/><text fill="#000000" font-family="sans-serif" font-size="14" font-style="italic" lengthAdjust="spacing" textLength="194.9212" x="1083.8599" y="206.432">ViewDataDataContainerFactory</text><line style="stroke:#181818;stroke-width:0.5;" x1="801" x2="1529.1411" y1="217" y2="217"/><line style="stroke:#181818;stroke-width:0.5;" x1="801" x2="1529.1411" y1="225" y2="225"/><ellipse cx="811" cy="240.034" fill="#84BE84" rx="3" ry="3" style="stroke:#038048;stroke-width:1;"/><text fill="#000000" font-family="sans-serif" font-size="14" font-style="italic" lengthAdjust="spacing" textLength="704.1411" x="820" y="243.9659">createDataContainer(Class&lt;T extends Serializable&gt;): DataContainer&lt;T extends Serializable, I extends Serializable&gt;</text></a></g><!--class BootstrapDefaultConfig--><g class="entity" data-entity="BootstrapDefaultConfig" data-source-line="36" data-uid="ent0007" id="entity_BootstrapDefaultConfig"><a href="BootstrapDefaultConfig.html" target="_top" title="BootstrapDefaultConfig.html" xlink:actuate="onRequest" xlink:href="BootstrapDefaultConfig.html" xlink:show="new" xlink:title="BootstrapDefaultConfig.html" xlink:type="simple"><rect fill="#F1F1F1" height="67.0679" rx="2.5" ry="2.5" style="stroke:#181818;stroke-width:0.5;" width="249.9851" x="1548" y="185"/><ellipse cx="1590.7982" cy="201" fill="#ADD1B2" rx="11" ry="11" style="stroke:#181818;stroke-width:1;"/><path d="M1593.7669,206.6406 Q1593.1888,206.9375 1592.5482,207.0781 Q1591.9075,207.2344 1591.2044,207.2344 Q1588.7044,207.2344 1587.3763,205.5938 Q1586.0638,203.9375 1586.0638,200.8125 Q1586.0638,197.6875 1587.3763,196.0313 Q1588.7044,194.375 1591.2044,194.375 Q1591.9075,194.375 1592.5482,194.5313 Q1593.2044,194.6875 1593.7669,194.9844 L1593.7669,197.7031 Q1593.1419,197.125 1592.5482,196.8594 Q1591.9544,196.5781 1591.3294,196.5781 Q1589.9857,196.5781 1589.2982,197.6563 Q1588.6107,198.7188 1588.6107,200.8125 Q1588.6107,202.9063 1589.2982,203.9844 Q1589.9857,205.0469 1591.3294,205.0469 Q1591.9544,205.0469 1592.5482,204.7813 Q1593.1419,204.5 1593.7669,203.9219 L1593.7669,206.6406 Z " fill="#000000"/><text fill="#000000" font-family="sans-serif" font-size="14" lengthAdjust="spacing" textLength="156.2114" x="1610.9755" y="206.432">BootstrapDefaultConfig</text><line style="stroke:#181818;stroke-width:0.5;" x1="1549" x2="1796.9851" y1="217" y2="217"/><line style="stroke:#181818;stroke-width:0.5;" x1="1549" x2="1796.9851" y1="225" y2="225"/><ellipse cx="1559" cy="240.034" fill="#84BE84" rx="3" ry="3" style="stroke:#038048;stroke-width:1;"/><text fill="#000000" font-family="sans-serif" font-size="14" lengthAdjust="spacing" textLength="223.9851" x="1568" y="243.9659">createDefaultConfiguration(): void</text></a></g><!--class GovernmentBodyDataLoaderService--><g class="entity" data-entity="GovernmentBodyDataLoaderService" data-source-line="40" data-uid="ent0008" id="entity_GovernmentBodyDataLoaderService"><a href="GovernmentBodyDataLoaderService.html" target="_top" title="GovernmentBodyDataLoaderService.html" xlink:actuate="onRequest" xlink:href="GovernmentBodyDataLoaderService.html" xlink:show="new" xlink:title="GovernmentBodyDataLoaderService.html" xlink:type="simple"><rect fill="#F1F1F1" height="67.0679" rx="2.5" ry="2.5" style="stroke:#181818;stroke-width:0.5;" width="422.1284" x="360" y="185"/><ellipse cx="454.9756" cy="201" fill="#B4A7E5" rx="11" ry="11" style="stroke:#181818;stroke-width:1;"/><path d="M450.8975,196.7656 L450.8975,194.6094 L458.2881,194.6094 L458.2881,196.7656 L455.8194,196.7656 L455.8194,204.8438 L458.2881,204.8438 L458.2881,207 L450.8975,207 L450.8975,204.8438 L453.3662,204.8438 L453.3662,196.7656 L450.8975,196.7656 Z " fill="#000000"/><text fill="#000000" font-family="sans-serif" font-size="14" font-style="italic" lengthAdjust="spacing" textLength="223.6772" x="475.4756" y="206.432">GovernmentBodyDataLoaderService</text><line style="stroke:#181818;stroke-width:0.5;" x1="361" x2="781.1284" y1="217" y2="217"/><line style="stroke:#181818;stroke-width:0.5;" x1="361" x2="781.1284" y1="225" y2="225"/><ellipse cx="371" cy="240.034" fill="#84BE84" rx="3" ry="3" style="stroke:#038048;stroke-width:1;"/><text fill="#000000" font-family="sans-serif" font-size="14" font-style="italic" lengthAdjust="spacing" textLength="396.1284" x="380" y="243.9659">loadGovernmentBodyDataIfEmpty(ContextRefreshedEvent): void</text></a></g><!--class CoalitionPredictionServiceImpl--><g class="entity" data-entity="CoalitionPredictionServiceImpl" data-source-line="44" data-uid="ent0009" id="entity_CoalitionPredictionServiceImpl"><a href="CoalitionPredictionServiceImpl.html" target="_top" title="CoalitionPredictionServiceImpl.html" xlink:actuate="onRequest" xlink:href="CoalitionPredictionServiceImpl.html" xlink:show="new" xlink:title="CoalitionPredictionServiceImpl.html" xlink:type="simple"><rect fill="#F1F1F1" height="105.2038" rx="2.5" ry="2.5" style="stroke:#181818;stroke-width:0.5;" width="444.6685" x="1792.5" y="345"/><ellipse cx="1909.6726" cy="361" fill="#ADD1B2" rx="11" ry="11" style="stroke:#181818;stroke-width:1;"/><path d="M1912.6414,366.6406 Q1912.0633,366.9375 1911.4226,367.0781 Q1910.782,367.2344 1910.0789,367.2344 Q1907.5789,367.2344 1906.2508,365.5938 Q1904.9383,363.9375 1904.9383,360.8125 Q1904.9383,357.6875 1906.2508,356.0313 Q1907.5789,354.375 1910.0789,354.375 Q1910.782,354.375 1911.4226,354.5313 Q1912.0789,354.6875 1912.6414,354.9844 L1912.6414,357.7031 Q1912.0164,357.125 1911.4226,356.8594 Q1910.8289,356.5781 1910.2039,356.5781 Q1908.8601,356.5781 1908.1726,357.6563 Q1907.4851,358.7188 1907.4851,360.8125 Q1907.4851,362.9063 1908.1726,363.9844 Q1908.8601,365.0469 1910.2039,365.0469 Q1910.8289,365.0469 1911.4226,364.7813 Q1912.0164,364.5 1912.6414,363.9219 L1912.6414,366.6406 Z " fill="#000000"/><text fill="#000000" font-family="sans-serif" font-size="14" lengthAdjust="spacing" textLength="201.8232" x="1930.1726" y="366.432">CoalitionPredictionServiceImpl</text><line style="stroke:#181818;stroke-width:0.5;" x1="1793.5" x2="2236.1685" y1="377" y2="377"/><line style="stroke:#181818;stroke-width:0.5;" x1="1793.5" x2="2236.1685" y1="385" y2="385"/><ellipse cx="1803.5" cy="400.034" fill="#84BE84" rx="3" ry="3" style="stroke:#038048;stroke-width:1;"/><text fill="#000000" font-family="sans-serif" font-size="14" lengthAdjust="spacing" textLength="319.9408" x="1812.5" y="403.9659">predictCoalitions(String): List&lt;CoalitionScenario&gt;</text><ellipse cx="1803.5" cy="419.1019" fill="#84BE84" rx="3" ry="3" style="stroke:#038048;stroke-width:1;"/><text fill="#000000" font-family="sans-serif" font-size="14" lengthAdjust="spacing" textLength="418.6685" x="1812.5" y="423.0339">getAlignmentMatrix(String): Map&lt;String, Map&lt;String, Double&gt;&gt;</text><ellipse cx="1803.5" cy="438.1698" fill="#84BE84" rx="3" ry="3" style="stroke:#038048;stroke-width:1;"/><text fill="#000000" font-family="sans-serif" font-size="14" lengthAdjust="spacing" textLength="305.5349" x="1812.5" y="442.1018">calculateStabilityIndex(List&lt;String&gt;, String): int</text></a></g><!--class ViewRiksdagenCommitteeDataContainer--><g class="entity" data-entity="ViewRiksdagenCommitteeDataContainer" data-source-line="50" data-uid="ent0010" id="entity_ViewRiksdagenCommitteeDataContainer"><a href="ViewRiksdagenCommitteeDataContainer.html" target="_top" title="ViewRiksdagenCommitteeDataContainer.html" xlink:actuate="onRequest" xlink:href="ViewRiksdagenCommitteeDataContainer.html" xlink:show="new" xlink:title="ViewRiksdagenCommitteeDataContainer.html" xlink:type="simple"><rect fill="#F1F1F1" height="86.1358" rx="2.5" ry="2.5" style="stroke:#181818;stroke-width:0.5;" width="377.8186" x="954" y="354.5"/><ellipse cx="1004.7358" cy="370.5" fill="#ADD1B2" rx="11" ry="11" style="stroke:#181818;stroke-width:1;"/><path d="M1007.7046,376.1406 Q1007.1264,376.4375 1006.4858,376.5781 Q1005.8452,376.7344 1005.1421,376.7344 Q1002.6421,376.7344 1001.3139,375.0938 Q1000.0014,373.4375 1000.0014,370.3125 Q1000.0014,367.1875 1001.3139,365.5313 Q1002.6421,363.875 1005.1421,363.875 Q1005.8452,363.875 1006.4858,364.0313 Q1007.1421,364.1875 1007.7046,364.4844 L1007.7046,367.2031 Q1007.0796,366.625 1006.4858,366.3594 Q1005.8921,366.0781 1005.2671,366.0781 Q1003.9233,366.0781 1003.2358,367.1563 Q1002.5483,368.2188 1002.5483,370.3125 Q1002.5483,372.4063 1003.2358,373.4844 Q1003.9233,374.5469 1005.2671,374.5469 Q1005.8921,374.5469 1006.4858,374.2813 Q1007.0796,374 1007.7046,373.4219 L1007.7046,376.1406 Z " fill="#000000"/><text fill="#000000" font-family="sans-serif" font-size="14" lengthAdjust="spacing" textLength="267.847" x="1025.2358" y="375.932">ViewRiksdagenCommitteeDataContainer</text><line style="stroke:#181818;stroke-width:0.5;" x1="955" x2="1330.8186" y1="386.5" y2="386.5"/><line style="stroke:#181818;stroke-width:0.5;" x1="955" x2="1330.8186" y1="394.5" y2="394.5"/><ellipse cx="965" cy="409.534" fill="#84BE84" rx="3" ry="3" style="stroke:#038048;stroke-width:1;"/><text fill="#000000" font-family="sans-serif" font-size="14" lengthAdjust="spacing" textLength="351.8186" x="974" y="413.4659">ViewRiksdagenCommitteeDataContainer(DataViewer)</text><ellipse cx="965" cy="428.6019" fill="#84BE84" rx="3" ry="3" style="stroke:#038048;stroke-width:1;"/><text fill="#000000" font-family="sans-serif" font-size="14" lengthAdjust="spacing" textLength="255.779" x="974" y="432.5339">load(String): ViewRiksdagenCommittee</text></a></g><!--class SecurityAuthenticationProvider--><g class="entity" data-entity="SecurityAuthenticationProvider" data-source-line="55" data-uid="ent0011" id="entity_SecurityAuthenticationProvider"><a href="SecurityAuthenticationProvider.html" target="_top" title="SecurityAuthenticationProvider.html" xlink:actuate="onRequest" xlink:href="SecurityAuthenticationProvider.html" xlink:show="new" xlink:title="SecurityAuthenticationProvider.html" xlink:type="simple"><rect fill="#F1F1F1" height="86.1358" rx="2.5" ry="2.5" style="stroke:#181818;stroke-width:0.5;" width="318.5009" x="22.5" y="175.5"/><ellipse cx="74.9228" cy="191.5" fill="#ADD1B2" rx="11" ry="11" style="stroke:#181818;stroke-width:1;"/><path d="M77.8916,197.1406 Q77.3134,197.4375 76.6728,197.5781 Q76.0322,197.7344 75.3291,197.7344 Q72.8291,197.7344 71.5009,196.0938 Q70.1884,194.4375 70.1884,191.3125 Q70.1884,188.1875 71.5009,186.5313 Q72.8291,184.875 75.3291,184.875 Q76.0322,184.875 76.6728,185.0313 Q77.3291,185.1875 77.8916,185.4844 L77.8916,188.2031 Q77.2666,187.625 76.6728,187.3594 Q76.0791,187.0781 75.4541,187.0781 Q74.1103,187.0781 73.4228,188.1563 Q72.7353,189.2188 72.7353,191.3125 Q72.7353,193.4063 73.4228,194.4844 Q74.1103,195.5469 75.4541,195.5469 Q76.0791,195.5469 76.6728,195.2813 Q77.2666,195 77.8916,194.4219 L77.8916,197.1406 Z " fill="#000000"/><text fill="#000000" font-family="sans-serif" font-size="14" lengthAdjust="spacing" textLength="205.1552" x="95.4228" y="196.932">SecurityAuthenticationProvider</text><line style="stroke:#181818;stroke-width:0.5;" x1="23.5" x2="340.0009" y1="207.5" y2="207.5"/><line style="stroke:#181818;stroke-width:0.5;" x1="23.5" x2="340.0009" y1="215.5" y2="215.5"/><ellipse cx="33.5" cy="230.534" fill="#84BE84" rx="3" ry="3" style="stroke:#038048;stroke-width:1;"/><text fill="#000000" font-family="sans-serif" font-size="14" lengthAdjust="spacing" textLength="292.5009" x="42.5" y="234.4659">authenticate(Authentication): Authentication</text><ellipse cx="33.5" cy="249.6019" fill="#84BE84" rx="3" ry="3" style="stroke:#038048;stroke-width:1;"/><text fill="#000000" font-family="sans-serif" font-size="14" lengthAdjust="spacing" textLength="183.7633" x="42.5" y="253.5339">supports(Class&lt;?&gt;): boolean</text></a></g><!--class AuthenticationProvider--><g class="entity" data-entity="AuthenticationProvider" data-source-line="63" data-uid="ent0013" id="entity_AuthenticationProvider"><rect fill="#F1F1F1" height="86.1358" rx="2.5" ry="2.5" style="stroke:#181818;stroke-width:0.5;" width="300.679" x="31.5" y="34"/><ellipse cx="106.1757" cy="50" fill="#B4A7E5" rx="11" ry="11" style="stroke:#181818;stroke-width:1;"/><path d="M102.0976,45.7656 L102.0976,43.6094 L109.4882,43.6094 L109.4882,45.7656 L107.0195,45.7656 L107.0195,53.8438 L109.4882,53.8438 L109.4882,56 L102.0976,56 L102.0976,53.8438 L104.5664,53.8438 L104.5664,45.7656 L102.0976,45.7656 Z " fill="#000000"/><text fill="#000000" font-family="sans-serif" font-size="14" font-style="italic" lengthAdjust="spacing" textLength="142.8275" x="126.6757" y="55.432">AuthenticationProvider</text><line style="stroke:#181818;stroke-width:0.5;" x1="32.5" x2="331.179" y1="66" y2="66"/><line style="stroke:#181818;stroke-width:0.5;" x1="32.5" x2="331.179" y1="74" y2="74"/><ellipse cx="42.5" cy="89.034" fill="#84BE84" rx="3" ry="3" style="stroke:#038048;stroke-width:1;"/><text fill="#000000" font-family="sans-serif" font-size="14" font-style="italic" lengthAdjust="spacing" textLength="274.679" x="51.5" y="92.9659">authenticate(Authentication): Authentication</text><ellipse cx="42.5" cy="108.1019" fill="#84BE84" rx="3" ry="3" style="stroke:#038048;stroke-width:1;"/><text fill="#000000" font-family="sans-serif" font-size="14" font-style="italic" lengthAdjust="spacing" textLength="174.2993" x="51.5" y="112.0339">supports(Class&lt;?&gt;): boolean</text></g><g class="link" data-entity-1="GovernmentBodyDataLoaderService" data-entity-2="GovernmentBodyDataLoaderServiceImpl" data-uid="lnk14" id="link_GovernmentBodyDataLoaderService_GovernmentBodyDataLoaderServiceImpl"><polygon fill="none" points="571,252.3775,565,270.3775,577,270.3775,571,252.3775" style="stroke:#181818;stroke-width:1;"/><path d="M571,270.3775 C571,302.1695 571,332.0662 571,363.7985" fill="none" style="stroke:#181818;stroke-width:1;stroke-dasharray:7,7;"/></g><g class="link" data-entity-1="CoalitionPredictionService" data-entity-2="CoalitionPredictionService.CoalitionScenario" data-uid="lnk15" id="link_CoalitionPredictionService_CoalitionPredictionService.CoalitionScenario"><ellipse cx="1873.6266" cy="273.7339" fill="#FFFFFF" rx="8" ry="8" style="stroke:#181818;stroke-width:1;"/><line style="stroke:#181818;stroke-width:1;" x1="1866.1041" x2="1881.1491" y1="276.4564" y2="271.0114"/><line style="stroke:#181818;stroke-width:1;" x1="1870.9041" x2="1876.3491" y1="266.2114" y2="281.2564"/><path d="M1866.1041,276.4564 C1834.0172,288.0691 1815.3162,295.054 1784,307 C1780.6997,308.2589 1777.3738,309.5329 1774.0277,310.8196" fill="none" style="stroke:#181818;stroke-width:1;"/></g><g class="link" data-entity-1="CoalitionPredictionService" data-entity-2="CoalitionPredictionServiceImpl" data-uid="lnk16" id="link_CoalitionPredictionService_CoalitionPredictionServiceImpl"><polygon fill="none" points="2023.4968,271.1715,2016.293,288.7245,2028.2656,289.5362,2023.4968,271.1715" style="stroke:#181818;stroke-width:1;"/><path d="M2022.2793,289.1303 C2020.7089,312.2932 2020.0784,321.5938 2018.5075,344.7642" fill="none" style="stroke:#181818;stroke-width:1;stroke-dasharray:7,7;"/></g><g class="link" data-entity-1="AuthenticationProvider" data-entity-2="SecurityAuthenticationProvider" data-uid="lnk17" id="link_AuthenticationProvider_SecurityAuthenticationProvider"><polygon fill="none" points="182,120.2332,176,138.2332,188,138.2332,182,120.2332" style="stroke:#181818;stroke-width:1;"/><path d="M182,138.2332 C182,155.7151 182,157.9435 182,175.4104" fill="none" style="stroke:#181818;stroke-width:1;stroke-dasharray:7,7;"/></g><g class="footer" data-source-line="80"><text fill="#888888" font-family="sans-serif" font-size="10" lengthAdjust="spacing" textLength="2.6" x="1117.2" y="508.69">&#160;</text><a href="https://github.com/talsma-ict/umldoclet" target="_top" title="https://github.com/talsma-ict/umldoclet" xlink:actuate="onRequest" xlink:href="https://github.com/talsma-ict/umldoclet" xlink:show="new" xlink:title="https://github.com/talsma-ict/umldoclet" xlink:type="simple"><text fill="#888888" font-family="sans-serif" font-size="10" lengthAdjust="spacing" textLength="76.7199" x="1080.14" y="522.31">UMLDoclet 2.2.4</text></a></g><!--SRC=[hLTHS-8s47w_Nw5E7qecO0p9PHg6IOUGz8uEcSa4hY-KXyKMjWPPSYMPX5xptxko7R03nkab30oszUtgsq-xQuaGGduXGnbl50j2Guma9cIQVBiR4n0-2QYW2Wpr2OiWe9eiA9SYq1cG4aXCA1MHo_JEaqfH7KlXCn6GFs0DHCj4ULGxdpwHTAhfY_T7q0NlYurzU2CzJWrf34yAbBfkvwBLTRiNP0fSHq16mwcJUzlPT9skSqxGDsSU5HfT9iAdAgKrYC73lt4sqYHhgZIJ0ctSt8yDrPF201EQnA2CjY7TSn36SkquEFzdf-EInc0oBfDpBrDoJJ9G0XAVFCY_assyFyKA0gJCOICJGtH43GX8XpIIrXJd0eC2zdgP0J9TeSv89d92lEwUEHu3HrErHlOEYs9ElcTG-_4uQ4s-I8n8H5IOQ-blRi30M086FyciHjPeDdi3oWbDnETpd84KFgSSSVlMe-Lj59jDOuYwqIVpG9UuzY7rRzS8EkcHjMJ-ri_pZZD3k5g2Hr56uCpWIjmhwZFFNkLaa6xru66Mts6XZGBFF9FJE3FPkj2DYL6OaiXgpBJfRmScc16WcBogT1LGC-0iI2E_0_JojFDr1t4_kscMhczaik3qgjgf1znBE2R-nC228PND29FrgP6IoxnSDSbs7bJia93PuX_HQI_CuxBkmIlIOG_tYZVIRH8_rI2_UH4cZwZi3XM-nufZL3TUrYTtjOURIWDyGi6aqA8iMqzABd99BIHZiOTw9Nk5hssSqqrCBIYZjOUxvj9xeBYSDjD25X-07ap_Fnbzj8LaVyEi-L3rEsQ8L1jSgMF3zINWAPI9bcmRGvim_Id1QgN2rmGNdc68_u3DLYHTGbVWccHqsBuwGw-bD9PNV4ENa73KLInPW14U7gZ8kZoW8Z9HgUQDDpMRclPNto3hDV_OFbbNtdbRFmwe4FET3VBZkkA7ja9RCGzifNryWugXZ29c32tNG5vNDQWArTvWsR1t5aVLoVvBT2VIOLVLeKseboWKPu3xBTISUP0jkLmpFutgEA0Y8DY1QQDiYHpB3ygMEebZYTkalAVyPjl7GafEGRmEuhcyiv4gS7HiPLWgYEYZL2lStcJa7IXDMQ2xg-CA1QghyeU3B3fvMxo5S8ziu7gzkbxK_zTntkN1bduzZIFxhzDMwqTjz_SHxs9IhyNn3fXE_Z-IhjUhoB1w8iThCCkBlZQRujjoYU_0lVJzYXiEDMPYDPGS3mS__tfuz9izuN1iEtYeybQ2OfzmNsLZlrsOBv_hBp6RXSR4kjTk1yo4oSB1iDecFLsrKC1s4d4_ErQzEc3Dv_c1wSlsv6OFFottlDNfJ3kVU-uPVftk-QLxqJq_kpnrkptNdTqcIiQqFJ7IMuMIH_F_0000]--></g></svg>