<?xml version="1.0" encoding="UTF-8" standalone="no"?><svg xmlns="http://www.w3.org/2000/svg" xmlns:xlink="http://www.w3.org/1999/xlink" contentStyleType="text/css" height="233px" preserveAspectRatio="none" style="width:402px;height:233px;background:#FFFFFF;" version="1.1" viewBox="0 0 402 233" width="402px" zoomAndPan="magnify"><defs/><g><!--MD5=[ed4fefd0ff5cd1bdd7c46e5ff412eac5]
class com.hack23.cia.web.impl.ui.application.views.pageclicklistener.DeleteAccountClickListener--><a href="DeleteAccountClickListener.html" target="_top" title="DeleteAccountClickListener.html" xlink:actuate="onRequest" xlink:href="DeleteAccountClickListener.html" xlink:show="new" xlink:title="DeleteAccountClickListener.html" xlink:type="simple"><g id="elem_com.hack23.cia.web.impl.ui.application.views.pageclicklistener.DeleteAccountClickListener"><rect codeLine="5" fill="#F1F1F1" height="78.5313" id="com.hack23.cia.web.impl.ui.application.views.pageclicklistener.DeleteAccountClickListener" rx="2.5" ry="2.5" style="stroke:#181818;stroke-width:0.5;" width="388" x="7" y="129"/><ellipse cx="49" cy="147.9688" fill="#ADD1B2" rx="11" ry="11" style="stroke:#181818;stroke-width:1.0;"/><path d="M51.9688,153.6094 Q51.3906,153.9063 50.75,154.0469 Q50.1094,154.2031 49.4063,154.2031 Q46.9063,154.2031 45.5781,152.5625 Q44.2656,150.9063 44.2656,147.7813 Q44.2656,144.6563 45.5781,143 Q46.9063,141.3438 49.4063,141.3438 Q50.1094,141.3438 50.75,141.5 Q51.4063,141.6563 51.9688,141.9531 L51.9688,144.6719 Q51.3438,144.0938 50.75,143.8281 Q50.1563,143.5469 49.5313,143.5469 Q48.1875,143.5469 47.5,144.625 Q46.8125,145.6875 46.8125,147.7813 Q46.8125,149.875 47.5,150.9531 Q48.1875,152.0156 49.5313,152.0156 Q50.1563,152.0156 50.75,151.75 Q51.3438,151.4688 51.9688,150.8906 L51.9688,153.6094 Z " fill="#000000"/><text fill="#000000" font-family="sans-serif" font-size="14" lengthAdjust="spacing" textLength="190" x="122" y="146.9951">DeleteAccountClickListener</text><text fill="#000000" font-family="sans-serif" font-size="10" lengthAdjust="spacing" textLength="296" x="69" y="159.5791">com.hack23.cia.web.impl.ui.application.views.pageclicklistener</text><line style="stroke:#181818;stroke-width:0.5;" x1="8" x2="394" y1="166.9375" y2="166.9375"/><ellipse cx="18" cy="177.9375" fill="#84BE84" rx="3" ry="3" style="stroke:#038048;stroke-width:1.0;"/><text fill="#000000" font-family="sans-serif" font-size="14" lengthAdjust="spacing" textLength="362" x="27" y="183.9326">DeleteAccountClickListener(DeleteAccountRequest)</text><ellipse cx="18" cy="194.2344" fill="#84BE84" rx="3" ry="3" style="stroke:#038048;stroke-width:1.0;"/><text fill="#000000" font-family="sans-serif" font-size="14" lengthAdjust="spacing" textLength="196" x="27" y="200.2295">buttonClick(ClickEvent): void</text></g></a><!--MD5=[c8b74d6c3e7b4a4086db53b8a4347040]
class com.vaadin.ui.Button.ClickListener--><g id="elem_com.vaadin.ui.Button.ClickListener"><rect codeLine="10" fill="#F1F1F1" height="62.2344" id="com.vaadin.ui.Button.ClickListener" rx="2.5" ry="2.5" style="stroke:#181818;stroke-width:0.5;" width="224" x="89" y="7"/><ellipse cx="128.3" cy="25.9688" fill="#B4A7E5" rx="11" ry="11" style="stroke:#181818;stroke-width:1.0;"/><path d="M124.2219,21.7344 L124.2219,19.5781 L131.6125,19.5781 L131.6125,21.7344 L129.1438,21.7344 L129.1438,29.8125 L131.6125,29.8125 L131.6125,31.9688 L124.2219,31.9688 L124.2219,29.8125 L126.6906,29.8125 L126.6906,21.7344 L124.2219,21.7344 Z " fill="#000000"/><text fill="#000000" font-family="sans-serif" font-size="14" font-style="italic" lengthAdjust="spacing" textLength="138" x="147.7" y="24.9951">Button.ClickListener</text><text fill="#000000" font-family="sans-serif" font-size="10" font-style="italic" lengthAdjust="spacing" textLength="70" x="181.7" y="37.5791">com.vaadin.ui</text><line style="stroke:#181818;stroke-width:0.5;" x1="90" x2="312" y1="44.9375" y2="44.9375"/><ellipse cx="100" cy="55.9375" fill="#84BE84" rx="3" ry="3" style="stroke:#038048;stroke-width:1.0;"/><text fill="#000000" font-family="sans-serif" font-size="14" font-style="italic" lengthAdjust="spacing" textLength="198" x="109" y="61.9326">buttonClick(ClickEvent): void</text></g><!--MD5=[d8704b9edf93c866e4f083dcb7bc8b83]
reverse link com.vaadin.ui.Button.ClickListener to com.hack23.cia.web.impl.ui.application.views.pageclicklistener.DeleteAccountClickListener--><g id="link_com.vaadin.ui.Button.ClickListener_com.hack23.cia.web.impl.ui.application.views.pageclicklistener.DeleteAccountClickListener"><path codeLine="14" d="M201,89.36 C201,102.47 201,116.38 201,128.78 " fill="none" id="com.vaadin.ui.Button.ClickListener-backto-com.hack23.cia.web.impl.ui.application.views.pageclicklistener.DeleteAccountClickListener" style="stroke:#181818;stroke-width:1.0;stroke-dasharray:7.0,7.0;"/><polygon fill="none" points="194,89.13,201,69.13,208,89.13,194,89.13" style="stroke:#181818;stroke-width:1.0;"/></g><rect height="11.6406" style="stroke:#00000000;stroke-width:1.0;fill:none;" width="186" x="101" y="213.5313"/><text fill="#888888" font-family="sans-serif" font-size="10" lengthAdjust="spacing" textLength="186" x="101" y="222.8135">UMLDoclet 2.0.18, PlantUML 1.2022.6</text><!--MD5=[1221f571585c3b2d220286389dc7e415]
@startuml
    set namespaceSeparator none
    hide empty fields
    hide empty methods

    class "<size:14>DeleteAccountClickListener\n<size:10>com.hack23.cia.web.impl.ui.application.views.pageclicklistener" as com.hack23.cia.web.impl.ui.application.views.pageclicklistener.DeleteAccountClickListener [[DeleteAccountClickListener.html]] {
        +DeleteAccountClickListener(DeleteAccountRequest)
        +buttonClick(ClickEvent): void
    }

    interface "<size:14>Button.ClickListener\n<size:10>com.vaadin.ui" as com.vaadin.ui.Button.ClickListener {
        {abstract} +buttonClick(ClickEvent): void
    }

    com.vaadin.ui.Button.ClickListener <|.. com.hack23.cia.web.impl.ui.application.views.pageclicklistener.DeleteAccountClickListener

    center footer UMLDoclet 2.0.18, PlantUML 1.2022.6
@enduml

PlantUML version 1.2022.6(Tue Jun 21 19:34:49 CEST 2022)
(APACHE source distribution)
Java Runtime: OpenJDK Runtime Environment
JVM: OpenJDK 64-Bit Server VM
Default Encoding: ANSI_X3.4-1968
Language: en
Country: US
--></g></svg>