<?xml version="1.0" encoding="UTF-8" standalone="no"?><svg xmlns="http://www.w3.org/2000/svg" xmlns:xlink="http://www.w3.org/1999/xlink" contentStyleType="text/css" height="233px" preserveAspectRatio="none" style="width:342px;height:233px;background:#FFFFFF;" version="1.1" viewBox="0 0 342 233" width="342px" zoomAndPan="magnify"><defs/><g><!--MD5=[c428a6606aa3f604259296c967adb273]
class com.hack23.cia.web.impl.ui.application.views.pageclicklistener.LogoutClickListener--><a href="LogoutClickListener.html" target="_top" title="LogoutClickListener.html" xlink:actuate="onRequest" xlink:href="LogoutClickListener.html" xlink:show="new" xlink:title="LogoutClickListener.html" xlink:type="simple"><g id="elem_com.hack23.cia.web.impl.ui.application.views.pageclicklistener.LogoutClickListener"><rect codeLine="5" fill="#F1F1F1" height="78.5313" id="com.hack23.cia.web.impl.ui.application.views.pageclicklistener.LogoutClickListener" rx="2.5" ry="2.5" style="stroke:#181818;stroke-width:0.5;" width="328" x="7" y="129"/><ellipse cx="22" cy="147.9688" fill="#ADD1B2" rx="11" ry="11" style="stroke:#181818;stroke-width:1.0;"/><path d="M24.9688,153.6094 Q24.3906,153.9063 23.75,154.0469 Q23.1094,154.2031 22.4063,154.2031 Q19.9063,154.2031 18.5781,152.5625 Q17.2656,150.9063 17.2656,147.7813 Q17.2656,144.6563 18.5781,143 Q19.9063,141.3438 22.4063,141.3438 Q23.1094,141.3438 23.75,141.5 Q24.4063,141.6563 24.9688,141.9531 L24.9688,144.6719 Q24.3438,144.0938 23.75,143.8281 Q23.1563,143.5469 22.5313,143.5469 Q21.1875,143.5469 20.5,144.625 Q19.8125,145.6875 19.8125,147.7813 Q19.8125,149.875 20.5,150.9531 Q21.1875,152.0156 22.5313,152.0156 Q23.1563,152.0156 23.75,151.75 Q24.3438,151.4688 24.9688,150.8906 L24.9688,153.6094 Z " fill="#000000"/><text fill="#000000" font-family="sans-serif" font-size="14" lengthAdjust="spacing" textLength="135" x="116.5" y="146.9951">LogoutClickListener</text><text fill="#000000" font-family="sans-serif" font-size="10" lengthAdjust="spacing" textLength="296" x="36" y="159.5791">com.hack23.cia.web.impl.ui.application.views.pageclicklistener</text><line style="stroke:#181818;stroke-width:0.5;" x1="8" x2="334" y1="166.9375" y2="166.9375"/><ellipse cx="18" cy="177.9375" fill="#84BE84" rx="3" ry="3" style="stroke:#038048;stroke-width:1.0;"/><text fill="#000000" font-family="sans-serif" font-size="14" lengthAdjust="spacing" textLength="252" x="27" y="183.9326">LogoutClickListener(LogoutRequest)</text><ellipse cx="18" cy="194.2344" fill="#84BE84" rx="3" ry="3" style="stroke:#038048;stroke-width:1.0;"/><text fill="#000000" font-family="sans-serif" font-size="14" lengthAdjust="spacing" textLength="196" x="27" y="200.2295">buttonClick(ClickEvent): void</text></g></a><!--MD5=[c8b74d6c3e7b4a4086db53b8a4347040]
class com.vaadin.ui.Button.ClickListener--><g id="elem_com.vaadin.ui.Button.ClickListener"><rect codeLine="10" fill="#F1F1F1" height="62.2344" id="com.vaadin.ui.Button.ClickListener" rx="2.5" ry="2.5" style="stroke:#181818;stroke-width:0.5;" width="224" x="59" y="7"/><ellipse cx="98.3" cy="25.9688" fill="#B4A7E5" rx="11" ry="11" style="stroke:#181818;stroke-width:1.0;"/><path d="M94.2219,21.7344 L94.2219,19.5781 L101.6125,19.5781 L101.6125,21.7344 L99.1438,21.7344 L99.1438,29.8125 L101.6125,29.8125 L101.6125,31.9688 L94.2219,31.9688 L94.2219,29.8125 L96.6906,29.8125 L96.6906,21.7344 L94.2219,21.7344 Z " fill="#000000"/><text fill="#000000" font-family="sans-serif" font-size="14" font-style="italic" lengthAdjust="spacing" textLength="138" x="117.7" y="24.9951">Button.ClickListener</text><text fill="#000000" font-family="sans-serif" font-size="10" font-style="italic" lengthAdjust="spacing" textLength="70" x="151.7" y="37.5791">com.vaadin.ui</text><line style="stroke:#181818;stroke-width:0.5;" x1="60" x2="282" y1="44.9375" y2="44.9375"/><ellipse cx="70" cy="55.9375" fill="#84BE84" rx="3" ry="3" style="stroke:#038048;stroke-width:1.0;"/><text fill="#000000" font-family="sans-serif" font-size="14" font-style="italic" lengthAdjust="spacing" textLength="198" x="79" y="61.9326">buttonClick(ClickEvent): void</text></g><!--MD5=[89b417a8c316e5a20e17558f01c45dfe]
reverse link com.vaadin.ui.Button.ClickListener to com.hack23.cia.web.impl.ui.application.views.pageclicklistener.LogoutClickListener--><g id="link_com.vaadin.ui.Button.ClickListener_com.hack23.cia.web.impl.ui.application.views.pageclicklistener.LogoutClickListener"><path codeLine="14" d="M171,89.36 C171,102.47 171,116.38 171,128.78 " fill="none" id="com.vaadin.ui.Button.ClickListener-backto-com.hack23.cia.web.impl.ui.application.views.pageclicklistener.LogoutClickListener" style="stroke:#181818;stroke-width:1.0;stroke-dasharray:7.0,7.0;"/><polygon fill="none" points="164,89.13,171,69.13,178,89.13,164,89.13" style="stroke:#181818;stroke-width:1.0;"/></g><rect height="11.6406" style="stroke:#00000000;stroke-width:1.0;fill:none;" width="186" x="71" y="213.5313"/><text fill="#888888" font-family="sans-serif" font-size="10" lengthAdjust="spacing" textLength="186" x="71" y="222.8135">UMLDoclet 2.0.18, PlantUML 1.2022.6</text><!--MD5=[e4508bf1279e2ca8e781183db83f4d7a]
@startuml
    set namespaceSeparator none
    hide empty fields
    hide empty methods

    class "<size:14>LogoutClickListener\n<size:10>com.hack23.cia.web.impl.ui.application.views.pageclicklistener" as com.hack23.cia.web.impl.ui.application.views.pageclicklistener.LogoutClickListener [[LogoutClickListener.html]] {
        +LogoutClickListener(LogoutRequest)
        +buttonClick(ClickEvent): void
    }

    interface "<size:14>Button.ClickListener\n<size:10>com.vaadin.ui" as com.vaadin.ui.Button.ClickListener {
        {abstract} +buttonClick(ClickEvent): void
    }

    com.vaadin.ui.Button.ClickListener <|.. com.hack23.cia.web.impl.ui.application.views.pageclicklistener.LogoutClickListener

    center footer UMLDoclet 2.0.18, PlantUML 1.2022.6
@enduml

PlantUML version 1.2022.6(Tue Jun 21 19:34:49 CEST 2022)
(APACHE source distribution)
Java Runtime: OpenJDK Runtime Environment
JVM: OpenJDK 64-Bit Server VM
Default Encoding: ANSI_X3.4-1968
Language: en
Country: US
--></g></svg>