<?xml version="1.0" encoding="UTF-8" standalone="no"?><svg xmlns="http://www.w3.org/2000/svg" xmlns:xlink="http://www.w3.org/1999/xlink" contentStyleType="text/css" height="233px" preserveAspectRatio="none" style="width:376px;height:233px;background:#FFFFFF;" version="1.1" viewBox="0 0 376 233" width="376px" zoomAndPan="magnify"><defs/><g><!--MD5=[8fb7351b23c1c5a0ebd36c342a94b581]
class com.hack23.cia.web.impl.ui.application.views.pageclicklistener.RegisterUserClickListener--><a href="RegisterUserClickListener.html" target="_top" title="RegisterUserClickListener.html" xlink:actuate="onRequest" xlink:href="RegisterUserClickListener.html" xlink:show="new" xlink:title="RegisterUserClickListener.html" xlink:type="simple"><g id="elem_com.hack23.cia.web.impl.ui.application.views.pageclicklistener.RegisterUserClickListener"><rect codeLine="5" fill="#F1F1F1" height="78.5313" id="com.hack23.cia.web.impl.ui.application.views.pageclicklistener.RegisterUserClickListener" rx="2.5" ry="2.5" style="stroke:#181818;stroke-width:0.5;" width="362" x="7" y="129"/><ellipse cx="37.3" cy="147.9688" fill="#ADD1B2" rx="11" ry="11" style="stroke:#181818;stroke-width:1.0;"/><path d="M40.2688,153.6094 Q39.6906,153.9063 39.05,154.0469 Q38.4094,154.2031 37.7063,154.2031 Q35.2063,154.2031 33.8781,152.5625 Q32.5656,150.9063 32.5656,147.7813 Q32.5656,144.6563 33.8781,143 Q35.2063,141.3438 37.7063,141.3438 Q38.4094,141.3438 39.05,141.5 Q39.7063,141.6563 40.2688,141.9531 L40.2688,144.6719 Q39.6438,144.0938 39.05,143.8281 Q38.4563,143.5469 37.8313,143.5469 Q36.4875,143.5469 35.8,144.625 Q35.1125,145.6875 35.1125,147.7813 Q35.1125,149.875 35.8,150.9531 Q36.4875,152.0156 37.8313,152.0156 Q38.4563,152.0156 39.05,151.75 Q39.6438,151.4688 40.2688,150.8906 L40.2688,153.6094 Z " fill="#000000"/><text fill="#000000" font-family="sans-serif" font-size="14" lengthAdjust="spacing" textLength="177" x="114.2" y="146.9951">RegisterUserClickListener</text><text fill="#000000" font-family="sans-serif" font-size="10" lengthAdjust="spacing" textLength="296" x="54.7" y="159.5791">com.hack23.cia.web.impl.ui.application.views.pageclicklistener</text><line style="stroke:#181818;stroke-width:0.5;" x1="8" x2="368" y1="166.9375" y2="166.9375"/><ellipse cx="18" cy="177.9375" fill="#84BE84" rx="3" ry="3" style="stroke:#038048;stroke-width:1.0;"/><text fill="#000000" font-family="sans-serif" font-size="14" lengthAdjust="spacing" textLength="336" x="27" y="183.9326">RegisterUserClickListener(RegisterUserRequest)</text><ellipse cx="18" cy="194.2344" fill="#84BE84" rx="3" ry="3" style="stroke:#038048;stroke-width:1.0;"/><text fill="#000000" font-family="sans-serif" font-size="14" lengthAdjust="spacing" textLength="196" x="27" y="200.2295">buttonClick(ClickEvent): void</text></g></a><!--MD5=[c8b74d6c3e7b4a4086db53b8a4347040]
class com.vaadin.ui.Button.ClickListener--><g id="elem_com.vaadin.ui.Button.ClickListener"><rect codeLine="10" fill="#F1F1F1" height="62.2344" id="com.vaadin.ui.Button.ClickListener" rx="2.5" ry="2.5" style="stroke:#181818;stroke-width:0.5;" width="224" x="76" y="7"/><ellipse cx="115.3" cy="25.9688" fill="#B4A7E5" rx="11" ry="11" style="stroke:#181818;stroke-width:1.0;"/><path d="M111.2219,21.7344 L111.2219,19.5781 L118.6125,19.5781 L118.6125,21.7344 L116.1438,21.7344 L116.1438,29.8125 L118.6125,29.8125 L118.6125,31.9688 L111.2219,31.9688 L111.2219,29.8125 L113.6906,29.8125 L113.6906,21.7344 L111.2219,21.7344 Z " fill="#000000"/><text fill="#000000" font-family="sans-serif" font-size="14" font-style="italic" lengthAdjust="spacing" textLength="138" x="134.7" y="24.9951">Button.ClickListener</text><text fill="#000000" font-family="sans-serif" font-size="10" font-style="italic" lengthAdjust="spacing" textLength="70" x="168.7" y="37.5791">com.vaadin.ui</text><line style="stroke:#181818;stroke-width:0.5;" x1="77" x2="299" y1="44.9375" y2="44.9375"/><ellipse cx="87" cy="55.9375" fill="#84BE84" rx="3" ry="3" style="stroke:#038048;stroke-width:1.0;"/><text fill="#000000" font-family="sans-serif" font-size="14" font-style="italic" lengthAdjust="spacing" textLength="198" x="96" y="61.9326">buttonClick(ClickEvent): void</text></g><!--MD5=[0556275de25f99aa1cba7e0da00358b0]
reverse link com.vaadin.ui.Button.ClickListener to com.hack23.cia.web.impl.ui.application.views.pageclicklistener.RegisterUserClickListener--><g id="link_com.vaadin.ui.Button.ClickListener_com.hack23.cia.web.impl.ui.application.views.pageclicklistener.RegisterUserClickListener"><path codeLine="14" d="M188,89.36 C188,102.47 188,116.38 188,128.78 " fill="none" id="com.vaadin.ui.Button.ClickListener-backto-com.hack23.cia.web.impl.ui.application.views.pageclicklistener.RegisterUserClickListener" style="stroke:#181818;stroke-width:1.0;stroke-dasharray:7.0,7.0;"/><polygon fill="none" points="181,89.13,188,69.13,195,89.13,181,89.13" style="stroke:#181818;stroke-width:1.0;"/></g><rect height="11.6406" style="stroke:#00000000;stroke-width:1.0;fill:none;" width="186" x="88" y="213.5313"/><text fill="#888888" font-family="sans-serif" font-size="10" lengthAdjust="spacing" textLength="186" x="88" y="222.8135">UMLDoclet 2.0.18, PlantUML 1.2022.6</text><!--MD5=[042fb9f18d8451b9e5436e2bf176f7e4]
@startuml
    set namespaceSeparator none
    hide empty fields
    hide empty methods

    class "<size:14>RegisterUserClickListener\n<size:10>com.hack23.cia.web.impl.ui.application.views.pageclicklistener" as com.hack23.cia.web.impl.ui.application.views.pageclicklistener.RegisterUserClickListener [[RegisterUserClickListener.html]] {
        +RegisterUserClickListener(RegisterUserRequest)
        +buttonClick(ClickEvent): void
    }

    interface "<size:14>Button.ClickListener\n<size:10>com.vaadin.ui" as com.vaadin.ui.Button.ClickListener {
        {abstract} +buttonClick(ClickEvent): void
    }

    com.vaadin.ui.Button.ClickListener <|.. com.hack23.cia.web.impl.ui.application.views.pageclicklistener.RegisterUserClickListener

    center footer UMLDoclet 2.0.18, PlantUML 1.2022.6
@enduml

PlantUML version 1.2022.6(Tue Jun 21 19:34:49 CEST 2022)
(APACHE source distribution)
Java Runtime: OpenJDK Runtime Environment
JVM: OpenJDK 64-Bit Server VM
Default Encoding: ANSI_X3.4-1968
Language: en
Country: US
--></g></svg>