<?xml version="1.0" encoding="UTF-8" standalone="no"?><svg xmlns="http://www.w3.org/2000/svg" xmlns:xlink="http://www.w3.org/1999/xlink" contentScriptType="application/ecmascript" contentStyleType="text/css" height="231px" preserveAspectRatio="none" style="width:345px;height:231px;" version="1.1" viewBox="0 0 345 231" width="345px" zoomAndPan="magnify"><defs><filter height="300%" id="f1dc60g5z6hl5r" width="300%" x="-1" y="-1"><feGaussianBlur result="blurOut" stdDeviation="2.0"/><feColorMatrix in="blurOut" result="blurOut2" type="matrix" values="0 0 0 0 0 0 0 0 0 0 0 0 0 0 0 0 0 0 .4 0"/><feOffset dx="4.0" dy="4.0" in="blurOut2" result="blurOut3"/><feBlend in="SourceGraphic" in2="blurOut3" mode="normal"/></filter></defs><g><!--class com.hack23.cia.web.impl.ui.application.views.pageclicklistener.RegisterUserClickListener--><a href="RegisterUserClickListener.html" target="_top" xlink:actuate="onRequest" xlink:show="new" xlink:title="RegisterUserClickListener.html" xlink:type="simple"><rect fill="#FEFECE" filter="url(#f1dc60g5z6hl5r)" height="71.5469" id="com.hack23.cia.web.impl.ui.application.views.pageclicklistener.RegisterUserClickListener" style="stroke: #A80036; stroke-width: 1.5;" width="328" x="6" y="127"/><ellipse cx="21" cy="145.9688" fill="#ADD1B2" rx="11" ry="11" style="stroke: #A80036; stroke-width: 1.0;"/><path d="M23.9688,151.6094 Q23.3906,151.9063 22.75,152.0469 Q22.1094,152.2031 21.4063,152.2031 Q18.9063,152.2031 17.5781,150.5625 Q16.2656,148.9063 16.2656,145.7813 Q16.2656,142.6563 17.5781,141 Q18.9063,139.3438 21.4063,139.3438 Q22.1094,139.3438 22.75,139.5 Q23.4063,139.6563 23.9688,139.9531 L23.9688,142.6719 Q23.3438,142.0938 22.75,141.8281 Q22.1563,141.5469 21.5313,141.5469 Q20.1875,141.5469 19.5,142.625 Q18.8125,143.6875 18.8125,145.7813 Q18.8125,147.875 19.5,148.9531 Q20.1875,150.0156 21.5313,150.0156 Q22.1563,150.0156 22.75,149.75 Q23.3438,149.4688 23.9688,148.8906 L23.9688,151.6094 Z "/><text fill="#000000" font-family="sans-serif" font-size="14" lengthAdjust="spacingAndGlyphs" textLength="177" x="94.5" y="144.9951">RegisterUserClickListener</text><text fill="#000000" font-family="sans-serif" font-size="10" lengthAdjust="spacingAndGlyphs" textLength="296" x="35" y="157.5791">com.hack23.cia.web.impl.ui.application.views.pageclicklistener</text><line style="stroke: #A80036; stroke-width: 1.5;" x1="7" x2="333" y1="164.9375" y2="164.9375"/><ellipse cx="17" cy="176.8398" fill="#84BE84" rx="3" ry="3" style="stroke: #038048; stroke-width: 1.0;"/><text fill="#000000" font-family="sans-serif" font-size="11" lengthAdjust="spacingAndGlyphs" textLength="274" x="26" y="179.1479">RegisterUserClickListener(RegisterUserRequest)</text><ellipse cx="17" cy="189.6445" fill="#84BE84" rx="3" ry="3" style="stroke: #038048; stroke-width: 1.0;"/><text fill="#000000" font-family="sans-serif" font-size="11" lengthAdjust="spacingAndGlyphs" textLength="158" x="26" y="191.9526">buttonClick(ClickEvent): void</text></a><!--class com.vaadin.ui.Button.ClickListener--><rect fill="#FEFECE" filter="url(#f1dc60g5z6hl5r)" height="58.7422" id="com.vaadin.ui.Button.ClickListener" style="stroke: #A80036; stroke-width: 1.5;" width="186" x="77" y="8"/><ellipse cx="99.2" cy="26.9688" fill="#B4A7E5" rx="11" ry="11" style="stroke: #A80036; stroke-width: 1.0;"/><path d="M95.1219,22.7344 L95.1219,20.5781 L102.5125,20.5781 L102.5125,22.7344 L100.0438,22.7344 L100.0438,30.8125 L102.5125,30.8125 L102.5125,32.9688 L95.1219,32.9688 L95.1219,30.8125 L97.5906,30.8125 L97.5906,22.7344 L95.1219,22.7344 Z "/><text fill="#000000" font-family="sans-serif" font-size="14" font-style="italic" lengthAdjust="spacingAndGlyphs" textLength="138" x="114.8" y="25.9951">Button.ClickListener</text><text fill="#000000" font-family="sans-serif" font-size="10" font-style="italic" lengthAdjust="spacingAndGlyphs" textLength="70" x="148.8" y="38.5791">com.vaadin.ui</text><line style="stroke: #A80036; stroke-width: 1.5;" x1="78" x2="262" y1="45.9375" y2="45.9375"/><ellipse cx="88" cy="57.8398" fill="#84BE84" rx="3" ry="3" style="stroke: #038048; stroke-width: 1.0;"/><text fill="#000000" font-family="sans-serif" font-size="11" font-style="italic" lengthAdjust="spacingAndGlyphs" textLength="160" x="97" y="60.1479">buttonClick(ClickEvent): void</text><!--link com.vaadin.ui.Button.ClickListener to com.hack23.cia.web.impl.ui.application.views.pageclicklistener.RegisterUserClickListener--><path d="M170,87.5049 C170,100.6211 170,114.5128 170,126.7555 " fill="none" id="com.vaadin.ui.Button.ClickListener-com.hack23.cia.web.impl.ui.application.views.pageclicklistener.RegisterUserClickListener" style="stroke: #A80036; stroke-width: 1.0; stroke-dasharray: 7.0,7.0;"/><polygon fill="none" points="163.0001,87.2418,170,67.2417,177.0001,87.2417,163.0001,87.2418" style="stroke: #A80036; stroke-width: 1.0;"/><text fill="#888888" font-family="sans-serif" font-size="10" lengthAdjust="spacingAndGlyphs" textLength="186" x="83" y="218.2822">UMLDoclet 2.0.5, PlantUML 1.2019.08</text><!--
@startuml
    set namespaceSeparator none
    hide empty fields
    hide empty methods

    class "<size:14>RegisterUserClickListener\n<size:10>com.hack23.cia.web.impl.ui.application.views.pageclicklistener" as com.hack23.cia.web.impl.ui.application.views.pageclicklistener.RegisterUserClickListener [[RegisterUserClickListener.html]] {
        +RegisterUserClickListener(RegisterUserRequest)
        +buttonClick(ClickEvent): void
    }

    interface "<size:14>Button.ClickListener\n<size:10>com.vaadin.ui" as com.vaadin.ui.Button.ClickListener {
        {abstract} +buttonClick(ClickEvent): void
    }

    com.vaadin.ui.Button.ClickListener <|.. com.hack23.cia.web.impl.ui.application.views.pageclicklistener.RegisterUserClickListener

    center footer UMLDoclet 2.0.5, PlantUML 1.2019.08
@enduml

PlantUML version 1.2019.08(Sat Jul 13 21:25:14 CEST 2019)
(APACHE source distribution)
Java Runtime: OpenJDK Runtime Environment
JVM: OpenJDK 64-Bit Server VM
Java Version: 11.0.4+11-post-Ubuntu-1ubuntu219.04
Operating System: Linux
OS Version: 5.0.0-27-generic
Default Encoding: UTF-8
Language: en
Country: US
--></g></svg>