<?xml version="1.0" encoding="UTF-8" standalone="no"?><svg xmlns="http://www.w3.org/2000/svg" xmlns:xlink="http://www.w3.org/1999/xlink" contentScriptType="application/ecmascript" contentStyleType="text/css" height="197px" preserveAspectRatio="none" style="width:299px;height:197px;" version="1.1" viewBox="0 0 299 197" width="299px" zoomAndPan="magnify"><defs><filter height="300%" id="fv9q0vc38gjhx" width="300%" x="-1" y="-1"><feGaussianBlur result="blurOut" stdDeviation="2.0"/><feColorMatrix in="blurOut" result="blurOut2" type="matrix" values="0 0 0 0 0 0 0 0 0 0 0 0 0 0 0 0 0 0 .4 0"/><feOffset dx="4.0" dy="4.0" in="blurOut2" result="blurOut3"/><feBlend in="SourceGraphic" in2="blurOut3" mode="normal"/></filter></defs><g><!--class com.hack23.cia.service.api.action.admin.ManageUserAccountResponse--><a href="ManageUserAccountResponse.html" target="_top" xlink:actuate="onRequest" xlink:show="new" xlink:title="ManageUserAccountResponse.html" xlink:type="simple"><rect fill="#FEFECE" filter="url(#fv9q0vc38gjhx)" height="58.7422" id="com.hack23.cia.service.api.action.admin.ManageUserAccountResponse" style="stroke: #A80036; stroke-width: 1.5;" width="282" x="6" y="106"/><ellipse cx="36.75" cy="124.9688" fill="#ADD1B2" rx="11" ry="11" style="stroke: #A80036; stroke-width: 1.0;"/><path d="M39.7188,130.6094 Q39.1406,130.9063 38.5,131.0469 Q37.8594,131.2031 37.1563,131.2031 Q34.6563,131.2031 33.3281,129.5625 Q32.0156,127.9063 32.0156,124.7813 Q32.0156,121.6563 33.3281,120 Q34.6563,118.3438 37.1563,118.3438 Q37.8594,118.3438 38.5,118.5 Q39.1563,118.6563 39.7188,118.9531 L39.7188,121.6719 Q39.0938,121.0938 38.5,120.8281 Q37.9063,120.5469 37.2813,120.5469 Q35.9375,120.5469 35.25,121.625 Q34.5625,122.6875 34.5625,124.7813 Q34.5625,126.875 35.25,127.9531 Q35.9375,129.0156 37.2813,129.0156 Q37.9063,129.0156 38.5,128.75 Q39.0938,128.4688 39.7188,127.8906 L39.7188,130.6094 Z "/><text fill="#000000" font-family="sans-serif" font-size="14" lengthAdjust="spacingAndGlyphs" textLength="215" x="54.25" y="123.9951">ManageUserAccountResponse</text><text fill="#000000" font-family="sans-serif" font-size="10" lengthAdjust="spacingAndGlyphs" textLength="193" x="65.25" y="136.5791">com.hack23.cia.service.api.action.admin</text><line style="stroke: #A80036; stroke-width: 1.5;" x1="7" x2="287" y1="143.9375" y2="143.9375"/><ellipse cx="17" cy="155.8398" fill="#84BE84" rx="3" ry="3" style="stroke: #038048; stroke-width: 1.0;"/><text fill="#000000" font-family="sans-serif" font-size="11" lengthAdjust="spacingAndGlyphs" textLength="256" x="26" y="158.1479">ManageUserAccountResponse(ServiceResult)</text></a><!--class com.hack23.cia.service.api.action.common.AbstractResponse--><a href="../common/AbstractResponse.html" target="_top" xlink:actuate="onRequest" xlink:show="new" xlink:title="../common/AbstractResponse.html" xlink:type="simple"><rect fill="#FEFECE" filter="url(#fv9q0vc38gjhx)" height="37.9375" id="com.hack23.cia.service.api.action.common.AbstractResponse" style="stroke: #A80036; stroke-width: 1.5;" width="249" x="22.5" y="8"/><ellipse cx="37.5" cy="26.9688" fill="#A9DCDF" rx="11" ry="11" style="stroke: #A80036; stroke-width: 1.0;"/><path d="M37.6094,22.3125 L36.4531,27.3906 L38.7813,27.3906 L37.6094,22.3125 Z M36.125,20.0781 L39.1094,20.0781 L42.4688,32.4688 L40.0156,32.4688 L39.25,29.4063 L35.9688,29.4063 L35.2188,32.4688 L32.7813,32.4688 L36.125,20.0781 Z "/><text fill="#000000" font-family="sans-serif" font-size="14" font-style="italic" lengthAdjust="spacingAndGlyphs" textLength="126" x="97" y="25.9951">AbstractResponse</text><text fill="#000000" font-family="sans-serif" font-size="10" font-style="italic" lengthAdjust="spacingAndGlyphs" textLength="217" x="51.5" y="38.5791">com.hack23.cia.service.api.action.common</text></a><!--link com.hack23.cia.service.api.action.common.AbstractResponse to com.hack23.cia.service.api.action.admin.ManageUserAccountResponse--><path d="M147,66.3533 C147,79.4123 147,93.7197 147,105.9146 " fill="none" id="com.hack23.cia.service.api.action.common.AbstractResponse-com.hack23.cia.service.api.action.admin.ManageUserAccountResponse" style="stroke: #A80036; stroke-width: 1.0;"/><polygon fill="none" points="140.0001,66.1479,147,46.1479,154.0001,66.1478,140.0001,66.1479" style="stroke: #A80036; stroke-width: 1.0;"/><text fill="#888888" font-family="sans-serif" font-size="10" lengthAdjust="spacingAndGlyphs" textLength="186" x="60" y="184.2822">UMLDoclet 2.0.5, PlantUML 1.2019.08</text><!--
@startuml
    set namespaceSeparator none
    hide empty fields
    hide empty methods

    class "<size:14>ManageUserAccountResponse\n<size:10>com.hack23.cia.service.api.action.admin" as com.hack23.cia.service.api.action.admin.ManageUserAccountResponse [[ManageUserAccountResponse.html]] {
        +ManageUserAccountResponse(ServiceResult)
    }

    abstract class "<size:14>AbstractResponse\n<size:10>com.hack23.cia.service.api.action.common" as com.hack23.cia.service.api.action.common.AbstractResponse [[../common/AbstractResponse.html]]

    com.hack23.cia.service.api.action.common.AbstractResponse <|- - com.hack23.cia.service.api.action.admin.ManageUserAccountResponse

    center footer UMLDoclet 2.0.5, PlantUML 1.2019.08
@enduml

PlantUML version 1.2019.08(Sat Jul 13 21:25:14 CEST 2019)
(APACHE source distribution)
Java Runtime: OpenJDK Runtime Environment
JVM: OpenJDK 64-Bit Server VM
Java Version: 11.0.4+11-post-Ubuntu-1ubuntu219.04
Operating System: Linux
OS Version: 5.0.0-27-generic
Default Encoding: UTF-8
Language: en
Country: US
--></g></svg>