<svg xmlns="http://www.w3.org/2000/svg" xmlns:xlink="http://www.w3.org/1999/xlink" contentStyleType="text/css" height="278px" preserveAspectRatio="none" style="width:802px;height:278px;background:#FFFFFF;" version="1.1" viewBox="0 0 802 278" width="802px" zoomAndPan="magnify"><defs/><g><!--cluster com.hack23.cia.web.impl.ui.application.views.admin.datasummary.pagemode--><g id="cluster_com.hack23.cia.web.impl.ui.application.views.admin.datasummary.pagemode"><path d="M16.5,98 L565.066,98 A3.75,3.75 0 0 1 567.566,100.5 L574.566,123.0679 L792.5,123.0679 A2.5,2.5 0 0 1 795,125.5679 L795,238.5 A2.5,2.5 0 0 1 792.5,241 L16.5,241 A2.5,2.5 0 0 1 14,238.5 L14,100.5 A2.5,2.5 0 0 1 16.5,98 " fill="none" style="stroke:#000000;stroke-width:1.5;"/><line style="stroke:#000000;stroke-width:1.5;" x1="14" x2="574.566" y1="123.0679" y2="123.0679"/><text fill="#000000" font-family="sans-serif" font-size="14" font-weight="bold" lengthAdjust="spacing" textLength="547.566" x="18" y="114.9659">com.hack23.cia.web.impl.ui.application.views.admin.datasummary.pagemode</text></g><!--cluster com.hack23.cia.web.impl.ui.application.views.admin.system.pagemode--><g id="cluster_com.hack23.cia.web.impl.ui.application.views.admin.system.pagemode"><path d="M151.5,4 L651.7661,4 A3.75,3.75 0 0 1 654.2661,6.5 L661.2661,29.0679 L661.5,29.0679 A2.5,2.5 0 0 1 664,31.5679 L664,87.5 A2.5,2.5 0 0 1 661.5,90 L151.5,90 A2.5,2.5 0 0 1 149,87.5 L149,6.5 A2.5,2.5 0 0 1 151.5,4 " fill="none" style="stroke:#000000;stroke-width:1.5;"/><line style="stroke:#000000;stroke-width:1.5;" x1="149" x2="661.2661" y1="29.0679" y2="29.0679"/><text fill="#000000" font-family="sans-serif" font-size="14" font-weight="bold" lengthAdjust="spacing" textLength="499.2661" x="153" y="20.9659">com.hack23.cia.web.impl.ui.application.views.admin.system.pagemode</text></g><!--class DataSummaryOverviewPageModContentFactoryImpl--><a href="DataSummaryOverviewPageModContentFactoryImpl.html" target="_top" title="DataSummaryOverviewPageModContentFactoryImpl.html" xlink:actuate="onRequest" xlink:href="DataSummaryOverviewPageModContentFactoryImpl.html" xlink:show="new" xlink:title="DataSummaryOverviewPageModContentFactoryImpl.html" xlink:type="simple"><g id="elem_DataSummaryOverviewPageModContentFactoryImpl"><rect codeLine="12" fill="#F1F1F1" height="105.2038" id="DataSummaryOverviewPageModContentFactoryImpl" rx="2.5" ry="2.5" style="stroke:#181818;stroke-width:0.5;" width="381.2007" x="405.5" y="128"/><ellipse cx="420.5" cy="144" fill="#ADD1B2" rx="11" ry="11" style="stroke:#181818;stroke-width:1.0;"/><path d="M423.4688,149.6406 Q422.8906,149.9375 422.25,150.0781 Q421.6094,150.2344 420.9063,150.2344 Q418.4063,150.2344 417.0781,148.5938 Q415.7656,146.9375 415.7656,143.8125 Q415.7656,140.6875 417.0781,139.0313 Q418.4063,137.375 420.9063,137.375 Q421.6094,137.375 422.25,137.5313 Q422.9063,137.6875 423.4688,137.9844 L423.4688,140.7031 Q422.8438,140.125 422.25,139.8594 Q421.6563,139.5781 421.0313,139.5781 Q419.6875,139.5781 419,140.6563 Q418.3125,141.7188 418.3125,143.8125 Q418.3125,145.9063 419,146.9844 Q419.6875,148.0469 421.0313,148.0469 Q421.6563,148.0469 422.25,147.7813 Q422.8438,147.5 423.4688,146.9219 L423.4688,149.6406 Z " fill="#000000"/><text fill="#000000" font-family="sans-serif" font-size="14" lengthAdjust="spacing" textLength="349.2007" x="434.5" y="149.432">DataSummaryOverviewPageModContentFactoryImpl</text><line style="stroke:#181818;stroke-width:0.5;" x1="406.5" x2="785.7007" y1="160" y2="160"/><ellipse cx="416.5" cy="175.034" fill="none" rx="3" ry="3" style="stroke:#038048;stroke-width:1.0;"/><text fill="#000000" font-family="sans-serif" font-size="14" lengthAdjust="spacing" text-decoration="underline" textLength="86.8557" x="425.5" y="178.9659">NAME: String</text><line style="stroke:#181818;stroke-width:0.5;" x1="406.5" x2="785.7007" y1="187.0679" y2="187.0679"/><ellipse cx="416.5" cy="202.1019" fill="#84BE84" rx="3" ry="3" style="stroke:#038048;stroke-width:1.0;"/><text fill="#000000" font-family="sans-serif" font-size="14" lengthAdjust="spacing" textLength="305.4228" x="425.5" y="206.0339">createContent(String, MenuBar, Panel): Layout</text><ellipse cx="416.5" cy="221.1698" fill="#84BE84" rx="3" ry="3" style="stroke:#038048;stroke-width:1.0;"/><text fill="#000000" font-family="sans-serif" font-size="14" lengthAdjust="spacing" textLength="211.5112" x="425.5" y="225.1018">matches(String, String): boolean</text></g></a><!--class DataSummaryAuthorPageModContentFactoryImpl--><a href="DataSummaryAuthorPageModContentFactoryImpl.html" target="_top" title="DataSummaryAuthorPageModContentFactoryImpl.html" xlink:actuate="onRequest" xlink:href="DataSummaryAuthorPageModContentFactoryImpl.html" xlink:show="new" xlink:title="DataSummaryAuthorPageModContentFactoryImpl.html" xlink:type="simple"><g id="elem_DataSummaryAuthorPageModContentFactoryImpl"><rect codeLine="18" fill="#F1F1F1" height="105.2038" id="DataSummaryAuthorPageModContentFactoryImpl" rx="2.5" ry="2.5" style="stroke:#181818;stroke-width:0.5;" width="365.4088" x="22.5" y="128"/><ellipse cx="37.5" cy="144" fill="#ADD1B2" rx="11" ry="11" style="stroke:#181818;stroke-width:1.0;"/><path d="M40.4688,149.6406 Q39.8906,149.9375 39.25,150.0781 Q38.6094,150.2344 37.9063,150.2344 Q35.4063,150.2344 34.0781,148.5938 Q32.7656,146.9375 32.7656,143.8125 Q32.7656,140.6875 34.0781,139.0313 Q35.4063,137.375 37.9063,137.375 Q38.6094,137.375 39.25,137.5313 Q39.9063,137.6875 40.4688,137.9844 L40.4688,140.7031 Q39.8438,140.125 39.25,139.8594 Q38.6563,139.5781 38.0313,139.5781 Q36.6875,139.5781 36,140.6563 Q35.3125,141.7188 35.3125,143.8125 Q35.3125,145.9063 36,146.9844 Q36.6875,148.0469 38.0313,148.0469 Q38.6563,148.0469 39.25,147.7813 Q39.8438,147.5 40.4688,146.9219 L40.4688,149.6406 Z " fill="#000000"/><text fill="#000000" font-family="sans-serif" font-size="14" lengthAdjust="spacing" textLength="333.4088" x="51.5" y="149.432">DataSummaryAuthorPageModContentFactoryImpl</text><line style="stroke:#181818;stroke-width:0.5;" x1="23.5" x2="386.9088" y1="160" y2="160"/><ellipse cx="33.5" cy="175.034" fill="none" rx="3" ry="3" style="stroke:#038048;stroke-width:1.0;"/><text fill="#000000" font-family="sans-serif" font-size="14" lengthAdjust="spacing" text-decoration="underline" textLength="86.8557" x="42.5" y="178.9659">NAME: String</text><line style="stroke:#181818;stroke-width:0.5;" x1="23.5" x2="386.9088" y1="187.0679" y2="187.0679"/><ellipse cx="33.5" cy="202.1019" fill="#84BE84" rx="3" ry="3" style="stroke:#038048;stroke-width:1.0;"/><text fill="#000000" font-family="sans-serif" font-size="14" lengthAdjust="spacing" textLength="305.4228" x="42.5" y="206.0339">createContent(String, MenuBar, Panel): Layout</text><ellipse cx="33.5" cy="221.1698" fill="#84BE84" rx="3" ry="3" style="stroke:#038048;stroke-width:1.0;"/><text fill="#000000" font-family="sans-serif" font-size="14" lengthAdjust="spacing" textLength="211.5112" x="42.5" y="225.1018">matches(String, String): boolean</text></g></a><!--class AbstractAdminSystemPageModContentFactoryImpl--><a href="../../system/pagemode/AbstractAdminSystemPageModContentFactoryImpl.html" target="_top" title="../../system/pagemode/AbstractAdminSystemPageModContentFactoryImpl.html" xlink:actuate="onRequest" xlink:href="../../system/pagemode/AbstractAdminSystemPageModContentFactoryImpl.html" xlink:show="new" xlink:title="../../system/pagemode/AbstractAdminSystemPageModContentFactoryImpl.html" xlink:type="simple"><g id="elem_AbstractAdminSystemPageModContentFactoryImpl"><rect codeLine="27" fill="#F1F1F1" height="48" id="AbstractAdminSystemPageModContentFactoryImpl" rx="2.5" ry="2.5" style="stroke:#181818;stroke-width:0.5;" width="348.1188" x="161" y="34"/><ellipse cx="176" cy="50" fill="#A9DCDF" rx="11" ry="11" style="stroke:#181818;stroke-width:1.0;"/><path d="M176.1094,45.3438 L174.9531,50.4219 L177.2813,50.4219 L176.1094,45.3438 Z M174.625,43.1094 L177.6094,43.1094 L180.9688,55.5 L178.5156,55.5 L177.75,52.4375 L174.4688,52.4375 L173.7188,55.5 L171.2813,55.5 L174.625,43.1094 Z " fill="#000000"/><text fill="#000000" font-family="sans-serif" font-size="14" font-style="italic" lengthAdjust="spacing" textLength="316.1188" x="190" y="55.432">AbstractAdminSystemPageModContentFactoryImpl</text><line style="stroke:#181818;stroke-width:0.5;" x1="162" x2="508.1188" y1="66" y2="66"/><line style="stroke:#181818;stroke-width:0.5;" x1="162" x2="508.1188" y1="74" y2="74"/></g></a><polygon fill="none" points="385.0146,82.091,398.8419,95.0835,403.872,84.1886,385.0146,82.091" style="stroke:#181818;stroke-width:1.0;"/><path d="M401.357,89.6361 C429.5546,102.6545 449.6349,111.9253 484.2584,127.9105 " fill="none" style="stroke:#181818;stroke-width:1.0;"/><polygon fill="none" points="309.9347,82.2336,292.6548,90.0697,300.8124,98.8704,309.9347,82.2336" style="stroke:#181818;stroke-width:1.0;"/><path d="M296.7336,94.47 C282.7149,107.4642 277.8513,111.9725 260.6738,127.8946 " fill="none" style="stroke:#181818;stroke-width:1.0;"/><text fill="#888888" font-family="sans-serif" font-size="10" lengthAdjust="spacing" textLength="2.6" x="391.7" y="253.69">&#160;</text><a href="https://github.com/talsma-ict/umldoclet" target="_top" title="https://github.com/talsma-ict/umldoclet" xlink:actuate="onRequest" xlink:href="https://github.com/talsma-ict/umldoclet" xlink:show="new" xlink:title="https://github.com/talsma-ict/umldoclet" xlink:type="simple"><text fill="#888888" font-family="sans-serif" font-size="10" lengthAdjust="spacing" textLength="76.7199" x="354.64" y="267.31">UMLDoclet 2.2.1</text></a><!--SRC=[tLLDRzD04BtpAmPne5MJjUFqqwgGGbgWA86AfAUGmyJUngkiTytkkfLLyjyPVpGa1RL4vGAM9SVUcJVllPtD002yXhxE2YFcYGEdmIN2mjLm0AXYc7F53JeUWqXnpYtCkDHgRkj03fYxH1lGrzLRf8tXDjCg5ceE7_46mUhSHDoo5o-WAZM-Hxz5kuO-AygFPpgItC5EVtUDKk1t3jk17-p36ALD4IxwOzQW_Sm9MC0wGDXIH5nPWinLp4r5gvTXH8z1lTA26swiq8fo_0Qdb1ffvL0e2naQPqj9bnALAxbsM5cV7S5ERpJOvEQVLDnQq3CAynY-w6_vIkxBpE2S64iiTEx0fjoXmch94cVBgHGwyYyCwmGYkY2RYKlA4leTT5aaaDto6HDf9bak66OPIKH70jYDuBUMOPmAnM9qQFCqHLEmZ31I7NEugs7BAv9eBPnHrAYE-amsb02N53pKSP_aS-NUOKI4YWkg1fF9Dk4iSQcSJgach5rtrX7NQ0bxdth3yn16pb1lR8JiHOPJ4pI8EtL42uPSvM_HjE0I5PUx8Gmg5pTJKtIqjNQLL3yfUAQrvAXMqSj7dEXLJVo7FZmH_4-ui7nsjzd2EfwkDzfz2PnPPyYFnkPUyzehqqPLrcD6C-RHNQDxz-ZUDY2_Ri1oNVFpjORXLffElxVRV-iyX-4s1_8_q_l4mQktzzIwGl8tgxs_rjhH5DWyZH-AZ9k1K8k-blJd- -huzwjNvG2HGd6QMT52SUfc_q5JdNfhzPfQNzLaaZYNsT3pvi8b-OoH7PwhXbTRHCxBKndNK-l1_9fEctdqVZKOo-7IxWJju7ZSEGWF3iDkbnqTxX_l-vsJxfxV2Nr_SfuRdN5lv7IqIBHCfpy0]--></g></svg>