<?xml version="1.0" encoding="UTF-8" standalone="no"?><svg xmlns="http://www.w3.org/2000/svg" xmlns:xlink="http://www.w3.org/1999/xlink" contentScriptType="application/ecmascript" contentStyleType="text/css" height="362px" preserveAspectRatio="none" style="width:3337px;height:362px;" version="1.1" viewBox="0 0 3337 362" width="3337px" zoomAndPan="magnify"><defs><filter height="300%" id="fi2ouocyn1s00" width="300%" x="-1" y="-1"><feGaussianBlur result="blurOut" stdDeviation="2.0"/><feColorMatrix in="blurOut" result="blurOut2" type="matrix" values="0 0 0 0 0 0 0 0 0 0 0 0 0 0 0 0 0 0 .4 0"/><feOffset dx="4.0" dy="4.0" in="blurOut2" result="blurOut3"/><feBlend in="SourceGraphic" in2="blurOut3" mode="normal"/></filter></defs><g><!--cluster com.hack23.cia.service.api.action.user--><polygon fill="#FFFFFF" filter="url(#fi2ouocyn1s00)" points="14,124,327,124,334,146.2969,3315,146.2969,3315,322,14,322,14,124" style="stroke: #000000; stroke-width: 1.5;"/><line style="stroke: #000000; stroke-width: 1.5;" x1="14" x2="334" y1="146.2969" y2="146.2969"/><text fill="#000000" font-family="sans-serif" font-size="14" font-weight="bold" lengthAdjust="spacingAndGlyphs" textLength="307" x="18" y="138.9951">com.hack23.cia.service.api.action.user</text><!--cluster com.hack23.cia.service.api.action.common--><polygon fill="#FFFFFF" filter="url(#fi2ouocyn1s00)" points="1682,16,2026,16,2033,38.2969,2036,38.2969,2036,99,1682,99,1682,16" style="stroke: #000000; stroke-width: 1.5;"/><line style="stroke: #000000; stroke-width: 1.5;" x1="1682" x2="2033" y1="38.2969" y2="38.2969"/><text fill="#000000" font-family="sans-serif" font-size="14" font-weight="bold" lengthAdjust="spacingAndGlyphs" textLength="338" x="1686" y="30.9951">com.hack23.cia.service.api.action.common</text><!--class com.hack23.cia.service.api.action.user.SetGoogleAuthenticatorCredentialRequest--><a href="SetGoogleAuthenticatorCredentialRequest.html" target="_top" xlink:actuate="onRequest" xlink:show="new" xlink:title="SetGoogleAuthenticatorCredentialRequest.html" xlink:type="simple"><rect fill="#FEFECE" filter="url(#fi2ouocyn1s00)" height="99.2188" id="com.hack23.cia.service.api.action.user.SetGoogleAuthenticatorCredentialRequest" style="stroke: #A80036; stroke-width: 1.5;" width="299" x="3007.5" y="183"/><ellipse cx="3022.5" cy="199" fill="#ADD1B2" rx="11" ry="11" style="stroke: #A80036; stroke-width: 1.0;"/><path d="M3025.4688,204.6406 Q3024.8906,204.9375 3024.25,205.0781 Q3023.6094,205.2344 3022.9063,205.2344 Q3020.4063,205.2344 3019.0781,203.5938 Q3017.7656,201.9375 3017.7656,198.8125 Q3017.7656,195.6875 3019.0781,194.0313 Q3020.4063,192.375 3022.9063,192.375 Q3023.6094,192.375 3024.25,192.5313 Q3024.9063,192.6875 3025.4688,192.9844 L3025.4688,195.7031 Q3024.8438,195.125 3024.25,194.8594 Q3023.6563,194.5781 3023.0313,194.5781 Q3021.6875,194.5781 3021,195.6563 Q3020.3125,196.7188 3020.3125,198.8125 Q3020.3125,200.9063 3021,201.9844 Q3021.6875,203.0469 3023.0313,203.0469 Q3023.6563,203.0469 3024.25,202.7813 Q3024.8438,202.5 3025.4688,201.9219 L3025.4688,204.6406 Z "/><text fill="#000000" font-family="sans-serif" font-size="12" lengthAdjust="spacingAndGlyphs" textLength="267" x="3036.5" y="203.1543">SetGoogleAuthenticatorCredentialRequest</text><line style="stroke: #A80036; stroke-width: 1.5;" x1="3008.5" x2="3305.5" y1="215" y2="215"/><line style="stroke: #A80036; stroke-width: 1.5;" x1="3008.5" x2="3305.5" y1="223" y2="223"/><ellipse cx="3018.5" cy="234.9023" fill="#84BE84" rx="3" ry="3" style="stroke: #038048; stroke-width: 1.0;"/><text fill="#000000" font-family="sans-serif" font-size="11" lengthAdjust="spacingAndGlyphs" textLength="124" x="3027.5" y="237.2104">getSessionId(): String</text><ellipse cx="3018.5" cy="247.707" fill="#84BE84" rx="3" ry="3" style="stroke: #038048; stroke-width: 1.0;"/><text fill="#000000" font-family="sans-serif" font-size="11" lengthAdjust="spacingAndGlyphs" textLength="147" x="3027.5" y="250.0151">setSessionId(String): void</text><ellipse cx="3018.5" cy="260.5117" fill="#84BE84" rx="3" ry="3" style="stroke: #038048; stroke-width: 1.0;"/><text fill="#000000" font-family="sans-serif" font-size="11" lengthAdjust="spacingAndGlyphs" textLength="151" x="3027.5" y="262.8198">getUserpassword(): String</text><ellipse cx="3018.5" cy="273.3164" fill="#84BE84" rx="3" ry="3" style="stroke: #038048; stroke-width: 1.0;"/><text fill="#000000" font-family="sans-serif" font-size="11" lengthAdjust="spacingAndGlyphs" textLength="174" x="3027.5" y="275.6245">setUserpassword(String): void</text></a><!--class com.hack23.cia.service.api.action.user.SetGoogleAuthenticatorCredentialResponse--><a href="SetGoogleAuthenticatorCredentialResponse.html" target="_top" xlink:actuate="onRequest" xlink:show="new" xlink:title="SetGoogleAuthenticatorCredentialResponse.html" xlink:type="simple"><rect fill="#FEFECE" filter="url(#fi2ouocyn1s00)" height="163.2422" id="com.hack23.cia.service.api.action.user.SetGoogleAuthenticatorCredentialResponse" style="stroke: #A80036; stroke-width: 1.5;" width="359" x="1150.5" y="151"/><ellipse cx="1188" cy="167" fill="#ADD1B2" rx="11" ry="11" style="stroke: #A80036; stroke-width: 1.0;"/><path d="M1190.9688,172.6406 Q1190.3906,172.9375 1189.75,173.0781 Q1189.1094,173.2344 1188.4063,173.2344 Q1185.9063,173.2344 1184.5781,171.5938 Q1183.2656,169.9375 1183.2656,166.8125 Q1183.2656,163.6875 1184.5781,162.0313 Q1185.9063,160.375 1188.4063,160.375 Q1189.1094,160.375 1189.75,160.5313 Q1190.4063,160.6875 1190.9688,160.9844 L1190.9688,163.7031 Q1190.3438,163.125 1189.75,162.8594 Q1189.1563,162.5781 1188.5313,162.5781 Q1187.1875,162.5781 1186.5,163.6563 Q1185.8125,164.7188 1185.8125,166.8125 Q1185.8125,168.9063 1186.5,169.9844 Q1187.1875,171.0469 1188.5313,171.0469 Q1189.1563,171.0469 1189.75,170.7813 Q1190.3438,170.5 1190.9688,169.9219 L1190.9688,172.6406 Z "/><text fill="#000000" font-family="sans-serif" font-size="12" lengthAdjust="spacingAndGlyphs" textLength="277" x="1207" y="171.1543">SetGoogleAuthenticatorCredentialResponse</text><line style="stroke: #A80036; stroke-width: 1.5;" x1="1151.5" x2="1508.5" y1="183" y2="183"/><line style="stroke: #A80036; stroke-width: 1.5;" x1="1151.5" x2="1508.5" y1="191" y2="191"/><ellipse cx="1161.5" cy="202.9023" fill="#84BE84" rx="3" ry="3" style="stroke: #038048; stroke-width: 1.0;"/><text fill="#000000" font-family="sans-serif" font-size="11" lengthAdjust="spacingAndGlyphs" textLength="333" x="1170.5" y="205.2104">SetGoogleAuthenticatorCredentialResponse(ServiceResult)</text><ellipse cx="1161.5" cy="215.707" fill="#84BE84" rx="3" ry="3" style="stroke: #038048; stroke-width: 1.0;"/><text fill="#000000" font-family="sans-serif" font-size="11" lengthAdjust="spacingAndGlyphs" textLength="153" x="1170.5" y="218.0151">getGoogleAuthKey(): String</text><ellipse cx="1161.5" cy="228.5117" fill="#84BE84" rx="3" ry="3" style="stroke: #038048; stroke-width: 1.0;"/><text fill="#000000" font-family="sans-serif" font-size="11" lengthAdjust="spacingAndGlyphs" textLength="176" x="1170.5" y="230.8198">setGoogleAuthKey(String): void</text><ellipse cx="1161.5" cy="241.3164" fill="#84BE84" rx="3" ry="3" style="stroke: #038048; stroke-width: 1.0;"/><text fill="#000000" font-family="sans-serif" font-size="11" lengthAdjust="spacingAndGlyphs" textLength="231" x="1170.5" y="243.6245">getGoogleAuthVerificationCode(): Integer</text><ellipse cx="1161.5" cy="254.1211" fill="#84BE84" rx="3" ry="3" style="stroke: #038048; stroke-width: 1.0;"/><text fill="#000000" font-family="sans-serif" font-size="11" lengthAdjust="spacingAndGlyphs" textLength="254" x="1170.5" y="256.4292">setGoogleAuthVerificationCode(Integer): void</text><ellipse cx="1161.5" cy="266.9258" fill="#84BE84" rx="3" ry="3" style="stroke: #038048; stroke-width: 1.0;"/><text fill="#000000" font-family="sans-serif" font-size="11" lengthAdjust="spacingAndGlyphs" textLength="256" x="1170.5" y="269.2339">getGoogleAuthScratchCodes(): List&lt;Integer&gt;</text><ellipse cx="1161.5" cy="279.7305" fill="#84BE84" rx="3" ry="3" style="stroke: #038048; stroke-width: 1.0;"/><text fill="#000000" font-family="sans-serif" font-size="11" lengthAdjust="spacingAndGlyphs" textLength="279" x="1170.5" y="282.0386">setGoogleAuthScratchCodes(List&lt;Integer&gt;): void</text><ellipse cx="1161.5" cy="292.5352" fill="#84BE84" rx="3" ry="3" style="stroke: #038048; stroke-width: 1.0;"/><text fill="#000000" font-family="sans-serif" font-size="11" lengthAdjust="spacingAndGlyphs" textLength="159" x="1170.5" y="294.8433">getOtpAuthTotpURL(): String</text><ellipse cx="1161.5" cy="305.3398" fill="#84BE84" rx="3" ry="3" style="stroke: #038048; stroke-width: 1.0;"/><text fill="#000000" font-family="sans-serif" font-size="11" lengthAdjust="spacingAndGlyphs" textLength="182" x="1170.5" y="307.6479">setOtpAuthTotpURL(String): void</text></a><!--class com.hack23.cia.service.api.action.user.SearchDocumentResponse--><a href="SearchDocumentResponse.html" target="_top" xlink:actuate="onRequest" xlink:show="new" xlink:title="SearchDocumentResponse.html" xlink:type="simple"><rect fill="#FEFECE" filter="url(#fi2ouocyn1s00)" height="137.6328" id="com.hack23.cia.service.api.action.user.SearchDocumentResponse" style="stroke: #A80036; stroke-width: 1.5;" width="375" x="740.5" y="163.5"/><ellipse cx="838.75" cy="179.5" fill="#ADD1B2" rx="11" ry="11" style="stroke: #A80036; stroke-width: 1.0;"/><path d="M841.7188,185.1406 Q841.1406,185.4375 840.5,185.5781 Q839.8594,185.7344 839.1563,185.7344 Q836.6563,185.7344 835.3281,184.0938 Q834.0156,182.4375 834.0156,179.3125 Q834.0156,176.1875 835.3281,174.5313 Q836.6563,172.875 839.1563,172.875 Q839.8594,172.875 840.5,173.0313 Q841.1563,173.1875 841.7188,173.4844 L841.7188,176.2031 Q841.0938,175.625 840.5,175.3594 Q839.9063,175.0781 839.2813,175.0781 Q837.9375,175.0781 837.25,176.1563 Q836.5625,177.2188 836.5625,179.3125 Q836.5625,181.4063 837.25,182.4844 Q837.9375,183.5469 839.2813,183.5469 Q839.9063,183.5469 840.5,183.2813 Q841.0938,183 841.7188,182.4219 L841.7188,185.1406 Z "/><text fill="#000000" font-family="sans-serif" font-size="12" lengthAdjust="spacingAndGlyphs" textLength="170" x="859.25" y="183.6543">SearchDocumentResponse</text><line style="stroke: #A80036; stroke-width: 1.5;" x1="741.5" x2="1114.5" y1="195.5" y2="195.5"/><line style="stroke: #A80036; stroke-width: 1.5;" x1="741.5" x2="1114.5" y1="203.5" y2="203.5"/><ellipse cx="751.5" cy="215.4023" fill="#84BE84" rx="3" ry="3" style="stroke: #038048; stroke-width: 1.0;"/><text fill="#000000" font-family="sans-serif" font-size="11" lengthAdjust="spacingAndGlyphs" textLength="238" x="760.5" y="217.7104">SearchDocumentResponse(ServiceResult)</text><ellipse cx="751.5" cy="228.207" fill="#84BE84" rx="3" ry="3" style="stroke: #038048; stroke-width: 1.0;"/><text fill="#000000" font-family="sans-serif" font-size="11" lengthAdjust="spacingAndGlyphs" textLength="256" x="760.5" y="230.5151">getResultElement(): List&lt;DocumentElement&gt;</text><ellipse cx="751.5" cy="241.0117" fill="#84BE84" rx="3" ry="3" style="stroke: #038048; stroke-width: 1.0;"/><text fill="#000000" font-family="sans-serif" font-size="11" lengthAdjust="spacingAndGlyphs" textLength="279" x="760.5" y="243.3198">setResultElement(List&lt;DocumentElement&gt;): void</text><ellipse cx="751.5" cy="253.8164" fill="#84BE84" rx="3" ry="3" style="stroke: #038048; stroke-width: 1.0;"/><text fill="#000000" font-family="sans-serif" font-size="11" lengthAdjust="spacingAndGlyphs" textLength="326" x="760.5" y="256.1245">getStatusMap(): Map&lt;String, DocumentStatusContainer&gt;</text><ellipse cx="751.5" cy="266.6211" fill="#84BE84" rx="3" ry="3" style="stroke: #038048; stroke-width: 1.0;"/><text fill="#000000" font-family="sans-serif" font-size="11" lengthAdjust="spacingAndGlyphs" textLength="349" x="760.5" y="268.9292">setStatusMap(Map&lt;String, DocumentStatusContainer&gt;): void</text><ellipse cx="751.5" cy="279.4258" fill="#84BE84" rx="3" ry="3" style="stroke: #038048; stroke-width: 1.0;"/><text fill="#000000" font-family="sans-serif" font-size="11" lengthAdjust="spacingAndGlyphs" textLength="293" x="760.5" y="281.7339">getDataMap(): Map&lt;String, DocumentContentData&gt;</text><ellipse cx="751.5" cy="292.2305" fill="#84BE84" rx="3" ry="3" style="stroke: #038048; stroke-width: 1.0;"/><text fill="#000000" font-family="sans-serif" font-size="11" lengthAdjust="spacingAndGlyphs" textLength="316" x="760.5" y="294.5386">setDataMap(Map&lt;String, DocumentContentData&gt;): void</text></a><!--class com.hack23.cia.service.api.action.user.DocumentWordCountRequest--><a href="DocumentWordCountRequest.html" target="_top" xlink:actuate="onRequest" xlink:show="new" xlink:title="DocumentWordCountRequest.html" xlink:type="simple"><rect fill="#FEFECE" filter="url(#fi2ouocyn1s00)" height="124.8281" id="com.hack23.cia.service.api.action.user.DocumentWordCountRequest" style="stroke: #A80036; stroke-width: 1.5;" width="217" x="2755.5" y="170"/><ellipse cx="2770.5" cy="186" fill="#ADD1B2" rx="11" ry="11" style="stroke: #A80036; stroke-width: 1.0;"/><path d="M2773.4688,191.6406 Q2772.8906,191.9375 2772.25,192.0781 Q2771.6094,192.2344 2770.9063,192.2344 Q2768.4063,192.2344 2767.0781,190.5938 Q2765.7656,188.9375 2765.7656,185.8125 Q2765.7656,182.6875 2767.0781,181.0313 Q2768.4063,179.375 2770.9063,179.375 Q2771.6094,179.375 2772.25,179.5313 Q2772.9063,179.6875 2773.4688,179.9844 L2773.4688,182.7031 Q2772.8438,182.125 2772.25,181.8594 Q2771.6563,181.5781 2771.0313,181.5781 Q2769.6875,181.5781 2769,182.6563 Q2768.3125,183.7188 2768.3125,185.8125 Q2768.3125,187.9063 2769,188.9844 Q2769.6875,190.0469 2771.0313,190.0469 Q2771.6563,190.0469 2772.25,189.7813 Q2772.8438,189.5 2773.4688,188.9219 L2773.4688,191.6406 Z "/><text fill="#000000" font-family="sans-serif" font-size="12" lengthAdjust="spacingAndGlyphs" textLength="185" x="2784.5" y="190.1543">DocumentWordCountRequest</text><line style="stroke: #A80036; stroke-width: 1.5;" x1="2756.5" x2="2971.5" y1="202" y2="202"/><line style="stroke: #A80036; stroke-width: 1.5;" x1="2756.5" x2="2971.5" y1="210" y2="210"/><ellipse cx="2766.5" cy="221.9023" fill="#84BE84" rx="3" ry="3" style="stroke: #038048; stroke-width: 1.0;"/><text fill="#000000" font-family="sans-serif" font-size="11" lengthAdjust="spacingAndGlyphs" textLength="124" x="2775.5" y="224.2104">getSessionId(): String</text><ellipse cx="2766.5" cy="234.707" fill="#84BE84" rx="3" ry="3" style="stroke: #038048; stroke-width: 1.0;"/><text fill="#000000" font-family="sans-serif" font-size="11" lengthAdjust="spacingAndGlyphs" textLength="147" x="2775.5" y="237.0151">setSessionId(String): void</text><ellipse cx="2766.5" cy="247.5117" fill="#84BE84" rx="3" ry="3" style="stroke: #038048; stroke-width: 1.0;"/><text fill="#000000" font-family="sans-serif" font-size="11" lengthAdjust="spacingAndGlyphs" textLength="112" x="2775.5" y="249.8198">getMaxResults(): int</text><ellipse cx="2766.5" cy="260.3164" fill="#84BE84" rx="3" ry="3" style="stroke: #038048; stroke-width: 1.0;"/><text fill="#000000" font-family="sans-serif" font-size="11" lengthAdjust="spacingAndGlyphs" textLength="135" x="2775.5" y="262.6245">setMaxResults(int): void</text><ellipse cx="2766.5" cy="273.1211" fill="#84BE84" rx="3" ry="3" style="stroke: #038048; stroke-width: 1.0;"/><text fill="#000000" font-family="sans-serif" font-size="11" lengthAdjust="spacingAndGlyphs" textLength="135" x="2775.5" y="275.4292">getDocumentId(): String</text><ellipse cx="2766.5" cy="285.9258" fill="#84BE84" rx="3" ry="3" style="stroke: #038048; stroke-width: 1.0;"/><text fill="#000000" font-family="sans-serif" font-size="11" lengthAdjust="spacingAndGlyphs" textLength="158" x="2775.5" y="288.2339">setDocumentId(String): void</text></a><!--class com.hack23.cia.service.api.action.user.ChangePasswordResponse--><a href="ChangePasswordResponse.html" target="_top" xlink:actuate="onRequest" xlink:show="new" xlink:title="ChangePasswordResponse.html" xlink:type="simple"><rect fill="#FEFECE" filter="url(#fi2ouocyn1s00)" height="60.8047" id="com.hack23.cia.service.api.action.user.ChangePasswordResponse" style="stroke: #A80036; stroke-width: 1.5;" width="266" x="22" y="202"/><ellipse cx="65.8" cy="218" fill="#ADD1B2" rx="11" ry="11" style="stroke: #A80036; stroke-width: 1.0;"/><path d="M68.7688,223.6406 Q68.1906,223.9375 67.55,224.0781 Q66.9094,224.2344 66.2063,224.2344 Q63.7063,224.2344 62.3781,222.5938 Q61.0656,220.9375 61.0656,217.8125 Q61.0656,214.6875 62.3781,213.0313 Q63.7063,211.375 66.2063,211.375 Q66.9094,211.375 67.55,211.5313 Q68.2063,211.6875 68.7688,211.9844 L68.7688,214.7031 Q68.1438,214.125 67.55,213.8594 Q66.9563,213.5781 66.3313,213.5781 Q64.9875,213.5781 64.3,214.6563 Q63.6125,215.7188 63.6125,217.8125 Q63.6125,219.9063 64.3,220.9844 Q64.9875,222.0469 66.3313,222.0469 Q66.9563,222.0469 67.55,221.7813 Q68.1438,221.5 68.7688,220.9219 L68.7688,223.6406 Z "/><text fill="#000000" font-family="sans-serif" font-size="12" lengthAdjust="spacingAndGlyphs" textLength="170" x="86.2" y="222.1543">ChangePasswordResponse</text><line style="stroke: #A80036; stroke-width: 1.5;" x1="23" x2="287" y1="234" y2="234"/><line style="stroke: #A80036; stroke-width: 1.5;" x1="23" x2="287" y1="242" y2="242"/><ellipse cx="33" cy="253.9023" fill="#84BE84" rx="3" ry="3" style="stroke: #038048; stroke-width: 1.0;"/><text fill="#000000" font-family="sans-serif" font-size="11" lengthAdjust="spacingAndGlyphs" textLength="240" x="42" y="256.2104">ChangePasswordResponse(ServiceResult)</text></a><!--class com.hack23.cia.service.api.action.user.SearchDocumentRequest--><a href="SearchDocumentRequest.html" target="_top" xlink:actuate="onRequest" xlink:show="new" xlink:title="SearchDocumentRequest.html" xlink:type="simple"><rect fill="#FEFECE" filter="url(#fi2ouocyn1s00)" height="124.8281" id="com.hack23.cia.service.api.action.user.SearchDocumentRequest" style="stroke: #A80036; stroke-width: 1.5;" width="220" x="2500" y="170"/><ellipse cx="2527.6" cy="186" fill="#ADD1B2" rx="11" ry="11" style="stroke: #A80036; stroke-width: 1.0;"/><path d="M2530.5688,191.6406 Q2529.9906,191.9375 2529.35,192.0781 Q2528.7094,192.2344 2528.0063,192.2344 Q2525.5063,192.2344 2524.1781,190.5938 Q2522.8656,188.9375 2522.8656,185.8125 Q2522.8656,182.6875 2524.1781,181.0313 Q2525.5063,179.375 2528.0063,179.375 Q2528.7094,179.375 2529.35,179.5313 Q2530.0063,179.6875 2530.5688,179.9844 L2530.5688,182.7031 Q2529.9438,182.125 2529.35,181.8594 Q2528.7563,181.5781 2528.1313,181.5781 Q2526.7875,181.5781 2526.1,182.6563 Q2525.4125,183.7188 2525.4125,185.8125 Q2525.4125,187.9063 2526.1,188.9844 Q2526.7875,190.0469 2528.1313,190.0469 Q2528.7563,190.0469 2529.35,189.7813 Q2529.9438,189.5 2530.5688,188.9219 L2530.5688,191.6406 Z "/><text fill="#000000" font-family="sans-serif" font-size="12" lengthAdjust="spacingAndGlyphs" textLength="160" x="2544.4" y="190.1543">SearchDocumentRequest</text><line style="stroke: #A80036; stroke-width: 1.5;" x1="2501" x2="2719" y1="202" y2="202"/><line style="stroke: #A80036; stroke-width: 1.5;" x1="2501" x2="2719" y1="210" y2="210"/><ellipse cx="2511" cy="221.9023" fill="#84BE84" rx="3" ry="3" style="stroke: #038048; stroke-width: 1.0;"/><text fill="#000000" font-family="sans-serif" font-size="11" lengthAdjust="spacingAndGlyphs" textLength="124" x="2520" y="224.2104">getSessionId(): String</text><ellipse cx="2511" cy="234.707" fill="#84BE84" rx="3" ry="3" style="stroke: #038048; stroke-width: 1.0;"/><text fill="#000000" font-family="sans-serif" font-size="11" lengthAdjust="spacingAndGlyphs" textLength="147" x="2520" y="237.0151">setSessionId(String): void</text><ellipse cx="2511" cy="247.5117" fill="#84BE84" rx="3" ry="3" style="stroke: #038048; stroke-width: 1.0;"/><text fill="#000000" font-family="sans-serif" font-size="11" lengthAdjust="spacingAndGlyphs" textLength="171" x="2520" y="249.8198">getSearchExpression(): String</text><ellipse cx="2511" cy="260.3164" fill="#84BE84" rx="3" ry="3" style="stroke: #038048; stroke-width: 1.0;"/><text fill="#000000" font-family="sans-serif" font-size="11" lengthAdjust="spacingAndGlyphs" textLength="194" x="2520" y="262.6245">setSearchExpression(String): void</text><ellipse cx="2511" cy="273.1211" fill="#84BE84" rx="3" ry="3" style="stroke: #038048; stroke-width: 1.0;"/><text fill="#000000" font-family="sans-serif" font-size="11" lengthAdjust="spacingAndGlyphs" textLength="138" x="2520" y="275.4292">getMaxResults(): Integer</text><ellipse cx="2511" cy="285.9258" fill="#84BE84" rx="3" ry="3" style="stroke: #038048; stroke-width: 1.0;"/><text fill="#000000" font-family="sans-serif" font-size="11" lengthAdjust="spacingAndGlyphs" textLength="161" x="2520" y="288.2339">setMaxResults(Integer): void</text></a><!--class com.hack23.cia.service.api.action.user.ChangePasswordRequest--><a href="ChangePasswordRequest.html" target="_top" xlink:actuate="onRequest" xlink:show="new" xlink:title="ChangePasswordRequest.html" xlink:type="simple"><rect fill="#FEFECE" filter="url(#fi2ouocyn1s00)" height="150.4375" id="com.hack23.cia.service.api.action.user.ChangePasswordRequest" style="stroke: #A80036; stroke-width: 1.5;" width="236" x="2229" y="157.5"/><ellipse cx="2263.8" cy="173.5" fill="#ADD1B2" rx="11" ry="11" style="stroke: #A80036; stroke-width: 1.0;"/><path d="M2266.7688,179.1406 Q2266.1906,179.4375 2265.55,179.5781 Q2264.9094,179.7344 2264.2063,179.7344 Q2261.7063,179.7344 2260.3781,178.0938 Q2259.0656,176.4375 2259.0656,173.3125 Q2259.0656,170.1875 2260.3781,168.5313 Q2261.7063,166.875 2264.2063,166.875 Q2264.9094,166.875 2265.55,167.0313 Q2266.2063,167.1875 2266.7688,167.4844 L2266.7688,170.2031 Q2266.1438,169.625 2265.55,169.3594 Q2264.9563,169.0781 2264.3313,169.0781 Q2262.9875,169.0781 2262.3,170.1563 Q2261.6125,171.2188 2261.6125,173.3125 Q2261.6125,175.4063 2262.3,176.4844 Q2262.9875,177.5469 2264.3313,177.5469 Q2264.9563,177.5469 2265.55,177.2813 Q2266.1438,177 2266.7688,176.4219 L2266.7688,179.1406 Z "/><text fill="#000000" font-family="sans-serif" font-size="12" lengthAdjust="spacingAndGlyphs" textLength="160" x="2282.2" y="177.6543">ChangePasswordRequest</text><line style="stroke: #A80036; stroke-width: 1.5;" x1="2230" x2="2464" y1="189.5" y2="189.5"/><line style="stroke: #A80036; stroke-width: 1.5;" x1="2230" x2="2464" y1="197.5" y2="197.5"/><ellipse cx="2240" cy="209.4023" fill="#84BE84" rx="3" ry="3" style="stroke: #038048; stroke-width: 1.0;"/><text fill="#000000" font-family="sans-serif" font-size="11" lengthAdjust="spacingAndGlyphs" textLength="124" x="2249" y="211.7104">getSessionId(): String</text><ellipse cx="2240" cy="222.207" fill="#84BE84" rx="3" ry="3" style="stroke: #038048; stroke-width: 1.0;"/><text fill="#000000" font-family="sans-serif" font-size="11" lengthAdjust="spacingAndGlyphs" textLength="147" x="2249" y="224.5151">setSessionId(String): void</text><ellipse cx="2240" cy="235.0117" fill="#84BE84" rx="3" ry="3" style="stroke: #038048; stroke-width: 1.0;"/><text fill="#000000" font-family="sans-serif" font-size="11" lengthAdjust="spacingAndGlyphs" textLength="167" x="2249" y="237.3198">getCurrentPassword(): String</text><ellipse cx="2240" cy="247.8164" fill="#84BE84" rx="3" ry="3" style="stroke: #038048; stroke-width: 1.0;"/><text fill="#000000" font-family="sans-serif" font-size="11" lengthAdjust="spacingAndGlyphs" textLength="190" x="2249" y="250.1245">setCurrentPassword(String): void</text><ellipse cx="2240" cy="260.6211" fill="#84BE84" rx="3" ry="3" style="stroke: #038048; stroke-width: 1.0;"/><text fill="#000000" font-family="sans-serif" font-size="11" lengthAdjust="spacingAndGlyphs" textLength="148" x="2249" y="262.9292">getNewPassword(): String</text><ellipse cx="2240" cy="273.4258" fill="#84BE84" rx="3" ry="3" style="stroke: #038048; stroke-width: 1.0;"/><text fill="#000000" font-family="sans-serif" font-size="11" lengthAdjust="spacingAndGlyphs" textLength="171" x="2249" y="275.7339">setNewPassword(String): void</text><ellipse cx="2240" cy="286.2305" fill="#84BE84" rx="3" ry="3" style="stroke: #038048; stroke-width: 1.0;"/><text fill="#000000" font-family="sans-serif" font-size="11" lengthAdjust="spacingAndGlyphs" textLength="187" x="2249" y="288.5386">getRepeatNewPassword(): String</text><ellipse cx="2240" cy="299.0352" fill="#84BE84" rx="3" ry="3" style="stroke: #038048; stroke-width: 1.0;"/><text fill="#000000" font-family="sans-serif" font-size="11" lengthAdjust="spacingAndGlyphs" textLength="210" x="2249" y="301.3433">setRepeatNewPassword(String): void</text></a><!--class com.hack23.cia.service.api.action.user.DisableGoogleAuthenticatorCredentialRequest--><a href="DisableGoogleAuthenticatorCredentialRequest.html" target="_top" xlink:actuate="onRequest" xlink:show="new" xlink:title="DisableGoogleAuthenticatorCredentialRequest.html" xlink:type="simple"><rect fill="#FEFECE" filter="url(#fi2ouocyn1s00)" height="99.2188" id="com.hack23.cia.service.api.action.user.DisableGoogleAuthenticatorCredentialRequest" style="stroke: #A80036; stroke-width: 1.5;" width="324" x="1870" y="183"/><ellipse cx="1885" cy="199" fill="#ADD1B2" rx="11" ry="11" style="stroke: #A80036; stroke-width: 1.0;"/><path d="M1887.9688,204.6406 Q1887.3906,204.9375 1886.75,205.0781 Q1886.1094,205.2344 1885.4063,205.2344 Q1882.9063,205.2344 1881.5781,203.5938 Q1880.2656,201.9375 1880.2656,198.8125 Q1880.2656,195.6875 1881.5781,194.0313 Q1882.9063,192.375 1885.4063,192.375 Q1886.1094,192.375 1886.75,192.5313 Q1887.4063,192.6875 1887.9688,192.9844 L1887.9688,195.7031 Q1887.3438,195.125 1886.75,194.8594 Q1886.1563,194.5781 1885.5313,194.5781 Q1884.1875,194.5781 1883.5,195.6563 Q1882.8125,196.7188 1882.8125,198.8125 Q1882.8125,200.9063 1883.5,201.9844 Q1884.1875,203.0469 1885.5313,203.0469 Q1886.1563,203.0469 1886.75,202.7813 Q1887.3438,202.5 1887.9688,201.9219 L1887.9688,204.6406 Z "/><text fill="#000000" font-family="sans-serif" font-size="12" lengthAdjust="spacingAndGlyphs" textLength="292" x="1899" y="203.1543">DisableGoogleAuthenticatorCredentialRequest</text><line style="stroke: #A80036; stroke-width: 1.5;" x1="1871" x2="2193" y1="215" y2="215"/><line style="stroke: #A80036; stroke-width: 1.5;" x1="1871" x2="2193" y1="223" y2="223"/><ellipse cx="1881" cy="234.9023" fill="#84BE84" rx="3" ry="3" style="stroke: #038048; stroke-width: 1.0;"/><text fill="#000000" font-family="sans-serif" font-size="11" lengthAdjust="spacingAndGlyphs" textLength="124" x="1890" y="237.2104">getSessionId(): String</text><ellipse cx="1881" cy="247.707" fill="#84BE84" rx="3" ry="3" style="stroke: #038048; stroke-width: 1.0;"/><text fill="#000000" font-family="sans-serif" font-size="11" lengthAdjust="spacingAndGlyphs" textLength="147" x="1890" y="250.0151">setSessionId(String): void</text><ellipse cx="1881" cy="260.5117" fill="#84BE84" rx="3" ry="3" style="stroke: #038048; stroke-width: 1.0;"/><text fill="#000000" font-family="sans-serif" font-size="11" lengthAdjust="spacingAndGlyphs" textLength="151" x="1890" y="262.8198">getUserpassword(): String</text><ellipse cx="1881" cy="273.3164" fill="#84BE84" rx="3" ry="3" style="stroke: #038048; stroke-width: 1.0;"/><text fill="#000000" font-family="sans-serif" font-size="11" lengthAdjust="spacingAndGlyphs" textLength="174" x="1890" y="275.6245">setUserpassword(String): void</text></a><!--class com.hack23.cia.service.api.action.user.DisableGoogleAuthenticatorCredentialResponse--><a href="DisableGoogleAuthenticatorCredentialResponse.html" target="_top" xlink:actuate="onRequest" xlink:show="new" xlink:title="DisableGoogleAuthenticatorCredentialResponse.html" xlink:type="simple"><rect fill="#FEFECE" filter="url(#fi2ouocyn1s00)" height="60.8047" id="com.hack23.cia.service.api.action.user.DisableGoogleAuthenticatorCredentialResponse" style="stroke: #A80036; stroke-width: 1.5;" width="382" x="323" y="202"/><ellipse cx="359.6" cy="218" fill="#ADD1B2" rx="11" ry="11" style="stroke: #A80036; stroke-width: 1.0;"/><path d="M362.5688,223.6406 Q361.9906,223.9375 361.35,224.0781 Q360.7094,224.2344 360.0063,224.2344 Q357.5063,224.2344 356.1781,222.5938 Q354.8656,220.9375 354.8656,217.8125 Q354.8656,214.6875 356.1781,213.0313 Q357.5063,211.375 360.0063,211.375 Q360.7094,211.375 361.35,211.5313 Q362.0063,211.6875 362.5688,211.9844 L362.5688,214.7031 Q361.9438,214.125 361.35,213.8594 Q360.7563,213.5781 360.1313,213.5781 Q358.7875,213.5781 358.1,214.6563 Q357.4125,215.7188 357.4125,217.8125 Q357.4125,219.9063 358.1,220.9844 Q358.7875,222.0469 360.1313,222.0469 Q360.7563,222.0469 361.35,221.7813 Q361.9438,221.5 362.5688,220.9219 L362.5688,223.6406 Z "/><text fill="#000000" font-family="sans-serif" font-size="12" lengthAdjust="spacingAndGlyphs" textLength="302" x="378.4" y="222.1543">DisableGoogleAuthenticatorCredentialResponse</text><line style="stroke: #A80036; stroke-width: 1.5;" x1="324" x2="704" y1="234" y2="234"/><line style="stroke: #A80036; stroke-width: 1.5;" x1="324" x2="704" y1="242" y2="242"/><ellipse cx="334" cy="253.9023" fill="#84BE84" rx="3" ry="3" style="stroke: #038048; stroke-width: 1.0;"/><text fill="#000000" font-family="sans-serif" font-size="11" lengthAdjust="spacingAndGlyphs" textLength="356" x="343" y="256.2104">DisableGoogleAuthenticatorCredentialResponse(ServiceResult)</text></a><!--class com.hack23.cia.service.api.action.user.DocumentWordCountResponse--><a href="DocumentWordCountResponse.html" target="_top" xlink:actuate="onRequest" xlink:show="new" xlink:title="DocumentWordCountResponse.html" xlink:type="simple"><rect fill="#FEFECE" filter="url(#fi2ouocyn1s00)" height="86.4141" id="com.hack23.cia.service.api.action.user.DocumentWordCountResponse" style="stroke: #A80036; stroke-width: 1.5;" width="290" x="1545" y="189.5"/><ellipse cx="1588.35" cy="205.5" fill="#ADD1B2" rx="11" ry="11" style="stroke: #A80036; stroke-width: 1.0;"/><path d="M1591.3188,211.1406 Q1590.7406,211.4375 1590.1,211.5781 Q1589.4594,211.7344 1588.7563,211.7344 Q1586.2563,211.7344 1584.9281,210.0938 Q1583.6156,208.4375 1583.6156,205.3125 Q1583.6156,202.1875 1584.9281,200.5313 Q1586.2563,198.875 1588.7563,198.875 Q1589.4594,198.875 1590.1,199.0313 Q1590.7563,199.1875 1591.3188,199.4844 L1591.3188,202.2031 Q1590.6938,201.625 1590.1,201.3594 Q1589.5063,201.0781 1588.8813,201.0781 Q1587.5375,201.0781 1586.85,202.1563 Q1586.1625,203.2188 1586.1625,205.3125 Q1586.1625,207.4063 1586.85,208.4844 Q1587.5375,209.5469 1588.8813,209.5469 Q1589.5063,209.5469 1590.1,209.2813 Q1590.6938,209 1591.3188,208.4219 L1591.3188,211.1406 Z "/><text fill="#000000" font-family="sans-serif" font-size="12" lengthAdjust="spacingAndGlyphs" textLength="195" x="1608.65" y="209.6543">DocumentWordCountResponse</text><line style="stroke: #A80036; stroke-width: 1.5;" x1="1546" x2="1834" y1="221.5" y2="221.5"/><line style="stroke: #A80036; stroke-width: 1.5;" x1="1546" x2="1834" y1="229.5" y2="229.5"/><ellipse cx="1556" cy="241.4023" fill="#84BE84" rx="3" ry="3" style="stroke: #038048; stroke-width: 1.0;"/><text fill="#000000" font-family="sans-serif" font-size="11" lengthAdjust="spacingAndGlyphs" textLength="259" x="1565" y="243.7104">DocumentWordCountResponse(ServiceResult)</text><ellipse cx="1556" cy="254.207" fill="#84BE84" rx="3" ry="3" style="stroke: #038048; stroke-width: 1.0;"/><text fill="#000000" font-family="sans-serif" font-size="11" lengthAdjust="spacingAndGlyphs" textLength="241" x="1565" y="256.5151">getWordCountMap(): Map&lt;String, Integer&gt;</text><ellipse cx="1556" cy="267.0117" fill="#84BE84" rx="3" ry="3" style="stroke: #038048; stroke-width: 1.0;"/><text fill="#000000" font-family="sans-serif" font-size="11" lengthAdjust="spacingAndGlyphs" textLength="264" x="1565" y="269.3198">setWordCountMap(Map&lt;String, Integer&gt;): void</text></a><!--class com.hack23.cia.service.api.action.common.AbstractRequest--><a href="../common/AbstractRequest.html" target="_top" xlink:actuate="onRequest" xlink:show="new" xlink:title="../common/AbstractRequest.html" xlink:type="simple"><rect fill="#FEFECE" filter="url(#fi2ouocyn1s00)" height="48" id="com.hack23.cia.service.api.action.common.AbstractRequest" style="stroke: #A80036; stroke-width: 1.5;" width="135" x="1892.5" y="43"/><ellipse cx="1907.5" cy="59" fill="#A9DCDF" rx="11" ry="11" style="stroke: #A80036; stroke-width: 1.0;"/><path d="M1907.6094,54.3438 L1906.4531,59.4219 L1908.7813,59.4219 L1907.6094,54.3438 Z M1906.125,52.1094 L1909.1094,52.1094 L1912.4688,64.5 L1910.0156,64.5 L1909.25,61.4375 L1905.9688,61.4375 L1905.2188,64.5 L1902.7813,64.5 L1906.125,52.1094 Z "/><text fill="#000000" font-family="sans-serif" font-size="12" font-style="italic" lengthAdjust="spacingAndGlyphs" textLength="103" x="1921.5" y="63.1543">AbstractRequest</text><line style="stroke: #A80036; stroke-width: 1.5;" x1="1893.5" x2="2026.5" y1="75" y2="75"/><line style="stroke: #A80036; stroke-width: 1.5;" x1="1893.5" x2="2026.5" y1="83" y2="83"/></a><!--class com.hack23.cia.service.api.action.common.AbstractResponse--><a href="../common/AbstractResponse.html" target="_top" xlink:actuate="onRequest" xlink:show="new" xlink:title="../common/AbstractResponse.html" xlink:type="simple"><rect fill="#FEFECE" filter="url(#fi2ouocyn1s00)" height="48" id="com.hack23.cia.service.api.action.common.AbstractResponse" style="stroke: #A80036; stroke-width: 1.5;" width="144" x="1690" y="43"/><ellipse cx="1705" cy="59" fill="#A9DCDF" rx="11" ry="11" style="stroke: #A80036; stroke-width: 1.0;"/><path d="M1705.1094,54.3438 L1703.9531,59.4219 L1706.2813,59.4219 L1705.1094,54.3438 Z M1703.625,52.1094 L1706.6094,52.1094 L1709.9688,64.5 L1707.5156,64.5 L1706.75,61.4375 L1703.4688,61.4375 L1702.7188,64.5 L1700.2813,64.5 L1703.625,52.1094 Z "/><text fill="#000000" font-family="sans-serif" font-size="12" font-style="italic" lengthAdjust="spacingAndGlyphs" textLength="112" x="1719" y="63.1543">AbstractResponse</text><line style="stroke: #A80036; stroke-width: 1.5;" x1="1691" x2="1833" y1="75" y2="75"/><line style="stroke: #A80036; stroke-width: 1.5;" x1="1691" x2="1833" y1="83" y2="83"/></a><!--link com.hack23.cia.service.api.action.common.AbstractRequest to com.hack23.cia.service.api.action.user.SetGoogleAuthenticatorCredentialRequest--><path d="M2048.1915,69.2782 C2281.267,75.6662 2901.7888,95.1858 2990,124 C3028.7818,136.6681 3067.293,160.7101 3097.5433,182.9491 " fill="none" id="com.hack23.cia.service.api.action.common.AbstractRequest-com.hack23.cia.service.api.action.user.SetGoogleAuthenticatorCredentialRequest" style="stroke: #A80036; stroke-width: 1.0;"/><polygon fill="none" points="2047.6508,76.2662,2027.8477,68.7271,2048.0299,62.2713,2047.6508,76.2662" style="stroke: #A80036; stroke-width: 1.0;"/><!--link com.hack23.cia.service.api.action.common.AbstractResponse to com.hack23.cia.service.api.action.user.SetGoogleAuthenticatorCredentialResponse--><path d="M1670.0756,83.5603 C1626.2308,92.9218 1573.5331,106.3334 1528,124 C1508.1751,131.6919 1487.8609,140.9963 1468.155,150.8842 " fill="none" id="com.hack23.cia.service.api.action.common.AbstractResponse-com.hack23.cia.service.api.action.user.SetGoogleAuthenticatorCredentialResponse" style="stroke: #A80036; stroke-width: 1.0;"/><polygon fill="none" points="1668.8563,76.6645,1689.8581,79.4799,1671.6845,90.3759,1668.8563,76.6645" style="stroke: #A80036; stroke-width: 1.0;"/><!--link com.hack23.cia.service.api.action.common.AbstractResponse to com.hack23.cia.service.api.action.user.SearchDocumentResponse--><path d="M1669.7155,70.8906 C1519.9888,77.9522 1231.0085,94.9045 1133,124 C1101.2493,133.4257 1068.7395,147.9948 1039.2358,163.4292 " fill="none" id="com.hack23.cia.service.api.action.common.AbstractResponse-com.hack23.cia.service.api.action.user.SearchDocumentResponse" style="stroke: #A80036; stroke-width: 1.0;"/><polygon fill="none" points="1669.5825,63.8894,1689.884,69.9596,1670.2281,77.8745,1669.5825,63.8894" style="stroke: #A80036; stroke-width: 1.0;"/><!--link com.hack23.cia.service.api.action.common.AbstractRequest to com.hack23.cia.service.api.action.user.DocumentWordCountRequest--><path d="M2047.8365,70.3326 C2237.9597,77.9923 2675.5774,98.1932 2738,124 C2763.2104,134.4225 2786.9778,151.935 2806.9323,169.8829 " fill="none" id="com.hack23.cia.service.api.action.common.AbstractRequest-com.hack23.cia.service.api.action.user.DocumentWordCountRequest" style="stroke: #A80036; stroke-width: 1.0;"/><polygon fill="none" points="2047.506,77.3251,2027.8003,69.535,2048.0629,63.3362,2047.506,77.3251" style="stroke: #A80036; stroke-width: 1.0;"/><!--link com.hack23.cia.service.api.action.common.AbstractResponse to com.hack23.cia.service.api.action.user.ChangePasswordResponse--><path d="M1669.5742,67.5326 C1369.468,69.6884 434.2657,79.9087 306,124 C259.1399,140.1081 214.1861,175.9083 185.7001,201.994 " fill="none" id="com.hack23.cia.service.api.action.common.AbstractResponse-com.hack23.cia.service.api.action.user.ChangePasswordResponse" style="stroke: #A80036; stroke-width: 1.0;"/><polygon fill="none" points="1669.6033,60.5323,1689.6513,67.3937,1669.7002,74.532,1669.6033,60.5323" style="stroke: #A80036; stroke-width: 1.0;"/><!--link com.hack23.cia.service.api.action.common.AbstractRequest to com.hack23.cia.service.api.action.user.SearchDocumentRequest--><path d="M2047.5794,70.3122 C2175.5969,76.202 2406.8718,91.113 2483,124 C2507.8912,134.7529 2531.5414,152.1246 2551.5368,169.8459 " fill="none" id="com.hack23.cia.service.api.action.common.AbstractRequest-com.hack23.cia.service.api.action.user.SearchDocumentRequest" style="stroke: #A80036; stroke-width: 1.0;"/><polygon fill="none" points="2047.2524,77.3047,2027.5816,69.4269,2047.8717,63.3184,2047.2524,77.3047" style="stroke: #A80036; stroke-width: 1.0;"/><!--link com.hack23.cia.service.api.action.common.AbstractRequest to com.hack23.cia.service.api.action.user.ChangePasswordRequest--><path d="M2047.6186,76.8445 C2097.6277,84.8665 2160.4311,99.1071 2212,124 C2230.4138,132.8886 2248.5704,144.7105 2265.3073,157.2802 " fill="none" id="com.hack23.cia.service.api.action.common.AbstractRequest-com.hack23.cia.service.api.action.user.ChangePasswordRequest" style="stroke: #A80036; stroke-width: 1.0;"/><polygon fill="none" points="2046.4841,83.7528,2027.7396,73.8713,2048.5551,69.9068,2046.4841,83.7528" style="stroke: #A80036; stroke-width: 1.0;"/><!--link com.hack23.cia.service.api.action.common.AbstractRequest to com.hack23.cia.service.api.action.user.DisableGoogleAuthenticatorCredentialRequest--><path d="M1978.4955,109.5139 C1988.2257,131.88 2000.211,159.4294 2010.3698,182.7806 " fill="none" id="com.hack23.cia.service.api.action.common.AbstractRequest-com.hack23.cia.service.api.action.user.DisableGoogleAuthenticatorCredentialRequest" style="stroke: #A80036; stroke-width: 1.0;"/><polygon fill="none" points="1972.0292,112.1973,1970.4694,91.0651,1984.8669,106.6122,1972.0292,112.1973" style="stroke: #A80036; stroke-width: 1.0;"/><!--link com.hack23.cia.service.api.action.common.AbstractResponse to com.hack23.cia.service.api.action.user.DisableGoogleAuthenticatorCredentialResponse--><path d="M1669.7369,69.8379 C1432.3733,77.4542 812.856,99.4387 723,124 C662.6627,140.4927 599.794,176.0269 558.9718,201.951 " fill="none" id="com.hack23.cia.service.api.action.common.AbstractResponse-com.hack23.cia.service.api.action.user.DisableGoogleAuthenticatorCredentialResponse" style="stroke: #A80036; stroke-width: 1.0;"/><polygon fill="none" points="1669.6145,62.8384,1689.8271,69.1984,1670.06,76.8313,1669.6145,62.8384" style="stroke: #A80036; stroke-width: 1.0;"/><!--link com.hack23.cia.service.api.action.common.AbstractResponse to com.hack23.cia.service.api.action.user.DocumentWordCountResponse--><path d="M1743.4868,109.5547 C1732.8123,134.0913 1719.4284,164.8555 1708.7193,189.4716 " fill="none" id="com.hack23.cia.service.api.action.common.AbstractResponse-com.hack23.cia.service.api.action.user.DocumentWordCountResponse" style="stroke: #A80036; stroke-width: 1.0;"/><polygon fill="none" points="1737.1331,106.6122,1751.5306,91.0651,1749.9708,112.1973,1737.1331,106.6122" style="stroke: #A80036; stroke-width: 1.0;"/><text fill="#888888" font-family="sans-serif" font-size="10" lengthAdjust="spacingAndGlyphs" textLength="186" x="1577.5" y="349.2822">UMLDoclet 2.0.5, PlantUML 1.2019.08</text><!--
@startuml
    namespace com.hack23.cia.service.api.action.user {

        class SetGoogleAuthenticatorCredentialRequest [[SetGoogleAuthenticatorCredentialRequest.html]] {
            +getSessionId(): String
            +setSessionId(String): void
            +getUserpassword(): String
            +setUserpassword(String): void
        }

        class SetGoogleAuthenticatorCredentialResponse [[SetGoogleAuthenticatorCredentialResponse.html]] {
            +SetGoogleAuthenticatorCredentialResponse(ServiceResult)
            +getGoogleAuthKey(): String
            +setGoogleAuthKey(String): void
            +getGoogleAuthVerificationCode(): Integer
            +setGoogleAuthVerificationCode(Integer): void
            +getGoogleAuthScratchCodes(): List<Integer>
            +setGoogleAuthScratchCodes(List<Integer>): void
            +getOtpAuthTotpURL(): String
            +setOtpAuthTotpURL(String): void
        }

        class SearchDocumentResponse [[SearchDocumentResponse.html]] {
            +SearchDocumentResponse(ServiceResult)
            +getResultElement(): List<DocumentElement>
            +setResultElement(List<DocumentElement>): void
            +getStatusMap(): Map<String, DocumentStatusContainer>
            +setStatusMap(Map<String, DocumentStatusContainer>): void
            +getDataMap(): Map<String, DocumentContentData>
            +setDataMap(Map<String, DocumentContentData>): void
        }

        class DocumentWordCountRequest [[DocumentWordCountRequest.html]] {
            +getSessionId(): String
            +setSessionId(String): void
            +getMaxResults(): int
            +setMaxResults(int): void
            +getDocumentId(): String
            +setDocumentId(String): void
        }

        class ChangePasswordResponse [[ChangePasswordResponse.html]] {
            +ChangePasswordResponse(ServiceResult)
        }

        class SearchDocumentRequest [[SearchDocumentRequest.html]] {
            +getSessionId(): String
            +setSessionId(String): void
            +getSearchExpression(): String
            +setSearchExpression(String): void
            +getMaxResults(): Integer
            +setMaxResults(Integer): void
        }

        class ChangePasswordRequest [[ChangePasswordRequest.html]] {
            +getSessionId(): String
            +setSessionId(String): void
            +getCurrentPassword(): String
            +setCurrentPassword(String): void
            +getNewPassword(): String
            +setNewPassword(String): void
            +getRepeatNewPassword(): String
            +setRepeatNewPassword(String): void
        }

        class DisableGoogleAuthenticatorCredentialRequest [[DisableGoogleAuthenticatorCredentialRequest.html]] {
            +getSessionId(): String
            +setSessionId(String): void
            +getUserpassword(): String
            +setUserpassword(String): void
        }

        class DisableGoogleAuthenticatorCredentialResponse [[DisableGoogleAuthenticatorCredentialResponse.html]] {
            +DisableGoogleAuthenticatorCredentialResponse(ServiceResult)
        }

        class DocumentWordCountResponse [[DocumentWordCountResponse.html]] {
            +DocumentWordCountResponse(ServiceResult)
            +getWordCountMap(): Map<String, Integer>
            +setWordCountMap(Map<String, Integer>): void
        }

        com.hack23.cia.service.api.action.common.AbstractRequest <|- - SetGoogleAuthenticatorCredentialRequest
        com.hack23.cia.service.api.action.common.AbstractResponse <|- - SetGoogleAuthenticatorCredentialResponse
        com.hack23.cia.service.api.action.common.AbstractResponse <|- - SearchDocumentResponse
        com.hack23.cia.service.api.action.common.AbstractRequest <|- - DocumentWordCountRequest
        com.hack23.cia.service.api.action.common.AbstractResponse <|- - ChangePasswordResponse
        com.hack23.cia.service.api.action.common.AbstractRequest <|- - SearchDocumentRequest
        com.hack23.cia.service.api.action.common.AbstractRequest <|- - ChangePasswordRequest
        com.hack23.cia.service.api.action.common.AbstractRequest <|- - DisableGoogleAuthenticatorCredentialRequest
        com.hack23.cia.service.api.action.common.AbstractResponse <|- - DisableGoogleAuthenticatorCredentialResponse
        com.hack23.cia.service.api.action.common.AbstractResponse <|- - DocumentWordCountResponse
    }

    namespace com.hack23.cia.service.api.action.common {
        abstract class AbstractRequest [[../common/AbstractRequest.html]] {
        }
        abstract class AbstractResponse [[../common/AbstractResponse.html]] {
        }
    }

    center footer UMLDoclet 2.0.5, PlantUML 1.2019.08
@enduml

PlantUML version 1.2019.08(Sat Jul 13 21:25:14 CEST 2019)
(APACHE source distribution)
Java Runtime: OpenJDK Runtime Environment
JVM: OpenJDK 64-Bit Server VM
Java Version: 11.0.4+11-post-Ubuntu-1ubuntu219.04
Operating System: Linux
OS Version: 5.0.0-27-generic
Default Encoding: UTF-8
Language: en
Country: US
--></g></svg>