<svg xmlns="http://www.w3.org/2000/svg" xmlns:xlink="http://www.w3.org/1999/xlink" contentStyleType="text/css" data-diagram-type="CLASS" height="560px" preserveAspectRatio="none" style="width:348px;height:560px;background:#FFFFFF;" version="1.1" viewBox="0 0 348 560" width="348px" zoomAndPan="magnify"><defs/><g><!--class com.hack23.cia.model.internal.application.data.audit.impl.ViewAuditAuthorSummary--><g class="entity" data-entity="com.hack23.cia.model.internal.application.data.audit.impl.ViewAuditAuthorSummary" data-source-line="13" data-uid="ent0002" id="entity_com.hack23.cia.model.internal.application.data.audit.impl.ViewAuditAuthorSummary"><a href="ViewAuditAuthorSummary.html" target="_top" title="ViewAuditAuthorSummary.html" xlink:actuate="onRequest" xlink:href="ViewAuditAuthorSummary.html" xlink:show="new" xlink:title="ViewAuditAuthorSummary.html" xlink:type="simple"><rect fill="#F1F1F1" height="440.0462" rx="2.5" ry="2.5" style="stroke:#181818;stroke-width:0.5;" width="335.2169" x="6" y="91"/><ellipse cx="35.0702" cy="112.344" fill="#ADD1B2" rx="11" ry="11" style="stroke:#181818;stroke-width:1;"/><path d="M38.0389,117.9846 Q37.4608,118.2815 36.8202,118.4221 Q36.1795,118.5783 35.4764,118.5783 Q32.9764,118.5783 31.6483,116.9377 Q30.3358,115.2815 30.3358,112.1565 Q30.3358,109.0315 31.6483,107.3752 Q32.9764,105.719 35.4764,105.719 Q36.1795,105.719 36.8202,105.8752 Q37.4764,106.0315 38.0389,106.3283 L38.0389,109.0471 Q37.4139,108.469 36.8202,108.2033 Q36.2264,107.9221 35.6014,107.9221 Q34.2577,107.9221 33.5702,109.0002 Q32.8827,110.0627 32.8827,112.1565 Q32.8827,114.2502 33.5702,115.3283 Q34.2577,116.3908 35.6014,116.3908 Q36.2264,116.3908 36.8202,116.1252 Q37.4139,115.844 38.0389,115.2658 L38.0389,117.9846 Z " fill="#000000"/><text fill="#000000" font-family="sans-serif" font-size="14" lengthAdjust="spacing" textLength="174.6353" x="100.8541" y="110.9659">ViewAuditAuthorSummary</text><text fill="#000000" font-family="sans-serif" font-size="10" lengthAdjust="spacing" textLength="271.9498" x="52.1969" y="125.7579">com.hack23.cia.model.internal.application.data.audit.impl</text><line style="stroke:#181818;stroke-width:0.5;" x1="7" x2="340.2169" y1="133.6879" y2="133.6879"/><polygon fill="none" points="17,143.7219,21,147.7219,17,151.7219,13,147.7219" style="stroke:#B38D22;stroke-width:1;"/><text fill="#000000" font-family="sans-serif" font-size="14" lengthAdjust="spacing" textLength="48.9578" x="26" y="152.6538">id: long</text><polygon fill="none" points="17,162.7898,21,166.7898,17,170.7898,13,166.7898" style="stroke:#B38D22;stroke-width:1;"/><text fill="#000000" font-family="sans-serif" font-size="14" lengthAdjust="spacing" textLength="91.2517" x="26" y="171.7218">author: String</text><polygon fill="none" points="17,181.8577,21,185.8577,17,189.8577,13,185.8577" style="stroke:#B38D22;stroke-width:1;"/><text fill="#000000" font-family="sans-serif" font-size="14" lengthAdjust="spacing" textLength="91.8256" x="26" y="190.7897">changes: long</text><polygon fill="none" points="17,200.9256,21,204.9256,17,208.9256,13,204.9256" style="stroke:#B38D22;stroke-width:1;"/><text fill="#000000" font-family="sans-serif" font-size="14" lengthAdjust="spacing" textLength="95.4096" x="26" y="209.8576">firstDate: Date</text><polygon fill="none" points="17,219.9935,21,223.9935,17,227.9935,13,223.9935" style="stroke:#B38D22;stroke-width:1;"/><text fill="#000000" font-family="sans-serif" font-size="14" lengthAdjust="spacing" textLength="92.6656" x="26" y="228.9255">lastDate: Date</text><line style="stroke:#181818;stroke-width:0.5;" x1="7" x2="340.2169" y1="237.0275" y2="237.0275"/><ellipse cx="17" cy="252.0614" fill="#84BE84" rx="3" ry="3" style="stroke:#038048;stroke-width:1;"/><text fill="#000000" font-family="sans-serif" font-size="14" lengthAdjust="spacing" textLength="80.0517" x="26" y="255.9934">getId(): long</text><ellipse cx="17" cy="271.1294" fill="#84BE84" rx="3" ry="3" style="stroke:#038048;stroke-width:1;"/><text fill="#000000" font-family="sans-serif" font-size="14" lengthAdjust="spacing" textLength="105.9516" x="26" y="275.0613">setId(long): void</text><ellipse cx="17" cy="290.1973" fill="#84BE84" rx="3" ry="3" style="stroke:#038048;stroke-width:1;"/><text fill="#000000" font-family="sans-serif" font-size="14" lengthAdjust="spacing" textLength="122.3035" x="26" y="294.1293">getAuthor(): String</text><ellipse cx="17" cy="309.2652" fill="#84BE84" rx="3" ry="3" style="stroke:#038048;stroke-width:1;"/><text fill="#000000" font-family="sans-serif" font-size="14" lengthAdjust="spacing" textLength="148.2034" x="26" y="313.1972">setAuthor(String): void</text><ellipse cx="17" cy="328.3331" fill="#84BE84" rx="3" ry="3" style="stroke:#038048;stroke-width:1;"/><text fill="#000000" font-family="sans-serif" font-size="14" lengthAdjust="spacing" textLength="123.9135" x="26" y="332.2651">getChanges(): long</text><ellipse cx="17" cy="347.401" fill="#84BE84" rx="3" ry="3" style="stroke:#038048;stroke-width:1;"/><text fill="#000000" font-family="sans-serif" font-size="14" lengthAdjust="spacing" textLength="149.8134" x="26" y="351.333">setChanges(long): void</text><ellipse cx="17" cy="366.4689" fill="#84BE84" rx="3" ry="3" style="stroke:#038048;stroke-width:1;"/><text fill="#000000" font-family="sans-serif" font-size="14" lengthAdjust="spacing" textLength="127.8195" x="26" y="370.4009">getFirstDate(): Date</text><ellipse cx="17" cy="385.5369" fill="#84BE84" rx="3" ry="3" style="stroke:#038048;stroke-width:1;"/><text fill="#000000" font-family="sans-serif" font-size="14" lengthAdjust="spacing" textLength="153.7194" x="26" y="389.4688">setFirstDate(Date): void</text><ellipse cx="17" cy="404.6048" fill="#84BE84" rx="3" ry="3" style="stroke:#038048;stroke-width:1;"/><text fill="#000000" font-family="sans-serif" font-size="14" lengthAdjust="spacing" textLength="126.3495" x="26" y="408.5368">getLastDate(): Date</text><ellipse cx="17" cy="423.6727" fill="#84BE84" rx="3" ry="3" style="stroke:#038048;stroke-width:1;"/><text fill="#000000" font-family="sans-serif" font-size="14" lengthAdjust="spacing" textLength="152.2494" x="26" y="427.6047">setLastDate(Date): void</text><ellipse cx="17" cy="442.7406" fill="#84BE84" rx="3" ry="3" style="stroke:#038048;stroke-width:1;"/><text fill="#000000" font-family="sans-serif" font-size="14" lengthAdjust="spacing" textLength="261.449" x="26" y="446.6726">withId(long): ViewAuditAuthorSummary</text><ellipse cx="17" cy="461.8085" fill="#84BE84" rx="3" ry="3" style="stroke:#038048;stroke-width:1;"/><text fill="#000000" font-family="sans-serif" font-size="14" lengthAdjust="spacing" textLength="303.7009" x="26" y="465.7405">withAuthor(String): ViewAuditAuthorSummary</text><ellipse cx="17" cy="480.8764" fill="#84BE84" rx="3" ry="3" style="stroke:#038048;stroke-width:1;"/><text fill="#000000" font-family="sans-serif" font-size="14" lengthAdjust="spacing" textLength="305.3109" x="26" y="484.8084">withChanges(long): ViewAuditAuthorSummary</text><ellipse cx="17" cy="499.9444" fill="#84BE84" rx="3" ry="3" style="stroke:#038048;stroke-width:1;"/><text fill="#000000" font-family="sans-serif" font-size="14" lengthAdjust="spacing" textLength="309.2169" x="26" y="503.8763">withFirstDate(Date): ViewAuditAuthorSummary</text><ellipse cx="17" cy="519.0123" fill="#84BE84" rx="3" ry="3" style="stroke:#038048;stroke-width:1;"/><text fill="#000000" font-family="sans-serif" font-size="14" lengthAdjust="spacing" textLength="307.7468" x="26" y="522.9443">withLastDate(Date): ViewAuditAuthorSummary</text></a></g><!--class com.hack23.cia.model.common.api.ModelObject--><g class="entity" data-entity="com.hack23.cia.model.common.api.ModelObject" data-source-line="36" data-uid="ent0003" id="entity_com.hack23.cia.model.common.api.ModelObject"><rect fill="#F1F1F1" height="42.6879" rx="2.5" ry="2.5" style="stroke:#181818;stroke-width:0.5;" width="189.3398" x="79" y="12"/><ellipse cx="94" cy="33.344" fill="#B4A7E5" rx="11" ry="11" style="stroke:#181818;stroke-width:1;"/><path d="M89.9219,29.1096 L89.9219,26.9533 L97.3125,26.9533 L97.3125,29.1096 L94.8438,29.1096 L94.8438,37.1877 L97.3125,37.1877 L97.3125,39.344 L89.9219,39.344 L89.9219,37.1877 L92.3906,37.1877 L92.3906,29.1096 L89.9219,29.1096 Z " fill="#000000"/><text fill="#000000" font-family="sans-serif" font-size="14" font-style="italic" lengthAdjust="spacing" textLength="78.1477" x="147.596" y="31.9659">ModelObject</text><text fill="#000000" font-family="sans-serif" font-size="10" font-style="italic" lengthAdjust="spacing" textLength="157.3398" x="108" y="46.7579">com.hack23.cia.model.common.api</text></g><g class="link" data-entity-1="com.hack23.cia.model.common.api.ModelObject" data-entity-2="com.hack23.cia.model.internal.application.data.audit.impl.ViewAuditAuthorSummary" data-uid="lnk4" id="link_com.hack23.cia.model.common.api.ModelObject_com.hack23.cia.model.internal.application.data.audit.impl.ViewAuditAuthorSummary"><polygon fill="none" points="173.5,55.2073,167.5,73.2073,179.5,73.2073,173.5,55.2073" style="stroke:#181818;stroke-width:1;"/><path d="M173.5,73.2073 C173.5,82.6552 173.5,76.8571 173.5,90.7954" fill="none" style="stroke:#181818;stroke-width:1;stroke-dasharray:7,7;"/></g><g class="footer" data-source-line="46"><text fill="#888888" font-family="sans-serif" font-size="10" lengthAdjust="spacing" textLength="2.6" x="168.7" y="535.69">&#160;</text><a href="https://github.com/talsma-ict/umldoclet" target="_top" title="https://github.com/talsma-ict/umldoclet" xlink:actuate="onRequest" xlink:href="https://github.com/talsma-ict/umldoclet" xlink:show="new" xlink:title="https://github.com/talsma-ict/umldoclet" xlink:type="simple"><text fill="#888888" font-family="sans-serif" font-size="10" lengthAdjust="spacing" textLength="76.7199" x="131.64" y="549.31">UMLDoclet 2.2.4</text></a></g><!--SRC=[hLNTJzim47_dhxZ1mq1GDmqTeX52gie-c8eshMKlfG_Nn4syEdPcEw1kut-VdPGspGAhfkKXKUvtl_koxmu0u3KCPBPKB4uC60acOHfkRuQ08eAO2ghGq0XOYZ7LCADSYbYNYXGmDubK8EV5NoYLeZgJ8c8YXezuZw1bhaAgoTuU5Ax6JzOVK5UipvPEU2L3JWqS3eug8VbUvwpbU_uPZ97h5E5wC2OhQnkEJtpI1MkRiv0ARKtc8gAg2AkVOMW_mn8vWNkgD9F2ShoL7PTgA8L19ZHag8nsANtcA8oBjKEi_pUauy5XVpJS3ixh5S6TG5y9p2Fu8h_dwtnVPGfZ6pB7fSmDw9GQ55XYsaOjCBNrmf2EgFMAnfPII44BF64H1PfcPWbpHdcawr9hB95MNCX3Zbh3_eLcFsZGwLv-PVIXdqVCz8iJ6kLfYcfv9rOAtcKeKv9WkF1FISYGf3AYd31Xg4s34ymoMqWqjamaGeC4dIt2qeplWpsvVsQJvi1WCca6I69IFft2po9BznomA01t2JUIyXO6C3AALULXWi9Ushhwd2bjhkoz2y2zDu2jOPFyEARcEZeygjavreNOoInqBrcqnIZJSAnQM8wt0akaYJqeGszq-eGzv_dTKtwElPs9hgBkrSGVuWlqDTZ8Vc0csTIa-KYtjUkLs8LJAy0kb3-oteLKp_K5pcFPXaKBp6r3LrhnnZN7fzat6fg_zPyLfhPdC6FFTzb6XrGihwR0xWIu-4N8V-_ZCemBRPQSNgwBEPVIMgpqi7i-B3EgXami1fBRkNTmtepUkZ7EcQ1sSuGBGUsKyzQQZwMxTiNVojUTc4mIOp8TjDknFSfyvkhGDiKAQR7GjFEKH-Nkg6sHwNIr5TwlrvERy2sls-fqnfrkSDeDl5DotklvlRDUjtFi-O7dJTxcIcQqFJ8oN2IIfzFV]--></g></svg>