<?xml version="1.0" encoding="UTF-8" standalone="no"?><svg xmlns="http://www.w3.org/2000/svg" xmlns:xlink="http://www.w3.org/1999/xlink" contentScriptType="application/ecmascript" contentStyleType="text/css" height="503px" preserveAspectRatio="none" style="width:663px;height:503px;" version="1.1" viewBox="0 0 663 503" width="663px" zoomAndPan="magnify"><defs><filter height="300%" id="fhoreoiarynd7" width="300%" x="-1" y="-1"><feGaussianBlur result="blurOut" stdDeviation="2.0"/><feColorMatrix in="blurOut" result="blurOut2" type="matrix" values="0 0 0 0 0 0 0 0 0 0 0 0 0 0 0 0 0 0 .4 0"/><feOffset dx="4.0" dy="4.0" in="blurOut2" result="blurOut3"/><feBlend in="SourceGraphic" in2="blurOut3" mode="normal"/></filter></defs><g><!--cluster com.hack23.cia.model.internal.application.data.audit.impl--><polygon fill="#FFFFFF" filter="url(#fhoreoiarynd7)" points="14,124,470,124,477,146.2969,641,146.2969,641,463,14,463,14,124" style="stroke: #000000; stroke-width: 1.5;"/><line style="stroke: #000000; stroke-width: 1.5;" x1="14" x2="477" y1="146.2969" y2="146.2969"/><text fill="#000000" font-family="sans-serif" font-size="14" font-weight="bold" lengthAdjust="spacingAndGlyphs" textLength="450" x="18" y="138.9951">com.hack23.cia.model.internal.application.data.audit.impl</text><!--cluster com.hack23.cia.model.common.api--><polygon fill="#FFFFFF" filter="url(#fhoreoiarynd7)" points="204,16,485,16,492,38.2969,495,38.2969,495,99,204,99,204,16" style="stroke: #000000; stroke-width: 1.5;"/><line style="stroke: #000000; stroke-width: 1.5;" x1="204" x2="492" y1="38.2969" y2="38.2969"/><text fill="#000000" font-family="sans-serif" font-size="14" font-weight="bold" lengthAdjust="spacingAndGlyphs" textLength="275" x="208" y="30.9951">com.hack23.cia.model.common.api</text><!--class com.hack23.cia.model.internal.application.data.audit.impl.ViewAuditDataSummary--><a href="ViewAuditDataSummary.html" target="_top" xlink:actuate="onRequest" xlink:show="new" xlink:title="ViewAuditDataSummary.html" xlink:type="simple"><rect fill="#FEFECE" filter="url(#fhoreoiarynd7)" height="201.6563" id="com.hack23.cia.model.internal.application.data.audit.impl.ViewAuditDataSummary" style="stroke: #A80036; stroke-width: 1.5;" width="287" x="345.5" y="202"/><ellipse cx="411.25" cy="218" fill="#ADD1B2" rx="11" ry="11" style="stroke: #A80036; stroke-width: 1.0;"/><path d="M414.2188,223.6406 Q413.6406,223.9375 413,224.0781 Q412.3594,224.2344 411.6563,224.2344 Q409.1563,224.2344 407.8281,222.5938 Q406.5156,220.9375 406.5156,217.8125 Q406.5156,214.6875 407.8281,213.0313 Q409.1563,211.375 411.6563,211.375 Q412.3594,211.375 413,211.5313 Q413.6563,211.6875 414.2188,211.9844 L414.2188,214.7031 Q413.5938,214.125 413,213.8594 Q412.4063,213.5781 411.7813,213.5781 Q410.4375,213.5781 409.75,214.6563 Q409.0625,215.7188 409.0625,217.8125 Q409.0625,219.9063 409.75,220.9844 Q410.4375,222.0469 411.7813,222.0469 Q412.4063,222.0469 413,221.7813 Q413.5938,221.5 414.2188,220.9219 L414.2188,223.6406 Z "/><text fill="#000000" font-family="sans-serif" font-size="12" lengthAdjust="spacingAndGlyphs" textLength="147" x="431.75" y="222.1543">ViewAuditDataSummary</text><line style="stroke: #A80036; stroke-width: 1.5;" x1="346.5" x2="631.5" y1="234" y2="234"/><polygon fill="none" points="356.5,240.9023,360.5,244.9023,356.5,248.9023,352.5,244.9023" style="stroke: #B38D22; stroke-width: 1.0;"/><text fill="#000000" font-family="sans-serif" font-size="11" lengthAdjust="spacingAndGlyphs" textLength="42" x="365.5" y="248.2104">id: long</text><polygon fill="none" points="356.5,253.707,360.5,257.707,356.5,261.707,352.5,257.707" style="stroke: #B38D22; stroke-width: 1.0;"/><text fill="#000000" font-family="sans-serif" font-size="11" lengthAdjust="spacingAndGlyphs" textLength="94" x="365.5" y="261.0151">dataType: String</text><polygon fill="none" points="356.5,266.5117,360.5,270.5117,356.5,274.5117,352.5,270.5117" style="stroke: #B38D22; stroke-width: 1.0;"/><text fill="#000000" font-family="sans-serif" font-size="11" lengthAdjust="spacingAndGlyphs" textLength="80" x="365.5" y="273.8198">dataSize: long</text><line style="stroke: #A80036; stroke-width: 1.5;" x1="346.5" x2="631.5" y1="280.4141" y2="280.4141"/><ellipse cx="356.5" cy="292.3164" fill="#84BE84" rx="3" ry="3" style="stroke: #038048; stroke-width: 1.0;"/><text fill="#000000" font-family="sans-serif" font-size="11" lengthAdjust="spacingAndGlyphs" textLength="68" x="365.5" y="294.6245">getId(): long</text><ellipse cx="356.5" cy="305.1211" fill="#84BE84" rx="3" ry="3" style="stroke: #038048; stroke-width: 1.0;"/><text fill="#000000" font-family="sans-serif" font-size="11" lengthAdjust="spacingAndGlyphs" textLength="91" x="365.5" y="307.4292">setId(long): void</text><ellipse cx="356.5" cy="317.9258" fill="#84BE84" rx="3" ry="3" style="stroke: #038048; stroke-width: 1.0;"/><text fill="#000000" font-family="sans-serif" font-size="11" lengthAdjust="spacingAndGlyphs" textLength="121" x="365.5" y="320.2339">getDataType(): String</text><ellipse cx="356.5" cy="330.7305" fill="#84BE84" rx="3" ry="3" style="stroke: #038048; stroke-width: 1.0;"/><text fill="#000000" font-family="sans-serif" font-size="11" lengthAdjust="spacingAndGlyphs" textLength="144" x="365.5" y="333.0386">setDataType(String): void</text><ellipse cx="356.5" cy="343.5352" fill="#84BE84" rx="3" ry="3" style="stroke: #038048; stroke-width: 1.0;"/><text fill="#000000" font-family="sans-serif" font-size="11" lengthAdjust="spacingAndGlyphs" textLength="107" x="365.5" y="345.8433">getDataSize(): long</text><ellipse cx="356.5" cy="356.3398" fill="#84BE84" rx="3" ry="3" style="stroke: #038048; stroke-width: 1.0;"/><text fill="#000000" font-family="sans-serif" font-size="11" lengthAdjust="spacingAndGlyphs" textLength="130" x="365.5" y="358.6479">setDataSize(long): void</text><ellipse cx="356.5" cy="369.1445" fill="#84BE84" rx="3" ry="3" style="stroke: #038048; stroke-width: 1.0;"/><text fill="#000000" font-family="sans-serif" font-size="11" lengthAdjust="spacingAndGlyphs" textLength="208" x="365.5" y="371.4526">withId(long): ViewAuditDataSummary</text><ellipse cx="356.5" cy="381.9492" fill="#84BE84" rx="3" ry="3" style="stroke: #038048; stroke-width: 1.0;"/><text fill="#000000" font-family="sans-serif" font-size="11" lengthAdjust="spacingAndGlyphs" textLength="261" x="365.5" y="384.2573">withDataType(String): ViewAuditDataSummary</text><ellipse cx="356.5" cy="394.7539" fill="#84BE84" rx="3" ry="3" style="stroke: #038048; stroke-width: 1.0;"/><text fill="#000000" font-family="sans-serif" font-size="11" lengthAdjust="spacingAndGlyphs" textLength="247" x="365.5" y="397.062">withDataSize(long): ViewAuditDataSummary</text></a><!--class com.hack23.cia.model.internal.application.data.audit.impl.ViewAuditAuthorSummary--><a href="ViewAuditAuthorSummary.html" target="_top" xlink:actuate="onRequest" xlink:show="new" xlink:title="ViewAuditAuthorSummary.html" xlink:type="simple"><rect fill="#FEFECE" filter="url(#fhoreoiarynd7)" height="304.0938" id="com.hack23.cia.model.internal.application.data.audit.impl.ViewAuditAuthorSummary" style="stroke: #A80036; stroke-width: 1.5;" width="288" x="22" y="151"/><ellipse cx="82.25" cy="167" fill="#ADD1B2" rx="11" ry="11" style="stroke: #A80036; stroke-width: 1.0;"/><path d="M85.2188,172.6406 Q84.6406,172.9375 84,173.0781 Q83.3594,173.2344 82.6563,173.2344 Q80.1563,173.2344 78.8281,171.5938 Q77.5156,169.9375 77.5156,166.8125 Q77.5156,163.6875 78.8281,162.0313 Q80.1563,160.375 82.6563,160.375 Q83.3594,160.375 84,160.5313 Q84.6563,160.6875 85.2188,160.9844 L85.2188,163.7031 Q84.5938,163.125 84,162.8594 Q83.4063,162.5781 82.7813,162.5781 Q81.4375,162.5781 80.75,163.6563 Q80.0625,164.7188 80.0625,166.8125 Q80.0625,168.9063 80.75,169.9844 Q81.4375,171.0469 82.7813,171.0469 Q83.4063,171.0469 84,170.7813 Q84.5938,170.5 85.2188,169.9219 L85.2188,172.6406 Z "/><text fill="#000000" font-family="sans-serif" font-size="12" lengthAdjust="spacingAndGlyphs" textLength="159" x="102.75" y="171.1543">ViewAuditAuthorSummary</text><line style="stroke: #A80036; stroke-width: 1.5;" x1="23" x2="309" y1="183" y2="183"/><polygon fill="none" points="33,189.9023,37,193.9023,33,197.9023,29,193.9023" style="stroke: #B38D22; stroke-width: 1.0;"/><text fill="#000000" font-family="sans-serif" font-size="11" lengthAdjust="spacingAndGlyphs" textLength="42" x="42" y="197.2104">id: long</text><polygon fill="none" points="33,202.707,37,206.707,33,210.707,29,206.707" style="stroke: #B38D22; stroke-width: 1.0;"/><text fill="#000000" font-family="sans-serif" font-size="11" lengthAdjust="spacingAndGlyphs" textLength="79" x="42" y="210.0151">author: String</text><polygon fill="none" points="33,215.5117,37,219.5117,33,223.5117,29,219.5117" style="stroke: #B38D22; stroke-width: 1.0;"/><text fill="#000000" font-family="sans-serif" font-size="11" lengthAdjust="spacingAndGlyphs" textLength="80" x="42" y="222.8198">changes: long</text><polygon fill="none" points="33,228.3164,37,232.3164,33,236.3164,29,232.3164" style="stroke: #B38D22; stroke-width: 1.0;"/><text fill="#000000" font-family="sans-serif" font-size="11" lengthAdjust="spacingAndGlyphs" textLength="83" x="42" y="235.6245">firstDate: Date</text><polygon fill="none" points="33,241.1211,37,245.1211,33,249.1211,29,245.1211" style="stroke: #B38D22; stroke-width: 1.0;"/><text fill="#000000" font-family="sans-serif" font-size="11" lengthAdjust="spacingAndGlyphs" textLength="81" x="42" y="248.4292">lastDate: Date</text><line style="stroke: #A80036; stroke-width: 1.5;" x1="23" x2="309" y1="255.0234" y2="255.0234"/><ellipse cx="33" cy="266.9258" fill="#84BE84" rx="3" ry="3" style="stroke: #038048; stroke-width: 1.0;"/><text fill="#000000" font-family="sans-serif" font-size="11" lengthAdjust="spacingAndGlyphs" textLength="68" x="42" y="269.2339">getId(): long</text><ellipse cx="33" cy="279.7305" fill="#84BE84" rx="3" ry="3" style="stroke: #038048; stroke-width: 1.0;"/><text fill="#000000" font-family="sans-serif" font-size="11" lengthAdjust="spacingAndGlyphs" textLength="91" x="42" y="282.0386">setId(long): void</text><ellipse cx="33" cy="292.5352" fill="#84BE84" rx="3" ry="3" style="stroke: #038048; stroke-width: 1.0;"/><text fill="#000000" font-family="sans-serif" font-size="11" lengthAdjust="spacingAndGlyphs" textLength="105" x="42" y="294.8433">getAuthor(): String</text><ellipse cx="33" cy="305.3398" fill="#84BE84" rx="3" ry="3" style="stroke: #038048; stroke-width: 1.0;"/><text fill="#000000" font-family="sans-serif" font-size="11" lengthAdjust="spacingAndGlyphs" textLength="128" x="42" y="307.6479">setAuthor(String): void</text><ellipse cx="33" cy="318.1445" fill="#84BE84" rx="3" ry="3" style="stroke: #038048; stroke-width: 1.0;"/><text fill="#000000" font-family="sans-serif" font-size="11" lengthAdjust="spacingAndGlyphs" textLength="108" x="42" y="320.4526">getChanges(): long</text><ellipse cx="33" cy="330.9492" fill="#84BE84" rx="3" ry="3" style="stroke: #038048; stroke-width: 1.0;"/><text fill="#000000" font-family="sans-serif" font-size="11" lengthAdjust="spacingAndGlyphs" textLength="131" x="42" y="333.2573">setChanges(long): void</text><ellipse cx="33" cy="343.7539" fill="#84BE84" rx="3" ry="3" style="stroke: #038048; stroke-width: 1.0;"/><text fill="#000000" font-family="sans-serif" font-size="11" lengthAdjust="spacingAndGlyphs" textLength="111" x="42" y="346.062">getFirstDate(): Date</text><ellipse cx="33" cy="356.5586" fill="#84BE84" rx="3" ry="3" style="stroke: #038048; stroke-width: 1.0;"/><text fill="#000000" font-family="sans-serif" font-size="11" lengthAdjust="spacingAndGlyphs" textLength="134" x="42" y="358.8667">setFirstDate(Date): void</text><ellipse cx="33" cy="369.3633" fill="#84BE84" rx="3" ry="3" style="stroke: #038048; stroke-width: 1.0;"/><text fill="#000000" font-family="sans-serif" font-size="11" lengthAdjust="spacingAndGlyphs" textLength="110" x="42" y="371.6714">getLastDate(): Date</text><ellipse cx="33" cy="382.168" fill="#84BE84" rx="3" ry="3" style="stroke: #038048; stroke-width: 1.0;"/><text fill="#000000" font-family="sans-serif" font-size="11" lengthAdjust="spacingAndGlyphs" textLength="133" x="42" y="384.4761">setLastDate(Date): void</text><ellipse cx="33" cy="394.9727" fill="#84BE84" rx="3" ry="3" style="stroke: #038048; stroke-width: 1.0;"/><text fill="#000000" font-family="sans-serif" font-size="11" lengthAdjust="spacingAndGlyphs" textLength="219" x="42" y="397.2808">withId(long): ViewAuditAuthorSummary</text><ellipse cx="33" cy="407.7773" fill="#84BE84" rx="3" ry="3" style="stroke: #038048; stroke-width: 1.0;"/><text fill="#000000" font-family="sans-serif" font-size="11" lengthAdjust="spacingAndGlyphs" textLength="256" x="42" y="410.0854">withAuthor(String): ViewAuditAuthorSummary</text><ellipse cx="33" cy="420.582" fill="#84BE84" rx="3" ry="3" style="stroke: #038048; stroke-width: 1.0;"/><text fill="#000000" font-family="sans-serif" font-size="11" lengthAdjust="spacingAndGlyphs" textLength="259" x="42" y="422.8901">withChanges(long): ViewAuditAuthorSummary</text><ellipse cx="33" cy="433.3867" fill="#84BE84" rx="3" ry="3" style="stroke: #038048; stroke-width: 1.0;"/><text fill="#000000" font-family="sans-serif" font-size="11" lengthAdjust="spacingAndGlyphs" textLength="262" x="42" y="435.6948">withFirstDate(Date): ViewAuditAuthorSummary</text><ellipse cx="33" cy="446.1914" fill="#84BE84" rx="3" ry="3" style="stroke: #038048; stroke-width: 1.0;"/><text fill="#000000" font-family="sans-serif" font-size="11" lengthAdjust="spacingAndGlyphs" textLength="261" x="42" y="448.4995">withLastDate(Date): ViewAuditAuthorSummary</text></a><!--class com.hack23.cia.model.common.api.ModelObject--><rect fill="#FEFECE" filter="url(#fhoreoiarynd7)" height="48" id="com.hack23.cia.model.common.api.ModelObject" style="stroke: #A80036; stroke-width: 1.5;" width="108" x="257" y="43"/><ellipse cx="272" cy="59" fill="#B4A7E5" rx="11" ry="11" style="stroke: #A80036; stroke-width: 1.0;"/><path d="M267.9219,54.7656 L267.9219,52.6094 L275.3125,52.6094 L275.3125,54.7656 L272.8438,54.7656 L272.8438,62.8438 L275.3125,62.8438 L275.3125,65 L267.9219,65 L267.9219,62.8438 L270.3906,62.8438 L270.3906,54.7656 L267.9219,54.7656 Z "/><text fill="#000000" font-family="sans-serif" font-size="12" font-style="italic" lengthAdjust="spacingAndGlyphs" textLength="76" x="286" y="63.1543">ModelObject</text><line style="stroke: #A80036; stroke-width: 1.5;" x1="258" x2="364" y1="75" y2="75"/><line style="stroke: #A80036; stroke-width: 1.5;" x1="258" x2="364" y1="83" y2="83"/><!--link com.hack23.cia.model.common.api.ModelObject to com.hack23.cia.model.internal.application.data.audit.impl.ViewAuditDataSummary--><path d="M341.5123,107.4545 C361.1729,133.5213 387.667,168.6484 412.7757,201.9386 " fill="none" id="com.hack23.cia.model.common.api.ModelObject-com.hack23.cia.model.internal.application.data.audit.impl.ViewAuditDataSummary" style="stroke: #A80036; stroke-width: 1.0; stroke-dasharray: 7.0,7.0;"/><polygon fill="none" points="335.8334,111.5499,329.3787,91.3673,347.0106,103.1196,335.8334,111.5499" style="stroke: #A80036; stroke-width: 1.0;"/><!--link com.hack23.cia.model.common.api.ModelObject to com.hack23.cia.model.internal.application.data.audit.impl.ViewAuditAuthorSummary--><path d="M285.4201,108.6334 C277.7474,121.1214 268.8457,135.6098 259.4286,150.9368 " fill="none" id="com.hack23.cia.model.common.api.ModelObject-com.hack23.cia.model.internal.application.data.audit.impl.ViewAuditAuthorSummary" style="stroke: #A80036; stroke-width: 1.0; stroke-dasharray: 7.0,7.0;"/><polygon fill="none" points="279.5945,104.7434,296.0286,91.3673,291.5229,112.0723,279.5945,104.7434" style="stroke: #A80036; stroke-width: 1.0;"/><text fill="#888888" font-family="sans-serif" font-size="10" lengthAdjust="spacingAndGlyphs" textLength="186" x="240.5" y="490.2822">UMLDoclet 2.0.5, PlantUML 1.2019.08</text><!--
@startuml
    namespace com.hack23.cia.model.internal.application.data.audit.impl {

        class ViewAuditDataSummary [[ViewAuditDataSummary.html]] {
            #id: long
            #dataType: String
            #dataSize: long
            +getId(): long
            +setId(long): void
            +getDataType(): String
            +setDataType(String): void
            +getDataSize(): long
            +setDataSize(long): void
            +withId(long): ViewAuditDataSummary
            +withDataType(String): ViewAuditDataSummary
            +withDataSize(long): ViewAuditDataSummary
        }

        class ViewAuditAuthorSummary [[ViewAuditAuthorSummary.html]] {
            #id: long
            #author: String
            #changes: long
            #firstDate: Date
            #lastDate: Date
            +getId(): long
            +setId(long): void
            +getAuthor(): String
            +setAuthor(String): void
            +getChanges(): long
            +setChanges(long): void
            +getFirstDate(): Date
            +setFirstDate(Date): void
            +getLastDate(): Date
            +setLastDate(Date): void
            +withId(long): ViewAuditAuthorSummary
            +withAuthor(String): ViewAuditAuthorSummary
            +withChanges(long): ViewAuditAuthorSummary
            +withFirstDate(Date): ViewAuditAuthorSummary
            +withLastDate(Date): ViewAuditAuthorSummary
        }

        com.hack23.cia.model.common.api.ModelObject <|.. ViewAuditDataSummary
        com.hack23.cia.model.common.api.ModelObject <|.. ViewAuditAuthorSummary
    }

    namespace com.hack23.cia.model.common.api {
        interface ModelObject
    }

    center footer UMLDoclet 2.0.5, PlantUML 1.2019.08
@enduml

PlantUML version 1.2019.08(Sat Jul 13 21:25:14 CEST 2019)
(APACHE source distribution)
Java Runtime: OpenJDK Runtime Environment
JVM: OpenJDK 64-Bit Server VM
Java Version: 11.0.4+11-post-Ubuntu-1ubuntu219.04
Operating System: Linux
OS Version: 5.0.0-27-generic
Default Encoding: UTF-8
Language: en
Country: US
--></g></svg>