<?xml version="1.0" encoding="UTF-8" standalone="no"?><svg xmlns="http://www.w3.org/2000/svg" xmlns:xlink="http://www.w3.org/1999/xlink" contentScriptType="application/ecmascript" contentStyleType="text/css" height="215px" preserveAspectRatio="none" style="width:352px;height:215px;background:#FFFFFF;" version="1.1" viewBox="0 0 352 215" width="352px" zoomAndPan="magnify"><defs><filter height="300%" id="ffen63oshzao8" width="300%" x="-1" y="-1"><feGaussianBlur result="blurOut" stdDeviation="2.0"/><feColorMatrix in="blurOut" result="blurOut2" type="matrix" values="0 0 0 0 0 0 0 0 0 0 0 0 0 0 0 0 0 0 .4 0"/><feOffset dx="4.0" dy="4.0" in="blurOut2" result="blurOut3"/><feBlend in="SourceGraphic" in2="blurOut3" mode="normal"/></filter></defs><g><!--MD5=[a5368726483ba7ab9c2acfc4b7589857]
class com.hack23.cia.web.impl.ui.application.views.user.document.DocumentView--><a href="DocumentView.html" target="_top" title="DocumentView.html" xlink:actuate="onRequest" xlink:href="DocumentView.html" xlink:show="new" xlink:title="DocumentView.html" xlink:type="simple"><rect codeLine="5" fill="#FEFECE" filter="url(#ffen63oshzao8)" height="79.5469" id="com.hack23.cia.web.impl.ui.application.views.user.document.DocumentView" style="stroke:#A80036;stroke-width:1.5;" width="323" x="11" y="105"/><ellipse cx="26" cy="123.9688" fill="#ADD1B2" rx="11" ry="11" style="stroke:#A80036;stroke-width:1.0;"/><path d="M28.9688,129.6094 Q28.3906,129.9063 27.75,130.0469 Q27.1094,130.2031 26.4063,130.2031 Q23.9063,130.2031 22.5781,128.5625 Q21.2656,126.9063 21.2656,123.7813 Q21.2656,120.6563 22.5781,119 Q23.9063,117.3438 26.4063,117.3438 Q27.1094,117.3438 27.75,117.5 Q28.4063,117.6563 28.9688,117.9531 L28.9688,120.6719 Q28.3438,120.0938 27.75,119.8281 Q27.1563,119.5469 26.5313,119.5469 Q25.1875,119.5469 24.5,120.625 Q23.8125,121.6875 23.8125,123.7813 Q23.8125,125.875 24.5,126.9531 Q25.1875,128.0156 26.5313,128.0156 Q27.1563,128.0156 27.75,127.75 Q28.3438,127.4688 28.9688,126.8906 L28.9688,129.6094 Z " fill="#000000"/><text fill="#000000" font-family="sans-serif" font-size="14" lengthAdjust="spacing" textLength="105" x="133" y="122.9951">DocumentView</text><text fill="#000000" font-family="sans-serif" font-size="10" lengthAdjust="spacing" textLength="291" x="40" y="135.5791">com.hack23.cia.web.impl.ui.application.views.user.document</text><line style="stroke:#A80036;stroke-width:1.5;" x1="12" x2="333" y1="142.9375" y2="142.9375"/><ellipse cx="22" cy="153.9375" rx="3" ry="3" style="stroke:#038048;stroke-width:1.0;fill:none;"/><text fill="#000000" font-family="sans-serif" font-size="11" lengthAdjust="spacing" text-decoration="underline" textLength="73" x="31" y="157.1479">NAME: String</text><line style="stroke:#A80036;stroke-width:1.5;" x1="12" x2="333" y1="163.7422" y2="163.7422"/><ellipse cx="22" cy="174.7422" fill="#84BE84" rx="3" ry="3" style="stroke:#038048;stroke-width:1.0;"/><text fill="#000000" font-family="sans-serif" font-size="11" lengthAdjust="spacing" textLength="195" x="31" y="177.9526">DocumentView(ApplicationContext)</text></a><!--MD5=[968b4da468365d2329577b3d306a41ed]
class com.hack23.cia.web.impl.ui.application.views.user.common.AbstractUserView--><a href="../common/AbstractUserView.html" target="_top" title="../common/AbstractUserView.html" xlink:actuate="onRequest" xlink:href="../common/AbstractUserView.html" xlink:show="new" xlink:title="../common/AbstractUserView.html" xlink:type="simple"><rect codeLine="10" fill="#FEFECE" filter="url(#ffen63oshzao8)" height="37.9375" id="com.hack23.cia.web.impl.ui.application.views.user.common.AbstractUserView" style="stroke:#A80036;stroke-width:1.5;" width="331" x="7" y="7"/><ellipse cx="22" cy="25.9688" fill="#A9DCDF" rx="11" ry="11" style="stroke:#A80036;stroke-width:1.0;"/><path d="M22.1094,21.3125 L20.9531,26.3906 L23.2813,26.3906 L22.1094,21.3125 Z M20.625,19.0781 L23.6094,19.0781 L26.9688,31.4688 L24.5156,31.4688 L23.75,28.4063 L20.4688,28.4063 L19.7188,31.4688 L17.2813,31.4688 L20.625,19.0781 Z " fill="#000000"/><text fill="#000000" font-family="sans-serif" font-size="14" font-style="italic" lengthAdjust="spacing" textLength="121" x="125" y="24.9951">AbstractUserView</text><text fill="#000000" font-family="sans-serif" font-size="10" font-style="italic" lengthAdjust="spacing" textLength="299" x="36" y="37.5791">com.hack23.cia.web.impl.ui.application.views.user.common</text></a><!--MD5=[6c2fd801d92e5071cb6d7cd25043dd23]
reverse link com.hack23.cia.web.impl.ui.application.views.user.common.AbstractUserView to com.hack23.cia.web.impl.ui.application.views.user.document.DocumentView--><path codeLine="12" d="M172.5,65.14 C172.5,77.87 172.5,92.07 172.5,104.87 " fill="none" id="com.hack23.cia.web.impl.ui.application.views.user.common.AbstractUserView-backto-com.hack23.cia.web.impl.ui.application.views.user.document.DocumentView" style="stroke:#A80036;stroke-width:1.0;"/><polygon fill="none" points="165.5,65.02,172.5,45.02,179.5,65.02,165.5,65.02" style="stroke:#A80036;stroke-width:1.0;"/><text fill="#888888" font-family="sans-serif" font-size="10" lengthAdjust="spacing" textLength="186" x="76.5" y="206.8291">UMLDoclet 2.0.14, PlantUML 1.2021.9</text><!--MD5=[df0bf66d1e94a5b90939fcd98c57810d]
@startuml
    set namespaceSeparator none
    hide empty fields
    hide empty methods

    class "<size:14>DocumentView\n<size:10>com.hack23.cia.web.impl.ui.application.views.user.document" as com.hack23.cia.web.impl.ui.application.views.user.document.DocumentView [[DocumentView.html]] {
        {static} +NAME: String
        +DocumentView(ApplicationContext)
    }

    abstract class "<size:14>AbstractUserView\n<size:10>com.hack23.cia.web.impl.ui.application.views.user.common" as com.hack23.cia.web.impl.ui.application.views.user.common.AbstractUserView [[../common/AbstractUserView.html]]

    com.hack23.cia.web.impl.ui.application.views.user.common.AbstractUserView <|- - com.hack23.cia.web.impl.ui.application.views.user.document.DocumentView

    center footer UMLDoclet 2.0.14, PlantUML 1.2021.9
@enduml

PlantUML version 1.2021.9(Sun Jul 25 12:13:56 CEST 2021)
(APACHE source distribution)
Java Runtime: OpenJDK Runtime Environment
JVM: OpenJDK 64-Bit Server VM
Default Encoding: UTF-8
Language: en
Country: US
--></g></svg>