<?xml version="1.0" encoding="UTF-8" standalone="no"?><svg xmlns="http://www.w3.org/2000/svg" xmlns:xlink="http://www.w3.org/1999/xlink" contentStyleType="text/css" height="286px" preserveAspectRatio="none" style="width:981px;height:286px;background:#FFFFFF;" version="1.1" viewBox="0 0 981 286" width="981px" zoomAndPan="magnify"><defs/><g><!--MD5=[508bb13e39484e81ca945204374ea90c]
cluster com.hack23.cia.web.impl.ui.application.views.user.document--><g id="cluster_com.hack23.cia.web.impl.ui.application.views.user.document"><path d="M8.5,129 L492.5,129 A3.75,3.75 0 0 1 495,131.5 L502,151.2969 L971.5,151.2969 A2.5,2.5 0 0 1 974,153.7969 L974,258.5 A2.5,2.5 0 0 1 971.5,261 L8.5,261 A2.5,2.5 0 0 1 6,258.5 L6,131.5 A2.5,2.5 0 0 1 8.5,129 " style="stroke:#000000;stroke-width:1.5;fill:none;"/><line style="stroke:#000000;stroke-width:1.5;fill:none;" x1="6" x2="502" y1="151.2969" y2="151.2969"/><text fill="#000000" font-family="sans-serif" font-size="14" font-weight="bold" lengthAdjust="spacing" textLength="483" x="10" y="143.9951">com.hack23.cia.web.impl.ui.application.views.user.document</text></g><!--MD5=[b6f7de69fe91c8bcc3328c73a6375d62]
cluster com.hack23.cia.web.impl.ui.application.views.user.common--><g id="cluster_com.hack23.cia.web.impl.ui.application.views.user.common"><path d="M229.5,6 L701.5,6 A3.75,3.75 0 0 1 704,8.5 L711,28.2969 L711.5,28.2969 A2.5,2.5 0 0 1 714,30.7969 L714,102.5 A2.5,2.5 0 0 1 711.5,105 L229.5,105 A2.5,2.5 0 0 1 227,102.5 L227,8.5 A2.5,2.5 0 0 1 229.5,6 " style="stroke:#000000;stroke-width:1.5;fill:none;"/><line style="stroke:#000000;stroke-width:1.5;fill:none;" x1="227" x2="711" y1="28.2969" y2="28.2969"/><text fill="#000000" font-family="sans-serif" font-size="14" font-weight="bold" lengthAdjust="spacing" textLength="471" x="231" y="20.9951">com.hack23.cia.web.impl.ui.application.views.user.common</text></g><!--MD5=[a309fe579c953f0e9448e1a48eda1647]
class com.hack23.cia.web.impl.ui.application.views.user.document.SearchDocumentView--><a href="SearchDocumentView.html" target="_top" title="SearchDocumentView.html" xlink:actuate="onRequest" xlink:href="SearchDocumentView.html" xlink:show="new" xlink:title="SearchDocumentView.html" xlink:type="simple"><g id="elem_com.hack23.cia.web.impl.ui.application.views.user.document.SearchDocumentView"><rect codeLine="3" fill="#F1F1F1" height="80.5938" id="com.hack23.cia.web.impl.ui.application.views.user.document.SearchDocumentView" rx="2.5" ry="2.5" style="stroke:#181818;stroke-width:0.5;" width="318" x="640" y="164"/><ellipse cx="718.25" cy="180" fill="#ADD1B2" rx="11" ry="11" style="stroke:#181818;stroke-width:1.0;"/><path d="M721.2188,185.6406 Q720.6406,185.9375 720,186.0781 Q719.3594,186.2344 718.6563,186.2344 Q716.1563,186.2344 714.8281,184.5938 Q713.5156,182.9375 713.5156,179.8125 Q713.5156,176.6875 714.8281,175.0313 Q716.1563,173.375 718.6563,173.375 Q719.3594,173.375 720,173.5313 Q720.6563,173.6875 721.2188,173.9844 L721.2188,176.7031 Q720.5938,176.125 720,175.8594 Q719.4063,175.5781 718.7813,175.5781 Q717.4375,175.5781 716.75,176.6563 Q716.0625,177.7188 716.0625,179.8125 Q716.0625,181.9063 716.75,182.9844 Q717.4375,184.0469 718.7813,184.0469 Q719.4063,184.0469 720,183.7813 Q720.5938,183.5 721.2188,182.9219 L721.2188,185.6406 Z " fill="#000000"/><text fill="#000000" font-family="sans-serif" font-size="14" lengthAdjust="spacing" textLength="153" x="738.75" y="184.8467">SearchDocumentView</text><line style="stroke:#181818;stroke-width:0.5;" x1="641" x2="957" y1="196" y2="196"/><ellipse cx="651" cy="207" fill="none" rx="3" ry="3" style="stroke:#038048;stroke-width:1.0;"/><text fill="#000000" font-family="sans-serif" font-size="14" lengthAdjust="spacing" text-decoration="underline" textLength="89" x="660" y="212.9951">NAME: String</text><line style="stroke:#181818;stroke-width:0.5;" x1="641" x2="957" y1="220.2969" y2="220.2969"/><ellipse cx="651" cy="231.2969" fill="#84BE84" rx="3" ry="3" style="stroke:#038048;stroke-width:1.0;"/><text fill="#000000" font-family="sans-serif" font-size="14" lengthAdjust="spacing" textLength="292" x="660" y="237.292">SearchDocumentView(ApplicationContext)</text></g></a><!--MD5=[a5368726483ba7ab9c2acfc4b7589857]
class com.hack23.cia.web.impl.ui.application.views.user.document.DocumentView--><a href="DocumentView.html" target="_top" title="DocumentView.html" xlink:actuate="onRequest" xlink:href="DocumentView.html" xlink:show="new" xlink:title="DocumentView.html" xlink:type="simple"><g id="elem_com.hack23.cia.web.impl.ui.application.views.user.document.DocumentView"><rect codeLine="8" fill="#F1F1F1" height="80.5938" id="com.hack23.cia.web.impl.ui.application.views.user.document.DocumentView" rx="2.5" ry="2.5" style="stroke:#181818;stroke-width:0.5;" width="270" x="335" y="164"/><ellipse cx="413.25" cy="180" fill="#ADD1B2" rx="11" ry="11" style="stroke:#181818;stroke-width:1.0;"/><path d="M416.2188,185.6406 Q415.6406,185.9375 415,186.0781 Q414.3594,186.2344 413.6563,186.2344 Q411.1563,186.2344 409.8281,184.5938 Q408.5156,182.9375 408.5156,179.8125 Q408.5156,176.6875 409.8281,175.0313 Q411.1563,173.375 413.6563,173.375 Q414.3594,173.375 415,173.5313 Q415.6563,173.6875 416.2188,173.9844 L416.2188,176.7031 Q415.5938,176.125 415,175.8594 Q414.4063,175.5781 413.7813,175.5781 Q412.4375,175.5781 411.75,176.6563 Q411.0625,177.7188 411.0625,179.8125 Q411.0625,181.9063 411.75,182.9844 Q412.4375,184.0469 413.7813,184.0469 Q414.4063,184.0469 415,183.7813 Q415.5938,183.5 416.2188,182.9219 L416.2188,185.6406 Z " fill="#000000"/><text fill="#000000" font-family="sans-serif" font-size="14" lengthAdjust="spacing" textLength="105" x="433.75" y="184.8467">DocumentView</text><line style="stroke:#181818;stroke-width:0.5;" x1="336" x2="604" y1="196" y2="196"/><ellipse cx="346" cy="207" fill="none" rx="3" ry="3" style="stroke:#038048;stroke-width:1.0;"/><text fill="#000000" font-family="sans-serif" font-size="14" lengthAdjust="spacing" text-decoration="underline" textLength="89" x="355" y="212.9951">NAME: String</text><line style="stroke:#181818;stroke-width:0.5;" x1="336" x2="604" y1="220.2969" y2="220.2969"/><ellipse cx="346" cy="231.2969" fill="#84BE84" rx="3" ry="3" style="stroke:#038048;stroke-width:1.0;"/><text fill="#000000" font-family="sans-serif" font-size="14" lengthAdjust="spacing" textLength="244" x="355" y="237.292">DocumentView(ApplicationContext)</text></g></a><!--MD5=[cd0fad2156ea787d1040e653a571c792]
class com.hack23.cia.web.impl.ui.application.views.user.document.DocumentsView--><a href="DocumentsView.html" target="_top" title="DocumentsView.html" xlink:actuate="onRequest" xlink:href="DocumentsView.html" xlink:show="new" xlink:title="DocumentsView.html" xlink:type="simple"><g id="elem_com.hack23.cia.web.impl.ui.application.views.user.document.DocumentsView"><rect codeLine="13" fill="#F1F1F1" height="80.5938" id="com.hack23.cia.web.impl.ui.application.views.user.document.DocumentsView" rx="2.5" ry="2.5" style="stroke:#181818;stroke-width:0.5;" width="278" x="22" y="164"/><ellipse cx="100.25" cy="180" fill="#ADD1B2" rx="11" ry="11" style="stroke:#181818;stroke-width:1.0;"/><path d="M103.2188,185.6406 Q102.6406,185.9375 102,186.0781 Q101.3594,186.2344 100.6563,186.2344 Q98.1563,186.2344 96.8281,184.5938 Q95.5156,182.9375 95.5156,179.8125 Q95.5156,176.6875 96.8281,175.0313 Q98.1563,173.375 100.6563,173.375 Q101.3594,173.375 102,173.5313 Q102.6563,173.6875 103.2188,173.9844 L103.2188,176.7031 Q102.5938,176.125 102,175.8594 Q101.4063,175.5781 100.7813,175.5781 Q99.4375,175.5781 98.75,176.6563 Q98.0625,177.7188 98.0625,179.8125 Q98.0625,181.9063 98.75,182.9844 Q99.4375,184.0469 100.7813,184.0469 Q101.4063,184.0469 102,183.7813 Q102.5938,183.5 103.2188,182.9219 L103.2188,185.6406 Z " fill="#000000"/><text fill="#000000" font-family="sans-serif" font-size="14" lengthAdjust="spacing" textLength="113" x="120.75" y="184.8467">DocumentsView</text><line style="stroke:#181818;stroke-width:0.5;" x1="23" x2="299" y1="196" y2="196"/><ellipse cx="33" cy="207" fill="none" rx="3" ry="3" style="stroke:#038048;stroke-width:1.0;"/><text fill="#000000" font-family="sans-serif" font-size="14" lengthAdjust="spacing" text-decoration="underline" textLength="89" x="42" y="212.9951">NAME: String</text><line style="stroke:#181818;stroke-width:0.5;" x1="23" x2="299" y1="220.2969" y2="220.2969"/><ellipse cx="33" cy="231.2969" fill="#84BE84" rx="3" ry="3" style="stroke:#038048;stroke-width:1.0;"/><text fill="#000000" font-family="sans-serif" font-size="14" lengthAdjust="spacing" textLength="252" x="42" y="237.292">DocumentsView(ApplicationContext)</text></g></a><!--MD5=[968b4da468365d2329577b3d306a41ed]
class com.hack23.cia.web.impl.ui.application.views.user.common.AbstractUserView--><a href="../common/AbstractUserView.html" target="_top" title="../common/AbstractUserView.html" xlink:actuate="onRequest" xlink:href="../common/AbstractUserView.html" xlink:show="new" xlink:title="../common/AbstractUserView.html" xlink:type="simple"><g id="elem_com.hack23.cia.web.impl.ui.application.views.user.common.AbstractUserView"><rect codeLine="24" fill="#F1F1F1" height="48" id="com.hack23.cia.web.impl.ui.application.views.user.common.AbstractUserView" rx="2.5" ry="2.5" style="stroke:#181818;stroke-width:0.5;" width="153" x="393.5" y="41"/><ellipse cx="408.5" cy="57" fill="#A9DCDF" rx="11" ry="11" style="stroke:#181818;stroke-width:1.0;"/><path d="M408.6094,52.3438 L407.4531,57.4219 L409.7813,57.4219 L408.6094,52.3438 Z M407.125,50.1094 L410.1094,50.1094 L413.4688,62.5 L411.0156,62.5 L410.25,59.4375 L406.9688,59.4375 L406.2188,62.5 L403.7813,62.5 L407.125,50.1094 Z " fill="#000000"/><text fill="#000000" font-family="sans-serif" font-size="14" font-style="italic" lengthAdjust="spacing" textLength="121" x="422.5" y="61.8467">AbstractUserView</text><line style="stroke:#181818;stroke-width:0.5;" x1="394.5" x2="545.5" y1="73" y2="73"/><line style="stroke:#181818;stroke-width:0.5;" x1="394.5" x2="545.5" y1="81" y2="81"/></g></a><!--MD5=[fd83f732e8ae1858778f84faf546731a]
reverse link com.hack23.cia.web.impl.ui.application.views.user.common.AbstractUserView to com.hack23.cia.web.impl.ui.application.views.user.document.SearchDocumentView--><g id="link_com.hack23.cia.web.impl.ui.application.views.user.common.AbstractUserView_com.hack23.cia.web.impl.ui.application.views.user.document.SearchDocumentView"><path codeLine="18" d="M557.28,95.79 C578.91,103.6 601.92,112.29 623,121 C654.66,134.08 688.88,149.75 718.65,163.91 " fill="none" id="com.hack23.cia.web.impl.ui.application.views.user.common.AbstractUserView-backto-com.hack23.cia.web.impl.ui.application.views.user.document.SearchDocumentView" style="stroke:#181818;stroke-width:1.0;"/><polygon fill="none" points="554.79,102.33,538.31,89.02,559.5,89.15,554.79,102.33" style="stroke:#181818;stroke-width:1.0;"/></g><!--MD5=[6c2fd801d92e5071cb6d7cd25043dd23]
reverse link com.hack23.cia.web.impl.ui.application.views.user.common.AbstractUserView to com.hack23.cia.web.impl.ui.application.views.user.document.DocumentView--><g id="link_com.hack23.cia.web.impl.ui.application.views.user.common.AbstractUserView_com.hack23.cia.web.impl.ui.application.views.user.document.DocumentView"><path codeLine="19" d="M470,109.09 C470,126.64 470,146.8 470,163.97 " fill="none" id="com.hack23.cia.web.impl.ui.application.views.user.common.AbstractUserView-backto-com.hack23.cia.web.impl.ui.application.views.user.document.DocumentView" style="stroke:#181818;stroke-width:1.0;"/><polygon fill="none" points="463,109.01,470,89.01,477,109.01,463,109.01" style="stroke:#181818;stroke-width:1.0;"/></g><!--MD5=[6e1e5035eaddc35df4217ff33fd68678]
reverse link com.hack23.cia.web.impl.ui.application.views.user.common.AbstractUserView to com.hack23.cia.web.impl.ui.application.views.user.document.DocumentsView--><g id="link_com.hack23.cia.web.impl.ui.application.views.user.common.AbstractUserView_com.hack23.cia.web.impl.ui.application.views.user.document.DocumentsView"><path codeLine="20" d="M380.84,95.96 C360,103.59 338.05,112.16 318,121 C289.12,133.74 258.2,149.5 231.5,163.83 " fill="none" id="com.hack23.cia.web.impl.ui.application.views.user.common.AbstractUserView-backto-com.hack23.cia.web.impl.ui.application.views.user.document.DocumentsView" style="stroke:#181818;stroke-width:1.0;"/><polygon fill="none" points="378.79,89.26,399.98,89.09,383.52,102.43,378.79,89.26" style="stroke:#181818;stroke-width:1.0;"/></g><rect height="11.6406" style="stroke:#00000000;stroke-width:1.0;fill:none;" width="186" x="390.5" y="267"/><text fill="#888888" font-family="sans-serif" font-size="10" lengthAdjust="spacing" textLength="186" x="390.5" y="276.2822">UMLDoclet 2.0.18, PlantUML 1.2022.6</text><!--MD5=[2af884fe3a442333bcf3290dc81cd68f]
@startuml
    namespace com.hack23.cia.web.impl.ui.application.views.user.document {

        class SearchDocumentView [[SearchDocumentView.html]] {
            {static} +NAME: String
            +SearchDocumentView(ApplicationContext)
        }

        class DocumentView [[DocumentView.html]] {
            {static} +NAME: String
            +DocumentView(ApplicationContext)
        }

        class DocumentsView [[DocumentsView.html]] {
            {static} +NAME: String
            +DocumentsView(ApplicationContext)
        }

        com.hack23.cia.web.impl.ui.application.views.user.common.AbstractUserView <|- - SearchDocumentView
        com.hack23.cia.web.impl.ui.application.views.user.common.AbstractUserView <|- - DocumentView
        com.hack23.cia.web.impl.ui.application.views.user.common.AbstractUserView <|- - DocumentsView
    }

    namespace com.hack23.cia.web.impl.ui.application.views.user.common {
        abstract class AbstractUserView [[../common/AbstractUserView.html]] {
        }
    }

    center footer UMLDoclet 2.0.18, PlantUML 1.2022.6
@enduml

PlantUML version 1.2022.6(Tue Jun 21 19:34:49 CEST 2022)
(APACHE source distribution)
Java Runtime: OpenJDK Runtime Environment
JVM: OpenJDK 64-Bit Server VM
Default Encoding: ANSI_X3.4-1968
Language: en
Country: US
--></g></svg>