<?xml version="1.0" encoding="UTF-8" standalone="no"?><svg xmlns="http://www.w3.org/2000/svg" xmlns:xlink="http://www.w3.org/1999/xlink" contentScriptType="application/ecmascript" contentStyleType="text/css" height="218px" preserveAspectRatio="none" style="width:348px;height:218px;" version="1.1" viewBox="0 0 348 218" width="348px" zoomAndPan="magnify"><defs><filter height="300%" id="fcvaqfnqx11vp" width="300%" x="-1" y="-1"><feGaussianBlur result="blurOut" stdDeviation="2.0"/><feColorMatrix in="blurOut" result="blurOut2" type="matrix" values="0 0 0 0 0 0 0 0 0 0 0 0 0 0 0 0 0 0 .4 0"/><feOffset dx="4.0" dy="4.0" in="blurOut2" result="blurOut3"/><feBlend in="SourceGraphic" in2="blurOut3" mode="normal"/></filter></defs><g><!--MD5=[a309fe579c953f0e9448e1a48eda1647]
class com.hack23.cia.web.impl.ui.application.views.user.document.SearchDocumentView--><a href="SearchDocumentView.html" target="_top" title="SearchDocumentView.html" xlink:actuate="onRequest" xlink:href="SearchDocumentView.html" xlink:show="new" xlink:title="SearchDocumentView.html" xlink:type="simple"><rect fill="#FEFECE" filter="url(#fcvaqfnqx11vp)" height="79.5469" id="com.hack23.cia.web.impl.ui.application.views.user.document.SearchDocumentView" style="stroke: #A80036; stroke-width: 1.5;" width="323" x="10" y="106"/><ellipse cx="25" cy="124.9688" fill="#ADD1B2" rx="11" ry="11" style="stroke: #A80036; stroke-width: 1.0;"/><path d="M27.9688,130.6094 Q27.3906,130.9063 26.75,131.0469 Q26.1094,131.2031 25.4063,131.2031 Q22.9063,131.2031 21.5781,129.5625 Q20.2656,127.9063 20.2656,124.7813 Q20.2656,121.6563 21.5781,120 Q22.9063,118.3438 25.4063,118.3438 Q26.1094,118.3438 26.75,118.5 Q27.4063,118.6563 27.9688,118.9531 L27.9688,121.6719 Q27.3438,121.0938 26.75,120.8281 Q26.1563,120.5469 25.5313,120.5469 Q24.1875,120.5469 23.5,121.625 Q22.8125,122.6875 22.8125,124.7813 Q22.8125,126.875 23.5,127.9531 Q24.1875,129.0156 25.5313,129.0156 Q26.1563,129.0156 26.75,128.75 Q27.3438,128.4688 27.9688,127.8906 L27.9688,130.6094 Z "/><text fill="#000000" font-family="sans-serif" font-size="14" lengthAdjust="spacingAndGlyphs" textLength="153" x="108" y="123.9951">SearchDocumentView</text><text fill="#000000" font-family="sans-serif" font-size="10" lengthAdjust="spacingAndGlyphs" textLength="291" x="39" y="136.5791">com.hack23.cia.web.impl.ui.application.views.user.document</text><line style="stroke: #A80036; stroke-width: 1.5;" x1="11" x2="332" y1="143.9375" y2="143.9375"/><ellipse cx="21" cy="154.9375" fill="none" rx="3" ry="3" style="stroke: #038048; stroke-width: 1.0;"/><text fill="#000000" font-family="sans-serif" font-size="11" lengthAdjust="spacingAndGlyphs" text-decoration="underline" textLength="73" x="30" y="158.1479">NAME: String</text><line style="stroke: #A80036; stroke-width: 1.5;" x1="11" x2="332" y1="164.7422" y2="164.7422"/><ellipse cx="21" cy="175.7422" fill="#84BE84" rx="3" ry="3" style="stroke: #038048; stroke-width: 1.0;"/><text fill="#000000" font-family="sans-serif" font-size="11" lengthAdjust="spacingAndGlyphs" textLength="235" x="30" y="178.9526">SearchDocumentView(ApplicationContext)</text></a><!--MD5=[968b4da468365d2329577b3d306a41ed]
class com.hack23.cia.web.impl.ui.application.views.user.common.AbstractUserView--><a href="../common/AbstractUserView.html" target="_top" title="../common/AbstractUserView.html" xlink:actuate="onRequest" xlink:href="../common/AbstractUserView.html" xlink:show="new" xlink:title="../common/AbstractUserView.html" xlink:type="simple"><rect fill="#FEFECE" filter="url(#fcvaqfnqx11vp)" height="37.9375" id="com.hack23.cia.web.impl.ui.application.views.user.common.AbstractUserView" style="stroke: #A80036; stroke-width: 1.5;" width="331" x="6" y="8"/><ellipse cx="21" cy="26.9688" fill="#A9DCDF" rx="11" ry="11" style="stroke: #A80036; stroke-width: 1.0;"/><path d="M21.1094,22.3125 L19.9531,27.3906 L22.2813,27.3906 L21.1094,22.3125 Z M19.625,20.0781 L22.6094,20.0781 L25.9688,32.4688 L23.5156,32.4688 L22.75,29.4063 L19.4688,29.4063 L18.7188,32.4688 L16.2813,32.4688 L19.625,20.0781 Z "/><text fill="#000000" font-family="sans-serif" font-size="14" font-style="italic" lengthAdjust="spacingAndGlyphs" textLength="121" x="124" y="25.9951">AbstractUserView</text><text fill="#000000" font-family="sans-serif" font-size="10" font-style="italic" lengthAdjust="spacingAndGlyphs" textLength="299" x="35" y="38.5791">com.hack23.cia.web.impl.ui.application.views.user.common</text></a><!--MD5=[fd83f732e8ae1858778f84faf546731a]
reverse link com.hack23.cia.web.impl.ui.application.views.user.common.AbstractUserView to com.hack23.cia.web.impl.ui.application.views.user.document.SearchDocumentView--><path d="M171.5,66.2438 C171.5,78.9166 171.5,92.9816 171.5,105.7276 " fill="none" id="com.hack23.cia.web.impl.ui.application.views.user.common.AbstractUserView&lt;-com.hack23.cia.web.impl.ui.application.views.user.document.SearchDocumentView" style="stroke: #A80036; stroke-width: 1.0;"/><polygon fill="none" points="164.5001,66.1194,171.5,46.1194,178.5001,66.1194,164.5001,66.1194" style="stroke: #A80036; stroke-width: 1.0;"/><text fill="#888888" font-family="sans-serif" font-size="10" lengthAdjust="spacingAndGlyphs" textLength="186" x="84.5" y="205.2822">UMLDoclet 2.0.7, PlantUML 1.2019.12</text><!--MD5=[bd4acd9465ee6fd1f02685fc94eae22b]
@startuml
    set namespaceSeparator none
    hide empty fields
    hide empty methods

    class "<size:14>SearchDocumentView\n<size:10>com.hack23.cia.web.impl.ui.application.views.user.document" as com.hack23.cia.web.impl.ui.application.views.user.document.SearchDocumentView [[SearchDocumentView.html]] {
        {static} +NAME: String
        +SearchDocumentView(ApplicationContext)
    }

    abstract class "<size:14>AbstractUserView\n<size:10>com.hack23.cia.web.impl.ui.application.views.user.common" as com.hack23.cia.web.impl.ui.application.views.user.common.AbstractUserView [[../common/AbstractUserView.html]]

    com.hack23.cia.web.impl.ui.application.views.user.common.AbstractUserView <|- - com.hack23.cia.web.impl.ui.application.views.user.document.SearchDocumentView

    center footer UMLDoclet 2.0.7, PlantUML 1.2019.12
@enduml

PlantUML version 1.2019.12(Sun Nov 03 11:24:54 CET 2019)
(APACHE source distribution)
Java Runtime: OpenJDK Runtime Environment
JVM: OpenJDK 64-Bit Server VM
Java Version: 11.0.6+10-post-Ubuntu-1ubuntu119.10.1
Operating System: Linux
Default Encoding: UTF-8
Language: en
Country: US
--></g></svg>